<?xml version="1.0" encoding="utf-8" standalone="no"?>
<!DOCTYPE svg PUBLIC "-//W3C//DTD SVG 1.1//EN"
  "http://www.w3.org/Graphics/SVG/1.1/DTD/svg11.dtd">
<svg xmlns:xlink="http://www.w3.org/1999/xlink" width="1016.39952pt" height="584.39952pt" viewBox="0 0 1016.39952 584.39952" xmlns="http://www.w3.org/2000/svg" version="1.1">
 <metadata>
  <rdf:RDF xmlns:dc="http://purl.org/dc/elements/1.1/" xmlns:cc="http://creativecommons.org/ns#" xmlns:rdf="http://www.w3.org/1999/02/22-rdf-syntax-ns#">
   <cc:Work>
    <dc:type rdf:resource="http://purl.org/dc/dcmitype/StillImage"/>
    <dc:date>2026-01-04T20:51:58.452263</dc:date>
    <dc:format>image/svg+xml</dc:format>
    <dc:creator>
     <cc:Agent>
      <dc:title>Repositorio Matemáticas Universitarias</dc:title>
     </cc:Agent>
    </dc:creator>
   </cc:Work>
  </rdf:RDF>
 </metadata>
 <defs>
  <style type="text/css">*{stroke-linejoin: round; stroke-linecap: butt}</style>
 </defs>
 <g id="figure_1">
  <g id="patch_1">
   <path d="M 0 584.39952 
L 1016.39952 584.39952 
L 1016.39952 0 
L 0 0 
z
" style="fill: #ffffff"/>
  </g>
  <g id="axes_1">
   <g id="patch_2">
    <path d="M 18.07116 112.635175 
L 105.040438 112.635175 
L 105.040438 71.401653 
L 18.07116 71.401653 
z
" clip-path="url(#p08db256be1)" style="fill: #2563eb; stroke: #ffffff; stroke-width: 2; stroke-linejoin: miter"/>
   </g>
   <g id="patch_3">
    <path d="M 105.040438 112.635175 
L 181.138557 112.635175 
L 181.138557 71.401653 
L 105.040438 71.401653 
z
" clip-path="url(#p08db256be1)" style="fill: #2563eb; stroke: #ffffff; stroke-width: 2; stroke-linejoin: miter"/>
   </g>
   <g id="patch_4">
    <path d="M 181.138557 112.635175 
L 300.721314 112.635175 
L 300.721314 71.401653 
L 181.138557 71.401653 
z
" clip-path="url(#p08db256be1)" style="fill: #2563eb; stroke: #ffffff; stroke-width: 2; stroke-linejoin: miter"/>
   </g>
   <g id="patch_5">
    <path d="M 300.721314 112.635175 
L 420.304072 112.635175 
L 420.304072 71.401653 
L 300.721314 71.401653 
z
" clip-path="url(#p08db256be1)" style="fill: #2563eb; stroke: #ffffff; stroke-width: 2; stroke-linejoin: miter"/>
   </g>
   <g id="patch_6">
    <path d="M 420.304072 112.635175 
L 539.88683 112.635175 
L 539.88683 71.401653 
L 420.304072 71.401653 
z
" clip-path="url(#p08db256be1)" style="fill: #2563eb; stroke: #ffffff; stroke-width: 2; stroke-linejoin: miter"/>
   </g>
   <g id="patch_7">
    <path d="M 18.07116 153.868697 
L 105.040438 153.868697 
L 105.040438 112.635175 
L 18.07116 112.635175 
z
" clip-path="url(#p08db256be1)" style="fill: #f3f4f6; stroke: #d1d5db; stroke-linejoin: miter"/>
   </g>
   <g id="patch_8">
    <path d="M 105.040438 153.868697 
L 181.138557 153.868697 
L 181.138557 112.635175 
L 105.040438 112.635175 
z
" clip-path="url(#p08db256be1)" style="fill: #f3f4f6; stroke: #d1d5db; stroke-linejoin: miter"/>
   </g>
   <g id="patch_9">
    <path d="M 181.138557 153.868697 
L 300.721314 153.868697 
L 300.721314 112.635175 
L 181.138557 112.635175 
z
" clip-path="url(#p08db256be1)" style="fill: #f3f4f6; stroke: #d1d5db; stroke-linejoin: miter"/>
   </g>
   <g id="patch_10">
    <path d="M 300.721314 153.868697 
L 420.304072 153.868697 
L 420.304072 112.635175 
L 300.721314 112.635175 
z
" clip-path="url(#p08db256be1)" style="fill: #f3f4f6; stroke: #d1d5db; stroke-linejoin: miter"/>
   </g>
   <g id="patch_11">
    <path d="M 420.304072 153.868697 
L 539.88683 153.868697 
L 539.88683 112.635175 
L 420.304072 112.635175 
z
" clip-path="url(#p08db256be1)" style="fill: #f3f4f6; stroke: #d1d5db; stroke-linejoin: miter"/>
   </g>
   <g id="patch_12">
    <path d="M 18.07116 195.102218 
L 105.040438 195.102218 
L 105.040438 153.868697 
L 18.07116 153.868697 
z
" clip-path="url(#p08db256be1)" style="fill: #fef3c7; stroke: #d1d5db; stroke-linejoin: miter"/>
   </g>
   <g id="patch_13">
    <path d="M 105.040438 195.102218 
L 181.138557 195.102218 
L 181.138557 153.868697 
L 105.040438 153.868697 
z
" clip-path="url(#p08db256be1)" style="fill: #fef3c7; stroke: #d1d5db; stroke-linejoin: miter"/>
   </g>
   <g id="patch_14">
    <path d="M 181.138557 195.102218 
L 300.721314 195.102218 
L 300.721314 153.868697 
L 181.138557 153.868697 
z
" clip-path="url(#p08db256be1)" style="fill: #fef3c7; stroke: #d1d5db; stroke-linejoin: miter"/>
   </g>
   <g id="patch_15">
    <path d="M 300.721314 195.102218 
L 420.304072 195.102218 
L 420.304072 153.868697 
L 300.721314 153.868697 
z
" clip-path="url(#p08db256be1)" style="fill: #fef3c7; stroke: #d1d5db; stroke-linejoin: miter"/>
   </g>
   <g id="patch_16">
    <path d="M 420.304072 195.102218 
L 539.88683 195.102218 
L 539.88683 153.868697 
L 420.304072 153.868697 
z
" clip-path="url(#p08db256be1)" style="fill: #fef3c7; stroke: #d1d5db; stroke-linejoin: miter"/>
   </g>
   <g id="patch_17">
    <path d="M 18.07116 236.33574 
L 105.040438 236.33574 
L 105.040438 195.102218 
L 18.07116 195.102218 
z
" clip-path="url(#p08db256be1)" style="fill: #fef3c7; stroke: #d1d5db; stroke-linejoin: miter"/>
   </g>
   <g id="patch_18">
    <path d="M 105.040438 236.33574 
L 181.138557 236.33574 
L 181.138557 195.102218 
L 105.040438 195.102218 
z
" clip-path="url(#p08db256be1)" style="fill: #fef3c7; stroke: #d1d5db; stroke-linejoin: miter"/>
   </g>
   <g id="patch_19">
    <path d="M 181.138557 236.33574 
L 300.721314 236.33574 
L 300.721314 195.102218 
L 181.138557 195.102218 
z
" clip-path="url(#p08db256be1)" style="fill: #fef3c7; stroke: #d1d5db; stroke-linejoin: miter"/>
   </g>
   <g id="patch_20">
    <path d="M 300.721314 236.33574 
L 420.304072 236.33574 
L 420.304072 195.102218 
L 300.721314 195.102218 
z
" clip-path="url(#p08db256be1)" style="fill: #fef3c7; stroke: #d1d5db; stroke-linejoin: miter"/>
   </g>
   <g id="patch_21">
    <path d="M 420.304072 236.33574 
L 539.88683 236.33574 
L 539.88683 195.102218 
L 420.304072 195.102218 
z
" clip-path="url(#p08db256be1)" style="fill: #fef3c7; stroke: #d1d5db; stroke-linejoin: miter"/>
   </g>
   <g id="patch_22">
    <path d="M 18.07116 277.569262 
L 105.040438 277.569262 
L 105.040438 236.33574 
L 18.07116 236.33574 
z
" clip-path="url(#p08db256be1)" style="fill: #fef3c7; stroke: #d1d5db; stroke-linejoin: miter"/>
   </g>
   <g id="patch_23">
    <path d="M 105.040438 277.569262 
L 181.138557 277.569262 
L 181.138557 236.33574 
L 105.040438 236.33574 
z
" clip-path="url(#p08db256be1)" style="fill: #fef3c7; stroke: #d1d5db; stroke-linejoin: miter"/>
   </g>
   <g id="patch_24">
    <path d="M 181.138557 277.569262 
L 300.721314 277.569262 
L 300.721314 236.33574 
L 181.138557 236.33574 
z
" clip-path="url(#p08db256be1)" style="fill: #fef3c7; stroke: #d1d5db; stroke-linejoin: miter"/>
   </g>
   <g id="patch_25">
    <path d="M 300.721314 277.569262 
L 420.304072 277.569262 
L 420.304072 236.33574 
L 300.721314 236.33574 
z
" clip-path="url(#p08db256be1)" style="fill: #fef3c7; stroke: #d1d5db; stroke-linejoin: miter"/>
   </g>
   <g id="patch_26">
    <path d="M 420.304072 277.569262 
L 539.88683 277.569262 
L 539.88683 236.33574 
L 420.304072 236.33574 
z
" clip-path="url(#p08db256be1)" style="fill: #fef3c7; stroke: #d1d5db; stroke-linejoin: miter"/>
   </g>
   <g id="patch_27">
    <path d="M 18.07116 318.802784 
L 105.040438 318.802784 
L 105.040438 277.569262 
L 18.07116 277.569262 
z
" clip-path="url(#p08db256be1)" style="fill: #f3f4f6; stroke: #d1d5db; stroke-linejoin: miter"/>
   </g>
   <g id="patch_28">
    <path d="M 105.040438 318.802784 
L 181.138557 318.802784 
L 181.138557 277.569262 
L 105.040438 277.569262 
z
" clip-path="url(#p08db256be1)" style="fill: #f3f4f6; stroke: #d1d5db; stroke-linejoin: miter"/>
   </g>
   <g id="patch_29">
    <path d="M 181.138557 318.802784 
L 300.721314 318.802784 
L 300.721314 277.569262 
L 181.138557 277.569262 
z
" clip-path="url(#p08db256be1)" style="fill: #f3f4f6; stroke: #d1d5db; stroke-linejoin: miter"/>
   </g>
   <g id="patch_30">
    <path d="M 300.721314 318.802784 
L 420.304072 318.802784 
L 420.304072 277.569262 
L 300.721314 277.569262 
z
" clip-path="url(#p08db256be1)" style="fill: #f3f4f6; stroke: #d1d5db; stroke-linejoin: miter"/>
   </g>
   <g id="patch_31">
    <path d="M 420.304072 318.802784 
L 539.88683 318.802784 
L 539.88683 277.569262 
L 420.304072 277.569262 
z
" clip-path="url(#p08db256be1)" style="fill: #f3f4f6; stroke: #d1d5db; stroke-linejoin: miter"/>
   </g>
   <g id="patch_32">
    <path d="M 18.07116 360.036305 
L 105.040438 360.036305 
L 105.040438 318.802784 
L 18.07116 318.802784 
z
" clip-path="url(#p08db256be1)" style="fill: #ffffff; stroke: #d1d5db; stroke-linejoin: miter"/>
   </g>
   <g id="patch_33">
    <path d="M 105.040438 360.036305 
L 181.138557 360.036305 
L 181.138557 318.802784 
L 105.040438 318.802784 
z
" clip-path="url(#p08db256be1)" style="fill: #ffffff; stroke: #d1d5db; stroke-linejoin: miter"/>
   </g>
   <g id="patch_34">
    <path d="M 181.138557 360.036305 
L 300.721314 360.036305 
L 300.721314 318.802784 
L 181.138557 318.802784 
z
" clip-path="url(#p08db256be1)" style="fill: #ffffff; stroke: #d1d5db; stroke-linejoin: miter"/>
   </g>
   <g id="patch_35">
    <path d="M 300.721314 360.036305 
L 420.304072 360.036305 
L 420.304072 318.802784 
L 300.721314 318.802784 
z
" clip-path="url(#p08db256be1)" style="fill: #ffffff; stroke: #d1d5db; stroke-linejoin: miter"/>
   </g>
   <g id="patch_36">
    <path d="M 420.304072 360.036305 
L 539.88683 360.036305 
L 539.88683 318.802784 
L 420.304072 318.802784 
z
" clip-path="url(#p08db256be1)" style="fill: #ffffff; stroke: #d1d5db; stroke-linejoin: miter"/>
   </g>
   <g id="patch_37">
    <path d="M 18.07116 401.269827 
L 105.040438 401.269827 
L 105.040438 360.036305 
L 18.07116 360.036305 
z
" clip-path="url(#p08db256be1)" style="fill: #f3f4f6; stroke: #d1d5db; stroke-linejoin: miter"/>
   </g>
   <g id="patch_38">
    <path d="M 105.040438 401.269827 
L 181.138557 401.269827 
L 181.138557 360.036305 
L 105.040438 360.036305 
z
" clip-path="url(#p08db256be1)" style="fill: #f3f4f6; stroke: #d1d5db; stroke-linejoin: miter"/>
   </g>
   <g id="patch_39">
    <path d="M 181.138557 401.269827 
L 300.721314 401.269827 
L 300.721314 360.036305 
L 181.138557 360.036305 
z
" clip-path="url(#p08db256be1)" style="fill: #f3f4f6; stroke: #d1d5db; stroke-linejoin: miter"/>
   </g>
   <g id="patch_40">
    <path d="M 300.721314 401.269827 
L 420.304072 401.269827 
L 420.304072 360.036305 
L 300.721314 360.036305 
z
" clip-path="url(#p08db256be1)" style="fill: #f3f4f6; stroke: #d1d5db; stroke-linejoin: miter"/>
   </g>
   <g id="patch_41">
    <path d="M 420.304072 401.269827 
L 539.88683 401.269827 
L 539.88683 360.036305 
L 420.304072 360.036305 
z
" clip-path="url(#p08db256be1)" style="fill: #f3f4f6; stroke: #d1d5db; stroke-linejoin: miter"/>
   </g>
   <g id="patch_42">
    <path d="M 18.07116 442.503349 
L 105.040438 442.503349 
L 105.040438 401.269827 
L 18.07116 401.269827 
z
" clip-path="url(#p08db256be1)" style="fill: #ffffff; stroke: #d1d5db; stroke-linejoin: miter"/>
   </g>
   <g id="patch_43">
    <path d="M 105.040438 442.503349 
L 181.138557 442.503349 
L 181.138557 401.269827 
L 105.040438 401.269827 
z
" clip-path="url(#p08db256be1)" style="fill: #ffffff; stroke: #d1d5db; stroke-linejoin: miter"/>
   </g>
   <g id="patch_44">
    <path d="M 181.138557 442.503349 
L 300.721314 442.503349 
L 300.721314 401.269827 
L 181.138557 401.269827 
z
" clip-path="url(#p08db256be1)" style="fill: #ffffff; stroke: #d1d5db; stroke-linejoin: miter"/>
   </g>
   <g id="patch_45">
    <path d="M 300.721314 442.503349 
L 420.304072 442.503349 
L 420.304072 401.269827 
L 300.721314 401.269827 
z
" clip-path="url(#p08db256be1)" style="fill: #ffffff; stroke: #d1d5db; stroke-linejoin: miter"/>
   </g>
   <g id="patch_46">
    <path d="M 420.304072 442.503349 
L 539.88683 442.503349 
L 539.88683 401.269827 
L 420.304072 401.269827 
z
" clip-path="url(#p08db256be1)" style="fill: #ffffff; stroke: #d1d5db; stroke-linejoin: miter"/>
   </g>
   <g id="patch_47">
    <path d="M 18.07116 483.736871 
L 105.040438 483.736871 
L 105.040438 442.503349 
L 18.07116 442.503349 
z
" clip-path="url(#p08db256be1)" style="fill: #f3f4f6; stroke: #d1d5db; stroke-linejoin: miter"/>
   </g>
   <g id="patch_48">
    <path d="M 105.040438 483.736871 
L 181.138557 483.736871 
L 181.138557 442.503349 
L 105.040438 442.503349 
z
" clip-path="url(#p08db256be1)" style="fill: #f3f4f6; stroke: #d1d5db; stroke-linejoin: miter"/>
   </g>
   <g id="patch_49">
    <path d="M 181.138557 483.736871 
L 300.721314 483.736871 
L 300.721314 442.503349 
L 181.138557 442.503349 
z
" clip-path="url(#p08db256be1)" style="fill: #f3f4f6; stroke: #d1d5db; stroke-linejoin: miter"/>
   </g>
   <g id="patch_50">
    <path d="M 300.721314 483.736871 
L 420.304072 483.736871 
L 420.304072 442.503349 
L 300.721314 442.503349 
z
" clip-path="url(#p08db256be1)" style="fill: #f3f4f6; stroke: #d1d5db; stroke-linejoin: miter"/>
   </g>
   <g id="patch_51">
    <path d="M 420.304072 483.736871 
L 539.88683 483.736871 
L 539.88683 442.503349 
L 420.304072 442.503349 
z
" clip-path="url(#p08db256be1)" style="fill: #f3f4f6; stroke: #d1d5db; stroke-linejoin: miter"/>
   </g>
   <g id="patch_52">
    <path d="M 18.07116 524.970392 
L 105.040438 524.970392 
L 105.040438 483.736871 
L 18.07116 483.736871 
z
" clip-path="url(#p08db256be1)" style="fill: #ffffff; stroke: #d1d5db; stroke-linejoin: miter"/>
   </g>
   <g id="patch_53">
    <path d="M 105.040438 524.970392 
L 181.138557 524.970392 
L 181.138557 483.736871 
L 105.040438 483.736871 
z
" clip-path="url(#p08db256be1)" style="fill: #ffffff; stroke: #d1d5db; stroke-linejoin: miter"/>
   </g>
   <g id="patch_54">
    <path d="M 181.138557 524.970392 
L 300.721314 524.970392 
L 300.721314 483.736871 
L 181.138557 483.736871 
z
" clip-path="url(#p08db256be1)" style="fill: #ffffff; stroke: #d1d5db; stroke-linejoin: miter"/>
   </g>
   <g id="patch_55">
    <path d="M 300.721314 524.970392 
L 420.304072 524.970392 
L 420.304072 483.736871 
L 300.721314 483.736871 
z
" clip-path="url(#p08db256be1)" style="fill: #ffffff; stroke: #d1d5db; stroke-linejoin: miter"/>
   </g>
   <g id="patch_56">
    <path d="M 420.304072 524.970392 
L 539.88683 524.970392 
L 539.88683 483.736871 
L 420.304072 483.736871 
z
" clip-path="url(#p08db256be1)" style="fill: #ffffff; stroke: #d1d5db; stroke-linejoin: miter"/>
   </g>
   <g id="patch_57">
    <path d="M 18.07116 566.203914 
L 105.040438 566.203914 
L 105.040438 524.970392 
L 18.07116 524.970392 
z
" clip-path="url(#p08db256be1)" style="fill: #f3f4f6; stroke: #d1d5db; stroke-linejoin: miter"/>
   </g>
   <g id="patch_58">
    <path d="M 105.040438 566.203914 
L 181.138557 566.203914 
L 181.138557 524.970392 
L 105.040438 524.970392 
z
" clip-path="url(#p08db256be1)" style="fill: #f3f4f6; stroke: #d1d5db; stroke-linejoin: miter"/>
   </g>
   <g id="patch_59">
    <path d="M 181.138557 566.203914 
L 300.721314 566.203914 
L 300.721314 524.970392 
L 181.138557 524.970392 
z
" clip-path="url(#p08db256be1)" style="fill: #f3f4f6; stroke: #d1d5db; stroke-linejoin: miter"/>
   </g>
   <g id="patch_60">
    <path d="M 300.721314 566.203914 
L 420.304072 566.203914 
L 420.304072 524.970392 
L 300.721314 524.970392 
z
" clip-path="url(#p08db256be1)" style="fill: #f3f4f6; stroke: #d1d5db; stroke-linejoin: miter"/>
   </g>
   <g id="patch_61">
    <path d="M 420.304072 566.203914 
L 539.88683 566.203914 
L 539.88683 524.970392 
L 420.304072 524.970392 
z
" clip-path="url(#p08db256be1)" style="fill: #f3f4f6; stroke: #d1d5db; stroke-linejoin: miter"/>
   </g>
   <g id="text_1">
    <!-- θ (grados) -->
    <g style="fill: #ffffff" transform="translate(32.401111 94.777789) scale(0.1 -0.1)">
     <defs>
      <path id="DejaVuSans-Bold-3b8" d="M 1447 2081 
Q 1469 1444 1638 1181 
Q 1922 728 2197 725 
Q 2475 722 2763 1181 
Q 2931 1453 2953 2081 
L 1447 2081 
z
M 2950 2881 
Q 2913 3394 2759 3688 
Q 2522 4144 2200 4144 
Q 1875 4144 1641 3688 
Q 1484 3384 1450 2881 
L 2950 2881 
z
M 2200 4913 
Q 3247 4913 3686 4231 
Q 4125 3550 4125 2403 
Q 4125 1256 3673 592 
Q 3222 -72 2200 -72 
Q 1178 -72 726 592 
Q 275 1256 275 2403 
Q 275 3550 714 4231 
Q 1153 4913 2200 4913 
z
" transform="scale(0.015625)"/>
      <path id="DejaVuSans-Bold-20" transform="scale(0.015625)"/>
      <path id="DejaVuSans-Bold-28" d="M 2413 -844 
L 1484 -844 
Q 1006 -72 778 623 
Q 550 1319 550 2003 
Q 550 2688 779 3389 
Q 1009 4091 1484 4856 
L 2413 4856 
Q 2013 4116 1813 3408 
Q 1613 2700 1613 2009 
Q 1613 1319 1811 609 
Q 2009 -100 2413 -844 
z
" transform="scale(0.015625)"/>
      <path id="DejaVuSans-Bold-67" d="M 2919 594 
Q 2688 288 2409 144 
Q 2131 0 1766 0 
Q 1125 0 706 504 
Q 288 1009 288 1791 
Q 288 2575 706 3076 
Q 1125 3578 1766 3578 
Q 2131 3578 2409 3434 
Q 2688 3291 2919 2981 
L 2919 3500 
L 4044 3500 
L 4044 353 
Q 4044 -491 3511 -936 
Q 2978 -1381 1966 -1381 
Q 1638 -1381 1331 -1331 
Q 1025 -1281 716 -1178 
L 716 -306 
Q 1009 -475 1290 -558 
Q 1572 -641 1856 -641 
Q 2406 -641 2662 -400 
Q 2919 -159 2919 353 
L 2919 594 
z
M 2181 2772 
Q 1834 2772 1640 2515 
Q 1447 2259 1447 1791 
Q 1447 1309 1634 1061 
Q 1822 813 2181 813 
Q 2531 813 2725 1069 
Q 2919 1325 2919 1791 
Q 2919 2259 2725 2515 
Q 2531 2772 2181 2772 
z
" transform="scale(0.015625)"/>
      <path id="DejaVuSans-Bold-72" d="M 3138 2547 
Q 2991 2616 2845 2648 
Q 2700 2681 2553 2681 
Q 2122 2681 1889 2404 
Q 1656 2128 1656 1613 
L 1656 0 
L 538 0 
L 538 3500 
L 1656 3500 
L 1656 2925 
Q 1872 3269 2151 3426 
Q 2431 3584 2822 3584 
Q 2878 3584 2943 3579 
Q 3009 3575 3134 3559 
L 3138 2547 
z
" transform="scale(0.015625)"/>
      <path id="DejaVuSans-Bold-61" d="M 2106 1575 
Q 1756 1575 1579 1456 
Q 1403 1338 1403 1106 
Q 1403 894 1545 773 
Q 1688 653 1941 653 
Q 2256 653 2472 879 
Q 2688 1106 2688 1447 
L 2688 1575 
L 2106 1575 
z
M 3816 1997 
L 3816 0 
L 2688 0 
L 2688 519 
Q 2463 200 2181 54 
Q 1900 -91 1497 -91 
Q 953 -91 614 226 
Q 275 544 275 1050 
Q 275 1666 698 1953 
Q 1122 2241 2028 2241 
L 2688 2241 
L 2688 2328 
Q 2688 2594 2478 2717 
Q 2269 2841 1825 2841 
Q 1466 2841 1156 2769 
Q 847 2697 581 2553 
L 581 3406 
Q 941 3494 1303 3539 
Q 1666 3584 2028 3584 
Q 2975 3584 3395 3211 
Q 3816 2838 3816 1997 
z
" transform="scale(0.015625)"/>
      <path id="DejaVuSans-Bold-64" d="M 2919 2988 
L 2919 4863 
L 4044 4863 
L 4044 0 
L 2919 0 
L 2919 506 
Q 2688 197 2409 53 
Q 2131 -91 1766 -91 
Q 1119 -91 703 423 
Q 288 938 288 1747 
Q 288 2556 703 3070 
Q 1119 3584 1766 3584 
Q 2128 3584 2408 3439 
Q 2688 3294 2919 2988 
z
M 2181 722 
Q 2541 722 2730 984 
Q 2919 1247 2919 1747 
Q 2919 2247 2730 2509 
Q 2541 2772 2181 2772 
Q 1825 2772 1636 2509 
Q 1447 2247 1447 1747 
Q 1447 1247 1636 984 
Q 1825 722 2181 722 
z
" transform="scale(0.015625)"/>
      <path id="DejaVuSans-Bold-6f" d="M 2203 2784 
Q 1831 2784 1636 2517 
Q 1441 2250 1441 1747 
Q 1441 1244 1636 976 
Q 1831 709 2203 709 
Q 2569 709 2762 976 
Q 2956 1244 2956 1747 
Q 2956 2250 2762 2517 
Q 2569 2784 2203 2784 
z
M 2203 3584 
Q 3106 3584 3614 3096 
Q 4122 2609 4122 1747 
Q 4122 884 3614 396 
Q 3106 -91 2203 -91 
Q 1297 -91 786 396 
Q 275 884 275 1747 
Q 275 2609 786 3096 
Q 1297 3584 2203 3584 
z
" transform="scale(0.015625)"/>
      <path id="DejaVuSans-Bold-73" d="M 3272 3391 
L 3272 2541 
Q 2913 2691 2578 2766 
Q 2244 2841 1947 2841 
Q 1628 2841 1473 2761 
Q 1319 2681 1319 2516 
Q 1319 2381 1436 2309 
Q 1553 2238 1856 2203 
L 2053 2175 
Q 2913 2066 3209 1816 
Q 3506 1566 3506 1031 
Q 3506 472 3093 190 
Q 2681 -91 1863 -91 
Q 1516 -91 1145 -36 
Q 775 19 384 128 
L 384 978 
Q 719 816 1070 734 
Q 1422 653 1784 653 
Q 2113 653 2278 743 
Q 2444 834 2444 1013 
Q 2444 1163 2330 1236 
Q 2216 1309 1875 1350 
L 1678 1375 
Q 931 1469 631 1722 
Q 331 1975 331 2491 
Q 331 3047 712 3315 
Q 1094 3584 1881 3584 
Q 2191 3584 2531 3537 
Q 2872 3491 3272 3391 
z
" transform="scale(0.015625)"/>
      <path id="DejaVuSans-Bold-29" d="M 513 -844 
Q 913 -100 1113 609 
Q 1313 1319 1313 2009 
Q 1313 2700 1113 3408 
Q 913 4116 513 4856 
L 1441 4856 
Q 1916 4091 2145 3389 
Q 2375 2688 2375 2003 
Q 2375 1319 2147 623 
Q 1919 -72 1441 -844 
L 513 -844 
z
" transform="scale(0.015625)"/>
     </defs>
     <use xlink:href="#DejaVuSans-Bold-3b8"/>
     <use xlink:href="#DejaVuSans-Bold-20" transform="translate(68.701172 0)"/>
     <use xlink:href="#DejaVuSans-Bold-28" transform="translate(103.515625 0)"/>
     <use xlink:href="#DejaVuSans-Bold-67" transform="translate(149.21875 0)"/>
     <use xlink:href="#DejaVuSans-Bold-72" transform="translate(220.800781 0)"/>
     <use xlink:href="#DejaVuSans-Bold-61" transform="translate(270.117188 0)"/>
     <use xlink:href="#DejaVuSans-Bold-64" transform="translate(337.597656 0)"/>
     <use xlink:href="#DejaVuSans-Bold-6f" transform="translate(409.179688 0)"/>
     <use xlink:href="#DejaVuSans-Bold-73" transform="translate(477.880859 0)"/>
     <use xlink:href="#DejaVuSans-Bold-29" transform="translate(537.402344 0)"/>
    </g>
   </g>
   <g id="text_2">
    <!-- θ (rad) -->
    <g style="fill: #ffffff" transform="translate(123.924654 94.777789) scale(0.1 -0.1)">
     <use xlink:href="#DejaVuSans-Bold-3b8"/>
     <use xlink:href="#DejaVuSans-Bold-20" transform="translate(68.701172 0)"/>
     <use xlink:href="#DejaVuSans-Bold-28" transform="translate(103.515625 0)"/>
     <use xlink:href="#DejaVuSans-Bold-72" transform="translate(149.21875 0)"/>
     <use xlink:href="#DejaVuSans-Bold-61" transform="translate(198.535156 0)"/>
     <use xlink:href="#DejaVuSans-Bold-64" transform="translate(266.015625 0)"/>
     <use xlink:href="#DejaVuSans-Bold-29" transform="translate(337.597656 0)"/>
    </g>
   </g>
   <g id="text_3">
    <!-- sin θ -->
    <g style="fill: #ffffff" transform="translate(227.504936 94.777789) scale(0.1 -0.1)">
     <defs>
      <path id="DejaVuSans-Bold-69" d="M 538 3500 
L 1656 3500 
L 1656 0 
L 538 0 
L 538 3500 
z
M 538 4863 
L 1656 4863 
L 1656 3950 
L 538 3950 
L 538 4863 
z
" transform="scale(0.015625)"/>
      <path id="DejaVuSans-Bold-6e" d="M 4056 2131 
L 4056 0 
L 2931 0 
L 2931 347 
L 2931 1631 
Q 2931 2084 2911 2256 
Q 2891 2428 2841 2509 
Q 2775 2619 2662 2680 
Q 2550 2741 2406 2741 
Q 2056 2741 1856 2470 
Q 1656 2200 1656 1722 
L 1656 0 
L 538 0 
L 538 3500 
L 1656 3500 
L 1656 2988 
Q 1909 3294 2193 3439 
Q 2478 3584 2822 3584 
Q 3428 3584 3742 3212 
Q 4056 2841 4056 2131 
z
" transform="scale(0.015625)"/>
     </defs>
     <use xlink:href="#DejaVuSans-Bold-73"/>
     <use xlink:href="#DejaVuSans-Bold-69" transform="translate(59.521484 0)"/>
     <use xlink:href="#DejaVuSans-Bold-6e" transform="translate(93.798828 0)"/>
     <use xlink:href="#DejaVuSans-Bold-20" transform="translate(164.990234 0)"/>
     <use xlink:href="#DejaVuSans-Bold-3b8" transform="translate(199.804688 0)"/>
    </g>
   </g>
   <g id="text_4">
    <!-- cos θ -->
    <g style="fill: #ffffff" transform="translate(345.961912 94.777789) scale(0.1 -0.1)">
     <defs>
      <path id="DejaVuSans-Bold-63" d="M 3366 3391 
L 3366 2478 
Q 3138 2634 2908 2709 
Q 2678 2784 2431 2784 
Q 1963 2784 1702 2511 
Q 1441 2238 1441 1747 
Q 1441 1256 1702 982 
Q 1963 709 2431 709 
Q 2694 709 2930 787 
Q 3166 866 3366 1019 
L 3366 103 
Q 3103 6 2833 -42 
Q 2563 -91 2291 -91 
Q 1344 -91 809 395 
Q 275 881 275 1747 
Q 275 2613 809 3098 
Q 1344 3584 2291 3584 
Q 2566 3584 2833 3536 
Q 3100 3488 3366 3391 
z
" transform="scale(0.015625)"/>
     </defs>
     <use xlink:href="#DejaVuSans-Bold-63"/>
     <use xlink:href="#DejaVuSans-Bold-6f" transform="translate(59.277344 0)"/>
     <use xlink:href="#DejaVuSans-Bold-73" transform="translate(127.978516 0)"/>
     <use xlink:href="#DejaVuSans-Bold-20" transform="translate(187.5 0)"/>
     <use xlink:href="#DejaVuSans-Bold-3b8" transform="translate(222.314453 0)"/>
    </g>
   </g>
   <g id="text_5">
    <!-- tan θ -->
    <g style="fill: #ffffff" transform="translate(465.596232 94.777789) scale(0.1 -0.1)">
     <defs>
      <path id="DejaVuSans-Bold-74" d="M 1759 4494 
L 1759 3500 
L 2913 3500 
L 2913 2700 
L 1759 2700 
L 1759 1216 
Q 1759 972 1856 886 
Q 1953 800 2241 800 
L 2816 800 
L 2816 0 
L 1856 0 
Q 1194 0 917 276 
Q 641 553 641 1216 
L 641 2700 
L 84 2700 
L 84 3500 
L 641 3500 
L 641 4494 
L 1759 4494 
z
" transform="scale(0.015625)"/>
     </defs>
     <use xlink:href="#DejaVuSans-Bold-74"/>
     <use xlink:href="#DejaVuSans-Bold-61" transform="translate(47.802734 0)"/>
     <use xlink:href="#DejaVuSans-Bold-6e" transform="translate(115.283203 0)"/>
     <use xlink:href="#DejaVuSans-Bold-20" transform="translate(186.474609 0)"/>
     <use xlink:href="#DejaVuSans-Bold-3b8" transform="translate(221.289062 0)"/>
    </g>
   </g>
   <g id="text_6">
    <!-- 0° -->
    <g style="fill: #374151" transform="translate(56.442674 135.735373) scale(0.09 -0.09)">
     <defs>
      <path id="DejaVuSans-30" d="M 2034 4250 
Q 1547 4250 1301 3770 
Q 1056 3291 1056 2328 
Q 1056 1369 1301 889 
Q 1547 409 2034 409 
Q 2525 409 2770 889 
Q 3016 1369 3016 2328 
Q 3016 3291 2770 3770 
Q 2525 4250 2034 4250 
z
M 2034 4750 
Q 2819 4750 3233 4129 
Q 3647 3509 3647 2328 
Q 3647 1150 3233 529 
Q 2819 -91 2034 -91 
Q 1250 -91 836 529 
Q 422 1150 422 2328 
Q 422 3509 836 4129 
Q 1250 4750 2034 4750 
z
" transform="scale(0.015625)"/>
      <path id="DejaVuSans-b0" d="M 1600 4347 
Q 1350 4347 1178 4173 
Q 1006 4000 1006 3750 
Q 1006 3503 1178 3333 
Q 1350 3163 1600 3163 
Q 1850 3163 2022 3333 
Q 2194 3503 2194 3750 
Q 2194 3997 2020 4172 
Q 1847 4347 1600 4347 
z
M 1600 4750 
Q 1800 4750 1984 4673 
Q 2169 4597 2303 4453 
Q 2447 4313 2519 4134 
Q 2591 3956 2591 3750 
Q 2591 3338 2302 3052 
Q 2013 2766 1594 2766 
Q 1172 2766 890 3047 
Q 609 3328 609 3750 
Q 609 4169 896 4459 
Q 1184 4750 1600 4750 
z
" transform="scale(0.015625)"/>
     </defs>
     <use xlink:href="#DejaVuSans-30"/>
     <use xlink:href="#DejaVuSans-b0" transform="translate(63.623047 0)"/>
    </g>
   </g>
   <g id="text_7">
    <!-- 0 -->
    <g style="fill: #374151" transform="translate(140.226372 135.735373) scale(0.09 -0.09)">
     <use xlink:href="#DejaVuSans-30"/>
    </g>
   </g>
   <g id="text_8">
    <!-- 0 -->
    <g style="fill: #374151" transform="translate(238.066811 135.735373) scale(0.09 -0.09)">
     <use xlink:href="#DejaVuSans-30"/>
    </g>
   </g>
   <g id="text_9">
    <!-- 1 -->
    <g style="fill: #374151" transform="translate(357.649568 135.735373) scale(0.09 -0.09)">
     <defs>
      <path id="DejaVuSans-31" d="M 794 531 
L 1825 531 
L 1825 4091 
L 703 3866 
L 703 4441 
L 1819 4666 
L 2450 4666 
L 2450 531 
L 3481 531 
L 3481 0 
L 794 0 
L 794 531 
z
" transform="scale(0.015625)"/>
     </defs>
     <use xlink:href="#DejaVuSans-31"/>
    </g>
   </g>
   <g id="text_10">
    <!-- 0 -->
    <g style="fill: #374151" transform="translate(477.232326 135.735373) scale(0.09 -0.09)">
     <use xlink:href="#DejaVuSans-30"/>
    </g>
   </g>
   <g id="text_11">
    <!-- 30° -->
    <g style="fill: #374151" transform="translate(53.579549 176.968895) scale(0.09 -0.09)">
     <defs>
      <path id="DejaVuSans-33" d="M 2597 2516 
Q 3050 2419 3304 2112 
Q 3559 1806 3559 1356 
Q 3559 666 3084 287 
Q 2609 -91 1734 -91 
Q 1441 -91 1130 -33 
Q 819 25 488 141 
L 488 750 
Q 750 597 1062 519 
Q 1375 441 1716 441 
Q 2309 441 2620 675 
Q 2931 909 2931 1356 
Q 2931 1769 2642 2001 
Q 2353 2234 1838 2234 
L 1294 2234 
L 1294 2753 
L 1863 2753 
Q 2328 2753 2575 2939 
Q 2822 3125 2822 3475 
Q 2822 3834 2567 4026 
Q 2313 4219 1838 4219 
Q 1578 4219 1281 4162 
Q 984 4106 628 3988 
L 628 4550 
Q 988 4650 1302 4700 
Q 1616 4750 1894 4750 
Q 2613 4750 3031 4423 
Q 3450 4097 3450 3541 
Q 3450 3153 3228 2886 
Q 3006 2619 2597 2516 
z
" transform="scale(0.015625)"/>
     </defs>
     <use xlink:href="#DejaVuSans-33"/>
     <use xlink:href="#DejaVuSans-30" transform="translate(63.623047 0)"/>
     <use xlink:href="#DejaVuSans-b0" transform="translate(127.246094 0)"/>
    </g>
   </g>
   <g id="text_12">
    <!-- π/6 -->
    <g style="fill: #374151" transform="translate(136.001294 176.968895) scale(0.09 -0.09)">
     <defs>
      <path id="DejaVuSans-3c0" d="M 231 3500 
L 3584 3500 
L 3584 2925 
L 3144 2925 
L 3144 775 
Q 3144 550 3220 451 
Q 3297 353 3469 353 
Q 3516 353 3584 361 
Q 3653 369 3675 372 
L 3675 -44 
Q 3566 -84 3450 -103 
Q 3334 -122 3219 -122 
Q 2844 -122 2700 83 
Q 2556 288 2556 838 
L 2556 2925 
L 1266 2925 
L 1266 0 
L 678 0 
L 678 2925 
L 231 2925 
L 231 3500 
z
" transform="scale(0.015625)"/>
      <path id="DejaVuSans-2f" d="M 1625 4666 
L 2156 4666 
L 531 -594 
L 0 -594 
L 1625 4666 
z
" transform="scale(0.015625)"/>
      <path id="DejaVuSans-36" d="M 2113 2584 
Q 1688 2584 1439 2293 
Q 1191 2003 1191 1497 
Q 1191 994 1439 701 
Q 1688 409 2113 409 
Q 2538 409 2786 701 
Q 3034 994 3034 1497 
Q 3034 2003 2786 2293 
Q 2538 2584 2113 2584 
z
M 3366 4563 
L 3366 3988 
Q 3128 4100 2886 4159 
Q 2644 4219 2406 4219 
Q 1781 4219 1451 3797 
Q 1122 3375 1075 2522 
Q 1259 2794 1537 2939 
Q 1816 3084 2150 3084 
Q 2853 3084 3261 2657 
Q 3669 2231 3669 1497 
Q 3669 778 3244 343 
Q 2819 -91 2113 -91 
Q 1303 -91 875 529 
Q 447 1150 447 2328 
Q 447 3434 972 4092 
Q 1497 4750 2381 4750 
Q 2619 4750 2861 4703 
Q 3103 4656 3366 4563 
z
" transform="scale(0.015625)"/>
     </defs>
     <use xlink:href="#DejaVuSans-3c0"/>
     <use xlink:href="#DejaVuSans-2f" transform="translate(60.205078 0)"/>
     <use xlink:href="#DejaVuSans-36" transform="translate(93.896484 0)"/>
    </g>
   </g>
   <g id="text_13">
    <!-- 1/2 -->
    <g style="fill: #374151" transform="translate(233.687748 176.968895) scale(0.09 -0.09)">
     <defs>
      <path id="DejaVuSans-32" d="M 1228 531 
L 3431 531 
L 3431 0 
L 469 0 
L 469 531 
Q 828 903 1448 1529 
Q 2069 2156 2228 2338 
Q 2531 2678 2651 2914 
Q 2772 3150 2772 3378 
Q 2772 3750 2511 3984 
Q 2250 4219 1831 4219 
Q 1534 4219 1204 4116 
Q 875 4013 500 3803 
L 500 4441 
Q 881 4594 1212 4672 
Q 1544 4750 1819 4750 
Q 2544 4750 2975 4387 
Q 3406 4025 3406 3419 
Q 3406 3131 3298 2873 
Q 3191 2616 2906 2266 
Q 2828 2175 2409 1742 
Q 1991 1309 1228 531 
z
" transform="scale(0.015625)"/>
     </defs>
     <use xlink:href="#DejaVuSans-31"/>
     <use xlink:href="#DejaVuSans-2f" transform="translate(63.623047 0)"/>
     <use xlink:href="#DejaVuSans-32" transform="translate(97.314453 0)"/>
    </g>
   </g>
   <g id="text_14">
    <!-- √3/2 -->
    <g style="fill: #374151" transform="translate(350.403162 176.968895) scale(0.09 -0.09)">
     <defs>
      <path id="DejaVuSans-221a" d="M 3488 5191 
L 4078 5191 
L 4078 4891 
L 3719 4891 
L 1863 -128 
L 1656 -128 
L 659 2631 
L 269 2491 
L 191 2741 
L 1075 3047 
L 1875 831 
L 3488 5191 
z
" transform="scale(0.015625)"/>
     </defs>
     <use xlink:href="#DejaVuSans-221a"/>
     <use xlink:href="#DejaVuSans-33" transform="translate(63.720703 0)"/>
     <use xlink:href="#DejaVuSans-2f" transform="translate(127.34375 0)"/>
     <use xlink:href="#DejaVuSans-32" transform="translate(161.035156 0)"/>
    </g>
   </g>
   <g id="text_15">
    <!-- √3/3 -->
    <g style="fill: #374151" transform="translate(469.98592 176.968895) scale(0.09 -0.09)">
     <use xlink:href="#DejaVuSans-221a"/>
     <use xlink:href="#DejaVuSans-33" transform="translate(63.720703 0)"/>
     <use xlink:href="#DejaVuSans-2f" transform="translate(127.34375 0)"/>
     <use xlink:href="#DejaVuSans-33" transform="translate(161.035156 0)"/>
    </g>
   </g>
   <g id="text_16">
    <!-- 45° -->
    <g style="fill: #374151" transform="translate(53.579549 218.202417) scale(0.09 -0.09)">
     <defs>
      <path id="DejaVuSans-34" d="M 2419 4116 
L 825 1625 
L 2419 1625 
L 2419 4116 
z
M 2253 4666 
L 3047 4666 
L 3047 1625 
L 3713 1625 
L 3713 1100 
L 3047 1100 
L 3047 0 
L 2419 0 
L 2419 1100 
L 313 1100 
L 313 1709 
L 2253 4666 
z
" transform="scale(0.015625)"/>
      <path id="DejaVuSans-35" d="M 691 4666 
L 3169 4666 
L 3169 4134 
L 1269 4134 
L 1269 2991 
Q 1406 3038 1543 3061 
Q 1681 3084 1819 3084 
Q 2600 3084 3056 2656 
Q 3513 2228 3513 1497 
Q 3513 744 3044 326 
Q 2575 -91 1722 -91 
Q 1428 -91 1123 -41 
Q 819 9 494 109 
L 494 744 
Q 775 591 1075 516 
Q 1375 441 1709 441 
Q 2250 441 2565 725 
Q 2881 1009 2881 1497 
Q 2881 1984 2565 2268 
Q 2250 2553 1709 2553 
Q 1456 2553 1204 2497 
Q 953 2441 691 2322 
L 691 4666 
z
" transform="scale(0.015625)"/>
     </defs>
     <use xlink:href="#DejaVuSans-34"/>
     <use xlink:href="#DejaVuSans-35" transform="translate(63.623047 0)"/>
     <use xlink:href="#DejaVuSans-b0" transform="translate(127.246094 0)"/>
    </g>
   </g>
   <g id="text_17">
    <!-- π/4 -->
    <g style="fill: #374151" transform="translate(136.001294 218.202417) scale(0.09 -0.09)">
     <use xlink:href="#DejaVuSans-3c0"/>
     <use xlink:href="#DejaVuSans-2f" transform="translate(60.205078 0)"/>
     <use xlink:href="#DejaVuSans-34" transform="translate(93.896484 0)"/>
    </g>
   </g>
   <g id="text_18">
    <!-- √2/2 -->
    <g style="fill: #374151" transform="translate(230.820404 218.202417) scale(0.09 -0.09)">
     <use xlink:href="#DejaVuSans-221a"/>
     <use xlink:href="#DejaVuSans-32" transform="translate(63.720703 0)"/>
     <use xlink:href="#DejaVuSans-2f" transform="translate(127.34375 0)"/>
     <use xlink:href="#DejaVuSans-32" transform="translate(161.035156 0)"/>
    </g>
   </g>
   <g id="text_19">
    <!-- √2/2 -->
    <g style="fill: #374151" transform="translate(350.403162 218.202417) scale(0.09 -0.09)">
     <use xlink:href="#DejaVuSans-221a"/>
     <use xlink:href="#DejaVuSans-32" transform="translate(63.720703 0)"/>
     <use xlink:href="#DejaVuSans-2f" transform="translate(127.34375 0)"/>
     <use xlink:href="#DejaVuSans-32" transform="translate(161.035156 0)"/>
    </g>
   </g>
   <g id="text_20">
    <!-- 1 -->
    <g style="fill: #374151" transform="translate(477.232326 218.202417) scale(0.09 -0.09)">
     <use xlink:href="#DejaVuSans-31"/>
    </g>
   </g>
   <g id="text_21">
    <!-- 60° -->
    <g style="fill: #374151" transform="translate(53.579549 259.435939) scale(0.09 -0.09)">
     <use xlink:href="#DejaVuSans-36"/>
     <use xlink:href="#DejaVuSans-30" transform="translate(63.623047 0)"/>
     <use xlink:href="#DejaVuSans-b0" transform="translate(127.246094 0)"/>
    </g>
   </g>
   <g id="text_22">
    <!-- π/3 -->
    <g style="fill: #374151" transform="translate(136.001294 259.435939) scale(0.09 -0.09)">
     <use xlink:href="#DejaVuSans-3c0"/>
     <use xlink:href="#DejaVuSans-2f" transform="translate(60.205078 0)"/>
     <use xlink:href="#DejaVuSans-33" transform="translate(93.896484 0)"/>
    </g>
   </g>
   <g id="text_23">
    <!-- √3/2 -->
    <g style="fill: #374151" transform="translate(230.820404 259.435939) scale(0.09 -0.09)">
     <use xlink:href="#DejaVuSans-221a"/>
     <use xlink:href="#DejaVuSans-33" transform="translate(63.720703 0)"/>
     <use xlink:href="#DejaVuSans-2f" transform="translate(127.34375 0)"/>
     <use xlink:href="#DejaVuSans-32" transform="translate(161.035156 0)"/>
    </g>
   </g>
   <g id="text_24">
    <!-- 1/2 -->
    <g style="fill: #374151" transform="translate(353.270506 259.435939) scale(0.09 -0.09)">
     <use xlink:href="#DejaVuSans-31"/>
     <use xlink:href="#DejaVuSans-2f" transform="translate(63.623047 0)"/>
     <use xlink:href="#DejaVuSans-32" transform="translate(97.314453 0)"/>
    </g>
   </g>
   <g id="text_25">
    <!-- √3 -->
    <g style="fill: #374151" transform="translate(474.364982 259.435939) scale(0.09 -0.09)">
     <use xlink:href="#DejaVuSans-221a"/>
     <use xlink:href="#DejaVuSans-33" transform="translate(63.720703 0)"/>
    </g>
   </g>
   <g id="text_26">
    <!-- 90° -->
    <g style="fill: #374151" transform="translate(53.579549 300.66946) scale(0.09 -0.09)">
     <defs>
      <path id="DejaVuSans-39" d="M 703 97 
L 703 672 
Q 941 559 1184 500 
Q 1428 441 1663 441 
Q 2288 441 2617 861 
Q 2947 1281 2994 2138 
Q 2813 1869 2534 1725 
Q 2256 1581 1919 1581 
Q 1219 1581 811 2004 
Q 403 2428 403 3163 
Q 403 3881 828 4315 
Q 1253 4750 1959 4750 
Q 2769 4750 3195 4129 
Q 3622 3509 3622 2328 
Q 3622 1225 3098 567 
Q 2575 -91 1691 -91 
Q 1453 -91 1209 -44 
Q 966 3 703 97 
z
M 1959 2075 
Q 2384 2075 2632 2365 
Q 2881 2656 2881 3163 
Q 2881 3666 2632 3958 
Q 2384 4250 1959 4250 
Q 1534 4250 1286 3958 
Q 1038 3666 1038 3163 
Q 1038 2656 1286 2365 
Q 1534 2075 1959 2075 
z
" transform="scale(0.015625)"/>
     </defs>
     <use xlink:href="#DejaVuSans-39"/>
     <use xlink:href="#DejaVuSans-30" transform="translate(63.623047 0)"/>
     <use xlink:href="#DejaVuSans-b0" transform="translate(127.246094 0)"/>
    </g>
   </g>
   <g id="text_27">
    <!-- π/2 -->
    <g style="fill: #374151" transform="translate(136.001294 300.66946) scale(0.09 -0.09)">
     <use xlink:href="#DejaVuSans-3c0"/>
     <use xlink:href="#DejaVuSans-2f" transform="translate(60.205078 0)"/>
     <use xlink:href="#DejaVuSans-32" transform="translate(93.896484 0)"/>
    </g>
   </g>
   <g id="text_28">
    <!-- 1 -->
    <g style="fill: #374151" transform="translate(238.066811 300.66946) scale(0.09 -0.09)">
     <use xlink:href="#DejaVuSans-31"/>
    </g>
   </g>
   <g id="text_29">
    <!-- 0 -->
    <g style="fill: #374151" transform="translate(357.649568 300.66946) scale(0.09 -0.09)">
     <use xlink:href="#DejaVuSans-30"/>
    </g>
   </g>
   <g id="text_30">
    <!-- ∞ -->
    <g style="fill: #dc2626" transform="translate(476.347092 300.66946) scale(0.09 -0.09)">
     <defs>
      <path id="DejaVuSans-221e" d="M 2916 1091 
Q 2819 1203 2666 1466 
Q 2456 1091 2272 925 
Q 2041 725 1681 725 
Q 1259 725 981 1041 
Q 688 1372 688 1919 
Q 688 2444 981 2800 
Q 1244 3116 1688 3116 
Q 1916 3116 2084 3022 
Q 2281 2919 2416 2741 
Q 2541 2581 2666 2366 
Q 2875 2741 3059 2906 
Q 3291 3106 3650 3106 
Q 4072 3106 4350 2791 
Q 4644 2459 4644 1913 
Q 4644 1388 4350 1031 
Q 4088 716 3644 716 
Q 3416 716 3247 809 
Q 3078 894 2916 1091 
z
M 1647 1134 
Q 2163 1134 2472 1884 
Q 2075 2703 1647 2703 
Q 1334 2703 1175 2478 
Q 1003 2238 1003 1919 
Q 1003 1569 1175 1353 
Q 1350 1134 1647 1134 
z
M 3684 2697 
Q 3219 2697 2859 1947 
Q 3253 1128 3684 1128 
Q 3997 1128 4156 1353 
Q 4328 1594 4328 1913 
Q 4328 2263 4156 2478 
Q 3981 2697 3684 2697 
z
" transform="scale(0.015625)"/>
     </defs>
     <use xlink:href="#DejaVuSans-221e"/>
    </g>
   </g>
   <g id="text_31">
    <!-- 120° -->
    <g style="fill: #374151" transform="translate(50.716424 341.902982) scale(0.09 -0.09)">
     <use xlink:href="#DejaVuSans-31"/>
     <use xlink:href="#DejaVuSans-32" transform="translate(63.623047 0)"/>
     <use xlink:href="#DejaVuSans-30" transform="translate(127.246094 0)"/>
     <use xlink:href="#DejaVuSans-b0" transform="translate(190.869141 0)"/>
    </g>
   </g>
   <g id="text_32">
    <!-- 2π/3 -->
    <g style="fill: #374151" transform="translate(133.138169 341.902982) scale(0.09 -0.09)">
     <use xlink:href="#DejaVuSans-32"/>
     <use xlink:href="#DejaVuSans-3c0" transform="translate(63.623047 0)"/>
     <use xlink:href="#DejaVuSans-2f" transform="translate(123.828125 0)"/>
     <use xlink:href="#DejaVuSans-33" transform="translate(157.519531 0)"/>
    </g>
   </g>
   <g id="text_33">
    <!-- √3/2 -->
    <g style="fill: #374151" transform="translate(230.820404 341.902982) scale(0.09 -0.09)">
     <use xlink:href="#DejaVuSans-221a"/>
     <use xlink:href="#DejaVuSans-33" transform="translate(63.720703 0)"/>
     <use xlink:href="#DejaVuSans-2f" transform="translate(127.34375 0)"/>
     <use xlink:href="#DejaVuSans-32" transform="translate(161.035156 0)"/>
    </g>
   </g>
   <g id="text_34">
    <!-- −1/2 -->
    <g style="fill: #dc2626" transform="translate(349.499646 341.902982) scale(0.09 -0.09)">
     <defs>
      <path id="DejaVuSans-2212" d="M 678 2272 
L 4684 2272 
L 4684 1741 
L 678 1741 
L 678 2272 
z
" transform="scale(0.015625)"/>
     </defs>
     <use xlink:href="#DejaVuSans-2212"/>
     <use xlink:href="#DejaVuSans-31" transform="translate(83.789062 0)"/>
     <use xlink:href="#DejaVuSans-2f" transform="translate(147.412109 0)"/>
     <use xlink:href="#DejaVuSans-32" transform="translate(181.103516 0)"/>
    </g>
   </g>
   <g id="text_35">
    <!-- −√3 -->
    <g style="fill: #dc2626" transform="translate(470.594123 341.902982) scale(0.09 -0.09)">
     <use xlink:href="#DejaVuSans-2212"/>
     <use xlink:href="#DejaVuSans-221a" transform="translate(83.789062 0)"/>
     <use xlink:href="#DejaVuSans-33" transform="translate(147.509766 0)"/>
    </g>
   </g>
   <g id="text_36">
    <!-- 135° -->
    <g style="fill: #374151" transform="translate(50.716424 383.136504) scale(0.09 -0.09)">
     <use xlink:href="#DejaVuSans-31"/>
     <use xlink:href="#DejaVuSans-33" transform="translate(63.623047 0)"/>
     <use xlink:href="#DejaVuSans-35" transform="translate(127.246094 0)"/>
     <use xlink:href="#DejaVuSans-b0" transform="translate(190.869141 0)"/>
    </g>
   </g>
   <g id="text_37">
    <!-- 3π/4 -->
    <g style="fill: #374151" transform="translate(133.138169 383.136504) scale(0.09 -0.09)">
     <use xlink:href="#DejaVuSans-33"/>
     <use xlink:href="#DejaVuSans-3c0" transform="translate(63.623047 0)"/>
     <use xlink:href="#DejaVuSans-2f" transform="translate(123.828125 0)"/>
     <use xlink:href="#DejaVuSans-34" transform="translate(157.519531 0)"/>
    </g>
   </g>
   <g id="text_38">
    <!-- √2/2 -->
    <g style="fill: #374151" transform="translate(230.820404 383.136504) scale(0.09 -0.09)">
     <use xlink:href="#DejaVuSans-221a"/>
     <use xlink:href="#DejaVuSans-32" transform="translate(63.720703 0)"/>
     <use xlink:href="#DejaVuSans-2f" transform="translate(127.34375 0)"/>
     <use xlink:href="#DejaVuSans-32" transform="translate(161.035156 0)"/>
    </g>
   </g>
   <g id="text_39">
    <!-- −√2/2 -->
    <g style="fill: #dc2626" transform="translate(346.632303 383.136504) scale(0.09 -0.09)">
     <use xlink:href="#DejaVuSans-2212"/>
     <use xlink:href="#DejaVuSans-221a" transform="translate(83.789062 0)"/>
     <use xlink:href="#DejaVuSans-32" transform="translate(147.509766 0)"/>
     <use xlink:href="#DejaVuSans-2f" transform="translate(211.132812 0)"/>
     <use xlink:href="#DejaVuSans-32" transform="translate(244.824219 0)"/>
    </g>
   </g>
   <g id="text_40">
    <!-- −1 -->
    <g style="fill: #dc2626" transform="translate(473.461467 383.136504) scale(0.09 -0.09)">
     <use xlink:href="#DejaVuSans-2212"/>
     <use xlink:href="#DejaVuSans-31" transform="translate(83.789062 0)"/>
    </g>
   </g>
   <g id="text_41">
    <!-- 150° -->
    <g style="fill: #374151" transform="translate(50.716424 424.370026) scale(0.09 -0.09)">
     <use xlink:href="#DejaVuSans-31"/>
     <use xlink:href="#DejaVuSans-35" transform="translate(63.623047 0)"/>
     <use xlink:href="#DejaVuSans-30" transform="translate(127.246094 0)"/>
     <use xlink:href="#DejaVuSans-b0" transform="translate(190.869141 0)"/>
    </g>
   </g>
   <g id="text_42">
    <!-- 5π/6 -->
    <g style="fill: #374151" transform="translate(133.138169 424.370026) scale(0.09 -0.09)">
     <use xlink:href="#DejaVuSans-35"/>
     <use xlink:href="#DejaVuSans-3c0" transform="translate(63.623047 0)"/>
     <use xlink:href="#DejaVuSans-2f" transform="translate(123.828125 0)"/>
     <use xlink:href="#DejaVuSans-36" transform="translate(157.519531 0)"/>
    </g>
   </g>
   <g id="text_43">
    <!-- 1/2 -->
    <g style="fill: #374151" transform="translate(233.687748 424.370026) scale(0.09 -0.09)">
     <use xlink:href="#DejaVuSans-31"/>
     <use xlink:href="#DejaVuSans-2f" transform="translate(63.623047 0)"/>
     <use xlink:href="#DejaVuSans-32" transform="translate(97.314453 0)"/>
    </g>
   </g>
   <g id="text_44">
    <!-- −√3/2 -->
    <g style="fill: #dc2626" transform="translate(346.632303 424.370026) scale(0.09 -0.09)">
     <use xlink:href="#DejaVuSans-2212"/>
     <use xlink:href="#DejaVuSans-221a" transform="translate(83.789062 0)"/>
     <use xlink:href="#DejaVuSans-33" transform="translate(147.509766 0)"/>
     <use xlink:href="#DejaVuSans-2f" transform="translate(211.132812 0)"/>
     <use xlink:href="#DejaVuSans-32" transform="translate(244.824219 0)"/>
    </g>
   </g>
   <g id="text_45">
    <!-- −√3/3 -->
    <g style="fill: #dc2626" transform="translate(466.21506 424.370026) scale(0.09 -0.09)">
     <use xlink:href="#DejaVuSans-2212"/>
     <use xlink:href="#DejaVuSans-221a" transform="translate(83.789062 0)"/>
     <use xlink:href="#DejaVuSans-33" transform="translate(147.509766 0)"/>
     <use xlink:href="#DejaVuSans-2f" transform="translate(211.132812 0)"/>
     <use xlink:href="#DejaVuSans-33" transform="translate(244.824219 0)"/>
    </g>
   </g>
   <g id="text_46">
    <!-- 180° -->
    <g style="fill: #374151" transform="translate(50.716424 465.603547) scale(0.09 -0.09)">
     <defs>
      <path id="DejaVuSans-38" d="M 2034 2216 
Q 1584 2216 1326 1975 
Q 1069 1734 1069 1313 
Q 1069 891 1326 650 
Q 1584 409 2034 409 
Q 2484 409 2743 651 
Q 3003 894 3003 1313 
Q 3003 1734 2745 1975 
Q 2488 2216 2034 2216 
z
M 1403 2484 
Q 997 2584 770 2862 
Q 544 3141 544 3541 
Q 544 4100 942 4425 
Q 1341 4750 2034 4750 
Q 2731 4750 3128 4425 
Q 3525 4100 3525 3541 
Q 3525 3141 3298 2862 
Q 3072 2584 2669 2484 
Q 3125 2378 3379 2068 
Q 3634 1759 3634 1313 
Q 3634 634 3220 271 
Q 2806 -91 2034 -91 
Q 1263 -91 848 271 
Q 434 634 434 1313 
Q 434 1759 690 2068 
Q 947 2378 1403 2484 
z
M 1172 3481 
Q 1172 3119 1398 2916 
Q 1625 2713 2034 2713 
Q 2441 2713 2670 2916 
Q 2900 3119 2900 3481 
Q 2900 3844 2670 4047 
Q 2441 4250 2034 4250 
Q 1625 4250 1398 4047 
Q 1172 3844 1172 3481 
z
" transform="scale(0.015625)"/>
     </defs>
     <use xlink:href="#DejaVuSans-31"/>
     <use xlink:href="#DejaVuSans-38" transform="translate(63.623047 0)"/>
     <use xlink:href="#DejaVuSans-30" transform="translate(127.246094 0)"/>
     <use xlink:href="#DejaVuSans-b0" transform="translate(190.869141 0)"/>
    </g>
   </g>
   <g id="text_47">
    <!-- π -->
    <g style="fill: #374151" transform="translate(140.380357 465.603547) scale(0.09 -0.09)">
     <use xlink:href="#DejaVuSans-3c0"/>
    </g>
   </g>
   <g id="text_48">
    <!-- 0 -->
    <g style="fill: #374151" transform="translate(238.066811 465.603547) scale(0.09 -0.09)">
     <use xlink:href="#DejaVuSans-30"/>
    </g>
   </g>
   <g id="text_49">
    <!-- −1 -->
    <g style="fill: #dc2626" transform="translate(353.878709 465.603547) scale(0.09 -0.09)">
     <use xlink:href="#DejaVuSans-2212"/>
     <use xlink:href="#DejaVuSans-31" transform="translate(83.789062 0)"/>
    </g>
   </g>
   <g id="text_50">
    <!-- 0 -->
    <g style="fill: #374151" transform="translate(477.232326 465.603547) scale(0.09 -0.09)">
     <use xlink:href="#DejaVuSans-30"/>
    </g>
   </g>
   <g id="text_51">
    <!-- 270° -->
    <g style="fill: #374151" transform="translate(50.716424 506.837069) scale(0.09 -0.09)">
     <defs>
      <path id="DejaVuSans-37" d="M 525 4666 
L 3525 4666 
L 3525 4397 
L 1831 0 
L 1172 0 
L 2766 4134 
L 525 4134 
L 525 4666 
z
" transform="scale(0.015625)"/>
     </defs>
     <use xlink:href="#DejaVuSans-32"/>
     <use xlink:href="#DejaVuSans-37" transform="translate(63.623047 0)"/>
     <use xlink:href="#DejaVuSans-30" transform="translate(127.246094 0)"/>
     <use xlink:href="#DejaVuSans-b0" transform="translate(190.869141 0)"/>
    </g>
   </g>
   <g id="text_52">
    <!-- 3π/2 -->
    <g style="fill: #374151" transform="translate(133.138169 506.837069) scale(0.09 -0.09)">
     <use xlink:href="#DejaVuSans-33"/>
     <use xlink:href="#DejaVuSans-3c0" transform="translate(63.623047 0)"/>
     <use xlink:href="#DejaVuSans-2f" transform="translate(123.828125 0)"/>
     <use xlink:href="#DejaVuSans-32" transform="translate(157.519531 0)"/>
    </g>
   </g>
   <g id="text_53">
    <!-- −1 -->
    <g style="fill: #dc2626" transform="translate(234.295951 506.837069) scale(0.09 -0.09)">
     <use xlink:href="#DejaVuSans-2212"/>
     <use xlink:href="#DejaVuSans-31" transform="translate(83.789062 0)"/>
    </g>
   </g>
   <g id="text_54">
    <!-- 0 -->
    <g style="fill: #374151" transform="translate(357.649568 506.837069) scale(0.09 -0.09)">
     <use xlink:href="#DejaVuSans-30"/>
    </g>
   </g>
   <g id="text_55">
    <!-- ∞ -->
    <g style="fill: #dc2626" transform="translate(476.347092 506.837069) scale(0.09 -0.09)">
     <use xlink:href="#DejaVuSans-221e"/>
    </g>
   </g>
   <g id="text_56">
    <!-- 360° -->
    <g style="fill: #374151" transform="translate(50.716424 548.070591) scale(0.09 -0.09)">
     <use xlink:href="#DejaVuSans-33"/>
     <use xlink:href="#DejaVuSans-36" transform="translate(63.623047 0)"/>
     <use xlink:href="#DejaVuSans-30" transform="translate(127.246094 0)"/>
     <use xlink:href="#DejaVuSans-b0" transform="translate(190.869141 0)"/>
    </g>
   </g>
   <g id="text_57">
    <!-- 2π -->
    <g style="fill: #374151" transform="translate(137.517232 548.070591) scale(0.09 -0.09)">
     <use xlink:href="#DejaVuSans-32"/>
     <use xlink:href="#DejaVuSans-3c0" transform="translate(63.623047 0)"/>
    </g>
   </g>
   <g id="text_58">
    <!-- 0 -->
    <g style="fill: #374151" transform="translate(238.066811 548.070591) scale(0.09 -0.09)">
     <use xlink:href="#DejaVuSans-30"/>
    </g>
   </g>
   <g id="text_59">
    <!-- 1 -->
    <g style="fill: #374151" transform="translate(357.649568 548.070591) scale(0.09 -0.09)">
     <use xlink:href="#DejaVuSans-31"/>
    </g>
   </g>
   <g id="text_60">
    <!-- 0 -->
    <g style="fill: #374151" transform="translate(477.232326 548.070591) scale(0.09 -0.09)">
     <use xlink:href="#DejaVuSans-30"/>
    </g>
   </g>
   <g id="text_61">
    <!-- * Valores resaltados: ángulos más frecuentes -->
    <g style="fill: #9ca3af" transform="translate(176.921104 560.706111) scale(0.09 -0.09)">
     <defs>
      <path id="DejaVuSans-Oblique-2a" d="M 3009 3897 
L 1888 3291 
L 3009 2681 
L 2828 2375 
L 1778 3009 
L 1778 1831 
L 1422 1831 
L 1422 3009 
L 372 2375 
L 191 2681 
L 1313 3291 
L 191 3897 
L 372 4206 
L 1422 3572 
L 1422 4750 
L 1778 4750 
L 1778 3572 
L 2828 4206 
L 3009 3897 
z
" transform="scale(0.015625)"/>
      <path id="DejaVuSans-Oblique-20" transform="scale(0.015625)"/>
      <path id="DejaVuSans-Oblique-56" d="M 1319 0 
L 500 4666 
L 1119 4666 
L 1797 653 
L 4063 4666 
L 4750 4666 
L 2053 0 
L 1319 0 
z
" transform="scale(0.015625)"/>
      <path id="DejaVuSans-Oblique-61" d="M 3438 1997 
L 3047 0 
L 2472 0 
L 2578 531 
Q 2325 219 2001 64 
Q 1678 -91 1281 -91 
Q 834 -91 548 182 
Q 263 456 263 884 
Q 263 1497 752 1853 
Q 1241 2209 2100 2209 
L 2900 2209 
L 2931 2363 
Q 2938 2388 2941 2417 
Q 2944 2447 2944 2509 
Q 2944 2788 2717 2942 
Q 2491 3097 2081 3097 
Q 1800 3097 1504 3025 
Q 1209 2953 897 2809 
L 997 3341 
Q 1322 3463 1633 3523 
Q 1944 3584 2234 3584 
Q 2853 3584 3176 3315 
Q 3500 3047 3500 2534 
Q 3500 2431 3484 2292 
Q 3469 2153 3438 1997 
z
M 2816 1759 
L 2241 1759 
Q 1534 1759 1195 1570 
Q 856 1381 856 984 
Q 856 709 1029 553 
Q 1203 397 1509 397 
Q 1978 397 2328 733 
Q 2678 1069 2791 1631 
L 2816 1759 
z
" transform="scale(0.015625)"/>
      <path id="DejaVuSans-Oblique-6c" d="M 1172 4863 
L 1747 4863 
L 800 0 
L 225 0 
L 1172 4863 
z
" transform="scale(0.015625)"/>
      <path id="DejaVuSans-Oblique-6f" d="M 1625 -91 
Q 1009 -91 651 289 
Q 294 669 294 1325 
Q 294 1706 417 2101 
Q 541 2497 738 2766 
Q 1047 3184 1428 3384 
Q 1809 3584 2291 3584 
Q 2888 3584 3255 3212 
Q 3622 2841 3622 2241 
Q 3622 1825 3500 1412 
Q 3378 1000 3181 728 
Q 2875 309 2494 109 
Q 2113 -91 1625 -91 
z
M 891 1344 
Q 891 869 1089 633 
Q 1288 397 1691 397 
Q 2269 397 2648 901 
Q 3028 1406 3028 2181 
Q 3028 2634 2825 2865 
Q 2622 3097 2228 3097 
Q 1903 3097 1650 2945 
Q 1397 2794 1197 2484 
Q 1050 2253 970 1956 
Q 891 1659 891 1344 
z
" transform="scale(0.015625)"/>
      <path id="DejaVuSans-Oblique-72" d="M 2853 2969 
Q 2766 3016 2653 3041 
Q 2541 3066 2413 3066 
Q 1953 3066 1609 2717 
Q 1266 2369 1153 1784 
L 800 0 
L 225 0 
L 909 3500 
L 1484 3500 
L 1375 2956 
Q 1603 3259 1920 3421 
Q 2238 3584 2597 3584 
Q 2691 3584 2781 3573 
Q 2872 3563 2963 3538 
L 2853 2969 
z
" transform="scale(0.015625)"/>
      <path id="DejaVuSans-Oblique-65" d="M 3078 2063 
Q 3088 2113 3092 2166 
Q 3097 2219 3097 2272 
Q 3097 2653 2873 2875 
Q 2650 3097 2266 3097 
Q 1838 3097 1509 2826 
Q 1181 2556 1013 2059 
L 3078 2063 
z
M 3578 1613 
L 903 1613 
Q 884 1494 878 1425 
Q 872 1356 872 1306 
Q 872 872 1139 634 
Q 1406 397 1894 397 
Q 2269 397 2603 481 
Q 2938 566 3225 728 
L 3116 159 
Q 2806 34 2476 -28 
Q 2147 -91 1806 -91 
Q 1078 -91 686 257 
Q 294 606 294 1247 
Q 294 1794 489 2264 
Q 684 2734 1063 3103 
Q 1306 3334 1642 3459 
Q 1978 3584 2356 3584 
Q 2950 3584 3301 3228 
Q 3653 2872 3653 2272 
Q 3653 2128 3634 1964 
Q 3616 1800 3578 1613 
z
" transform="scale(0.015625)"/>
      <path id="DejaVuSans-Oblique-73" d="M 3200 3397 
L 3091 2853 
Q 2863 2978 2609 3040 
Q 2356 3103 2088 3103 
Q 1634 3103 1373 2948 
Q 1113 2794 1113 2528 
Q 1113 2219 1719 2053 
Q 1766 2041 1788 2034 
L 1972 1978 
Q 2547 1819 2739 1644 
Q 2931 1469 2931 1166 
Q 2931 609 2489 259 
Q 2047 -91 1331 -91 
Q 1053 -91 747 -37 
Q 441 16 72 128 
L 184 722 
Q 500 559 806 475 
Q 1113 391 1394 391 
Q 1816 391 2080 572 
Q 2344 753 2344 1031 
Q 2344 1331 1650 1516 
L 1591 1531 
L 1394 1581 
Q 956 1697 753 1886 
Q 550 2075 550 2369 
Q 550 2928 970 3256 
Q 1391 3584 2113 3584 
Q 2397 3584 2667 3537 
Q 2938 3491 3200 3397 
z
" transform="scale(0.015625)"/>
      <path id="DejaVuSans-Oblique-74" d="M 2706 3500 
L 2619 3053 
L 1472 3053 
L 1100 1153 
Q 1081 1047 1072 975 
Q 1063 903 1063 863 
Q 1063 663 1183 572 
Q 1303 481 1569 481 
L 2150 481 
L 2053 0 
L 1503 0 
Q 991 0 739 200 
Q 488 400 488 806 
Q 488 878 497 964 
Q 506 1050 525 1153 
L 897 3053 
L 409 3053 
L 500 3500 
L 978 3500 
L 1172 4494 
L 1747 4494 
L 1556 3500 
L 2706 3500 
z
" transform="scale(0.015625)"/>
      <path id="DejaVuSans-Oblique-64" d="M 2675 525 
Q 2444 222 2128 65 
Q 1813 -91 1428 -91 
Q 903 -91 598 267 
Q 294 625 294 1247 
Q 294 1766 478 2236 
Q 663 2706 1013 3078 
Q 1244 3325 1534 3454 
Q 1825 3584 2144 3584 
Q 2481 3584 2739 3421 
Q 2997 3259 3138 2956 
L 3513 4863 
L 4091 4863 
L 3144 0 
L 2566 0 
L 2675 525 
z
M 891 1350 
Q 891 897 1095 644 
Q 1300 391 1663 391 
Q 1931 391 2161 520 
Q 2391 650 2566 903 
Q 2750 1166 2856 1509 
Q 2963 1853 2963 2188 
Q 2963 2622 2758 2865 
Q 2553 3109 2194 3109 
Q 1922 3109 1687 2981 
Q 1453 2853 1288 2613 
Q 1106 2353 998 2009 
Q 891 1666 891 1350 
z
" transform="scale(0.015625)"/>
      <path id="DejaVuSans-Oblique-3a" d="M 978 3309 
L 1638 3309 
L 1484 2516 
L 825 2516 
L 978 3309 
z
M 488 794 
L 1147 794 
L 991 0 
L 331 0 
L 488 794 
z
" transform="scale(0.015625)"/>
      <path id="DejaVuSans-Oblique-e1" d="M 3438 1997 
L 3047 0 
L 2472 0 
L 2578 531 
Q 2325 219 2001 64 
Q 1678 -91 1281 -91 
Q 834 -91 548 182 
Q 263 456 263 884 
Q 263 1497 752 1853 
Q 1241 2209 2100 2209 
L 2900 2209 
L 2931 2363 
Q 2938 2388 2941 2417 
Q 2944 2447 2944 2509 
Q 2944 2788 2717 2942 
Q 2491 3097 2081 3097 
Q 1800 3097 1504 3025 
Q 1209 2953 897 2809 
L 997 3341 
Q 1322 3463 1633 3523 
Q 1944 3584 2234 3584 
Q 2853 3584 3176 3315 
Q 3500 3047 3500 2534 
Q 3500 2431 3484 2292 
Q 3469 2153 3438 1997 
z
M 2816 1759 
L 2241 1759 
Q 1534 1759 1195 1570 
Q 856 1381 856 984 
Q 856 709 1029 553 
Q 1203 397 1509 397 
Q 1978 397 2328 733 
Q 2678 1069 2791 1631 
L 2816 1759 
z
M 3031 5119 
L 3653 5119 
L 2406 3944 
L 1925 3944 
L 3031 5119 
z
" transform="scale(0.015625)"/>
      <path id="DejaVuSans-Oblique-6e" d="M 3566 2113 
L 3156 0 
L 2578 0 
L 2988 2091 
Q 3016 2238 3031 2350 
Q 3047 2463 3047 2528 
Q 3047 2791 2881 2937 
Q 2716 3084 2419 3084 
Q 1956 3084 1622 2776 
Q 1288 2469 1184 1941 
L 800 0 
L 225 0 
L 903 3500 
L 1478 3500 
L 1363 2950 
Q 1603 3253 1940 3418 
Q 2278 3584 2650 3584 
Q 3113 3584 3367 3334 
Q 3622 3084 3622 2631 
Q 3622 2519 3608 2391 
Q 3594 2263 3566 2113 
z
" transform="scale(0.015625)"/>
      <path id="DejaVuSans-Oblique-67" d="M 3816 3500 
L 3219 434 
Q 3047 -456 2561 -893 
Q 2075 -1331 1253 -1331 
Q 950 -1331 690 -1286 
Q 431 -1241 206 -1147 
L 313 -588 
Q 525 -725 762 -790 
Q 1000 -856 1269 -856 
Q 1816 -856 2167 -557 
Q 2519 -259 2631 300 
L 2681 563 
Q 2441 288 2122 144 
Q 1803 0 1434 0 
Q 903 0 598 351 
Q 294 703 294 1319 
Q 294 1803 478 2267 
Q 663 2731 997 3091 
Q 1219 3328 1514 3456 
Q 1809 3584 2131 3584 
Q 2484 3584 2746 3420 
Q 3009 3256 3138 2956 
L 3238 3500 
L 3816 3500 
z
M 2950 2216 
Q 2950 2641 2750 2872 
Q 2550 3103 2181 3103 
Q 1953 3103 1747 3012 
Q 1541 2922 1394 2759 
Q 1156 2491 1023 2127 
Q 891 1763 891 1375 
Q 891 944 1092 712 
Q 1294 481 1672 481 
Q 2219 481 2584 976 
Q 2950 1472 2950 2216 
z
" transform="scale(0.015625)"/>
      <path id="DejaVuSans-Oblique-75" d="M 428 1388 
L 838 3500 
L 1416 3500 
L 1006 1409 
Q 975 1256 961 1147 
Q 947 1038 947 966 
Q 947 700 1109 554 
Q 1272 409 1569 409 
Q 2031 409 2368 721 
Q 2706 1034 2809 1563 
L 3194 3500 
L 3769 3500 
L 3091 0 
L 2516 0 
L 2631 550 
Q 2388 244 2052 76 
Q 1716 -91 1338 -91 
Q 878 -91 622 161 
Q 366 413 366 863 
Q 366 956 381 1097 
Q 397 1238 428 1388 
z
" transform="scale(0.015625)"/>
      <path id="DejaVuSans-Oblique-6d" d="M 5747 2113 
L 5338 0 
L 4763 0 
L 5166 2094 
Q 5191 2228 5203 2325 
Q 5216 2422 5216 2491 
Q 5216 2772 5059 2928 
Q 4903 3084 4622 3084 
Q 4203 3084 3875 2770 
Q 3547 2456 3450 1953 
L 3066 0 
L 2491 0 
L 2900 2094 
Q 2925 2209 2937 2307 
Q 2950 2406 2950 2484 
Q 2950 2769 2794 2926 
Q 2638 3084 2363 3084 
Q 1938 3084 1609 2770 
Q 1281 2456 1184 1953 
L 800 0 
L 225 0 
L 909 3500 
L 1484 3500 
L 1375 2956 
Q 1609 3263 1923 3423 
Q 2238 3584 2597 3584 
Q 2978 3584 3223 3384 
Q 3469 3184 3519 2828 
Q 3781 3197 4126 3390 
Q 4472 3584 4856 3584 
Q 5306 3584 5551 3325 
Q 5797 3066 5797 2591 
Q 5797 2488 5784 2364 
Q 5772 2241 5747 2113 
z
" transform="scale(0.015625)"/>
      <path id="DejaVuSans-Oblique-66" d="M 3059 4863 
L 2969 4384 
L 2419 4384 
Q 2106 4384 1964 4261 
Q 1822 4138 1753 3809 
L 1691 3500 
L 2638 3500 
L 2553 3053 
L 1606 3053 
L 1013 0 
L 434 0 
L 1031 3053 
L 481 3053 
L 563 3500 
L 1113 3500 
L 1159 3744 
Q 1278 4363 1576 4613 
Q 1875 4863 2516 4863 
L 3059 4863 
z
" transform="scale(0.015625)"/>
      <path id="DejaVuSans-Oblique-63" d="M 3431 3366 
L 3316 2797 
Q 3109 2947 2876 3022 
Q 2644 3097 2394 3097 
Q 2119 3097 1870 3000 
Q 1622 2903 1453 2725 
Q 1184 2453 1037 2087 
Q 891 1722 891 1331 
Q 891 859 1127 628 
Q 1363 397 1844 397 
Q 2081 397 2348 469 
Q 2616 541 2906 684 
L 2797 116 
Q 2547 13 2283 -39 
Q 2019 -91 1741 -91 
Q 1044 -91 669 257 
Q 294 606 294 1253 
Q 294 1797 489 2255 
Q 684 2713 1069 3078 
Q 1331 3328 1684 3456 
Q 2038 3584 2456 3584 
Q 2700 3584 2940 3529 
Q 3181 3475 3431 3366 
z
" transform="scale(0.015625)"/>
     </defs>
     <use xlink:href="#DejaVuSans-Oblique-2a"/>
     <use xlink:href="#DejaVuSans-Oblique-20" transform="translate(50 0)"/>
     <use xlink:href="#DejaVuSans-Oblique-56" transform="translate(81.787109 0)"/>
     <use xlink:href="#DejaVuSans-Oblique-61" transform="translate(143.820312 0)"/>
     <use xlink:href="#DejaVuSans-Oblique-6c" transform="translate(205.099609 0)"/>
     <use xlink:href="#DejaVuSans-Oblique-6f" transform="translate(232.882812 0)"/>
     <use xlink:href="#DejaVuSans-Oblique-72" transform="translate(294.064453 0)"/>
     <use xlink:href="#DejaVuSans-Oblique-65" transform="translate(335.177734 0)"/>
     <use xlink:href="#DejaVuSans-Oblique-73" transform="translate(396.701172 0)"/>
     <use xlink:href="#DejaVuSans-Oblique-20" transform="translate(448.800781 0)"/>
     <use xlink:href="#DejaVuSans-Oblique-72" transform="translate(480.587891 0)"/>
     <use xlink:href="#DejaVuSans-Oblique-65" transform="translate(521.701172 0)"/>
     <use xlink:href="#DejaVuSans-Oblique-73" transform="translate(583.224609 0)"/>
     <use xlink:href="#DejaVuSans-Oblique-61" transform="translate(635.324219 0)"/>
     <use xlink:href="#DejaVuSans-Oblique-6c" transform="translate(696.603516 0)"/>
     <use xlink:href="#DejaVuSans-Oblique-74" transform="translate(724.386719 0)"/>
     <use xlink:href="#DejaVuSans-Oblique-61" transform="translate(763.595703 0)"/>
     <use xlink:href="#DejaVuSans-Oblique-64" transform="translate(824.875 0)"/>
     <use xlink:href="#DejaVuSans-Oblique-6f" transform="translate(888.351562 0)"/>
     <use xlink:href="#DejaVuSans-Oblique-73" transform="translate(949.533203 0)"/>
     <use xlink:href="#DejaVuSans-Oblique-3a" transform="translate(1001.632812 0)"/>
     <use xlink:href="#DejaVuSans-Oblique-20" transform="translate(1035.324219 0)"/>
     <use xlink:href="#DejaVuSans-Oblique-e1" transform="translate(1067.111328 0)"/>
     <use xlink:href="#DejaVuSans-Oblique-6e" transform="translate(1128.390625 0)"/>
     <use xlink:href="#DejaVuSans-Oblique-67" transform="translate(1191.769531 0)"/>
     <use xlink:href="#DejaVuSans-Oblique-75" transform="translate(1255.246094 0)"/>
     <use xlink:href="#DejaVuSans-Oblique-6c" transform="translate(1318.625 0)"/>
     <use xlink:href="#DejaVuSans-Oblique-6f" transform="translate(1346.408203 0)"/>
     <use xlink:href="#DejaVuSans-Oblique-73" transform="translate(1407.589844 0)"/>
     <use xlink:href="#DejaVuSans-Oblique-20" transform="translate(1459.689453 0)"/>
     <use xlink:href="#DejaVuSans-Oblique-6d" transform="translate(1491.476562 0)"/>
     <use xlink:href="#DejaVuSans-Oblique-e1" transform="translate(1588.888672 0)"/>
     <use xlink:href="#DejaVuSans-Oblique-73" transform="translate(1650.167969 0)"/>
     <use xlink:href="#DejaVuSans-Oblique-20" transform="translate(1702.267578 0)"/>
     <use xlink:href="#DejaVuSans-Oblique-66" transform="translate(1734.054688 0)"/>
     <use xlink:href="#DejaVuSans-Oblique-72" transform="translate(1769.259766 0)"/>
     <use xlink:href="#DejaVuSans-Oblique-65" transform="translate(1810.373047 0)"/>
     <use xlink:href="#DejaVuSans-Oblique-63" transform="translate(1871.896484 0)"/>
     <use xlink:href="#DejaVuSans-Oblique-75" transform="translate(1926.876953 0)"/>
     <use xlink:href="#DejaVuSans-Oblique-65" transform="translate(1990.255859 0)"/>
     <use xlink:href="#DejaVuSans-Oblique-6e" transform="translate(2051.779297 0)"/>
     <use xlink:href="#DejaVuSans-Oblique-74" transform="translate(2115.158203 0)"/>
     <use xlink:href="#DejaVuSans-Oblique-65" transform="translate(2154.367188 0)"/>
     <use xlink:href="#DejaVuSans-Oblique-73" transform="translate(2215.890625 0)"/>
    </g>
   </g>
  </g>
  <g id="axes_2">
   <g id="patch_62">
    <path d="M 611.984066 274.82036 
L 988.293443 274.82036 
L 988.293443 82.397259 
L 611.984066 82.397259 
z
" clip-path="url(#p8a95b3c3af)" style="fill: #eff6ff; stroke: #2563eb; stroke-width: 1.5; stroke-linejoin: miter"/>
   </g>
   <g id="patch_63">
    <path d="M 674.702296 247.331346 
L 779.232678 247.331346 
L 779.232678 120.881879 
z
" clip-path="url(#p8a95b3c3af)" style="fill: #dbeafe; stroke: #2563eb; stroke-width: 2; stroke-linejoin: miter"/>
   </g>
   <g id="patch_64">
    <path d="M 766.689032 247.331346 
L 779.232678 247.331346 
L 779.232678 230.837937 
L 766.689032 230.837937 
L 766.689032 247.331346 
z
" clip-path="url(#p8a95b3c3af)" style="fill: none; stroke: #374151; stroke-linejoin: miter"/>
   </g>
   <g id="patch_65">
    <path d="M 611.984066 522.221491 
L 988.293443 522.221491 
L 988.293443 302.309375 
L 611.984066 302.309375 
z
" clip-path="url(#p8a95b3c3af)" style="fill: #f0fdf4; stroke: #dc2626; stroke-width: 1.5; stroke-linejoin: miter"/>
   </g>
   <g id="patch_66">
    <path d="M 653.796219 494.732476 
L 800.138755 494.732476 
L 800.138755 346.291798 
z
" clip-path="url(#p8a95b3c3af)" style="fill: #dcfce7; stroke: #dc2626; stroke-width: 2; stroke-linejoin: miter"/>
   </g>
   <g id="patch_67">
    <path d="M 787.595109 494.732476 
L 800.138755 494.732476 
L 800.138755 478.239068 
L 787.595109 478.239068 
L 787.595109 494.732476 
z
" clip-path="url(#p8a95b3c3af)" style="fill: none; stroke: #374151; stroke-linejoin: miter"/>
   </g>
   <g id="text_62">
    <!-- Triángulos de Referencia -->
    <g style="fill: #1f2937" transform="translate(723.176567 54.908245) scale(0.11 -0.11)">
     <defs>
      <path id="DejaVuSans-Bold-54" d="M 31 4666 
L 4331 4666 
L 4331 3756 
L 2784 3756 
L 2784 0 
L 1581 0 
L 1581 3756 
L 31 3756 
L 31 4666 
z
" transform="scale(0.015625)"/>
      <path id="DejaVuSans-Bold-e1" d="M 2106 1575 
Q 1756 1575 1579 1456 
Q 1403 1338 1403 1106 
Q 1403 894 1545 773 
Q 1688 653 1941 653 
Q 2256 653 2472 879 
Q 2688 1106 2688 1447 
L 2688 1575 
L 2106 1575 
z
M 3816 1997 
L 3816 0 
L 2688 0 
L 2688 519 
Q 2463 200 2181 54 
Q 1900 -91 1497 -91 
Q 953 -91 614 226 
Q 275 544 275 1050 
Q 275 1666 698 1953 
Q 1122 2241 2028 2241 
L 2688 2241 
L 2688 2328 
Q 2688 2594 2478 2717 
Q 2269 2841 1825 2841 
Q 1466 2841 1156 2769 
Q 847 2697 581 2553 
L 581 3406 
Q 941 3494 1303 3539 
Q 1666 3584 2028 3584 
Q 2975 3584 3395 3211 
Q 3816 2838 3816 1997 
z
M 2606 5119 
L 3490 5119 
L 2337 3944 
L 1725 3944 
L 2606 5119 
z
" transform="scale(0.015625)"/>
      <path id="DejaVuSans-Bold-75" d="M 500 1363 
L 500 3500 
L 1625 3500 
L 1625 3150 
Q 1625 2866 1622 2436 
Q 1619 2006 1619 1863 
Q 1619 1441 1641 1255 
Q 1663 1069 1716 984 
Q 1784 875 1895 815 
Q 2006 756 2150 756 
Q 2500 756 2700 1025 
Q 2900 1294 2900 1772 
L 2900 3500 
L 4019 3500 
L 4019 0 
L 2900 0 
L 2900 506 
Q 2647 200 2364 54 
Q 2081 -91 1741 -91 
Q 1134 -91 817 281 
Q 500 653 500 1363 
z
" transform="scale(0.015625)"/>
      <path id="DejaVuSans-Bold-6c" d="M 538 4863 
L 1656 4863 
L 1656 0 
L 538 0 
L 538 4863 
z
" transform="scale(0.015625)"/>
      <path id="DejaVuSans-Bold-65" d="M 4031 1759 
L 4031 1441 
L 1416 1441 
Q 1456 1047 1700 850 
Q 1944 653 2381 653 
Q 2734 653 3104 758 
Q 3475 863 3866 1075 
L 3866 213 
Q 3469 63 3072 -14 
Q 2675 -91 2278 -91 
Q 1328 -91 801 392 
Q 275 875 275 1747 
Q 275 2603 792 3093 
Q 1309 3584 2216 3584 
Q 3041 3584 3536 3087 
Q 4031 2591 4031 1759 
z
M 2881 2131 
Q 2881 2450 2695 2645 
Q 2509 2841 2209 2841 
Q 1884 2841 1681 2658 
Q 1478 2475 1428 2131 
L 2881 2131 
z
" transform="scale(0.015625)"/>
      <path id="DejaVuSans-Bold-52" d="M 2297 2597 
Q 2675 2597 2839 2737 
Q 3003 2878 3003 3200 
Q 3003 3519 2839 3656 
Q 2675 3794 2297 3794 
L 1791 3794 
L 1791 2597 
L 2297 2597 
z
M 1791 1766 
L 1791 0 
L 588 0 
L 588 4666 
L 2425 4666 
Q 3347 4666 3776 4356 
Q 4206 4047 4206 3378 
Q 4206 2916 3982 2619 
Q 3759 2322 3309 2181 
Q 3556 2125 3751 1926 
Q 3947 1728 4147 1325 
L 4800 0 
L 3519 0 
L 2950 1159 
Q 2778 1509 2601 1637 
Q 2425 1766 2131 1766 
L 1791 1766 
z
" transform="scale(0.015625)"/>
      <path id="DejaVuSans-Bold-66" d="M 2841 4863 
L 2841 4128 
L 2222 4128 
Q 1984 4128 1890 4042 
Q 1797 3956 1797 3744 
L 1797 3500 
L 2753 3500 
L 2753 2700 
L 1797 2700 
L 1797 0 
L 678 0 
L 678 2700 
L 122 2700 
L 122 3500 
L 678 3500 
L 678 3744 
Q 678 4316 997 4589 
Q 1316 4863 1984 4863 
L 2841 4863 
z
" transform="scale(0.015625)"/>
     </defs>
     <use xlink:href="#DejaVuSans-Bold-54"/>
     <use xlink:href="#DejaVuSans-Bold-72" transform="translate(57.212891 0)"/>
     <use xlink:href="#DejaVuSans-Bold-69" transform="translate(106.529297 0)"/>
     <use xlink:href="#DejaVuSans-Bold-e1" transform="translate(140.806641 0)"/>
     <use xlink:href="#DejaVuSans-Bold-6e" transform="translate(208.287109 0)"/>
     <use xlink:href="#DejaVuSans-Bold-67" transform="translate(279.478516 0)"/>
     <use xlink:href="#DejaVuSans-Bold-75" transform="translate(351.060547 0)"/>
     <use xlink:href="#DejaVuSans-Bold-6c" transform="translate(422.251953 0)"/>
     <use xlink:href="#DejaVuSans-Bold-6f" transform="translate(456.529297 0)"/>
     <use xlink:href="#DejaVuSans-Bold-73" transform="translate(525.230469 0)"/>
     <use xlink:href="#DejaVuSans-Bold-20" transform="translate(584.751953 0)"/>
     <use xlink:href="#DejaVuSans-Bold-64" transform="translate(619.566406 0)"/>
     <use xlink:href="#DejaVuSans-Bold-65" transform="translate(691.148438 0)"/>
     <use xlink:href="#DejaVuSans-Bold-20" transform="translate(758.970703 0)"/>
     <use xlink:href="#DejaVuSans-Bold-52" transform="translate(793.785156 0)"/>
     <use xlink:href="#DejaVuSans-Bold-65" transform="translate(870.787109 0)"/>
     <use xlink:href="#DejaVuSans-Bold-66" transform="translate(938.609375 0)"/>
     <use xlink:href="#DejaVuSans-Bold-65" transform="translate(982.115234 0)"/>
     <use xlink:href="#DejaVuSans-Bold-72" transform="translate(1049.9375 0)"/>
     <use xlink:href="#DejaVuSans-Bold-65" transform="translate(1099.253906 0)"/>
     <use xlink:href="#DejaVuSans-Bold-6e" transform="translate(1167.076172 0)"/>
     <use xlink:href="#DejaVuSans-Bold-63" transform="translate(1238.267578 0)"/>
     <use xlink:href="#DejaVuSans-Bold-69" transform="translate(1297.544922 0)"/>
     <use xlink:href="#DejaVuSans-Bold-61" transform="translate(1331.822266 0)"/>
    </g>
   </g>
   <g id="text_63">
    <!-- Triángulo 45°-45°-90° -->
    <g style="fill: #2563eb" transform="translate(739.612974 104.388471) scale(0.1 -0.1)">
     <defs>
      <path id="DejaVuSans-Bold-34" d="M 2356 3675 
L 1038 1722 
L 2356 1722 
L 2356 3675 
z
M 2156 4666 
L 3494 4666 
L 3494 1722 
L 4159 1722 
L 4159 850 
L 3494 850 
L 3494 0 
L 2356 0 
L 2356 850 
L 288 850 
L 288 1881 
L 2156 4666 
z
" transform="scale(0.015625)"/>
      <path id="DejaVuSans-Bold-35" d="M 678 4666 
L 3669 4666 
L 3669 3781 
L 1638 3781 
L 1638 3059 
Q 1775 3097 1914 3117 
Q 2053 3138 2203 3138 
Q 3056 3138 3531 2711 
Q 4006 2284 4006 1522 
Q 4006 766 3489 337 
Q 2972 -91 2053 -91 
Q 1656 -91 1267 -14 
Q 878 63 494 219 
L 494 1166 
Q 875 947 1217 837 
Q 1559 728 1863 728 
Q 2300 728 2551 942 
Q 2803 1156 2803 1522 
Q 2803 1891 2551 2103 
Q 2300 2316 1863 2316 
Q 1603 2316 1309 2248 
Q 1016 2181 678 2041 
L 678 4666 
z
" transform="scale(0.015625)"/>
      <path id="DejaVuSans-Bold-b0" d="M 1600 4288 
Q 1375 4288 1219 4131 
Q 1063 3975 1063 3750 
Q 1063 3525 1217 3372 
Q 1372 3219 1600 3219 
Q 1825 3219 1981 3373 
Q 2138 3528 2138 3750 
Q 2138 3975 1980 4131 
Q 1822 4288 1600 4288 
z
M 1600 4794 
Q 1806 4794 1997 4714 
Q 2188 4634 2338 4488 
Q 2484 4338 2561 4150 
Q 2638 3963 2638 3750 
Q 2638 3541 2561 3352 
Q 2484 3163 2344 3022 
Q 2194 2872 2000 2792 
Q 1806 2713 1594 2713 
Q 1153 2713 854 3011 
Q 556 3309 556 3750 
Q 556 4191 857 4492 
Q 1159 4794 1600 4794 
z
" transform="scale(0.015625)"/>
      <path id="DejaVuSans-Bold-2d" d="M 347 2297 
L 2309 2297 
L 2309 1388 
L 347 1388 
L 347 2297 
z
" transform="scale(0.015625)"/>
      <path id="DejaVuSans-Bold-39" d="M 641 103 
L 641 966 
Q 928 831 1190 764 
Q 1453 697 1709 697 
Q 2247 697 2547 995 
Q 2847 1294 2900 1881 
Q 2688 1725 2447 1647 
Q 2206 1569 1925 1569 
Q 1209 1569 770 1986 
Q 331 2403 331 3084 
Q 331 3838 820 4291 
Q 1309 4744 2131 4744 
Q 3044 4744 3544 4128 
Q 4044 3513 4044 2388 
Q 4044 1231 3459 570 
Q 2875 -91 1856 -91 
Q 1528 -91 1228 -42 
Q 928 6 641 103 
z
M 2125 2350 
Q 2441 2350 2600 2554 
Q 2759 2759 2759 3169 
Q 2759 3575 2600 3781 
Q 2441 3988 2125 3988 
Q 1809 3988 1650 3781 
Q 1491 3575 1491 3169 
Q 1491 2759 1650 2554 
Q 1809 2350 2125 2350 
z
" transform="scale(0.015625)"/>
      <path id="DejaVuSans-Bold-30" d="M 2944 2338 
Q 2944 3213 2780 3570 
Q 2616 3928 2228 3928 
Q 1841 3928 1675 3570 
Q 1509 3213 1509 2338 
Q 1509 1453 1675 1090 
Q 1841 728 2228 728 
Q 2613 728 2778 1090 
Q 2944 1453 2944 2338 
z
M 4147 2328 
Q 4147 1169 3647 539 
Q 3147 -91 2228 -91 
Q 1306 -91 806 539 
Q 306 1169 306 2328 
Q 306 3491 806 4120 
Q 1306 4750 2228 4750 
Q 3147 4750 3647 4120 
Q 4147 3491 4147 2328 
z
" transform="scale(0.015625)"/>
     </defs>
     <use xlink:href="#DejaVuSans-Bold-54"/>
     <use xlink:href="#DejaVuSans-Bold-72" transform="translate(57.212891 0)"/>
     <use xlink:href="#DejaVuSans-Bold-69" transform="translate(106.529297 0)"/>
     <use xlink:href="#DejaVuSans-Bold-e1" transform="translate(140.806641 0)"/>
     <use xlink:href="#DejaVuSans-Bold-6e" transform="translate(208.287109 0)"/>
     <use xlink:href="#DejaVuSans-Bold-67" transform="translate(279.478516 0)"/>
     <use xlink:href="#DejaVuSans-Bold-75" transform="translate(351.060547 0)"/>
     <use xlink:href="#DejaVuSans-Bold-6c" transform="translate(422.251953 0)"/>
     <use xlink:href="#DejaVuSans-Bold-6f" transform="translate(456.529297 0)"/>
     <use xlink:href="#DejaVuSans-Bold-20" transform="translate(525.230469 0)"/>
     <use xlink:href="#DejaVuSans-Bold-34" transform="translate(560.044922 0)"/>
     <use xlink:href="#DejaVuSans-Bold-35" transform="translate(629.625 0)"/>
     <use xlink:href="#DejaVuSans-Bold-b0" transform="translate(699.205078 0)"/>
     <use xlink:href="#DejaVuSans-Bold-2d" transform="translate(749.205078 0)"/>
     <use xlink:href="#DejaVuSans-Bold-34" transform="translate(790.708984 0)"/>
     <use xlink:href="#DejaVuSans-Bold-35" transform="translate(860.289062 0)"/>
     <use xlink:href="#DejaVuSans-Bold-b0" transform="translate(929.869141 0)"/>
     <use xlink:href="#DejaVuSans-Bold-2d" transform="translate(979.869141 0)"/>
     <use xlink:href="#DejaVuSans-Bold-39" transform="translate(1021.373047 0)"/>
     <use xlink:href="#DejaVuSans-Bold-30" transform="translate(1090.953125 0)"/>
     <use xlink:href="#DejaVuSans-Bold-b0" transform="translate(1160.533203 0)"/>
    </g>
   </g>
   <g id="text_64">
    <!-- 1 -->
    <g style="fill: #374151" transform="translate(721.695629 263.824755) scale(0.1 -0.1)">
     <use xlink:href="#DejaVuSans-31"/>
    </g>
   </g>
   <g id="text_65">
    <!-- 1 -->
    <g style="fill: #374151" transform="translate(791.776324 186.855514) scale(0.1 -0.1)">
     <use xlink:href="#DejaVuSans-31"/>
    </g>
   </g>
   <g id="text_66">
    <!-- √2 -->
    <g style="fill: #2563eb" transform="translate(709.466136 176.469035) rotate(-45) scale(0.1 -0.1)">
     <defs>
      <path id="DejaVuSans-Bold-221a" d="M 3609 5356 
L 4281 5356 
L 4281 4891 
L 3981 4891 
L 2138 -128 
L 1766 -128 
L 806 2516 
L 353 2344 
L 238 2747 
L 1363 3144 
L 2059 1159 
L 3609 5356 
z
" transform="scale(0.015625)"/>
      <path id="DejaVuSans-Bold-32" d="M 1844 884 
L 3897 884 
L 3897 0 
L 506 0 
L 506 884 
L 2209 2388 
Q 2438 2594 2547 2791 
Q 2656 2988 2656 3200 
Q 2656 3528 2436 3728 
Q 2216 3928 1850 3928 
Q 1569 3928 1234 3808 
Q 900 3688 519 3450 
L 519 4475 
Q 925 4609 1322 4679 
Q 1719 4750 2100 4750 
Q 2938 4750 3402 4381 
Q 3866 4013 3866 3353 
Q 3866 2972 3669 2642 
Q 3472 2313 2841 1759 
L 1844 884 
z
" transform="scale(0.015625)"/>
     </defs>
     <use xlink:href="#DejaVuSans-Bold-221a"/>
     <use xlink:href="#DejaVuSans-Bold-32" transform="translate(66.699219 0)"/>
    </g>
   </g>
   <g id="text_67">
    <!-- 45° -->
    <g style="fill: #f59e0b" transform="translate(687.245942 236.33574) scale(0.09 -0.09)">
     <use xlink:href="#DejaVuSans-34"/>
     <use xlink:href="#DejaVuSans-35" transform="translate(63.623047 0)"/>
     <use xlink:href="#DejaVuSans-b0" transform="translate(127.246094 0)"/>
    </g>
   </g>
   <g id="text_68">
    <!-- 45° -->
    <g style="fill: #f59e0b" transform="translate(766.689032 131.877485) scale(0.09 -0.09)">
     <use xlink:href="#DejaVuSans-34"/>
     <use xlink:href="#DejaVuSans-35" transform="translate(63.623047 0)"/>
     <use xlink:href="#DejaVuSans-b0" transform="translate(127.246094 0)"/>
    </g>
   </g>
   <g id="text_69">
    <!-- Proporciones: -->
    <g style="fill: #374151" transform="translate(904.669137 170.362105) scale(0.09 -0.09)">
     <defs>
      <path id="DejaVuSans-Bold-50" d="M 588 4666 
L 2584 4666 
Q 3475 4666 3951 4270 
Q 4428 3875 4428 3144 
Q 4428 2409 3951 2014 
Q 3475 1619 2584 1619 
L 1791 1619 
L 1791 0 
L 588 0 
L 588 4666 
z
M 1791 3794 
L 1791 2491 
L 2456 2491 
Q 2806 2491 2997 2661 
Q 3188 2831 3188 3144 
Q 3188 3456 2997 3625 
Q 2806 3794 2456 3794 
L 1791 3794 
z
" transform="scale(0.015625)"/>
      <path id="DejaVuSans-Bold-70" d="M 1656 506 
L 1656 -1331 
L 538 -1331 
L 538 3500 
L 1656 3500 
L 1656 2988 
Q 1888 3294 2169 3439 
Q 2450 3584 2816 3584 
Q 3463 3584 3878 3070 
Q 4294 2556 4294 1747 
Q 4294 938 3878 423 
Q 3463 -91 2816 -91 
Q 2450 -91 2169 54 
Q 1888 200 1656 506 
z
M 2400 2772 
Q 2041 2772 1848 2508 
Q 1656 2244 1656 1747 
Q 1656 1250 1848 986 
Q 2041 722 2400 722 
Q 2759 722 2948 984 
Q 3138 1247 3138 1747 
Q 3138 2247 2948 2509 
Q 2759 2772 2400 2772 
z
" transform="scale(0.015625)"/>
      <path id="DejaVuSans-Bold-3a" d="M 716 3500 
L 1844 3500 
L 1844 2291 
L 716 2291 
L 716 3500 
z
M 716 1209 
L 1844 1209 
L 1844 0 
L 716 0 
L 716 1209 
z
" transform="scale(0.015625)"/>
     </defs>
     <use xlink:href="#DejaVuSans-Bold-50"/>
     <use xlink:href="#DejaVuSans-Bold-72" transform="translate(73.291016 0)"/>
     <use xlink:href="#DejaVuSans-Bold-6f" transform="translate(122.607422 0)"/>
     <use xlink:href="#DejaVuSans-Bold-70" transform="translate(191.308594 0)"/>
     <use xlink:href="#DejaVuSans-Bold-6f" transform="translate(262.890625 0)"/>
     <use xlink:href="#DejaVuSans-Bold-72" transform="translate(331.591797 0)"/>
     <use xlink:href="#DejaVuSans-Bold-63" transform="translate(380.908203 0)"/>
     <use xlink:href="#DejaVuSans-Bold-69" transform="translate(440.185547 0)"/>
     <use xlink:href="#DejaVuSans-Bold-6f" transform="translate(474.462891 0)"/>
     <use xlink:href="#DejaVuSans-Bold-6e" transform="translate(543.164062 0)"/>
     <use xlink:href="#DejaVuSans-Bold-65" transform="translate(614.355469 0)"/>
     <use xlink:href="#DejaVuSans-Bold-73" transform="translate(682.177734 0)"/>
     <use xlink:href="#DejaVuSans-Bold-3a" transform="translate(741.699219 0)"/>
    </g>
   </g>
   <g id="text_70">
    <!-- 1 : 1 : √2 -->
    <g style="fill: #2563eb" transform="translate(904.669137 203.348923) scale(0.1 -0.1)">
     <defs>
      <path id="DejaVuSans-20" transform="scale(0.015625)"/>
      <path id="DejaVuSans-3a" d="M 750 794 
L 1409 794 
L 1409 0 
L 750 0 
L 750 794 
z
M 750 3309 
L 1409 3309 
L 1409 2516 
L 750 2516 
L 750 3309 
z
" transform="scale(0.015625)"/>
     </defs>
     <use xlink:href="#DejaVuSans-31"/>
     <use xlink:href="#DejaVuSans-20" transform="translate(63.623047 0)"/>
     <use xlink:href="#DejaVuSans-3a" transform="translate(95.410156 0)"/>
     <use xlink:href="#DejaVuSans-20" transform="translate(129.101562 0)"/>
     <use xlink:href="#DejaVuSans-31" transform="translate(160.888672 0)"/>
     <use xlink:href="#DejaVuSans-20" transform="translate(224.511719 0)"/>
     <use xlink:href="#DejaVuSans-3a" transform="translate(256.298828 0)"/>
     <use xlink:href="#DejaVuSans-20" transform="translate(289.990234 0)"/>
     <use xlink:href="#DejaVuSans-221a" transform="translate(321.777344 0)"/>
     <use xlink:href="#DejaVuSans-32" transform="translate(385.498047 0)"/>
    </g>
   </g>
   <g id="text_71">
    <!-- Triángulo 30°-60°-90° -->
    <g style="fill: #dc2626" transform="translate(739.612974 324.300587) scale(0.1 -0.1)">
     <defs>
      <path id="DejaVuSans-Bold-33" d="M 2981 2516 
Q 3453 2394 3698 2092 
Q 3944 1791 3944 1325 
Q 3944 631 3412 270 
Q 2881 -91 1863 -91 
Q 1503 -91 1142 -33 
Q 781 25 428 141 
L 428 1069 
Q 766 900 1098 814 
Q 1431 728 1753 728 
Q 2231 728 2486 893 
Q 2741 1059 2741 1369 
Q 2741 1688 2480 1852 
Q 2219 2016 1709 2016 
L 1228 2016 
L 1228 2791 
L 1734 2791 
Q 2188 2791 2409 2933 
Q 2631 3075 2631 3366 
Q 2631 3634 2415 3781 
Q 2200 3928 1806 3928 
Q 1516 3928 1219 3862 
Q 922 3797 628 3669 
L 628 4550 
Q 984 4650 1334 4700 
Q 1684 4750 2022 4750 
Q 2931 4750 3382 4451 
Q 3834 4153 3834 3553 
Q 3834 3144 3618 2883 
Q 3403 2622 2981 2516 
z
" transform="scale(0.015625)"/>
      <path id="DejaVuSans-Bold-36" d="M 2316 2303 
Q 2000 2303 1842 2098 
Q 1684 1894 1684 1484 
Q 1684 1075 1842 870 
Q 2000 666 2316 666 
Q 2634 666 2792 870 
Q 2950 1075 2950 1484 
Q 2950 1894 2792 2098 
Q 2634 2303 2316 2303 
z
M 3803 4544 
L 3803 3681 
Q 3506 3822 3243 3889 
Q 2981 3956 2731 3956 
Q 2194 3956 1894 3657 
Q 1594 3359 1544 2772 
Q 1750 2925 1990 3001 
Q 2231 3078 2516 3078 
Q 3231 3078 3670 2659 
Q 4109 2241 4109 1563 
Q 4109 813 3618 361 
Q 3128 -91 2303 -91 
Q 1394 -91 895 523 
Q 397 1138 397 2266 
Q 397 3422 980 4083 
Q 1563 4744 2578 4744 
Q 2900 4744 3203 4694 
Q 3506 4644 3803 4544 
z
" transform="scale(0.015625)"/>
     </defs>
     <use xlink:href="#DejaVuSans-Bold-54"/>
     <use xlink:href="#DejaVuSans-Bold-72" transform="translate(57.212891 0)"/>
     <use xlink:href="#DejaVuSans-Bold-69" transform="translate(106.529297 0)"/>
     <use xlink:href="#DejaVuSans-Bold-e1" transform="translate(140.806641 0)"/>
     <use xlink:href="#DejaVuSans-Bold-6e" transform="translate(208.287109 0)"/>
     <use xlink:href="#DejaVuSans-Bold-67" transform="translate(279.478516 0)"/>
     <use xlink:href="#DejaVuSans-Bold-75" transform="translate(351.060547 0)"/>
     <use xlink:href="#DejaVuSans-Bold-6c" transform="translate(422.251953 0)"/>
     <use xlink:href="#DejaVuSans-Bold-6f" transform="translate(456.529297 0)"/>
     <use xlink:href="#DejaVuSans-Bold-20" transform="translate(525.230469 0)"/>
     <use xlink:href="#DejaVuSans-Bold-33" transform="translate(560.044922 0)"/>
     <use xlink:href="#DejaVuSans-Bold-30" transform="translate(629.625 0)"/>
     <use xlink:href="#DejaVuSans-Bold-b0" transform="translate(699.205078 0)"/>
     <use xlink:href="#DejaVuSans-Bold-2d" transform="translate(749.205078 0)"/>
     <use xlink:href="#DejaVuSans-Bold-36" transform="translate(790.708984 0)"/>
     <use xlink:href="#DejaVuSans-Bold-30" transform="translate(860.289062 0)"/>
     <use xlink:href="#DejaVuSans-Bold-b0" transform="translate(929.869141 0)"/>
     <use xlink:href="#DejaVuSans-Bold-2d" transform="translate(979.869141 0)"/>
     <use xlink:href="#DejaVuSans-Bold-39" transform="translate(1021.373047 0)"/>
     <use xlink:href="#DejaVuSans-Bold-30" transform="translate(1090.953125 0)"/>
     <use xlink:href="#DejaVuSans-Bold-b0" transform="translate(1160.533203 0)"/>
    </g>
   </g>
   <g id="text_72">
    <!-- √3 -->
    <g style="fill: #374151" transform="translate(718.509692 511.225885) scale(0.1 -0.1)">
     <use xlink:href="#DejaVuSans-221a"/>
     <use xlink:href="#DejaVuSans-33" transform="translate(63.720703 0)"/>
    </g>
   </g>
   <g id="text_73">
    <!-- 1 -->
    <g style="fill: #374151" transform="translate(812.682401 423.261039) scale(0.1 -0.1)">
     <use xlink:href="#DejaVuSans-31"/>
    </g>
   </g>
   <g id="text_74">
    <!-- 2 -->
    <g style="fill: #dc2626" transform="translate(707.109443 407.208501) rotate(-38) scale(0.1 -0.1)">
     <use xlink:href="#DejaVuSans-Bold-32"/>
    </g>
   </g>
   <g id="text_75">
    <!-- 30° -->
    <g style="fill: #f59e0b" transform="translate(670.52108 483.736871) scale(0.09 -0.09)">
     <use xlink:href="#DejaVuSans-33"/>
     <use xlink:href="#DejaVuSans-30" transform="translate(63.623047 0)"/>
     <use xlink:href="#DejaVuSans-b0" transform="translate(127.246094 0)"/>
    </g>
   </g>
   <g id="text_76">
    <!-- 60° -->
    <g style="fill: #f59e0b" transform="translate(783.413894 362.785207) scale(0.09 -0.09)">
     <use xlink:href="#DejaVuSans-36"/>
     <use xlink:href="#DejaVuSans-30" transform="translate(63.623047 0)"/>
     <use xlink:href="#DejaVuSans-b0" transform="translate(127.246094 0)"/>
    </g>
   </g>
   <g id="text_77">
    <!-- Proporciones: -->
    <g style="fill: #374151" transform="translate(862.856984 390.274221) scale(0.09 -0.09)">
     <use xlink:href="#DejaVuSans-Bold-50"/>
     <use xlink:href="#DejaVuSans-Bold-72" transform="translate(73.291016 0)"/>
     <use xlink:href="#DejaVuSans-Bold-6f" transform="translate(122.607422 0)"/>
     <use xlink:href="#DejaVuSans-Bold-70" transform="translate(191.308594 0)"/>
     <use xlink:href="#DejaVuSans-Bold-6f" transform="translate(262.890625 0)"/>
     <use xlink:href="#DejaVuSans-Bold-72" transform="translate(331.591797 0)"/>
     <use xlink:href="#DejaVuSans-Bold-63" transform="translate(380.908203 0)"/>
     <use xlink:href="#DejaVuSans-Bold-69" transform="translate(440.185547 0)"/>
     <use xlink:href="#DejaVuSans-Bold-6f" transform="translate(474.462891 0)"/>
     <use xlink:href="#DejaVuSans-Bold-6e" transform="translate(543.164062 0)"/>
     <use xlink:href="#DejaVuSans-Bold-65" transform="translate(614.355469 0)"/>
     <use xlink:href="#DejaVuSans-Bold-73" transform="translate(682.177734 0)"/>
     <use xlink:href="#DejaVuSans-Bold-3a" transform="translate(741.699219 0)"/>
    </g>
   </g>
   <g id="text_78">
    <!-- 1 : √3 : 2 -->
    <g style="fill: #dc2626" transform="translate(862.856984 423.261039) scale(0.1 -0.1)">
     <use xlink:href="#DejaVuSans-31"/>
     <use xlink:href="#DejaVuSans-20" transform="translate(63.623047 0)"/>
     <use xlink:href="#DejaVuSans-3a" transform="translate(95.410156 0)"/>
     <use xlink:href="#DejaVuSans-20" transform="translate(129.101562 0)"/>
     <use xlink:href="#DejaVuSans-221a" transform="translate(160.888672 0)"/>
     <use xlink:href="#DejaVuSans-33" transform="translate(224.609375 0)"/>
     <use xlink:href="#DejaVuSans-20" transform="translate(288.232422 0)"/>
     <use xlink:href="#DejaVuSans-3a" transform="translate(320.019531 0)"/>
     <use xlink:href="#DejaVuSans-20" transform="translate(353.710938 0)"/>
     <use xlink:href="#DejaVuSans-32" transform="translate(385.498047 0)"/>
    </g>
   </g>
   <g id="text_79">
    <!-- (opuesto 30° : opuesto 60° -->
    <g style="fill: #6b7280" transform="translate(862.856984 467.243462) scale(0.08 -0.08)">
     <defs>
      <path id="DejaVuSans-28" d="M 1984 4856 
Q 1566 4138 1362 3434 
Q 1159 2731 1159 2009 
Q 1159 1288 1364 580 
Q 1569 -128 1984 -844 
L 1484 -844 
Q 1016 -109 783 600 
Q 550 1309 550 2009 
Q 550 2706 781 3412 
Q 1013 4119 1484 4856 
L 1984 4856 
z
" transform="scale(0.015625)"/>
      <path id="DejaVuSans-6f" d="M 1959 3097 
Q 1497 3097 1228 2736 
Q 959 2375 959 1747 
Q 959 1119 1226 758 
Q 1494 397 1959 397 
Q 2419 397 2687 759 
Q 2956 1122 2956 1747 
Q 2956 2369 2687 2733 
Q 2419 3097 1959 3097 
z
M 1959 3584 
Q 2709 3584 3137 3096 
Q 3566 2609 3566 1747 
Q 3566 888 3137 398 
Q 2709 -91 1959 -91 
Q 1206 -91 779 398 
Q 353 888 353 1747 
Q 353 2609 779 3096 
Q 1206 3584 1959 3584 
z
" transform="scale(0.015625)"/>
      <path id="DejaVuSans-70" d="M 1159 525 
L 1159 -1331 
L 581 -1331 
L 581 3500 
L 1159 3500 
L 1159 2969 
Q 1341 3281 1617 3432 
Q 1894 3584 2278 3584 
Q 2916 3584 3314 3078 
Q 3713 2572 3713 1747 
Q 3713 922 3314 415 
Q 2916 -91 2278 -91 
Q 1894 -91 1617 61 
Q 1341 213 1159 525 
z
M 3116 1747 
Q 3116 2381 2855 2742 
Q 2594 3103 2138 3103 
Q 1681 3103 1420 2742 
Q 1159 2381 1159 1747 
Q 1159 1113 1420 752 
Q 1681 391 2138 391 
Q 2594 391 2855 752 
Q 3116 1113 3116 1747 
z
" transform="scale(0.015625)"/>
      <path id="DejaVuSans-75" d="M 544 1381 
L 544 3500 
L 1119 3500 
L 1119 1403 
Q 1119 906 1312 657 
Q 1506 409 1894 409 
Q 2359 409 2629 706 
Q 2900 1003 2900 1516 
L 2900 3500 
L 3475 3500 
L 3475 0 
L 2900 0 
L 2900 538 
Q 2691 219 2414 64 
Q 2138 -91 1772 -91 
Q 1169 -91 856 284 
Q 544 659 544 1381 
z
M 1991 3584 
L 1991 3584 
z
" transform="scale(0.015625)"/>
      <path id="DejaVuSans-65" d="M 3597 1894 
L 3597 1613 
L 953 1613 
Q 991 1019 1311 708 
Q 1631 397 2203 397 
Q 2534 397 2845 478 
Q 3156 559 3463 722 
L 3463 178 
Q 3153 47 2828 -22 
Q 2503 -91 2169 -91 
Q 1331 -91 842 396 
Q 353 884 353 1716 
Q 353 2575 817 3079 
Q 1281 3584 2069 3584 
Q 2775 3584 3186 3129 
Q 3597 2675 3597 1894 
z
M 3022 2063 
Q 3016 2534 2758 2815 
Q 2500 3097 2075 3097 
Q 1594 3097 1305 2825 
Q 1016 2553 972 2059 
L 3022 2063 
z
" transform="scale(0.015625)"/>
      <path id="DejaVuSans-73" d="M 2834 3397 
L 2834 2853 
Q 2591 2978 2328 3040 
Q 2066 3103 1784 3103 
Q 1356 3103 1142 2972 
Q 928 2841 928 2578 
Q 928 2378 1081 2264 
Q 1234 2150 1697 2047 
L 1894 2003 
Q 2506 1872 2764 1633 
Q 3022 1394 3022 966 
Q 3022 478 2636 193 
Q 2250 -91 1575 -91 
Q 1294 -91 989 -36 
Q 684 19 347 128 
L 347 722 
Q 666 556 975 473 
Q 1284 391 1588 391 
Q 1994 391 2212 530 
Q 2431 669 2431 922 
Q 2431 1156 2273 1281 
Q 2116 1406 1581 1522 
L 1381 1569 
Q 847 1681 609 1914 
Q 372 2147 372 2553 
Q 372 3047 722 3315 
Q 1072 3584 1716 3584 
Q 2034 3584 2315 3537 
Q 2597 3491 2834 3397 
z
" transform="scale(0.015625)"/>
      <path id="DejaVuSans-74" d="M 1172 4494 
L 1172 3500 
L 2356 3500 
L 2356 3053 
L 1172 3053 
L 1172 1153 
Q 1172 725 1289 603 
Q 1406 481 1766 481 
L 2356 481 
L 2356 0 
L 1766 0 
Q 1100 0 847 248 
Q 594 497 594 1153 
L 594 3053 
L 172 3053 
L 172 3500 
L 594 3500 
L 594 4494 
L 1172 4494 
z
" transform="scale(0.015625)"/>
     </defs>
     <use xlink:href="#DejaVuSans-28"/>
     <use xlink:href="#DejaVuSans-6f" transform="translate(39.013672 0)"/>
     <use xlink:href="#DejaVuSans-70" transform="translate(100.195312 0)"/>
     <use xlink:href="#DejaVuSans-75" transform="translate(163.671875 0)"/>
     <use xlink:href="#DejaVuSans-65" transform="translate(227.050781 0)"/>
     <use xlink:href="#DejaVuSans-73" transform="translate(288.574219 0)"/>
     <use xlink:href="#DejaVuSans-74" transform="translate(340.673828 0)"/>
     <use xlink:href="#DejaVuSans-6f" transform="translate(379.882812 0)"/>
     <use xlink:href="#DejaVuSans-20" transform="translate(441.064453 0)"/>
     <use xlink:href="#DejaVuSans-33" transform="translate(472.851562 0)"/>
     <use xlink:href="#DejaVuSans-30" transform="translate(536.474609 0)"/>
     <use xlink:href="#DejaVuSans-b0" transform="translate(600.097656 0)"/>
     <use xlink:href="#DejaVuSans-20" transform="translate(650.097656 0)"/>
     <use xlink:href="#DejaVuSans-3a" transform="translate(681.884766 0)"/>
     <use xlink:href="#DejaVuSans-20" transform="translate(715.576172 0)"/>
     <use xlink:href="#DejaVuSans-6f" transform="translate(747.363281 0)"/>
     <use xlink:href="#DejaVuSans-70" transform="translate(808.544922 0)"/>
     <use xlink:href="#DejaVuSans-75" transform="translate(872.021484 0)"/>
     <use xlink:href="#DejaVuSans-65" transform="translate(935.400391 0)"/>
     <use xlink:href="#DejaVuSans-73" transform="translate(996.923828 0)"/>
     <use xlink:href="#DejaVuSans-74" transform="translate(1049.023438 0)"/>
     <use xlink:href="#DejaVuSans-6f" transform="translate(1088.232422 0)"/>
     <use xlink:href="#DejaVuSans-20" transform="translate(1149.414062 0)"/>
     <use xlink:href="#DejaVuSans-36" transform="translate(1181.201172 0)"/>
     <use xlink:href="#DejaVuSans-30" transform="translate(1244.824219 0)"/>
     <use xlink:href="#DejaVuSans-b0" transform="translate(1308.447266 0)"/>
    </g>
   </g>
   <g id="text_80">
    <!--  : hipotenusa) -->
    <g style="fill: #6b7280" transform="translate(862.856984 494.732476) scale(0.08 -0.08)">
     <defs>
      <path id="DejaVuSans-68" d="M 3513 2113 
L 3513 0 
L 2938 0 
L 2938 2094 
Q 2938 2591 2744 2837 
Q 2550 3084 2163 3084 
Q 1697 3084 1428 2787 
Q 1159 2491 1159 1978 
L 1159 0 
L 581 0 
L 581 4863 
L 1159 4863 
L 1159 2956 
Q 1366 3272 1645 3428 
Q 1925 3584 2291 3584 
Q 2894 3584 3203 3211 
Q 3513 2838 3513 2113 
z
" transform="scale(0.015625)"/>
      <path id="DejaVuSans-69" d="M 603 3500 
L 1178 3500 
L 1178 0 
L 603 0 
L 603 3500 
z
M 603 4863 
L 1178 4863 
L 1178 4134 
L 603 4134 
L 603 4863 
z
" transform="scale(0.015625)"/>
      <path id="DejaVuSans-6e" d="M 3513 2113 
L 3513 0 
L 2938 0 
L 2938 2094 
Q 2938 2591 2744 2837 
Q 2550 3084 2163 3084 
Q 1697 3084 1428 2787 
Q 1159 2491 1159 1978 
L 1159 0 
L 581 0 
L 581 3500 
L 1159 3500 
L 1159 2956 
Q 1366 3272 1645 3428 
Q 1925 3584 2291 3584 
Q 2894 3584 3203 3211 
Q 3513 2838 3513 2113 
z
" transform="scale(0.015625)"/>
      <path id="DejaVuSans-61" d="M 2194 1759 
Q 1497 1759 1228 1600 
Q 959 1441 959 1056 
Q 959 750 1161 570 
Q 1363 391 1709 391 
Q 2188 391 2477 730 
Q 2766 1069 2766 1631 
L 2766 1759 
L 2194 1759 
z
M 3341 1997 
L 3341 0 
L 2766 0 
L 2766 531 
Q 2569 213 2275 61 
Q 1981 -91 1556 -91 
Q 1019 -91 701 211 
Q 384 513 384 1019 
Q 384 1609 779 1909 
Q 1175 2209 1959 2209 
L 2766 2209 
L 2766 2266 
Q 2766 2663 2505 2880 
Q 2244 3097 1772 3097 
Q 1472 3097 1187 3025 
Q 903 2953 641 2809 
L 641 3341 
Q 956 3463 1253 3523 
Q 1550 3584 1831 3584 
Q 2591 3584 2966 3190 
Q 3341 2797 3341 1997 
z
" transform="scale(0.015625)"/>
      <path id="DejaVuSans-29" d="M 513 4856 
L 1013 4856 
Q 1481 4119 1714 3412 
Q 1947 2706 1947 2009 
Q 1947 1309 1714 600 
Q 1481 -109 1013 -844 
L 513 -844 
Q 928 -128 1133 580 
Q 1338 1288 1338 2009 
Q 1338 2731 1133 3434 
Q 928 4138 513 4856 
z
" transform="scale(0.015625)"/>
     </defs>
     <use xlink:href="#DejaVuSans-20"/>
     <use xlink:href="#DejaVuSans-3a" transform="translate(31.787109 0)"/>
     <use xlink:href="#DejaVuSans-20" transform="translate(65.478516 0)"/>
     <use xlink:href="#DejaVuSans-68" transform="translate(97.265625 0)"/>
     <use xlink:href="#DejaVuSans-69" transform="translate(160.644531 0)"/>
     <use xlink:href="#DejaVuSans-70" transform="translate(188.427734 0)"/>
     <use xlink:href="#DejaVuSans-6f" transform="translate(251.904297 0)"/>
     <use xlink:href="#DejaVuSans-74" transform="translate(313.085938 0)"/>
     <use xlink:href="#DejaVuSans-65" transform="translate(352.294922 0)"/>
     <use xlink:href="#DejaVuSans-6e" transform="translate(413.818359 0)"/>
     <use xlink:href="#DejaVuSans-75" transform="translate(477.197266 0)"/>
     <use xlink:href="#DejaVuSans-73" transform="translate(540.576172 0)"/>
     <use xlink:href="#DejaVuSans-61" transform="translate(592.675781 0)"/>
     <use xlink:href="#DejaVuSans-29" transform="translate(653.955078 0)"/>
    </g>
   </g>
  </g>
  <g id="text_81">
   <!-- Valores Exactos de las Funciones Trigonométricas -->
   <g style="fill: #1f2937" transform="translate(311.742572 18.397812) scale(0.14 -0.14)">
    <defs>
     <path id="DejaVuSans-Bold-56" d="M 31 4666 
L 1241 4666 
L 2478 1222 
L 3713 4666 
L 4922 4666 
L 3194 0 
L 1759 0 
L 31 4666 
z
" transform="scale(0.015625)"/>
     <path id="DejaVuSans-Bold-45" d="M 588 4666 
L 3834 4666 
L 3834 3756 
L 1791 3756 
L 1791 2888 
L 3713 2888 
L 3713 1978 
L 1791 1978 
L 1791 909 
L 3903 909 
L 3903 0 
L 588 0 
L 588 4666 
z
" transform="scale(0.015625)"/>
     <path id="DejaVuSans-Bold-78" d="M 1422 1791 
L 159 3500 
L 1344 3500 
L 2059 2463 
L 2784 3500 
L 3969 3500 
L 2706 1797 
L 4031 0 
L 2847 0 
L 2059 1106 
L 1281 0 
L 97 0 
L 1422 1791 
z
" transform="scale(0.015625)"/>
     <path id="DejaVuSans-Bold-46" d="M 588 4666 
L 3834 4666 
L 3834 3756 
L 1791 3756 
L 1791 2888 
L 3713 2888 
L 3713 1978 
L 1791 1978 
L 1791 0 
L 588 0 
L 588 4666 
z
" transform="scale(0.015625)"/>
     <path id="DejaVuSans-Bold-6d" d="M 3781 2919 
Q 3994 3244 4286 3414 
Q 4578 3584 4928 3584 
Q 5531 3584 5847 3212 
Q 6163 2841 6163 2131 
L 6163 0 
L 5038 0 
L 5038 1825 
Q 5041 1866 5042 1909 
Q 5044 1953 5044 2034 
Q 5044 2406 4934 2573 
Q 4825 2741 4581 2741 
Q 4263 2741 4089 2478 
Q 3916 2216 3909 1719 
L 3909 0 
L 2784 0 
L 2784 1825 
Q 2784 2406 2684 2573 
Q 2584 2741 2328 2741 
Q 2006 2741 1831 2477 
Q 1656 2213 1656 1722 
L 1656 0 
L 531 0 
L 531 3500 
L 1656 3500 
L 1656 2988 
Q 1863 3284 2130 3434 
Q 2397 3584 2719 3584 
Q 3081 3584 3359 3409 
Q 3638 3234 3781 2919 
z
" transform="scale(0.015625)"/>
     <path id="DejaVuSans-Bold-e9" d="M 4031 1759 
L 4031 1441 
L 1416 1441 
Q 1456 1047 1700 850 
Q 1944 653 2381 653 
Q 2734 653 3104 758 
Q 3475 863 3866 1075 
L 3866 213 
Q 3469 63 3072 -14 
Q 2675 -91 2278 -91 
Q 1328 -91 801 392 
Q 275 875 275 1747 
Q 275 2603 792 3093 
Q 1309 3584 2216 3584 
Q 3041 3584 3536 3087 
Q 4031 2591 4031 1759 
z
M 2881 2131 
Q 2881 2450 2695 2645 
Q 2509 2841 2209 2841 
Q 1884 2841 1681 2658 
Q 1478 2475 1428 2131 
L 2881 2131 
z
M 2702 5119 
L 3586 5119 
L 2433 3944 
L 1821 3944 
L 2702 5119 
z
" transform="scale(0.015625)"/>
    </defs>
    <use xlink:href="#DejaVuSans-Bold-56"/>
    <use xlink:href="#DejaVuSans-Bold-61" transform="translate(71.892578 0)"/>
    <use xlink:href="#DejaVuSans-Bold-6c" transform="translate(139.373047 0)"/>
    <use xlink:href="#DejaVuSans-Bold-6f" transform="translate(173.650391 0)"/>
    <use xlink:href="#DejaVuSans-Bold-72" transform="translate(242.351562 0)"/>
    <use xlink:href="#DejaVuSans-Bold-65" transform="translate(291.667969 0)"/>
    <use xlink:href="#DejaVuSans-Bold-73" transform="translate(359.490234 0)"/>
    <use xlink:href="#DejaVuSans-Bold-20" transform="translate(419.011719 0)"/>
    <use xlink:href="#DejaVuSans-Bold-45" transform="translate(453.826172 0)"/>
    <use xlink:href="#DejaVuSans-Bold-78" transform="translate(522.136719 0)"/>
    <use xlink:href="#DejaVuSans-Bold-61" transform="translate(586.638672 0)"/>
    <use xlink:href="#DejaVuSans-Bold-63" transform="translate(654.119141 0)"/>
    <use xlink:href="#DejaVuSans-Bold-74" transform="translate(713.396484 0)"/>
    <use xlink:href="#DejaVuSans-Bold-6f" transform="translate(761.199219 0)"/>
    <use xlink:href="#DejaVuSans-Bold-73" transform="translate(829.900391 0)"/>
    <use xlink:href="#DejaVuSans-Bold-20" transform="translate(889.421875 0)"/>
    <use xlink:href="#DejaVuSans-Bold-64" transform="translate(924.236328 0)"/>
    <use xlink:href="#DejaVuSans-Bold-65" transform="translate(995.818359 0)"/>
    <use xlink:href="#DejaVuSans-Bold-20" transform="translate(1063.640625 0)"/>
    <use xlink:href="#DejaVuSans-Bold-6c" transform="translate(1098.455078 0)"/>
    <use xlink:href="#DejaVuSans-Bold-61" transform="translate(1132.732422 0)"/>
    <use xlink:href="#DejaVuSans-Bold-73" transform="translate(1200.212891 0)"/>
    <use xlink:href="#DejaVuSans-Bold-20" transform="translate(1259.734375 0)"/>
    <use xlink:href="#DejaVuSans-Bold-46" transform="translate(1294.548828 0)"/>
    <use xlink:href="#DejaVuSans-Bold-75" transform="translate(1357.859375 0)"/>
    <use xlink:href="#DejaVuSans-Bold-6e" transform="translate(1429.050781 0)"/>
    <use xlink:href="#DejaVuSans-Bold-63" transform="translate(1500.242188 0)"/>
    <use xlink:href="#DejaVuSans-Bold-69" transform="translate(1559.519531 0)"/>
    <use xlink:href="#DejaVuSans-Bold-6f" transform="translate(1593.796875 0)"/>
    <use xlink:href="#DejaVuSans-Bold-6e" transform="translate(1662.498047 0)"/>
    <use xlink:href="#DejaVuSans-Bold-65" transform="translate(1733.689453 0)"/>
    <use xlink:href="#DejaVuSans-Bold-73" transform="translate(1801.511719 0)"/>
    <use xlink:href="#DejaVuSans-Bold-20" transform="translate(1861.033203 0)"/>
    <use xlink:href="#DejaVuSans-Bold-54" transform="translate(1895.847656 0)"/>
    <use xlink:href="#DejaVuSans-Bold-72" transform="translate(1953.060547 0)"/>
    <use xlink:href="#DejaVuSans-Bold-69" transform="translate(2002.376953 0)"/>
    <use xlink:href="#DejaVuSans-Bold-67" transform="translate(2036.654297 0)"/>
    <use xlink:href="#DejaVuSans-Bold-6f" transform="translate(2108.236328 0)"/>
    <use xlink:href="#DejaVuSans-Bold-6e" transform="translate(2176.9375 0)"/>
    <use xlink:href="#DejaVuSans-Bold-6f" transform="translate(2248.128906 0)"/>
    <use xlink:href="#DejaVuSans-Bold-6d" transform="translate(2316.830078 0)"/>
    <use xlink:href="#DejaVuSans-Bold-e9" transform="translate(2421.029297 0)"/>
    <use xlink:href="#DejaVuSans-Bold-74" transform="translate(2488.851562 0)"/>
    <use xlink:href="#DejaVuSans-Bold-72" transform="translate(2536.654297 0)"/>
    <use xlink:href="#DejaVuSans-Bold-69" transform="translate(2585.970703 0)"/>
    <use xlink:href="#DejaVuSans-Bold-63" transform="translate(2620.248047 0)"/>
    <use xlink:href="#DejaVuSans-Bold-61" transform="translate(2679.525391 0)"/>
    <use xlink:href="#DejaVuSans-Bold-73" transform="translate(2747.005859 0)"/>
   </g>
  </g>
 </g>
 <defs>
  <clipPath id="p08db256be1">
   <rect x="7.2" y="27.41923" width="543.55799" height="549.78029"/>
  </clipPath>
  <clipPath id="p8a95b3c3af">
   <rect x="591.07799" y="27.41923" width="418.12153" height="549.78029"/>
  </clipPath>
 </defs>
</svg>
