<?xml version="1.0" encoding="utf-8" standalone="no"?>
<!DOCTYPE svg PUBLIC "-//W3C//DTD SVG 1.1//EN"
  "http://www.w3.org/Graphics/SVG/1.1/DTD/svg11.dtd">
<svg xmlns:xlink="http://www.w3.org/1999/xlink" width="872.39952pt" height="728.39952pt" viewBox="0 0 872.39952 728.39952" xmlns="http://www.w3.org/2000/svg" version="1.1">
 <metadata>
  <rdf:RDF xmlns:dc="http://purl.org/dc/elements/1.1/" xmlns:cc="http://creativecommons.org/ns#" xmlns:rdf="http://www.w3.org/1999/02/22-rdf-syntax-ns#">
   <cc:Work>
    <dc:type rdf:resource="http://purl.org/dc/dcmitype/StillImage"/>
    <dc:date>2026-01-04T20:33:24.544911</dc:date>
    <dc:format>image/svg+xml</dc:format>
    <dc:creator>
     <cc:Agent>
      <dc:title>Repositorio Matemáticas Universitarias</dc:title>
     </cc:Agent>
    </dc:creator>
   </cc:Work>
  </rdf:RDF>
 </metadata>
 <defs>
  <style type="text/css">*{stroke-linejoin: round; stroke-linecap: butt}</style>
 </defs>
 <g id="figure_1">
  <g id="patch_1">
   <path d="M 0 728.39952 
L 872.39952 728.39952 
L 872.39952 0 
L 0 0 
z
" style="fill: #ffffff"/>
  </g>
  <g id="axes_1">
   <g id="patch_2">
    <path d="M 185.149616 495.376791 
L 687.249904 495.376791 
L 687.249904 26.749855 
L 185.149616 26.749855 
z
" style="fill: #ffffff"/>
   </g>
   <g id="line2d_1">
    <path d="M 185.149616 261.063323 
L 687.249904 261.063323 
" clip-path="url(#p7b33ffae19)" style="fill: none; stroke: #9ca3af; stroke-width: 1.5; stroke-linecap: square"/>
   </g>
   <g id="line2d_2">
    <path d="M 419.463084 495.376791 
L 419.463084 26.749855 
" clip-path="url(#p7b33ffae19)" style="fill: none; stroke: #9ca3af; stroke-width: 1.5; stroke-linecap: square"/>
   </g>
   <g id="matplotlib.axis_1">
    <g id="text_1">
     <!-- x -->
     <g style="fill: #1f2937" transform="translate(432.64851 508.494916) scale(0.12 -0.12)">
      <defs>
       <path id="DejaVuSans-78" d="M 3513 3500 
L 2247 1797 
L 3578 0 
L 2900 0 
L 1881 1375 
L 863 0 
L 184 0 
L 1544 1831 
L 300 3500 
L 978 3500 
L 1906 2253 
L 2834 3500 
L 3513 3500 
z
" transform="scale(0.015625)"/>
      </defs>
      <use xlink:href="#DejaVuSans-78"/>
     </g>
    </g>
   </g>
   <g id="matplotlib.axis_2">
    <g id="text_2">
     <!-- y -->
     <g style="fill: #1f2937" transform="translate(178.653991 264.614573) rotate(-90) scale(0.12 -0.12)">
      <defs>
       <path id="DejaVuSans-79" d="M 2059 -325 
Q 1816 -950 1584 -1140 
Q 1353 -1331 966 -1331 
L 506 -1331 
L 506 -850 
L 844 -850 
Q 1081 -850 1212 -737 
Q 1344 -625 1503 -206 
L 1606 56 
L 191 3500 
L 800 3500 
L 1894 763 
L 2988 3500 
L 3597 3500 
L 2059 -325 
z
" transform="scale(0.015625)"/>
      </defs>
      <use xlink:href="#DejaVuSans-79"/>
     </g>
    </g>
   </g>
   <g id="line2d_3">
    <path d="M 586.829847 261.063323 
L 586.492883 250.448267 
L 585.48335 239.875954 
L 583.805311 229.388955 
L 581.465525 219.029497 
L 578.473411 208.839295 
L 574.841019 198.859381 
L 570.582976 189.12994 
L 565.716425 179.690149 
L 560.260964 170.57802 
L 554.23856 161.830242 
L 547.673462 153.482042 
L 540.592107 145.567033 
L 533.023008 138.117087 
L 524.996642 131.162202 
L 516.545331 124.730383 
L 507.703104 118.847529 
L 498.505565 113.537327 
L 488.98975 108.821161 
L 479.193975 104.71802 
L 469.157686 101.244426 
L 458.921294 98.414367 
L 448.526017 96.239237 
L 438.013714 94.727796 
L 427.426715 93.88613 
L 416.807649 93.717627 
L 406.199275 94.222966 
L 395.64431 95.400113 
L 385.185255 97.244326 
L 374.864224 99.748181 
L 364.722777 102.901595 
L 354.801751 106.691871 
L 345.141092 111.103746 
L 335.779702 116.119455 
L 326.755276 121.718802 
L 318.104151 127.87924 
L 309.861162 134.575963 
L 302.059502 141.782007 
L 294.730585 149.468354 
L 287.903922 157.604055 
L 281.607001 166.156349 
L 275.865177 175.090801 
L 270.701572 184.371433 
L 266.136977 193.960877 
L 262.189772 203.820519 
L 258.875851 213.910657 
L 256.208558 224.190662 
L 254.198633 234.619141 
L 252.85417 245.154101 
L 252.180583 255.753122 
L 252.180583 266.373525 
L 252.85417 276.972545 
L 254.198633 287.507505 
L 256.208558 297.935984 
L 258.875851 308.215989 
L 262.189772 318.306127 
L 266.136977 328.165769 
L 270.701572 337.755213 
L 275.865177 347.035845 
L 281.607001 355.970297 
L 287.903922 364.522592 
L 294.730585 372.658292 
L 302.059502 380.34464 
L 309.861162 387.550683 
L 318.104151 394.247406 
L 326.755276 400.407845 
L 335.779702 406.007192 
L 345.141092 411.022901 
L 354.801751 415.434776 
L 364.722777 419.225051 
L 374.864224 422.378465 
L 385.185255 424.88232 
L 395.64431 426.726534 
L 406.199275 427.90368 
L 416.807649 428.409019 
L 427.426715 428.240516 
L 438.013714 427.39885 
L 448.526017 425.887409 
L 458.921294 423.71228 
L 469.157686 420.88222 
L 479.193975 417.408627 
L 488.98975 413.305486 
L 498.505565 408.589319 
L 507.703104 403.279118 
L 516.545331 397.396263 
L 524.996642 390.964444 
L 533.023008 384.009559 
L 540.592107 376.559613 
L 547.673462 368.644605 
L 554.23856 360.296404 
L 560.260964 351.548627 
L 565.716425 342.436497 
L 570.582976 332.996706 
L 574.841019 323.267265 
L 578.473411 313.287351 
L 581.465525 303.097149 
L 583.805311 292.737691 
L 585.48335 282.250692 
L 586.492883 271.678379 
L 586.829847 261.063323 
" clip-path="url(#p7b33ffae19)" style="fill: none; stroke: #2563eb; stroke-width: 2.5; stroke-linecap: square"/>
   </g>
   <g id="line2d_4">
    <path d="M 461.304774 261.063323 
L 461.285832 259.804418 
L 461.22902 258.546652 
L 461.134392 257.291166 
L 461.002032 256.039095 
L 460.83206 254.791573 
L 460.624631 253.549729 
L 460.379932 252.31469 
L 460.098185 251.087571 
L 459.779645 249.869485 
L 459.424599 248.661535 
L 459.033371 247.464814 
L 458.606313 246.280405 
L 458.143813 245.109382 
L 457.64629 243.952804 
L 457.114193 242.81172 
L 456.548005 241.687161 
L 455.948239 240.580146 
L 455.315437 239.491678 
L 454.650172 238.422742 
L 453.953047 237.374306 
L 453.224693 236.347319 
L 452.465769 235.342712 
L 451.676963 234.361393 
L 450.858989 233.404252 
L 450.012587 232.472155 
L 449.138524 231.565945 
L 448.237592 230.686444 
L 447.310605 229.834448 
L 446.358404 229.010728 
" clip-path="url(#p7b33ffae19)" style="fill: none; stroke: #f59e0b; stroke-width: 2; stroke-linecap: square"/>
   </g>
   <g id="line2d_5">
    <defs>
     <path id="m4ca9ead576" d="M 0 3 
C 0.795609 3 1.55874 2.683901 2.12132 2.12132 
C 2.683901 1.55874 3 0.795609 3 0 
C 3 -0.795609 2.683901 -1.55874 2.12132 -2.12132 
C 1.55874 -2.683901 0.795609 -3 0 -3 
C -0.795609 -3 -1.55874 -2.683901 -2.12132 -2.12132 
C -2.683901 -1.55874 -3 -0.795609 -3 0 
C -3 0.795609 -2.683901 1.55874 -2.12132 2.12132 
C -1.55874 2.683901 -0.795609 3 0 3 
z
" style="stroke: #2563eb"/>
    </defs>
    <g clip-path="url(#p7b33ffae19)">
     <use xlink:href="#m4ca9ead576" x="586.829847" y="261.063323" style="fill: #2563eb; stroke: #2563eb"/>
    </g>
   </g>
   <g id="line2d_6">
    <g clip-path="url(#p7b33ffae19)">
     <use xlink:href="#m4ca9ead576" x="252.096321" y="261.063323" style="fill: #2563eb; stroke: #2563eb"/>
    </g>
   </g>
   <g id="line2d_7">
    <g clip-path="url(#p7b33ffae19)">
     <use xlink:href="#m4ca9ead576" x="419.463084" y="93.69656" style="fill: #2563eb; stroke: #2563eb"/>
    </g>
   </g>
   <g id="line2d_8">
    <g clip-path="url(#p7b33ffae19)">
     <use xlink:href="#m4ca9ead576" x="419.463084" y="428.430086" style="fill: #2563eb; stroke: #2563eb"/>
    </g>
   </g>
   <g id="line2d_9">
    <defs>
     <path id="m32189f1ecf" d="M 0 1 
C 0.265203 1 0.51958 0.894634 0.707107 0.707107 
C 0.894634 0.51958 1 0.265203 1 0 
C 1 -0.265203 0.894634 -0.51958 0.707107 -0.707107 
C 0.51958 -0.894634 0.265203 -1 0 -1 
C -0.265203 -1 -0.51958 -0.894634 -0.707107 -0.707107 
C -0.894634 -0.51958 -1 -0.265203 -1 0 
C -1 0.265203 -0.894634 0.51958 -0.707107 0.707107 
C -0.51958 0.894634 -0.265203 1 0 1 
z
" style="stroke: #d1d5db"/>
    </defs>
    <g clip-path="url(#p7b33ffae19)">
     <use xlink:href="#m32189f1ecf" x="564.406952" y="177.379942" style="fill: #d1d5db; stroke: #d1d5db"/>
    </g>
   </g>
   <g id="line2d_10">
    <g clip-path="url(#p7b33ffae19)">
     <use xlink:href="#m32189f1ecf" x="537.809257" y="142.71715" style="fill: #d1d5db; stroke: #d1d5db"/>
    </g>
   </g>
   <g id="line2d_11">
    <g clip-path="url(#p7b33ffae19)">
     <use xlink:href="#m32189f1ecf" x="503.146465" y="116.119455" style="fill: #d1d5db; stroke: #d1d5db"/>
    </g>
   </g>
   <g id="line2d_12">
    <g clip-path="url(#p7b33ffae19)">
     <use xlink:href="#m32189f1ecf" x="419.463084" y="93.69656" style="fill: #d1d5db; stroke: #d1d5db"/>
    </g>
   </g>
   <g id="line2d_13">
    <g clip-path="url(#p7b33ffae19)">
     <use xlink:href="#m32189f1ecf" x="335.779702" y="116.119455" style="fill: #d1d5db; stroke: #d1d5db"/>
    </g>
   </g>
   <g id="line2d_14">
    <g clip-path="url(#p7b33ffae19)">
     <use xlink:href="#m32189f1ecf" x="301.116911" y="142.71715" style="fill: #d1d5db; stroke: #d1d5db"/>
    </g>
   </g>
   <g id="line2d_15">
    <g clip-path="url(#p7b33ffae19)">
     <use xlink:href="#m32189f1ecf" x="274.519215" y="177.379942" style="fill: #d1d5db; stroke: #d1d5db"/>
    </g>
   </g>
   <g id="line2d_16">
    <g clip-path="url(#p7b33ffae19)">
     <use xlink:href="#m32189f1ecf" x="252.096321" y="261.063323" style="fill: #d1d5db; stroke: #d1d5db"/>
    </g>
   </g>
   <g id="line2d_17">
    <g clip-path="url(#p7b33ffae19)">
     <use xlink:href="#m32189f1ecf" x="274.519215" y="344.746705" style="fill: #d1d5db; stroke: #d1d5db"/>
    </g>
   </g>
   <g id="line2d_18">
    <g clip-path="url(#p7b33ffae19)">
     <use xlink:href="#m32189f1ecf" x="301.116911" y="379.409496" style="fill: #d1d5db; stroke: #d1d5db"/>
    </g>
   </g>
   <g id="line2d_19">
    <g clip-path="url(#p7b33ffae19)">
     <use xlink:href="#m32189f1ecf" x="335.779702" y="406.007192" style="fill: #d1d5db; stroke: #d1d5db"/>
    </g>
   </g>
   <g id="line2d_20">
    <g clip-path="url(#p7b33ffae19)">
     <use xlink:href="#m32189f1ecf" x="419.463084" y="428.430086" style="fill: #d1d5db; stroke: #d1d5db"/>
    </g>
   </g>
   <g id="line2d_21">
    <g clip-path="url(#p7b33ffae19)">
     <use xlink:href="#m32189f1ecf" x="503.146465" y="406.007192" style="fill: #d1d5db; stroke: #d1d5db"/>
    </g>
   </g>
   <g id="line2d_22">
    <g clip-path="url(#p7b33ffae19)">
     <use xlink:href="#m32189f1ecf" x="537.809257" y="379.409496" style="fill: #d1d5db; stroke: #d1d5db"/>
    </g>
   </g>
   <g id="line2d_23">
    <g clip-path="url(#p7b33ffae19)">
     <use xlink:href="#m32189f1ecf" x="564.406952" y="344.746705" style="fill: #d1d5db; stroke: #d1d5db"/>
    </g>
   </g>
   <g id="line2d_24">
    <path d="M 419.463084 261.063323 
L 527.044365 132.852944 
" clip-path="url(#p7b33ffae19)" style="fill: none; stroke: #f59e0b; stroke-width: 2.5; stroke-linecap: square"/>
   </g>
   <g id="text_3">
    <!-- P(cos θ, sin θ) -->
    <g style="fill: #f59e0b" transform="translate(540.433706 119.463603) scale(0.11 -0.11)">
     <defs>
      <path id="DejaVuSans-Bold-50" d="M 588 4666 
L 2584 4666 
Q 3475 4666 3951 4270 
Q 4428 3875 4428 3144 
Q 4428 2409 3951 2014 
Q 3475 1619 2584 1619 
L 1791 1619 
L 1791 0 
L 588 0 
L 588 4666 
z
M 1791 3794 
L 1791 2491 
L 2456 2491 
Q 2806 2491 2997 2661 
Q 3188 2831 3188 3144 
Q 3188 3456 2997 3625 
Q 2806 3794 2456 3794 
L 1791 3794 
z
" transform="scale(0.015625)"/>
      <path id="DejaVuSans-Bold-28" d="M 2413 -844 
L 1484 -844 
Q 1006 -72 778 623 
Q 550 1319 550 2003 
Q 550 2688 779 3389 
Q 1009 4091 1484 4856 
L 2413 4856 
Q 2013 4116 1813 3408 
Q 1613 2700 1613 2009 
Q 1613 1319 1811 609 
Q 2009 -100 2413 -844 
z
" transform="scale(0.015625)"/>
      <path id="DejaVuSans-Bold-63" d="M 3366 3391 
L 3366 2478 
Q 3138 2634 2908 2709 
Q 2678 2784 2431 2784 
Q 1963 2784 1702 2511 
Q 1441 2238 1441 1747 
Q 1441 1256 1702 982 
Q 1963 709 2431 709 
Q 2694 709 2930 787 
Q 3166 866 3366 1019 
L 3366 103 
Q 3103 6 2833 -42 
Q 2563 -91 2291 -91 
Q 1344 -91 809 395 
Q 275 881 275 1747 
Q 275 2613 809 3098 
Q 1344 3584 2291 3584 
Q 2566 3584 2833 3536 
Q 3100 3488 3366 3391 
z
" transform="scale(0.015625)"/>
      <path id="DejaVuSans-Bold-6f" d="M 2203 2784 
Q 1831 2784 1636 2517 
Q 1441 2250 1441 1747 
Q 1441 1244 1636 976 
Q 1831 709 2203 709 
Q 2569 709 2762 976 
Q 2956 1244 2956 1747 
Q 2956 2250 2762 2517 
Q 2569 2784 2203 2784 
z
M 2203 3584 
Q 3106 3584 3614 3096 
Q 4122 2609 4122 1747 
Q 4122 884 3614 396 
Q 3106 -91 2203 -91 
Q 1297 -91 786 396 
Q 275 884 275 1747 
Q 275 2609 786 3096 
Q 1297 3584 2203 3584 
z
" transform="scale(0.015625)"/>
      <path id="DejaVuSans-Bold-73" d="M 3272 3391 
L 3272 2541 
Q 2913 2691 2578 2766 
Q 2244 2841 1947 2841 
Q 1628 2841 1473 2761 
Q 1319 2681 1319 2516 
Q 1319 2381 1436 2309 
Q 1553 2238 1856 2203 
L 2053 2175 
Q 2913 2066 3209 1816 
Q 3506 1566 3506 1031 
Q 3506 472 3093 190 
Q 2681 -91 1863 -91 
Q 1516 -91 1145 -36 
Q 775 19 384 128 
L 384 978 
Q 719 816 1070 734 
Q 1422 653 1784 653 
Q 2113 653 2278 743 
Q 2444 834 2444 1013 
Q 2444 1163 2330 1236 
Q 2216 1309 1875 1350 
L 1678 1375 
Q 931 1469 631 1722 
Q 331 1975 331 2491 
Q 331 3047 712 3315 
Q 1094 3584 1881 3584 
Q 2191 3584 2531 3537 
Q 2872 3491 3272 3391 
z
" transform="scale(0.015625)"/>
      <path id="DejaVuSans-Bold-20" transform="scale(0.015625)"/>
      <path id="DejaVuSans-Bold-3b8" d="M 1447 2081 
Q 1469 1444 1638 1181 
Q 1922 728 2197 725 
Q 2475 722 2763 1181 
Q 2931 1453 2953 2081 
L 1447 2081 
z
M 2950 2881 
Q 2913 3394 2759 3688 
Q 2522 4144 2200 4144 
Q 1875 4144 1641 3688 
Q 1484 3384 1450 2881 
L 2950 2881 
z
M 2200 4913 
Q 3247 4913 3686 4231 
Q 4125 3550 4125 2403 
Q 4125 1256 3673 592 
Q 3222 -72 2200 -72 
Q 1178 -72 726 592 
Q 275 1256 275 2403 
Q 275 3550 714 4231 
Q 1153 4913 2200 4913 
z
" transform="scale(0.015625)"/>
      <path id="DejaVuSans-Bold-2c" d="M 653 1209 
L 1778 1209 
L 1778 256 
L 1006 -909 
L 341 -909 
L 653 256 
L 653 1209 
z
" transform="scale(0.015625)"/>
      <path id="DejaVuSans-Bold-69" d="M 538 3500 
L 1656 3500 
L 1656 0 
L 538 0 
L 538 3500 
z
M 538 4863 
L 1656 4863 
L 1656 3950 
L 538 3950 
L 538 4863 
z
" transform="scale(0.015625)"/>
      <path id="DejaVuSans-Bold-6e" d="M 4056 2131 
L 4056 0 
L 2931 0 
L 2931 347 
L 2931 1631 
Q 2931 2084 2911 2256 
Q 2891 2428 2841 2509 
Q 2775 2619 2662 2680 
Q 2550 2741 2406 2741 
Q 2056 2741 1856 2470 
Q 1656 2200 1656 1722 
L 1656 0 
L 538 0 
L 538 3500 
L 1656 3500 
L 1656 2988 
Q 1909 3294 2193 3439 
Q 2478 3584 2822 3584 
Q 3428 3584 3742 3212 
Q 4056 2841 4056 2131 
z
" transform="scale(0.015625)"/>
      <path id="DejaVuSans-Bold-29" d="M 513 -844 
Q 913 -100 1113 609 
Q 1313 1319 1313 2009 
Q 1313 2700 1113 3408 
Q 913 4116 513 4856 
L 1441 4856 
Q 1916 4091 2145 3389 
Q 2375 2688 2375 2003 
Q 2375 1319 2147 623 
Q 1919 -72 1441 -844 
L 513 -844 
z
" transform="scale(0.015625)"/>
     </defs>
     <use xlink:href="#DejaVuSans-Bold-50"/>
     <use xlink:href="#DejaVuSans-Bold-28" transform="translate(73.291016 0)"/>
     <use xlink:href="#DejaVuSans-Bold-63" transform="translate(118.994141 0)"/>
     <use xlink:href="#DejaVuSans-Bold-6f" transform="translate(178.271484 0)"/>
     <use xlink:href="#DejaVuSans-Bold-73" transform="translate(246.972656 0)"/>
     <use xlink:href="#DejaVuSans-Bold-20" transform="translate(306.494141 0)"/>
     <use xlink:href="#DejaVuSans-Bold-3b8" transform="translate(341.308594 0)"/>
     <use xlink:href="#DejaVuSans-Bold-2c" transform="translate(410.009766 0)"/>
     <use xlink:href="#DejaVuSans-Bold-20" transform="translate(447.998047 0)"/>
     <use xlink:href="#DejaVuSans-Bold-73" transform="translate(482.8125 0)"/>
     <use xlink:href="#DejaVuSans-Bold-69" transform="translate(542.333984 0)"/>
     <use xlink:href="#DejaVuSans-Bold-6e" transform="translate(576.611328 0)"/>
     <use xlink:href="#DejaVuSans-Bold-20" transform="translate(647.802734 0)"/>
     <use xlink:href="#DejaVuSans-Bold-3b8" transform="translate(682.617188 0)"/>
     <use xlink:href="#DejaVuSans-Bold-29" transform="translate(751.318359 0)"/>
    </g>
   </g>
   <g id="line2d_25">
    <path d="M 527.044365 261.063323 
L 527.044365 132.852944 
" clip-path="url(#p7b33ffae19)" style="fill: none; stroke-dasharray: 7.4,3.2; stroke-dashoffset: 0; stroke: #059669; stroke-width: 2"/>
   </g>
   <g id="text_4">
    <!-- cos θ -->
    <g style="fill: #7c3aed" transform="translate(455.792787 281.147335) scale(0.12 -0.12)">
     <use xlink:href="#DejaVuSans-Bold-63"/>
     <use xlink:href="#DejaVuSans-Bold-6f" transform="translate(59.277344 0)"/>
     <use xlink:href="#DejaVuSans-Bold-73" transform="translate(127.978516 0)"/>
     <use xlink:href="#DejaVuSans-Bold-20" transform="translate(187.5 0)"/>
     <use xlink:href="#DejaVuSans-Bold-3b8" transform="translate(222.314453 0)"/>
    </g>
   </g>
   <g id="line2d_26">
    <path d="M 419.463084 132.852944 
L 527.044365 132.852944 
" clip-path="url(#p7b33ffae19)" style="fill: none; stroke-dasharray: 7.4,3.2; stroke-dashoffset: 0; stroke: #059669; stroke-width: 2"/>
   </g>
   <g id="text_5">
    <!-- sin θ -->
    <g style="fill: #dc2626" transform="translate(397.669319 199.453759) rotate(-90) scale(0.12 -0.12)">
     <use xlink:href="#DejaVuSans-Bold-73"/>
     <use xlink:href="#DejaVuSans-Bold-69" transform="translate(59.521484 0)"/>
     <use xlink:href="#DejaVuSans-Bold-6e" transform="translate(93.798828 0)"/>
     <use xlink:href="#DejaVuSans-Bold-20" transform="translate(164.990234 0)"/>
     <use xlink:href="#DejaVuSans-Bold-3b8" transform="translate(199.804688 0)"/>
    </g>
   </g>
   <g id="text_6">
    <!-- θ -->
    <g style="fill: #f59e0b" transform="translate(478.041451 240.979312) scale(0.14 -0.14)">
     <use xlink:href="#DejaVuSans-Bold-3b8"/>
    </g>
   </g>
   <g id="text_7">
    <!-- O -->
    <g style="fill: #1f2937" transform="translate(406.073743 281.147335) scale(0.12 -0.12)">
     <defs>
      <path id="DejaVuSans-Bold-4f" d="M 2719 3878 
Q 2169 3878 1866 3472 
Q 1563 3066 1563 2328 
Q 1563 1594 1866 1187 
Q 2169 781 2719 781 
Q 3272 781 3575 1187 
Q 3878 1594 3878 2328 
Q 3878 3066 3575 3472 
Q 3272 3878 2719 3878 
z
M 2719 4750 
Q 3844 4750 4481 4106 
Q 5119 3463 5119 2328 
Q 5119 1197 4481 553 
Q 3844 -91 2719 -91 
Q 1597 -91 958 553 
Q 319 1197 319 2328 
Q 319 3463 958 4106 
Q 1597 4750 2719 4750 
z
" transform="scale(0.015625)"/>
     </defs>
     <use xlink:href="#DejaVuSans-Bold-4f"/>
    </g>
   </g>
   <g id="text_8">
    <!-- (1, 0) -->
    <g style="fill: #6b7280" transform="translate(586.829847 274.452664) scale(0.1 -0.1)">
     <defs>
      <path id="DejaVuSans-28" d="M 1984 4856 
Q 1566 4138 1362 3434 
Q 1159 2731 1159 2009 
Q 1159 1288 1364 580 
Q 1569 -128 1984 -844 
L 1484 -844 
Q 1016 -109 783 600 
Q 550 1309 550 2009 
Q 550 2706 781 3412 
Q 1013 4119 1484 4856 
L 1984 4856 
z
" transform="scale(0.015625)"/>
      <path id="DejaVuSans-31" d="M 794 531 
L 1825 531 
L 1825 4091 
L 703 3866 
L 703 4441 
L 1819 4666 
L 2450 4666 
L 2450 531 
L 3481 531 
L 3481 0 
L 794 0 
L 794 531 
z
" transform="scale(0.015625)"/>
      <path id="DejaVuSans-2c" d="M 750 794 
L 1409 794 
L 1409 256 
L 897 -744 
L 494 -744 
L 750 256 
L 750 794 
z
" transform="scale(0.015625)"/>
      <path id="DejaVuSans-20" transform="scale(0.015625)"/>
      <path id="DejaVuSans-30" d="M 2034 4250 
Q 1547 4250 1301 3770 
Q 1056 3291 1056 2328 
Q 1056 1369 1301 889 
Q 1547 409 2034 409 
Q 2525 409 2770 889 
Q 3016 1369 3016 2328 
Q 3016 3291 2770 3770 
Q 2525 4250 2034 4250 
z
M 2034 4750 
Q 2819 4750 3233 4129 
Q 3647 3509 3647 2328 
Q 3647 1150 3233 529 
Q 2819 -91 2034 -91 
Q 1250 -91 836 529 
Q 422 1150 422 2328 
Q 422 3509 836 4129 
Q 1250 4750 2034 4750 
z
" transform="scale(0.015625)"/>
      <path id="DejaVuSans-29" d="M 513 4856 
L 1013 4856 
Q 1481 4119 1714 3412 
Q 1947 2706 1947 2009 
Q 1947 1309 1714 600 
Q 1481 -109 1013 -844 
L 513 -844 
Q 928 -128 1133 580 
Q 1338 1288 1338 2009 
Q 1338 2731 1133 3434 
Q 928 4138 513 4856 
z
" transform="scale(0.015625)"/>
     </defs>
     <use xlink:href="#DejaVuSans-28"/>
     <use xlink:href="#DejaVuSans-31" transform="translate(39.013672 0)"/>
     <use xlink:href="#DejaVuSans-2c" transform="translate(102.636719 0)"/>
     <use xlink:href="#DejaVuSans-20" transform="translate(134.423828 0)"/>
     <use xlink:href="#DejaVuSans-30" transform="translate(166.210938 0)"/>
     <use xlink:href="#DejaVuSans-29" transform="translate(229.833984 0)"/>
    </g>
   </g>
   <g id="text_9">
    <!-- (-1, 0) -->
    <g style="fill: #6b7280" transform="translate(221.604133 274.452664) scale(0.1 -0.1)">
     <defs>
      <path id="DejaVuSans-2d" d="M 313 2009 
L 1997 2009 
L 1997 1497 
L 313 1497 
L 313 2009 
z
" transform="scale(0.015625)"/>
     </defs>
     <use xlink:href="#DejaVuSans-28"/>
     <use xlink:href="#DejaVuSans-2d" transform="translate(39.013672 0)"/>
     <use xlink:href="#DejaVuSans-31" transform="translate(75.097656 0)"/>
     <use xlink:href="#DejaVuSans-2c" transform="translate(138.720703 0)"/>
     <use xlink:href="#DejaVuSans-20" transform="translate(170.507812 0)"/>
     <use xlink:href="#DejaVuSans-30" transform="translate(202.294922 0)"/>
     <use xlink:href="#DejaVuSans-29" transform="translate(265.917969 0)"/>
    </g>
   </g>
   <g id="text_10">
    <!-- (0, 1) -->
    <g style="fill: #6b7280" transform="translate(406.020896 80.307219) scale(0.1 -0.1)">
     <use xlink:href="#DejaVuSans-28"/>
     <use xlink:href="#DejaVuSans-30" transform="translate(39.013672 0)"/>
     <use xlink:href="#DejaVuSans-2c" transform="translate(102.636719 0)"/>
     <use xlink:href="#DejaVuSans-20" transform="translate(134.423828 0)"/>
     <use xlink:href="#DejaVuSans-31" transform="translate(166.210938 0)"/>
     <use xlink:href="#DejaVuSans-29" transform="translate(229.833984 0)"/>
    </g>
   </g>
   <g id="text_11">
    <!-- (0, -1) -->
    <g style="fill: #6b7280" transform="translate(404.21699 453.535101) scale(0.1 -0.1)">
     <use xlink:href="#DejaVuSans-28"/>
     <use xlink:href="#DejaVuSans-30" transform="translate(39.013672 0)"/>
     <use xlink:href="#DejaVuSans-2c" transform="translate(102.636719 0)"/>
     <use xlink:href="#DejaVuSans-20" transform="translate(134.423828 0)"/>
     <use xlink:href="#DejaVuSans-2d" transform="translate(166.210938 0)"/>
     <use xlink:href="#DejaVuSans-31" transform="translate(202.294922 0)"/>
     <use xlink:href="#DejaVuSans-29" transform="translate(265.917969 0)"/>
    </g>
   </g>
   <g id="text_12">
    <!-- π/6 -->
    <g style="fill: #9ca3af" transform="translate(579.847907 167.034934) scale(0.08 -0.08)">
     <defs>
      <path id="DejaVuSans-3c0" d="M 231 3500 
L 3584 3500 
L 3584 2925 
L 3144 2925 
L 3144 775 
Q 3144 550 3220 451 
Q 3297 353 3469 353 
Q 3516 353 3584 361 
Q 3653 369 3675 372 
L 3675 -44 
Q 3566 -84 3450 -103 
Q 3334 -122 3219 -122 
Q 2844 -122 2700 83 
Q 2556 288 2556 838 
L 2556 2925 
L 1266 2925 
L 1266 0 
L 678 0 
L 678 2925 
L 231 2925 
L 231 3500 
z
" transform="scale(0.015625)"/>
      <path id="DejaVuSans-2f" d="M 1625 4666 
L 2156 4666 
L 531 -594 
L 0 -594 
L 1625 4666 
z
" transform="scale(0.015625)"/>
      <path id="DejaVuSans-36" d="M 2113 2584 
Q 1688 2584 1439 2293 
Q 1191 2003 1191 1497 
Q 1191 994 1439 701 
Q 1688 409 2113 409 
Q 2538 409 2786 701 
Q 3034 994 3034 1497 
Q 3034 2003 2786 2293 
Q 2538 2584 2113 2584 
z
M 3366 4563 
L 3366 3988 
Q 3128 4100 2886 4159 
Q 2644 4219 2406 4219 
Q 1781 4219 1451 3797 
Q 1122 3375 1075 2522 
Q 1259 2794 1537 2939 
Q 1816 3084 2150 3084 
Q 2853 3084 3261 2657 
Q 3669 2231 3669 1497 
Q 3669 778 3244 343 
Q 2819 -91 2113 -91 
Q 1303 -91 875 529 
Q 447 1150 447 2328 
Q 447 3434 972 4092 
Q 1497 4750 2381 4750 
Q 2619 4750 2861 4703 
Q 3103 4656 3366 4563 
z
" transform="scale(0.015625)"/>
     </defs>
     <use xlink:href="#DejaVuSans-3c0"/>
     <use xlink:href="#DejaVuSans-2f" transform="translate(60.205078 0)"/>
     <use xlink:href="#DejaVuSans-36" transform="translate(93.896484 0)"/>
    </g>
   </g>
   <g id="text_13">
    <!-- π/4 -->
    <g style="fill: #9ca3af" transform="translate(549.260558 127.172724) scale(0.08 -0.08)">
     <defs>
      <path id="DejaVuSans-34" d="M 2419 4116 
L 825 1625 
L 2419 1625 
L 2419 4116 
z
M 2253 4666 
L 3047 4666 
L 3047 1625 
L 3713 1625 
L 3713 1100 
L 3047 1100 
L 3047 0 
L 2419 0 
L 2419 1100 
L 313 1100 
L 313 1709 
L 2253 4666 
z
" transform="scale(0.015625)"/>
     </defs>
     <use xlink:href="#DejaVuSans-3c0"/>
     <use xlink:href="#DejaVuSans-2f" transform="translate(60.205078 0)"/>
     <use xlink:href="#DejaVuSans-34" transform="translate(93.896484 0)"/>
    </g>
   </g>
   <g id="text_14">
    <!-- π/3 -->
    <g style="fill: #9ca3af" transform="translate(509.398347 96.585374) scale(0.08 -0.08)">
     <defs>
      <path id="DejaVuSans-33" d="M 2597 2516 
Q 3050 2419 3304 2112 
Q 3559 1806 3559 1356 
Q 3559 666 3084 287 
Q 2609 -91 1734 -91 
Q 1441 -91 1130 -33 
Q 819 25 488 141 
L 488 750 
Q 750 597 1062 519 
Q 1375 441 1716 441 
Q 2309 441 2620 675 
Q 2931 909 2931 1356 
Q 2931 1769 2642 2001 
Q 2353 2234 1838 2234 
L 1294 2234 
L 1294 2753 
L 1863 2753 
Q 2328 2753 2575 2939 
Q 2822 3125 2822 3475 
Q 2822 3834 2567 4026 
Q 2313 4219 1838 4219 
Q 1578 4219 1281 4162 
Q 984 4106 628 3988 
L 628 4550 
Q 988 4650 1302 4700 
Q 1616 4750 1894 4750 
Q 2613 4750 3031 4423 
Q 3450 4097 3450 3541 
Q 3450 3153 3228 2886 
Q 3006 2619 2597 2516 
z
" transform="scale(0.015625)"/>
     </defs>
     <use xlink:href="#DejaVuSans-3c0"/>
     <use xlink:href="#DejaVuSans-2f" transform="translate(60.205078 0)"/>
     <use xlink:href="#DejaVuSans-33" transform="translate(93.896484 0)"/>
    </g>
   </g>
   <g id="text_15">
    <!-- π/2 -->
    <g style="fill: #9ca3af" transform="translate(413.162459 70.799046) scale(0.08 -0.08)">
     <defs>
      <path id="DejaVuSans-32" d="M 1228 531 
L 3431 531 
L 3431 0 
L 469 0 
L 469 531 
Q 828 903 1448 1529 
Q 2069 2156 2228 2338 
Q 2531 2678 2651 2914 
Q 2772 3150 2772 3378 
Q 2772 3750 2511 3984 
Q 2250 4219 1831 4219 
Q 1534 4219 1204 4116 
Q 875 4013 500 3803 
L 500 4441 
Q 881 4594 1212 4672 
Q 1544 4750 1819 4750 
Q 2544 4750 2975 4387 
Q 3406 4025 3406 3419 
Q 3406 3131 3298 2873 
Q 3191 2616 2906 2266 
Q 2828 2175 2409 1742 
Q 1991 1309 1228 531 
z
" transform="scale(0.015625)"/>
     </defs>
     <use xlink:href="#DejaVuSans-3c0"/>
     <use xlink:href="#DejaVuSans-2f" transform="translate(60.205078 0)"/>
     <use xlink:href="#DejaVuSans-32" transform="translate(93.896484 0)"/>
    </g>
   </g>
   <g id="text_16">
    <!-- 2π/3 -->
    <g style="fill: #9ca3af" transform="translate(314.38157 96.585374) scale(0.08 -0.08)">
     <use xlink:href="#DejaVuSans-32"/>
     <use xlink:href="#DejaVuSans-3c0" transform="translate(63.623047 0)"/>
     <use xlink:href="#DejaVuSans-2f" transform="translate(123.828125 0)"/>
     <use xlink:href="#DejaVuSans-33" transform="translate(157.519531 0)"/>
    </g>
   </g>
   <g id="text_17">
    <!-- 3π/4 -->
    <g style="fill: #9ca3af" transform="translate(274.51936 127.172724) scale(0.08 -0.08)">
     <use xlink:href="#DejaVuSans-33"/>
     <use xlink:href="#DejaVuSans-3c0" transform="translate(63.623047 0)"/>
     <use xlink:href="#DejaVuSans-2f" transform="translate(123.828125 0)"/>
     <use xlink:href="#DejaVuSans-34" transform="translate(157.519531 0)"/>
    </g>
   </g>
   <g id="text_18">
    <!-- 5π/6 -->
    <g style="fill: #9ca3af" transform="translate(243.93201 167.034934) scale(0.08 -0.08)">
     <defs>
      <path id="DejaVuSans-35" d="M 691 4666 
L 3169 4666 
L 3169 4134 
L 1269 4134 
L 1269 2991 
Q 1406 3038 1543 3061 
Q 1681 3084 1819 3084 
Q 2600 3084 3056 2656 
Q 3513 2228 3513 1497 
Q 3513 744 3044 326 
Q 2575 -91 1722 -91 
Q 1428 -91 1123 -41 
Q 819 9 494 109 
L 494 744 
Q 775 591 1075 516 
Q 1375 441 1709 441 
Q 2250 441 2565 725 
Q 2881 1009 2881 1497 
Q 2881 1984 2565 2268 
Q 2250 2553 1709 2553 
Q 1456 2553 1204 2497 
Q 953 2441 691 2322 
L 691 4666 
z
" transform="scale(0.015625)"/>
     </defs>
     <use xlink:href="#DejaVuSans-35"/>
     <use xlink:href="#DejaVuSans-3c0" transform="translate(63.623047 0)"/>
     <use xlink:href="#DejaVuSans-2f" transform="translate(123.828125 0)"/>
     <use xlink:href="#DejaVuSans-36" transform="translate(157.519531 0)"/>
    </g>
   </g>
   <g id="text_19">
    <!-- π -->
    <g style="fill: #9ca3af" transform="translate(224.583181 263.270823) scale(0.08 -0.08)">
     <use xlink:href="#DejaVuSans-3c0"/>
    </g>
   </g>
   <g id="text_20">
    <!-- 7π/6 -->
    <g style="fill: #9ca3af" transform="translate(243.93201 359.506712) scale(0.08 -0.08)">
     <defs>
      <path id="DejaVuSans-37" d="M 525 4666 
L 3525 4666 
L 3525 4397 
L 1831 0 
L 1172 0 
L 2766 4134 
L 525 4134 
L 525 4666 
z
" transform="scale(0.015625)"/>
     </defs>
     <use xlink:href="#DejaVuSans-37"/>
     <use xlink:href="#DejaVuSans-3c0" transform="translate(63.623047 0)"/>
     <use xlink:href="#DejaVuSans-2f" transform="translate(123.828125 0)"/>
     <use xlink:href="#DejaVuSans-36" transform="translate(157.519531 0)"/>
    </g>
   </g>
   <g id="text_21">
    <!-- 5π/4 -->
    <g style="fill: #9ca3af" transform="translate(274.51936 399.368922) scale(0.08 -0.08)">
     <use xlink:href="#DejaVuSans-35"/>
     <use xlink:href="#DejaVuSans-3c0" transform="translate(63.623047 0)"/>
     <use xlink:href="#DejaVuSans-2f" transform="translate(123.828125 0)"/>
     <use xlink:href="#DejaVuSans-34" transform="translate(157.519531 0)"/>
    </g>
   </g>
   <g id="text_22">
    <!-- 4π/3 -->
    <g style="fill: #9ca3af" transform="translate(314.38157 429.956272) scale(0.08 -0.08)">
     <use xlink:href="#DejaVuSans-34"/>
     <use xlink:href="#DejaVuSans-3c0" transform="translate(63.623047 0)"/>
     <use xlink:href="#DejaVuSans-2f" transform="translate(123.828125 0)"/>
     <use xlink:href="#DejaVuSans-33" transform="translate(157.519531 0)"/>
    </g>
   </g>
   <g id="text_23">
    <!-- 3π/2 -->
    <g style="fill: #9ca3af" transform="translate(410.617459 455.742601) scale(0.08 -0.08)">
     <use xlink:href="#DejaVuSans-33"/>
     <use xlink:href="#DejaVuSans-3c0" transform="translate(63.623047 0)"/>
     <use xlink:href="#DejaVuSans-2f" transform="translate(123.828125 0)"/>
     <use xlink:href="#DejaVuSans-32" transform="translate(157.519531 0)"/>
    </g>
   </g>
   <g id="text_24">
    <!-- 5π/3 -->
    <g style="fill: #9ca3af" transform="translate(506.853347 429.956272) scale(0.08 -0.08)">
     <use xlink:href="#DejaVuSans-35"/>
     <use xlink:href="#DejaVuSans-3c0" transform="translate(63.623047 0)"/>
     <use xlink:href="#DejaVuSans-2f" transform="translate(123.828125 0)"/>
     <use xlink:href="#DejaVuSans-33" transform="translate(157.519531 0)"/>
    </g>
   </g>
   <g id="text_25">
    <!-- 7π/4 -->
    <g style="fill: #9ca3af" transform="translate(546.715558 399.368922) scale(0.08 -0.08)">
     <use xlink:href="#DejaVuSans-37"/>
     <use xlink:href="#DejaVuSans-3c0" transform="translate(63.623047 0)"/>
     <use xlink:href="#DejaVuSans-2f" transform="translate(123.828125 0)"/>
     <use xlink:href="#DejaVuSans-34" transform="translate(157.519531 0)"/>
    </g>
   </g>
   <g id="text_26">
    <!-- 11π/6 -->
    <g style="fill: #9ca3af" transform="translate(574.757907 359.506712) scale(0.08 -0.08)">
     <use xlink:href="#DejaVuSans-31"/>
     <use xlink:href="#DejaVuSans-31" transform="translate(63.623047 0)"/>
     <use xlink:href="#DejaVuSans-3c0" transform="translate(127.246094 0)"/>
     <use xlink:href="#DejaVuSans-2f" transform="translate(187.451172 0)"/>
     <use xlink:href="#DejaVuSans-36" transform="translate(221.142578 0)"/>
    </g>
   </g>
   <g id="text_27">
    <!-- I -->
    <g style="fill: #d1d5db" transform="translate(519.883141 143.906589) scale(0.16 -0.16)">
     <defs>
      <path id="DejaVuSans-Bold-49" d="M 588 4666 
L 1791 4666 
L 1791 0 
L 588 0 
L 588 4666 
z
" transform="scale(0.015625)"/>
     </defs>
     <use xlink:href="#DejaVuSans-Bold-49"/>
    </g>
   </g>
   <g id="text_28">
    <!-- II -->
    <g style="fill: #d1d5db" transform="translate(302.30635 143.906589) scale(0.16 -0.16)">
     <use xlink:href="#DejaVuSans-Bold-49"/>
     <use xlink:href="#DejaVuSans-Bold-49" transform="translate(37.207031 0)"/>
    </g>
   </g>
   <g id="text_29">
    <!-- III -->
    <g style="fill: #d1d5db" transform="translate(302.30635 378.220057) scale(0.16 -0.16)">
     <use xlink:href="#DejaVuSans-Bold-49"/>
     <use xlink:href="#DejaVuSans-Bold-49" transform="translate(37.207031 0)"/>
     <use xlink:href="#DejaVuSans-Bold-49" transform="translate(74.414062 0)"/>
    </g>
   </g>
   <g id="text_30">
    <!-- IV -->
    <g style="fill: #d1d5db" transform="translate(519.883141 378.220057) scale(0.16 -0.16)">
     <defs>
      <path id="DejaVuSans-Bold-56" d="M 31 4666 
L 1241 4666 
L 2478 1222 
L 3713 4666 
L 4922 4666 
L 3194 0 
L 1759 0 
L 31 4666 
z
" transform="scale(0.015625)"/>
     </defs>
     <use xlink:href="#DejaVuSans-Bold-49"/>
     <use xlink:href="#DejaVuSans-Bold-56" transform="translate(37.207031 0)"/>
    </g>
   </g>
   <g id="text_31">
    <g id="patch_3">
     <path d="M 486.684809 185.246573 
L 509.600388 157.936849 
L 495.378055 146.002894 
L 472.462476 173.312618 
z
" style="fill: #ffffff; opacity: 0.8"/>
    </g>
    <!-- r = 1 -->
    <g style="fill: #f59e0b" transform="translate(484.444266 178.197121) rotate(-50) scale(0.11 -0.11)">
     <defs>
      <path id="DejaVuSans-72" d="M 2631 2963 
Q 2534 3019 2420 3045 
Q 2306 3072 2169 3072 
Q 1681 3072 1420 2755 
Q 1159 2438 1159 1844 
L 1159 0 
L 581 0 
L 581 3500 
L 1159 3500 
L 1159 2956 
Q 1341 3275 1631 3429 
Q 1922 3584 2338 3584 
Q 2397 3584 2469 3576 
Q 2541 3569 2628 3553 
L 2631 2963 
z
" transform="scale(0.015625)"/>
      <path id="DejaVuSans-3d" d="M 678 2906 
L 4684 2906 
L 4684 2381 
L 678 2381 
L 678 2906 
z
M 678 1631 
L 4684 1631 
L 4684 1100 
L 678 1100 
L 678 1631 
z
" transform="scale(0.015625)"/>
     </defs>
     <use xlink:href="#DejaVuSans-72"/>
     <use xlink:href="#DejaVuSans-20" transform="translate(41.113281 0)"/>
     <use xlink:href="#DejaVuSans-3d" transform="translate(72.900391 0)"/>
     <use xlink:href="#DejaVuSans-20" transform="translate(156.689453 0)"/>
     <use xlink:href="#DejaVuSans-31" transform="translate(188.476562 0)"/>
    </g>
   </g>
   <g id="line2d_27">
    <path d="M 419.463084 261.063323 
L 527.044365 261.063323 
" clip-path="url(#p7b33ffae19)" style="fill: none; stroke: #7c3aed; stroke-width: 3; stroke-linecap: square"/>
   </g>
   <g id="line2d_28">
    <path d="M 419.463084 261.063323 
L 419.463084 132.852944 
" clip-path="url(#p7b33ffae19)" style="fill: none; stroke: #dc2626; stroke-width: 3; stroke-linecap: square"/>
   </g>
   <g id="line2d_29">
    <defs>
     <path id="m2a225b5978" d="M 0 5 
C 1.326016 5 2.597899 4.473168 3.535534 3.535534 
C 4.473168 2.597899 5 1.326016 5 0 
C 5 -1.326016 4.473168 -2.597899 3.535534 -3.535534 
C 2.597899 -4.473168 1.326016 -5 0 -5 
C -1.326016 -5 -2.597899 -4.473168 -3.535534 -3.535534 
C -4.473168 -2.597899 -5 -1.326016 -5 0 
C -5 1.326016 -4.473168 2.597899 -3.535534 3.535534 
C -2.597899 4.473168 -1.326016 5 0 5 
z
" style="stroke: #f59e0b"/>
    </defs>
    <g clip-path="url(#p7b33ffae19)">
     <use xlink:href="#m2a225b5978" x="527.044365" y="132.852944" style="fill: #f59e0b; stroke: #f59e0b"/>
    </g>
   </g>
   <g id="line2d_30">
    <defs>
     <path id="mca0103e9b5" d="M 0 3 
C 0.795609 3 1.55874 2.683901 2.12132 2.12132 
C 2.683901 1.55874 3 0.795609 3 0 
C 3 -0.795609 2.683901 -1.55874 2.12132 -2.12132 
C 1.55874 -2.683901 0.795609 -3 0 -3 
C -0.795609 -3 -1.55874 -2.683901 -2.12132 -2.12132 
C -2.683901 -1.55874 -3 -0.795609 -3 0 
C -3 0.795609 -2.683901 1.55874 -2.12132 2.12132 
C -1.55874 2.683901 -0.795609 3 0 3 
z
" style="stroke: #1f2937"/>
    </defs>
    <g clip-path="url(#p7b33ffae19)">
     <use xlink:href="#mca0103e9b5" x="419.463084" y="261.063323" style="fill: #1f2937; stroke: #1f2937"/>
    </g>
   </g>
  </g>
  <g id="axes_2">
   <g id="patch_4">
    <path d="M 24.35999 697.768173 
L 410.459774 697.768173 
L 410.459774 580.611439 
L 24.35999 580.611439 
z
" clip-path="url(#p2547c13734)" style="fill: #f0fdf4; stroke: #059669; stroke-width: 1.5; stroke-linejoin: miter"/>
   </g>
   <g id="patch_5">
    <path d="M 461.939746 697.768173 
L 848.03953 697.768173 
L 848.03953 580.611439 
L 461.939746 580.611439 
z
" clip-path="url(#p2547c13734)" style="fill: #fef3c7; stroke: #f59e0b; stroke-width: 1.5; stroke-linejoin: miter"/>
   </g>
   <g id="text_32">
    <!-- Definición -->
    <g style="fill: #059669" transform="translate(190.484802 593.108157) scale(0.11 -0.11)">
     <defs>
      <path id="DejaVuSans-Bold-44" d="M 1791 3756 
L 1791 909 
L 2222 909 
Q 2959 909 3348 1275 
Q 3738 1641 3738 2338 
Q 3738 3031 3350 3393 
Q 2963 3756 2222 3756 
L 1791 3756 
z
M 588 4666 
L 1856 4666 
Q 2919 4666 3439 4514 
Q 3959 4363 4331 4000 
Q 4659 3684 4818 3271 
Q 4978 2859 4978 2338 
Q 4978 1809 4818 1395 
Q 4659 981 4331 666 
Q 3956 303 3431 151 
Q 2906 0 1856 0 
L 588 0 
L 588 4666 
z
" transform="scale(0.015625)"/>
      <path id="DejaVuSans-Bold-65" d="M 4031 1759 
L 4031 1441 
L 1416 1441 
Q 1456 1047 1700 850 
Q 1944 653 2381 653 
Q 2734 653 3104 758 
Q 3475 863 3866 1075 
L 3866 213 
Q 3469 63 3072 -14 
Q 2675 -91 2278 -91 
Q 1328 -91 801 392 
Q 275 875 275 1747 
Q 275 2603 792 3093 
Q 1309 3584 2216 3584 
Q 3041 3584 3536 3087 
Q 4031 2591 4031 1759 
z
M 2881 2131 
Q 2881 2450 2695 2645 
Q 2509 2841 2209 2841 
Q 1884 2841 1681 2658 
Q 1478 2475 1428 2131 
L 2881 2131 
z
" transform="scale(0.015625)"/>
      <path id="DejaVuSans-Bold-66" d="M 2841 4863 
L 2841 4128 
L 2222 4128 
Q 1984 4128 1890 4042 
Q 1797 3956 1797 3744 
L 1797 3500 
L 2753 3500 
L 2753 2700 
L 1797 2700 
L 1797 0 
L 678 0 
L 678 2700 
L 122 2700 
L 122 3500 
L 678 3500 
L 678 3744 
Q 678 4316 997 4589 
Q 1316 4863 1984 4863 
L 2841 4863 
z
" transform="scale(0.015625)"/>
      <path id="DejaVuSans-Bold-f3" d="M 2203 2784 
Q 1831 2784 1636 2517 
Q 1441 2250 1441 1747 
Q 1441 1244 1636 976 
Q 1831 709 2203 709 
Q 2569 709 2762 976 
Q 2956 1244 2956 1747 
Q 2956 2250 2762 2517 
Q 2569 2784 2203 2784 
z
M 2203 3584 
Q 3106 3584 3614 3096 
Q 4122 2609 4122 1747 
Q 4122 884 3614 396 
Q 3106 -91 2203 -91 
Q 1297 -91 786 396 
Q 275 884 275 1747 
Q 275 2609 786 3096 
Q 1297 3584 2203 3584 
z
M 2694 5119 
L 3578 5119 
L 2425 3944 
L 1813 3944 
L 2694 5119 
z
" transform="scale(0.015625)"/>
     </defs>
     <use xlink:href="#DejaVuSans-Bold-44"/>
     <use xlink:href="#DejaVuSans-Bold-65" transform="translate(83.007812 0)"/>
     <use xlink:href="#DejaVuSans-Bold-66" transform="translate(150.830078 0)"/>
     <use xlink:href="#DejaVuSans-Bold-69" transform="translate(194.335938 0)"/>
     <use xlink:href="#DejaVuSans-Bold-6e" transform="translate(228.613281 0)"/>
     <use xlink:href="#DejaVuSans-Bold-69" transform="translate(299.804688 0)"/>
     <use xlink:href="#DejaVuSans-Bold-63" transform="translate(334.082031 0)"/>
     <use xlink:href="#DejaVuSans-Bold-69" transform="translate(393.359375 0)"/>
     <use xlink:href="#DejaVuSans-Bold-f3" transform="translate(427.636719 0)"/>
     <use xlink:href="#DejaVuSans-Bold-6e" transform="translate(496.337891 0)"/>
    </g>
   </g>
   <g id="text_33">
    <!-- $\cos\theta = x$ (coordenada x) -->
    <g style="fill: #374151" transform="translate(160.59988 614.977414) scale(0.1 -0.1)">
     <defs>
      <path id="DejaVuSans-63" d="M 3122 3366 
L 3122 2828 
Q 2878 2963 2633 3030 
Q 2388 3097 2138 3097 
Q 1578 3097 1268 2742 
Q 959 2388 959 1747 
Q 959 1106 1268 751 
Q 1578 397 2138 397 
Q 2388 397 2633 464 
Q 2878 531 3122 666 
L 3122 134 
Q 2881 22 2623 -34 
Q 2366 -91 2075 -91 
Q 1284 -91 818 406 
Q 353 903 353 1747 
Q 353 2603 823 3093 
Q 1294 3584 2113 3584 
Q 2378 3584 2631 3529 
Q 2884 3475 3122 3366 
z
" transform="scale(0.015625)"/>
      <path id="DejaVuSans-6f" d="M 1959 3097 
Q 1497 3097 1228 2736 
Q 959 2375 959 1747 
Q 959 1119 1226 758 
Q 1494 397 1959 397 
Q 2419 397 2687 759 
Q 2956 1122 2956 1747 
Q 2956 2369 2687 2733 
Q 2419 3097 1959 3097 
z
M 1959 3584 
Q 2709 3584 3137 3096 
Q 3566 2609 3566 1747 
Q 3566 888 3137 398 
Q 2709 -91 1959 -91 
Q 1206 -91 779 398 
Q 353 888 353 1747 
Q 353 2609 779 3096 
Q 1206 3584 1959 3584 
z
" transform="scale(0.015625)"/>
      <path id="DejaVuSans-73" d="M 2834 3397 
L 2834 2853 
Q 2591 2978 2328 3040 
Q 2066 3103 1784 3103 
Q 1356 3103 1142 2972 
Q 928 2841 928 2578 
Q 928 2378 1081 2264 
Q 1234 2150 1697 2047 
L 1894 2003 
Q 2506 1872 2764 1633 
Q 3022 1394 3022 966 
Q 3022 478 2636 193 
Q 2250 -91 1575 -91 
Q 1294 -91 989 -36 
Q 684 19 347 128 
L 347 722 
Q 666 556 975 473 
Q 1284 391 1588 391 
Q 1994 391 2212 530 
Q 2431 669 2431 922 
Q 2431 1156 2273 1281 
Q 2116 1406 1581 1522 
L 1381 1569 
Q 847 1681 609 1914 
Q 372 2147 372 2553 
Q 372 3047 722 3315 
Q 1072 3584 1716 3584 
Q 2034 3584 2315 3537 
Q 2597 3491 2834 3397 
z
" transform="scale(0.015625)"/>
      <path id="DejaVuSans-Oblique-3b8" d="M 2913 2219 
L 925 2219 
Q 791 1284 928 888 
Q 1100 400 1566 400 
Q 2034 400 2391 891 
Q 2703 1322 2913 2219 
z
M 3009 2750 
Q 3094 3638 2984 3950 
Q 2813 4444 2353 4444 
Q 1875 4444 1525 3956 
Q 1250 3563 1034 2750 
L 3009 2750 
z
M 2444 4913 
Q 3194 4913 3494 4250 
Q 3794 3591 3566 2422 
Q 3341 1256 2781 594 
Q 2225 -72 1475 -72 
Q 722 -72 425 594 
Q 128 1256 353 2422 
Q 581 3591 1134 4250 
Q 1691 4913 2444 4913 
z
" transform="scale(0.015625)"/>
      <path id="DejaVuSans-Oblique-78" d="M 3841 3500 
L 2234 1784 
L 3219 0 
L 2559 0 
L 1819 1388 
L 531 0 
L -166 0 
L 1556 1844 
L 641 3500 
L 1300 3500 
L 1972 2234 
L 3144 3500 
L 3841 3500 
z
" transform="scale(0.015625)"/>
      <path id="DejaVuSans-64" d="M 2906 2969 
L 2906 4863 
L 3481 4863 
L 3481 0 
L 2906 0 
L 2906 525 
Q 2725 213 2448 61 
Q 2172 -91 1784 -91 
Q 1150 -91 751 415 
Q 353 922 353 1747 
Q 353 2572 751 3078 
Q 1150 3584 1784 3584 
Q 2172 3584 2448 3432 
Q 2725 3281 2906 2969 
z
M 947 1747 
Q 947 1113 1208 752 
Q 1469 391 1925 391 
Q 2381 391 2643 752 
Q 2906 1113 2906 1747 
Q 2906 2381 2643 2742 
Q 2381 3103 1925 3103 
Q 1469 3103 1208 2742 
Q 947 2381 947 1747 
z
" transform="scale(0.015625)"/>
      <path id="DejaVuSans-65" d="M 3597 1894 
L 3597 1613 
L 953 1613 
Q 991 1019 1311 708 
Q 1631 397 2203 397 
Q 2534 397 2845 478 
Q 3156 559 3463 722 
L 3463 178 
Q 3153 47 2828 -22 
Q 2503 -91 2169 -91 
Q 1331 -91 842 396 
Q 353 884 353 1716 
Q 353 2575 817 3079 
Q 1281 3584 2069 3584 
Q 2775 3584 3186 3129 
Q 3597 2675 3597 1894 
z
M 3022 2063 
Q 3016 2534 2758 2815 
Q 2500 3097 2075 3097 
Q 1594 3097 1305 2825 
Q 1016 2553 972 2059 
L 3022 2063 
z
" transform="scale(0.015625)"/>
      <path id="DejaVuSans-6e" d="M 3513 2113 
L 3513 0 
L 2938 0 
L 2938 2094 
Q 2938 2591 2744 2837 
Q 2550 3084 2163 3084 
Q 1697 3084 1428 2787 
Q 1159 2491 1159 1978 
L 1159 0 
L 581 0 
L 581 3500 
L 1159 3500 
L 1159 2956 
Q 1366 3272 1645 3428 
Q 1925 3584 2291 3584 
Q 2894 3584 3203 3211 
Q 3513 2838 3513 2113 
z
" transform="scale(0.015625)"/>
      <path id="DejaVuSans-61" d="M 2194 1759 
Q 1497 1759 1228 1600 
Q 959 1441 959 1056 
Q 959 750 1161 570 
Q 1363 391 1709 391 
Q 2188 391 2477 730 
Q 2766 1069 2766 1631 
L 2766 1759 
L 2194 1759 
z
M 3341 1997 
L 3341 0 
L 2766 0 
L 2766 531 
Q 2569 213 2275 61 
Q 1981 -91 1556 -91 
Q 1019 -91 701 211 
Q 384 513 384 1019 
Q 384 1609 779 1909 
Q 1175 2209 1959 2209 
L 2766 2209 
L 2766 2266 
Q 2766 2663 2505 2880 
Q 2244 3097 1772 3097 
Q 1472 3097 1187 3025 
Q 903 2953 641 2809 
L 641 3341 
Q 956 3463 1253 3523 
Q 1550 3584 1831 3584 
Q 2591 3584 2966 3190 
Q 3341 2797 3341 1997 
z
" transform="scale(0.015625)"/>
     </defs>
     <use xlink:href="#DejaVuSans-63" transform="translate(0 0.234375)"/>
     <use xlink:href="#DejaVuSans-6f" transform="translate(54.980469 0.234375)"/>
     <use xlink:href="#DejaVuSans-73" transform="translate(116.162109 0.234375)"/>
     <use xlink:href="#DejaVuSans-Oblique-3b8" transform="translate(184.497395 0.234375)"/>
     <use xlink:href="#DejaVuSans-3d" transform="translate(265.161458 0.234375)"/>
     <use xlink:href="#DejaVuSans-Oblique-78" transform="translate(368.432942 0.234375)"/>
     <use xlink:href="#DejaVuSans-20" transform="translate(427.612629 0.234375)"/>
     <use xlink:href="#DejaVuSans-28" transform="translate(459.399739 0.234375)"/>
     <use xlink:href="#DejaVuSans-63" transform="translate(498.413411 0.234375)"/>
     <use xlink:href="#DejaVuSans-6f" transform="translate(553.393879 0.234375)"/>
     <use xlink:href="#DejaVuSans-6f" transform="translate(614.57552 0.234375)"/>
     <use xlink:href="#DejaVuSans-72" transform="translate(675.757161 0.234375)"/>
     <use xlink:href="#DejaVuSans-64" transform="translate(716.870442 0.234375)"/>
     <use xlink:href="#DejaVuSans-65" transform="translate(780.347004 0.234375)"/>
     <use xlink:href="#DejaVuSans-6e" transform="translate(841.870442 0.234375)"/>
     <use xlink:href="#DejaVuSans-61" transform="translate(905.249348 0.234375)"/>
     <use xlink:href="#DejaVuSans-64" transform="translate(966.528645 0.234375)"/>
     <use xlink:href="#DejaVuSans-61" transform="translate(1030.005208 0.234375)"/>
     <use xlink:href="#DejaVuSans-20" transform="translate(1091.284504 0.234375)"/>
     <use xlink:href="#DejaVuSans-78" transform="translate(1123.071614 0.234375)"/>
     <use xlink:href="#DejaVuSans-29" transform="translate(1182.251301 0.234375)"/>
    </g>
   </g>
   <g id="text_34">
    <!-- $\sin\theta = y$ (coordenada y) -->
    <g style="fill: #374151" transform="translate(161.84988 638.408761) scale(0.1 -0.1)">
     <defs>
      <path id="DejaVuSans-69" d="M 603 3500 
L 1178 3500 
L 1178 0 
L 603 0 
L 603 3500 
z
M 603 4863 
L 1178 4863 
L 1178 4134 
L 603 4134 
L 603 4863 
z
" transform="scale(0.015625)"/>
      <path id="DejaVuSans-Oblique-79" d="M 1588 -325 
Q 1188 -997 936 -1164 
Q 684 -1331 294 -1331 
L -159 -1331 
L -63 -850 
L 269 -850 
Q 509 -850 678 -719 
Q 847 -588 1056 -206 
L 1234 128 
L 459 3500 
L 1069 3500 
L 1650 819 
L 3256 3500 
L 3859 3500 
L 1588 -325 
z
" transform="scale(0.015625)"/>
     </defs>
     <use xlink:href="#DejaVuSans-73" transform="translate(0 0.234375)"/>
     <use xlink:href="#DejaVuSans-69" transform="translate(52.099609 0.234375)"/>
     <use xlink:href="#DejaVuSans-6e" transform="translate(79.882812 0.234375)"/>
     <use xlink:href="#DejaVuSans-Oblique-3b8" transform="translate(159.497395 0.234375)"/>
     <use xlink:href="#DejaVuSans-3d" transform="translate(240.161458 0.234375)"/>
     <use xlink:href="#DejaVuSans-Oblique-79" transform="translate(343.432942 0.234375)"/>
     <use xlink:href="#DejaVuSans-20" transform="translate(402.612629 0.234375)"/>
     <use xlink:href="#DejaVuSans-28" transform="translate(434.399739 0.234375)"/>
     <use xlink:href="#DejaVuSans-63" transform="translate(473.413411 0.234375)"/>
     <use xlink:href="#DejaVuSans-6f" transform="translate(528.393879 0.234375)"/>
     <use xlink:href="#DejaVuSans-6f" transform="translate(589.57552 0.234375)"/>
     <use xlink:href="#DejaVuSans-72" transform="translate(650.757161 0.234375)"/>
     <use xlink:href="#DejaVuSans-64" transform="translate(691.870442 0.234375)"/>
     <use xlink:href="#DejaVuSans-65" transform="translate(755.347004 0.234375)"/>
     <use xlink:href="#DejaVuSans-6e" transform="translate(816.870442 0.234375)"/>
     <use xlink:href="#DejaVuSans-61" transform="translate(880.249348 0.234375)"/>
     <use xlink:href="#DejaVuSans-64" transform="translate(941.528645 0.234375)"/>
     <use xlink:href="#DejaVuSans-61" transform="translate(1005.005208 0.234375)"/>
     <use xlink:href="#DejaVuSans-20" transform="translate(1066.284504 0.234375)"/>
     <use xlink:href="#DejaVuSans-79" transform="translate(1098.071614 0.234375)"/>
     <use xlink:href="#DejaVuSans-29" transform="translate(1157.251301 0.234375)"/>
    </g>
   </g>
   <g id="text_35">
    <!-- $\tan\theta = \frac{y}{x} = \frac{\sin\theta}{\cos\theta}$ -->
    <g style="fill: #374151" transform="translate(185.39988 661.840108) scale(0.1 -0.1)">
     <defs>
      <path id="DejaVuSans-74" d="M 1172 4494 
L 1172 3500 
L 2356 3500 
L 2356 3053 
L 1172 3053 
L 1172 1153 
Q 1172 725 1289 603 
Q 1406 481 1766 481 
L 2356 481 
L 2356 0 
L 1766 0 
Q 1100 0 847 248 
Q 594 497 594 1153 
L 594 3053 
L 172 3053 
L 172 3500 
L 594 3500 
L 594 4494 
L 1172 4494 
z
" transform="scale(0.015625)"/>
     </defs>
     <use xlink:href="#DejaVuSans-74" transform="translate(0 0.471875)"/>
     <use xlink:href="#DejaVuSans-61" transform="translate(39.208984 0.471875)"/>
     <use xlink:href="#DejaVuSans-6e" transform="translate(100.488281 0.471875)"/>
     <use xlink:href="#DejaVuSans-Oblique-3b8" transform="translate(180.102864 0.471875)"/>
     <use xlink:href="#DejaVuSans-3d" transform="translate(260.766926 0.471875)"/>
     <use xlink:href="#DejaVuSans-Oblique-79" transform="translate(364.038411 58.826563) scale(0.7)"/>
     <use xlink:href="#DejaVuSans-Oblique-78" transform="translate(364.038411 -25.2625) scale(0.7)"/>
     <use xlink:href="#DejaVuSans-3d" transform="translate(437.446614 0.471875)"/>
     <use xlink:href="#DejaVuSans-73" transform="translate(549.718098 45.264063) scale(0.7)"/>
     <use xlink:href="#DejaVuSans-69" transform="translate(586.187825 45.264063) scale(0.7)"/>
     <use xlink:href="#DejaVuSans-6e" transform="translate(605.636067 45.264063) scale(0.7)"/>
     <use xlink:href="#DejaVuSans-Oblique-3b8" transform="translate(661.366275 45.264063) scale(0.7)"/>
     <use xlink:href="#DejaVuSans-63" transform="translate(540.718098 -40.717187) scale(0.7)"/>
     <use xlink:href="#DejaVuSans-6f" transform="translate(579.204426 -40.717187) scale(0.7)"/>
     <use xlink:href="#DejaVuSans-73" transform="translate(622.031575 -40.717187) scale(0.7)"/>
     <use xlink:href="#DejaVuSans-Oblique-3b8" transform="translate(669.866275 -40.717187) scale(0.7)"/>
     <path d="M 364.038411 19.26875 
L 364.038411 25.51875 
L 405.464192 25.51875 
L 405.464192 19.26875 
L 364.038411 19.26875 
z
"/>
     <path d="M 540.718098 19.26875 
L 540.718098 25.51875 
L 712.693423 25.51875 
L 712.693423 19.26875 
L 540.718098 19.26875 
z
"/>
    </g>
   </g>
   <g id="text_36">
    <!-- Signos por Cuadrante -->
    <g style="fill: #f59e0b" transform="translate(583.39339 593.108157) scale(0.11 -0.11)">
     <defs>
      <path id="DejaVuSans-Bold-53" d="M 3834 4519 
L 3834 3531 
Q 3450 3703 3084 3790 
Q 2719 3878 2394 3878 
Q 1963 3878 1756 3759 
Q 1550 3641 1550 3391 
Q 1550 3203 1689 3098 
Q 1828 2994 2194 2919 
L 2706 2816 
Q 3484 2659 3812 2340 
Q 4141 2022 4141 1434 
Q 4141 663 3683 286 
Q 3225 -91 2284 -91 
Q 1841 -91 1394 -6 
Q 947 78 500 244 
L 500 1259 
Q 947 1022 1364 901 
Q 1781 781 2169 781 
Q 2563 781 2772 912 
Q 2981 1044 2981 1288 
Q 2981 1506 2839 1625 
Q 2697 1744 2272 1838 
L 1806 1941 
Q 1106 2091 782 2419 
Q 459 2747 459 3303 
Q 459 4000 909 4375 
Q 1359 4750 2203 4750 
Q 2588 4750 2994 4692 
Q 3400 4634 3834 4519 
z
" transform="scale(0.015625)"/>
      <path id="DejaVuSans-Bold-67" d="M 2919 594 
Q 2688 288 2409 144 
Q 2131 0 1766 0 
Q 1125 0 706 504 
Q 288 1009 288 1791 
Q 288 2575 706 3076 
Q 1125 3578 1766 3578 
Q 2131 3578 2409 3434 
Q 2688 3291 2919 2981 
L 2919 3500 
L 4044 3500 
L 4044 353 
Q 4044 -491 3511 -936 
Q 2978 -1381 1966 -1381 
Q 1638 -1381 1331 -1331 
Q 1025 -1281 716 -1178 
L 716 -306 
Q 1009 -475 1290 -558 
Q 1572 -641 1856 -641 
Q 2406 -641 2662 -400 
Q 2919 -159 2919 353 
L 2919 594 
z
M 2181 2772 
Q 1834 2772 1640 2515 
Q 1447 2259 1447 1791 
Q 1447 1309 1634 1061 
Q 1822 813 2181 813 
Q 2531 813 2725 1069 
Q 2919 1325 2919 1791 
Q 2919 2259 2725 2515 
Q 2531 2772 2181 2772 
z
" transform="scale(0.015625)"/>
      <path id="DejaVuSans-Bold-70" d="M 1656 506 
L 1656 -1331 
L 538 -1331 
L 538 3500 
L 1656 3500 
L 1656 2988 
Q 1888 3294 2169 3439 
Q 2450 3584 2816 3584 
Q 3463 3584 3878 3070 
Q 4294 2556 4294 1747 
Q 4294 938 3878 423 
Q 3463 -91 2816 -91 
Q 2450 -91 2169 54 
Q 1888 200 1656 506 
z
M 2400 2772 
Q 2041 2772 1848 2508 
Q 1656 2244 1656 1747 
Q 1656 1250 1848 986 
Q 2041 722 2400 722 
Q 2759 722 2948 984 
Q 3138 1247 3138 1747 
Q 3138 2247 2948 2509 
Q 2759 2772 2400 2772 
z
" transform="scale(0.015625)"/>
      <path id="DejaVuSans-Bold-72" d="M 3138 2547 
Q 2991 2616 2845 2648 
Q 2700 2681 2553 2681 
Q 2122 2681 1889 2404 
Q 1656 2128 1656 1613 
L 1656 0 
L 538 0 
L 538 3500 
L 1656 3500 
L 1656 2925 
Q 1872 3269 2151 3426 
Q 2431 3584 2822 3584 
Q 2878 3584 2943 3579 
Q 3009 3575 3134 3559 
L 3138 2547 
z
" transform="scale(0.015625)"/>
      <path id="DejaVuSans-Bold-43" d="M 4288 256 
Q 3956 84 3597 -3 
Q 3238 -91 2847 -91 
Q 1681 -91 1000 561 
Q 319 1213 319 2328 
Q 319 3447 1000 4098 
Q 1681 4750 2847 4750 
Q 3238 4750 3597 4662 
Q 3956 4575 4288 4403 
L 4288 3438 
Q 3953 3666 3628 3772 
Q 3303 3878 2944 3878 
Q 2300 3878 1931 3465 
Q 1563 3053 1563 2328 
Q 1563 1606 1931 1193 
Q 2300 781 2944 781 
Q 3303 781 3628 887 
Q 3953 994 4288 1222 
L 4288 256 
z
" transform="scale(0.015625)"/>
      <path id="DejaVuSans-Bold-75" d="M 500 1363 
L 500 3500 
L 1625 3500 
L 1625 3150 
Q 1625 2866 1622 2436 
Q 1619 2006 1619 1863 
Q 1619 1441 1641 1255 
Q 1663 1069 1716 984 
Q 1784 875 1895 815 
Q 2006 756 2150 756 
Q 2500 756 2700 1025 
Q 2900 1294 2900 1772 
L 2900 3500 
L 4019 3500 
L 4019 0 
L 2900 0 
L 2900 506 
Q 2647 200 2364 54 
Q 2081 -91 1741 -91 
Q 1134 -91 817 281 
Q 500 653 500 1363 
z
" transform="scale(0.015625)"/>
      <path id="DejaVuSans-Bold-61" d="M 2106 1575 
Q 1756 1575 1579 1456 
Q 1403 1338 1403 1106 
Q 1403 894 1545 773 
Q 1688 653 1941 653 
Q 2256 653 2472 879 
Q 2688 1106 2688 1447 
L 2688 1575 
L 2106 1575 
z
M 3816 1997 
L 3816 0 
L 2688 0 
L 2688 519 
Q 2463 200 2181 54 
Q 1900 -91 1497 -91 
Q 953 -91 614 226 
Q 275 544 275 1050 
Q 275 1666 698 1953 
Q 1122 2241 2028 2241 
L 2688 2241 
L 2688 2328 
Q 2688 2594 2478 2717 
Q 2269 2841 1825 2841 
Q 1466 2841 1156 2769 
Q 847 2697 581 2553 
L 581 3406 
Q 941 3494 1303 3539 
Q 1666 3584 2028 3584 
Q 2975 3584 3395 3211 
Q 3816 2838 3816 1997 
z
" transform="scale(0.015625)"/>
      <path id="DejaVuSans-Bold-64" d="M 2919 2988 
L 2919 4863 
L 4044 4863 
L 4044 0 
L 2919 0 
L 2919 506 
Q 2688 197 2409 53 
Q 2131 -91 1766 -91 
Q 1119 -91 703 423 
Q 288 938 288 1747 
Q 288 2556 703 3070 
Q 1119 3584 1766 3584 
Q 2128 3584 2408 3439 
Q 2688 3294 2919 2988 
z
M 2181 722 
Q 2541 722 2730 984 
Q 2919 1247 2919 1747 
Q 2919 2247 2730 2509 
Q 2541 2772 2181 2772 
Q 1825 2772 1636 2509 
Q 1447 2247 1447 1747 
Q 1447 1247 1636 984 
Q 1825 722 2181 722 
z
" transform="scale(0.015625)"/>
      <path id="DejaVuSans-Bold-74" d="M 1759 4494 
L 1759 3500 
L 2913 3500 
L 2913 2700 
L 1759 2700 
L 1759 1216 
Q 1759 972 1856 886 
Q 1953 800 2241 800 
L 2816 800 
L 2816 0 
L 1856 0 
Q 1194 0 917 276 
Q 641 553 641 1216 
L 641 2700 
L 84 2700 
L 84 3500 
L 641 3500 
L 641 4494 
L 1759 4494 
z
" transform="scale(0.015625)"/>
     </defs>
     <use xlink:href="#DejaVuSans-Bold-53"/>
     <use xlink:href="#DejaVuSans-Bold-69" transform="translate(72.021484 0)"/>
     <use xlink:href="#DejaVuSans-Bold-67" transform="translate(106.298828 0)"/>
     <use xlink:href="#DejaVuSans-Bold-6e" transform="translate(177.880859 0)"/>
     <use xlink:href="#DejaVuSans-Bold-6f" transform="translate(249.072266 0)"/>
     <use xlink:href="#DejaVuSans-Bold-73" transform="translate(317.773438 0)"/>
     <use xlink:href="#DejaVuSans-Bold-20" transform="translate(377.294922 0)"/>
     <use xlink:href="#DejaVuSans-Bold-70" transform="translate(412.109375 0)"/>
     <use xlink:href="#DejaVuSans-Bold-6f" transform="translate(483.691406 0)"/>
     <use xlink:href="#DejaVuSans-Bold-72" transform="translate(552.392578 0)"/>
     <use xlink:href="#DejaVuSans-Bold-20" transform="translate(601.708984 0)"/>
     <use xlink:href="#DejaVuSans-Bold-43" transform="translate(636.523438 0)"/>
     <use xlink:href="#DejaVuSans-Bold-75" transform="translate(709.912109 0)"/>
     <use xlink:href="#DejaVuSans-Bold-61" transform="translate(781.103516 0)"/>
     <use xlink:href="#DejaVuSans-Bold-64" transform="translate(848.583984 0)"/>
     <use xlink:href="#DejaVuSans-Bold-72" transform="translate(920.166016 0)"/>
     <use xlink:href="#DejaVuSans-Bold-61" transform="translate(969.482422 0)"/>
     <use xlink:href="#DejaVuSans-Bold-6e" transform="translate(1036.962891 0)"/>
     <use xlink:href="#DejaVuSans-Bold-74" transform="translate(1108.154297 0)"/>
     <use xlink:href="#DejaVuSans-Bold-65" transform="translate(1155.957031 0)"/>
    </g>
   </g>
   <g id="text_37">
    <!-- I (0°-90°): -->
    <g style="fill: #374151" transform="translate(504.839722 614.977414) scale(0.09 -0.09)">
     <defs>
      <path id="DejaVuSans-Bold-30" d="M 2944 2338 
Q 2944 3213 2780 3570 
Q 2616 3928 2228 3928 
Q 1841 3928 1675 3570 
Q 1509 3213 1509 2338 
Q 1509 1453 1675 1090 
Q 1841 728 2228 728 
Q 2613 728 2778 1090 
Q 2944 1453 2944 2338 
z
M 4147 2328 
Q 4147 1169 3647 539 
Q 3147 -91 2228 -91 
Q 1306 -91 806 539 
Q 306 1169 306 2328 
Q 306 3491 806 4120 
Q 1306 4750 2228 4750 
Q 3147 4750 3647 4120 
Q 4147 3491 4147 2328 
z
" transform="scale(0.015625)"/>
      <path id="DejaVuSans-Bold-b0" d="M 1600 4288 
Q 1375 4288 1219 4131 
Q 1063 3975 1063 3750 
Q 1063 3525 1217 3372 
Q 1372 3219 1600 3219 
Q 1825 3219 1981 3373 
Q 2138 3528 2138 3750 
Q 2138 3975 1980 4131 
Q 1822 4288 1600 4288 
z
M 1600 4794 
Q 1806 4794 1997 4714 
Q 2188 4634 2338 4488 
Q 2484 4338 2561 4150 
Q 2638 3963 2638 3750 
Q 2638 3541 2561 3352 
Q 2484 3163 2344 3022 
Q 2194 2872 2000 2792 
Q 1806 2713 1594 2713 
Q 1153 2713 854 3011 
Q 556 3309 556 3750 
Q 556 4191 857 4492 
Q 1159 4794 1600 4794 
z
" transform="scale(0.015625)"/>
      <path id="DejaVuSans-Bold-2d" d="M 347 2297 
L 2309 2297 
L 2309 1388 
L 347 1388 
L 347 2297 
z
" transform="scale(0.015625)"/>
      <path id="DejaVuSans-Bold-39" d="M 641 103 
L 641 966 
Q 928 831 1190 764 
Q 1453 697 1709 697 
Q 2247 697 2547 995 
Q 2847 1294 2900 1881 
Q 2688 1725 2447 1647 
Q 2206 1569 1925 1569 
Q 1209 1569 770 1986 
Q 331 2403 331 3084 
Q 331 3838 820 4291 
Q 1309 4744 2131 4744 
Q 3044 4744 3544 4128 
Q 4044 3513 4044 2388 
Q 4044 1231 3459 570 
Q 2875 -91 1856 -91 
Q 1528 -91 1228 -42 
Q 928 6 641 103 
z
M 2125 2350 
Q 2441 2350 2600 2554 
Q 2759 2759 2759 3169 
Q 2759 3575 2600 3781 
Q 2441 3988 2125 3988 
Q 1809 3988 1650 3781 
Q 1491 3575 1491 3169 
Q 1491 2759 1650 2554 
Q 1809 2350 2125 2350 
z
" transform="scale(0.015625)"/>
      <path id="DejaVuSans-Bold-3a" d="M 716 3500 
L 1844 3500 
L 1844 2291 
L 716 2291 
L 716 3500 
z
M 716 1209 
L 1844 1209 
L 1844 0 
L 716 0 
L 716 1209 
z
" transform="scale(0.015625)"/>
     </defs>
     <use xlink:href="#DejaVuSans-Bold-49"/>
     <use xlink:href="#DejaVuSans-Bold-20" transform="translate(37.207031 0)"/>
     <use xlink:href="#DejaVuSans-Bold-28" transform="translate(72.021484 0)"/>
     <use xlink:href="#DejaVuSans-Bold-30" transform="translate(117.724609 0)"/>
     <use xlink:href="#DejaVuSans-Bold-b0" transform="translate(187.304688 0)"/>
     <use xlink:href="#DejaVuSans-Bold-2d" transform="translate(237.304688 0)"/>
     <use xlink:href="#DejaVuSans-Bold-39" transform="translate(278.808594 0)"/>
     <use xlink:href="#DejaVuSans-Bold-30" transform="translate(348.388672 0)"/>
     <use xlink:href="#DejaVuSans-Bold-b0" transform="translate(417.96875 0)"/>
     <use xlink:href="#DejaVuSans-Bold-29" transform="translate(467.96875 0)"/>
     <use xlink:href="#DejaVuSans-Bold-3a" transform="translate(513.671875 0)"/>
    </g>
   </g>
   <g id="text_38">
    <!-- sin+, cos+, tan+ -->
    <g style="fill: #6b7280" transform="translate(719.709402 614.977414) scale(0.09 -0.09)">
     <defs>
      <path id="DejaVuSans-2b" d="M 2944 4013 
L 2944 2272 
L 4684 2272 
L 4684 1741 
L 2944 1741 
L 2944 0 
L 2419 0 
L 2419 1741 
L 678 1741 
L 678 2272 
L 2419 2272 
L 2419 4013 
L 2944 4013 
z
" transform="scale(0.015625)"/>
     </defs>
     <use xlink:href="#DejaVuSans-73"/>
     <use xlink:href="#DejaVuSans-69" transform="translate(52.099609 0)"/>
     <use xlink:href="#DejaVuSans-6e" transform="translate(79.882812 0)"/>
     <use xlink:href="#DejaVuSans-2b" transform="translate(143.261719 0)"/>
     <use xlink:href="#DejaVuSans-2c" transform="translate(227.050781 0)"/>
     <use xlink:href="#DejaVuSans-20" transform="translate(258.837891 0)"/>
     <use xlink:href="#DejaVuSans-63" transform="translate(290.625 0)"/>
     <use xlink:href="#DejaVuSans-6f" transform="translate(345.605469 0)"/>
     <use xlink:href="#DejaVuSans-73" transform="translate(406.787109 0)"/>
     <use xlink:href="#DejaVuSans-2b" transform="translate(458.886719 0)"/>
     <use xlink:href="#DejaVuSans-2c" transform="translate(542.675781 0)"/>
     <use xlink:href="#DejaVuSans-20" transform="translate(574.462891 0)"/>
     <use xlink:href="#DejaVuSans-74" transform="translate(606.25 0)"/>
     <use xlink:href="#DejaVuSans-61" transform="translate(645.458984 0)"/>
     <use xlink:href="#DejaVuSans-6e" transform="translate(706.738281 0)"/>
     <use xlink:href="#DejaVuSans-2b" transform="translate(770.117188 0)"/>
    </g>
   </g>
   <g id="text_39">
    <!-- II (90°-180°): -->
    <g style="fill: #374151" transform="translate(504.839722 635.284582) scale(0.09 -0.09)">
     <defs>
      <path id="DejaVuSans-Bold-31" d="M 750 831 
L 1813 831 
L 1813 3847 
L 722 3622 
L 722 4441 
L 1806 4666 
L 2950 4666 
L 2950 831 
L 4013 831 
L 4013 0 
L 750 0 
L 750 831 
z
" transform="scale(0.015625)"/>
      <path id="DejaVuSans-Bold-38" d="M 2228 2088 
Q 1891 2088 1709 1903 
Q 1528 1719 1528 1375 
Q 1528 1031 1709 848 
Q 1891 666 2228 666 
Q 2563 666 2741 848 
Q 2919 1031 2919 1375 
Q 2919 1722 2741 1905 
Q 2563 2088 2228 2088 
z
M 1350 2484 
Q 925 2613 709 2878 
Q 494 3144 494 3541 
Q 494 4131 934 4440 
Q 1375 4750 2228 4750 
Q 3075 4750 3515 4442 
Q 3956 4134 3956 3541 
Q 3956 3144 3739 2878 
Q 3522 2613 3097 2484 
Q 3572 2353 3814 2058 
Q 4056 1763 4056 1313 
Q 4056 619 3595 264 
Q 3134 -91 2228 -91 
Q 1319 -91 855 264 
Q 391 619 391 1313 
Q 391 1763 633 2058 
Q 875 2353 1350 2484 
z
M 1631 3419 
Q 1631 3141 1786 2991 
Q 1941 2841 2228 2841 
Q 2509 2841 2662 2991 
Q 2816 3141 2816 3419 
Q 2816 3697 2662 3845 
Q 2509 3994 2228 3994 
Q 1941 3994 1786 3844 
Q 1631 3694 1631 3419 
z
" transform="scale(0.015625)"/>
     </defs>
     <use xlink:href="#DejaVuSans-Bold-49"/>
     <use xlink:href="#DejaVuSans-Bold-49" transform="translate(37.207031 0)"/>
     <use xlink:href="#DejaVuSans-Bold-20" transform="translate(74.414062 0)"/>
     <use xlink:href="#DejaVuSans-Bold-28" transform="translate(109.228516 0)"/>
     <use xlink:href="#DejaVuSans-Bold-39" transform="translate(154.931641 0)"/>
     <use xlink:href="#DejaVuSans-Bold-30" transform="translate(224.511719 0)"/>
     <use xlink:href="#DejaVuSans-Bold-b0" transform="translate(294.091797 0)"/>
     <use xlink:href="#DejaVuSans-Bold-2d" transform="translate(344.091797 0)"/>
     <use xlink:href="#DejaVuSans-Bold-31" transform="translate(385.595703 0)"/>
     <use xlink:href="#DejaVuSans-Bold-38" transform="translate(455.175781 0)"/>
     <use xlink:href="#DejaVuSans-Bold-30" transform="translate(524.755859 0)"/>
     <use xlink:href="#DejaVuSans-Bold-b0" transform="translate(594.335938 0)"/>
     <use xlink:href="#DejaVuSans-Bold-29" transform="translate(644.335938 0)"/>
     <use xlink:href="#DejaVuSans-Bold-3a" transform="translate(690.039062 0)"/>
    </g>
   </g>
   <g id="text_40">
    <!-- sin+, cos−, tan− -->
    <g style="fill: #6b7280" transform="translate(719.709402 635.284582) scale(0.09 -0.09)">
     <defs>
      <path id="DejaVuSans-2212" d="M 678 2272 
L 4684 2272 
L 4684 1741 
L 678 1741 
L 678 2272 
z
" transform="scale(0.015625)"/>
     </defs>
     <use xlink:href="#DejaVuSans-73"/>
     <use xlink:href="#DejaVuSans-69" transform="translate(52.099609 0)"/>
     <use xlink:href="#DejaVuSans-6e" transform="translate(79.882812 0)"/>
     <use xlink:href="#DejaVuSans-2b" transform="translate(143.261719 0)"/>
     <use xlink:href="#DejaVuSans-2c" transform="translate(227.050781 0)"/>
     <use xlink:href="#DejaVuSans-20" transform="translate(258.837891 0)"/>
     <use xlink:href="#DejaVuSans-63" transform="translate(290.625 0)"/>
     <use xlink:href="#DejaVuSans-6f" transform="translate(345.605469 0)"/>
     <use xlink:href="#DejaVuSans-73" transform="translate(406.787109 0)"/>
     <use xlink:href="#DejaVuSans-2212" transform="translate(458.886719 0)"/>
     <use xlink:href="#DejaVuSans-2c" transform="translate(542.675781 0)"/>
     <use xlink:href="#DejaVuSans-20" transform="translate(574.462891 0)"/>
     <use xlink:href="#DejaVuSans-74" transform="translate(606.25 0)"/>
     <use xlink:href="#DejaVuSans-61" transform="translate(645.458984 0)"/>
     <use xlink:href="#DejaVuSans-6e" transform="translate(706.738281 0)"/>
     <use xlink:href="#DejaVuSans-2212" transform="translate(770.117188 0)"/>
    </g>
   </g>
   <g id="text_41">
    <!-- III (180°-270°): -->
    <g style="fill: #374151" transform="translate(504.839722 655.591749) scale(0.09 -0.09)">
     <defs>
      <path id="DejaVuSans-Bold-32" d="M 1844 884 
L 3897 884 
L 3897 0 
L 506 0 
L 506 884 
L 2209 2388 
Q 2438 2594 2547 2791 
Q 2656 2988 2656 3200 
Q 2656 3528 2436 3728 
Q 2216 3928 1850 3928 
Q 1569 3928 1234 3808 
Q 900 3688 519 3450 
L 519 4475 
Q 925 4609 1322 4679 
Q 1719 4750 2100 4750 
Q 2938 4750 3402 4381 
Q 3866 4013 3866 3353 
Q 3866 2972 3669 2642 
Q 3472 2313 2841 1759 
L 1844 884 
z
" transform="scale(0.015625)"/>
      <path id="DejaVuSans-Bold-37" d="M 428 4666 
L 3944 4666 
L 3944 3988 
L 2125 0 
L 953 0 
L 2675 3781 
L 428 3781 
L 428 4666 
z
" transform="scale(0.015625)"/>
     </defs>
     <use xlink:href="#DejaVuSans-Bold-49"/>
     <use xlink:href="#DejaVuSans-Bold-49" transform="translate(37.207031 0)"/>
     <use xlink:href="#DejaVuSans-Bold-49" transform="translate(74.414062 0)"/>
     <use xlink:href="#DejaVuSans-Bold-20" transform="translate(111.621094 0)"/>
     <use xlink:href="#DejaVuSans-Bold-28" transform="translate(146.435547 0)"/>
     <use xlink:href="#DejaVuSans-Bold-31" transform="translate(192.138672 0)"/>
     <use xlink:href="#DejaVuSans-Bold-38" transform="translate(261.71875 0)"/>
     <use xlink:href="#DejaVuSans-Bold-30" transform="translate(331.298828 0)"/>
     <use xlink:href="#DejaVuSans-Bold-b0" transform="translate(400.878906 0)"/>
     <use xlink:href="#DejaVuSans-Bold-2d" transform="translate(450.878906 0)"/>
     <use xlink:href="#DejaVuSans-Bold-32" transform="translate(492.382812 0)"/>
     <use xlink:href="#DejaVuSans-Bold-37" transform="translate(561.962891 0)"/>
     <use xlink:href="#DejaVuSans-Bold-30" transform="translate(631.542969 0)"/>
     <use xlink:href="#DejaVuSans-Bold-b0" transform="translate(701.123047 0)"/>
     <use xlink:href="#DejaVuSans-Bold-29" transform="translate(751.123047 0)"/>
     <use xlink:href="#DejaVuSans-Bold-3a" transform="translate(796.826172 0)"/>
    </g>
   </g>
   <g id="text_42">
    <!-- sin−, cos−, tan+ -->
    <g style="fill: #6b7280" transform="translate(719.709402 655.591749) scale(0.09 -0.09)">
     <use xlink:href="#DejaVuSans-73"/>
     <use xlink:href="#DejaVuSans-69" transform="translate(52.099609 0)"/>
     <use xlink:href="#DejaVuSans-6e" transform="translate(79.882812 0)"/>
     <use xlink:href="#DejaVuSans-2212" transform="translate(143.261719 0)"/>
     <use xlink:href="#DejaVuSans-2c" transform="translate(227.050781 0)"/>
     <use xlink:href="#DejaVuSans-20" transform="translate(258.837891 0)"/>
     <use xlink:href="#DejaVuSans-63" transform="translate(290.625 0)"/>
     <use xlink:href="#DejaVuSans-6f" transform="translate(345.605469 0)"/>
     <use xlink:href="#DejaVuSans-73" transform="translate(406.787109 0)"/>
     <use xlink:href="#DejaVuSans-2212" transform="translate(458.886719 0)"/>
     <use xlink:href="#DejaVuSans-2c" transform="translate(542.675781 0)"/>
     <use xlink:href="#DejaVuSans-20" transform="translate(574.462891 0)"/>
     <use xlink:href="#DejaVuSans-74" transform="translate(606.25 0)"/>
     <use xlink:href="#DejaVuSans-61" transform="translate(645.458984 0)"/>
     <use xlink:href="#DejaVuSans-6e" transform="translate(706.738281 0)"/>
     <use xlink:href="#DejaVuSans-2b" transform="translate(770.117188 0)"/>
    </g>
   </g>
   <g id="text_43">
    <!-- IV (270°-360°): -->
    <g style="fill: #374151" transform="translate(504.839722 675.898916) scale(0.09 -0.09)">
     <defs>
      <path id="DejaVuSans-Bold-33" d="M 2981 2516 
Q 3453 2394 3698 2092 
Q 3944 1791 3944 1325 
Q 3944 631 3412 270 
Q 2881 -91 1863 -91 
Q 1503 -91 1142 -33 
Q 781 25 428 141 
L 428 1069 
Q 766 900 1098 814 
Q 1431 728 1753 728 
Q 2231 728 2486 893 
Q 2741 1059 2741 1369 
Q 2741 1688 2480 1852 
Q 2219 2016 1709 2016 
L 1228 2016 
L 1228 2791 
L 1734 2791 
Q 2188 2791 2409 2933 
Q 2631 3075 2631 3366 
Q 2631 3634 2415 3781 
Q 2200 3928 1806 3928 
Q 1516 3928 1219 3862 
Q 922 3797 628 3669 
L 628 4550 
Q 984 4650 1334 4700 
Q 1684 4750 2022 4750 
Q 2931 4750 3382 4451 
Q 3834 4153 3834 3553 
Q 3834 3144 3618 2883 
Q 3403 2622 2981 2516 
z
" transform="scale(0.015625)"/>
      <path id="DejaVuSans-Bold-36" d="M 2316 2303 
Q 2000 2303 1842 2098 
Q 1684 1894 1684 1484 
Q 1684 1075 1842 870 
Q 2000 666 2316 666 
Q 2634 666 2792 870 
Q 2950 1075 2950 1484 
Q 2950 1894 2792 2098 
Q 2634 2303 2316 2303 
z
M 3803 4544 
L 3803 3681 
Q 3506 3822 3243 3889 
Q 2981 3956 2731 3956 
Q 2194 3956 1894 3657 
Q 1594 3359 1544 2772 
Q 1750 2925 1990 3001 
Q 2231 3078 2516 3078 
Q 3231 3078 3670 2659 
Q 4109 2241 4109 1563 
Q 4109 813 3618 361 
Q 3128 -91 2303 -91 
Q 1394 -91 895 523 
Q 397 1138 397 2266 
Q 397 3422 980 4083 
Q 1563 4744 2578 4744 
Q 2900 4744 3203 4694 
Q 3506 4644 3803 4544 
z
" transform="scale(0.015625)"/>
     </defs>
     <use xlink:href="#DejaVuSans-Bold-49"/>
     <use xlink:href="#DejaVuSans-Bold-56" transform="translate(37.207031 0)"/>
     <use xlink:href="#DejaVuSans-Bold-20" transform="translate(114.599609 0)"/>
     <use xlink:href="#DejaVuSans-Bold-28" transform="translate(149.414062 0)"/>
     <use xlink:href="#DejaVuSans-Bold-32" transform="translate(195.117188 0)"/>
     <use xlink:href="#DejaVuSans-Bold-37" transform="translate(264.697266 0)"/>
     <use xlink:href="#DejaVuSans-Bold-30" transform="translate(334.277344 0)"/>
     <use xlink:href="#DejaVuSans-Bold-b0" transform="translate(403.857422 0)"/>
     <use xlink:href="#DejaVuSans-Bold-2d" transform="translate(453.857422 0)"/>
     <use xlink:href="#DejaVuSans-Bold-33" transform="translate(495.361328 0)"/>
     <use xlink:href="#DejaVuSans-Bold-36" transform="translate(564.941406 0)"/>
     <use xlink:href="#DejaVuSans-Bold-30" transform="translate(634.521484 0)"/>
     <use xlink:href="#DejaVuSans-Bold-b0" transform="translate(704.101562 0)"/>
     <use xlink:href="#DejaVuSans-Bold-29" transform="translate(754.101562 0)"/>
     <use xlink:href="#DejaVuSans-Bold-3a" transform="translate(799.804688 0)"/>
    </g>
   </g>
   <g id="text_44">
    <!-- sin−, cos+, tan− -->
    <g style="fill: #6b7280" transform="translate(719.709402 675.898916) scale(0.09 -0.09)">
     <use xlink:href="#DejaVuSans-73"/>
     <use xlink:href="#DejaVuSans-69" transform="translate(52.099609 0)"/>
     <use xlink:href="#DejaVuSans-6e" transform="translate(79.882812 0)"/>
     <use xlink:href="#DejaVuSans-2212" transform="translate(143.261719 0)"/>
     <use xlink:href="#DejaVuSans-2c" transform="translate(227.050781 0)"/>
     <use xlink:href="#DejaVuSans-20" transform="translate(258.837891 0)"/>
     <use xlink:href="#DejaVuSans-63" transform="translate(290.625 0)"/>
     <use xlink:href="#DejaVuSans-6f" transform="translate(345.605469 0)"/>
     <use xlink:href="#DejaVuSans-73" transform="translate(406.787109 0)"/>
     <use xlink:href="#DejaVuSans-2b" transform="translate(458.886719 0)"/>
     <use xlink:href="#DejaVuSans-2c" transform="translate(542.675781 0)"/>
     <use xlink:href="#DejaVuSans-20" transform="translate(574.462891 0)"/>
     <use xlink:href="#DejaVuSans-74" transform="translate(606.25 0)"/>
     <use xlink:href="#DejaVuSans-61" transform="translate(645.458984 0)"/>
     <use xlink:href="#DejaVuSans-6e" transform="translate(706.738281 0)"/>
     <use xlink:href="#DejaVuSans-2212" transform="translate(770.117188 0)"/>
    </g>
   </g>
  </g>
  <g id="text_45">
   <!-- El Círculo Unitario -->
   <g style="fill: #1f2937" transform="translate(365.016323 17.837812) scale(0.14 -0.14)">
    <defs>
     <path id="DejaVuSans-Bold-45" d="M 588 4666 
L 3834 4666 
L 3834 3756 
L 1791 3756 
L 1791 2888 
L 3713 2888 
L 3713 1978 
L 1791 1978 
L 1791 909 
L 3903 909 
L 3903 0 
L 588 0 
L 588 4666 
z
" transform="scale(0.015625)"/>
     <path id="DejaVuSans-Bold-6c" d="M 538 4863 
L 1656 4863 
L 1656 0 
L 538 0 
L 538 4863 
z
" transform="scale(0.015625)"/>
     <path id="DejaVuSans-Bold-ed" d="M 538 3500 
L 1656 3500 
L 1656 0 
L 538 0 
L 538 3500 
z
M 1590 5119 
L 2474 5119 
L 1321 3944 
L 709 3944 
L 1590 5119 
z
" transform="scale(0.015625)"/>
     <path id="DejaVuSans-Bold-55" d="M 588 4666 
L 1791 4666 
L 1791 1869 
Q 1791 1291 1980 1042 
Q 2169 794 2597 794 
Q 3028 794 3217 1042 
Q 3406 1291 3406 1869 
L 3406 4666 
L 4609 4666 
L 4609 1869 
Q 4609 878 4112 393 
Q 3616 -91 2597 -91 
Q 1581 -91 1084 393 
Q 588 878 588 1869 
L 588 4666 
z
" transform="scale(0.015625)"/>
    </defs>
    <use xlink:href="#DejaVuSans-Bold-45"/>
    <use xlink:href="#DejaVuSans-Bold-6c" transform="translate(68.310547 0)"/>
    <use xlink:href="#DejaVuSans-Bold-20" transform="translate(102.587891 0)"/>
    <use xlink:href="#DejaVuSans-Bold-43" transform="translate(137.402344 0)"/>
    <use xlink:href="#DejaVuSans-Bold-ed" transform="translate(210.791016 0)"/>
    <use xlink:href="#DejaVuSans-Bold-72" transform="translate(245.068359 0)"/>
    <use xlink:href="#DejaVuSans-Bold-63" transform="translate(294.384766 0)"/>
    <use xlink:href="#DejaVuSans-Bold-75" transform="translate(353.662109 0)"/>
    <use xlink:href="#DejaVuSans-Bold-6c" transform="translate(424.853516 0)"/>
    <use xlink:href="#DejaVuSans-Bold-6f" transform="translate(459.130859 0)"/>
    <use xlink:href="#DejaVuSans-Bold-20" transform="translate(527.832031 0)"/>
    <use xlink:href="#DejaVuSans-Bold-55" transform="translate(562.646484 0)"/>
    <use xlink:href="#DejaVuSans-Bold-6e" transform="translate(643.847656 0)"/>
    <use xlink:href="#DejaVuSans-Bold-69" transform="translate(715.039062 0)"/>
    <use xlink:href="#DejaVuSans-Bold-74" transform="translate(749.316406 0)"/>
    <use xlink:href="#DejaVuSans-Bold-61" transform="translate(797.119141 0)"/>
    <use xlink:href="#DejaVuSans-Bold-72" transform="translate(864.599609 0)"/>
    <use xlink:href="#DejaVuSans-Bold-69" transform="translate(913.916016 0)"/>
    <use xlink:href="#DejaVuSans-Bold-6f" transform="translate(948.193359 0)"/>
   </g>
  </g>
 </g>
 <defs>
  <clipPath id="p7b33ffae19">
   <rect x="185.149616" y="26.749855" width="502.100289" height="468.626936"/>
  </clipPath>
  <clipPath id="p2547c13734">
   <rect x="7.2" y="564.990541" width="857.99952" height="156.208979"/>
  </clipPath>
 </defs>
</svg>
