<?xml version="1.0" encoding="utf-8" standalone="no"?>
<!DOCTYPE svg PUBLIC "-//W3C//DTD SVG 1.1//EN"
  "http://www.w3.org/Graphics/SVG/1.1/DTD/svg11.dtd">
<svg xmlns:xlink="http://www.w3.org/1999/xlink" width="1017.557831pt" height="656.39952pt" viewBox="0 0 1017.557831 656.39952" xmlns="http://www.w3.org/2000/svg" version="1.1">
 <metadata>
  <rdf:RDF xmlns:dc="http://purl.org/dc/elements/1.1/" xmlns:cc="http://creativecommons.org/ns#" xmlns:rdf="http://www.w3.org/1999/02/22-rdf-syntax-ns#">
   <cc:Work>
    <dc:type rdf:resource="http://purl.org/dc/dcmitype/StillImage"/>
    <dc:date>2026-01-04T20:53:43.765622</dc:date>
    <dc:format>image/svg+xml</dc:format>
    <dc:creator>
     <cc:Agent>
      <dc:title>Repositorio Matemáticas Universitarias</dc:title>
     </cc:Agent>
    </dc:creator>
   </cc:Work>
  </rdf:RDF>
 </metadata>
 <defs>
  <style type="text/css">*{stroke-linejoin: round; stroke-linecap: butt}</style>
 </defs>
 <g id="figure_1">
  <g id="patch_1">
   <path d="M 0 656.39952 
L 1017.557831 656.39952 
L 1017.557831 0 
L 0 0 
z
" style="fill: #ffffff"/>
  </g>
  <g id="axes_1">
   <g id="patch_2">
    <path d="M 45.301563 363.5017 
L 246.966597 363.5017 
L 246.966597 43.31923 
L 45.301563 43.31923 
z
" style="fill: #ffffff"/>
   </g>
   <g id="matplotlib.axis_1">
    <g id="xtick_1">
     <g id="line2d_1">
      <defs>
       <path id="mb8971d5fc3" d="M 0 0 
L 0 3.5 
" style="stroke: #1f2937; stroke-width: 0.8"/>
      </defs>
      <g>
       <use xlink:href="#mb8971d5fc3" x="68.570605" y="363.5017" style="fill: #1f2937; stroke: #1f2937; stroke-width: 0.8"/>
      </g>
     </g>
     <g id="text_1">
      <!-- −1 -->
      <g style="fill: #1f2937" transform="translate(59.725292 379.619825) scale(0.12 -0.12)">
       <defs>
        <path id="DejaVuSans-2212" d="M 678 2272 
L 4684 2272 
L 4684 1741 
L 678 1741 
L 678 2272 
z
" transform="scale(0.015625)"/>
        <path id="DejaVuSans-31" d="M 794 531 
L 1825 531 
L 1825 4091 
L 703 3866 
L 703 4441 
L 1819 4666 
L 2450 4666 
L 2450 531 
L 3481 531 
L 3481 0 
L 794 0 
L 794 531 
z
" transform="scale(0.015625)"/>
       </defs>
       <use xlink:href="#DejaVuSans-2212"/>
       <use xlink:href="#DejaVuSans-31" transform="translate(83.789062 0)"/>
      </g>
     </g>
    </g>
    <g id="xtick_2">
     <g id="line2d_2">
      <g>
       <use xlink:href="#mb8971d5fc3" x="146.13408" y="363.5017" style="fill: #1f2937; stroke: #1f2937; stroke-width: 0.8"/>
      </g>
     </g>
     <g id="text_2">
      <!-- 0 -->
      <g style="fill: #1f2937" transform="translate(142.31658 379.619825) scale(0.12 -0.12)">
       <defs>
        <path id="DejaVuSans-30" d="M 2034 4250 
Q 1547 4250 1301 3770 
Q 1056 3291 1056 2328 
Q 1056 1369 1301 889 
Q 1547 409 2034 409 
Q 2525 409 2770 889 
Q 3016 1369 3016 2328 
Q 3016 3291 2770 3770 
Q 2525 4250 2034 4250 
z
M 2034 4750 
Q 2819 4750 3233 4129 
Q 3647 3509 3647 2328 
Q 3647 1150 3233 529 
Q 2819 -91 2034 -91 
Q 1250 -91 836 529 
Q 422 1150 422 2328 
Q 422 3509 836 4129 
Q 1250 4750 2034 4750 
z
" transform="scale(0.015625)"/>
       </defs>
       <use xlink:href="#DejaVuSans-30"/>
      </g>
     </g>
    </g>
    <g id="xtick_3">
     <g id="line2d_3">
      <g>
       <use xlink:href="#mb8971d5fc3" x="223.697554" y="363.5017" style="fill: #1f2937; stroke: #1f2937; stroke-width: 0.8"/>
      </g>
     </g>
     <g id="text_3">
      <!-- 1 -->
      <g style="fill: #1f2937" transform="translate(219.880054 379.619825) scale(0.12 -0.12)">
       <use xlink:href="#DejaVuSans-31"/>
      </g>
     </g>
    </g>
    <g id="text_4">
     <!-- x -->
     <g style="fill: #1f2937" transform="translate(143.174705 393.713887) scale(0.1 -0.1)">
      <defs>
       <path id="DejaVuSans-78" d="M 3513 3500 
L 2247 1797 
L 3578 0 
L 2900 0 
L 1881 1375 
L 863 0 
L 184 0 
L 1544 1831 
L 300 3500 
L 978 3500 
L 1906 2253 
L 2834 3500 
L 3513 3500 
z
" transform="scale(0.015625)"/>
      </defs>
      <use xlink:href="#DejaVuSans-78"/>
     </g>
    </g>
   </g>
   <g id="matplotlib.axis_2">
    <g id="ytick_1">
     <g id="line2d_4">
      <defs>
       <path id="mb14c2f4cc5" d="M 0 0 
L -3.5 0 
" style="stroke: #1f2937; stroke-width: 0.8"/>
      </defs>
      <g>
       <use xlink:href="#mb14c2f4cc5" x="45.301563" y="329.145827" style="fill: #1f2937; stroke: #1f2937; stroke-width: 0.8"/>
      </g>
     </g>
     <g id="text_5">
      <!-- -π/2 -->
      <g style="fill: #1f2937" transform="translate(20.878125 332.565124) scale(0.09 -0.09)">
       <defs>
        <path id="DejaVuSans-2d" d="M 313 2009 
L 1997 2009 
L 1997 1497 
L 313 1497 
L 313 2009 
z
" transform="scale(0.015625)"/>
        <path id="DejaVuSans-3c0" d="M 231 3500 
L 3584 3500 
L 3584 2925 
L 3144 2925 
L 3144 775 
Q 3144 550 3220 451 
Q 3297 353 3469 353 
Q 3516 353 3584 361 
Q 3653 369 3675 372 
L 3675 -44 
Q 3566 -84 3450 -103 
Q 3334 -122 3219 -122 
Q 2844 -122 2700 83 
Q 2556 288 2556 838 
L 2556 2925 
L 1266 2925 
L 1266 0 
L 678 0 
L 678 2925 
L 231 2925 
L 231 3500 
z
" transform="scale(0.015625)"/>
        <path id="DejaVuSans-2f" d="M 1625 4666 
L 2156 4666 
L 531 -594 
L 0 -594 
L 1625 4666 
z
" transform="scale(0.015625)"/>
        <path id="DejaVuSans-32" d="M 1228 531 
L 3431 531 
L 3431 0 
L 469 0 
L 469 531 
Q 828 903 1448 1529 
Q 2069 2156 2228 2338 
Q 2531 2678 2651 2914 
Q 2772 3150 2772 3378 
Q 2772 3750 2511 3984 
Q 2250 4219 1831 4219 
Q 1534 4219 1204 4116 
Q 875 4013 500 3803 
L 500 4441 
Q 881 4594 1212 4672 
Q 1544 4750 1819 4750 
Q 2544 4750 2975 4387 
Q 3406 4025 3406 3419 
Q 3406 3131 3298 2873 
Q 3191 2616 2906 2266 
Q 2828 2175 2409 1742 
Q 1991 1309 1228 531 
z
" transform="scale(0.015625)"/>
       </defs>
       <use xlink:href="#DejaVuSans-2d"/>
       <use xlink:href="#DejaVuSans-3c0" transform="translate(36.083984 0)"/>
       <use xlink:href="#DejaVuSans-2f" transform="translate(96.289062 0)"/>
       <use xlink:href="#DejaVuSans-32" transform="translate(129.980469 0)"/>
      </g>
     </g>
    </g>
    <g id="ytick_2">
     <g id="line2d_5">
      <g>
       <use xlink:href="#mb14c2f4cc5" x="45.301563" y="203.410465" style="fill: #1f2937; stroke: #1f2937; stroke-width: 0.8"/>
      </g>
     </g>
     <g id="text_6">
      <!-- 0 -->
      <g style="fill: #1f2937" transform="translate(32.575313 206.829762) scale(0.09 -0.09)">
       <use xlink:href="#DejaVuSans-30"/>
      </g>
     </g>
    </g>
    <g id="ytick_3">
     <g id="line2d_6">
      <g>
       <use xlink:href="#mb14c2f4cc5" x="45.301563" y="77.675103" style="fill: #1f2937; stroke: #1f2937; stroke-width: 0.8"/>
      </g>
     </g>
     <g id="text_7">
      <!-- π/2 -->
      <g style="fill: #1f2937" transform="translate(24.125156 81.0944) scale(0.09 -0.09)">
       <use xlink:href="#DejaVuSans-3c0"/>
       <use xlink:href="#DejaVuSans-2f" transform="translate(60.205078 0)"/>
       <use xlink:href="#DejaVuSans-32" transform="translate(93.896484 0)"/>
      </g>
     </g>
    </g>
    <g id="text_8">
     <!-- y -->
     <g style="fill: #1f2937" transform="translate(14.798438 206.36984) rotate(-90) scale(0.1 -0.1)">
      <defs>
       <path id="DejaVuSans-79" d="M 2059 -325 
Q 1816 -950 1584 -1140 
Q 1353 -1331 966 -1331 
L 506 -1331 
L 506 -850 
L 844 -850 
Q 1081 -850 1212 -737 
Q 1344 -625 1503 -206 
L 1606 56 
L 191 3500 
L 800 3500 
L 1894 763 
L 2988 3500 
L 3597 3500 
L 2059 -325 
z
" transform="scale(0.015625)"/>
      </defs>
      <use xlink:href="#DejaVuSans-79"/>
     </g>
    </g>
   </g>
   <g id="line2d_7">
    <path d="M 45.301563 203.410465 
L 246.966597 203.410465 
" clip-path="url(#p1c5bf3a07d)" style="fill: none; stroke: #d1d5db; stroke-linecap: square"/>
   </g>
   <g id="line2d_8">
    <path d="M 146.13408 363.5017 
L 146.13408 43.31923 
" clip-path="url(#p1c5bf3a07d)" style="fill: none; stroke: #d1d5db; stroke-linecap: square"/>
   </g>
   <g id="line2d_9">
    <path d="M 45.301563 77.675103 
L 246.966597 77.675103 
" clip-path="url(#p1c5bf3a07d)" style="fill: none; stroke-dasharray: 3.7,1.6; stroke-dashoffset: 0; stroke: #e5e7eb"/>
   </g>
   <g id="line2d_10">
    <path d="M 45.301563 329.145827 
L 246.966597 329.145827 
" clip-path="url(#p1c5bf3a07d)" style="fill: none; stroke-dasharray: 3.7,1.6; stroke-dashoffset: 0; stroke: #e5e7eb"/>
   </g>
   <g id="line2d_11">
    <path d="M 68.570605 329.145827 
L 69.350137 317.787734 
L 70.12967 313.069524 
L 70.909202 309.439807 
L 72.468267 303.662175 
L 74.027332 298.941466 
L 75.586397 294.838133 
L 77.924994 289.427014 
L 80.263591 284.62123 
L 83.381721 278.855527 
L 86.49985 273.613008 
L 90.397512 267.589195 
L 94.295174 262.002034 
L 98.972369 255.727456 
L 103.649563 249.80963 
L 109.10629 243.247447 
L 115.34255 236.087446 
L 123.137874 227.504784 
L 132.492263 217.562452 
L 147.303378 202.203701 
L 163.673559 185.151771 
L 173.027948 175.067393 
L 180.04374 167.192436 
L 186.279999 159.863288 
L 191.736726 153.101038 
L 196.41392 146.956507 
L 200.311582 141.512093 
L 204.209244 135.678681 
L 207.327374 130.641818 
L 210.445503 125.159644 
L 212.784101 120.651892 
L 215.122698 115.669719 
L 217.461295 109.992749 
L 219.02036 105.61492 
L 220.579425 100.44897 
L 221.358957 97.381123 
L 222.13849 93.751406 
L 222.918022 89.033196 
L 223.697554 77.675103 
L 223.697554 77.675103 
" clip-path="url(#p1c5bf3a07d)" style="fill: none; stroke: #dc2626; stroke-width: 2.5; stroke-linecap: square"/>
   </g>
   <g id="line2d_12">
    <defs>
     <path id="m9e1a2fcb12" d="M 0 3 
C 0.795609 3 1.55874 2.683901 2.12132 2.12132 
C 2.683901 1.55874 3 0.795609 3 0 
C 3 -0.795609 2.683901 -1.55874 2.12132 -2.12132 
C 1.55874 -2.683901 0.795609 -3 0 -3 
C -0.795609 -3 -1.55874 -2.683901 -2.12132 -2.12132 
C -2.683901 -1.55874 -3 -0.795609 -3 0 
C -3 0.795609 -2.683901 1.55874 -2.12132 2.12132 
C -1.55874 2.683901 -0.795609 3 0 3 
z
" style="stroke: #dc2626"/>
    </defs>
    <g clip-path="url(#p1c5bf3a07d)">
     <use xlink:href="#m9e1a2fcb12" x="68.570605" y="329.145827" style="fill: #dc2626; stroke: #dc2626"/>
    </g>
   </g>
   <g id="line2d_13">
    <g clip-path="url(#p1c5bf3a07d)">
     <use xlink:href="#m9e1a2fcb12" x="146.13408" y="203.410465" style="fill: #dc2626; stroke: #dc2626"/>
    </g>
   </g>
   <g id="line2d_14">
    <g clip-path="url(#p1c5bf3a07d)">
     <use xlink:href="#m9e1a2fcb12" x="223.697554" y="77.675103" style="fill: #dc2626; stroke: #dc2626"/>
    </g>
   </g>
   <g id="patch_3">
    <path d="M 45.301563 363.5017 
L 45.301563 43.31923 
" style="fill: none; stroke: #000000; stroke-width: 1.5; stroke-linejoin: miter; stroke-linecap: square"/>
   </g>
   <g id="patch_4">
    <path d="M 45.301563 363.5017 
L 246.966597 363.5017 
" style="fill: none; stroke: #000000; stroke-width: 1.5; stroke-linejoin: miter; stroke-linecap: square"/>
   </g>
   <g id="text_9">
    <!-- D: [-1, 1] -->
    <g style="fill: #6b7280" transform="translate(196.550338 107.355724) scale(0.09 -0.09)">
     <defs>
      <path id="DejaVuSans-44" d="M 1259 4147 
L 1259 519 
L 2022 519 
Q 2988 519 3436 956 
Q 3884 1394 3884 2338 
Q 3884 3275 3436 3711 
Q 2988 4147 2022 4147 
L 1259 4147 
z
M 628 4666 
L 1925 4666 
Q 3281 4666 3915 4102 
Q 4550 3538 4550 2338 
Q 4550 1131 3912 565 
Q 3275 0 1925 0 
L 628 0 
L 628 4666 
z
" transform="scale(0.015625)"/>
      <path id="DejaVuSans-3a" d="M 750 794 
L 1409 794 
L 1409 0 
L 750 0 
L 750 794 
z
M 750 3309 
L 1409 3309 
L 1409 2516 
L 750 2516 
L 750 3309 
z
" transform="scale(0.015625)"/>
      <path id="DejaVuSans-20" transform="scale(0.015625)"/>
      <path id="DejaVuSans-5b" d="M 550 4863 
L 1875 4863 
L 1875 4416 
L 1125 4416 
L 1125 -397 
L 1875 -397 
L 1875 -844 
L 550 -844 
L 550 4863 
z
" transform="scale(0.015625)"/>
      <path id="DejaVuSans-2c" d="M 750 794 
L 1409 794 
L 1409 256 
L 897 -744 
L 494 -744 
L 750 256 
L 750 794 
z
" transform="scale(0.015625)"/>
      <path id="DejaVuSans-5d" d="M 1947 4863 
L 1947 -844 
L 622 -844 
L 622 -397 
L 1369 -397 
L 1369 4416 
L 622 4416 
L 622 4863 
L 1947 4863 
z
" transform="scale(0.015625)"/>
     </defs>
     <use xlink:href="#DejaVuSans-44"/>
     <use xlink:href="#DejaVuSans-3a" transform="translate(77.001953 0)"/>
     <use xlink:href="#DejaVuSans-20" transform="translate(110.693359 0)"/>
     <use xlink:href="#DejaVuSans-5b" transform="translate(142.480469 0)"/>
     <use xlink:href="#DejaVuSans-2d" transform="translate(181.494141 0)"/>
     <use xlink:href="#DejaVuSans-31" transform="translate(217.578125 0)"/>
     <use xlink:href="#DejaVuSans-2c" transform="translate(281.201172 0)"/>
     <use xlink:href="#DejaVuSans-20" transform="translate(312.988281 0)"/>
     <use xlink:href="#DejaVuSans-31" transform="translate(344.775391 0)"/>
     <use xlink:href="#DejaVuSans-5d" transform="translate(408.398438 0)"/>
    </g>
   </g>
   <g id="text_10">
    <!-- R: [-π/2, π/2] -->
    <g style="fill: #6b7280" transform="translate(196.550338 127.367128) scale(0.09 -0.09)">
     <defs>
      <path id="DejaVuSans-52" d="M 2841 2188 
Q 3044 2119 3236 1894 
Q 3428 1669 3622 1275 
L 4263 0 
L 3584 0 
L 2988 1197 
Q 2756 1666 2539 1819 
Q 2322 1972 1947 1972 
L 1259 1972 
L 1259 0 
L 628 0 
L 628 4666 
L 2053 4666 
Q 2853 4666 3247 4331 
Q 3641 3997 3641 3322 
Q 3641 2881 3436 2590 
Q 3231 2300 2841 2188 
z
M 1259 4147 
L 1259 2491 
L 2053 2491 
Q 2509 2491 2742 2702 
Q 2975 2913 2975 3322 
Q 2975 3731 2742 3939 
Q 2509 4147 2053 4147 
L 1259 4147 
z
" transform="scale(0.015625)"/>
     </defs>
     <use xlink:href="#DejaVuSans-52"/>
     <use xlink:href="#DejaVuSans-3a" transform="translate(66.357422 0)"/>
     <use xlink:href="#DejaVuSans-20" transform="translate(100.048828 0)"/>
     <use xlink:href="#DejaVuSans-5b" transform="translate(131.835938 0)"/>
     <use xlink:href="#DejaVuSans-2d" transform="translate(170.849609 0)"/>
     <use xlink:href="#DejaVuSans-3c0" transform="translate(206.933594 0)"/>
     <use xlink:href="#DejaVuSans-2f" transform="translate(267.138672 0)"/>
     <use xlink:href="#DejaVuSans-32" transform="translate(300.830078 0)"/>
     <use xlink:href="#DejaVuSans-2c" transform="translate(364.453125 0)"/>
     <use xlink:href="#DejaVuSans-20" transform="translate(396.240234 0)"/>
     <use xlink:href="#DejaVuSans-3c0" transform="translate(428.027344 0)"/>
     <use xlink:href="#DejaVuSans-2f" transform="translate(488.232422 0)"/>
     <use xlink:href="#DejaVuSans-32" transform="translate(521.923828 0)"/>
     <use xlink:href="#DejaVuSans-5d" transform="translate(585.546875 0)"/>
    </g>
   </g>
   <g id="text_11">
    <!-- $y = \arcsin(x) = \sin^{-1}(x)$ -->
    <g style="fill: #dc2626" transform="translate(83.04908 37.31923) scale(0.11 -0.11)">
     <defs>
      <path id="DejaVuSans-Oblique-79" d="M 1588 -325 
Q 1188 -997 936 -1164 
Q 684 -1331 294 -1331 
L -159 -1331 
L -63 -850 
L 269 -850 
Q 509 -850 678 -719 
Q 847 -588 1056 -206 
L 1234 128 
L 459 3500 
L 1069 3500 
L 1650 819 
L 3256 3500 
L 3859 3500 
L 1588 -325 
z
" transform="scale(0.015625)"/>
      <path id="DejaVuSans-3d" d="M 678 2906 
L 4684 2906 
L 4684 2381 
L 678 2381 
L 678 2906 
z
M 678 1631 
L 4684 1631 
L 4684 1100 
L 678 1100 
L 678 1631 
z
" transform="scale(0.015625)"/>
      <path id="DejaVuSans-61" d="M 2194 1759 
Q 1497 1759 1228 1600 
Q 959 1441 959 1056 
Q 959 750 1161 570 
Q 1363 391 1709 391 
Q 2188 391 2477 730 
Q 2766 1069 2766 1631 
L 2766 1759 
L 2194 1759 
z
M 3341 1997 
L 3341 0 
L 2766 0 
L 2766 531 
Q 2569 213 2275 61 
Q 1981 -91 1556 -91 
Q 1019 -91 701 211 
Q 384 513 384 1019 
Q 384 1609 779 1909 
Q 1175 2209 1959 2209 
L 2766 2209 
L 2766 2266 
Q 2766 2663 2505 2880 
Q 2244 3097 1772 3097 
Q 1472 3097 1187 3025 
Q 903 2953 641 2809 
L 641 3341 
Q 956 3463 1253 3523 
Q 1550 3584 1831 3584 
Q 2591 3584 2966 3190 
Q 3341 2797 3341 1997 
z
" transform="scale(0.015625)"/>
      <path id="DejaVuSans-72" d="M 2631 2963 
Q 2534 3019 2420 3045 
Q 2306 3072 2169 3072 
Q 1681 3072 1420 2755 
Q 1159 2438 1159 1844 
L 1159 0 
L 581 0 
L 581 3500 
L 1159 3500 
L 1159 2956 
Q 1341 3275 1631 3429 
Q 1922 3584 2338 3584 
Q 2397 3584 2469 3576 
Q 2541 3569 2628 3553 
L 2631 2963 
z
" transform="scale(0.015625)"/>
      <path id="DejaVuSans-63" d="M 3122 3366 
L 3122 2828 
Q 2878 2963 2633 3030 
Q 2388 3097 2138 3097 
Q 1578 3097 1268 2742 
Q 959 2388 959 1747 
Q 959 1106 1268 751 
Q 1578 397 2138 397 
Q 2388 397 2633 464 
Q 2878 531 3122 666 
L 3122 134 
Q 2881 22 2623 -34 
Q 2366 -91 2075 -91 
Q 1284 -91 818 406 
Q 353 903 353 1747 
Q 353 2603 823 3093 
Q 1294 3584 2113 3584 
Q 2378 3584 2631 3529 
Q 2884 3475 3122 3366 
z
" transform="scale(0.015625)"/>
      <path id="DejaVuSans-73" d="M 2834 3397 
L 2834 2853 
Q 2591 2978 2328 3040 
Q 2066 3103 1784 3103 
Q 1356 3103 1142 2972 
Q 928 2841 928 2578 
Q 928 2378 1081 2264 
Q 1234 2150 1697 2047 
L 1894 2003 
Q 2506 1872 2764 1633 
Q 3022 1394 3022 966 
Q 3022 478 2636 193 
Q 2250 -91 1575 -91 
Q 1294 -91 989 -36 
Q 684 19 347 128 
L 347 722 
Q 666 556 975 473 
Q 1284 391 1588 391 
Q 1994 391 2212 530 
Q 2431 669 2431 922 
Q 2431 1156 2273 1281 
Q 2116 1406 1581 1522 
L 1381 1569 
Q 847 1681 609 1914 
Q 372 2147 372 2553 
Q 372 3047 722 3315 
Q 1072 3584 1716 3584 
Q 2034 3584 2315 3537 
Q 2597 3491 2834 3397 
z
" transform="scale(0.015625)"/>
      <path id="DejaVuSans-69" d="M 603 3500 
L 1178 3500 
L 1178 0 
L 603 0 
L 603 3500 
z
M 603 4863 
L 1178 4863 
L 1178 4134 
L 603 4134 
L 603 4863 
z
" transform="scale(0.015625)"/>
      <path id="DejaVuSans-6e" d="M 3513 2113 
L 3513 0 
L 2938 0 
L 2938 2094 
Q 2938 2591 2744 2837 
Q 2550 3084 2163 3084 
Q 1697 3084 1428 2787 
Q 1159 2491 1159 1978 
L 1159 0 
L 581 0 
L 581 3500 
L 1159 3500 
L 1159 2956 
Q 1366 3272 1645 3428 
Q 1925 3584 2291 3584 
Q 2894 3584 3203 3211 
Q 3513 2838 3513 2113 
z
" transform="scale(0.015625)"/>
      <path id="DejaVuSans-28" d="M 1984 4856 
Q 1566 4138 1362 3434 
Q 1159 2731 1159 2009 
Q 1159 1288 1364 580 
Q 1569 -128 1984 -844 
L 1484 -844 
Q 1016 -109 783 600 
Q 550 1309 550 2009 
Q 550 2706 781 3412 
Q 1013 4119 1484 4856 
L 1984 4856 
z
" transform="scale(0.015625)"/>
      <path id="DejaVuSans-Oblique-78" d="M 3841 3500 
L 2234 1784 
L 3219 0 
L 2559 0 
L 1819 1388 
L 531 0 
L -166 0 
L 1556 1844 
L 641 3500 
L 1300 3500 
L 1972 2234 
L 3144 3500 
L 3841 3500 
z
" transform="scale(0.015625)"/>
      <path id="DejaVuSans-29" d="M 513 4856 
L 1013 4856 
Q 1481 4119 1714 3412 
Q 1947 2706 1947 2009 
Q 1947 1309 1714 600 
Q 1481 -109 1013 -844 
L 513 -844 
Q 928 -128 1133 580 
Q 1338 1288 1338 2009 
Q 1338 2731 1133 3434 
Q 928 4138 513 4856 
z
" transform="scale(0.015625)"/>
     </defs>
     <use xlink:href="#DejaVuSans-Oblique-79" transform="translate(0 0.684375)"/>
     <use xlink:href="#DejaVuSans-3d" transform="translate(78.662109 0.684375)"/>
     <use xlink:href="#DejaVuSans-61" transform="translate(181.933594 0.684375)"/>
     <use xlink:href="#DejaVuSans-72" transform="translate(243.212891 0.684375)"/>
     <use xlink:href="#DejaVuSans-63" transform="translate(284.326172 0.684375)"/>
     <use xlink:href="#DejaVuSans-73" transform="translate(339.306641 0.684375)"/>
     <use xlink:href="#DejaVuSans-69" transform="translate(391.40625 0.684375)"/>
     <use xlink:href="#DejaVuSans-6e" transform="translate(419.189453 0.684375)"/>
     <use xlink:href="#DejaVuSans-28" transform="translate(482.568359 0.684375)"/>
     <use xlink:href="#DejaVuSans-Oblique-78" transform="translate(521.582031 0.684375)"/>
     <use xlink:href="#DejaVuSans-29" transform="translate(580.761719 0.684375)"/>
     <use xlink:href="#DejaVuSans-3d" transform="translate(639.257812 0.684375)"/>
     <use xlink:href="#DejaVuSans-73" transform="translate(742.529297 0.684375)"/>
     <use xlink:href="#DejaVuSans-69" transform="translate(794.628906 0.684375)"/>
     <use xlink:href="#DejaVuSans-6e" transform="translate(822.412109 0.684375)"/>
     <use xlink:href="#DejaVuSans-2212" transform="translate(886.748047 38.965625) scale(0.7)"/>
     <use xlink:href="#DejaVuSans-31" transform="translate(945.400391 38.965625) scale(0.7)"/>
     <use xlink:href="#DejaVuSans-28" transform="translate(1008.906575 0.684375)"/>
     <use xlink:href="#DejaVuSans-Oblique-78" transform="translate(1047.920247 0.684375)"/>
     <use xlink:href="#DejaVuSans-29" transform="translate(1107.099934 0.684375)"/>
    </g>
   </g>
  </g>
  <g id="axes_2">
   <g id="patch_5">
    <path d="M 424.101402 363.5017 
L 625.766437 363.5017 
L 625.766437 43.31923 
L 424.101402 43.31923 
z
" style="fill: #ffffff"/>
   </g>
   <g id="matplotlib.axis_3">
    <g id="xtick_4">
     <g id="line2d_15">
      <g>
       <use xlink:href="#mb8971d5fc3" x="447.370445" y="363.5017" style="fill: #1f2937; stroke: #1f2937; stroke-width: 0.8"/>
      </g>
     </g>
     <g id="text_12">
      <!-- −1 -->
      <g style="fill: #1f2937" transform="translate(438.525132 379.619825) scale(0.12 -0.12)">
       <use xlink:href="#DejaVuSans-2212"/>
       <use xlink:href="#DejaVuSans-31" transform="translate(83.789062 0)"/>
      </g>
     </g>
    </g>
    <g id="xtick_5">
     <g id="line2d_16">
      <g>
       <use xlink:href="#mb8971d5fc3" x="524.93392" y="363.5017" style="fill: #1f2937; stroke: #1f2937; stroke-width: 0.8"/>
      </g>
     </g>
     <g id="text_13">
      <!-- 0 -->
      <g style="fill: #1f2937" transform="translate(521.11642 379.619825) scale(0.12 -0.12)">
       <use xlink:href="#DejaVuSans-30"/>
      </g>
     </g>
    </g>
    <g id="xtick_6">
     <g id="line2d_17">
      <g>
       <use xlink:href="#mb8971d5fc3" x="602.497394" y="363.5017" style="fill: #1f2937; stroke: #1f2937; stroke-width: 0.8"/>
      </g>
     </g>
     <g id="text_14">
      <!-- 1 -->
      <g style="fill: #1f2937" transform="translate(598.679894 379.619825) scale(0.12 -0.12)">
       <use xlink:href="#DejaVuSans-31"/>
      </g>
     </g>
    </g>
    <g id="text_15">
     <!-- x -->
     <g style="fill: #1f2937" transform="translate(521.974545 393.713887) scale(0.1 -0.1)">
      <use xlink:href="#DejaVuSans-78"/>
     </g>
    </g>
   </g>
   <g id="matplotlib.axis_4">
    <g id="ytick_4">
     <g id="line2d_18">
      <g>
       <use xlink:href="#mb14c2f4cc5" x="424.101402" y="338.224136" style="fill: #1f2937; stroke: #1f2937; stroke-width: 0.8"/>
      </g>
     </g>
     <g id="text_16">
      <!-- 0 -->
      <g style="fill: #1f2937" transform="translate(411.375152 341.643433) scale(0.09 -0.09)">
       <use xlink:href="#DejaVuSans-30"/>
      </g>
     </g>
    </g>
    <g id="ytick_5">
     <g id="line2d_19">
      <g>
       <use xlink:href="#mb14c2f4cc5" x="424.101402" y="205.871124" style="fill: #1f2937; stroke: #1f2937; stroke-width: 0.8"/>
      </g>
     </g>
     <g id="text_17">
      <!-- π/2 -->
      <g style="fill: #1f2937" transform="translate(402.924996 209.290421) scale(0.09 -0.09)">
       <use xlink:href="#DejaVuSans-3c0"/>
       <use xlink:href="#DejaVuSans-2f" transform="translate(60.205078 0)"/>
       <use xlink:href="#DejaVuSans-32" transform="translate(93.896484 0)"/>
      </g>
     </g>
    </g>
    <g id="ytick_6">
     <g id="line2d_20">
      <g>
       <use xlink:href="#mb14c2f4cc5" x="424.101402" y="73.518111" style="fill: #1f2937; stroke: #1f2937; stroke-width: 0.8"/>
      </g>
     </g>
     <g id="text_18">
      <!-- π -->
      <g style="fill: #1f2937" transform="translate(411.683121 76.937408) scale(0.09 -0.09)">
       <use xlink:href="#DejaVuSans-3c0"/>
      </g>
     </g>
    </g>
    <g id="text_19">
     <!-- y -->
     <g style="fill: #1f2937" transform="translate(396.845309 206.36984) rotate(-90) scale(0.1 -0.1)">
      <use xlink:href="#DejaVuSans-79"/>
     </g>
    </g>
   </g>
   <g id="line2d_21">
    <path d="M 424.101402 338.224136 
L 625.766437 338.224136 
" clip-path="url(#p805ce6e5f3)" style="fill: none; stroke: #d1d5db; stroke-linecap: square"/>
   </g>
   <g id="line2d_22">
    <path d="M 524.93392 363.5017 
L 524.93392 43.31923 
" clip-path="url(#p805ce6e5f3)" style="fill: none; stroke: #d1d5db; stroke-linecap: square"/>
   </g>
   <g id="line2d_23">
    <path d="M 424.101402 73.518111 
L 625.766437 73.518111 
" clip-path="url(#p805ce6e5f3)" style="fill: none; stroke-dasharray: 3.7,1.6; stroke-dashoffset: 0; stroke: #e5e7eb"/>
   </g>
   <g id="line2d_24">
    <path d="M 447.370445 73.518111 
L 448.149977 85.473999 
L 448.92951 90.440535 
L 449.709042 94.26129 
L 451.268107 100.343008 
L 452.827172 105.312175 
L 454.386237 109.631474 
L 456.724834 115.327388 
L 459.063431 120.386108 
L 461.402028 124.997036 
L 464.520158 130.636575 
L 467.638288 135.841325 
L 471.53595 141.890321 
L 475.433612 147.551893 
L 480.110806 153.956046 
L 485.567533 161.018225 
L 491.803792 168.685927 
L 498.819584 176.937376 
L 507.39444 186.651447 
L 519.087427 199.513948 
L 544.032464 226.833786 
L 552.60732 236.610576 
L 559.623112 244.939524 
L 565.859371 252.703525 
L 571.316098 259.880085 
L 575.993293 266.414832 
L 579.890955 272.218909 
L 583.788617 278.456445 
L 586.906746 283.86269 
L 590.024876 289.776043 
L 592.363473 294.669428 
L 594.70207 300.124252 
L 596.261135 304.205561 
L 597.8202 308.813802 
L 599.379265 314.251645 
L 600.158797 317.480957 
L 600.93833 321.301713 
L 601.717862 326.268249 
L 602.497394 338.224136 
L 602.497394 338.224136 
" clip-path="url(#p805ce6e5f3)" style="fill: none; stroke: #7c3aed; stroke-width: 2.5; stroke-linecap: square"/>
   </g>
   <g id="line2d_25">
    <defs>
     <path id="md9944ec8e3" d="M 0 3 
C 0.795609 3 1.55874 2.683901 2.12132 2.12132 
C 2.683901 1.55874 3 0.795609 3 0 
C 3 -0.795609 2.683901 -1.55874 2.12132 -2.12132 
C 1.55874 -2.683901 0.795609 -3 0 -3 
C -0.795609 -3 -1.55874 -2.683901 -2.12132 -2.12132 
C -2.683901 -1.55874 -3 -0.795609 -3 0 
C -3 0.795609 -2.683901 1.55874 -2.12132 2.12132 
C -1.55874 2.683901 -0.795609 3 0 3 
z
" style="stroke: #7c3aed"/>
    </defs>
    <g clip-path="url(#p805ce6e5f3)">
     <use xlink:href="#md9944ec8e3" x="447.370445" y="73.518111" style="fill: #7c3aed; stroke: #7c3aed"/>
    </g>
   </g>
   <g id="line2d_26">
    <g clip-path="url(#p805ce6e5f3)">
     <use xlink:href="#md9944ec8e3" x="524.93392" y="205.871124" style="fill: #7c3aed; stroke: #7c3aed"/>
    </g>
   </g>
   <g id="line2d_27">
    <g clip-path="url(#p805ce6e5f3)">
     <use xlink:href="#md9944ec8e3" x="602.497394" y="338.224136" style="fill: #7c3aed; stroke: #7c3aed"/>
    </g>
   </g>
   <g id="patch_6">
    <path d="M 424.101402 363.5017 
L 424.101402 43.31923 
" style="fill: none; stroke: #000000; stroke-width: 1.5; stroke-linejoin: miter; stroke-linecap: square"/>
   </g>
   <g id="patch_7">
    <path d="M 424.101402 363.5017 
L 625.766437 363.5017 
" style="fill: none; stroke: #000000; stroke-width: 1.5; stroke-linejoin: miter; stroke-linecap: square"/>
   </g>
   <g id="text_20">
    <!-- D: [-1, 1] -->
    <g style="fill: #6b7280" transform="translate(575.350178 102.300211) scale(0.09 -0.09)">
     <use xlink:href="#DejaVuSans-44"/>
     <use xlink:href="#DejaVuSans-3a" transform="translate(77.001953 0)"/>
     <use xlink:href="#DejaVuSans-20" transform="translate(110.693359 0)"/>
     <use xlink:href="#DejaVuSans-5b" transform="translate(142.480469 0)"/>
     <use xlink:href="#DejaVuSans-2d" transform="translate(181.494141 0)"/>
     <use xlink:href="#DejaVuSans-31" transform="translate(217.578125 0)"/>
     <use xlink:href="#DejaVuSans-2c" transform="translate(281.201172 0)"/>
     <use xlink:href="#DejaVuSans-20" transform="translate(312.988281 0)"/>
     <use xlink:href="#DejaVuSans-31" transform="translate(344.775391 0)"/>
     <use xlink:href="#DejaVuSans-5d" transform="translate(408.398438 0)"/>
    </g>
   </g>
   <g id="text_21">
    <!-- R: [0, π] -->
    <g style="fill: #6b7280" transform="translate(575.350178 127.577775) scale(0.09 -0.09)">
     <use xlink:href="#DejaVuSans-52"/>
     <use xlink:href="#DejaVuSans-3a" transform="translate(66.357422 0)"/>
     <use xlink:href="#DejaVuSans-20" transform="translate(100.048828 0)"/>
     <use xlink:href="#DejaVuSans-5b" transform="translate(131.835938 0)"/>
     <use xlink:href="#DejaVuSans-30" transform="translate(170.849609 0)"/>
     <use xlink:href="#DejaVuSans-2c" transform="translate(234.472656 0)"/>
     <use xlink:href="#DejaVuSans-20" transform="translate(266.259766 0)"/>
     <use xlink:href="#DejaVuSans-3c0" transform="translate(298.046875 0)"/>
     <use xlink:href="#DejaVuSans-5d" transform="translate(358.251953 0)"/>
    </g>
   </g>
   <g id="text_22">
    <!-- $y = \arccos(x) = \cos^{-1}(x)$ -->
    <g style="fill: #7c3aed" transform="translate(459.09892 37.31923) scale(0.11 -0.11)">
     <defs>
      <path id="DejaVuSans-6f" d="M 1959 3097 
Q 1497 3097 1228 2736 
Q 959 2375 959 1747 
Q 959 1119 1226 758 
Q 1494 397 1959 397 
Q 2419 397 2687 759 
Q 2956 1122 2956 1747 
Q 2956 2369 2687 2733 
Q 2419 3097 1959 3097 
z
M 1959 3584 
Q 2709 3584 3137 3096 
Q 3566 2609 3566 1747 
Q 3566 888 3137 398 
Q 2709 -91 1959 -91 
Q 1206 -91 779 398 
Q 353 888 353 1747 
Q 353 2609 779 3096 
Q 1206 3584 1959 3584 
z
" transform="scale(0.015625)"/>
     </defs>
     <use xlink:href="#DejaVuSans-Oblique-79" transform="translate(0 0.684375)"/>
     <use xlink:href="#DejaVuSans-3d" transform="translate(78.662109 0.684375)"/>
     <use xlink:href="#DejaVuSans-61" transform="translate(181.933594 0.684375)"/>
     <use xlink:href="#DejaVuSans-72" transform="translate(243.212891 0.684375)"/>
     <use xlink:href="#DejaVuSans-63" transform="translate(284.326172 0.684375)"/>
     <use xlink:href="#DejaVuSans-63" transform="translate(339.306641 0.684375)"/>
     <use xlink:href="#DejaVuSans-6f" transform="translate(394.287109 0.684375)"/>
     <use xlink:href="#DejaVuSans-73" transform="translate(455.46875 0.684375)"/>
     <use xlink:href="#DejaVuSans-28" transform="translate(507.568359 0.684375)"/>
     <use xlink:href="#DejaVuSans-Oblique-78" transform="translate(546.582031 0.684375)"/>
     <use xlink:href="#DejaVuSans-29" transform="translate(605.761719 0.684375)"/>
     <use xlink:href="#DejaVuSans-3d" transform="translate(664.257812 0.684375)"/>
     <use xlink:href="#DejaVuSans-63" transform="translate(767.529297 0.684375)"/>
     <use xlink:href="#DejaVuSans-6f" transform="translate(822.509766 0.684375)"/>
     <use xlink:href="#DejaVuSans-73" transform="translate(883.691406 0.684375)"/>
     <use xlink:href="#DejaVuSans-2212" transform="translate(936.748047 38.965625) scale(0.7)"/>
     <use xlink:href="#DejaVuSans-31" transform="translate(995.400391 38.965625) scale(0.7)"/>
     <use xlink:href="#DejaVuSans-28" transform="translate(1058.906575 0.684375)"/>
     <use xlink:href="#DejaVuSans-Oblique-78" transform="translate(1097.920247 0.684375)"/>
     <use xlink:href="#DejaVuSans-29" transform="translate(1157.099934 0.684375)"/>
    </g>
   </g>
  </g>
  <g id="axes_3">
   <g id="patch_8">
    <path d="M 802.901242 363.5017 
L 1004.566277 363.5017 
L 1004.566277 43.31923 
L 802.901242 43.31923 
z
" style="fill: #ffffff"/>
   </g>
   <g id="matplotlib.axis_5">
    <g id="xtick_7">
     <g id="line2d_28">
      <g>
       <use xlink:href="#mb8971d5fc3" x="823.067746" y="363.5017" style="fill: #1f2937; stroke: #1f2937; stroke-width: 0.8"/>
      </g>
     </g>
     <g id="text_23">
      <!-- −4 -->
      <g style="fill: #1f2937" transform="translate(814.222433 379.619825) scale(0.12 -0.12)">
       <defs>
        <path id="DejaVuSans-34" d="M 2419 4116 
L 825 1625 
L 2419 1625 
L 2419 4116 
z
M 2253 4666 
L 3047 4666 
L 3047 1625 
L 3713 1625 
L 3713 1100 
L 3047 1100 
L 3047 0 
L 2419 0 
L 2419 1100 
L 313 1100 
L 313 1709 
L 2253 4666 
z
" transform="scale(0.015625)"/>
       </defs>
       <use xlink:href="#DejaVuSans-2212"/>
       <use xlink:href="#DejaVuSans-34" transform="translate(83.789062 0)"/>
      </g>
     </g>
    </g>
    <g id="xtick_8">
     <g id="line2d_29">
      <g>
       <use xlink:href="#mb8971d5fc3" x="863.400753" y="363.5017" style="fill: #1f2937; stroke: #1f2937; stroke-width: 0.8"/>
      </g>
     </g>
     <g id="text_24">
      <!-- −2 -->
      <g style="fill: #1f2937" transform="translate(854.55544 379.619825) scale(0.12 -0.12)">
       <use xlink:href="#DejaVuSans-2212"/>
       <use xlink:href="#DejaVuSans-32" transform="translate(83.789062 0)"/>
      </g>
     </g>
    </g>
    <g id="xtick_9">
     <g id="line2d_30">
      <g>
       <use xlink:href="#mb8971d5fc3" x="903.73376" y="363.5017" style="fill: #1f2937; stroke: #1f2937; stroke-width: 0.8"/>
      </g>
     </g>
     <g id="text_25">
      <!-- 0 -->
      <g style="fill: #1f2937" transform="translate(899.91626 379.619825) scale(0.12 -0.12)">
       <use xlink:href="#DejaVuSans-30"/>
      </g>
     </g>
    </g>
    <g id="xtick_10">
     <g id="line2d_31">
      <g>
       <use xlink:href="#mb8971d5fc3" x="944.066767" y="363.5017" style="fill: #1f2937; stroke: #1f2937; stroke-width: 0.8"/>
      </g>
     </g>
     <g id="text_26">
      <!-- 2 -->
      <g style="fill: #1f2937" transform="translate(940.249267 379.619825) scale(0.12 -0.12)">
       <use xlink:href="#DejaVuSans-32"/>
      </g>
     </g>
    </g>
    <g id="xtick_11">
     <g id="line2d_32">
      <g>
       <use xlink:href="#mb8971d5fc3" x="984.399773" y="363.5017" style="fill: #1f2937; stroke: #1f2937; stroke-width: 0.8"/>
      </g>
     </g>
     <g id="text_27">
      <!-- 4 -->
      <g style="fill: #1f2937" transform="translate(980.582273 379.619825) scale(0.12 -0.12)">
       <use xlink:href="#DejaVuSans-34"/>
      </g>
     </g>
    </g>
    <g id="text_28">
     <!-- x -->
     <g style="fill: #1f2937" transform="translate(900.774385 393.713887) scale(0.1 -0.1)">
      <use xlink:href="#DejaVuSans-78"/>
     </g>
    </g>
   </g>
   <g id="matplotlib.axis_6">
    <g id="ytick_7">
     <g id="line2d_33">
      <g>
       <use xlink:href="#mb14c2f4cc5" x="802.901242" y="329.145827" style="fill: #1f2937; stroke: #1f2937; stroke-width: 0.8"/>
      </g>
     </g>
     <g id="text_29">
      <!-- -π/2 -->
      <g style="fill: #1f2937" transform="translate(778.477805 332.565124) scale(0.09 -0.09)">
       <use xlink:href="#DejaVuSans-2d"/>
       <use xlink:href="#DejaVuSans-3c0" transform="translate(36.083984 0)"/>
       <use xlink:href="#DejaVuSans-2f" transform="translate(96.289062 0)"/>
       <use xlink:href="#DejaVuSans-32" transform="translate(129.980469 0)"/>
      </g>
     </g>
    </g>
    <g id="ytick_8">
     <g id="line2d_34">
      <g>
       <use xlink:href="#mb14c2f4cc5" x="802.901242" y="203.410465" style="fill: #1f2937; stroke: #1f2937; stroke-width: 0.8"/>
      </g>
     </g>
     <g id="text_30">
      <!-- 0 -->
      <g style="fill: #1f2937" transform="translate(790.174992 206.829762) scale(0.09 -0.09)">
       <use xlink:href="#DejaVuSans-30"/>
      </g>
     </g>
    </g>
    <g id="ytick_9">
     <g id="line2d_35">
      <g>
       <use xlink:href="#mb14c2f4cc5" x="802.901242" y="77.675103" style="fill: #1f2937; stroke: #1f2937; stroke-width: 0.8"/>
      </g>
     </g>
     <g id="text_31">
      <!-- π/2 -->
      <g style="fill: #1f2937" transform="translate(781.724836 81.0944) scale(0.09 -0.09)">
       <use xlink:href="#DejaVuSans-3c0"/>
       <use xlink:href="#DejaVuSans-2f" transform="translate(60.205078 0)"/>
       <use xlink:href="#DejaVuSans-32" transform="translate(93.896484 0)"/>
      </g>
     </g>
    </g>
    <g id="text_32">
     <!-- y -->
     <g style="fill: #1f2937" transform="translate(772.398117 206.36984) rotate(-90) scale(0.1 -0.1)">
      <use xlink:href="#DejaVuSans-79"/>
     </g>
    </g>
   </g>
   <g id="line2d_36">
    <path d="M 802.901242 203.410465 
L 1004.566277 203.410465 
" clip-path="url(#p41267346ad)" style="fill: none; stroke: #d1d5db; stroke-linecap: square"/>
   </g>
   <g id="line2d_37">
    <path d="M 903.73376 363.5017 
L 903.73376 43.31923 
" clip-path="url(#p41267346ad)" style="fill: none; stroke: #d1d5db; stroke-linecap: square"/>
   </g>
   <g id="line2d_38">
    <path d="M 802.901242 77.675103 
L 1004.566277 77.675103 
" clip-path="url(#p41267346ad)" style="fill: none; stroke-dasharray: 3.7,1.6; stroke-dashoffset: 0; stroke: #e5e7eb"/>
   </g>
   <g id="line2d_39">
    <path d="M 802.901242 329.145827 
L 1004.566277 329.145827 
" clip-path="url(#p41267346ad)" style="fill: none; stroke-dasharray: 3.7,1.6; stroke-dashoffset: 0; stroke: #e5e7eb"/>
   </g>
   <g id="line2d_40">
    <path d="M 802.901242 313.345177 
L 811.388148 311.935596 
L 818.662638 310.514555 
L 825.53299 308.943727 
L 831.595065 307.325947 
L 836.848864 305.705103 
L 841.698524 303.987045 
L 846.144045 302.183973 
L 850.185429 300.315318 
L 853.822674 298.408978 
L 857.459919 296.247937 
L 860.693026 294.072387 
L 863.926133 291.611408 
L 866.755101 289.18144 
L 869.584069 286.447169 
L 872.0089 283.821237 
L 874.43373 280.893208 
L 876.85856 277.617128 
L 879.28339 273.940198 
L 881.70822 269.80278 
L 884.13305 265.139362 
L 886.153742 260.801782 
L 888.174433 256.01218 
L 890.599263 249.620031 
L 893.024094 242.487728 
L 895.448924 234.612281 
L 898.277892 224.559804 
L 901.510999 212.197659 
L 909.593766 180.774091 
L 912.422734 170.8459 
L 914.847564 163.092365 
L 917.272394 156.084865 
L 919.697224 149.812911 
L 922.122054 144.232001 
L 924.546884 139.279842 
L 926.971715 134.887902 
L 929.396545 130.988589 
L 931.821375 127.519119 
L 934.246205 124.423229 
L 936.671035 121.651581 
L 939.500003 118.771177 
L 942.328972 116.216703 
L 945.15794 113.94022 
L 948.391047 111.628065 
L 951.624154 109.578098 
L 955.261399 107.53587 
L 959.302782 105.541265 
L 963.344166 103.787459 
L 967.789687 102.089255 
L 972.639348 100.465472 
L 978.297284 98.818447 
L 984.35936 97.294012 
L 991.229711 95.807754 
L 998.90834 94.388731 
L 1004.566277 93.475752 
L 1004.566277 93.475752 
" clip-path="url(#p41267346ad)" style="fill: none; stroke: #f59e0b; stroke-width: 2.5; stroke-linecap: square"/>
   </g>
   <g id="line2d_41">
    <defs>
     <path id="m73c3472da0" d="M 0 3 
C 0.795609 3 1.55874 2.683901 2.12132 2.12132 
C 2.683901 1.55874 3 0.795609 3 0 
C 3 -0.795609 2.683901 -1.55874 2.12132 -2.12132 
C 1.55874 -2.683901 0.795609 -3 0 -3 
C -0.795609 -3 -1.55874 -2.683901 -2.12132 -2.12132 
C -2.683901 -1.55874 -3 -0.795609 -3 0 
C -3 0.795609 -2.683901 1.55874 -2.12132 2.12132 
C -1.55874 2.683901 -0.795609 3 0 3 
z
" style="stroke: #f59e0b"/>
    </defs>
    <g clip-path="url(#p41267346ad)">
     <use xlink:href="#m73c3472da0" x="883.567256" y="266.278146" style="fill: #f59e0b; stroke: #f59e0b"/>
    </g>
   </g>
   <g id="line2d_42">
    <g clip-path="url(#p41267346ad)">
     <use xlink:href="#m73c3472da0" x="903.73376" y="203.410465" style="fill: #f59e0b; stroke: #f59e0b"/>
    </g>
   </g>
   <g id="line2d_43">
    <g clip-path="url(#p41267346ad)">
     <use xlink:href="#m73c3472da0" x="923.900263" y="140.542784" style="fill: #f59e0b; stroke: #f59e0b"/>
    </g>
   </g>
   <g id="patch_9">
    <path d="M 802.901242 363.5017 
L 802.901242 43.31923 
" style="fill: none; stroke: #000000; stroke-width: 1.5; stroke-linejoin: miter; stroke-linecap: square"/>
   </g>
   <g id="patch_10">
    <path d="M 802.901242 363.5017 
L 1004.566277 363.5017 
" style="fill: none; stroke: #000000; stroke-width: 1.5; stroke-linejoin: miter; stroke-linecap: square"/>
   </g>
   <g id="text_33">
    <!-- D: ℝ -->
    <g style="fill: #6b7280" transform="translate(954.150018 107.355724) scale(0.09 -0.09)">
     <defs>
      <path id="DejaVuSans-211d" d="M 3984 1197 
Q 3747 1669 3534 1819 
Q 3319 1972 2944 1972 
L 2803 1972 
Q 3044 1825 3359 1197 
L 3806 313 
L 4428 313 
L 3984 1197 
z
M 3603 2159 
Q 3769 2081 3945 1875 
Q 4122 1669 4316 1275 
L 4956 0 
L 3581 0 
L 2984 1197 
Q 2753 1666 2536 1819 
Q 2319 1972 1944 1972 
L 1881 1972 
L 1881 0 
L 625 0 
L 625 4666 
L 2747 4666 
Q 3547 4666 3940 4331 
Q 4334 3997 4334 3322 
Q 4334 2672 3969 2366 
Q 3816 2238 3603 2159 
z
M 1881 4353 
L 1881 2284 
L 2897 2284 
Q 2972 2284 3044 2291 
L 3044 4347 
Q 2972 4353 2897 4353 
L 1881 4353 
z
M 3372 4281 
L 3372 2359 
Q 3575 2428 3709 2556 
Q 3991 2825 3991 3322 
Q 3991 3819 3713 4084 
Q 3581 4213 3372 4281 
z
M 938 4353 
L 938 313 
L 1569 313 
L 1569 4353 
L 938 4353 
z
" transform="scale(0.015625)"/>
     </defs>
     <use xlink:href="#DejaVuSans-44"/>
     <use xlink:href="#DejaVuSans-3a" transform="translate(77.001953 0)"/>
     <use xlink:href="#DejaVuSans-20" transform="translate(110.693359 0)"/>
     <use xlink:href="#DejaVuSans-211d" transform="translate(142.480469 0)"/>
    </g>
   </g>
   <g id="text_34">
    <!-- R: (-π/2, π/2) -->
    <g style="fill: #6b7280" transform="translate(954.150018 127.367128) scale(0.09 -0.09)">
     <use xlink:href="#DejaVuSans-52"/>
     <use xlink:href="#DejaVuSans-3a" transform="translate(66.357422 0)"/>
     <use xlink:href="#DejaVuSans-20" transform="translate(100.048828 0)"/>
     <use xlink:href="#DejaVuSans-28" transform="translate(131.835938 0)"/>
     <use xlink:href="#DejaVuSans-2d" transform="translate(170.849609 0)"/>
     <use xlink:href="#DejaVuSans-3c0" transform="translate(206.933594 0)"/>
     <use xlink:href="#DejaVuSans-2f" transform="translate(267.138672 0)"/>
     <use xlink:href="#DejaVuSans-32" transform="translate(300.830078 0)"/>
     <use xlink:href="#DejaVuSans-2c" transform="translate(364.453125 0)"/>
     <use xlink:href="#DejaVuSans-20" transform="translate(396.240234 0)"/>
     <use xlink:href="#DejaVuSans-3c0" transform="translate(428.027344 0)"/>
     <use xlink:href="#DejaVuSans-2f" transform="translate(488.232422 0)"/>
     <use xlink:href="#DejaVuSans-32" transform="translate(521.923828 0)"/>
     <use xlink:href="#DejaVuSans-29" transform="translate(585.546875 0)"/>
    </g>
   </g>
   <g id="text_35">
    <!-- asíntota -->
    <g style="fill: #9ca3af" transform="translate(812.984494 65.66826) scale(0.08 -0.08)">
     <defs>
      <path id="DejaVuSans-ed" d="M 1322 5119 
L 1944 5119 
L 926 3944 
L 447 3944 
L 1322 5119 
z
M 603 3500 
L 1178 3500 
L 1178 0 
L 603 0 
L 603 3500 
z
M 891 3584 
L 891 3584 
z
" transform="scale(0.015625)"/>
      <path id="DejaVuSans-74" d="M 1172 4494 
L 1172 3500 
L 2356 3500 
L 2356 3053 
L 1172 3053 
L 1172 1153 
Q 1172 725 1289 603 
Q 1406 481 1766 481 
L 2356 481 
L 2356 0 
L 1766 0 
Q 1100 0 847 248 
Q 594 497 594 1153 
L 594 3053 
L 172 3053 
L 172 3500 
L 594 3500 
L 594 4494 
L 1172 4494 
z
" transform="scale(0.015625)"/>
     </defs>
     <use xlink:href="#DejaVuSans-61"/>
     <use xlink:href="#DejaVuSans-73" transform="translate(61.279297 0)"/>
     <use xlink:href="#DejaVuSans-ed" transform="translate(113.378906 0)"/>
     <use xlink:href="#DejaVuSans-6e" transform="translate(141.162109 0)"/>
     <use xlink:href="#DejaVuSans-74" transform="translate(204.541016 0)"/>
     <use xlink:href="#DejaVuSans-6f" transform="translate(243.75 0)"/>
     <use xlink:href="#DejaVuSans-74" transform="translate(304.931641 0)"/>
     <use xlink:href="#DejaVuSans-61" transform="translate(344.140625 0)"/>
    </g>
   </g>
   <g id="text_36">
    <!-- asíntota -->
    <g style="fill: #9ca3af" transform="translate(812.984494 341.152669) scale(0.08 -0.08)">
     <use xlink:href="#DejaVuSans-61"/>
     <use xlink:href="#DejaVuSans-73" transform="translate(61.279297 0)"/>
     <use xlink:href="#DejaVuSans-ed" transform="translate(113.378906 0)"/>
     <use xlink:href="#DejaVuSans-6e" transform="translate(141.162109 0)"/>
     <use xlink:href="#DejaVuSans-74" transform="translate(204.541016 0)"/>
     <use xlink:href="#DejaVuSans-6f" transform="translate(243.75 0)"/>
     <use xlink:href="#DejaVuSans-74" transform="translate(304.931641 0)"/>
     <use xlink:href="#DejaVuSans-61" transform="translate(344.140625 0)"/>
    </g>
   </g>
   <g id="text_37">
    <!-- $y = \arctan(x) = \tan^{-1}(x)$ -->
    <g style="fill: #f59e0b" transform="translate(838.39376 37.31923) scale(0.11 -0.11)">
     <use xlink:href="#DejaVuSans-Oblique-79" transform="translate(0 0.684375)"/>
     <use xlink:href="#DejaVuSans-3d" transform="translate(78.662109 0.684375)"/>
     <use xlink:href="#DejaVuSans-61" transform="translate(181.933594 0.684375)"/>
     <use xlink:href="#DejaVuSans-72" transform="translate(243.212891 0.684375)"/>
     <use xlink:href="#DejaVuSans-63" transform="translate(284.326172 0.684375)"/>
     <use xlink:href="#DejaVuSans-74" transform="translate(339.306641 0.684375)"/>
     <use xlink:href="#DejaVuSans-61" transform="translate(378.515625 0.684375)"/>
     <use xlink:href="#DejaVuSans-6e" transform="translate(439.794922 0.684375)"/>
     <use xlink:href="#DejaVuSans-28" transform="translate(503.173828 0.684375)"/>
     <use xlink:href="#DejaVuSans-Oblique-78" transform="translate(542.1875 0.684375)"/>
     <use xlink:href="#DejaVuSans-29" transform="translate(601.367188 0.684375)"/>
     <use xlink:href="#DejaVuSans-3d" transform="translate(659.863281 0.684375)"/>
     <use xlink:href="#DejaVuSans-74" transform="translate(763.134766 0.684375)"/>
     <use xlink:href="#DejaVuSans-61" transform="translate(802.34375 0.684375)"/>
     <use xlink:href="#DejaVuSans-6e" transform="translate(863.623047 0.684375)"/>
     <use xlink:href="#DejaVuSans-2212" transform="translate(927.958984 38.965625) scale(0.7)"/>
     <use xlink:href="#DejaVuSans-31" transform="translate(986.611328 38.965625) scale(0.7)"/>
     <use xlink:href="#DejaVuSans-28" transform="translate(1050.117512 0.684375)"/>
     <use xlink:href="#DejaVuSans-Oblique-78" transform="translate(1089.131184 0.684375)"/>
     <use xlink:href="#DejaVuSans-29" transform="translate(1148.310872 0.684375)"/>
    </g>
   </g>
  </g>
  <g id="axes_4">
   <g id="patch_11">
    <path d="M 64.486857 640.579223 
L 985.380983 640.579223 
L 985.380983 485.413872 
L 64.486857 485.413872 
z
" clip-path="url(#p389d0159c7)" style="fill: #f9fafb; stroke: #d1d5db; stroke-width: 1.5; stroke-linejoin: miter"/>
   </g>
   <g id="line2d_44">
    <path d="M 93.264798 528.515358 
L 956.603041 528.515358 
" clip-path="url(#p389d0159c7)" style="fill: none; stroke: #d1d5db; stroke-linecap: square"/>
   </g>
   <g id="text_38">
    <!-- Resumen de Funciones Trigonométricas Inversas -->
    <g style="fill: #1f2937" transform="translate(373.584232 497.482288) scale(0.11 -0.11)">
     <defs>
      <path id="DejaVuSans-Bold-52" d="M 2297 2597 
Q 2675 2597 2839 2737 
Q 3003 2878 3003 3200 
Q 3003 3519 2839 3656 
Q 2675 3794 2297 3794 
L 1791 3794 
L 1791 2597 
L 2297 2597 
z
M 1791 1766 
L 1791 0 
L 588 0 
L 588 4666 
L 2425 4666 
Q 3347 4666 3776 4356 
Q 4206 4047 4206 3378 
Q 4206 2916 3982 2619 
Q 3759 2322 3309 2181 
Q 3556 2125 3751 1926 
Q 3947 1728 4147 1325 
L 4800 0 
L 3519 0 
L 2950 1159 
Q 2778 1509 2601 1637 
Q 2425 1766 2131 1766 
L 1791 1766 
z
" transform="scale(0.015625)"/>
      <path id="DejaVuSans-Bold-65" d="M 4031 1759 
L 4031 1441 
L 1416 1441 
Q 1456 1047 1700 850 
Q 1944 653 2381 653 
Q 2734 653 3104 758 
Q 3475 863 3866 1075 
L 3866 213 
Q 3469 63 3072 -14 
Q 2675 -91 2278 -91 
Q 1328 -91 801 392 
Q 275 875 275 1747 
Q 275 2603 792 3093 
Q 1309 3584 2216 3584 
Q 3041 3584 3536 3087 
Q 4031 2591 4031 1759 
z
M 2881 2131 
Q 2881 2450 2695 2645 
Q 2509 2841 2209 2841 
Q 1884 2841 1681 2658 
Q 1478 2475 1428 2131 
L 2881 2131 
z
" transform="scale(0.015625)"/>
      <path id="DejaVuSans-Bold-73" d="M 3272 3391 
L 3272 2541 
Q 2913 2691 2578 2766 
Q 2244 2841 1947 2841 
Q 1628 2841 1473 2761 
Q 1319 2681 1319 2516 
Q 1319 2381 1436 2309 
Q 1553 2238 1856 2203 
L 2053 2175 
Q 2913 2066 3209 1816 
Q 3506 1566 3506 1031 
Q 3506 472 3093 190 
Q 2681 -91 1863 -91 
Q 1516 -91 1145 -36 
Q 775 19 384 128 
L 384 978 
Q 719 816 1070 734 
Q 1422 653 1784 653 
Q 2113 653 2278 743 
Q 2444 834 2444 1013 
Q 2444 1163 2330 1236 
Q 2216 1309 1875 1350 
L 1678 1375 
Q 931 1469 631 1722 
Q 331 1975 331 2491 
Q 331 3047 712 3315 
Q 1094 3584 1881 3584 
Q 2191 3584 2531 3537 
Q 2872 3491 3272 3391 
z
" transform="scale(0.015625)"/>
      <path id="DejaVuSans-Bold-75" d="M 500 1363 
L 500 3500 
L 1625 3500 
L 1625 3150 
Q 1625 2866 1622 2436 
Q 1619 2006 1619 1863 
Q 1619 1441 1641 1255 
Q 1663 1069 1716 984 
Q 1784 875 1895 815 
Q 2006 756 2150 756 
Q 2500 756 2700 1025 
Q 2900 1294 2900 1772 
L 2900 3500 
L 4019 3500 
L 4019 0 
L 2900 0 
L 2900 506 
Q 2647 200 2364 54 
Q 2081 -91 1741 -91 
Q 1134 -91 817 281 
Q 500 653 500 1363 
z
" transform="scale(0.015625)"/>
      <path id="DejaVuSans-Bold-6d" d="M 3781 2919 
Q 3994 3244 4286 3414 
Q 4578 3584 4928 3584 
Q 5531 3584 5847 3212 
Q 6163 2841 6163 2131 
L 6163 0 
L 5038 0 
L 5038 1825 
Q 5041 1866 5042 1909 
Q 5044 1953 5044 2034 
Q 5044 2406 4934 2573 
Q 4825 2741 4581 2741 
Q 4263 2741 4089 2478 
Q 3916 2216 3909 1719 
L 3909 0 
L 2784 0 
L 2784 1825 
Q 2784 2406 2684 2573 
Q 2584 2741 2328 2741 
Q 2006 2741 1831 2477 
Q 1656 2213 1656 1722 
L 1656 0 
L 531 0 
L 531 3500 
L 1656 3500 
L 1656 2988 
Q 1863 3284 2130 3434 
Q 2397 3584 2719 3584 
Q 3081 3584 3359 3409 
Q 3638 3234 3781 2919 
z
" transform="scale(0.015625)"/>
      <path id="DejaVuSans-Bold-6e" d="M 4056 2131 
L 4056 0 
L 2931 0 
L 2931 347 
L 2931 1631 
Q 2931 2084 2911 2256 
Q 2891 2428 2841 2509 
Q 2775 2619 2662 2680 
Q 2550 2741 2406 2741 
Q 2056 2741 1856 2470 
Q 1656 2200 1656 1722 
L 1656 0 
L 538 0 
L 538 3500 
L 1656 3500 
L 1656 2988 
Q 1909 3294 2193 3439 
Q 2478 3584 2822 3584 
Q 3428 3584 3742 3212 
Q 4056 2841 4056 2131 
z
" transform="scale(0.015625)"/>
      <path id="DejaVuSans-Bold-20" transform="scale(0.015625)"/>
      <path id="DejaVuSans-Bold-64" d="M 2919 2988 
L 2919 4863 
L 4044 4863 
L 4044 0 
L 2919 0 
L 2919 506 
Q 2688 197 2409 53 
Q 2131 -91 1766 -91 
Q 1119 -91 703 423 
Q 288 938 288 1747 
Q 288 2556 703 3070 
Q 1119 3584 1766 3584 
Q 2128 3584 2408 3439 
Q 2688 3294 2919 2988 
z
M 2181 722 
Q 2541 722 2730 984 
Q 2919 1247 2919 1747 
Q 2919 2247 2730 2509 
Q 2541 2772 2181 2772 
Q 1825 2772 1636 2509 
Q 1447 2247 1447 1747 
Q 1447 1247 1636 984 
Q 1825 722 2181 722 
z
" transform="scale(0.015625)"/>
      <path id="DejaVuSans-Bold-46" d="M 588 4666 
L 3834 4666 
L 3834 3756 
L 1791 3756 
L 1791 2888 
L 3713 2888 
L 3713 1978 
L 1791 1978 
L 1791 0 
L 588 0 
L 588 4666 
z
" transform="scale(0.015625)"/>
      <path id="DejaVuSans-Bold-63" d="M 3366 3391 
L 3366 2478 
Q 3138 2634 2908 2709 
Q 2678 2784 2431 2784 
Q 1963 2784 1702 2511 
Q 1441 2238 1441 1747 
Q 1441 1256 1702 982 
Q 1963 709 2431 709 
Q 2694 709 2930 787 
Q 3166 866 3366 1019 
L 3366 103 
Q 3103 6 2833 -42 
Q 2563 -91 2291 -91 
Q 1344 -91 809 395 
Q 275 881 275 1747 
Q 275 2613 809 3098 
Q 1344 3584 2291 3584 
Q 2566 3584 2833 3536 
Q 3100 3488 3366 3391 
z
" transform="scale(0.015625)"/>
      <path id="DejaVuSans-Bold-69" d="M 538 3500 
L 1656 3500 
L 1656 0 
L 538 0 
L 538 3500 
z
M 538 4863 
L 1656 4863 
L 1656 3950 
L 538 3950 
L 538 4863 
z
" transform="scale(0.015625)"/>
      <path id="DejaVuSans-Bold-6f" d="M 2203 2784 
Q 1831 2784 1636 2517 
Q 1441 2250 1441 1747 
Q 1441 1244 1636 976 
Q 1831 709 2203 709 
Q 2569 709 2762 976 
Q 2956 1244 2956 1747 
Q 2956 2250 2762 2517 
Q 2569 2784 2203 2784 
z
M 2203 3584 
Q 3106 3584 3614 3096 
Q 4122 2609 4122 1747 
Q 4122 884 3614 396 
Q 3106 -91 2203 -91 
Q 1297 -91 786 396 
Q 275 884 275 1747 
Q 275 2609 786 3096 
Q 1297 3584 2203 3584 
z
" transform="scale(0.015625)"/>
      <path id="DejaVuSans-Bold-54" d="M 31 4666 
L 4331 4666 
L 4331 3756 
L 2784 3756 
L 2784 0 
L 1581 0 
L 1581 3756 
L 31 3756 
L 31 4666 
z
" transform="scale(0.015625)"/>
      <path id="DejaVuSans-Bold-72" d="M 3138 2547 
Q 2991 2616 2845 2648 
Q 2700 2681 2553 2681 
Q 2122 2681 1889 2404 
Q 1656 2128 1656 1613 
L 1656 0 
L 538 0 
L 538 3500 
L 1656 3500 
L 1656 2925 
Q 1872 3269 2151 3426 
Q 2431 3584 2822 3584 
Q 2878 3584 2943 3579 
Q 3009 3575 3134 3559 
L 3138 2547 
z
" transform="scale(0.015625)"/>
      <path id="DejaVuSans-Bold-67" d="M 2919 594 
Q 2688 288 2409 144 
Q 2131 0 1766 0 
Q 1125 0 706 504 
Q 288 1009 288 1791 
Q 288 2575 706 3076 
Q 1125 3578 1766 3578 
Q 2131 3578 2409 3434 
Q 2688 3291 2919 2981 
L 2919 3500 
L 4044 3500 
L 4044 353 
Q 4044 -491 3511 -936 
Q 2978 -1381 1966 -1381 
Q 1638 -1381 1331 -1331 
Q 1025 -1281 716 -1178 
L 716 -306 
Q 1009 -475 1290 -558 
Q 1572 -641 1856 -641 
Q 2406 -641 2662 -400 
Q 2919 -159 2919 353 
L 2919 594 
z
M 2181 2772 
Q 1834 2772 1640 2515 
Q 1447 2259 1447 1791 
Q 1447 1309 1634 1061 
Q 1822 813 2181 813 
Q 2531 813 2725 1069 
Q 2919 1325 2919 1791 
Q 2919 2259 2725 2515 
Q 2531 2772 2181 2772 
z
" transform="scale(0.015625)"/>
      <path id="DejaVuSans-Bold-e9" d="M 4031 1759 
L 4031 1441 
L 1416 1441 
Q 1456 1047 1700 850 
Q 1944 653 2381 653 
Q 2734 653 3104 758 
Q 3475 863 3866 1075 
L 3866 213 
Q 3469 63 3072 -14 
Q 2675 -91 2278 -91 
Q 1328 -91 801 392 
Q 275 875 275 1747 
Q 275 2603 792 3093 
Q 1309 3584 2216 3584 
Q 3041 3584 3536 3087 
Q 4031 2591 4031 1759 
z
M 2881 2131 
Q 2881 2450 2695 2645 
Q 2509 2841 2209 2841 
Q 1884 2841 1681 2658 
Q 1478 2475 1428 2131 
L 2881 2131 
z
M 2702 5119 
L 3586 5119 
L 2433 3944 
L 1821 3944 
L 2702 5119 
z
" transform="scale(0.015625)"/>
      <path id="DejaVuSans-Bold-74" d="M 1759 4494 
L 1759 3500 
L 2913 3500 
L 2913 2700 
L 1759 2700 
L 1759 1216 
Q 1759 972 1856 886 
Q 1953 800 2241 800 
L 2816 800 
L 2816 0 
L 1856 0 
Q 1194 0 917 276 
Q 641 553 641 1216 
L 641 2700 
L 84 2700 
L 84 3500 
L 641 3500 
L 641 4494 
L 1759 4494 
z
" transform="scale(0.015625)"/>
      <path id="DejaVuSans-Bold-61" d="M 2106 1575 
Q 1756 1575 1579 1456 
Q 1403 1338 1403 1106 
Q 1403 894 1545 773 
Q 1688 653 1941 653 
Q 2256 653 2472 879 
Q 2688 1106 2688 1447 
L 2688 1575 
L 2106 1575 
z
M 3816 1997 
L 3816 0 
L 2688 0 
L 2688 519 
Q 2463 200 2181 54 
Q 1900 -91 1497 -91 
Q 953 -91 614 226 
Q 275 544 275 1050 
Q 275 1666 698 1953 
Q 1122 2241 2028 2241 
L 2688 2241 
L 2688 2328 
Q 2688 2594 2478 2717 
Q 2269 2841 1825 2841 
Q 1466 2841 1156 2769 
Q 847 2697 581 2553 
L 581 3406 
Q 941 3494 1303 3539 
Q 1666 3584 2028 3584 
Q 2975 3584 3395 3211 
Q 3816 2838 3816 1997 
z
" transform="scale(0.015625)"/>
      <path id="DejaVuSans-Bold-49" d="M 588 4666 
L 1791 4666 
L 1791 0 
L 588 0 
L 588 4666 
z
" transform="scale(0.015625)"/>
      <path id="DejaVuSans-Bold-76" d="M 97 3500 
L 1216 3500 
L 2088 1081 
L 2956 3500 
L 4078 3500 
L 2700 0 
L 1472 0 
L 97 3500 
z
" transform="scale(0.015625)"/>
     </defs>
     <use xlink:href="#DejaVuSans-Bold-52"/>
     <use xlink:href="#DejaVuSans-Bold-65" transform="translate(77.001953 0)"/>
     <use xlink:href="#DejaVuSans-Bold-73" transform="translate(144.824219 0)"/>
     <use xlink:href="#DejaVuSans-Bold-75" transform="translate(204.345703 0)"/>
     <use xlink:href="#DejaVuSans-Bold-6d" transform="translate(275.537109 0)"/>
     <use xlink:href="#DejaVuSans-Bold-65" transform="translate(379.736328 0)"/>
     <use xlink:href="#DejaVuSans-Bold-6e" transform="translate(447.558594 0)"/>
     <use xlink:href="#DejaVuSans-Bold-20" transform="translate(518.75 0)"/>
     <use xlink:href="#DejaVuSans-Bold-64" transform="translate(553.564453 0)"/>
     <use xlink:href="#DejaVuSans-Bold-65" transform="translate(625.146484 0)"/>
     <use xlink:href="#DejaVuSans-Bold-20" transform="translate(692.96875 0)"/>
     <use xlink:href="#DejaVuSans-Bold-46" transform="translate(727.783203 0)"/>
     <use xlink:href="#DejaVuSans-Bold-75" transform="translate(791.09375 0)"/>
     <use xlink:href="#DejaVuSans-Bold-6e" transform="translate(862.285156 0)"/>
     <use xlink:href="#DejaVuSans-Bold-63" transform="translate(933.476562 0)"/>
     <use xlink:href="#DejaVuSans-Bold-69" transform="translate(992.753906 0)"/>
     <use xlink:href="#DejaVuSans-Bold-6f" transform="translate(1027.03125 0)"/>
     <use xlink:href="#DejaVuSans-Bold-6e" transform="translate(1095.732422 0)"/>
     <use xlink:href="#DejaVuSans-Bold-65" transform="translate(1166.923828 0)"/>
     <use xlink:href="#DejaVuSans-Bold-73" transform="translate(1234.746094 0)"/>
     <use xlink:href="#DejaVuSans-Bold-20" transform="translate(1294.267578 0)"/>
     <use xlink:href="#DejaVuSans-Bold-54" transform="translate(1329.082031 0)"/>
     <use xlink:href="#DejaVuSans-Bold-72" transform="translate(1386.294922 0)"/>
     <use xlink:href="#DejaVuSans-Bold-69" transform="translate(1435.611328 0)"/>
     <use xlink:href="#DejaVuSans-Bold-67" transform="translate(1469.888672 0)"/>
     <use xlink:href="#DejaVuSans-Bold-6f" transform="translate(1541.470703 0)"/>
     <use xlink:href="#DejaVuSans-Bold-6e" transform="translate(1610.171875 0)"/>
     <use xlink:href="#DejaVuSans-Bold-6f" transform="translate(1681.363281 0)"/>
     <use xlink:href="#DejaVuSans-Bold-6d" transform="translate(1750.064453 0)"/>
     <use xlink:href="#DejaVuSans-Bold-e9" transform="translate(1854.263672 0)"/>
     <use xlink:href="#DejaVuSans-Bold-74" transform="translate(1922.085938 0)"/>
     <use xlink:href="#DejaVuSans-Bold-72" transform="translate(1969.888672 0)"/>
     <use xlink:href="#DejaVuSans-Bold-69" transform="translate(2019.205078 0)"/>
     <use xlink:href="#DejaVuSans-Bold-63" transform="translate(2053.482422 0)"/>
     <use xlink:href="#DejaVuSans-Bold-61" transform="translate(2112.759766 0)"/>
     <use xlink:href="#DejaVuSans-Bold-73" transform="translate(2180.240234 0)"/>
     <use xlink:href="#DejaVuSans-Bold-20" transform="translate(2239.761719 0)"/>
     <use xlink:href="#DejaVuSans-Bold-49" transform="translate(2274.576172 0)"/>
     <use xlink:href="#DejaVuSans-Bold-6e" transform="translate(2311.783203 0)"/>
     <use xlink:href="#DejaVuSans-Bold-76" transform="translate(2382.974609 0)"/>
     <use xlink:href="#DejaVuSans-Bold-65" transform="translate(2448.160156 0)"/>
     <use xlink:href="#DejaVuSans-Bold-72" transform="translate(2515.982422 0)"/>
     <use xlink:href="#DejaVuSans-Bold-73" transform="translate(2565.298828 0)"/>
     <use xlink:href="#DejaVuSans-Bold-61" transform="translate(2624.820312 0)"/>
     <use xlink:href="#DejaVuSans-Bold-73" transform="translate(2692.300781 0)"/>
    </g>
   </g>
   <g id="text_39">
    <!-- Función -->
    <g style="fill: #2563eb" transform="translate(167.234238 519.895061) scale(0.1 -0.1)">
     <defs>
      <path id="DejaVuSans-Bold-f3" d="M 2203 2784 
Q 1831 2784 1636 2517 
Q 1441 2250 1441 1747 
Q 1441 1244 1636 976 
Q 1831 709 2203 709 
Q 2569 709 2762 976 
Q 2956 1244 2956 1747 
Q 2956 2250 2762 2517 
Q 2569 2784 2203 2784 
z
M 2203 3584 
Q 3106 3584 3614 3096 
Q 4122 2609 4122 1747 
Q 4122 884 3614 396 
Q 3106 -91 2203 -91 
Q 1297 -91 786 396 
Q 275 884 275 1747 
Q 275 2609 786 3096 
Q 1297 3584 2203 3584 
z
M 2694 5119 
L 3578 5119 
L 2425 3944 
L 1813 3944 
L 2694 5119 
z
" transform="scale(0.015625)"/>
     </defs>
     <use xlink:href="#DejaVuSans-Bold-46"/>
     <use xlink:href="#DejaVuSans-Bold-75" transform="translate(63.310547 0)"/>
     <use xlink:href="#DejaVuSans-Bold-6e" transform="translate(134.501953 0)"/>
     <use xlink:href="#DejaVuSans-Bold-63" transform="translate(205.693359 0)"/>
     <use xlink:href="#DejaVuSans-Bold-69" transform="translate(264.970703 0)"/>
     <use xlink:href="#DejaVuSans-Bold-f3" transform="translate(299.248047 0)"/>
     <use xlink:href="#DejaVuSans-Bold-6e" transform="translate(367.949219 0)"/>
    </g>
   </g>
   <g id="text_40">
    <!-- Dominio -->
    <g style="fill: #2563eb" transform="translate(357.825463 519.895061) scale(0.1 -0.1)">
     <defs>
      <path id="DejaVuSans-Bold-44" d="M 1791 3756 
L 1791 909 
L 2222 909 
Q 2959 909 3348 1275 
Q 3738 1641 3738 2338 
Q 3738 3031 3350 3393 
Q 2963 3756 2222 3756 
L 1791 3756 
z
M 588 4666 
L 1856 4666 
Q 2919 4666 3439 4514 
Q 3959 4363 4331 4000 
Q 4659 3684 4818 3271 
Q 4978 2859 4978 2338 
Q 4978 1809 4818 1395 
Q 4659 981 4331 666 
Q 3956 303 3431 151 
Q 2906 0 1856 0 
L 588 0 
L 588 4666 
z
" transform="scale(0.015625)"/>
     </defs>
     <use xlink:href="#DejaVuSans-Bold-44"/>
     <use xlink:href="#DejaVuSans-Bold-6f" transform="translate(83.007812 0)"/>
     <use xlink:href="#DejaVuSans-Bold-6d" transform="translate(151.708984 0)"/>
     <use xlink:href="#DejaVuSans-Bold-69" transform="translate(255.908203 0)"/>
     <use xlink:href="#DejaVuSans-Bold-6e" transform="translate(290.185547 0)"/>
     <use xlink:href="#DejaVuSans-Bold-69" transform="translate(361.376953 0)"/>
     <use xlink:href="#DejaVuSans-Bold-6f" transform="translate(395.654297 0)"/>
    </g>
   </g>
   <g id="text_41">
    <!-- Rango -->
    <g style="fill: #2563eb" transform="translate(555.099499 519.895061) scale(0.1 -0.1)">
     <use xlink:href="#DejaVuSans-Bold-52"/>
     <use xlink:href="#DejaVuSans-Bold-61" transform="translate(77.001953 0)"/>
     <use xlink:href="#DejaVuSans-Bold-6e" transform="translate(144.482422 0)"/>
     <use xlink:href="#DejaVuSans-Bold-67" transform="translate(215.673828 0)"/>
     <use xlink:href="#DejaVuSans-Bold-6f" transform="translate(287.255859 0)"/>
    </g>
   </g>
   <g id="text_42">
    <!-- Notación -->
    <g style="fill: #2563eb" transform="translate(787.657084 519.895061) scale(0.1 -0.1)">
     <defs>
      <path id="DejaVuSans-Bold-4e" d="M 588 4666 
L 1931 4666 
L 3628 1466 
L 3628 4666 
L 4769 4666 
L 4769 0 
L 3425 0 
L 1728 3200 
L 1728 0 
L 588 0 
L 588 4666 
z
" transform="scale(0.015625)"/>
     </defs>
     <use xlink:href="#DejaVuSans-Bold-4e"/>
     <use xlink:href="#DejaVuSans-Bold-6f" transform="translate(83.691406 0)"/>
     <use xlink:href="#DejaVuSans-Bold-74" transform="translate(152.392578 0)"/>
     <use xlink:href="#DejaVuSans-Bold-61" transform="translate(200.195312 0)"/>
     <use xlink:href="#DejaVuSans-Bold-63" transform="translate(267.675781 0)"/>
     <use xlink:href="#DejaVuSans-Bold-69" transform="translate(326.953125 0)"/>
     <use xlink:href="#DejaVuSans-Bold-f3" transform="translate(361.230469 0)"/>
     <use xlink:href="#DejaVuSans-Bold-6e" transform="translate(429.931641 0)"/>
    </g>
   </g>
   <g id="text_43">
    <!-- Arcoseno -->
    <g style="fill: #dc2626" transform="translate(165.704785 549.204072) scale(0.09 -0.09)">
     <defs>
      <path id="DejaVuSans-Bold-41" d="M 3419 850 
L 1538 850 
L 1241 0 
L 31 0 
L 1759 4666 
L 3194 4666 
L 4922 0 
L 3713 0 
L 3419 850 
z
M 1838 1716 
L 3116 1716 
L 2478 3572 
L 1838 1716 
z
" transform="scale(0.015625)"/>
     </defs>
     <use xlink:href="#DejaVuSans-Bold-41"/>
     <use xlink:href="#DejaVuSans-Bold-72" transform="translate(77.392578 0)"/>
     <use xlink:href="#DejaVuSans-Bold-63" transform="translate(126.708984 0)"/>
     <use xlink:href="#DejaVuSans-Bold-6f" transform="translate(185.986328 0)"/>
     <use xlink:href="#DejaVuSans-Bold-73" transform="translate(254.6875 0)"/>
     <use xlink:href="#DejaVuSans-Bold-65" transform="translate(314.208984 0)"/>
     <use xlink:href="#DejaVuSans-Bold-6e" transform="translate(382.03125 0)"/>
     <use xlink:href="#DejaVuSans-Bold-6f" transform="translate(453.222656 0)"/>
    </g>
   </g>
   <g id="text_44">
    <!-- [-1, 1] -->
    <g style="fill: #374151" transform="translate(367.322728 549.204072) scale(0.09 -0.09)">
     <use xlink:href="#DejaVuSans-5b"/>
     <use xlink:href="#DejaVuSans-2d" transform="translate(39.013672 0)"/>
     <use xlink:href="#DejaVuSans-31" transform="translate(75.097656 0)"/>
     <use xlink:href="#DejaVuSans-2c" transform="translate(138.720703 0)"/>
     <use xlink:href="#DejaVuSans-20" transform="translate(170.507812 0)"/>
     <use xlink:href="#DejaVuSans-31" transform="translate(202.294922 0)"/>
     <use xlink:href="#DejaVuSans-5d" transform="translate(265.917969 0)"/>
    </g>
   </g>
   <g id="text_45">
    <!-- [-π/2, π/2] -->
    <g style="fill: #374151" transform="translate(550.725515 549.204072) scale(0.09 -0.09)">
     <use xlink:href="#DejaVuSans-5b"/>
     <use xlink:href="#DejaVuSans-2d" transform="translate(39.013672 0)"/>
     <use xlink:href="#DejaVuSans-3c0" transform="translate(75.097656 0)"/>
     <use xlink:href="#DejaVuSans-2f" transform="translate(135.302734 0)"/>
     <use xlink:href="#DejaVuSans-32" transform="translate(168.994141 0)"/>
     <use xlink:href="#DejaVuSans-2c" transform="translate(232.617188 0)"/>
     <use xlink:href="#DejaVuSans-20" transform="translate(264.404297 0)"/>
     <use xlink:href="#DejaVuSans-3c0" transform="translate(296.191406 0)"/>
     <use xlink:href="#DejaVuSans-2f" transform="translate(356.396484 0)"/>
     <use xlink:href="#DejaVuSans-32" transform="translate(390.087891 0)"/>
     <use xlink:href="#DejaVuSans-5d" transform="translate(453.710938 0)"/>
    </g>
   </g>
   <g id="text_46">
    <!-- arcsin, sin⁻¹ -->
    <g style="fill: #6b7280" transform="translate(785.800522 549.204072) scale(0.09 -0.09)">
     <defs>
      <path id="DejaVuSans-207b" d="M 428 3359 
L 2950 3359 
L 2950 3063 
L 428 3063 
L 428 3359 
z
" transform="scale(0.015625)"/>
      <path id="DejaVuSans-b9" d="M 488 2431 
L 1125 2431 
L 1125 4341 
L 428 4213 
L 428 4575 
L 1147 4697 
L 1575 4697 
L 1575 2431 
L 2216 2431 
L 2216 2088 
L 488 2088 
L 488 2431 
z
" transform="scale(0.015625)"/>
     </defs>
     <use xlink:href="#DejaVuSans-61"/>
     <use xlink:href="#DejaVuSans-72" transform="translate(61.279297 0)"/>
     <use xlink:href="#DejaVuSans-63" transform="translate(100.142578 0)"/>
     <use xlink:href="#DejaVuSans-73" transform="translate(155.123047 0)"/>
     <use xlink:href="#DejaVuSans-69" transform="translate(207.222656 0)"/>
     <use xlink:href="#DejaVuSans-6e" transform="translate(235.005859 0)"/>
     <use xlink:href="#DejaVuSans-2c" transform="translate(298.384766 0)"/>
     <use xlink:href="#DejaVuSans-20" transform="translate(330.171875 0)"/>
     <use xlink:href="#DejaVuSans-73" transform="translate(361.958984 0)"/>
     <use xlink:href="#DejaVuSans-69" transform="translate(414.058594 0)"/>
     <use xlink:href="#DejaVuSans-6e" transform="translate(441.841797 0)"/>
     <use xlink:href="#DejaVuSans-207b" transform="translate(505.220703 0)"/>
     <use xlink:href="#DejaVuSans-b9" transform="translate(558.003906 0)"/>
    </g>
   </g>
   <g id="text_47">
    <!-- Arcocoseno -->
    <g style="fill: #7c3aed" transform="translate(159.945488 575.064964) scale(0.09 -0.09)">
     <use xlink:href="#DejaVuSans-Bold-41"/>
     <use xlink:href="#DejaVuSans-Bold-72" transform="translate(77.392578 0)"/>
     <use xlink:href="#DejaVuSans-Bold-63" transform="translate(126.708984 0)"/>
     <use xlink:href="#DejaVuSans-Bold-6f" transform="translate(185.986328 0)"/>
     <use xlink:href="#DejaVuSans-Bold-63" transform="translate(254.6875 0)"/>
     <use xlink:href="#DejaVuSans-Bold-6f" transform="translate(313.964844 0)"/>
     <use xlink:href="#DejaVuSans-Bold-73" transform="translate(382.666016 0)"/>
     <use xlink:href="#DejaVuSans-Bold-65" transform="translate(442.1875 0)"/>
     <use xlink:href="#DejaVuSans-Bold-6e" transform="translate(510.009766 0)"/>
     <use xlink:href="#DejaVuSans-Bold-6f" transform="translate(581.201172 0)"/>
    </g>
   </g>
   <g id="text_48">
    <!-- [-1, 1] -->
    <g style="fill: #374151" transform="translate(367.322728 575.064964) scale(0.09 -0.09)">
     <use xlink:href="#DejaVuSans-5b"/>
     <use xlink:href="#DejaVuSans-2d" transform="translate(39.013672 0)"/>
     <use xlink:href="#DejaVuSans-31" transform="translate(75.097656 0)"/>
     <use xlink:href="#DejaVuSans-2c" transform="translate(138.720703 0)"/>
     <use xlink:href="#DejaVuSans-20" transform="translate(170.507812 0)"/>
     <use xlink:href="#DejaVuSans-31" transform="translate(202.294922 0)"/>
     <use xlink:href="#DejaVuSans-5d" transform="translate(265.917969 0)"/>
    </g>
   </g>
   <g id="text_49">
    <!-- [0, π] -->
    <g style="fill: #374151" transform="translate(560.953171 575.064964) scale(0.09 -0.09)">
     <use xlink:href="#DejaVuSans-5b"/>
     <use xlink:href="#DejaVuSans-30" transform="translate(39.013672 0)"/>
     <use xlink:href="#DejaVuSans-2c" transform="translate(102.636719 0)"/>
     <use xlink:href="#DejaVuSans-20" transform="translate(134.423828 0)"/>
     <use xlink:href="#DejaVuSans-3c0" transform="translate(166.210938 0)"/>
     <use xlink:href="#DejaVuSans-5d" transform="translate(226.416016 0)"/>
    </g>
   </g>
   <g id="text_50">
    <!-- arccos, cos⁻¹ -->
    <g style="fill: #6b7280" transform="translate(783.549115 575.064964) scale(0.09 -0.09)">
     <use xlink:href="#DejaVuSans-61"/>
     <use xlink:href="#DejaVuSans-72" transform="translate(61.279297 0)"/>
     <use xlink:href="#DejaVuSans-63" transform="translate(100.142578 0)"/>
     <use xlink:href="#DejaVuSans-63" transform="translate(155.123047 0)"/>
     <use xlink:href="#DejaVuSans-6f" transform="translate(210.103516 0)"/>
     <use xlink:href="#DejaVuSans-73" transform="translate(271.285156 0)"/>
     <use xlink:href="#DejaVuSans-2c" transform="translate(323.384766 0)"/>
     <use xlink:href="#DejaVuSans-20" transform="translate(355.171875 0)"/>
     <use xlink:href="#DejaVuSans-63" transform="translate(386.958984 0)"/>
     <use xlink:href="#DejaVuSans-6f" transform="translate(441.939453 0)"/>
     <use xlink:href="#DejaVuSans-73" transform="translate(503.121094 0)"/>
     <use xlink:href="#DejaVuSans-207b" transform="translate(555.220703 0)"/>
     <use xlink:href="#DejaVuSans-b9" transform="translate(608.003906 0)"/>
    </g>
   </g>
   <g id="text_51">
    <!-- Arcotangente -->
    <g style="fill: #f59e0b" transform="translate(154.659395 600.925855) scale(0.09 -0.09)">
     <use xlink:href="#DejaVuSans-Bold-41"/>
     <use xlink:href="#DejaVuSans-Bold-72" transform="translate(77.392578 0)"/>
     <use xlink:href="#DejaVuSans-Bold-63" transform="translate(126.708984 0)"/>
     <use xlink:href="#DejaVuSans-Bold-6f" transform="translate(185.986328 0)"/>
     <use xlink:href="#DejaVuSans-Bold-74" transform="translate(254.6875 0)"/>
     <use xlink:href="#DejaVuSans-Bold-61" transform="translate(302.490234 0)"/>
     <use xlink:href="#DejaVuSans-Bold-6e" transform="translate(369.970703 0)"/>
     <use xlink:href="#DejaVuSans-Bold-67" transform="translate(441.162109 0)"/>
     <use xlink:href="#DejaVuSans-Bold-65" transform="translate(512.744141 0)"/>
     <use xlink:href="#DejaVuSans-Bold-6e" transform="translate(580.566406 0)"/>
     <use xlink:href="#DejaVuSans-Bold-74" transform="translate(651.757812 0)"/>
     <use xlink:href="#DejaVuSans-Bold-65" transform="translate(699.560547 0)"/>
    </g>
   </g>
   <g id="text_52">
    <!-- ℝ -->
    <g style="fill: #374151" transform="translate(377.480072 600.925855) scale(0.09 -0.09)">
     <use xlink:href="#DejaVuSans-211d"/>
    </g>
   </g>
   <g id="text_53">
    <!-- (-π/2, π/2) -->
    <g style="fill: #374151" transform="translate(550.725515 600.925855) scale(0.09 -0.09)">
     <use xlink:href="#DejaVuSans-28"/>
     <use xlink:href="#DejaVuSans-2d" transform="translate(39.013672 0)"/>
     <use xlink:href="#DejaVuSans-3c0" transform="translate(75.097656 0)"/>
     <use xlink:href="#DejaVuSans-2f" transform="translate(135.302734 0)"/>
     <use xlink:href="#DejaVuSans-32" transform="translate(168.994141 0)"/>
     <use xlink:href="#DejaVuSans-2c" transform="translate(232.617188 0)"/>
     <use xlink:href="#DejaVuSans-20" transform="translate(264.404297 0)"/>
     <use xlink:href="#DejaVuSans-3c0" transform="translate(296.191406 0)"/>
     <use xlink:href="#DejaVuSans-2f" transform="translate(356.396484 0)"/>
     <use xlink:href="#DejaVuSans-32" transform="translate(390.087891 0)"/>
     <use xlink:href="#DejaVuSans-29" transform="translate(453.710938 0)"/>
    </g>
   </g>
   <g id="text_54">
    <!-- arctan, tan⁻¹ -->
    <g style="fill: #6b7280" transform="translate(783.945678 600.925855) scale(0.09 -0.09)">
     <use xlink:href="#DejaVuSans-61"/>
     <use xlink:href="#DejaVuSans-72" transform="translate(61.279297 0)"/>
     <use xlink:href="#DejaVuSans-63" transform="translate(100.142578 0)"/>
     <use xlink:href="#DejaVuSans-74" transform="translate(155.123047 0)"/>
     <use xlink:href="#DejaVuSans-61" transform="translate(194.332031 0)"/>
     <use xlink:href="#DejaVuSans-6e" transform="translate(255.611328 0)"/>
     <use xlink:href="#DejaVuSans-2c" transform="translate(318.990234 0)"/>
     <use xlink:href="#DejaVuSans-20" transform="translate(350.777344 0)"/>
     <use xlink:href="#DejaVuSans-74" transform="translate(382.564453 0)"/>
     <use xlink:href="#DejaVuSans-61" transform="translate(421.773438 0)"/>
     <use xlink:href="#DejaVuSans-6e" transform="translate(483.052734 0)"/>
     <use xlink:href="#DejaVuSans-207b" transform="translate(546.431641 0)"/>
     <use xlink:href="#DejaVuSans-b9" transform="translate(599.214844 0)"/>
    </g>
   </g>
   <g id="text_55">
    <!-- ⚠️ Nota: sin⁻¹(x) ≠ 1/sin(x). La notación "⁻¹" indica función inversa. -->
    <g style="fill: #dc2626" transform="translate(374.453217 631.958925) scale(0.09 -0.09)">
     <defs>
      <path id="DejaVuSans-Oblique-26a0" d="M 2875 4616 
L 2897 4616 
L 5378 28 
L 5378 0 
L 369 0 
L 344 28 
L 316 28 
Q 2775 4516 2875 4616 
z
M 2847 4034 
L 791 319 
L 791 266 
L 4928 266 
L 4928 294 
Q 2938 3947 2847 4034 
z
M 2875 3347 
Q 3113 3347 3113 3138 
Q 2953 1241 2875 1241 
Q 2803 1241 2638 3166 
Q 2713 3347 2875 3347 
z
M 2872 1013 
Q 2931 1013 2987 981 
Q 3044 950 3076 894 
Q 3109 838 3109 775 
Q 3109 713 3078 656 
Q 3047 600 2989 569 
Q 2931 538 2872 538 
Q 2809 538 2753 569 
Q 2697 600 2665 656 
Q 2634 713 2634 775 
Q 2634 838 2665 894 
Q 2697 950 2753 981 
Q 2809 1013 2872 1013 
z
" transform="scale(0.015625)"/>
      <path id="DejaVuSans-Oblique-fe0f" transform="scale(0.015625)"/>
      <path id="DejaVuSans-Oblique-20" transform="scale(0.015625)"/>
      <path id="DejaVuSans-Oblique-4e" d="M 1081 4666 
L 1931 4666 
L 3219 666 
L 4000 4666 
L 4616 4666 
L 3706 0 
L 2853 0 
L 1569 4025 
L 788 0 
L 172 0 
L 1081 4666 
z
" transform="scale(0.015625)"/>
      <path id="DejaVuSans-Oblique-6f" d="M 1625 -91 
Q 1009 -91 651 289 
Q 294 669 294 1325 
Q 294 1706 417 2101 
Q 541 2497 738 2766 
Q 1047 3184 1428 3384 
Q 1809 3584 2291 3584 
Q 2888 3584 3255 3212 
Q 3622 2841 3622 2241 
Q 3622 1825 3500 1412 
Q 3378 1000 3181 728 
Q 2875 309 2494 109 
Q 2113 -91 1625 -91 
z
M 891 1344 
Q 891 869 1089 633 
Q 1288 397 1691 397 
Q 2269 397 2648 901 
Q 3028 1406 3028 2181 
Q 3028 2634 2825 2865 
Q 2622 3097 2228 3097 
Q 1903 3097 1650 2945 
Q 1397 2794 1197 2484 
Q 1050 2253 970 1956 
Q 891 1659 891 1344 
z
" transform="scale(0.015625)"/>
      <path id="DejaVuSans-Oblique-74" d="M 2706 3500 
L 2619 3053 
L 1472 3053 
L 1100 1153 
Q 1081 1047 1072 975 
Q 1063 903 1063 863 
Q 1063 663 1183 572 
Q 1303 481 1569 481 
L 2150 481 
L 2053 0 
L 1503 0 
Q 991 0 739 200 
Q 488 400 488 806 
Q 488 878 497 964 
Q 506 1050 525 1153 
L 897 3053 
L 409 3053 
L 500 3500 
L 978 3500 
L 1172 4494 
L 1747 4494 
L 1556 3500 
L 2706 3500 
z
" transform="scale(0.015625)"/>
      <path id="DejaVuSans-Oblique-61" d="M 3438 1997 
L 3047 0 
L 2472 0 
L 2578 531 
Q 2325 219 2001 64 
Q 1678 -91 1281 -91 
Q 834 -91 548 182 
Q 263 456 263 884 
Q 263 1497 752 1853 
Q 1241 2209 2100 2209 
L 2900 2209 
L 2931 2363 
Q 2938 2388 2941 2417 
Q 2944 2447 2944 2509 
Q 2944 2788 2717 2942 
Q 2491 3097 2081 3097 
Q 1800 3097 1504 3025 
Q 1209 2953 897 2809 
L 997 3341 
Q 1322 3463 1633 3523 
Q 1944 3584 2234 3584 
Q 2853 3584 3176 3315 
Q 3500 3047 3500 2534 
Q 3500 2431 3484 2292 
Q 3469 2153 3438 1997 
z
M 2816 1759 
L 2241 1759 
Q 1534 1759 1195 1570 
Q 856 1381 856 984 
Q 856 709 1029 553 
Q 1203 397 1509 397 
Q 1978 397 2328 733 
Q 2678 1069 2791 1631 
L 2816 1759 
z
" transform="scale(0.015625)"/>
      <path id="DejaVuSans-Oblique-3a" d="M 978 3309 
L 1638 3309 
L 1484 2516 
L 825 2516 
L 978 3309 
z
M 488 794 
L 1147 794 
L 991 0 
L 331 0 
L 488 794 
z
" transform="scale(0.015625)"/>
      <path id="DejaVuSans-Oblique-73" d="M 3200 3397 
L 3091 2853 
Q 2863 2978 2609 3040 
Q 2356 3103 2088 3103 
Q 1634 3103 1373 2948 
Q 1113 2794 1113 2528 
Q 1113 2219 1719 2053 
Q 1766 2041 1788 2034 
L 1972 1978 
Q 2547 1819 2739 1644 
Q 2931 1469 2931 1166 
Q 2931 609 2489 259 
Q 2047 -91 1331 -91 
Q 1053 -91 747 -37 
Q 441 16 72 128 
L 184 722 
Q 500 559 806 475 
Q 1113 391 1394 391 
Q 1816 391 2080 572 
Q 2344 753 2344 1031 
Q 2344 1331 1650 1516 
L 1591 1531 
L 1394 1581 
Q 956 1697 753 1886 
Q 550 2075 550 2369 
Q 550 2928 970 3256 
Q 1391 3584 2113 3584 
Q 2397 3584 2667 3537 
Q 2938 3491 3200 3397 
z
" transform="scale(0.015625)"/>
      <path id="DejaVuSans-Oblique-69" d="M 1172 4863 
L 1747 4863 
L 1606 4134 
L 1031 4134 
L 1172 4863 
z
M 909 3500 
L 1484 3500 
L 800 0 
L 225 0 
L 909 3500 
z
" transform="scale(0.015625)"/>
      <path id="DejaVuSans-Oblique-6e" d="M 3566 2113 
L 3156 0 
L 2578 0 
L 2988 2091 
Q 3016 2238 3031 2350 
Q 3047 2463 3047 2528 
Q 3047 2791 2881 2937 
Q 2716 3084 2419 3084 
Q 1956 3084 1622 2776 
Q 1288 2469 1184 1941 
L 800 0 
L 225 0 
L 903 3500 
L 1478 3500 
L 1363 2950 
Q 1603 3253 1940 3418 
Q 2278 3584 2650 3584 
Q 3113 3584 3367 3334 
Q 3622 3084 3622 2631 
Q 3622 2519 3608 2391 
Q 3594 2263 3566 2113 
z
" transform="scale(0.015625)"/>
      <path id="DejaVuSans-Oblique-207b" d="M 428 3359 
L 2950 3359 
L 2950 3063 
L 428 3063 
L 428 3359 
z
" transform="scale(0.015625)"/>
      <path id="DejaVuSans-Oblique-b9" d="M 488 2431 
L 1125 2431 
L 1497 4341 
L 781 4213 
L 850 4575 
L 1569 4697 
L 2022 4697 
L 1581 2431 
L 2222 2431 
L 2150 2088 
L 422 2088 
L 488 2431 
z
" transform="scale(0.015625)"/>
      <path id="DejaVuSans-Oblique-28" d="M 2731 4856 
Q 1903 3822 1495 2892 
Q 1088 1963 1088 1100 
Q 1088 606 1206 120 
Q 1325 -366 1563 -844 
L 1063 -844 
Q 775 -306 634 201 
Q 494 709 494 1197 
Q 494 2125 923 3036 
Q 1353 3947 2222 4856 
L 2731 4856 
z
" transform="scale(0.015625)"/>
      <path id="DejaVuSans-Oblique-29" d="M -397 -844 
Q 434 191 840 1120 
Q 1247 2050 1247 2913 
Q 1247 3406 1130 3892 
Q 1013 4378 775 4856 
L 1275 4856 
Q 1563 4316 1703 3812 
Q 1844 3309 1844 2822 
Q 1844 1891 1411 973 
Q 978 56 116 -844 
L -397 -844 
z
" transform="scale(0.015625)"/>
      <path id="DejaVuSans-Oblique-2260" d="M 678 2906 
L 3091 2906 
L 3891 3891 
L 4281 3572 
L 3738 2906 
L 4684 2906 
L 4684 2381 
L 3309 2381 
L 2700 1631 
L 4684 1631 
L 4684 1100 
L 2266 1100 
L 1459 122 
L 1069 441 
L 1613 1100 
L 678 1100 
L 678 1631 
L 2047 1631 
L 2656 2381 
L 678 2381 
L 678 2906 
z
" transform="scale(0.015625)"/>
      <path id="DejaVuSans-Oblique-31" d="M 416 531 
L 1447 531 
L 2144 4122 
L 978 3897 
L 1088 4441 
L 2247 4666 
L 2881 4666 
L 2075 531 
L 3103 531 
L 3003 0 
L 313 0 
L 416 531 
z
" transform="scale(0.015625)"/>
      <path id="DejaVuSans-Oblique-2f" d="M 2175 4666 
L 2731 4666 
L 84 -594 
L -469 -594 
L 2175 4666 
z
" transform="scale(0.015625)"/>
      <path id="DejaVuSans-Oblique-2e" d="M 525 794 
L 1184 794 
L 1031 0 
L 372 0 
L 525 794 
z
" transform="scale(0.015625)"/>
      <path id="DejaVuSans-Oblique-4c" d="M 1075 4666 
L 1709 4666 
L 909 525 
L 3181 525 
L 3078 0 
L 172 0 
L 1075 4666 
z
" transform="scale(0.015625)"/>
      <path id="DejaVuSans-Oblique-63" d="M 3431 3366 
L 3316 2797 
Q 3109 2947 2876 3022 
Q 2644 3097 2394 3097 
Q 2119 3097 1870 3000 
Q 1622 2903 1453 2725 
Q 1184 2453 1037 2087 
Q 891 1722 891 1331 
Q 891 859 1127 628 
Q 1363 397 1844 397 
Q 2081 397 2348 469 
Q 2616 541 2906 684 
L 2797 116 
Q 2547 13 2283 -39 
Q 2019 -91 1741 -91 
Q 1044 -91 669 257 
Q 294 606 294 1253 
Q 294 1797 489 2255 
Q 684 2713 1069 3078 
Q 1331 3328 1684 3456 
Q 2038 3584 2456 3584 
Q 2700 3584 2940 3529 
Q 3181 3475 3431 3366 
z
" transform="scale(0.015625)"/>
      <path id="DejaVuSans-Oblique-f3" d="M 1625 -91 
Q 1009 -91 651 289 
Q 294 669 294 1325 
Q 294 1706 417 2101 
Q 541 2497 738 2766 
Q 1047 3184 1428 3384 
Q 1809 3584 2291 3584 
Q 2888 3584 3255 3212 
Q 3622 2841 3622 2241 
Q 3622 1825 3500 1412 
Q 3378 1000 3181 728 
Q 2875 309 2494 109 
Q 2113 -91 1625 -91 
z
M 891 1344 
Q 891 869 1089 633 
Q 1288 397 1691 397 
Q 2269 397 2648 901 
Q 3028 1406 3028 2181 
Q 3028 2634 2825 2865 
Q 2622 3097 2228 3097 
Q 1903 3097 1650 2945 
Q 1397 2794 1197 2484 
Q 1050 2253 970 1956 
Q 891 1659 891 1344 
z
M 3079 5119 
L 3701 5119 
L 2454 3944 
L 1973 3944 
L 3079 5119 
z
" transform="scale(0.015625)"/>
      <path id="DejaVuSans-Oblique-22" d="M 1147 4666 
L 1147 2931 
L 616 2931 
L 616 4666 
L 1147 4666 
z
M 2328 4666 
L 2328 2931 
L 1797 2931 
L 1797 4666 
L 2328 4666 
z
" transform="scale(0.015625)"/>
      <path id="DejaVuSans-Oblique-64" d="M 2675 525 
Q 2444 222 2128 65 
Q 1813 -91 1428 -91 
Q 903 -91 598 267 
Q 294 625 294 1247 
Q 294 1766 478 2236 
Q 663 2706 1013 3078 
Q 1244 3325 1534 3454 
Q 1825 3584 2144 3584 
Q 2481 3584 2739 3421 
Q 2997 3259 3138 2956 
L 3513 4863 
L 4091 4863 
L 3144 0 
L 2566 0 
L 2675 525 
z
M 891 1350 
Q 891 897 1095 644 
Q 1300 391 1663 391 
Q 1931 391 2161 520 
Q 2391 650 2566 903 
Q 2750 1166 2856 1509 
Q 2963 1853 2963 2188 
Q 2963 2622 2758 2865 
Q 2553 3109 2194 3109 
Q 1922 3109 1687 2981 
Q 1453 2853 1288 2613 
Q 1106 2353 998 2009 
Q 891 1666 891 1350 
z
" transform="scale(0.015625)"/>
      <path id="DejaVuSans-Oblique-66" d="M 3059 4863 
L 2969 4384 
L 2419 4384 
Q 2106 4384 1964 4261 
Q 1822 4138 1753 3809 
L 1691 3500 
L 2638 3500 
L 2553 3053 
L 1606 3053 
L 1013 0 
L 434 0 
L 1031 3053 
L 481 3053 
L 563 3500 
L 1113 3500 
L 1159 3744 
Q 1278 4363 1576 4613 
Q 1875 4863 2516 4863 
L 3059 4863 
z
" transform="scale(0.015625)"/>
      <path id="DejaVuSans-Oblique-75" d="M 428 1388 
L 838 3500 
L 1416 3500 
L 1006 1409 
Q 975 1256 961 1147 
Q 947 1038 947 966 
Q 947 700 1109 554 
Q 1272 409 1569 409 
Q 2031 409 2368 721 
Q 2706 1034 2809 1563 
L 3194 3500 
L 3769 3500 
L 3091 0 
L 2516 0 
L 2631 550 
Q 2388 244 2052 76 
Q 1716 -91 1338 -91 
Q 878 -91 622 161 
Q 366 413 366 863 
Q 366 956 381 1097 
Q 397 1238 428 1388 
z
" transform="scale(0.015625)"/>
      <path id="DejaVuSans-Oblique-76" d="M 459 3500 
L 1069 3500 
L 1581 525 
L 3256 3500 
L 3866 3500 
L 1875 0 
L 1100 0 
L 459 3500 
z
" transform="scale(0.015625)"/>
      <path id="DejaVuSans-Oblique-65" d="M 3078 2063 
Q 3088 2113 3092 2166 
Q 3097 2219 3097 2272 
Q 3097 2653 2873 2875 
Q 2650 3097 2266 3097 
Q 1838 3097 1509 2826 
Q 1181 2556 1013 2059 
L 3078 2063 
z
M 3578 1613 
L 903 1613 
Q 884 1494 878 1425 
Q 872 1356 872 1306 
Q 872 872 1139 634 
Q 1406 397 1894 397 
Q 2269 397 2603 481 
Q 2938 566 3225 728 
L 3116 159 
Q 2806 34 2476 -28 
Q 2147 -91 1806 -91 
Q 1078 -91 686 257 
Q 294 606 294 1247 
Q 294 1794 489 2264 
Q 684 2734 1063 3103 
Q 1306 3334 1642 3459 
Q 1978 3584 2356 3584 
Q 2950 3584 3301 3228 
Q 3653 2872 3653 2272 
Q 3653 2128 3634 1964 
Q 3616 1800 3578 1613 
z
" transform="scale(0.015625)"/>
      <path id="DejaVuSans-Oblique-72" d="M 2853 2969 
Q 2766 3016 2653 3041 
Q 2541 3066 2413 3066 
Q 1953 3066 1609 2717 
Q 1266 2369 1153 1784 
L 800 0 
L 225 0 
L 909 3500 
L 1484 3500 
L 1375 2956 
Q 1603 3259 1920 3421 
Q 2238 3584 2597 3584 
Q 2691 3584 2781 3573 
Q 2872 3563 2963 3538 
L 2853 2969 
z
" transform="scale(0.015625)"/>
     </defs>
     <use xlink:href="#DejaVuSans-Oblique-26a0"/>
     <use xlink:href="#DejaVuSans-Oblique-fe0f" transform="translate(88.964844 0)"/>
     <use xlink:href="#DejaVuSans-Oblique-20" transform="translate(88.964844 0)"/>
     <use xlink:href="#DejaVuSans-Oblique-4e" transform="translate(120.751953 0)"/>
     <use xlink:href="#DejaVuSans-Oblique-6f" transform="translate(195.556641 0)"/>
     <use xlink:href="#DejaVuSans-Oblique-74" transform="translate(256.738281 0)"/>
     <use xlink:href="#DejaVuSans-Oblique-61" transform="translate(295.947266 0)"/>
     <use xlink:href="#DejaVuSans-Oblique-3a" transform="translate(357.226562 0)"/>
     <use xlink:href="#DejaVuSans-Oblique-20" transform="translate(390.917969 0)"/>
     <use xlink:href="#DejaVuSans-Oblique-73" transform="translate(422.705078 0)"/>
     <use xlink:href="#DejaVuSans-Oblique-69" transform="translate(474.804688 0)"/>
     <use xlink:href="#DejaVuSans-Oblique-6e" transform="translate(502.587891 0)"/>
     <use xlink:href="#DejaVuSans-Oblique-207b" transform="translate(565.966797 0)"/>
     <use xlink:href="#DejaVuSans-Oblique-b9" transform="translate(618.75 0)"/>
     <use xlink:href="#DejaVuSans-Oblique-28" transform="translate(658.837891 0)"/>
     <use xlink:href="#DejaVuSans-Oblique-78" transform="translate(697.851562 0)"/>
     <use xlink:href="#DejaVuSans-Oblique-29" transform="translate(757.03125 0)"/>
     <use xlink:href="#DejaVuSans-Oblique-20" transform="translate(796.044922 0)"/>
     <use xlink:href="#DejaVuSans-Oblique-2260" transform="translate(827.832031 0)"/>
     <use xlink:href="#DejaVuSans-Oblique-20" transform="translate(911.621094 0)"/>
     <use xlink:href="#DejaVuSans-Oblique-31" transform="translate(943.408203 0)"/>
     <use xlink:href="#DejaVuSans-Oblique-2f" transform="translate(1007.03125 0)"/>
     <use xlink:href="#DejaVuSans-Oblique-73" transform="translate(1040.722656 0)"/>
     <use xlink:href="#DejaVuSans-Oblique-69" transform="translate(1092.822266 0)"/>
     <use xlink:href="#DejaVuSans-Oblique-6e" transform="translate(1120.605469 0)"/>
     <use xlink:href="#DejaVuSans-Oblique-28" transform="translate(1183.984375 0)"/>
     <use xlink:href="#DejaVuSans-Oblique-78" transform="translate(1222.998047 0)"/>
     <use xlink:href="#DejaVuSans-Oblique-29" transform="translate(1282.177734 0)"/>
     <use xlink:href="#DejaVuSans-Oblique-2e" transform="translate(1321.191406 0)"/>
     <use xlink:href="#DejaVuSans-Oblique-20" transform="translate(1352.978516 0)"/>
     <use xlink:href="#DejaVuSans-Oblique-4c" transform="translate(1384.765625 0)"/>
     <use xlink:href="#DejaVuSans-Oblique-61" transform="translate(1440.478516 0)"/>
     <use xlink:href="#DejaVuSans-Oblique-20" transform="translate(1501.757812 0)"/>
     <use xlink:href="#DejaVuSans-Oblique-6e" transform="translate(1533.544922 0)"/>
     <use xlink:href="#DejaVuSans-Oblique-6f" transform="translate(1596.923828 0)"/>
     <use xlink:href="#DejaVuSans-Oblique-74" transform="translate(1658.105469 0)"/>
     <use xlink:href="#DejaVuSans-Oblique-61" transform="translate(1697.314453 0)"/>
     <use xlink:href="#DejaVuSans-Oblique-63" transform="translate(1758.59375 0)"/>
     <use xlink:href="#DejaVuSans-Oblique-69" transform="translate(1813.574219 0)"/>
     <use xlink:href="#DejaVuSans-Oblique-f3" transform="translate(1841.357422 0)"/>
     <use xlink:href="#DejaVuSans-Oblique-6e" transform="translate(1902.539062 0)"/>
     <use xlink:href="#DejaVuSans-Oblique-20" transform="translate(1965.917969 0)"/>
     <use xlink:href="#DejaVuSans-Oblique-22" transform="translate(1997.705078 0)"/>
     <use xlink:href="#DejaVuSans-Oblique-207b" transform="translate(2043.701172 0)"/>
     <use xlink:href="#DejaVuSans-Oblique-b9" transform="translate(2096.484375 0)"/>
     <use xlink:href="#DejaVuSans-Oblique-22" transform="translate(2136.572266 0)"/>
     <use xlink:href="#DejaVuSans-Oblique-20" transform="translate(2182.568359 0)"/>
     <use xlink:href="#DejaVuSans-Oblique-69" transform="translate(2214.355469 0)"/>
     <use xlink:href="#DejaVuSans-Oblique-6e" transform="translate(2242.138672 0)"/>
     <use xlink:href="#DejaVuSans-Oblique-64" transform="translate(2305.517578 0)"/>
     <use xlink:href="#DejaVuSans-Oblique-69" transform="translate(2368.994141 0)"/>
     <use xlink:href="#DejaVuSans-Oblique-63" transform="translate(2396.777344 0)"/>
     <use xlink:href="#DejaVuSans-Oblique-61" transform="translate(2451.757812 0)"/>
     <use xlink:href="#DejaVuSans-Oblique-20" transform="translate(2513.037109 0)"/>
     <use xlink:href="#DejaVuSans-Oblique-66" transform="translate(2544.824219 0)"/>
     <use xlink:href="#DejaVuSans-Oblique-75" transform="translate(2580.029297 0)"/>
     <use xlink:href="#DejaVuSans-Oblique-6e" transform="translate(2643.408203 0)"/>
     <use xlink:href="#DejaVuSans-Oblique-63" transform="translate(2706.787109 0)"/>
     <use xlink:href="#DejaVuSans-Oblique-69" transform="translate(2761.767578 0)"/>
     <use xlink:href="#DejaVuSans-Oblique-f3" transform="translate(2789.550781 0)"/>
     <use xlink:href="#DejaVuSans-Oblique-6e" transform="translate(2850.732422 0)"/>
     <use xlink:href="#DejaVuSans-Oblique-20" transform="translate(2914.111328 0)"/>
     <use xlink:href="#DejaVuSans-Oblique-69" transform="translate(2945.898438 0)"/>
     <use xlink:href="#DejaVuSans-Oblique-6e" transform="translate(2973.681641 0)"/>
     <use xlink:href="#DejaVuSans-Oblique-76" transform="translate(3037.060547 0)"/>
     <use xlink:href="#DejaVuSans-Oblique-65" transform="translate(3096.240234 0)"/>
     <use xlink:href="#DejaVuSans-Oblique-72" transform="translate(3157.763672 0)"/>
     <use xlink:href="#DejaVuSans-Oblique-73" transform="translate(3198.876953 0)"/>
     <use xlink:href="#DejaVuSans-Oblique-61" transform="translate(3250.976562 0)"/>
     <use xlink:href="#DejaVuSans-Oblique-2e" transform="translate(3312.255859 0)"/>
    </g>
   </g>
  </g>
  <g id="text_56">
   <!-- Funciones Trigonométricas Inversas -->
   <g style="fill: #1f2937" transform="translate(366.517572 18.397812) scale(0.14 -0.14)">
    <use xlink:href="#DejaVuSans-Bold-46"/>
    <use xlink:href="#DejaVuSans-Bold-75" transform="translate(63.310547 0)"/>
    <use xlink:href="#DejaVuSans-Bold-6e" transform="translate(134.501953 0)"/>
    <use xlink:href="#DejaVuSans-Bold-63" transform="translate(205.693359 0)"/>
    <use xlink:href="#DejaVuSans-Bold-69" transform="translate(264.970703 0)"/>
    <use xlink:href="#DejaVuSans-Bold-6f" transform="translate(299.248047 0)"/>
    <use xlink:href="#DejaVuSans-Bold-6e" transform="translate(367.949219 0)"/>
    <use xlink:href="#DejaVuSans-Bold-65" transform="translate(439.140625 0)"/>
    <use xlink:href="#DejaVuSans-Bold-73" transform="translate(506.962891 0)"/>
    <use xlink:href="#DejaVuSans-Bold-20" transform="translate(566.484375 0)"/>
    <use xlink:href="#DejaVuSans-Bold-54" transform="translate(601.298828 0)"/>
    <use xlink:href="#DejaVuSans-Bold-72" transform="translate(658.511719 0)"/>
    <use xlink:href="#DejaVuSans-Bold-69" transform="translate(707.828125 0)"/>
    <use xlink:href="#DejaVuSans-Bold-67" transform="translate(742.105469 0)"/>
    <use xlink:href="#DejaVuSans-Bold-6f" transform="translate(813.6875 0)"/>
    <use xlink:href="#DejaVuSans-Bold-6e" transform="translate(882.388672 0)"/>
    <use xlink:href="#DejaVuSans-Bold-6f" transform="translate(953.580078 0)"/>
    <use xlink:href="#DejaVuSans-Bold-6d" transform="translate(1022.28125 0)"/>
    <use xlink:href="#DejaVuSans-Bold-e9" transform="translate(1126.480469 0)"/>
    <use xlink:href="#DejaVuSans-Bold-74" transform="translate(1194.302734 0)"/>
    <use xlink:href="#DejaVuSans-Bold-72" transform="translate(1242.105469 0)"/>
    <use xlink:href="#DejaVuSans-Bold-69" transform="translate(1291.421875 0)"/>
    <use xlink:href="#DejaVuSans-Bold-63" transform="translate(1325.699219 0)"/>
    <use xlink:href="#DejaVuSans-Bold-61" transform="translate(1384.976562 0)"/>
    <use xlink:href="#DejaVuSans-Bold-73" transform="translate(1452.457031 0)"/>
    <use xlink:href="#DejaVuSans-Bold-20" transform="translate(1511.978516 0)"/>
    <use xlink:href="#DejaVuSans-Bold-49" transform="translate(1546.792969 0)"/>
    <use xlink:href="#DejaVuSans-Bold-6e" transform="translate(1584 0)"/>
    <use xlink:href="#DejaVuSans-Bold-76" transform="translate(1655.191406 0)"/>
    <use xlink:href="#DejaVuSans-Bold-65" transform="translate(1720.376953 0)"/>
    <use xlink:href="#DejaVuSans-Bold-72" transform="translate(1788.199219 0)"/>
    <use xlink:href="#DejaVuSans-Bold-73" transform="translate(1837.515625 0)"/>
    <use xlink:href="#DejaVuSans-Bold-61" transform="translate(1897.037109 0)"/>
    <use xlink:href="#DejaVuSans-Bold-73" transform="translate(1964.517578 0)"/>
   </g>
  </g>
 </g>
 <defs>
  <clipPath id="p1c5bf3a07d">
   <rect x="45.301563" y="43.31923" width="201.665034" height="320.18247"/>
  </clipPath>
  <clipPath id="p805ce6e5f3">
   <rect x="424.101402" y="43.31923" width="201.665034" height="320.18247"/>
  </clipPath>
  <clipPath id="p41267346ad">
   <rect x="802.901242" y="43.31923" width="201.665034" height="320.18247"/>
  </clipPath>
  <clipPath id="p389d0159c7">
   <rect x="45.301563" y="476.793575" width="959.264714" height="172.405945"/>
  </clipPath>
 </defs>
</svg>
