<?xml version="1.0" encoding="utf-8" standalone="no"?>
<!DOCTYPE svg PUBLIC "-//W3C//DTD SVG 1.1//EN"
  "http://www.w3.org/Graphics/SVG/1.1/DTD/svg11.dtd">
<svg xmlns:xlink="http://www.w3.org/1999/xlink" width="1016.39952pt" height="728.39952pt" viewBox="0 0 1016.39952 728.39952" xmlns="http://www.w3.org/2000/svg" version="1.1">
 <metadata>
  <rdf:RDF xmlns:dc="http://purl.org/dc/elements/1.1/" xmlns:cc="http://creativecommons.org/ns#" xmlns:rdf="http://www.w3.org/1999/02/22-rdf-syntax-ns#">
   <cc:Work>
    <dc:type rdf:resource="http://purl.org/dc/dcmitype/StillImage"/>
    <dc:date>2026-01-04T20:53:31.029467</dc:date>
    <dc:format>image/svg+xml</dc:format>
    <dc:creator>
     <cc:Agent>
      <dc:title>Repositorio Matemáticas Universitarias</dc:title>
     </cc:Agent>
    </dc:creator>
   </cc:Work>
  </rdf:RDF>
 </metadata>
 <defs>
  <style type="text/css">*{stroke-linejoin: round; stroke-linecap: butt}</style>
 </defs>
 <g id="figure_1">
  <g id="patch_1">
   <path d="M 0 728.39952 
L 1016.39952 728.39952 
L 1016.39952 0 
L 0 0 
z
" style="fill: #ffffff"/>
  </g>
  <g id="axes_1">
   <g id="patch_2">
    <path d="M 31.890625 313.764062 
L 464.827494 313.764062 
L 464.827494 44.19923 
L 31.890625 44.19923 
z
" style="fill: #ffffff"/>
   </g>
   <g id="matplotlib.axis_1">
    <g id="xtick_1">
     <g id="line2d_1">
      <defs>
       <path id="m9cf5b85703" d="M 0 0 
L 0 3.5 
" style="stroke: #1f2937; stroke-width: 0.8"/>
      </defs>
      <g>
       <use xlink:href="#m9cf5b85703" x="31.890625" y="313.764062" style="fill: #1f2937; stroke: #1f2937; stroke-width: 0.8"/>
      </g>
     </g>
     <g id="text_1">
      <!-- -2π -->
      <g style="fill: #1f2937" transform="translate(24.694844 327.602656) scale(0.09 -0.09)">
       <defs>
        <path id="DejaVuSans-2d" d="M 313 2009 
L 1997 2009 
L 1997 1497 
L 313 1497 
L 313 2009 
z
" transform="scale(0.015625)"/>
        <path id="DejaVuSans-32" d="M 1228 531 
L 3431 531 
L 3431 0 
L 469 0 
L 469 531 
Q 828 903 1448 1529 
Q 2069 2156 2228 2338 
Q 2531 2678 2651 2914 
Q 2772 3150 2772 3378 
Q 2772 3750 2511 3984 
Q 2250 4219 1831 4219 
Q 1534 4219 1204 4116 
Q 875 4013 500 3803 
L 500 4441 
Q 881 4594 1212 4672 
Q 1544 4750 1819 4750 
Q 2544 4750 2975 4387 
Q 3406 4025 3406 3419 
Q 3406 3131 3298 2873 
Q 3191 2616 2906 2266 
Q 2828 2175 2409 1742 
Q 1991 1309 1228 531 
z
" transform="scale(0.015625)"/>
        <path id="DejaVuSans-3c0" d="M 231 3500 
L 3584 3500 
L 3584 2925 
L 3144 2925 
L 3144 775 
Q 3144 550 3220 451 
Q 3297 353 3469 353 
Q 3516 353 3584 361 
Q 3653 369 3675 372 
L 3675 -44 
Q 3566 -84 3450 -103 
Q 3334 -122 3219 -122 
Q 2844 -122 2700 83 
Q 2556 288 2556 838 
L 2556 2925 
L 1266 2925 
L 1266 0 
L 678 0 
L 678 2925 
L 231 2925 
L 231 3500 
z
" transform="scale(0.015625)"/>
       </defs>
       <use xlink:href="#DejaVuSans-2d"/>
       <use xlink:href="#DejaVuSans-32" transform="translate(36.083984 0)"/>
       <use xlink:href="#DejaVuSans-3c0" transform="translate(99.707031 0)"/>
      </g>
     </g>
    </g>
    <g id="xtick_2">
     <g id="line2d_2">
      <g>
       <use xlink:href="#m9cf5b85703" x="140.124842" y="313.764062" style="fill: #1f2937; stroke: #1f2937; stroke-width: 0.8"/>
      </g>
     </g>
     <g id="text_2">
      <!-- -π -->
      <g style="fill: #1f2937" transform="translate(135.792186 327.602656) scale(0.09 -0.09)">
       <use xlink:href="#DejaVuSans-2d"/>
       <use xlink:href="#DejaVuSans-3c0" transform="translate(36.083984 0)"/>
      </g>
     </g>
    </g>
    <g id="xtick_3">
     <g id="line2d_3">
      <g>
       <use xlink:href="#m9cf5b85703" x="248.35906" y="313.764062" style="fill: #1f2937; stroke: #1f2937; stroke-width: 0.8"/>
      </g>
     </g>
     <g id="text_3">
      <!-- 0 -->
      <g style="fill: #1f2937" transform="translate(245.495935 327.602656) scale(0.09 -0.09)">
       <defs>
        <path id="DejaVuSans-30" d="M 2034 4250 
Q 1547 4250 1301 3770 
Q 1056 3291 1056 2328 
Q 1056 1369 1301 889 
Q 1547 409 2034 409 
Q 2525 409 2770 889 
Q 3016 1369 3016 2328 
Q 3016 3291 2770 3770 
Q 2525 4250 2034 4250 
z
M 2034 4750 
Q 2819 4750 3233 4129 
Q 3647 3509 3647 2328 
Q 3647 1150 3233 529 
Q 2819 -91 2034 -91 
Q 1250 -91 836 529 
Q 422 1150 422 2328 
Q 422 3509 836 4129 
Q 1250 4750 2034 4750 
z
" transform="scale(0.015625)"/>
       </defs>
       <use xlink:href="#DejaVuSans-30"/>
      </g>
     </g>
    </g>
    <g id="xtick_4">
     <g id="line2d_4">
      <g>
       <use xlink:href="#m9cf5b85703" x="356.593277" y="313.764062" style="fill: #1f2937; stroke: #1f2937; stroke-width: 0.8"/>
      </g>
     </g>
     <g id="text_4">
      <!-- π -->
      <g style="fill: #1f2937" transform="translate(353.884136 327.602656) scale(0.09 -0.09)">
       <use xlink:href="#DejaVuSans-3c0"/>
      </g>
     </g>
    </g>
    <g id="xtick_5">
     <g id="line2d_5">
      <g>
       <use xlink:href="#m9cf5b85703" x="464.827494" y="313.764062" style="fill: #1f2937; stroke: #1f2937; stroke-width: 0.8"/>
      </g>
     </g>
     <g id="text_5">
      <!-- 2π -->
      <g style="fill: #1f2937" transform="translate(459.255229 327.602656) scale(0.09 -0.09)">
       <use xlink:href="#DejaVuSans-32"/>
       <use xlink:href="#DejaVuSans-3c0" transform="translate(63.623047 0)"/>
      </g>
     </g>
    </g>
   </g>
   <g id="matplotlib.axis_2">
    <g id="ytick_1">
     <g id="line2d_6">
      <defs>
       <path id="mdd1a6b2c3a" d="M 0 0 
L -3.5 0 
" style="stroke: #1f2937; stroke-width: 0.8"/>
      </defs>
      <g>
       <use xlink:href="#mdd1a6b2c3a" x="31.890625" y="286.807579" style="fill: #1f2937; stroke: #1f2937; stroke-width: 0.8"/>
      </g>
     </g>
     <g id="text_6">
      <!-- −4 -->
      <g style="fill: #1f2937" transform="translate(7.2 291.366642) scale(0.12 -0.12)">
       <defs>
        <path id="DejaVuSans-2212" d="M 678 2272 
L 4684 2272 
L 4684 1741 
L 678 1741 
L 678 2272 
z
" transform="scale(0.015625)"/>
        <path id="DejaVuSans-34" d="M 2419 4116 
L 825 1625 
L 2419 1625 
L 2419 4116 
z
M 2253 4666 
L 3047 4666 
L 3047 1625 
L 3713 1625 
L 3713 1100 
L 3047 1100 
L 3047 0 
L 2419 0 
L 2419 1100 
L 313 1100 
L 313 1709 
L 2253 4666 
z
" transform="scale(0.015625)"/>
       </defs>
       <use xlink:href="#DejaVuSans-2212"/>
       <use xlink:href="#DejaVuSans-34" transform="translate(83.789062 0)"/>
      </g>
     </g>
    </g>
    <g id="ytick_2">
     <g id="line2d_7">
      <g>
       <use xlink:href="#mdd1a6b2c3a" x="31.890625" y="232.894613" style="fill: #1f2937; stroke: #1f2937; stroke-width: 0.8"/>
      </g>
     </g>
     <g id="text_7">
      <!-- −2 -->
      <g style="fill: #1f2937" transform="translate(7.2 237.453675) scale(0.12 -0.12)">
       <use xlink:href="#DejaVuSans-2212"/>
       <use xlink:href="#DejaVuSans-32" transform="translate(83.789062 0)"/>
      </g>
     </g>
    </g>
    <g id="ytick_3">
     <g id="line2d_8">
      <g>
       <use xlink:href="#mdd1a6b2c3a" x="31.890625" y="178.981646" style="fill: #1f2937; stroke: #1f2937; stroke-width: 0.8"/>
      </g>
     </g>
     <g id="text_8">
      <!-- 0 -->
      <g style="fill: #1f2937" transform="translate(17.255625 183.540709) scale(0.12 -0.12)">
       <use xlink:href="#DejaVuSans-30"/>
      </g>
     </g>
    </g>
    <g id="ytick_4">
     <g id="line2d_9">
      <g>
       <use xlink:href="#mdd1a6b2c3a" x="31.890625" y="125.06868" style="fill: #1f2937; stroke: #1f2937; stroke-width: 0.8"/>
      </g>
     </g>
     <g id="text_9">
      <!-- 2 -->
      <g style="fill: #1f2937" transform="translate(17.255625 129.627742) scale(0.12 -0.12)">
       <use xlink:href="#DejaVuSans-32"/>
      </g>
     </g>
    </g>
    <g id="ytick_5">
     <g id="line2d_10">
      <g>
       <use xlink:href="#mdd1a6b2c3a" x="31.890625" y="71.155713" style="fill: #1f2937; stroke: #1f2937; stroke-width: 0.8"/>
      </g>
     </g>
     <g id="text_10">
      <!-- 4 -->
      <g style="fill: #1f2937" transform="translate(17.255625 75.714776) scale(0.12 -0.12)">
       <use xlink:href="#DejaVuSans-34"/>
      </g>
     </g>
    </g>
   </g>
   <g id="line2d_11">
    <path d="M -1 217.058876 
L 0.275586 214.210848 
L 2.437298 209.972576 
L 4.59901 206.305329 
L 6.760722 203.077207 
L 9.462862 199.516029 
L 12.165002 196.357174 
L 15.40757 192.961908 
L 18.650138 189.883568 
L 22.973563 186.118762 
L 28.377843 181.739736 
L 41.348115 171.390114 
L 45.67154 167.58453 
L 48.914108 164.460354 
L 52.156676 161.001419 
L 54.858816 157.770905 
L 57.020528 154.886086 
L 59.18224 151.657963 
L 61.343952 147.990717 
L 62.965236 144.874596 
L 64.58652 141.363589 
L 66.207805 137.358633 
L 67.829089 132.725544 
L 69.450373 127.277814 
L 71.071657 120.748187 
L 72.152513 115.605554 
L 73.233369 109.643588 
L 74.314225 102.634547 
L 75.395081 94.257965 
L 76.475937 84.048082 
L 77.556793 71.300919 
L 78.637649 54.899608 
L 79.718505 32.959587 
L 80.799361 2.032039 
L 80.878196 -1 
L 80.878196 -1 
" clip-path="url(#pf255721d23)" style="fill: none; stroke: #dc2626; stroke-width: 2; stroke-linecap: square"/>
   </g>
   <g id="line2d_12">
    <path d="M 87.736879 729.39952 
L 87.973538 650.899043 
L 88.513966 548.886121 
L 89.054394 483.013957 
L 89.594822 436.947689 
L 90.13525 402.907538 
L 90.675678 376.716511 
L 91.756534 339.027174 
L 92.83739 313.176973 
L 93.918246 294.312614 
L 94.999102 279.914413 
L 96.079958 268.544189 
L 97.160814 259.321214 
L 98.24167 251.675965 
L 99.322526 245.223803 
L 100.943811 237.215106 
L 102.565095 230.685479 
L 104.186379 225.237748 
L 105.807663 220.60466 
L 107.428947 216.599703 
L 109.050231 213.088697 
L 111.211943 209.008146 
L 113.373655 205.46138 
L 115.535367 202.326957 
L 118.237507 198.855645 
L 120.939647 195.764581 
L 124.182216 192.429611 
L 127.965212 188.911559 
L 132.288636 185.220941 
L 138.233344 180.46311 
L 148.501477 172.295188 
L 152.824901 168.568674 
L 156.607897 165.001384 
L 159.850465 161.606119 
L 162.552605 158.447264 
L 164.714317 155.636335 
L 166.87603 152.501912 
L 169.037742 148.955147 
L 171.199454 144.874596 
L 172.820738 141.363589 
L 174.442022 137.358633 
L 176.063306 132.725544 
L 177.68459 127.277814 
L 179.305874 120.748187 
L 180.38673 115.605554 
L 181.467586 109.643588 
L 182.548442 102.634547 
L 183.629298 94.257965 
L 184.710154 84.048082 
L 185.79101 71.300919 
L 186.871866 54.899608 
L 187.952723 32.959587 
L 189.033579 2.032039 
L 189.112413 -1 
L 189.112413 -1 
" clip-path="url(#pf255721d23)" style="fill: none; stroke: #dc2626; stroke-width: 2; stroke-linecap: square"/>
   </g>
   <g id="line2d_13">
    <path d="M 195.971097 729.39952 
L 196.207755 650.899043 
L 196.748183 548.886121 
L 197.288611 483.013957 
L 197.829039 436.947689 
L 198.369467 402.907538 
L 198.909895 376.716511 
L 199.990751 339.027174 
L 201.071608 313.176973 
L 202.152464 294.312614 
L 203.23332 279.914413 
L 204.314176 268.544189 
L 205.395032 259.321214 
L 206.475888 251.675965 
L 207.556744 245.223803 
L 209.178028 237.215106 
L 210.799312 230.685479 
L 212.420596 225.237748 
L 214.04188 220.60466 
L 215.663164 216.599703 
L 217.284448 213.088697 
L 219.44616 209.008146 
L 221.607872 205.46138 
L 223.769585 202.326957 
L 226.471725 198.855645 
L 229.173865 195.764581 
L 232.416433 192.429611 
L 236.199429 188.911559 
L 240.522853 185.220941 
L 246.467562 180.46311 
L 256.735694 172.295188 
L 261.059118 168.568674 
L 264.842114 165.001384 
L 268.084683 161.606119 
L 270.786823 158.447264 
L 272.948535 155.636335 
L 275.110247 152.501912 
L 277.271959 148.955147 
L 279.433671 144.874596 
L 281.054955 141.363589 
L 282.676239 137.358633 
L 284.297523 132.725544 
L 285.918807 127.277814 
L 287.540091 120.748187 
L 288.620948 115.605554 
L 289.701804 109.643588 
L 290.78266 102.634547 
L 291.863516 94.257965 
L 292.944372 84.048082 
L 294.025228 71.300919 
L 295.106084 54.899608 
L 296.18694 32.959587 
L 297.267796 2.032039 
L 297.346631 -1 
L 297.346631 -1 
" clip-path="url(#pf255721d23)" style="fill: none; stroke: #dc2626; stroke-width: 2; stroke-linecap: square"/>
   </g>
   <g id="line2d_14">
    <path d="M 304.205314 729.39952 
L 304.441973 650.899043 
L 304.982401 548.886121 
L 305.522829 483.013957 
L 306.063257 436.947689 
L 306.603685 402.907538 
L 307.144113 376.716511 
L 308.224969 339.027174 
L 309.305825 313.176973 
L 310.386681 294.312614 
L 311.467537 279.914413 
L 312.548393 268.544189 
L 313.629249 259.321214 
L 314.710105 251.675965 
L 315.790961 245.223803 
L 317.412245 237.215106 
L 319.033529 230.685479 
L 320.654813 225.237748 
L 322.276097 220.60466 
L 323.897382 216.599703 
L 325.518666 213.088697 
L 327.680378 209.008146 
L 329.84209 205.46138 
L 332.003802 202.326957 
L 334.705942 198.855645 
L 337.408082 195.764581 
L 340.65065 192.429611 
L 344.433646 188.911559 
L 348.757071 185.220941 
L 354.701779 180.46311 
L 364.969911 172.295188 
L 369.293336 168.568674 
L 373.076332 165.001384 
L 376.3189 161.606119 
L 379.02104 158.447264 
L 381.182752 155.636335 
L 383.344464 152.501912 
L 385.506176 148.955147 
L 387.667888 144.874596 
L 389.289173 141.363589 
L 390.910457 137.358633 
L 392.531741 132.725544 
L 394.153025 127.277814 
L 395.774309 120.748187 
L 396.855165 115.605554 
L 397.936021 109.643588 
L 399.016877 102.634547 
L 400.097733 94.257965 
L 401.178589 84.048082 
L 402.259445 71.300919 
L 403.340301 54.899608 
L 404.421157 32.959587 
L 405.502013 2.032039 
L 405.580848 -1 
L 405.580848 -1 
" clip-path="url(#pf255721d23)" style="fill: none; stroke: #dc2626; stroke-width: 2; stroke-linecap: square"/>
   </g>
   <g id="line2d_15">
    <path d="M 412.439531 729.39952 
L 412.67619 650.899043 
L 413.216618 548.886121 
L 413.757046 483.013957 
L 414.297474 436.947689 
L 414.837902 402.907538 
L 415.37833 376.716511 
L 416.459186 339.027174 
L 417.540042 313.176973 
L 418.620898 294.312614 
L 419.701754 279.914413 
L 420.78261 268.544189 
L 421.863466 259.321214 
L 422.944322 251.675965 
L 424.025179 245.223803 
L 425.646463 237.215106 
L 427.267747 230.685479 
L 428.889031 225.237748 
L 430.510315 220.60466 
L 432.131599 216.599703 
L 433.752883 213.088697 
L 435.914595 209.008146 
L 438.076307 205.46138 
L 440.238019 202.326957 
L 442.940159 198.855645 
L 445.642299 195.764581 
L 448.884868 192.429611 
L 452.667864 188.911559 
L 456.991288 185.220941 
L 462.935996 180.46311 
L 473.204129 172.295188 
L 477.527553 168.568674 
L 481.310549 165.001384 
L 484.553117 161.606119 
L 487.255257 158.447264 
L 489.416969 155.636335 
L 491.578682 152.501912 
L 493.740394 148.955147 
L 495.902106 144.874596 
L 497.52339 141.363589 
L 499.144674 137.358633 
L 500.765958 132.725544 
L 502.387242 127.277814 
L 504.008526 120.748187 
L 505.089382 115.605554 
L 506.170238 109.643588 
L 507.251094 102.634547 
L 508.33195 94.257965 
L 509.412806 84.048082 
L 510.493662 71.300919 
L 511.574519 54.899608 
L 512.655375 32.959587 
L 513.736231 2.032039 
L 513.815065 -1 
L 513.815065 -1 
" clip-path="url(#pf255721d23)" style="fill: none; stroke: #dc2626; stroke-width: 2; stroke-linecap: square"/>
   </g>
   <g id="line2d_16">
    <path d="M 86.007734 313.764062 
L 86.007734 44.19923 
" clip-path="url(#pf255721d23)" style="fill: none; stroke-dasharray: 3.7,1.6; stroke-dashoffset: 0; stroke: #d1d5db"/>
   </g>
   <g id="line2d_17">
    <path d="M 194.241951 313.764062 
L 194.241951 44.19923 
" clip-path="url(#pf255721d23)" style="fill: none; stroke-dasharray: 3.7,1.6; stroke-dashoffset: 0; stroke: #d1d5db"/>
   </g>
   <g id="line2d_18">
    <path d="M 302.476168 313.764062 
L 302.476168 44.19923 
" clip-path="url(#pf255721d23)" style="fill: none; stroke-dasharray: 3.7,1.6; stroke-dashoffset: 0; stroke: #d1d5db"/>
   </g>
   <g id="line2d_19">
    <path d="M 410.710386 313.764062 
L 410.710386 44.19923 
" clip-path="url(#pf255721d23)" style="fill: none; stroke-dasharray: 3.7,1.6; stroke-dashoffset: 0; stroke: #d1d5db"/>
   </g>
   <g id="line2d_20">
    <path d="M 518.944603 313.764062 
L 518.944603 44.19923 
" clip-path="url(#pf255721d23)" style="fill: none; stroke-dasharray: 3.7,1.6; stroke-dashoffset: 0; stroke: #d1d5db"/>
   </g>
   <g id="line2d_21">
    <path d="M 31.890625 178.981646 
L 464.827494 178.981646 
" clip-path="url(#pf255721d23)" style="fill: none; stroke: #9ca3af; stroke-linecap: square"/>
   </g>
   <g id="line2d_22">
    <path d="M 248.35906 313.764062 
L 248.35906 44.19923 
" clip-path="url(#pf255721d23)" style="fill: none; stroke: #9ca3af; stroke-linecap: square"/>
   </g>
   <g id="patch_3">
    <path d="M 31.890625 313.764062 
L 31.890625 44.19923 
" style="fill: none; stroke: #000000; stroke-width: 1.5; stroke-linejoin: miter; stroke-linecap: square"/>
   </g>
   <g id="patch_4">
    <path d="M 31.890625 313.764062 
L 464.827494 313.764062 
" style="fill: none; stroke: #000000; stroke-width: 1.5; stroke-linejoin: miter; stroke-linecap: square"/>
   </g>
   <g id="text_11">
    <!-- Periodo: π -->
    <g style="fill: #6b7280" transform="translate(398.304401 64.516065) scale(0.09 -0.09)">
     <defs>
      <path id="DejaVuSans-50" d="M 1259 4147 
L 1259 2394 
L 2053 2394 
Q 2494 2394 2734 2622 
Q 2975 2850 2975 3272 
Q 2975 3691 2734 3919 
Q 2494 4147 2053 4147 
L 1259 4147 
z
M 628 4666 
L 2053 4666 
Q 2838 4666 3239 4311 
Q 3641 3956 3641 3272 
Q 3641 2581 3239 2228 
Q 2838 1875 2053 1875 
L 1259 1875 
L 1259 0 
L 628 0 
L 628 4666 
z
" transform="scale(0.015625)"/>
      <path id="DejaVuSans-65" d="M 3597 1894 
L 3597 1613 
L 953 1613 
Q 991 1019 1311 708 
Q 1631 397 2203 397 
Q 2534 397 2845 478 
Q 3156 559 3463 722 
L 3463 178 
Q 3153 47 2828 -22 
Q 2503 -91 2169 -91 
Q 1331 -91 842 396 
Q 353 884 353 1716 
Q 353 2575 817 3079 
Q 1281 3584 2069 3584 
Q 2775 3584 3186 3129 
Q 3597 2675 3597 1894 
z
M 3022 2063 
Q 3016 2534 2758 2815 
Q 2500 3097 2075 3097 
Q 1594 3097 1305 2825 
Q 1016 2553 972 2059 
L 3022 2063 
z
" transform="scale(0.015625)"/>
      <path id="DejaVuSans-72" d="M 2631 2963 
Q 2534 3019 2420 3045 
Q 2306 3072 2169 3072 
Q 1681 3072 1420 2755 
Q 1159 2438 1159 1844 
L 1159 0 
L 581 0 
L 581 3500 
L 1159 3500 
L 1159 2956 
Q 1341 3275 1631 3429 
Q 1922 3584 2338 3584 
Q 2397 3584 2469 3576 
Q 2541 3569 2628 3553 
L 2631 2963 
z
" transform="scale(0.015625)"/>
      <path id="DejaVuSans-69" d="M 603 3500 
L 1178 3500 
L 1178 0 
L 603 0 
L 603 3500 
z
M 603 4863 
L 1178 4863 
L 1178 4134 
L 603 4134 
L 603 4863 
z
" transform="scale(0.015625)"/>
      <path id="DejaVuSans-6f" d="M 1959 3097 
Q 1497 3097 1228 2736 
Q 959 2375 959 1747 
Q 959 1119 1226 758 
Q 1494 397 1959 397 
Q 2419 397 2687 759 
Q 2956 1122 2956 1747 
Q 2956 2369 2687 2733 
Q 2419 3097 1959 3097 
z
M 1959 3584 
Q 2709 3584 3137 3096 
Q 3566 2609 3566 1747 
Q 3566 888 3137 398 
Q 2709 -91 1959 -91 
Q 1206 -91 779 398 
Q 353 888 353 1747 
Q 353 2609 779 3096 
Q 1206 3584 1959 3584 
z
" transform="scale(0.015625)"/>
      <path id="DejaVuSans-64" d="M 2906 2969 
L 2906 4863 
L 3481 4863 
L 3481 0 
L 2906 0 
L 2906 525 
Q 2725 213 2448 61 
Q 2172 -91 1784 -91 
Q 1150 -91 751 415 
Q 353 922 353 1747 
Q 353 2572 751 3078 
Q 1150 3584 1784 3584 
Q 2172 3584 2448 3432 
Q 2725 3281 2906 2969 
z
M 947 1747 
Q 947 1113 1208 752 
Q 1469 391 1925 391 
Q 2381 391 2643 752 
Q 2906 1113 2906 1747 
Q 2906 2381 2643 2742 
Q 2381 3103 1925 3103 
Q 1469 3103 1208 2742 
Q 947 2381 947 1747 
z
" transform="scale(0.015625)"/>
      <path id="DejaVuSans-3a" d="M 750 794 
L 1409 794 
L 1409 0 
L 750 0 
L 750 794 
z
M 750 3309 
L 1409 3309 
L 1409 2516 
L 750 2516 
L 750 3309 
z
" transform="scale(0.015625)"/>
      <path id="DejaVuSans-20" transform="scale(0.015625)"/>
     </defs>
     <use xlink:href="#DejaVuSans-50"/>
     <use xlink:href="#DejaVuSans-65" transform="translate(56.677734 0)"/>
     <use xlink:href="#DejaVuSans-72" transform="translate(118.201172 0)"/>
     <use xlink:href="#DejaVuSans-69" transform="translate(159.314453 0)"/>
     <use xlink:href="#DejaVuSans-6f" transform="translate(187.097656 0)"/>
     <use xlink:href="#DejaVuSans-64" transform="translate(248.279297 0)"/>
     <use xlink:href="#DejaVuSans-6f" transform="translate(311.755859 0)"/>
     <use xlink:href="#DejaVuSans-3a" transform="translate(372.9375 0)"/>
     <use xlink:href="#DejaVuSans-20" transform="translate(406.628906 0)"/>
     <use xlink:href="#DejaVuSans-3c0" transform="translate(438.416016 0)"/>
    </g>
   </g>
   <g id="text_12">
    <!-- Asíntotas: x = π/2 + nπ -->
    <g style="fill: #6b7280" transform="translate(338.322213 83.385604) scale(0.09 -0.09)">
     <defs>
      <path id="DejaVuSans-41" d="M 2188 4044 
L 1331 1722 
L 3047 1722 
L 2188 4044 
z
M 1831 4666 
L 2547 4666 
L 4325 0 
L 3669 0 
L 3244 1197 
L 1141 1197 
L 716 0 
L 50 0 
L 1831 4666 
z
" transform="scale(0.015625)"/>
      <path id="DejaVuSans-73" d="M 2834 3397 
L 2834 2853 
Q 2591 2978 2328 3040 
Q 2066 3103 1784 3103 
Q 1356 3103 1142 2972 
Q 928 2841 928 2578 
Q 928 2378 1081 2264 
Q 1234 2150 1697 2047 
L 1894 2003 
Q 2506 1872 2764 1633 
Q 3022 1394 3022 966 
Q 3022 478 2636 193 
Q 2250 -91 1575 -91 
Q 1294 -91 989 -36 
Q 684 19 347 128 
L 347 722 
Q 666 556 975 473 
Q 1284 391 1588 391 
Q 1994 391 2212 530 
Q 2431 669 2431 922 
Q 2431 1156 2273 1281 
Q 2116 1406 1581 1522 
L 1381 1569 
Q 847 1681 609 1914 
Q 372 2147 372 2553 
Q 372 3047 722 3315 
Q 1072 3584 1716 3584 
Q 2034 3584 2315 3537 
Q 2597 3491 2834 3397 
z
" transform="scale(0.015625)"/>
      <path id="DejaVuSans-ed" d="M 1322 5119 
L 1944 5119 
L 926 3944 
L 447 3944 
L 1322 5119 
z
M 603 3500 
L 1178 3500 
L 1178 0 
L 603 0 
L 603 3500 
z
M 891 3584 
L 891 3584 
z
" transform="scale(0.015625)"/>
      <path id="DejaVuSans-6e" d="M 3513 2113 
L 3513 0 
L 2938 0 
L 2938 2094 
Q 2938 2591 2744 2837 
Q 2550 3084 2163 3084 
Q 1697 3084 1428 2787 
Q 1159 2491 1159 1978 
L 1159 0 
L 581 0 
L 581 3500 
L 1159 3500 
L 1159 2956 
Q 1366 3272 1645 3428 
Q 1925 3584 2291 3584 
Q 2894 3584 3203 3211 
Q 3513 2838 3513 2113 
z
" transform="scale(0.015625)"/>
      <path id="DejaVuSans-74" d="M 1172 4494 
L 1172 3500 
L 2356 3500 
L 2356 3053 
L 1172 3053 
L 1172 1153 
Q 1172 725 1289 603 
Q 1406 481 1766 481 
L 2356 481 
L 2356 0 
L 1766 0 
Q 1100 0 847 248 
Q 594 497 594 1153 
L 594 3053 
L 172 3053 
L 172 3500 
L 594 3500 
L 594 4494 
L 1172 4494 
z
" transform="scale(0.015625)"/>
      <path id="DejaVuSans-61" d="M 2194 1759 
Q 1497 1759 1228 1600 
Q 959 1441 959 1056 
Q 959 750 1161 570 
Q 1363 391 1709 391 
Q 2188 391 2477 730 
Q 2766 1069 2766 1631 
L 2766 1759 
L 2194 1759 
z
M 3341 1997 
L 3341 0 
L 2766 0 
L 2766 531 
Q 2569 213 2275 61 
Q 1981 -91 1556 -91 
Q 1019 -91 701 211 
Q 384 513 384 1019 
Q 384 1609 779 1909 
Q 1175 2209 1959 2209 
L 2766 2209 
L 2766 2266 
Q 2766 2663 2505 2880 
Q 2244 3097 1772 3097 
Q 1472 3097 1187 3025 
Q 903 2953 641 2809 
L 641 3341 
Q 956 3463 1253 3523 
Q 1550 3584 1831 3584 
Q 2591 3584 2966 3190 
Q 3341 2797 3341 1997 
z
" transform="scale(0.015625)"/>
      <path id="DejaVuSans-78" d="M 3513 3500 
L 2247 1797 
L 3578 0 
L 2900 0 
L 1881 1375 
L 863 0 
L 184 0 
L 1544 1831 
L 300 3500 
L 978 3500 
L 1906 2253 
L 2834 3500 
L 3513 3500 
z
" transform="scale(0.015625)"/>
      <path id="DejaVuSans-3d" d="M 678 2906 
L 4684 2906 
L 4684 2381 
L 678 2381 
L 678 2906 
z
M 678 1631 
L 4684 1631 
L 4684 1100 
L 678 1100 
L 678 1631 
z
" transform="scale(0.015625)"/>
      <path id="DejaVuSans-2f" d="M 1625 4666 
L 2156 4666 
L 531 -594 
L 0 -594 
L 1625 4666 
z
" transform="scale(0.015625)"/>
      <path id="DejaVuSans-2b" d="M 2944 4013 
L 2944 2272 
L 4684 2272 
L 4684 1741 
L 2944 1741 
L 2944 0 
L 2419 0 
L 2419 1741 
L 678 1741 
L 678 2272 
L 2419 2272 
L 2419 4013 
L 2944 4013 
z
" transform="scale(0.015625)"/>
     </defs>
     <use xlink:href="#DejaVuSans-41"/>
     <use xlink:href="#DejaVuSans-73" transform="translate(68.408203 0)"/>
     <use xlink:href="#DejaVuSans-ed" transform="translate(120.507812 0)"/>
     <use xlink:href="#DejaVuSans-6e" transform="translate(148.291016 0)"/>
     <use xlink:href="#DejaVuSans-74" transform="translate(211.669922 0)"/>
     <use xlink:href="#DejaVuSans-6f" transform="translate(250.878906 0)"/>
     <use xlink:href="#DejaVuSans-74" transform="translate(312.060547 0)"/>
     <use xlink:href="#DejaVuSans-61" transform="translate(351.269531 0)"/>
     <use xlink:href="#DejaVuSans-73" transform="translate(412.548828 0)"/>
     <use xlink:href="#DejaVuSans-3a" transform="translate(464.648438 0)"/>
     <use xlink:href="#DejaVuSans-20" transform="translate(498.339844 0)"/>
     <use xlink:href="#DejaVuSans-78" transform="translate(530.126953 0)"/>
     <use xlink:href="#DejaVuSans-20" transform="translate(589.306641 0)"/>
     <use xlink:href="#DejaVuSans-3d" transform="translate(621.09375 0)"/>
     <use xlink:href="#DejaVuSans-20" transform="translate(704.882812 0)"/>
     <use xlink:href="#DejaVuSans-3c0" transform="translate(736.669922 0)"/>
     <use xlink:href="#DejaVuSans-2f" transform="translate(796.875 0)"/>
     <use xlink:href="#DejaVuSans-32" transform="translate(830.566406 0)"/>
     <use xlink:href="#DejaVuSans-20" transform="translate(894.189453 0)"/>
     <use xlink:href="#DejaVuSans-2b" transform="translate(925.976562 0)"/>
     <use xlink:href="#DejaVuSans-20" transform="translate(1009.765625 0)"/>
     <use xlink:href="#DejaVuSans-6e" transform="translate(1041.552734 0)"/>
     <use xlink:href="#DejaVuSans-3c0" transform="translate(1104.931641 0)"/>
    </g>
   </g>
   <g id="text_13">
    <!-- $y = \tan(x) = \frac{\sin x}{\cos x}$ -->
    <g style="fill: #dc2626" transform="translate(204.96406 38.19923) scale(0.11 -0.11)">
     <defs>
      <path id="DejaVuSans-Oblique-79" d="M 1588 -325 
Q 1188 -997 936 -1164 
Q 684 -1331 294 -1331 
L -159 -1331 
L -63 -850 
L 269 -850 
Q 509 -850 678 -719 
Q 847 -588 1056 -206 
L 1234 128 
L 459 3500 
L 1069 3500 
L 1650 819 
L 3256 3500 
L 3859 3500 
L 1588 -325 
z
" transform="scale(0.015625)"/>
      <path id="DejaVuSans-28" d="M 1984 4856 
Q 1566 4138 1362 3434 
Q 1159 2731 1159 2009 
Q 1159 1288 1364 580 
Q 1569 -128 1984 -844 
L 1484 -844 
Q 1016 -109 783 600 
Q 550 1309 550 2009 
Q 550 2706 781 3412 
Q 1013 4119 1484 4856 
L 1984 4856 
z
" transform="scale(0.015625)"/>
      <path id="DejaVuSans-Oblique-78" d="M 3841 3500 
L 2234 1784 
L 3219 0 
L 2559 0 
L 1819 1388 
L 531 0 
L -166 0 
L 1556 1844 
L 641 3500 
L 1300 3500 
L 1972 2234 
L 3144 3500 
L 3841 3500 
z
" transform="scale(0.015625)"/>
      <path id="DejaVuSans-29" d="M 513 4856 
L 1013 4856 
Q 1481 4119 1714 3412 
Q 1947 2706 1947 2009 
Q 1947 1309 1714 600 
Q 1481 -109 1013 -844 
L 513 -844 
Q 928 -128 1133 580 
Q 1338 1288 1338 2009 
Q 1338 2731 1133 3434 
Q 928 4138 513 4856 
z
" transform="scale(0.015625)"/>
      <path id="DejaVuSans-63" d="M 3122 3366 
L 3122 2828 
Q 2878 2963 2633 3030 
Q 2388 3097 2138 3097 
Q 1578 3097 1268 2742 
Q 959 2388 959 1747 
Q 959 1106 1268 751 
Q 1578 397 2138 397 
Q 2388 397 2633 464 
Q 2878 531 3122 666 
L 3122 134 
Q 2881 22 2623 -34 
Q 2366 -91 2075 -91 
Q 1284 -91 818 406 
Q 353 903 353 1747 
Q 353 2603 823 3093 
Q 1294 3584 2113 3584 
Q 2378 3584 2631 3529 
Q 2884 3475 3122 3366 
z
" transform="scale(0.015625)"/>
     </defs>
     <use xlink:href="#DejaVuSans-Oblique-79" transform="translate(0 0.01875)"/>
     <use xlink:href="#DejaVuSans-3d" transform="translate(78.662109 0.01875)"/>
     <use xlink:href="#DejaVuSans-74" transform="translate(181.933594 0.01875)"/>
     <use xlink:href="#DejaVuSans-61" transform="translate(221.142578 0.01875)"/>
     <use xlink:href="#DejaVuSans-6e" transform="translate(282.421875 0.01875)"/>
     <use xlink:href="#DejaVuSans-28" transform="translate(345.800781 0.01875)"/>
     <use xlink:href="#DejaVuSans-Oblique-78" transform="translate(384.814453 0.01875)"/>
     <use xlink:href="#DejaVuSans-29" transform="translate(443.994141 0.01875)"/>
     <use xlink:href="#DejaVuSans-3d" transform="translate(502.490234 0.01875)"/>
     <use xlink:href="#DejaVuSans-73" transform="translate(614.761719 44.810938) scale(0.7)"/>
     <use xlink:href="#DejaVuSans-69" transform="translate(651.231445 44.810938) scale(0.7)"/>
     <use xlink:href="#DejaVuSans-6e" transform="translate(670.679688 44.810938) scale(0.7)"/>
     <use xlink:href="#DejaVuSans-Oblique-78" transform="translate(726.409895 44.810938) scale(0.7)"/>
     <use xlink:href="#DejaVuSans-63" transform="translate(605.761719 -26.634375) scale(0.7)"/>
     <use xlink:href="#DejaVuSans-6f" transform="translate(644.248047 -26.634375) scale(0.7)"/>
     <use xlink:href="#DejaVuSans-73" transform="translate(687.075195 -26.634375) scale(0.7)"/>
     <use xlink:href="#DejaVuSans-Oblique-78" transform="translate(734.909895 -26.634375) scale(0.7)"/>
     <path d="M 605.761719 18.815625 
L 605.761719 25.065625 
L 776.335677 25.065625 
L 776.335677 18.815625 
L 605.761719 18.815625 
z
"/>
    </g>
   </g>
  </g>
  <g id="axes_2">
   <g id="patch_5">
    <path d="M 570.690385 313.764062 
L 1003.627254 313.764062 
L 1003.627254 44.19923 
L 570.690385 44.19923 
z
" style="fill: #ffffff"/>
   </g>
   <g id="matplotlib.axis_3">
    <g id="xtick_6">
     <g id="line2d_23">
      <g>
       <use xlink:href="#m9cf5b85703" x="570.690385" y="313.764062" style="fill: #1f2937; stroke: #1f2937; stroke-width: 0.8"/>
      </g>
     </g>
     <g id="text_14">
      <!-- -2π -->
      <g style="fill: #1f2937" transform="translate(563.494604 327.602656) scale(0.09 -0.09)">
       <use xlink:href="#DejaVuSans-2d"/>
       <use xlink:href="#DejaVuSans-32" transform="translate(36.083984 0)"/>
       <use xlink:href="#DejaVuSans-3c0" transform="translate(99.707031 0)"/>
      </g>
     </g>
    </g>
    <g id="xtick_7">
     <g id="line2d_24">
      <g>
       <use xlink:href="#m9cf5b85703" x="678.924602" y="313.764062" style="fill: #1f2937; stroke: #1f2937; stroke-width: 0.8"/>
      </g>
     </g>
     <g id="text_15">
      <!-- -π -->
      <g style="fill: #1f2937" transform="translate(674.591946 327.602656) scale(0.09 -0.09)">
       <use xlink:href="#DejaVuSans-2d"/>
       <use xlink:href="#DejaVuSans-3c0" transform="translate(36.083984 0)"/>
      </g>
     </g>
    </g>
    <g id="xtick_8">
     <g id="line2d_25">
      <g>
       <use xlink:href="#m9cf5b85703" x="787.15882" y="313.764062" style="fill: #1f2937; stroke: #1f2937; stroke-width: 0.8"/>
      </g>
     </g>
     <g id="text_16">
      <!-- 0 -->
      <g style="fill: #1f2937" transform="translate(784.295695 327.602656) scale(0.09 -0.09)">
       <use xlink:href="#DejaVuSans-30"/>
      </g>
     </g>
    </g>
    <g id="xtick_9">
     <g id="line2d_26">
      <g>
       <use xlink:href="#m9cf5b85703" x="895.393037" y="313.764062" style="fill: #1f2937; stroke: #1f2937; stroke-width: 0.8"/>
      </g>
     </g>
     <g id="text_17">
      <!-- π -->
      <g style="fill: #1f2937" transform="translate(892.683896 327.602656) scale(0.09 -0.09)">
       <use xlink:href="#DejaVuSans-3c0"/>
      </g>
     </g>
    </g>
    <g id="xtick_10">
     <g id="line2d_27">
      <g>
       <use xlink:href="#m9cf5b85703" x="1003.627254" y="313.764062" style="fill: #1f2937; stroke: #1f2937; stroke-width: 0.8"/>
      </g>
     </g>
     <g id="text_18">
      <!-- 2π -->
      <g style="fill: #1f2937" transform="translate(998.054989 327.602656) scale(0.09 -0.09)">
       <use xlink:href="#DejaVuSans-32"/>
       <use xlink:href="#DejaVuSans-3c0" transform="translate(63.623047 0)"/>
      </g>
     </g>
    </g>
   </g>
   <g id="matplotlib.axis_4">
    <g id="ytick_6">
     <g id="line2d_28">
      <g>
       <use xlink:href="#mdd1a6b2c3a" x="570.690385" y="286.807579" style="fill: #1f2937; stroke: #1f2937; stroke-width: 0.8"/>
      </g>
     </g>
     <g id="text_19">
      <!-- −4 -->
      <g style="fill: #1f2937" transform="translate(545.99976 291.366642) scale(0.12 -0.12)">
       <use xlink:href="#DejaVuSans-2212"/>
       <use xlink:href="#DejaVuSans-34" transform="translate(83.789062 0)"/>
      </g>
     </g>
    </g>
    <g id="ytick_7">
     <g id="line2d_29">
      <g>
       <use xlink:href="#mdd1a6b2c3a" x="570.690385" y="232.894613" style="fill: #1f2937; stroke: #1f2937; stroke-width: 0.8"/>
      </g>
     </g>
     <g id="text_20">
      <!-- −2 -->
      <g style="fill: #1f2937" transform="translate(545.99976 237.453675) scale(0.12 -0.12)">
       <use xlink:href="#DejaVuSans-2212"/>
       <use xlink:href="#DejaVuSans-32" transform="translate(83.789062 0)"/>
      </g>
     </g>
    </g>
    <g id="ytick_8">
     <g id="line2d_30">
      <g>
       <use xlink:href="#mdd1a6b2c3a" x="570.690385" y="178.981646" style="fill: #1f2937; stroke: #1f2937; stroke-width: 0.8"/>
      </g>
     </g>
     <g id="text_21">
      <!-- 0 -->
      <g style="fill: #1f2937" transform="translate(556.055385 183.540709) scale(0.12 -0.12)">
       <use xlink:href="#DejaVuSans-30"/>
      </g>
     </g>
    </g>
    <g id="ytick_9">
     <g id="line2d_31">
      <g>
       <use xlink:href="#mdd1a6b2c3a" x="570.690385" y="125.06868" style="fill: #1f2937; stroke: #1f2937; stroke-width: 0.8"/>
      </g>
     </g>
     <g id="text_22">
      <!-- 2 -->
      <g style="fill: #1f2937" transform="translate(556.055385 129.627742) scale(0.12 -0.12)">
       <use xlink:href="#DejaVuSans-32"/>
      </g>
     </g>
    </g>
    <g id="ytick_10">
     <g id="line2d_32">
      <g>
       <use xlink:href="#mdd1a6b2c3a" x="570.690385" y="71.155713" style="fill: #1f2937; stroke: #1f2937; stroke-width: 0.8"/>
      </g>
     </g>
     <g id="text_23">
      <!-- 4 -->
      <g style="fill: #1f2937" transform="translate(556.055385 75.714776) scale(0.12 -0.12)">
       <use xlink:href="#DejaVuSans-34"/>
      </g>
     </g>
    </g>
   </g>
   <g id="line2d_33">
    <path d="M 575.819923 -1 
L 576.439185 18.936119 
L 577.520042 44.78632 
L 578.600898 63.650678 
L 579.681754 78.048879 
L 580.76261 89.419104 
L 581.843466 98.642078 
L 582.924322 106.287327 
L 584.005178 112.739489 
L 585.626462 120.748187 
L 587.247746 127.277814 
L 588.86903 132.725544 
L 590.490314 137.358633 
L 592.111598 141.363589 
L 593.732882 144.874596 
L 595.894594 148.955147 
L 598.056306 152.501912 
L 600.218019 155.636335 
L 602.920159 159.107648 
L 605.622299 162.198711 
L 608.864867 165.533682 
L 612.647863 169.051734 
L 616.971287 172.742351 
L 622.915996 177.500182 
L 633.184128 185.668105 
L 637.507552 189.394618 
L 641.290548 192.961908 
L 644.533117 196.357174 
L 647.235257 199.516029 
L 649.396969 202.326957 
L 651.558681 205.46138 
L 653.720393 209.008146 
L 655.882105 213.088697 
L 657.503389 216.599703 
L 659.124673 220.60466 
L 660.745957 225.237748 
L 662.367241 230.685479 
L 663.988525 237.215106 
L 665.069382 242.357738 
L 666.150238 248.319705 
L 667.231094 255.328746 
L 668.31195 263.705327 
L 669.392806 273.915211 
L 670.473662 286.662373 
L 671.554518 303.063685 
L 672.635374 325.003705 
L 673.71623 355.931253 
L 674.256658 376.716511 
L 674.797086 402.907538 
L 675.337514 436.947689 
L 675.877942 483.013957 
L 676.41837 548.886121 
L 676.958798 650.899043 
L 677.195457 729.39952 
L 677.195457 729.39952 
" clip-path="url(#pb88cca63fb)" style="fill: none; stroke: #7c3aed; stroke-width: 2; stroke-linecap: square"/>
   </g>
   <g id="line2d_34">
    <path d="M 684.05414 -1 
L 684.673403 18.936119 
L 685.754259 44.78632 
L 686.835115 63.650678 
L 687.915971 78.048879 
L 688.996827 89.419104 
L 690.077683 98.642078 
L 691.158539 106.287327 
L 692.239395 112.739489 
L 693.860679 120.748187 
L 695.481963 127.277814 
L 697.103247 132.725544 
L 698.724531 137.358633 
L 700.345816 141.363589 
L 701.9671 144.874596 
L 704.128812 148.955147 
L 706.290524 152.501912 
L 708.452236 155.636335 
L 711.154376 159.107648 
L 713.856516 162.198711 
L 717.099084 165.533682 
L 720.88208 169.051734 
L 725.205505 172.742351 
L 731.150213 177.500182 
L 741.418345 185.668105 
L 745.74177 189.394618 
L 749.524766 192.961908 
L 752.767334 196.357174 
L 755.469474 199.516029 
L 757.631186 202.326957 
L 759.792898 205.46138 
L 761.95461 209.008146 
L 764.116322 213.088697 
L 765.737607 216.599703 
L 767.358891 220.60466 
L 768.980175 225.237748 
L 770.601459 230.685479 
L 772.222743 237.215106 
L 773.303599 242.357738 
L 774.384455 248.319705 
L 775.465311 255.328746 
L 776.546167 263.705327 
L 777.627023 273.915211 
L 778.707879 286.662373 
L 779.788735 303.063685 
L 780.869591 325.003705 
L 781.950447 355.931253 
L 782.490875 376.716511 
L 783.031303 402.907538 
L 783.571731 436.947689 
L 784.112159 483.013957 
L 784.652587 548.886121 
L 785.193015 650.899043 
L 785.429674 729.39952 
L 785.429674 729.39952 
" clip-path="url(#pb88cca63fb)" style="fill: none; stroke: #7c3aed; stroke-width: 2; stroke-linecap: square"/>
   </g>
   <g id="line2d_35">
    <path d="M 792.288357 -1 
L 792.90762 18.936119 
L 793.988476 44.78632 
L 795.069332 63.650678 
L 796.150188 78.048879 
L 797.231044 89.419104 
L 798.3119 98.642078 
L 799.392756 106.287327 
L 800.473612 112.739489 
L 802.094897 120.748187 
L 803.716181 127.277814 
L 805.337465 132.725544 
L 806.958749 137.358633 
L 808.580033 141.363589 
L 810.201317 144.874596 
L 812.363029 148.955147 
L 814.524741 152.501912 
L 816.686453 155.636335 
L 819.388593 159.107648 
L 822.090733 162.198711 
L 825.333302 165.533682 
L 829.116298 169.051734 
L 833.439722 172.742351 
L 839.38443 177.500182 
L 849.652563 185.668105 
L 853.975987 189.394618 
L 857.758983 192.961908 
L 861.001551 196.357174 
L 863.703691 199.516029 
L 865.865403 202.326957 
L 868.027116 205.46138 
L 870.188828 209.008146 
L 872.35054 213.088697 
L 873.971824 216.599703 
L 875.593108 220.60466 
L 877.214392 225.237748 
L 878.835676 230.685479 
L 880.45696 237.215106 
L 881.537816 242.357738 
L 882.618672 248.319705 
L 883.699528 255.328746 
L 884.780384 263.705327 
L 885.86124 273.915211 
L 886.942096 286.662373 
L 888.022952 303.063685 
L 889.103809 325.003705 
L 890.184665 355.931253 
L 890.725093 376.716511 
L 891.265521 402.907538 
L 891.805949 436.947689 
L 892.346377 483.013957 
L 892.886805 548.886121 
L 893.427233 650.899043 
L 893.663891 729.39952 
L 893.663891 729.39952 
" clip-path="url(#pb88cca63fb)" style="fill: none; stroke: #7c3aed; stroke-width: 2; stroke-linecap: square"/>
   </g>
   <g id="line2d_36">
    <path d="M 900.522575 -1 
L 901.141837 18.936119 
L 902.222694 44.78632 
L 903.30355 63.650678 
L 904.384406 78.048879 
L 905.465262 89.419104 
L 906.546118 98.642078 
L 907.626974 106.287327 
L 908.70783 112.739489 
L 910.329114 120.748187 
L 911.950398 127.277814 
L 913.571682 132.725544 
L 915.192966 137.358633 
L 916.81425 141.363589 
L 918.435534 144.874596 
L 920.597246 148.955147 
L 922.758958 152.501912 
L 924.920671 155.636335 
L 927.622811 159.107648 
L 930.324951 162.198711 
L 933.567519 165.533682 
L 937.350515 169.051734 
L 941.673939 172.742351 
L 947.618648 177.500182 
L 957.88678 185.668105 
L 962.210204 189.394618 
L 965.9932 192.961908 
L 969.235769 196.357174 
L 971.937909 199.516029 
L 974.099621 202.326957 
L 976.261333 205.46138 
L 978.423045 209.008146 
L 980.584757 213.088697 
L 982.206041 216.599703 
L 983.827325 220.60466 
L 985.448609 225.237748 
L 987.069893 230.685479 
L 988.691177 237.215106 
L 989.772034 242.357738 
L 990.85289 248.319705 
L 991.933746 255.328746 
L 993.014602 263.705327 
L 994.095458 273.915211 
L 995.176314 286.662373 
L 996.25717 303.063685 
L 997.338026 325.003705 
L 998.418882 355.931253 
L 998.95931 376.716511 
L 999.499738 402.907538 
L 1000.040166 436.947689 
L 1000.580594 483.013957 
L 1001.121022 548.886121 
L 1001.66145 650.899043 
L 1001.898109 729.39952 
L 1001.898109 729.39952 
" clip-path="url(#pb88cca63fb)" style="fill: none; stroke: #7c3aed; stroke-width: 2; stroke-linecap: square"/>
   </g>
   <g id="line2d_37">
    <path d="M 1008.756792 -1 
L 1009.376055 18.936119 
L 1010.456911 44.78632 
L 1011.537767 63.650678 
L 1012.618623 78.048879 
L 1013.699479 89.419104 
L 1014.780335 98.642078 
L 1015.861191 106.287327 
L 1017.39952 115.165616 
L 1017.39952 115.165616 
" clip-path="url(#pb88cca63fb)" style="fill: none; stroke: #7c3aed; stroke-width: 2; stroke-linecap: square"/>
   </g>
   <g id="line2d_38">
    <path d="M 570.690385 313.764062 
L 570.690385 44.19923 
" clip-path="url(#pb88cca63fb)" style="fill: none; stroke-dasharray: 3.7,1.6; stroke-dashoffset: 0; stroke: #d1d5db"/>
   </g>
   <g id="line2d_39">
    <path d="M 678.924602 313.764062 
L 678.924602 44.19923 
" clip-path="url(#pb88cca63fb)" style="fill: none; stroke-dasharray: 3.7,1.6; stroke-dashoffset: 0; stroke: #d1d5db"/>
   </g>
   <g id="line2d_40">
    <path d="M 787.15882 313.764062 
L 787.15882 44.19923 
" clip-path="url(#pb88cca63fb)" style="fill: none; stroke-dasharray: 3.7,1.6; stroke-dashoffset: 0; stroke: #d1d5db"/>
   </g>
   <g id="line2d_41">
    <path d="M 895.393037 313.764062 
L 895.393037 44.19923 
" clip-path="url(#pb88cca63fb)" style="fill: none; stroke-dasharray: 3.7,1.6; stroke-dashoffset: 0; stroke: #d1d5db"/>
   </g>
   <g id="line2d_42">
    <path d="M 1003.627254 313.764062 
L 1003.627254 44.19923 
" clip-path="url(#pb88cca63fb)" style="fill: none; stroke-dasharray: 3.7,1.6; stroke-dashoffset: 0; stroke: #d1d5db"/>
   </g>
   <g id="line2d_43">
    <path d="M 570.690385 178.981646 
L 1003.627254 178.981646 
" clip-path="url(#pb88cca63fb)" style="fill: none; stroke: #9ca3af; stroke-linecap: square"/>
   </g>
   <g id="line2d_44">
    <path d="M 787.15882 313.764062 
L 787.15882 44.19923 
" clip-path="url(#pb88cca63fb)" style="fill: none; stroke-dasharray: 3.7,1.6; stroke-dashoffset: 0; stroke: #d1d5db"/>
   </g>
   <g id="patch_6">
    <path d="M 570.690385 313.764062 
L 570.690385 44.19923 
" style="fill: none; stroke: #000000; stroke-width: 1.5; stroke-linejoin: miter; stroke-linecap: square"/>
   </g>
   <g id="patch_7">
    <path d="M 570.690385 313.764062 
L 1003.627254 313.764062 
" style="fill: none; stroke: #000000; stroke-width: 1.5; stroke-linejoin: miter; stroke-linecap: square"/>
   </g>
   <g id="text_24">
    <!-- Periodo: π -->
    <g style="fill: #6b7280" transform="translate(937.104161 64.516065) scale(0.09 -0.09)">
     <use xlink:href="#DejaVuSans-50"/>
     <use xlink:href="#DejaVuSans-65" transform="translate(56.677734 0)"/>
     <use xlink:href="#DejaVuSans-72" transform="translate(118.201172 0)"/>
     <use xlink:href="#DejaVuSans-69" transform="translate(159.314453 0)"/>
     <use xlink:href="#DejaVuSans-6f" transform="translate(187.097656 0)"/>
     <use xlink:href="#DejaVuSans-64" transform="translate(248.279297 0)"/>
     <use xlink:href="#DejaVuSans-6f" transform="translate(311.755859 0)"/>
     <use xlink:href="#DejaVuSans-3a" transform="translate(372.9375 0)"/>
     <use xlink:href="#DejaVuSans-20" transform="translate(406.628906 0)"/>
     <use xlink:href="#DejaVuSans-3c0" transform="translate(438.416016 0)"/>
    </g>
   </g>
   <g id="text_25">
    <!-- Asíntotas: x = nπ -->
    <g style="fill: #6b7280" transform="translate(904.560723 83.385604) scale(0.09 -0.09)">
     <use xlink:href="#DejaVuSans-41"/>
     <use xlink:href="#DejaVuSans-73" transform="translate(68.408203 0)"/>
     <use xlink:href="#DejaVuSans-ed" transform="translate(120.507812 0)"/>
     <use xlink:href="#DejaVuSans-6e" transform="translate(148.291016 0)"/>
     <use xlink:href="#DejaVuSans-74" transform="translate(211.669922 0)"/>
     <use xlink:href="#DejaVuSans-6f" transform="translate(250.878906 0)"/>
     <use xlink:href="#DejaVuSans-74" transform="translate(312.060547 0)"/>
     <use xlink:href="#DejaVuSans-61" transform="translate(351.269531 0)"/>
     <use xlink:href="#DejaVuSans-73" transform="translate(412.548828 0)"/>
     <use xlink:href="#DejaVuSans-3a" transform="translate(464.648438 0)"/>
     <use xlink:href="#DejaVuSans-20" transform="translate(498.339844 0)"/>
     <use xlink:href="#DejaVuSans-78" transform="translate(530.126953 0)"/>
     <use xlink:href="#DejaVuSans-20" transform="translate(589.306641 0)"/>
     <use xlink:href="#DejaVuSans-3d" transform="translate(621.09375 0)"/>
     <use xlink:href="#DejaVuSans-20" transform="translate(704.882812 0)"/>
     <use xlink:href="#DejaVuSans-6e" transform="translate(736.669922 0)"/>
     <use xlink:href="#DejaVuSans-3c0" transform="translate(800.048828 0)"/>
    </g>
   </g>
   <g id="text_26">
    <!-- $y = \cot(x) = \frac{\cos x}{\sin x}$ -->
    <g style="fill: #7c3aed" transform="translate(744.20382 38.19923) scale(0.11 -0.11)">
     <use xlink:href="#DejaVuSans-Oblique-79" transform="translate(0 0.007812)"/>
     <use xlink:href="#DejaVuSans-3d" transform="translate(78.662109 0.007812)"/>
     <use xlink:href="#DejaVuSans-63" transform="translate(181.933594 0.007812)"/>
     <use xlink:href="#DejaVuSans-6f" transform="translate(236.914062 0.007812)"/>
     <use xlink:href="#DejaVuSans-74" transform="translate(298.095703 0.007812)"/>
     <use xlink:href="#DejaVuSans-28" transform="translate(337.304688 0.007812)"/>
     <use xlink:href="#DejaVuSans-Oblique-78" transform="translate(376.318359 0.007812)"/>
     <use xlink:href="#DejaVuSans-29" transform="translate(435.498047 0.007812)"/>
     <use xlink:href="#DejaVuSans-3d" transform="translate(493.994141 0.007812)"/>
     <use xlink:href="#DejaVuSans-63" transform="translate(597.265625 44.8) scale(0.7)"/>
     <use xlink:href="#DejaVuSans-6f" transform="translate(635.751953 44.8) scale(0.7)"/>
     <use xlink:href="#DejaVuSans-73" transform="translate(678.579102 44.8) scale(0.7)"/>
     <use xlink:href="#DejaVuSans-Oblique-78" transform="translate(726.413802 44.8) scale(0.7)"/>
     <use xlink:href="#DejaVuSans-73" transform="translate(606.265625 -40.634375) scale(0.7)"/>
     <use xlink:href="#DejaVuSans-69" transform="translate(642.735352 -40.634375) scale(0.7)"/>
     <use xlink:href="#DejaVuSans-6e" transform="translate(662.183594 -40.634375) scale(0.7)"/>
     <use xlink:href="#DejaVuSans-Oblique-78" transform="translate(717.913802 -40.634375) scale(0.7)"/>
     <path d="M 597.265625 18.804688 
L 597.265625 25.054688 
L 767.839583 25.054688 
L 767.839583 18.804688 
L 597.265625 18.804688 
z
"/>
    </g>
   </g>
  </g>
  <g id="axes_3">
   <g id="patch_8">
    <path d="M 31.890625 705.489207 
L 464.827494 705.489207 
L 464.827494 435.924375 
L 31.890625 435.924375 
z
" style="fill: #ffffff"/>
   </g>
   <g id="matplotlib.axis_5">
    <g id="xtick_11">
     <g id="line2d_45">
      <g>
       <use xlink:href="#m9cf5b85703" x="31.890625" y="705.489207" style="fill: #1f2937; stroke: #1f2937; stroke-width: 0.8"/>
      </g>
     </g>
     <g id="text_27">
      <!-- -2π -->
      <g style="fill: #1f2937" transform="translate(24.694844 719.327801) scale(0.09 -0.09)">
       <use xlink:href="#DejaVuSans-2d"/>
       <use xlink:href="#DejaVuSans-32" transform="translate(36.083984 0)"/>
       <use xlink:href="#DejaVuSans-3c0" transform="translate(99.707031 0)"/>
      </g>
     </g>
    </g>
    <g id="xtick_12">
     <g id="line2d_46">
      <g>
       <use xlink:href="#m9cf5b85703" x="140.124842" y="705.489207" style="fill: #1f2937; stroke: #1f2937; stroke-width: 0.8"/>
      </g>
     </g>
     <g id="text_28">
      <!-- -π -->
      <g style="fill: #1f2937" transform="translate(135.792186 719.327801) scale(0.09 -0.09)">
       <use xlink:href="#DejaVuSans-2d"/>
       <use xlink:href="#DejaVuSans-3c0" transform="translate(36.083984 0)"/>
      </g>
     </g>
    </g>
    <g id="xtick_13">
     <g id="line2d_47">
      <g>
       <use xlink:href="#m9cf5b85703" x="248.35906" y="705.489207" style="fill: #1f2937; stroke: #1f2937; stroke-width: 0.8"/>
      </g>
     </g>
     <g id="text_29">
      <!-- 0 -->
      <g style="fill: #1f2937" transform="translate(245.495935 719.327801) scale(0.09 -0.09)">
       <use xlink:href="#DejaVuSans-30"/>
      </g>
     </g>
    </g>
    <g id="xtick_14">
     <g id="line2d_48">
      <g>
       <use xlink:href="#m9cf5b85703" x="356.593277" y="705.489207" style="fill: #1f2937; stroke: #1f2937; stroke-width: 0.8"/>
      </g>
     </g>
     <g id="text_30">
      <!-- π -->
      <g style="fill: #1f2937" transform="translate(353.884136 719.327801) scale(0.09 -0.09)">
       <use xlink:href="#DejaVuSans-3c0"/>
      </g>
     </g>
    </g>
    <g id="xtick_15">
     <g id="line2d_49">
      <g>
       <use xlink:href="#m9cf5b85703" x="464.827494" y="705.489207" style="fill: #1f2937; stroke: #1f2937; stroke-width: 0.8"/>
      </g>
     </g>
     <g id="text_31">
      <!-- 2π -->
      <g style="fill: #1f2937" transform="translate(459.255229 719.327801) scale(0.09 -0.09)">
       <use xlink:href="#DejaVuSans-32"/>
       <use xlink:href="#DejaVuSans-3c0" transform="translate(63.623047 0)"/>
      </g>
     </g>
    </g>
   </g>
   <g id="matplotlib.axis_6">
    <g id="ytick_11">
     <g id="line2d_50">
      <g>
       <use xlink:href="#mdd1a6b2c3a" x="31.890625" y="678.532724" style="fill: #1f2937; stroke: #1f2937; stroke-width: 0.8"/>
      </g>
     </g>
     <g id="text_32">
      <!-- −4 -->
      <g style="fill: #1f2937" transform="translate(7.2 683.091787) scale(0.12 -0.12)">
       <use xlink:href="#DejaVuSans-2212"/>
       <use xlink:href="#DejaVuSans-34" transform="translate(83.789062 0)"/>
      </g>
     </g>
    </g>
    <g id="ytick_12">
     <g id="line2d_51">
      <g>
       <use xlink:href="#mdd1a6b2c3a" x="31.890625" y="624.619758" style="fill: #1f2937; stroke: #1f2937; stroke-width: 0.8"/>
      </g>
     </g>
     <g id="text_33">
      <!-- −2 -->
      <g style="fill: #1f2937" transform="translate(7.2 629.17882) scale(0.12 -0.12)">
       <use xlink:href="#DejaVuSans-2212"/>
       <use xlink:href="#DejaVuSans-32" transform="translate(83.789062 0)"/>
      </g>
     </g>
    </g>
    <g id="ytick_13">
     <g id="line2d_52">
      <g>
       <use xlink:href="#mdd1a6b2c3a" x="31.890625" y="570.706791" style="fill: #1f2937; stroke: #1f2937; stroke-width: 0.8"/>
      </g>
     </g>
     <g id="text_34">
      <!-- 0 -->
      <g style="fill: #1f2937" transform="translate(17.255625 575.265854) scale(0.12 -0.12)">
       <use xlink:href="#DejaVuSans-30"/>
      </g>
     </g>
    </g>
    <g id="ytick_14">
     <g id="line2d_53">
      <g>
       <use xlink:href="#mdd1a6b2c3a" x="31.890625" y="516.793825" style="fill: #1f2937; stroke: #1f2937; stroke-width: 0.8"/>
      </g>
     </g>
     <g id="text_35">
      <!-- 2 -->
      <g style="fill: #1f2937" transform="translate(17.255625 521.352887) scale(0.12 -0.12)">
       <use xlink:href="#DejaVuSans-32"/>
      </g>
     </g>
    </g>
    <g id="ytick_15">
     <g id="line2d_54">
      <g>
       <use xlink:href="#mdd1a6b2c3a" x="31.890625" y="462.880858" style="fill: #1f2937; stroke: #1f2937; stroke-width: 0.8"/>
      </g>
     </g>
     <g id="text_36">
      <!-- 4 -->
      <g style="fill: #1f2937" transform="translate(17.255625 467.439921) scale(0.12 -0.12)">
       <use xlink:href="#DejaVuSans-34"/>
      </g>
     </g>
    </g>
   </g>
   <g id="line2d_55">
    <path d="M -1 524.052192 
L 0.275586 526.347479 
L 1.89687 528.873044 
L 3.518154 531.043428 
L 5.139438 532.920176 
L 7.30115 535.046512 
L 9.462862 536.820026 
L 11.624574 538.304005 
L 13.786286 539.545969 
L 16.488426 540.812309 
L 19.190566 541.809006 
L 21.892707 542.573996 
L 24.594847 543.134373 
L 27.837415 543.562673 
L 31.079983 543.742844 
L 34.322551 543.683009 
L 37.565119 543.380485 
L 40.807687 542.821483 
L 43.509828 542.141079 
L 46.211968 541.240941 
L 48.914108 540.087844 
L 51.07582 538.952754 
L 53.237532 537.594928 
L 55.399244 535.972982 
L 57.560956 534.032179 
L 59.18224 532.324039 
L 60.803524 530.355302 
L 62.424808 528.074185 
L 64.046092 525.413411 
L 65.667377 522.284049 
L 67.288661 518.566155 
L 68.909945 514.094088 
L 69.990801 510.581472 
L 71.071657 506.5368 
L 72.152513 501.836035 
L 73.233369 496.31312 
L 74.314225 489.740554 
L 75.395081 481.798107 
L 76.475937 472.020249 
L 77.556793 459.703228 
L 78.637649 443.730399 
L 79.718505 422.217419 
L 80.258933 408.406998 
L 80.799361 391.715687 
L 81.339789 371.142945 
L 81.880217 345.164208 
L 82.420645 311.336146 
L 82.961073 265.481795 
L 83.501501 199.821401 
L 84.041929 98.020129 
L 84.340802 -1 
L 84.340802 -1 
" clip-path="url(#pfaedd23003)" style="fill: none; stroke: #f59e0b; stroke-width: 2; stroke-linecap: square"/>
   </g>
   <g id="line2d_56">
    <path d="M 91.897685 729.39952 
L 92.83739 707.582785 
L 93.918246 689.14616 
L 94.999102 675.177244 
L 96.079958 664.238075 
L 97.160814 655.448152 
L 98.24167 648.238178 
L 99.322526 642.22375 
L 100.403383 637.135945 
L 102.024667 630.83211 
L 103.645951 625.73227 
L 105.267235 621.533664 
L 106.888519 618.027714 
L 108.509803 615.066104 
L 110.131087 612.540539 
L 111.752371 610.370155 
L 113.373655 608.493407 
L 115.535367 606.367071 
L 117.697079 604.593556 
L 119.858791 603.109577 
L 122.020504 601.867614 
L 124.722644 600.601273 
L 127.424784 599.604576 
L 130.126924 598.839587 
L 132.829064 598.27921 
L 136.071632 597.850909 
L 139.3142 597.670738 
L 142.556768 597.730573 
L 145.799337 598.033097 
L 149.041905 598.592099 
L 151.744045 599.272504 
L 154.446185 600.172642 
L 157.148325 601.325738 
L 159.310037 602.460829 
L 161.471749 603.818655 
L 163.633461 605.4406 
L 165.795174 607.381403 
L 167.416458 609.089543 
L 169.037742 611.05828 
L 170.659026 613.339397 
L 172.28031 616.000171 
L 173.901594 619.129534 
L 175.522878 622.847427 
L 177.144162 627.319495 
L 178.225018 630.83211 
L 179.305874 634.876783 
L 180.38673 639.577547 
L 181.467586 645.100463 
L 182.548442 651.673029 
L 183.629298 659.615475 
L 184.710154 669.393334 
L 185.79101 681.710354 
L 186.871866 697.683184 
L 187.952723 719.196163 
L 188.351999 729.39952 
L 188.351999 729.39952 
" clip-path="url(#pfaedd23003)" style="fill: none; stroke: #f59e0b; stroke-width: 2; stroke-linecap: square"/>
   </g>
   <g id="line2d_57">
    <path d="M 195.908882 -1 
L 196.207755 98.020129 
L 196.748183 199.821401 
L 197.288611 265.481795 
L 197.829039 311.336146 
L 198.369467 345.164208 
L 198.909895 371.142945 
L 199.990751 408.406998 
L 201.071608 433.830797 
L 202.152464 452.267422 
L 203.23332 466.236339 
L 204.314176 477.175508 
L 205.395032 485.965431 
L 206.475888 493.175404 
L 207.556744 499.189833 
L 208.6376 504.277638 
L 210.258884 510.581472 
L 211.880168 515.681313 
L 213.501452 519.879919 
L 215.122736 523.385869 
L 216.74402 526.347479 
L 218.365304 528.873044 
L 219.986588 531.043428 
L 221.607872 532.920176 
L 223.769585 535.046512 
L 225.931297 536.820026 
L 228.093009 538.304005 
L 230.254721 539.545969 
L 232.956861 540.812309 
L 235.659001 541.809006 
L 238.361141 542.573996 
L 241.063281 543.134373 
L 244.30585 543.562673 
L 247.548418 543.742844 
L 250.790986 543.683009 
L 254.033554 543.380485 
L 257.276122 542.821483 
L 259.978262 542.141079 
L 262.680402 541.240941 
L 265.382542 540.087844 
L 267.544255 538.952754 
L 269.705967 537.594928 
L 271.867679 535.972982 
L 274.029391 534.032179 
L 275.650675 532.324039 
L 277.271959 530.355302 
L 278.893243 528.074185 
L 280.514527 525.413411 
L 282.135811 522.284049 
L 283.757095 518.566155 
L 285.378379 514.094088 
L 286.459235 510.581472 
L 287.540091 506.5368 
L 288.620948 501.836035 
L 289.701804 496.31312 
L 290.78266 489.740554 
L 291.863516 481.798107 
L 292.944372 472.020249 
L 294.025228 459.703228 
L 295.106084 443.730399 
L 296.18694 422.217419 
L 296.727368 408.406998 
L 297.267796 391.715687 
L 297.808224 371.142945 
L 298.348652 345.164208 
L 298.88908 311.336146 
L 299.429508 265.481795 
L 299.969936 199.821401 
L 300.510364 98.020129 
L 300.809237 -1 
L 300.809237 -1 
" clip-path="url(#pfaedd23003)" style="fill: none; stroke: #f59e0b; stroke-width: 2; stroke-linecap: square"/>
   </g>
   <g id="line2d_58">
    <path d="M 308.36612 729.39952 
L 309.305825 707.582785 
L 310.386681 689.14616 
L 311.467537 675.177244 
L 312.548393 664.238075 
L 313.629249 655.448152 
L 314.710105 648.238178 
L 315.790961 642.22375 
L 316.871817 637.135945 
L 318.493101 630.83211 
L 320.114385 625.73227 
L 321.735669 621.533664 
L 323.356954 618.027714 
L 324.978238 615.066104 
L 326.599522 612.540539 
L 328.220806 610.370155 
L 329.84209 608.493407 
L 332.003802 606.367071 
L 334.165514 604.593556 
L 336.327226 603.109577 
L 338.488938 601.867614 
L 341.191078 600.601273 
L 343.893218 599.604576 
L 346.595359 598.839587 
L 349.297499 598.27921 
L 352.540067 597.850909 
L 355.782635 597.670738 
L 359.025203 597.730573 
L 362.267771 598.033097 
L 365.510339 598.592099 
L 368.21248 599.272504 
L 370.91462 600.172642 
L 373.61676 601.325738 
L 375.778472 602.460829 
L 377.940184 603.818655 
L 380.101896 605.4406 
L 382.263608 607.381403 
L 383.884892 609.089543 
L 385.506176 611.05828 
L 387.12746 613.339397 
L 388.748745 616.000171 
L 390.370029 619.129534 
L 391.991313 622.847427 
L 393.612597 627.319495 
L 394.693453 630.83211 
L 395.774309 634.876783 
L 396.855165 639.577547 
L 397.936021 645.100463 
L 399.016877 651.673029 
L 400.097733 659.615475 
L 401.178589 669.393334 
L 402.259445 681.710354 
L 403.340301 697.683184 
L 404.421157 719.196163 
L 404.820434 729.39952 
L 404.820434 729.39952 
" clip-path="url(#pfaedd23003)" style="fill: none; stroke: #f59e0b; stroke-width: 2; stroke-linecap: square"/>
   </g>
   <g id="line2d_59">
    <path d="M 412.377317 -1 
L 412.67619 98.020129 
L 413.216618 199.821401 
L 413.757046 265.481795 
L 414.297474 311.336146 
L 414.837902 345.164208 
L 415.37833 371.142945 
L 416.459186 408.406998 
L 417.540042 433.830797 
L 418.620898 452.267422 
L 419.701754 466.236339 
L 420.78261 477.175508 
L 421.863466 485.965431 
L 422.944322 493.175404 
L 424.025179 499.189833 
L 425.106035 504.277638 
L 426.727319 510.581472 
L 428.348603 515.681313 
L 429.969887 519.879919 
L 431.591171 523.385869 
L 433.212455 526.347479 
L 434.833739 528.873044 
L 436.455023 531.043428 
L 438.076307 532.920176 
L 440.238019 535.046512 
L 442.399731 536.820026 
L 444.561443 538.304005 
L 446.723156 539.545969 
L 449.425296 540.812309 
L 452.127436 541.809006 
L 454.829576 542.573996 
L 457.531716 543.134373 
L 460.774284 543.562673 
L 464.016852 543.742844 
L 467.25942 543.683009 
L 470.501989 543.380485 
L 473.744557 542.821483 
L 476.446697 542.141079 
L 479.148837 541.240941 
L 481.850977 540.087844 
L 484.012689 538.952754 
L 486.174401 537.594928 
L 488.336113 535.972982 
L 490.497826 534.032179 
L 492.11911 532.324039 
L 493.740394 530.355302 
L 495.361678 528.074185 
L 496.982962 525.413411 
L 498.604246 522.284049 
L 500.22553 518.566155 
L 501.846814 514.094088 
L 502.92767 510.581472 
L 504.008526 506.5368 
L 505.089382 501.836035 
L 506.170238 496.31312 
L 507.251094 489.740554 
L 508.33195 481.798107 
L 509.412806 472.020249 
L 510.493662 459.703228 
L 511.574519 443.730399 
L 512.655375 422.217419 
L 513.195803 408.406998 
L 513.736231 391.715687 
L 514.276659 371.142945 
L 514.817087 345.164208 
L 515.357515 311.336146 
L 515.897943 265.481795 
L 516.438371 199.821401 
L 516.978799 98.020129 
L 517.277672 -1 
L 517.277672 -1 
" clip-path="url(#pfaedd23003)" style="fill: none; stroke: #f59e0b; stroke-width: 2; stroke-linecap: square"/>
   </g>
   <g id="line2d_60">
    <path d="M 86.007734 705.489207 
L 86.007734 435.924375 
" clip-path="url(#pfaedd23003)" style="fill: none; stroke-dasharray: 3.7,1.6; stroke-dashoffset: 0; stroke: #d1d5db"/>
   </g>
   <g id="line2d_61">
    <path d="M 194.241951 705.489207 
L 194.241951 435.924375 
" clip-path="url(#pfaedd23003)" style="fill: none; stroke-dasharray: 3.7,1.6; stroke-dashoffset: 0; stroke: #d1d5db"/>
   </g>
   <g id="line2d_62">
    <path d="M 302.476168 705.489207 
L 302.476168 435.924375 
" clip-path="url(#pfaedd23003)" style="fill: none; stroke-dasharray: 3.7,1.6; stroke-dashoffset: 0; stroke: #d1d5db"/>
   </g>
   <g id="line2d_63">
    <path d="M 410.710386 705.489207 
L 410.710386 435.924375 
" clip-path="url(#pfaedd23003)" style="fill: none; stroke-dasharray: 3.7,1.6; stroke-dashoffset: 0; stroke: #d1d5db"/>
   </g>
   <g id="line2d_64">
    <path d="M 518.944603 705.489207 
L 518.944603 435.924375 
" clip-path="url(#pfaedd23003)" style="fill: none; stroke-dasharray: 3.7,1.6; stroke-dashoffset: 0; stroke: #d1d5db"/>
   </g>
   <g id="line2d_65">
    <path d="M 31.890625 570.706791 
L 464.827494 570.706791 
" clip-path="url(#pfaedd23003)" style="fill: none; stroke: #9ca3af; stroke-linecap: square"/>
   </g>
   <g id="line2d_66">
    <path d="M 31.890625 543.750308 
L 464.827494 543.750308 
" clip-path="url(#pfaedd23003)" style="fill: none; stroke-dasharray: 1,1.65; stroke-dashoffset: 0; stroke: #e5e7eb"/>
   </g>
   <g id="line2d_67">
    <path d="M 31.890625 597.663274 
L 464.827494 597.663274 
" clip-path="url(#pfaedd23003)" style="fill: none; stroke-dasharray: 1,1.65; stroke-dashoffset: 0; stroke: #e5e7eb"/>
   </g>
   <g id="line2d_68">
    <path d="M 248.35906 705.489207 
L 248.35906 435.924375 
" clip-path="url(#pfaedd23003)" style="fill: none; stroke: #9ca3af; stroke-linecap: square"/>
   </g>
   <g id="patch_9">
    <path d="M 31.890625 705.489207 
L 31.890625 435.924375 
" style="fill: none; stroke: #000000; stroke-width: 1.5; stroke-linejoin: miter; stroke-linecap: square"/>
   </g>
   <g id="patch_10">
    <path d="M 31.890625 705.489207 
L 464.827494 705.489207 
" style="fill: none; stroke: #000000; stroke-width: 1.5; stroke-linejoin: miter; stroke-linecap: square"/>
   </g>
   <g id="text_37">
    <!-- Periodo: 2π -->
    <g style="fill: #6b7280" transform="translate(392.578151 456.24121) scale(0.09 -0.09)">
     <use xlink:href="#DejaVuSans-50"/>
     <use xlink:href="#DejaVuSans-65" transform="translate(56.677734 0)"/>
     <use xlink:href="#DejaVuSans-72" transform="translate(118.201172 0)"/>
     <use xlink:href="#DejaVuSans-69" transform="translate(159.314453 0)"/>
     <use xlink:href="#DejaVuSans-6f" transform="translate(187.097656 0)"/>
     <use xlink:href="#DejaVuSans-64" transform="translate(248.279297 0)"/>
     <use xlink:href="#DejaVuSans-6f" transform="translate(311.755859 0)"/>
     <use xlink:href="#DejaVuSans-3a" transform="translate(372.9375 0)"/>
     <use xlink:href="#DejaVuSans-20" transform="translate(406.628906 0)"/>
     <use xlink:href="#DejaVuSans-32" transform="translate(438.416016 0)"/>
     <use xlink:href="#DejaVuSans-3c0" transform="translate(502.039062 0)"/>
    </g>
   </g>
   <g id="text_38">
    <!-- Rango: (-∞,-1] ∪ [1,∞) -->
    <g style="fill: #6b7280" transform="translate(343.784088 475.110749) scale(0.09 -0.09)">
     <defs>
      <path id="DejaVuSans-52" d="M 2841 2188 
Q 3044 2119 3236 1894 
Q 3428 1669 3622 1275 
L 4263 0 
L 3584 0 
L 2988 1197 
Q 2756 1666 2539 1819 
Q 2322 1972 1947 1972 
L 1259 1972 
L 1259 0 
L 628 0 
L 628 4666 
L 2053 4666 
Q 2853 4666 3247 4331 
Q 3641 3997 3641 3322 
Q 3641 2881 3436 2590 
Q 3231 2300 2841 2188 
z
M 1259 4147 
L 1259 2491 
L 2053 2491 
Q 2509 2491 2742 2702 
Q 2975 2913 2975 3322 
Q 2975 3731 2742 3939 
Q 2509 4147 2053 4147 
L 1259 4147 
z
" transform="scale(0.015625)"/>
      <path id="DejaVuSans-67" d="M 2906 1791 
Q 2906 2416 2648 2759 
Q 2391 3103 1925 3103 
Q 1463 3103 1205 2759 
Q 947 2416 947 1791 
Q 947 1169 1205 825 
Q 1463 481 1925 481 
Q 2391 481 2648 825 
Q 2906 1169 2906 1791 
z
M 3481 434 
Q 3481 -459 3084 -895 
Q 2688 -1331 1869 -1331 
Q 1566 -1331 1297 -1286 
Q 1028 -1241 775 -1147 
L 775 -588 
Q 1028 -725 1275 -790 
Q 1522 -856 1778 -856 
Q 2344 -856 2625 -561 
Q 2906 -266 2906 331 
L 2906 616 
Q 2728 306 2450 153 
Q 2172 0 1784 0 
Q 1141 0 747 490 
Q 353 981 353 1791 
Q 353 2603 747 3093 
Q 1141 3584 1784 3584 
Q 2172 3584 2450 3431 
Q 2728 3278 2906 2969 
L 2906 3500 
L 3481 3500 
L 3481 434 
z
" transform="scale(0.015625)"/>
      <path id="DejaVuSans-221e" d="M 2916 1091 
Q 2819 1203 2666 1466 
Q 2456 1091 2272 925 
Q 2041 725 1681 725 
Q 1259 725 981 1041 
Q 688 1372 688 1919 
Q 688 2444 981 2800 
Q 1244 3116 1688 3116 
Q 1916 3116 2084 3022 
Q 2281 2919 2416 2741 
Q 2541 2581 2666 2366 
Q 2875 2741 3059 2906 
Q 3291 3106 3650 3106 
Q 4072 3106 4350 2791 
Q 4644 2459 4644 1913 
Q 4644 1388 4350 1031 
Q 4088 716 3644 716 
Q 3416 716 3247 809 
Q 3078 894 2916 1091 
z
M 1647 1134 
Q 2163 1134 2472 1884 
Q 2075 2703 1647 2703 
Q 1334 2703 1175 2478 
Q 1003 2238 1003 1919 
Q 1003 1569 1175 1353 
Q 1350 1134 1647 1134 
z
M 3684 2697 
Q 3219 2697 2859 1947 
Q 3253 1128 3684 1128 
Q 3997 1128 4156 1353 
Q 4328 1594 4328 1913 
Q 4328 2263 4156 2478 
Q 3981 2697 3684 2697 
z
" transform="scale(0.015625)"/>
      <path id="DejaVuSans-2c" d="M 750 794 
L 1409 794 
L 1409 256 
L 897 -744 
L 494 -744 
L 750 256 
L 750 794 
z
" transform="scale(0.015625)"/>
      <path id="DejaVuSans-31" d="M 794 531 
L 1825 531 
L 1825 4091 
L 703 3866 
L 703 4441 
L 1819 4666 
L 2450 4666 
L 2450 531 
L 3481 531 
L 3481 0 
L 794 0 
L 794 531 
z
" transform="scale(0.015625)"/>
      <path id="DejaVuSans-5d" d="M 1947 4863 
L 1947 -844 
L 622 -844 
L 622 -397 
L 1369 -397 
L 1369 4416 
L 622 4416 
L 622 4863 
L 1947 4863 
z
" transform="scale(0.015625)"/>
      <path id="DejaVuSans-222a" d="M 825 1856 
L 825 3706 
L 1363 3706 
L 1363 1934 
Q 1363 1172 1594 842 
Q 1825 513 2344 513 
Q 2859 513 3090 842 
Q 3322 1172 3322 1934 
L 3322 3706 
L 3859 3706 
L 3859 1856 
Q 3859 931 3476 465 
Q 3094 0 2344 0 
Q 1591 0 1208 465 
Q 825 931 825 1856 
z
" transform="scale(0.015625)"/>
      <path id="DejaVuSans-5b" d="M 550 4863 
L 1875 4863 
L 1875 4416 
L 1125 4416 
L 1125 -397 
L 1875 -397 
L 1875 -844 
L 550 -844 
L 550 4863 
z
" transform="scale(0.015625)"/>
     </defs>
     <use xlink:href="#DejaVuSans-52"/>
     <use xlink:href="#DejaVuSans-61" transform="translate(67.232422 0)"/>
     <use xlink:href="#DejaVuSans-6e" transform="translate(128.511719 0)"/>
     <use xlink:href="#DejaVuSans-67" transform="translate(191.890625 0)"/>
     <use xlink:href="#DejaVuSans-6f" transform="translate(255.367188 0)"/>
     <use xlink:href="#DejaVuSans-3a" transform="translate(316.548828 0)"/>
     <use xlink:href="#DejaVuSans-20" transform="translate(350.240234 0)"/>
     <use xlink:href="#DejaVuSans-28" transform="translate(382.027344 0)"/>
     <use xlink:href="#DejaVuSans-2d" transform="translate(421.041016 0)"/>
     <use xlink:href="#DejaVuSans-221e" transform="translate(457.125 0)"/>
     <use xlink:href="#DejaVuSans-2c" transform="translate(540.425781 0)"/>
     <use xlink:href="#DejaVuSans-2d" transform="translate(572.212891 0)"/>
     <use xlink:href="#DejaVuSans-31" transform="translate(608.296875 0)"/>
     <use xlink:href="#DejaVuSans-5d" transform="translate(671.919922 0)"/>
     <use xlink:href="#DejaVuSans-20" transform="translate(710.933594 0)"/>
     <use xlink:href="#DejaVuSans-222a" transform="translate(742.720703 0)"/>
     <use xlink:href="#DejaVuSans-20" transform="translate(815.914062 0)"/>
     <use xlink:href="#DejaVuSans-5b" transform="translate(847.701172 0)"/>
     <use xlink:href="#DejaVuSans-31" transform="translate(886.714844 0)"/>
     <use xlink:href="#DejaVuSans-2c" transform="translate(950.337891 0)"/>
     <use xlink:href="#DejaVuSans-221e" transform="translate(982.125 0)"/>
     <use xlink:href="#DejaVuSans-29" transform="translate(1065.425781 0)"/>
    </g>
   </g>
   <g id="text_39">
    <!-- $y = \sec(x) = \frac{1}{\cos x}$ -->
    <g style="fill: #f59e0b" transform="translate(204.68906 429.924375) scale(0.11 -0.11)">
     <use xlink:href="#DejaVuSans-Oblique-79" transform="translate(0 0.16875)"/>
     <use xlink:href="#DejaVuSans-3d" transform="translate(78.662109 0.16875)"/>
     <use xlink:href="#DejaVuSans-73" transform="translate(181.933594 0.16875)"/>
     <use xlink:href="#DejaVuSans-65" transform="translate(234.033203 0.16875)"/>
     <use xlink:href="#DejaVuSans-63" transform="translate(295.556641 0.16875)"/>
     <use xlink:href="#DejaVuSans-28" transform="translate(350.537109 0.16875)"/>
     <use xlink:href="#DejaVuSans-Oblique-78" transform="translate(389.550781 0.16875)"/>
     <use xlink:href="#DejaVuSans-29" transform="translate(448.730469 0.16875)"/>
     <use xlink:href="#DejaVuSans-3d" transform="translate(507.226562 0.16875)"/>
     <use xlink:href="#DejaVuSans-31" transform="translate(673.498047 43.965625) scale(0.7)"/>
     <use xlink:href="#DejaVuSans-63" transform="translate(610.498047 -26.484375) scale(0.7)"/>
     <use xlink:href="#DejaVuSans-6f" transform="translate(648.984375 -26.484375) scale(0.7)"/>
     <use xlink:href="#DejaVuSans-73" transform="translate(691.811523 -26.484375) scale(0.7)"/>
     <use xlink:href="#DejaVuSans-Oblique-78" transform="translate(739.646223 -26.484375) scale(0.7)"/>
     <path d="M 610.498047 18.965625 
L 610.498047 25.215625 
L 781.072005 25.215625 
L 781.072005 18.965625 
L 610.498047 18.965625 
z
"/>
    </g>
   </g>
  </g>
  <g id="axes_4">
   <g id="patch_11">
    <path d="M 570.690385 705.489207 
L 1003.627254 705.489207 
L 1003.627254 435.924375 
L 570.690385 435.924375 
z
" style="fill: #ffffff"/>
   </g>
   <g id="matplotlib.axis_7">
    <g id="xtick_16">
     <g id="line2d_69">
      <g>
       <use xlink:href="#m9cf5b85703" x="570.690385" y="705.489207" style="fill: #1f2937; stroke: #1f2937; stroke-width: 0.8"/>
      </g>
     </g>
     <g id="text_40">
      <!-- -2π -->
      <g style="fill: #1f2937" transform="translate(563.494604 719.327801) scale(0.09 -0.09)">
       <use xlink:href="#DejaVuSans-2d"/>
       <use xlink:href="#DejaVuSans-32" transform="translate(36.083984 0)"/>
       <use xlink:href="#DejaVuSans-3c0" transform="translate(99.707031 0)"/>
      </g>
     </g>
    </g>
    <g id="xtick_17">
     <g id="line2d_70">
      <g>
       <use xlink:href="#m9cf5b85703" x="678.924602" y="705.489207" style="fill: #1f2937; stroke: #1f2937; stroke-width: 0.8"/>
      </g>
     </g>
     <g id="text_41">
      <!-- -π -->
      <g style="fill: #1f2937" transform="translate(674.591946 719.327801) scale(0.09 -0.09)">
       <use xlink:href="#DejaVuSans-2d"/>
       <use xlink:href="#DejaVuSans-3c0" transform="translate(36.083984 0)"/>
      </g>
     </g>
    </g>
    <g id="xtick_18">
     <g id="line2d_71">
      <g>
       <use xlink:href="#m9cf5b85703" x="787.15882" y="705.489207" style="fill: #1f2937; stroke: #1f2937; stroke-width: 0.8"/>
      </g>
     </g>
     <g id="text_42">
      <!-- 0 -->
      <g style="fill: #1f2937" transform="translate(784.295695 719.327801) scale(0.09 -0.09)">
       <use xlink:href="#DejaVuSans-30"/>
      </g>
     </g>
    </g>
    <g id="xtick_19">
     <g id="line2d_72">
      <g>
       <use xlink:href="#m9cf5b85703" x="895.393037" y="705.489207" style="fill: #1f2937; stroke: #1f2937; stroke-width: 0.8"/>
      </g>
     </g>
     <g id="text_43">
      <!-- π -->
      <g style="fill: #1f2937" transform="translate(892.683896 719.327801) scale(0.09 -0.09)">
       <use xlink:href="#DejaVuSans-3c0"/>
      </g>
     </g>
    </g>
    <g id="xtick_20">
     <g id="line2d_73">
      <g>
       <use xlink:href="#m9cf5b85703" x="1003.627254" y="705.489207" style="fill: #1f2937; stroke: #1f2937; stroke-width: 0.8"/>
      </g>
     </g>
     <g id="text_44">
      <!-- 2π -->
      <g style="fill: #1f2937" transform="translate(998.054989 719.327801) scale(0.09 -0.09)">
       <use xlink:href="#DejaVuSans-32"/>
       <use xlink:href="#DejaVuSans-3c0" transform="translate(63.623047 0)"/>
      </g>
     </g>
    </g>
   </g>
   <g id="matplotlib.axis_8">
    <g id="ytick_16">
     <g id="line2d_74">
      <g>
       <use xlink:href="#mdd1a6b2c3a" x="570.690385" y="678.532724" style="fill: #1f2937; stroke: #1f2937; stroke-width: 0.8"/>
      </g>
     </g>
     <g id="text_45">
      <!-- −4 -->
      <g style="fill: #1f2937" transform="translate(545.99976 683.091787) scale(0.12 -0.12)">
       <use xlink:href="#DejaVuSans-2212"/>
       <use xlink:href="#DejaVuSans-34" transform="translate(83.789062 0)"/>
      </g>
     </g>
    </g>
    <g id="ytick_17">
     <g id="line2d_75">
      <g>
       <use xlink:href="#mdd1a6b2c3a" x="570.690385" y="624.619758" style="fill: #1f2937; stroke: #1f2937; stroke-width: 0.8"/>
      </g>
     </g>
     <g id="text_46">
      <!-- −2 -->
      <g style="fill: #1f2937" transform="translate(545.99976 629.17882) scale(0.12 -0.12)">
       <use xlink:href="#DejaVuSans-2212"/>
       <use xlink:href="#DejaVuSans-32" transform="translate(83.789062 0)"/>
      </g>
     </g>
    </g>
    <g id="ytick_18">
     <g id="line2d_76">
      <g>
       <use xlink:href="#mdd1a6b2c3a" x="570.690385" y="570.706791" style="fill: #1f2937; stroke: #1f2937; stroke-width: 0.8"/>
      </g>
     </g>
     <g id="text_47">
      <!-- 0 -->
      <g style="fill: #1f2937" transform="translate(556.055385 575.265854) scale(0.12 -0.12)">
       <use xlink:href="#DejaVuSans-30"/>
      </g>
     </g>
    </g>
    <g id="ytick_19">
     <g id="line2d_77">
      <g>
       <use xlink:href="#mdd1a6b2c3a" x="570.690385" y="516.793825" style="fill: #1f2937; stroke: #1f2937; stroke-width: 0.8"/>
      </g>
     </g>
     <g id="text_48">
      <!-- 2 -->
      <g style="fill: #1f2937" transform="translate(556.055385 521.352887) scale(0.12 -0.12)">
       <use xlink:href="#DejaVuSans-32"/>
      </g>
     </g>
    </g>
    <g id="ytick_20">
     <g id="line2d_78">
      <g>
       <use xlink:href="#mdd1a6b2c3a" x="570.690385" y="462.880858" style="fill: #1f2937; stroke: #1f2937; stroke-width: 0.8"/>
      </g>
     </g>
     <g id="text_49">
      <!-- 4 -->
      <g style="fill: #1f2937" transform="translate(556.055385 467.439921) scale(0.12 -0.12)">
       <use xlink:href="#DejaVuSans-34"/>
      </g>
     </g>
    </g>
   </g>
   <g id="line2d_79">
    <path d="M 572.357316 -1 
L 572.656189 98.020129 
L 573.196617 199.821401 
L 573.737045 265.481795 
L 574.277473 311.336146 
L 574.817901 345.164208 
L 575.358329 371.142945 
L 576.439185 408.406998 
L 577.520042 433.830797 
L 578.600898 452.267422 
L 579.681754 466.236339 
L 580.76261 477.175508 
L 581.843466 485.965431 
L 582.924322 493.175404 
L 584.005178 499.189833 
L 585.086034 504.277638 
L 586.707318 510.581472 
L 588.328602 515.681313 
L 589.949886 519.879919 
L 591.57117 523.385869 
L 593.192454 526.347479 
L 594.813738 528.873044 
L 596.435022 531.043428 
L 598.056306 532.920176 
L 600.218019 535.046512 
L 602.379731 536.820026 
L 604.541443 538.304005 
L 606.703155 539.545969 
L 609.405295 540.812309 
L 612.107435 541.809006 
L 614.809575 542.573996 
L 617.511715 543.134373 
L 620.754283 543.562673 
L 623.996852 543.742844 
L 627.23942 543.683009 
L 630.481988 543.380485 
L 633.724556 542.821483 
L 636.426696 542.141079 
L 639.128836 541.240941 
L 641.830976 540.087844 
L 643.992689 538.952754 
L 646.154401 537.594928 
L 648.316113 535.972982 
L 650.477825 534.032179 
L 652.099109 532.324039 
L 653.720393 530.355302 
L 655.341677 528.074185 
L 656.962961 525.413411 
L 658.584245 522.284049 
L 660.205529 518.566155 
L 661.826813 514.094088 
L 662.907669 510.581472 
L 663.988525 506.5368 
L 665.069382 501.836035 
L 666.150238 496.31312 
L 667.231094 489.740554 
L 668.31195 481.798107 
L 669.392806 472.020249 
L 670.473662 459.703228 
L 671.554518 443.730399 
L 672.635374 422.217419 
L 673.175802 408.406998 
L 673.71623 391.715687 
L 674.256658 371.142945 
L 674.797086 345.164208 
L 675.337514 311.336146 
L 675.877942 265.481795 
L 676.41837 199.821401 
L 676.958798 98.020129 
L 677.257671 -1 
L 677.257671 -1 
" clip-path="url(#p007a6b5640)" style="fill: none; stroke: #ec4899; stroke-width: 2; stroke-linecap: square"/>
   </g>
   <g id="line2d_80">
    <path d="M 684.814554 729.39952 
L 685.754259 707.582785 
L 686.835115 689.14616 
L 687.915971 675.177244 
L 688.996827 664.238075 
L 690.077683 655.448152 
L 691.158539 648.238178 
L 692.239395 642.22375 
L 693.320251 637.135945 
L 694.941535 630.83211 
L 696.562819 625.73227 
L 698.184103 621.533664 
L 699.805387 618.027714 
L 701.426672 615.066104 
L 703.047956 612.540539 
L 704.66924 610.370155 
L 706.290524 608.493407 
L 708.452236 606.367071 
L 710.613948 604.593556 
L 712.77566 603.109577 
L 714.937372 601.867614 
L 717.639512 600.601273 
L 720.341652 599.604576 
L 723.043793 598.839587 
L 725.745933 598.27921 
L 728.988501 597.850909 
L 732.231069 597.670738 
L 735.473637 597.730573 
L 738.716205 598.033097 
L 741.958773 598.592099 
L 744.660914 599.272504 
L 747.363054 600.172642 
L 750.065194 601.325738 
L 752.226906 602.460829 
L 754.388618 603.818655 
L 756.55033 605.4406 
L 758.712042 607.381403 
L 760.333326 609.089543 
L 761.95461 611.05828 
L 763.575894 613.339397 
L 765.197178 616.000171 
L 766.818463 619.129534 
L 768.439747 622.847427 
L 770.061031 627.319495 
L 771.141887 630.83211 
L 772.222743 634.876783 
L 773.303599 639.577547 
L 774.384455 645.100463 
L 775.465311 651.673029 
L 776.546167 659.615475 
L 777.627023 669.393334 
L 778.707879 681.710354 
L 779.788735 697.683184 
L 780.869591 719.196163 
L 781.268868 729.39952 
L 781.268868 729.39952 
" clip-path="url(#p007a6b5640)" style="fill: none; stroke: #ec4899; stroke-width: 2; stroke-linecap: square"/>
   </g>
   <g id="line2d_81">
    <path d="M 788.825751 -1 
L 789.124624 98.020129 
L 789.665052 199.821401 
L 790.20548 265.481795 
L 790.745908 311.336146 
L 791.286336 345.164208 
L 791.826764 371.142945 
L 792.90762 408.406998 
L 793.988476 433.830797 
L 795.069332 452.267422 
L 796.150188 466.236339 
L 797.231044 477.175508 
L 798.3119 485.965431 
L 799.392756 493.175404 
L 800.473612 499.189833 
L 801.554469 504.277638 
L 803.175753 510.581472 
L 804.797037 515.681313 
L 806.418321 519.879919 
L 808.039605 523.385869 
L 809.660889 526.347479 
L 811.282173 528.873044 
L 812.903457 531.043428 
L 814.524741 532.920176 
L 816.686453 535.046512 
L 818.848165 536.820026 
L 821.009877 538.304005 
L 823.17159 539.545969 
L 825.87373 540.812309 
L 828.57587 541.809006 
L 831.27801 542.573996 
L 833.98015 543.134373 
L 837.222718 543.562673 
L 840.465286 543.742844 
L 843.707854 543.683009 
L 846.950423 543.380485 
L 850.192991 542.821483 
L 852.895131 542.141079 
L 855.597271 541.240941 
L 858.299411 540.087844 
L 860.461123 538.952754 
L 862.622835 537.594928 
L 864.784547 535.972982 
L 866.94626 534.032179 
L 868.567544 532.324039 
L 870.188828 530.355302 
L 871.810112 528.074185 
L 873.431396 525.413411 
L 875.05268 522.284049 
L 876.673964 518.566155 
L 878.295248 514.094088 
L 879.376104 510.581472 
L 880.45696 506.5368 
L 881.537816 501.836035 
L 882.618672 496.31312 
L 883.699528 489.740554 
L 884.780384 481.798107 
L 885.86124 472.020249 
L 886.942096 459.703228 
L 888.022952 443.730399 
L 889.103809 422.217419 
L 889.644237 408.406998 
L 890.184665 391.715687 
L 890.725093 371.142945 
L 891.265521 345.164208 
L 891.805949 311.336146 
L 892.346377 265.481795 
L 892.886805 199.821401 
L 893.427233 98.020129 
L 893.726106 -1 
L 893.726106 -1 
" clip-path="url(#p007a6b5640)" style="fill: none; stroke: #ec4899; stroke-width: 2; stroke-linecap: square"/>
   </g>
   <g id="line2d_82">
    <path d="M 901.282989 729.39952 
L 902.222694 707.582785 
L 903.30355 689.14616 
L 904.384406 675.177244 
L 905.465262 664.238075 
L 906.546118 655.448152 
L 907.626974 648.238178 
L 908.70783 642.22375 
L 909.788686 637.135945 
L 911.40997 630.83211 
L 913.031254 625.73227 
L 914.652538 621.533664 
L 916.273822 618.027714 
L 917.895106 615.066104 
L 919.51639 612.540539 
L 921.137674 610.370155 
L 922.758958 608.493407 
L 924.920671 606.367071 
L 927.082383 604.593556 
L 929.244095 603.109577 
L 931.405807 601.867614 
L 934.107947 600.601273 
L 936.810087 599.604576 
L 939.512227 598.839587 
L 942.214367 598.27921 
L 945.456936 597.850909 
L 948.699504 597.670738 
L 951.942072 597.730573 
L 955.18464 598.033097 
L 958.427208 598.592099 
L 961.129348 599.272504 
L 963.831488 600.172642 
L 966.533628 601.325738 
L 968.695341 602.460829 
L 970.857053 603.818655 
L 973.018765 605.4406 
L 975.180477 607.381403 
L 976.801761 609.089543 
L 978.423045 611.05828 
L 980.044329 613.339397 
L 981.665613 616.000171 
L 983.286897 619.129534 
L 984.908181 622.847427 
L 986.529465 627.319495 
L 987.610321 630.83211 
L 988.691177 634.876783 
L 989.772034 639.577547 
L 990.85289 645.100463 
L 991.933746 651.673029 
L 993.014602 659.615475 
L 994.095458 669.393334 
L 995.176314 681.710354 
L 996.25717 697.683184 
L 997.338026 719.196163 
L 997.737303 729.39952 
L 997.737303 729.39952 
" clip-path="url(#p007a6b5640)" style="fill: none; stroke: #ec4899; stroke-width: 2; stroke-linecap: square"/>
   </g>
   <g id="line2d_83">
    <path d="M 1005.294186 -1 
L 1005.593059 98.020129 
L 1006.133487 199.821401 
L 1006.673915 265.481795 
L 1007.214343 311.336146 
L 1007.754771 345.164208 
L 1008.295199 371.142945 
L 1009.376055 408.406998 
L 1010.456911 433.830797 
L 1011.537767 452.267422 
L 1012.618623 466.236339 
L 1013.699479 477.175508 
L 1014.780335 485.965431 
L 1015.861191 493.175404 
L 1016.942047 499.189833 
L 1017.39952 501.429846 
L 1017.39952 501.429846 
" clip-path="url(#p007a6b5640)" style="fill: none; stroke: #ec4899; stroke-width: 2; stroke-linecap: square"/>
   </g>
   <g id="line2d_84">
    <path d="M 570.690385 705.489207 
L 570.690385 435.924375 
" clip-path="url(#p007a6b5640)" style="fill: none; stroke-dasharray: 3.7,1.6; stroke-dashoffset: 0; stroke: #d1d5db"/>
   </g>
   <g id="line2d_85">
    <path d="M 678.924602 705.489207 
L 678.924602 435.924375 
" clip-path="url(#p007a6b5640)" style="fill: none; stroke-dasharray: 3.7,1.6; stroke-dashoffset: 0; stroke: #d1d5db"/>
   </g>
   <g id="line2d_86">
    <path d="M 787.15882 705.489207 
L 787.15882 435.924375 
" clip-path="url(#p007a6b5640)" style="fill: none; stroke-dasharray: 3.7,1.6; stroke-dashoffset: 0; stroke: #d1d5db"/>
   </g>
   <g id="line2d_87">
    <path d="M 895.393037 705.489207 
L 895.393037 435.924375 
" clip-path="url(#p007a6b5640)" style="fill: none; stroke-dasharray: 3.7,1.6; stroke-dashoffset: 0; stroke: #d1d5db"/>
   </g>
   <g id="line2d_88">
    <path d="M 1003.627254 705.489207 
L 1003.627254 435.924375 
" clip-path="url(#p007a6b5640)" style="fill: none; stroke-dasharray: 3.7,1.6; stroke-dashoffset: 0; stroke: #d1d5db"/>
   </g>
   <g id="line2d_89">
    <path d="M 570.690385 570.706791 
L 1003.627254 570.706791 
" clip-path="url(#p007a6b5640)" style="fill: none; stroke: #9ca3af; stroke-linecap: square"/>
   </g>
   <g id="line2d_90">
    <path d="M 570.690385 543.750308 
L 1003.627254 543.750308 
" clip-path="url(#p007a6b5640)" style="fill: none; stroke-dasharray: 1,1.65; stroke-dashoffset: 0; stroke: #e5e7eb"/>
   </g>
   <g id="line2d_91">
    <path d="M 570.690385 597.663274 
L 1003.627254 597.663274 
" clip-path="url(#p007a6b5640)" style="fill: none; stroke-dasharray: 1,1.65; stroke-dashoffset: 0; stroke: #e5e7eb"/>
   </g>
   <g id="line2d_92">
    <path d="M 787.15882 705.489207 
L 787.15882 435.924375 
" clip-path="url(#p007a6b5640)" style="fill: none; stroke-dasharray: 3.7,1.6; stroke-dashoffset: 0; stroke: #d1d5db"/>
   </g>
   <g id="patch_12">
    <path d="M 570.690385 705.489207 
L 570.690385 435.924375 
" style="fill: none; stroke: #000000; stroke-width: 1.5; stroke-linejoin: miter; stroke-linecap: square"/>
   </g>
   <g id="patch_13">
    <path d="M 570.690385 705.489207 
L 1003.627254 705.489207 
" style="fill: none; stroke: #000000; stroke-width: 1.5; stroke-linejoin: miter; stroke-linecap: square"/>
   </g>
   <g id="text_50">
    <!-- Periodo: 2π -->
    <g style="fill: #6b7280" transform="translate(931.377911 456.24121) scale(0.09 -0.09)">
     <use xlink:href="#DejaVuSans-50"/>
     <use xlink:href="#DejaVuSans-65" transform="translate(56.677734 0)"/>
     <use xlink:href="#DejaVuSans-72" transform="translate(118.201172 0)"/>
     <use xlink:href="#DejaVuSans-69" transform="translate(159.314453 0)"/>
     <use xlink:href="#DejaVuSans-6f" transform="translate(187.097656 0)"/>
     <use xlink:href="#DejaVuSans-64" transform="translate(248.279297 0)"/>
     <use xlink:href="#DejaVuSans-6f" transform="translate(311.755859 0)"/>
     <use xlink:href="#DejaVuSans-3a" transform="translate(372.9375 0)"/>
     <use xlink:href="#DejaVuSans-20" transform="translate(406.628906 0)"/>
     <use xlink:href="#DejaVuSans-32" transform="translate(438.416016 0)"/>
     <use xlink:href="#DejaVuSans-3c0" transform="translate(502.039062 0)"/>
    </g>
   </g>
   <g id="text_51">
    <!-- Rango: (-∞,-1] ∪ [1,∞) -->
    <g style="fill: #6b7280" transform="translate(882.583848 475.110749) scale(0.09 -0.09)">
     <use xlink:href="#DejaVuSans-52"/>
     <use xlink:href="#DejaVuSans-61" transform="translate(67.232422 0)"/>
     <use xlink:href="#DejaVuSans-6e" transform="translate(128.511719 0)"/>
     <use xlink:href="#DejaVuSans-67" transform="translate(191.890625 0)"/>
     <use xlink:href="#DejaVuSans-6f" transform="translate(255.367188 0)"/>
     <use xlink:href="#DejaVuSans-3a" transform="translate(316.548828 0)"/>
     <use xlink:href="#DejaVuSans-20" transform="translate(350.240234 0)"/>
     <use xlink:href="#DejaVuSans-28" transform="translate(382.027344 0)"/>
     <use xlink:href="#DejaVuSans-2d" transform="translate(421.041016 0)"/>
     <use xlink:href="#DejaVuSans-221e" transform="translate(457.125 0)"/>
     <use xlink:href="#DejaVuSans-2c" transform="translate(540.425781 0)"/>
     <use xlink:href="#DejaVuSans-2d" transform="translate(572.212891 0)"/>
     <use xlink:href="#DejaVuSans-31" transform="translate(608.296875 0)"/>
     <use xlink:href="#DejaVuSans-5d" transform="translate(671.919922 0)"/>
     <use xlink:href="#DejaVuSans-20" transform="translate(710.933594 0)"/>
     <use xlink:href="#DejaVuSans-222a" transform="translate(742.720703 0)"/>
     <use xlink:href="#DejaVuSans-20" transform="translate(815.914062 0)"/>
     <use xlink:href="#DejaVuSans-5b" transform="translate(847.701172 0)"/>
     <use xlink:href="#DejaVuSans-31" transform="translate(886.714844 0)"/>
     <use xlink:href="#DejaVuSans-2c" transform="translate(950.337891 0)"/>
     <use xlink:href="#DejaVuSans-221e" transform="translate(982.125 0)"/>
     <use xlink:href="#DejaVuSans-29" transform="translate(1065.425781 0)"/>
    </g>
   </g>
   <g id="text_52">
    <!-- $y = \csc(x) = \frac{1}{\sin x}$ -->
    <g style="fill: #ec4899" transform="translate(744.80882 429.924375) scale(0.11 -0.11)">
     <use xlink:href="#DejaVuSans-Oblique-79" transform="translate(0 0.16875)"/>
     <use xlink:href="#DejaVuSans-3d" transform="translate(78.662109 0.16875)"/>
     <use xlink:href="#DejaVuSans-63" transform="translate(181.933594 0.16875)"/>
     <use xlink:href="#DejaVuSans-73" transform="translate(236.914062 0.16875)"/>
     <use xlink:href="#DejaVuSans-63" transform="translate(289.013672 0.16875)"/>
     <use xlink:href="#DejaVuSans-28" transform="translate(343.994141 0.16875)"/>
     <use xlink:href="#DejaVuSans-Oblique-78" transform="translate(383.007812 0.16875)"/>
     <use xlink:href="#DejaVuSans-29" transform="translate(442.1875 0.16875)"/>
     <use xlink:href="#DejaVuSans-3d" transform="translate(500.683594 0.16875)"/>
     <use xlink:href="#DejaVuSans-31" transform="translate(657.955078 43.965625) scale(0.7)"/>
     <use xlink:href="#DejaVuSans-73" transform="translate(603.955078 -40.473437) scale(0.7)"/>
     <use xlink:href="#DejaVuSans-69" transform="translate(640.424805 -40.473437) scale(0.7)"/>
     <use xlink:href="#DejaVuSans-6e" transform="translate(659.873047 -40.473437) scale(0.7)"/>
     <use xlink:href="#DejaVuSans-Oblique-78" transform="translate(715.603255 -40.473437) scale(0.7)"/>
     <path d="M 603.955078 18.965625 
L 603.955078 25.215625 
L 757.029036 25.215625 
L 757.029036 18.965625 
L 603.955078 18.965625 
z
"/>
    </g>
   </g>
  </g>
  <g id="text_53">
   <!-- Las Otras Funciones Trigonométricas -->
   <g style="fill: #1f2937" transform="translate(362.498041 18.397812) scale(0.14 -0.14)">
    <defs>
     <path id="DejaVuSans-Bold-4c" d="M 588 4666 
L 1791 4666 
L 1791 909 
L 3903 909 
L 3903 0 
L 588 0 
L 588 4666 
z
" transform="scale(0.015625)"/>
     <path id="DejaVuSans-Bold-61" d="M 2106 1575 
Q 1756 1575 1579 1456 
Q 1403 1338 1403 1106 
Q 1403 894 1545 773 
Q 1688 653 1941 653 
Q 2256 653 2472 879 
Q 2688 1106 2688 1447 
L 2688 1575 
L 2106 1575 
z
M 3816 1997 
L 3816 0 
L 2688 0 
L 2688 519 
Q 2463 200 2181 54 
Q 1900 -91 1497 -91 
Q 953 -91 614 226 
Q 275 544 275 1050 
Q 275 1666 698 1953 
Q 1122 2241 2028 2241 
L 2688 2241 
L 2688 2328 
Q 2688 2594 2478 2717 
Q 2269 2841 1825 2841 
Q 1466 2841 1156 2769 
Q 847 2697 581 2553 
L 581 3406 
Q 941 3494 1303 3539 
Q 1666 3584 2028 3584 
Q 2975 3584 3395 3211 
Q 3816 2838 3816 1997 
z
" transform="scale(0.015625)"/>
     <path id="DejaVuSans-Bold-73" d="M 3272 3391 
L 3272 2541 
Q 2913 2691 2578 2766 
Q 2244 2841 1947 2841 
Q 1628 2841 1473 2761 
Q 1319 2681 1319 2516 
Q 1319 2381 1436 2309 
Q 1553 2238 1856 2203 
L 2053 2175 
Q 2913 2066 3209 1816 
Q 3506 1566 3506 1031 
Q 3506 472 3093 190 
Q 2681 -91 1863 -91 
Q 1516 -91 1145 -36 
Q 775 19 384 128 
L 384 978 
Q 719 816 1070 734 
Q 1422 653 1784 653 
Q 2113 653 2278 743 
Q 2444 834 2444 1013 
Q 2444 1163 2330 1236 
Q 2216 1309 1875 1350 
L 1678 1375 
Q 931 1469 631 1722 
Q 331 1975 331 2491 
Q 331 3047 712 3315 
Q 1094 3584 1881 3584 
Q 2191 3584 2531 3537 
Q 2872 3491 3272 3391 
z
" transform="scale(0.015625)"/>
     <path id="DejaVuSans-Bold-20" transform="scale(0.015625)"/>
     <path id="DejaVuSans-Bold-4f" d="M 2719 3878 
Q 2169 3878 1866 3472 
Q 1563 3066 1563 2328 
Q 1563 1594 1866 1187 
Q 2169 781 2719 781 
Q 3272 781 3575 1187 
Q 3878 1594 3878 2328 
Q 3878 3066 3575 3472 
Q 3272 3878 2719 3878 
z
M 2719 4750 
Q 3844 4750 4481 4106 
Q 5119 3463 5119 2328 
Q 5119 1197 4481 553 
Q 3844 -91 2719 -91 
Q 1597 -91 958 553 
Q 319 1197 319 2328 
Q 319 3463 958 4106 
Q 1597 4750 2719 4750 
z
" transform="scale(0.015625)"/>
     <path id="DejaVuSans-Bold-74" d="M 1759 4494 
L 1759 3500 
L 2913 3500 
L 2913 2700 
L 1759 2700 
L 1759 1216 
Q 1759 972 1856 886 
Q 1953 800 2241 800 
L 2816 800 
L 2816 0 
L 1856 0 
Q 1194 0 917 276 
Q 641 553 641 1216 
L 641 2700 
L 84 2700 
L 84 3500 
L 641 3500 
L 641 4494 
L 1759 4494 
z
" transform="scale(0.015625)"/>
     <path id="DejaVuSans-Bold-72" d="M 3138 2547 
Q 2991 2616 2845 2648 
Q 2700 2681 2553 2681 
Q 2122 2681 1889 2404 
Q 1656 2128 1656 1613 
L 1656 0 
L 538 0 
L 538 3500 
L 1656 3500 
L 1656 2925 
Q 1872 3269 2151 3426 
Q 2431 3584 2822 3584 
Q 2878 3584 2943 3579 
Q 3009 3575 3134 3559 
L 3138 2547 
z
" transform="scale(0.015625)"/>
     <path id="DejaVuSans-Bold-46" d="M 588 4666 
L 3834 4666 
L 3834 3756 
L 1791 3756 
L 1791 2888 
L 3713 2888 
L 3713 1978 
L 1791 1978 
L 1791 0 
L 588 0 
L 588 4666 
z
" transform="scale(0.015625)"/>
     <path id="DejaVuSans-Bold-75" d="M 500 1363 
L 500 3500 
L 1625 3500 
L 1625 3150 
Q 1625 2866 1622 2436 
Q 1619 2006 1619 1863 
Q 1619 1441 1641 1255 
Q 1663 1069 1716 984 
Q 1784 875 1895 815 
Q 2006 756 2150 756 
Q 2500 756 2700 1025 
Q 2900 1294 2900 1772 
L 2900 3500 
L 4019 3500 
L 4019 0 
L 2900 0 
L 2900 506 
Q 2647 200 2364 54 
Q 2081 -91 1741 -91 
Q 1134 -91 817 281 
Q 500 653 500 1363 
z
" transform="scale(0.015625)"/>
     <path id="DejaVuSans-Bold-6e" d="M 4056 2131 
L 4056 0 
L 2931 0 
L 2931 347 
L 2931 1631 
Q 2931 2084 2911 2256 
Q 2891 2428 2841 2509 
Q 2775 2619 2662 2680 
Q 2550 2741 2406 2741 
Q 2056 2741 1856 2470 
Q 1656 2200 1656 1722 
L 1656 0 
L 538 0 
L 538 3500 
L 1656 3500 
L 1656 2988 
Q 1909 3294 2193 3439 
Q 2478 3584 2822 3584 
Q 3428 3584 3742 3212 
Q 4056 2841 4056 2131 
z
" transform="scale(0.015625)"/>
     <path id="DejaVuSans-Bold-63" d="M 3366 3391 
L 3366 2478 
Q 3138 2634 2908 2709 
Q 2678 2784 2431 2784 
Q 1963 2784 1702 2511 
Q 1441 2238 1441 1747 
Q 1441 1256 1702 982 
Q 1963 709 2431 709 
Q 2694 709 2930 787 
Q 3166 866 3366 1019 
L 3366 103 
Q 3103 6 2833 -42 
Q 2563 -91 2291 -91 
Q 1344 -91 809 395 
Q 275 881 275 1747 
Q 275 2613 809 3098 
Q 1344 3584 2291 3584 
Q 2566 3584 2833 3536 
Q 3100 3488 3366 3391 
z
" transform="scale(0.015625)"/>
     <path id="DejaVuSans-Bold-69" d="M 538 3500 
L 1656 3500 
L 1656 0 
L 538 0 
L 538 3500 
z
M 538 4863 
L 1656 4863 
L 1656 3950 
L 538 3950 
L 538 4863 
z
" transform="scale(0.015625)"/>
     <path id="DejaVuSans-Bold-6f" d="M 2203 2784 
Q 1831 2784 1636 2517 
Q 1441 2250 1441 1747 
Q 1441 1244 1636 976 
Q 1831 709 2203 709 
Q 2569 709 2762 976 
Q 2956 1244 2956 1747 
Q 2956 2250 2762 2517 
Q 2569 2784 2203 2784 
z
M 2203 3584 
Q 3106 3584 3614 3096 
Q 4122 2609 4122 1747 
Q 4122 884 3614 396 
Q 3106 -91 2203 -91 
Q 1297 -91 786 396 
Q 275 884 275 1747 
Q 275 2609 786 3096 
Q 1297 3584 2203 3584 
z
" transform="scale(0.015625)"/>
     <path id="DejaVuSans-Bold-65" d="M 4031 1759 
L 4031 1441 
L 1416 1441 
Q 1456 1047 1700 850 
Q 1944 653 2381 653 
Q 2734 653 3104 758 
Q 3475 863 3866 1075 
L 3866 213 
Q 3469 63 3072 -14 
Q 2675 -91 2278 -91 
Q 1328 -91 801 392 
Q 275 875 275 1747 
Q 275 2603 792 3093 
Q 1309 3584 2216 3584 
Q 3041 3584 3536 3087 
Q 4031 2591 4031 1759 
z
M 2881 2131 
Q 2881 2450 2695 2645 
Q 2509 2841 2209 2841 
Q 1884 2841 1681 2658 
Q 1478 2475 1428 2131 
L 2881 2131 
z
" transform="scale(0.015625)"/>
     <path id="DejaVuSans-Bold-54" d="M 31 4666 
L 4331 4666 
L 4331 3756 
L 2784 3756 
L 2784 0 
L 1581 0 
L 1581 3756 
L 31 3756 
L 31 4666 
z
" transform="scale(0.015625)"/>
     <path id="DejaVuSans-Bold-67" d="M 2919 594 
Q 2688 288 2409 144 
Q 2131 0 1766 0 
Q 1125 0 706 504 
Q 288 1009 288 1791 
Q 288 2575 706 3076 
Q 1125 3578 1766 3578 
Q 2131 3578 2409 3434 
Q 2688 3291 2919 2981 
L 2919 3500 
L 4044 3500 
L 4044 353 
Q 4044 -491 3511 -936 
Q 2978 -1381 1966 -1381 
Q 1638 -1381 1331 -1331 
Q 1025 -1281 716 -1178 
L 716 -306 
Q 1009 -475 1290 -558 
Q 1572 -641 1856 -641 
Q 2406 -641 2662 -400 
Q 2919 -159 2919 353 
L 2919 594 
z
M 2181 2772 
Q 1834 2772 1640 2515 
Q 1447 2259 1447 1791 
Q 1447 1309 1634 1061 
Q 1822 813 2181 813 
Q 2531 813 2725 1069 
Q 2919 1325 2919 1791 
Q 2919 2259 2725 2515 
Q 2531 2772 2181 2772 
z
" transform="scale(0.015625)"/>
     <path id="DejaVuSans-Bold-6d" d="M 3781 2919 
Q 3994 3244 4286 3414 
Q 4578 3584 4928 3584 
Q 5531 3584 5847 3212 
Q 6163 2841 6163 2131 
L 6163 0 
L 5038 0 
L 5038 1825 
Q 5041 1866 5042 1909 
Q 5044 1953 5044 2034 
Q 5044 2406 4934 2573 
Q 4825 2741 4581 2741 
Q 4263 2741 4089 2478 
Q 3916 2216 3909 1719 
L 3909 0 
L 2784 0 
L 2784 1825 
Q 2784 2406 2684 2573 
Q 2584 2741 2328 2741 
Q 2006 2741 1831 2477 
Q 1656 2213 1656 1722 
L 1656 0 
L 531 0 
L 531 3500 
L 1656 3500 
L 1656 2988 
Q 1863 3284 2130 3434 
Q 2397 3584 2719 3584 
Q 3081 3584 3359 3409 
Q 3638 3234 3781 2919 
z
" transform="scale(0.015625)"/>
     <path id="DejaVuSans-Bold-e9" d="M 4031 1759 
L 4031 1441 
L 1416 1441 
Q 1456 1047 1700 850 
Q 1944 653 2381 653 
Q 2734 653 3104 758 
Q 3475 863 3866 1075 
L 3866 213 
Q 3469 63 3072 -14 
Q 2675 -91 2278 -91 
Q 1328 -91 801 392 
Q 275 875 275 1747 
Q 275 2603 792 3093 
Q 1309 3584 2216 3584 
Q 3041 3584 3536 3087 
Q 4031 2591 4031 1759 
z
M 2881 2131 
Q 2881 2450 2695 2645 
Q 2509 2841 2209 2841 
Q 1884 2841 1681 2658 
Q 1478 2475 1428 2131 
L 2881 2131 
z
M 2702 5119 
L 3586 5119 
L 2433 3944 
L 1821 3944 
L 2702 5119 
z
" transform="scale(0.015625)"/>
    </defs>
    <use xlink:href="#DejaVuSans-Bold-4c"/>
    <use xlink:href="#DejaVuSans-Bold-61" transform="translate(63.720703 0)"/>
    <use xlink:href="#DejaVuSans-Bold-73" transform="translate(131.201172 0)"/>
    <use xlink:href="#DejaVuSans-Bold-20" transform="translate(190.722656 0)"/>
    <use xlink:href="#DejaVuSans-Bold-4f" transform="translate(225.537109 0)"/>
    <use xlink:href="#DejaVuSans-Bold-74" transform="translate(310.546875 0)"/>
    <use xlink:href="#DejaVuSans-Bold-72" transform="translate(358.349609 0)"/>
    <use xlink:href="#DejaVuSans-Bold-61" transform="translate(407.666016 0)"/>
    <use xlink:href="#DejaVuSans-Bold-73" transform="translate(475.146484 0)"/>
    <use xlink:href="#DejaVuSans-Bold-20" transform="translate(534.667969 0)"/>
    <use xlink:href="#DejaVuSans-Bold-46" transform="translate(569.482422 0)"/>
    <use xlink:href="#DejaVuSans-Bold-75" transform="translate(632.792969 0)"/>
    <use xlink:href="#DejaVuSans-Bold-6e" transform="translate(703.984375 0)"/>
    <use xlink:href="#DejaVuSans-Bold-63" transform="translate(775.175781 0)"/>
    <use xlink:href="#DejaVuSans-Bold-69" transform="translate(834.453125 0)"/>
    <use xlink:href="#DejaVuSans-Bold-6f" transform="translate(868.730469 0)"/>
    <use xlink:href="#DejaVuSans-Bold-6e" transform="translate(937.431641 0)"/>
    <use xlink:href="#DejaVuSans-Bold-65" transform="translate(1008.623047 0)"/>
    <use xlink:href="#DejaVuSans-Bold-73" transform="translate(1076.445312 0)"/>
    <use xlink:href="#DejaVuSans-Bold-20" transform="translate(1135.966797 0)"/>
    <use xlink:href="#DejaVuSans-Bold-54" transform="translate(1170.78125 0)"/>
    <use xlink:href="#DejaVuSans-Bold-72" transform="translate(1227.994141 0)"/>
    <use xlink:href="#DejaVuSans-Bold-69" transform="translate(1277.310547 0)"/>
    <use xlink:href="#DejaVuSans-Bold-67" transform="translate(1311.587891 0)"/>
    <use xlink:href="#DejaVuSans-Bold-6f" transform="translate(1383.169922 0)"/>
    <use xlink:href="#DejaVuSans-Bold-6e" transform="translate(1451.871094 0)"/>
    <use xlink:href="#DejaVuSans-Bold-6f" transform="translate(1523.0625 0)"/>
    <use xlink:href="#DejaVuSans-Bold-6d" transform="translate(1591.763672 0)"/>
    <use xlink:href="#DejaVuSans-Bold-e9" transform="translate(1695.962891 0)"/>
    <use xlink:href="#DejaVuSans-Bold-74" transform="translate(1763.785156 0)"/>
    <use xlink:href="#DejaVuSans-Bold-72" transform="translate(1811.587891 0)"/>
    <use xlink:href="#DejaVuSans-Bold-69" transform="translate(1860.904297 0)"/>
    <use xlink:href="#DejaVuSans-Bold-63" transform="translate(1895.181641 0)"/>
    <use xlink:href="#DejaVuSans-Bold-61" transform="translate(1954.458984 0)"/>
    <use xlink:href="#DejaVuSans-Bold-73" transform="translate(2021.939453 0)"/>
   </g>
  </g>
 </g>
 <defs>
  <clipPath id="pf255721d23">
   <rect x="31.890625" y="44.19923" width="432.936869" height="269.564832"/>
  </clipPath>
  <clipPath id="pb88cca63fb">
   <rect x="570.690385" y="44.19923" width="432.936869" height="269.564832"/>
  </clipPath>
  <clipPath id="pfaedd23003">
   <rect x="31.890625" y="435.924375" width="432.936869" height="269.564833"/>
  </clipPath>
  <clipPath id="p007a6b5640">
   <rect x="570.690385" y="435.924375" width="432.936869" height="269.564833"/>
  </clipPath>
 </defs>
</svg>
