<?xml version="1.0" encoding="utf-8" standalone="no"?>
<!DOCTYPE svg PUBLIC "-//W3C//DTD SVG 1.1//EN"
  "http://www.w3.org/Graphics/SVG/1.1/DTD/svg11.dtd">
<svg xmlns:xlink="http://www.w3.org/1999/xlink" width="1016.39952pt" height="656.39952pt" viewBox="0 0 1016.39952 656.39952" xmlns="http://www.w3.org/2000/svg" version="1.1">
 <metadata>
  <rdf:RDF xmlns:dc="http://purl.org/dc/elements/1.1/" xmlns:cc="http://creativecommons.org/ns#" xmlns:rdf="http://www.w3.org/1999/02/22-rdf-syntax-ns#">
   <cc:Work>
    <dc:type rdf:resource="http://purl.org/dc/dcmitype/StillImage"/>
    <dc:date>2026-01-04T20:53:25.368812</dc:date>
    <dc:format>image/svg+xml</dc:format>
    <dc:creator>
     <cc:Agent>
      <dc:title>Repositorio Matemáticas Universitarias</dc:title>
     </cc:Agent>
    </dc:creator>
   </cc:Work>
  </rdf:RDF>
 </metadata>
 <defs>
  <style type="text/css">*{stroke-linejoin: round; stroke-linecap: butt}</style>
 </defs>
 <g id="figure_1">
  <g id="patch_1">
   <path d="M 0 656.39952 
L 1016.39952 656.39952 
L 1016.39952 0 
L 0 0 
z
" style="fill: #ffffff"/>
  </g>
  <g id="axes_1">
   <g id="patch_2">
    <path d="M 31.890625 223.322752 
L 1009.19952 223.322752 
L 1009.19952 42.217511 
L 31.890625 42.217511 
z
" style="fill: #ffffff"/>
   </g>
   <g id="line2d_1">
    <path d="M 31.890625 122.708729 
L 1009.19952 122.708729 
" clip-path="url(#p40855e57c2)" style="fill: none; stroke: #d1d5db; stroke-linecap: square"/>
   </g>
   <g id="line2d_2">
    <path d="M 520.545073 223.322752 
L 520.545073 42.217511 
" clip-path="url(#p40855e57c2)" style="fill: none; stroke: #d1d5db; stroke-linecap: square"/>
   </g>
   <g id="matplotlib.axis_1">
    <g id="xtick_1">
     <g id="line2d_3">
      <defs>
       <path id="m2761b880f5" d="M 0 0 
L 0 3.5 
" style="stroke: #1f2937; stroke-width: 0.8"/>
      </defs>
      <g>
       <use xlink:href="#m2761b880f5" x="76.313757" y="223.322752" style="fill: #1f2937; stroke: #1f2937; stroke-width: 0.8"/>
      </g>
     </g>
     <g id="text_1">
      <!-- -2π -->
      <g style="fill: #1f2937" transform="translate(69.117975 237.161346) scale(0.09 -0.09)">
       <defs>
        <path id="DejaVuSans-2d" d="M 313 2009 
L 1997 2009 
L 1997 1497 
L 313 1497 
L 313 2009 
z
" transform="scale(0.015625)"/>
        <path id="DejaVuSans-32" d="M 1228 531 
L 3431 531 
L 3431 0 
L 469 0 
L 469 531 
Q 828 903 1448 1529 
Q 2069 2156 2228 2338 
Q 2531 2678 2651 2914 
Q 2772 3150 2772 3378 
Q 2772 3750 2511 3984 
Q 2250 4219 1831 4219 
Q 1534 4219 1204 4116 
Q 875 4013 500 3803 
L 500 4441 
Q 881 4594 1212 4672 
Q 1544 4750 1819 4750 
Q 2544 4750 2975 4387 
Q 3406 4025 3406 3419 
Q 3406 3131 3298 2873 
Q 3191 2616 2906 2266 
Q 2828 2175 2409 1742 
Q 1991 1309 1228 531 
z
" transform="scale(0.015625)"/>
        <path id="DejaVuSans-3c0" d="M 231 3500 
L 3584 3500 
L 3584 2925 
L 3144 2925 
L 3144 775 
Q 3144 550 3220 451 
Q 3297 353 3469 353 
Q 3516 353 3584 361 
Q 3653 369 3675 372 
L 3675 -44 
Q 3566 -84 3450 -103 
Q 3334 -122 3219 -122 
Q 2844 -122 2700 83 
Q 2556 288 2556 838 
L 2556 2925 
L 1266 2925 
L 1266 0 
L 678 0 
L 678 2925 
L 231 2925 
L 231 3500 
z
" transform="scale(0.015625)"/>
       </defs>
       <use xlink:href="#DejaVuSans-2d"/>
       <use xlink:href="#DejaVuSans-32" transform="translate(36.083984 0)"/>
       <use xlink:href="#DejaVuSans-3c0" transform="translate(99.707031 0)"/>
      </g>
     </g>
    </g>
    <g id="xtick_2">
     <g id="line2d_4">
      <g>
       <use xlink:href="#m2761b880f5" x="187.371586" y="223.322752" style="fill: #1f2937; stroke: #1f2937; stroke-width: 0.8"/>
      </g>
     </g>
     <g id="text_2">
      <!-- -3π/2 -->
      <g style="fill: #1f2937" transform="translate(175.796742 237.161346) scale(0.09 -0.09)">
       <defs>
        <path id="DejaVuSans-33" d="M 2597 2516 
Q 3050 2419 3304 2112 
Q 3559 1806 3559 1356 
Q 3559 666 3084 287 
Q 2609 -91 1734 -91 
Q 1441 -91 1130 -33 
Q 819 25 488 141 
L 488 750 
Q 750 597 1062 519 
Q 1375 441 1716 441 
Q 2309 441 2620 675 
Q 2931 909 2931 1356 
Q 2931 1769 2642 2001 
Q 2353 2234 1838 2234 
L 1294 2234 
L 1294 2753 
L 1863 2753 
Q 2328 2753 2575 2939 
Q 2822 3125 2822 3475 
Q 2822 3834 2567 4026 
Q 2313 4219 1838 4219 
Q 1578 4219 1281 4162 
Q 984 4106 628 3988 
L 628 4550 
Q 988 4650 1302 4700 
Q 1616 4750 1894 4750 
Q 2613 4750 3031 4423 
Q 3450 4097 3450 3541 
Q 3450 3153 3228 2886 
Q 3006 2619 2597 2516 
z
" transform="scale(0.015625)"/>
        <path id="DejaVuSans-2f" d="M 1625 4666 
L 2156 4666 
L 531 -594 
L 0 -594 
L 1625 4666 
z
" transform="scale(0.015625)"/>
       </defs>
       <use xlink:href="#DejaVuSans-2d"/>
       <use xlink:href="#DejaVuSans-33" transform="translate(36.083984 0)"/>
       <use xlink:href="#DejaVuSans-3c0" transform="translate(99.707031 0)"/>
       <use xlink:href="#DejaVuSans-2f" transform="translate(159.912109 0)"/>
       <use xlink:href="#DejaVuSans-32" transform="translate(193.603516 0)"/>
      </g>
     </g>
    </g>
    <g id="xtick_3">
     <g id="line2d_5">
      <g>
       <use xlink:href="#m2761b880f5" x="298.429415" y="223.322752" style="fill: #1f2937; stroke: #1f2937; stroke-width: 0.8"/>
      </g>
     </g>
     <g id="text_3">
      <!-- -π -->
      <g style="fill: #1f2937" transform="translate(294.096758 237.161346) scale(0.09 -0.09)">
       <use xlink:href="#DejaVuSans-2d"/>
       <use xlink:href="#DejaVuSans-3c0" transform="translate(36.083984 0)"/>
      </g>
     </g>
    </g>
    <g id="xtick_4">
     <g id="line2d_6">
      <g>
       <use xlink:href="#m2761b880f5" x="409.487244" y="223.322752" style="fill: #1f2937; stroke: #1f2937; stroke-width: 0.8"/>
      </g>
     </g>
     <g id="text_4">
      <!-- -π/2 -->
      <g style="fill: #1f2937" transform="translate(400.775525 237.161346) scale(0.09 -0.09)">
       <use xlink:href="#DejaVuSans-2d"/>
       <use xlink:href="#DejaVuSans-3c0" transform="translate(36.083984 0)"/>
       <use xlink:href="#DejaVuSans-2f" transform="translate(96.289062 0)"/>
       <use xlink:href="#DejaVuSans-32" transform="translate(129.980469 0)"/>
      </g>
     </g>
    </g>
    <g id="xtick_5">
     <g id="line2d_7">
      <g>
       <use xlink:href="#m2761b880f5" x="520.545073" y="223.322752" style="fill: #1f2937; stroke: #1f2937; stroke-width: 0.8"/>
      </g>
     </g>
     <g id="text_5">
      <!-- 0 -->
      <g style="fill: #1f2937" transform="translate(517.681948 237.161346) scale(0.09 -0.09)">
       <defs>
        <path id="DejaVuSans-30" d="M 2034 4250 
Q 1547 4250 1301 3770 
Q 1056 3291 1056 2328 
Q 1056 1369 1301 889 
Q 1547 409 2034 409 
Q 2525 409 2770 889 
Q 3016 1369 3016 2328 
Q 3016 3291 2770 3770 
Q 2525 4250 2034 4250 
z
M 2034 4750 
Q 2819 4750 3233 4129 
Q 3647 3509 3647 2328 
Q 3647 1150 3233 529 
Q 2819 -91 2034 -91 
Q 1250 -91 836 529 
Q 422 1150 422 2328 
Q 422 3509 836 4129 
Q 1250 4750 2034 4750 
z
" transform="scale(0.015625)"/>
       </defs>
       <use xlink:href="#DejaVuSans-30"/>
      </g>
     </g>
    </g>
    <g id="xtick_6">
     <g id="line2d_8">
      <g>
       <use xlink:href="#m2761b880f5" x="631.602901" y="223.322752" style="fill: #1f2937; stroke: #1f2937; stroke-width: 0.8"/>
      </g>
     </g>
     <g id="text_6">
      <!-- π/2 -->
      <g style="fill: #1f2937" transform="translate(624.514698 237.161346) scale(0.09 -0.09)">
       <use xlink:href="#DejaVuSans-3c0"/>
       <use xlink:href="#DejaVuSans-2f" transform="translate(60.205078 0)"/>
       <use xlink:href="#DejaVuSans-32" transform="translate(93.896484 0)"/>
      </g>
     </g>
    </g>
    <g id="xtick_7">
     <g id="line2d_9">
      <g>
       <use xlink:href="#m2761b880f5" x="742.66073" y="223.322752" style="fill: #1f2937; stroke: #1f2937; stroke-width: 0.8"/>
      </g>
     </g>
     <g id="text_7">
      <!-- π -->
      <g style="fill: #1f2937" transform="translate(739.95159 237.161346) scale(0.09 -0.09)">
       <use xlink:href="#DejaVuSans-3c0"/>
      </g>
     </g>
    </g>
    <g id="xtick_8">
     <g id="line2d_10">
      <g>
       <use xlink:href="#m2761b880f5" x="853.718559" y="223.322752" style="fill: #1f2937; stroke: #1f2937; stroke-width: 0.8"/>
      </g>
     </g>
     <g id="text_8">
      <!-- 3π/2 -->
      <g style="fill: #1f2937" transform="translate(843.767231 237.161346) scale(0.09 -0.09)">
       <use xlink:href="#DejaVuSans-33"/>
       <use xlink:href="#DejaVuSans-3c0" transform="translate(63.623047 0)"/>
       <use xlink:href="#DejaVuSans-2f" transform="translate(123.828125 0)"/>
       <use xlink:href="#DejaVuSans-32" transform="translate(157.519531 0)"/>
      </g>
     </g>
    </g>
    <g id="xtick_9">
     <g id="line2d_11">
      <g>
       <use xlink:href="#m2761b880f5" x="964.776388" y="223.322752" style="fill: #1f2937; stroke: #1f2937; stroke-width: 0.8"/>
      </g>
     </g>
     <g id="text_9">
      <!-- 2π -->
      <g style="fill: #1f2937" transform="translate(959.204123 237.161346) scale(0.09 -0.09)">
       <use xlink:href="#DejaVuSans-32"/>
       <use xlink:href="#DejaVuSans-3c0" transform="translate(63.623047 0)"/>
      </g>
     </g>
    </g>
   </g>
   <g id="matplotlib.axis_2">
    <g id="ytick_1">
     <g id="line2d_12">
      <defs>
       <path id="m33597ee56b" d="M 0 0 
L -3.5 0 
" style="stroke: #1f2937; stroke-width: 0.8"/>
      </defs>
      <g>
       <use xlink:href="#m33597ee56b" x="31.890625" y="173.015741" style="fill: #1f2937; stroke: #1f2937; stroke-width: 0.8"/>
      </g>
     </g>
     <g id="text_10">
      <!-- −1 -->
      <g style="fill: #1f2937" transform="translate(7.2 177.574803) scale(0.12 -0.12)">
       <defs>
        <path id="DejaVuSans-2212" d="M 678 2272 
L 4684 2272 
L 4684 1741 
L 678 1741 
L 678 2272 
z
" transform="scale(0.015625)"/>
        <path id="DejaVuSans-31" d="M 794 531 
L 1825 531 
L 1825 4091 
L 703 3866 
L 703 4441 
L 1819 4666 
L 2450 4666 
L 2450 531 
L 3481 531 
L 3481 0 
L 794 0 
L 794 531 
z
" transform="scale(0.015625)"/>
       </defs>
       <use xlink:href="#DejaVuSans-2212"/>
       <use xlink:href="#DejaVuSans-31" transform="translate(83.789062 0)"/>
      </g>
     </g>
    </g>
    <g id="ytick_2">
     <g id="line2d_13">
      <g>
       <use xlink:href="#m33597ee56b" x="31.890625" y="122.708729" style="fill: #1f2937; stroke: #1f2937; stroke-width: 0.8"/>
      </g>
     </g>
     <g id="text_11">
      <!-- 0 -->
      <g style="fill: #1f2937" transform="translate(17.255625 127.267792) scale(0.12 -0.12)">
       <use xlink:href="#DejaVuSans-30"/>
      </g>
     </g>
    </g>
    <g id="ytick_3">
     <g id="line2d_14">
      <g>
       <use xlink:href="#m33597ee56b" x="31.890625" y="72.401718" style="fill: #1f2937; stroke: #1f2937; stroke-width: 0.8"/>
      </g>
     </g>
     <g id="text_12">
      <!-- 1 -->
      <g style="fill: #1f2937" transform="translate(17.255625 76.960781) scale(0.12 -0.12)">
       <use xlink:href="#DejaVuSans-31"/>
      </g>
     </g>
    </g>
   </g>
   <g id="line2d_15">
    <path d="M 31.890625 72.401718 
L 1009.19952 72.401718 
" clip-path="url(#p40855e57c2)" style="fill: none; stroke-dasharray: 3.7,1.6; stroke-dashoffset: 0; stroke: #e5e7eb"/>
   </g>
   <g id="line2d_16">
    <path d="M 31.890625 173.015741 
L 1009.19952 173.015741 
" clip-path="url(#p40855e57c2)" style="fill: none; stroke-dasharray: 3.7,1.6; stroke-dashoffset: 0; stroke: #e5e7eb"/>
   </g>
   <g id="line2d_17">
    <path d="M 76.313757 122.708729 
L 94.118619 110.173344 
L 103.02105 104.154151 
L 111.923481 98.428747 
L 119.045426 94.121065 
L 126.167371 90.103218 
L 131.50883 87.304664 
L 136.850289 84.708089 
L 142.191747 82.328307 
L 147.533206 80.178895 
L 152.874665 78.272115 
L 158.216123 76.618845 
L 163.557582 75.228517 
L 168.899041 74.109063 
L 174.2405 73.26687 
L 179.581958 72.706742 
L 184.923417 72.431874 
L 190.264876 72.443836 
L 195.606334 72.742557 
L 200.947793 73.326335 
L 206.289252 74.191839 
L 211.630711 75.334131 
L 216.972169 76.746695 
L 222.313628 78.421471 
L 227.655087 80.348905 
L 232.996545 82.518002 
L 238.338004 84.916386 
L 243.679463 87.530375 
L 249.020921 90.345056 
L 256.142866 94.382243 
L 263.264811 98.706618 
L 270.386756 103.274336 
L 279.289188 109.25544 
L 289.972105 116.705358 
L 320.240371 137.983105 
L 329.142802 143.881643 
L 336.264747 148.363412 
L 343.386692 152.585082 
L 350.508637 156.503852 
L 355.850096 159.220125 
L 361.191554 161.728101 
L 366.533013 164.013471 
L 371.874472 166.063199 
L 377.21593 167.86559 
L 382.557389 169.410362 
L 387.898848 170.688702 
L 393.240307 171.693316 
L 398.581765 172.418474 
L 403.923224 172.860039 
L 409.264683 173.015492 
L 414.606141 172.883945 
L 419.9476 172.466149 
L 425.289059 171.764487 
L 430.630518 170.782964 
L 435.971976 169.527177 
L 441.313435 168.004292 
L 446.654894 166.222996 
L 451.996352 164.193453 
L 457.337811 161.927239 
L 462.67927 159.437284 
L 468.020729 156.737794 
L 475.142673 152.839308 
L 482.264618 148.635345 
L 489.386563 144.168526 
L 498.288995 138.28457 
L 508.971912 130.906769 
L 544.581637 105.933321 
L 553.484068 100.110021 
L 560.606013 95.704767 
L 567.727958 91.573291 
L 574.849903 87.75748 
L 580.191361 85.126181 
L 585.53282 82.70929 
L 590.874279 80.520595 
L 596.215738 78.572583 
L 601.557196 76.876366 
L 606.898655 75.441623 
L 612.240114 74.276538 
L 617.581572 73.387758 
L 622.923031 72.780353 
L 628.26449 72.457789 
L 633.605948 72.421906 
L 638.947407 72.672909 
L 644.288866 73.209365 
L 649.630325 74.028214 
L 654.971783 75.124785 
L 660.313242 76.492822 
L 665.654701 78.12452 
L 670.996159 80.01057 
L 676.337618 82.140212 
L 681.679077 84.501297 
L 687.020536 87.080356 
L 692.361994 89.862673 
L 699.483939 93.86102 
L 706.605884 98.151838 
L 713.727829 102.691625 
L 722.63026 108.64615 
L 733.313178 116.076933 
L 765.36193 138.585418 
L 774.264361 144.454558 
L 781.386306 148.90625 
L 788.508251 153.092339 
L 795.630196 156.970386 
L 800.971655 159.652988 
L 806.313113 162.124823 
L 811.654572 164.37179 
L 816.996031 166.381069 
L 822.33749 168.141199 
L 827.678948 169.642137 
L 833.020407 170.87532 
L 838.361866 171.833714 
L 843.703324 172.511851 
L 849.044783 172.905861 
L 854.386242 173.013498 
L 859.7277 172.834146 
L 865.069159 172.36883 
L 870.410618 171.620203 
L 875.752077 170.592538 
L 881.093535 169.291696 
L 886.434994 167.725098 
L 891.776453 165.901683 
L 897.117911 163.831853 
L 902.45937 161.527416 
L 907.800829 159.001519 
L 913.142288 156.268572 
L 920.264233 152.329672 
L 927.386177 148.090462 
L 934.508122 143.593921 
L 943.410554 137.681034 
L 954.093471 130.28116 
L 964.776388 122.708729 
L 964.776388 122.708729 
" clip-path="url(#p40855e57c2)" style="fill: none; stroke: #dc2626; stroke-width: 2.5; stroke-linecap: square"/>
   </g>
   <g id="patch_3">
    <path d="M 31.890625 223.322752 
L 31.890625 42.217511 
" style="fill: none; stroke: #000000; stroke-width: 1.5; stroke-linejoin: miter; stroke-linecap: square"/>
   </g>
   <g id="patch_4">
    <path d="M 31.890625 223.322752 
L 1009.19952 223.322752 
" style="fill: none; stroke: #000000; stroke-width: 1.5; stroke-linejoin: miter; stroke-linecap: square"/>
   </g>
   <g id="patch_5">
    <path d="M 664.585716 61.794283 
Q 649.04651 66.791768 634.57165 71.446954 
" style="fill: none; stroke: #dc2626; stroke-linecap: round"/>
    <path d="M 638.549867 72.058336 
L 634.57165 71.446954 
L 637.447687 68.63121 
" style="fill: none; stroke: #dc2626; stroke-linecap: round"/>
   </g>
   <g id="text_13">
    <!-- máx = 1 -->
    <g style="fill: #dc2626" transform="translate(666.953706 57.309615) scale(0.09 -0.09)">
     <defs>
      <path id="DejaVuSans-6d" d="M 3328 2828 
Q 3544 3216 3844 3400 
Q 4144 3584 4550 3584 
Q 5097 3584 5394 3201 
Q 5691 2819 5691 2113 
L 5691 0 
L 5113 0 
L 5113 2094 
Q 5113 2597 4934 2840 
Q 4756 3084 4391 3084 
Q 3944 3084 3684 2787 
Q 3425 2491 3425 1978 
L 3425 0 
L 2847 0 
L 2847 2094 
Q 2847 2600 2669 2842 
Q 2491 3084 2119 3084 
Q 1678 3084 1418 2786 
Q 1159 2488 1159 1978 
L 1159 0 
L 581 0 
L 581 3500 
L 1159 3500 
L 1159 2956 
Q 1356 3278 1631 3431 
Q 1906 3584 2284 3584 
Q 2666 3584 2933 3390 
Q 3200 3197 3328 2828 
z
" transform="scale(0.015625)"/>
      <path id="DejaVuSans-e1" d="M 2194 1759 
Q 1497 1759 1228 1600 
Q 959 1441 959 1056 
Q 959 750 1161 570 
Q 1363 391 1709 391 
Q 2188 391 2477 730 
Q 2766 1069 2766 1631 
L 2766 1759 
L 2194 1759 
z
M 3341 1997 
L 3341 0 
L 2766 0 
L 2766 531 
Q 2569 213 2275 61 
Q 1981 -91 1556 -91 
Q 1019 -91 701 211 
Q 384 513 384 1019 
Q 384 1609 779 1909 
Q 1175 2209 1959 2209 
L 2766 2209 
L 2766 2266 
Q 2766 2663 2505 2880 
Q 2244 3097 1772 3097 
Q 1472 3097 1187 3025 
Q 903 2953 641 2809 
L 641 3341 
Q 956 3463 1253 3523 
Q 1550 3584 1831 3584 
Q 2591 3584 2966 3190 
Q 3341 2797 3341 1997 
z
M 2290 5119 
L 2912 5119 
L 1894 3944 
L 1415 3944 
L 2290 5119 
z
" transform="scale(0.015625)"/>
      <path id="DejaVuSans-78" d="M 3513 3500 
L 2247 1797 
L 3578 0 
L 2900 0 
L 1881 1375 
L 863 0 
L 184 0 
L 1544 1831 
L 300 3500 
L 978 3500 
L 1906 2253 
L 2834 3500 
L 3513 3500 
z
" transform="scale(0.015625)"/>
      <path id="DejaVuSans-20" transform="scale(0.015625)"/>
      <path id="DejaVuSans-3d" d="M 678 2906 
L 4684 2906 
L 4684 2381 
L 678 2381 
L 678 2906 
z
M 678 1631 
L 4684 1631 
L 4684 1100 
L 678 1100 
L 678 1631 
z
" transform="scale(0.015625)"/>
     </defs>
     <use xlink:href="#DejaVuSans-6d"/>
     <use xlink:href="#DejaVuSans-e1" transform="translate(97.412109 0)"/>
     <use xlink:href="#DejaVuSans-78" transform="translate(158.691406 0)"/>
     <use xlink:href="#DejaVuSans-20" transform="translate(217.871094 0)"/>
     <use xlink:href="#DejaVuSans-3d" transform="translate(249.658203 0)"/>
     <use xlink:href="#DejaVuSans-20" transform="translate(333.447266 0)"/>
     <use xlink:href="#DejaVuSans-31" transform="translate(365.234375 0)"/>
    </g>
   </g>
   <g id="patch_6">
    <path d="M 387.646452 183.439899 
Q 397.664369 178.658555 406.673284 174.358786 
" style="fill: none; stroke: #dc2626; stroke-linecap: round"/>
    <path d="M 402.649038 174.284968 
L 406.673284 174.358786 
L 404.199682 177.533891 
" style="fill: none; stroke: #dc2626; stroke-linecap: round"/>
   </g>
   <g id="text_14">
    <!-- mín = -1 -->
    <g style="fill: #dc2626" transform="translate(352.925956 193.138545) scale(0.09 -0.09)">
     <defs>
      <path id="DejaVuSans-ed" d="M 1322 5119 
L 1944 5119 
L 926 3944 
L 447 3944 
L 1322 5119 
z
M 603 3500 
L 1178 3500 
L 1178 0 
L 603 0 
L 603 3500 
z
M 891 3584 
L 891 3584 
z
" transform="scale(0.015625)"/>
      <path id="DejaVuSans-6e" d="M 3513 2113 
L 3513 0 
L 2938 0 
L 2938 2094 
Q 2938 2591 2744 2837 
Q 2550 3084 2163 3084 
Q 1697 3084 1428 2787 
Q 1159 2491 1159 1978 
L 1159 0 
L 581 0 
L 581 3500 
L 1159 3500 
L 1159 2956 
Q 1366 3272 1645 3428 
Q 1925 3584 2291 3584 
Q 2894 3584 3203 3211 
Q 3513 2838 3513 2113 
z
" transform="scale(0.015625)"/>
     </defs>
     <use xlink:href="#DejaVuSans-6d"/>
     <use xlink:href="#DejaVuSans-ed" transform="translate(97.412109 0)"/>
     <use xlink:href="#DejaVuSans-6e" transform="translate(125.195312 0)"/>
     <use xlink:href="#DejaVuSans-20" transform="translate(188.574219 0)"/>
     <use xlink:href="#DejaVuSans-3d" transform="translate(220.361328 0)"/>
     <use xlink:href="#DejaVuSans-20" transform="translate(304.150391 0)"/>
     <use xlink:href="#DejaVuSans-2d" transform="translate(335.9375 0)"/>
     <use xlink:href="#DejaVuSans-31" transform="translate(372.021484 0)"/>
    </g>
   </g>
   <g id="patch_7">
    <path d="M 961.096311 203.199948 
Q 742.659589 203.199948 524.222866 203.199948 
" style="fill: none; stroke: #6b7280; stroke-width: 1.5; stroke-linecap: round"/>
    <path d="M 956.296311 200.799948 
L 961.096311 203.199948 
L 956.296311 205.599948 
" style="fill: none; stroke: #6b7280; stroke-width: 1.5; stroke-linecap: round"/>
    <path d="M 529.022866 205.599948 
L 524.222866 203.199948 
L 529.022866 200.799948 
" style="fill: none; stroke: #6b7280; stroke-width: 1.5; stroke-linecap: round"/>
   </g>
   <g id="text_15">
    <!-- Periodo = 2π -->
    <g style="fill: #6b7280" transform="translate(713.674402 210.745999) scale(0.09 -0.09)">
     <defs>
      <path id="DejaVuSans-50" d="M 1259 4147 
L 1259 2394 
L 2053 2394 
Q 2494 2394 2734 2622 
Q 2975 2850 2975 3272 
Q 2975 3691 2734 3919 
Q 2494 4147 2053 4147 
L 1259 4147 
z
M 628 4666 
L 2053 4666 
Q 2838 4666 3239 4311 
Q 3641 3956 3641 3272 
Q 3641 2581 3239 2228 
Q 2838 1875 2053 1875 
L 1259 1875 
L 1259 0 
L 628 0 
L 628 4666 
z
" transform="scale(0.015625)"/>
      <path id="DejaVuSans-65" d="M 3597 1894 
L 3597 1613 
L 953 1613 
Q 991 1019 1311 708 
Q 1631 397 2203 397 
Q 2534 397 2845 478 
Q 3156 559 3463 722 
L 3463 178 
Q 3153 47 2828 -22 
Q 2503 -91 2169 -91 
Q 1331 -91 842 396 
Q 353 884 353 1716 
Q 353 2575 817 3079 
Q 1281 3584 2069 3584 
Q 2775 3584 3186 3129 
Q 3597 2675 3597 1894 
z
M 3022 2063 
Q 3016 2534 2758 2815 
Q 2500 3097 2075 3097 
Q 1594 3097 1305 2825 
Q 1016 2553 972 2059 
L 3022 2063 
z
" transform="scale(0.015625)"/>
      <path id="DejaVuSans-72" d="M 2631 2963 
Q 2534 3019 2420 3045 
Q 2306 3072 2169 3072 
Q 1681 3072 1420 2755 
Q 1159 2438 1159 1844 
L 1159 0 
L 581 0 
L 581 3500 
L 1159 3500 
L 1159 2956 
Q 1341 3275 1631 3429 
Q 1922 3584 2338 3584 
Q 2397 3584 2469 3576 
Q 2541 3569 2628 3553 
L 2631 2963 
z
" transform="scale(0.015625)"/>
      <path id="DejaVuSans-69" d="M 603 3500 
L 1178 3500 
L 1178 0 
L 603 0 
L 603 3500 
z
M 603 4863 
L 1178 4863 
L 1178 4134 
L 603 4134 
L 603 4863 
z
" transform="scale(0.015625)"/>
      <path id="DejaVuSans-6f" d="M 1959 3097 
Q 1497 3097 1228 2736 
Q 959 2375 959 1747 
Q 959 1119 1226 758 
Q 1494 397 1959 397 
Q 2419 397 2687 759 
Q 2956 1122 2956 1747 
Q 2956 2369 2687 2733 
Q 2419 3097 1959 3097 
z
M 1959 3584 
Q 2709 3584 3137 3096 
Q 3566 2609 3566 1747 
Q 3566 888 3137 398 
Q 2709 -91 1959 -91 
Q 1206 -91 779 398 
Q 353 888 353 1747 
Q 353 2609 779 3096 
Q 1206 3584 1959 3584 
z
" transform="scale(0.015625)"/>
      <path id="DejaVuSans-64" d="M 2906 2969 
L 2906 4863 
L 3481 4863 
L 3481 0 
L 2906 0 
L 2906 525 
Q 2725 213 2448 61 
Q 2172 -91 1784 -91 
Q 1150 -91 751 415 
Q 353 922 353 1747 
Q 353 2572 751 3078 
Q 1150 3584 1784 3584 
Q 2172 3584 2448 3432 
Q 2725 3281 2906 2969 
z
M 947 1747 
Q 947 1113 1208 752 
Q 1469 391 1925 391 
Q 2381 391 2643 752 
Q 2906 1113 2906 1747 
Q 2906 2381 2643 2742 
Q 2381 3103 1925 3103 
Q 1469 3103 1208 2742 
Q 947 2381 947 1747 
z
" transform="scale(0.015625)"/>
     </defs>
     <use xlink:href="#DejaVuSans-50"/>
     <use xlink:href="#DejaVuSans-65" transform="translate(56.677734 0)"/>
     <use xlink:href="#DejaVuSans-72" transform="translate(118.201172 0)"/>
     <use xlink:href="#DejaVuSans-69" transform="translate(159.314453 0)"/>
     <use xlink:href="#DejaVuSans-6f" transform="translate(187.097656 0)"/>
     <use xlink:href="#DejaVuSans-64" transform="translate(248.279297 0)"/>
     <use xlink:href="#DejaVuSans-6f" transform="translate(311.755859 0)"/>
     <use xlink:href="#DejaVuSans-20" transform="translate(372.9375 0)"/>
     <use xlink:href="#DejaVuSans-3d" transform="translate(404.724609 0)"/>
     <use xlink:href="#DejaVuSans-20" transform="translate(488.513672 0)"/>
     <use xlink:href="#DejaVuSans-32" transform="translate(520.300781 0)"/>
     <use xlink:href="#DejaVuSans-3c0" transform="translate(583.923828 0)"/>
    </g>
   </g>
   <g id="text_16">
    <!-- Función Seno: y = sin x -->
    <g style="fill: #dc2626" transform="translate(448.418588 36.217511) scale(0.11 -0.11)">
     <defs>
      <path id="DejaVuSans-Bold-46" d="M 588 4666 
L 3834 4666 
L 3834 3756 
L 1791 3756 
L 1791 2888 
L 3713 2888 
L 3713 1978 
L 1791 1978 
L 1791 0 
L 588 0 
L 588 4666 
z
" transform="scale(0.015625)"/>
      <path id="DejaVuSans-Bold-75" d="M 500 1363 
L 500 3500 
L 1625 3500 
L 1625 3150 
Q 1625 2866 1622 2436 
Q 1619 2006 1619 1863 
Q 1619 1441 1641 1255 
Q 1663 1069 1716 984 
Q 1784 875 1895 815 
Q 2006 756 2150 756 
Q 2500 756 2700 1025 
Q 2900 1294 2900 1772 
L 2900 3500 
L 4019 3500 
L 4019 0 
L 2900 0 
L 2900 506 
Q 2647 200 2364 54 
Q 2081 -91 1741 -91 
Q 1134 -91 817 281 
Q 500 653 500 1363 
z
" transform="scale(0.015625)"/>
      <path id="DejaVuSans-Bold-6e" d="M 4056 2131 
L 4056 0 
L 2931 0 
L 2931 347 
L 2931 1631 
Q 2931 2084 2911 2256 
Q 2891 2428 2841 2509 
Q 2775 2619 2662 2680 
Q 2550 2741 2406 2741 
Q 2056 2741 1856 2470 
Q 1656 2200 1656 1722 
L 1656 0 
L 538 0 
L 538 3500 
L 1656 3500 
L 1656 2988 
Q 1909 3294 2193 3439 
Q 2478 3584 2822 3584 
Q 3428 3584 3742 3212 
Q 4056 2841 4056 2131 
z
" transform="scale(0.015625)"/>
      <path id="DejaVuSans-Bold-63" d="M 3366 3391 
L 3366 2478 
Q 3138 2634 2908 2709 
Q 2678 2784 2431 2784 
Q 1963 2784 1702 2511 
Q 1441 2238 1441 1747 
Q 1441 1256 1702 982 
Q 1963 709 2431 709 
Q 2694 709 2930 787 
Q 3166 866 3366 1019 
L 3366 103 
Q 3103 6 2833 -42 
Q 2563 -91 2291 -91 
Q 1344 -91 809 395 
Q 275 881 275 1747 
Q 275 2613 809 3098 
Q 1344 3584 2291 3584 
Q 2566 3584 2833 3536 
Q 3100 3488 3366 3391 
z
" transform="scale(0.015625)"/>
      <path id="DejaVuSans-Bold-69" d="M 538 3500 
L 1656 3500 
L 1656 0 
L 538 0 
L 538 3500 
z
M 538 4863 
L 1656 4863 
L 1656 3950 
L 538 3950 
L 538 4863 
z
" transform="scale(0.015625)"/>
      <path id="DejaVuSans-Bold-f3" d="M 2203 2784 
Q 1831 2784 1636 2517 
Q 1441 2250 1441 1747 
Q 1441 1244 1636 976 
Q 1831 709 2203 709 
Q 2569 709 2762 976 
Q 2956 1244 2956 1747 
Q 2956 2250 2762 2517 
Q 2569 2784 2203 2784 
z
M 2203 3584 
Q 3106 3584 3614 3096 
Q 4122 2609 4122 1747 
Q 4122 884 3614 396 
Q 3106 -91 2203 -91 
Q 1297 -91 786 396 
Q 275 884 275 1747 
Q 275 2609 786 3096 
Q 1297 3584 2203 3584 
z
M 2694 5119 
L 3578 5119 
L 2425 3944 
L 1813 3944 
L 2694 5119 
z
" transform="scale(0.015625)"/>
      <path id="DejaVuSans-Bold-20" transform="scale(0.015625)"/>
      <path id="DejaVuSans-Bold-53" d="M 3834 4519 
L 3834 3531 
Q 3450 3703 3084 3790 
Q 2719 3878 2394 3878 
Q 1963 3878 1756 3759 
Q 1550 3641 1550 3391 
Q 1550 3203 1689 3098 
Q 1828 2994 2194 2919 
L 2706 2816 
Q 3484 2659 3812 2340 
Q 4141 2022 4141 1434 
Q 4141 663 3683 286 
Q 3225 -91 2284 -91 
Q 1841 -91 1394 -6 
Q 947 78 500 244 
L 500 1259 
Q 947 1022 1364 901 
Q 1781 781 2169 781 
Q 2563 781 2772 912 
Q 2981 1044 2981 1288 
Q 2981 1506 2839 1625 
Q 2697 1744 2272 1838 
L 1806 1941 
Q 1106 2091 782 2419 
Q 459 2747 459 3303 
Q 459 4000 909 4375 
Q 1359 4750 2203 4750 
Q 2588 4750 2994 4692 
Q 3400 4634 3834 4519 
z
" transform="scale(0.015625)"/>
      <path id="DejaVuSans-Bold-65" d="M 4031 1759 
L 4031 1441 
L 1416 1441 
Q 1456 1047 1700 850 
Q 1944 653 2381 653 
Q 2734 653 3104 758 
Q 3475 863 3866 1075 
L 3866 213 
Q 3469 63 3072 -14 
Q 2675 -91 2278 -91 
Q 1328 -91 801 392 
Q 275 875 275 1747 
Q 275 2603 792 3093 
Q 1309 3584 2216 3584 
Q 3041 3584 3536 3087 
Q 4031 2591 4031 1759 
z
M 2881 2131 
Q 2881 2450 2695 2645 
Q 2509 2841 2209 2841 
Q 1884 2841 1681 2658 
Q 1478 2475 1428 2131 
L 2881 2131 
z
" transform="scale(0.015625)"/>
      <path id="DejaVuSans-Bold-6f" d="M 2203 2784 
Q 1831 2784 1636 2517 
Q 1441 2250 1441 1747 
Q 1441 1244 1636 976 
Q 1831 709 2203 709 
Q 2569 709 2762 976 
Q 2956 1244 2956 1747 
Q 2956 2250 2762 2517 
Q 2569 2784 2203 2784 
z
M 2203 3584 
Q 3106 3584 3614 3096 
Q 4122 2609 4122 1747 
Q 4122 884 3614 396 
Q 3106 -91 2203 -91 
Q 1297 -91 786 396 
Q 275 884 275 1747 
Q 275 2609 786 3096 
Q 1297 3584 2203 3584 
z
" transform="scale(0.015625)"/>
      <path id="DejaVuSans-Bold-3a" d="M 716 3500 
L 1844 3500 
L 1844 2291 
L 716 2291 
L 716 3500 
z
M 716 1209 
L 1844 1209 
L 1844 0 
L 716 0 
L 716 1209 
z
" transform="scale(0.015625)"/>
      <path id="DejaVuSans-Bold-79" d="M 78 3500 
L 1197 3500 
L 2138 1125 
L 2938 3500 
L 4056 3500 
L 2584 -331 
Q 2363 -916 2067 -1148 
Q 1772 -1381 1288 -1381 
L 641 -1381 
L 641 -647 
L 991 -647 
Q 1275 -647 1404 -556 
Q 1534 -466 1606 -231 
L 1638 -134 
L 78 3500 
z
" transform="scale(0.015625)"/>
      <path id="DejaVuSans-Bold-3d" d="M 678 3084 
L 4684 3084 
L 4684 2350 
L 678 2350 
L 678 3084 
z
M 678 1663 
L 4684 1663 
L 4684 922 
L 678 922 
L 678 1663 
z
" transform="scale(0.015625)"/>
      <path id="DejaVuSans-Bold-73" d="M 3272 3391 
L 3272 2541 
Q 2913 2691 2578 2766 
Q 2244 2841 1947 2841 
Q 1628 2841 1473 2761 
Q 1319 2681 1319 2516 
Q 1319 2381 1436 2309 
Q 1553 2238 1856 2203 
L 2053 2175 
Q 2913 2066 3209 1816 
Q 3506 1566 3506 1031 
Q 3506 472 3093 190 
Q 2681 -91 1863 -91 
Q 1516 -91 1145 -36 
Q 775 19 384 128 
L 384 978 
Q 719 816 1070 734 
Q 1422 653 1784 653 
Q 2113 653 2278 743 
Q 2444 834 2444 1013 
Q 2444 1163 2330 1236 
Q 2216 1309 1875 1350 
L 1678 1375 
Q 931 1469 631 1722 
Q 331 1975 331 2491 
Q 331 3047 712 3315 
Q 1094 3584 1881 3584 
Q 2191 3584 2531 3537 
Q 2872 3491 3272 3391 
z
" transform="scale(0.015625)"/>
      <path id="DejaVuSans-Bold-78" d="M 1422 1791 
L 159 3500 
L 1344 3500 
L 2059 2463 
L 2784 3500 
L 3969 3500 
L 2706 1797 
L 4031 0 
L 2847 0 
L 2059 1106 
L 1281 0 
L 97 0 
L 1422 1791 
z
" transform="scale(0.015625)"/>
     </defs>
     <use xlink:href="#DejaVuSans-Bold-46"/>
     <use xlink:href="#DejaVuSans-Bold-75" transform="translate(63.310547 0)"/>
     <use xlink:href="#DejaVuSans-Bold-6e" transform="translate(134.501953 0)"/>
     <use xlink:href="#DejaVuSans-Bold-63" transform="translate(205.693359 0)"/>
     <use xlink:href="#DejaVuSans-Bold-69" transform="translate(264.970703 0)"/>
     <use xlink:href="#DejaVuSans-Bold-f3" transform="translate(299.248047 0)"/>
     <use xlink:href="#DejaVuSans-Bold-6e" transform="translate(367.949219 0)"/>
     <use xlink:href="#DejaVuSans-Bold-20" transform="translate(439.140625 0)"/>
     <use xlink:href="#DejaVuSans-Bold-53" transform="translate(473.955078 0)"/>
     <use xlink:href="#DejaVuSans-Bold-65" transform="translate(545.976562 0)"/>
     <use xlink:href="#DejaVuSans-Bold-6e" transform="translate(613.798828 0)"/>
     <use xlink:href="#DejaVuSans-Bold-6f" transform="translate(684.990234 0)"/>
     <use xlink:href="#DejaVuSans-Bold-3a" transform="translate(753.691406 0)"/>
     <use xlink:href="#DejaVuSans-Bold-20" transform="translate(793.681641 0)"/>
     <use xlink:href="#DejaVuSans-Bold-79" transform="translate(828.496094 0)"/>
     <use xlink:href="#DejaVuSans-Bold-20" transform="translate(893.681641 0)"/>
     <use xlink:href="#DejaVuSans-Bold-3d" transform="translate(928.496094 0)"/>
     <use xlink:href="#DejaVuSans-Bold-20" transform="translate(1012.285156 0)"/>
     <use xlink:href="#DejaVuSans-Bold-73" transform="translate(1047.099609 0)"/>
     <use xlink:href="#DejaVuSans-Bold-69" transform="translate(1106.621094 0)"/>
     <use xlink:href="#DejaVuSans-Bold-6e" transform="translate(1140.898438 0)"/>
     <use xlink:href="#DejaVuSans-Bold-20" transform="translate(1212.089844 0)"/>
     <use xlink:href="#DejaVuSans-Bold-78" transform="translate(1246.904297 0)"/>
    </g>
   </g>
   <g id="PathCollection_1">
    <defs>
     <path id="m5a83b1ec3a" d="M 0 3.535534 
C 0.937635 3.535534 1.836992 3.163008 2.5 2.5 
C 3.163008 1.836992 3.535534 0.937635 3.535534 0 
C 3.535534 -0.937635 3.163008 -1.836992 2.5 -2.5 
C 1.836992 -3.163008 0.937635 -3.535534 0 -3.535534 
C -0.937635 -3.535534 -1.836992 -3.163008 -2.5 -2.5 
C -3.163008 -1.836992 -3.535534 -0.937635 -3.535534 0 
C -3.535534 0.937635 -3.163008 1.836992 -2.5 2.5 
C -1.836992 3.163008 -0.937635 3.535534 0 3.535534 
z
" style="stroke: #dc2626"/>
    </defs>
    <g clip-path="url(#p40855e57c2)">
     <use xlink:href="#m5a83b1ec3a" x="76.313757" y="122.708729" style="fill: #dc2626; stroke: #dc2626"/>
     <use xlink:href="#m5a83b1ec3a" x="187.371586" y="72.401718" style="fill: #dc2626; stroke: #dc2626"/>
     <use xlink:href="#m5a83b1ec3a" x="298.429415" y="122.708729" style="fill: #dc2626; stroke: #dc2626"/>
     <use xlink:href="#m5a83b1ec3a" x="409.487244" y="173.015741" style="fill: #dc2626; stroke: #dc2626"/>
     <use xlink:href="#m5a83b1ec3a" x="520.545073" y="122.708729" style="fill: #dc2626; stroke: #dc2626"/>
     <use xlink:href="#m5a83b1ec3a" x="631.602901" y="72.401718" style="fill: #dc2626; stroke: #dc2626"/>
     <use xlink:href="#m5a83b1ec3a" x="742.66073" y="122.708729" style="fill: #dc2626; stroke: #dc2626"/>
     <use xlink:href="#m5a83b1ec3a" x="853.718559" y="173.015741" style="fill: #dc2626; stroke: #dc2626"/>
     <use xlink:href="#m5a83b1ec3a" x="964.776388" y="122.708729" style="fill: #dc2626; stroke: #dc2626"/>
    </g>
   </g>
   <g id="legend_1">
    <g id="patch_8">
     <path d="M 934.430614 62.627824 
L 1002.89952 62.627824 
Q 1004.69952 62.627824 1004.69952 60.827824 
L 1004.69952 48.517511 
Q 1004.69952 46.717511 1002.89952 46.717511 
L 934.430614 46.717511 
Q 932.630614 46.717511 932.630614 48.517511 
L 932.630614 60.827824 
Q 932.630614 62.627824 934.430614 62.627824 
z
" style="fill: #ffffff; opacity: 0.8; stroke: #cccccc; stroke-linejoin: miter"/>
    </g>
    <g id="line2d_18">
     <path d="M 936.230614 54.006105 
L 945.230614 54.006105 
L 954.230614 54.006105 
" style="fill: none; stroke: #dc2626; stroke-width: 2.5; stroke-linecap: square"/>
    </g>
    <g id="text_17">
     <!-- y = sin x -->
     <g style="fill: #1f2937" transform="translate(961.430614 57.156105) scale(0.09 -0.09)">
      <defs>
       <path id="DejaVuSans-79" d="M 2059 -325 
Q 1816 -950 1584 -1140 
Q 1353 -1331 966 -1331 
L 506 -1331 
L 506 -850 
L 844 -850 
Q 1081 -850 1212 -737 
Q 1344 -625 1503 -206 
L 1606 56 
L 191 3500 
L 800 3500 
L 1894 763 
L 2988 3500 
L 3597 3500 
L 2059 -325 
z
" transform="scale(0.015625)"/>
       <path id="DejaVuSans-73" d="M 2834 3397 
L 2834 2853 
Q 2591 2978 2328 3040 
Q 2066 3103 1784 3103 
Q 1356 3103 1142 2972 
Q 928 2841 928 2578 
Q 928 2378 1081 2264 
Q 1234 2150 1697 2047 
L 1894 2003 
Q 2506 1872 2764 1633 
Q 3022 1394 3022 966 
Q 3022 478 2636 193 
Q 2250 -91 1575 -91 
Q 1294 -91 989 -36 
Q 684 19 347 128 
L 347 722 
Q 666 556 975 473 
Q 1284 391 1588 391 
Q 1994 391 2212 530 
Q 2431 669 2431 922 
Q 2431 1156 2273 1281 
Q 2116 1406 1581 1522 
L 1381 1569 
Q 847 1681 609 1914 
Q 372 2147 372 2553 
Q 372 3047 722 3315 
Q 1072 3584 1716 3584 
Q 2034 3584 2315 3537 
Q 2597 3491 2834 3397 
z
" transform="scale(0.015625)"/>
      </defs>
      <use xlink:href="#DejaVuSans-79"/>
      <use xlink:href="#DejaVuSans-20" transform="translate(59.179688 0)"/>
      <use xlink:href="#DejaVuSans-3d" transform="translate(90.966797 0)"/>
      <use xlink:href="#DejaVuSans-20" transform="translate(174.755859 0)"/>
      <use xlink:href="#DejaVuSans-73" transform="translate(206.542969 0)"/>
      <use xlink:href="#DejaVuSans-69" transform="translate(258.642578 0)"/>
      <use xlink:href="#DejaVuSans-6e" transform="translate(286.425781 0)"/>
      <use xlink:href="#DejaVuSans-20" transform="translate(349.804688 0)"/>
      <use xlink:href="#DejaVuSans-78" transform="translate(381.591797 0)"/>
     </g>
    </g>
   </g>
  </g>
  <g id="axes_2">
   <g id="patch_9">
    <path d="M 31.890625 488.936587 
L 1009.19952 488.936587 
L 1009.19952 307.831346 
L 31.890625 307.831346 
z
" style="fill: #ffffff"/>
   </g>
   <g id="line2d_19">
    <path d="M 31.890625 388.322564 
L 1009.19952 388.322564 
" clip-path="url(#p2841a7b3be)" style="fill: none; stroke: #d1d5db; stroke-linecap: square"/>
   </g>
   <g id="line2d_20">
    <path d="M 520.545073 488.936587 
L 520.545073 307.831346 
" clip-path="url(#p2841a7b3be)" style="fill: none; stroke: #d1d5db; stroke-linecap: square"/>
   </g>
   <g id="matplotlib.axis_3">
    <g id="xtick_10">
     <g id="line2d_21">
      <g>
       <use xlink:href="#m2761b880f5" x="76.313757" y="488.936587" style="fill: #1f2937; stroke: #1f2937; stroke-width: 0.8"/>
      </g>
     </g>
     <g id="text_18">
      <!-- -2π -->
      <g style="fill: #1f2937" transform="translate(69.117975 502.775181) scale(0.09 -0.09)">
       <use xlink:href="#DejaVuSans-2d"/>
       <use xlink:href="#DejaVuSans-32" transform="translate(36.083984 0)"/>
       <use xlink:href="#DejaVuSans-3c0" transform="translate(99.707031 0)"/>
      </g>
     </g>
    </g>
    <g id="xtick_11">
     <g id="line2d_22">
      <g>
       <use xlink:href="#m2761b880f5" x="187.371586" y="488.936587" style="fill: #1f2937; stroke: #1f2937; stroke-width: 0.8"/>
      </g>
     </g>
     <g id="text_19">
      <!-- -3π/2 -->
      <g style="fill: #1f2937" transform="translate(175.796742 502.775181) scale(0.09 -0.09)">
       <use xlink:href="#DejaVuSans-2d"/>
       <use xlink:href="#DejaVuSans-33" transform="translate(36.083984 0)"/>
       <use xlink:href="#DejaVuSans-3c0" transform="translate(99.707031 0)"/>
       <use xlink:href="#DejaVuSans-2f" transform="translate(159.912109 0)"/>
       <use xlink:href="#DejaVuSans-32" transform="translate(193.603516 0)"/>
      </g>
     </g>
    </g>
    <g id="xtick_12">
     <g id="line2d_23">
      <g>
       <use xlink:href="#m2761b880f5" x="298.429415" y="488.936587" style="fill: #1f2937; stroke: #1f2937; stroke-width: 0.8"/>
      </g>
     </g>
     <g id="text_20">
      <!-- -π -->
      <g style="fill: #1f2937" transform="translate(294.096758 502.775181) scale(0.09 -0.09)">
       <use xlink:href="#DejaVuSans-2d"/>
       <use xlink:href="#DejaVuSans-3c0" transform="translate(36.083984 0)"/>
      </g>
     </g>
    </g>
    <g id="xtick_13">
     <g id="line2d_24">
      <g>
       <use xlink:href="#m2761b880f5" x="409.487244" y="488.936587" style="fill: #1f2937; stroke: #1f2937; stroke-width: 0.8"/>
      </g>
     </g>
     <g id="text_21">
      <!-- -π/2 -->
      <g style="fill: #1f2937" transform="translate(400.775525 502.775181) scale(0.09 -0.09)">
       <use xlink:href="#DejaVuSans-2d"/>
       <use xlink:href="#DejaVuSans-3c0" transform="translate(36.083984 0)"/>
       <use xlink:href="#DejaVuSans-2f" transform="translate(96.289062 0)"/>
       <use xlink:href="#DejaVuSans-32" transform="translate(129.980469 0)"/>
      </g>
     </g>
    </g>
    <g id="xtick_14">
     <g id="line2d_25">
      <g>
       <use xlink:href="#m2761b880f5" x="520.545073" y="488.936587" style="fill: #1f2937; stroke: #1f2937; stroke-width: 0.8"/>
      </g>
     </g>
     <g id="text_22">
      <!-- 0 -->
      <g style="fill: #1f2937" transform="translate(517.681948 502.775181) scale(0.09 -0.09)">
       <use xlink:href="#DejaVuSans-30"/>
      </g>
     </g>
    </g>
    <g id="xtick_15">
     <g id="line2d_26">
      <g>
       <use xlink:href="#m2761b880f5" x="631.602901" y="488.936587" style="fill: #1f2937; stroke: #1f2937; stroke-width: 0.8"/>
      </g>
     </g>
     <g id="text_23">
      <!-- π/2 -->
      <g style="fill: #1f2937" transform="translate(624.514698 502.775181) scale(0.09 -0.09)">
       <use xlink:href="#DejaVuSans-3c0"/>
       <use xlink:href="#DejaVuSans-2f" transform="translate(60.205078 0)"/>
       <use xlink:href="#DejaVuSans-32" transform="translate(93.896484 0)"/>
      </g>
     </g>
    </g>
    <g id="xtick_16">
     <g id="line2d_27">
      <g>
       <use xlink:href="#m2761b880f5" x="742.66073" y="488.936587" style="fill: #1f2937; stroke: #1f2937; stroke-width: 0.8"/>
      </g>
     </g>
     <g id="text_24">
      <!-- π -->
      <g style="fill: #1f2937" transform="translate(739.95159 502.775181) scale(0.09 -0.09)">
       <use xlink:href="#DejaVuSans-3c0"/>
      </g>
     </g>
    </g>
    <g id="xtick_17">
     <g id="line2d_28">
      <g>
       <use xlink:href="#m2761b880f5" x="853.718559" y="488.936587" style="fill: #1f2937; stroke: #1f2937; stroke-width: 0.8"/>
      </g>
     </g>
     <g id="text_25">
      <!-- 3π/2 -->
      <g style="fill: #1f2937" transform="translate(843.767231 502.775181) scale(0.09 -0.09)">
       <use xlink:href="#DejaVuSans-33"/>
       <use xlink:href="#DejaVuSans-3c0" transform="translate(63.623047 0)"/>
       <use xlink:href="#DejaVuSans-2f" transform="translate(123.828125 0)"/>
       <use xlink:href="#DejaVuSans-32" transform="translate(157.519531 0)"/>
      </g>
     </g>
    </g>
    <g id="xtick_18">
     <g id="line2d_29">
      <g>
       <use xlink:href="#m2761b880f5" x="964.776388" y="488.936587" style="fill: #1f2937; stroke: #1f2937; stroke-width: 0.8"/>
      </g>
     </g>
     <g id="text_26">
      <!-- 2π -->
      <g style="fill: #1f2937" transform="translate(959.204123 502.775181) scale(0.09 -0.09)">
       <use xlink:href="#DejaVuSans-32"/>
       <use xlink:href="#DejaVuSans-3c0" transform="translate(63.623047 0)"/>
      </g>
     </g>
    </g>
   </g>
   <g id="matplotlib.axis_4">
    <g id="ytick_4">
     <g id="line2d_30">
      <g>
       <use xlink:href="#m33597ee56b" x="31.890625" y="438.629576" style="fill: #1f2937; stroke: #1f2937; stroke-width: 0.8"/>
      </g>
     </g>
     <g id="text_27">
      <!-- −1 -->
      <g style="fill: #1f2937" transform="translate(7.2 443.188638) scale(0.12 -0.12)">
       <use xlink:href="#DejaVuSans-2212"/>
       <use xlink:href="#DejaVuSans-31" transform="translate(83.789062 0)"/>
      </g>
     </g>
    </g>
    <g id="ytick_5">
     <g id="line2d_31">
      <g>
       <use xlink:href="#m33597ee56b" x="31.890625" y="388.322564" style="fill: #1f2937; stroke: #1f2937; stroke-width: 0.8"/>
      </g>
     </g>
     <g id="text_28">
      <!-- 0 -->
      <g style="fill: #1f2937" transform="translate(17.255625 392.881627) scale(0.12 -0.12)">
       <use xlink:href="#DejaVuSans-30"/>
      </g>
     </g>
    </g>
    <g id="ytick_6">
     <g id="line2d_32">
      <g>
       <use xlink:href="#m33597ee56b" x="31.890625" y="338.015553" style="fill: #1f2937; stroke: #1f2937; stroke-width: 0.8"/>
      </g>
     </g>
     <g id="text_29">
      <!-- 1 -->
      <g style="fill: #1f2937" transform="translate(17.255625 342.574615) scale(0.12 -0.12)">
       <use xlink:href="#DejaVuSans-31"/>
      </g>
     </g>
    </g>
   </g>
   <g id="line2d_33">
    <path d="M 31.890625 338.015553 
L 1009.19952 338.015553 
" clip-path="url(#p2841a7b3be)" style="fill: none; stroke-dasharray: 3.7,1.6; stroke-dashoffset: 0; stroke: #e5e7eb"/>
   </g>
   <g id="line2d_34">
    <path d="M 31.890625 438.629576 
L 1009.19952 438.629576 
" clip-path="url(#p2841a7b3be)" style="fill: none; stroke-dasharray: 3.7,1.6; stroke-dashoffset: 0; stroke: #e5e7eb"/>
   </g>
   <g id="line2d_35">
    <path d="M 76.313757 338.015553 
L 81.655215 338.159053 
L 86.996674 338.588736 
L 92.338133 339.302149 
L 97.679591 340.295223 
L 103.02105 341.562292 
L 108.362509 343.096129 
L 113.703968 344.887981 
L 119.045426 346.927627 
L 124.386885 349.20343 
L 129.728344 351.702408 
L 135.069802 354.410303 
L 142.191747 358.31895 
L 149.313692 362.531788 
L 156.435637 367.006104 
L 165.338068 372.89738 
L 176.020986 380.280809 
L 211.630711 405.247186 
L 220.533142 411.062644 
L 227.655087 415.460005 
L 234.777032 419.582235 
L 241.898977 423.38754 
L 247.240435 426.010197 
L 252.581894 428.417846 
L 257.923353 430.596753 
L 263.264811 432.534486 
L 268.60627 434.219991 
L 273.947729 435.643651 
L 279.289188 436.797345 
L 284.630646 437.674492 
L 289.972105 438.270086 
L 295.313564 438.58073 
L 300.655022 438.604653 
L 305.996481 438.341716 
L 311.33794 437.793421 
L 316.679398 436.962896 
L 322.020857 435.854878 
L 327.362316 434.475689 
L 332.703775 432.833197 
L 338.045233 430.936773 
L 343.386692 428.797235 
L 348.728151 426.426789 
L 354.069609 423.83896 
L 359.411068 421.04851 
L 366.533013 417.040393 
L 373.654958 412.741122 
L 380.776903 408.194285 
L 389.679334 402.233027 
L 400.362252 394.797349 
L 430.630518 373.501518 
L 439.532949 367.581545 
L 446.654894 363.077684 
L 453.776839 358.829768 
L 460.898784 354.880862 
L 466.240242 352.139618 
L 471.581701 349.604798 
L 476.92316 347.290862 
L 482.264618 345.211011 
L 487.606077 343.377111 
L 492.947536 341.799624 
L 498.288995 340.48755 
L 503.630453 339.448374 
L 508.971912 338.688024 
L 514.313371 338.210839 
L 519.654829 338.019541 
L 524.996288 338.11522 
L 530.337747 338.497332 
L 535.679206 339.163696 
L 541.020664 340.110511 
L 546.362123 341.332374 
L 551.703582 342.822317 
L 557.04504 344.571837 
L 562.386499 346.570955 
L 567.727958 348.808265 
L 573.069416 351.271003 
L 578.410875 353.94512 
L 585.53282 357.81289 
L 592.654765 361.98998 
L 599.77671 366.434042 
L 608.679141 372.295687 
L 619.362059 379.656165 
L 640.727893 394.797349 
L 653.191297 403.445979 
L 662.093728 409.351721 
L 669.215673 413.840898 
L 676.337618 418.071359 
L 683.459563 422.000214 
L 688.801022 424.724837 
L 694.142481 427.241786 
L 699.483939 429.536701 
L 704.825398 431.59649 
L 710.166857 433.409402 
L 715.508315 434.965095 
L 720.849774 436.254692 
L 726.191233 437.270837 
L 731.532691 438.007733 
L 736.87415 438.461176 
L 742.215609 438.628579 
L 747.557068 438.508986 
L 752.898526 438.103081 
L 758.239985 437.413179 
L 763.581444 436.443215 
L 768.922902 435.198724 
L 774.264361 433.686805 
L 779.60582 431.916084 
L 784.947279 429.896662 
L 790.288737 427.64006 
L 795.630196 425.159153 
L 800.971655 422.468094 
L 808.0936 418.579808 
L 815.215545 414.384761 
L 822.33749 409.925484 
L 831.239921 404.048906 
L 841.922838 396.676807 
L 879.313049 370.506234 
L 888.21548 364.739039 
L 895.337425 360.389947 
L 902.45937 356.324049 
L 907.800829 353.485388 
L 913.142288 350.845473 
L 918.483746 348.419364 
L 923.825205 346.220902 
L 929.166664 344.26263 
L 934.508122 342.555718 
L 939.849581 341.109907 
L 945.19104 339.933442 
L 950.532499 339.033037 
L 955.873957 338.413828 
L 961.215416 338.079348 
L 964.776388 338.015553 
L 964.776388 338.015553 
" clip-path="url(#p2841a7b3be)" style="fill: none; stroke: #7c3aed; stroke-width: 2.5; stroke-linecap: square"/>
   </g>
   <g id="patch_10">
    <path d="M 31.890625 488.936587 
L 31.890625 307.831346 
" style="fill: none; stroke: #000000; stroke-width: 1.5; stroke-linejoin: miter; stroke-linecap: square"/>
   </g>
   <g id="patch_11">
    <path d="M 31.890625 488.936587 
L 1009.19952 488.936587 
" style="fill: none; stroke: #000000; stroke-width: 1.5; stroke-linejoin: miter; stroke-linecap: square"/>
   </g>
   <g id="patch_12">
    <path d="M 559.047442 327.051458 
Q 540.757406 332.259804 523.542657 337.161948 
" style="fill: none; stroke: #7c3aed; stroke-linecap: round"/>
    <path d="M 527.497988 337.907171 
L 523.542657 337.161948 
L 526.512034 334.444817 
" style="fill: none; stroke: #7c3aed; stroke-linecap: round"/>
   </g>
   <g id="text_30">
    <!-- máx = 1 -->
    <g style="fill: #7c3aed" transform="translate(562.966038 322.923449) scale(0.09 -0.09)">
     <use xlink:href="#DejaVuSans-6d"/>
     <use xlink:href="#DejaVuSans-e1" transform="translate(97.412109 0)"/>
     <use xlink:href="#DejaVuSans-78" transform="translate(158.691406 0)"/>
     <use xlink:href="#DejaVuSans-20" transform="translate(217.871094 0)"/>
     <use xlink:href="#DejaVuSans-3d" transform="translate(249.658203 0)"/>
     <use xlink:href="#DejaVuSans-20" transform="translate(333.447266 0)"/>
     <use xlink:href="#DejaVuSans-31" transform="translate(365.234375 0)"/>
    </g>
   </g>
   <g id="patch_13">
    <path d="M 775.914222 449.303435 
Q 760.239374 444.27205 745.629063 439.582365 
" style="fill: none; stroke: #7c3aed; stroke-linecap: round"/>
    <path d="M 748.506682 442.396491 
L 745.629063 439.582365 
L 749.606936 438.968746 
" style="fill: none; stroke: #7c3aed; stroke-linecap: round"/>
   </g>
   <g id="text_31">
    <!-- mín = -1 -->
    <g style="fill: #7c3aed" transform="translate(778.011535 458.75238) scale(0.09 -0.09)">
     <use xlink:href="#DejaVuSans-6d"/>
     <use xlink:href="#DejaVuSans-ed" transform="translate(97.412109 0)"/>
     <use xlink:href="#DejaVuSans-6e" transform="translate(125.195312 0)"/>
     <use xlink:href="#DejaVuSans-20" transform="translate(188.574219 0)"/>
     <use xlink:href="#DejaVuSans-3d" transform="translate(220.361328 0)"/>
     <use xlink:href="#DejaVuSans-20" transform="translate(304.150391 0)"/>
     <use xlink:href="#DejaVuSans-2d" transform="translate(335.9375 0)"/>
     <use xlink:href="#DejaVuSans-31" transform="translate(372.021484 0)"/>
    </g>
   </g>
   <g id="text_32">
    <!-- Función Coseno: y = cos x -->
    <g style="fill: #7c3aed" transform="translate(440.052573 301.831346) scale(0.11 -0.11)">
     <defs>
      <path id="DejaVuSans-Bold-43" d="M 4288 256 
Q 3956 84 3597 -3 
Q 3238 -91 2847 -91 
Q 1681 -91 1000 561 
Q 319 1213 319 2328 
Q 319 3447 1000 4098 
Q 1681 4750 2847 4750 
Q 3238 4750 3597 4662 
Q 3956 4575 4288 4403 
L 4288 3438 
Q 3953 3666 3628 3772 
Q 3303 3878 2944 3878 
Q 2300 3878 1931 3465 
Q 1563 3053 1563 2328 
Q 1563 1606 1931 1193 
Q 2300 781 2944 781 
Q 3303 781 3628 887 
Q 3953 994 4288 1222 
L 4288 256 
z
" transform="scale(0.015625)"/>
     </defs>
     <use xlink:href="#DejaVuSans-Bold-46"/>
     <use xlink:href="#DejaVuSans-Bold-75" transform="translate(63.310547 0)"/>
     <use xlink:href="#DejaVuSans-Bold-6e" transform="translate(134.501953 0)"/>
     <use xlink:href="#DejaVuSans-Bold-63" transform="translate(205.693359 0)"/>
     <use xlink:href="#DejaVuSans-Bold-69" transform="translate(264.970703 0)"/>
     <use xlink:href="#DejaVuSans-Bold-f3" transform="translate(299.248047 0)"/>
     <use xlink:href="#DejaVuSans-Bold-6e" transform="translate(367.949219 0)"/>
     <use xlink:href="#DejaVuSans-Bold-20" transform="translate(439.140625 0)"/>
     <use xlink:href="#DejaVuSans-Bold-43" transform="translate(473.955078 0)"/>
     <use xlink:href="#DejaVuSans-Bold-6f" transform="translate(547.34375 0)"/>
     <use xlink:href="#DejaVuSans-Bold-73" transform="translate(616.044922 0)"/>
     <use xlink:href="#DejaVuSans-Bold-65" transform="translate(675.566406 0)"/>
     <use xlink:href="#DejaVuSans-Bold-6e" transform="translate(743.388672 0)"/>
     <use xlink:href="#DejaVuSans-Bold-6f" transform="translate(814.580078 0)"/>
     <use xlink:href="#DejaVuSans-Bold-3a" transform="translate(883.28125 0)"/>
     <use xlink:href="#DejaVuSans-Bold-20" transform="translate(923.271484 0)"/>
     <use xlink:href="#DejaVuSans-Bold-79" transform="translate(958.085938 0)"/>
     <use xlink:href="#DejaVuSans-Bold-20" transform="translate(1023.271484 0)"/>
     <use xlink:href="#DejaVuSans-Bold-3d" transform="translate(1058.085938 0)"/>
     <use xlink:href="#DejaVuSans-Bold-20" transform="translate(1141.875 0)"/>
     <use xlink:href="#DejaVuSans-Bold-63" transform="translate(1176.689453 0)"/>
     <use xlink:href="#DejaVuSans-Bold-6f" transform="translate(1235.966797 0)"/>
     <use xlink:href="#DejaVuSans-Bold-73" transform="translate(1304.667969 0)"/>
     <use xlink:href="#DejaVuSans-Bold-20" transform="translate(1364.189453 0)"/>
     <use xlink:href="#DejaVuSans-Bold-78" transform="translate(1399.003906 0)"/>
    </g>
   </g>
   <g id="PathCollection_2">
    <defs>
     <path id="m7345c72f82" d="M 0 3.535534 
C 0.937635 3.535534 1.836992 3.163008 2.5 2.5 
C 3.163008 1.836992 3.535534 0.937635 3.535534 0 
C 3.535534 -0.937635 3.163008 -1.836992 2.5 -2.5 
C 1.836992 -3.163008 0.937635 -3.535534 0 -3.535534 
C -0.937635 -3.535534 -1.836992 -3.163008 -2.5 -2.5 
C -3.163008 -1.836992 -3.535534 -0.937635 -3.535534 0 
C -3.535534 0.937635 -3.163008 1.836992 -2.5 2.5 
C -1.836992 3.163008 -0.937635 3.535534 0 3.535534 
z
" style="stroke: #7c3aed"/>
    </defs>
    <g clip-path="url(#p2841a7b3be)">
     <use xlink:href="#m7345c72f82" x="76.313757" y="338.015553" style="fill: #7c3aed; stroke: #7c3aed"/>
     <use xlink:href="#m7345c72f82" x="187.371586" y="388.322564" style="fill: #7c3aed; stroke: #7c3aed"/>
     <use xlink:href="#m7345c72f82" x="298.429415" y="438.629576" style="fill: #7c3aed; stroke: #7c3aed"/>
     <use xlink:href="#m7345c72f82" x="409.487244" y="388.322564" style="fill: #7c3aed; stroke: #7c3aed"/>
     <use xlink:href="#m7345c72f82" x="520.545073" y="338.015553" style="fill: #7c3aed; stroke: #7c3aed"/>
     <use xlink:href="#m7345c72f82" x="631.602901" y="388.322564" style="fill: #7c3aed; stroke: #7c3aed"/>
     <use xlink:href="#m7345c72f82" x="742.66073" y="438.629576" style="fill: #7c3aed; stroke: #7c3aed"/>
     <use xlink:href="#m7345c72f82" x="853.718559" y="388.322564" style="fill: #7c3aed; stroke: #7c3aed"/>
     <use xlink:href="#m7345c72f82" x="964.776388" y="338.015553" style="fill: #7c3aed; stroke: #7c3aed"/>
    </g>
   </g>
   <g id="legend_2">
    <g id="patch_14">
     <path d="M 932.179207 328.241658 
L 1002.89952 328.241658 
Q 1004.69952 328.241658 1004.69952 326.441658 
L 1004.69952 314.131346 
Q 1004.69952 312.331346 1002.89952 312.331346 
L 932.179207 312.331346 
Q 930.379208 312.331346 930.379208 314.131346 
L 930.379208 326.441658 
Q 930.379208 328.241658 932.179207 328.241658 
z
" style="fill: #ffffff; opacity: 0.8; stroke: #cccccc; stroke-linejoin: miter"/>
    </g>
    <g id="line2d_36">
     <path d="M 933.979208 319.61994 
L 942.979208 319.61994 
L 951.979208 319.61994 
" style="fill: none; stroke: #7c3aed; stroke-width: 2.5; stroke-linecap: square"/>
    </g>
    <g id="text_33">
     <!-- y = cos x -->
     <g style="fill: #1f2937" transform="translate(959.179208 322.76994) scale(0.09 -0.09)">
      <defs>
       <path id="DejaVuSans-63" d="M 3122 3366 
L 3122 2828 
Q 2878 2963 2633 3030 
Q 2388 3097 2138 3097 
Q 1578 3097 1268 2742 
Q 959 2388 959 1747 
Q 959 1106 1268 751 
Q 1578 397 2138 397 
Q 2388 397 2633 464 
Q 2878 531 3122 666 
L 3122 134 
Q 2881 22 2623 -34 
Q 2366 -91 2075 -91 
Q 1284 -91 818 406 
Q 353 903 353 1747 
Q 353 2603 823 3093 
Q 1294 3584 2113 3584 
Q 2378 3584 2631 3529 
Q 2884 3475 3122 3366 
z
" transform="scale(0.015625)"/>
      </defs>
      <use xlink:href="#DejaVuSans-79"/>
      <use xlink:href="#DejaVuSans-20" transform="translate(59.179688 0)"/>
      <use xlink:href="#DejaVuSans-3d" transform="translate(90.966797 0)"/>
      <use xlink:href="#DejaVuSans-20" transform="translate(174.755859 0)"/>
      <use xlink:href="#DejaVuSans-63" transform="translate(206.542969 0)"/>
      <use xlink:href="#DejaVuSans-6f" transform="translate(261.523438 0)"/>
      <use xlink:href="#DejaVuSans-73" transform="translate(322.705078 0)"/>
      <use xlink:href="#DejaVuSans-20" transform="translate(374.804688 0)"/>
      <use xlink:href="#DejaVuSans-78" transform="translate(406.591797 0)"/>
     </g>
    </g>
   </g>
  </g>
  <g id="axes_3">
   <g id="patch_15">
    <path d="M 51.436803 640.144258 
L 500.998895 640.144258 
L 500.998895 567.702162 
L 51.436803 567.702162 
z
" clip-path="url(#p0d649b1c21)" style="fill: #f0fdf4; stroke: #dc2626; stroke-width: 1.5; stroke-linejoin: miter"/>
   </g>
   <g id="patch_16">
    <path d="M 540.09125 640.144258 
L 989.653342 640.144258 
L 989.653342 567.702162 
L 540.09125 567.702162 
z
" clip-path="url(#p0d649b1c21)" style="fill: #eff6ff; stroke: #7c3aed; stroke-width: 1.5; stroke-linejoin: miter"/>
   </g>
   <g id="text_34">
    <!-- Características de sin x -->
    <g style="fill: #dc2626" transform="translate(210.349099 574.946371) scale(0.1 -0.1)">
     <defs>
      <path id="DejaVuSans-Bold-61" d="M 2106 1575 
Q 1756 1575 1579 1456 
Q 1403 1338 1403 1106 
Q 1403 894 1545 773 
Q 1688 653 1941 653 
Q 2256 653 2472 879 
Q 2688 1106 2688 1447 
L 2688 1575 
L 2106 1575 
z
M 3816 1997 
L 3816 0 
L 2688 0 
L 2688 519 
Q 2463 200 2181 54 
Q 1900 -91 1497 -91 
Q 953 -91 614 226 
Q 275 544 275 1050 
Q 275 1666 698 1953 
Q 1122 2241 2028 2241 
L 2688 2241 
L 2688 2328 
Q 2688 2594 2478 2717 
Q 2269 2841 1825 2841 
Q 1466 2841 1156 2769 
Q 847 2697 581 2553 
L 581 3406 
Q 941 3494 1303 3539 
Q 1666 3584 2028 3584 
Q 2975 3584 3395 3211 
Q 3816 2838 3816 1997 
z
" transform="scale(0.015625)"/>
      <path id="DejaVuSans-Bold-72" d="M 3138 2547 
Q 2991 2616 2845 2648 
Q 2700 2681 2553 2681 
Q 2122 2681 1889 2404 
Q 1656 2128 1656 1613 
L 1656 0 
L 538 0 
L 538 3500 
L 1656 3500 
L 1656 2925 
Q 1872 3269 2151 3426 
Q 2431 3584 2822 3584 
Q 2878 3584 2943 3579 
Q 3009 3575 3134 3559 
L 3138 2547 
z
" transform="scale(0.015625)"/>
      <path id="DejaVuSans-Bold-74" d="M 1759 4494 
L 1759 3500 
L 2913 3500 
L 2913 2700 
L 1759 2700 
L 1759 1216 
Q 1759 972 1856 886 
Q 1953 800 2241 800 
L 2816 800 
L 2816 0 
L 1856 0 
Q 1194 0 917 276 
Q 641 553 641 1216 
L 641 2700 
L 84 2700 
L 84 3500 
L 641 3500 
L 641 4494 
L 1759 4494 
z
" transform="scale(0.015625)"/>
      <path id="DejaVuSans-Bold-ed" d="M 538 3500 
L 1656 3500 
L 1656 0 
L 538 0 
L 538 3500 
z
M 1590 5119 
L 2474 5119 
L 1321 3944 
L 709 3944 
L 1590 5119 
z
" transform="scale(0.015625)"/>
      <path id="DejaVuSans-Bold-64" d="M 2919 2988 
L 2919 4863 
L 4044 4863 
L 4044 0 
L 2919 0 
L 2919 506 
Q 2688 197 2409 53 
Q 2131 -91 1766 -91 
Q 1119 -91 703 423 
Q 288 938 288 1747 
Q 288 2556 703 3070 
Q 1119 3584 1766 3584 
Q 2128 3584 2408 3439 
Q 2688 3294 2919 2988 
z
M 2181 722 
Q 2541 722 2730 984 
Q 2919 1247 2919 1747 
Q 2919 2247 2730 2509 
Q 2541 2772 2181 2772 
Q 1825 2772 1636 2509 
Q 1447 2247 1447 1747 
Q 1447 1247 1636 984 
Q 1825 722 2181 722 
z
" transform="scale(0.015625)"/>
     </defs>
     <use xlink:href="#DejaVuSans-Bold-43"/>
     <use xlink:href="#DejaVuSans-Bold-61" transform="translate(73.388672 0)"/>
     <use xlink:href="#DejaVuSans-Bold-72" transform="translate(140.869141 0)"/>
     <use xlink:href="#DejaVuSans-Bold-61" transform="translate(190.185547 0)"/>
     <use xlink:href="#DejaVuSans-Bold-63" transform="translate(257.666016 0)"/>
     <use xlink:href="#DejaVuSans-Bold-74" transform="translate(316.943359 0)"/>
     <use xlink:href="#DejaVuSans-Bold-65" transform="translate(364.746094 0)"/>
     <use xlink:href="#DejaVuSans-Bold-72" transform="translate(432.568359 0)"/>
     <use xlink:href="#DejaVuSans-Bold-ed" transform="translate(481.884766 0)"/>
     <use xlink:href="#DejaVuSans-Bold-73" transform="translate(516.162109 0)"/>
     <use xlink:href="#DejaVuSans-Bold-74" transform="translate(575.683594 0)"/>
     <use xlink:href="#DejaVuSans-Bold-69" transform="translate(623.486328 0)"/>
     <use xlink:href="#DejaVuSans-Bold-63" transform="translate(657.763672 0)"/>
     <use xlink:href="#DejaVuSans-Bold-61" transform="translate(717.041016 0)"/>
     <use xlink:href="#DejaVuSans-Bold-73" transform="translate(784.521484 0)"/>
     <use xlink:href="#DejaVuSans-Bold-20" transform="translate(844.042969 0)"/>
     <use xlink:href="#DejaVuSans-Bold-64" transform="translate(878.857422 0)"/>
     <use xlink:href="#DejaVuSans-Bold-65" transform="translate(950.439453 0)"/>
     <use xlink:href="#DejaVuSans-Bold-20" transform="translate(1018.261719 0)"/>
     <use xlink:href="#DejaVuSans-Bold-73" transform="translate(1053.076172 0)"/>
     <use xlink:href="#DejaVuSans-Bold-69" transform="translate(1112.597656 0)"/>
     <use xlink:href="#DejaVuSans-Bold-6e" transform="translate(1146.875 0)"/>
     <use xlink:href="#DejaVuSans-Bold-20" transform="translate(1218.066406 0)"/>
     <use xlink:href="#DejaVuSans-Bold-78" transform="translate(1252.880859 0)"/>
    </g>
   </g>
   <g id="text_35">
    <!-- • Dominio: ℝ (todos los reales) -->
    <g style="fill: #374151" transform="translate(80.75607 585.812686) scale(0.09 -0.09)">
     <defs>
      <path id="DejaVuSans-2022" d="M 959 2381 
Q 959 2769 1229 3036 
Q 1500 3303 1894 3303 
Q 2281 3303 2548 3036 
Q 2816 2769 2816 2381 
Q 2816 1991 2547 1722 
Q 2278 1453 1888 1453 
Q 1497 1453 1228 1722 
Q 959 1991 959 2381 
z
" transform="scale(0.015625)"/>
      <path id="DejaVuSans-44" d="M 1259 4147 
L 1259 519 
L 2022 519 
Q 2988 519 3436 956 
Q 3884 1394 3884 2338 
Q 3884 3275 3436 3711 
Q 2988 4147 2022 4147 
L 1259 4147 
z
M 628 4666 
L 1925 4666 
Q 3281 4666 3915 4102 
Q 4550 3538 4550 2338 
Q 4550 1131 3912 565 
Q 3275 0 1925 0 
L 628 0 
L 628 4666 
z
" transform="scale(0.015625)"/>
      <path id="DejaVuSans-3a" d="M 750 794 
L 1409 794 
L 1409 0 
L 750 0 
L 750 794 
z
M 750 3309 
L 1409 3309 
L 1409 2516 
L 750 2516 
L 750 3309 
z
" transform="scale(0.015625)"/>
      <path id="DejaVuSans-211d" d="M 3984 1197 
Q 3747 1669 3534 1819 
Q 3319 1972 2944 1972 
L 2803 1972 
Q 3044 1825 3359 1197 
L 3806 313 
L 4428 313 
L 3984 1197 
z
M 3603 2159 
Q 3769 2081 3945 1875 
Q 4122 1669 4316 1275 
L 4956 0 
L 3581 0 
L 2984 1197 
Q 2753 1666 2536 1819 
Q 2319 1972 1944 1972 
L 1881 1972 
L 1881 0 
L 625 0 
L 625 4666 
L 2747 4666 
Q 3547 4666 3940 4331 
Q 4334 3997 4334 3322 
Q 4334 2672 3969 2366 
Q 3816 2238 3603 2159 
z
M 1881 4353 
L 1881 2284 
L 2897 2284 
Q 2972 2284 3044 2291 
L 3044 4347 
Q 2972 4353 2897 4353 
L 1881 4353 
z
M 3372 4281 
L 3372 2359 
Q 3575 2428 3709 2556 
Q 3991 2825 3991 3322 
Q 3991 3819 3713 4084 
Q 3581 4213 3372 4281 
z
M 938 4353 
L 938 313 
L 1569 313 
L 1569 4353 
L 938 4353 
z
" transform="scale(0.015625)"/>
      <path id="DejaVuSans-28" d="M 1984 4856 
Q 1566 4138 1362 3434 
Q 1159 2731 1159 2009 
Q 1159 1288 1364 580 
Q 1569 -128 1984 -844 
L 1484 -844 
Q 1016 -109 783 600 
Q 550 1309 550 2009 
Q 550 2706 781 3412 
Q 1013 4119 1484 4856 
L 1984 4856 
z
" transform="scale(0.015625)"/>
      <path id="DejaVuSans-74" d="M 1172 4494 
L 1172 3500 
L 2356 3500 
L 2356 3053 
L 1172 3053 
L 1172 1153 
Q 1172 725 1289 603 
Q 1406 481 1766 481 
L 2356 481 
L 2356 0 
L 1766 0 
Q 1100 0 847 248 
Q 594 497 594 1153 
L 594 3053 
L 172 3053 
L 172 3500 
L 594 3500 
L 594 4494 
L 1172 4494 
z
" transform="scale(0.015625)"/>
      <path id="DejaVuSans-6c" d="M 603 4863 
L 1178 4863 
L 1178 0 
L 603 0 
L 603 4863 
z
" transform="scale(0.015625)"/>
      <path id="DejaVuSans-61" d="M 2194 1759 
Q 1497 1759 1228 1600 
Q 959 1441 959 1056 
Q 959 750 1161 570 
Q 1363 391 1709 391 
Q 2188 391 2477 730 
Q 2766 1069 2766 1631 
L 2766 1759 
L 2194 1759 
z
M 3341 1997 
L 3341 0 
L 2766 0 
L 2766 531 
Q 2569 213 2275 61 
Q 1981 -91 1556 -91 
Q 1019 -91 701 211 
Q 384 513 384 1019 
Q 384 1609 779 1909 
Q 1175 2209 1959 2209 
L 2766 2209 
L 2766 2266 
Q 2766 2663 2505 2880 
Q 2244 3097 1772 3097 
Q 1472 3097 1187 3025 
Q 903 2953 641 2809 
L 641 3341 
Q 956 3463 1253 3523 
Q 1550 3584 1831 3584 
Q 2591 3584 2966 3190 
Q 3341 2797 3341 1997 
z
" transform="scale(0.015625)"/>
      <path id="DejaVuSans-29" d="M 513 4856 
L 1013 4856 
Q 1481 4119 1714 3412 
Q 1947 2706 1947 2009 
Q 1947 1309 1714 600 
Q 1481 -109 1013 -844 
L 513 -844 
Q 928 -128 1133 580 
Q 1338 1288 1338 2009 
Q 1338 2731 1133 3434 
Q 928 4138 513 4856 
z
" transform="scale(0.015625)"/>
     </defs>
     <use xlink:href="#DejaVuSans-2022"/>
     <use xlink:href="#DejaVuSans-20" transform="translate(58.984375 0)"/>
     <use xlink:href="#DejaVuSans-44" transform="translate(90.771484 0)"/>
     <use xlink:href="#DejaVuSans-6f" transform="translate(167.773438 0)"/>
     <use xlink:href="#DejaVuSans-6d" transform="translate(228.955078 0)"/>
     <use xlink:href="#DejaVuSans-69" transform="translate(326.367188 0)"/>
     <use xlink:href="#DejaVuSans-6e" transform="translate(354.150391 0)"/>
     <use xlink:href="#DejaVuSans-69" transform="translate(417.529297 0)"/>
     <use xlink:href="#DejaVuSans-6f" transform="translate(445.3125 0)"/>
     <use xlink:href="#DejaVuSans-3a" transform="translate(506.494141 0)"/>
     <use xlink:href="#DejaVuSans-20" transform="translate(540.185547 0)"/>
     <use xlink:href="#DejaVuSans-211d" transform="translate(571.972656 0)"/>
     <use xlink:href="#DejaVuSans-20" transform="translate(651.171875 0)"/>
     <use xlink:href="#DejaVuSans-28" transform="translate(682.958984 0)"/>
     <use xlink:href="#DejaVuSans-74" transform="translate(721.972656 0)"/>
     <use xlink:href="#DejaVuSans-6f" transform="translate(761.181641 0)"/>
     <use xlink:href="#DejaVuSans-64" transform="translate(822.363281 0)"/>
     <use xlink:href="#DejaVuSans-6f" transform="translate(885.839844 0)"/>
     <use xlink:href="#DejaVuSans-73" transform="translate(947.021484 0)"/>
     <use xlink:href="#DejaVuSans-20" transform="translate(999.121094 0)"/>
     <use xlink:href="#DejaVuSans-6c" transform="translate(1030.908203 0)"/>
     <use xlink:href="#DejaVuSans-6f" transform="translate(1058.691406 0)"/>
     <use xlink:href="#DejaVuSans-73" transform="translate(1119.873047 0)"/>
     <use xlink:href="#DejaVuSans-20" transform="translate(1171.972656 0)"/>
     <use xlink:href="#DejaVuSans-72" transform="translate(1203.759766 0)"/>
     <use xlink:href="#DejaVuSans-65" transform="translate(1242.623047 0)"/>
     <use xlink:href="#DejaVuSans-61" transform="translate(1304.146484 0)"/>
     <use xlink:href="#DejaVuSans-6c" transform="translate(1365.425781 0)"/>
     <use xlink:href="#DejaVuSans-65" transform="translate(1393.208984 0)"/>
     <use xlink:href="#DejaVuSans-73" transform="translate(1454.732422 0)"/>
     <use xlink:href="#DejaVuSans-29" transform="translate(1506.832031 0)"/>
    </g>
   </g>
   <g id="text_36">
    <!-- • Rango: [-1, 1] -->
    <g style="fill: #374151" transform="translate(80.75607 596.679) scale(0.09 -0.09)">
     <defs>
      <path id="DejaVuSans-52" d="M 2841 2188 
Q 3044 2119 3236 1894 
Q 3428 1669 3622 1275 
L 4263 0 
L 3584 0 
L 2988 1197 
Q 2756 1666 2539 1819 
Q 2322 1972 1947 1972 
L 1259 1972 
L 1259 0 
L 628 0 
L 628 4666 
L 2053 4666 
Q 2853 4666 3247 4331 
Q 3641 3997 3641 3322 
Q 3641 2881 3436 2590 
Q 3231 2300 2841 2188 
z
M 1259 4147 
L 1259 2491 
L 2053 2491 
Q 2509 2491 2742 2702 
Q 2975 2913 2975 3322 
Q 2975 3731 2742 3939 
Q 2509 4147 2053 4147 
L 1259 4147 
z
" transform="scale(0.015625)"/>
      <path id="DejaVuSans-67" d="M 2906 1791 
Q 2906 2416 2648 2759 
Q 2391 3103 1925 3103 
Q 1463 3103 1205 2759 
Q 947 2416 947 1791 
Q 947 1169 1205 825 
Q 1463 481 1925 481 
Q 2391 481 2648 825 
Q 2906 1169 2906 1791 
z
M 3481 434 
Q 3481 -459 3084 -895 
Q 2688 -1331 1869 -1331 
Q 1566 -1331 1297 -1286 
Q 1028 -1241 775 -1147 
L 775 -588 
Q 1028 -725 1275 -790 
Q 1522 -856 1778 -856 
Q 2344 -856 2625 -561 
Q 2906 -266 2906 331 
L 2906 616 
Q 2728 306 2450 153 
Q 2172 0 1784 0 
Q 1141 0 747 490 
Q 353 981 353 1791 
Q 353 2603 747 3093 
Q 1141 3584 1784 3584 
Q 2172 3584 2450 3431 
Q 2728 3278 2906 2969 
L 2906 3500 
L 3481 3500 
L 3481 434 
z
" transform="scale(0.015625)"/>
      <path id="DejaVuSans-5b" d="M 550 4863 
L 1875 4863 
L 1875 4416 
L 1125 4416 
L 1125 -397 
L 1875 -397 
L 1875 -844 
L 550 -844 
L 550 4863 
z
" transform="scale(0.015625)"/>
      <path id="DejaVuSans-2c" d="M 750 794 
L 1409 794 
L 1409 256 
L 897 -744 
L 494 -744 
L 750 256 
L 750 794 
z
" transform="scale(0.015625)"/>
      <path id="DejaVuSans-5d" d="M 1947 4863 
L 1947 -844 
L 622 -844 
L 622 -397 
L 1369 -397 
L 1369 4416 
L 622 4416 
L 622 4863 
L 1947 4863 
z
" transform="scale(0.015625)"/>
     </defs>
     <use xlink:href="#DejaVuSans-2022"/>
     <use xlink:href="#DejaVuSans-20" transform="translate(58.984375 0)"/>
     <use xlink:href="#DejaVuSans-52" transform="translate(90.771484 0)"/>
     <use xlink:href="#DejaVuSans-61" transform="translate(158.003906 0)"/>
     <use xlink:href="#DejaVuSans-6e" transform="translate(219.283203 0)"/>
     <use xlink:href="#DejaVuSans-67" transform="translate(282.662109 0)"/>
     <use xlink:href="#DejaVuSans-6f" transform="translate(346.138672 0)"/>
     <use xlink:href="#DejaVuSans-3a" transform="translate(407.320312 0)"/>
     <use xlink:href="#DejaVuSans-20" transform="translate(441.011719 0)"/>
     <use xlink:href="#DejaVuSans-5b" transform="translate(472.798828 0)"/>
     <use xlink:href="#DejaVuSans-2d" transform="translate(511.8125 0)"/>
     <use xlink:href="#DejaVuSans-31" transform="translate(547.896484 0)"/>
     <use xlink:href="#DejaVuSans-2c" transform="translate(611.519531 0)"/>
     <use xlink:href="#DejaVuSans-20" transform="translate(643.306641 0)"/>
     <use xlink:href="#DejaVuSans-31" transform="translate(675.09375 0)"/>
     <use xlink:href="#DejaVuSans-5d" transform="translate(738.716797 0)"/>
    </g>
   </g>
   <g id="text_37">
    <!-- • Periodo: 2π -->
    <g style="fill: #374151" transform="translate(80.75607 607.545315) scale(0.09 -0.09)">
     <use xlink:href="#DejaVuSans-2022"/>
     <use xlink:href="#DejaVuSans-20" transform="translate(58.984375 0)"/>
     <use xlink:href="#DejaVuSans-50" transform="translate(90.771484 0)"/>
     <use xlink:href="#DejaVuSans-65" transform="translate(147.449219 0)"/>
     <use xlink:href="#DejaVuSans-72" transform="translate(208.972656 0)"/>
     <use xlink:href="#DejaVuSans-69" transform="translate(250.085938 0)"/>
     <use xlink:href="#DejaVuSans-6f" transform="translate(277.869141 0)"/>
     <use xlink:href="#DejaVuSans-64" transform="translate(339.050781 0)"/>
     <use xlink:href="#DejaVuSans-6f" transform="translate(402.527344 0)"/>
     <use xlink:href="#DejaVuSans-3a" transform="translate(463.708984 0)"/>
     <use xlink:href="#DejaVuSans-20" transform="translate(497.400391 0)"/>
     <use xlink:href="#DejaVuSans-32" transform="translate(529.1875 0)"/>
     <use xlink:href="#DejaVuSans-3c0" transform="translate(592.810547 0)"/>
    </g>
   </g>
   <g id="text_38">
    <!-- • Función impar: sin(-x) = -sin(x) -->
    <g style="fill: #374151" transform="translate(80.75607 618.411629) scale(0.09 -0.09)">
     <defs>
      <path id="DejaVuSans-46" d="M 628 4666 
L 3309 4666 
L 3309 4134 
L 1259 4134 
L 1259 2759 
L 3109 2759 
L 3109 2228 
L 1259 2228 
L 1259 0 
L 628 0 
L 628 4666 
z
" transform="scale(0.015625)"/>
      <path id="DejaVuSans-75" d="M 544 1381 
L 544 3500 
L 1119 3500 
L 1119 1403 
Q 1119 906 1312 657 
Q 1506 409 1894 409 
Q 2359 409 2629 706 
Q 2900 1003 2900 1516 
L 2900 3500 
L 3475 3500 
L 3475 0 
L 2900 0 
L 2900 538 
Q 2691 219 2414 64 
Q 2138 -91 1772 -91 
Q 1169 -91 856 284 
Q 544 659 544 1381 
z
M 1991 3584 
L 1991 3584 
z
" transform="scale(0.015625)"/>
      <path id="DejaVuSans-f3" d="M 1959 3097 
Q 1497 3097 1228 2736 
Q 959 2375 959 1747 
Q 959 1119 1226 758 
Q 1494 397 1959 397 
Q 2419 397 2687 759 
Q 2956 1122 2956 1747 
Q 2956 2369 2687 2733 
Q 2419 3097 1959 3097 
z
M 1959 3584 
Q 2709 3584 3137 3096 
Q 3566 2609 3566 1747 
Q 3566 888 3137 398 
Q 2709 -91 1959 -91 
Q 1206 -91 779 398 
Q 353 888 353 1747 
Q 353 2609 779 3096 
Q 1206 3584 1959 3584 
z
M 2394 5119 
L 3016 5119 
L 1998 3944 
L 1519 3944 
L 2394 5119 
z
" transform="scale(0.015625)"/>
      <path id="DejaVuSans-70" d="M 1159 525 
L 1159 -1331 
L 581 -1331 
L 581 3500 
L 1159 3500 
L 1159 2969 
Q 1341 3281 1617 3432 
Q 1894 3584 2278 3584 
Q 2916 3584 3314 3078 
Q 3713 2572 3713 1747 
Q 3713 922 3314 415 
Q 2916 -91 2278 -91 
Q 1894 -91 1617 61 
Q 1341 213 1159 525 
z
M 3116 1747 
Q 3116 2381 2855 2742 
Q 2594 3103 2138 3103 
Q 1681 3103 1420 2742 
Q 1159 2381 1159 1747 
Q 1159 1113 1420 752 
Q 1681 391 2138 391 
Q 2594 391 2855 752 
Q 3116 1113 3116 1747 
z
" transform="scale(0.015625)"/>
     </defs>
     <use xlink:href="#DejaVuSans-2022"/>
     <use xlink:href="#DejaVuSans-20" transform="translate(58.984375 0)"/>
     <use xlink:href="#DejaVuSans-46" transform="translate(90.771484 0)"/>
     <use xlink:href="#DejaVuSans-75" transform="translate(142.791016 0)"/>
     <use xlink:href="#DejaVuSans-6e" transform="translate(206.169922 0)"/>
     <use xlink:href="#DejaVuSans-63" transform="translate(269.548828 0)"/>
     <use xlink:href="#DejaVuSans-69" transform="translate(324.529297 0)"/>
     <use xlink:href="#DejaVuSans-f3" transform="translate(352.3125 0)"/>
     <use xlink:href="#DejaVuSans-6e" transform="translate(413.494141 0)"/>
     <use xlink:href="#DejaVuSans-20" transform="translate(476.873047 0)"/>
     <use xlink:href="#DejaVuSans-69" transform="translate(508.660156 0)"/>
     <use xlink:href="#DejaVuSans-6d" transform="translate(536.443359 0)"/>
     <use xlink:href="#DejaVuSans-70" transform="translate(633.855469 0)"/>
     <use xlink:href="#DejaVuSans-61" transform="translate(697.332031 0)"/>
     <use xlink:href="#DejaVuSans-72" transform="translate(758.611328 0)"/>
     <use xlink:href="#DejaVuSans-3a" transform="translate(797.974609 0)"/>
     <use xlink:href="#DejaVuSans-20" transform="translate(831.666016 0)"/>
     <use xlink:href="#DejaVuSans-73" transform="translate(863.453125 0)"/>
     <use xlink:href="#DejaVuSans-69" transform="translate(915.552734 0)"/>
     <use xlink:href="#DejaVuSans-6e" transform="translate(943.335938 0)"/>
     <use xlink:href="#DejaVuSans-28" transform="translate(1006.714844 0)"/>
     <use xlink:href="#DejaVuSans-2d" transform="translate(1045.728516 0)"/>
     <use xlink:href="#DejaVuSans-78" transform="translate(1081.8125 0)"/>
     <use xlink:href="#DejaVuSans-29" transform="translate(1140.992188 0)"/>
     <use xlink:href="#DejaVuSans-20" transform="translate(1180.005859 0)"/>
     <use xlink:href="#DejaVuSans-3d" transform="translate(1211.792969 0)"/>
     <use xlink:href="#DejaVuSans-20" transform="translate(1295.582031 0)"/>
     <use xlink:href="#DejaVuSans-2d" transform="translate(1327.369141 0)"/>
     <use xlink:href="#DejaVuSans-73" transform="translate(1363.453125 0)"/>
     <use xlink:href="#DejaVuSans-69" transform="translate(1415.552734 0)"/>
     <use xlink:href="#DejaVuSans-6e" transform="translate(1443.335938 0)"/>
     <use xlink:href="#DejaVuSans-28" transform="translate(1506.714844 0)"/>
     <use xlink:href="#DejaVuSans-78" transform="translate(1545.728516 0)"/>
     <use xlink:href="#DejaVuSans-29" transform="translate(1604.908203 0)"/>
    </g>
   </g>
   <g id="text_39">
    <!-- • Ceros: x = nπ, n ∈ ℤ -->
    <g style="fill: #374151" transform="translate(80.75607 629.277943) scale(0.09 -0.09)">
     <defs>
      <path id="DejaVuSans-43" d="M 4122 4306 
L 4122 3641 
Q 3803 3938 3442 4084 
Q 3081 4231 2675 4231 
Q 1875 4231 1450 3742 
Q 1025 3253 1025 2328 
Q 1025 1406 1450 917 
Q 1875 428 2675 428 
Q 3081 428 3442 575 
Q 3803 722 4122 1019 
L 4122 359 
Q 3791 134 3420 21 
Q 3050 -91 2638 -91 
Q 1578 -91 968 557 
Q 359 1206 359 2328 
Q 359 3453 968 4101 
Q 1578 4750 2638 4750 
Q 3056 4750 3426 4639 
Q 3797 4528 4122 4306 
z
" transform="scale(0.015625)"/>
      <path id="DejaVuSans-2208" d="M 1072 1959 
Q 1094 1728 1291 1353 
Q 1522 919 1959 675 
Q 2388 438 2850 434 
L 5028 434 
L 5028 -63 
L 2850 -63 
Q 2250 -63 1695 246 
Q 1141 556 844 1106 
Q 547 1656 547 2241 
Q 547 2819 844 3369 
Q 1141 3919 1695 4231 
Q 2250 4544 2850 4544 
L 5028 4544 
L 5028 4047 
L 2850 4047 
Q 2388 4044 1959 3803 
Q 1525 3556 1291 3125 
Q 1091 2750 1063 2459 
L 5028 2459 
L 5028 1959 
L 1072 1959 
z
" transform="scale(0.015625)"/>
      <path id="DejaVuSans-2124" d="M 1425 313 
L 4000 4353 
L 3269 4353 
L 694 313 
L 1425 313 
z
M 359 4666 
L 4406 4666 
L 4406 4353 
L 1831 313 
L 4478 313 
L 4478 0 
L 288 0 
L 288 313 
L 2863 4353 
L 359 4353 
L 359 4666 
z
" transform="scale(0.015625)"/>
     </defs>
     <use xlink:href="#DejaVuSans-2022"/>
     <use xlink:href="#DejaVuSans-20" transform="translate(58.984375 0)"/>
     <use xlink:href="#DejaVuSans-43" transform="translate(90.771484 0)"/>
     <use xlink:href="#DejaVuSans-65" transform="translate(160.595703 0)"/>
     <use xlink:href="#DejaVuSans-72" transform="translate(222.119141 0)"/>
     <use xlink:href="#DejaVuSans-6f" transform="translate(260.982422 0)"/>
     <use xlink:href="#DejaVuSans-73" transform="translate(322.164062 0)"/>
     <use xlink:href="#DejaVuSans-3a" transform="translate(374.263672 0)"/>
     <use xlink:href="#DejaVuSans-20" transform="translate(407.955078 0)"/>
     <use xlink:href="#DejaVuSans-78" transform="translate(439.742188 0)"/>
     <use xlink:href="#DejaVuSans-20" transform="translate(498.921875 0)"/>
     <use xlink:href="#DejaVuSans-3d" transform="translate(530.708984 0)"/>
     <use xlink:href="#DejaVuSans-20" transform="translate(614.498047 0)"/>
     <use xlink:href="#DejaVuSans-6e" transform="translate(646.285156 0)"/>
     <use xlink:href="#DejaVuSans-3c0" transform="translate(709.664062 0)"/>
     <use xlink:href="#DejaVuSans-2c" transform="translate(769.869141 0)"/>
     <use xlink:href="#DejaVuSans-20" transform="translate(801.65625 0)"/>
     <use xlink:href="#DejaVuSans-6e" transform="translate(833.443359 0)"/>
     <use xlink:href="#DejaVuSans-20" transform="translate(896.822266 0)"/>
     <use xlink:href="#DejaVuSans-2208" transform="translate(928.609375 0)"/>
     <use xlink:href="#DejaVuSans-20" transform="translate(1015.71875 0)"/>
     <use xlink:href="#DejaVuSans-2124" transform="translate(1047.505859 0)"/>
    </g>
   </g>
   <g id="text_40">
    <!-- Características de cos x -->
    <g style="fill: #7c3aed" transform="translate(697.877765 574.946371) scale(0.1 -0.1)">
     <use xlink:href="#DejaVuSans-Bold-43"/>
     <use xlink:href="#DejaVuSans-Bold-61" transform="translate(73.388672 0)"/>
     <use xlink:href="#DejaVuSans-Bold-72" transform="translate(140.869141 0)"/>
     <use xlink:href="#DejaVuSans-Bold-61" transform="translate(190.185547 0)"/>
     <use xlink:href="#DejaVuSans-Bold-63" transform="translate(257.666016 0)"/>
     <use xlink:href="#DejaVuSans-Bold-74" transform="translate(316.943359 0)"/>
     <use xlink:href="#DejaVuSans-Bold-65" transform="translate(364.746094 0)"/>
     <use xlink:href="#DejaVuSans-Bold-72" transform="translate(432.568359 0)"/>
     <use xlink:href="#DejaVuSans-Bold-ed" transform="translate(481.884766 0)"/>
     <use xlink:href="#DejaVuSans-Bold-73" transform="translate(516.162109 0)"/>
     <use xlink:href="#DejaVuSans-Bold-74" transform="translate(575.683594 0)"/>
     <use xlink:href="#DejaVuSans-Bold-69" transform="translate(623.486328 0)"/>
     <use xlink:href="#DejaVuSans-Bold-63" transform="translate(657.763672 0)"/>
     <use xlink:href="#DejaVuSans-Bold-61" transform="translate(717.041016 0)"/>
     <use xlink:href="#DejaVuSans-Bold-73" transform="translate(784.521484 0)"/>
     <use xlink:href="#DejaVuSans-Bold-20" transform="translate(844.042969 0)"/>
     <use xlink:href="#DejaVuSans-Bold-64" transform="translate(878.857422 0)"/>
     <use xlink:href="#DejaVuSans-Bold-65" transform="translate(950.439453 0)"/>
     <use xlink:href="#DejaVuSans-Bold-20" transform="translate(1018.261719 0)"/>
     <use xlink:href="#DejaVuSans-Bold-63" transform="translate(1053.076172 0)"/>
     <use xlink:href="#DejaVuSans-Bold-6f" transform="translate(1112.353516 0)"/>
     <use xlink:href="#DejaVuSans-Bold-73" transform="translate(1181.054688 0)"/>
     <use xlink:href="#DejaVuSans-Bold-20" transform="translate(1240.576172 0)"/>
     <use xlink:href="#DejaVuSans-Bold-78" transform="translate(1275.390625 0)"/>
    </g>
   </g>
   <g id="text_41">
    <!-- • Dominio: ℝ (todos los reales) -->
    <g style="fill: #374151" transform="translate(569.410517 585.812686) scale(0.09 -0.09)">
     <use xlink:href="#DejaVuSans-2022"/>
     <use xlink:href="#DejaVuSans-20" transform="translate(58.984375 0)"/>
     <use xlink:href="#DejaVuSans-44" transform="translate(90.771484 0)"/>
     <use xlink:href="#DejaVuSans-6f" transform="translate(167.773438 0)"/>
     <use xlink:href="#DejaVuSans-6d" transform="translate(228.955078 0)"/>
     <use xlink:href="#DejaVuSans-69" transform="translate(326.367188 0)"/>
     <use xlink:href="#DejaVuSans-6e" transform="translate(354.150391 0)"/>
     <use xlink:href="#DejaVuSans-69" transform="translate(417.529297 0)"/>
     <use xlink:href="#DejaVuSans-6f" transform="translate(445.3125 0)"/>
     <use xlink:href="#DejaVuSans-3a" transform="translate(506.494141 0)"/>
     <use xlink:href="#DejaVuSans-20" transform="translate(540.185547 0)"/>
     <use xlink:href="#DejaVuSans-211d" transform="translate(571.972656 0)"/>
     <use xlink:href="#DejaVuSans-20" transform="translate(651.171875 0)"/>
     <use xlink:href="#DejaVuSans-28" transform="translate(682.958984 0)"/>
     <use xlink:href="#DejaVuSans-74" transform="translate(721.972656 0)"/>
     <use xlink:href="#DejaVuSans-6f" transform="translate(761.181641 0)"/>
     <use xlink:href="#DejaVuSans-64" transform="translate(822.363281 0)"/>
     <use xlink:href="#DejaVuSans-6f" transform="translate(885.839844 0)"/>
     <use xlink:href="#DejaVuSans-73" transform="translate(947.021484 0)"/>
     <use xlink:href="#DejaVuSans-20" transform="translate(999.121094 0)"/>
     <use xlink:href="#DejaVuSans-6c" transform="translate(1030.908203 0)"/>
     <use xlink:href="#DejaVuSans-6f" transform="translate(1058.691406 0)"/>
     <use xlink:href="#DejaVuSans-73" transform="translate(1119.873047 0)"/>
     <use xlink:href="#DejaVuSans-20" transform="translate(1171.972656 0)"/>
     <use xlink:href="#DejaVuSans-72" transform="translate(1203.759766 0)"/>
     <use xlink:href="#DejaVuSans-65" transform="translate(1242.623047 0)"/>
     <use xlink:href="#DejaVuSans-61" transform="translate(1304.146484 0)"/>
     <use xlink:href="#DejaVuSans-6c" transform="translate(1365.425781 0)"/>
     <use xlink:href="#DejaVuSans-65" transform="translate(1393.208984 0)"/>
     <use xlink:href="#DejaVuSans-73" transform="translate(1454.732422 0)"/>
     <use xlink:href="#DejaVuSans-29" transform="translate(1506.832031 0)"/>
    </g>
   </g>
   <g id="text_42">
    <!-- • Rango: [-1, 1] -->
    <g style="fill: #374151" transform="translate(569.410517 596.679) scale(0.09 -0.09)">
     <use xlink:href="#DejaVuSans-2022"/>
     <use xlink:href="#DejaVuSans-20" transform="translate(58.984375 0)"/>
     <use xlink:href="#DejaVuSans-52" transform="translate(90.771484 0)"/>
     <use xlink:href="#DejaVuSans-61" transform="translate(158.003906 0)"/>
     <use xlink:href="#DejaVuSans-6e" transform="translate(219.283203 0)"/>
     <use xlink:href="#DejaVuSans-67" transform="translate(282.662109 0)"/>
     <use xlink:href="#DejaVuSans-6f" transform="translate(346.138672 0)"/>
     <use xlink:href="#DejaVuSans-3a" transform="translate(407.320312 0)"/>
     <use xlink:href="#DejaVuSans-20" transform="translate(441.011719 0)"/>
     <use xlink:href="#DejaVuSans-5b" transform="translate(472.798828 0)"/>
     <use xlink:href="#DejaVuSans-2d" transform="translate(511.8125 0)"/>
     <use xlink:href="#DejaVuSans-31" transform="translate(547.896484 0)"/>
     <use xlink:href="#DejaVuSans-2c" transform="translate(611.519531 0)"/>
     <use xlink:href="#DejaVuSans-20" transform="translate(643.306641 0)"/>
     <use xlink:href="#DejaVuSans-31" transform="translate(675.09375 0)"/>
     <use xlink:href="#DejaVuSans-5d" transform="translate(738.716797 0)"/>
    </g>
   </g>
   <g id="text_43">
    <!-- • Periodo: 2π -->
    <g style="fill: #374151" transform="translate(569.410517 607.545315) scale(0.09 -0.09)">
     <use xlink:href="#DejaVuSans-2022"/>
     <use xlink:href="#DejaVuSans-20" transform="translate(58.984375 0)"/>
     <use xlink:href="#DejaVuSans-50" transform="translate(90.771484 0)"/>
     <use xlink:href="#DejaVuSans-65" transform="translate(147.449219 0)"/>
     <use xlink:href="#DejaVuSans-72" transform="translate(208.972656 0)"/>
     <use xlink:href="#DejaVuSans-69" transform="translate(250.085938 0)"/>
     <use xlink:href="#DejaVuSans-6f" transform="translate(277.869141 0)"/>
     <use xlink:href="#DejaVuSans-64" transform="translate(339.050781 0)"/>
     <use xlink:href="#DejaVuSans-6f" transform="translate(402.527344 0)"/>
     <use xlink:href="#DejaVuSans-3a" transform="translate(463.708984 0)"/>
     <use xlink:href="#DejaVuSans-20" transform="translate(497.400391 0)"/>
     <use xlink:href="#DejaVuSans-32" transform="translate(529.1875 0)"/>
     <use xlink:href="#DejaVuSans-3c0" transform="translate(592.810547 0)"/>
    </g>
   </g>
   <g id="text_44">
    <!-- • Función par: cos(-x) = cos(x) -->
    <g style="fill: #374151" transform="translate(569.410517 618.411629) scale(0.09 -0.09)">
     <use xlink:href="#DejaVuSans-2022"/>
     <use xlink:href="#DejaVuSans-20" transform="translate(58.984375 0)"/>
     <use xlink:href="#DejaVuSans-46" transform="translate(90.771484 0)"/>
     <use xlink:href="#DejaVuSans-75" transform="translate(142.791016 0)"/>
     <use xlink:href="#DejaVuSans-6e" transform="translate(206.169922 0)"/>
     <use xlink:href="#DejaVuSans-63" transform="translate(269.548828 0)"/>
     <use xlink:href="#DejaVuSans-69" transform="translate(324.529297 0)"/>
     <use xlink:href="#DejaVuSans-f3" transform="translate(352.3125 0)"/>
     <use xlink:href="#DejaVuSans-6e" transform="translate(413.494141 0)"/>
     <use xlink:href="#DejaVuSans-20" transform="translate(476.873047 0)"/>
     <use xlink:href="#DejaVuSans-70" transform="translate(508.660156 0)"/>
     <use xlink:href="#DejaVuSans-61" transform="translate(572.136719 0)"/>
     <use xlink:href="#DejaVuSans-72" transform="translate(633.416016 0)"/>
     <use xlink:href="#DejaVuSans-3a" transform="translate(672.779297 0)"/>
     <use xlink:href="#DejaVuSans-20" transform="translate(706.470703 0)"/>
     <use xlink:href="#DejaVuSans-63" transform="translate(738.257812 0)"/>
     <use xlink:href="#DejaVuSans-6f" transform="translate(793.238281 0)"/>
     <use xlink:href="#DejaVuSans-73" transform="translate(854.419922 0)"/>
     <use xlink:href="#DejaVuSans-28" transform="translate(906.519531 0)"/>
     <use xlink:href="#DejaVuSans-2d" transform="translate(945.533203 0)"/>
     <use xlink:href="#DejaVuSans-78" transform="translate(981.617188 0)"/>
     <use xlink:href="#DejaVuSans-29" transform="translate(1040.796875 0)"/>
     <use xlink:href="#DejaVuSans-20" transform="translate(1079.810547 0)"/>
     <use xlink:href="#DejaVuSans-3d" transform="translate(1111.597656 0)"/>
     <use xlink:href="#DejaVuSans-20" transform="translate(1195.386719 0)"/>
     <use xlink:href="#DejaVuSans-63" transform="translate(1227.173828 0)"/>
     <use xlink:href="#DejaVuSans-6f" transform="translate(1282.154297 0)"/>
     <use xlink:href="#DejaVuSans-73" transform="translate(1343.335938 0)"/>
     <use xlink:href="#DejaVuSans-28" transform="translate(1395.435547 0)"/>
     <use xlink:href="#DejaVuSans-78" transform="translate(1434.449219 0)"/>
     <use xlink:href="#DejaVuSans-29" transform="translate(1493.628906 0)"/>
    </g>
   </g>
   <g id="text_45">
    <!-- • Ceros: x = π/2 + nπ, n ∈ ℤ -->
    <g style="fill: #374151" transform="translate(569.410517 629.277943) scale(0.09 -0.09)">
     <defs>
      <path id="DejaVuSans-2b" d="M 2944 4013 
L 2944 2272 
L 4684 2272 
L 4684 1741 
L 2944 1741 
L 2944 0 
L 2419 0 
L 2419 1741 
L 678 1741 
L 678 2272 
L 2419 2272 
L 2419 4013 
L 2944 4013 
z
" transform="scale(0.015625)"/>
     </defs>
     <use xlink:href="#DejaVuSans-2022"/>
     <use xlink:href="#DejaVuSans-20" transform="translate(58.984375 0)"/>
     <use xlink:href="#DejaVuSans-43" transform="translate(90.771484 0)"/>
     <use xlink:href="#DejaVuSans-65" transform="translate(160.595703 0)"/>
     <use xlink:href="#DejaVuSans-72" transform="translate(222.119141 0)"/>
     <use xlink:href="#DejaVuSans-6f" transform="translate(260.982422 0)"/>
     <use xlink:href="#DejaVuSans-73" transform="translate(322.164062 0)"/>
     <use xlink:href="#DejaVuSans-3a" transform="translate(374.263672 0)"/>
     <use xlink:href="#DejaVuSans-20" transform="translate(407.955078 0)"/>
     <use xlink:href="#DejaVuSans-78" transform="translate(439.742188 0)"/>
     <use xlink:href="#DejaVuSans-20" transform="translate(498.921875 0)"/>
     <use xlink:href="#DejaVuSans-3d" transform="translate(530.708984 0)"/>
     <use xlink:href="#DejaVuSans-20" transform="translate(614.498047 0)"/>
     <use xlink:href="#DejaVuSans-3c0" transform="translate(646.285156 0)"/>
     <use xlink:href="#DejaVuSans-2f" transform="translate(706.490234 0)"/>
     <use xlink:href="#DejaVuSans-32" transform="translate(740.181641 0)"/>
     <use xlink:href="#DejaVuSans-20" transform="translate(803.804688 0)"/>
     <use xlink:href="#DejaVuSans-2b" transform="translate(835.591797 0)"/>
     <use xlink:href="#DejaVuSans-20" transform="translate(919.380859 0)"/>
     <use xlink:href="#DejaVuSans-6e" transform="translate(951.167969 0)"/>
     <use xlink:href="#DejaVuSans-3c0" transform="translate(1014.546875 0)"/>
     <use xlink:href="#DejaVuSans-2c" transform="translate(1074.751953 0)"/>
     <use xlink:href="#DejaVuSans-20" transform="translate(1106.539062 0)"/>
     <use xlink:href="#DejaVuSans-6e" transform="translate(1138.326172 0)"/>
     <use xlink:href="#DejaVuSans-20" transform="translate(1201.705078 0)"/>
     <use xlink:href="#DejaVuSans-2208" transform="translate(1233.492188 0)"/>
     <use xlink:href="#DejaVuSans-20" transform="translate(1320.601562 0)"/>
     <use xlink:href="#DejaVuSans-2124" transform="translate(1352.388672 0)"/>
    </g>
   </g>
  </g>
  <g id="text_46">
   <!-- Gráficas de las Funciones Seno y Coseno -->
   <g style="fill: #1f2937" transform="translate(347.673354 18.397812) scale(0.14 -0.14)">
    <defs>
     <path id="DejaVuSans-Bold-47" d="M 4781 347 
Q 4331 128 3847 18 
Q 3363 -91 2847 -91 
Q 1681 -91 1000 561 
Q 319 1213 319 2328 
Q 319 3456 1012 4103 
Q 1706 4750 2913 4750 
Q 3378 4750 3804 4662 
Q 4231 4575 4609 4403 
L 4609 3438 
Q 4219 3659 3833 3768 
Q 3447 3878 3059 3878 
Q 2341 3878 1952 3476 
Q 1563 3075 1563 2328 
Q 1563 1588 1938 1184 
Q 2313 781 3003 781 
Q 3191 781 3352 804 
Q 3513 828 3641 878 
L 3641 1784 
L 2906 1784 
L 2906 2591 
L 4781 2591 
L 4781 347 
z
" transform="scale(0.015625)"/>
     <path id="DejaVuSans-Bold-e1" d="M 2106 1575 
Q 1756 1575 1579 1456 
Q 1403 1338 1403 1106 
Q 1403 894 1545 773 
Q 1688 653 1941 653 
Q 2256 653 2472 879 
Q 2688 1106 2688 1447 
L 2688 1575 
L 2106 1575 
z
M 3816 1997 
L 3816 0 
L 2688 0 
L 2688 519 
Q 2463 200 2181 54 
Q 1900 -91 1497 -91 
Q 953 -91 614 226 
Q 275 544 275 1050 
Q 275 1666 698 1953 
Q 1122 2241 2028 2241 
L 2688 2241 
L 2688 2328 
Q 2688 2594 2478 2717 
Q 2269 2841 1825 2841 
Q 1466 2841 1156 2769 
Q 847 2697 581 2553 
L 581 3406 
Q 941 3494 1303 3539 
Q 1666 3584 2028 3584 
Q 2975 3584 3395 3211 
Q 3816 2838 3816 1997 
z
M 2606 5119 
L 3490 5119 
L 2337 3944 
L 1725 3944 
L 2606 5119 
z
" transform="scale(0.015625)"/>
     <path id="DejaVuSans-Bold-66" d="M 2841 4863 
L 2841 4128 
L 2222 4128 
Q 1984 4128 1890 4042 
Q 1797 3956 1797 3744 
L 1797 3500 
L 2753 3500 
L 2753 2700 
L 1797 2700 
L 1797 0 
L 678 0 
L 678 2700 
L 122 2700 
L 122 3500 
L 678 3500 
L 678 3744 
Q 678 4316 997 4589 
Q 1316 4863 1984 4863 
L 2841 4863 
z
" transform="scale(0.015625)"/>
     <path id="DejaVuSans-Bold-6c" d="M 538 4863 
L 1656 4863 
L 1656 0 
L 538 0 
L 538 4863 
z
" transform="scale(0.015625)"/>
    </defs>
    <use xlink:href="#DejaVuSans-Bold-47"/>
    <use xlink:href="#DejaVuSans-Bold-72" transform="translate(82.080078 0)"/>
    <use xlink:href="#DejaVuSans-Bold-e1" transform="translate(131.396484 0)"/>
    <use xlink:href="#DejaVuSans-Bold-66" transform="translate(198.876953 0)"/>
    <use xlink:href="#DejaVuSans-Bold-69" transform="translate(242.382812 0)"/>
    <use xlink:href="#DejaVuSans-Bold-63" transform="translate(276.660156 0)"/>
    <use xlink:href="#DejaVuSans-Bold-61" transform="translate(335.9375 0)"/>
    <use xlink:href="#DejaVuSans-Bold-73" transform="translate(403.417969 0)"/>
    <use xlink:href="#DejaVuSans-Bold-20" transform="translate(462.939453 0)"/>
    <use xlink:href="#DejaVuSans-Bold-64" transform="translate(497.753906 0)"/>
    <use xlink:href="#DejaVuSans-Bold-65" transform="translate(569.335938 0)"/>
    <use xlink:href="#DejaVuSans-Bold-20" transform="translate(637.158203 0)"/>
    <use xlink:href="#DejaVuSans-Bold-6c" transform="translate(671.972656 0)"/>
    <use xlink:href="#DejaVuSans-Bold-61" transform="translate(706.25 0)"/>
    <use xlink:href="#DejaVuSans-Bold-73" transform="translate(773.730469 0)"/>
    <use xlink:href="#DejaVuSans-Bold-20" transform="translate(833.251953 0)"/>
    <use xlink:href="#DejaVuSans-Bold-46" transform="translate(868.066406 0)"/>
    <use xlink:href="#DejaVuSans-Bold-75" transform="translate(931.376953 0)"/>
    <use xlink:href="#DejaVuSans-Bold-6e" transform="translate(1002.568359 0)"/>
    <use xlink:href="#DejaVuSans-Bold-63" transform="translate(1073.759766 0)"/>
    <use xlink:href="#DejaVuSans-Bold-69" transform="translate(1133.037109 0)"/>
    <use xlink:href="#DejaVuSans-Bold-6f" transform="translate(1167.314453 0)"/>
    <use xlink:href="#DejaVuSans-Bold-6e" transform="translate(1236.015625 0)"/>
    <use xlink:href="#DejaVuSans-Bold-65" transform="translate(1307.207031 0)"/>
    <use xlink:href="#DejaVuSans-Bold-73" transform="translate(1375.029297 0)"/>
    <use xlink:href="#DejaVuSans-Bold-20" transform="translate(1434.550781 0)"/>
    <use xlink:href="#DejaVuSans-Bold-53" transform="translate(1469.365234 0)"/>
    <use xlink:href="#DejaVuSans-Bold-65" transform="translate(1541.386719 0)"/>
    <use xlink:href="#DejaVuSans-Bold-6e" transform="translate(1609.208984 0)"/>
    <use xlink:href="#DejaVuSans-Bold-6f" transform="translate(1680.400391 0)"/>
    <use xlink:href="#DejaVuSans-Bold-20" transform="translate(1749.101562 0)"/>
    <use xlink:href="#DejaVuSans-Bold-79" transform="translate(1783.916016 0)"/>
    <use xlink:href="#DejaVuSans-Bold-20" transform="translate(1849.101562 0)"/>
    <use xlink:href="#DejaVuSans-Bold-43" transform="translate(1883.916016 0)"/>
    <use xlink:href="#DejaVuSans-Bold-6f" transform="translate(1957.304688 0)"/>
    <use xlink:href="#DejaVuSans-Bold-73" transform="translate(2026.005859 0)"/>
    <use xlink:href="#DejaVuSans-Bold-65" transform="translate(2085.527344 0)"/>
    <use xlink:href="#DejaVuSans-Bold-6e" transform="translate(2153.349609 0)"/>
    <use xlink:href="#DejaVuSans-Bold-6f" transform="translate(2224.541016 0)"/>
   </g>
  </g>
 </g>
 <defs>
  <clipPath id="p40855e57c2">
   <rect x="31.890625" y="42.217511" width="977.308895" height="181.105241"/>
  </clipPath>
  <clipPath id="p2841a7b3be">
   <rect x="31.890625" y="307.831346" width="977.308895" height="181.105241"/>
  </clipPath>
  <clipPath id="p0d649b1c21">
   <rect x="31.890625" y="558.646899" width="977.308895" height="90.552621"/>
  </clipPath>
 </defs>
</svg>
