<?xml version="1.0" encoding="utf-8" standalone="no"?>
<!DOCTYPE svg PUBLIC "-//W3C//DTD SVG 1.1//EN"
  "http://www.w3.org/Graphics/SVG/1.1/DTD/svg11.dtd">
<svg xmlns:xlink="http://www.w3.org/1999/xlink" width="1016.39952pt" height="728.39952pt" viewBox="0 0 1016.39952 728.39952" xmlns="http://www.w3.org/2000/svg" version="1.1">
 <metadata>
  <rdf:RDF xmlns:dc="http://purl.org/dc/elements/1.1/" xmlns:cc="http://creativecommons.org/ns#" xmlns:rdf="http://www.w3.org/1999/02/22-rdf-syntax-ns#">
   <cc:Work>
    <dc:type rdf:resource="http://purl.org/dc/dcmitype/StillImage"/>
    <dc:date>2026-01-04T20:52:51.873312</dc:date>
    <dc:format>image/svg+xml</dc:format>
    <dc:creator>
     <cc:Agent>
      <dc:title>Repositorio Matemáticas Universitarias</dc:title>
     </cc:Agent>
    </dc:creator>
   </cc:Work>
  </rdf:RDF>
 </metadata>
 <defs>
  <style type="text/css">*{stroke-linejoin: round; stroke-linecap: butt}</style>
 </defs>
 <g id="figure_1">
  <g id="patch_1">
   <path d="M 0 728.39952 
L 1016.39952 728.39952 
L 1016.39952 0 
L 0 0 
z
" style="fill: #ffffff"/>
  </g>
  <g id="axes_1">
   <g id="patch_2">
    <path d="M 27.23999 341.806303 
L 989.15953 341.806303 
L 989.15953 41.934123 
L 27.23999 41.934123 
z
" clip-path="url(#p57151f6ef9)" style="fill: #f9fafb; stroke: #d1d5db; stroke-width: 1.5; stroke-linejoin: miter"/>
   </g>
   <g id="patch_3">
    <path d="M 37.259986 131.257751 
L 337.859842 131.257751 
L 337.859842 67.45516 
L 37.259986 67.45516 
z
" clip-path="url(#p57151f6ef9)" style="fill: #f0fdf4; stroke: #dc2626; stroke-width: 1.5; stroke-linejoin: miter"/>
   </g>
   <g id="patch_4">
    <path d="M 357.899832 204.630732 
L 658.499688 204.630732 
L 658.499688 67.45516 
L 357.899832 67.45516 
z
" clip-path="url(#p57151f6ef9)" style="fill: #eff6ff; stroke: #7c3aed; stroke-width: 1.5; stroke-linejoin: miter"/>
   </g>
   <g id="patch_5">
    <path d="M 678.539678 131.257751 
L 979.139534 131.257751 
L 979.139534 67.45516 
L 678.539678 67.45516 
z
" clip-path="url(#p57151f6ef9)" style="fill: #fef3c7; stroke: #f59e0b; stroke-width: 1.5; stroke-linejoin: miter"/>
   </g>
   <g id="patch_6">
    <path d="M 37.259986 322.665526 
L 658.499688 322.665526 
L 658.499688 220.581379 
L 37.259986 220.581379 
z
" clip-path="url(#p57151f6ef9)" style="fill: #fef9c3; stroke: #ca8a04; stroke-width: 1.5; stroke-linejoin: miter"/>
   </g>
   <g id="patch_7">
    <path d="M 678.539678 322.665526 
L 979.139534 322.665526 
L 979.139534 220.581379 
L 678.539678 220.581379 
z
" clip-path="url(#p57151f6ef9)" style="fill: #fee2e2; stroke: #dc2626; stroke-width: 1.5; stroke-linejoin: miter"/>
   </g>
   <g id="text_1">
    <!-- IDENTIDADES DE ÁNGULO DOBLE -->
    <g style="fill: #2563eb" transform="translate(387.110854 54.694642) scale(0.13 -0.13)">
     <defs>
      <path id="DejaVuSans-Bold-49" d="M 588 4666 
L 1791 4666 
L 1791 0 
L 588 0 
L 588 4666 
z
" transform="scale(0.015625)"/>
      <path id="DejaVuSans-Bold-44" d="M 1791 3756 
L 1791 909 
L 2222 909 
Q 2959 909 3348 1275 
Q 3738 1641 3738 2338 
Q 3738 3031 3350 3393 
Q 2963 3756 2222 3756 
L 1791 3756 
z
M 588 4666 
L 1856 4666 
Q 2919 4666 3439 4514 
Q 3959 4363 4331 4000 
Q 4659 3684 4818 3271 
Q 4978 2859 4978 2338 
Q 4978 1809 4818 1395 
Q 4659 981 4331 666 
Q 3956 303 3431 151 
Q 2906 0 1856 0 
L 588 0 
L 588 4666 
z
" transform="scale(0.015625)"/>
      <path id="DejaVuSans-Bold-45" d="M 588 4666 
L 3834 4666 
L 3834 3756 
L 1791 3756 
L 1791 2888 
L 3713 2888 
L 3713 1978 
L 1791 1978 
L 1791 909 
L 3903 909 
L 3903 0 
L 588 0 
L 588 4666 
z
" transform="scale(0.015625)"/>
      <path id="DejaVuSans-Bold-4e" d="M 588 4666 
L 1931 4666 
L 3628 1466 
L 3628 4666 
L 4769 4666 
L 4769 0 
L 3425 0 
L 1728 3200 
L 1728 0 
L 588 0 
L 588 4666 
z
" transform="scale(0.015625)"/>
      <path id="DejaVuSans-Bold-54" d="M 31 4666 
L 4331 4666 
L 4331 3756 
L 2784 3756 
L 2784 0 
L 1581 0 
L 1581 3756 
L 31 3756 
L 31 4666 
z
" transform="scale(0.015625)"/>
      <path id="DejaVuSans-Bold-41" d="M 3419 850 
L 1538 850 
L 1241 0 
L 31 0 
L 1759 4666 
L 3194 4666 
L 4922 0 
L 3713 0 
L 3419 850 
z
M 1838 1716 
L 3116 1716 
L 2478 3572 
L 1838 1716 
z
" transform="scale(0.015625)"/>
      <path id="DejaVuSans-Bold-53" d="M 3834 4519 
L 3834 3531 
Q 3450 3703 3084 3790 
Q 2719 3878 2394 3878 
Q 1963 3878 1756 3759 
Q 1550 3641 1550 3391 
Q 1550 3203 1689 3098 
Q 1828 2994 2194 2919 
L 2706 2816 
Q 3484 2659 3812 2340 
Q 4141 2022 4141 1434 
Q 4141 663 3683 286 
Q 3225 -91 2284 -91 
Q 1841 -91 1394 -6 
Q 947 78 500 244 
L 500 1259 
Q 947 1022 1364 901 
Q 1781 781 2169 781 
Q 2563 781 2772 912 
Q 2981 1044 2981 1288 
Q 2981 1506 2839 1625 
Q 2697 1744 2272 1838 
L 1806 1941 
Q 1106 2091 782 2419 
Q 459 2747 459 3303 
Q 459 4000 909 4375 
Q 1359 4750 2203 4750 
Q 2588 4750 2994 4692 
Q 3400 4634 3834 4519 
z
" transform="scale(0.015625)"/>
      <path id="DejaVuSans-Bold-20" transform="scale(0.015625)"/>
      <path id="DejaVuSans-Bold-c1" d="M 3419 850 
L 1538 850 
L 1241 0 
L 31 0 
L 1759 4666 
L 3194 4666 
L 4922 0 
L 3713 0 
L 3419 850 
z
M 1838 1716 
L 3116 1716 
L 2478 3572 
L 1838 1716 
z
M 2559 5921 
L 3444 5921 
L 2553 5096 
L 1941 5096 
L 2559 5921 
z
" transform="scale(0.015625)"/>
      <path id="DejaVuSans-Bold-47" d="M 4781 347 
Q 4331 128 3847 18 
Q 3363 -91 2847 -91 
Q 1681 -91 1000 561 
Q 319 1213 319 2328 
Q 319 3456 1012 4103 
Q 1706 4750 2913 4750 
Q 3378 4750 3804 4662 
Q 4231 4575 4609 4403 
L 4609 3438 
Q 4219 3659 3833 3768 
Q 3447 3878 3059 3878 
Q 2341 3878 1952 3476 
Q 1563 3075 1563 2328 
Q 1563 1588 1938 1184 
Q 2313 781 3003 781 
Q 3191 781 3352 804 
Q 3513 828 3641 878 
L 3641 1784 
L 2906 1784 
L 2906 2591 
L 4781 2591 
L 4781 347 
z
" transform="scale(0.015625)"/>
      <path id="DejaVuSans-Bold-55" d="M 588 4666 
L 1791 4666 
L 1791 1869 
Q 1791 1291 1980 1042 
Q 2169 794 2597 794 
Q 3028 794 3217 1042 
Q 3406 1291 3406 1869 
L 3406 4666 
L 4609 4666 
L 4609 1869 
Q 4609 878 4112 393 
Q 3616 -91 2597 -91 
Q 1581 -91 1084 393 
Q 588 878 588 1869 
L 588 4666 
z
" transform="scale(0.015625)"/>
      <path id="DejaVuSans-Bold-4c" d="M 588 4666 
L 1791 4666 
L 1791 909 
L 3903 909 
L 3903 0 
L 588 0 
L 588 4666 
z
" transform="scale(0.015625)"/>
      <path id="DejaVuSans-Bold-4f" d="M 2719 3878 
Q 2169 3878 1866 3472 
Q 1563 3066 1563 2328 
Q 1563 1594 1866 1187 
Q 2169 781 2719 781 
Q 3272 781 3575 1187 
Q 3878 1594 3878 2328 
Q 3878 3066 3575 3472 
Q 3272 3878 2719 3878 
z
M 2719 4750 
Q 3844 4750 4481 4106 
Q 5119 3463 5119 2328 
Q 5119 1197 4481 553 
Q 3844 -91 2719 -91 
Q 1597 -91 958 553 
Q 319 1197 319 2328 
Q 319 3463 958 4106 
Q 1597 4750 2719 4750 
z
" transform="scale(0.015625)"/>
      <path id="DejaVuSans-Bold-42" d="M 2456 2859 
Q 2741 2859 2887 2984 
Q 3034 3109 3034 3353 
Q 3034 3594 2887 3720 
Q 2741 3847 2456 3847 
L 1791 3847 
L 1791 2859 
L 2456 2859 
z
M 2497 819 
Q 2859 819 3042 972 
Q 3225 1125 3225 1434 
Q 3225 1738 3044 1889 
Q 2863 2041 2497 2041 
L 1791 2041 
L 1791 819 
L 2497 819 
z
M 3616 2497 
Q 4003 2384 4215 2081 
Q 4428 1778 4428 1338 
Q 4428 663 3972 331 
Q 3516 0 2584 0 
L 588 0 
L 588 4666 
L 2394 4666 
Q 3366 4666 3802 4372 
Q 4238 4078 4238 3431 
Q 4238 3091 4078 2852 
Q 3919 2613 3616 2497 
z
" transform="scale(0.015625)"/>
     </defs>
     <use xlink:href="#DejaVuSans-Bold-49"/>
     <use xlink:href="#DejaVuSans-Bold-44" transform="translate(37.207031 0)"/>
     <use xlink:href="#DejaVuSans-Bold-45" transform="translate(120.214844 0)"/>
     <use xlink:href="#DejaVuSans-Bold-4e" transform="translate(188.525391 0)"/>
     <use xlink:href="#DejaVuSans-Bold-54" transform="translate(272.216797 0)"/>
     <use xlink:href="#DejaVuSans-Bold-49" transform="translate(340.429688 0)"/>
     <use xlink:href="#DejaVuSans-Bold-44" transform="translate(377.636719 0)"/>
     <use xlink:href="#DejaVuSans-Bold-41" transform="translate(460.644531 0)"/>
     <use xlink:href="#DejaVuSans-Bold-44" transform="translate(538.037109 0)"/>
     <use xlink:href="#DejaVuSans-Bold-45" transform="translate(621.044922 0)"/>
     <use xlink:href="#DejaVuSans-Bold-53" transform="translate(689.355469 0)"/>
     <use xlink:href="#DejaVuSans-Bold-20" transform="translate(761.376953 0)"/>
     <use xlink:href="#DejaVuSans-Bold-44" transform="translate(796.191406 0)"/>
     <use xlink:href="#DejaVuSans-Bold-45" transform="translate(879.199219 0)"/>
     <use xlink:href="#DejaVuSans-Bold-20" transform="translate(947.509766 0)"/>
     <use xlink:href="#DejaVuSans-Bold-c1" transform="translate(982.324219 0)"/>
     <use xlink:href="#DejaVuSans-Bold-4e" transform="translate(1059.716797 0)"/>
     <use xlink:href="#DejaVuSans-Bold-47" transform="translate(1143.408203 0)"/>
     <use xlink:href="#DejaVuSans-Bold-55" transform="translate(1225.488281 0)"/>
     <use xlink:href="#DejaVuSans-Bold-4c" transform="translate(1306.689453 0)"/>
     <use xlink:href="#DejaVuSans-Bold-4f" transform="translate(1366.785156 0)"/>
     <use xlink:href="#DejaVuSans-Bold-20" transform="translate(1451.794922 0)"/>
     <use xlink:href="#DejaVuSans-Bold-44" transform="translate(1486.609375 0)"/>
     <use xlink:href="#DejaVuSans-Bold-4f" transform="translate(1569.617188 0)"/>
     <use xlink:href="#DejaVuSans-Bold-42" transform="translate(1654.626953 0)"/>
     <use xlink:href="#DejaVuSans-Bold-4c" transform="translate(1730.847656 0)"/>
     <use xlink:href="#DejaVuSans-Bold-45" transform="translate(1794.568359 0)"/>
    </g>
   </g>
   <g id="text_2">
    <!-- sin(2θ) -->
    <g style="fill: #dc2626" transform="translate(165.85296 80.215678) scale(0.11 -0.11)">
     <defs>
      <path id="DejaVuSans-Bold-73" d="M 3272 3391 
L 3272 2541 
Q 2913 2691 2578 2766 
Q 2244 2841 1947 2841 
Q 1628 2841 1473 2761 
Q 1319 2681 1319 2516 
Q 1319 2381 1436 2309 
Q 1553 2238 1856 2203 
L 2053 2175 
Q 2913 2066 3209 1816 
Q 3506 1566 3506 1031 
Q 3506 472 3093 190 
Q 2681 -91 1863 -91 
Q 1516 -91 1145 -36 
Q 775 19 384 128 
L 384 978 
Q 719 816 1070 734 
Q 1422 653 1784 653 
Q 2113 653 2278 743 
Q 2444 834 2444 1013 
Q 2444 1163 2330 1236 
Q 2216 1309 1875 1350 
L 1678 1375 
Q 931 1469 631 1722 
Q 331 1975 331 2491 
Q 331 3047 712 3315 
Q 1094 3584 1881 3584 
Q 2191 3584 2531 3537 
Q 2872 3491 3272 3391 
z
" transform="scale(0.015625)"/>
      <path id="DejaVuSans-Bold-69" d="M 538 3500 
L 1656 3500 
L 1656 0 
L 538 0 
L 538 3500 
z
M 538 4863 
L 1656 4863 
L 1656 3950 
L 538 3950 
L 538 4863 
z
" transform="scale(0.015625)"/>
      <path id="DejaVuSans-Bold-6e" d="M 4056 2131 
L 4056 0 
L 2931 0 
L 2931 347 
L 2931 1631 
Q 2931 2084 2911 2256 
Q 2891 2428 2841 2509 
Q 2775 2619 2662 2680 
Q 2550 2741 2406 2741 
Q 2056 2741 1856 2470 
Q 1656 2200 1656 1722 
L 1656 0 
L 538 0 
L 538 3500 
L 1656 3500 
L 1656 2988 
Q 1909 3294 2193 3439 
Q 2478 3584 2822 3584 
Q 3428 3584 3742 3212 
Q 4056 2841 4056 2131 
z
" transform="scale(0.015625)"/>
      <path id="DejaVuSans-Bold-28" d="M 2413 -844 
L 1484 -844 
Q 1006 -72 778 623 
Q 550 1319 550 2003 
Q 550 2688 779 3389 
Q 1009 4091 1484 4856 
L 2413 4856 
Q 2013 4116 1813 3408 
Q 1613 2700 1613 2009 
Q 1613 1319 1811 609 
Q 2009 -100 2413 -844 
z
" transform="scale(0.015625)"/>
      <path id="DejaVuSans-Bold-32" d="M 1844 884 
L 3897 884 
L 3897 0 
L 506 0 
L 506 884 
L 2209 2388 
Q 2438 2594 2547 2791 
Q 2656 2988 2656 3200 
Q 2656 3528 2436 3728 
Q 2216 3928 1850 3928 
Q 1569 3928 1234 3808 
Q 900 3688 519 3450 
L 519 4475 
Q 925 4609 1322 4679 
Q 1719 4750 2100 4750 
Q 2938 4750 3402 4381 
Q 3866 4013 3866 3353 
Q 3866 2972 3669 2642 
Q 3472 2313 2841 1759 
L 1844 884 
z
" transform="scale(0.015625)"/>
      <path id="DejaVuSans-Bold-3b8" d="M 1447 2081 
Q 1469 1444 1638 1181 
Q 1922 728 2197 725 
Q 2475 722 2763 1181 
Q 2931 1453 2953 2081 
L 1447 2081 
z
M 2950 2881 
Q 2913 3394 2759 3688 
Q 2522 4144 2200 4144 
Q 1875 4144 1641 3688 
Q 1484 3384 1450 2881 
L 2950 2881 
z
M 2200 4913 
Q 3247 4913 3686 4231 
Q 4125 3550 4125 2403 
Q 4125 1256 3673 592 
Q 3222 -72 2200 -72 
Q 1178 -72 726 592 
Q 275 1256 275 2403 
Q 275 3550 714 4231 
Q 1153 4913 2200 4913 
z
" transform="scale(0.015625)"/>
      <path id="DejaVuSans-Bold-29" d="M 513 -844 
Q 913 -100 1113 609 
Q 1313 1319 1313 2009 
Q 1313 2700 1113 3408 
Q 913 4116 513 4856 
L 1441 4856 
Q 1916 4091 2145 3389 
Q 2375 2688 2375 2003 
Q 2375 1319 2147 623 
Q 1919 -72 1441 -844 
L 513 -844 
z
" transform="scale(0.015625)"/>
     </defs>
     <use xlink:href="#DejaVuSans-Bold-73"/>
     <use xlink:href="#DejaVuSans-Bold-69" transform="translate(59.521484 0)"/>
     <use xlink:href="#DejaVuSans-Bold-6e" transform="translate(93.798828 0)"/>
     <use xlink:href="#DejaVuSans-Bold-28" transform="translate(164.990234 0)"/>
     <use xlink:href="#DejaVuSans-Bold-32" transform="translate(210.693359 0)"/>
     <use xlink:href="#DejaVuSans-Bold-3b8" transform="translate(280.273438 0)"/>
     <use xlink:href="#DejaVuSans-Bold-29" transform="translate(348.974609 0)"/>
    </g>
   </g>
   <g id="text_3">
    <!-- $\sin(2\theta) = 2\sin\theta\cos\theta$ -->
    <g style="fill: #1f2937" transform="translate(137.609914 115.307104) scale(0.1 -0.1)">
     <defs>
      <path id="DejaVuSans-73" d="M 2834 3397 
L 2834 2853 
Q 2591 2978 2328 3040 
Q 2066 3103 1784 3103 
Q 1356 3103 1142 2972 
Q 928 2841 928 2578 
Q 928 2378 1081 2264 
Q 1234 2150 1697 2047 
L 1894 2003 
Q 2506 1872 2764 1633 
Q 3022 1394 3022 966 
Q 3022 478 2636 193 
Q 2250 -91 1575 -91 
Q 1294 -91 989 -36 
Q 684 19 347 128 
L 347 722 
Q 666 556 975 473 
Q 1284 391 1588 391 
Q 1994 391 2212 530 
Q 2431 669 2431 922 
Q 2431 1156 2273 1281 
Q 2116 1406 1581 1522 
L 1381 1569 
Q 847 1681 609 1914 
Q 372 2147 372 2553 
Q 372 3047 722 3315 
Q 1072 3584 1716 3584 
Q 2034 3584 2315 3537 
Q 2597 3491 2834 3397 
z
" transform="scale(0.015625)"/>
      <path id="DejaVuSans-69" d="M 603 3500 
L 1178 3500 
L 1178 0 
L 603 0 
L 603 3500 
z
M 603 4863 
L 1178 4863 
L 1178 4134 
L 603 4134 
L 603 4863 
z
" transform="scale(0.015625)"/>
      <path id="DejaVuSans-6e" d="M 3513 2113 
L 3513 0 
L 2938 0 
L 2938 2094 
Q 2938 2591 2744 2837 
Q 2550 3084 2163 3084 
Q 1697 3084 1428 2787 
Q 1159 2491 1159 1978 
L 1159 0 
L 581 0 
L 581 3500 
L 1159 3500 
L 1159 2956 
Q 1366 3272 1645 3428 
Q 1925 3584 2291 3584 
Q 2894 3584 3203 3211 
Q 3513 2838 3513 2113 
z
" transform="scale(0.015625)"/>
      <path id="DejaVuSans-28" d="M 1984 4856 
Q 1566 4138 1362 3434 
Q 1159 2731 1159 2009 
Q 1159 1288 1364 580 
Q 1569 -128 1984 -844 
L 1484 -844 
Q 1016 -109 783 600 
Q 550 1309 550 2009 
Q 550 2706 781 3412 
Q 1013 4119 1484 4856 
L 1984 4856 
z
" transform="scale(0.015625)"/>
      <path id="DejaVuSans-32" d="M 1228 531 
L 3431 531 
L 3431 0 
L 469 0 
L 469 531 
Q 828 903 1448 1529 
Q 2069 2156 2228 2338 
Q 2531 2678 2651 2914 
Q 2772 3150 2772 3378 
Q 2772 3750 2511 3984 
Q 2250 4219 1831 4219 
Q 1534 4219 1204 4116 
Q 875 4013 500 3803 
L 500 4441 
Q 881 4594 1212 4672 
Q 1544 4750 1819 4750 
Q 2544 4750 2975 4387 
Q 3406 4025 3406 3419 
Q 3406 3131 3298 2873 
Q 3191 2616 2906 2266 
Q 2828 2175 2409 1742 
Q 1991 1309 1228 531 
z
" transform="scale(0.015625)"/>
      <path id="DejaVuSans-Oblique-3b8" d="M 2913 2219 
L 925 2219 
Q 791 1284 928 888 
Q 1100 400 1566 400 
Q 2034 400 2391 891 
Q 2703 1322 2913 2219 
z
M 3009 2750 
Q 3094 3638 2984 3950 
Q 2813 4444 2353 4444 
Q 1875 4444 1525 3956 
Q 1250 3563 1034 2750 
L 3009 2750 
z
M 2444 4913 
Q 3194 4913 3494 4250 
Q 3794 3591 3566 2422 
Q 3341 1256 2781 594 
Q 2225 -72 1475 -72 
Q 722 -72 425 594 
Q 128 1256 353 2422 
Q 581 3591 1134 4250 
Q 1691 4913 2444 4913 
z
" transform="scale(0.015625)"/>
      <path id="DejaVuSans-29" d="M 513 4856 
L 1013 4856 
Q 1481 4119 1714 3412 
Q 1947 2706 1947 2009 
Q 1947 1309 1714 600 
Q 1481 -109 1013 -844 
L 513 -844 
Q 928 -128 1133 580 
Q 1338 1288 1338 2009 
Q 1338 2731 1133 3434 
Q 928 4138 513 4856 
z
" transform="scale(0.015625)"/>
      <path id="DejaVuSans-3d" d="M 678 2906 
L 4684 2906 
L 4684 2381 
L 678 2381 
L 678 2906 
z
M 678 1631 
L 4684 1631 
L 4684 1100 
L 678 1100 
L 678 1631 
z
" transform="scale(0.015625)"/>
      <path id="DejaVuSans-63" d="M 3122 3366 
L 3122 2828 
Q 2878 2963 2633 3030 
Q 2388 3097 2138 3097 
Q 1578 3097 1268 2742 
Q 959 2388 959 1747 
Q 959 1106 1268 751 
Q 1578 397 2138 397 
Q 2388 397 2633 464 
Q 2878 531 3122 666 
L 3122 134 
Q 2881 22 2623 -34 
Q 2366 -91 2075 -91 
Q 1284 -91 818 406 
Q 353 903 353 1747 
Q 353 2603 823 3093 
Q 1294 3584 2113 3584 
Q 2378 3584 2631 3529 
Q 2884 3475 3122 3366 
z
" transform="scale(0.015625)"/>
      <path id="DejaVuSans-6f" d="M 1959 3097 
Q 1497 3097 1228 2736 
Q 959 2375 959 1747 
Q 959 1119 1226 758 
Q 1494 397 1959 397 
Q 2419 397 2687 759 
Q 2956 1122 2956 1747 
Q 2956 2369 2687 2733 
Q 2419 3097 1959 3097 
z
M 1959 3584 
Q 2709 3584 3137 3096 
Q 3566 2609 3566 1747 
Q 3566 888 3137 398 
Q 2709 -91 1959 -91 
Q 1206 -91 779 398 
Q 353 888 353 1747 
Q 353 2609 779 3096 
Q 1206 3584 1959 3584 
z
" transform="scale(0.015625)"/>
     </defs>
     <use xlink:href="#DejaVuSans-73" transform="translate(0 0.234375)"/>
     <use xlink:href="#DejaVuSans-69" transform="translate(52.099609 0.234375)"/>
     <use xlink:href="#DejaVuSans-6e" transform="translate(79.882812 0.234375)"/>
     <use xlink:href="#DejaVuSans-28" transform="translate(143.261719 0.234375)"/>
     <use xlink:href="#DejaVuSans-32" transform="translate(182.275391 0.234375)"/>
     <use xlink:href="#DejaVuSans-Oblique-3b8" transform="translate(245.898438 0.234375)"/>
     <use xlink:href="#DejaVuSans-29" transform="translate(307.080078 0.234375)"/>
     <use xlink:href="#DejaVuSans-3d" transform="translate(365.576172 0.234375)"/>
     <use xlink:href="#DejaVuSans-32" transform="translate(468.847656 0.234375)"/>
     <use xlink:href="#DejaVuSans-73" transform="translate(532.470703 0.234375)"/>
     <use xlink:href="#DejaVuSans-69" transform="translate(584.570312 0.234375)"/>
     <use xlink:href="#DejaVuSans-6e" transform="translate(612.353516 0.234375)"/>
     <use xlink:href="#DejaVuSans-Oblique-3b8" transform="translate(691.968098 0.234375)"/>
     <use xlink:href="#DejaVuSans-63" transform="translate(753.149739 0.234375)"/>
     <use xlink:href="#DejaVuSans-6f" transform="translate(808.130208 0.234375)"/>
     <use xlink:href="#DejaVuSans-73" transform="translate(869.311848 0.234375)"/>
     <use xlink:href="#DejaVuSans-Oblique-3b8" transform="translate(937.647134 0.234375)"/>
    </g>
   </g>
   <g id="text_4">
    <!-- cos(2θ) -->
    <g style="fill: #7c3aed" transform="translate(485.254447 80.215678) scale(0.11 -0.11)">
     <defs>
      <path id="DejaVuSans-Bold-63" d="M 3366 3391 
L 3366 2478 
Q 3138 2634 2908 2709 
Q 2678 2784 2431 2784 
Q 1963 2784 1702 2511 
Q 1441 2238 1441 1747 
Q 1441 1256 1702 982 
Q 1963 709 2431 709 
Q 2694 709 2930 787 
Q 3166 866 3366 1019 
L 3366 103 
Q 3103 6 2833 -42 
Q 2563 -91 2291 -91 
Q 1344 -91 809 395 
Q 275 881 275 1747 
Q 275 2613 809 3098 
Q 1344 3584 2291 3584 
Q 2566 3584 2833 3536 
Q 3100 3488 3366 3391 
z
" transform="scale(0.015625)"/>
      <path id="DejaVuSans-Bold-6f" d="M 2203 2784 
Q 1831 2784 1636 2517 
Q 1441 2250 1441 1747 
Q 1441 1244 1636 976 
Q 1831 709 2203 709 
Q 2569 709 2762 976 
Q 2956 1244 2956 1747 
Q 2956 2250 2762 2517 
Q 2569 2784 2203 2784 
z
M 2203 3584 
Q 3106 3584 3614 3096 
Q 4122 2609 4122 1747 
Q 4122 884 3614 396 
Q 3106 -91 2203 -91 
Q 1297 -91 786 396 
Q 275 884 275 1747 
Q 275 2609 786 3096 
Q 1297 3584 2203 3584 
z
" transform="scale(0.015625)"/>
     </defs>
     <use xlink:href="#DejaVuSans-Bold-63"/>
     <use xlink:href="#DejaVuSans-Bold-6f" transform="translate(59.277344 0)"/>
     <use xlink:href="#DejaVuSans-Bold-73" transform="translate(127.978516 0)"/>
     <use xlink:href="#DejaVuSans-Bold-28" transform="translate(187.5 0)"/>
     <use xlink:href="#DejaVuSans-Bold-32" transform="translate(233.203125 0)"/>
     <use xlink:href="#DejaVuSans-Bold-3b8" transform="translate(302.783203 0)"/>
     <use xlink:href="#DejaVuSans-Bold-29" transform="translate(371.484375 0)"/>
    </g>
   </g>
   <g id="text_5">
    <!-- $\cos(2\theta) = \cos^2\theta - \sin^2\theta$ -->
    <g style="fill: #1f2937" transform="translate(449.19976 115.307104) scale(0.1 -0.1)">
     <defs>
      <path id="DejaVuSans-2212" d="M 678 2272 
L 4684 2272 
L 4684 1741 
L 678 1741 
L 678 2272 
z
" transform="scale(0.015625)"/>
     </defs>
     <use xlink:href="#DejaVuSans-63" transform="translate(0 0.765625)"/>
     <use xlink:href="#DejaVuSans-6f" transform="translate(54.980469 0.765625)"/>
     <use xlink:href="#DejaVuSans-73" transform="translate(116.162109 0.765625)"/>
     <use xlink:href="#DejaVuSans-28" transform="translate(168.261719 0.765625)"/>
     <use xlink:href="#DejaVuSans-32" transform="translate(207.275391 0.765625)"/>
     <use xlink:href="#DejaVuSans-Oblique-3b8" transform="translate(270.898438 0.765625)"/>
     <use xlink:href="#DejaVuSans-29" transform="translate(332.080078 0.765625)"/>
     <use xlink:href="#DejaVuSans-3d" transform="translate(390.576172 0.765625)"/>
     <use xlink:href="#DejaVuSans-63" transform="translate(493.847656 0.765625)"/>
     <use xlink:href="#DejaVuSans-6f" transform="translate(548.828125 0.765625)"/>
     <use xlink:href="#DejaVuSans-73" transform="translate(610.009766 0.765625)"/>
     <use xlink:href="#DejaVuSans-32" transform="translate(663.066406 39.046875) scale(0.7)"/>
     <use xlink:href="#DejaVuSans-Oblique-3b8" transform="translate(726.57259 0.765625)"/>
     <use xlink:href="#DejaVuSans-2212" transform="translate(807.236653 0.765625)"/>
     <use xlink:href="#DejaVuSans-73" transform="translate(910.508137 0.765625)"/>
     <use xlink:href="#DejaVuSans-69" transform="translate(962.607747 0.765625)"/>
     <use xlink:href="#DejaVuSans-6e" transform="translate(990.39095 0.765625)"/>
     <use xlink:href="#DejaVuSans-32" transform="translate(1054.726887 39.046875) scale(0.7)"/>
     <use xlink:href="#DejaVuSans-Oblique-3b8" transform="translate(1118.233071 0.765625)"/>
    </g>
   </g>
   <g id="text_6">
    <!-- $\cos(2\theta) = 2\cos^2\theta - 1$ -->
    <g style="fill: #1f2937" transform="translate(456.29976 150.398529) scale(0.1 -0.1)">
     <defs>
      <path id="DejaVuSans-31" d="M 794 531 
L 1825 531 
L 1825 4091 
L 703 3866 
L 703 4441 
L 1819 4666 
L 2450 4666 
L 2450 531 
L 3481 531 
L 3481 0 
L 794 0 
L 794 531 
z
" transform="scale(0.015625)"/>
     </defs>
     <use xlink:href="#DejaVuSans-63" transform="translate(0 0.765625)"/>
     <use xlink:href="#DejaVuSans-6f" transform="translate(54.980469 0.765625)"/>
     <use xlink:href="#DejaVuSans-73" transform="translate(116.162109 0.765625)"/>
     <use xlink:href="#DejaVuSans-28" transform="translate(168.261719 0.765625)"/>
     <use xlink:href="#DejaVuSans-32" transform="translate(207.275391 0.765625)"/>
     <use xlink:href="#DejaVuSans-Oblique-3b8" transform="translate(270.898438 0.765625)"/>
     <use xlink:href="#DejaVuSans-29" transform="translate(332.080078 0.765625)"/>
     <use xlink:href="#DejaVuSans-3d" transform="translate(390.576172 0.765625)"/>
     <use xlink:href="#DejaVuSans-32" transform="translate(493.847656 0.765625)"/>
     <use xlink:href="#DejaVuSans-63" transform="translate(557.470703 0.765625)"/>
     <use xlink:href="#DejaVuSans-6f" transform="translate(612.451172 0.765625)"/>
     <use xlink:href="#DejaVuSans-73" transform="translate(673.632812 0.765625)"/>
     <use xlink:href="#DejaVuSans-32" transform="translate(726.689453 39.046875) scale(0.7)"/>
     <use xlink:href="#DejaVuSans-Oblique-3b8" transform="translate(790.195637 0.765625)"/>
     <use xlink:href="#DejaVuSans-2212" transform="translate(870.8597 0.765625)"/>
     <use xlink:href="#DejaVuSans-31" transform="translate(974.131184 0.765625)"/>
    </g>
   </g>
   <g id="text_7">
    <!-- $\cos(2\theta) = 1 - 2\sin^2\theta$ -->
    <g style="fill: #1f2937" transform="translate(457.54976 185.489954) scale(0.1 -0.1)">
     <use xlink:href="#DejaVuSans-63" transform="translate(0 0.765625)"/>
     <use xlink:href="#DejaVuSans-6f" transform="translate(54.980469 0.765625)"/>
     <use xlink:href="#DejaVuSans-73" transform="translate(116.162109 0.765625)"/>
     <use xlink:href="#DejaVuSans-28" transform="translate(168.261719 0.765625)"/>
     <use xlink:href="#DejaVuSans-32" transform="translate(207.275391 0.765625)"/>
     <use xlink:href="#DejaVuSans-Oblique-3b8" transform="translate(270.898438 0.765625)"/>
     <use xlink:href="#DejaVuSans-29" transform="translate(332.080078 0.765625)"/>
     <use xlink:href="#DejaVuSans-3d" transform="translate(390.576172 0.765625)"/>
     <use xlink:href="#DejaVuSans-31" transform="translate(493.847656 0.765625)"/>
     <use xlink:href="#DejaVuSans-2212" transform="translate(576.953125 0.765625)"/>
     <use xlink:href="#DejaVuSans-32" transform="translate(680.224609 0.765625)"/>
     <use xlink:href="#DejaVuSans-73" transform="translate(743.847656 0.765625)"/>
     <use xlink:href="#DejaVuSans-69" transform="translate(795.947266 0.765625)"/>
     <use xlink:href="#DejaVuSans-6e" transform="translate(823.730469 0.765625)"/>
     <use xlink:href="#DejaVuSans-32" transform="translate(888.066406 39.046875) scale(0.7)"/>
     <use xlink:href="#DejaVuSans-Oblique-3b8" transform="translate(951.57259 0.765625)"/>
    </g>
   </g>
   <g id="text_8">
    <!-- tan(2θ) -->
    <g style="fill: #f59e0b" transform="translate(805.951013 80.215678) scale(0.11 -0.11)">
     <defs>
      <path id="DejaVuSans-Bold-74" d="M 1759 4494 
L 1759 3500 
L 2913 3500 
L 2913 2700 
L 1759 2700 
L 1759 1216 
Q 1759 972 1856 886 
Q 1953 800 2241 800 
L 2816 800 
L 2816 0 
L 1856 0 
Q 1194 0 917 276 
Q 641 553 641 1216 
L 641 2700 
L 84 2700 
L 84 3500 
L 641 3500 
L 641 4494 
L 1759 4494 
z
" transform="scale(0.015625)"/>
      <path id="DejaVuSans-Bold-61" d="M 2106 1575 
Q 1756 1575 1579 1456 
Q 1403 1338 1403 1106 
Q 1403 894 1545 773 
Q 1688 653 1941 653 
Q 2256 653 2472 879 
Q 2688 1106 2688 1447 
L 2688 1575 
L 2106 1575 
z
M 3816 1997 
L 3816 0 
L 2688 0 
L 2688 519 
Q 2463 200 2181 54 
Q 1900 -91 1497 -91 
Q 953 -91 614 226 
Q 275 544 275 1050 
Q 275 1666 698 1953 
Q 1122 2241 2028 2241 
L 2688 2241 
L 2688 2328 
Q 2688 2594 2478 2717 
Q 2269 2841 1825 2841 
Q 1466 2841 1156 2769 
Q 847 2697 581 2553 
L 581 3406 
Q 941 3494 1303 3539 
Q 1666 3584 2028 3584 
Q 2975 3584 3395 3211 
Q 3816 2838 3816 1997 
z
" transform="scale(0.015625)"/>
     </defs>
     <use xlink:href="#DejaVuSans-Bold-74"/>
     <use xlink:href="#DejaVuSans-Bold-61" transform="translate(47.802734 0)"/>
     <use xlink:href="#DejaVuSans-Bold-6e" transform="translate(115.283203 0)"/>
     <use xlink:href="#DejaVuSans-Bold-28" transform="translate(186.474609 0)"/>
     <use xlink:href="#DejaVuSans-Bold-32" transform="translate(232.177734 0)"/>
     <use xlink:href="#DejaVuSans-Bold-3b8" transform="translate(301.757812 0)"/>
     <use xlink:href="#DejaVuSans-Bold-29" transform="translate(370.458984 0)"/>
    </g>
   </g>
   <g id="text_9">
    <!-- $\tan(2\theta) = \frac{2\tan\theta}{1-\tan^2\theta}$ -->
    <g style="fill: #1f2937" transform="translate(787.039606 115.307104) scale(0.1 -0.1)">
     <defs>
      <path id="DejaVuSans-74" d="M 1172 4494 
L 1172 3500 
L 2356 3500 
L 2356 3053 
L 1172 3053 
L 1172 1153 
Q 1172 725 1289 603 
Q 1406 481 1766 481 
L 2356 481 
L 2356 0 
L 1766 0 
Q 1100 0 847 248 
Q 594 497 594 1153 
L 594 3053 
L 172 3053 
L 172 3500 
L 594 3500 
L 594 4494 
L 1172 4494 
z
" transform="scale(0.015625)"/>
      <path id="DejaVuSans-61" d="M 2194 1759 
Q 1497 1759 1228 1600 
Q 959 1441 959 1056 
Q 959 750 1161 570 
Q 1363 391 1709 391 
Q 2188 391 2477 730 
Q 2766 1069 2766 1631 
L 2766 1759 
L 2194 1759 
z
M 3341 1997 
L 3341 0 
L 2766 0 
L 2766 531 
Q 2569 213 2275 61 
Q 1981 -91 1556 -91 
Q 1019 -91 701 211 
Q 384 513 384 1019 
Q 384 1609 779 1909 
Q 1175 2209 1959 2209 
L 2766 2209 
L 2766 2266 
Q 2766 2663 2505 2880 
Q 2244 3097 1772 3097 
Q 1472 3097 1187 3025 
Q 903 2953 641 2809 
L 641 3341 
Q 956 3463 1253 3523 
Q 1550 3584 1831 3584 
Q 2591 3584 2966 3190 
Q 3341 2797 3341 1997 
z
" transform="scale(0.015625)"/>
     </defs>
     <use xlink:href="#DejaVuSans-74" transform="translate(0 0.471875)"/>
     <use xlink:href="#DejaVuSans-61" transform="translate(39.208984 0.471875)"/>
     <use xlink:href="#DejaVuSans-6e" transform="translate(100.488281 0.471875)"/>
     <use xlink:href="#DejaVuSans-28" transform="translate(163.867188 0.471875)"/>
     <use xlink:href="#DejaVuSans-32" transform="translate(202.880859 0.471875)"/>
     <use xlink:href="#DejaVuSans-Oblique-3b8" transform="translate(266.503906 0.471875)"/>
     <use xlink:href="#DejaVuSans-29" transform="translate(327.685547 0.471875)"/>
     <use xlink:href="#DejaVuSans-3d" transform="translate(386.181641 0.471875)"/>
     <use xlink:href="#DejaVuSans-32" transform="translate(549.453125 45.264063) scale(0.7)"/>
     <use xlink:href="#DejaVuSans-74" transform="translate(593.989258 45.264063) scale(0.7)"/>
     <use xlink:href="#DejaVuSans-61" transform="translate(621.435547 45.264063) scale(0.7)"/>
     <use xlink:href="#DejaVuSans-6e" transform="translate(664.331055 45.264063) scale(0.7)"/>
     <use xlink:href="#DejaVuSans-Oblique-3b8" transform="translate(720.061262 45.264063) scale(0.7)"/>
     <use xlink:href="#DejaVuSans-31" transform="translate(489.453125 -50.145312) scale(0.7)"/>
     <use xlink:href="#DejaVuSans-2212" transform="translate(547.626953 -50.145312) scale(0.7)"/>
     <use xlink:href="#DejaVuSans-74" transform="translate(619.916992 -50.145312) scale(0.7)"/>
     <use xlink:href="#DejaVuSans-61" transform="translate(647.363281 -50.145312) scale(0.7)"/>
     <use xlink:href="#DejaVuSans-6e" transform="translate(690.258789 -50.145312) scale(0.7)"/>
     <use xlink:href="#DejaVuSans-32" transform="translate(735.293945 -23.348437) scale(0.49)"/>
     <use xlink:href="#DejaVuSans-Oblique-3b8" transform="translate(779.748274 -50.145312) scale(0.7)"/>
     <path d="M 489.453125 19.26875 
L 489.453125 25.51875 
L 822.575423 25.51875 
L 822.575423 19.26875 
L 489.453125 19.26875 
z
"/>
    </g>
   </g>
   <g id="text_10">
    <!-- Formas Despejadas (útiles para integración) -->
    <g style="fill: #ca8a04" transform="translate(222.481399 233.341898) scale(0.1 -0.1)">
     <defs>
      <path id="DejaVuSans-Bold-46" d="M 588 4666 
L 3834 4666 
L 3834 3756 
L 1791 3756 
L 1791 2888 
L 3713 2888 
L 3713 1978 
L 1791 1978 
L 1791 0 
L 588 0 
L 588 4666 
z
" transform="scale(0.015625)"/>
      <path id="DejaVuSans-Bold-72" d="M 3138 2547 
Q 2991 2616 2845 2648 
Q 2700 2681 2553 2681 
Q 2122 2681 1889 2404 
Q 1656 2128 1656 1613 
L 1656 0 
L 538 0 
L 538 3500 
L 1656 3500 
L 1656 2925 
Q 1872 3269 2151 3426 
Q 2431 3584 2822 3584 
Q 2878 3584 2943 3579 
Q 3009 3575 3134 3559 
L 3138 2547 
z
" transform="scale(0.015625)"/>
      <path id="DejaVuSans-Bold-6d" d="M 3781 2919 
Q 3994 3244 4286 3414 
Q 4578 3584 4928 3584 
Q 5531 3584 5847 3212 
Q 6163 2841 6163 2131 
L 6163 0 
L 5038 0 
L 5038 1825 
Q 5041 1866 5042 1909 
Q 5044 1953 5044 2034 
Q 5044 2406 4934 2573 
Q 4825 2741 4581 2741 
Q 4263 2741 4089 2478 
Q 3916 2216 3909 1719 
L 3909 0 
L 2784 0 
L 2784 1825 
Q 2784 2406 2684 2573 
Q 2584 2741 2328 2741 
Q 2006 2741 1831 2477 
Q 1656 2213 1656 1722 
L 1656 0 
L 531 0 
L 531 3500 
L 1656 3500 
L 1656 2988 
Q 1863 3284 2130 3434 
Q 2397 3584 2719 3584 
Q 3081 3584 3359 3409 
Q 3638 3234 3781 2919 
z
" transform="scale(0.015625)"/>
      <path id="DejaVuSans-Bold-65" d="M 4031 1759 
L 4031 1441 
L 1416 1441 
Q 1456 1047 1700 850 
Q 1944 653 2381 653 
Q 2734 653 3104 758 
Q 3475 863 3866 1075 
L 3866 213 
Q 3469 63 3072 -14 
Q 2675 -91 2278 -91 
Q 1328 -91 801 392 
Q 275 875 275 1747 
Q 275 2603 792 3093 
Q 1309 3584 2216 3584 
Q 3041 3584 3536 3087 
Q 4031 2591 4031 1759 
z
M 2881 2131 
Q 2881 2450 2695 2645 
Q 2509 2841 2209 2841 
Q 1884 2841 1681 2658 
Q 1478 2475 1428 2131 
L 2881 2131 
z
" transform="scale(0.015625)"/>
      <path id="DejaVuSans-Bold-70" d="M 1656 506 
L 1656 -1331 
L 538 -1331 
L 538 3500 
L 1656 3500 
L 1656 2988 
Q 1888 3294 2169 3439 
Q 2450 3584 2816 3584 
Q 3463 3584 3878 3070 
Q 4294 2556 4294 1747 
Q 4294 938 3878 423 
Q 3463 -91 2816 -91 
Q 2450 -91 2169 54 
Q 1888 200 1656 506 
z
M 2400 2772 
Q 2041 2772 1848 2508 
Q 1656 2244 1656 1747 
Q 1656 1250 1848 986 
Q 2041 722 2400 722 
Q 2759 722 2948 984 
Q 3138 1247 3138 1747 
Q 3138 2247 2948 2509 
Q 2759 2772 2400 2772 
z
" transform="scale(0.015625)"/>
      <path id="DejaVuSans-Bold-6a" d="M 538 3500 
L 1656 3500 
L 1656 63 
Q 1656 -641 1318 -1011 
Q 981 -1381 341 -1381 
L -213 -1381 
L -213 -647 
L -19 -647 
Q 300 -647 419 -503 
Q 538 -359 538 63 
L 538 3500 
z
M 538 4863 
L 1656 4863 
L 1656 3950 
L 538 3950 
L 538 4863 
z
" transform="scale(0.015625)"/>
      <path id="DejaVuSans-Bold-64" d="M 2919 2988 
L 2919 4863 
L 4044 4863 
L 4044 0 
L 2919 0 
L 2919 506 
Q 2688 197 2409 53 
Q 2131 -91 1766 -91 
Q 1119 -91 703 423 
Q 288 938 288 1747 
Q 288 2556 703 3070 
Q 1119 3584 1766 3584 
Q 2128 3584 2408 3439 
Q 2688 3294 2919 2988 
z
M 2181 722 
Q 2541 722 2730 984 
Q 2919 1247 2919 1747 
Q 2919 2247 2730 2509 
Q 2541 2772 2181 2772 
Q 1825 2772 1636 2509 
Q 1447 2247 1447 1747 
Q 1447 1247 1636 984 
Q 1825 722 2181 722 
z
" transform="scale(0.015625)"/>
      <path id="DejaVuSans-Bold-fa" d="M 500 1363 
L 500 3500 
L 1625 3500 
L 1625 3150 
Q 1625 2866 1622 2436 
Q 1619 2006 1619 1863 
Q 1619 1441 1641 1255 
Q 1663 1069 1716 984 
Q 1784 875 1895 815 
Q 2006 756 2150 756 
Q 2500 756 2700 1025 
Q 2900 1294 2900 1772 
L 2900 3500 
L 4019 3500 
L 4019 0 
L 2900 0 
L 2900 506 
Q 2647 200 2364 54 
Q 2081 -91 1741 -91 
Q 1134 -91 817 281 
Q 500 653 500 1363 
z
M 2782 5119 
L 3666 5119 
L 2513 3944 
L 1901 3944 
L 2782 5119 
z
" transform="scale(0.015625)"/>
      <path id="DejaVuSans-Bold-6c" d="M 538 4863 
L 1656 4863 
L 1656 0 
L 538 0 
L 538 4863 
z
" transform="scale(0.015625)"/>
      <path id="DejaVuSans-Bold-67" d="M 2919 594 
Q 2688 288 2409 144 
Q 2131 0 1766 0 
Q 1125 0 706 504 
Q 288 1009 288 1791 
Q 288 2575 706 3076 
Q 1125 3578 1766 3578 
Q 2131 3578 2409 3434 
Q 2688 3291 2919 2981 
L 2919 3500 
L 4044 3500 
L 4044 353 
Q 4044 -491 3511 -936 
Q 2978 -1381 1966 -1381 
Q 1638 -1381 1331 -1331 
Q 1025 -1281 716 -1178 
L 716 -306 
Q 1009 -475 1290 -558 
Q 1572 -641 1856 -641 
Q 2406 -641 2662 -400 
Q 2919 -159 2919 353 
L 2919 594 
z
M 2181 2772 
Q 1834 2772 1640 2515 
Q 1447 2259 1447 1791 
Q 1447 1309 1634 1061 
Q 1822 813 2181 813 
Q 2531 813 2725 1069 
Q 2919 1325 2919 1791 
Q 2919 2259 2725 2515 
Q 2531 2772 2181 2772 
z
" transform="scale(0.015625)"/>
      <path id="DejaVuSans-Bold-f3" d="M 2203 2784 
Q 1831 2784 1636 2517 
Q 1441 2250 1441 1747 
Q 1441 1244 1636 976 
Q 1831 709 2203 709 
Q 2569 709 2762 976 
Q 2956 1244 2956 1747 
Q 2956 2250 2762 2517 
Q 2569 2784 2203 2784 
z
M 2203 3584 
Q 3106 3584 3614 3096 
Q 4122 2609 4122 1747 
Q 4122 884 3614 396 
Q 3106 -91 2203 -91 
Q 1297 -91 786 396 
Q 275 884 275 1747 
Q 275 2609 786 3096 
Q 1297 3584 2203 3584 
z
M 2694 5119 
L 3578 5119 
L 2425 3944 
L 1813 3944 
L 2694 5119 
z
" transform="scale(0.015625)"/>
     </defs>
     <use xlink:href="#DejaVuSans-Bold-46"/>
     <use xlink:href="#DejaVuSans-Bold-6f" transform="translate(64.310547 0)"/>
     <use xlink:href="#DejaVuSans-Bold-72" transform="translate(133.011719 0)"/>
     <use xlink:href="#DejaVuSans-Bold-6d" transform="translate(182.328125 0)"/>
     <use xlink:href="#DejaVuSans-Bold-61" transform="translate(286.527344 0)"/>
     <use xlink:href="#DejaVuSans-Bold-73" transform="translate(354.007812 0)"/>
     <use xlink:href="#DejaVuSans-Bold-20" transform="translate(413.529297 0)"/>
     <use xlink:href="#DejaVuSans-Bold-44" transform="translate(448.34375 0)"/>
     <use xlink:href="#DejaVuSans-Bold-65" transform="translate(531.351562 0)"/>
     <use xlink:href="#DejaVuSans-Bold-73" transform="translate(599.173828 0)"/>
     <use xlink:href="#DejaVuSans-Bold-70" transform="translate(658.695312 0)"/>
     <use xlink:href="#DejaVuSans-Bold-65" transform="translate(730.277344 0)"/>
     <use xlink:href="#DejaVuSans-Bold-6a" transform="translate(798.099609 0)"/>
     <use xlink:href="#DejaVuSans-Bold-61" transform="translate(832.376953 0)"/>
     <use xlink:href="#DejaVuSans-Bold-64" transform="translate(899.857422 0)"/>
     <use xlink:href="#DejaVuSans-Bold-61" transform="translate(971.439453 0)"/>
     <use xlink:href="#DejaVuSans-Bold-73" transform="translate(1038.919922 0)"/>
     <use xlink:href="#DejaVuSans-Bold-20" transform="translate(1098.441406 0)"/>
     <use xlink:href="#DejaVuSans-Bold-28" transform="translate(1133.255859 0)"/>
     <use xlink:href="#DejaVuSans-Bold-fa" transform="translate(1178.958984 0)"/>
     <use xlink:href="#DejaVuSans-Bold-74" transform="translate(1250.150391 0)"/>
     <use xlink:href="#DejaVuSans-Bold-69" transform="translate(1297.953125 0)"/>
     <use xlink:href="#DejaVuSans-Bold-6c" transform="translate(1332.230469 0)"/>
     <use xlink:href="#DejaVuSans-Bold-65" transform="translate(1366.507812 0)"/>
     <use xlink:href="#DejaVuSans-Bold-73" transform="translate(1434.330078 0)"/>
     <use xlink:href="#DejaVuSans-Bold-20" transform="translate(1493.851562 0)"/>
     <use xlink:href="#DejaVuSans-Bold-70" transform="translate(1528.666016 0)"/>
     <use xlink:href="#DejaVuSans-Bold-61" transform="translate(1600.248047 0)"/>
     <use xlink:href="#DejaVuSans-Bold-72" transform="translate(1667.728516 0)"/>
     <use xlink:href="#DejaVuSans-Bold-61" transform="translate(1717.044922 0)"/>
     <use xlink:href="#DejaVuSans-Bold-20" transform="translate(1784.525391 0)"/>
     <use xlink:href="#DejaVuSans-Bold-69" transform="translate(1819.339844 0)"/>
     <use xlink:href="#DejaVuSans-Bold-6e" transform="translate(1853.617188 0)"/>
     <use xlink:href="#DejaVuSans-Bold-74" transform="translate(1924.808594 0)"/>
     <use xlink:href="#DejaVuSans-Bold-65" transform="translate(1972.611328 0)"/>
     <use xlink:href="#DejaVuSans-Bold-67" transform="translate(2040.433594 0)"/>
     <use xlink:href="#DejaVuSans-Bold-72" transform="translate(2112.015625 0)"/>
     <use xlink:href="#DejaVuSans-Bold-61" transform="translate(2161.332031 0)"/>
     <use xlink:href="#DejaVuSans-Bold-63" transform="translate(2228.8125 0)"/>
     <use xlink:href="#DejaVuSans-Bold-69" transform="translate(2288.089844 0)"/>
     <use xlink:href="#DejaVuSans-Bold-f3" transform="translate(2322.367188 0)"/>
     <use xlink:href="#DejaVuSans-Bold-6e" transform="translate(2391.068359 0)"/>
     <use xlink:href="#DejaVuSans-Bold-29" transform="translate(2462.259766 0)"/>
    </g>
   </g>
   <g id="text_11">
    <!-- $\sin^2\theta = \frac{1 - \cos(2\theta)}{2}$ -->
    <g style="fill: #1f2937" transform="translate(308.129837 268.433323) scale(0.1 -0.1)">
     <use xlink:href="#DejaVuSans-73" transform="translate(0 0.235938)"/>
     <use xlink:href="#DejaVuSans-69" transform="translate(52.099609 0.235938)"/>
     <use xlink:href="#DejaVuSans-6e" transform="translate(79.882812 0.235938)"/>
     <use xlink:href="#DejaVuSans-32" transform="translate(144.21875 38.517188) scale(0.7)"/>
     <use xlink:href="#DejaVuSans-Oblique-3b8" transform="translate(207.724934 0.235938)"/>
     <use xlink:href="#DejaVuSans-3d" transform="translate(288.388997 0.235938)"/>
     <use xlink:href="#DejaVuSans-31" transform="translate(391.660481 53.264063) scale(0.7)"/>
     <use xlink:href="#DejaVuSans-2212" transform="translate(449.834309 53.264063) scale(0.7)"/>
     <use xlink:href="#DejaVuSans-63" transform="translate(522.124348 53.264063) scale(0.7)"/>
     <use xlink:href="#DejaVuSans-6f" transform="translate(560.610676 53.264063) scale(0.7)"/>
     <use xlink:href="#DejaVuSans-73" transform="translate(603.437825 53.264063) scale(0.7)"/>
     <use xlink:href="#DejaVuSans-28" transform="translate(639.907551 53.264063) scale(0.7)"/>
     <use xlink:href="#DejaVuSans-32" transform="translate(667.217122 53.264063) scale(0.7)"/>
     <use xlink:href="#DejaVuSans-Oblique-3b8" transform="translate(711.753254 53.264063) scale(0.7)"/>
     <use xlink:href="#DejaVuSans-29" transform="translate(754.580403 53.264063) scale(0.7)"/>
     <use xlink:href="#DejaVuSans-32" transform="translate(564.660481 -39.170312) scale(0.7)"/>
     <path d="M 391.660481 19.032813 
L 391.660481 25.282813 
L 781.889973 25.282813 
L 781.889973 19.032813 
L 391.660481 19.032813 
z
"/>
    </g>
   </g>
   <g id="text_12">
    <!-- $\cos^2\theta = \frac{1 + \cos(2\theta)}{2}$ -->
    <g style="fill: #1f2937" transform="translate(306.879837 303.524748) scale(0.1 -0.1)">
     <defs>
      <path id="DejaVuSans-2b" d="M 2944 4013 
L 2944 2272 
L 4684 2272 
L 4684 1741 
L 2944 1741 
L 2944 0 
L 2419 0 
L 2419 1741 
L 678 1741 
L 678 2272 
L 2419 2272 
L 2419 4013 
L 2944 4013 
z
" transform="scale(0.015625)"/>
     </defs>
     <use xlink:href="#DejaVuSans-63" transform="translate(0 0.235938)"/>
     <use xlink:href="#DejaVuSans-6f" transform="translate(54.980469 0.235938)"/>
     <use xlink:href="#DejaVuSans-73" transform="translate(116.162109 0.235938)"/>
     <use xlink:href="#DejaVuSans-32" transform="translate(169.21875 38.517188) scale(0.7)"/>
     <use xlink:href="#DejaVuSans-Oblique-3b8" transform="translate(232.724934 0.235938)"/>
     <use xlink:href="#DejaVuSans-3d" transform="translate(313.388997 0.235938)"/>
     <use xlink:href="#DejaVuSans-31" transform="translate(416.660481 53.264063) scale(0.7)"/>
     <use xlink:href="#DejaVuSans-2b" transform="translate(474.834309 53.264063) scale(0.7)"/>
     <use xlink:href="#DejaVuSans-63" transform="translate(547.124348 53.264063) scale(0.7)"/>
     <use xlink:href="#DejaVuSans-6f" transform="translate(585.610676 53.264063) scale(0.7)"/>
     <use xlink:href="#DejaVuSans-73" transform="translate(628.437825 53.264063) scale(0.7)"/>
     <use xlink:href="#DejaVuSans-28" transform="translate(664.907551 53.264063) scale(0.7)"/>
     <use xlink:href="#DejaVuSans-32" transform="translate(692.217122 53.264063) scale(0.7)"/>
     <use xlink:href="#DejaVuSans-Oblique-3b8" transform="translate(736.753254 53.264063) scale(0.7)"/>
     <use xlink:href="#DejaVuSans-29" transform="translate(779.580403 53.264063) scale(0.7)"/>
     <use xlink:href="#DejaVuSans-32" transform="translate(589.660481 -39.170312) scale(0.7)"/>
     <path d="M 416.660481 19.032813 
L 416.660481 25.282813 
L 806.889973 25.282813 
L 806.889973 19.032813 
L 416.660481 19.032813 
z
"/>
    </g>
   </g>
   <g id="text_13">
    <!-- 💡 Tip -->
    <g style="fill: #dc2626" transform="translate(815.394294 233.341898) scale(0.1 -0.1)">
     <defs>
      <path id="DejaVuSans-Bold-1f4a1" d="M 319 -1131 
L 319 4513 
L 3519 4513 
L 3519 -1131 
L 319 -1131 
z
M 678 -775 
L 3163 -775 
L 3163 4153 
L 678 4153 
L 678 -775 
z
" transform="scale(0.015625)"/>
     </defs>
     <use xlink:href="#DejaVuSans-Bold-1f4a1"/>
     <use xlink:href="#DejaVuSans-Bold-20" transform="translate(60.009766 0)"/>
     <use xlink:href="#DejaVuSans-Bold-54" transform="translate(94.824219 0)"/>
     <use xlink:href="#DejaVuSans-Bold-69" transform="translate(163.037109 0)"/>
     <use xlink:href="#DejaVuSans-Bold-70" transform="translate(197.314453 0)"/>
    </g>
   </g>
   <g id="text_14">
    <!-- Se obtienen de -->
    <g style="fill: #6b7280" transform="translate(794.861794 265.243194) scale(0.09 -0.09)">
     <defs>
      <path id="DejaVuSans-53" d="M 3425 4513 
L 3425 3897 
Q 3066 4069 2747 4153 
Q 2428 4238 2131 4238 
Q 1616 4238 1336 4038 
Q 1056 3838 1056 3469 
Q 1056 3159 1242 3001 
Q 1428 2844 1947 2747 
L 2328 2669 
Q 3034 2534 3370 2195 
Q 3706 1856 3706 1288 
Q 3706 609 3251 259 
Q 2797 -91 1919 -91 
Q 1588 -91 1214 -16 
Q 841 59 441 206 
L 441 856 
Q 825 641 1194 531 
Q 1563 422 1919 422 
Q 2459 422 2753 634 
Q 3047 847 3047 1241 
Q 3047 1584 2836 1778 
Q 2625 1972 2144 2069 
L 1759 2144 
Q 1053 2284 737 2584 
Q 422 2884 422 3419 
Q 422 4038 858 4394 
Q 1294 4750 2059 4750 
Q 2388 4750 2728 4690 
Q 3069 4631 3425 4513 
z
" transform="scale(0.015625)"/>
      <path id="DejaVuSans-65" d="M 3597 1894 
L 3597 1613 
L 953 1613 
Q 991 1019 1311 708 
Q 1631 397 2203 397 
Q 2534 397 2845 478 
Q 3156 559 3463 722 
L 3463 178 
Q 3153 47 2828 -22 
Q 2503 -91 2169 -91 
Q 1331 -91 842 396 
Q 353 884 353 1716 
Q 353 2575 817 3079 
Q 1281 3584 2069 3584 
Q 2775 3584 3186 3129 
Q 3597 2675 3597 1894 
z
M 3022 2063 
Q 3016 2534 2758 2815 
Q 2500 3097 2075 3097 
Q 1594 3097 1305 2825 
Q 1016 2553 972 2059 
L 3022 2063 
z
" transform="scale(0.015625)"/>
      <path id="DejaVuSans-20" transform="scale(0.015625)"/>
      <path id="DejaVuSans-62" d="M 3116 1747 
Q 3116 2381 2855 2742 
Q 2594 3103 2138 3103 
Q 1681 3103 1420 2742 
Q 1159 2381 1159 1747 
Q 1159 1113 1420 752 
Q 1681 391 2138 391 
Q 2594 391 2855 752 
Q 3116 1113 3116 1747 
z
M 1159 2969 
Q 1341 3281 1617 3432 
Q 1894 3584 2278 3584 
Q 2916 3584 3314 3078 
Q 3713 2572 3713 1747 
Q 3713 922 3314 415 
Q 2916 -91 2278 -91 
Q 1894 -91 1617 61 
Q 1341 213 1159 525 
L 1159 0 
L 581 0 
L 581 4863 
L 1159 4863 
L 1159 2969 
z
" transform="scale(0.015625)"/>
      <path id="DejaVuSans-64" d="M 2906 2969 
L 2906 4863 
L 3481 4863 
L 3481 0 
L 2906 0 
L 2906 525 
Q 2725 213 2448 61 
Q 2172 -91 1784 -91 
Q 1150 -91 751 415 
Q 353 922 353 1747 
Q 353 2572 751 3078 
Q 1150 3584 1784 3584 
Q 2172 3584 2448 3432 
Q 2725 3281 2906 2969 
z
M 947 1747 
Q 947 1113 1208 752 
Q 1469 391 1925 391 
Q 2381 391 2643 752 
Q 2906 1113 2906 1747 
Q 2906 2381 2643 2742 
Q 2381 3103 1925 3103 
Q 1469 3103 1208 2742 
Q 947 2381 947 1747 
z
" transform="scale(0.015625)"/>
     </defs>
     <use xlink:href="#DejaVuSans-53"/>
     <use xlink:href="#DejaVuSans-65" transform="translate(63.476562 0)"/>
     <use xlink:href="#DejaVuSans-20" transform="translate(125 0)"/>
     <use xlink:href="#DejaVuSans-6f" transform="translate(156.787109 0)"/>
     <use xlink:href="#DejaVuSans-62" transform="translate(217.96875 0)"/>
     <use xlink:href="#DejaVuSans-74" transform="translate(281.445312 0)"/>
     <use xlink:href="#DejaVuSans-69" transform="translate(320.654297 0)"/>
     <use xlink:href="#DejaVuSans-65" transform="translate(348.4375 0)"/>
     <use xlink:href="#DejaVuSans-6e" transform="translate(409.960938 0)"/>
     <use xlink:href="#DejaVuSans-65" transform="translate(473.339844 0)"/>
     <use xlink:href="#DejaVuSans-6e" transform="translate(534.863281 0)"/>
     <use xlink:href="#DejaVuSans-20" transform="translate(598.242188 0)"/>
     <use xlink:href="#DejaVuSans-64" transform="translate(630.029297 0)"/>
     <use xlink:href="#DejaVuSans-65" transform="translate(693.505859 0)"/>
    </g>
   </g>
   <g id="text_15">
    <!-- las identidades de -->
    <g style="fill: #6b7280" transform="translate(787.675153 290.76423) scale(0.09 -0.09)">
     <defs>
      <path id="DejaVuSans-6c" d="M 603 4863 
L 1178 4863 
L 1178 0 
L 603 0 
L 603 4863 
z
" transform="scale(0.015625)"/>
     </defs>
     <use xlink:href="#DejaVuSans-6c"/>
     <use xlink:href="#DejaVuSans-61" transform="translate(27.783203 0)"/>
     <use xlink:href="#DejaVuSans-73" transform="translate(89.0625 0)"/>
     <use xlink:href="#DejaVuSans-20" transform="translate(141.162109 0)"/>
     <use xlink:href="#DejaVuSans-69" transform="translate(172.949219 0)"/>
     <use xlink:href="#DejaVuSans-64" transform="translate(200.732422 0)"/>
     <use xlink:href="#DejaVuSans-65" transform="translate(264.208984 0)"/>
     <use xlink:href="#DejaVuSans-6e" transform="translate(325.732422 0)"/>
     <use xlink:href="#DejaVuSans-74" transform="translate(389.111328 0)"/>
     <use xlink:href="#DejaVuSans-69" transform="translate(428.320312 0)"/>
     <use xlink:href="#DejaVuSans-64" transform="translate(456.103516 0)"/>
     <use xlink:href="#DejaVuSans-61" transform="translate(519.580078 0)"/>
     <use xlink:href="#DejaVuSans-64" transform="translate(580.859375 0)"/>
     <use xlink:href="#DejaVuSans-65" transform="translate(644.335938 0)"/>
     <use xlink:href="#DejaVuSans-73" transform="translate(705.859375 0)"/>
     <use xlink:href="#DejaVuSans-20" transform="translate(757.958984 0)"/>
     <use xlink:href="#DejaVuSans-64" transform="translate(789.746094 0)"/>
     <use xlink:href="#DejaVuSans-65" transform="translate(853.222656 0)"/>
    </g>
   </g>
   <g id="text_16">
    <!-- suma con α = β -->
    <g style="fill: #6b7280" transform="translate(793.093435 316.285267) scale(0.09 -0.09)">
     <defs>
      <path id="DejaVuSans-75" d="M 544 1381 
L 544 3500 
L 1119 3500 
L 1119 1403 
Q 1119 906 1312 657 
Q 1506 409 1894 409 
Q 2359 409 2629 706 
Q 2900 1003 2900 1516 
L 2900 3500 
L 3475 3500 
L 3475 0 
L 2900 0 
L 2900 538 
Q 2691 219 2414 64 
Q 2138 -91 1772 -91 
Q 1169 -91 856 284 
Q 544 659 544 1381 
z
M 1991 3584 
L 1991 3584 
z
" transform="scale(0.015625)"/>
      <path id="DejaVuSans-6d" d="M 3328 2828 
Q 3544 3216 3844 3400 
Q 4144 3584 4550 3584 
Q 5097 3584 5394 3201 
Q 5691 2819 5691 2113 
L 5691 0 
L 5113 0 
L 5113 2094 
Q 5113 2597 4934 2840 
Q 4756 3084 4391 3084 
Q 3944 3084 3684 2787 
Q 3425 2491 3425 1978 
L 3425 0 
L 2847 0 
L 2847 2094 
Q 2847 2600 2669 2842 
Q 2491 3084 2119 3084 
Q 1678 3084 1418 2786 
Q 1159 2488 1159 1978 
L 1159 0 
L 581 0 
L 581 3500 
L 1159 3500 
L 1159 2956 
Q 1356 3278 1631 3431 
Q 1906 3584 2284 3584 
Q 2666 3584 2933 3390 
Q 3200 3197 3328 2828 
z
" transform="scale(0.015625)"/>
      <path id="DejaVuSans-3b1" d="M 2644 1628 
L 2506 2350 
Q 2366 3091 1809 3091 
Q 1391 3091 1200 2747 
Q 959 2316 959 1747 
Q 959 1059 1194 731 
Q 1431 397 1809 397 
Q 2228 397 2453 1063 
L 2644 1628 
z
M 2966 2584 
L 3275 3500 
L 3788 3500 
L 3147 1603 
L 3272 919 
Q 3300 766 3409 638 
Q 3538 488 3638 488 
L 3913 488 
L 3913 0 
L 3569 0 
Q 3275 0 3013 263 
Q 2884 394 2831 669 
Q 2688 322 2394 50 
Q 2256 -78 1809 -78 
Q 1075 -78 719 397 
Q 353 888 353 1747 
Q 353 2666 750 3097 
Q 1191 3578 1809 3578 
Q 2781 3578 2966 2584 
z
" transform="scale(0.015625)"/>
      <path id="DejaVuSans-3b2" d="M 1178 216 
L 1178 -1331 
L 600 -1331 
L 600 3478 
Q 600 4903 1931 4903 
Q 3288 4903 3288 3700 
Q 3288 2844 2750 2531 
Q 3625 2250 3625 1416 
Q 3625 -66 2119 -66 
Q 1456 -66 1178 216 
z
M 1178 966 
Q 1525 425 2141 425 
Q 3041 425 3041 1406 
Q 3041 2288 1591 2219 
L 1591 2750 
Q 2725 2750 2725 3750 
Q 2725 4434 1994 4434 
Q 1178 4434 1178 3459 
L 1178 966 
z
" transform="scale(0.015625)"/>
     </defs>
     <use xlink:href="#DejaVuSans-73"/>
     <use xlink:href="#DejaVuSans-75" transform="translate(52.099609 0)"/>
     <use xlink:href="#DejaVuSans-6d" transform="translate(115.478516 0)"/>
     <use xlink:href="#DejaVuSans-61" transform="translate(212.890625 0)"/>
     <use xlink:href="#DejaVuSans-20" transform="translate(274.169922 0)"/>
     <use xlink:href="#DejaVuSans-63" transform="translate(305.957031 0)"/>
     <use xlink:href="#DejaVuSans-6f" transform="translate(360.9375 0)"/>
     <use xlink:href="#DejaVuSans-6e" transform="translate(422.119141 0)"/>
     <use xlink:href="#DejaVuSans-20" transform="translate(485.498047 0)"/>
     <use xlink:href="#DejaVuSans-3b1" transform="translate(517.285156 0)"/>
     <use xlink:href="#DejaVuSans-20" transform="translate(583.203125 0)"/>
     <use xlink:href="#DejaVuSans-3d" transform="translate(614.990234 0)"/>
     <use xlink:href="#DejaVuSans-20" transform="translate(698.779297 0)"/>
     <use xlink:href="#DejaVuSans-3b2" transform="translate(730.566406 0)"/>
    </g>
   </g>
  </g>
  <g id="axes_2">
   <g id="patch_8">
    <path d="M 27.23999 714.819261 
L 989.15953 714.819261 
L 989.15953 414.947081 
L 27.23999 414.947081 
z
" clip-path="url(#p3a75f2496c)" style="fill: #f9fafb; stroke: #d1d5db; stroke-width: 1.5; stroke-linejoin: miter"/>
   </g>
   <g id="patch_9">
    <path d="M 37.259986 561.693041 
L 337.859842 561.693041 
L 337.859842 450.038506 
L 37.259986 450.038506 
z
" clip-path="url(#p3a75f2496c)" style="fill: #f0fdf4; stroke: #dc2626; stroke-width: 1.5; stroke-linejoin: miter"/>
   </g>
   <g id="patch_10">
    <path d="M 357.899832 561.693041 
L 658.499688 561.693041 
L 658.499688 450.038506 
L 357.899832 450.038506 
z
" clip-path="url(#p3a75f2496c)" style="fill: #eff6ff; stroke: #7c3aed; stroke-width: 1.5; stroke-linejoin: miter"/>
   </g>
   <g id="patch_11">
    <path d="M 678.539678 561.693041 
L 979.139534 561.693041 
L 979.139534 450.038506 
L 678.539678 450.038506 
z
" clip-path="url(#p3a75f2496c)" style="fill: #fef3c7; stroke: #f59e0b; stroke-width: 1.5; stroke-linejoin: miter"/>
   </g>
   <g id="patch_12">
    <path d="M 157.499928 682.917965 
L 858.899592 682.917965 
L 858.899592 587.214078 
L 157.499928 587.214078 
z
" clip-path="url(#p3a75f2496c)" style="fill: #fce7f3; stroke: #ec4899; stroke-width: 1.5; stroke-linejoin: miter"/>
   </g>
   <g id="text_17">
    <!-- IDENTIDADES DE MEDIO ÁNGULO -->
    <g style="fill: #2563eb" transform="translate(387.320072 427.707599) scale(0.13 -0.13)">
     <defs>
      <path id="DejaVuSans-Bold-4d" d="M 588 4666 
L 2119 4666 
L 3181 2169 
L 4250 4666 
L 5778 4666 
L 5778 0 
L 4641 0 
L 4641 3413 
L 3566 897 
L 2803 897 
L 1728 3413 
L 1728 0 
L 588 0 
L 588 4666 
z
" transform="scale(0.015625)"/>
     </defs>
     <use xlink:href="#DejaVuSans-Bold-49"/>
     <use xlink:href="#DejaVuSans-Bold-44" transform="translate(37.207031 0)"/>
     <use xlink:href="#DejaVuSans-Bold-45" transform="translate(120.214844 0)"/>
     <use xlink:href="#DejaVuSans-Bold-4e" transform="translate(188.525391 0)"/>
     <use xlink:href="#DejaVuSans-Bold-54" transform="translate(272.216797 0)"/>
     <use xlink:href="#DejaVuSans-Bold-49" transform="translate(340.429688 0)"/>
     <use xlink:href="#DejaVuSans-Bold-44" transform="translate(377.636719 0)"/>
     <use xlink:href="#DejaVuSans-Bold-41" transform="translate(460.644531 0)"/>
     <use xlink:href="#DejaVuSans-Bold-44" transform="translate(538.037109 0)"/>
     <use xlink:href="#DejaVuSans-Bold-45" transform="translate(621.044922 0)"/>
     <use xlink:href="#DejaVuSans-Bold-53" transform="translate(689.355469 0)"/>
     <use xlink:href="#DejaVuSans-Bold-20" transform="translate(761.376953 0)"/>
     <use xlink:href="#DejaVuSans-Bold-44" transform="translate(796.191406 0)"/>
     <use xlink:href="#DejaVuSans-Bold-45" transform="translate(879.199219 0)"/>
     <use xlink:href="#DejaVuSans-Bold-20" transform="translate(947.509766 0)"/>
     <use xlink:href="#DejaVuSans-Bold-4d" transform="translate(982.324219 0)"/>
     <use xlink:href="#DejaVuSans-Bold-45" transform="translate(1081.835938 0)"/>
     <use xlink:href="#DejaVuSans-Bold-44" transform="translate(1150.146484 0)"/>
     <use xlink:href="#DejaVuSans-Bold-49" transform="translate(1233.154297 0)"/>
     <use xlink:href="#DejaVuSans-Bold-4f" transform="translate(1270.361328 0)"/>
     <use xlink:href="#DejaVuSans-Bold-20" transform="translate(1355.371094 0)"/>
     <use xlink:href="#DejaVuSans-Bold-c1" transform="translate(1390.185547 0)"/>
     <use xlink:href="#DejaVuSans-Bold-4e" transform="translate(1467.578125 0)"/>
     <use xlink:href="#DejaVuSans-Bold-47" transform="translate(1551.269531 0)"/>
     <use xlink:href="#DejaVuSans-Bold-55" transform="translate(1633.349609 0)"/>
     <use xlink:href="#DejaVuSans-Bold-4c" transform="translate(1714.550781 0)"/>
     <use xlink:href="#DejaVuSans-Bold-4f" transform="translate(1774.646484 0)"/>
    </g>
   </g>
   <g id="text_18">
    <!-- $\sin\frac{\theta}{2}$ -->
    <g style="fill: #dc2626" transform="translate(174.539914 465.989154) scale(0.12 -0.12)">
     <use xlink:href="#DejaVuSans-73" transform="translate(0 0.679688)"/>
     <use xlink:href="#DejaVuSans-69" transform="translate(52.099609 0.679688)"/>
     <use xlink:href="#DejaVuSans-6e" transform="translate(79.882812 0.679688)"/>
     <use xlink:href="#DejaVuSans-Oblique-3b8" transform="translate(160.497395 45.264063) scale(0.7)"/>
     <use xlink:href="#DejaVuSans-32" transform="translate(159.497395 -38.726562) scale(0.7)"/>
     <path d="M 159.497395 19.476562 
L 159.497395 25.726562 
L 204.033528 25.726562 
L 204.033528 19.476562 
L 159.497395 19.476562 
z
"/>
    </g>
   </g>
   <g id="text_19">
    <!-- $\sin\frac{\theta}{2} = \pm\sqrt{\frac{1-\cos\theta}{2}}$ -->
    <g style="fill: #1f2937" transform="translate(144.559914 513.841098) scale(0.1 -0.1)">
     <defs>
      <path id="DejaVuSans-b1" d="M 2944 4013 
L 2944 2803 
L 4684 2803 
L 4684 2272 
L 2944 2272 
L 2944 1063 
L 2419 1063 
L 2419 2272 
L 678 2272 
L 678 2803 
L 2419 2803 
L 2419 4013 
L 2944 4013 
z
M 678 531 
L 4684 531 
L 4684 0 
L 678 0 
L 678 531 
z
" transform="scale(0.015625)"/>
      <path id="STIXSizeOneSym-Regular-221a" d="M 6970 9933 
L 3373 -1888 
L 3104 -1888 
L 1626 2918 
Q 1555 3149 1465 3251 
Q 1376 3354 1229 3354 
Q 1011 3354 794 3181 
L 717 3309 
L 1766 4115 
L 1926 4115 
L 3379 -602 
L 3405 -602 
L 6605 9933 
L 6970 9933 
z
" transform="scale(0.015625)"/>
     </defs>
     <use xlink:href="#DejaVuSans-73" transform="translate(0 0.484375)"/>
     <use xlink:href="#DejaVuSans-69" transform="translate(52.099609 0.484375)"/>
     <use xlink:href="#DejaVuSans-6e" transform="translate(79.882812 0.484375)"/>
     <use xlink:href="#DejaVuSans-Oblique-3b8" transform="translate(160.497395 45.06875) scale(0.7)"/>
     <use xlink:href="#DejaVuSans-32" transform="translate(159.497395 -38.921875) scale(0.7)"/>
     <use xlink:href="#DejaVuSans-3d" transform="translate(236.01595 0.484375)"/>
     <use xlink:href="#DejaVuSans-b1" transform="translate(339.287434 0.484375)"/>
     <use xlink:href="#STIXSizeOneSym-Regular-221a" transform="translate(423.076497 -11.78125) scale(0.91598)"/>
     <use xlink:href="#DejaVuSans-31" transform="translate(532.424122 45.014062) scale(0.7)"/>
     <use xlink:href="#DejaVuSans-2212" transform="translate(590.59795 45.014062) scale(0.7)"/>
     <use xlink:href="#DejaVuSans-63" transform="translate(662.88799 45.014062) scale(0.7)"/>
     <use xlink:href="#DejaVuSans-6f" transform="translate(701.374318 45.014062) scale(0.7)"/>
     <use xlink:href="#DejaVuSans-73" transform="translate(744.201466 45.014062) scale(0.7)"/>
     <use xlink:href="#DejaVuSans-Oblique-3b8" transform="translate(792.036166 45.014062) scale(0.7)"/>
     <use xlink:href="#DejaVuSans-32" transform="translate(661.424122 -39.184375) scale(0.7)"/>
     <path d="M 159.497395 19.28125 
L 159.497395 25.53125 
L 204.033528 25.53125 
L 204.033528 19.28125 
L 159.497395 19.28125 
z
"/>
     <path d="M 519.924122 124.5 
L 519.924122 130.75 
L 859.863314 130.75 
L 859.863314 124.5 
L 519.924122 124.5 
z
"/>
     <path d="M 532.424122 19.01875 
L 532.424122 25.26875 
L 834.863314 25.26875 
L 834.863314 19.01875 
L 532.424122 19.01875 
z
"/>
    </g>
   </g>
   <g id="text_20">
    <!-- $\cos\frac{\theta}{2}$ -->
    <g style="fill: #7c3aed" transform="translate(493.67976 465.989154) scale(0.12 -0.12)">
     <use xlink:href="#DejaVuSans-63" transform="translate(0 0.679688)"/>
     <use xlink:href="#DejaVuSans-6f" transform="translate(54.980469 0.679688)"/>
     <use xlink:href="#DejaVuSans-73" transform="translate(116.162109 0.679688)"/>
     <use xlink:href="#DejaVuSans-Oblique-3b8" transform="translate(185.497395 45.264063) scale(0.7)"/>
     <use xlink:href="#DejaVuSans-32" transform="translate(184.497395 -38.726562) scale(0.7)"/>
     <path d="M 184.497395 19.476562 
L 184.497395 25.726562 
L 229.033528 25.726562 
L 229.033528 19.476562 
L 184.497395 19.476562 
z
"/>
    </g>
   </g>
   <g id="text_21">
    <!-- $\cos\frac{\theta}{2} = \pm\sqrt{\frac{1+\cos\theta}{2}}$ -->
    <g style="fill: #1f2937" transform="translate(463.94976 513.841098) scale(0.1 -0.1)">
     <use xlink:href="#DejaVuSans-63" transform="translate(0 0.484375)"/>
     <use xlink:href="#DejaVuSans-6f" transform="translate(54.980469 0.484375)"/>
     <use xlink:href="#DejaVuSans-73" transform="translate(116.162109 0.484375)"/>
     <use xlink:href="#DejaVuSans-Oblique-3b8" transform="translate(185.497395 45.06875) scale(0.7)"/>
     <use xlink:href="#DejaVuSans-32" transform="translate(184.497395 -38.921875) scale(0.7)"/>
     <use xlink:href="#DejaVuSans-3d" transform="translate(261.01595 0.484375)"/>
     <use xlink:href="#DejaVuSans-b1" transform="translate(364.287434 0.484375)"/>
     <use xlink:href="#STIXSizeOneSym-Regular-221a" transform="translate(448.076497 -11.78125) scale(0.91598)"/>
     <use xlink:href="#DejaVuSans-31" transform="translate(557.424122 45.014062) scale(0.7)"/>
     <use xlink:href="#DejaVuSans-2b" transform="translate(615.59795 45.014062) scale(0.7)"/>
     <use xlink:href="#DejaVuSans-63" transform="translate(687.88799 45.014062) scale(0.7)"/>
     <use xlink:href="#DejaVuSans-6f" transform="translate(726.374318 45.014062) scale(0.7)"/>
     <use xlink:href="#DejaVuSans-73" transform="translate(769.201466 45.014062) scale(0.7)"/>
     <use xlink:href="#DejaVuSans-Oblique-3b8" transform="translate(817.036166 45.014062) scale(0.7)"/>
     <use xlink:href="#DejaVuSans-32" transform="translate(686.424122 -39.184375) scale(0.7)"/>
     <path d="M 184.497395 19.28125 
L 184.497395 25.53125 
L 229.033528 25.53125 
L 229.033528 19.28125 
L 184.497395 19.28125 
z
"/>
     <path d="M 544.924122 124.5 
L 544.924122 130.75 
L 884.863314 130.75 
L 884.863314 124.5 
L 544.924122 124.5 
z
"/>
     <path d="M 557.424122 19.01875 
L 557.424122 25.26875 
L 859.863314 25.26875 
L 859.863314 19.01875 
L 557.424122 19.01875 
z
"/>
    </g>
   </g>
   <g id="text_22">
    <!-- $\tan\frac{\theta}{2}$ -->
    <g style="fill: #f59e0b" transform="translate(814.559606 465.989154) scale(0.12 -0.12)">
     <use xlink:href="#DejaVuSans-74" transform="translate(0 0.679688)"/>
     <use xlink:href="#DejaVuSans-61" transform="translate(39.208984 0.679688)"/>
     <use xlink:href="#DejaVuSans-6e" transform="translate(100.488281 0.679688)"/>
     <use xlink:href="#DejaVuSans-Oblique-3b8" transform="translate(181.102864 45.264063) scale(0.7)"/>
     <use xlink:href="#DejaVuSans-32" transform="translate(180.102864 -38.726562) scale(0.7)"/>
     <path d="M 180.102864 19.476562 
L 180.102864 25.726562 
L 224.638997 25.726562 
L 224.638997 19.476562 
L 180.102864 19.476562 
z
"/>
    </g>
   </g>
   <g id="text_23">
    <!-- $\tan\frac{\theta}{2} = \pm\sqrt{\frac{1-\cos\theta}{1+\cos\theta}}$ -->
    <g style="fill: #1f2937" transform="translate(789.104606 504.270709) scale(0.09 -0.09)">
     <use xlink:href="#DejaVuSans-74" transform="translate(0 0.41875)"/>
     <use xlink:href="#DejaVuSans-61" transform="translate(39.208984 0.41875)"/>
     <use xlink:href="#DejaVuSans-6e" transform="translate(100.488281 0.41875)"/>
     <use xlink:href="#DejaVuSans-Oblique-3b8" transform="translate(181.102864 45.003125) scale(0.7)"/>
     <use xlink:href="#DejaVuSans-32" transform="translate(180.102864 -38.9875) scale(0.7)"/>
     <use xlink:href="#DejaVuSans-3d" transform="translate(256.621418 0.41875)"/>
     <use xlink:href="#DejaVuSans-b1" transform="translate(359.892903 0.41875)"/>
     <use xlink:href="#STIXSizeOneSym-Regular-221a" transform="translate(443.681965 -14.328125) scale(0.931021)"/>
     <use xlink:href="#DejaVuSans-31" transform="translate(554.615071 45.014062) scale(0.7)"/>
     <use xlink:href="#DejaVuSans-2212" transform="translate(612.788899 45.014062) scale(0.7)"/>
     <use xlink:href="#DejaVuSans-63" transform="translate(685.078938 45.014062) scale(0.7)"/>
     <use xlink:href="#DejaVuSans-6f" transform="translate(723.565266 45.014062) scale(0.7)"/>
     <use xlink:href="#DejaVuSans-73" transform="translate(766.392415 45.014062) scale(0.7)"/>
     <use xlink:href="#DejaVuSans-Oblique-3b8" transform="translate(814.227115 45.014062) scale(0.7)"/>
     <use xlink:href="#DejaVuSans-31" transform="translate(554.615071 -40.967187) scale(0.7)"/>
     <use xlink:href="#DejaVuSans-2b" transform="translate(612.788899 -40.967187) scale(0.7)"/>
     <use xlink:href="#DejaVuSans-63" transform="translate(685.078938 -40.967187) scale(0.7)"/>
     <use xlink:href="#DejaVuSans-6f" transform="translate(723.565266 -40.967187) scale(0.7)"/>
     <use xlink:href="#DejaVuSans-73" transform="translate(766.392415 -40.967187) scale(0.7)"/>
     <use xlink:href="#DejaVuSans-Oblique-3b8" transform="translate(814.227115 -40.967187) scale(0.7)"/>
     <path d="M 180.102864 19.215625 
L 180.102864 25.465625 
L 224.638997 25.465625 
L 224.638997 19.215625 
L 180.102864 19.215625 
z
"/>
     <path d="M 542.115071 123.5 
L 542.115071 129.75 
L 882.054263 129.75 
L 882.054263 123.5 
L 542.115071 123.5 
z
"/>
     <path d="M 554.615071 19.01875 
L 554.615071 25.26875 
L 857.054263 25.26875 
L 857.054263 19.01875 
L 554.615071 19.01875 
z
"/>
    </g>
   </g>
   <g id="text_24">
    <!-- $= \frac{\sin\theta}{1+\cos\theta} = \frac{1-\cos\theta}{\sin\theta}$ -->
    <g style="fill: #6b7280" transform="translate(789.419606 542.552264) scale(0.09 -0.09)">
     <use xlink:href="#DejaVuSans-3d" transform="translate(19.482422 0.471875)"/>
     <use xlink:href="#DejaVuSans-73" transform="translate(196.753906 45.264063) scale(0.7)"/>
     <use xlink:href="#DejaVuSans-69" transform="translate(233.223633 45.264063) scale(0.7)"/>
     <use xlink:href="#DejaVuSans-6e" transform="translate(252.671875 45.264063) scale(0.7)"/>
     <use xlink:href="#DejaVuSans-Oblique-3b8" transform="translate(308.402083 45.264063) scale(0.7)"/>
     <use xlink:href="#DejaVuSans-31" transform="translate(122.753906 -40.717187) scale(0.7)"/>
     <use xlink:href="#DejaVuSans-2b" transform="translate(180.927734 -40.717187) scale(0.7)"/>
     <use xlink:href="#DejaVuSans-63" transform="translate(253.217773 -40.717187) scale(0.7)"/>
     <use xlink:href="#DejaVuSans-6f" transform="translate(291.704102 -40.717187) scale(0.7)"/>
     <use xlink:href="#DejaVuSans-73" transform="translate(334.53125 -40.717187) scale(0.7)"/>
     <use xlink:href="#DejaVuSans-Oblique-3b8" transform="translate(382.36595 -40.717187) scale(0.7)"/>
     <use xlink:href="#DejaVuSans-3d" transform="translate(457.17552 0.471875)"/>
     <use xlink:href="#DejaVuSans-31" transform="translate(560.447005 45.264063) scale(0.7)"/>
     <use xlink:href="#DejaVuSans-2212" transform="translate(618.620833 45.264063) scale(0.7)"/>
     <use xlink:href="#DejaVuSans-63" transform="translate(690.910872 45.264063) scale(0.7)"/>
     <use xlink:href="#DejaVuSans-6f" transform="translate(729.3972 45.264063) scale(0.7)"/>
     <use xlink:href="#DejaVuSans-73" transform="translate(772.224348 45.264063) scale(0.7)"/>
     <use xlink:href="#DejaVuSans-Oblique-3b8" transform="translate(820.059048 45.264063) scale(0.7)"/>
     <use xlink:href="#DejaVuSans-73" transform="translate(634.447005 -40.717187) scale(0.7)"/>
     <use xlink:href="#DejaVuSans-69" transform="translate(670.916731 -40.717187) scale(0.7)"/>
     <use xlink:href="#DejaVuSans-6e" transform="translate(690.364973 -40.717187) scale(0.7)"/>
     <use xlink:href="#DejaVuSans-Oblique-3b8" transform="translate(746.095181 -40.717187) scale(0.7)"/>
     <path d="M 122.753906 19.26875 
L 122.753906 25.51875 
L 425.193098 25.51875 
L 425.193098 19.26875 
L 122.753906 19.26875 
z
"/>
     <path d="M 560.447005 19.26875 
L 560.447005 25.51875 
L 862.886197 25.51875 
L 862.886197 19.26875 
L 560.447005 19.26875 
z
"/>
    </g>
   </g>
   <g id="text_25">
    <!-- ⚠️ El signo (±) depende del cuadrante donde se encuentra θ/2 -->
    <g style="fill: #be185d" transform="translate(334.039604 603.164726) scale(0.1 -0.1)">
     <defs>
      <path id="DejaVuSans-Bold-26a0" d="M 2897 4663 
L 2919 4663 
L 5425 28 
L 5425 0 
L 366 0 
L 341 28 
L 313 28 
Q 2797 4559 2897 4663 
z
M 2869 4075 
L 794 322 
L 794 269 
L 4972 269 
L 4972 297 
Q 2959 3988 2869 4075 
z
M 2897 3381 
Q 3138 3381 3138 3169 
Q 2975 1253 2897 1253 
Q 2825 1253 2656 3197 
Q 2734 3381 2897 3381 
z
M 2894 1022 
Q 2953 1022 3011 990 
Q 3069 959 3101 903 
Q 3134 847 3134 781 
Q 3134 719 3103 662 
Q 3072 606 3012 575 
Q 2953 544 2894 544 
Q 2831 544 2775 575 
Q 2719 606 2686 662 
Q 2653 719 2653 781 
Q 2653 847 2686 903 
Q 2719 959 2775 990 
Q 2831 1022 2894 1022 
z
" transform="scale(0.015625)"/>
      <path id="DejaVuSans-Bold-fe0f" transform="scale(0.015625)"/>
      <path id="DejaVuSans-Bold-b1" d="M 3053 4013 
L 3053 2906 
L 4684 2906 
L 4684 2169 
L 3053 2169 
L 3053 1063 
L 2309 1063 
L 2309 2169 
L 678 2169 
L 678 2906 
L 2309 2906 
L 2309 4013 
L 3053 4013 
z
M 678 744 
L 4684 744 
L 4684 0 
L 678 0 
L 678 744 
z
" transform="scale(0.015625)"/>
      <path id="DejaVuSans-Bold-75" d="M 500 1363 
L 500 3500 
L 1625 3500 
L 1625 3150 
Q 1625 2866 1622 2436 
Q 1619 2006 1619 1863 
Q 1619 1441 1641 1255 
Q 1663 1069 1716 984 
Q 1784 875 1895 815 
Q 2006 756 2150 756 
Q 2500 756 2700 1025 
Q 2900 1294 2900 1772 
L 2900 3500 
L 4019 3500 
L 4019 0 
L 2900 0 
L 2900 506 
Q 2647 200 2364 54 
Q 2081 -91 1741 -91 
Q 1134 -91 817 281 
Q 500 653 500 1363 
z
" transform="scale(0.015625)"/>
      <path id="DejaVuSans-Bold-2f" d="M 1644 4666 
L 2338 4666 
L 691 -594 
L 0 -594 
L 1644 4666 
z
" transform="scale(0.015625)"/>
     </defs>
     <use xlink:href="#DejaVuSans-Bold-26a0"/>
     <use xlink:href="#DejaVuSans-Bold-fe0f" transform="translate(89.648438 0)"/>
     <use xlink:href="#DejaVuSans-Bold-20" transform="translate(89.648438 0)"/>
     <use xlink:href="#DejaVuSans-Bold-45" transform="translate(124.462891 0)"/>
     <use xlink:href="#DejaVuSans-Bold-6c" transform="translate(192.773438 0)"/>
     <use xlink:href="#DejaVuSans-Bold-20" transform="translate(227.050781 0)"/>
     <use xlink:href="#DejaVuSans-Bold-73" transform="translate(261.865234 0)"/>
     <use xlink:href="#DejaVuSans-Bold-69" transform="translate(321.386719 0)"/>
     <use xlink:href="#DejaVuSans-Bold-67" transform="translate(355.664062 0)"/>
     <use xlink:href="#DejaVuSans-Bold-6e" transform="translate(427.246094 0)"/>
     <use xlink:href="#DejaVuSans-Bold-6f" transform="translate(498.4375 0)"/>
     <use xlink:href="#DejaVuSans-Bold-20" transform="translate(567.138672 0)"/>
     <use xlink:href="#DejaVuSans-Bold-28" transform="translate(601.953125 0)"/>
     <use xlink:href="#DejaVuSans-Bold-b1" transform="translate(647.65625 0)"/>
     <use xlink:href="#DejaVuSans-Bold-29" transform="translate(731.445312 0)"/>
     <use xlink:href="#DejaVuSans-Bold-20" transform="translate(777.148438 0)"/>
     <use xlink:href="#DejaVuSans-Bold-64" transform="translate(811.962891 0)"/>
     <use xlink:href="#DejaVuSans-Bold-65" transform="translate(883.544922 0)"/>
     <use xlink:href="#DejaVuSans-Bold-70" transform="translate(951.367188 0)"/>
     <use xlink:href="#DejaVuSans-Bold-65" transform="translate(1022.949219 0)"/>
     <use xlink:href="#DejaVuSans-Bold-6e" transform="translate(1090.771484 0)"/>
     <use xlink:href="#DejaVuSans-Bold-64" transform="translate(1161.962891 0)"/>
     <use xlink:href="#DejaVuSans-Bold-65" transform="translate(1233.544922 0)"/>
     <use xlink:href="#DejaVuSans-Bold-20" transform="translate(1301.367188 0)"/>
     <use xlink:href="#DejaVuSans-Bold-64" transform="translate(1336.181641 0)"/>
     <use xlink:href="#DejaVuSans-Bold-65" transform="translate(1407.763672 0)"/>
     <use xlink:href="#DejaVuSans-Bold-6c" transform="translate(1475.585938 0)"/>
     <use xlink:href="#DejaVuSans-Bold-20" transform="translate(1509.863281 0)"/>
     <use xlink:href="#DejaVuSans-Bold-63" transform="translate(1544.677734 0)"/>
     <use xlink:href="#DejaVuSans-Bold-75" transform="translate(1603.955078 0)"/>
     <use xlink:href="#DejaVuSans-Bold-61" transform="translate(1675.146484 0)"/>
     <use xlink:href="#DejaVuSans-Bold-64" transform="translate(1742.626953 0)"/>
     <use xlink:href="#DejaVuSans-Bold-72" transform="translate(1814.208984 0)"/>
     <use xlink:href="#DejaVuSans-Bold-61" transform="translate(1863.525391 0)"/>
     <use xlink:href="#DejaVuSans-Bold-6e" transform="translate(1931.005859 0)"/>
     <use xlink:href="#DejaVuSans-Bold-74" transform="translate(2002.197266 0)"/>
     <use xlink:href="#DejaVuSans-Bold-65" transform="translate(2050 0)"/>
     <use xlink:href="#DejaVuSans-Bold-20" transform="translate(2117.822266 0)"/>
     <use xlink:href="#DejaVuSans-Bold-64" transform="translate(2152.636719 0)"/>
     <use xlink:href="#DejaVuSans-Bold-6f" transform="translate(2224.21875 0)"/>
     <use xlink:href="#DejaVuSans-Bold-6e" transform="translate(2292.919922 0)"/>
     <use xlink:href="#DejaVuSans-Bold-64" transform="translate(2364.111328 0)"/>
     <use xlink:href="#DejaVuSans-Bold-65" transform="translate(2435.693359 0)"/>
     <use xlink:href="#DejaVuSans-Bold-20" transform="translate(2503.515625 0)"/>
     <use xlink:href="#DejaVuSans-Bold-73" transform="translate(2538.330078 0)"/>
     <use xlink:href="#DejaVuSans-Bold-65" transform="translate(2597.851562 0)"/>
     <use xlink:href="#DejaVuSans-Bold-20" transform="translate(2665.673828 0)"/>
     <use xlink:href="#DejaVuSans-Bold-65" transform="translate(2700.488281 0)"/>
     <use xlink:href="#DejaVuSans-Bold-6e" transform="translate(2768.310547 0)"/>
     <use xlink:href="#DejaVuSans-Bold-63" transform="translate(2839.501953 0)"/>
     <use xlink:href="#DejaVuSans-Bold-75" transform="translate(2898.779297 0)"/>
     <use xlink:href="#DejaVuSans-Bold-65" transform="translate(2969.970703 0)"/>
     <use xlink:href="#DejaVuSans-Bold-6e" transform="translate(3037.792969 0)"/>
     <use xlink:href="#DejaVuSans-Bold-74" transform="translate(3108.984375 0)"/>
     <use xlink:href="#DejaVuSans-Bold-72" transform="translate(3156.787109 0)"/>
     <use xlink:href="#DejaVuSans-Bold-61" transform="translate(3206.103516 0)"/>
     <use xlink:href="#DejaVuSans-Bold-20" transform="translate(3273.583984 0)"/>
     <use xlink:href="#DejaVuSans-Bold-3b8" transform="translate(3308.398438 0)"/>
     <use xlink:href="#DejaVuSans-Bold-2f" transform="translate(3377.099609 0)"/>
     <use xlink:href="#DejaVuSans-Bold-32" transform="translate(3413.623047 0)"/>
    </g>
   </g>
   <g id="text_26">
    <!-- Cuadrante I: sin, cos, tan son positivos -->
    <g style="fill: #374151" transform="translate(420.992572 635.066021) scale(0.09 -0.09)">
     <defs>
      <path id="DejaVuSans-43" d="M 4122 4306 
L 4122 3641 
Q 3803 3938 3442 4084 
Q 3081 4231 2675 4231 
Q 1875 4231 1450 3742 
Q 1025 3253 1025 2328 
Q 1025 1406 1450 917 
Q 1875 428 2675 428 
Q 3081 428 3442 575 
Q 3803 722 4122 1019 
L 4122 359 
Q 3791 134 3420 21 
Q 3050 -91 2638 -91 
Q 1578 -91 968 557 
Q 359 1206 359 2328 
Q 359 3453 968 4101 
Q 1578 4750 2638 4750 
Q 3056 4750 3426 4639 
Q 3797 4528 4122 4306 
z
" transform="scale(0.015625)"/>
      <path id="DejaVuSans-72" d="M 2631 2963 
Q 2534 3019 2420 3045 
Q 2306 3072 2169 3072 
Q 1681 3072 1420 2755 
Q 1159 2438 1159 1844 
L 1159 0 
L 581 0 
L 581 3500 
L 1159 3500 
L 1159 2956 
Q 1341 3275 1631 3429 
Q 1922 3584 2338 3584 
Q 2397 3584 2469 3576 
Q 2541 3569 2628 3553 
L 2631 2963 
z
" transform="scale(0.015625)"/>
      <path id="DejaVuSans-49" d="M 628 4666 
L 1259 4666 
L 1259 0 
L 628 0 
L 628 4666 
z
" transform="scale(0.015625)"/>
      <path id="DejaVuSans-3a" d="M 750 794 
L 1409 794 
L 1409 0 
L 750 0 
L 750 794 
z
M 750 3309 
L 1409 3309 
L 1409 2516 
L 750 2516 
L 750 3309 
z
" transform="scale(0.015625)"/>
      <path id="DejaVuSans-2c" d="M 750 794 
L 1409 794 
L 1409 256 
L 897 -744 
L 494 -744 
L 750 256 
L 750 794 
z
" transform="scale(0.015625)"/>
      <path id="DejaVuSans-70" d="M 1159 525 
L 1159 -1331 
L 581 -1331 
L 581 3500 
L 1159 3500 
L 1159 2969 
Q 1341 3281 1617 3432 
Q 1894 3584 2278 3584 
Q 2916 3584 3314 3078 
Q 3713 2572 3713 1747 
Q 3713 922 3314 415 
Q 2916 -91 2278 -91 
Q 1894 -91 1617 61 
Q 1341 213 1159 525 
z
M 3116 1747 
Q 3116 2381 2855 2742 
Q 2594 3103 2138 3103 
Q 1681 3103 1420 2742 
Q 1159 2381 1159 1747 
Q 1159 1113 1420 752 
Q 1681 391 2138 391 
Q 2594 391 2855 752 
Q 3116 1113 3116 1747 
z
" transform="scale(0.015625)"/>
      <path id="DejaVuSans-76" d="M 191 3500 
L 800 3500 
L 1894 563 
L 2988 3500 
L 3597 3500 
L 2284 0 
L 1503 0 
L 191 3500 
z
" transform="scale(0.015625)"/>
     </defs>
     <use xlink:href="#DejaVuSans-43"/>
     <use xlink:href="#DejaVuSans-75" transform="translate(69.824219 0)"/>
     <use xlink:href="#DejaVuSans-61" transform="translate(133.203125 0)"/>
     <use xlink:href="#DejaVuSans-64" transform="translate(194.482422 0)"/>
     <use xlink:href="#DejaVuSans-72" transform="translate(257.958984 0)"/>
     <use xlink:href="#DejaVuSans-61" transform="translate(299.072266 0)"/>
     <use xlink:href="#DejaVuSans-6e" transform="translate(360.351562 0)"/>
     <use xlink:href="#DejaVuSans-74" transform="translate(423.730469 0)"/>
     <use xlink:href="#DejaVuSans-65" transform="translate(462.939453 0)"/>
     <use xlink:href="#DejaVuSans-20" transform="translate(524.462891 0)"/>
     <use xlink:href="#DejaVuSans-49" transform="translate(556.25 0)"/>
     <use xlink:href="#DejaVuSans-3a" transform="translate(585.742188 0)"/>
     <use xlink:href="#DejaVuSans-20" transform="translate(619.433594 0)"/>
     <use xlink:href="#DejaVuSans-73" transform="translate(651.220703 0)"/>
     <use xlink:href="#DejaVuSans-69" transform="translate(703.320312 0)"/>
     <use xlink:href="#DejaVuSans-6e" transform="translate(731.103516 0)"/>
     <use xlink:href="#DejaVuSans-2c" transform="translate(794.482422 0)"/>
     <use xlink:href="#DejaVuSans-20" transform="translate(826.269531 0)"/>
     <use xlink:href="#DejaVuSans-63" transform="translate(858.056641 0)"/>
     <use xlink:href="#DejaVuSans-6f" transform="translate(913.037109 0)"/>
     <use xlink:href="#DejaVuSans-73" transform="translate(974.21875 0)"/>
     <use xlink:href="#DejaVuSans-2c" transform="translate(1026.318359 0)"/>
     <use xlink:href="#DejaVuSans-20" transform="translate(1058.105469 0)"/>
     <use xlink:href="#DejaVuSans-74" transform="translate(1089.892578 0)"/>
     <use xlink:href="#DejaVuSans-61" transform="translate(1129.101562 0)"/>
     <use xlink:href="#DejaVuSans-6e" transform="translate(1190.380859 0)"/>
     <use xlink:href="#DejaVuSans-20" transform="translate(1253.759766 0)"/>
     <use xlink:href="#DejaVuSans-73" transform="translate(1285.546875 0)"/>
     <use xlink:href="#DejaVuSans-6f" transform="translate(1337.646484 0)"/>
     <use xlink:href="#DejaVuSans-6e" transform="translate(1398.828125 0)"/>
     <use xlink:href="#DejaVuSans-20" transform="translate(1462.207031 0)"/>
     <use xlink:href="#DejaVuSans-70" transform="translate(1493.994141 0)"/>
     <use xlink:href="#DejaVuSans-6f" transform="translate(1557.470703 0)"/>
     <use xlink:href="#DejaVuSans-73" transform="translate(1618.652344 0)"/>
     <use xlink:href="#DejaVuSans-69" transform="translate(1670.751953 0)"/>
     <use xlink:href="#DejaVuSans-74" transform="translate(1698.535156 0)"/>
     <use xlink:href="#DejaVuSans-69" transform="translate(1737.744141 0)"/>
     <use xlink:href="#DejaVuSans-76" transform="translate(1765.527344 0)"/>
     <use xlink:href="#DejaVuSans-6f" transform="translate(1824.707031 0)"/>
     <use xlink:href="#DejaVuSans-73" transform="translate(1885.888672 0)"/>
    </g>
   </g>
   <g id="text_27">
    <!-- Cuadrante II: solo sin es positivo -->
    <g style="fill: #374151" transform="translate(434.980541 657.396928) scale(0.09 -0.09)">
     <use xlink:href="#DejaVuSans-43"/>
     <use xlink:href="#DejaVuSans-75" transform="translate(69.824219 0)"/>
     <use xlink:href="#DejaVuSans-61" transform="translate(133.203125 0)"/>
     <use xlink:href="#DejaVuSans-64" transform="translate(194.482422 0)"/>
     <use xlink:href="#DejaVuSans-72" transform="translate(257.958984 0)"/>
     <use xlink:href="#DejaVuSans-61" transform="translate(299.072266 0)"/>
     <use xlink:href="#DejaVuSans-6e" transform="translate(360.351562 0)"/>
     <use xlink:href="#DejaVuSans-74" transform="translate(423.730469 0)"/>
     <use xlink:href="#DejaVuSans-65" transform="translate(462.939453 0)"/>
     <use xlink:href="#DejaVuSans-20" transform="translate(524.462891 0)"/>
     <use xlink:href="#DejaVuSans-49" transform="translate(556.25 0)"/>
     <use xlink:href="#DejaVuSans-49" transform="translate(585.742188 0)"/>
     <use xlink:href="#DejaVuSans-3a" transform="translate(615.234375 0)"/>
     <use xlink:href="#DejaVuSans-20" transform="translate(648.925781 0)"/>
     <use xlink:href="#DejaVuSans-73" transform="translate(680.712891 0)"/>
     <use xlink:href="#DejaVuSans-6f" transform="translate(732.8125 0)"/>
     <use xlink:href="#DejaVuSans-6c" transform="translate(793.994141 0)"/>
     <use xlink:href="#DejaVuSans-6f" transform="translate(821.777344 0)"/>
     <use xlink:href="#DejaVuSans-20" transform="translate(882.958984 0)"/>
     <use xlink:href="#DejaVuSans-73" transform="translate(914.746094 0)"/>
     <use xlink:href="#DejaVuSans-69" transform="translate(966.845703 0)"/>
     <use xlink:href="#DejaVuSans-6e" transform="translate(994.628906 0)"/>
     <use xlink:href="#DejaVuSans-20" transform="translate(1058.007812 0)"/>
     <use xlink:href="#DejaVuSans-65" transform="translate(1089.794922 0)"/>
     <use xlink:href="#DejaVuSans-73" transform="translate(1151.318359 0)"/>
     <use xlink:href="#DejaVuSans-20" transform="translate(1203.417969 0)"/>
     <use xlink:href="#DejaVuSans-70" transform="translate(1235.205078 0)"/>
     <use xlink:href="#DejaVuSans-6f" transform="translate(1298.681641 0)"/>
     <use xlink:href="#DejaVuSans-73" transform="translate(1359.863281 0)"/>
     <use xlink:href="#DejaVuSans-69" transform="translate(1411.962891 0)"/>
     <use xlink:href="#DejaVuSans-74" transform="translate(1439.746094 0)"/>
     <use xlink:href="#DejaVuSans-69" transform="translate(1478.955078 0)"/>
     <use xlink:href="#DejaVuSans-76" transform="translate(1506.738281 0)"/>
     <use xlink:href="#DejaVuSans-6f" transform="translate(1565.917969 0)"/>
    </g>
   </g>
   <g id="text_28">
    <!-- Cuadrante III: solo tan es positivo  •  Cuadrante IV: solo cos es positivo -->
    <g style="fill: #374151" transform="translate(348.620619 679.727836) scale(0.09 -0.09)">
     <defs>
      <path id="DejaVuSans-2022" d="M 959 2381 
Q 959 2769 1229 3036 
Q 1500 3303 1894 3303 
Q 2281 3303 2548 3036 
Q 2816 2769 2816 2381 
Q 2816 1991 2547 1722 
Q 2278 1453 1888 1453 
Q 1497 1453 1228 1722 
Q 959 1991 959 2381 
z
" transform="scale(0.015625)"/>
      <path id="DejaVuSans-56" d="M 1831 0 
L 50 4666 
L 709 4666 
L 2188 738 
L 3669 4666 
L 4325 4666 
L 2547 0 
L 1831 0 
z
" transform="scale(0.015625)"/>
     </defs>
     <use xlink:href="#DejaVuSans-43"/>
     <use xlink:href="#DejaVuSans-75" transform="translate(69.824219 0)"/>
     <use xlink:href="#DejaVuSans-61" transform="translate(133.203125 0)"/>
     <use xlink:href="#DejaVuSans-64" transform="translate(194.482422 0)"/>
     <use xlink:href="#DejaVuSans-72" transform="translate(257.958984 0)"/>
     <use xlink:href="#DejaVuSans-61" transform="translate(299.072266 0)"/>
     <use xlink:href="#DejaVuSans-6e" transform="translate(360.351562 0)"/>
     <use xlink:href="#DejaVuSans-74" transform="translate(423.730469 0)"/>
     <use xlink:href="#DejaVuSans-65" transform="translate(462.939453 0)"/>
     <use xlink:href="#DejaVuSans-20" transform="translate(524.462891 0)"/>
     <use xlink:href="#DejaVuSans-49" transform="translate(556.25 0)"/>
     <use xlink:href="#DejaVuSans-49" transform="translate(585.742188 0)"/>
     <use xlink:href="#DejaVuSans-49" transform="translate(615.234375 0)"/>
     <use xlink:href="#DejaVuSans-3a" transform="translate(644.726562 0)"/>
     <use xlink:href="#DejaVuSans-20" transform="translate(678.417969 0)"/>
     <use xlink:href="#DejaVuSans-73" transform="translate(710.205078 0)"/>
     <use xlink:href="#DejaVuSans-6f" transform="translate(762.304688 0)"/>
     <use xlink:href="#DejaVuSans-6c" transform="translate(823.486328 0)"/>
     <use xlink:href="#DejaVuSans-6f" transform="translate(851.269531 0)"/>
     <use xlink:href="#DejaVuSans-20" transform="translate(912.451172 0)"/>
     <use xlink:href="#DejaVuSans-74" transform="translate(944.238281 0)"/>
     <use xlink:href="#DejaVuSans-61" transform="translate(983.447266 0)"/>
     <use xlink:href="#DejaVuSans-6e" transform="translate(1044.726562 0)"/>
     <use xlink:href="#DejaVuSans-20" transform="translate(1108.105469 0)"/>
     <use xlink:href="#DejaVuSans-65" transform="translate(1139.892578 0)"/>
     <use xlink:href="#DejaVuSans-73" transform="translate(1201.416016 0)"/>
     <use xlink:href="#DejaVuSans-20" transform="translate(1253.515625 0)"/>
     <use xlink:href="#DejaVuSans-70" transform="translate(1285.302734 0)"/>
     <use xlink:href="#DejaVuSans-6f" transform="translate(1348.779297 0)"/>
     <use xlink:href="#DejaVuSans-73" transform="translate(1409.960938 0)"/>
     <use xlink:href="#DejaVuSans-69" transform="translate(1462.060547 0)"/>
     <use xlink:href="#DejaVuSans-74" transform="translate(1489.84375 0)"/>
     <use xlink:href="#DejaVuSans-69" transform="translate(1529.052734 0)"/>
     <use xlink:href="#DejaVuSans-76" transform="translate(1556.835938 0)"/>
     <use xlink:href="#DejaVuSans-6f" transform="translate(1616.015625 0)"/>
     <use xlink:href="#DejaVuSans-20" transform="translate(1677.197266 0)"/>
     <use xlink:href="#DejaVuSans-20" transform="translate(1708.984375 0)"/>
     <use xlink:href="#DejaVuSans-2022" transform="translate(1740.771484 0)"/>
     <use xlink:href="#DejaVuSans-20" transform="translate(1799.755859 0)"/>
     <use xlink:href="#DejaVuSans-20" transform="translate(1831.542969 0)"/>
     <use xlink:href="#DejaVuSans-43" transform="translate(1863.330078 0)"/>
     <use xlink:href="#DejaVuSans-75" transform="translate(1933.154297 0)"/>
     <use xlink:href="#DejaVuSans-61" transform="translate(1996.533203 0)"/>
     <use xlink:href="#DejaVuSans-64" transform="translate(2057.8125 0)"/>
     <use xlink:href="#DejaVuSans-72" transform="translate(2121.289062 0)"/>
     <use xlink:href="#DejaVuSans-61" transform="translate(2162.402344 0)"/>
     <use xlink:href="#DejaVuSans-6e" transform="translate(2223.681641 0)"/>
     <use xlink:href="#DejaVuSans-74" transform="translate(2287.060547 0)"/>
     <use xlink:href="#DejaVuSans-65" transform="translate(2326.269531 0)"/>
     <use xlink:href="#DejaVuSans-20" transform="translate(2387.792969 0)"/>
     <use xlink:href="#DejaVuSans-49" transform="translate(2419.580078 0)"/>
     <use xlink:href="#DejaVuSans-56" transform="translate(2449.072266 0)"/>
     <use xlink:href="#DejaVuSans-3a" transform="translate(2509.355469 0)"/>
     <use xlink:href="#DejaVuSans-20" transform="translate(2543.046875 0)"/>
     <use xlink:href="#DejaVuSans-73" transform="translate(2574.833984 0)"/>
     <use xlink:href="#DejaVuSans-6f" transform="translate(2626.933594 0)"/>
     <use xlink:href="#DejaVuSans-6c" transform="translate(2688.115234 0)"/>
     <use xlink:href="#DejaVuSans-6f" transform="translate(2715.898438 0)"/>
     <use xlink:href="#DejaVuSans-20" transform="translate(2777.080078 0)"/>
     <use xlink:href="#DejaVuSans-63" transform="translate(2808.867188 0)"/>
     <use xlink:href="#DejaVuSans-6f" transform="translate(2863.847656 0)"/>
     <use xlink:href="#DejaVuSans-73" transform="translate(2925.029297 0)"/>
     <use xlink:href="#DejaVuSans-20" transform="translate(2977.128906 0)"/>
     <use xlink:href="#DejaVuSans-65" transform="translate(3008.916016 0)"/>
     <use xlink:href="#DejaVuSans-73" transform="translate(3070.439453 0)"/>
     <use xlink:href="#DejaVuSans-20" transform="translate(3122.539062 0)"/>
     <use xlink:href="#DejaVuSans-70" transform="translate(3154.326172 0)"/>
     <use xlink:href="#DejaVuSans-6f" transform="translate(3217.802734 0)"/>
     <use xlink:href="#DejaVuSans-73" transform="translate(3278.984375 0)"/>
     <use xlink:href="#DejaVuSans-69" transform="translate(3331.083984 0)"/>
     <use xlink:href="#DejaVuSans-74" transform="translate(3358.867188 0)"/>
     <use xlink:href="#DejaVuSans-69" transform="translate(3398.076172 0)"/>
     <use xlink:href="#DejaVuSans-76" transform="translate(3425.859375 0)"/>
     <use xlink:href="#DejaVuSans-6f" transform="translate(3485.039062 0)"/>
    </g>
   </g>
  </g>
  <g id="text_29">
   <!-- Identidades de Ángulo Doble y Medio Ángulo -->
   <g style="fill: #1f2937" transform="translate(330.588979 20.152187) scale(0.14 -0.14)">
    <defs>
     <path id="DejaVuSans-Bold-62" d="M 2400 722 
Q 2759 722 2948 984 
Q 3138 1247 3138 1747 
Q 3138 2247 2948 2509 
Q 2759 2772 2400 2772 
Q 2041 2772 1848 2508 
Q 1656 2244 1656 1747 
Q 1656 1250 1848 986 
Q 2041 722 2400 722 
z
M 1656 2988 
Q 1888 3294 2169 3439 
Q 2450 3584 2816 3584 
Q 3463 3584 3878 3070 
Q 4294 2556 4294 1747 
Q 4294 938 3878 423 
Q 3463 -91 2816 -91 
Q 2450 -91 2169 54 
Q 1888 200 1656 506 
L 1656 0 
L 538 0 
L 538 4863 
L 1656 4863 
L 1656 2988 
z
" transform="scale(0.015625)"/>
     <path id="DejaVuSans-Bold-79" d="M 78 3500 
L 1197 3500 
L 2138 1125 
L 2938 3500 
L 4056 3500 
L 2584 -331 
Q 2363 -916 2067 -1148 
Q 1772 -1381 1288 -1381 
L 641 -1381 
L 641 -647 
L 991 -647 
Q 1275 -647 1404 -556 
Q 1534 -466 1606 -231 
L 1638 -134 
L 78 3500 
z
" transform="scale(0.015625)"/>
    </defs>
    <use xlink:href="#DejaVuSans-Bold-49"/>
    <use xlink:href="#DejaVuSans-Bold-64" transform="translate(37.207031 0)"/>
    <use xlink:href="#DejaVuSans-Bold-65" transform="translate(108.789062 0)"/>
    <use xlink:href="#DejaVuSans-Bold-6e" transform="translate(176.611328 0)"/>
    <use xlink:href="#DejaVuSans-Bold-74" transform="translate(247.802734 0)"/>
    <use xlink:href="#DejaVuSans-Bold-69" transform="translate(295.605469 0)"/>
    <use xlink:href="#DejaVuSans-Bold-64" transform="translate(329.882812 0)"/>
    <use xlink:href="#DejaVuSans-Bold-61" transform="translate(401.464844 0)"/>
    <use xlink:href="#DejaVuSans-Bold-64" transform="translate(468.945312 0)"/>
    <use xlink:href="#DejaVuSans-Bold-65" transform="translate(540.527344 0)"/>
    <use xlink:href="#DejaVuSans-Bold-73" transform="translate(608.349609 0)"/>
    <use xlink:href="#DejaVuSans-Bold-20" transform="translate(667.871094 0)"/>
    <use xlink:href="#DejaVuSans-Bold-64" transform="translate(702.685547 0)"/>
    <use xlink:href="#DejaVuSans-Bold-65" transform="translate(774.267578 0)"/>
    <use xlink:href="#DejaVuSans-Bold-20" transform="translate(842.089844 0)"/>
    <use xlink:href="#DejaVuSans-Bold-c1" transform="translate(876.904297 0)"/>
    <use xlink:href="#DejaVuSans-Bold-6e" transform="translate(954.296875 0)"/>
    <use xlink:href="#DejaVuSans-Bold-67" transform="translate(1025.488281 0)"/>
    <use xlink:href="#DejaVuSans-Bold-75" transform="translate(1097.070312 0)"/>
    <use xlink:href="#DejaVuSans-Bold-6c" transform="translate(1168.261719 0)"/>
    <use xlink:href="#DejaVuSans-Bold-6f" transform="translate(1202.539062 0)"/>
    <use xlink:href="#DejaVuSans-Bold-20" transform="translate(1271.240234 0)"/>
    <use xlink:href="#DejaVuSans-Bold-44" transform="translate(1306.054688 0)"/>
    <use xlink:href="#DejaVuSans-Bold-6f" transform="translate(1389.0625 0)"/>
    <use xlink:href="#DejaVuSans-Bold-62" transform="translate(1457.763672 0)"/>
    <use xlink:href="#DejaVuSans-Bold-6c" transform="translate(1529.345703 0)"/>
    <use xlink:href="#DejaVuSans-Bold-65" transform="translate(1563.623047 0)"/>
    <use xlink:href="#DejaVuSans-Bold-20" transform="translate(1631.445312 0)"/>
    <use xlink:href="#DejaVuSans-Bold-79" transform="translate(1666.259766 0)"/>
    <use xlink:href="#DejaVuSans-Bold-20" transform="translate(1731.445312 0)"/>
    <use xlink:href="#DejaVuSans-Bold-4d" transform="translate(1766.259766 0)"/>
    <use xlink:href="#DejaVuSans-Bold-65" transform="translate(1865.771484 0)"/>
    <use xlink:href="#DejaVuSans-Bold-64" transform="translate(1933.59375 0)"/>
    <use xlink:href="#DejaVuSans-Bold-69" transform="translate(2005.175781 0)"/>
    <use xlink:href="#DejaVuSans-Bold-6f" transform="translate(2039.453125 0)"/>
    <use xlink:href="#DejaVuSans-Bold-20" transform="translate(2108.154297 0)"/>
    <use xlink:href="#DejaVuSans-Bold-c1" transform="translate(2142.96875 0)"/>
    <use xlink:href="#DejaVuSans-Bold-6e" transform="translate(2220.361328 0)"/>
    <use xlink:href="#DejaVuSans-Bold-67" transform="translate(2291.552734 0)"/>
    <use xlink:href="#DejaVuSans-Bold-75" transform="translate(2363.134766 0)"/>
    <use xlink:href="#DejaVuSans-Bold-6c" transform="translate(2434.326172 0)"/>
    <use xlink:href="#DejaVuSans-Bold-6f" transform="translate(2468.603516 0)"/>
   </g>
  </g>
 </g>
 <defs>
  <clipPath id="p57151f6ef9">
   <rect x="7.2" y="29.173605" width="1001.99952" height="319.012957"/>
  </clipPath>
  <clipPath id="p3a75f2496c">
   <rect x="7.2" y="402.186562" width="1001.99952" height="319.012958"/>
  </clipPath>
 </defs>
</svg>
