<?xml version="1.0" encoding="utf-8" standalone="no"?>
<!DOCTYPE svg PUBLIC "-//W3C//DTD SVG 1.1//EN"
  "http://www.w3.org/Graphics/SVG/1.1/DTD/svg11.dtd">
<svg xmlns:xlink="http://www.w3.org/1999/xlink" width="1016.39952pt" height="728.39952pt" viewBox="0 0 1016.39952 728.39952" xmlns="http://www.w3.org/2000/svg" version="1.1">
 <metadata>
  <rdf:RDF xmlns:dc="http://purl.org/dc/elements/1.1/" xmlns:cc="http://creativecommons.org/ns#" xmlns:rdf="http://www.w3.org/1999/02/22-rdf-syntax-ns#">
   <cc:Work>
    <dc:type rdf:resource="http://purl.org/dc/dcmitype/StillImage"/>
    <dc:date>2026-01-04T20:52:43.683413</dc:date>
    <dc:format>image/svg+xml</dc:format>
    <dc:creator>
     <cc:Agent>
      <dc:title>Repositorio Matemáticas Universitarias</dc:title>
     </cc:Agent>
    </dc:creator>
   </cc:Work>
  </rdf:RDF>
 </metadata>
 <defs>
  <style type="text/css">*{stroke-linejoin: round; stroke-linecap: butt}</style>
 </defs>
 <g id="figure_1">
  <g id="patch_1">
   <path d="M 0 728.39952 
L 1016.39952 728.39952 
L 1016.39952 0 
L 0 0 
z
" style="fill: #ffffff"/>
  </g>
  <g id="axes_1">
   <g id="patch_2">
    <path d="M 365.466557 296.150067 
L 358.58897 299.58886 
L 358.58897 296.264693 
L 94.948145 296.264693 
L 94.948145 296.035441 
L 358.58897 296.035441 
L 358.58897 292.711274 
z
" clip-path="url(#p478e1d3bf9)" style="fill: #9ca3af; stroke: #9ca3af; stroke-linejoin: miter"/>
   </g>
   <g id="patch_3">
    <path d="M 94.948145 71.482233 
L 98.386938 78.35982 
L 95.062772 78.35982 
L 95.062772 296.150067 
L 94.833519 296.150067 
L 94.833519 78.35982 
L 91.509352 78.35982 
z
" clip-path="url(#p478e1d3bf9)" style="fill: #9ca3af; stroke: #9ca3af; stroke-linejoin: miter"/>
   </g>
   <g id="line2d_1">
    <path d="M 324.201037 296.150067 
L 324.08325 288.80215 
L 323.730012 281.461784 
L 323.141685 274.136511 
L 322.318874 266.833858 
L 321.262423 259.56133 
L 319.97342 252.326399 
L 318.453188 245.136499 
L 316.703289 237.99902 
L 314.725522 230.921295 
L 312.521919 223.910597 
L 310.094744 216.97413 
L 307.446492 210.119021 
L 304.579883 203.352315 
L 301.497863 196.680965 
L 298.2036 190.111826 
L 294.700477 183.651649 
L 290.992096 177.307072 
L 287.082266 171.084613 
L 282.975006 164.990668 
L 278.674535 159.031498 
L 274.185273 153.213227 
L 269.511833 147.541833 
L 264.659016 142.023144 
L 259.631811 136.662831 
L 254.435381 131.466401 
L 249.075068 126.439196 
L 243.556379 121.586379 
L 237.884985 116.912939 
L 232.066714 112.423677 
L 226.107544 108.123206 
L 220.013599 104.015946 
L 213.79114 100.106116 
L 207.446563 96.397735 
L 200.986386 92.894612 
L 194.417247 89.600349 
L 187.745897 86.518329 
L 180.979191 83.65172 
L 174.124082 81.003468 
L 167.187615 78.576293 
L 160.176917 76.37269 
L 153.099192 74.394923 
L 145.961713 72.645024 
L 138.771813 71.124792 
L 131.536882 69.835789 
L 124.264354 68.779338 
L 116.961701 67.956527 
L 109.636428 67.3682 
L 102.296062 67.014962 
L 94.948145 66.897175 
" clip-path="url(#p478e1d3bf9)" style="fill: none; stroke: #2563eb; stroke-width: 2; stroke-linecap: square"/>
   </g>
   <g id="line2d_2">
    <path d="M 94.948145 296.150067 
L 209.574591 97.611239 
" clip-path="url(#p478e1d3bf9)" style="fill: none; stroke: #f59e0b; stroke-width: 2.5; stroke-linecap: square"/>
   </g>
   <g id="line2d_3">
    <defs>
     <path id="m886390f77b" d="M 0 4 
C 1.060812 4 2.078319 3.578535 2.828427 2.828427 
C 3.578535 2.078319 4 1.060812 4 0 
C 4 -1.060812 3.578535 -2.078319 2.828427 -2.828427 
C 2.078319 -3.578535 1.060812 -4 0 -4 
C -1.060812 -4 -2.078319 -3.578535 -2.828427 -2.828427 
C -3.578535 -2.078319 -4 -1.060812 -4 0 
C -4 1.060812 -3.578535 2.078319 -2.828427 2.828427 
C -2.078319 3.578535 -1.060812 4 0 4 
z
" style="stroke: #f59e0b"/>
    </defs>
    <g clip-path="url(#p478e1d3bf9)">
     <use xlink:href="#m886390f77b" x="209.574591" y="97.611239" style="fill: #f59e0b; stroke: #f59e0b"/>
    </g>
   </g>
   <g id="line2d_4">
    <path d="M 209.574591 296.150067 
L 209.574591 97.611239 
" clip-path="url(#p478e1d3bf9)" style="fill: none; stroke-dasharray: 5.55,2.4; stroke-dashoffset: 0; stroke: #dc2626; stroke-width: 1.5"/>
   </g>
   <g id="line2d_5">
    <path d="M 94.948145 296.150067 
L 209.574591 296.150067 
" clip-path="url(#p478e1d3bf9)" style="fill: none; stroke: #7c3aed; stroke-width: 3; stroke-linecap: square"/>
   </g>
   <g id="line2d_6">
    <path d="M 94.948145 296.150067 
L 94.948145 97.611239 
" clip-path="url(#p478e1d3bf9)" style="fill: none; stroke: #dc2626; stroke-width: 3; stroke-linecap: square"/>
   </g>
   <g id="line2d_7">
    <path d="M 140.798723 296.150067 
L 140.775028 294.676188 
L 140.703967 293.203833 
L 140.585613 291.734522 
L 140.420089 290.269776 
L 140.207566 288.811107 
L 139.948264 287.360024 
L 139.64245 285.918026 
L 139.29044 284.486603 
L 138.892599 283.067236 
L 138.449338 281.661391 
L 137.961115 280.270521 
L 137.428434 278.896065 
L 136.851846 277.539441 
L 136.231947 276.202054 
L 135.569378 274.885284 
L 134.864823 273.590493 
L 134.119011 272.31902 
L 133.332712 271.072178 
L 132.50674 269.851256 
" clip-path="url(#p478e1d3bf9)" style="fill: none; stroke: #7c3aed; stroke-width: 2; stroke-linecap: square"/>
   </g>
   <g id="line2d_8">
    <path d="M 141.896389 263.276553 
L 141.12914 262.207156 
L 140.337537 261.155659 
L 139.521998 260.122617 
L 138.682952 259.108575 
L 137.820842 258.114066 
L 136.936123 257.139617 
L 136.029261 256.18574 
L 135.100734 255.252939 
L 134.151033 254.341705 
L 133.180657 253.452519 
L 132.190119 252.585851 
L 131.179941 251.742156 
L 130.150655 250.921881 
L 129.102805 250.125457 
L 128.036944 249.353305 
L 126.953632 248.605832 
L 125.853442 247.883431 
L 124.736954 247.186485 
L 123.604757 246.51536 
" clip-path="url(#p478e1d3bf9)" style="fill: none; stroke: #dc2626; stroke-width: 2; stroke-linecap: square"/>
   </g>
   <g id="text_1">
    <!-- P -->
    <g style="fill: #f59e0b" transform="translate(221.037235 86.148594) scale(0.11 -0.11)">
     <defs>
      <path id="DejaVuSans-Bold-50" d="M 588 4666 
L 2584 4666 
Q 3475 4666 3951 4270 
Q 4428 3875 4428 3144 
Q 4428 2409 3951 2014 
Q 3475 1619 2584 1619 
L 1791 1619 
L 1791 0 
L 588 0 
L 588 4666 
z
M 1791 3794 
L 1791 2491 
L 2456 2491 
Q 2806 2491 2997 2661 
Q 3188 2831 3188 3144 
Q 3188 3456 2997 3625 
Q 2806 3794 2456 3794 
L 1791 3794 
z
" transform="scale(0.015625)"/>
     </defs>
     <use xlink:href="#DejaVuSans-Bold-50"/>
    </g>
   </g>
   <g id="text_2">
    <!-- cos(α+β) -->
    <g style="fill: #7c3aed" transform="translate(131.569102 314.490298) scale(0.09 -0.09)">
     <defs>
      <path id="DejaVuSans-63" d="M 3122 3366 
L 3122 2828 
Q 2878 2963 2633 3030 
Q 2388 3097 2138 3097 
Q 1578 3097 1268 2742 
Q 959 2388 959 1747 
Q 959 1106 1268 751 
Q 1578 397 2138 397 
Q 2388 397 2633 464 
Q 2878 531 3122 666 
L 3122 134 
Q 2881 22 2623 -34 
Q 2366 -91 2075 -91 
Q 1284 -91 818 406 
Q 353 903 353 1747 
Q 353 2603 823 3093 
Q 1294 3584 2113 3584 
Q 2378 3584 2631 3529 
Q 2884 3475 3122 3366 
z
" transform="scale(0.015625)"/>
      <path id="DejaVuSans-6f" d="M 1959 3097 
Q 1497 3097 1228 2736 
Q 959 2375 959 1747 
Q 959 1119 1226 758 
Q 1494 397 1959 397 
Q 2419 397 2687 759 
Q 2956 1122 2956 1747 
Q 2956 2369 2687 2733 
Q 2419 3097 1959 3097 
z
M 1959 3584 
Q 2709 3584 3137 3096 
Q 3566 2609 3566 1747 
Q 3566 888 3137 398 
Q 2709 -91 1959 -91 
Q 1206 -91 779 398 
Q 353 888 353 1747 
Q 353 2609 779 3096 
Q 1206 3584 1959 3584 
z
" transform="scale(0.015625)"/>
      <path id="DejaVuSans-73" d="M 2834 3397 
L 2834 2853 
Q 2591 2978 2328 3040 
Q 2066 3103 1784 3103 
Q 1356 3103 1142 2972 
Q 928 2841 928 2578 
Q 928 2378 1081 2264 
Q 1234 2150 1697 2047 
L 1894 2003 
Q 2506 1872 2764 1633 
Q 3022 1394 3022 966 
Q 3022 478 2636 193 
Q 2250 -91 1575 -91 
Q 1294 -91 989 -36 
Q 684 19 347 128 
L 347 722 
Q 666 556 975 473 
Q 1284 391 1588 391 
Q 1994 391 2212 530 
Q 2431 669 2431 922 
Q 2431 1156 2273 1281 
Q 2116 1406 1581 1522 
L 1381 1569 
Q 847 1681 609 1914 
Q 372 2147 372 2553 
Q 372 3047 722 3315 
Q 1072 3584 1716 3584 
Q 2034 3584 2315 3537 
Q 2597 3491 2834 3397 
z
" transform="scale(0.015625)"/>
      <path id="DejaVuSans-28" d="M 1984 4856 
Q 1566 4138 1362 3434 
Q 1159 2731 1159 2009 
Q 1159 1288 1364 580 
Q 1569 -128 1984 -844 
L 1484 -844 
Q 1016 -109 783 600 
Q 550 1309 550 2009 
Q 550 2706 781 3412 
Q 1013 4119 1484 4856 
L 1984 4856 
z
" transform="scale(0.015625)"/>
      <path id="DejaVuSans-3b1" d="M 2644 1628 
L 2506 2350 
Q 2366 3091 1809 3091 
Q 1391 3091 1200 2747 
Q 959 2316 959 1747 
Q 959 1059 1194 731 
Q 1431 397 1809 397 
Q 2228 397 2453 1063 
L 2644 1628 
z
M 2966 2584 
L 3275 3500 
L 3788 3500 
L 3147 1603 
L 3272 919 
Q 3300 766 3409 638 
Q 3538 488 3638 488 
L 3913 488 
L 3913 0 
L 3569 0 
Q 3275 0 3013 263 
Q 2884 394 2831 669 
Q 2688 322 2394 50 
Q 2256 -78 1809 -78 
Q 1075 -78 719 397 
Q 353 888 353 1747 
Q 353 2666 750 3097 
Q 1191 3578 1809 3578 
Q 2781 3578 2966 2584 
z
" transform="scale(0.015625)"/>
      <path id="DejaVuSans-2b" d="M 2944 4013 
L 2944 2272 
L 4684 2272 
L 4684 1741 
L 2944 1741 
L 2944 0 
L 2419 0 
L 2419 1741 
L 678 1741 
L 678 2272 
L 2419 2272 
L 2419 4013 
L 2944 4013 
z
" transform="scale(0.015625)"/>
      <path id="DejaVuSans-3b2" d="M 1178 216 
L 1178 -1331 
L 600 -1331 
L 600 3478 
Q 600 4903 1931 4903 
Q 3288 4903 3288 3700 
Q 3288 2844 2750 2531 
Q 3625 2250 3625 1416 
Q 3625 -66 2119 -66 
Q 1456 -66 1178 216 
z
M 1178 966 
Q 1525 425 2141 425 
Q 3041 425 3041 1406 
Q 3041 2288 1591 2219 
L 1591 2750 
Q 2725 2750 2725 3750 
Q 2725 4434 1994 4434 
Q 1178 4434 1178 3459 
L 1178 966 
z
" transform="scale(0.015625)"/>
      <path id="DejaVuSans-29" d="M 513 4856 
L 1013 4856 
Q 1481 4119 1714 3412 
Q 1947 2706 1947 2009 
Q 1947 1309 1714 600 
Q 1481 -109 1013 -844 
L 513 -844 
Q 928 -128 1133 580 
Q 1338 1288 1338 2009 
Q 1338 2731 1133 3434 
Q 928 4138 513 4856 
z
" transform="scale(0.015625)"/>
     </defs>
     <use xlink:href="#DejaVuSans-63"/>
     <use xlink:href="#DejaVuSans-6f" transform="translate(54.980469 0)"/>
     <use xlink:href="#DejaVuSans-73" transform="translate(116.162109 0)"/>
     <use xlink:href="#DejaVuSans-28" transform="translate(168.261719 0)"/>
     <use xlink:href="#DejaVuSans-3b1" transform="translate(207.275391 0)"/>
     <use xlink:href="#DejaVuSans-2b" transform="translate(273.193359 0)"/>
     <use xlink:href="#DejaVuSans-3b2" transform="translate(356.982422 0)"/>
     <use xlink:href="#DejaVuSans-29" transform="translate(420.800781 0)"/>
    </g>
   </g>
   <g id="text_3">
    <!-- sin(α+β) -->
    <g style="fill: #dc2626" transform="translate(69.949361 198.752372) rotate(-90) scale(0.09 -0.09)">
     <defs>
      <path id="DejaVuSans-69" d="M 603 3500 
L 1178 3500 
L 1178 0 
L 603 0 
L 603 3500 
z
M 603 4863 
L 1178 4863 
L 1178 4134 
L 603 4134 
L 603 4863 
z
" transform="scale(0.015625)"/>
      <path id="DejaVuSans-6e" d="M 3513 2113 
L 3513 0 
L 2938 0 
L 2938 2094 
Q 2938 2591 2744 2837 
Q 2550 3084 2163 3084 
Q 1697 3084 1428 2787 
Q 1159 2491 1159 1978 
L 1159 0 
L 581 0 
L 581 3500 
L 1159 3500 
L 1159 2956 
Q 1366 3272 1645 3428 
Q 1925 3584 2291 3584 
Q 2894 3584 3203 3211 
Q 3513 2838 3513 2113 
z
" transform="scale(0.015625)"/>
     </defs>
     <use xlink:href="#DejaVuSans-73"/>
     <use xlink:href="#DejaVuSans-69" transform="translate(52.099609 0)"/>
     <use xlink:href="#DejaVuSans-6e" transform="translate(79.882812 0)"/>
     <use xlink:href="#DejaVuSans-28" transform="translate(143.261719 0)"/>
     <use xlink:href="#DejaVuSans-3b1" transform="translate(182.275391 0)"/>
     <use xlink:href="#DejaVuSans-2b" transform="translate(248.193359 0)"/>
     <use xlink:href="#DejaVuSans-3b2" transform="translate(331.982422 0)"/>
     <use xlink:href="#DejaVuSans-29" transform="translate(395.800781 0)"/>
    </g>
   </g>
   <g id="text_4">
    <!-- α -->
    <g style="fill: #7c3aed" transform="translate(159.138955 277.809836) scale(0.11 -0.11)">
     <defs>
      <path id="DejaVuSans-Bold-3b1" d="M 3006 3163 
L 3119 3500 
L 4088 3500 
L 3484 1697 
L 3569 1219 
Q 3659 703 3872 703 
L 4128 703 
L 4128 0 
L 3809 0 
Q 3313 0 3059 263 
Q 3003 322 2988 353 
Q 2838 163 2689 39 
Q 2541 -84 1763 -78 
Q 988 -72 648 400 
Q 309 872 309 1794 
Q 309 2713 663 3088 
Q 1109 3569 1966 3578 
Q 2688 3588 3006 3163 
z
M 2575 1841 
L 2481 2350 
Q 2394 2825 1981 2828 
Q 1772 2828 1598 2558 
Q 1425 2288 1425 1741 
Q 1425 1191 1581 944 
Q 1738 697 1969 691 
Q 2213 684 2363 1163 
L 2575 1841 
z
" transform="scale(0.015625)"/>
     </defs>
     <use xlink:href="#DejaVuSans-Bold-3b1"/>
    </g>
   </g>
   <g id="text_5">
    <!-- β -->
    <g style="fill: #dc2626" transform="translate(168.30907 245.714431) scale(0.11 -0.11)">
     <defs>
      <path id="DejaVuSans-Bold-3b2" d="M 2575 3038 
Q 2772 3309 2772 3503 
Q 2772 3769 2648 3948 
Q 2525 4128 2241 4128 
Q 1900 4128 1778 3864 
Q 1656 3600 1656 3103 
L 1656 1747 
Q 1656 1250 1848 986 
Q 2041 722 2400 722 
Q 2800 722 2953 934 
Q 3106 1147 3106 1275 
Q 3106 1722 2738 1988 
Q 2538 2122 1988 2134 
L 1988 2847 
Q 2497 2925 2575 3038 
z
M 538 -1331 
L 538 3044 
Q 538 3922 969 4369 
Q 1325 4741 1672 4845 
Q 2019 4950 2259 4950 
Q 2500 4947 2538 4941 
Q 3178 4841 3538 4438 
Q 3788 4163 3788 3600 
Q 3788 3313 3616 3053 
Q 3406 2734 3094 2709 
Q 3556 2584 3844 2322 
Q 4294 1919 4294 1288 
Q 4294 731 3903 320 
Q 3513 -91 2809 -91 
Q 2106 -91 1656 506 
L 1656 -1331 
L 538 -1331 
z
" transform="scale(0.015625)"/>
     </defs>
     <use xlink:href="#DejaVuSans-Bold-3b2"/>
    </g>
   </g>
   <g id="text_6">
    <!-- Suma de ángulos: α + β -->
    <g style="fill: #1f2937" transform="translate(159.000114 37.971886) scale(0.11 -0.11)">
     <defs>
      <path id="DejaVuSans-Bold-53" d="M 3834 4519 
L 3834 3531 
Q 3450 3703 3084 3790 
Q 2719 3878 2394 3878 
Q 1963 3878 1756 3759 
Q 1550 3641 1550 3391 
Q 1550 3203 1689 3098 
Q 1828 2994 2194 2919 
L 2706 2816 
Q 3484 2659 3812 2340 
Q 4141 2022 4141 1434 
Q 4141 663 3683 286 
Q 3225 -91 2284 -91 
Q 1841 -91 1394 -6 
Q 947 78 500 244 
L 500 1259 
Q 947 1022 1364 901 
Q 1781 781 2169 781 
Q 2563 781 2772 912 
Q 2981 1044 2981 1288 
Q 2981 1506 2839 1625 
Q 2697 1744 2272 1838 
L 1806 1941 
Q 1106 2091 782 2419 
Q 459 2747 459 3303 
Q 459 4000 909 4375 
Q 1359 4750 2203 4750 
Q 2588 4750 2994 4692 
Q 3400 4634 3834 4519 
z
" transform="scale(0.015625)"/>
      <path id="DejaVuSans-Bold-75" d="M 500 1363 
L 500 3500 
L 1625 3500 
L 1625 3150 
Q 1625 2866 1622 2436 
Q 1619 2006 1619 1863 
Q 1619 1441 1641 1255 
Q 1663 1069 1716 984 
Q 1784 875 1895 815 
Q 2006 756 2150 756 
Q 2500 756 2700 1025 
Q 2900 1294 2900 1772 
L 2900 3500 
L 4019 3500 
L 4019 0 
L 2900 0 
L 2900 506 
Q 2647 200 2364 54 
Q 2081 -91 1741 -91 
Q 1134 -91 817 281 
Q 500 653 500 1363 
z
" transform="scale(0.015625)"/>
      <path id="DejaVuSans-Bold-6d" d="M 3781 2919 
Q 3994 3244 4286 3414 
Q 4578 3584 4928 3584 
Q 5531 3584 5847 3212 
Q 6163 2841 6163 2131 
L 6163 0 
L 5038 0 
L 5038 1825 
Q 5041 1866 5042 1909 
Q 5044 1953 5044 2034 
Q 5044 2406 4934 2573 
Q 4825 2741 4581 2741 
Q 4263 2741 4089 2478 
Q 3916 2216 3909 1719 
L 3909 0 
L 2784 0 
L 2784 1825 
Q 2784 2406 2684 2573 
Q 2584 2741 2328 2741 
Q 2006 2741 1831 2477 
Q 1656 2213 1656 1722 
L 1656 0 
L 531 0 
L 531 3500 
L 1656 3500 
L 1656 2988 
Q 1863 3284 2130 3434 
Q 2397 3584 2719 3584 
Q 3081 3584 3359 3409 
Q 3638 3234 3781 2919 
z
" transform="scale(0.015625)"/>
      <path id="DejaVuSans-Bold-61" d="M 2106 1575 
Q 1756 1575 1579 1456 
Q 1403 1338 1403 1106 
Q 1403 894 1545 773 
Q 1688 653 1941 653 
Q 2256 653 2472 879 
Q 2688 1106 2688 1447 
L 2688 1575 
L 2106 1575 
z
M 3816 1997 
L 3816 0 
L 2688 0 
L 2688 519 
Q 2463 200 2181 54 
Q 1900 -91 1497 -91 
Q 953 -91 614 226 
Q 275 544 275 1050 
Q 275 1666 698 1953 
Q 1122 2241 2028 2241 
L 2688 2241 
L 2688 2328 
Q 2688 2594 2478 2717 
Q 2269 2841 1825 2841 
Q 1466 2841 1156 2769 
Q 847 2697 581 2553 
L 581 3406 
Q 941 3494 1303 3539 
Q 1666 3584 2028 3584 
Q 2975 3584 3395 3211 
Q 3816 2838 3816 1997 
z
" transform="scale(0.015625)"/>
      <path id="DejaVuSans-Bold-20" transform="scale(0.015625)"/>
      <path id="DejaVuSans-Bold-64" d="M 2919 2988 
L 2919 4863 
L 4044 4863 
L 4044 0 
L 2919 0 
L 2919 506 
Q 2688 197 2409 53 
Q 2131 -91 1766 -91 
Q 1119 -91 703 423 
Q 288 938 288 1747 
Q 288 2556 703 3070 
Q 1119 3584 1766 3584 
Q 2128 3584 2408 3439 
Q 2688 3294 2919 2988 
z
M 2181 722 
Q 2541 722 2730 984 
Q 2919 1247 2919 1747 
Q 2919 2247 2730 2509 
Q 2541 2772 2181 2772 
Q 1825 2772 1636 2509 
Q 1447 2247 1447 1747 
Q 1447 1247 1636 984 
Q 1825 722 2181 722 
z
" transform="scale(0.015625)"/>
      <path id="DejaVuSans-Bold-65" d="M 4031 1759 
L 4031 1441 
L 1416 1441 
Q 1456 1047 1700 850 
Q 1944 653 2381 653 
Q 2734 653 3104 758 
Q 3475 863 3866 1075 
L 3866 213 
Q 3469 63 3072 -14 
Q 2675 -91 2278 -91 
Q 1328 -91 801 392 
Q 275 875 275 1747 
Q 275 2603 792 3093 
Q 1309 3584 2216 3584 
Q 3041 3584 3536 3087 
Q 4031 2591 4031 1759 
z
M 2881 2131 
Q 2881 2450 2695 2645 
Q 2509 2841 2209 2841 
Q 1884 2841 1681 2658 
Q 1478 2475 1428 2131 
L 2881 2131 
z
" transform="scale(0.015625)"/>
      <path id="DejaVuSans-Bold-e1" d="M 2106 1575 
Q 1756 1575 1579 1456 
Q 1403 1338 1403 1106 
Q 1403 894 1545 773 
Q 1688 653 1941 653 
Q 2256 653 2472 879 
Q 2688 1106 2688 1447 
L 2688 1575 
L 2106 1575 
z
M 3816 1997 
L 3816 0 
L 2688 0 
L 2688 519 
Q 2463 200 2181 54 
Q 1900 -91 1497 -91 
Q 953 -91 614 226 
Q 275 544 275 1050 
Q 275 1666 698 1953 
Q 1122 2241 2028 2241 
L 2688 2241 
L 2688 2328 
Q 2688 2594 2478 2717 
Q 2269 2841 1825 2841 
Q 1466 2841 1156 2769 
Q 847 2697 581 2553 
L 581 3406 
Q 941 3494 1303 3539 
Q 1666 3584 2028 3584 
Q 2975 3584 3395 3211 
Q 3816 2838 3816 1997 
z
M 2606 5119 
L 3490 5119 
L 2337 3944 
L 1725 3944 
L 2606 5119 
z
" transform="scale(0.015625)"/>
      <path id="DejaVuSans-Bold-6e" d="M 4056 2131 
L 4056 0 
L 2931 0 
L 2931 347 
L 2931 1631 
Q 2931 2084 2911 2256 
Q 2891 2428 2841 2509 
Q 2775 2619 2662 2680 
Q 2550 2741 2406 2741 
Q 2056 2741 1856 2470 
Q 1656 2200 1656 1722 
L 1656 0 
L 538 0 
L 538 3500 
L 1656 3500 
L 1656 2988 
Q 1909 3294 2193 3439 
Q 2478 3584 2822 3584 
Q 3428 3584 3742 3212 
Q 4056 2841 4056 2131 
z
" transform="scale(0.015625)"/>
      <path id="DejaVuSans-Bold-67" d="M 2919 594 
Q 2688 288 2409 144 
Q 2131 0 1766 0 
Q 1125 0 706 504 
Q 288 1009 288 1791 
Q 288 2575 706 3076 
Q 1125 3578 1766 3578 
Q 2131 3578 2409 3434 
Q 2688 3291 2919 2981 
L 2919 3500 
L 4044 3500 
L 4044 353 
Q 4044 -491 3511 -936 
Q 2978 -1381 1966 -1381 
Q 1638 -1381 1331 -1331 
Q 1025 -1281 716 -1178 
L 716 -306 
Q 1009 -475 1290 -558 
Q 1572 -641 1856 -641 
Q 2406 -641 2662 -400 
Q 2919 -159 2919 353 
L 2919 594 
z
M 2181 2772 
Q 1834 2772 1640 2515 
Q 1447 2259 1447 1791 
Q 1447 1309 1634 1061 
Q 1822 813 2181 813 
Q 2531 813 2725 1069 
Q 2919 1325 2919 1791 
Q 2919 2259 2725 2515 
Q 2531 2772 2181 2772 
z
" transform="scale(0.015625)"/>
      <path id="DejaVuSans-Bold-6c" d="M 538 4863 
L 1656 4863 
L 1656 0 
L 538 0 
L 538 4863 
z
" transform="scale(0.015625)"/>
      <path id="DejaVuSans-Bold-6f" d="M 2203 2784 
Q 1831 2784 1636 2517 
Q 1441 2250 1441 1747 
Q 1441 1244 1636 976 
Q 1831 709 2203 709 
Q 2569 709 2762 976 
Q 2956 1244 2956 1747 
Q 2956 2250 2762 2517 
Q 2569 2784 2203 2784 
z
M 2203 3584 
Q 3106 3584 3614 3096 
Q 4122 2609 4122 1747 
Q 4122 884 3614 396 
Q 3106 -91 2203 -91 
Q 1297 -91 786 396 
Q 275 884 275 1747 
Q 275 2609 786 3096 
Q 1297 3584 2203 3584 
z
" transform="scale(0.015625)"/>
      <path id="DejaVuSans-Bold-73" d="M 3272 3391 
L 3272 2541 
Q 2913 2691 2578 2766 
Q 2244 2841 1947 2841 
Q 1628 2841 1473 2761 
Q 1319 2681 1319 2516 
Q 1319 2381 1436 2309 
Q 1553 2238 1856 2203 
L 2053 2175 
Q 2913 2066 3209 1816 
Q 3506 1566 3506 1031 
Q 3506 472 3093 190 
Q 2681 -91 1863 -91 
Q 1516 -91 1145 -36 
Q 775 19 384 128 
L 384 978 
Q 719 816 1070 734 
Q 1422 653 1784 653 
Q 2113 653 2278 743 
Q 2444 834 2444 1013 
Q 2444 1163 2330 1236 
Q 2216 1309 1875 1350 
L 1678 1375 
Q 931 1469 631 1722 
Q 331 1975 331 2491 
Q 331 3047 712 3315 
Q 1094 3584 1881 3584 
Q 2191 3584 2531 3537 
Q 2872 3491 3272 3391 
z
" transform="scale(0.015625)"/>
      <path id="DejaVuSans-Bold-3a" d="M 716 3500 
L 1844 3500 
L 1844 2291 
L 716 2291 
L 716 3500 
z
M 716 1209 
L 1844 1209 
L 1844 0 
L 716 0 
L 716 1209 
z
" transform="scale(0.015625)"/>
      <path id="DejaVuSans-Bold-2b" d="M 3053 4013 
L 3053 2375 
L 4684 2375 
L 4684 1638 
L 3053 1638 
L 3053 0 
L 2309 0 
L 2309 1638 
L 678 1638 
L 678 2375 
L 2309 2375 
L 2309 4013 
L 3053 4013 
z
" transform="scale(0.015625)"/>
     </defs>
     <use xlink:href="#DejaVuSans-Bold-53"/>
     <use xlink:href="#DejaVuSans-Bold-75" transform="translate(72.021484 0)"/>
     <use xlink:href="#DejaVuSans-Bold-6d" transform="translate(143.212891 0)"/>
     <use xlink:href="#DejaVuSans-Bold-61" transform="translate(247.412109 0)"/>
     <use xlink:href="#DejaVuSans-Bold-20" transform="translate(314.892578 0)"/>
     <use xlink:href="#DejaVuSans-Bold-64" transform="translate(349.707031 0)"/>
     <use xlink:href="#DejaVuSans-Bold-65" transform="translate(421.289062 0)"/>
     <use xlink:href="#DejaVuSans-Bold-20" transform="translate(489.111328 0)"/>
     <use xlink:href="#DejaVuSans-Bold-e1" transform="translate(523.925781 0)"/>
     <use xlink:href="#DejaVuSans-Bold-6e" transform="translate(591.40625 0)"/>
     <use xlink:href="#DejaVuSans-Bold-67" transform="translate(662.597656 0)"/>
     <use xlink:href="#DejaVuSans-Bold-75" transform="translate(734.179688 0)"/>
     <use xlink:href="#DejaVuSans-Bold-6c" transform="translate(805.371094 0)"/>
     <use xlink:href="#DejaVuSans-Bold-6f" transform="translate(839.648438 0)"/>
     <use xlink:href="#DejaVuSans-Bold-73" transform="translate(908.349609 0)"/>
     <use xlink:href="#DejaVuSans-Bold-3a" transform="translate(967.871094 0)"/>
     <use xlink:href="#DejaVuSans-Bold-20" transform="translate(1007.861328 0)"/>
     <use xlink:href="#DejaVuSans-Bold-3b1" transform="translate(1042.675781 0)"/>
     <use xlink:href="#DejaVuSans-Bold-20" transform="translate(1111.376953 0)"/>
     <use xlink:href="#DejaVuSans-Bold-2b" transform="translate(1146.191406 0)"/>
     <use xlink:href="#DejaVuSans-Bold-20" transform="translate(1229.980469 0)"/>
     <use xlink:href="#DejaVuSans-Bold-3b2" transform="translate(1264.794922 0)"/>
    </g>
   </g>
  </g>
  <g id="axes_2">
   <g id="patch_4">
    <path d="M 897.871078 260.124613 
L 891.976003 263.07215 
L 891.976003 260.222864 
L 665.998153 260.222864 
L 665.998153 260.026361 
L 891.976003 260.026361 
L 891.976003 257.177075 
z
" clip-path="url(#p1bc51f4ed5)" style="fill: #9ca3af; stroke: #9ca3af; stroke-linejoin: miter"/>
   </g>
   <g id="patch_5">
    <path d="M 665.998153 67.552184 
L 668.94569 73.447258 
L 666.096404 73.447258 
L 666.096404 260.124613 
L 665.899902 260.124613 
L 665.899902 73.447258 
L 663.050616 73.447258 
z
" clip-path="url(#p1bc51f4ed5)" style="fill: #9ca3af; stroke: #9ca3af; stroke-linejoin: miter"/>
   </g>
   <g id="line2d_9">
    <path d="M 853.724141 318.195066 
L 855.803899 310.9872 
L 857.607015 303.705203 
L 859.130862 296.359687 
L 860.373219 288.961359 
L 861.332273 281.521001 
L 862.006629 274.049457 
L 862.395303 266.557619 
L 862.497728 259.056404 
L 862.313755 251.556746 
L 861.843653 244.069576 
L 861.088106 236.605806 
L 860.048216 229.176314 
L 858.725498 221.79193 
L 857.12188 214.463416 
L 855.2397 207.201452 
L 853.081701 200.016624 
L 850.651027 192.919404 
L 847.951222 185.920134 
L 844.986221 179.029018 
L 841.760345 172.256099 
L 838.278296 165.611247 
L 834.545149 159.104149 
L 830.566345 152.744288 
L 826.347683 146.540934 
L 821.895312 140.503127 
L 817.215721 134.639669 
L 812.315731 128.959105 
L 807.202483 123.469714 
L 801.88343 118.179498 
L 796.366324 113.096167 
L 790.659207 108.227129 
L 784.770397 103.579481 
L 778.708476 99.159998 
L 772.48228 94.975121 
L 766.100884 91.030948 
L 759.573588 87.33323 
L 752.909906 83.887354 
L 746.119551 80.698344 
L 739.212418 77.770848 
L 732.198576 75.109132 
L 725.088247 72.717076 
L 717.891794 70.598166 
L 710.619706 68.75549 
L 703.282582 67.191735 
L 695.891117 65.909179 
L 688.456082 64.909691 
L 680.988315 64.194729 
L 673.4987 63.765335 
L 665.998153 63.622134 
" clip-path="url(#p1bc51f4ed5)" style="fill: none; stroke: #2563eb; stroke-width: 2; stroke-linecap: square"/>
   </g>
   <g id="line2d_10">
    <path d="M 665.998153 260.124613 
L 836.174291 161.873373 
" clip-path="url(#p1bc51f4ed5)" style="fill: none; stroke: #ec4899; stroke-width: 2.5; stroke-linecap: square"/>
   </g>
   <g id="line2d_11">
    <defs>
     <path id="mfe4fb6e018" d="M 0 4 
C 1.060812 4 2.078319 3.578535 2.828427 2.828427 
C 3.578535 2.078319 4 1.060812 4 0 
C 4 -1.060812 3.578535 -2.078319 2.828427 -2.828427 
C 2.078319 -3.578535 1.060812 -4 0 -4 
C -1.060812 -4 -2.078319 -3.578535 -2.828427 -2.828427 
C -3.578535 -2.078319 -4 -1.060812 -4 0 
C -4 1.060812 -3.578535 2.078319 -2.828427 2.828427 
C -2.078319 3.578535 -1.060812 4 0 4 
z
" style="stroke: #ec4899"/>
    </defs>
    <g clip-path="url(#p1bc51f4ed5)">
     <use xlink:href="#mfe4fb6e018" x="836.174291" y="161.873373" style="fill: #ec4899; stroke: #ec4899"/>
    </g>
   </g>
   <g id="line2d_12">
    <path d="M 836.174291 260.124613 
L 836.174291 161.873373 
" clip-path="url(#p1bc51f4ed5)" style="fill: none; stroke-dasharray: 5.55,2.4; stroke-dashoffset: 0; stroke: #dc2626; stroke-width: 1.5"/>
   </g>
   <g id="line2d_13">
    <path d="M 665.998153 260.124613 
L 836.174291 260.124613 
" clip-path="url(#p1bc51f4ed5)" style="fill: none; stroke: #7c3aed; stroke-width: 3; stroke-linecap: square"/>
   </g>
   <g id="line2d_14">
    <path d="M 665.998153 260.124613 
L 665.998153 161.873373 
" clip-path="url(#p1bc51f4ed5)" style="fill: none; stroke: #dc2626; stroke-width: 3; stroke-linecap: square"/>
   </g>
   <g id="line2d_15">
    <path d="M 724.948896 260.124613 
L 724.886728 257.417973 
L 724.700354 254.717043 
L 724.390166 252.027518 
L 723.95682 249.355071 
L 723.40123 246.705339 
L 722.724567 244.083911 
L 721.928258 241.496315 
L 721.013984 238.948009 
L 719.983671 236.444369 
L 718.839495 233.990674 
L 717.583867 231.592099 
L 716.219435 229.253705 
L 714.749079 226.980423 
L 713.175899 224.777047 
L 711.503213 222.648225 
L 709.73455 220.598447 
L 707.873639 218.632037 
L 705.924405 216.753141 
L 703.89096 214.965723 
" clip-path="url(#p1bc51f4ed5)" style="fill: none; stroke-dasharray: 5.55,2.4; stroke-dashoffset: 0; stroke: #9ca3af; stroke-width: 1.5"/>
   </g>
   <g id="line2d_16">
    <path d="M 705.298649 260.124613 
L 705.283726 259.041713 
L 705.238971 257.959636 
L 705.164417 256.879203 
L 705.060121 255.801235 
L 704.926162 254.72655 
L 704.762641 253.655964 
L 704.569683 252.59029 
L 704.347434 251.530337 
L 704.096064 250.476911 
L 703.815762 249.430812 
L 703.506743 248.392833 
L 703.169239 247.363762 
L 702.803509 246.344383 
L 702.409829 245.335468 
L 701.988499 244.337783 
L 701.539838 243.352087 
L 701.064187 242.379128 
L 700.561907 241.419644 
L 700.033381 240.474365 
" clip-path="url(#p1bc51f4ed5)" style="fill: none; stroke: #ec4899; stroke-width: 2; stroke-linecap: square"/>
   </g>
   <g id="text_7">
    <!-- P -->
    <g style="fill: #ec4899" transform="translate(845.999415 152.048249) scale(0.11 -0.11)">
     <use xlink:href="#DejaVuSans-Bold-50"/>
    </g>
   </g>
   <g id="text_8">
    <!-- cos(α−β) -->
    <g style="fill: #7c3aed" transform="translate(730.393956 275.844811) scale(0.09 -0.09)">
     <defs>
      <path id="DejaVuSans-2212" d="M 678 2272 
L 4684 2272 
L 4684 1741 
L 678 1741 
L 678 2272 
z
" transform="scale(0.015625)"/>
     </defs>
     <use xlink:href="#DejaVuSans-63"/>
     <use xlink:href="#DejaVuSans-6f" transform="translate(54.980469 0)"/>
     <use xlink:href="#DejaVuSans-73" transform="translate(116.162109 0)"/>
     <use xlink:href="#DejaVuSans-28" transform="translate(168.261719 0)"/>
     <use xlink:href="#DejaVuSans-3b1" transform="translate(207.275391 0)"/>
     <use xlink:href="#DejaVuSans-2212" transform="translate(273.193359 0)"/>
     <use xlink:href="#DejaVuSans-3b2" transform="translate(356.982422 0)"/>
     <use xlink:href="#DejaVuSans-29" transform="translate(420.800781 0)"/>
    </g>
   </g>
   <g id="text_9">
    <!-- sin(α−β) -->
    <g style="fill: #dc2626" transform="translate(644.929418 212.870712) rotate(-90) scale(0.09 -0.09)">
     <use xlink:href="#DejaVuSans-73"/>
     <use xlink:href="#DejaVuSans-69" transform="translate(52.099609 0)"/>
     <use xlink:href="#DejaVuSans-6e" transform="translate(79.882812 0)"/>
     <use xlink:href="#DejaVuSans-28" transform="translate(143.261719 0)"/>
     <use xlink:href="#DejaVuSans-3b1" transform="translate(182.275391 0)"/>
     <use xlink:href="#DejaVuSans-2212" transform="translate(248.193359 0)"/>
     <use xlink:href="#DejaVuSans-3b2" transform="translate(331.982422 0)"/>
     <use xlink:href="#DejaVuSans-29" transform="translate(395.800781 0)"/>
    </g>
   </g>
   <g id="text_10">
    <!-- α -->
    <g style="fill: #6b7280" transform="translate(740.669095 220.824117) scale(0.1 -0.1)">
     <use xlink:href="#DejaVuSans-3b1"/>
    </g>
   </g>
   <g id="text_11">
    <!-- α−β -->
    <g style="fill: #ec4899" transform="translate(715.123773 240.474365) scale(0.1 -0.1)">
     <defs>
      <path id="DejaVuSans-Bold-2212" d="M 678 2375 
L 4684 2375 
L 4684 1638 
L 678 1638 
L 678 2375 
z
" transform="scale(0.015625)"/>
     </defs>
     <use xlink:href="#DejaVuSans-Bold-3b1"/>
     <use xlink:href="#DejaVuSans-Bold-2212" transform="translate(68.701172 0)"/>
     <use xlink:href="#DejaVuSans-Bold-3b2" transform="translate(152.490234 0)"/>
    </g>
   </g>
   <g id="text_12">
    <!-- Diferencia de ángulos: α − β -->
    <g style="fill: #1f2937" transform="translate(695.928859 37.971886) scale(0.11 -0.11)">
     <defs>
      <path id="DejaVuSans-Bold-44" d="M 1791 3756 
L 1791 909 
L 2222 909 
Q 2959 909 3348 1275 
Q 3738 1641 3738 2338 
Q 3738 3031 3350 3393 
Q 2963 3756 2222 3756 
L 1791 3756 
z
M 588 4666 
L 1856 4666 
Q 2919 4666 3439 4514 
Q 3959 4363 4331 4000 
Q 4659 3684 4818 3271 
Q 4978 2859 4978 2338 
Q 4978 1809 4818 1395 
Q 4659 981 4331 666 
Q 3956 303 3431 151 
Q 2906 0 1856 0 
L 588 0 
L 588 4666 
z
" transform="scale(0.015625)"/>
      <path id="DejaVuSans-Bold-69" d="M 538 3500 
L 1656 3500 
L 1656 0 
L 538 0 
L 538 3500 
z
M 538 4863 
L 1656 4863 
L 1656 3950 
L 538 3950 
L 538 4863 
z
" transform="scale(0.015625)"/>
      <path id="DejaVuSans-Bold-66" d="M 2841 4863 
L 2841 4128 
L 2222 4128 
Q 1984 4128 1890 4042 
Q 1797 3956 1797 3744 
L 1797 3500 
L 2753 3500 
L 2753 2700 
L 1797 2700 
L 1797 0 
L 678 0 
L 678 2700 
L 122 2700 
L 122 3500 
L 678 3500 
L 678 3744 
Q 678 4316 997 4589 
Q 1316 4863 1984 4863 
L 2841 4863 
z
" transform="scale(0.015625)"/>
      <path id="DejaVuSans-Bold-72" d="M 3138 2547 
Q 2991 2616 2845 2648 
Q 2700 2681 2553 2681 
Q 2122 2681 1889 2404 
Q 1656 2128 1656 1613 
L 1656 0 
L 538 0 
L 538 3500 
L 1656 3500 
L 1656 2925 
Q 1872 3269 2151 3426 
Q 2431 3584 2822 3584 
Q 2878 3584 2943 3579 
Q 3009 3575 3134 3559 
L 3138 2547 
z
" transform="scale(0.015625)"/>
      <path id="DejaVuSans-Bold-63" d="M 3366 3391 
L 3366 2478 
Q 3138 2634 2908 2709 
Q 2678 2784 2431 2784 
Q 1963 2784 1702 2511 
Q 1441 2238 1441 1747 
Q 1441 1256 1702 982 
Q 1963 709 2431 709 
Q 2694 709 2930 787 
Q 3166 866 3366 1019 
L 3366 103 
Q 3103 6 2833 -42 
Q 2563 -91 2291 -91 
Q 1344 -91 809 395 
Q 275 881 275 1747 
Q 275 2613 809 3098 
Q 1344 3584 2291 3584 
Q 2566 3584 2833 3536 
Q 3100 3488 3366 3391 
z
" transform="scale(0.015625)"/>
     </defs>
     <use xlink:href="#DejaVuSans-Bold-44"/>
     <use xlink:href="#DejaVuSans-Bold-69" transform="translate(83.007812 0)"/>
     <use xlink:href="#DejaVuSans-Bold-66" transform="translate(117.285156 0)"/>
     <use xlink:href="#DejaVuSans-Bold-65" transform="translate(160.791016 0)"/>
     <use xlink:href="#DejaVuSans-Bold-72" transform="translate(228.613281 0)"/>
     <use xlink:href="#DejaVuSans-Bold-65" transform="translate(277.929688 0)"/>
     <use xlink:href="#DejaVuSans-Bold-6e" transform="translate(345.751953 0)"/>
     <use xlink:href="#DejaVuSans-Bold-63" transform="translate(416.943359 0)"/>
     <use xlink:href="#DejaVuSans-Bold-69" transform="translate(476.220703 0)"/>
     <use xlink:href="#DejaVuSans-Bold-61" transform="translate(510.498047 0)"/>
     <use xlink:href="#DejaVuSans-Bold-20" transform="translate(577.978516 0)"/>
     <use xlink:href="#DejaVuSans-Bold-64" transform="translate(612.792969 0)"/>
     <use xlink:href="#DejaVuSans-Bold-65" transform="translate(684.375 0)"/>
     <use xlink:href="#DejaVuSans-Bold-20" transform="translate(752.197266 0)"/>
     <use xlink:href="#DejaVuSans-Bold-e1" transform="translate(787.011719 0)"/>
     <use xlink:href="#DejaVuSans-Bold-6e" transform="translate(854.492188 0)"/>
     <use xlink:href="#DejaVuSans-Bold-67" transform="translate(925.683594 0)"/>
     <use xlink:href="#DejaVuSans-Bold-75" transform="translate(997.265625 0)"/>
     <use xlink:href="#DejaVuSans-Bold-6c" transform="translate(1068.457031 0)"/>
     <use xlink:href="#DejaVuSans-Bold-6f" transform="translate(1102.734375 0)"/>
     <use xlink:href="#DejaVuSans-Bold-73" transform="translate(1171.435547 0)"/>
     <use xlink:href="#DejaVuSans-Bold-3a" transform="translate(1230.957031 0)"/>
     <use xlink:href="#DejaVuSans-Bold-20" transform="translate(1270.947266 0)"/>
     <use xlink:href="#DejaVuSans-Bold-3b1" transform="translate(1305.761719 0)"/>
     <use xlink:href="#DejaVuSans-Bold-20" transform="translate(1374.462891 0)"/>
     <use xlink:href="#DejaVuSans-Bold-2212" transform="translate(1409.277344 0)"/>
     <use xlink:href="#DejaVuSans-Bold-20" transform="translate(1493.066406 0)"/>
     <use xlink:href="#DejaVuSans-Bold-3b2" transform="translate(1527.880859 0)"/>
    </g>
   </g>
  </g>
  <g id="axes_3">
   <g id="patch_6">
    <path d="M 27.23999 539.63123 
L 498.179765 539.63123 
L 498.179765 400.979081 
L 27.23999 400.979081 
z
" clip-path="url(#p433766a735)" style="fill: #f0fdf4; stroke: #dc2626; stroke-width: 2; stroke-linejoin: miter"/>
   </g>
   <g id="patch_7">
    <path d="M 518.219755 539.63123 
L 989.15953 539.63123 
L 989.15953 400.979081 
L 518.219755 400.979081 
z
" clip-path="url(#p433766a735)" style="fill: #eff6ff; stroke: #7c3aed; stroke-width: 2; stroke-linejoin: miter"/>
   </g>
   <g id="patch_8">
    <path d="M 27.23999 694.789587 
L 989.15953 694.789587 
L 989.15953 556.137438 
L 27.23999 556.137438 
z
" clip-path="url(#p433766a735)" style="fill: #fef3c7; stroke: #f59e0b; stroke-width: 2; stroke-linejoin: miter"/>
   </g>
   <g id="text_13">
    <!-- SENO -->
    <g style="fill: #dc2626" transform="translate(244.168003 417.485289) scale(0.12 -0.12)">
     <defs>
      <path id="DejaVuSans-Bold-45" d="M 588 4666 
L 3834 4666 
L 3834 3756 
L 1791 3756 
L 1791 2888 
L 3713 2888 
L 3713 1978 
L 1791 1978 
L 1791 909 
L 3903 909 
L 3903 0 
L 588 0 
L 588 4666 
z
" transform="scale(0.015625)"/>
      <path id="DejaVuSans-Bold-4e" d="M 588 4666 
L 1931 4666 
L 3628 1466 
L 3628 4666 
L 4769 4666 
L 4769 0 
L 3425 0 
L 1728 3200 
L 1728 0 
L 588 0 
L 588 4666 
z
" transform="scale(0.015625)"/>
      <path id="DejaVuSans-Bold-4f" d="M 2719 3878 
Q 2169 3878 1866 3472 
Q 1563 3066 1563 2328 
Q 1563 1594 1866 1187 
Q 2169 781 2719 781 
Q 3272 781 3575 1187 
Q 3878 1594 3878 2328 
Q 3878 3066 3575 3472 
Q 3272 3878 2719 3878 
z
M 2719 4750 
Q 3844 4750 4481 4106 
Q 5119 3463 5119 2328 
Q 5119 1197 4481 553 
Q 3844 -91 2719 -91 
Q 1597 -91 958 553 
Q 319 1197 319 2328 
Q 319 3463 958 4106 
Q 1597 4750 2719 4750 
z
" transform="scale(0.015625)"/>
     </defs>
     <use xlink:href="#DejaVuSans-Bold-53"/>
     <use xlink:href="#DejaVuSans-Bold-45" transform="translate(72.021484 0)"/>
     <use xlink:href="#DejaVuSans-Bold-4e" transform="translate(140.332031 0)"/>
     <use xlink:href="#DejaVuSans-Bold-4f" transform="translate(224.023438 0)"/>
    </g>
   </g>
   <g id="text_14">
    <!-- $\sin(\alpha + \beta) = \sin\alpha\cos\beta + \cos\alpha\sin\beta$ -->
    <g style="fill: #1f2937" transform="translate(171.024878 457.100189) scale(0.11 -0.11)">
     <defs>
      <path id="DejaVuSans-Oblique-3b1" d="M 2619 1628 
L 2622 2350 
Q 2625 3088 2069 3091 
Q 1653 3094 1394 2747 
Q 1069 2319 959 1747 
Q 825 1059 994 731 
Q 1169 397 1547 397 
Q 1966 397 2319 1063 
L 2619 1628 
z
M 2166 3578 
Q 3141 3594 3128 2584 
Q 3128 2584 3616 3500 
L 4128 3500 
L 3119 1603 
L 3109 919 
Q 3109 766 3194 638 
Q 3291 488 3391 488 
L 3669 488 
L 3575 0 
L 3228 0 
Q 2934 0 2722 263 
Q 2622 394 2619 669 
Q 2416 334 2066 50 
Q 1900 -81 1453 -78 
Q 722 -72 456 397 
Q 184 884 353 1747 
Q 534 2675 1009 3097 
Q 1544 3569 2166 3578 
z
" transform="scale(0.015625)"/>
      <path id="DejaVuSans-Oblique-3b2" d="M 872 216 
L 572 -1331 
L -6 -1331 
L 928 3478 
Q 1206 4903 2538 4903 
Q 3888 4903 3659 3700 
Q 3503 2844 2894 2531 
Q 3713 2250 3553 1416 
Q 3272 -69 1759 -66 
Q 1097 -63 872 216 
z
M 1019 966 
Q 1259 422 1875 425 
Q 2775 425 2966 1406 
Q 3138 2288 1675 2219 
L 1778 2750 
Q 2909 2731 3106 3750 
Q 3241 4438 2509 4434 
Q 1691 4434 1503 3459 
L 1019 966 
z
" transform="scale(0.015625)"/>
      <path id="DejaVuSans-3d" d="M 678 2906 
L 4684 2906 
L 4684 2381 
L 678 2381 
L 678 2906 
z
M 678 1631 
L 4684 1631 
L 4684 1100 
L 678 1100 
L 678 1631 
z
" transform="scale(0.015625)"/>
     </defs>
     <use xlink:href="#DejaVuSans-73" transform="translate(0 0.390625)"/>
     <use xlink:href="#DejaVuSans-69" transform="translate(52.099609 0.390625)"/>
     <use xlink:href="#DejaVuSans-6e" transform="translate(79.882812 0.390625)"/>
     <use xlink:href="#DejaVuSans-28" transform="translate(143.261719 0.390625)"/>
     <use xlink:href="#DejaVuSans-Oblique-3b1" transform="translate(182.275391 0.390625)"/>
     <use xlink:href="#DejaVuSans-2b" transform="translate(267.675781 0.390625)"/>
     <use xlink:href="#DejaVuSans-Oblique-3b2" transform="translate(370.947266 0.390625)"/>
     <use xlink:href="#DejaVuSans-29" transform="translate(434.765625 0.390625)"/>
     <use xlink:href="#DejaVuSans-3d" transform="translate(493.261719 0.390625)"/>
     <use xlink:href="#DejaVuSans-73" transform="translate(596.533203 0.390625)"/>
     <use xlink:href="#DejaVuSans-69" transform="translate(648.632812 0.390625)"/>
     <use xlink:href="#DejaVuSans-6e" transform="translate(676.416016 0.390625)"/>
     <use xlink:href="#DejaVuSans-Oblique-3b1" transform="translate(756.030598 0.390625)"/>
     <use xlink:href="#DejaVuSans-63" transform="translate(821.948567 0.390625)"/>
     <use xlink:href="#DejaVuSans-6f" transform="translate(876.929036 0.390625)"/>
     <use xlink:href="#DejaVuSans-73" transform="translate(938.110676 0.390625)"/>
     <use xlink:href="#DejaVuSans-Oblique-3b2" transform="translate(1006.445962 0.390625)"/>
     <use xlink:href="#DejaVuSans-2b" transform="translate(1089.746743 0.390625)"/>
     <use xlink:href="#DejaVuSans-63" transform="translate(1193.018228 0.390625)"/>
     <use xlink:href="#DejaVuSans-6f" transform="translate(1247.998696 0.390625)"/>
     <use xlink:href="#DejaVuSans-73" transform="translate(1309.180337 0.390625)"/>
     <use xlink:href="#DejaVuSans-Oblique-3b1" transform="translate(1377.515623 0.390625)"/>
     <use xlink:href="#DejaVuSans-73" transform="translate(1443.433591 0.390625)"/>
     <use xlink:href="#DejaVuSans-69" transform="translate(1495.533201 0.390625)"/>
     <use xlink:href="#DejaVuSans-6e" transform="translate(1523.316404 0.390625)"/>
     <use xlink:href="#DejaVuSans-Oblique-3b2" transform="translate(1602.930986 0.390625)"/>
    </g>
   </g>
   <g id="text_15">
    <!-- $\sin(\alpha - \beta) = \sin\alpha\cos\beta - \cos\alpha\sin\beta$ -->
    <g style="fill: #1f2937" transform="translate(171.024878 506.618813) scale(0.11 -0.11)">
     <use xlink:href="#DejaVuSans-73" transform="translate(0 0.390625)"/>
     <use xlink:href="#DejaVuSans-69" transform="translate(52.099609 0.390625)"/>
     <use xlink:href="#DejaVuSans-6e" transform="translate(79.882812 0.390625)"/>
     <use xlink:href="#DejaVuSans-28" transform="translate(143.261719 0.390625)"/>
     <use xlink:href="#DejaVuSans-Oblique-3b1" transform="translate(182.275391 0.390625)"/>
     <use xlink:href="#DejaVuSans-2212" transform="translate(267.675781 0.390625)"/>
     <use xlink:href="#DejaVuSans-Oblique-3b2" transform="translate(370.947266 0.390625)"/>
     <use xlink:href="#DejaVuSans-29" transform="translate(434.765625 0.390625)"/>
     <use xlink:href="#DejaVuSans-3d" transform="translate(493.261719 0.390625)"/>
     <use xlink:href="#DejaVuSans-73" transform="translate(596.533203 0.390625)"/>
     <use xlink:href="#DejaVuSans-69" transform="translate(648.632812 0.390625)"/>
     <use xlink:href="#DejaVuSans-6e" transform="translate(676.416016 0.390625)"/>
     <use xlink:href="#DejaVuSans-Oblique-3b1" transform="translate(756.030598 0.390625)"/>
     <use xlink:href="#DejaVuSans-63" transform="translate(821.948567 0.390625)"/>
     <use xlink:href="#DejaVuSans-6f" transform="translate(876.929036 0.390625)"/>
     <use xlink:href="#DejaVuSans-73" transform="translate(938.110676 0.390625)"/>
     <use xlink:href="#DejaVuSans-Oblique-3b2" transform="translate(1006.445962 0.390625)"/>
     <use xlink:href="#DejaVuSans-2212" transform="translate(1089.746743 0.390625)"/>
     <use xlink:href="#DejaVuSans-63" transform="translate(1193.018228 0.390625)"/>
     <use xlink:href="#DejaVuSans-6f" transform="translate(1247.998696 0.390625)"/>
     <use xlink:href="#DejaVuSans-73" transform="translate(1309.180337 0.390625)"/>
     <use xlink:href="#DejaVuSans-Oblique-3b1" transform="translate(1377.515623 0.390625)"/>
     <use xlink:href="#DejaVuSans-73" transform="translate(1443.433591 0.390625)"/>
     <use xlink:href="#DejaVuSans-69" transform="translate(1495.533201 0.390625)"/>
     <use xlink:href="#DejaVuSans-6e" transform="translate(1523.316404 0.390625)"/>
     <use xlink:href="#DejaVuSans-Oblique-3b2" transform="translate(1602.930986 0.390625)"/>
    </g>
   </g>
   <g id="text_16">
    <!-- COSENO -->
    <g style="fill: #7c3aed" transform="translate(725.643392 417.485289) scale(0.12 -0.12)">
     <defs>
      <path id="DejaVuSans-Bold-43" d="M 4288 256 
Q 3956 84 3597 -3 
Q 3238 -91 2847 -91 
Q 1681 -91 1000 561 
Q 319 1213 319 2328 
Q 319 3447 1000 4098 
Q 1681 4750 2847 4750 
Q 3238 4750 3597 4662 
Q 3956 4575 4288 4403 
L 4288 3438 
Q 3953 3666 3628 3772 
Q 3303 3878 2944 3878 
Q 2300 3878 1931 3465 
Q 1563 3053 1563 2328 
Q 1563 1606 1931 1193 
Q 2300 781 2944 781 
Q 3303 781 3628 887 
Q 3953 994 4288 1222 
L 4288 256 
z
" transform="scale(0.015625)"/>
     </defs>
     <use xlink:href="#DejaVuSans-Bold-43"/>
     <use xlink:href="#DejaVuSans-Bold-4f" transform="translate(73.388672 0)"/>
     <use xlink:href="#DejaVuSans-Bold-53" transform="translate(158.398438 0)"/>
     <use xlink:href="#DejaVuSans-Bold-45" transform="translate(230.419922 0)"/>
     <use xlink:href="#DejaVuSans-Bold-4e" transform="translate(298.730469 0)"/>
     <use xlink:href="#DejaVuSans-Bold-4f" transform="translate(382.421875 0)"/>
    </g>
   </g>
   <g id="text_17">
    <!-- $\cos(\alpha + \beta) = \cos\alpha\cos\beta - \sin\alpha\sin\beta$ -->
    <g style="fill: #1f2937" transform="translate(660.629642 457.100189) scale(0.11 -0.11)">
     <use xlink:href="#DejaVuSans-63" transform="translate(0 0.390625)"/>
     <use xlink:href="#DejaVuSans-6f" transform="translate(54.980469 0.390625)"/>
     <use xlink:href="#DejaVuSans-73" transform="translate(116.162109 0.390625)"/>
     <use xlink:href="#DejaVuSans-28" transform="translate(168.261719 0.390625)"/>
     <use xlink:href="#DejaVuSans-Oblique-3b1" transform="translate(207.275391 0.390625)"/>
     <use xlink:href="#DejaVuSans-2b" transform="translate(292.675781 0.390625)"/>
     <use xlink:href="#DejaVuSans-Oblique-3b2" transform="translate(395.947266 0.390625)"/>
     <use xlink:href="#DejaVuSans-29" transform="translate(459.765625 0.390625)"/>
     <use xlink:href="#DejaVuSans-3d" transform="translate(518.261719 0.390625)"/>
     <use xlink:href="#DejaVuSans-63" transform="translate(621.533203 0.390625)"/>
     <use xlink:href="#DejaVuSans-6f" transform="translate(676.513672 0.390625)"/>
     <use xlink:href="#DejaVuSans-73" transform="translate(737.695312 0.390625)"/>
     <use xlink:href="#DejaVuSans-Oblique-3b1" transform="translate(806.030598 0.390625)"/>
     <use xlink:href="#DejaVuSans-63" transform="translate(871.948567 0.390625)"/>
     <use xlink:href="#DejaVuSans-6f" transform="translate(926.929036 0.390625)"/>
     <use xlink:href="#DejaVuSans-73" transform="translate(988.110676 0.390625)"/>
     <use xlink:href="#DejaVuSans-Oblique-3b2" transform="translate(1056.445962 0.390625)"/>
     <use xlink:href="#DejaVuSans-2212" transform="translate(1139.746743 0.390625)"/>
     <use xlink:href="#DejaVuSans-73" transform="translate(1243.018228 0.390625)"/>
     <use xlink:href="#DejaVuSans-69" transform="translate(1295.117837 0.390625)"/>
     <use xlink:href="#DejaVuSans-6e" transform="translate(1322.90104 0.390625)"/>
     <use xlink:href="#DejaVuSans-Oblique-3b1" transform="translate(1402.515623 0.390625)"/>
     <use xlink:href="#DejaVuSans-73" transform="translate(1468.433591 0.390625)"/>
     <use xlink:href="#DejaVuSans-69" transform="translate(1520.533201 0.390625)"/>
     <use xlink:href="#DejaVuSans-6e" transform="translate(1548.316404 0.390625)"/>
     <use xlink:href="#DejaVuSans-Oblique-3b2" transform="translate(1627.930986 0.390625)"/>
    </g>
   </g>
   <g id="text_18">
    <!-- $\cos(\alpha - \beta) = \cos\alpha\cos\beta + \sin\alpha\sin\beta$ -->
    <g style="fill: #1f2937" transform="translate(660.629642 506.618813) scale(0.11 -0.11)">
     <use xlink:href="#DejaVuSans-63" transform="translate(0 0.390625)"/>
     <use xlink:href="#DejaVuSans-6f" transform="translate(54.980469 0.390625)"/>
     <use xlink:href="#DejaVuSans-73" transform="translate(116.162109 0.390625)"/>
     <use xlink:href="#DejaVuSans-28" transform="translate(168.261719 0.390625)"/>
     <use xlink:href="#DejaVuSans-Oblique-3b1" transform="translate(207.275391 0.390625)"/>
     <use xlink:href="#DejaVuSans-2212" transform="translate(292.675781 0.390625)"/>
     <use xlink:href="#DejaVuSans-Oblique-3b2" transform="translate(395.947266 0.390625)"/>
     <use xlink:href="#DejaVuSans-29" transform="translate(459.765625 0.390625)"/>
     <use xlink:href="#DejaVuSans-3d" transform="translate(518.261719 0.390625)"/>
     <use xlink:href="#DejaVuSans-63" transform="translate(621.533203 0.390625)"/>
     <use xlink:href="#DejaVuSans-6f" transform="translate(676.513672 0.390625)"/>
     <use xlink:href="#DejaVuSans-73" transform="translate(737.695312 0.390625)"/>
     <use xlink:href="#DejaVuSans-Oblique-3b1" transform="translate(806.030598 0.390625)"/>
     <use xlink:href="#DejaVuSans-63" transform="translate(871.948567 0.390625)"/>
     <use xlink:href="#DejaVuSans-6f" transform="translate(926.929036 0.390625)"/>
     <use xlink:href="#DejaVuSans-73" transform="translate(988.110676 0.390625)"/>
     <use xlink:href="#DejaVuSans-Oblique-3b2" transform="translate(1056.445962 0.390625)"/>
     <use xlink:href="#DejaVuSans-2b" transform="translate(1139.746743 0.390625)"/>
     <use xlink:href="#DejaVuSans-73" transform="translate(1243.018228 0.390625)"/>
     <use xlink:href="#DejaVuSans-69" transform="translate(1295.117837 0.390625)"/>
     <use xlink:href="#DejaVuSans-6e" transform="translate(1322.90104 0.390625)"/>
     <use xlink:href="#DejaVuSans-Oblique-3b1" transform="translate(1402.515623 0.390625)"/>
     <use xlink:href="#DejaVuSans-73" transform="translate(1468.433591 0.390625)"/>
     <use xlink:href="#DejaVuSans-69" transform="translate(1520.533201 0.390625)"/>
     <use xlink:href="#DejaVuSans-6e" transform="translate(1548.316404 0.390625)"/>
     <use xlink:href="#DejaVuSans-Oblique-3b2" transform="translate(1627.930986 0.390625)"/>
    </g>
   </g>
   <g id="text_19">
    <!-- TANGENTE -->
    <g style="fill: #f59e0b" transform="translate(472.670385 572.643646) scale(0.12 -0.12)">
     <defs>
      <path id="DejaVuSans-Bold-54" d="M 31 4666 
L 4331 4666 
L 4331 3756 
L 2784 3756 
L 2784 0 
L 1581 0 
L 1581 3756 
L 31 3756 
L 31 4666 
z
" transform="scale(0.015625)"/>
      <path id="DejaVuSans-Bold-41" d="M 3419 850 
L 1538 850 
L 1241 0 
L 31 0 
L 1759 4666 
L 3194 4666 
L 4922 0 
L 3713 0 
L 3419 850 
z
M 1838 1716 
L 3116 1716 
L 2478 3572 
L 1838 1716 
z
" transform="scale(0.015625)"/>
      <path id="DejaVuSans-Bold-47" d="M 4781 347 
Q 4331 128 3847 18 
Q 3363 -91 2847 -91 
Q 1681 -91 1000 561 
Q 319 1213 319 2328 
Q 319 3456 1012 4103 
Q 1706 4750 2913 4750 
Q 3378 4750 3804 4662 
Q 4231 4575 4609 4403 
L 4609 3438 
Q 4219 3659 3833 3768 
Q 3447 3878 3059 3878 
Q 2341 3878 1952 3476 
Q 1563 3075 1563 2328 
Q 1563 1588 1938 1184 
Q 2313 781 3003 781 
Q 3191 781 3352 804 
Q 3513 828 3641 878 
L 3641 1784 
L 2906 1784 
L 2906 2591 
L 4781 2591 
L 4781 347 
z
" transform="scale(0.015625)"/>
     </defs>
     <use xlink:href="#DejaVuSans-Bold-54"/>
     <use xlink:href="#DejaVuSans-Bold-41" transform="translate(60.462891 0)"/>
     <use xlink:href="#DejaVuSans-Bold-4e" transform="translate(137.855469 0)"/>
     <use xlink:href="#DejaVuSans-Bold-47" transform="translate(221.546875 0)"/>
     <use xlink:href="#DejaVuSans-Bold-45" transform="translate(303.626953 0)"/>
     <use xlink:href="#DejaVuSans-Bold-4e" transform="translate(371.9375 0)"/>
     <use xlink:href="#DejaVuSans-Bold-54" transform="translate(455.628906 0)"/>
     <use xlink:href="#DejaVuSans-Bold-45" transform="translate(523.841797 0)"/>
    </g>
   </g>
   <g id="text_20">
    <!-- $\tan(\alpha + \beta) = \frac{\tan\alpha + \tan\beta}{1 - \tan\alpha\tan\beta}$ -->
    <g style="fill: #1f2937" transform="translate(441.95976 615.559788) scale(0.12 -0.12)">
     <defs>
      <path id="DejaVuSans-74" d="M 1172 4494 
L 1172 3500 
L 2356 3500 
L 2356 3053 
L 1172 3053 
L 1172 1153 
Q 1172 725 1289 603 
Q 1406 481 1766 481 
L 2356 481 
L 2356 0 
L 1766 0 
Q 1100 0 847 248 
Q 594 497 594 1153 
L 594 3053 
L 172 3053 
L 172 3500 
L 594 3500 
L 594 4494 
L 1172 4494 
z
" transform="scale(0.015625)"/>
      <path id="DejaVuSans-61" d="M 2194 1759 
Q 1497 1759 1228 1600 
Q 959 1441 959 1056 
Q 959 750 1161 570 
Q 1363 391 1709 391 
Q 2188 391 2477 730 
Q 2766 1069 2766 1631 
L 2766 1759 
L 2194 1759 
z
M 3341 1997 
L 3341 0 
L 2766 0 
L 2766 531 
Q 2569 213 2275 61 
Q 1981 -91 1556 -91 
Q 1019 -91 701 211 
Q 384 513 384 1019 
Q 384 1609 779 1909 
Q 1175 2209 1959 2209 
L 2766 2209 
L 2766 2266 
Q 2766 2663 2505 2880 
Q 2244 3097 1772 3097 
Q 1472 3097 1187 3025 
Q 903 2953 641 2809 
L 641 3341 
Q 956 3463 1253 3523 
Q 1550 3584 1831 3584 
Q 2591 3584 2966 3190 
Q 3341 2797 3341 1997 
z
" transform="scale(0.015625)"/>
      <path id="DejaVuSans-31" d="M 794 531 
L 1825 531 
L 1825 4091 
L 703 3866 
L 703 4441 
L 1819 4666 
L 2450 4666 
L 2450 531 
L 3481 531 
L 3481 0 
L 794 0 
L 794 531 
z
" transform="scale(0.015625)"/>
     </defs>
     <use xlink:href="#DejaVuSans-74" transform="translate(0 0.01875)"/>
     <use xlink:href="#DejaVuSans-61" transform="translate(39.208984 0.01875)"/>
     <use xlink:href="#DejaVuSans-6e" transform="translate(100.488281 0.01875)"/>
     <use xlink:href="#DejaVuSans-28" transform="translate(163.867188 0.01875)"/>
     <use xlink:href="#DejaVuSans-Oblique-3b1" transform="translate(202.880859 0.01875)"/>
     <use xlink:href="#DejaVuSans-2b" transform="translate(288.28125 0.01875)"/>
     <use xlink:href="#DejaVuSans-Oblique-3b2" transform="translate(391.552734 0.01875)"/>
     <use xlink:href="#DejaVuSans-29" transform="translate(455.371094 0.01875)"/>
     <use xlink:href="#DejaVuSans-3d" transform="translate(513.867188 0.01875)"/>
     <use xlink:href="#DejaVuSans-74" transform="translate(639.138672 58.373438) scale(0.7)"/>
     <use xlink:href="#DejaVuSans-61" transform="translate(666.584961 58.373438) scale(0.7)"/>
     <use xlink:href="#DejaVuSans-6e" transform="translate(709.480469 58.373438) scale(0.7)"/>
     <use xlink:href="#DejaVuSans-Oblique-3b1" transform="translate(765.210677 58.373438) scale(0.7)"/>
     <use xlink:href="#DejaVuSans-2b" transform="translate(824.99095 58.373438) scale(0.7)"/>
     <use xlink:href="#DejaVuSans-74" transform="translate(897.280989 58.373438) scale(0.7)"/>
     <use xlink:href="#DejaVuSans-61" transform="translate(924.727278 58.373438) scale(0.7)"/>
     <use xlink:href="#DejaVuSans-6e" transform="translate(967.622786 58.373438) scale(0.7)"/>
     <use xlink:href="#DejaVuSans-Oblique-3b2" transform="translate(1023.352994 58.373438) scale(0.7)"/>
     <use xlink:href="#DejaVuSans-31" transform="translate(617.138672 -41.060937) scale(0.7)"/>
     <use xlink:href="#DejaVuSans-2212" transform="translate(675.3125 -41.060937) scale(0.7)"/>
     <use xlink:href="#DejaVuSans-74" transform="translate(747.602539 -41.060937) scale(0.7)"/>
     <use xlink:href="#DejaVuSans-61" transform="translate(775.048828 -41.060937) scale(0.7)"/>
     <use xlink:href="#DejaVuSans-6e" transform="translate(817.944336 -41.060937) scale(0.7)"/>
     <use xlink:href="#DejaVuSans-Oblique-3b1" transform="translate(873.674544 -41.060937) scale(0.7)"/>
     <use xlink:href="#DejaVuSans-74" transform="translate(919.817122 -41.060937) scale(0.7)"/>
     <use xlink:href="#DejaVuSans-61" transform="translate(947.263411 -41.060937) scale(0.7)"/>
     <use xlink:href="#DejaVuSans-6e" transform="translate(990.158919 -41.060937) scale(0.7)"/>
     <use xlink:href="#DejaVuSans-Oblique-3b2" transform="translate(1045.889126 -41.060937) scale(0.7)"/>
     <path d="M 617.138672 18.815625 
L 617.138672 25.065625 
L 1090.561978 25.065625 
L 1090.561978 18.815625 
L 617.138672 18.815625 
z
"/>
    </g>
   </g>
   <g id="text_21">
    <!-- $\tan(\alpha - \beta) = \frac{\tan\alpha - \tan\beta}{1 + \tan\alpha\tan\beta}$ -->
    <g style="fill: #1f2937" transform="translate(441.95976 665.078412) scale(0.12 -0.12)">
     <use xlink:href="#DejaVuSans-74" transform="translate(0 0.01875)"/>
     <use xlink:href="#DejaVuSans-61" transform="translate(39.208984 0.01875)"/>
     <use xlink:href="#DejaVuSans-6e" transform="translate(100.488281 0.01875)"/>
     <use xlink:href="#DejaVuSans-28" transform="translate(163.867188 0.01875)"/>
     <use xlink:href="#DejaVuSans-Oblique-3b1" transform="translate(202.880859 0.01875)"/>
     <use xlink:href="#DejaVuSans-2212" transform="translate(288.28125 0.01875)"/>
     <use xlink:href="#DejaVuSans-Oblique-3b2" transform="translate(391.552734 0.01875)"/>
     <use xlink:href="#DejaVuSans-29" transform="translate(455.371094 0.01875)"/>
     <use xlink:href="#DejaVuSans-3d" transform="translate(513.867188 0.01875)"/>
     <use xlink:href="#DejaVuSans-74" transform="translate(639.138672 58.373438) scale(0.7)"/>
     <use xlink:href="#DejaVuSans-61" transform="translate(666.584961 58.373438) scale(0.7)"/>
     <use xlink:href="#DejaVuSans-6e" transform="translate(709.480469 58.373438) scale(0.7)"/>
     <use xlink:href="#DejaVuSans-Oblique-3b1" transform="translate(765.210677 58.373438) scale(0.7)"/>
     <use xlink:href="#DejaVuSans-2212" transform="translate(824.99095 58.373438) scale(0.7)"/>
     <use xlink:href="#DejaVuSans-74" transform="translate(897.280989 58.373438) scale(0.7)"/>
     <use xlink:href="#DejaVuSans-61" transform="translate(924.727278 58.373438) scale(0.7)"/>
     <use xlink:href="#DejaVuSans-6e" transform="translate(967.622786 58.373438) scale(0.7)"/>
     <use xlink:href="#DejaVuSans-Oblique-3b2" transform="translate(1023.352994 58.373438) scale(0.7)"/>
     <use xlink:href="#DejaVuSans-31" transform="translate(617.138672 -41.060937) scale(0.7)"/>
     <use xlink:href="#DejaVuSans-2b" transform="translate(675.3125 -41.060937) scale(0.7)"/>
     <use xlink:href="#DejaVuSans-74" transform="translate(747.602539 -41.060937) scale(0.7)"/>
     <use xlink:href="#DejaVuSans-61" transform="translate(775.048828 -41.060937) scale(0.7)"/>
     <use xlink:href="#DejaVuSans-6e" transform="translate(817.944336 -41.060937) scale(0.7)"/>
     <use xlink:href="#DejaVuSans-Oblique-3b1" transform="translate(873.674544 -41.060937) scale(0.7)"/>
     <use xlink:href="#DejaVuSans-74" transform="translate(919.817122 -41.060937) scale(0.7)"/>
     <use xlink:href="#DejaVuSans-61" transform="translate(947.263411 -41.060937) scale(0.7)"/>
     <use xlink:href="#DejaVuSans-6e" transform="translate(990.158919 -41.060937) scale(0.7)"/>
     <use xlink:href="#DejaVuSans-Oblique-3b2" transform="translate(1045.889126 -41.060937) scale(0.7)"/>
     <path d="M 617.138672 18.815625 
L 617.138672 25.065625 
L 1090.561978 25.065625 
L 1090.561978 18.815625 
L 617.138672 18.815625 
z
"/>
    </g>
   </g>
  </g>
  <g id="text_22">
   <!-- Identidades de Suma y Diferencia de Ángulos -->
   <g style="fill: #1f2937" transform="translate(328.476948 20.152187) scale(0.14 -0.14)">
    <defs>
     <path id="DejaVuSans-Bold-49" d="M 588 4666 
L 1791 4666 
L 1791 0 
L 588 0 
L 588 4666 
z
" transform="scale(0.015625)"/>
     <path id="DejaVuSans-Bold-74" d="M 1759 4494 
L 1759 3500 
L 2913 3500 
L 2913 2700 
L 1759 2700 
L 1759 1216 
Q 1759 972 1856 886 
Q 1953 800 2241 800 
L 2816 800 
L 2816 0 
L 1856 0 
Q 1194 0 917 276 
Q 641 553 641 1216 
L 641 2700 
L 84 2700 
L 84 3500 
L 641 3500 
L 641 4494 
L 1759 4494 
z
" transform="scale(0.015625)"/>
     <path id="DejaVuSans-Bold-79" d="M 78 3500 
L 1197 3500 
L 2138 1125 
L 2938 3500 
L 4056 3500 
L 2584 -331 
Q 2363 -916 2067 -1148 
Q 1772 -1381 1288 -1381 
L 641 -1381 
L 641 -647 
L 991 -647 
Q 1275 -647 1404 -556 
Q 1534 -466 1606 -231 
L 1638 -134 
L 78 3500 
z
" transform="scale(0.015625)"/>
     <path id="DejaVuSans-Bold-c1" d="M 3419 850 
L 1538 850 
L 1241 0 
L 31 0 
L 1759 4666 
L 3194 4666 
L 4922 0 
L 3713 0 
L 3419 850 
z
M 1838 1716 
L 3116 1716 
L 2478 3572 
L 1838 1716 
z
M 2559 5921 
L 3444 5921 
L 2553 5096 
L 1941 5096 
L 2559 5921 
z
" transform="scale(0.015625)"/>
    </defs>
    <use xlink:href="#DejaVuSans-Bold-49"/>
    <use xlink:href="#DejaVuSans-Bold-64" transform="translate(37.207031 0)"/>
    <use xlink:href="#DejaVuSans-Bold-65" transform="translate(108.789062 0)"/>
    <use xlink:href="#DejaVuSans-Bold-6e" transform="translate(176.611328 0)"/>
    <use xlink:href="#DejaVuSans-Bold-74" transform="translate(247.802734 0)"/>
    <use xlink:href="#DejaVuSans-Bold-69" transform="translate(295.605469 0)"/>
    <use xlink:href="#DejaVuSans-Bold-64" transform="translate(329.882812 0)"/>
    <use xlink:href="#DejaVuSans-Bold-61" transform="translate(401.464844 0)"/>
    <use xlink:href="#DejaVuSans-Bold-64" transform="translate(468.945312 0)"/>
    <use xlink:href="#DejaVuSans-Bold-65" transform="translate(540.527344 0)"/>
    <use xlink:href="#DejaVuSans-Bold-73" transform="translate(608.349609 0)"/>
    <use xlink:href="#DejaVuSans-Bold-20" transform="translate(667.871094 0)"/>
    <use xlink:href="#DejaVuSans-Bold-64" transform="translate(702.685547 0)"/>
    <use xlink:href="#DejaVuSans-Bold-65" transform="translate(774.267578 0)"/>
    <use xlink:href="#DejaVuSans-Bold-20" transform="translate(842.089844 0)"/>
    <use xlink:href="#DejaVuSans-Bold-53" transform="translate(876.904297 0)"/>
    <use xlink:href="#DejaVuSans-Bold-75" transform="translate(948.925781 0)"/>
    <use xlink:href="#DejaVuSans-Bold-6d" transform="translate(1020.117188 0)"/>
    <use xlink:href="#DejaVuSans-Bold-61" transform="translate(1124.316406 0)"/>
    <use xlink:href="#DejaVuSans-Bold-20" transform="translate(1191.796875 0)"/>
    <use xlink:href="#DejaVuSans-Bold-79" transform="translate(1226.611328 0)"/>
    <use xlink:href="#DejaVuSans-Bold-20" transform="translate(1291.796875 0)"/>
    <use xlink:href="#DejaVuSans-Bold-44" transform="translate(1326.611328 0)"/>
    <use xlink:href="#DejaVuSans-Bold-69" transform="translate(1409.619141 0)"/>
    <use xlink:href="#DejaVuSans-Bold-66" transform="translate(1443.896484 0)"/>
    <use xlink:href="#DejaVuSans-Bold-65" transform="translate(1487.402344 0)"/>
    <use xlink:href="#DejaVuSans-Bold-72" transform="translate(1555.224609 0)"/>
    <use xlink:href="#DejaVuSans-Bold-65" transform="translate(1604.541016 0)"/>
    <use xlink:href="#DejaVuSans-Bold-6e" transform="translate(1672.363281 0)"/>
    <use xlink:href="#DejaVuSans-Bold-63" transform="translate(1743.554688 0)"/>
    <use xlink:href="#DejaVuSans-Bold-69" transform="translate(1802.832031 0)"/>
    <use xlink:href="#DejaVuSans-Bold-61" transform="translate(1837.109375 0)"/>
    <use xlink:href="#DejaVuSans-Bold-20" transform="translate(1904.589844 0)"/>
    <use xlink:href="#DejaVuSans-Bold-64" transform="translate(1939.404297 0)"/>
    <use xlink:href="#DejaVuSans-Bold-65" transform="translate(2010.986328 0)"/>
    <use xlink:href="#DejaVuSans-Bold-20" transform="translate(2078.808594 0)"/>
    <use xlink:href="#DejaVuSans-Bold-c1" transform="translate(2113.623047 0)"/>
    <use xlink:href="#DejaVuSans-Bold-6e" transform="translate(2191.015625 0)"/>
    <use xlink:href="#DejaVuSans-Bold-67" transform="translate(2262.207031 0)"/>
    <use xlink:href="#DejaVuSans-Bold-75" transform="translate(2333.789062 0)"/>
    <use xlink:href="#DejaVuSans-Bold-6c" transform="translate(2404.980469 0)"/>
    <use xlink:href="#DejaVuSans-Bold-6f" transform="translate(2439.257812 0)"/>
    <use xlink:href="#DejaVuSans-Bold-73" transform="translate(2507.958984 0)"/>
   </g>
  </g>
 </g>
 <defs>
  <clipPath id="p478e1d3bf9">
   <rect x="72.022856" y="43.971886" width="320.954048" height="275.10347"/>
  </clipPath>
  <clipPath id="p1bc51f4ed5">
   <rect x="646.347905" y="43.971886" width="275.10347" height="275.10347"/>
  </clipPath>
  <clipPath id="p433766a735">
   <rect x="7.2" y="391.075356" width="1001.99952" height="330.124164"/>
  </clipPath>
 </defs>
</svg>
