<?xml version="1.0" encoding="utf-8" standalone="no"?>
<!DOCTYPE svg PUBLIC "-//W3C//DTD SVG 1.1//EN"
  "http://www.w3.org/Graphics/SVG/1.1/DTD/svg11.dtd">
<svg xmlns:xlink="http://www.w3.org/1999/xlink" width="1016.39952pt" height="584.39952pt" viewBox="0 0 1016.39952 584.39952" xmlns="http://www.w3.org/2000/svg" version="1.1">
 <metadata>
  <rdf:RDF xmlns:dc="http://purl.org/dc/elements/1.1/" xmlns:cc="http://creativecommons.org/ns#" xmlns:rdf="http://www.w3.org/1999/02/22-rdf-syntax-ns#">
   <cc:Work>
    <dc:type rdf:resource="http://purl.org/dc/dcmitype/StillImage"/>
    <dc:date>2026-01-04T20:53:20.335658</dc:date>
    <dc:format>image/svg+xml</dc:format>
    <dc:creator>
     <cc:Agent>
      <dc:title>Repositorio Matemáticas Universitarias</dc:title>
     </cc:Agent>
    </dc:creator>
   </cc:Work>
  </rdf:RDF>
 </metadata>
 <defs>
  <style type="text/css">*{stroke-linejoin: round; stroke-linecap: butt}</style>
 </defs>
 <g id="figure_1">
  <g id="patch_1">
   <path d="M 0 584.39952 
L 1016.39952 584.39952 
L 1016.39952 0 
L 0 0 
z
" style="fill: #ffffff"/>
  </g>
  <g id="axes_1">
   <g id="patch_2">
    <path d="M 68.397788 437.538762 
L 461.812137 437.538762 
L 182.050822 175.262529 
z
" clip-path="url(#peab1e8e73c)" style="fill: #eff6ff; stroke: #2563eb; stroke-width: 2.5; stroke-linejoin: miter"/>
   </g>
   <g id="line2d_1">
    <path d="M 182.050822 175.262529 
L 182.050822 437.538762 
" clip-path="url(#peab1e8e73c)" style="fill: none; stroke-dasharray: 7.4,3.2; stroke-dashoffset: 0; stroke: #9ca3af; stroke-width: 2"/>
   </g>
   <g id="line2d_2">
    <path d="M 195.164633 437.538762 
L 195.164633 424.42495 
L 182.050822 424.42495 
" clip-path="url(#peab1e8e73c)" style="fill: none; stroke: #6b7280; stroke-linecap: square"/>
   </g>
   <g id="line2d_3">
    <path d="M 461.812137 437.538762 
L 182.050822 175.262529 
" clip-path="url(#peab1e8e73c)" style="fill: none; stroke: #dc2626; stroke-width: 3; stroke-linecap: square"/>
   </g>
   <g id="line2d_4">
    <path d="M 68.397788 437.538762 
L 182.050822 175.262529 
" clip-path="url(#peab1e8e73c)" style="fill: none; stroke: #7c3aed; stroke-width: 3; stroke-linecap: square"/>
   </g>
   <g id="line2d_5">
    <path d="M 68.397788 437.538762 
L 461.812137 437.538762 
" clip-path="url(#peab1e8e73c)" style="fill: none; stroke: #f59e0b; stroke-width: 3; stroke-linecap: square"/>
   </g>
   <g id="line2d_6">
    <path d="M 68.397788 437.538762 
L 182.050822 437.538762 
" clip-path="url(#peab1e8e73c)" style="fill: none; stroke: #ec4899; stroke-width: 2.5; stroke-linecap: square"/>
   </g>
   <g id="line2d_7">
    <path d="M 182.050822 437.538762 
L 461.812137 437.538762 
" clip-path="url(#peab1e8e73c)" style="fill: none; stroke: #8b5cf6; stroke-width: 2.5; stroke-linecap: square"/>
   </g>
   <g id="line2d_8">
    <path d="M 112.110493 437.538762 
L 112.075414 435.787876 
L 111.970232 434.039799 
L 111.795116 432.297339 
L 111.550348 430.563291 
L 111.236319 428.840439 
L 110.853535 427.131548 
L 110.40261 425.43936 
L 109.884267 423.766592 
L 109.299338 422.115928 
L 108.648762 420.490017 
L 107.933583 418.89147 
L 107.15495 417.322852 
L 106.314111 415.78668 
L 105.412416 414.285421 
L 104.451313 412.821483 
L 103.432345 411.397216 
L 102.357145 410.014906 
L 101.227441 408.676772 
L 100.045046 407.384962 
L 98.811856 406.141548 
L 97.529853 404.948527 
L 96.201092 403.807813 
L 94.827707 402.721238 
L 93.411901 401.690544 
L 91.955949 400.717387 
L 90.462185 399.803328 
L 88.933008 398.949834 
L 87.370872 398.158276 
L 85.778284 397.429923 
" clip-path="url(#peab1e8e73c)" style="fill: none; stroke: #f59e0b; stroke-width: 2; stroke-linecap: square"/>
   </g>
   <g id="text_1">
    <!-- h -->
    <g style="fill: #6b7280" transform="translate(190.793363 306.400646) scale(0.11 -0.11)">
     <defs>
      <path id="DejaVuSans-Oblique-68" d="M 3566 2113 
L 3156 0 
L 2578 0 
L 2988 2091 
Q 3016 2238 3031 2350 
Q 3047 2463 3047 2528 
Q 3047 2791 2881 2937 
Q 2716 3084 2419 3084 
Q 1956 3084 1617 2771 
Q 1278 2459 1178 1941 
L 800 0 
L 225 0 
L 1172 4863 
L 1747 4863 
L 1375 2950 
Q 1594 3244 1934 3414 
Q 2275 3584 2650 3584 
Q 3113 3584 3367 3334 
Q 3622 3084 3622 2631 
Q 3622 2519 3608 2391 
Q 3594 2263 3566 2113 
z
" transform="scale(0.015625)"/>
     </defs>
     <use xlink:href="#DejaVuSans-Oblique-68"/>
    </g>
   </g>
   <g id="text_2">
    <!-- x -->
    <g style="fill: #ec4899" transform="translate(121.676805 459.395115) scale(0.11 -0.11)">
     <defs>
      <path id="DejaVuSans-Bold-78" d="M 1422 1791 
L 159 3500 
L 1344 3500 
L 2059 2463 
L 2784 3500 
L 3969 3500 
L 2706 1797 
L 4031 0 
L 2847 0 
L 2059 1106 
L 1281 0 
L 97 0 
L 1422 1791 
z
" transform="scale(0.015625)"/>
     </defs>
     <use xlink:href="#DejaVuSans-Bold-78"/>
    </g>
   </g>
   <g id="text_3">
    <!-- c - x -->
    <g style="fill: #8b5cf6" transform="translate(309.011636 459.395115) scale(0.11 -0.11)">
     <defs>
      <path id="DejaVuSans-Bold-63" d="M 3366 3391 
L 3366 2478 
Q 3138 2634 2908 2709 
Q 2678 2784 2431 2784 
Q 1963 2784 1702 2511 
Q 1441 2238 1441 1747 
Q 1441 1256 1702 982 
Q 1963 709 2431 709 
Q 2694 709 2930 787 
Q 3166 866 3366 1019 
L 3366 103 
Q 3103 6 2833 -42 
Q 2563 -91 2291 -91 
Q 1344 -91 809 395 
Q 275 881 275 1747 
Q 275 2613 809 3098 
Q 1344 3584 2291 3584 
Q 2566 3584 2833 3536 
Q 3100 3488 3366 3391 
z
" transform="scale(0.015625)"/>
      <path id="DejaVuSans-Bold-20" transform="scale(0.015625)"/>
      <path id="DejaVuSans-Bold-2d" d="M 347 2297 
L 2309 2297 
L 2309 1388 
L 347 1388 
L 347 2297 
z
" transform="scale(0.015625)"/>
     </defs>
     <use xlink:href="#DejaVuSans-Bold-63"/>
     <use xlink:href="#DejaVuSans-Bold-20" transform="translate(59.277344 0)"/>
     <use xlink:href="#DejaVuSans-Bold-2d" transform="translate(94.091797 0)"/>
     <use xlink:href="#DejaVuSans-Bold-20" transform="translate(135.595703 0)"/>
     <use xlink:href="#DejaVuSans-Bold-78" transform="translate(170.410156 0)"/>
    </g>
   </g>
   <g id="text_4">
    <!-- A -->
    <g style="fill: #2563eb" transform="translate(42.170164 455.023844) scale(0.12 -0.12)">
     <defs>
      <path id="DejaVuSans-Bold-41" d="M 3419 850 
L 1538 850 
L 1241 0 
L 31 0 
L 1759 4666 
L 3194 4666 
L 4922 0 
L 3713 0 
L 3419 850 
z
M 1838 1716 
L 3116 1716 
L 2478 3572 
L 1838 1716 
z
" transform="scale(0.015625)"/>
     </defs>
     <use xlink:href="#DejaVuSans-Bold-41"/>
    </g>
   </g>
   <g id="text_5">
    <!-- B -->
    <g style="fill: #2563eb" transform="translate(474.925948 455.023844) scale(0.12 -0.12)">
     <defs>
      <path id="DejaVuSans-Bold-42" d="M 2456 2859 
Q 2741 2859 2887 2984 
Q 3034 3109 3034 3353 
Q 3034 3594 2887 3720 
Q 2741 3847 2456 3847 
L 1791 3847 
L 1791 2859 
L 2456 2859 
z
M 2497 819 
Q 2859 819 3042 972 
Q 3225 1125 3225 1434 
Q 3225 1738 3044 1889 
Q 2863 2041 2497 2041 
L 1791 2041 
L 1791 819 
L 2497 819 
z
M 3616 2497 
Q 4003 2384 4215 2081 
Q 4428 1778 4428 1338 
Q 4428 663 3972 331 
Q 3516 0 2584 0 
L 588 0 
L 588 4666 
L 2394 4666 
Q 3366 4666 3802 4372 
Q 4238 4078 4238 3431 
Q 4238 3091 4078 2852 
Q 3919 2613 3616 2497 
z
" transform="scale(0.015625)"/>
     </defs>
     <use xlink:href="#DejaVuSans-Bold-42"/>
    </g>
   </g>
   <g id="text_6">
    <!-- C -->
    <g style="fill: #2563eb" transform="translate(182.050822 157.777447) scale(0.12 -0.12)">
     <defs>
      <path id="DejaVuSans-Bold-43" d="M 4288 256 
Q 3956 84 3597 -3 
Q 3238 -91 2847 -91 
Q 1681 -91 1000 561 
Q 319 1213 319 2328 
Q 319 3447 1000 4098 
Q 1681 4750 2847 4750 
Q 3238 4750 3597 4662 
Q 3956 4575 4288 4403 
L 4288 3438 
Q 3953 3666 3628 3772 
Q 3303 3878 2944 3878 
Q 2300 3878 1931 3465 
Q 1563 3053 1563 2328 
Q 1563 1606 1931 1193 
Q 2300 781 2944 781 
Q 3303 781 3628 887 
Q 3953 994 4288 1222 
L 4288 256 
z
" transform="scale(0.015625)"/>
     </defs>
     <use xlink:href="#DejaVuSans-Bold-43"/>
    </g>
   </g>
   <g id="text_7">
    <!-- H -->
    <g style="fill: #2563eb" transform="translate(182.050822 468.137656) scale(0.12 -0.12)">
     <defs>
      <path id="DejaVuSans-Bold-48" d="M 588 4666 
L 1791 4666 
L 1791 2888 
L 3566 2888 
L 3566 4666 
L 4769 4666 
L 4769 0 
L 3566 0 
L 3566 1978 
L 1791 1978 
L 1791 0 
L 588 0 
L 588 4666 
z
" transform="scale(0.015625)"/>
     </defs>
     <use xlink:href="#DejaVuSans-Bold-48"/>
    </g>
   </g>
   <g id="text_8">
    <!-- a -->
    <g style="fill: #dc2626" transform="translate(339.416561 297.658104) scale(0.13 -0.13)">
     <defs>
      <path id="DejaVuSans-Bold-61" d="M 2106 1575 
Q 1756 1575 1579 1456 
Q 1403 1338 1403 1106 
Q 1403 894 1545 773 
Q 1688 653 1941 653 
Q 2256 653 2472 879 
Q 2688 1106 2688 1447 
L 2688 1575 
L 2106 1575 
z
M 3816 1997 
L 3816 0 
L 2688 0 
L 2688 519 
Q 2463 200 2181 54 
Q 1900 -91 1497 -91 
Q 953 -91 614 226 
Q 275 544 275 1050 
Q 275 1666 698 1953 
Q 1122 2241 2028 2241 
L 2688 2241 
L 2688 2328 
Q 2688 2594 2478 2717 
Q 2269 2841 1825 2841 
Q 1466 2841 1156 2769 
Q 847 2697 581 2553 
L 581 3406 
Q 941 3494 1303 3539 
Q 1666 3584 2028 3584 
Q 2975 3584 3395 3211 
Q 3816 2838 3816 1997 
z
" transform="scale(0.015625)"/>
     </defs>
     <use xlink:href="#DejaVuSans-Bold-61"/>
    </g>
   </g>
   <g id="text_9">
    <!-- b -->
    <g style="fill: #7c3aed" transform="translate(94.625411 306.400646) scale(0.13 -0.13)">
     <defs>
      <path id="DejaVuSans-Bold-62" d="M 2400 722 
Q 2759 722 2948 984 
Q 3138 1247 3138 1747 
Q 3138 2247 2948 2509 
Q 2759 2772 2400 2772 
Q 2041 2772 1848 2508 
Q 1656 2244 1656 1747 
Q 1656 1250 1848 986 
Q 2041 722 2400 722 
z
M 1656 2988 
Q 1888 3294 2169 3439 
Q 2450 3584 2816 3584 
Q 3463 3584 3878 3070 
Q 4294 2556 4294 1747 
Q 4294 938 3878 423 
Q 3463 -91 2816 -91 
Q 2450 -91 2169 54 
Q 1888 200 1656 506 
L 1656 0 
L 538 0 
L 538 4863 
L 1656 4863 
L 1656 2988 
z
" transform="scale(0.015625)"/>
     </defs>
     <use xlink:href="#DejaVuSans-Bold-62"/>
    </g>
   </g>
   <g id="text_10">
    <!-- c -->
    <g style="fill: #f59e0b" transform="translate(265.104962 420.05368) scale(0.13 -0.13)">
     <use xlink:href="#DejaVuSans-Bold-63"/>
    </g>
   </g>
   <g id="text_11">
    <!-- A -->
    <g style="fill: #f59e0b" transform="translate(125.224305 415.682409) scale(0.12 -0.12)">
     <use xlink:href="#DejaVuSans-Bold-41"/>
    </g>
   </g>
   <g id="text_12">
    <!-- Derivación Geométrica -->
    <g style="fill: #1f2937" transform="translate(198.84678 99.3222) scale(0.11 -0.11)">
     <defs>
      <path id="DejaVuSans-Bold-44" d="M 1791 3756 
L 1791 909 
L 2222 909 
Q 2959 909 3348 1275 
Q 3738 1641 3738 2338 
Q 3738 3031 3350 3393 
Q 2963 3756 2222 3756 
L 1791 3756 
z
M 588 4666 
L 1856 4666 
Q 2919 4666 3439 4514 
Q 3959 4363 4331 4000 
Q 4659 3684 4818 3271 
Q 4978 2859 4978 2338 
Q 4978 1809 4818 1395 
Q 4659 981 4331 666 
Q 3956 303 3431 151 
Q 2906 0 1856 0 
L 588 0 
L 588 4666 
z
" transform="scale(0.015625)"/>
      <path id="DejaVuSans-Bold-65" d="M 4031 1759 
L 4031 1441 
L 1416 1441 
Q 1456 1047 1700 850 
Q 1944 653 2381 653 
Q 2734 653 3104 758 
Q 3475 863 3866 1075 
L 3866 213 
Q 3469 63 3072 -14 
Q 2675 -91 2278 -91 
Q 1328 -91 801 392 
Q 275 875 275 1747 
Q 275 2603 792 3093 
Q 1309 3584 2216 3584 
Q 3041 3584 3536 3087 
Q 4031 2591 4031 1759 
z
M 2881 2131 
Q 2881 2450 2695 2645 
Q 2509 2841 2209 2841 
Q 1884 2841 1681 2658 
Q 1478 2475 1428 2131 
L 2881 2131 
z
" transform="scale(0.015625)"/>
      <path id="DejaVuSans-Bold-72" d="M 3138 2547 
Q 2991 2616 2845 2648 
Q 2700 2681 2553 2681 
Q 2122 2681 1889 2404 
Q 1656 2128 1656 1613 
L 1656 0 
L 538 0 
L 538 3500 
L 1656 3500 
L 1656 2925 
Q 1872 3269 2151 3426 
Q 2431 3584 2822 3584 
Q 2878 3584 2943 3579 
Q 3009 3575 3134 3559 
L 3138 2547 
z
" transform="scale(0.015625)"/>
      <path id="DejaVuSans-Bold-69" d="M 538 3500 
L 1656 3500 
L 1656 0 
L 538 0 
L 538 3500 
z
M 538 4863 
L 1656 4863 
L 1656 3950 
L 538 3950 
L 538 4863 
z
" transform="scale(0.015625)"/>
      <path id="DejaVuSans-Bold-76" d="M 97 3500 
L 1216 3500 
L 2088 1081 
L 2956 3500 
L 4078 3500 
L 2700 0 
L 1472 0 
L 97 3500 
z
" transform="scale(0.015625)"/>
      <path id="DejaVuSans-Bold-f3" d="M 2203 2784 
Q 1831 2784 1636 2517 
Q 1441 2250 1441 1747 
Q 1441 1244 1636 976 
Q 1831 709 2203 709 
Q 2569 709 2762 976 
Q 2956 1244 2956 1747 
Q 2956 2250 2762 2517 
Q 2569 2784 2203 2784 
z
M 2203 3584 
Q 3106 3584 3614 3096 
Q 4122 2609 4122 1747 
Q 4122 884 3614 396 
Q 3106 -91 2203 -91 
Q 1297 -91 786 396 
Q 275 884 275 1747 
Q 275 2609 786 3096 
Q 1297 3584 2203 3584 
z
M 2694 5119 
L 3578 5119 
L 2425 3944 
L 1813 3944 
L 2694 5119 
z
" transform="scale(0.015625)"/>
      <path id="DejaVuSans-Bold-6e" d="M 4056 2131 
L 4056 0 
L 2931 0 
L 2931 347 
L 2931 1631 
Q 2931 2084 2911 2256 
Q 2891 2428 2841 2509 
Q 2775 2619 2662 2680 
Q 2550 2741 2406 2741 
Q 2056 2741 1856 2470 
Q 1656 2200 1656 1722 
L 1656 0 
L 538 0 
L 538 3500 
L 1656 3500 
L 1656 2988 
Q 1909 3294 2193 3439 
Q 2478 3584 2822 3584 
Q 3428 3584 3742 3212 
Q 4056 2841 4056 2131 
z
" transform="scale(0.015625)"/>
      <path id="DejaVuSans-Bold-47" d="M 4781 347 
Q 4331 128 3847 18 
Q 3363 -91 2847 -91 
Q 1681 -91 1000 561 
Q 319 1213 319 2328 
Q 319 3456 1012 4103 
Q 1706 4750 2913 4750 
Q 3378 4750 3804 4662 
Q 4231 4575 4609 4403 
L 4609 3438 
Q 4219 3659 3833 3768 
Q 3447 3878 3059 3878 
Q 2341 3878 1952 3476 
Q 1563 3075 1563 2328 
Q 1563 1588 1938 1184 
Q 2313 781 3003 781 
Q 3191 781 3352 804 
Q 3513 828 3641 878 
L 3641 1784 
L 2906 1784 
L 2906 2591 
L 4781 2591 
L 4781 347 
z
" transform="scale(0.015625)"/>
      <path id="DejaVuSans-Bold-6f" d="M 2203 2784 
Q 1831 2784 1636 2517 
Q 1441 2250 1441 1747 
Q 1441 1244 1636 976 
Q 1831 709 2203 709 
Q 2569 709 2762 976 
Q 2956 1244 2956 1747 
Q 2956 2250 2762 2517 
Q 2569 2784 2203 2784 
z
M 2203 3584 
Q 3106 3584 3614 3096 
Q 4122 2609 4122 1747 
Q 4122 884 3614 396 
Q 3106 -91 2203 -91 
Q 1297 -91 786 396 
Q 275 884 275 1747 
Q 275 2609 786 3096 
Q 1297 3584 2203 3584 
z
" transform="scale(0.015625)"/>
      <path id="DejaVuSans-Bold-6d" d="M 3781 2919 
Q 3994 3244 4286 3414 
Q 4578 3584 4928 3584 
Q 5531 3584 5847 3212 
Q 6163 2841 6163 2131 
L 6163 0 
L 5038 0 
L 5038 1825 
Q 5041 1866 5042 1909 
Q 5044 1953 5044 2034 
Q 5044 2406 4934 2573 
Q 4825 2741 4581 2741 
Q 4263 2741 4089 2478 
Q 3916 2216 3909 1719 
L 3909 0 
L 2784 0 
L 2784 1825 
Q 2784 2406 2684 2573 
Q 2584 2741 2328 2741 
Q 2006 2741 1831 2477 
Q 1656 2213 1656 1722 
L 1656 0 
L 531 0 
L 531 3500 
L 1656 3500 
L 1656 2988 
Q 1863 3284 2130 3434 
Q 2397 3584 2719 3584 
Q 3081 3584 3359 3409 
Q 3638 3234 3781 2919 
z
" transform="scale(0.015625)"/>
      <path id="DejaVuSans-Bold-e9" d="M 4031 1759 
L 4031 1441 
L 1416 1441 
Q 1456 1047 1700 850 
Q 1944 653 2381 653 
Q 2734 653 3104 758 
Q 3475 863 3866 1075 
L 3866 213 
Q 3469 63 3072 -14 
Q 2675 -91 2278 -91 
Q 1328 -91 801 392 
Q 275 875 275 1747 
Q 275 2603 792 3093 
Q 1309 3584 2216 3584 
Q 3041 3584 3536 3087 
Q 4031 2591 4031 1759 
z
M 2881 2131 
Q 2881 2450 2695 2645 
Q 2509 2841 2209 2841 
Q 1884 2841 1681 2658 
Q 1478 2475 1428 2131 
L 2881 2131 
z
M 2702 5119 
L 3586 5119 
L 2433 3944 
L 1821 3944 
L 2702 5119 
z
" transform="scale(0.015625)"/>
      <path id="DejaVuSans-Bold-74" d="M 1759 4494 
L 1759 3500 
L 2913 3500 
L 2913 2700 
L 1759 2700 
L 1759 1216 
Q 1759 972 1856 886 
Q 1953 800 2241 800 
L 2816 800 
L 2816 0 
L 1856 0 
Q 1194 0 917 276 
Q 641 553 641 1216 
L 641 2700 
L 84 2700 
L 84 3500 
L 641 3500 
L 641 4494 
L 1759 4494 
z
" transform="scale(0.015625)"/>
     </defs>
     <use xlink:href="#DejaVuSans-Bold-44"/>
     <use xlink:href="#DejaVuSans-Bold-65" transform="translate(83.007812 0)"/>
     <use xlink:href="#DejaVuSans-Bold-72" transform="translate(150.830078 0)"/>
     <use xlink:href="#DejaVuSans-Bold-69" transform="translate(200.146484 0)"/>
     <use xlink:href="#DejaVuSans-Bold-76" transform="translate(234.423828 0)"/>
     <use xlink:href="#DejaVuSans-Bold-61" transform="translate(299.609375 0)"/>
     <use xlink:href="#DejaVuSans-Bold-63" transform="translate(367.089844 0)"/>
     <use xlink:href="#DejaVuSans-Bold-69" transform="translate(426.367188 0)"/>
     <use xlink:href="#DejaVuSans-Bold-f3" transform="translate(460.644531 0)"/>
     <use xlink:href="#DejaVuSans-Bold-6e" transform="translate(529.345703 0)"/>
     <use xlink:href="#DejaVuSans-Bold-20" transform="translate(600.537109 0)"/>
     <use xlink:href="#DejaVuSans-Bold-47" transform="translate(635.351562 0)"/>
     <use xlink:href="#DejaVuSans-Bold-65" transform="translate(717.431641 0)"/>
     <use xlink:href="#DejaVuSans-Bold-6f" transform="translate(785.253906 0)"/>
     <use xlink:href="#DejaVuSans-Bold-6d" transform="translate(853.955078 0)"/>
     <use xlink:href="#DejaVuSans-Bold-e9" transform="translate(958.154297 0)"/>
     <use xlink:href="#DejaVuSans-Bold-74" transform="translate(1025.976562 0)"/>
     <use xlink:href="#DejaVuSans-Bold-72" transform="translate(1073.779297 0)"/>
     <use xlink:href="#DejaVuSans-Bold-69" transform="translate(1123.095703 0)"/>
     <use xlink:href="#DejaVuSans-Bold-63" transform="translate(1157.373047 0)"/>
     <use xlink:href="#DejaVuSans-Bold-61" transform="translate(1216.650391 0)"/>
    </g>
   </g>
   <g id="line2d_9">
    <defs>
     <path id="m0055a4526b" d="M 0 4 
C 1.060812 4 2.078319 3.578535 2.828427 2.828427 
C 3.578535 2.078319 4 1.060812 4 0 
C 4 -1.060812 3.578535 -2.078319 2.828427 -2.828427 
C 2.078319 -3.578535 1.060812 -4 0 -4 
C -1.060812 -4 -2.078319 -3.578535 -2.828427 -2.828427 
C -3.578535 -2.078319 -4 -1.060812 -4 0 
C -4 1.060812 -3.578535 2.078319 -2.828427 2.828427 
C -2.078319 3.578535 -1.060812 4 0 4 
z
" style="stroke: #2563eb"/>
    </defs>
    <g clip-path="url(#peab1e8e73c)">
     <use xlink:href="#m0055a4526b" x="68.397788" y="437.538762" style="fill: #2563eb; stroke: #2563eb"/>
    </g>
   </g>
   <g id="line2d_10">
    <g clip-path="url(#peab1e8e73c)">
     <use xlink:href="#m0055a4526b" x="461.812137" y="437.538762" style="fill: #2563eb; stroke: #2563eb"/>
    </g>
   </g>
   <g id="line2d_11">
    <g clip-path="url(#peab1e8e73c)">
     <use xlink:href="#m0055a4526b" x="182.050822" y="175.262529" style="fill: #2563eb; stroke: #2563eb"/>
    </g>
   </g>
   <g id="line2d_12">
    <g clip-path="url(#peab1e8e73c)">
     <use xlink:href="#m0055a4526b" x="182.050822" y="437.538762" style="fill: #2563eb; stroke: #2563eb"/>
    </g>
   </g>
  </g>
  <g id="axes_2">
   <g id="patch_3">
    <path d="M 585.186277 180.954511 
L 996.085708 180.954511 
L 996.085708 48.872842 
L 585.186277 48.872842 
z
" clip-path="url(#pd2d0495e68)" style="fill: #fef3c7; stroke: #f59e0b; stroke-width: 2; stroke-linejoin: miter"/>
   </g>
   <g id="patch_4">
    <path d="M 585.186277 346.056598 
L 996.085708 346.056598 
L 996.085708 202.968123 
L 585.186277 202.968123 
z
" clip-path="url(#pd2d0495e68)" style="fill: #eff6ff; stroke: #2563eb; stroke-width: 1.5; stroke-linejoin: miter"/>
   </g>
   <g id="patch_5">
    <path d="M 585.186277 483.641671 
L 996.085708 483.641671 
L 996.085708 362.566807 
L 585.186277 362.566807 
z
" clip-path="url(#pd2d0495e68)" style="fill: #f0fdf4; stroke: #059669; stroke-width: 1.5; stroke-linejoin: miter"/>
   </g>
   <g id="text_13">
    <!-- LEY DE COSENOS -->
    <g style="fill: #f59e0b" transform="translate(732.745368 81.893259) scale(0.12 -0.12)">
     <defs>
      <path id="DejaVuSans-Bold-4c" d="M 588 4666 
L 1791 4666 
L 1791 909 
L 3903 909 
L 3903 0 
L 588 0 
L 588 4666 
z
" transform="scale(0.015625)"/>
      <path id="DejaVuSans-Bold-45" d="M 588 4666 
L 3834 4666 
L 3834 3756 
L 1791 3756 
L 1791 2888 
L 3713 2888 
L 3713 1978 
L 1791 1978 
L 1791 909 
L 3903 909 
L 3903 0 
L 588 0 
L 588 4666 
z
" transform="scale(0.015625)"/>
      <path id="DejaVuSans-Bold-59" d="M -63 4666 
L 1253 4666 
L 2316 3003 
L 3378 4666 
L 4697 4666 
L 2919 1966 
L 2919 0 
L 1716 0 
L 1716 1966 
L -63 4666 
z
" transform="scale(0.015625)"/>
      <path id="DejaVuSans-Bold-4f" d="M 2719 3878 
Q 2169 3878 1866 3472 
Q 1563 3066 1563 2328 
Q 1563 1594 1866 1187 
Q 2169 781 2719 781 
Q 3272 781 3575 1187 
Q 3878 1594 3878 2328 
Q 3878 3066 3575 3472 
Q 3272 3878 2719 3878 
z
M 2719 4750 
Q 3844 4750 4481 4106 
Q 5119 3463 5119 2328 
Q 5119 1197 4481 553 
Q 3844 -91 2719 -91 
Q 1597 -91 958 553 
Q 319 1197 319 2328 
Q 319 3463 958 4106 
Q 1597 4750 2719 4750 
z
" transform="scale(0.015625)"/>
      <path id="DejaVuSans-Bold-53" d="M 3834 4519 
L 3834 3531 
Q 3450 3703 3084 3790 
Q 2719 3878 2394 3878 
Q 1963 3878 1756 3759 
Q 1550 3641 1550 3391 
Q 1550 3203 1689 3098 
Q 1828 2994 2194 2919 
L 2706 2816 
Q 3484 2659 3812 2340 
Q 4141 2022 4141 1434 
Q 4141 663 3683 286 
Q 3225 -91 2284 -91 
Q 1841 -91 1394 -6 
Q 947 78 500 244 
L 500 1259 
Q 947 1022 1364 901 
Q 1781 781 2169 781 
Q 2563 781 2772 912 
Q 2981 1044 2981 1288 
Q 2981 1506 2839 1625 
Q 2697 1744 2272 1838 
L 1806 1941 
Q 1106 2091 782 2419 
Q 459 2747 459 3303 
Q 459 4000 909 4375 
Q 1359 4750 2203 4750 
Q 2588 4750 2994 4692 
Q 3400 4634 3834 4519 
z
" transform="scale(0.015625)"/>
      <path id="DejaVuSans-Bold-4e" d="M 588 4666 
L 1931 4666 
L 3628 1466 
L 3628 4666 
L 4769 4666 
L 4769 0 
L 3425 0 
L 1728 3200 
L 1728 0 
L 588 0 
L 588 4666 
z
" transform="scale(0.015625)"/>
     </defs>
     <use xlink:href="#DejaVuSans-Bold-4c"/>
     <use xlink:href="#DejaVuSans-Bold-45" transform="translate(63.720703 0)"/>
     <use xlink:href="#DejaVuSans-Bold-59" transform="translate(132.03125 0)"/>
     <use xlink:href="#DejaVuSans-Bold-20" transform="translate(204.443359 0)"/>
     <use xlink:href="#DejaVuSans-Bold-44" transform="translate(239.257812 0)"/>
     <use xlink:href="#DejaVuSans-Bold-45" transform="translate(322.265625 0)"/>
     <use xlink:href="#DejaVuSans-Bold-20" transform="translate(390.576172 0)"/>
     <use xlink:href="#DejaVuSans-Bold-43" transform="translate(425.390625 0)"/>
     <use xlink:href="#DejaVuSans-Bold-4f" transform="translate(498.779297 0)"/>
     <use xlink:href="#DejaVuSans-Bold-53" transform="translate(583.789062 0)"/>
     <use xlink:href="#DejaVuSans-Bold-45" transform="translate(655.810547 0)"/>
     <use xlink:href="#DejaVuSans-Bold-4e" transform="translate(724.121094 0)"/>
     <use xlink:href="#DejaVuSans-Bold-4f" transform="translate(807.8125 0)"/>
     <use xlink:href="#DejaVuSans-Bold-53" transform="translate(892.822266 0)"/>
    </g>
   </g>
   <g id="text_14">
    <!-- $a^2 = b^2 + c^2 - 2bc\cos A$ -->
    <g style="fill: #1f2937" transform="translate(710.695993 147.934094) scale(0.14 -0.14)">
     <defs>
      <path id="DejaVuSans-Oblique-61" d="M 3438 1997 
L 3047 0 
L 2472 0 
L 2578 531 
Q 2325 219 2001 64 
Q 1678 -91 1281 -91 
Q 834 -91 548 182 
Q 263 456 263 884 
Q 263 1497 752 1853 
Q 1241 2209 2100 2209 
L 2900 2209 
L 2931 2363 
Q 2938 2388 2941 2417 
Q 2944 2447 2944 2509 
Q 2944 2788 2717 2942 
Q 2491 3097 2081 3097 
Q 1800 3097 1504 3025 
Q 1209 2953 897 2809 
L 997 3341 
Q 1322 3463 1633 3523 
Q 1944 3584 2234 3584 
Q 2853 3584 3176 3315 
Q 3500 3047 3500 2534 
Q 3500 2431 3484 2292 
Q 3469 2153 3438 1997 
z
M 2816 1759 
L 2241 1759 
Q 1534 1759 1195 1570 
Q 856 1381 856 984 
Q 856 709 1029 553 
Q 1203 397 1509 397 
Q 1978 397 2328 733 
Q 2678 1069 2791 1631 
L 2816 1759 
z
" transform="scale(0.015625)"/>
      <path id="DejaVuSans-32" d="M 1228 531 
L 3431 531 
L 3431 0 
L 469 0 
L 469 531 
Q 828 903 1448 1529 
Q 2069 2156 2228 2338 
Q 2531 2678 2651 2914 
Q 2772 3150 2772 3378 
Q 2772 3750 2511 3984 
Q 2250 4219 1831 4219 
Q 1534 4219 1204 4116 
Q 875 4013 500 3803 
L 500 4441 
Q 881 4594 1212 4672 
Q 1544 4750 1819 4750 
Q 2544 4750 2975 4387 
Q 3406 4025 3406 3419 
Q 3406 3131 3298 2873 
Q 3191 2616 2906 2266 
Q 2828 2175 2409 1742 
Q 1991 1309 1228 531 
z
" transform="scale(0.015625)"/>
      <path id="DejaVuSans-3d" d="M 678 2906 
L 4684 2906 
L 4684 2381 
L 678 2381 
L 678 2906 
z
M 678 1631 
L 4684 1631 
L 4684 1100 
L 678 1100 
L 678 1631 
z
" transform="scale(0.015625)"/>
      <path id="DejaVuSans-Oblique-62" d="M 3169 2138 
Q 3169 2591 2961 2847 
Q 2753 3103 2388 3103 
Q 2122 3103 1889 2973 
Q 1656 2844 1484 2597 
Q 1303 2338 1198 1995 
Q 1094 1653 1094 1313 
Q 1094 881 1298 636 
Q 1503 391 1863 391 
Q 2134 391 2365 517 
Q 2597 644 2772 891 
Q 2950 1147 3059 1487 
Q 3169 1828 3169 2138 
z
M 1381 2969 
Q 1594 3256 1914 3420 
Q 2234 3584 2584 3584 
Q 3122 3584 3439 3221 
Q 3756 2859 3756 2241 
Q 3756 1734 3570 1259 
Q 3384 784 3041 416 
Q 2816 172 2522 40 
Q 2228 -91 1906 -91 
Q 1566 -91 1316 65 
Q 1066 222 909 531 
L 806 0 
L 231 0 
L 1178 4863 
L 1753 4863 
L 1381 2969 
z
" transform="scale(0.015625)"/>
      <path id="DejaVuSans-2b" d="M 2944 4013 
L 2944 2272 
L 4684 2272 
L 4684 1741 
L 2944 1741 
L 2944 0 
L 2419 0 
L 2419 1741 
L 678 1741 
L 678 2272 
L 2419 2272 
L 2419 4013 
L 2944 4013 
z
" transform="scale(0.015625)"/>
      <path id="DejaVuSans-Oblique-63" d="M 3431 3366 
L 3316 2797 
Q 3109 2947 2876 3022 
Q 2644 3097 2394 3097 
Q 2119 3097 1870 3000 
Q 1622 2903 1453 2725 
Q 1184 2453 1037 2087 
Q 891 1722 891 1331 
Q 891 859 1127 628 
Q 1363 397 1844 397 
Q 2081 397 2348 469 
Q 2616 541 2906 684 
L 2797 116 
Q 2547 13 2283 -39 
Q 2019 -91 1741 -91 
Q 1044 -91 669 257 
Q 294 606 294 1253 
Q 294 1797 489 2255 
Q 684 2713 1069 3078 
Q 1331 3328 1684 3456 
Q 2038 3584 2456 3584 
Q 2700 3584 2940 3529 
Q 3181 3475 3431 3366 
z
" transform="scale(0.015625)"/>
      <path id="DejaVuSans-2212" d="M 678 2272 
L 4684 2272 
L 4684 1741 
L 678 1741 
L 678 2272 
z
" transform="scale(0.015625)"/>
      <path id="DejaVuSans-63" d="M 3122 3366 
L 3122 2828 
Q 2878 2963 2633 3030 
Q 2388 3097 2138 3097 
Q 1578 3097 1268 2742 
Q 959 2388 959 1747 
Q 959 1106 1268 751 
Q 1578 397 2138 397 
Q 2388 397 2633 464 
Q 2878 531 3122 666 
L 3122 134 
Q 2881 22 2623 -34 
Q 2366 -91 2075 -91 
Q 1284 -91 818 406 
Q 353 903 353 1747 
Q 353 2603 823 3093 
Q 1294 3584 2113 3584 
Q 2378 3584 2631 3529 
Q 2884 3475 3122 3366 
z
" transform="scale(0.015625)"/>
      <path id="DejaVuSans-6f" d="M 1959 3097 
Q 1497 3097 1228 2736 
Q 959 2375 959 1747 
Q 959 1119 1226 758 
Q 1494 397 1959 397 
Q 2419 397 2687 759 
Q 2956 1122 2956 1747 
Q 2956 2369 2687 2733 
Q 2419 3097 1959 3097 
z
M 1959 3584 
Q 2709 3584 3137 3096 
Q 3566 2609 3566 1747 
Q 3566 888 3137 398 
Q 2709 -91 1959 -91 
Q 1206 -91 779 398 
Q 353 888 353 1747 
Q 353 2609 779 3096 
Q 1206 3584 1959 3584 
z
" transform="scale(0.015625)"/>
      <path id="DejaVuSans-73" d="M 2834 3397 
L 2834 2853 
Q 2591 2978 2328 3040 
Q 2066 3103 1784 3103 
Q 1356 3103 1142 2972 
Q 928 2841 928 2578 
Q 928 2378 1081 2264 
Q 1234 2150 1697 2047 
L 1894 2003 
Q 2506 1872 2764 1633 
Q 3022 1394 3022 966 
Q 3022 478 2636 193 
Q 2250 -91 1575 -91 
Q 1294 -91 989 -36 
Q 684 19 347 128 
L 347 722 
Q 666 556 975 473 
Q 1284 391 1588 391 
Q 1994 391 2212 530 
Q 2431 669 2431 922 
Q 2431 1156 2273 1281 
Q 2116 1406 1581 1522 
L 1381 1569 
Q 847 1681 609 1914 
Q 372 2147 372 2553 
Q 372 3047 722 3315 
Q 1072 3584 1716 3584 
Q 2034 3584 2315 3537 
Q 2597 3491 2834 3397 
z
" transform="scale(0.015625)"/>
      <path id="DejaVuSans-Oblique-41" d="M 2356 4666 
L 3072 4666 
L 3938 0 
L 3278 0 
L 3084 1197 
L 984 1197 
L 325 0 
L -341 0 
L 2356 4666 
z
M 2584 4044 
L 1275 1722 
L 2988 1722 
L 2584 4044 
z
" transform="scale(0.015625)"/>
     </defs>
     <use xlink:href="#DejaVuSans-Oblique-61" transform="translate(0 0.765625)"/>
     <use xlink:href="#DejaVuSans-32" transform="translate(65.929193 39.046875) scale(0.7)"/>
     <use xlink:href="#DejaVuSans-3d" transform="translate(132.682122 0.765625)"/>
     <use xlink:href="#DejaVuSans-Oblique-62" transform="translate(235.953607 0.765625)"/>
     <use xlink:href="#DejaVuSans-32" transform="translate(306.877878 39.046875) scale(0.7)"/>
     <use xlink:href="#DejaVuSans-2b" transform="translate(373.630807 0.765625)"/>
     <use xlink:href="#DejaVuSans-Oblique-63" transform="translate(476.902292 0.765625)"/>
     <use xlink:href="#DejaVuSans-32" transform="translate(536.532656 39.046875) scale(0.7)"/>
     <use xlink:href="#DejaVuSans-2212" transform="translate(603.285586 0.765625)"/>
     <use xlink:href="#DejaVuSans-32" transform="translate(706.55707 0.765625)"/>
     <use xlink:href="#DejaVuSans-Oblique-62" transform="translate(770.180117 0.765625)"/>
     <use xlink:href="#DejaVuSans-Oblique-63" transform="translate(833.65668 0.765625)"/>
     <use xlink:href="#DejaVuSans-63" transform="translate(888.637148 0.765625)"/>
     <use xlink:href="#DejaVuSans-6f" transform="translate(943.617617 0.765625)"/>
     <use xlink:href="#DejaVuSans-73" transform="translate(1004.799258 0.765625)"/>
     <use xlink:href="#DejaVuSans-Oblique-41" transform="translate(1073.134543 0.765625)"/>
    </g>
   </g>
   <g id="text_15">
    <!-- Tres Formas Equivalentes -->
    <g style="fill: #2563eb" transform="translate(718.460993 230.485137) scale(0.1 -0.1)">
     <defs>
      <path id="DejaVuSans-Bold-54" d="M 31 4666 
L 4331 4666 
L 4331 3756 
L 2784 3756 
L 2784 0 
L 1581 0 
L 1581 3756 
L 31 3756 
L 31 4666 
z
" transform="scale(0.015625)"/>
      <path id="DejaVuSans-Bold-73" d="M 3272 3391 
L 3272 2541 
Q 2913 2691 2578 2766 
Q 2244 2841 1947 2841 
Q 1628 2841 1473 2761 
Q 1319 2681 1319 2516 
Q 1319 2381 1436 2309 
Q 1553 2238 1856 2203 
L 2053 2175 
Q 2913 2066 3209 1816 
Q 3506 1566 3506 1031 
Q 3506 472 3093 190 
Q 2681 -91 1863 -91 
Q 1516 -91 1145 -36 
Q 775 19 384 128 
L 384 978 
Q 719 816 1070 734 
Q 1422 653 1784 653 
Q 2113 653 2278 743 
Q 2444 834 2444 1013 
Q 2444 1163 2330 1236 
Q 2216 1309 1875 1350 
L 1678 1375 
Q 931 1469 631 1722 
Q 331 1975 331 2491 
Q 331 3047 712 3315 
Q 1094 3584 1881 3584 
Q 2191 3584 2531 3537 
Q 2872 3491 3272 3391 
z
" transform="scale(0.015625)"/>
      <path id="DejaVuSans-Bold-46" d="M 588 4666 
L 3834 4666 
L 3834 3756 
L 1791 3756 
L 1791 2888 
L 3713 2888 
L 3713 1978 
L 1791 1978 
L 1791 0 
L 588 0 
L 588 4666 
z
" transform="scale(0.015625)"/>
      <path id="DejaVuSans-Bold-71" d="M 2181 2772 
Q 1825 2772 1636 2509 
Q 1447 2247 1447 1747 
Q 1447 1247 1636 984 
Q 1825 722 2181 722 
Q 2541 722 2730 984 
Q 2919 1247 2919 1747 
Q 2919 2247 2730 2509 
Q 2541 2772 2181 2772 
z
M 2919 506 
Q 2688 197 2409 53 
Q 2131 -91 1766 -91 
Q 1119 -91 703 423 
Q 288 938 288 1747 
Q 288 2556 703 3067 
Q 1119 3578 1766 3578 
Q 2131 3578 2409 3434 
Q 2688 3291 2919 2981 
L 2919 3500 
L 4044 3500 
L 4044 -1331 
L 2919 -1331 
L 2919 506 
z
" transform="scale(0.015625)"/>
      <path id="DejaVuSans-Bold-75" d="M 500 1363 
L 500 3500 
L 1625 3500 
L 1625 3150 
Q 1625 2866 1622 2436 
Q 1619 2006 1619 1863 
Q 1619 1441 1641 1255 
Q 1663 1069 1716 984 
Q 1784 875 1895 815 
Q 2006 756 2150 756 
Q 2500 756 2700 1025 
Q 2900 1294 2900 1772 
L 2900 3500 
L 4019 3500 
L 4019 0 
L 2900 0 
L 2900 506 
Q 2647 200 2364 54 
Q 2081 -91 1741 -91 
Q 1134 -91 817 281 
Q 500 653 500 1363 
z
" transform="scale(0.015625)"/>
      <path id="DejaVuSans-Bold-6c" d="M 538 4863 
L 1656 4863 
L 1656 0 
L 538 0 
L 538 4863 
z
" transform="scale(0.015625)"/>
     </defs>
     <use xlink:href="#DejaVuSans-Bold-54"/>
     <use xlink:href="#DejaVuSans-Bold-72" transform="translate(57.212891 0)"/>
     <use xlink:href="#DejaVuSans-Bold-65" transform="translate(106.529297 0)"/>
     <use xlink:href="#DejaVuSans-Bold-73" transform="translate(174.351562 0)"/>
     <use xlink:href="#DejaVuSans-Bold-20" transform="translate(233.873047 0)"/>
     <use xlink:href="#DejaVuSans-Bold-46" transform="translate(268.6875 0)"/>
     <use xlink:href="#DejaVuSans-Bold-6f" transform="translate(332.998047 0)"/>
     <use xlink:href="#DejaVuSans-Bold-72" transform="translate(401.699219 0)"/>
     <use xlink:href="#DejaVuSans-Bold-6d" transform="translate(451.015625 0)"/>
     <use xlink:href="#DejaVuSans-Bold-61" transform="translate(555.214844 0)"/>
     <use xlink:href="#DejaVuSans-Bold-73" transform="translate(622.695312 0)"/>
     <use xlink:href="#DejaVuSans-Bold-20" transform="translate(682.216797 0)"/>
     <use xlink:href="#DejaVuSans-Bold-45" transform="translate(717.03125 0)"/>
     <use xlink:href="#DejaVuSans-Bold-71" transform="translate(785.341797 0)"/>
     <use xlink:href="#DejaVuSans-Bold-75" transform="translate(856.923828 0)"/>
     <use xlink:href="#DejaVuSans-Bold-69" transform="translate(928.115234 0)"/>
     <use xlink:href="#DejaVuSans-Bold-76" transform="translate(962.392578 0)"/>
     <use xlink:href="#DejaVuSans-Bold-61" transform="translate(1027.578125 0)"/>
     <use xlink:href="#DejaVuSans-Bold-6c" transform="translate(1095.058594 0)"/>
     <use xlink:href="#DejaVuSans-Bold-65" transform="translate(1129.335938 0)"/>
     <use xlink:href="#DejaVuSans-Bold-6e" transform="translate(1197.158203 0)"/>
     <use xlink:href="#DejaVuSans-Bold-74" transform="translate(1268.349609 0)"/>
     <use xlink:href="#DejaVuSans-Bold-65" transform="translate(1316.152344 0)"/>
     <use xlink:href="#DejaVuSans-Bold-73" transform="translate(1383.974609 0)"/>
    </g>
   </g>
   <g id="text_16">
    <!-- $a^2 = b^2 + c^2 - 2bc\cos A$ -->
    <g style="fill: #dc2626" transform="translate(727.825993 269.008958) scale(0.11 -0.11)">
     <use xlink:href="#DejaVuSans-Oblique-61" transform="translate(0 0.765625)"/>
     <use xlink:href="#DejaVuSans-32" transform="translate(65.929193 39.046875) scale(0.7)"/>
     <use xlink:href="#DejaVuSans-3d" transform="translate(132.682122 0.765625)"/>
     <use xlink:href="#DejaVuSans-Oblique-62" transform="translate(235.953607 0.765625)"/>
     <use xlink:href="#DejaVuSans-32" transform="translate(306.877878 39.046875) scale(0.7)"/>
     <use xlink:href="#DejaVuSans-2b" transform="translate(373.630807 0.765625)"/>
     <use xlink:href="#DejaVuSans-Oblique-63" transform="translate(476.902292 0.765625)"/>
     <use xlink:href="#DejaVuSans-32" transform="translate(536.532656 39.046875) scale(0.7)"/>
     <use xlink:href="#DejaVuSans-2212" transform="translate(603.285586 0.765625)"/>
     <use xlink:href="#DejaVuSans-32" transform="translate(706.55707 0.765625)"/>
     <use xlink:href="#DejaVuSans-Oblique-62" transform="translate(770.180117 0.765625)"/>
     <use xlink:href="#DejaVuSans-Oblique-63" transform="translate(833.65668 0.765625)"/>
     <use xlink:href="#DejaVuSans-63" transform="translate(888.637148 0.765625)"/>
     <use xlink:href="#DejaVuSans-6f" transform="translate(943.617617 0.765625)"/>
     <use xlink:href="#DejaVuSans-73" transform="translate(1004.799258 0.765625)"/>
     <use xlink:href="#DejaVuSans-Oblique-41" transform="translate(1073.134543 0.765625)"/>
    </g>
   </g>
   <g id="text_17">
    <!-- $b^2 = a^2 + c^2 - 2ac\cos B$ -->
    <g style="fill: #7c3aed" transform="translate(727.935993 304.781076) scale(0.11 -0.11)">
     <defs>
      <path id="DejaVuSans-Oblique-42" d="M 1081 4666 
L 2694 4666 
Q 3350 4666 3675 4422 
Q 4000 4178 4000 3688 
Q 4000 3238 3720 2911 
Q 3441 2584 2988 2516 
Q 3375 2428 3569 2181 
Q 3763 1934 3763 1522 
Q 3763 819 3242 409 
Q 2722 0 1819 0 
L 172 0 
L 1081 4666 
z
M 1234 2228 
L 903 519 
L 1919 519 
Q 2491 519 2800 781 
Q 3109 1044 3109 1522 
Q 3109 1891 2904 2059 
Q 2700 2228 2247 2228 
L 1234 2228 
z
M 1606 4147 
L 1331 2741 
L 2272 2741 
Q 2775 2741 3058 2959 
Q 3341 3178 3341 3566 
Q 3341 3869 3150 4008 
Q 2959 4147 2541 4147 
L 1606 4147 
z
" transform="scale(0.015625)"/>
     </defs>
     <use xlink:href="#DejaVuSans-Oblique-62" transform="translate(0 0.765625)"/>
     <use xlink:href="#DejaVuSans-32" transform="translate(70.924271 39.046875) scale(0.7)"/>
     <use xlink:href="#DejaVuSans-3d" transform="translate(137.677201 0.765625)"/>
     <use xlink:href="#DejaVuSans-Oblique-61" transform="translate(240.948685 0.765625)"/>
     <use xlink:href="#DejaVuSans-32" transform="translate(306.877878 39.046875) scale(0.7)"/>
     <use xlink:href="#DejaVuSans-2b" transform="translate(373.630807 0.765625)"/>
     <use xlink:href="#DejaVuSans-Oblique-63" transform="translate(476.902292 0.765625)"/>
     <use xlink:href="#DejaVuSans-32" transform="translate(536.532656 39.046875) scale(0.7)"/>
     <use xlink:href="#DejaVuSans-2212" transform="translate(603.285586 0.765625)"/>
     <use xlink:href="#DejaVuSans-32" transform="translate(706.55707 0.765625)"/>
     <use xlink:href="#DejaVuSans-Oblique-61" transform="translate(770.180117 0.765625)"/>
     <use xlink:href="#DejaVuSans-Oblique-63" transform="translate(831.459414 0.765625)"/>
     <use xlink:href="#DejaVuSans-63" transform="translate(886.439883 0.765625)"/>
     <use xlink:href="#DejaVuSans-6f" transform="translate(941.420352 0.765625)"/>
     <use xlink:href="#DejaVuSans-73" transform="translate(1002.601992 0.765625)"/>
     <use xlink:href="#DejaVuSans-Oblique-42" transform="translate(1070.937278 0.765625)"/>
    </g>
   </g>
   <g id="text_18">
    <!-- $c^2 = a^2 + b^2 - 2ab\cos C$ -->
    <g style="fill: #f59e0b" transform="translate(727.385993 340.553195) scale(0.11 -0.11)">
     <defs>
      <path id="DejaVuSans-Oblique-43" d="M 4447 4306 
L 4319 3641 
Q 4019 3944 3683 4091 
Q 3347 4238 2956 4238 
Q 2422 4238 2017 3981 
Q 1613 3725 1319 3200 
Q 1131 2863 1032 2486 
Q 934 2109 934 1728 
Q 934 1091 1264 756 
Q 1594 422 2222 422 
Q 2656 422 3056 561 
Q 3456 700 3834 978 
L 3688 231 
Q 3316 72 2936 -9 
Q 2556 -91 2175 -91 
Q 1278 -91 773 396 
Q 269 884 269 1753 
Q 269 2309 461 2846 
Q 653 3384 1013 3828 
Q 1394 4300 1883 4525 
Q 2372 4750 3022 4750 
Q 3422 4750 3780 4639 
Q 4138 4528 4447 4306 
z
" transform="scale(0.015625)"/>
     </defs>
     <use xlink:href="#DejaVuSans-Oblique-63" transform="translate(0 0.765625)"/>
     <use xlink:href="#DejaVuSans-32" transform="translate(59.630365 39.046875) scale(0.7)"/>
     <use xlink:href="#DejaVuSans-3d" transform="translate(126.383294 0.765625)"/>
     <use xlink:href="#DejaVuSans-Oblique-61" transform="translate(229.654779 0.765625)"/>
     <use xlink:href="#DejaVuSans-32" transform="translate(295.583971 39.046875) scale(0.7)"/>
     <use xlink:href="#DejaVuSans-2b" transform="translate(362.336901 0.765625)"/>
     <use xlink:href="#DejaVuSans-Oblique-62" transform="translate(465.608385 0.765625)"/>
     <use xlink:href="#DejaVuSans-32" transform="translate(536.532656 39.046875) scale(0.7)"/>
     <use xlink:href="#DejaVuSans-2212" transform="translate(603.285586 0.765625)"/>
     <use xlink:href="#DejaVuSans-32" transform="translate(706.55707 0.765625)"/>
     <use xlink:href="#DejaVuSans-Oblique-61" transform="translate(770.180117 0.765625)"/>
     <use xlink:href="#DejaVuSans-Oblique-62" transform="translate(831.459414 0.765625)"/>
     <use xlink:href="#DejaVuSans-63" transform="translate(894.935977 0.765625)"/>
     <use xlink:href="#DejaVuSans-6f" transform="translate(949.916445 0.765625)"/>
     <use xlink:href="#DejaVuSans-73" transform="translate(1011.098086 0.765625)"/>
     <use xlink:href="#DejaVuSans-Oblique-43" transform="translate(1079.433372 0.765625)"/>
    </g>
   </g>
   <g id="text_19">
    <!-- Para Encontrar Ángulos -->
    <g style="fill: #059669" transform="translate(724.085993 390.083821) scale(0.1 -0.1)">
     <defs>
      <path id="DejaVuSans-Bold-50" d="M 588 4666 
L 2584 4666 
Q 3475 4666 3951 4270 
Q 4428 3875 4428 3144 
Q 4428 2409 3951 2014 
Q 3475 1619 2584 1619 
L 1791 1619 
L 1791 0 
L 588 0 
L 588 4666 
z
M 1791 3794 
L 1791 2491 
L 2456 2491 
Q 2806 2491 2997 2661 
Q 3188 2831 3188 3144 
Q 3188 3456 2997 3625 
Q 2806 3794 2456 3794 
L 1791 3794 
z
" transform="scale(0.015625)"/>
      <path id="DejaVuSans-Bold-c1" d="M 3419 850 
L 1538 850 
L 1241 0 
L 31 0 
L 1759 4666 
L 3194 4666 
L 4922 0 
L 3713 0 
L 3419 850 
z
M 1838 1716 
L 3116 1716 
L 2478 3572 
L 1838 1716 
z
M 2559 5921 
L 3444 5921 
L 2553 5096 
L 1941 5096 
L 2559 5921 
z
" transform="scale(0.015625)"/>
      <path id="DejaVuSans-Bold-67" d="M 2919 594 
Q 2688 288 2409 144 
Q 2131 0 1766 0 
Q 1125 0 706 504 
Q 288 1009 288 1791 
Q 288 2575 706 3076 
Q 1125 3578 1766 3578 
Q 2131 3578 2409 3434 
Q 2688 3291 2919 2981 
L 2919 3500 
L 4044 3500 
L 4044 353 
Q 4044 -491 3511 -936 
Q 2978 -1381 1966 -1381 
Q 1638 -1381 1331 -1331 
Q 1025 -1281 716 -1178 
L 716 -306 
Q 1009 -475 1290 -558 
Q 1572 -641 1856 -641 
Q 2406 -641 2662 -400 
Q 2919 -159 2919 353 
L 2919 594 
z
M 2181 2772 
Q 1834 2772 1640 2515 
Q 1447 2259 1447 1791 
Q 1447 1309 1634 1061 
Q 1822 813 2181 813 
Q 2531 813 2725 1069 
Q 2919 1325 2919 1791 
Q 2919 2259 2725 2515 
Q 2531 2772 2181 2772 
z
" transform="scale(0.015625)"/>
     </defs>
     <use xlink:href="#DejaVuSans-Bold-50"/>
     <use xlink:href="#DejaVuSans-Bold-61" transform="translate(70.666016 0)"/>
     <use xlink:href="#DejaVuSans-Bold-72" transform="translate(138.146484 0)"/>
     <use xlink:href="#DejaVuSans-Bold-61" transform="translate(187.462891 0)"/>
     <use xlink:href="#DejaVuSans-Bold-20" transform="translate(254.943359 0)"/>
     <use xlink:href="#DejaVuSans-Bold-45" transform="translate(289.757812 0)"/>
     <use xlink:href="#DejaVuSans-Bold-6e" transform="translate(358.068359 0)"/>
     <use xlink:href="#DejaVuSans-Bold-63" transform="translate(429.259766 0)"/>
     <use xlink:href="#DejaVuSans-Bold-6f" transform="translate(488.537109 0)"/>
     <use xlink:href="#DejaVuSans-Bold-6e" transform="translate(557.238281 0)"/>
     <use xlink:href="#DejaVuSans-Bold-74" transform="translate(628.429688 0)"/>
     <use xlink:href="#DejaVuSans-Bold-72" transform="translate(676.232422 0)"/>
     <use xlink:href="#DejaVuSans-Bold-61" transform="translate(725.548828 0)"/>
     <use xlink:href="#DejaVuSans-Bold-72" transform="translate(793.029297 0)"/>
     <use xlink:href="#DejaVuSans-Bold-20" transform="translate(842.345703 0)"/>
     <use xlink:href="#DejaVuSans-Bold-c1" transform="translate(877.160156 0)"/>
     <use xlink:href="#DejaVuSans-Bold-6e" transform="translate(954.552734 0)"/>
     <use xlink:href="#DejaVuSans-Bold-67" transform="translate(1025.744141 0)"/>
     <use xlink:href="#DejaVuSans-Bold-75" transform="translate(1097.326172 0)"/>
     <use xlink:href="#DejaVuSans-Bold-6c" transform="translate(1168.517578 0)"/>
     <use xlink:href="#DejaVuSans-Bold-6f" transform="translate(1202.794922 0)"/>
     <use xlink:href="#DejaVuSans-Bold-73" transform="translate(1271.496094 0)"/>
    </g>
   </g>
   <g id="text_20">
    <!-- $\cos A = \frac{b^2 + c^2 - a^2}{2bc}$ -->
    <g style="fill: #1f2937" transform="translate(742.815993 445.11785) scale(0.12 -0.12)">
     <use xlink:href="#DejaVuSans-63" transform="translate(0 0.04375)"/>
     <use xlink:href="#DejaVuSans-6f" transform="translate(54.980469 0.04375)"/>
     <use xlink:href="#DejaVuSans-73" transform="translate(116.162109 0.04375)"/>
     <use xlink:href="#DejaVuSans-Oblique-41" transform="translate(184.497395 0.04375)"/>
     <use xlink:href="#DejaVuSans-3d" transform="translate(272.38802 0.04375)"/>
     <use xlink:href="#DejaVuSans-Oblique-62" transform="translate(375.659504 44.835938) scale(0.7)"/>
     <use xlink:href="#DejaVuSans-32" transform="translate(425.306494 71.632812) scale(0.49)"/>
     <use xlink:href="#DejaVuSans-2b" transform="translate(472.033545 44.835938) scale(0.7)"/>
     <use xlink:href="#DejaVuSans-Oblique-63" transform="translate(544.323584 44.835938) scale(0.7)"/>
     <use xlink:href="#DejaVuSans-32" transform="translate(586.064839 71.632812) scale(0.49)"/>
     <use xlink:href="#DejaVuSans-2212" transform="translate(632.79189 44.835938) scale(0.7)"/>
     <use xlink:href="#DejaVuSans-Oblique-61" transform="translate(705.081929 44.835938) scale(0.7)"/>
     <use xlink:href="#DejaVuSans-32" transform="translate(751.232364 71.632812) scale(0.49)"/>
     <use xlink:href="#DejaVuSans-32" transform="translate(516.659504 -40.598437) scale(0.7)"/>
     <use xlink:href="#DejaVuSans-Oblique-62" transform="translate(561.195637 -40.598437) scale(0.7)"/>
     <use xlink:href="#DejaVuSans-Oblique-63" transform="translate(605.629231 -40.598437) scale(0.7)"/>
     <path d="M 375.659504 18.840625 
L 375.659504 25.090625 
L 784.321719 25.090625 
L 784.321719 18.840625 
L 375.659504 18.840625 
z
"/>
    </g>
   </g>
   <g id="text_21">
    <!-- Usar cuando se conocen: -->
    <g style="fill: #6b7280" transform="translate(727.416618 522.165491) scale(0.09 -0.09)">
     <defs>
      <path id="DejaVuSans-Bold-55" d="M 588 4666 
L 1791 4666 
L 1791 1869 
Q 1791 1291 1980 1042 
Q 2169 794 2597 794 
Q 3028 794 3217 1042 
Q 3406 1291 3406 1869 
L 3406 4666 
L 4609 4666 
L 4609 1869 
Q 4609 878 4112 393 
Q 3616 -91 2597 -91 
Q 1581 -91 1084 393 
Q 588 878 588 1869 
L 588 4666 
z
" transform="scale(0.015625)"/>
      <path id="DejaVuSans-Bold-64" d="M 2919 2988 
L 2919 4863 
L 4044 4863 
L 4044 0 
L 2919 0 
L 2919 506 
Q 2688 197 2409 53 
Q 2131 -91 1766 -91 
Q 1119 -91 703 423 
Q 288 938 288 1747 
Q 288 2556 703 3070 
Q 1119 3584 1766 3584 
Q 2128 3584 2408 3439 
Q 2688 3294 2919 2988 
z
M 2181 722 
Q 2541 722 2730 984 
Q 2919 1247 2919 1747 
Q 2919 2247 2730 2509 
Q 2541 2772 2181 2772 
Q 1825 2772 1636 2509 
Q 1447 2247 1447 1747 
Q 1447 1247 1636 984 
Q 1825 722 2181 722 
z
" transform="scale(0.015625)"/>
      <path id="DejaVuSans-Bold-3a" d="M 716 3500 
L 1844 3500 
L 1844 2291 
L 716 2291 
L 716 3500 
z
M 716 1209 
L 1844 1209 
L 1844 0 
L 716 0 
L 716 1209 
z
" transform="scale(0.015625)"/>
     </defs>
     <use xlink:href="#DejaVuSans-Bold-55"/>
     <use xlink:href="#DejaVuSans-Bold-73" transform="translate(81.201172 0)"/>
     <use xlink:href="#DejaVuSans-Bold-61" transform="translate(140.722656 0)"/>
     <use xlink:href="#DejaVuSans-Bold-72" transform="translate(208.203125 0)"/>
     <use xlink:href="#DejaVuSans-Bold-20" transform="translate(257.519531 0)"/>
     <use xlink:href="#DejaVuSans-Bold-63" transform="translate(292.333984 0)"/>
     <use xlink:href="#DejaVuSans-Bold-75" transform="translate(351.611328 0)"/>
     <use xlink:href="#DejaVuSans-Bold-61" transform="translate(422.802734 0)"/>
     <use xlink:href="#DejaVuSans-Bold-6e" transform="translate(490.283203 0)"/>
     <use xlink:href="#DejaVuSans-Bold-64" transform="translate(561.474609 0)"/>
     <use xlink:href="#DejaVuSans-Bold-6f" transform="translate(633.056641 0)"/>
     <use xlink:href="#DejaVuSans-Bold-20" transform="translate(701.757812 0)"/>
     <use xlink:href="#DejaVuSans-Bold-73" transform="translate(736.572266 0)"/>
     <use xlink:href="#DejaVuSans-Bold-65" transform="translate(796.09375 0)"/>
     <use xlink:href="#DejaVuSans-Bold-20" transform="translate(863.916016 0)"/>
     <use xlink:href="#DejaVuSans-Bold-63" transform="translate(898.730469 0)"/>
     <use xlink:href="#DejaVuSans-Bold-6f" transform="translate(958.007812 0)"/>
     <use xlink:href="#DejaVuSans-Bold-6e" transform="translate(1026.708984 0)"/>
     <use xlink:href="#DejaVuSans-Bold-6f" transform="translate(1097.900391 0)"/>
     <use xlink:href="#DejaVuSans-Bold-63" transform="translate(1166.601562 0)"/>
     <use xlink:href="#DejaVuSans-Bold-65" transform="translate(1225.878906 0)"/>
     <use xlink:href="#DejaVuSans-Bold-6e" transform="translate(1293.701172 0)"/>
     <use xlink:href="#DejaVuSans-Bold-3a" transform="translate(1364.892578 0)"/>
    </g>
   </g>
   <g id="text_22">
    <!-- LLL (tres lados) o LAL (dos lados y ángulo incluido) -->
    <g style="fill: #9ca3af" transform="translate(676.24318 555.185908) scale(0.09 -0.09)">
     <defs>
      <path id="DejaVuSans-Oblique-4c" d="M 1075 4666 
L 1709 4666 
L 909 525 
L 3181 525 
L 3078 0 
L 172 0 
L 1075 4666 
z
" transform="scale(0.015625)"/>
      <path id="DejaVuSans-Oblique-20" transform="scale(0.015625)"/>
      <path id="DejaVuSans-Oblique-28" d="M 2731 4856 
Q 1903 3822 1495 2892 
Q 1088 1963 1088 1100 
Q 1088 606 1206 120 
Q 1325 -366 1563 -844 
L 1063 -844 
Q 775 -306 634 201 
Q 494 709 494 1197 
Q 494 2125 923 3036 
Q 1353 3947 2222 4856 
L 2731 4856 
z
" transform="scale(0.015625)"/>
      <path id="DejaVuSans-Oblique-74" d="M 2706 3500 
L 2619 3053 
L 1472 3053 
L 1100 1153 
Q 1081 1047 1072 975 
Q 1063 903 1063 863 
Q 1063 663 1183 572 
Q 1303 481 1569 481 
L 2150 481 
L 2053 0 
L 1503 0 
Q 991 0 739 200 
Q 488 400 488 806 
Q 488 878 497 964 
Q 506 1050 525 1153 
L 897 3053 
L 409 3053 
L 500 3500 
L 978 3500 
L 1172 4494 
L 1747 4494 
L 1556 3500 
L 2706 3500 
z
" transform="scale(0.015625)"/>
      <path id="DejaVuSans-Oblique-72" d="M 2853 2969 
Q 2766 3016 2653 3041 
Q 2541 3066 2413 3066 
Q 1953 3066 1609 2717 
Q 1266 2369 1153 1784 
L 800 0 
L 225 0 
L 909 3500 
L 1484 3500 
L 1375 2956 
Q 1603 3259 1920 3421 
Q 2238 3584 2597 3584 
Q 2691 3584 2781 3573 
Q 2872 3563 2963 3538 
L 2853 2969 
z
" transform="scale(0.015625)"/>
      <path id="DejaVuSans-Oblique-65" d="M 3078 2063 
Q 3088 2113 3092 2166 
Q 3097 2219 3097 2272 
Q 3097 2653 2873 2875 
Q 2650 3097 2266 3097 
Q 1838 3097 1509 2826 
Q 1181 2556 1013 2059 
L 3078 2063 
z
M 3578 1613 
L 903 1613 
Q 884 1494 878 1425 
Q 872 1356 872 1306 
Q 872 872 1139 634 
Q 1406 397 1894 397 
Q 2269 397 2603 481 
Q 2938 566 3225 728 
L 3116 159 
Q 2806 34 2476 -28 
Q 2147 -91 1806 -91 
Q 1078 -91 686 257 
Q 294 606 294 1247 
Q 294 1794 489 2264 
Q 684 2734 1063 3103 
Q 1306 3334 1642 3459 
Q 1978 3584 2356 3584 
Q 2950 3584 3301 3228 
Q 3653 2872 3653 2272 
Q 3653 2128 3634 1964 
Q 3616 1800 3578 1613 
z
" transform="scale(0.015625)"/>
      <path id="DejaVuSans-Oblique-73" d="M 3200 3397 
L 3091 2853 
Q 2863 2978 2609 3040 
Q 2356 3103 2088 3103 
Q 1634 3103 1373 2948 
Q 1113 2794 1113 2528 
Q 1113 2219 1719 2053 
Q 1766 2041 1788 2034 
L 1972 1978 
Q 2547 1819 2739 1644 
Q 2931 1469 2931 1166 
Q 2931 609 2489 259 
Q 2047 -91 1331 -91 
Q 1053 -91 747 -37 
Q 441 16 72 128 
L 184 722 
Q 500 559 806 475 
Q 1113 391 1394 391 
Q 1816 391 2080 572 
Q 2344 753 2344 1031 
Q 2344 1331 1650 1516 
L 1591 1531 
L 1394 1581 
Q 956 1697 753 1886 
Q 550 2075 550 2369 
Q 550 2928 970 3256 
Q 1391 3584 2113 3584 
Q 2397 3584 2667 3537 
Q 2938 3491 3200 3397 
z
" transform="scale(0.015625)"/>
      <path id="DejaVuSans-Oblique-6c" d="M 1172 4863 
L 1747 4863 
L 800 0 
L 225 0 
L 1172 4863 
z
" transform="scale(0.015625)"/>
      <path id="DejaVuSans-Oblique-64" d="M 2675 525 
Q 2444 222 2128 65 
Q 1813 -91 1428 -91 
Q 903 -91 598 267 
Q 294 625 294 1247 
Q 294 1766 478 2236 
Q 663 2706 1013 3078 
Q 1244 3325 1534 3454 
Q 1825 3584 2144 3584 
Q 2481 3584 2739 3421 
Q 2997 3259 3138 2956 
L 3513 4863 
L 4091 4863 
L 3144 0 
L 2566 0 
L 2675 525 
z
M 891 1350 
Q 891 897 1095 644 
Q 1300 391 1663 391 
Q 1931 391 2161 520 
Q 2391 650 2566 903 
Q 2750 1166 2856 1509 
Q 2963 1853 2963 2188 
Q 2963 2622 2758 2865 
Q 2553 3109 2194 3109 
Q 1922 3109 1687 2981 
Q 1453 2853 1288 2613 
Q 1106 2353 998 2009 
Q 891 1666 891 1350 
z
" transform="scale(0.015625)"/>
      <path id="DejaVuSans-Oblique-6f" d="M 1625 -91 
Q 1009 -91 651 289 
Q 294 669 294 1325 
Q 294 1706 417 2101 
Q 541 2497 738 2766 
Q 1047 3184 1428 3384 
Q 1809 3584 2291 3584 
Q 2888 3584 3255 3212 
Q 3622 2841 3622 2241 
Q 3622 1825 3500 1412 
Q 3378 1000 3181 728 
Q 2875 309 2494 109 
Q 2113 -91 1625 -91 
z
M 891 1344 
Q 891 869 1089 633 
Q 1288 397 1691 397 
Q 2269 397 2648 901 
Q 3028 1406 3028 2181 
Q 3028 2634 2825 2865 
Q 2622 3097 2228 3097 
Q 1903 3097 1650 2945 
Q 1397 2794 1197 2484 
Q 1050 2253 970 1956 
Q 891 1659 891 1344 
z
" transform="scale(0.015625)"/>
      <path id="DejaVuSans-Oblique-29" d="M -397 -844 
Q 434 191 840 1120 
Q 1247 2050 1247 2913 
Q 1247 3406 1130 3892 
Q 1013 4378 775 4856 
L 1275 4856 
Q 1563 4316 1703 3812 
Q 1844 3309 1844 2822 
Q 1844 1891 1411 973 
Q 978 56 116 -844 
L -397 -844 
z
" transform="scale(0.015625)"/>
      <path id="DejaVuSans-Oblique-79" d="M 1588 -325 
Q 1188 -997 936 -1164 
Q 684 -1331 294 -1331 
L -159 -1331 
L -63 -850 
L 269 -850 
Q 509 -850 678 -719 
Q 847 -588 1056 -206 
L 1234 128 
L 459 3500 
L 1069 3500 
L 1650 819 
L 3256 3500 
L 3859 3500 
L 1588 -325 
z
" transform="scale(0.015625)"/>
      <path id="DejaVuSans-Oblique-e1" d="M 3438 1997 
L 3047 0 
L 2472 0 
L 2578 531 
Q 2325 219 2001 64 
Q 1678 -91 1281 -91 
Q 834 -91 548 182 
Q 263 456 263 884 
Q 263 1497 752 1853 
Q 1241 2209 2100 2209 
L 2900 2209 
L 2931 2363 
Q 2938 2388 2941 2417 
Q 2944 2447 2944 2509 
Q 2944 2788 2717 2942 
Q 2491 3097 2081 3097 
Q 1800 3097 1504 3025 
Q 1209 2953 897 2809 
L 997 3341 
Q 1322 3463 1633 3523 
Q 1944 3584 2234 3584 
Q 2853 3584 3176 3315 
Q 3500 3047 3500 2534 
Q 3500 2431 3484 2292 
Q 3469 2153 3438 1997 
z
M 2816 1759 
L 2241 1759 
Q 1534 1759 1195 1570 
Q 856 1381 856 984 
Q 856 709 1029 553 
Q 1203 397 1509 397 
Q 1978 397 2328 733 
Q 2678 1069 2791 1631 
L 2816 1759 
z
M 3031 5119 
L 3653 5119 
L 2406 3944 
L 1925 3944 
L 3031 5119 
z
" transform="scale(0.015625)"/>
      <path id="DejaVuSans-Oblique-6e" d="M 3566 2113 
L 3156 0 
L 2578 0 
L 2988 2091 
Q 3016 2238 3031 2350 
Q 3047 2463 3047 2528 
Q 3047 2791 2881 2937 
Q 2716 3084 2419 3084 
Q 1956 3084 1622 2776 
Q 1288 2469 1184 1941 
L 800 0 
L 225 0 
L 903 3500 
L 1478 3500 
L 1363 2950 
Q 1603 3253 1940 3418 
Q 2278 3584 2650 3584 
Q 3113 3584 3367 3334 
Q 3622 3084 3622 2631 
Q 3622 2519 3608 2391 
Q 3594 2263 3566 2113 
z
" transform="scale(0.015625)"/>
      <path id="DejaVuSans-Oblique-67" d="M 3816 3500 
L 3219 434 
Q 3047 -456 2561 -893 
Q 2075 -1331 1253 -1331 
Q 950 -1331 690 -1286 
Q 431 -1241 206 -1147 
L 313 -588 
Q 525 -725 762 -790 
Q 1000 -856 1269 -856 
Q 1816 -856 2167 -557 
Q 2519 -259 2631 300 
L 2681 563 
Q 2441 288 2122 144 
Q 1803 0 1434 0 
Q 903 0 598 351 
Q 294 703 294 1319 
Q 294 1803 478 2267 
Q 663 2731 997 3091 
Q 1219 3328 1514 3456 
Q 1809 3584 2131 3584 
Q 2484 3584 2746 3420 
Q 3009 3256 3138 2956 
L 3238 3500 
L 3816 3500 
z
M 2950 2216 
Q 2950 2641 2750 2872 
Q 2550 3103 2181 3103 
Q 1953 3103 1747 3012 
Q 1541 2922 1394 2759 
Q 1156 2491 1023 2127 
Q 891 1763 891 1375 
Q 891 944 1092 712 
Q 1294 481 1672 481 
Q 2219 481 2584 976 
Q 2950 1472 2950 2216 
z
" transform="scale(0.015625)"/>
      <path id="DejaVuSans-Oblique-75" d="M 428 1388 
L 838 3500 
L 1416 3500 
L 1006 1409 
Q 975 1256 961 1147 
Q 947 1038 947 966 
Q 947 700 1109 554 
Q 1272 409 1569 409 
Q 2031 409 2368 721 
Q 2706 1034 2809 1563 
L 3194 3500 
L 3769 3500 
L 3091 0 
L 2516 0 
L 2631 550 
Q 2388 244 2052 76 
Q 1716 -91 1338 -91 
Q 878 -91 622 161 
Q 366 413 366 863 
Q 366 956 381 1097 
Q 397 1238 428 1388 
z
" transform="scale(0.015625)"/>
      <path id="DejaVuSans-Oblique-69" d="M 1172 4863 
L 1747 4863 
L 1606 4134 
L 1031 4134 
L 1172 4863 
z
M 909 3500 
L 1484 3500 
L 800 0 
L 225 0 
L 909 3500 
z
" transform="scale(0.015625)"/>
     </defs>
     <use xlink:href="#DejaVuSans-Oblique-4c"/>
     <use xlink:href="#DejaVuSans-Oblique-4c" transform="translate(55.712891 0)"/>
     <use xlink:href="#DejaVuSans-Oblique-4c" transform="translate(111.425781 0)"/>
     <use xlink:href="#DejaVuSans-Oblique-20" transform="translate(167.138672 0)"/>
     <use xlink:href="#DejaVuSans-Oblique-28" transform="translate(198.925781 0)"/>
     <use xlink:href="#DejaVuSans-Oblique-74" transform="translate(237.939453 0)"/>
     <use xlink:href="#DejaVuSans-Oblique-72" transform="translate(277.148438 0)"/>
     <use xlink:href="#DejaVuSans-Oblique-65" transform="translate(318.261719 0)"/>
     <use xlink:href="#DejaVuSans-Oblique-73" transform="translate(379.785156 0)"/>
     <use xlink:href="#DejaVuSans-Oblique-20" transform="translate(431.884766 0)"/>
     <use xlink:href="#DejaVuSans-Oblique-6c" transform="translate(463.671875 0)"/>
     <use xlink:href="#DejaVuSans-Oblique-61" transform="translate(491.455078 0)"/>
     <use xlink:href="#DejaVuSans-Oblique-64" transform="translate(552.734375 0)"/>
     <use xlink:href="#DejaVuSans-Oblique-6f" transform="translate(616.210938 0)"/>
     <use xlink:href="#DejaVuSans-Oblique-73" transform="translate(677.392578 0)"/>
     <use xlink:href="#DejaVuSans-Oblique-29" transform="translate(729.492188 0)"/>
     <use xlink:href="#DejaVuSans-Oblique-20" transform="translate(768.505859 0)"/>
     <use xlink:href="#DejaVuSans-Oblique-6f" transform="translate(800.292969 0)"/>
     <use xlink:href="#DejaVuSans-Oblique-20" transform="translate(861.474609 0)"/>
     <use xlink:href="#DejaVuSans-Oblique-4c" transform="translate(893.261719 0)"/>
     <use xlink:href="#DejaVuSans-Oblique-41" transform="translate(948.974609 0)"/>
     <use xlink:href="#DejaVuSans-Oblique-4c" transform="translate(1017.382812 0)"/>
     <use xlink:href="#DejaVuSans-Oblique-20" transform="translate(1073.095703 0)"/>
     <use xlink:href="#DejaVuSans-Oblique-28" transform="translate(1104.882812 0)"/>
     <use xlink:href="#DejaVuSans-Oblique-64" transform="translate(1143.896484 0)"/>
     <use xlink:href="#DejaVuSans-Oblique-6f" transform="translate(1207.373047 0)"/>
     <use xlink:href="#DejaVuSans-Oblique-73" transform="translate(1268.554688 0)"/>
     <use xlink:href="#DejaVuSans-Oblique-20" transform="translate(1320.654297 0)"/>
     <use xlink:href="#DejaVuSans-Oblique-6c" transform="translate(1352.441406 0)"/>
     <use xlink:href="#DejaVuSans-Oblique-61" transform="translate(1380.224609 0)"/>
     <use xlink:href="#DejaVuSans-Oblique-64" transform="translate(1441.503906 0)"/>
     <use xlink:href="#DejaVuSans-Oblique-6f" transform="translate(1504.980469 0)"/>
     <use xlink:href="#DejaVuSans-Oblique-73" transform="translate(1566.162109 0)"/>
     <use xlink:href="#DejaVuSans-Oblique-20" transform="translate(1618.261719 0)"/>
     <use xlink:href="#DejaVuSans-Oblique-79" transform="translate(1650.048828 0)"/>
     <use xlink:href="#DejaVuSans-Oblique-20" transform="translate(1709.228516 0)"/>
     <use xlink:href="#DejaVuSans-Oblique-e1" transform="translate(1741.015625 0)"/>
     <use xlink:href="#DejaVuSans-Oblique-6e" transform="translate(1802.294922 0)"/>
     <use xlink:href="#DejaVuSans-Oblique-67" transform="translate(1865.673828 0)"/>
     <use xlink:href="#DejaVuSans-Oblique-75" transform="translate(1929.150391 0)"/>
     <use xlink:href="#DejaVuSans-Oblique-6c" transform="translate(1992.529297 0)"/>
     <use xlink:href="#DejaVuSans-Oblique-6f" transform="translate(2020.3125 0)"/>
     <use xlink:href="#DejaVuSans-Oblique-20" transform="translate(2081.494141 0)"/>
     <use xlink:href="#DejaVuSans-Oblique-69" transform="translate(2113.28125 0)"/>
     <use xlink:href="#DejaVuSans-Oblique-6e" transform="translate(2141.064453 0)"/>
     <use xlink:href="#DejaVuSans-Oblique-63" transform="translate(2204.443359 0)"/>
     <use xlink:href="#DejaVuSans-Oblique-6c" transform="translate(2259.423828 0)"/>
     <use xlink:href="#DejaVuSans-Oblique-75" transform="translate(2287.207031 0)"/>
     <use xlink:href="#DejaVuSans-Oblique-69" transform="translate(2350.585938 0)"/>
     <use xlink:href="#DejaVuSans-Oblique-64" transform="translate(2378.369141 0)"/>
     <use xlink:href="#DejaVuSans-Oblique-6f" transform="translate(2441.845703 0)"/>
     <use xlink:href="#DejaVuSans-Oblique-29" transform="translate(2503.027344 0)"/>
    </g>
   </g>
  </g>
  <g id="text_23">
   <!-- Ley de Cosenos -->
   <g style="fill: #1f2937" transform="translate(446.977104 17.837812) scale(0.14 -0.14)">
    <defs>
     <path id="DejaVuSans-Bold-79" d="M 78 3500 
L 1197 3500 
L 2138 1125 
L 2938 3500 
L 4056 3500 
L 2584 -331 
Q 2363 -916 2067 -1148 
Q 1772 -1381 1288 -1381 
L 641 -1381 
L 641 -647 
L 991 -647 
Q 1275 -647 1404 -556 
Q 1534 -466 1606 -231 
L 1638 -134 
L 78 3500 
z
" transform="scale(0.015625)"/>
    </defs>
    <use xlink:href="#DejaVuSans-Bold-4c"/>
    <use xlink:href="#DejaVuSans-Bold-65" transform="translate(63.720703 0)"/>
    <use xlink:href="#DejaVuSans-Bold-79" transform="translate(131.542969 0)"/>
    <use xlink:href="#DejaVuSans-Bold-20" transform="translate(196.728516 0)"/>
    <use xlink:href="#DejaVuSans-Bold-64" transform="translate(231.542969 0)"/>
    <use xlink:href="#DejaVuSans-Bold-65" transform="translate(303.125 0)"/>
    <use xlink:href="#DejaVuSans-Bold-20" transform="translate(370.947266 0)"/>
    <use xlink:href="#DejaVuSans-Bold-43" transform="translate(405.761719 0)"/>
    <use xlink:href="#DejaVuSans-Bold-6f" transform="translate(479.150391 0)"/>
    <use xlink:href="#DejaVuSans-Bold-73" transform="translate(547.851562 0)"/>
    <use xlink:href="#DejaVuSans-Bold-65" transform="translate(607.373047 0)"/>
    <use xlink:href="#DejaVuSans-Bold-6e" transform="translate(675.195312 0)"/>
    <use xlink:href="#DejaVuSans-Bold-6f" transform="translate(746.386719 0)"/>
    <use xlink:href="#DejaVuSans-Bold-73" transform="translate(815.087891 0)"/>
   </g>
  </g>
 </g>
 <defs>
  <clipPath id="peab1e8e73c">
   <rect x="7.2" y="105.3222" width="524.552465" height="393.414349"/>
  </clipPath>
  <clipPath id="pd2d0495e68">
   <rect x="572.072465" y="26.85923" width="437.127055" height="550.34029"/>
  </clipPath>
 </defs>
</svg>
