<?xml version="1.0" encoding="utf-8" standalone="no"?>
<!DOCTYPE svg PUBLIC "-//W3C//DTD SVG 1.1//EN"
  "http://www.w3.org/Graphics/SVG/1.1/DTD/svg11.dtd">
<svg xmlns:xlink="http://www.w3.org/1999/xlink" width="1016.39952pt" height="584.39952pt" viewBox="0 0 1016.39952 584.39952" xmlns="http://www.w3.org/2000/svg" version="1.1">
 <metadata>
  <rdf:RDF xmlns:dc="http://purl.org/dc/elements/1.1/" xmlns:cc="http://creativecommons.org/ns#" xmlns:rdf="http://www.w3.org/1999/02/22-rdf-syntax-ns#">
   <cc:Work>
    <dc:type rdf:resource="http://purl.org/dc/dcmitype/StillImage"/>
    <dc:date>2026-01-04T20:53:03.212436</dc:date>
    <dc:format>image/svg+xml</dc:format>
    <dc:creator>
     <cc:Agent>
      <dc:title>Repositorio Matemáticas Universitarias</dc:title>
     </cc:Agent>
    </dc:creator>
   </cc:Work>
  </rdf:RDF>
 </metadata>
 <defs>
  <style type="text/css">*{stroke-linejoin: round; stroke-linecap: butt}</style>
 </defs>
 <g id="figure_1">
  <g id="patch_1">
   <path d="M 0 584.39952 
L 1016.39952 584.39952 
L 1016.39952 0 
L 0 0 
z
" style="fill: #ffffff"/>
  </g>
  <g id="axes_1">
   <g id="patch_2">
    <path d="M 97.792998 469.626422 
L 460.164991 469.626422 
L 233.682496 152.550928 
z
" clip-path="url(#p28b2c048a2)" style="fill: #eff6ff; stroke: #2563eb; stroke-width: 2.5; stroke-linejoin: miter"/>
   </g>
   <g id="line2d_1">
    <path d="M 460.164991 469.626422 
L 233.682496 152.550928 
" clip-path="url(#p28b2c048a2)" style="fill: none; stroke: #dc2626; stroke-width: 3; stroke-linecap: square"/>
   </g>
   <g id="line2d_2">
    <path d="M 97.792998 469.626422 
L 233.682496 152.550928 
" clip-path="url(#p28b2c048a2)" style="fill: none; stroke: #7c3aed; stroke-width: 3; stroke-linecap: square"/>
   </g>
   <g id="line2d_3">
    <path d="M 97.792998 469.626422 
L 460.164991 469.626422 
" clip-path="url(#p28b2c048a2)" style="fill: none; stroke: #f59e0b; stroke-width: 3; stroke-linecap: square"/>
   </g>
   <g id="line2d_4">
    <path d="M 143.089497 469.626422 
L 143.052895 467.80583 
L 142.943148 465.98818 
L 142.760433 464.17641 
L 142.505046 462.373448 
L 142.177399 460.582208 
L 141.778022 458.805584 
L 141.30756 457.046447 
L 140.766774 455.307642 
L 140.156537 453.591977 
L 139.477836 451.902225 
L 138.731768 450.241118 
L 137.919538 448.61134 
L 137.042459 447.015524 
L 136.101948 445.45625 
L 135.099526 443.936038 
L 134.036812 442.457344 
L 132.915525 441.022559 
L 131.737475 439.634001 
L 130.504568 438.293914 
L 129.218794 437.004463 
L 127.882233 435.767734 
L 126.497045 434.585723 
L 125.065468 433.460343 
L 123.589815 432.393411 
L 122.072471 431.386652 
L 120.51589 430.441692 
L 118.922585 429.56006 
L 117.295133 428.743179 
L 115.636163 427.99237 
" clip-path="url(#p28b2c048a2)" style="fill: none; stroke: #dc2626; stroke-width: 2; stroke-linecap: square"/>
   </g>
   <g id="line2d_5">
    <path d="M 436.469742 436.453072 
L 435.395325 437.247422 
L 434.347518 438.076556 
L 433.327445 438.939582 
L 432.336204 439.835575 
L 431.374857 440.763571 
L 430.444439 441.722573 
L 429.545949 442.711551 
L 428.680352 443.729443 
L 427.848578 444.775156 
L 427.05152 445.847565 
L 426.290035 446.945519 
L 425.564941 448.067839 
L 424.877016 449.213318 
L 424.227 450.380726 
L 423.615592 451.568809 
L 423.043446 452.776291 
L 422.51118 454.001875 
L 422.019363 455.244243 
L 421.568526 456.502062 
L 421.159151 457.77398 
L 420.791678 459.05863 
L 420.466504 460.354633 
L 420.183975 461.660597 
L 419.944398 462.975118 
L 419.748028 464.296784 
L 419.595076 465.624175 
L 419.485708 466.955867 
L 419.420039 468.290427 
L 419.398142 469.626422 
" clip-path="url(#p28b2c048a2)" style="fill: none; stroke: #7c3aed; stroke-width: 2; stroke-linecap: square"/>
   </g>
   <g id="line2d_6">
    <path d="M 221.19228 181.694764 
L 222.230094 182.117991 
L 223.282218 182.504274 
L 224.347337 182.853131 
L 225.42412 183.164126 
L 226.511221 183.436871 
L 227.607282 183.671025 
L 228.710935 183.866296 
L 229.820799 184.022439 
L 230.935488 184.139259 
L 232.05361 184.21661 
L 233.173767 184.254396 
L 234.294559 184.252569 
L 235.414587 184.211132 
L 236.532451 184.130137 
L 237.646753 184.009684 
L 238.756102 183.849925 
L 239.859113 183.651058 
L 240.954405 183.413333 
L 242.040612 183.137045 
L 243.116375 182.822542 
L 244.180351 182.470215 
L 245.23121 182.080504 
L 246.267639 181.653898 
L 247.288344 181.190928 
L 248.292048 180.692173 
L 249.277499 180.158256 
L 250.243463 179.589845 
L 251.188736 178.987649 
L 252.112134 178.352422 
" clip-path="url(#p28b2c048a2)" style="fill: none; stroke: #f59e0b; stroke-width: 2; stroke-linecap: square"/>
   </g>
   <g id="line2d_7">
    <path d="M 490.945119 359.620638 
L 490.518362 346.176916 
L 489.239812 332.787326 
L 487.114615 319.505785 
L 484.151329 306.385773 
L 480.361887 293.480118 
L 475.761547 280.840788 
L 470.368833 268.518677 
L 464.20546 256.5634 
L 457.296246 245.0231 
L 449.66901 233.944243 
L 441.354466 223.37144 
L 432.386094 213.347265 
L 422.800005 203.912081 
L 412.6348 195.10388 
L 401.93141 186.958131 
L 390.732934 179.507632 
L 379.084464 172.782385 
L 367.032905 166.80947 
L 354.626784 161.612937 
L 341.916056 157.213711 
L 328.951903 153.629507 
L 315.786526 150.874756 
L 302.472938 148.960551 
L 289.064749 147.8946 
L 275.615948 147.681195 
L 262.180689 148.321195 
L 248.81307 149.812024 
L 235.566919 152.147677 
L 222.495573 155.318752 
L 209.651666 159.312477 
L 197.086916 164.112773 
L 184.851916 169.700311 
L 172.995933 176.05259 
L 161.566706 183.144033 
L 150.610257 190.946085 
L 140.170703 199.42733 
L 130.290082 208.553617 
L 121.008178 218.288197 
L 112.362367 228.591874 
L 104.387462 239.423157 
L 97.115576 250.738432 
L 90.57599 262.492138 
L 84.795036 274.636947 
L 79.795992 287.123954 
L 75.598988 299.90288 
L 72.220924 312.922268 
L 69.675401 326.129695 
L 67.97267 339.471977 
L 67.119587 352.895391 
L 67.119587 366.345885 
L 67.97267 379.769299 
L 69.675401 393.111582 
L 72.220924 406.319008 
L 75.598988 419.338396 
L 79.795992 432.117322 
L 84.795036 444.60433 
L 90.57599 456.749138 
L 97.115576 468.502844 
L 104.387462 479.81812 
L 112.362367 490.649403 
L 121.008178 500.953079 
L 130.290082 510.687659 
L 140.170703 519.813946 
L 150.610257 528.295191 
L 161.566706 536.097243 
L 172.995933 543.188686 
L 184.851916 549.540966 
L 197.086916 555.128503 
L 209.651666 559.928799 
L 222.495573 563.922525 
L 235.566919 567.093599 
L 248.81307 569.429253 
L 262.180689 570.920081 
L 275.615948 571.560082 
L 289.064749 571.346677 
L 302.472938 570.280725 
L 315.786526 568.366521 
L 328.951903 565.61177 
L 341.916056 562.027565 
L 354.626784 557.628339 
L 367.032905 552.431807 
L 379.084464 546.458891 
L 390.732934 539.733644 
L 401.93141 532.283146 
L 412.6348 524.137396 
L 422.800005 515.329195 
L 432.386094 505.894012 
L 441.354466 495.869836 
L 449.66901 485.297034 
L 457.296246 474.218177 
L 464.20546 462.677876 
L 470.368833 450.7226 
L 475.761547 438.400488 
L 480.361887 425.761158 
L 484.151329 412.855504 
L 487.114615 399.735491 
L 489.239812 386.45395 
L 490.518362 373.064361 
L 490.945119 359.620638 
" clip-path="url(#p28b2c048a2)" style="fill: none; stroke-dasharray: 5.55,2.4; stroke-dashoffset: 0; stroke: #d1d5db; stroke-opacity: 0.7; stroke-width: 1.5"/>
   </g>
   <g id="line2d_8">
    <path d="M 278.978995 359.620638 
L 233.682496 152.550928 
" clip-path="url(#p28b2c048a2)" style="fill: none; stroke-dasharray: 1.5,2.475; stroke-dashoffset: 0; stroke: #9ca3af; stroke-width: 1.5"/>
   </g>
   <g id="text_1">
    <!-- A -->
    <g style="fill: #2563eb" transform="translate(75.144749 501.333971) scale(0.14 -0.14)">
     <defs>
      <path id="DejaVuSans-Bold-41" d="M 3419 850 
L 1538 850 
L 1241 0 
L 31 0 
L 1759 4666 
L 3194 4666 
L 4922 0 
L 3713 0 
L 3419 850 
z
M 1838 1716 
L 3116 1716 
L 2478 3572 
L 1838 1716 
z
" transform="scale(0.015625)"/>
     </defs>
     <use xlink:href="#DejaVuSans-Bold-41"/>
    </g>
   </g>
   <g id="text_2">
    <!-- B -->
    <g style="fill: #2563eb" transform="translate(473.753941 501.333971) scale(0.14 -0.14)">
     <defs>
      <path id="DejaVuSans-Bold-42" d="M 2456 2859 
Q 2741 2859 2887 2984 
Q 3034 3109 3034 3353 
Q 3034 3594 2887 3720 
Q 2741 3847 2456 3847 
L 1791 3847 
L 1791 2859 
L 2456 2859 
z
M 2497 819 
Q 2859 819 3042 972 
Q 3225 1125 3225 1434 
Q 3225 1738 3044 1889 
Q 2863 2041 2497 2041 
L 1791 2041 
L 1791 819 
L 2497 819 
z
M 3616 2497 
Q 4003 2384 4215 2081 
Q 4428 1778 4428 1338 
Q 4428 663 3972 331 
Q 3516 0 2584 0 
L 588 0 
L 588 4666 
L 2394 4666 
Q 3366 4666 3802 4372 
Q 4238 4078 4238 3431 
Q 4238 3091 4078 2852 
Q 3919 2613 3616 2497 
z
" transform="scale(0.015625)"/>
     </defs>
     <use xlink:href="#DejaVuSans-Bold-42"/>
    </g>
   </g>
   <g id="text_3">
    <!-- C -->
    <g style="fill: #2563eb" transform="translate(233.682496 134.432328) scale(0.14 -0.14)">
     <defs>
      <path id="DejaVuSans-Bold-43" d="M 4288 256 
Q 3956 84 3597 -3 
Q 3238 -91 2847 -91 
Q 1681 -91 1000 561 
Q 319 1213 319 2328 
Q 319 3447 1000 4098 
Q 1681 4750 2847 4750 
Q 3238 4750 3597 4662 
Q 3956 4575 4288 4403 
L 4288 3438 
Q 3953 3666 3628 3772 
Q 3303 3878 2944 3878 
Q 2300 3878 1931 3465 
Q 1563 3053 1563 2328 
Q 1563 1606 1931 1193 
Q 2300 781 2944 781 
Q 3303 781 3628 887 
Q 3953 994 4288 1222 
L 4288 256 
z
" transform="scale(0.015625)"/>
     </defs>
     <use xlink:href="#DejaVuSans-Bold-43"/>
    </g>
   </g>
   <g id="text_4">
    <!-- a -->
    <g style="fill: #dc2626" transform="translate(369.571993 311.088675) scale(0.14 -0.14)">
     <defs>
      <path id="DejaVuSans-Bold-61" d="M 2106 1575 
Q 1756 1575 1579 1456 
Q 1403 1338 1403 1106 
Q 1403 894 1545 773 
Q 1688 653 1941 653 
Q 2256 653 2472 879 
Q 2688 1106 2688 1447 
L 2688 1575 
L 2106 1575 
z
M 3816 1997 
L 3816 0 
L 2688 0 
L 2688 519 
Q 2463 200 2181 54 
Q 1900 -91 1497 -91 
Q 953 -91 614 226 
Q 275 544 275 1050 
Q 275 1666 698 1953 
Q 1122 2241 2028 2241 
L 2688 2241 
L 2688 2328 
Q 2688 2594 2478 2717 
Q 2269 2841 1825 2841 
Q 1466 2841 1156 2769 
Q 847 2697 581 2553 
L 581 3406 
Q 941 3494 1303 3539 
Q 1666 3584 2028 3584 
Q 2975 3584 3395 3211 
Q 3816 2838 3816 1997 
z
" transform="scale(0.015625)"/>
     </defs>
     <use xlink:href="#DejaVuSans-Bold-61"/>
    </g>
   </g>
   <g id="text_5">
    <!-- b -->
    <g style="fill: #7c3aed" transform="translate(134.030198 311.088675) scale(0.14 -0.14)">
     <defs>
      <path id="DejaVuSans-Bold-62" d="M 2400 722 
Q 2759 722 2948 984 
Q 3138 1247 3138 1747 
Q 3138 2247 2948 2509 
Q 2759 2772 2400 2772 
Q 2041 2772 1848 2508 
Q 1656 2244 1656 1747 
Q 1656 1250 1848 986 
Q 2041 722 2400 722 
z
M 1656 2988 
Q 1888 3294 2169 3439 
Q 2450 3584 2816 3584 
Q 3463 3584 3878 3070 
Q 4294 2556 4294 1747 
Q 4294 938 3878 423 
Q 3463 -91 2816 -91 
Q 2450 -91 2169 54 
Q 1888 200 1656 506 
L 1656 0 
L 538 0 
L 538 4863 
L 1656 4863 
L 1656 2988 
z
" transform="scale(0.015625)"/>
     </defs>
     <use xlink:href="#DejaVuSans-Bold-62"/>
    </g>
   </g>
   <g id="text_6">
    <!-- c -->
    <g style="fill: #f59e0b" transform="translate(278.978995 501.333971) scale(0.14 -0.14)">
     <defs>
      <path id="DejaVuSans-Bold-63" d="M 3366 3391 
L 3366 2478 
Q 3138 2634 2908 2709 
Q 2678 2784 2431 2784 
Q 1963 2784 1702 2511 
Q 1441 2238 1441 1747 
Q 1441 1256 1702 982 
Q 1963 709 2431 709 
Q 2694 709 2930 787 
Q 3166 866 3366 1019 
L 3366 103 
Q 3103 6 2833 -42 
Q 2563 -91 2291 -91 
Q 1344 -91 809 395 
Q 275 881 275 1747 
Q 275 2613 809 3098 
Q 1344 3584 2291 3584 
Q 2566 3584 2833 3536 
Q 3100 3488 3366 3391 
z
" transform="scale(0.015625)"/>
     </defs>
     <use xlink:href="#DejaVuSans-Bold-63"/>
    </g>
   </g>
   <g id="text_7">
    <!-- A -->
    <g style="fill: #dc2626" transform="translate(152.148797 446.978172) scale(0.12 -0.12)">
     <use xlink:href="#DejaVuSans-Bold-41"/>
    </g>
   </g>
   <g id="text_8">
    <!-- B -->
    <g style="fill: #7c3aed" transform="translate(401.279542 449.695962) scale(0.12 -0.12)">
     <use xlink:href="#DejaVuSans-Bold-42"/>
    </g>
   </g>
   <g id="text_9">
    <!-- C -->
    <g style="fill: #f59e0b" transform="translate(242.741795 202.377077) scale(0.12 -0.12)">
     <use xlink:href="#DejaVuSans-Bold-43"/>
    </g>
   </g>
   <g id="text_10">
    <!-- R -->
    <g style="fill: #9ca3af" transform="translate(265.390045 242.496833) scale(0.1 -0.1)">
     <defs>
      <path id="DejaVuSans-Oblique-52" d="M 1613 4147 
L 1294 2491 
L 2106 2491 
Q 2584 2491 2879 2755 
Q 3175 3019 3175 3444 
Q 3175 3784 2976 3965 
Q 2778 4147 2406 4147 
L 1613 4147 
z
M 2772 2241 
Q 2972 2194 3105 2009 
Q 3238 1825 3413 1275 
L 3809 0 
L 3144 0 
L 2778 1197 
Q 2638 1659 2453 1815 
Q 2269 1972 1888 1972 
L 1191 1972 
L 806 0 
L 172 0 
L 1081 4666 
L 2503 4666 
Q 3150 4666 3495 4373 
Q 3841 4081 3841 3531 
Q 3841 3044 3547 2687 
Q 3253 2331 2772 2241 
z
" transform="scale(0.015625)"/>
     </defs>
     <use xlink:href="#DejaVuSans-Oblique-52"/>
    </g>
   </g>
   <g id="text_11">
    <!-- Triángulo con Circunferencia Circunscrita -->
    <g style="fill: #1f2937" transform="translate(151.131495 55.95793) scale(0.11 -0.11)">
     <defs>
      <path id="DejaVuSans-Bold-54" d="M 31 4666 
L 4331 4666 
L 4331 3756 
L 2784 3756 
L 2784 0 
L 1581 0 
L 1581 3756 
L 31 3756 
L 31 4666 
z
" transform="scale(0.015625)"/>
      <path id="DejaVuSans-Bold-72" d="M 3138 2547 
Q 2991 2616 2845 2648 
Q 2700 2681 2553 2681 
Q 2122 2681 1889 2404 
Q 1656 2128 1656 1613 
L 1656 0 
L 538 0 
L 538 3500 
L 1656 3500 
L 1656 2925 
Q 1872 3269 2151 3426 
Q 2431 3584 2822 3584 
Q 2878 3584 2943 3579 
Q 3009 3575 3134 3559 
L 3138 2547 
z
" transform="scale(0.015625)"/>
      <path id="DejaVuSans-Bold-69" d="M 538 3500 
L 1656 3500 
L 1656 0 
L 538 0 
L 538 3500 
z
M 538 4863 
L 1656 4863 
L 1656 3950 
L 538 3950 
L 538 4863 
z
" transform="scale(0.015625)"/>
      <path id="DejaVuSans-Bold-e1" d="M 2106 1575 
Q 1756 1575 1579 1456 
Q 1403 1338 1403 1106 
Q 1403 894 1545 773 
Q 1688 653 1941 653 
Q 2256 653 2472 879 
Q 2688 1106 2688 1447 
L 2688 1575 
L 2106 1575 
z
M 3816 1997 
L 3816 0 
L 2688 0 
L 2688 519 
Q 2463 200 2181 54 
Q 1900 -91 1497 -91 
Q 953 -91 614 226 
Q 275 544 275 1050 
Q 275 1666 698 1953 
Q 1122 2241 2028 2241 
L 2688 2241 
L 2688 2328 
Q 2688 2594 2478 2717 
Q 2269 2841 1825 2841 
Q 1466 2841 1156 2769 
Q 847 2697 581 2553 
L 581 3406 
Q 941 3494 1303 3539 
Q 1666 3584 2028 3584 
Q 2975 3584 3395 3211 
Q 3816 2838 3816 1997 
z
M 2606 5119 
L 3490 5119 
L 2337 3944 
L 1725 3944 
L 2606 5119 
z
" transform="scale(0.015625)"/>
      <path id="DejaVuSans-Bold-6e" d="M 4056 2131 
L 4056 0 
L 2931 0 
L 2931 347 
L 2931 1631 
Q 2931 2084 2911 2256 
Q 2891 2428 2841 2509 
Q 2775 2619 2662 2680 
Q 2550 2741 2406 2741 
Q 2056 2741 1856 2470 
Q 1656 2200 1656 1722 
L 1656 0 
L 538 0 
L 538 3500 
L 1656 3500 
L 1656 2988 
Q 1909 3294 2193 3439 
Q 2478 3584 2822 3584 
Q 3428 3584 3742 3212 
Q 4056 2841 4056 2131 
z
" transform="scale(0.015625)"/>
      <path id="DejaVuSans-Bold-67" d="M 2919 594 
Q 2688 288 2409 144 
Q 2131 0 1766 0 
Q 1125 0 706 504 
Q 288 1009 288 1791 
Q 288 2575 706 3076 
Q 1125 3578 1766 3578 
Q 2131 3578 2409 3434 
Q 2688 3291 2919 2981 
L 2919 3500 
L 4044 3500 
L 4044 353 
Q 4044 -491 3511 -936 
Q 2978 -1381 1966 -1381 
Q 1638 -1381 1331 -1331 
Q 1025 -1281 716 -1178 
L 716 -306 
Q 1009 -475 1290 -558 
Q 1572 -641 1856 -641 
Q 2406 -641 2662 -400 
Q 2919 -159 2919 353 
L 2919 594 
z
M 2181 2772 
Q 1834 2772 1640 2515 
Q 1447 2259 1447 1791 
Q 1447 1309 1634 1061 
Q 1822 813 2181 813 
Q 2531 813 2725 1069 
Q 2919 1325 2919 1791 
Q 2919 2259 2725 2515 
Q 2531 2772 2181 2772 
z
" transform="scale(0.015625)"/>
      <path id="DejaVuSans-Bold-75" d="M 500 1363 
L 500 3500 
L 1625 3500 
L 1625 3150 
Q 1625 2866 1622 2436 
Q 1619 2006 1619 1863 
Q 1619 1441 1641 1255 
Q 1663 1069 1716 984 
Q 1784 875 1895 815 
Q 2006 756 2150 756 
Q 2500 756 2700 1025 
Q 2900 1294 2900 1772 
L 2900 3500 
L 4019 3500 
L 4019 0 
L 2900 0 
L 2900 506 
Q 2647 200 2364 54 
Q 2081 -91 1741 -91 
Q 1134 -91 817 281 
Q 500 653 500 1363 
z
" transform="scale(0.015625)"/>
      <path id="DejaVuSans-Bold-6c" d="M 538 4863 
L 1656 4863 
L 1656 0 
L 538 0 
L 538 4863 
z
" transform="scale(0.015625)"/>
      <path id="DejaVuSans-Bold-6f" d="M 2203 2784 
Q 1831 2784 1636 2517 
Q 1441 2250 1441 1747 
Q 1441 1244 1636 976 
Q 1831 709 2203 709 
Q 2569 709 2762 976 
Q 2956 1244 2956 1747 
Q 2956 2250 2762 2517 
Q 2569 2784 2203 2784 
z
M 2203 3584 
Q 3106 3584 3614 3096 
Q 4122 2609 4122 1747 
Q 4122 884 3614 396 
Q 3106 -91 2203 -91 
Q 1297 -91 786 396 
Q 275 884 275 1747 
Q 275 2609 786 3096 
Q 1297 3584 2203 3584 
z
" transform="scale(0.015625)"/>
      <path id="DejaVuSans-Bold-20" transform="scale(0.015625)"/>
      <path id="DejaVuSans-Bold-66" d="M 2841 4863 
L 2841 4128 
L 2222 4128 
Q 1984 4128 1890 4042 
Q 1797 3956 1797 3744 
L 1797 3500 
L 2753 3500 
L 2753 2700 
L 1797 2700 
L 1797 0 
L 678 0 
L 678 2700 
L 122 2700 
L 122 3500 
L 678 3500 
L 678 3744 
Q 678 4316 997 4589 
Q 1316 4863 1984 4863 
L 2841 4863 
z
" transform="scale(0.015625)"/>
      <path id="DejaVuSans-Bold-65" d="M 4031 1759 
L 4031 1441 
L 1416 1441 
Q 1456 1047 1700 850 
Q 1944 653 2381 653 
Q 2734 653 3104 758 
Q 3475 863 3866 1075 
L 3866 213 
Q 3469 63 3072 -14 
Q 2675 -91 2278 -91 
Q 1328 -91 801 392 
Q 275 875 275 1747 
Q 275 2603 792 3093 
Q 1309 3584 2216 3584 
Q 3041 3584 3536 3087 
Q 4031 2591 4031 1759 
z
M 2881 2131 
Q 2881 2450 2695 2645 
Q 2509 2841 2209 2841 
Q 1884 2841 1681 2658 
Q 1478 2475 1428 2131 
L 2881 2131 
z
" transform="scale(0.015625)"/>
      <path id="DejaVuSans-Bold-73" d="M 3272 3391 
L 3272 2541 
Q 2913 2691 2578 2766 
Q 2244 2841 1947 2841 
Q 1628 2841 1473 2761 
Q 1319 2681 1319 2516 
Q 1319 2381 1436 2309 
Q 1553 2238 1856 2203 
L 2053 2175 
Q 2913 2066 3209 1816 
Q 3506 1566 3506 1031 
Q 3506 472 3093 190 
Q 2681 -91 1863 -91 
Q 1516 -91 1145 -36 
Q 775 19 384 128 
L 384 978 
Q 719 816 1070 734 
Q 1422 653 1784 653 
Q 2113 653 2278 743 
Q 2444 834 2444 1013 
Q 2444 1163 2330 1236 
Q 2216 1309 1875 1350 
L 1678 1375 
Q 931 1469 631 1722 
Q 331 1975 331 2491 
Q 331 3047 712 3315 
Q 1094 3584 1881 3584 
Q 2191 3584 2531 3537 
Q 2872 3491 3272 3391 
z
" transform="scale(0.015625)"/>
      <path id="DejaVuSans-Bold-74" d="M 1759 4494 
L 1759 3500 
L 2913 3500 
L 2913 2700 
L 1759 2700 
L 1759 1216 
Q 1759 972 1856 886 
Q 1953 800 2241 800 
L 2816 800 
L 2816 0 
L 1856 0 
Q 1194 0 917 276 
Q 641 553 641 1216 
L 641 2700 
L 84 2700 
L 84 3500 
L 641 3500 
L 641 4494 
L 1759 4494 
z
" transform="scale(0.015625)"/>
     </defs>
     <use xlink:href="#DejaVuSans-Bold-54"/>
     <use xlink:href="#DejaVuSans-Bold-72" transform="translate(57.212891 0)"/>
     <use xlink:href="#DejaVuSans-Bold-69" transform="translate(106.529297 0)"/>
     <use xlink:href="#DejaVuSans-Bold-e1" transform="translate(140.806641 0)"/>
     <use xlink:href="#DejaVuSans-Bold-6e" transform="translate(208.287109 0)"/>
     <use xlink:href="#DejaVuSans-Bold-67" transform="translate(279.478516 0)"/>
     <use xlink:href="#DejaVuSans-Bold-75" transform="translate(351.060547 0)"/>
     <use xlink:href="#DejaVuSans-Bold-6c" transform="translate(422.251953 0)"/>
     <use xlink:href="#DejaVuSans-Bold-6f" transform="translate(456.529297 0)"/>
     <use xlink:href="#DejaVuSans-Bold-20" transform="translate(525.230469 0)"/>
     <use xlink:href="#DejaVuSans-Bold-63" transform="translate(560.044922 0)"/>
     <use xlink:href="#DejaVuSans-Bold-6f" transform="translate(619.322266 0)"/>
     <use xlink:href="#DejaVuSans-Bold-6e" transform="translate(688.023438 0)"/>
     <use xlink:href="#DejaVuSans-Bold-20" transform="translate(759.214844 0)"/>
     <use xlink:href="#DejaVuSans-Bold-43" transform="translate(794.029297 0)"/>
     <use xlink:href="#DejaVuSans-Bold-69" transform="translate(867.417969 0)"/>
     <use xlink:href="#DejaVuSans-Bold-72" transform="translate(901.695312 0)"/>
     <use xlink:href="#DejaVuSans-Bold-63" transform="translate(951.011719 0)"/>
     <use xlink:href="#DejaVuSans-Bold-75" transform="translate(1010.289062 0)"/>
     <use xlink:href="#DejaVuSans-Bold-6e" transform="translate(1081.480469 0)"/>
     <use xlink:href="#DejaVuSans-Bold-66" transform="translate(1152.671875 0)"/>
     <use xlink:href="#DejaVuSans-Bold-65" transform="translate(1196.177734 0)"/>
     <use xlink:href="#DejaVuSans-Bold-72" transform="translate(1264 0)"/>
     <use xlink:href="#DejaVuSans-Bold-65" transform="translate(1313.316406 0)"/>
     <use xlink:href="#DejaVuSans-Bold-6e" transform="translate(1381.138672 0)"/>
     <use xlink:href="#DejaVuSans-Bold-63" transform="translate(1452.330078 0)"/>
     <use xlink:href="#DejaVuSans-Bold-69" transform="translate(1511.607422 0)"/>
     <use xlink:href="#DejaVuSans-Bold-61" transform="translate(1545.884766 0)"/>
     <use xlink:href="#DejaVuSans-Bold-20" transform="translate(1613.365234 0)"/>
     <use xlink:href="#DejaVuSans-Bold-43" transform="translate(1648.179688 0)"/>
     <use xlink:href="#DejaVuSans-Bold-69" transform="translate(1721.568359 0)"/>
     <use xlink:href="#DejaVuSans-Bold-72" transform="translate(1755.845703 0)"/>
     <use xlink:href="#DejaVuSans-Bold-63" transform="translate(1805.162109 0)"/>
     <use xlink:href="#DejaVuSans-Bold-75" transform="translate(1864.439453 0)"/>
     <use xlink:href="#DejaVuSans-Bold-6e" transform="translate(1935.630859 0)"/>
     <use xlink:href="#DejaVuSans-Bold-73" transform="translate(2006.822266 0)"/>
     <use xlink:href="#DejaVuSans-Bold-63" transform="translate(2066.34375 0)"/>
     <use xlink:href="#DejaVuSans-Bold-72" transform="translate(2125.621094 0)"/>
     <use xlink:href="#DejaVuSans-Bold-69" transform="translate(2174.9375 0)"/>
     <use xlink:href="#DejaVuSans-Bold-74" transform="translate(2209.214844 0)"/>
     <use xlink:href="#DejaVuSans-Bold-61" transform="translate(2257.017578 0)"/>
    </g>
   </g>
   <g id="line2d_9">
    <defs>
     <path id="m5fe2f99d95" d="M 0 5 
C 1.326016 5 2.597899 4.473168 3.535534 3.535534 
C 4.473168 2.597899 5 1.326016 5 0 
C 5 -1.326016 4.473168 -2.597899 3.535534 -3.535534 
C 2.597899 -4.473168 1.326016 -5 0 -5 
C -1.326016 -5 -2.597899 -4.473168 -3.535534 -3.535534 
C -4.473168 -2.597899 -5 -1.326016 -5 0 
C -5 1.326016 -4.473168 2.597899 -3.535534 3.535534 
C -2.597899 4.473168 -1.326016 5 0 5 
z
" style="stroke: #2563eb"/>
    </defs>
    <g clip-path="url(#p28b2c048a2)">
     <use xlink:href="#m5fe2f99d95" x="97.792998" y="469.626422" style="fill: #2563eb; stroke: #2563eb"/>
    </g>
   </g>
   <g id="line2d_10">
    <g clip-path="url(#p28b2c048a2)">
     <use xlink:href="#m5fe2f99d95" x="460.164991" y="469.626422" style="fill: #2563eb; stroke: #2563eb"/>
    </g>
   </g>
   <g id="line2d_11">
    <g clip-path="url(#p28b2c048a2)">
     <use xlink:href="#m5fe2f99d95" x="233.682496" y="152.550928" style="fill: #2563eb; stroke: #2563eb"/>
    </g>
   </g>
  </g>
  <g id="axes_2">
   <g id="patch_3">
    <path d="M 603.621635 180.954511 
L 996.655874 180.954511 
L 996.655874 48.872842 
L 603.621635 48.872842 
z
" clip-path="url(#p2ff119aada)" style="fill: #fef3c7; stroke: #f59e0b; stroke-width: 2; stroke-linejoin: miter"/>
   </g>
   <g id="patch_4">
    <path d="M 603.621635 302.029375 
L 996.655874 302.029375 
L 996.655874 202.968123 
L 603.621635 202.968123 
z
" clip-path="url(#p2ff119aada)" style="fill: #eff6ff; stroke: #2563eb; stroke-width: 1.5; stroke-linejoin: miter"/>
   </g>
   <g id="patch_5">
    <path d="M 603.621635 522.165491 
L 996.655874 522.165491 
L 996.655874 324.042987 
L 603.621635 324.042987 
z
" clip-path="url(#p2ff119aada)" style="fill: #f0fdf4; stroke: #059669; stroke-width: 1.5; stroke-linejoin: miter"/>
   </g>
   <g id="text_12">
    <!-- LEY DE SENOS -->
    <g style="fill: #f59e0b" transform="translate(751.752505 81.893259) scale(0.12 -0.12)">
     <defs>
      <path id="DejaVuSans-Bold-4c" d="M 588 4666 
L 1791 4666 
L 1791 909 
L 3903 909 
L 3903 0 
L 588 0 
L 588 4666 
z
" transform="scale(0.015625)"/>
      <path id="DejaVuSans-Bold-45" d="M 588 4666 
L 3834 4666 
L 3834 3756 
L 1791 3756 
L 1791 2888 
L 3713 2888 
L 3713 1978 
L 1791 1978 
L 1791 909 
L 3903 909 
L 3903 0 
L 588 0 
L 588 4666 
z
" transform="scale(0.015625)"/>
      <path id="DejaVuSans-Bold-59" d="M -63 4666 
L 1253 4666 
L 2316 3003 
L 3378 4666 
L 4697 4666 
L 2919 1966 
L 2919 0 
L 1716 0 
L 1716 1966 
L -63 4666 
z
" transform="scale(0.015625)"/>
      <path id="DejaVuSans-Bold-44" d="M 1791 3756 
L 1791 909 
L 2222 909 
Q 2959 909 3348 1275 
Q 3738 1641 3738 2338 
Q 3738 3031 3350 3393 
Q 2963 3756 2222 3756 
L 1791 3756 
z
M 588 4666 
L 1856 4666 
Q 2919 4666 3439 4514 
Q 3959 4363 4331 4000 
Q 4659 3684 4818 3271 
Q 4978 2859 4978 2338 
Q 4978 1809 4818 1395 
Q 4659 981 4331 666 
Q 3956 303 3431 151 
Q 2906 0 1856 0 
L 588 0 
L 588 4666 
z
" transform="scale(0.015625)"/>
      <path id="DejaVuSans-Bold-53" d="M 3834 4519 
L 3834 3531 
Q 3450 3703 3084 3790 
Q 2719 3878 2394 3878 
Q 1963 3878 1756 3759 
Q 1550 3641 1550 3391 
Q 1550 3203 1689 3098 
Q 1828 2994 2194 2919 
L 2706 2816 
Q 3484 2659 3812 2340 
Q 4141 2022 4141 1434 
Q 4141 663 3683 286 
Q 3225 -91 2284 -91 
Q 1841 -91 1394 -6 
Q 947 78 500 244 
L 500 1259 
Q 947 1022 1364 901 
Q 1781 781 2169 781 
Q 2563 781 2772 912 
Q 2981 1044 2981 1288 
Q 2981 1506 2839 1625 
Q 2697 1744 2272 1838 
L 1806 1941 
Q 1106 2091 782 2419 
Q 459 2747 459 3303 
Q 459 4000 909 4375 
Q 1359 4750 2203 4750 
Q 2588 4750 2994 4692 
Q 3400 4634 3834 4519 
z
" transform="scale(0.015625)"/>
      <path id="DejaVuSans-Bold-4e" d="M 588 4666 
L 1931 4666 
L 3628 1466 
L 3628 4666 
L 4769 4666 
L 4769 0 
L 3425 0 
L 1728 3200 
L 1728 0 
L 588 0 
L 588 4666 
z
" transform="scale(0.015625)"/>
      <path id="DejaVuSans-Bold-4f" d="M 2719 3878 
Q 2169 3878 1866 3472 
Q 1563 3066 1563 2328 
Q 1563 1594 1866 1187 
Q 2169 781 2719 781 
Q 3272 781 3575 1187 
Q 3878 1594 3878 2328 
Q 3878 3066 3575 3472 
Q 3272 3878 2719 3878 
z
M 2719 4750 
Q 3844 4750 4481 4106 
Q 5119 3463 5119 2328 
Q 5119 1197 4481 553 
Q 3844 -91 2719 -91 
Q 1597 -91 958 553 
Q 319 1197 319 2328 
Q 319 3463 958 4106 
Q 1597 4750 2719 4750 
z
" transform="scale(0.015625)"/>
     </defs>
     <use xlink:href="#DejaVuSans-Bold-4c"/>
     <use xlink:href="#DejaVuSans-Bold-45" transform="translate(63.720703 0)"/>
     <use xlink:href="#DejaVuSans-Bold-59" transform="translate(132.03125 0)"/>
     <use xlink:href="#DejaVuSans-Bold-20" transform="translate(204.443359 0)"/>
     <use xlink:href="#DejaVuSans-Bold-44" transform="translate(239.257812 0)"/>
     <use xlink:href="#DejaVuSans-Bold-45" transform="translate(322.265625 0)"/>
     <use xlink:href="#DejaVuSans-Bold-20" transform="translate(390.576172 0)"/>
     <use xlink:href="#DejaVuSans-Bold-53" transform="translate(425.390625 0)"/>
     <use xlink:href="#DejaVuSans-Bold-45" transform="translate(497.412109 0)"/>
     <use xlink:href="#DejaVuSans-Bold-4e" transform="translate(565.722656 0)"/>
     <use xlink:href="#DejaVuSans-Bold-4f" transform="translate(649.414062 0)"/>
     <use xlink:href="#DejaVuSans-Bold-53" transform="translate(734.423828 0)"/>
    </g>
   </g>
   <g id="text_13">
    <!-- $\frac{a}{\sin A} = \frac{b}{\sin B} = \frac{c}{\sin C} = 2R$ -->
    <g style="fill: #1f2937" transform="translate(728.808755 147.934094) scale(0.14 -0.14)">
     <defs>
      <path id="DejaVuSans-Oblique-61" d="M 3438 1997 
L 3047 0 
L 2472 0 
L 2578 531 
Q 2325 219 2001 64 
Q 1678 -91 1281 -91 
Q 834 -91 548 182 
Q 263 456 263 884 
Q 263 1497 752 1853 
Q 1241 2209 2100 2209 
L 2900 2209 
L 2931 2363 
Q 2938 2388 2941 2417 
Q 2944 2447 2944 2509 
Q 2944 2788 2717 2942 
Q 2491 3097 2081 3097 
Q 1800 3097 1504 3025 
Q 1209 2953 897 2809 
L 997 3341 
Q 1322 3463 1633 3523 
Q 1944 3584 2234 3584 
Q 2853 3584 3176 3315 
Q 3500 3047 3500 2534 
Q 3500 2431 3484 2292 
Q 3469 2153 3438 1997 
z
M 2816 1759 
L 2241 1759 
Q 1534 1759 1195 1570 
Q 856 1381 856 984 
Q 856 709 1029 553 
Q 1203 397 1509 397 
Q 1978 397 2328 733 
Q 2678 1069 2791 1631 
L 2816 1759 
z
" transform="scale(0.015625)"/>
      <path id="DejaVuSans-73" d="M 2834 3397 
L 2834 2853 
Q 2591 2978 2328 3040 
Q 2066 3103 1784 3103 
Q 1356 3103 1142 2972 
Q 928 2841 928 2578 
Q 928 2378 1081 2264 
Q 1234 2150 1697 2047 
L 1894 2003 
Q 2506 1872 2764 1633 
Q 3022 1394 3022 966 
Q 3022 478 2636 193 
Q 2250 -91 1575 -91 
Q 1294 -91 989 -36 
Q 684 19 347 128 
L 347 722 
Q 666 556 975 473 
Q 1284 391 1588 391 
Q 1994 391 2212 530 
Q 2431 669 2431 922 
Q 2431 1156 2273 1281 
Q 2116 1406 1581 1522 
L 1381 1569 
Q 847 1681 609 1914 
Q 372 2147 372 2553 
Q 372 3047 722 3315 
Q 1072 3584 1716 3584 
Q 2034 3584 2315 3537 
Q 2597 3491 2834 3397 
z
" transform="scale(0.015625)"/>
      <path id="DejaVuSans-69" d="M 603 3500 
L 1178 3500 
L 1178 0 
L 603 0 
L 603 3500 
z
M 603 4863 
L 1178 4863 
L 1178 4134 
L 603 4134 
L 603 4863 
z
" transform="scale(0.015625)"/>
      <path id="DejaVuSans-6e" d="M 3513 2113 
L 3513 0 
L 2938 0 
L 2938 2094 
Q 2938 2591 2744 2837 
Q 2550 3084 2163 3084 
Q 1697 3084 1428 2787 
Q 1159 2491 1159 1978 
L 1159 0 
L 581 0 
L 581 3500 
L 1159 3500 
L 1159 2956 
Q 1366 3272 1645 3428 
Q 1925 3584 2291 3584 
Q 2894 3584 3203 3211 
Q 3513 2838 3513 2113 
z
" transform="scale(0.015625)"/>
      <path id="DejaVuSans-Oblique-41" d="M 2356 4666 
L 3072 4666 
L 3938 0 
L 3278 0 
L 3084 1197 
L 984 1197 
L 325 0 
L -341 0 
L 2356 4666 
z
M 2584 4044 
L 1275 1722 
L 2988 1722 
L 2584 4044 
z
" transform="scale(0.015625)"/>
      <path id="DejaVuSans-3d" d="M 678 2906 
L 4684 2906 
L 4684 2381 
L 678 2381 
L 678 2906 
z
M 678 1631 
L 4684 1631 
L 4684 1100 
L 678 1100 
L 678 1631 
z
" transform="scale(0.015625)"/>
      <path id="DejaVuSans-Oblique-62" d="M 3169 2138 
Q 3169 2591 2961 2847 
Q 2753 3103 2388 3103 
Q 2122 3103 1889 2973 
Q 1656 2844 1484 2597 
Q 1303 2338 1198 1995 
Q 1094 1653 1094 1313 
Q 1094 881 1298 636 
Q 1503 391 1863 391 
Q 2134 391 2365 517 
Q 2597 644 2772 891 
Q 2950 1147 3059 1487 
Q 3169 1828 3169 2138 
z
M 1381 2969 
Q 1594 3256 1914 3420 
Q 2234 3584 2584 3584 
Q 3122 3584 3439 3221 
Q 3756 2859 3756 2241 
Q 3756 1734 3570 1259 
Q 3384 784 3041 416 
Q 2816 172 2522 40 
Q 2228 -91 1906 -91 
Q 1566 -91 1316 65 
Q 1066 222 909 531 
L 806 0 
L 231 0 
L 1178 4863 
L 1753 4863 
L 1381 2969 
z
" transform="scale(0.015625)"/>
      <path id="DejaVuSans-Oblique-42" d="M 1081 4666 
L 2694 4666 
Q 3350 4666 3675 4422 
Q 4000 4178 4000 3688 
Q 4000 3238 3720 2911 
Q 3441 2584 2988 2516 
Q 3375 2428 3569 2181 
Q 3763 1934 3763 1522 
Q 3763 819 3242 409 
Q 2722 0 1819 0 
L 172 0 
L 1081 4666 
z
M 1234 2228 
L 903 519 
L 1919 519 
Q 2491 519 2800 781 
Q 3109 1044 3109 1522 
Q 3109 1891 2904 2059 
Q 2700 2228 2247 2228 
L 1234 2228 
z
M 1606 4147 
L 1331 2741 
L 2272 2741 
Q 2775 2741 3058 2959 
Q 3341 3178 3341 3566 
Q 3341 3869 3150 4008 
Q 2959 4147 2541 4147 
L 1606 4147 
z
" transform="scale(0.015625)"/>
      <path id="DejaVuSans-Oblique-63" d="M 3431 3366 
L 3316 2797 
Q 3109 2947 2876 3022 
Q 2644 3097 2394 3097 
Q 2119 3097 1870 3000 
Q 1622 2903 1453 2725 
Q 1184 2453 1037 2087 
Q 891 1722 891 1331 
Q 891 859 1127 628 
Q 1363 397 1844 397 
Q 2081 397 2348 469 
Q 2616 541 2906 684 
L 2797 116 
Q 2547 13 2283 -39 
Q 2019 -91 1741 -91 
Q 1044 -91 669 257 
Q 294 606 294 1253 
Q 294 1797 489 2255 
Q 684 2713 1069 3078 
Q 1331 3328 1684 3456 
Q 2038 3584 2456 3584 
Q 2700 3584 2940 3529 
Q 3181 3475 3431 3366 
z
" transform="scale(0.015625)"/>
      <path id="DejaVuSans-Oblique-43" d="M 4447 4306 
L 4319 3641 
Q 4019 3944 3683 4091 
Q 3347 4238 2956 4238 
Q 2422 4238 2017 3981 
Q 1613 3725 1319 3200 
Q 1131 2863 1032 2486 
Q 934 2109 934 1728 
Q 934 1091 1264 756 
Q 1594 422 2222 422 
Q 2656 422 3056 561 
Q 3456 700 3834 978 
L 3688 231 
Q 3316 72 2936 -9 
Q 2556 -91 2175 -91 
Q 1278 -91 773 396 
Q 269 884 269 1753 
Q 269 2309 461 2846 
Q 653 3384 1013 3828 
Q 1394 4300 1883 4525 
Q 2372 4750 3022 4750 
Q 3422 4750 3780 4639 
Q 4138 4528 4447 4306 
z
" transform="scale(0.015625)"/>
      <path id="DejaVuSans-32" d="M 1228 531 
L 3431 531 
L 3431 0 
L 469 0 
L 469 531 
Q 828 903 1448 1529 
Q 2069 2156 2228 2338 
Q 2531 2678 2651 2914 
Q 2772 3150 2772 3378 
Q 2772 3750 2511 3984 
Q 2250 4219 1831 4219 
Q 1534 4219 1204 4116 
Q 875 4013 500 3803 
L 500 4441 
Q 881 4594 1212 4672 
Q 1544 4750 1819 4750 
Q 2544 4750 2975 4387 
Q 3406 4025 3406 3419 
Q 3406 3131 3298 2873 
Q 3191 2616 2906 2266 
Q 2828 2175 2409 1742 
Q 1991 1309 1228 531 
z
" transform="scale(0.015625)"/>
     </defs>
     <use xlink:href="#DejaVuSans-Oblique-61" transform="translate(58 44.810938) scale(0.7)"/>
     <use xlink:href="#DejaVuSans-73" transform="translate(0 -40.623437) scale(0.7)"/>
     <use xlink:href="#DejaVuSans-69" transform="translate(36.469727 -40.623437) scale(0.7)"/>
     <use xlink:href="#DejaVuSans-6e" transform="translate(55.917969 -40.623437) scale(0.7)"/>
     <use xlink:href="#DejaVuSans-Oblique-41" transform="translate(111.648177 -40.623437) scale(0.7)"/>
     <use xlink:href="#DejaVuSans-3d" transform="translate(191.516341 0.01875)"/>
     <use xlink:href="#DejaVuSans-Oblique-62" transform="translate(352.787825 44.810938) scale(0.7)"/>
     <use xlink:href="#DejaVuSans-73" transform="translate(294.787825 -40.623437) scale(0.7)"/>
     <use xlink:href="#DejaVuSans-69" transform="translate(331.257552 -40.623437) scale(0.7)"/>
     <use xlink:href="#DejaVuSans-6e" transform="translate(350.705794 -40.623437) scale(0.7)"/>
     <use xlink:href="#DejaVuSans-Oblique-42" transform="translate(406.436001 -40.623437) scale(0.7)"/>
     <use xlink:href="#DejaVuSans-3d" transform="translate(486.440884 0.01875)"/>
     <use xlink:href="#DejaVuSans-Oblique-63" transform="translate(650.712369 44.810938) scale(0.7)"/>
     <use xlink:href="#DejaVuSans-73" transform="translate(589.712369 -40.623437) scale(0.7)"/>
     <use xlink:href="#DejaVuSans-69" transform="translate(626.182095 -40.623437) scale(0.7)"/>
     <use xlink:href="#DejaVuSans-6e" transform="translate(645.630337 -40.623437) scale(0.7)"/>
     <use xlink:href="#DejaVuSans-Oblique-43" transform="translate(701.360545 -40.623437) scale(0.7)"/>
     <use xlink:href="#DejaVuSans-3d" transform="translate(782.21992 0.01875)"/>
     <use xlink:href="#DejaVuSans-32" transform="translate(885.491405 0.01875)"/>
     <use xlink:href="#DejaVuSans-Oblique-52" transform="translate(949.114451 0.01875)"/>
     <path d="M 0 18.815625 
L 0 25.065625 
L 159.533919 25.065625 
L 159.533919 18.815625 
L 0 18.815625 
z
"/>
     <path d="M 294.787825 18.815625 
L 294.787825 25.065625 
L 454.458462 25.065625 
L 454.458462 18.815625 
L 294.787825 18.815625 
z
"/>
     <path d="M 589.712369 18.815625 
L 589.712369 25.065625 
L 750.237498 25.065625 
L 750.237498 18.815625 
L 589.712369 18.815625 
z
"/>
    </g>
   </g>
   <g id="text_14">
    <!-- Forma equivalente -->
    <g style="fill: #2563eb" transform="translate(747.373911 230.485137) scale(0.1 -0.1)">
     <defs>
      <path id="DejaVuSans-Bold-46" d="M 588 4666 
L 3834 4666 
L 3834 3756 
L 1791 3756 
L 1791 2888 
L 3713 2888 
L 3713 1978 
L 1791 1978 
L 1791 0 
L 588 0 
L 588 4666 
z
" transform="scale(0.015625)"/>
      <path id="DejaVuSans-Bold-6d" d="M 3781 2919 
Q 3994 3244 4286 3414 
Q 4578 3584 4928 3584 
Q 5531 3584 5847 3212 
Q 6163 2841 6163 2131 
L 6163 0 
L 5038 0 
L 5038 1825 
Q 5041 1866 5042 1909 
Q 5044 1953 5044 2034 
Q 5044 2406 4934 2573 
Q 4825 2741 4581 2741 
Q 4263 2741 4089 2478 
Q 3916 2216 3909 1719 
L 3909 0 
L 2784 0 
L 2784 1825 
Q 2784 2406 2684 2573 
Q 2584 2741 2328 2741 
Q 2006 2741 1831 2477 
Q 1656 2213 1656 1722 
L 1656 0 
L 531 0 
L 531 3500 
L 1656 3500 
L 1656 2988 
Q 1863 3284 2130 3434 
Q 2397 3584 2719 3584 
Q 3081 3584 3359 3409 
Q 3638 3234 3781 2919 
z
" transform="scale(0.015625)"/>
      <path id="DejaVuSans-Bold-71" d="M 2181 2772 
Q 1825 2772 1636 2509 
Q 1447 2247 1447 1747 
Q 1447 1247 1636 984 
Q 1825 722 2181 722 
Q 2541 722 2730 984 
Q 2919 1247 2919 1747 
Q 2919 2247 2730 2509 
Q 2541 2772 2181 2772 
z
M 2919 506 
Q 2688 197 2409 53 
Q 2131 -91 1766 -91 
Q 1119 -91 703 423 
Q 288 938 288 1747 
Q 288 2556 703 3067 
Q 1119 3578 1766 3578 
Q 2131 3578 2409 3434 
Q 2688 3291 2919 2981 
L 2919 3500 
L 4044 3500 
L 4044 -1331 
L 2919 -1331 
L 2919 506 
z
" transform="scale(0.015625)"/>
      <path id="DejaVuSans-Bold-76" d="M 97 3500 
L 1216 3500 
L 2088 1081 
L 2956 3500 
L 4078 3500 
L 2700 0 
L 1472 0 
L 97 3500 
z
" transform="scale(0.015625)"/>
     </defs>
     <use xlink:href="#DejaVuSans-Bold-46"/>
     <use xlink:href="#DejaVuSans-Bold-6f" transform="translate(64.310547 0)"/>
     <use xlink:href="#DejaVuSans-Bold-72" transform="translate(133.011719 0)"/>
     <use xlink:href="#DejaVuSans-Bold-6d" transform="translate(182.328125 0)"/>
     <use xlink:href="#DejaVuSans-Bold-61" transform="translate(286.527344 0)"/>
     <use xlink:href="#DejaVuSans-Bold-20" transform="translate(354.007812 0)"/>
     <use xlink:href="#DejaVuSans-Bold-65" transform="translate(388.822266 0)"/>
     <use xlink:href="#DejaVuSans-Bold-71" transform="translate(456.644531 0)"/>
     <use xlink:href="#DejaVuSans-Bold-75" transform="translate(528.226562 0)"/>
     <use xlink:href="#DejaVuSans-Bold-69" transform="translate(599.417969 0)"/>
     <use xlink:href="#DejaVuSans-Bold-76" transform="translate(633.695312 0)"/>
     <use xlink:href="#DejaVuSans-Bold-61" transform="translate(698.880859 0)"/>
     <use xlink:href="#DejaVuSans-Bold-6c" transform="translate(766.361328 0)"/>
     <use xlink:href="#DejaVuSans-Bold-65" transform="translate(800.638672 0)"/>
     <use xlink:href="#DejaVuSans-Bold-6e" transform="translate(868.460938 0)"/>
     <use xlink:href="#DejaVuSans-Bold-74" transform="translate(939.652344 0)"/>
     <use xlink:href="#DejaVuSans-Bold-65" transform="translate(987.455078 0)"/>
    </g>
   </g>
   <g id="text_15">
    <!-- $\frac{\sin A}{a} = \frac{\sin B}{b} = \frac{\sin C}{c}$ -->
    <g style="fill: #1f2937" transform="translate(754.358755 280.015763) scale(0.12 -0.12)">
     <use xlink:href="#DejaVuSans-73" transform="translate(0 44.810938) scale(0.7)"/>
     <use xlink:href="#DejaVuSans-69" transform="translate(36.469727 44.810938) scale(0.7)"/>
     <use xlink:href="#DejaVuSans-6e" transform="translate(55.917969 44.810938) scale(0.7)"/>
     <use xlink:href="#DejaVuSans-Oblique-41" transform="translate(111.648177 44.810938) scale(0.7)"/>
     <use xlink:href="#DejaVuSans-Oblique-61" transform="translate(58 -26.634375) scale(0.7)"/>
     <use xlink:href="#DejaVuSans-3d" transform="translate(191.516341 0.01875)"/>
     <use xlink:href="#DejaVuSans-73" transform="translate(294.787825 44.810938) scale(0.7)"/>
     <use xlink:href="#DejaVuSans-69" transform="translate(331.257552 44.810938) scale(0.7)"/>
     <use xlink:href="#DejaVuSans-6e" transform="translate(350.705794 44.810938) scale(0.7)"/>
     <use xlink:href="#DejaVuSans-Oblique-42" transform="translate(406.436001 44.810938) scale(0.7)"/>
     <use xlink:href="#DejaVuSans-Oblique-62" transform="translate(352.787825 -40.623437) scale(0.7)"/>
     <use xlink:href="#DejaVuSans-3d" transform="translate(486.440884 0.01875)"/>
     <use xlink:href="#DejaVuSans-73" transform="translate(589.712369 44.810938) scale(0.7)"/>
     <use xlink:href="#DejaVuSans-69" transform="translate(626.182095 44.810938) scale(0.7)"/>
     <use xlink:href="#DejaVuSans-6e" transform="translate(645.630337 44.810938) scale(0.7)"/>
     <use xlink:href="#DejaVuSans-Oblique-43" transform="translate(701.360545 44.810938) scale(0.7)"/>
     <use xlink:href="#DejaVuSans-Oblique-63" transform="translate(650.712369 -26.634375) scale(0.7)"/>
     <path d="M 0 18.815625 
L 0 25.065625 
L 159.533919 25.065625 
L 159.533919 18.815625 
L 0 18.815625 
z
"/>
     <path d="M 294.787825 18.815625 
L 294.787825 25.065625 
L 454.458462 25.065625 
L 454.458462 18.815625 
L 294.787825 18.815625 
z
"/>
     <path d="M 589.712369 18.815625 
L 589.712369 25.065625 
L 750.237498 25.065625 
L 750.237498 18.815625 
L 589.712369 18.815625 
z
"/>
    </g>
   </g>
   <g id="text_16">
    <!-- Casos de Aplicación -->
    <g style="fill: #059669" transform="translate(744.369224 351.560001) scale(0.1 -0.1)">
     <defs>
      <path id="DejaVuSans-Bold-64" d="M 2919 2988 
L 2919 4863 
L 4044 4863 
L 4044 0 
L 2919 0 
L 2919 506 
Q 2688 197 2409 53 
Q 2131 -91 1766 -91 
Q 1119 -91 703 423 
Q 288 938 288 1747 
Q 288 2556 703 3070 
Q 1119 3584 1766 3584 
Q 2128 3584 2408 3439 
Q 2688 3294 2919 2988 
z
M 2181 722 
Q 2541 722 2730 984 
Q 2919 1247 2919 1747 
Q 2919 2247 2730 2509 
Q 2541 2772 2181 2772 
Q 1825 2772 1636 2509 
Q 1447 2247 1447 1747 
Q 1447 1247 1636 984 
Q 1825 722 2181 722 
z
" transform="scale(0.015625)"/>
      <path id="DejaVuSans-Bold-70" d="M 1656 506 
L 1656 -1331 
L 538 -1331 
L 538 3500 
L 1656 3500 
L 1656 2988 
Q 1888 3294 2169 3439 
Q 2450 3584 2816 3584 
Q 3463 3584 3878 3070 
Q 4294 2556 4294 1747 
Q 4294 938 3878 423 
Q 3463 -91 2816 -91 
Q 2450 -91 2169 54 
Q 1888 200 1656 506 
z
M 2400 2772 
Q 2041 2772 1848 2508 
Q 1656 2244 1656 1747 
Q 1656 1250 1848 986 
Q 2041 722 2400 722 
Q 2759 722 2948 984 
Q 3138 1247 3138 1747 
Q 3138 2247 2948 2509 
Q 2759 2772 2400 2772 
z
" transform="scale(0.015625)"/>
      <path id="DejaVuSans-Bold-f3" d="M 2203 2784 
Q 1831 2784 1636 2517 
Q 1441 2250 1441 1747 
Q 1441 1244 1636 976 
Q 1831 709 2203 709 
Q 2569 709 2762 976 
Q 2956 1244 2956 1747 
Q 2956 2250 2762 2517 
Q 2569 2784 2203 2784 
z
M 2203 3584 
Q 3106 3584 3614 3096 
Q 4122 2609 4122 1747 
Q 4122 884 3614 396 
Q 3106 -91 2203 -91 
Q 1297 -91 786 396 
Q 275 884 275 1747 
Q 275 2609 786 3096 
Q 1297 3584 2203 3584 
z
M 2694 5119 
L 3578 5119 
L 2425 3944 
L 1813 3944 
L 2694 5119 
z
" transform="scale(0.015625)"/>
     </defs>
     <use xlink:href="#DejaVuSans-Bold-43"/>
     <use xlink:href="#DejaVuSans-Bold-61" transform="translate(73.388672 0)"/>
     <use xlink:href="#DejaVuSans-Bold-73" transform="translate(140.869141 0)"/>
     <use xlink:href="#DejaVuSans-Bold-6f" transform="translate(200.390625 0)"/>
     <use xlink:href="#DejaVuSans-Bold-73" transform="translate(269.091797 0)"/>
     <use xlink:href="#DejaVuSans-Bold-20" transform="translate(328.613281 0)"/>
     <use xlink:href="#DejaVuSans-Bold-64" transform="translate(363.427734 0)"/>
     <use xlink:href="#DejaVuSans-Bold-65" transform="translate(435.009766 0)"/>
     <use xlink:href="#DejaVuSans-Bold-20" transform="translate(502.832031 0)"/>
     <use xlink:href="#DejaVuSans-Bold-41" transform="translate(537.646484 0)"/>
     <use xlink:href="#DejaVuSans-Bold-70" transform="translate(615.039062 0)"/>
     <use xlink:href="#DejaVuSans-Bold-6c" transform="translate(686.621094 0)"/>
     <use xlink:href="#DejaVuSans-Bold-69" transform="translate(720.898438 0)"/>
     <use xlink:href="#DejaVuSans-Bold-63" transform="translate(755.175781 0)"/>
     <use xlink:href="#DejaVuSans-Bold-61" transform="translate(814.453125 0)"/>
     <use xlink:href="#DejaVuSans-Bold-63" transform="translate(881.933594 0)"/>
     <use xlink:href="#DejaVuSans-Bold-69" transform="translate(941.210938 0)"/>
     <use xlink:href="#DejaVuSans-Bold-f3" transform="translate(975.488281 0)"/>
     <use xlink:href="#DejaVuSans-Bold-6e" transform="translate(1044.189453 0)"/>
    </g>
   </g>
   <g id="text_17">
    <!-- • ALA: Dos ángulos y un lado -->
    <g style="fill: #374151" transform="translate(624.527712 390.083821) scale(0.09 -0.09)">
     <defs>
      <path id="DejaVuSans-2022" d="M 959 2381 
Q 959 2769 1229 3036 
Q 1500 3303 1894 3303 
Q 2281 3303 2548 3036 
Q 2816 2769 2816 2381 
Q 2816 1991 2547 1722 
Q 2278 1453 1888 1453 
Q 1497 1453 1228 1722 
Q 959 1991 959 2381 
z
" transform="scale(0.015625)"/>
      <path id="DejaVuSans-20" transform="scale(0.015625)"/>
      <path id="DejaVuSans-41" d="M 2188 4044 
L 1331 1722 
L 3047 1722 
L 2188 4044 
z
M 1831 4666 
L 2547 4666 
L 4325 0 
L 3669 0 
L 3244 1197 
L 1141 1197 
L 716 0 
L 50 0 
L 1831 4666 
z
" transform="scale(0.015625)"/>
      <path id="DejaVuSans-4c" d="M 628 4666 
L 1259 4666 
L 1259 531 
L 3531 531 
L 3531 0 
L 628 0 
L 628 4666 
z
" transform="scale(0.015625)"/>
      <path id="DejaVuSans-3a" d="M 750 794 
L 1409 794 
L 1409 0 
L 750 0 
L 750 794 
z
M 750 3309 
L 1409 3309 
L 1409 2516 
L 750 2516 
L 750 3309 
z
" transform="scale(0.015625)"/>
      <path id="DejaVuSans-44" d="M 1259 4147 
L 1259 519 
L 2022 519 
Q 2988 519 3436 956 
Q 3884 1394 3884 2338 
Q 3884 3275 3436 3711 
Q 2988 4147 2022 4147 
L 1259 4147 
z
M 628 4666 
L 1925 4666 
Q 3281 4666 3915 4102 
Q 4550 3538 4550 2338 
Q 4550 1131 3912 565 
Q 3275 0 1925 0 
L 628 0 
L 628 4666 
z
" transform="scale(0.015625)"/>
      <path id="DejaVuSans-6f" d="M 1959 3097 
Q 1497 3097 1228 2736 
Q 959 2375 959 1747 
Q 959 1119 1226 758 
Q 1494 397 1959 397 
Q 2419 397 2687 759 
Q 2956 1122 2956 1747 
Q 2956 2369 2687 2733 
Q 2419 3097 1959 3097 
z
M 1959 3584 
Q 2709 3584 3137 3096 
Q 3566 2609 3566 1747 
Q 3566 888 3137 398 
Q 2709 -91 1959 -91 
Q 1206 -91 779 398 
Q 353 888 353 1747 
Q 353 2609 779 3096 
Q 1206 3584 1959 3584 
z
" transform="scale(0.015625)"/>
      <path id="DejaVuSans-e1" d="M 2194 1759 
Q 1497 1759 1228 1600 
Q 959 1441 959 1056 
Q 959 750 1161 570 
Q 1363 391 1709 391 
Q 2188 391 2477 730 
Q 2766 1069 2766 1631 
L 2766 1759 
L 2194 1759 
z
M 3341 1997 
L 3341 0 
L 2766 0 
L 2766 531 
Q 2569 213 2275 61 
Q 1981 -91 1556 -91 
Q 1019 -91 701 211 
Q 384 513 384 1019 
Q 384 1609 779 1909 
Q 1175 2209 1959 2209 
L 2766 2209 
L 2766 2266 
Q 2766 2663 2505 2880 
Q 2244 3097 1772 3097 
Q 1472 3097 1187 3025 
Q 903 2953 641 2809 
L 641 3341 
Q 956 3463 1253 3523 
Q 1550 3584 1831 3584 
Q 2591 3584 2966 3190 
Q 3341 2797 3341 1997 
z
M 2290 5119 
L 2912 5119 
L 1894 3944 
L 1415 3944 
L 2290 5119 
z
" transform="scale(0.015625)"/>
      <path id="DejaVuSans-67" d="M 2906 1791 
Q 2906 2416 2648 2759 
Q 2391 3103 1925 3103 
Q 1463 3103 1205 2759 
Q 947 2416 947 1791 
Q 947 1169 1205 825 
Q 1463 481 1925 481 
Q 2391 481 2648 825 
Q 2906 1169 2906 1791 
z
M 3481 434 
Q 3481 -459 3084 -895 
Q 2688 -1331 1869 -1331 
Q 1566 -1331 1297 -1286 
Q 1028 -1241 775 -1147 
L 775 -588 
Q 1028 -725 1275 -790 
Q 1522 -856 1778 -856 
Q 2344 -856 2625 -561 
Q 2906 -266 2906 331 
L 2906 616 
Q 2728 306 2450 153 
Q 2172 0 1784 0 
Q 1141 0 747 490 
Q 353 981 353 1791 
Q 353 2603 747 3093 
Q 1141 3584 1784 3584 
Q 2172 3584 2450 3431 
Q 2728 3278 2906 2969 
L 2906 3500 
L 3481 3500 
L 3481 434 
z
" transform="scale(0.015625)"/>
      <path id="DejaVuSans-75" d="M 544 1381 
L 544 3500 
L 1119 3500 
L 1119 1403 
Q 1119 906 1312 657 
Q 1506 409 1894 409 
Q 2359 409 2629 706 
Q 2900 1003 2900 1516 
L 2900 3500 
L 3475 3500 
L 3475 0 
L 2900 0 
L 2900 538 
Q 2691 219 2414 64 
Q 2138 -91 1772 -91 
Q 1169 -91 856 284 
Q 544 659 544 1381 
z
M 1991 3584 
L 1991 3584 
z
" transform="scale(0.015625)"/>
      <path id="DejaVuSans-6c" d="M 603 4863 
L 1178 4863 
L 1178 0 
L 603 0 
L 603 4863 
z
" transform="scale(0.015625)"/>
      <path id="DejaVuSans-79" d="M 2059 -325 
Q 1816 -950 1584 -1140 
Q 1353 -1331 966 -1331 
L 506 -1331 
L 506 -850 
L 844 -850 
Q 1081 -850 1212 -737 
Q 1344 -625 1503 -206 
L 1606 56 
L 191 3500 
L 800 3500 
L 1894 763 
L 2988 3500 
L 3597 3500 
L 2059 -325 
z
" transform="scale(0.015625)"/>
      <path id="DejaVuSans-61" d="M 2194 1759 
Q 1497 1759 1228 1600 
Q 959 1441 959 1056 
Q 959 750 1161 570 
Q 1363 391 1709 391 
Q 2188 391 2477 730 
Q 2766 1069 2766 1631 
L 2766 1759 
L 2194 1759 
z
M 3341 1997 
L 3341 0 
L 2766 0 
L 2766 531 
Q 2569 213 2275 61 
Q 1981 -91 1556 -91 
Q 1019 -91 701 211 
Q 384 513 384 1019 
Q 384 1609 779 1909 
Q 1175 2209 1959 2209 
L 2766 2209 
L 2766 2266 
Q 2766 2663 2505 2880 
Q 2244 3097 1772 3097 
Q 1472 3097 1187 3025 
Q 903 2953 641 2809 
L 641 3341 
Q 956 3463 1253 3523 
Q 1550 3584 1831 3584 
Q 2591 3584 2966 3190 
Q 3341 2797 3341 1997 
z
" transform="scale(0.015625)"/>
      <path id="DejaVuSans-64" d="M 2906 2969 
L 2906 4863 
L 3481 4863 
L 3481 0 
L 2906 0 
L 2906 525 
Q 2725 213 2448 61 
Q 2172 -91 1784 -91 
Q 1150 -91 751 415 
Q 353 922 353 1747 
Q 353 2572 751 3078 
Q 1150 3584 1784 3584 
Q 2172 3584 2448 3432 
Q 2725 3281 2906 2969 
z
M 947 1747 
Q 947 1113 1208 752 
Q 1469 391 1925 391 
Q 2381 391 2643 752 
Q 2906 1113 2906 1747 
Q 2906 2381 2643 2742 
Q 2381 3103 1925 3103 
Q 1469 3103 1208 2742 
Q 947 2381 947 1747 
z
" transform="scale(0.015625)"/>
     </defs>
     <use xlink:href="#DejaVuSans-2022"/>
     <use xlink:href="#DejaVuSans-20" transform="translate(58.984375 0)"/>
     <use xlink:href="#DejaVuSans-41" transform="translate(90.771484 0)"/>
     <use xlink:href="#DejaVuSans-4c" transform="translate(159.179688 0)"/>
     <use xlink:href="#DejaVuSans-41" transform="translate(217.142578 0)"/>
     <use xlink:href="#DejaVuSans-3a" transform="translate(283.800781 0)"/>
     <use xlink:href="#DejaVuSans-20" transform="translate(317.492188 0)"/>
     <use xlink:href="#DejaVuSans-44" transform="translate(349.279297 0)"/>
     <use xlink:href="#DejaVuSans-6f" transform="translate(426.28125 0)"/>
     <use xlink:href="#DejaVuSans-73" transform="translate(487.462891 0)"/>
     <use xlink:href="#DejaVuSans-20" transform="translate(539.5625 0)"/>
     <use xlink:href="#DejaVuSans-e1" transform="translate(571.349609 0)"/>
     <use xlink:href="#DejaVuSans-6e" transform="translate(632.628906 0)"/>
     <use xlink:href="#DejaVuSans-67" transform="translate(696.007812 0)"/>
     <use xlink:href="#DejaVuSans-75" transform="translate(759.484375 0)"/>
     <use xlink:href="#DejaVuSans-6c" transform="translate(822.863281 0)"/>
     <use xlink:href="#DejaVuSans-6f" transform="translate(850.646484 0)"/>
     <use xlink:href="#DejaVuSans-73" transform="translate(911.828125 0)"/>
     <use xlink:href="#DejaVuSans-20" transform="translate(963.927734 0)"/>
     <use xlink:href="#DejaVuSans-79" transform="translate(995.714844 0)"/>
     <use xlink:href="#DejaVuSans-20" transform="translate(1054.894531 0)"/>
     <use xlink:href="#DejaVuSans-75" transform="translate(1086.681641 0)"/>
     <use xlink:href="#DejaVuSans-6e" transform="translate(1150.060547 0)"/>
     <use xlink:href="#DejaVuSans-20" transform="translate(1213.439453 0)"/>
     <use xlink:href="#DejaVuSans-6c" transform="translate(1245.226562 0)"/>
     <use xlink:href="#DejaVuSans-61" transform="translate(1273.009766 0)"/>
     <use xlink:href="#DejaVuSans-64" transform="translate(1334.289062 0)"/>
     <use xlink:href="#DejaVuSans-6f" transform="translate(1397.765625 0)"/>
    </g>
   </g>
   <g id="text_18">
    <!-- • LAA: Un lado y dos ángulos -->
    <g style="fill: #374151" transform="translate(624.527712 425.85594) scale(0.09 -0.09)">
     <defs>
      <path id="DejaVuSans-55" d="M 556 4666 
L 1191 4666 
L 1191 1831 
Q 1191 1081 1462 751 
Q 1734 422 2344 422 
Q 2950 422 3222 751 
Q 3494 1081 3494 1831 
L 3494 4666 
L 4128 4666 
L 4128 1753 
Q 4128 841 3676 375 
Q 3225 -91 2344 -91 
Q 1459 -91 1007 375 
Q 556 841 556 1753 
L 556 4666 
z
" transform="scale(0.015625)"/>
     </defs>
     <use xlink:href="#DejaVuSans-2022"/>
     <use xlink:href="#DejaVuSans-20" transform="translate(58.984375 0)"/>
     <use xlink:href="#DejaVuSans-4c" transform="translate(90.771484 0)"/>
     <use xlink:href="#DejaVuSans-41" transform="translate(148.734375 0)"/>
     <use xlink:href="#DejaVuSans-41" transform="translate(219.892578 0)"/>
     <use xlink:href="#DejaVuSans-3a" transform="translate(286.550781 0)"/>
     <use xlink:href="#DejaVuSans-20" transform="translate(320.242188 0)"/>
     <use xlink:href="#DejaVuSans-55" transform="translate(352.029297 0)"/>
     <use xlink:href="#DejaVuSans-6e" transform="translate(425.222656 0)"/>
     <use xlink:href="#DejaVuSans-20" transform="translate(488.601562 0)"/>
     <use xlink:href="#DejaVuSans-6c" transform="translate(520.388672 0)"/>
     <use xlink:href="#DejaVuSans-61" transform="translate(548.171875 0)"/>
     <use xlink:href="#DejaVuSans-64" transform="translate(609.451172 0)"/>
     <use xlink:href="#DejaVuSans-6f" transform="translate(672.927734 0)"/>
     <use xlink:href="#DejaVuSans-20" transform="translate(734.109375 0)"/>
     <use xlink:href="#DejaVuSans-79" transform="translate(765.896484 0)"/>
     <use xlink:href="#DejaVuSans-20" transform="translate(825.076172 0)"/>
     <use xlink:href="#DejaVuSans-64" transform="translate(856.863281 0)"/>
     <use xlink:href="#DejaVuSans-6f" transform="translate(920.339844 0)"/>
     <use xlink:href="#DejaVuSans-73" transform="translate(981.521484 0)"/>
     <use xlink:href="#DejaVuSans-20" transform="translate(1033.621094 0)"/>
     <use xlink:href="#DejaVuSans-e1" transform="translate(1065.408203 0)"/>
     <use xlink:href="#DejaVuSans-6e" transform="translate(1126.6875 0)"/>
     <use xlink:href="#DejaVuSans-67" transform="translate(1190.066406 0)"/>
     <use xlink:href="#DejaVuSans-75" transform="translate(1253.542969 0)"/>
     <use xlink:href="#DejaVuSans-6c" transform="translate(1316.921875 0)"/>
     <use xlink:href="#DejaVuSans-6f" transform="translate(1344.705078 0)"/>
     <use xlink:href="#DejaVuSans-73" transform="translate(1405.886719 0)"/>
    </g>
   </g>
   <g id="text_19">
    <!-- • LLA: Dos lados y ángulo opuesto -->
    <g style="fill: #374151" transform="translate(624.527712 461.628059) scale(0.09 -0.09)">
     <defs>
      <path id="DejaVuSans-70" d="M 1159 525 
L 1159 -1331 
L 581 -1331 
L 581 3500 
L 1159 3500 
L 1159 2969 
Q 1341 3281 1617 3432 
Q 1894 3584 2278 3584 
Q 2916 3584 3314 3078 
Q 3713 2572 3713 1747 
Q 3713 922 3314 415 
Q 2916 -91 2278 -91 
Q 1894 -91 1617 61 
Q 1341 213 1159 525 
z
M 3116 1747 
Q 3116 2381 2855 2742 
Q 2594 3103 2138 3103 
Q 1681 3103 1420 2742 
Q 1159 2381 1159 1747 
Q 1159 1113 1420 752 
Q 1681 391 2138 391 
Q 2594 391 2855 752 
Q 3116 1113 3116 1747 
z
" transform="scale(0.015625)"/>
      <path id="DejaVuSans-65" d="M 3597 1894 
L 3597 1613 
L 953 1613 
Q 991 1019 1311 708 
Q 1631 397 2203 397 
Q 2534 397 2845 478 
Q 3156 559 3463 722 
L 3463 178 
Q 3153 47 2828 -22 
Q 2503 -91 2169 -91 
Q 1331 -91 842 396 
Q 353 884 353 1716 
Q 353 2575 817 3079 
Q 1281 3584 2069 3584 
Q 2775 3584 3186 3129 
Q 3597 2675 3597 1894 
z
M 3022 2063 
Q 3016 2534 2758 2815 
Q 2500 3097 2075 3097 
Q 1594 3097 1305 2825 
Q 1016 2553 972 2059 
L 3022 2063 
z
" transform="scale(0.015625)"/>
      <path id="DejaVuSans-74" d="M 1172 4494 
L 1172 3500 
L 2356 3500 
L 2356 3053 
L 1172 3053 
L 1172 1153 
Q 1172 725 1289 603 
Q 1406 481 1766 481 
L 2356 481 
L 2356 0 
L 1766 0 
Q 1100 0 847 248 
Q 594 497 594 1153 
L 594 3053 
L 172 3053 
L 172 3500 
L 594 3500 
L 594 4494 
L 1172 4494 
z
" transform="scale(0.015625)"/>
     </defs>
     <use xlink:href="#DejaVuSans-2022"/>
     <use xlink:href="#DejaVuSans-20" transform="translate(58.984375 0)"/>
     <use xlink:href="#DejaVuSans-4c" transform="translate(90.771484 0)"/>
     <use xlink:href="#DejaVuSans-4c" transform="translate(146.484375 0)"/>
     <use xlink:href="#DejaVuSans-41" transform="translate(204.447266 0)"/>
     <use xlink:href="#DejaVuSans-3a" transform="translate(271.105469 0)"/>
     <use xlink:href="#DejaVuSans-20" transform="translate(304.796875 0)"/>
     <use xlink:href="#DejaVuSans-44" transform="translate(336.583984 0)"/>
     <use xlink:href="#DejaVuSans-6f" transform="translate(413.585938 0)"/>
     <use xlink:href="#DejaVuSans-73" transform="translate(474.767578 0)"/>
     <use xlink:href="#DejaVuSans-20" transform="translate(526.867188 0)"/>
     <use xlink:href="#DejaVuSans-6c" transform="translate(558.654297 0)"/>
     <use xlink:href="#DejaVuSans-61" transform="translate(586.4375 0)"/>
     <use xlink:href="#DejaVuSans-64" transform="translate(647.716797 0)"/>
     <use xlink:href="#DejaVuSans-6f" transform="translate(711.193359 0)"/>
     <use xlink:href="#DejaVuSans-73" transform="translate(772.375 0)"/>
     <use xlink:href="#DejaVuSans-20" transform="translate(824.474609 0)"/>
     <use xlink:href="#DejaVuSans-79" transform="translate(856.261719 0)"/>
     <use xlink:href="#DejaVuSans-20" transform="translate(915.441406 0)"/>
     <use xlink:href="#DejaVuSans-e1" transform="translate(947.228516 0)"/>
     <use xlink:href="#DejaVuSans-6e" transform="translate(1008.507812 0)"/>
     <use xlink:href="#DejaVuSans-67" transform="translate(1071.886719 0)"/>
     <use xlink:href="#DejaVuSans-75" transform="translate(1135.363281 0)"/>
     <use xlink:href="#DejaVuSans-6c" transform="translate(1198.742188 0)"/>
     <use xlink:href="#DejaVuSans-6f" transform="translate(1226.525391 0)"/>
     <use xlink:href="#DejaVuSans-20" transform="translate(1287.707031 0)"/>
     <use xlink:href="#DejaVuSans-6f" transform="translate(1319.494141 0)"/>
     <use xlink:href="#DejaVuSans-70" transform="translate(1380.675781 0)"/>
     <use xlink:href="#DejaVuSans-75" transform="translate(1444.152344 0)"/>
     <use xlink:href="#DejaVuSans-65" transform="translate(1507.53125 0)"/>
     <use xlink:href="#DejaVuSans-73" transform="translate(1569.054688 0)"/>
     <use xlink:href="#DejaVuSans-74" transform="translate(1621.154297 0)"/>
     <use xlink:href="#DejaVuSans-6f" transform="translate(1660.363281 0)"/>
    </g>
   </g>
   <g id="text_20">
    <!--   (caso ambiguo) -->
    <g style="fill: #374151" transform="translate(624.527712 497.400178) scale(0.09 -0.09)">
     <defs>
      <path id="DejaVuSans-28" d="M 1984 4856 
Q 1566 4138 1362 3434 
Q 1159 2731 1159 2009 
Q 1159 1288 1364 580 
Q 1569 -128 1984 -844 
L 1484 -844 
Q 1016 -109 783 600 
Q 550 1309 550 2009 
Q 550 2706 781 3412 
Q 1013 4119 1484 4856 
L 1984 4856 
z
" transform="scale(0.015625)"/>
      <path id="DejaVuSans-63" d="M 3122 3366 
L 3122 2828 
Q 2878 2963 2633 3030 
Q 2388 3097 2138 3097 
Q 1578 3097 1268 2742 
Q 959 2388 959 1747 
Q 959 1106 1268 751 
Q 1578 397 2138 397 
Q 2388 397 2633 464 
Q 2878 531 3122 666 
L 3122 134 
Q 2881 22 2623 -34 
Q 2366 -91 2075 -91 
Q 1284 -91 818 406 
Q 353 903 353 1747 
Q 353 2603 823 3093 
Q 1294 3584 2113 3584 
Q 2378 3584 2631 3529 
Q 2884 3475 3122 3366 
z
" transform="scale(0.015625)"/>
      <path id="DejaVuSans-6d" d="M 3328 2828 
Q 3544 3216 3844 3400 
Q 4144 3584 4550 3584 
Q 5097 3584 5394 3201 
Q 5691 2819 5691 2113 
L 5691 0 
L 5113 0 
L 5113 2094 
Q 5113 2597 4934 2840 
Q 4756 3084 4391 3084 
Q 3944 3084 3684 2787 
Q 3425 2491 3425 1978 
L 3425 0 
L 2847 0 
L 2847 2094 
Q 2847 2600 2669 2842 
Q 2491 3084 2119 3084 
Q 1678 3084 1418 2786 
Q 1159 2488 1159 1978 
L 1159 0 
L 581 0 
L 581 3500 
L 1159 3500 
L 1159 2956 
Q 1356 3278 1631 3431 
Q 1906 3584 2284 3584 
Q 2666 3584 2933 3390 
Q 3200 3197 3328 2828 
z
" transform="scale(0.015625)"/>
      <path id="DejaVuSans-62" d="M 3116 1747 
Q 3116 2381 2855 2742 
Q 2594 3103 2138 3103 
Q 1681 3103 1420 2742 
Q 1159 2381 1159 1747 
Q 1159 1113 1420 752 
Q 1681 391 2138 391 
Q 2594 391 2855 752 
Q 3116 1113 3116 1747 
z
M 1159 2969 
Q 1341 3281 1617 3432 
Q 1894 3584 2278 3584 
Q 2916 3584 3314 3078 
Q 3713 2572 3713 1747 
Q 3713 922 3314 415 
Q 2916 -91 2278 -91 
Q 1894 -91 1617 61 
Q 1341 213 1159 525 
L 1159 0 
L 581 0 
L 581 4863 
L 1159 4863 
L 1159 2969 
z
" transform="scale(0.015625)"/>
      <path id="DejaVuSans-29" d="M 513 4856 
L 1013 4856 
Q 1481 4119 1714 3412 
Q 1947 2706 1947 2009 
Q 1947 1309 1714 600 
Q 1481 -109 1013 -844 
L 513 -844 
Q 928 -128 1133 580 
Q 1338 1288 1338 2009 
Q 1338 2731 1133 3434 
Q 928 4138 513 4856 
z
" transform="scale(0.015625)"/>
     </defs>
     <use xlink:href="#DejaVuSans-20"/>
     <use xlink:href="#DejaVuSans-20" transform="translate(31.787109 0)"/>
     <use xlink:href="#DejaVuSans-28" transform="translate(63.574219 0)"/>
     <use xlink:href="#DejaVuSans-63" transform="translate(102.587891 0)"/>
     <use xlink:href="#DejaVuSans-61" transform="translate(157.568359 0)"/>
     <use xlink:href="#DejaVuSans-73" transform="translate(218.847656 0)"/>
     <use xlink:href="#DejaVuSans-6f" transform="translate(270.947266 0)"/>
     <use xlink:href="#DejaVuSans-20" transform="translate(332.128906 0)"/>
     <use xlink:href="#DejaVuSans-61" transform="translate(363.916016 0)"/>
     <use xlink:href="#DejaVuSans-6d" transform="translate(425.195312 0)"/>
     <use xlink:href="#DejaVuSans-62" transform="translate(522.607422 0)"/>
     <use xlink:href="#DejaVuSans-69" transform="translate(586.083984 0)"/>
     <use xlink:href="#DejaVuSans-67" transform="translate(613.867188 0)"/>
     <use xlink:href="#DejaVuSans-75" transform="translate(677.34375 0)"/>
     <use xlink:href="#DejaVuSans-6f" transform="translate(740.722656 0)"/>
     <use xlink:href="#DejaVuSans-29" transform="translate(801.904297 0)"/>
    </g>
   </g>
   <g id="text_21">
    <!-- R = radio de la circunferencia circunscrita -->
    <g style="fill: #6b7280" transform="translate(705.307583 560.689311) scale(0.09 -0.09)">
     <defs>
      <path id="DejaVuSans-Oblique-20" transform="scale(0.015625)"/>
      <path id="DejaVuSans-Oblique-3d" d="M 678 2906 
L 4684 2906 
L 4684 2381 
L 678 2381 
L 678 2906 
z
M 678 1631 
L 4684 1631 
L 4684 1100 
L 678 1100 
L 678 1631 
z
" transform="scale(0.015625)"/>
      <path id="DejaVuSans-Oblique-72" d="M 2853 2969 
Q 2766 3016 2653 3041 
Q 2541 3066 2413 3066 
Q 1953 3066 1609 2717 
Q 1266 2369 1153 1784 
L 800 0 
L 225 0 
L 909 3500 
L 1484 3500 
L 1375 2956 
Q 1603 3259 1920 3421 
Q 2238 3584 2597 3584 
Q 2691 3584 2781 3573 
Q 2872 3563 2963 3538 
L 2853 2969 
z
" transform="scale(0.015625)"/>
      <path id="DejaVuSans-Oblique-64" d="M 2675 525 
Q 2444 222 2128 65 
Q 1813 -91 1428 -91 
Q 903 -91 598 267 
Q 294 625 294 1247 
Q 294 1766 478 2236 
Q 663 2706 1013 3078 
Q 1244 3325 1534 3454 
Q 1825 3584 2144 3584 
Q 2481 3584 2739 3421 
Q 2997 3259 3138 2956 
L 3513 4863 
L 4091 4863 
L 3144 0 
L 2566 0 
L 2675 525 
z
M 891 1350 
Q 891 897 1095 644 
Q 1300 391 1663 391 
Q 1931 391 2161 520 
Q 2391 650 2566 903 
Q 2750 1166 2856 1509 
Q 2963 1853 2963 2188 
Q 2963 2622 2758 2865 
Q 2553 3109 2194 3109 
Q 1922 3109 1687 2981 
Q 1453 2853 1288 2613 
Q 1106 2353 998 2009 
Q 891 1666 891 1350 
z
" transform="scale(0.015625)"/>
      <path id="DejaVuSans-Oblique-69" d="M 1172 4863 
L 1747 4863 
L 1606 4134 
L 1031 4134 
L 1172 4863 
z
M 909 3500 
L 1484 3500 
L 800 0 
L 225 0 
L 909 3500 
z
" transform="scale(0.015625)"/>
      <path id="DejaVuSans-Oblique-6f" d="M 1625 -91 
Q 1009 -91 651 289 
Q 294 669 294 1325 
Q 294 1706 417 2101 
Q 541 2497 738 2766 
Q 1047 3184 1428 3384 
Q 1809 3584 2291 3584 
Q 2888 3584 3255 3212 
Q 3622 2841 3622 2241 
Q 3622 1825 3500 1412 
Q 3378 1000 3181 728 
Q 2875 309 2494 109 
Q 2113 -91 1625 -91 
z
M 891 1344 
Q 891 869 1089 633 
Q 1288 397 1691 397 
Q 2269 397 2648 901 
Q 3028 1406 3028 2181 
Q 3028 2634 2825 2865 
Q 2622 3097 2228 3097 
Q 1903 3097 1650 2945 
Q 1397 2794 1197 2484 
Q 1050 2253 970 1956 
Q 891 1659 891 1344 
z
" transform="scale(0.015625)"/>
      <path id="DejaVuSans-Oblique-65" d="M 3078 2063 
Q 3088 2113 3092 2166 
Q 3097 2219 3097 2272 
Q 3097 2653 2873 2875 
Q 2650 3097 2266 3097 
Q 1838 3097 1509 2826 
Q 1181 2556 1013 2059 
L 3078 2063 
z
M 3578 1613 
L 903 1613 
Q 884 1494 878 1425 
Q 872 1356 872 1306 
Q 872 872 1139 634 
Q 1406 397 1894 397 
Q 2269 397 2603 481 
Q 2938 566 3225 728 
L 3116 159 
Q 2806 34 2476 -28 
Q 2147 -91 1806 -91 
Q 1078 -91 686 257 
Q 294 606 294 1247 
Q 294 1794 489 2264 
Q 684 2734 1063 3103 
Q 1306 3334 1642 3459 
Q 1978 3584 2356 3584 
Q 2950 3584 3301 3228 
Q 3653 2872 3653 2272 
Q 3653 2128 3634 1964 
Q 3616 1800 3578 1613 
z
" transform="scale(0.015625)"/>
      <path id="DejaVuSans-Oblique-6c" d="M 1172 4863 
L 1747 4863 
L 800 0 
L 225 0 
L 1172 4863 
z
" transform="scale(0.015625)"/>
      <path id="DejaVuSans-Oblique-75" d="M 428 1388 
L 838 3500 
L 1416 3500 
L 1006 1409 
Q 975 1256 961 1147 
Q 947 1038 947 966 
Q 947 700 1109 554 
Q 1272 409 1569 409 
Q 2031 409 2368 721 
Q 2706 1034 2809 1563 
L 3194 3500 
L 3769 3500 
L 3091 0 
L 2516 0 
L 2631 550 
Q 2388 244 2052 76 
Q 1716 -91 1338 -91 
Q 878 -91 622 161 
Q 366 413 366 863 
Q 366 956 381 1097 
Q 397 1238 428 1388 
z
" transform="scale(0.015625)"/>
      <path id="DejaVuSans-Oblique-6e" d="M 3566 2113 
L 3156 0 
L 2578 0 
L 2988 2091 
Q 3016 2238 3031 2350 
Q 3047 2463 3047 2528 
Q 3047 2791 2881 2937 
Q 2716 3084 2419 3084 
Q 1956 3084 1622 2776 
Q 1288 2469 1184 1941 
L 800 0 
L 225 0 
L 903 3500 
L 1478 3500 
L 1363 2950 
Q 1603 3253 1940 3418 
Q 2278 3584 2650 3584 
Q 3113 3584 3367 3334 
Q 3622 3084 3622 2631 
Q 3622 2519 3608 2391 
Q 3594 2263 3566 2113 
z
" transform="scale(0.015625)"/>
      <path id="DejaVuSans-Oblique-66" d="M 3059 4863 
L 2969 4384 
L 2419 4384 
Q 2106 4384 1964 4261 
Q 1822 4138 1753 3809 
L 1691 3500 
L 2638 3500 
L 2553 3053 
L 1606 3053 
L 1013 0 
L 434 0 
L 1031 3053 
L 481 3053 
L 563 3500 
L 1113 3500 
L 1159 3744 
Q 1278 4363 1576 4613 
Q 1875 4863 2516 4863 
L 3059 4863 
z
" transform="scale(0.015625)"/>
      <path id="DejaVuSans-Oblique-73" d="M 3200 3397 
L 3091 2853 
Q 2863 2978 2609 3040 
Q 2356 3103 2088 3103 
Q 1634 3103 1373 2948 
Q 1113 2794 1113 2528 
Q 1113 2219 1719 2053 
Q 1766 2041 1788 2034 
L 1972 1978 
Q 2547 1819 2739 1644 
Q 2931 1469 2931 1166 
Q 2931 609 2489 259 
Q 2047 -91 1331 -91 
Q 1053 -91 747 -37 
Q 441 16 72 128 
L 184 722 
Q 500 559 806 475 
Q 1113 391 1394 391 
Q 1816 391 2080 572 
Q 2344 753 2344 1031 
Q 2344 1331 1650 1516 
L 1591 1531 
L 1394 1581 
Q 956 1697 753 1886 
Q 550 2075 550 2369 
Q 550 2928 970 3256 
Q 1391 3584 2113 3584 
Q 2397 3584 2667 3537 
Q 2938 3491 3200 3397 
z
" transform="scale(0.015625)"/>
      <path id="DejaVuSans-Oblique-74" d="M 2706 3500 
L 2619 3053 
L 1472 3053 
L 1100 1153 
Q 1081 1047 1072 975 
Q 1063 903 1063 863 
Q 1063 663 1183 572 
Q 1303 481 1569 481 
L 2150 481 
L 2053 0 
L 1503 0 
Q 991 0 739 200 
Q 488 400 488 806 
Q 488 878 497 964 
Q 506 1050 525 1153 
L 897 3053 
L 409 3053 
L 500 3500 
L 978 3500 
L 1172 4494 
L 1747 4494 
L 1556 3500 
L 2706 3500 
z
" transform="scale(0.015625)"/>
     </defs>
     <use xlink:href="#DejaVuSans-Oblique-52"/>
     <use xlink:href="#DejaVuSans-Oblique-20" transform="translate(69.482422 0)"/>
     <use xlink:href="#DejaVuSans-Oblique-3d" transform="translate(101.269531 0)"/>
     <use xlink:href="#DejaVuSans-Oblique-20" transform="translate(185.058594 0)"/>
     <use xlink:href="#DejaVuSans-Oblique-72" transform="translate(216.845703 0)"/>
     <use xlink:href="#DejaVuSans-Oblique-61" transform="translate(257.958984 0)"/>
     <use xlink:href="#DejaVuSans-Oblique-64" transform="translate(319.238281 0)"/>
     <use xlink:href="#DejaVuSans-Oblique-69" transform="translate(382.714844 0)"/>
     <use xlink:href="#DejaVuSans-Oblique-6f" transform="translate(410.498047 0)"/>
     <use xlink:href="#DejaVuSans-Oblique-20" transform="translate(471.679688 0)"/>
     <use xlink:href="#DejaVuSans-Oblique-64" transform="translate(503.466797 0)"/>
     <use xlink:href="#DejaVuSans-Oblique-65" transform="translate(566.943359 0)"/>
     <use xlink:href="#DejaVuSans-Oblique-20" transform="translate(628.466797 0)"/>
     <use xlink:href="#DejaVuSans-Oblique-6c" transform="translate(660.253906 0)"/>
     <use xlink:href="#DejaVuSans-Oblique-61" transform="translate(688.037109 0)"/>
     <use xlink:href="#DejaVuSans-Oblique-20" transform="translate(749.316406 0)"/>
     <use xlink:href="#DejaVuSans-Oblique-63" transform="translate(781.103516 0)"/>
     <use xlink:href="#DejaVuSans-Oblique-69" transform="translate(836.083984 0)"/>
     <use xlink:href="#DejaVuSans-Oblique-72" transform="translate(863.867188 0)"/>
     <use xlink:href="#DejaVuSans-Oblique-63" transform="translate(904.980469 0)"/>
     <use xlink:href="#DejaVuSans-Oblique-75" transform="translate(959.960938 0)"/>
     <use xlink:href="#DejaVuSans-Oblique-6e" transform="translate(1023.339844 0)"/>
     <use xlink:href="#DejaVuSans-Oblique-66" transform="translate(1086.71875 0)"/>
     <use xlink:href="#DejaVuSans-Oblique-65" transform="translate(1121.923828 0)"/>
     <use xlink:href="#DejaVuSans-Oblique-72" transform="translate(1183.447266 0)"/>
     <use xlink:href="#DejaVuSans-Oblique-65" transform="translate(1224.560547 0)"/>
     <use xlink:href="#DejaVuSans-Oblique-6e" transform="translate(1286.083984 0)"/>
     <use xlink:href="#DejaVuSans-Oblique-63" transform="translate(1349.462891 0)"/>
     <use xlink:href="#DejaVuSans-Oblique-69" transform="translate(1404.443359 0)"/>
     <use xlink:href="#DejaVuSans-Oblique-61" transform="translate(1432.226562 0)"/>
     <use xlink:href="#DejaVuSans-Oblique-20" transform="translate(1493.505859 0)"/>
     <use xlink:href="#DejaVuSans-Oblique-63" transform="translate(1525.292969 0)"/>
     <use xlink:href="#DejaVuSans-Oblique-69" transform="translate(1580.273438 0)"/>
     <use xlink:href="#DejaVuSans-Oblique-72" transform="translate(1608.056641 0)"/>
     <use xlink:href="#DejaVuSans-Oblique-63" transform="translate(1649.169922 0)"/>
     <use xlink:href="#DejaVuSans-Oblique-75" transform="translate(1704.150391 0)"/>
     <use xlink:href="#DejaVuSans-Oblique-6e" transform="translate(1767.529297 0)"/>
     <use xlink:href="#DejaVuSans-Oblique-73" transform="translate(1830.908203 0)"/>
     <use xlink:href="#DejaVuSans-Oblique-63" transform="translate(1883.007812 0)"/>
     <use xlink:href="#DejaVuSans-Oblique-72" transform="translate(1937.988281 0)"/>
     <use xlink:href="#DejaVuSans-Oblique-69" transform="translate(1979.101562 0)"/>
     <use xlink:href="#DejaVuSans-Oblique-74" transform="translate(2006.884766 0)"/>
     <use xlink:href="#DejaVuSans-Oblique-61" transform="translate(2046.09375 0)"/>
    </g>
   </g>
  </g>
  <g id="text_22">
   <!-- Ley de Senos -->
   <g style="fill: #1f2937" transform="translate(456.048666 17.837812) scale(0.14 -0.14)">
    <defs>
     <path id="DejaVuSans-Bold-79" d="M 78 3500 
L 1197 3500 
L 2138 1125 
L 2938 3500 
L 4056 3500 
L 2584 -331 
Q 2363 -916 2067 -1148 
Q 1772 -1381 1288 -1381 
L 641 -1381 
L 641 -647 
L 991 -647 
Q 1275 -647 1404 -556 
Q 1534 -466 1606 -231 
L 1638 -134 
L 78 3500 
z
" transform="scale(0.015625)"/>
    </defs>
    <use xlink:href="#DejaVuSans-Bold-4c"/>
    <use xlink:href="#DejaVuSans-Bold-65" transform="translate(63.720703 0)"/>
    <use xlink:href="#DejaVuSans-Bold-79" transform="translate(131.542969 0)"/>
    <use xlink:href="#DejaVuSans-Bold-20" transform="translate(196.728516 0)"/>
    <use xlink:href="#DejaVuSans-Bold-64" transform="translate(231.542969 0)"/>
    <use xlink:href="#DejaVuSans-Bold-65" transform="translate(303.125 0)"/>
    <use xlink:href="#DejaVuSans-Bold-20" transform="translate(370.947266 0)"/>
    <use xlink:href="#DejaVuSans-Bold-53" transform="translate(405.761719 0)"/>
    <use xlink:href="#DejaVuSans-Bold-65" transform="translate(477.783203 0)"/>
    <use xlink:href="#DejaVuSans-Bold-6e" transform="translate(545.605469 0)"/>
    <use xlink:href="#DejaVuSans-Bold-6f" transform="translate(616.796875 0)"/>
    <use xlink:href="#DejaVuSans-Bold-73" transform="translate(685.498047 0)"/>
   </g>
  </g>
 </g>
 <defs>
  <clipPath id="p28b2c048a2">
   <rect x="7.2" y="61.95793" width="543.55799" height="480.142891"/>
  </clipPath>
  <clipPath id="p2ff119aada">
   <rect x="591.07799" y="26.85923" width="418.12153" height="550.34029"/>
  </clipPath>
 </defs>
</svg>
