<?xml version="1.0" encoding="utf-8" standalone="no"?>
<!DOCTYPE svg PUBLIC "-//W3C//DTD SVG 1.1//EN"
  "http://www.w3.org/Graphics/SVG/1.1/DTD/svg11.dtd">
<svg xmlns:xlink="http://www.w3.org/1999/xlink" width="1016.39952pt" height="584.39952pt" viewBox="0 0 1016.39952 584.39952" xmlns="http://www.w3.org/2000/svg" version="1.1">
 <metadata>
  <rdf:RDF xmlns:dc="http://purl.org/dc/elements/1.1/" xmlns:cc="http://creativecommons.org/ns#" xmlns:rdf="http://www.w3.org/1999/02/22-rdf-syntax-ns#">
   <cc:Work>
    <dc:type rdf:resource="http://purl.org/dc/dcmitype/StillImage"/>
    <dc:date>2026-01-04T20:29:34.021147</dc:date>
    <dc:format>image/svg+xml</dc:format>
    <dc:creator>
     <cc:Agent>
      <dc:title>Repositorio Matemáticas Universitarias</dc:title>
     </cc:Agent>
    </dc:creator>
   </cc:Work>
  </rdf:RDF>
 </metadata>
 <defs>
  <style type="text/css">*{stroke-linejoin: round; stroke-linecap: butt}</style>
 </defs>
 <g id="figure_1">
  <g id="patch_1">
   <path d="M 0 584.39952 
L 1016.39952 584.39952 
L 1016.39952 0 
L 0 0 
z
" style="fill: #ffffff"/>
  </g>
  <g id="axes_1">
   <g id="patch_2">
    <path d="M 130.62411 410.305471 
L 439.184383 410.305471 
L 130.62411 194.313279 
z
" clip-path="url(#p387d04617e)" style="fill: #2563eb; opacity: 0.15; stroke: #2563eb; stroke-width: 2.5; stroke-linejoin: miter"/>
   </g>
   <g id="line2d_1">
    <path d="M 149.137726 410.305471 
L 149.137726 391.791854 
L 130.62411 391.791854 
" clip-path="url(#p387d04617e)" style="fill: none; stroke: #2563eb; stroke-width: 1.5; stroke-linecap: square"/>
   </g>
   <g id="line2d_2">
    <path d="M 398.739195 381.993839 
L 398.151978 382.85181 
L 397.582959 383.721957 
L 397.032389 384.603892 
L 396.500513 385.497227 
L 395.987567 386.401563 
L 395.493778 387.3165 
L 395.019366 388.241633 
L 394.56454 389.17655 
L 394.129502 390.120838 
L 393.714445 391.074078 
L 393.319554 392.035847 
L 392.945003 393.005718 
L 392.590959 393.983261 
L 392.257578 394.968042 
L 391.945009 395.959626 
L 391.65339 396.957572 
L 391.38285 397.961438 
L 391.13351 398.970778 
L 390.905479 399.985144 
L 390.69886 401.004088 
L 390.513743 402.027157 
L 390.350211 403.053897 
L 390.208336 404.083853 
L 390.088182 405.116568 
L 389.989801 406.151584 
L 389.913237 407.188443 
L 389.858524 408.226684 
L 389.825687 409.265847 
L 389.81474 410.305471 
" clip-path="url(#p387d04617e)" style="fill: none; stroke: #f59e0b; stroke-width: 2.5; stroke-linecap: square"/>
   </g>
   <g id="line2d_3">
    <defs>
     <path id="m0cd76ed4b4" d="M 0 3 
C 0.795609 3 1.55874 2.683901 2.12132 2.12132 
C 2.683901 1.55874 3 0.795609 3 0 
C 3 -0.795609 2.683901 -1.55874 2.12132 -2.12132 
C 1.55874 -2.683901 0.795609 -3 0 -3 
C -0.795609 -3 -1.55874 -2.683901 -2.12132 -2.12132 
C -2.683901 -1.55874 -3 -0.795609 -3 0 
C -3 0.795609 -2.683901 1.55874 -2.12132 2.12132 
C -1.55874 2.683901 -0.795609 3 0 3 
z
" style="stroke: #1f2937"/>
    </defs>
    <g clip-path="url(#p387d04617e)">
     <use xlink:href="#m0cd76ed4b4" x="130.62411" y="410.305471" style="fill: #1f2937; stroke: #1f2937"/>
    </g>
   </g>
   <g id="line2d_4">
    <g clip-path="url(#p387d04617e)">
     <use xlink:href="#m0cd76ed4b4" x="439.184383" y="410.305471" style="fill: #1f2937; stroke: #1f2937"/>
    </g>
   </g>
   <g id="line2d_5">
    <g clip-path="url(#p387d04617e)">
     <use xlink:href="#m0cd76ed4b4" x="130.62411" y="194.313279" style="fill: #1f2937; stroke: #1f2937"/>
    </g>
   </g>
   <g id="text_1">
    <!-- A -->
    <g style="fill: #1f2937" transform="translate(112.110493 428.819087) scale(0.14 -0.14)">
     <defs>
      <path id="DejaVuSans-Bold-41" d="M 3419 850 
L 1538 850 
L 1241 0 
L 31 0 
L 1759 4666 
L 3194 4666 
L 4922 0 
L 3713 0 
L 3419 850 
z
M 1838 1716 
L 3116 1716 
L 2478 3572 
L 1838 1716 
z
" transform="scale(0.015625)"/>
     </defs>
     <use xlink:href="#DejaVuSans-Bold-41"/>
    </g>
   </g>
   <g id="text_2">
    <!-- B -->
    <g style="fill: #1f2937" transform="translate(451.526794 428.819087) scale(0.14 -0.14)">
     <defs>
      <path id="DejaVuSans-Bold-42" d="M 2456 2859 
Q 2741 2859 2887 2984 
Q 3034 3109 3034 3353 
Q 3034 3594 2887 3720 
Q 2741 3847 2456 3847 
L 1791 3847 
L 1791 2859 
L 2456 2859 
z
M 2497 819 
Q 2859 819 3042 972 
Q 3225 1125 3225 1434 
Q 3225 1738 3044 1889 
Q 2863 2041 2497 2041 
L 1791 2041 
L 1791 819 
L 2497 819 
z
M 3616 2497 
Q 4003 2384 4215 2081 
Q 4428 1778 4428 1338 
Q 4428 663 3972 331 
Q 3516 0 2584 0 
L 588 0 
L 588 4666 
L 2394 4666 
Q 3366 4666 3802 4372 
Q 4238 4078 4238 3431 
Q 4238 3091 4078 2852 
Q 3919 2613 3616 2497 
z
" transform="scale(0.015625)"/>
     </defs>
     <use xlink:href="#DejaVuSans-Bold-42"/>
    </g>
   </g>
   <g id="text_3">
    <!-- C -->
    <g style="fill: #1f2937" transform="translate(112.110493 181.970868) scale(0.14 -0.14)">
     <defs>
      <path id="DejaVuSans-Bold-43" d="M 4288 256 
Q 3956 84 3597 -3 
Q 3238 -91 2847 -91 
Q 1681 -91 1000 561 
Q 319 1213 319 2328 
Q 319 3447 1000 4098 
Q 1681 4750 2847 4750 
Q 3238 4750 3597 4662 
Q 3956 4575 4288 4403 
L 4288 3438 
Q 3953 3666 3628 3772 
Q 3303 3878 2944 3878 
Q 2300 3878 1931 3465 
Q 1563 3053 1563 2328 
Q 1563 1606 1931 1193 
Q 2300 781 2944 781 
Q 3303 781 3628 887 
Q 3953 994 4288 1222 
L 4288 256 
z
" transform="scale(0.015625)"/>
     </defs>
     <use xlink:href="#DejaVuSans-Bold-43"/>
    </g>
   </g>
   <g id="text_4">
    <g id="patch_3">
     <path d="M 303.417863 296.494464 
L 312.902863 296.494464 
Q 316.102863 296.494464 316.102863 293.294464 
L 316.102863 277.809464 
Q 316.102863 274.609464 312.902863 274.609464 
L 303.417863 274.609464 
Q 300.217863 274.609464 300.217863 277.809464 
L 300.217863 293.294464 
Q 300.217863 296.494464 303.417863 296.494464 
z
" style="fill: #ffffff; opacity: 0.9"/>
    </g>
    <!-- c -->
    <g style="fill: #dc2626" transform="translate(303.417863 289.966964) scale(0.16 -0.16)">
     <defs>
      <path id="DejaVuSans-Bold-63" d="M 3366 3391 
L 3366 2478 
Q 3138 2634 2908 2709 
Q 2678 2784 2431 2784 
Q 1963 2784 1702 2511 
Q 1441 2238 1441 1747 
Q 1441 1256 1702 982 
Q 1963 709 2431 709 
Q 2694 709 2930 787 
Q 3166 866 3366 1019 
L 3366 103 
Q 3103 6 2833 -42 
Q 2563 -91 2291 -91 
Q 1344 -91 809 395 
Q 275 881 275 1747 
Q 275 2613 809 3098 
Q 1344 3584 2291 3584 
Q 2566 3584 2833 3536 
Q 3100 3488 3366 3391 
z
" transform="scale(0.015625)"/>
     </defs>
     <use xlink:href="#DejaVuSans-Bold-63"/>
    </g>
   </g>
   <g id="text_5">
    <!-- (hipotenusa) -->
    <g style="fill: #dc2626" transform="translate(334.27389 320.822991) scale(0.1 -0.1)">
     <defs>
      <path id="DejaVuSans-Oblique-28" d="M 2731 4856 
Q 1903 3822 1495 2892 
Q 1088 1963 1088 1100 
Q 1088 606 1206 120 
Q 1325 -366 1563 -844 
L 1063 -844 
Q 775 -306 634 201 
Q 494 709 494 1197 
Q 494 2125 923 3036 
Q 1353 3947 2222 4856 
L 2731 4856 
z
" transform="scale(0.015625)"/>
      <path id="DejaVuSans-Oblique-68" d="M 3566 2113 
L 3156 0 
L 2578 0 
L 2988 2091 
Q 3016 2238 3031 2350 
Q 3047 2463 3047 2528 
Q 3047 2791 2881 2937 
Q 2716 3084 2419 3084 
Q 1956 3084 1617 2771 
Q 1278 2459 1178 1941 
L 800 0 
L 225 0 
L 1172 4863 
L 1747 4863 
L 1375 2950 
Q 1594 3244 1934 3414 
Q 2275 3584 2650 3584 
Q 3113 3584 3367 3334 
Q 3622 3084 3622 2631 
Q 3622 2519 3608 2391 
Q 3594 2263 3566 2113 
z
" transform="scale(0.015625)"/>
      <path id="DejaVuSans-Oblique-69" d="M 1172 4863 
L 1747 4863 
L 1606 4134 
L 1031 4134 
L 1172 4863 
z
M 909 3500 
L 1484 3500 
L 800 0 
L 225 0 
L 909 3500 
z
" transform="scale(0.015625)"/>
      <path id="DejaVuSans-Oblique-70" d="M 3175 2156 
Q 3175 2616 2975 2859 
Q 2775 3103 2400 3103 
Q 2144 3103 1911 2972 
Q 1678 2841 1497 2591 
Q 1319 2344 1212 1994 
Q 1106 1644 1106 1300 
Q 1106 863 1306 627 
Q 1506 391 1875 391 
Q 2147 391 2380 519 
Q 2613 647 2778 891 
Q 2956 1147 3065 1494 
Q 3175 1841 3175 2156 
z
M 1394 2969 
Q 1625 3272 1939 3428 
Q 2253 3584 2638 3584 
Q 3175 3584 3472 3232 
Q 3769 2881 3769 2247 
Q 3769 1728 3584 1258 
Q 3400 788 3053 416 
Q 2822 169 2531 39 
Q 2241 -91 1919 -91 
Q 1547 -91 1294 64 
Q 1041 219 916 525 
L 556 -1331 
L -19 -1331 
L 922 3500 
L 1497 3500 
L 1394 2969 
z
" transform="scale(0.015625)"/>
      <path id="DejaVuSans-Oblique-6f" d="M 1625 -91 
Q 1009 -91 651 289 
Q 294 669 294 1325 
Q 294 1706 417 2101 
Q 541 2497 738 2766 
Q 1047 3184 1428 3384 
Q 1809 3584 2291 3584 
Q 2888 3584 3255 3212 
Q 3622 2841 3622 2241 
Q 3622 1825 3500 1412 
Q 3378 1000 3181 728 
Q 2875 309 2494 109 
Q 2113 -91 1625 -91 
z
M 891 1344 
Q 891 869 1089 633 
Q 1288 397 1691 397 
Q 2269 397 2648 901 
Q 3028 1406 3028 2181 
Q 3028 2634 2825 2865 
Q 2622 3097 2228 3097 
Q 1903 3097 1650 2945 
Q 1397 2794 1197 2484 
Q 1050 2253 970 1956 
Q 891 1659 891 1344 
z
" transform="scale(0.015625)"/>
      <path id="DejaVuSans-Oblique-74" d="M 2706 3500 
L 2619 3053 
L 1472 3053 
L 1100 1153 
Q 1081 1047 1072 975 
Q 1063 903 1063 863 
Q 1063 663 1183 572 
Q 1303 481 1569 481 
L 2150 481 
L 2053 0 
L 1503 0 
Q 991 0 739 200 
Q 488 400 488 806 
Q 488 878 497 964 
Q 506 1050 525 1153 
L 897 3053 
L 409 3053 
L 500 3500 
L 978 3500 
L 1172 4494 
L 1747 4494 
L 1556 3500 
L 2706 3500 
z
" transform="scale(0.015625)"/>
      <path id="DejaVuSans-Oblique-65" d="M 3078 2063 
Q 3088 2113 3092 2166 
Q 3097 2219 3097 2272 
Q 3097 2653 2873 2875 
Q 2650 3097 2266 3097 
Q 1838 3097 1509 2826 
Q 1181 2556 1013 2059 
L 3078 2063 
z
M 3578 1613 
L 903 1613 
Q 884 1494 878 1425 
Q 872 1356 872 1306 
Q 872 872 1139 634 
Q 1406 397 1894 397 
Q 2269 397 2603 481 
Q 2938 566 3225 728 
L 3116 159 
Q 2806 34 2476 -28 
Q 2147 -91 1806 -91 
Q 1078 -91 686 257 
Q 294 606 294 1247 
Q 294 1794 489 2264 
Q 684 2734 1063 3103 
Q 1306 3334 1642 3459 
Q 1978 3584 2356 3584 
Q 2950 3584 3301 3228 
Q 3653 2872 3653 2272 
Q 3653 2128 3634 1964 
Q 3616 1800 3578 1613 
z
" transform="scale(0.015625)"/>
      <path id="DejaVuSans-Oblique-6e" d="M 3566 2113 
L 3156 0 
L 2578 0 
L 2988 2091 
Q 3016 2238 3031 2350 
Q 3047 2463 3047 2528 
Q 3047 2791 2881 2937 
Q 2716 3084 2419 3084 
Q 1956 3084 1622 2776 
Q 1288 2469 1184 1941 
L 800 0 
L 225 0 
L 903 3500 
L 1478 3500 
L 1363 2950 
Q 1603 3253 1940 3418 
Q 2278 3584 2650 3584 
Q 3113 3584 3367 3334 
Q 3622 3084 3622 2631 
Q 3622 2519 3608 2391 
Q 3594 2263 3566 2113 
z
" transform="scale(0.015625)"/>
      <path id="DejaVuSans-Oblique-75" d="M 428 1388 
L 838 3500 
L 1416 3500 
L 1006 1409 
Q 975 1256 961 1147 
Q 947 1038 947 966 
Q 947 700 1109 554 
Q 1272 409 1569 409 
Q 2031 409 2368 721 
Q 2706 1034 2809 1563 
L 3194 3500 
L 3769 3500 
L 3091 0 
L 2516 0 
L 2631 550 
Q 2388 244 2052 76 
Q 1716 -91 1338 -91 
Q 878 -91 622 161 
Q 366 413 366 863 
Q 366 956 381 1097 
Q 397 1238 428 1388 
z
" transform="scale(0.015625)"/>
      <path id="DejaVuSans-Oblique-73" d="M 3200 3397 
L 3091 2853 
Q 2863 2978 2609 3040 
Q 2356 3103 2088 3103 
Q 1634 3103 1373 2948 
Q 1113 2794 1113 2528 
Q 1113 2219 1719 2053 
Q 1766 2041 1788 2034 
L 1972 1978 
Q 2547 1819 2739 1644 
Q 2931 1469 2931 1166 
Q 2931 609 2489 259 
Q 2047 -91 1331 -91 
Q 1053 -91 747 -37 
Q 441 16 72 128 
L 184 722 
Q 500 559 806 475 
Q 1113 391 1394 391 
Q 1816 391 2080 572 
Q 2344 753 2344 1031 
Q 2344 1331 1650 1516 
L 1591 1531 
L 1394 1581 
Q 956 1697 753 1886 
Q 550 2075 550 2369 
Q 550 2928 970 3256 
Q 1391 3584 2113 3584 
Q 2397 3584 2667 3537 
Q 2938 3491 3200 3397 
z
" transform="scale(0.015625)"/>
      <path id="DejaVuSans-Oblique-61" d="M 3438 1997 
L 3047 0 
L 2472 0 
L 2578 531 
Q 2325 219 2001 64 
Q 1678 -91 1281 -91 
Q 834 -91 548 182 
Q 263 456 263 884 
Q 263 1497 752 1853 
Q 1241 2209 2100 2209 
L 2900 2209 
L 2931 2363 
Q 2938 2388 2941 2417 
Q 2944 2447 2944 2509 
Q 2944 2788 2717 2942 
Q 2491 3097 2081 3097 
Q 1800 3097 1504 3025 
Q 1209 2953 897 2809 
L 997 3341 
Q 1322 3463 1633 3523 
Q 1944 3584 2234 3584 
Q 2853 3584 3176 3315 
Q 3500 3047 3500 2534 
Q 3500 2431 3484 2292 
Q 3469 2153 3438 1997 
z
M 2816 1759 
L 2241 1759 
Q 1534 1759 1195 1570 
Q 856 1381 856 984 
Q 856 709 1029 553 
Q 1203 397 1509 397 
Q 1978 397 2328 733 
Q 2678 1069 2791 1631 
L 2816 1759 
z
" transform="scale(0.015625)"/>
      <path id="DejaVuSans-Oblique-29" d="M -397 -844 
Q 434 191 840 1120 
Q 1247 2050 1247 2913 
Q 1247 3406 1130 3892 
Q 1013 4378 775 4856 
L 1275 4856 
Q 1563 4316 1703 3812 
Q 1844 3309 1844 2822 
Q 1844 1891 1411 973 
Q 978 56 116 -844 
L -397 -844 
z
" transform="scale(0.015625)"/>
     </defs>
     <use xlink:href="#DejaVuSans-Oblique-28"/>
     <use xlink:href="#DejaVuSans-Oblique-68" transform="translate(39.013672 0)"/>
     <use xlink:href="#DejaVuSans-Oblique-69" transform="translate(102.392578 0)"/>
     <use xlink:href="#DejaVuSans-Oblique-70" transform="translate(130.175781 0)"/>
     <use xlink:href="#DejaVuSans-Oblique-6f" transform="translate(193.652344 0)"/>
     <use xlink:href="#DejaVuSans-Oblique-74" transform="translate(254.833984 0)"/>
     <use xlink:href="#DejaVuSans-Oblique-65" transform="translate(294.042969 0)"/>
     <use xlink:href="#DejaVuSans-Oblique-6e" transform="translate(355.566406 0)"/>
     <use xlink:href="#DejaVuSans-Oblique-75" transform="translate(418.945312 0)"/>
     <use xlink:href="#DejaVuSans-Oblique-73" transform="translate(482.324219 0)"/>
     <use xlink:href="#DejaVuSans-Oblique-61" transform="translate(534.423828 0)"/>
     <use xlink:href="#DejaVuSans-Oblique-29" transform="translate(595.703125 0)"/>
    </g>
   </g>
   <g id="text_6">
    <g id="patch_4">
     <path d="M 99.768082 308.836875 
L 110.565582 308.836875 
Q 113.765582 308.836875 113.765582 305.636875 
L 113.765582 290.151875 
Q 113.765582 286.951875 110.565582 286.951875 
L 99.768082 286.951875 
Q 96.568082 286.951875 96.568082 290.151875 
L 96.568082 305.636875 
Q 96.568082 308.836875 99.768082 308.836875 
z
" style="fill: #ffffff; opacity: 0.9"/>
    </g>
    <!-- a -->
    <g style="fill: #059669" transform="translate(99.768082 302.309375) scale(0.16 -0.16)">
     <defs>
      <path id="DejaVuSans-Bold-61" d="M 2106 1575 
Q 1756 1575 1579 1456 
Q 1403 1338 1403 1106 
Q 1403 894 1545 773 
Q 1688 653 1941 653 
Q 2256 653 2472 879 
Q 2688 1106 2688 1447 
L 2688 1575 
L 2106 1575 
z
M 3816 1997 
L 3816 0 
L 2688 0 
L 2688 519 
Q 2463 200 2181 54 
Q 1900 -91 1497 -91 
Q 953 -91 614 226 
Q 275 544 275 1050 
Q 275 1666 698 1953 
Q 1122 2241 2028 2241 
L 2688 2241 
L 2688 2328 
Q 2688 2594 2478 2717 
Q 2269 2841 1825 2841 
Q 1466 2841 1156 2769 
Q 847 2697 581 2553 
L 581 3406 
Q 941 3494 1303 3539 
Q 1666 3584 2028 3584 
Q 2975 3584 3395 3211 
Q 3816 2838 3816 1997 
z
" transform="scale(0.015625)"/>
     </defs>
     <use xlink:href="#DejaVuSans-Bold-61"/>
    </g>
   </g>
   <g id="text_7">
    <!-- (opuesto) -->
    <g style="fill: #059669" transform="translate(56.569644 333.165402) scale(0.1 -0.1)">
     <use xlink:href="#DejaVuSans-Oblique-28"/>
     <use xlink:href="#DejaVuSans-Oblique-6f" transform="translate(39.013672 0)"/>
     <use xlink:href="#DejaVuSans-Oblique-70" transform="translate(100.195312 0)"/>
     <use xlink:href="#DejaVuSans-Oblique-75" transform="translate(163.671875 0)"/>
     <use xlink:href="#DejaVuSans-Oblique-65" transform="translate(227.050781 0)"/>
     <use xlink:href="#DejaVuSans-Oblique-73" transform="translate(288.574219 0)"/>
     <use xlink:href="#DejaVuSans-Oblique-74" transform="translate(340.673828 0)"/>
     <use xlink:href="#DejaVuSans-Oblique-6f" transform="translate(379.882812 0)"/>
     <use xlink:href="#DejaVuSans-Oblique-29" transform="translate(441.064453 0)"/>
    </g>
   </g>
   <g id="text_8">
    <g id="patch_5">
     <path d="M 284.904246 447.688998 
L 296.356746 447.688998 
Q 299.556746 447.688998 299.556746 444.488998 
L 299.556746 429.003998 
Q 299.556746 425.803998 296.356746 425.803998 
L 284.904246 425.803998 
Q 281.704246 425.803998 281.704246 429.003998 
L 281.704246 444.488998 
Q 281.704246 447.688998 284.904246 447.688998 
z
" style="fill: #ffffff; opacity: 0.9"/>
    </g>
    <!-- b -->
    <g style="fill: #7c3aed" transform="translate(284.904246 441.161498) scale(0.16 -0.16)">
     <defs>
      <path id="DejaVuSans-Bold-62" d="M 2400 722 
Q 2759 722 2948 984 
Q 3138 1247 3138 1747 
Q 3138 2247 2948 2509 
Q 2759 2772 2400 2772 
Q 2041 2772 1848 2508 
Q 1656 2244 1656 1747 
Q 1656 1250 1848 986 
Q 2041 722 2400 722 
z
M 1656 2988 
Q 1888 3294 2169 3439 
Q 2450 3584 2816 3584 
Q 3463 3584 3878 3070 
Q 4294 2556 4294 1747 
Q 4294 938 3878 423 
Q 3463 -91 2816 -91 
Q 2450 -91 2169 54 
Q 1888 200 1656 506 
L 1656 0 
L 538 0 
L 538 4863 
L 1656 4863 
L 1656 2988 
z
" transform="scale(0.015625)"/>
     </defs>
     <use xlink:href="#DejaVuSans-Bold-62"/>
    </g>
   </g>
   <g id="text_9">
    <!-- (adyacente) -->
    <g style="fill: #7c3aed" transform="translate(315.760274 441.161498) scale(0.1 -0.1)">
     <defs>
      <path id="DejaVuSans-Oblique-64" d="M 2675 525 
Q 2444 222 2128 65 
Q 1813 -91 1428 -91 
Q 903 -91 598 267 
Q 294 625 294 1247 
Q 294 1766 478 2236 
Q 663 2706 1013 3078 
Q 1244 3325 1534 3454 
Q 1825 3584 2144 3584 
Q 2481 3584 2739 3421 
Q 2997 3259 3138 2956 
L 3513 4863 
L 4091 4863 
L 3144 0 
L 2566 0 
L 2675 525 
z
M 891 1350 
Q 891 897 1095 644 
Q 1300 391 1663 391 
Q 1931 391 2161 520 
Q 2391 650 2566 903 
Q 2750 1166 2856 1509 
Q 2963 1853 2963 2188 
Q 2963 2622 2758 2865 
Q 2553 3109 2194 3109 
Q 1922 3109 1687 2981 
Q 1453 2853 1288 2613 
Q 1106 2353 998 2009 
Q 891 1666 891 1350 
z
" transform="scale(0.015625)"/>
      <path id="DejaVuSans-Oblique-79" d="M 1588 -325 
Q 1188 -997 936 -1164 
Q 684 -1331 294 -1331 
L -159 -1331 
L -63 -850 
L 269 -850 
Q 509 -850 678 -719 
Q 847 -588 1056 -206 
L 1234 128 
L 459 3500 
L 1069 3500 
L 1650 819 
L 3256 3500 
L 3859 3500 
L 1588 -325 
z
" transform="scale(0.015625)"/>
      <path id="DejaVuSans-Oblique-63" d="M 3431 3366 
L 3316 2797 
Q 3109 2947 2876 3022 
Q 2644 3097 2394 3097 
Q 2119 3097 1870 3000 
Q 1622 2903 1453 2725 
Q 1184 2453 1037 2087 
Q 891 1722 891 1331 
Q 891 859 1127 628 
Q 1363 397 1844 397 
Q 2081 397 2348 469 
Q 2616 541 2906 684 
L 2797 116 
Q 2547 13 2283 -39 
Q 2019 -91 1741 -91 
Q 1044 -91 669 257 
Q 294 606 294 1253 
Q 294 1797 489 2255 
Q 684 2713 1069 3078 
Q 1331 3328 1684 3456 
Q 2038 3584 2456 3584 
Q 2700 3584 2940 3529 
Q 3181 3475 3431 3366 
z
" transform="scale(0.015625)"/>
     </defs>
     <use xlink:href="#DejaVuSans-Oblique-28"/>
     <use xlink:href="#DejaVuSans-Oblique-61" transform="translate(39.013672 0)"/>
     <use xlink:href="#DejaVuSans-Oblique-64" transform="translate(100.292969 0)"/>
     <use xlink:href="#DejaVuSans-Oblique-79" transform="translate(163.769531 0)"/>
     <use xlink:href="#DejaVuSans-Oblique-61" transform="translate(222.949219 0)"/>
     <use xlink:href="#DejaVuSans-Oblique-63" transform="translate(284.228516 0)"/>
     <use xlink:href="#DejaVuSans-Oblique-65" transform="translate(339.208984 0)"/>
     <use xlink:href="#DejaVuSans-Oblique-6e" transform="translate(400.732422 0)"/>
     <use xlink:href="#DejaVuSans-Oblique-74" transform="translate(464.111328 0)"/>
     <use xlink:href="#DejaVuSans-Oblique-65" transform="translate(503.320312 0)"/>
     <use xlink:href="#DejaVuSans-Oblique-29" transform="translate(564.84375 0)"/>
    </g>
   </g>
   <g id="text_10">
    <!-- θ -->
    <g style="fill: #f59e0b" transform="translate(387.390113 387.80756) scale(0.18 -0.18)">
     <defs>
      <path id="DejaVuSans-Bold-3b8" d="M 1447 2081 
Q 1469 1444 1638 1181 
Q 1922 728 2197 725 
Q 2475 722 2763 1181 
Q 2931 1453 2953 2081 
L 1447 2081 
z
M 2950 2881 
Q 2913 3394 2759 3688 
Q 2522 4144 2200 4144 
Q 1875 4144 1641 3688 
Q 1484 3384 1450 2881 
L 2950 2881 
z
M 2200 4913 
Q 3247 4913 3686 4231 
Q 4125 3550 4125 2403 
Q 4125 1256 3673 592 
Q 3222 -72 2200 -72 
Q 1178 -72 726 592 
Q 275 1256 275 2403 
Q 275 3550 714 4231 
Q 1153 4913 2200 4913 
z
" transform="scale(0.015625)"/>
     </defs>
     <use xlink:href="#DejaVuSans-Bold-3b8"/>
    </g>
   </g>
  </g>
  <g id="axes_2">
   <g id="patch_6">
    <path d="M 593.928818 203.348923 
L 987.343167 203.348923 
L 987.343167 82.397259 
L 593.928818 82.397259 
z
" clip-path="url(#p4cbe603ce9)" style="fill: #fffbeb; stroke: #f59e0b; stroke-width: 2; stroke-linejoin: miter"/>
   </g>
   <g id="line2d_6">
    <path d="M 593.928818 236.33574 
L 987.343167 236.33574 
" clip-path="url(#p4cbe603ce9)" style="fill: none; stroke: #d1d5db; stroke-width: 1.5; stroke-linecap: square"/>
   </g>
   <g id="line2d_7">
    <path d="M 593.928818 412.265433 
L 987.343167 412.265433 
" clip-path="url(#p4cbe603ce9)" style="fill: none; stroke: #d1d5db; stroke-width: 1.5; stroke-linecap: square"/>
   </g>
   <g id="line2d_8">
    <defs>
     <path id="m4c3a13a53e" d="M -5 5 
L 5 5 
L 5 -5 
L -5 -5 
z
" style="stroke: #059669; stroke-linejoin: miter"/>
    </defs>
    <g clip-path="url(#p4cbe603ce9)">
     <use xlink:href="#m4c3a13a53e" x="624.527712" y="478.239068" style="fill: #059669; stroke: #059669; stroke-linejoin: miter"/>
    </g>
   </g>
   <g id="line2d_9">
    <defs>
     <path id="ma48dd5d1d7" d="M -5 5 
L 5 5 
L 5 -5 
L -5 -5 
z
" style="stroke: #7c3aed; stroke-linejoin: miter"/>
    </defs>
    <g clip-path="url(#p4cbe603ce9)">
     <use xlink:href="#ma48dd5d1d7" x="624.527712" y="505.728082" style="fill: #7c3aed; stroke: #7c3aed; stroke-linejoin: miter"/>
    </g>
   </g>
   <g id="line2d_10">
    <defs>
     <path id="m17a4396132" d="M -5 5 
L 5 5 
L 5 -5 
L -5 -5 
z
" style="stroke: #dc2626; stroke-linejoin: miter"/>
    </defs>
    <g clip-path="url(#p4cbe603ce9)">
     <use xlink:href="#m17a4396132" x="624.527712" y="533.217097" style="fill: #dc2626; stroke: #dc2626; stroke-linejoin: miter"/>
    </g>
   </g>
   <g id="line2d_11">
    <defs>
     <path id="m20d7a19319" d="M -5 5 
L 5 5 
L 5 -5 
L -5 -5 
z
" style="stroke: #f59e0b; stroke-linejoin: miter"/>
    </defs>
    <g clip-path="url(#p4cbe603ce9)">
     <use xlink:href="#m20d7a19319" x="624.527712" y="560.706111" style="fill: #f59e0b; stroke: #f59e0b; stroke-linejoin: miter"/>
    </g>
   </g>
   <g id="text_11">
    <!-- RAZONES TRIGONOMÉTRICAS -->
    <g style="fill: #1f2937" transform="translate(682.604977 64.786213) scale(0.13 -0.13)">
     <defs>
      <path id="DejaVuSans-Bold-52" d="M 2297 2597 
Q 2675 2597 2839 2737 
Q 3003 2878 3003 3200 
Q 3003 3519 2839 3656 
Q 2675 3794 2297 3794 
L 1791 3794 
L 1791 2597 
L 2297 2597 
z
M 1791 1766 
L 1791 0 
L 588 0 
L 588 4666 
L 2425 4666 
Q 3347 4666 3776 4356 
Q 4206 4047 4206 3378 
Q 4206 2916 3982 2619 
Q 3759 2322 3309 2181 
Q 3556 2125 3751 1926 
Q 3947 1728 4147 1325 
L 4800 0 
L 3519 0 
L 2950 1159 
Q 2778 1509 2601 1637 
Q 2425 1766 2131 1766 
L 1791 1766 
z
" transform="scale(0.015625)"/>
      <path id="DejaVuSans-Bold-5a" d="M 359 4666 
L 4281 4666 
L 4281 3938 
L 1778 909 
L 4353 909 
L 4353 0 
L 288 0 
L 288 728 
L 2791 3756 
L 359 3756 
L 359 4666 
z
" transform="scale(0.015625)"/>
      <path id="DejaVuSans-Bold-4f" d="M 2719 3878 
Q 2169 3878 1866 3472 
Q 1563 3066 1563 2328 
Q 1563 1594 1866 1187 
Q 2169 781 2719 781 
Q 3272 781 3575 1187 
Q 3878 1594 3878 2328 
Q 3878 3066 3575 3472 
Q 3272 3878 2719 3878 
z
M 2719 4750 
Q 3844 4750 4481 4106 
Q 5119 3463 5119 2328 
Q 5119 1197 4481 553 
Q 3844 -91 2719 -91 
Q 1597 -91 958 553 
Q 319 1197 319 2328 
Q 319 3463 958 4106 
Q 1597 4750 2719 4750 
z
" transform="scale(0.015625)"/>
      <path id="DejaVuSans-Bold-4e" d="M 588 4666 
L 1931 4666 
L 3628 1466 
L 3628 4666 
L 4769 4666 
L 4769 0 
L 3425 0 
L 1728 3200 
L 1728 0 
L 588 0 
L 588 4666 
z
" transform="scale(0.015625)"/>
      <path id="DejaVuSans-Bold-45" d="M 588 4666 
L 3834 4666 
L 3834 3756 
L 1791 3756 
L 1791 2888 
L 3713 2888 
L 3713 1978 
L 1791 1978 
L 1791 909 
L 3903 909 
L 3903 0 
L 588 0 
L 588 4666 
z
" transform="scale(0.015625)"/>
      <path id="DejaVuSans-Bold-53" d="M 3834 4519 
L 3834 3531 
Q 3450 3703 3084 3790 
Q 2719 3878 2394 3878 
Q 1963 3878 1756 3759 
Q 1550 3641 1550 3391 
Q 1550 3203 1689 3098 
Q 1828 2994 2194 2919 
L 2706 2816 
Q 3484 2659 3812 2340 
Q 4141 2022 4141 1434 
Q 4141 663 3683 286 
Q 3225 -91 2284 -91 
Q 1841 -91 1394 -6 
Q 947 78 500 244 
L 500 1259 
Q 947 1022 1364 901 
Q 1781 781 2169 781 
Q 2563 781 2772 912 
Q 2981 1044 2981 1288 
Q 2981 1506 2839 1625 
Q 2697 1744 2272 1838 
L 1806 1941 
Q 1106 2091 782 2419 
Q 459 2747 459 3303 
Q 459 4000 909 4375 
Q 1359 4750 2203 4750 
Q 2588 4750 2994 4692 
Q 3400 4634 3834 4519 
z
" transform="scale(0.015625)"/>
      <path id="DejaVuSans-Bold-20" transform="scale(0.015625)"/>
      <path id="DejaVuSans-Bold-54" d="M 31 4666 
L 4331 4666 
L 4331 3756 
L 2784 3756 
L 2784 0 
L 1581 0 
L 1581 3756 
L 31 3756 
L 31 4666 
z
" transform="scale(0.015625)"/>
      <path id="DejaVuSans-Bold-49" d="M 588 4666 
L 1791 4666 
L 1791 0 
L 588 0 
L 588 4666 
z
" transform="scale(0.015625)"/>
      <path id="DejaVuSans-Bold-47" d="M 4781 347 
Q 4331 128 3847 18 
Q 3363 -91 2847 -91 
Q 1681 -91 1000 561 
Q 319 1213 319 2328 
Q 319 3456 1012 4103 
Q 1706 4750 2913 4750 
Q 3378 4750 3804 4662 
Q 4231 4575 4609 4403 
L 4609 3438 
Q 4219 3659 3833 3768 
Q 3447 3878 3059 3878 
Q 2341 3878 1952 3476 
Q 1563 3075 1563 2328 
Q 1563 1588 1938 1184 
Q 2313 781 3003 781 
Q 3191 781 3352 804 
Q 3513 828 3641 878 
L 3641 1784 
L 2906 1784 
L 2906 2591 
L 4781 2591 
L 4781 347 
z
" transform="scale(0.015625)"/>
      <path id="DejaVuSans-Bold-4d" d="M 588 4666 
L 2119 4666 
L 3181 2169 
L 4250 4666 
L 5778 4666 
L 5778 0 
L 4641 0 
L 4641 3413 
L 3566 897 
L 2803 897 
L 1728 3413 
L 1728 0 
L 588 0 
L 588 4666 
z
" transform="scale(0.015625)"/>
      <path id="DejaVuSans-Bold-c9" d="M 588 4666 
L 3834 4666 
L 3834 3756 
L 1791 3756 
L 1791 2888 
L 3713 2888 
L 3713 1978 
L 1791 1978 
L 1791 909 
L 3903 909 
L 3903 0 
L 588 0 
L 588 4666 
z
M 2319 5921 
L 3204 5921 
L 2313 5096 
L 1701 5096 
L 2319 5921 
z
" transform="scale(0.015625)"/>
     </defs>
     <use xlink:href="#DejaVuSans-Bold-52"/>
     <use xlink:href="#DejaVuSans-Bold-41" transform="translate(77.001953 0)"/>
     <use xlink:href="#DejaVuSans-Bold-5a" transform="translate(154.394531 0)"/>
     <use xlink:href="#DejaVuSans-Bold-4f" transform="translate(226.904297 0)"/>
     <use xlink:href="#DejaVuSans-Bold-4e" transform="translate(311.914062 0)"/>
     <use xlink:href="#DejaVuSans-Bold-45" transform="translate(395.605469 0)"/>
     <use xlink:href="#DejaVuSans-Bold-53" transform="translate(463.916016 0)"/>
     <use xlink:href="#DejaVuSans-Bold-20" transform="translate(535.9375 0)"/>
     <use xlink:href="#DejaVuSans-Bold-54" transform="translate(570.751953 0)"/>
     <use xlink:href="#DejaVuSans-Bold-52" transform="translate(638.964844 0)"/>
     <use xlink:href="#DejaVuSans-Bold-49" transform="translate(715.966797 0)"/>
     <use xlink:href="#DejaVuSans-Bold-47" transform="translate(753.173828 0)"/>
     <use xlink:href="#DejaVuSans-Bold-4f" transform="translate(835.253906 0)"/>
     <use xlink:href="#DejaVuSans-Bold-4e" transform="translate(920.263672 0)"/>
     <use xlink:href="#DejaVuSans-Bold-4f" transform="translate(1003.955078 0)"/>
     <use xlink:href="#DejaVuSans-Bold-4d" transform="translate(1088.964844 0)"/>
     <use xlink:href="#DejaVuSans-Bold-c9" transform="translate(1188.476562 0)"/>
     <use xlink:href="#DejaVuSans-Bold-54" transform="translate(1256.787109 0)"/>
     <use xlink:href="#DejaVuSans-Bold-52" transform="translate(1325 0)"/>
     <use xlink:href="#DejaVuSans-Bold-49" transform="translate(1402.001953 0)"/>
     <use xlink:href="#DejaVuSans-Bold-43" transform="translate(1439.208984 0)"/>
     <use xlink:href="#DejaVuSans-Bold-41" transform="translate(1512.597656 0)"/>
     <use xlink:href="#DejaVuSans-Bold-53" transform="translate(1589.990234 0)"/>
    </g>
   </g>
   <g id="text_12">
    <!-- SOH - CAH - TOA -->
    <g style="fill: #f59e0b" transform="translate(725.855368 109.886274) scale(0.14 -0.14)">
     <defs>
      <path id="DejaVuSans-Bold-48" d="M 588 4666 
L 1791 4666 
L 1791 2888 
L 3566 2888 
L 3566 4666 
L 4769 4666 
L 4769 0 
L 3566 0 
L 3566 1978 
L 1791 1978 
L 1791 0 
L 588 0 
L 588 4666 
z
" transform="scale(0.015625)"/>
      <path id="DejaVuSans-Bold-2d" d="M 347 2297 
L 2309 2297 
L 2309 1388 
L 347 1388 
L 347 2297 
z
" transform="scale(0.015625)"/>
     </defs>
     <use xlink:href="#DejaVuSans-Bold-53"/>
     <use xlink:href="#DejaVuSans-Bold-4f" transform="translate(72.021484 0)"/>
     <use xlink:href="#DejaVuSans-Bold-48" transform="translate(157.03125 0)"/>
     <use xlink:href="#DejaVuSans-Bold-20" transform="translate(240.722656 0)"/>
     <use xlink:href="#DejaVuSans-Bold-2d" transform="translate(275.537109 0)"/>
     <use xlink:href="#DejaVuSans-Bold-20" transform="translate(317.041016 0)"/>
     <use xlink:href="#DejaVuSans-Bold-43" transform="translate(351.855469 0)"/>
     <use xlink:href="#DejaVuSans-Bold-41" transform="translate(425.244141 0)"/>
     <use xlink:href="#DejaVuSans-Bold-48" transform="translate(502.636719 0)"/>
     <use xlink:href="#DejaVuSans-Bold-20" transform="translate(586.328125 0)"/>
     <use xlink:href="#DejaVuSans-Bold-2d" transform="translate(621.142578 0)"/>
     <use xlink:href="#DejaVuSans-Bold-20" transform="translate(662.646484 0)"/>
     <use xlink:href="#DejaVuSans-Bold-54" transform="translate(697.460938 0)"/>
     <use xlink:href="#DejaVuSans-Bold-4f" transform="translate(765.673828 0)"/>
     <use xlink:href="#DejaVuSans-Bold-41" transform="translate(848.058594 0)"/>
    </g>
   </g>
   <g id="text_13">
    <!-- $\sin\theta = \frac{a}{c} = \frac{\text{opuesto}}{\text{hipotenusa}}$ -->
    <g style="fill: #059669" transform="translate(735.195993 148.370894) scale(0.12 -0.12)">
     <defs>
      <path id="DejaVuSans-73" d="M 2834 3397 
L 2834 2853 
Q 2591 2978 2328 3040 
Q 2066 3103 1784 3103 
Q 1356 3103 1142 2972 
Q 928 2841 928 2578 
Q 928 2378 1081 2264 
Q 1234 2150 1697 2047 
L 1894 2003 
Q 2506 1872 2764 1633 
Q 3022 1394 3022 966 
Q 3022 478 2636 193 
Q 2250 -91 1575 -91 
Q 1294 -91 989 -36 
Q 684 19 347 128 
L 347 722 
Q 666 556 975 473 
Q 1284 391 1588 391 
Q 1994 391 2212 530 
Q 2431 669 2431 922 
Q 2431 1156 2273 1281 
Q 2116 1406 1581 1522 
L 1381 1569 
Q 847 1681 609 1914 
Q 372 2147 372 2553 
Q 372 3047 722 3315 
Q 1072 3584 1716 3584 
Q 2034 3584 2315 3537 
Q 2597 3491 2834 3397 
z
" transform="scale(0.015625)"/>
      <path id="DejaVuSans-69" d="M 603 3500 
L 1178 3500 
L 1178 0 
L 603 0 
L 603 3500 
z
M 603 4863 
L 1178 4863 
L 1178 4134 
L 603 4134 
L 603 4863 
z
" transform="scale(0.015625)"/>
      <path id="DejaVuSans-6e" d="M 3513 2113 
L 3513 0 
L 2938 0 
L 2938 2094 
Q 2938 2591 2744 2837 
Q 2550 3084 2163 3084 
Q 1697 3084 1428 2787 
Q 1159 2491 1159 1978 
L 1159 0 
L 581 0 
L 581 3500 
L 1159 3500 
L 1159 2956 
Q 1366 3272 1645 3428 
Q 1925 3584 2291 3584 
Q 2894 3584 3203 3211 
Q 3513 2838 3513 2113 
z
" transform="scale(0.015625)"/>
      <path id="DejaVuSans-Oblique-3b8" d="M 2913 2219 
L 925 2219 
Q 791 1284 928 888 
Q 1100 400 1566 400 
Q 2034 400 2391 891 
Q 2703 1322 2913 2219 
z
M 3009 2750 
Q 3094 3638 2984 3950 
Q 2813 4444 2353 4444 
Q 1875 4444 1525 3956 
Q 1250 3563 1034 2750 
L 3009 2750 
z
M 2444 4913 
Q 3194 4913 3494 4250 
Q 3794 3591 3566 2422 
Q 3341 1256 2781 594 
Q 2225 -72 1475 -72 
Q 722 -72 425 594 
Q 128 1256 353 2422 
Q 581 3591 1134 4250 
Q 1691 4913 2444 4913 
z
" transform="scale(0.015625)"/>
      <path id="DejaVuSans-3d" d="M 678 2906 
L 4684 2906 
L 4684 2381 
L 678 2381 
L 678 2906 
z
M 678 1631 
L 4684 1631 
L 4684 1100 
L 678 1100 
L 678 1631 
z
" transform="scale(0.015625)"/>
      <path id="DejaVuSans-6f" d="M 1959 3097 
Q 1497 3097 1228 2736 
Q 959 2375 959 1747 
Q 959 1119 1226 758 
Q 1494 397 1959 397 
Q 2419 397 2687 759 
Q 2956 1122 2956 1747 
Q 2956 2369 2687 2733 
Q 2419 3097 1959 3097 
z
M 1959 3584 
Q 2709 3584 3137 3096 
Q 3566 2609 3566 1747 
Q 3566 888 3137 398 
Q 2709 -91 1959 -91 
Q 1206 -91 779 398 
Q 353 888 353 1747 
Q 353 2609 779 3096 
Q 1206 3584 1959 3584 
z
" transform="scale(0.015625)"/>
      <path id="DejaVuSans-70" d="M 1159 525 
L 1159 -1331 
L 581 -1331 
L 581 3500 
L 1159 3500 
L 1159 2969 
Q 1341 3281 1617 3432 
Q 1894 3584 2278 3584 
Q 2916 3584 3314 3078 
Q 3713 2572 3713 1747 
Q 3713 922 3314 415 
Q 2916 -91 2278 -91 
Q 1894 -91 1617 61 
Q 1341 213 1159 525 
z
M 3116 1747 
Q 3116 2381 2855 2742 
Q 2594 3103 2138 3103 
Q 1681 3103 1420 2742 
Q 1159 2381 1159 1747 
Q 1159 1113 1420 752 
Q 1681 391 2138 391 
Q 2594 391 2855 752 
Q 3116 1113 3116 1747 
z
" transform="scale(0.015625)"/>
      <path id="DejaVuSans-75" d="M 544 1381 
L 544 3500 
L 1119 3500 
L 1119 1403 
Q 1119 906 1312 657 
Q 1506 409 1894 409 
Q 2359 409 2629 706 
Q 2900 1003 2900 1516 
L 2900 3500 
L 3475 3500 
L 3475 0 
L 2900 0 
L 2900 538 
Q 2691 219 2414 64 
Q 2138 -91 1772 -91 
Q 1169 -91 856 284 
Q 544 659 544 1381 
z
M 1991 3584 
L 1991 3584 
z
" transform="scale(0.015625)"/>
      <path id="DejaVuSans-65" d="M 3597 1894 
L 3597 1613 
L 953 1613 
Q 991 1019 1311 708 
Q 1631 397 2203 397 
Q 2534 397 2845 478 
Q 3156 559 3463 722 
L 3463 178 
Q 3153 47 2828 -22 
Q 2503 -91 2169 -91 
Q 1331 -91 842 396 
Q 353 884 353 1716 
Q 353 2575 817 3079 
Q 1281 3584 2069 3584 
Q 2775 3584 3186 3129 
Q 3597 2675 3597 1894 
z
M 3022 2063 
Q 3016 2534 2758 2815 
Q 2500 3097 2075 3097 
Q 1594 3097 1305 2825 
Q 1016 2553 972 2059 
L 3022 2063 
z
" transform="scale(0.015625)"/>
      <path id="DejaVuSans-74" d="M 1172 4494 
L 1172 3500 
L 2356 3500 
L 2356 3053 
L 1172 3053 
L 1172 1153 
Q 1172 725 1289 603 
Q 1406 481 1766 481 
L 2356 481 
L 2356 0 
L 1766 0 
Q 1100 0 847 248 
Q 594 497 594 1153 
L 594 3053 
L 172 3053 
L 172 3500 
L 594 3500 
L 594 4494 
L 1172 4494 
z
" transform="scale(0.015625)"/>
      <path id="DejaVuSans-68" d="M 3513 2113 
L 3513 0 
L 2938 0 
L 2938 2094 
Q 2938 2591 2744 2837 
Q 2550 3084 2163 3084 
Q 1697 3084 1428 2787 
Q 1159 2491 1159 1978 
L 1159 0 
L 581 0 
L 581 4863 
L 1159 4863 
L 1159 2956 
Q 1366 3272 1645 3428 
Q 1925 3584 2291 3584 
Q 2894 3584 3203 3211 
Q 3513 2838 3513 2113 
z
" transform="scale(0.015625)"/>
      <path id="DejaVuSans-61" d="M 2194 1759 
Q 1497 1759 1228 1600 
Q 959 1441 959 1056 
Q 959 750 1161 570 
Q 1363 391 1709 391 
Q 2188 391 2477 730 
Q 2766 1069 2766 1631 
L 2766 1759 
L 2194 1759 
z
M 3341 1997 
L 3341 0 
L 2766 0 
L 2766 531 
Q 2569 213 2275 61 
Q 1981 -91 1556 -91 
Q 1019 -91 701 211 
Q 384 513 384 1019 
Q 384 1609 779 1909 
Q 1175 2209 1959 2209 
L 2766 2209 
L 2766 2266 
Q 2766 2663 2505 2880 
Q 2244 3097 1772 3097 
Q 1472 3097 1187 3025 
Q 903 2953 641 2809 
L 641 3341 
Q 956 3463 1253 3523 
Q 1550 3584 1831 3584 
Q 2591 3584 2966 3190 
Q 3341 2797 3341 1997 
z
" transform="scale(0.015625)"/>
     </defs>
     <use xlink:href="#DejaVuSans-73" transform="translate(0 0.492188)"/>
     <use xlink:href="#DejaVuSans-69" transform="translate(52.099609 0.492188)"/>
     <use xlink:href="#DejaVuSans-6e" transform="translate(79.882812 0.492188)"/>
     <use xlink:href="#DejaVuSans-Oblique-3b8" transform="translate(159.497395 0.492188)"/>
     <use xlink:href="#DejaVuSans-3d" transform="translate(240.161458 0.492188)"/>
     <use xlink:href="#DejaVuSans-Oblique-61" transform="translate(343.432942 45.284375) scale(0.7)"/>
     <use xlink:href="#DejaVuSans-Oblique-63" transform="translate(345.432942 -26.160937) scale(0.7)"/>
     <use xlink:href="#DejaVuSans-3d" transform="translate(418.310872 0.492188)"/>
     <use xlink:href="#DejaVuSans-6f" transform="translate(575.582356 58.846875) scale(0.7)"/>
     <use xlink:href="#DejaVuSans-70" transform="translate(618.409504 58.846875) scale(0.7)"/>
     <use xlink:href="#DejaVuSans-75" transform="translate(662.843098 58.846875) scale(0.7)"/>
     <use xlink:href="#DejaVuSans-65" transform="translate(707.208333 58.846875) scale(0.7)"/>
     <use xlink:href="#DejaVuSans-73" transform="translate(750.274739 58.846875) scale(0.7)"/>
     <use xlink:href="#DejaVuSans-74" transform="translate(786.744465 58.846875) scale(0.7)"/>
     <use xlink:href="#DejaVuSans-6f" transform="translate(814.190754 58.846875) scale(0.7)"/>
     <use xlink:href="#DejaVuSans-68" transform="translate(521.582356 -40.15) scale(0.7)"/>
     <use xlink:href="#DejaVuSans-69" transform="translate(565.94759 -40.15) scale(0.7)"/>
     <use xlink:href="#DejaVuSans-70" transform="translate(585.395833 -40.15) scale(0.7)"/>
     <use xlink:href="#DejaVuSans-6f" transform="translate(629.829426 -40.15) scale(0.7)"/>
     <use xlink:href="#DejaVuSans-74" transform="translate(672.656575 -40.15) scale(0.7)"/>
     <use xlink:href="#DejaVuSans-65" transform="translate(700.102864 -40.15) scale(0.7)"/>
     <use xlink:href="#DejaVuSans-6e" transform="translate(743.16927 -40.15) scale(0.7)"/>
     <use xlink:href="#DejaVuSans-75" transform="translate(787.534504 -40.15) scale(0.7)"/>
     <use xlink:href="#DejaVuSans-73" transform="translate(831.899739 -40.15) scale(0.7)"/>
     <use xlink:href="#DejaVuSans-61" transform="translate(868.369465 -40.15) scale(0.7)"/>
     <path d="M 343.432942 19.289062 
L 343.432942 25.539062 
L 386.32845 25.539062 
L 386.32845 19.289062 
L 343.432942 19.289062 
z
"/>
     <path d="M 521.582356 19.289062 
L 521.582356 25.539062 
L 911.264973 25.539062 
L 911.264973 19.289062 
L 521.582356 19.289062 
z
"/>
    </g>
   </g>
   <g id="text_14">
    <!-- $\cos\theta = \frac{b}{c} = \frac{\text{adyacente}}{\text{hipotenusa}}$ -->
    <g style="fill: #7c3aed" transform="translate(733.575993 175.859908) scale(0.12 -0.12)">
     <defs>
      <path id="DejaVuSans-63" d="M 3122 3366 
L 3122 2828 
Q 2878 2963 2633 3030 
Q 2388 3097 2138 3097 
Q 1578 3097 1268 2742 
Q 959 2388 959 1747 
Q 959 1106 1268 751 
Q 1578 397 2138 397 
Q 2388 397 2633 464 
Q 2878 531 3122 666 
L 3122 134 
Q 2881 22 2623 -34 
Q 2366 -91 2075 -91 
Q 1284 -91 818 406 
Q 353 903 353 1747 
Q 353 2603 823 3093 
Q 1294 3584 2113 3584 
Q 2378 3584 2631 3529 
Q 2884 3475 3122 3366 
z
" transform="scale(0.015625)"/>
      <path id="DejaVuSans-Oblique-62" d="M 3169 2138 
Q 3169 2591 2961 2847 
Q 2753 3103 2388 3103 
Q 2122 3103 1889 2973 
Q 1656 2844 1484 2597 
Q 1303 2338 1198 1995 
Q 1094 1653 1094 1313 
Q 1094 881 1298 636 
Q 1503 391 1863 391 
Q 2134 391 2365 517 
Q 2597 644 2772 891 
Q 2950 1147 3059 1487 
Q 3169 1828 3169 2138 
z
M 1381 2969 
Q 1594 3256 1914 3420 
Q 2234 3584 2584 3584 
Q 3122 3584 3439 3221 
Q 3756 2859 3756 2241 
Q 3756 1734 3570 1259 
Q 3384 784 3041 416 
Q 2816 172 2522 40 
Q 2228 -91 1906 -91 
Q 1566 -91 1316 65 
Q 1066 222 909 531 
L 806 0 
L 231 0 
L 1178 4863 
L 1753 4863 
L 1381 2969 
z
" transform="scale(0.015625)"/>
      <path id="DejaVuSans-64" d="M 2906 2969 
L 2906 4863 
L 3481 4863 
L 3481 0 
L 2906 0 
L 2906 525 
Q 2725 213 2448 61 
Q 2172 -91 1784 -91 
Q 1150 -91 751 415 
Q 353 922 353 1747 
Q 353 2572 751 3078 
Q 1150 3584 1784 3584 
Q 2172 3584 2448 3432 
Q 2725 3281 2906 2969 
z
M 947 1747 
Q 947 1113 1208 752 
Q 1469 391 1925 391 
Q 2381 391 2643 752 
Q 2906 1113 2906 1747 
Q 2906 2381 2643 2742 
Q 2381 3103 1925 3103 
Q 1469 3103 1208 2742 
Q 947 2381 947 1747 
z
" transform="scale(0.015625)"/>
      <path id="DejaVuSans-79" d="M 2059 -325 
Q 1816 -950 1584 -1140 
Q 1353 -1331 966 -1331 
L 506 -1331 
L 506 -850 
L 844 -850 
Q 1081 -850 1212 -737 
Q 1344 -625 1503 -206 
L 1606 56 
L 191 3500 
L 800 3500 
L 1894 763 
L 2988 3500 
L 3597 3500 
L 2059 -325 
z
" transform="scale(0.015625)"/>
     </defs>
     <use xlink:href="#DejaVuSans-63" transform="translate(0 0.45625)"/>
     <use xlink:href="#DejaVuSans-6f" transform="translate(54.980469 0.45625)"/>
     <use xlink:href="#DejaVuSans-73" transform="translate(116.162109 0.45625)"/>
     <use xlink:href="#DejaVuSans-Oblique-3b8" transform="translate(184.497395 0.45625)"/>
     <use xlink:href="#DejaVuSans-3d" transform="translate(265.161458 0.45625)"/>
     <use xlink:href="#DejaVuSans-Oblique-62" transform="translate(368.432942 45.248437) scale(0.7)"/>
     <use xlink:href="#DejaVuSans-Oblique-63" transform="translate(371.432942 -26.196875) scale(0.7)"/>
     <use xlink:href="#DejaVuSans-3d" transform="translate(444.848958 0.45625)"/>
     <use xlink:href="#DejaVuSans-61" transform="translate(559.120442 58.810938) scale(0.7)"/>
     <use xlink:href="#DejaVuSans-64" transform="translate(602.01595 58.810938) scale(0.7)"/>
     <use xlink:href="#DejaVuSans-79" transform="translate(646.449543 58.810938) scale(0.7)"/>
     <use xlink:href="#DejaVuSans-61" transform="translate(687.875325 58.810938) scale(0.7)"/>
     <use xlink:href="#DejaVuSans-63" transform="translate(730.770833 58.810938) scale(0.7)"/>
     <use xlink:href="#DejaVuSans-65" transform="translate(769.257161 58.810938) scale(0.7)"/>
     <use xlink:href="#DejaVuSans-6e" transform="translate(812.323567 58.810938) scale(0.7)"/>
     <use xlink:href="#DejaVuSans-74" transform="translate(856.688801 58.810938) scale(0.7)"/>
     <use xlink:href="#DejaVuSans-65" transform="translate(884.13509 58.810938) scale(0.7)"/>
     <use xlink:href="#DejaVuSans-68" transform="translate(548.120442 -40.185937) scale(0.7)"/>
     <use xlink:href="#DejaVuSans-69" transform="translate(592.485676 -40.185937) scale(0.7)"/>
     <use xlink:href="#DejaVuSans-70" transform="translate(611.933918 -40.185937) scale(0.7)"/>
     <use xlink:href="#DejaVuSans-6f" transform="translate(656.367512 -40.185937) scale(0.7)"/>
     <use xlink:href="#DejaVuSans-74" transform="translate(699.194661 -40.185937) scale(0.7)"/>
     <use xlink:href="#DejaVuSans-65" transform="translate(726.64095 -40.185937) scale(0.7)"/>
     <use xlink:href="#DejaVuSans-6e" transform="translate(769.707356 -40.185937) scale(0.7)"/>
     <use xlink:href="#DejaVuSans-75" transform="translate(814.07259 -40.185937) scale(0.7)"/>
     <use xlink:href="#DejaVuSans-73" transform="translate(858.437825 -40.185937) scale(0.7)"/>
     <use xlink:href="#DejaVuSans-61" transform="translate(894.907551 -40.185937) scale(0.7)"/>
     <path d="M 368.432942 19.253125 
L 368.432942 25.503125 
L 412.866536 25.503125 
L 412.866536 19.253125 
L 368.432942 19.253125 
z
"/>
     <path d="M 548.120442 19.253125 
L 548.120442 25.503125 
L 937.803059 25.503125 
L 937.803059 19.253125 
L 548.120442 19.253125 
z
"/>
    </g>
   </g>
   <g id="text_15">
    <!-- $\tan\theta = \frac{a}{b} = \frac{\text{opuesto}}{\text{adyacente}}$ -->
    <g style="fill: #dc2626" transform="translate(735.135993 203.348923) scale(0.12 -0.12)">
     <use xlink:href="#DejaVuSans-74" transform="translate(0 0.492188)"/>
     <use xlink:href="#DejaVuSans-61" transform="translate(39.208984 0.492188)"/>
     <use xlink:href="#DejaVuSans-6e" transform="translate(100.488281 0.492188)"/>
     <use xlink:href="#DejaVuSans-Oblique-3b8" transform="translate(180.102864 0.492188)"/>
     <use xlink:href="#DejaVuSans-3d" transform="translate(260.766926 0.492188)"/>
     <use xlink:href="#DejaVuSans-Oblique-61" transform="translate(365.038411 45.284375) scale(0.7)"/>
     <use xlink:href="#DejaVuSans-Oblique-62" transform="translate(364.038411 -40.15) scale(0.7)"/>
     <use xlink:href="#DejaVuSans-3d" transform="translate(440.454426 0.492188)"/>
     <use xlink:href="#DejaVuSans-6f" transform="translate(586.725911 58.846875) scale(0.7)"/>
     <use xlink:href="#DejaVuSans-70" transform="translate(629.553059 58.846875) scale(0.7)"/>
     <use xlink:href="#DejaVuSans-75" transform="translate(673.986653 58.846875) scale(0.7)"/>
     <use xlink:href="#DejaVuSans-65" transform="translate(718.351887 58.846875) scale(0.7)"/>
     <use xlink:href="#DejaVuSans-73" transform="translate(761.418293 58.846875) scale(0.7)"/>
     <use xlink:href="#DejaVuSans-74" transform="translate(797.88802 58.846875) scale(0.7)"/>
     <use xlink:href="#DejaVuSans-6f" transform="translate(825.334309 58.846875) scale(0.7)"/>
     <use xlink:href="#DejaVuSans-61" transform="translate(543.725911 -40.15) scale(0.7)"/>
     <use xlink:href="#DejaVuSans-64" transform="translate(586.621418 -40.15) scale(0.7)"/>
     <use xlink:href="#DejaVuSans-79" transform="translate(631.055012 -40.15) scale(0.7)"/>
     <use xlink:href="#DejaVuSans-61" transform="translate(672.480793 -40.15) scale(0.7)"/>
     <use xlink:href="#DejaVuSans-63" transform="translate(715.376301 -40.15) scale(0.7)"/>
     <use xlink:href="#DejaVuSans-65" transform="translate(753.862629 -40.15) scale(0.7)"/>
     <use xlink:href="#DejaVuSans-6e" transform="translate(796.929036 -40.15) scale(0.7)"/>
     <use xlink:href="#DejaVuSans-74" transform="translate(841.29427 -40.15) scale(0.7)"/>
     <use xlink:href="#DejaVuSans-65" transform="translate(868.740559 -40.15) scale(0.7)"/>
     <path d="M 364.038411 19.289062 
L 364.038411 25.539062 
L 408.472004 25.539062 
L 408.472004 19.289062 
L 364.038411 19.289062 
z
"/>
     <path d="M 543.725911 19.289062 
L 543.725911 25.539062 
L 911.806965 25.539062 
L 911.806965 19.289062 
L 543.725911 19.289062 
z
"/>
    </g>
   </g>
   <g id="text_16">
    <!-- Razones Recíprocas -->
    <g style="fill: #1f2937" transform="translate(729.090993 263.824755) scale(0.11 -0.11)">
     <defs>
      <path id="DejaVuSans-Bold-7a" d="M 366 3500 
L 3419 3500 
L 3419 2719 
L 1575 800 
L 3419 800 
L 3419 0 
L 288 0 
L 288 781 
L 2131 2700 
L 366 2700 
L 366 3500 
z
" transform="scale(0.015625)"/>
      <path id="DejaVuSans-Bold-6f" d="M 2203 2784 
Q 1831 2784 1636 2517 
Q 1441 2250 1441 1747 
Q 1441 1244 1636 976 
Q 1831 709 2203 709 
Q 2569 709 2762 976 
Q 2956 1244 2956 1747 
Q 2956 2250 2762 2517 
Q 2569 2784 2203 2784 
z
M 2203 3584 
Q 3106 3584 3614 3096 
Q 4122 2609 4122 1747 
Q 4122 884 3614 396 
Q 3106 -91 2203 -91 
Q 1297 -91 786 396 
Q 275 884 275 1747 
Q 275 2609 786 3096 
Q 1297 3584 2203 3584 
z
" transform="scale(0.015625)"/>
      <path id="DejaVuSans-Bold-6e" d="M 4056 2131 
L 4056 0 
L 2931 0 
L 2931 347 
L 2931 1631 
Q 2931 2084 2911 2256 
Q 2891 2428 2841 2509 
Q 2775 2619 2662 2680 
Q 2550 2741 2406 2741 
Q 2056 2741 1856 2470 
Q 1656 2200 1656 1722 
L 1656 0 
L 538 0 
L 538 3500 
L 1656 3500 
L 1656 2988 
Q 1909 3294 2193 3439 
Q 2478 3584 2822 3584 
Q 3428 3584 3742 3212 
Q 4056 2841 4056 2131 
z
" transform="scale(0.015625)"/>
      <path id="DejaVuSans-Bold-65" d="M 4031 1759 
L 4031 1441 
L 1416 1441 
Q 1456 1047 1700 850 
Q 1944 653 2381 653 
Q 2734 653 3104 758 
Q 3475 863 3866 1075 
L 3866 213 
Q 3469 63 3072 -14 
Q 2675 -91 2278 -91 
Q 1328 -91 801 392 
Q 275 875 275 1747 
Q 275 2603 792 3093 
Q 1309 3584 2216 3584 
Q 3041 3584 3536 3087 
Q 4031 2591 4031 1759 
z
M 2881 2131 
Q 2881 2450 2695 2645 
Q 2509 2841 2209 2841 
Q 1884 2841 1681 2658 
Q 1478 2475 1428 2131 
L 2881 2131 
z
" transform="scale(0.015625)"/>
      <path id="DejaVuSans-Bold-73" d="M 3272 3391 
L 3272 2541 
Q 2913 2691 2578 2766 
Q 2244 2841 1947 2841 
Q 1628 2841 1473 2761 
Q 1319 2681 1319 2516 
Q 1319 2381 1436 2309 
Q 1553 2238 1856 2203 
L 2053 2175 
Q 2913 2066 3209 1816 
Q 3506 1566 3506 1031 
Q 3506 472 3093 190 
Q 2681 -91 1863 -91 
Q 1516 -91 1145 -36 
Q 775 19 384 128 
L 384 978 
Q 719 816 1070 734 
Q 1422 653 1784 653 
Q 2113 653 2278 743 
Q 2444 834 2444 1013 
Q 2444 1163 2330 1236 
Q 2216 1309 1875 1350 
L 1678 1375 
Q 931 1469 631 1722 
Q 331 1975 331 2491 
Q 331 3047 712 3315 
Q 1094 3584 1881 3584 
Q 2191 3584 2531 3537 
Q 2872 3491 3272 3391 
z
" transform="scale(0.015625)"/>
      <path id="DejaVuSans-Bold-ed" d="M 538 3500 
L 1656 3500 
L 1656 0 
L 538 0 
L 538 3500 
z
M 1590 5119 
L 2474 5119 
L 1321 3944 
L 709 3944 
L 1590 5119 
z
" transform="scale(0.015625)"/>
      <path id="DejaVuSans-Bold-70" d="M 1656 506 
L 1656 -1331 
L 538 -1331 
L 538 3500 
L 1656 3500 
L 1656 2988 
Q 1888 3294 2169 3439 
Q 2450 3584 2816 3584 
Q 3463 3584 3878 3070 
Q 4294 2556 4294 1747 
Q 4294 938 3878 423 
Q 3463 -91 2816 -91 
Q 2450 -91 2169 54 
Q 1888 200 1656 506 
z
M 2400 2772 
Q 2041 2772 1848 2508 
Q 1656 2244 1656 1747 
Q 1656 1250 1848 986 
Q 2041 722 2400 722 
Q 2759 722 2948 984 
Q 3138 1247 3138 1747 
Q 3138 2247 2948 2509 
Q 2759 2772 2400 2772 
z
" transform="scale(0.015625)"/>
      <path id="DejaVuSans-Bold-72" d="M 3138 2547 
Q 2991 2616 2845 2648 
Q 2700 2681 2553 2681 
Q 2122 2681 1889 2404 
Q 1656 2128 1656 1613 
L 1656 0 
L 538 0 
L 538 3500 
L 1656 3500 
L 1656 2925 
Q 1872 3269 2151 3426 
Q 2431 3584 2822 3584 
Q 2878 3584 2943 3579 
Q 3009 3575 3134 3559 
L 3138 2547 
z
" transform="scale(0.015625)"/>
     </defs>
     <use xlink:href="#DejaVuSans-Bold-52"/>
     <use xlink:href="#DejaVuSans-Bold-61" transform="translate(77.001953 0)"/>
     <use xlink:href="#DejaVuSans-Bold-7a" transform="translate(144.482422 0)"/>
     <use xlink:href="#DejaVuSans-Bold-6f" transform="translate(202.685547 0)"/>
     <use xlink:href="#DejaVuSans-Bold-6e" transform="translate(271.386719 0)"/>
     <use xlink:href="#DejaVuSans-Bold-65" transform="translate(342.578125 0)"/>
     <use xlink:href="#DejaVuSans-Bold-73" transform="translate(410.400391 0)"/>
     <use xlink:href="#DejaVuSans-Bold-20" transform="translate(469.921875 0)"/>
     <use xlink:href="#DejaVuSans-Bold-52" transform="translate(504.736328 0)"/>
     <use xlink:href="#DejaVuSans-Bold-65" transform="translate(581.738281 0)"/>
     <use xlink:href="#DejaVuSans-Bold-63" transform="translate(649.560547 0)"/>
     <use xlink:href="#DejaVuSans-Bold-ed" transform="translate(708.837891 0)"/>
     <use xlink:href="#DejaVuSans-Bold-70" transform="translate(743.115234 0)"/>
     <use xlink:href="#DejaVuSans-Bold-72" transform="translate(814.697266 0)"/>
     <use xlink:href="#DejaVuSans-Bold-6f" transform="translate(864.013672 0)"/>
     <use xlink:href="#DejaVuSans-Bold-63" transform="translate(932.714844 0)"/>
     <use xlink:href="#DejaVuSans-Bold-61" transform="translate(991.992188 0)"/>
     <use xlink:href="#DejaVuSans-Bold-73" transform="translate(1059.472656 0)"/>
    </g>
   </g>
   <g id="text_17">
    <!-- $\csc\theta = \frac{1}{\sin\theta} = \frac{c}{a}$ -->
    <g style="fill: #4b5563" transform="translate(751.695993 302.309375) scale(0.11 -0.11)">
     <defs>
      <path id="DejaVuSans-31" d="M 794 531 
L 1825 531 
L 1825 4091 
L 703 3866 
L 703 4441 
L 1819 4666 
L 2450 4666 
L 2450 531 
L 3481 531 
L 3481 0 
L 794 0 
L 794 531 
z
" transform="scale(0.015625)"/>
     </defs>
     <use xlink:href="#DejaVuSans-63" transform="translate(0 0.16875)"/>
     <use xlink:href="#DejaVuSans-73" transform="translate(54.980469 0.16875)"/>
     <use xlink:href="#DejaVuSans-63" transform="translate(107.080078 0.16875)"/>
     <use xlink:href="#DejaVuSans-Oblique-3b8" transform="translate(178.296223 0.16875)"/>
     <use xlink:href="#DejaVuSans-3d" transform="translate(258.960286 0.16875)"/>
     <use xlink:href="#DejaVuSans-31" transform="translate(417.23177 43.965625) scale(0.7)"/>
     <use xlink:href="#DejaVuSans-73" transform="translate(362.23177 -41.020312) scale(0.7)"/>
     <use xlink:href="#DejaVuSans-69" transform="translate(398.701497 -41.020312) scale(0.7)"/>
     <use xlink:href="#DejaVuSans-6e" transform="translate(418.149739 -41.020312) scale(0.7)"/>
     <use xlink:href="#DejaVuSans-Oblique-3b8" transform="translate(473.879947 -41.020312) scale(0.7)"/>
     <use xlink:href="#DejaVuSans-3d" transform="translate(548.689517 0.16875)"/>
     <use xlink:href="#DejaVuSans-Oblique-63" transform="translate(653.961001 44.960938) scale(0.7)"/>
     <use xlink:href="#DejaVuSans-Oblique-61" transform="translate(651.961001 -26.484375) scale(0.7)"/>
     <path d="M 362.23177 18.965625 
L 362.23177 25.215625 
L 516.707095 25.215625 
L 516.707095 18.965625 
L 362.23177 18.965625 
z
"/>
     <path d="M 651.961001 18.965625 
L 651.961001 25.215625 
L 694.856509 25.215625 
L 694.856509 18.965625 
L 651.961001 18.965625 
z
"/>
    </g>
   </g>
   <g id="text_18">
    <!-- $\sec\theta = \frac{1}{\cos\theta} = \frac{c}{b}$ -->
    <g style="fill: #4b5563" transform="translate(750.320993 335.296192) scale(0.11 -0.11)">
     <use xlink:href="#DejaVuSans-73" transform="translate(0 0.16875)"/>
     <use xlink:href="#DejaVuSans-65" transform="translate(52.099609 0.16875)"/>
     <use xlink:href="#DejaVuSans-63" transform="translate(113.623047 0.16875)"/>
     <use xlink:href="#DejaVuSans-Oblique-3b8" transform="translate(184.839192 0.16875)"/>
     <use xlink:href="#DejaVuSans-3d" transform="translate(265.503254 0.16875)"/>
     <use xlink:href="#DejaVuSans-31" transform="translate(432.774739 43.965625) scale(0.7)"/>
     <use xlink:href="#DejaVuSans-63" transform="translate(368.774739 -41.020312) scale(0.7)"/>
     <use xlink:href="#DejaVuSans-6f" transform="translate(407.261067 -41.020312) scale(0.7)"/>
     <use xlink:href="#DejaVuSans-73" transform="translate(450.088215 -41.020312) scale(0.7)"/>
     <use xlink:href="#DejaVuSans-Oblique-3b8" transform="translate(497.922915 -41.020312) scale(0.7)"/>
     <use xlink:href="#DejaVuSans-3d" transform="translate(572.732486 0.16875)"/>
     <use xlink:href="#DejaVuSans-Oblique-63" transform="translate(679.00397 44.960938) scale(0.7)"/>
     <use xlink:href="#DejaVuSans-Oblique-62" transform="translate(676.00397 -40.473437) scale(0.7)"/>
     <path d="M 368.774739 18.965625 
L 368.774739 25.215625 
L 540.750064 25.215625 
L 540.750064 18.965625 
L 368.774739 18.965625 
z
"/>
     <path d="M 676.00397 18.965625 
L 676.00397 25.215625 
L 720.437564 25.215625 
L 720.437564 18.965625 
L 676.00397 18.965625 
z
"/>
    </g>
   </g>
   <g id="text_19">
    <!-- $\cot\theta = \frac{1}{\tan\theta} = \frac{b}{a}$ -->
    <g style="fill: #4b5563" transform="translate(751.200993 368.28301) scale(0.11 -0.11)">
     <use xlink:href="#DejaVuSans-63" transform="translate(0 0.01875)"/>
     <use xlink:href="#DejaVuSans-6f" transform="translate(54.980469 0.01875)"/>
     <use xlink:href="#DejaVuSans-74" transform="translate(116.162109 0.01875)"/>
     <use xlink:href="#DejaVuSans-Oblique-3b8" transform="translate(171.60677 0.01875)"/>
     <use xlink:href="#DejaVuSans-3d" transform="translate(252.270833 0.01875)"/>
     <use xlink:href="#DejaVuSans-31" transform="translate(417.542317 43.815625) scale(0.7)"/>
     <use xlink:href="#DejaVuSans-74" transform="translate(355.542317 -41.170312) scale(0.7)"/>
     <use xlink:href="#DejaVuSans-61" transform="translate(382.988606 -41.170312) scale(0.7)"/>
     <use xlink:href="#DejaVuSans-6e" transform="translate(425.884114 -41.170312) scale(0.7)"/>
     <use xlink:href="#DejaVuSans-Oblique-3b8" transform="translate(481.614322 -41.170312) scale(0.7)"/>
     <use xlink:href="#DejaVuSans-3d" transform="translate(556.423892 0.01875)"/>
     <use xlink:href="#DejaVuSans-Oblique-62" transform="translate(659.695376 44.810938) scale(0.7)"/>
     <use xlink:href="#DejaVuSans-Oblique-61" transform="translate(660.695376 -26.634375) scale(0.7)"/>
     <path d="M 355.542317 18.815625 
L 355.542317 25.065625 
L 524.44147 25.065625 
L 524.44147 18.815625 
L 355.542317 18.815625 
z
"/>
     <path d="M 659.695376 18.815625 
L 659.695376 25.065625 
L 704.12897 25.065625 
L 704.12897 18.815625 
L 659.695376 18.815625 
z
"/>
    </g>
   </g>
   <g id="text_20">
    <!-- Leyenda -->
    <g style="fill: #1f2937" transform="translate(764.521305 439.754447) scale(0.11 -0.11)">
     <defs>
      <path id="DejaVuSans-Bold-4c" d="M 588 4666 
L 1791 4666 
L 1791 909 
L 3903 909 
L 3903 0 
L 588 0 
L 588 4666 
z
" transform="scale(0.015625)"/>
      <path id="DejaVuSans-Bold-79" d="M 78 3500 
L 1197 3500 
L 2138 1125 
L 2938 3500 
L 4056 3500 
L 2584 -331 
Q 2363 -916 2067 -1148 
Q 1772 -1381 1288 -1381 
L 641 -1381 
L 641 -647 
L 991 -647 
Q 1275 -647 1404 -556 
Q 1534 -466 1606 -231 
L 1638 -134 
L 78 3500 
z
" transform="scale(0.015625)"/>
      <path id="DejaVuSans-Bold-64" d="M 2919 2988 
L 2919 4863 
L 4044 4863 
L 4044 0 
L 2919 0 
L 2919 506 
Q 2688 197 2409 53 
Q 2131 -91 1766 -91 
Q 1119 -91 703 423 
Q 288 938 288 1747 
Q 288 2556 703 3070 
Q 1119 3584 1766 3584 
Q 2128 3584 2408 3439 
Q 2688 3294 2919 2988 
z
M 2181 722 
Q 2541 722 2730 984 
Q 2919 1247 2919 1747 
Q 2919 2247 2730 2509 
Q 2541 2772 2181 2772 
Q 1825 2772 1636 2509 
Q 1447 2247 1447 1747 
Q 1447 1247 1636 984 
Q 1825 722 2181 722 
z
" transform="scale(0.015625)"/>
     </defs>
     <use xlink:href="#DejaVuSans-Bold-4c"/>
     <use xlink:href="#DejaVuSans-Bold-65" transform="translate(63.720703 0)"/>
     <use xlink:href="#DejaVuSans-Bold-79" transform="translate(131.542969 0)"/>
     <use xlink:href="#DejaVuSans-Bold-65" transform="translate(196.728516 0)"/>
     <use xlink:href="#DejaVuSans-Bold-6e" transform="translate(264.550781 0)"/>
     <use xlink:href="#DejaVuSans-Bold-64" transform="translate(335.742188 0)"/>
     <use xlink:href="#DejaVuSans-Bold-61" transform="translate(407.324219 0)"/>
    </g>
   </g>
   <g id="text_21">
    <!-- a = cateto opuesto -->
    <g style="fill: #4b5563" transform="translate(650.755335 480.998443) scale(0.1 -0.1)">
     <defs>
      <path id="DejaVuSans-20" transform="scale(0.015625)"/>
     </defs>
     <use xlink:href="#DejaVuSans-61"/>
     <use xlink:href="#DejaVuSans-20" transform="translate(61.279297 0)"/>
     <use xlink:href="#DejaVuSans-3d" transform="translate(93.066406 0)"/>
     <use xlink:href="#DejaVuSans-20" transform="translate(176.855469 0)"/>
     <use xlink:href="#DejaVuSans-63" transform="translate(208.642578 0)"/>
     <use xlink:href="#DejaVuSans-61" transform="translate(263.623047 0)"/>
     <use xlink:href="#DejaVuSans-74" transform="translate(324.902344 0)"/>
     <use xlink:href="#DejaVuSans-65" transform="translate(364.111328 0)"/>
     <use xlink:href="#DejaVuSans-74" transform="translate(425.634766 0)"/>
     <use xlink:href="#DejaVuSans-6f" transform="translate(464.84375 0)"/>
     <use xlink:href="#DejaVuSans-20" transform="translate(526.025391 0)"/>
     <use xlink:href="#DejaVuSans-6f" transform="translate(557.8125 0)"/>
     <use xlink:href="#DejaVuSans-70" transform="translate(618.994141 0)"/>
     <use xlink:href="#DejaVuSans-75" transform="translate(682.470703 0)"/>
     <use xlink:href="#DejaVuSans-65" transform="translate(745.849609 0)"/>
     <use xlink:href="#DejaVuSans-73" transform="translate(807.373047 0)"/>
     <use xlink:href="#DejaVuSans-74" transform="translate(859.472656 0)"/>
     <use xlink:href="#DejaVuSans-6f" transform="translate(898.681641 0)"/>
    </g>
   </g>
   <g id="text_22">
    <!-- b = cateto adyacente -->
    <g style="fill: #4b5563" transform="translate(650.755335 508.487457) scale(0.1 -0.1)">
     <defs>
      <path id="DejaVuSans-62" d="M 3116 1747 
Q 3116 2381 2855 2742 
Q 2594 3103 2138 3103 
Q 1681 3103 1420 2742 
Q 1159 2381 1159 1747 
Q 1159 1113 1420 752 
Q 1681 391 2138 391 
Q 2594 391 2855 752 
Q 3116 1113 3116 1747 
z
M 1159 2969 
Q 1341 3281 1617 3432 
Q 1894 3584 2278 3584 
Q 2916 3584 3314 3078 
Q 3713 2572 3713 1747 
Q 3713 922 3314 415 
Q 2916 -91 2278 -91 
Q 1894 -91 1617 61 
Q 1341 213 1159 525 
L 1159 0 
L 581 0 
L 581 4863 
L 1159 4863 
L 1159 2969 
z
" transform="scale(0.015625)"/>
     </defs>
     <use xlink:href="#DejaVuSans-62"/>
     <use xlink:href="#DejaVuSans-20" transform="translate(63.476562 0)"/>
     <use xlink:href="#DejaVuSans-3d" transform="translate(95.263672 0)"/>
     <use xlink:href="#DejaVuSans-20" transform="translate(179.052734 0)"/>
     <use xlink:href="#DejaVuSans-63" transform="translate(210.839844 0)"/>
     <use xlink:href="#DejaVuSans-61" transform="translate(265.820312 0)"/>
     <use xlink:href="#DejaVuSans-74" transform="translate(327.099609 0)"/>
     <use xlink:href="#DejaVuSans-65" transform="translate(366.308594 0)"/>
     <use xlink:href="#DejaVuSans-74" transform="translate(427.832031 0)"/>
     <use xlink:href="#DejaVuSans-6f" transform="translate(467.041016 0)"/>
     <use xlink:href="#DejaVuSans-20" transform="translate(528.222656 0)"/>
     <use xlink:href="#DejaVuSans-61" transform="translate(560.009766 0)"/>
     <use xlink:href="#DejaVuSans-64" transform="translate(621.289062 0)"/>
     <use xlink:href="#DejaVuSans-79" transform="translate(684.765625 0)"/>
     <use xlink:href="#DejaVuSans-61" transform="translate(743.945312 0)"/>
     <use xlink:href="#DejaVuSans-63" transform="translate(805.224609 0)"/>
     <use xlink:href="#DejaVuSans-65" transform="translate(860.205078 0)"/>
     <use xlink:href="#DejaVuSans-6e" transform="translate(921.728516 0)"/>
     <use xlink:href="#DejaVuSans-74" transform="translate(985.107422 0)"/>
     <use xlink:href="#DejaVuSans-65" transform="translate(1024.316406 0)"/>
    </g>
   </g>
   <g id="text_23">
    <!-- c = hipotenusa -->
    <g style="fill: #4b5563" transform="translate(650.755335 535.976472) scale(0.1 -0.1)">
     <use xlink:href="#DejaVuSans-63"/>
     <use xlink:href="#DejaVuSans-20" transform="translate(54.980469 0)"/>
     <use xlink:href="#DejaVuSans-3d" transform="translate(86.767578 0)"/>
     <use xlink:href="#DejaVuSans-20" transform="translate(170.556641 0)"/>
     <use xlink:href="#DejaVuSans-68" transform="translate(202.34375 0)"/>
     <use xlink:href="#DejaVuSans-69" transform="translate(265.722656 0)"/>
     <use xlink:href="#DejaVuSans-70" transform="translate(293.505859 0)"/>
     <use xlink:href="#DejaVuSans-6f" transform="translate(356.982422 0)"/>
     <use xlink:href="#DejaVuSans-74" transform="translate(418.164062 0)"/>
     <use xlink:href="#DejaVuSans-65" transform="translate(457.373047 0)"/>
     <use xlink:href="#DejaVuSans-6e" transform="translate(518.896484 0)"/>
     <use xlink:href="#DejaVuSans-75" transform="translate(582.275391 0)"/>
     <use xlink:href="#DejaVuSans-73" transform="translate(645.654297 0)"/>
     <use xlink:href="#DejaVuSans-61" transform="translate(697.753906 0)"/>
    </g>
   </g>
   <g id="text_24">
    <!-- θ = ángulo agudo -->
    <g style="fill: #4b5563" transform="translate(650.755335 563.665486) scale(0.1 -0.1)">
     <defs>
      <path id="DejaVuSans-3b8" d="M 2953 2219 
L 963 2219 
Q 1009 1284 1225 888 
Q 1494 400 1959 400 
Q 2428 400 2688 891 
Q 2916 1322 2953 2219 
z
M 2944 2750 
Q 2856 3638 2688 3950 
Q 2419 4444 1959 4444 
Q 1481 4444 1228 3956 
Q 1028 3563 969 2750 
L 2944 2750 
z
M 1959 4913 
Q 2709 4913 3138 4250 
Q 3566 3591 3566 2422 
Q 3566 1256 3138 594 
Q 2709 -72 1959 -72 
Q 1206 -72 781 594 
Q 353 1256 353 2422 
Q 353 3591 781 4250 
Q 1206 4913 1959 4913 
z
" transform="scale(0.015625)"/>
      <path id="DejaVuSans-e1" d="M 2194 1759 
Q 1497 1759 1228 1600 
Q 959 1441 959 1056 
Q 959 750 1161 570 
Q 1363 391 1709 391 
Q 2188 391 2477 730 
Q 2766 1069 2766 1631 
L 2766 1759 
L 2194 1759 
z
M 3341 1997 
L 3341 0 
L 2766 0 
L 2766 531 
Q 2569 213 2275 61 
Q 1981 -91 1556 -91 
Q 1019 -91 701 211 
Q 384 513 384 1019 
Q 384 1609 779 1909 
Q 1175 2209 1959 2209 
L 2766 2209 
L 2766 2266 
Q 2766 2663 2505 2880 
Q 2244 3097 1772 3097 
Q 1472 3097 1187 3025 
Q 903 2953 641 2809 
L 641 3341 
Q 956 3463 1253 3523 
Q 1550 3584 1831 3584 
Q 2591 3584 2966 3190 
Q 3341 2797 3341 1997 
z
M 2290 5119 
L 2912 5119 
L 1894 3944 
L 1415 3944 
L 2290 5119 
z
" transform="scale(0.015625)"/>
      <path id="DejaVuSans-67" d="M 2906 1791 
Q 2906 2416 2648 2759 
Q 2391 3103 1925 3103 
Q 1463 3103 1205 2759 
Q 947 2416 947 1791 
Q 947 1169 1205 825 
Q 1463 481 1925 481 
Q 2391 481 2648 825 
Q 2906 1169 2906 1791 
z
M 3481 434 
Q 3481 -459 3084 -895 
Q 2688 -1331 1869 -1331 
Q 1566 -1331 1297 -1286 
Q 1028 -1241 775 -1147 
L 775 -588 
Q 1028 -725 1275 -790 
Q 1522 -856 1778 -856 
Q 2344 -856 2625 -561 
Q 2906 -266 2906 331 
L 2906 616 
Q 2728 306 2450 153 
Q 2172 0 1784 0 
Q 1141 0 747 490 
Q 353 981 353 1791 
Q 353 2603 747 3093 
Q 1141 3584 1784 3584 
Q 2172 3584 2450 3431 
Q 2728 3278 2906 2969 
L 2906 3500 
L 3481 3500 
L 3481 434 
z
" transform="scale(0.015625)"/>
      <path id="DejaVuSans-6c" d="M 603 4863 
L 1178 4863 
L 1178 0 
L 603 0 
L 603 4863 
z
" transform="scale(0.015625)"/>
     </defs>
     <use xlink:href="#DejaVuSans-3b8"/>
     <use xlink:href="#DejaVuSans-20" transform="translate(61.181641 0)"/>
     <use xlink:href="#DejaVuSans-3d" transform="translate(92.96875 0)"/>
     <use xlink:href="#DejaVuSans-20" transform="translate(176.757812 0)"/>
     <use xlink:href="#DejaVuSans-e1" transform="translate(208.544922 0)"/>
     <use xlink:href="#DejaVuSans-6e" transform="translate(269.824219 0)"/>
     <use xlink:href="#DejaVuSans-67" transform="translate(333.203125 0)"/>
     <use xlink:href="#DejaVuSans-75" transform="translate(396.679688 0)"/>
     <use xlink:href="#DejaVuSans-6c" transform="translate(460.058594 0)"/>
     <use xlink:href="#DejaVuSans-6f" transform="translate(487.841797 0)"/>
     <use xlink:href="#DejaVuSans-20" transform="translate(549.023438 0)"/>
     <use xlink:href="#DejaVuSans-61" transform="translate(580.810547 0)"/>
     <use xlink:href="#DejaVuSans-67" transform="translate(642.089844 0)"/>
     <use xlink:href="#DejaVuSans-75" transform="translate(705.566406 0)"/>
     <use xlink:href="#DejaVuSans-64" transform="translate(768.945312 0)"/>
     <use xlink:href="#DejaVuSans-6f" transform="translate(832.421875 0)"/>
    </g>
   </g>
  </g>
  <g id="text_25">
   <!-- Razones Trigonométricas en el Triángulo Rectángulo -->
   <g style="fill: #1f2937" transform="translate(301.184604 18.397812) scale(0.14 -0.14)">
    <defs>
     <path id="DejaVuSans-Bold-69" d="M 538 3500 
L 1656 3500 
L 1656 0 
L 538 0 
L 538 3500 
z
M 538 4863 
L 1656 4863 
L 1656 3950 
L 538 3950 
L 538 4863 
z
" transform="scale(0.015625)"/>
     <path id="DejaVuSans-Bold-67" d="M 2919 594 
Q 2688 288 2409 144 
Q 2131 0 1766 0 
Q 1125 0 706 504 
Q 288 1009 288 1791 
Q 288 2575 706 3076 
Q 1125 3578 1766 3578 
Q 2131 3578 2409 3434 
Q 2688 3291 2919 2981 
L 2919 3500 
L 4044 3500 
L 4044 353 
Q 4044 -491 3511 -936 
Q 2978 -1381 1966 -1381 
Q 1638 -1381 1331 -1331 
Q 1025 -1281 716 -1178 
L 716 -306 
Q 1009 -475 1290 -558 
Q 1572 -641 1856 -641 
Q 2406 -641 2662 -400 
Q 2919 -159 2919 353 
L 2919 594 
z
M 2181 2772 
Q 1834 2772 1640 2515 
Q 1447 2259 1447 1791 
Q 1447 1309 1634 1061 
Q 1822 813 2181 813 
Q 2531 813 2725 1069 
Q 2919 1325 2919 1791 
Q 2919 2259 2725 2515 
Q 2531 2772 2181 2772 
z
" transform="scale(0.015625)"/>
     <path id="DejaVuSans-Bold-6d" d="M 3781 2919 
Q 3994 3244 4286 3414 
Q 4578 3584 4928 3584 
Q 5531 3584 5847 3212 
Q 6163 2841 6163 2131 
L 6163 0 
L 5038 0 
L 5038 1825 
Q 5041 1866 5042 1909 
Q 5044 1953 5044 2034 
Q 5044 2406 4934 2573 
Q 4825 2741 4581 2741 
Q 4263 2741 4089 2478 
Q 3916 2216 3909 1719 
L 3909 0 
L 2784 0 
L 2784 1825 
Q 2784 2406 2684 2573 
Q 2584 2741 2328 2741 
Q 2006 2741 1831 2477 
Q 1656 2213 1656 1722 
L 1656 0 
L 531 0 
L 531 3500 
L 1656 3500 
L 1656 2988 
Q 1863 3284 2130 3434 
Q 2397 3584 2719 3584 
Q 3081 3584 3359 3409 
Q 3638 3234 3781 2919 
z
" transform="scale(0.015625)"/>
     <path id="DejaVuSans-Bold-e9" d="M 4031 1759 
L 4031 1441 
L 1416 1441 
Q 1456 1047 1700 850 
Q 1944 653 2381 653 
Q 2734 653 3104 758 
Q 3475 863 3866 1075 
L 3866 213 
Q 3469 63 3072 -14 
Q 2675 -91 2278 -91 
Q 1328 -91 801 392 
Q 275 875 275 1747 
Q 275 2603 792 3093 
Q 1309 3584 2216 3584 
Q 3041 3584 3536 3087 
Q 4031 2591 4031 1759 
z
M 2881 2131 
Q 2881 2450 2695 2645 
Q 2509 2841 2209 2841 
Q 1884 2841 1681 2658 
Q 1478 2475 1428 2131 
L 2881 2131 
z
M 2702 5119 
L 3586 5119 
L 2433 3944 
L 1821 3944 
L 2702 5119 
z
" transform="scale(0.015625)"/>
     <path id="DejaVuSans-Bold-74" d="M 1759 4494 
L 1759 3500 
L 2913 3500 
L 2913 2700 
L 1759 2700 
L 1759 1216 
Q 1759 972 1856 886 
Q 1953 800 2241 800 
L 2816 800 
L 2816 0 
L 1856 0 
Q 1194 0 917 276 
Q 641 553 641 1216 
L 641 2700 
L 84 2700 
L 84 3500 
L 641 3500 
L 641 4494 
L 1759 4494 
z
" transform="scale(0.015625)"/>
     <path id="DejaVuSans-Bold-6c" d="M 538 4863 
L 1656 4863 
L 1656 0 
L 538 0 
L 538 4863 
z
" transform="scale(0.015625)"/>
     <path id="DejaVuSans-Bold-e1" d="M 2106 1575 
Q 1756 1575 1579 1456 
Q 1403 1338 1403 1106 
Q 1403 894 1545 773 
Q 1688 653 1941 653 
Q 2256 653 2472 879 
Q 2688 1106 2688 1447 
L 2688 1575 
L 2106 1575 
z
M 3816 1997 
L 3816 0 
L 2688 0 
L 2688 519 
Q 2463 200 2181 54 
Q 1900 -91 1497 -91 
Q 953 -91 614 226 
Q 275 544 275 1050 
Q 275 1666 698 1953 
Q 1122 2241 2028 2241 
L 2688 2241 
L 2688 2328 
Q 2688 2594 2478 2717 
Q 2269 2841 1825 2841 
Q 1466 2841 1156 2769 
Q 847 2697 581 2553 
L 581 3406 
Q 941 3494 1303 3539 
Q 1666 3584 2028 3584 
Q 2975 3584 3395 3211 
Q 3816 2838 3816 1997 
z
M 2606 5119 
L 3490 5119 
L 2337 3944 
L 1725 3944 
L 2606 5119 
z
" transform="scale(0.015625)"/>
     <path id="DejaVuSans-Bold-75" d="M 500 1363 
L 500 3500 
L 1625 3500 
L 1625 3150 
Q 1625 2866 1622 2436 
Q 1619 2006 1619 1863 
Q 1619 1441 1641 1255 
Q 1663 1069 1716 984 
Q 1784 875 1895 815 
Q 2006 756 2150 756 
Q 2500 756 2700 1025 
Q 2900 1294 2900 1772 
L 2900 3500 
L 4019 3500 
L 4019 0 
L 2900 0 
L 2900 506 
Q 2647 200 2364 54 
Q 2081 -91 1741 -91 
Q 1134 -91 817 281 
Q 500 653 500 1363 
z
" transform="scale(0.015625)"/>
    </defs>
    <use xlink:href="#DejaVuSans-Bold-52"/>
    <use xlink:href="#DejaVuSans-Bold-61" transform="translate(77.001953 0)"/>
    <use xlink:href="#DejaVuSans-Bold-7a" transform="translate(144.482422 0)"/>
    <use xlink:href="#DejaVuSans-Bold-6f" transform="translate(202.685547 0)"/>
    <use xlink:href="#DejaVuSans-Bold-6e" transform="translate(271.386719 0)"/>
    <use xlink:href="#DejaVuSans-Bold-65" transform="translate(342.578125 0)"/>
    <use xlink:href="#DejaVuSans-Bold-73" transform="translate(410.400391 0)"/>
    <use xlink:href="#DejaVuSans-Bold-20" transform="translate(469.921875 0)"/>
    <use xlink:href="#DejaVuSans-Bold-54" transform="translate(504.736328 0)"/>
    <use xlink:href="#DejaVuSans-Bold-72" transform="translate(561.949219 0)"/>
    <use xlink:href="#DejaVuSans-Bold-69" transform="translate(611.265625 0)"/>
    <use xlink:href="#DejaVuSans-Bold-67" transform="translate(645.542969 0)"/>
    <use xlink:href="#DejaVuSans-Bold-6f" transform="translate(717.125 0)"/>
    <use xlink:href="#DejaVuSans-Bold-6e" transform="translate(785.826172 0)"/>
    <use xlink:href="#DejaVuSans-Bold-6f" transform="translate(857.017578 0)"/>
    <use xlink:href="#DejaVuSans-Bold-6d" transform="translate(925.71875 0)"/>
    <use xlink:href="#DejaVuSans-Bold-e9" transform="translate(1029.917969 0)"/>
    <use xlink:href="#DejaVuSans-Bold-74" transform="translate(1097.740234 0)"/>
    <use xlink:href="#DejaVuSans-Bold-72" transform="translate(1145.542969 0)"/>
    <use xlink:href="#DejaVuSans-Bold-69" transform="translate(1194.859375 0)"/>
    <use xlink:href="#DejaVuSans-Bold-63" transform="translate(1229.136719 0)"/>
    <use xlink:href="#DejaVuSans-Bold-61" transform="translate(1288.414062 0)"/>
    <use xlink:href="#DejaVuSans-Bold-73" transform="translate(1355.894531 0)"/>
    <use xlink:href="#DejaVuSans-Bold-20" transform="translate(1415.416016 0)"/>
    <use xlink:href="#DejaVuSans-Bold-65" transform="translate(1450.230469 0)"/>
    <use xlink:href="#DejaVuSans-Bold-6e" transform="translate(1518.052734 0)"/>
    <use xlink:href="#DejaVuSans-Bold-20" transform="translate(1589.244141 0)"/>
    <use xlink:href="#DejaVuSans-Bold-65" transform="translate(1624.058594 0)"/>
    <use xlink:href="#DejaVuSans-Bold-6c" transform="translate(1691.880859 0)"/>
    <use xlink:href="#DejaVuSans-Bold-20" transform="translate(1726.158203 0)"/>
    <use xlink:href="#DejaVuSans-Bold-54" transform="translate(1760.972656 0)"/>
    <use xlink:href="#DejaVuSans-Bold-72" transform="translate(1818.185547 0)"/>
    <use xlink:href="#DejaVuSans-Bold-69" transform="translate(1867.501953 0)"/>
    <use xlink:href="#DejaVuSans-Bold-e1" transform="translate(1901.779297 0)"/>
    <use xlink:href="#DejaVuSans-Bold-6e" transform="translate(1969.259766 0)"/>
    <use xlink:href="#DejaVuSans-Bold-67" transform="translate(2040.451172 0)"/>
    <use xlink:href="#DejaVuSans-Bold-75" transform="translate(2112.033203 0)"/>
    <use xlink:href="#DejaVuSans-Bold-6c" transform="translate(2183.224609 0)"/>
    <use xlink:href="#DejaVuSans-Bold-6f" transform="translate(2217.501953 0)"/>
    <use xlink:href="#DejaVuSans-Bold-20" transform="translate(2286.203125 0)"/>
    <use xlink:href="#DejaVuSans-Bold-52" transform="translate(2321.017578 0)"/>
    <use xlink:href="#DejaVuSans-Bold-65" transform="translate(2398.019531 0)"/>
    <use xlink:href="#DejaVuSans-Bold-63" transform="translate(2465.841797 0)"/>
    <use xlink:href="#DejaVuSans-Bold-74" transform="translate(2525.119141 0)"/>
    <use xlink:href="#DejaVuSans-Bold-e1" transform="translate(2572.921875 0)"/>
    <use xlink:href="#DejaVuSans-Bold-6e" transform="translate(2640.402344 0)"/>
    <use xlink:href="#DejaVuSans-Bold-67" transform="translate(2711.59375 0)"/>
    <use xlink:href="#DejaVuSans-Bold-75" transform="translate(2783.175781 0)"/>
    <use xlink:href="#DejaVuSans-Bold-6c" transform="translate(2854.367188 0)"/>
    <use xlink:href="#DejaVuSans-Bold-6f" transform="translate(2888.644531 0)"/>
   </g>
  </g>
 </g>
 <defs>
  <clipPath id="p387d04617e">
   <rect x="7.2" y="101.745197" width="524.552465" height="401.128356"/>
  </clipPath>
  <clipPath id="p4cbe603ce9">
   <rect x="572.072465" y="27.41923" width="437.127055" height="549.78029"/>
  </clipPath>
 </defs>
</svg>
