<?xml version="1.0" encoding="utf-8" standalone="no"?>
<!DOCTYPE svg PUBLIC "-//W3C//DTD SVG 1.1//EN"
  "http://www.w3.org/Graphics/SVG/1.1/DTD/svg11.dtd">
<svg xmlns:xlink="http://www.w3.org/1999/xlink" width="1138.626783pt" height="295.789266pt" viewBox="0 0 1138.626783 295.789266" xmlns="http://www.w3.org/2000/svg" version="1.1">
 <metadata>
  <rdf:RDF xmlns:dc="http://purl.org/dc/elements/1.1/" xmlns:cc="http://creativecommons.org/ns#" xmlns:rdf="http://www.w3.org/1999/02/22-rdf-syntax-ns#">
   <cc:Work>
    <dc:type rdf:resource="http://purl.org/dc/dcmitype/StillImage"/>
    <dc:date>2026-01-03T17:13:32.243334</dc:date>
    <dc:format>image/svg+xml</dc:format>
    <dc:creator>
     <cc:Agent>
      <dc:title>Repositorio Matemáticas Universitarias</dc:title>
     </cc:Agent>
    </dc:creator>
   </cc:Work>
  </rdf:RDF>
 </metadata>
 <defs>
  <style type="text/css">*{stroke-linejoin: round; stroke-linecap: butt}</style>
 </defs>
 <g id="figure_1">
  <g id="patch_1">
   <path d="M 0 295.789266 
L 1138.626783 295.789266 
L 1138.626783 0 
L 0 0 
z
" style="fill: #ffffff"/>
  </g>
  <g id="axes_1">
   <g id="line2d_1">
    <path d="M 98.483478 206.85913 
L 98.47957 206.371438 
L 98.467845 205.883871 
L 98.448307 205.396554 
L 98.420961 204.909613 
L 98.385814 204.423173 
L 98.342875 203.937359 
L 98.292154 203.452295 
L 98.233666 202.968106 
L 98.167425 202.484918 
L 98.093448 202.002853 
L 98.011754 201.522035 
L 97.922363 201.042589 
L 97.8253 200.564637 
L 97.720589 200.088302 
L 97.608257 199.613707 
L 97.488332 199.140973 
L 97.360846 198.670222 
L 97.225831 198.201575 
L 97.083322 197.735151 
L 96.933355 197.271072 
L 96.77597 196.809457 
L 96.611206 196.350423 
L 96.439106 195.894088 
L 96.259714 195.440571 
L 96.073076 194.989988 
L 95.87924 194.542453 
L 95.678257 194.098083 
L 95.470176 193.656991 
L 95.255053 193.219292 
L 95.032942 192.785096 
L 94.8039 192.354516 
L 94.567986 191.927662 
L 94.325261 191.504644 
L 94.075787 191.085572 
L 93.819629 190.670551 
L 93.556851 190.259689 
L 93.287522 189.853092 
L 93.011711 189.450864 
L 92.729488 189.053108 
L 92.440926 188.659927 
L 92.1461 188.271422 
L 91.845085 187.887691 
L 91.537957 187.508835 
L 91.224797 187.13495 
L 90.905685 186.766132 
L 90.580702 186.402476 
L 90.249933 186.044076 
L 89.913461 185.691023 
L 89.571374 185.343408 
" clip-path="url(#p55de689a07)" style="fill: none; stroke: #2563eb; stroke-width: 2; stroke-linecap: square"/>
   </g>
   <g id="patch_2">
    <path d="M 70.058297 206.85913 
Q 118.770262 206.85913 165.246158 206.85913 
" style="fill: none; stroke: #2563eb; stroke-width: 2; stroke-linecap: round"/>
    <path d="M 160.446158 204.45913 
L 165.246158 206.85913 
L 160.446158 209.25913 
" style="fill: none; stroke: #2563eb; stroke-width: 2; stroke-linecap: round"/>
   </g>
   <g id="patch_3">
    <path d="M 69.471736 205.443046 
Q 103.916296 170.998486 136.779718 138.135065 
" style="fill: none; stroke: #2563eb; stroke-width: 2; stroke-linecap: round"/>
    <path d="M 131.688549 139.832121 
L 136.779718 138.135065 
L 135.082662 143.226234 
" style="fill: none; stroke: #2563eb; stroke-width: 2; stroke-linecap: round"/>
   </g>
   <g id="text_1">
    <!-- 45° -->
    <g style="fill: #2563eb" transform="translate(100.765308 192.152168) scale(0.1 -0.1)">
     <defs>
      <path id="DejaVuSans-Bold-34" d="M 2356 3675 
L 1038 1722 
L 2356 1722 
L 2356 3675 
z
M 2156 4666 
L 3494 4666 
L 3494 1722 
L 4159 1722 
L 4159 850 
L 3494 850 
L 3494 0 
L 2356 0 
L 2356 850 
L 288 850 
L 288 1881 
L 2156 4666 
z
" transform="scale(0.015625)"/>
      <path id="DejaVuSans-Bold-35" d="M 678 4666 
L 3669 4666 
L 3669 3781 
L 1638 3781 
L 1638 3059 
Q 1775 3097 1914 3117 
Q 2053 3138 2203 3138 
Q 3056 3138 3531 2711 
Q 4006 2284 4006 1522 
Q 4006 766 3489 337 
Q 2972 -91 2053 -91 
Q 1656 -91 1267 -14 
Q 878 63 494 219 
L 494 1166 
Q 875 947 1217 837 
Q 1559 728 1863 728 
Q 2300 728 2551 942 
Q 2803 1156 2803 1522 
Q 2803 1891 2551 2103 
Q 2300 2316 1863 2316 
Q 1603 2316 1309 2248 
Q 1016 2181 678 2041 
L 678 4666 
z
" transform="scale(0.015625)"/>
      <path id="DejaVuSans-Bold-b0" d="M 1600 4288 
Q 1375 4288 1219 4131 
Q 1063 3975 1063 3750 
Q 1063 3525 1217 3372 
Q 1372 3219 1600 3219 
Q 1825 3219 1981 3373 
Q 2138 3528 2138 3750 
Q 2138 3975 1980 4131 
Q 1822 4288 1600 4288 
z
M 1600 4794 
Q 1806 4794 1997 4714 
Q 2188 4634 2338 4488 
Q 2484 4338 2561 4150 
Q 2638 3963 2638 3750 
Q 2638 3541 2561 3352 
Q 2484 3163 2344 3022 
Q 2194 2872 2000 2792 
Q 1806 2713 1594 2713 
Q 1153 2713 854 3011 
Q 556 3309 556 3750 
Q 556 4191 857 4492 
Q 1159 4794 1600 4794 
z
" transform="scale(0.015625)"/>
     </defs>
     <use xlink:href="#DejaVuSans-Bold-34"/>
     <use xlink:href="#DejaVuSans-Bold-35" transform="translate(69.580078 0)"/>
     <use xlink:href="#DejaVuSans-Bold-b0" transform="translate(139.160156 0)"/>
    </g>
   </g>
   <g id="text_2">
    <!-- Agudo -->
    <g style="fill: #1f2937" transform="translate(98.944633 286.215673) scale(0.11 -0.11)">
     <defs>
      <path id="DejaVuSans-Bold-41" d="M 3419 850 
L 1538 850 
L 1241 0 
L 31 0 
L 1759 4666 
L 3194 4666 
L 4922 0 
L 3713 0 
L 3419 850 
z
M 1838 1716 
L 3116 1716 
L 2478 3572 
L 1838 1716 
z
" transform="scale(0.015625)"/>
      <path id="DejaVuSans-Bold-67" d="M 2919 594 
Q 2688 288 2409 144 
Q 2131 0 1766 0 
Q 1125 0 706 504 
Q 288 1009 288 1791 
Q 288 2575 706 3076 
Q 1125 3578 1766 3578 
Q 2131 3578 2409 3434 
Q 2688 3291 2919 2981 
L 2919 3500 
L 4044 3500 
L 4044 353 
Q 4044 -491 3511 -936 
Q 2978 -1381 1966 -1381 
Q 1638 -1381 1331 -1331 
Q 1025 -1281 716 -1178 
L 716 -306 
Q 1009 -475 1290 -558 
Q 1572 -641 1856 -641 
Q 2406 -641 2662 -400 
Q 2919 -159 2919 353 
L 2919 594 
z
M 2181 2772 
Q 1834 2772 1640 2515 
Q 1447 2259 1447 1791 
Q 1447 1309 1634 1061 
Q 1822 813 2181 813 
Q 2531 813 2725 1069 
Q 2919 1325 2919 1791 
Q 2919 2259 2725 2515 
Q 2531 2772 2181 2772 
z
" transform="scale(0.015625)"/>
      <path id="DejaVuSans-Bold-75" d="M 500 1363 
L 500 3500 
L 1625 3500 
L 1625 3150 
Q 1625 2866 1622 2436 
Q 1619 2006 1619 1863 
Q 1619 1441 1641 1255 
Q 1663 1069 1716 984 
Q 1784 875 1895 815 
Q 2006 756 2150 756 
Q 2500 756 2700 1025 
Q 2900 1294 2900 1772 
L 2900 3500 
L 4019 3500 
L 4019 0 
L 2900 0 
L 2900 506 
Q 2647 200 2364 54 
Q 2081 -91 1741 -91 
Q 1134 -91 817 281 
Q 500 653 500 1363 
z
" transform="scale(0.015625)"/>
      <path id="DejaVuSans-Bold-64" d="M 2919 2988 
L 2919 4863 
L 4044 4863 
L 4044 0 
L 2919 0 
L 2919 506 
Q 2688 197 2409 53 
Q 2131 -91 1766 -91 
Q 1119 -91 703 423 
Q 288 938 288 1747 
Q 288 2556 703 3070 
Q 1119 3584 1766 3584 
Q 2128 3584 2408 3439 
Q 2688 3294 2919 2988 
z
M 2181 722 
Q 2541 722 2730 984 
Q 2919 1247 2919 1747 
Q 2919 2247 2730 2509 
Q 2541 2772 2181 2772 
Q 1825 2772 1636 2509 
Q 1447 2247 1447 1747 
Q 1447 1247 1636 984 
Q 1825 722 2181 722 
z
" transform="scale(0.015625)"/>
      <path id="DejaVuSans-Bold-6f" d="M 2203 2784 
Q 1831 2784 1636 2517 
Q 1441 2250 1441 1747 
Q 1441 1244 1636 976 
Q 1831 709 2203 709 
Q 2569 709 2762 976 
Q 2956 1244 2956 1747 
Q 2956 2250 2762 2517 
Q 2569 2784 2203 2784 
z
M 2203 3584 
Q 3106 3584 3614 3096 
Q 4122 2609 4122 1747 
Q 4122 884 3614 396 
Q 3106 -91 2203 -91 
Q 1297 -91 786 396 
Q 275 884 275 1747 
Q 275 2609 786 3096 
Q 1297 3584 2203 3584 
z
" transform="scale(0.015625)"/>
     </defs>
     <use xlink:href="#DejaVuSans-Bold-41"/>
     <use xlink:href="#DejaVuSans-Bold-67" transform="translate(77.392578 0)"/>
     <use xlink:href="#DejaVuSans-Bold-75" transform="translate(148.974609 0)"/>
     <use xlink:href="#DejaVuSans-Bold-64" transform="translate(220.166016 0)"/>
     <use xlink:href="#DejaVuSans-Bold-6f" transform="translate(291.748047 0)"/>
    </g>
   </g>
   <g id="text_3">
    <!-- 0° &lt; α &lt; 90° -->
    <g style="fill: #6b7280" transform="translate(89.450493 284.695985) scale(0.09 -0.09)">
     <defs>
      <path id="DejaVuSans-Oblique-30" d="M 2444 4750 
Q 3078 4750 3414 4328 
Q 3750 3906 3750 3116 
Q 3750 2516 3592 1923 
Q 3434 1331 3150 863 
Q 2859 394 2467 151 
Q 2075 -91 1600 -91 
Q 988 -91 653 334 
Q 319 759 319 1544 
Q 319 2138 480 2733 
Q 641 3328 928 3794 
Q 1216 4263 1602 4506 
Q 1988 4750 2444 4750 
z
M 2406 4250 
Q 2169 4250 1955 4123 
Q 1741 3997 1569 3750 
Q 1281 3338 1111 2720 
Q 941 2103 941 1453 
Q 941 938 1123 673 
Q 1306 409 1663 409 
Q 1913 409 2125 536 
Q 2338 663 2509 909 
Q 2794 1319 2961 1936 
Q 3128 2553 3128 3206 
Q 3128 3722 2945 3986 
Q 2763 4250 2406 4250 
z
" transform="scale(0.015625)"/>
      <path id="DejaVuSans-Oblique-b0" d="M 1600 4347 
Q 1350 4347 1178 4173 
Q 1006 4000 1006 3750 
Q 1006 3503 1178 3333 
Q 1350 3163 1600 3163 
Q 1850 3163 2022 3333 
Q 2194 3503 2194 3750 
Q 2194 3997 2020 4172 
Q 1847 4347 1600 4347 
z
M 1600 4750 
Q 1800 4750 1984 4673 
Q 2169 4597 2303 4453 
Q 2447 4313 2519 4134 
Q 2591 3956 2591 3750 
Q 2591 3338 2302 3052 
Q 2013 2766 1594 2766 
Q 1172 2766 890 3047 
Q 609 3328 609 3750 
Q 609 4169 896 4459 
Q 1184 4750 1600 4750 
z
" transform="scale(0.015625)"/>
      <path id="DejaVuSans-Oblique-20" transform="scale(0.015625)"/>
      <path id="DejaVuSans-Oblique-3c" d="M 4684 3150 
L 1459 2003 
L 4684 863 
L 4684 294 
L 678 1747 
L 678 2266 
L 4684 3719 
L 4684 3150 
z
" transform="scale(0.015625)"/>
      <path id="DejaVuSans-Oblique-3b1" d="M 2619 1628 
L 2622 2350 
Q 2625 3088 2069 3091 
Q 1653 3094 1394 2747 
Q 1069 2319 959 1747 
Q 825 1059 994 731 
Q 1169 397 1547 397 
Q 1966 397 2319 1063 
L 2619 1628 
z
M 2166 3578 
Q 3141 3594 3128 2584 
Q 3128 2584 3616 3500 
L 4128 3500 
L 3119 1603 
L 3109 919 
Q 3109 766 3194 638 
Q 3291 488 3391 488 
L 3669 488 
L 3575 0 
L 3228 0 
Q 2934 0 2722 263 
Q 2622 394 2619 669 
Q 2416 334 2066 50 
Q 1900 -81 1453 -78 
Q 722 -72 456 397 
Q 184 884 353 1747 
Q 534 2675 1009 3097 
Q 1544 3569 2166 3578 
z
" transform="scale(0.015625)"/>
      <path id="DejaVuSans-Oblique-39" d="M 281 103 
L 397 678 
Q 578 559 809 496 
Q 1041 434 1306 434 
Q 1953 434 2348 843 
Q 2744 1253 2938 2119 
Q 2706 1853 2401 1714 
Q 2097 1575 1747 1575 
Q 1178 1575 842 1904 
Q 506 2234 506 2791 
Q 506 3247 672 3639 
Q 838 4031 1159 4325 
Q 1378 4531 1665 4640 
Q 1953 4750 2278 4750 
Q 2925 4750 3300 4339 
Q 3675 3928 3675 3219 
Q 3675 2559 3501 1943 
Q 3328 1328 3022 878 
Q 2697 403 2240 156 
Q 1784 -91 1228 -91 
Q 988 -91 748 -42 
Q 509 6 281 103 
z
M 1131 2938 
Q 1131 2541 1337 2308 
Q 1544 2075 1894 2075 
Q 2378 2075 2706 2447 
Q 3034 2819 3034 3372 
Q 3034 3784 2831 4017 
Q 2628 4250 2272 4250 
Q 1788 4250 1459 3870 
Q 1131 3491 1131 2938 
z
" transform="scale(0.015625)"/>
     </defs>
     <use xlink:href="#DejaVuSans-Oblique-30"/>
     <use xlink:href="#DejaVuSans-Oblique-b0" transform="translate(63.623047 0)"/>
     <use xlink:href="#DejaVuSans-Oblique-20" transform="translate(113.623047 0)"/>
     <use xlink:href="#DejaVuSans-Oblique-3c" transform="translate(145.410156 0)"/>
     <use xlink:href="#DejaVuSans-Oblique-20" transform="translate(229.199219 0)"/>
     <use xlink:href="#DejaVuSans-Oblique-3b1" transform="translate(260.986328 0)"/>
     <use xlink:href="#DejaVuSans-Oblique-20" transform="translate(326.904297 0)"/>
     <use xlink:href="#DejaVuSans-Oblique-3c" transform="translate(358.691406 0)"/>
     <use xlink:href="#DejaVuSans-Oblique-20" transform="translate(442.480469 0)"/>
     <use xlink:href="#DejaVuSans-Oblique-39" transform="translate(474.267578 0)"/>
     <use xlink:href="#DejaVuSans-Oblique-30" transform="translate(537.890625 0)"/>
     <use xlink:href="#DejaVuSans-Oblique-b0" transform="translate(601.513672 0)"/>
    </g>
   </g>
  </g>
  <g id="axes_2">
   <g id="line2d_2">
    <path d="M 326.291478 206.85913 
L 326.275845 205.883871 
L 326.228961 204.909613 
L 326.150875 203.937359 
L 326.041666 202.968106 
L 325.901448 202.002853 
L 325.730363 201.042589 
L 325.528589 200.088302 
L 325.296332 199.140973 
L 325.033831 198.201575 
L 324.741355 197.271072 
L 324.419206 196.350423 
L 324.067714 195.440571 
L 323.68724 194.542453 
L 323.278176 193.656991 
L 322.840942 192.785096 
L 322.375986 191.927662 
L 321.883787 191.085572 
L 321.364851 190.259689 
L 320.819711 189.450864 
L 320.248926 188.659927 
L 319.653085 187.887691 
L 319.032797 187.13495 
L 318.388702 186.402476 
L 317.721461 185.691023 
L 317.03176 185.001321 
L 316.320307 184.33408 
L 315.587833 183.689985 
L 314.835091 183.069698 
L 314.062855 182.473856 
L 313.271918 181.903072 
L 312.463093 181.357931 
L 311.637211 180.838995 
L 310.795121 180.346796 
L 309.937687 179.881841 
L 309.065791 179.444606 
L 308.180329 179.035542 
L 307.282211 178.655069 
L 306.37236 178.303577 
L 305.45171 177.981427 
L 304.521208 177.688952 
L 303.58181 177.426451 
L 302.63448 177.194193 
L 301.680194 176.992419 
L 300.71993 176.821335 
L 299.754676 176.681116 
L 298.785424 176.571908 
L 297.81317 176.493822 
L 296.838912 176.446938 
L 295.863652 176.431304 
" clip-path="url(#pceb63650b8)" style="fill: none; stroke: #dc2626; stroke-width: 2; stroke-linecap: square"/>
   </g>
   <g id="patch_4">
    <path d="M 297.866297 206.85913 
Q 346.578262 206.85913 393.054158 206.85913 
" style="fill: none; stroke: #dc2626; stroke-width: 2; stroke-linecap: round"/>
    <path d="M 388.254158 204.45913 
L 393.054158 206.85913 
L 388.254158 209.25913 
" style="fill: none; stroke: #dc2626; stroke-width: 2; stroke-linecap: round"/>
   </g>
   <g id="patch_5">
    <path d="M 295.863652 204.856485 
Q 295.863652 156.144521 295.863652 109.668625 
" style="fill: none; stroke: #dc2626; stroke-width: 2; stroke-linecap: round"/>
    <path d="M 293.463652 114.468625 
L 295.863652 109.668625 
L 298.263652 114.468625 
" style="fill: none; stroke: #dc2626; stroke-width: 2; stroke-linecap: round"/>
   </g>
   <g id="text_4">
    <!-- 90° -->
    <g style="fill: #dc2626" transform="translate(318.679423 177.344922) scale(0.1 -0.1)">
     <defs>
      <path id="DejaVuSans-Bold-39" d="M 641 103 
L 641 966 
Q 928 831 1190 764 
Q 1453 697 1709 697 
Q 2247 697 2547 995 
Q 2847 1294 2900 1881 
Q 2688 1725 2447 1647 
Q 2206 1569 1925 1569 
Q 1209 1569 770 1986 
Q 331 2403 331 3084 
Q 331 3838 820 4291 
Q 1309 4744 2131 4744 
Q 3044 4744 3544 4128 
Q 4044 3513 4044 2388 
Q 4044 1231 3459 570 
Q 2875 -91 1856 -91 
Q 1528 -91 1228 -42 
Q 928 6 641 103 
z
M 2125 2350 
Q 2441 2350 2600 2554 
Q 2759 2759 2759 3169 
Q 2759 3575 2600 3781 
Q 2441 3988 2125 3988 
Q 1809 3988 1650 3781 
Q 1491 3575 1491 3169 
Q 1491 2759 1650 2554 
Q 1809 2350 2125 2350 
z
" transform="scale(0.015625)"/>
      <path id="DejaVuSans-Bold-30" d="M 2944 2338 
Q 2944 3213 2780 3570 
Q 2616 3928 2228 3928 
Q 1841 3928 1675 3570 
Q 1509 3213 1509 2338 
Q 1509 1453 1675 1090 
Q 1841 728 2228 728 
Q 2613 728 2778 1090 
Q 2944 1453 2944 2338 
z
M 4147 2328 
Q 4147 1169 3647 539 
Q 3147 -91 2228 -91 
Q 1306 -91 806 539 
Q 306 1169 306 2328 
Q 306 3491 806 4120 
Q 1306 4750 2228 4750 
Q 3147 4750 3647 4120 
Q 4147 3491 4147 2328 
z
" transform="scale(0.015625)"/>
     </defs>
     <use xlink:href="#DejaVuSans-Bold-39"/>
     <use xlink:href="#DejaVuSans-Bold-30" transform="translate(69.580078 0)"/>
     <use xlink:href="#DejaVuSans-Bold-b0" transform="translate(139.160156 0)"/>
    </g>
   </g>
   <g id="text_5">
    <!-- Recto -->
    <g style="fill: #1f2937" transform="translate(328.94318 286.215673) scale(0.11 -0.11)">
     <defs>
      <path id="DejaVuSans-Bold-52" d="M 2297 2597 
Q 2675 2597 2839 2737 
Q 3003 2878 3003 3200 
Q 3003 3519 2839 3656 
Q 2675 3794 2297 3794 
L 1791 3794 
L 1791 2597 
L 2297 2597 
z
M 1791 1766 
L 1791 0 
L 588 0 
L 588 4666 
L 2425 4666 
Q 3347 4666 3776 4356 
Q 4206 4047 4206 3378 
Q 4206 2916 3982 2619 
Q 3759 2322 3309 2181 
Q 3556 2125 3751 1926 
Q 3947 1728 4147 1325 
L 4800 0 
L 3519 0 
L 2950 1159 
Q 2778 1509 2601 1637 
Q 2425 1766 2131 1766 
L 1791 1766 
z
" transform="scale(0.015625)"/>
      <path id="DejaVuSans-Bold-65" d="M 4031 1759 
L 4031 1441 
L 1416 1441 
Q 1456 1047 1700 850 
Q 1944 653 2381 653 
Q 2734 653 3104 758 
Q 3475 863 3866 1075 
L 3866 213 
Q 3469 63 3072 -14 
Q 2675 -91 2278 -91 
Q 1328 -91 801 392 
Q 275 875 275 1747 
Q 275 2603 792 3093 
Q 1309 3584 2216 3584 
Q 3041 3584 3536 3087 
Q 4031 2591 4031 1759 
z
M 2881 2131 
Q 2881 2450 2695 2645 
Q 2509 2841 2209 2841 
Q 1884 2841 1681 2658 
Q 1478 2475 1428 2131 
L 2881 2131 
z
" transform="scale(0.015625)"/>
      <path id="DejaVuSans-Bold-63" d="M 3366 3391 
L 3366 2478 
Q 3138 2634 2908 2709 
Q 2678 2784 2431 2784 
Q 1963 2784 1702 2511 
Q 1441 2238 1441 1747 
Q 1441 1256 1702 982 
Q 1963 709 2431 709 
Q 2694 709 2930 787 
Q 3166 866 3366 1019 
L 3366 103 
Q 3103 6 2833 -42 
Q 2563 -91 2291 -91 
Q 1344 -91 809 395 
Q 275 881 275 1747 
Q 275 2613 809 3098 
Q 1344 3584 2291 3584 
Q 2566 3584 2833 3536 
Q 3100 3488 3366 3391 
z
" transform="scale(0.015625)"/>
      <path id="DejaVuSans-Bold-74" d="M 1759 4494 
L 1759 3500 
L 2913 3500 
L 2913 2700 
L 1759 2700 
L 1759 1216 
Q 1759 972 1856 886 
Q 1953 800 2241 800 
L 2816 800 
L 2816 0 
L 1856 0 
Q 1194 0 917 276 
Q 641 553 641 1216 
L 641 2700 
L 84 2700 
L 84 3500 
L 641 3500 
L 641 4494 
L 1759 4494 
z
" transform="scale(0.015625)"/>
     </defs>
     <use xlink:href="#DejaVuSans-Bold-52"/>
     <use xlink:href="#DejaVuSans-Bold-65" transform="translate(77.001953 0)"/>
     <use xlink:href="#DejaVuSans-Bold-63" transform="translate(144.824219 0)"/>
     <use xlink:href="#DejaVuSans-Bold-74" transform="translate(204.101562 0)"/>
     <use xlink:href="#DejaVuSans-Bold-6f" transform="translate(251.904297 0)"/>
    </g>
   </g>
   <g id="text_6">
    <!-- α = 90° -->
    <g style="fill: #6b7280" transform="translate(329.002789 284.695985) scale(0.09 -0.09)">
     <defs>
      <path id="DejaVuSans-Oblique-3d" d="M 678 2906 
L 4684 2906 
L 4684 2381 
L 678 2381 
L 678 2906 
z
M 678 1631 
L 4684 1631 
L 4684 1100 
L 678 1100 
L 678 1631 
z
" transform="scale(0.015625)"/>
     </defs>
     <use xlink:href="#DejaVuSans-Oblique-3b1"/>
     <use xlink:href="#DejaVuSans-Oblique-20" transform="translate(65.917969 0)"/>
     <use xlink:href="#DejaVuSans-Oblique-3d" transform="translate(97.705078 0)"/>
     <use xlink:href="#DejaVuSans-Oblique-20" transform="translate(181.494141 0)"/>
     <use xlink:href="#DejaVuSans-Oblique-39" transform="translate(213.28125 0)"/>
     <use xlink:href="#DejaVuSans-Oblique-30" transform="translate(276.904297 0)"/>
     <use xlink:href="#DejaVuSans-Oblique-b0" transform="translate(340.527344 0)"/>
    </g>
   </g>
  </g>
  <g id="axes_3">
   <g id="line2d_3">
    <path d="M 554.099478 206.85913 
L 554.071688 205.558957 
L 553.988366 204.261159 
L 553.849666 202.968106 
L 553.655841 201.682161 
L 553.407245 200.405673 
L 553.104332 199.140973 
L 552.747655 197.890371 
L 552.337866 196.656153 
L 551.875714 195.440571 
L 551.362042 194.245848 
L 550.797789 193.074165 
L 550.183986 191.927662 
L 549.521754 190.808434 
L 548.812302 189.718526 
L 548.056926 188.659927 
L 547.257007 187.634573 
L 546.414006 186.644335 
L 545.529461 185.691023 
L 544.60499 184.776378 
L 543.642281 183.90207 
L 542.643091 183.069698 
L 541.609248 182.280781 
L 540.542638 181.53676 
L 539.445211 180.838995 
L 538.318971 180.18876 
L 537.165975 179.587243 
L 535.988329 179.035542 
L 534.788185 178.534666 
L 533.567735 178.085529 
L 532.329208 177.688952 
L 531.074867 177.345659 
L 529.807002 177.056277 
L 528.52793 176.821335 
L 527.239987 176.641262 
L 525.945526 176.516387 
L 524.646912 176.446938 
L 523.346516 176.433042 
L 522.046714 176.474724 
L 520.74988 176.571908 
L 519.458384 176.724417 
L 518.174583 176.931972 
L 516.900824 177.194193 
L 515.639433 177.510603 
L 514.392714 177.880623 
L 513.162944 178.303577 
L 511.952371 178.778692 
L 510.763204 179.3051 
L 509.597618 179.881841 
L 508.457739 180.50786 
" clip-path="url(#pa41d0b898e)" style="fill: none; stroke: #059669; stroke-width: 2; stroke-linecap: square"/>
   </g>
   <g id="patch_6">
    <path d="M 525.674297 206.85913 
Q 574.386262 206.85913 620.862158 206.85913 
" style="fill: none; stroke: #059669; stroke-width: 2; stroke-linecap: round"/>
    <path d="M 616.062158 204.45913 
L 620.862158 206.85913 
L 616.062158 209.25913 
" style="fill: none; stroke: #059669; stroke-width: 2; stroke-linecap: round"/>
   </g>
   <g id="patch_7">
    <path d="M 522.67033 205.124789 
Q 498.314347 162.93899 475.076399 122.689683 
" style="fill: none; stroke: #059669; stroke-width: 2; stroke-linecap: round"/>
    <path d="M 475.397938 128.046605 
L 475.076399 122.689683 
L 479.55486 125.646605 
" style="fill: none; stroke: #059669; stroke-width: 2; stroke-linecap: round"/>
   </g>
   <g id="text_7">
    <!-- 120° -->
    <g style="fill: #059669" transform="translate(533.555803 170.0916) scale(0.1 -0.1)">
     <defs>
      <path id="DejaVuSans-Bold-31" d="M 750 831 
L 1813 831 
L 1813 3847 
L 722 3622 
L 722 4441 
L 1806 4666 
L 2950 4666 
L 2950 831 
L 4013 831 
L 4013 0 
L 750 0 
L 750 831 
z
" transform="scale(0.015625)"/>
      <path id="DejaVuSans-Bold-32" d="M 1844 884 
L 3897 884 
L 3897 0 
L 506 0 
L 506 884 
L 2209 2388 
Q 2438 2594 2547 2791 
Q 2656 2988 2656 3200 
Q 2656 3528 2436 3728 
Q 2216 3928 1850 3928 
Q 1569 3928 1234 3808 
Q 900 3688 519 3450 
L 519 4475 
Q 925 4609 1322 4679 
Q 1719 4750 2100 4750 
Q 2938 4750 3402 4381 
Q 3866 4013 3866 3353 
Q 3866 2972 3669 2642 
Q 3472 2313 2841 1759 
L 1844 884 
z
" transform="scale(0.015625)"/>
     </defs>
     <use xlink:href="#DejaVuSans-Bold-31"/>
     <use xlink:href="#DejaVuSans-Bold-32" transform="translate(69.580078 0)"/>
     <use xlink:href="#DejaVuSans-Bold-30" transform="translate(139.160156 0)"/>
     <use xlink:href="#DejaVuSans-Bold-b0" transform="translate(208.740234 0)"/>
    </g>
   </g>
   <g id="text_8">
    <!-- Obtuso -->
    <g style="fill: #1f2937" transform="translate(552.175868 286.215673) scale(0.11 -0.11)">
     <defs>
      <path id="DejaVuSans-Bold-4f" d="M 2719 3878 
Q 2169 3878 1866 3472 
Q 1563 3066 1563 2328 
Q 1563 1594 1866 1187 
Q 2169 781 2719 781 
Q 3272 781 3575 1187 
Q 3878 1594 3878 2328 
Q 3878 3066 3575 3472 
Q 3272 3878 2719 3878 
z
M 2719 4750 
Q 3844 4750 4481 4106 
Q 5119 3463 5119 2328 
Q 5119 1197 4481 553 
Q 3844 -91 2719 -91 
Q 1597 -91 958 553 
Q 319 1197 319 2328 
Q 319 3463 958 4106 
Q 1597 4750 2719 4750 
z
" transform="scale(0.015625)"/>
      <path id="DejaVuSans-Bold-62" d="M 2400 722 
Q 2759 722 2948 984 
Q 3138 1247 3138 1747 
Q 3138 2247 2948 2509 
Q 2759 2772 2400 2772 
Q 2041 2772 1848 2508 
Q 1656 2244 1656 1747 
Q 1656 1250 1848 986 
Q 2041 722 2400 722 
z
M 1656 2988 
Q 1888 3294 2169 3439 
Q 2450 3584 2816 3584 
Q 3463 3584 3878 3070 
Q 4294 2556 4294 1747 
Q 4294 938 3878 423 
Q 3463 -91 2816 -91 
Q 2450 -91 2169 54 
Q 1888 200 1656 506 
L 1656 0 
L 538 0 
L 538 4863 
L 1656 4863 
L 1656 2988 
z
" transform="scale(0.015625)"/>
      <path id="DejaVuSans-Bold-73" d="M 3272 3391 
L 3272 2541 
Q 2913 2691 2578 2766 
Q 2244 2841 1947 2841 
Q 1628 2841 1473 2761 
Q 1319 2681 1319 2516 
Q 1319 2381 1436 2309 
Q 1553 2238 1856 2203 
L 2053 2175 
Q 2913 2066 3209 1816 
Q 3506 1566 3506 1031 
Q 3506 472 3093 190 
Q 2681 -91 1863 -91 
Q 1516 -91 1145 -36 
Q 775 19 384 128 
L 384 978 
Q 719 816 1070 734 
Q 1422 653 1784 653 
Q 2113 653 2278 743 
Q 2444 834 2444 1013 
Q 2444 1163 2330 1236 
Q 2216 1309 1875 1350 
L 1678 1375 
Q 931 1469 631 1722 
Q 331 1975 331 2491 
Q 331 3047 712 3315 
Q 1094 3584 1881 3584 
Q 2191 3584 2531 3537 
Q 2872 3491 3272 3391 
z
" transform="scale(0.015625)"/>
     </defs>
     <use xlink:href="#DejaVuSans-Bold-4f"/>
     <use xlink:href="#DejaVuSans-Bold-62" transform="translate(85.009766 0)"/>
     <use xlink:href="#DejaVuSans-Bold-74" transform="translate(156.591797 0)"/>
     <use xlink:href="#DejaVuSans-Bold-75" transform="translate(204.394531 0)"/>
     <use xlink:href="#DejaVuSans-Bold-73" transform="translate(275.585938 0)"/>
     <use xlink:href="#DejaVuSans-Bold-6f" transform="translate(335.107422 0)"/>
    </g>
   </g>
   <g id="text_9">
    <!-- 90° &lt; α &lt; 180° -->
    <g style="fill: #6b7280" transform="translate(539.340243 284.695985) scale(0.09 -0.09)">
     <defs>
      <path id="DejaVuSans-Oblique-31" d="M 416 531 
L 1447 531 
L 2144 4122 
L 978 3897 
L 1088 4441 
L 2247 4666 
L 2881 4666 
L 2075 531 
L 3103 531 
L 3003 0 
L 313 0 
L 416 531 
z
" transform="scale(0.015625)"/>
      <path id="DejaVuSans-Oblique-38" d="M 2847 1416 
Q 2847 1769 2600 1992 
Q 2353 2216 1953 2216 
Q 1466 2216 1148 1923 
Q 831 1631 831 1184 
Q 831 828 1073 618 
Q 1316 409 1728 409 
Q 2219 409 2533 693 
Q 2847 978 2847 1416 
z
M 3169 3591 
Q 3169 3888 2950 4069 
Q 2731 4250 2369 4250 
Q 1941 4250 1664 4009 
Q 1388 3769 1388 3406 
Q 1388 3094 1605 2903 
Q 1822 2713 2181 2713 
Q 2613 2713 2891 2961 
Q 3169 3209 3169 3591 
z
M 2741 2456 
Q 3094 2322 3281 2050 
Q 3469 1778 3469 1394 
Q 3469 747 2969 328 
Q 2469 -91 1678 -91 
Q 1006 -91 609 239 
Q 213 569 213 1119 
Q 213 1619 553 2008 
Q 894 2397 1441 2503 
Q 1113 2616 941 2852 
Q 769 3088 769 3425 
Q 769 3991 1239 4370 
Q 1709 4750 2431 4750 
Q 3034 4750 3414 4442 
Q 3794 4134 3794 3659 
Q 3794 3247 3511 2923 
Q 3228 2600 2741 2456 
z
" transform="scale(0.015625)"/>
     </defs>
     <use xlink:href="#DejaVuSans-Oblique-39"/>
     <use xlink:href="#DejaVuSans-Oblique-30" transform="translate(63.623047 0)"/>
     <use xlink:href="#DejaVuSans-Oblique-b0" transform="translate(127.246094 0)"/>
     <use xlink:href="#DejaVuSans-Oblique-20" transform="translate(177.246094 0)"/>
     <use xlink:href="#DejaVuSans-Oblique-3c" transform="translate(209.033203 0)"/>
     <use xlink:href="#DejaVuSans-Oblique-20" transform="translate(292.822266 0)"/>
     <use xlink:href="#DejaVuSans-Oblique-3b1" transform="translate(324.609375 0)"/>
     <use xlink:href="#DejaVuSans-Oblique-20" transform="translate(390.527344 0)"/>
     <use xlink:href="#DejaVuSans-Oblique-3c" transform="translate(422.314453 0)"/>
     <use xlink:href="#DejaVuSans-Oblique-20" transform="translate(506.103516 0)"/>
     <use xlink:href="#DejaVuSans-Oblique-31" transform="translate(537.890625 0)"/>
     <use xlink:href="#DejaVuSans-Oblique-38" transform="translate(601.513672 0)"/>
     <use xlink:href="#DejaVuSans-Oblique-30" transform="translate(665.136719 0)"/>
     <use xlink:href="#DejaVuSans-Oblique-b0" transform="translate(728.759766 0)"/>
    </g>
   </g>
  </g>
  <g id="axes_4">
   <g id="line2d_4">
    <path d="M 781.907478 206.85913 
L 781.844961 204.909613 
L 781.657666 202.968106 
L 781.346363 201.042589 
L 780.912332 199.140973 
L 780.357355 197.271072 
L 779.683714 195.440571 
L 778.894176 193.656991 
L 777.991986 191.927662 
L 776.980851 190.259689 
L 775.864926 188.659927 
L 774.648797 187.13495 
L 773.337461 185.691023 
L 771.936307 184.33408 
L 770.451091 183.069698 
L 768.887918 181.903072 
L 767.253211 180.838995 
L 765.553687 179.881841 
L 763.796329 179.035542 
L 761.98836 178.303577 
L 760.137208 177.688952 
L 758.25048 177.194193 
L 756.33593 176.821335 
L 754.401424 176.571908 
L 752.454912 176.446938 
L 750.504392 176.446938 
L 748.55788 176.571908 
L 746.623374 176.821335 
L 744.708824 177.194193 
L 742.822096 177.688952 
L 740.970944 178.303577 
L 739.162975 179.035542 
L 737.405618 179.881841 
L 735.706093 180.838995 
L 734.071386 181.903072 
L 732.508213 183.069698 
L 731.022998 184.33408 
L 729.621843 185.691023 
L 728.310507 187.13495 
L 727.094378 188.659927 
L 725.978453 190.259689 
L 724.967318 191.927662 
L 724.065128 193.656991 
L 723.27559 195.440571 
L 722.601949 197.271072 
L 722.046972 199.140973 
L 721.612941 201.042589 
L 721.301638 202.968106 
L 721.114343 204.909613 
L 721.051826 206.85913 
" clip-path="url(#p25b72d66f3)" style="fill: none; stroke: #7c3aed; stroke-width: 2; stroke-linecap: square"/>
   </g>
   <g id="patch_8">
    <path d="M 753.482297 206.85913 
Q 802.194262 206.85913 848.670158 206.85913 
" style="fill: none; stroke: #7c3aed; stroke-width: 2; stroke-linecap: round"/>
    <path d="M 843.870158 204.45913 
L 848.670158 206.85913 
L 843.870158 209.25913 
" style="fill: none; stroke: #7c3aed; stroke-width: 2; stroke-linecap: round"/>
   </g>
   <g id="text_10">
    <!-- 180° -->
    <g style="fill: #7c3aed" transform="translate(738.542933 163.976766) scale(0.1 -0.1)">
     <defs>
      <path id="DejaVuSans-Bold-38" d="M 2228 2088 
Q 1891 2088 1709 1903 
Q 1528 1719 1528 1375 
Q 1528 1031 1709 848 
Q 1891 666 2228 666 
Q 2563 666 2741 848 
Q 2919 1031 2919 1375 
Q 2919 1722 2741 1905 
Q 2563 2088 2228 2088 
z
M 1350 2484 
Q 925 2613 709 2878 
Q 494 3144 494 3541 
Q 494 4131 934 4440 
Q 1375 4750 2228 4750 
Q 3075 4750 3515 4442 
Q 3956 4134 3956 3541 
Q 3956 3144 3739 2878 
Q 3522 2613 3097 2484 
Q 3572 2353 3814 2058 
Q 4056 1763 4056 1313 
Q 4056 619 3595 264 
Q 3134 -91 2228 -91 
Q 1319 -91 855 264 
Q 391 619 391 1313 
Q 391 1763 633 2058 
Q 875 2353 1350 2484 
z
M 1631 3419 
Q 1631 3141 1786 2991 
Q 1941 2841 2228 2841 
Q 2509 2841 2662 2991 
Q 2816 3141 2816 3419 
Q 2816 3697 2662 3845 
Q 2509 3994 2228 3994 
Q 1941 3994 1786 3844 
Q 1631 3694 1631 3419 
z
" transform="scale(0.015625)"/>
     </defs>
     <use xlink:href="#DejaVuSans-Bold-31"/>
     <use xlink:href="#DejaVuSans-Bold-38" transform="translate(69.580078 0)"/>
     <use xlink:href="#DejaVuSans-Bold-30" transform="translate(139.160156 0)"/>
     <use xlink:href="#DejaVuSans-Bold-b0" transform="translate(208.740234 0)"/>
    </g>
   </g>
   <g id="text_11">
    <!-- Llano -->
    <g style="fill: #1f2937" transform="translate(785.397071 286.215673) scale(0.11 -0.11)">
     <defs>
      <path id="DejaVuSans-Bold-4c" d="M 588 4666 
L 1791 4666 
L 1791 909 
L 3903 909 
L 3903 0 
L 588 0 
L 588 4666 
z
" transform="scale(0.015625)"/>
      <path id="DejaVuSans-Bold-6c" d="M 538 4863 
L 1656 4863 
L 1656 0 
L 538 0 
L 538 4863 
z
" transform="scale(0.015625)"/>
      <path id="DejaVuSans-Bold-61" d="M 2106 1575 
Q 1756 1575 1579 1456 
Q 1403 1338 1403 1106 
Q 1403 894 1545 773 
Q 1688 653 1941 653 
Q 2256 653 2472 879 
Q 2688 1106 2688 1447 
L 2688 1575 
L 2106 1575 
z
M 3816 1997 
L 3816 0 
L 2688 0 
L 2688 519 
Q 2463 200 2181 54 
Q 1900 -91 1497 -91 
Q 953 -91 614 226 
Q 275 544 275 1050 
Q 275 1666 698 1953 
Q 1122 2241 2028 2241 
L 2688 2241 
L 2688 2328 
Q 2688 2594 2478 2717 
Q 2269 2841 1825 2841 
Q 1466 2841 1156 2769 
Q 847 2697 581 2553 
L 581 3406 
Q 941 3494 1303 3539 
Q 1666 3584 2028 3584 
Q 2975 3584 3395 3211 
Q 3816 2838 3816 1997 
z
" transform="scale(0.015625)"/>
      <path id="DejaVuSans-Bold-6e" d="M 4056 2131 
L 4056 0 
L 2931 0 
L 2931 347 
L 2931 1631 
Q 2931 2084 2911 2256 
Q 2891 2428 2841 2509 
Q 2775 2619 2662 2680 
Q 2550 2741 2406 2741 
Q 2056 2741 1856 2470 
Q 1656 2200 1656 1722 
L 1656 0 
L 538 0 
L 538 3500 
L 1656 3500 
L 1656 2988 
Q 1909 3294 2193 3439 
Q 2478 3584 2822 3584 
Q 3428 3584 3742 3212 
Q 4056 2841 4056 2131 
z
" transform="scale(0.015625)"/>
     </defs>
     <use xlink:href="#DejaVuSans-Bold-4c"/>
     <use xlink:href="#DejaVuSans-Bold-6c" transform="translate(63.720703 0)"/>
     <use xlink:href="#DejaVuSans-Bold-61" transform="translate(97.998047 0)"/>
     <use xlink:href="#DejaVuSans-Bold-6e" transform="translate(165.478516 0)"/>
     <use xlink:href="#DejaVuSans-Bold-6f" transform="translate(236.669922 0)"/>
    </g>
   </g>
   <g id="text_12">
    <!-- α = 180° -->
    <g style="fill: #6b7280" transform="translate(781.755664 284.695985) scale(0.09 -0.09)">
     <use xlink:href="#DejaVuSans-Oblique-3b1"/>
     <use xlink:href="#DejaVuSans-Oblique-20" transform="translate(65.917969 0)"/>
     <use xlink:href="#DejaVuSans-Oblique-3d" transform="translate(97.705078 0)"/>
     <use xlink:href="#DejaVuSans-Oblique-20" transform="translate(181.494141 0)"/>
     <use xlink:href="#DejaVuSans-Oblique-31" transform="translate(213.28125 0)"/>
     <use xlink:href="#DejaVuSans-Oblique-38" transform="translate(276.904297 0)"/>
     <use xlink:href="#DejaVuSans-Oblique-30" transform="translate(340.527344 0)"/>
     <use xlink:href="#DejaVuSans-Oblique-b0" transform="translate(404.150391 0)"/>
    </g>
   </g>
  </g>
  <g id="axes_5">
   <g id="line2d_5">
    <path d="M 1009.715478 206.85913 
L 1009.574875 203.937359 
L 1009.154363 201.042589 
L 1008.457831 198.201575 
L 1007.491714 195.440571 
L 1006.264942 192.785096 
L 1004.788851 190.259689 
L 1003.077085 187.887691 
L 1001.145461 185.691023 
L 999.011833 183.689985 
L 996.695918 181.903072 
L 994.219121 180.346796 
L 991.604329 179.035542 
L 988.87571 177.981427 
L 986.05848 177.194193 
L 983.178676 176.681116 
L 980.262912 176.446938 
L 977.338135 176.493822 
L 974.431374 176.821335 
L 971.569495 177.426451 
L 968.778944 178.303577 
L 966.085513 179.444606 
L 963.514093 180.838995 
L 961.088449 182.473856 
L 958.830998 184.33408 
L 956.762602 186.402476 
L 954.902378 188.659927 
L 953.267517 191.085572 
L 951.873128 193.656991 
L 950.732098 196.350423 
L 949.854972 199.140973 
L 949.249857 202.002853 
L 948.922343 204.909613 
L 948.875459 207.83439 
L 949.109638 210.750154 
L 949.622715 213.629959 
L 950.409949 216.447188 
L 951.464064 219.175808 
L 952.775318 221.790599 
L 954.331593 224.267397 
L 956.118507 226.583311 
L 958.119545 228.71694 
L 960.316213 230.648563 
L 962.688211 232.36033 
L 965.213618 233.83642 
L 967.869093 235.063192 
L 970.630096 236.029309 
L 973.471111 236.725842 
L 976.36588 237.146353 
L 979.287652 237.286957 
" clip-path="url(#p4e63e2b4ab)" style="fill: none; stroke: #f59e0b; stroke-width: 2; stroke-linecap: square"/>
   </g>
   <g id="patch_9">
    <path d="M 981.290297 206.85913 
Q 1030.002262 206.85913 1076.478158 206.85913 
" style="fill: none; stroke: #f59e0b; stroke-width: 2; stroke-linecap: round"/>
    <path d="M 1071.678158 204.45913 
L 1076.478158 206.85913 
L 1071.678158 209.25913 
" style="fill: none; stroke: #f59e0b; stroke-width: 2; stroke-linecap: round"/>
   </g>
   <g id="text_13">
    <!-- 270° -->
    <g style="fill: #f59e0b" transform="translate(934.07735 177.344922) scale(0.1 -0.1)">
     <defs>
      <path id="DejaVuSans-Bold-37" d="M 428 4666 
L 3944 4666 
L 3944 3988 
L 2125 0 
L 953 0 
L 2675 3781 
L 428 3781 
L 428 4666 
z
" transform="scale(0.015625)"/>
     </defs>
     <use xlink:href="#DejaVuSans-Bold-32"/>
     <use xlink:href="#DejaVuSans-Bold-37" transform="translate(69.580078 0)"/>
     <use xlink:href="#DejaVuSans-Bold-30" transform="translate(139.160156 0)"/>
     <use xlink:href="#DejaVuSans-Bold-b0" transform="translate(208.740234 0)"/>
    </g>
   </g>
   <g id="text_14">
    <!-- Cóncavo -->
    <g style="fill: #1f2937" transform="translate(1003.934133 286.215673) scale(0.11 -0.11)">
     <defs>
      <path id="DejaVuSans-Bold-43" d="M 4288 256 
Q 3956 84 3597 -3 
Q 3238 -91 2847 -91 
Q 1681 -91 1000 561 
Q 319 1213 319 2328 
Q 319 3447 1000 4098 
Q 1681 4750 2847 4750 
Q 3238 4750 3597 4662 
Q 3956 4575 4288 4403 
L 4288 3438 
Q 3953 3666 3628 3772 
Q 3303 3878 2944 3878 
Q 2300 3878 1931 3465 
Q 1563 3053 1563 2328 
Q 1563 1606 1931 1193 
Q 2300 781 2944 781 
Q 3303 781 3628 887 
Q 3953 994 4288 1222 
L 4288 256 
z
" transform="scale(0.015625)"/>
      <path id="DejaVuSans-Bold-f3" d="M 2203 2784 
Q 1831 2784 1636 2517 
Q 1441 2250 1441 1747 
Q 1441 1244 1636 976 
Q 1831 709 2203 709 
Q 2569 709 2762 976 
Q 2956 1244 2956 1747 
Q 2956 2250 2762 2517 
Q 2569 2784 2203 2784 
z
M 2203 3584 
Q 3106 3584 3614 3096 
Q 4122 2609 4122 1747 
Q 4122 884 3614 396 
Q 3106 -91 2203 -91 
Q 1297 -91 786 396 
Q 275 884 275 1747 
Q 275 2609 786 3096 
Q 1297 3584 2203 3584 
z
M 2694 5119 
L 3578 5119 
L 2425 3944 
L 1813 3944 
L 2694 5119 
z
" transform="scale(0.015625)"/>
      <path id="DejaVuSans-Bold-76" d="M 97 3500 
L 1216 3500 
L 2088 1081 
L 2956 3500 
L 4078 3500 
L 2700 0 
L 1472 0 
L 97 3500 
z
" transform="scale(0.015625)"/>
     </defs>
     <use xlink:href="#DejaVuSans-Bold-43"/>
     <use xlink:href="#DejaVuSans-Bold-f3" transform="translate(73.388672 0)"/>
     <use xlink:href="#DejaVuSans-Bold-6e" transform="translate(142.089844 0)"/>
     <use xlink:href="#DejaVuSans-Bold-63" transform="translate(213.28125 0)"/>
     <use xlink:href="#DejaVuSans-Bold-61" transform="translate(272.558594 0)"/>
     <use xlink:href="#DejaVuSans-Bold-76" transform="translate(340.039062 0)"/>
     <use xlink:href="#DejaVuSans-Bold-6f" transform="translate(405.224609 0)"/>
    </g>
   </g>
   <g id="text_15">
    <!-- 180° &lt; α &lt; 360° -->
    <g style="fill: #6b7280" transform="translate(992.093118 284.695985) scale(0.09 -0.09)">
     <defs>
      <path id="DejaVuSans-Oblique-33" d="M 1013 4550 
Q 1356 4650 1679 4700 
Q 2003 4750 2316 4750 
Q 2934 4750 3296 4475 
Q 3659 4200 3659 3738 
Q 3659 3284 3373 2959 
Q 3088 2634 2584 2516 
Q 2978 2403 3162 2165 
Q 3347 1928 3347 1538 
Q 3347 1163 3167 834 
Q 2988 506 2650 269 
Q 2394 88 2037 -1 
Q 1681 -91 1216 -91 
Q 922 -91 622 -33 
Q 322 25 13 141 
L 128 738 
Q 422 575 720 495 
Q 1019 416 1331 416 
Q 1947 416 2330 733 
Q 2713 1050 2713 1556 
Q 2713 1881 2469 2057 
Q 2225 2234 1772 2234 
L 1228 2234 
L 1325 2747 
L 1900 2747 
Q 2419 2747 2717 2984 
Q 3016 3222 3016 3628 
Q 3016 3922 2797 4083 
Q 2578 4244 2181 4244 
Q 1881 4244 1567 4180 
Q 1253 4116 916 3988 
L 1013 4550 
z
" transform="scale(0.015625)"/>
      <path id="DejaVuSans-Oblique-36" d="M 2938 1728 
Q 2938 2125 2734 2354 
Q 2531 2584 2181 2584 
Q 1697 2584 1367 2211 
Q 1038 1838 1038 1288 
Q 1038 875 1239 642 
Q 1441 409 1797 409 
Q 2284 409 2611 792 
Q 2938 1175 2938 1728 
z
M 3788 4556 
L 3681 3981 
Q 3500 4100 3265 4162 
Q 3031 4225 2766 4225 
Q 2119 4225 1726 3819 
Q 1334 3413 1141 2547 
Q 1369 2813 1670 2948 
Q 1972 3084 2322 3084 
Q 2894 3084 3233 2754 
Q 3572 2425 3572 1869 
Q 3572 1413 3405 1020 
Q 3238 628 2919 331 
Q 2700 128 2409 18 
Q 2119 -91 1791 -91 
Q 1147 -91 775 318 
Q 403 728 403 1441 
Q 403 2103 573 2717 
Q 744 3331 1050 3781 
Q 1372 4256 1830 4503 
Q 2288 4750 2841 4750 
Q 3084 4750 3321 4701 
Q 3559 4653 3788 4556 
z
" transform="scale(0.015625)"/>
     </defs>
     <use xlink:href="#DejaVuSans-Oblique-31"/>
     <use xlink:href="#DejaVuSans-Oblique-38" transform="translate(63.623047 0)"/>
     <use xlink:href="#DejaVuSans-Oblique-30" transform="translate(127.246094 0)"/>
     <use xlink:href="#DejaVuSans-Oblique-b0" transform="translate(190.869141 0)"/>
     <use xlink:href="#DejaVuSans-Oblique-20" transform="translate(240.869141 0)"/>
     <use xlink:href="#DejaVuSans-Oblique-3c" transform="translate(272.65625 0)"/>
     <use xlink:href="#DejaVuSans-Oblique-20" transform="translate(356.445312 0)"/>
     <use xlink:href="#DejaVuSans-Oblique-3b1" transform="translate(388.232422 0)"/>
     <use xlink:href="#DejaVuSans-Oblique-20" transform="translate(454.150391 0)"/>
     <use xlink:href="#DejaVuSans-Oblique-3c" transform="translate(485.9375 0)"/>
     <use xlink:href="#DejaVuSans-Oblique-20" transform="translate(569.726562 0)"/>
     <use xlink:href="#DejaVuSans-Oblique-33" transform="translate(601.513672 0)"/>
     <use xlink:href="#DejaVuSans-Oblique-36" transform="translate(665.136719 0)"/>
     <use xlink:href="#DejaVuSans-Oblique-30" transform="translate(728.759766 0)"/>
     <use xlink:href="#DejaVuSans-Oblique-b0" transform="translate(792.382812 0)"/>
    </g>
   </g>
  </g>
  <g id="text_16">
   <!-- Clasificación de Ángulos por Medida -->
   <g style="fill: #1f2937" transform="translate(426.421516 20.152187) scale(0.14 -0.14)">
    <defs>
     <path id="DejaVuSans-Bold-69" d="M 538 3500 
L 1656 3500 
L 1656 0 
L 538 0 
L 538 3500 
z
M 538 4863 
L 1656 4863 
L 1656 3950 
L 538 3950 
L 538 4863 
z
" transform="scale(0.015625)"/>
     <path id="DejaVuSans-Bold-66" d="M 2841 4863 
L 2841 4128 
L 2222 4128 
Q 1984 4128 1890 4042 
Q 1797 3956 1797 3744 
L 1797 3500 
L 2753 3500 
L 2753 2700 
L 1797 2700 
L 1797 0 
L 678 0 
L 678 2700 
L 122 2700 
L 122 3500 
L 678 3500 
L 678 3744 
Q 678 4316 997 4589 
Q 1316 4863 1984 4863 
L 2841 4863 
z
" transform="scale(0.015625)"/>
     <path id="DejaVuSans-Bold-20" transform="scale(0.015625)"/>
     <path id="DejaVuSans-Bold-c1" d="M 3419 850 
L 1538 850 
L 1241 0 
L 31 0 
L 1759 4666 
L 3194 4666 
L 4922 0 
L 3713 0 
L 3419 850 
z
M 1838 1716 
L 3116 1716 
L 2478 3572 
L 1838 1716 
z
M 2559 5921 
L 3444 5921 
L 2553 5096 
L 1941 5096 
L 2559 5921 
z
" transform="scale(0.015625)"/>
     <path id="DejaVuSans-Bold-70" d="M 1656 506 
L 1656 -1331 
L 538 -1331 
L 538 3500 
L 1656 3500 
L 1656 2988 
Q 1888 3294 2169 3439 
Q 2450 3584 2816 3584 
Q 3463 3584 3878 3070 
Q 4294 2556 4294 1747 
Q 4294 938 3878 423 
Q 3463 -91 2816 -91 
Q 2450 -91 2169 54 
Q 1888 200 1656 506 
z
M 2400 2772 
Q 2041 2772 1848 2508 
Q 1656 2244 1656 1747 
Q 1656 1250 1848 986 
Q 2041 722 2400 722 
Q 2759 722 2948 984 
Q 3138 1247 3138 1747 
Q 3138 2247 2948 2509 
Q 2759 2772 2400 2772 
z
" transform="scale(0.015625)"/>
     <path id="DejaVuSans-Bold-72" d="M 3138 2547 
Q 2991 2616 2845 2648 
Q 2700 2681 2553 2681 
Q 2122 2681 1889 2404 
Q 1656 2128 1656 1613 
L 1656 0 
L 538 0 
L 538 3500 
L 1656 3500 
L 1656 2925 
Q 1872 3269 2151 3426 
Q 2431 3584 2822 3584 
Q 2878 3584 2943 3579 
Q 3009 3575 3134 3559 
L 3138 2547 
z
" transform="scale(0.015625)"/>
     <path id="DejaVuSans-Bold-4d" d="M 588 4666 
L 2119 4666 
L 3181 2169 
L 4250 4666 
L 5778 4666 
L 5778 0 
L 4641 0 
L 4641 3413 
L 3566 897 
L 2803 897 
L 1728 3413 
L 1728 0 
L 588 0 
L 588 4666 
z
" transform="scale(0.015625)"/>
    </defs>
    <use xlink:href="#DejaVuSans-Bold-43"/>
    <use xlink:href="#DejaVuSans-Bold-6c" transform="translate(73.388672 0)"/>
    <use xlink:href="#DejaVuSans-Bold-61" transform="translate(107.666016 0)"/>
    <use xlink:href="#DejaVuSans-Bold-73" transform="translate(175.146484 0)"/>
    <use xlink:href="#DejaVuSans-Bold-69" transform="translate(234.667969 0)"/>
    <use xlink:href="#DejaVuSans-Bold-66" transform="translate(268.945312 0)"/>
    <use xlink:href="#DejaVuSans-Bold-69" transform="translate(312.451172 0)"/>
    <use xlink:href="#DejaVuSans-Bold-63" transform="translate(346.728516 0)"/>
    <use xlink:href="#DejaVuSans-Bold-61" transform="translate(406.005859 0)"/>
    <use xlink:href="#DejaVuSans-Bold-63" transform="translate(473.486328 0)"/>
    <use xlink:href="#DejaVuSans-Bold-69" transform="translate(532.763672 0)"/>
    <use xlink:href="#DejaVuSans-Bold-f3" transform="translate(567.041016 0)"/>
    <use xlink:href="#DejaVuSans-Bold-6e" transform="translate(635.742188 0)"/>
    <use xlink:href="#DejaVuSans-Bold-20" transform="translate(706.933594 0)"/>
    <use xlink:href="#DejaVuSans-Bold-64" transform="translate(741.748047 0)"/>
    <use xlink:href="#DejaVuSans-Bold-65" transform="translate(813.330078 0)"/>
    <use xlink:href="#DejaVuSans-Bold-20" transform="translate(881.152344 0)"/>
    <use xlink:href="#DejaVuSans-Bold-c1" transform="translate(915.966797 0)"/>
    <use xlink:href="#DejaVuSans-Bold-6e" transform="translate(993.359375 0)"/>
    <use xlink:href="#DejaVuSans-Bold-67" transform="translate(1064.550781 0)"/>
    <use xlink:href="#DejaVuSans-Bold-75" transform="translate(1136.132812 0)"/>
    <use xlink:href="#DejaVuSans-Bold-6c" transform="translate(1207.324219 0)"/>
    <use xlink:href="#DejaVuSans-Bold-6f" transform="translate(1241.601562 0)"/>
    <use xlink:href="#DejaVuSans-Bold-73" transform="translate(1310.302734 0)"/>
    <use xlink:href="#DejaVuSans-Bold-20" transform="translate(1369.824219 0)"/>
    <use xlink:href="#DejaVuSans-Bold-70" transform="translate(1404.638672 0)"/>
    <use xlink:href="#DejaVuSans-Bold-6f" transform="translate(1476.220703 0)"/>
    <use xlink:href="#DejaVuSans-Bold-72" transform="translate(1544.921875 0)"/>
    <use xlink:href="#DejaVuSans-Bold-20" transform="translate(1594.238281 0)"/>
    <use xlink:href="#DejaVuSans-Bold-4d" transform="translate(1629.052734 0)"/>
    <use xlink:href="#DejaVuSans-Bold-65" transform="translate(1728.564453 0)"/>
    <use xlink:href="#DejaVuSans-Bold-64" transform="translate(1796.386719 0)"/>
    <use xlink:href="#DejaVuSans-Bold-69" transform="translate(1867.96875 0)"/>
    <use xlink:href="#DejaVuSans-Bold-64" transform="translate(1902.246094 0)"/>
    <use xlink:href="#DejaVuSans-Bold-61" transform="translate(1973.828125 0)"/>
   </g>
  </g>
 </g>
 <defs>
  <clipPath id="p55de689a07">
   <rect x="7.2" y="54.72" width="212.994783" height="233.28"/>
  </clipPath>
  <clipPath id="pceb63650b8">
   <rect x="235.008" y="54.72" width="212.994783" height="233.28"/>
  </clipPath>
  <clipPath id="pa41d0b898e">
   <rect x="462.816" y="54.72" width="212.994783" height="233.28"/>
  </clipPath>
  <clipPath id="p25b72d66f3">
   <rect x="690.624" y="54.72" width="212.994783" height="233.28"/>
  </clipPath>
  <clipPath id="p4e63e2b4ab">
   <rect x="918.432" y="54.72" width="212.994783" height="233.28"/>
  </clipPath>
 </defs>
</svg>
