<?xml version="1.0" encoding="utf-8" standalone="no"?>
<!DOCTYPE svg PUBLIC "-//W3C//DTD SVG 1.1//EN"
  "http://www.w3.org/Graphics/SVG/1.1/DTD/svg11.dtd">
<svg xmlns:xlink="http://www.w3.org/1999/xlink" width="1160.39952pt" height="341.300551pt" viewBox="0 0 1160.39952 341.300551" xmlns="http://www.w3.org/2000/svg" version="1.1">
 <metadata>
  <rdf:RDF xmlns:dc="http://purl.org/dc/elements/1.1/" xmlns:cc="http://creativecommons.org/ns#" xmlns:rdf="http://www.w3.org/1999/02/22-rdf-syntax-ns#">
   <cc:Work>
    <dc:type rdf:resource="http://purl.org/dc/dcmitype/StillImage"/>
    <dc:date>2026-01-03T21:56:36.416982</dc:date>
    <dc:format>image/svg+xml</dc:format>
    <dc:creator>
     <cc:Agent>
      <dc:title>Repositorio Matemáticas Universitarias</dc:title>
     </cc:Agent>
    </dc:creator>
   </cc:Work>
  </rdf:RDF>
 </metadata>
 <defs>
  <style type="text/css">*{stroke-linejoin: round; stroke-linecap: butt}</style>
 </defs>
 <g id="figure_1">
  <g id="patch_1">
   <path d="M 0 341.300551 
L 1160.39952 341.300551 
L 1160.39952 0 
L 0 0 
z
" style="fill: #ffffff"/>
  </g>
  <g id="axes_1">
   <g id="line2d_1">
    <path d="M 103.371223 216.557945 
L 103.367105 216.044139 
L 103.354752 215.530466 
L 103.334168 215.017056 
L 103.305358 214.504042 
L 103.268329 213.991555 
L 103.223091 213.479728 
L 103.169655 212.968692 
L 103.108035 212.458578 
L 103.038247 211.949517 
L 102.960308 211.44164 
L 102.87424 210.935077 
L 102.780063 210.429959 
L 102.677803 209.926415 
L 102.567485 209.424575 
L 102.449138 208.924568 
L 102.322792 208.426522 
L 102.188479 207.930564 
L 102.046235 207.436823 
L 101.896096 206.945426 
L 101.738099 206.456498 
L 101.572287 205.970165 
L 101.3987 205.486552 
L 101.217385 205.005784 
L 101.028388 204.527983 
L 100.831757 204.053273 
L 100.627542 203.581776 
L 100.415796 203.113612 
L 100.196574 202.648902 
L 99.969932 202.187766 
L 99.735928 201.730321 
L 99.494623 201.276686 
L 99.246077 200.826976 
L 98.990355 200.381308 
L 98.727524 199.939796 
L 98.457649 199.502554 
L 98.180801 199.069693 
L 97.897051 198.641324 
L 97.606471 198.217559 
L 97.309137 197.798506 
L 97.005125 197.384272 
L 96.694512 196.974964 
L 96.377378 196.570686 
L 96.053806 196.171544 
L 95.723878 195.77764 
L 95.387679 195.389073 
L 95.045295 195.005946 
L 94.696815 194.628355 
L 94.342327 194.256398 
L 93.981923 193.890171 
" clip-path="url(#p6dd187d656)" style="fill: none; stroke: #2563eb; stroke-width: 2; stroke-linecap: square"/>
   </g>
   <g id="patch_2">
    <path d="M 73.31315 216.557945 
Q 124.742104 216.557945 173.934989 216.557945 
" style="fill: none; stroke: #2563eb; stroke-width: 2; stroke-linecap: round"/>
    <path d="M 169.134989 214.157945 
L 173.934989 216.557945 
L 169.134989 218.957945 
" style="fill: none; stroke: #2563eb; stroke-width: 2; stroke-linecap: round"/>
   </g>
   <g id="patch_3">
    <path d="M 72.727656 215.144438 
Q 109.093418 178.778676 143.878041 143.994053 
" style="fill: none; stroke: #2563eb; stroke-width: 2; stroke-linecap: round"/>
    <path d="M 138.786872 145.69111 
L 143.878041 143.994053 
L 142.180984 149.085222 
" style="fill: none; stroke: #2563eb; stroke-width: 2; stroke-linecap: round"/>
   </g>
   <g id="text_1">
    <g id="patch_4">
     <path d="M 111.217794 202.950822 
L 130.133419 202.950822 
Q 132.133419 202.950822 132.133419 200.950822 
L 132.133419 191.272697 
Q 132.133419 189.272697 130.133419 189.272697 
L 111.217794 189.272697 
Q 109.217794 189.272697 109.217794 191.272697 
L 109.217794 200.950822 
Q 109.217794 202.950822 111.217794 202.950822 
z
" style="fill: #ffffff; opacity: 0.8"/>
    </g>
    <!-- 45° -->
    <g style="fill: #2563eb" transform="translate(111.217794 198.871135) scale(0.1 -0.1)">
     <defs>
      <path id="DejaVuSans-Bold-34" d="M 2356 3675 
L 1038 1722 
L 2356 1722 
L 2356 3675 
z
M 2156 4666 
L 3494 4666 
L 3494 1722 
L 4159 1722 
L 4159 850 
L 3494 850 
L 3494 0 
L 2356 0 
L 2356 850 
L 288 850 
L 288 1881 
L 2156 4666 
z
" transform="scale(0.015625)"/>
      <path id="DejaVuSans-Bold-35" d="M 678 4666 
L 3669 4666 
L 3669 3781 
L 1638 3781 
L 1638 3059 
Q 1775 3097 1914 3117 
Q 2053 3138 2203 3138 
Q 3056 3138 3531 2711 
Q 4006 2284 4006 1522 
Q 4006 766 3489 337 
Q 2972 -91 2053 -91 
Q 1656 -91 1267 -14 
Q 878 63 494 219 
L 494 1166 
Q 875 947 1217 837 
Q 1559 728 1863 728 
Q 2300 728 2551 942 
Q 2803 1156 2803 1522 
Q 2803 1891 2551 2103 
Q 2300 2316 1863 2316 
Q 1603 2316 1309 2248 
Q 1016 2181 678 2041 
L 678 4666 
z
" transform="scale(0.015625)"/>
      <path id="DejaVuSans-Bold-b0" d="M 1600 4288 
Q 1375 4288 1219 4131 
Q 1063 3975 1063 3750 
Q 1063 3525 1217 3372 
Q 1372 3219 1600 3219 
Q 1825 3219 1981 3373 
Q 2138 3528 2138 3750 
Q 2138 3975 1980 4131 
Q 1822 4288 1600 4288 
z
M 1600 4794 
Q 1806 4794 1997 4714 
Q 2188 4634 2338 4488 
Q 2484 4338 2561 4150 
Q 2638 3963 2638 3750 
Q 2638 3541 2561 3352 
Q 2484 3163 2344 3022 
Q 2194 2872 2000 2792 
Q 1806 2713 1594 2713 
Q 1153 2713 854 3011 
Q 556 3309 556 3750 
Q 556 4191 857 4492 
Q 1159 4794 1600 4794 
z
" transform="scale(0.015625)"/>
     </defs>
     <use xlink:href="#DejaVuSans-Bold-34"/>
     <use xlink:href="#DejaVuSans-Bold-35" transform="translate(69.580078 0)"/>
     <use xlink:href="#DejaVuSans-Bold-b0" transform="translate(139.160156 0)"/>
    </g>
   </g>
   <g id="text_2">
    <!-- Agudo -->
    <g style="fill: #1f2937" transform="translate(104.918543 289.030375) scale(0.11 -0.11)">
     <defs>
      <path id="DejaVuSans-Bold-41" d="M 3419 850 
L 1538 850 
L 1241 0 
L 31 0 
L 1759 4666 
L 3194 4666 
L 4922 0 
L 3713 0 
L 3419 850 
z
M 1838 1716 
L 3116 1716 
L 2478 3572 
L 1838 1716 
z
" transform="scale(0.015625)"/>
      <path id="DejaVuSans-Bold-67" d="M 2919 594 
Q 2688 288 2409 144 
Q 2131 0 1766 0 
Q 1125 0 706 504 
Q 288 1009 288 1791 
Q 288 2575 706 3076 
Q 1125 3578 1766 3578 
Q 2131 3578 2409 3434 
Q 2688 3291 2919 2981 
L 2919 3500 
L 4044 3500 
L 4044 353 
Q 4044 -491 3511 -936 
Q 2978 -1381 1966 -1381 
Q 1638 -1381 1331 -1331 
Q 1025 -1281 716 -1178 
L 716 -306 
Q 1009 -475 1290 -558 
Q 1572 -641 1856 -641 
Q 2406 -641 2662 -400 
Q 2919 -159 2919 353 
L 2919 594 
z
M 2181 2772 
Q 1834 2772 1640 2515 
Q 1447 2259 1447 1791 
Q 1447 1309 1634 1061 
Q 1822 813 2181 813 
Q 2531 813 2725 1069 
Q 2919 1325 2919 1791 
Q 2919 2259 2725 2515 
Q 2531 2772 2181 2772 
z
" transform="scale(0.015625)"/>
      <path id="DejaVuSans-Bold-75" d="M 500 1363 
L 500 3500 
L 1625 3500 
L 1625 3150 
Q 1625 2866 1622 2436 
Q 1619 2006 1619 1863 
Q 1619 1441 1641 1255 
Q 1663 1069 1716 984 
Q 1784 875 1895 815 
Q 2006 756 2150 756 
Q 2500 756 2700 1025 
Q 2900 1294 2900 1772 
L 2900 3500 
L 4019 3500 
L 4019 0 
L 2900 0 
L 2900 506 
Q 2647 200 2364 54 
Q 2081 -91 1741 -91 
Q 1134 -91 817 281 
Q 500 653 500 1363 
z
" transform="scale(0.015625)"/>
      <path id="DejaVuSans-Bold-64" d="M 2919 2988 
L 2919 4863 
L 4044 4863 
L 4044 0 
L 2919 0 
L 2919 506 
Q 2688 197 2409 53 
Q 2131 -91 1766 -91 
Q 1119 -91 703 423 
Q 288 938 288 1747 
Q 288 2556 703 3070 
Q 1119 3584 1766 3584 
Q 2128 3584 2408 3439 
Q 2688 3294 2919 2988 
z
M 2181 722 
Q 2541 722 2730 984 
Q 2919 1247 2919 1747 
Q 2919 2247 2730 2509 
Q 2541 2772 2181 2772 
Q 1825 2772 1636 2509 
Q 1447 2247 1447 1747 
Q 1447 1247 1636 984 
Q 1825 722 2181 722 
z
" transform="scale(0.015625)"/>
      <path id="DejaVuSans-Bold-6f" d="M 2203 2784 
Q 1831 2784 1636 2517 
Q 1441 2250 1441 1747 
Q 1441 1244 1636 976 
Q 1831 709 2203 709 
Q 2569 709 2762 976 
Q 2956 1244 2956 1747 
Q 2956 2250 2762 2517 
Q 2569 2784 2203 2784 
z
M 2203 3584 
Q 3106 3584 3614 3096 
Q 4122 2609 4122 1747 
Q 4122 884 3614 396 
Q 3106 -91 2203 -91 
Q 1297 -91 786 396 
Q 275 884 275 1747 
Q 275 2609 786 3096 
Q 1297 3584 2203 3584 
z
" transform="scale(0.015625)"/>
     </defs>
     <use xlink:href="#DejaVuSans-Bold-41"/>
     <use xlink:href="#DejaVuSans-Bold-67" transform="translate(77.392578 0)"/>
     <use xlink:href="#DejaVuSans-Bold-75" transform="translate(148.974609 0)"/>
     <use xlink:href="#DejaVuSans-Bold-64" transform="translate(220.166016 0)"/>
     <use xlink:href="#DejaVuSans-Bold-6f" transform="translate(291.748047 0)"/>
    </g>
   </g>
   <g id="text_3">
    <!-- 0° &lt; α &lt; 90° -->
    <g style="fill: #6b7280" transform="translate(95.424403 324.910608) scale(0.09 -0.09)">
     <defs>
      <path id="DejaVuSans-Oblique-30" d="M 2444 4750 
Q 3078 4750 3414 4328 
Q 3750 3906 3750 3116 
Q 3750 2516 3592 1923 
Q 3434 1331 3150 863 
Q 2859 394 2467 151 
Q 2075 -91 1600 -91 
Q 988 -91 653 334 
Q 319 759 319 1544 
Q 319 2138 480 2733 
Q 641 3328 928 3794 
Q 1216 4263 1602 4506 
Q 1988 4750 2444 4750 
z
M 2406 4250 
Q 2169 4250 1955 4123 
Q 1741 3997 1569 3750 
Q 1281 3338 1111 2720 
Q 941 2103 941 1453 
Q 941 938 1123 673 
Q 1306 409 1663 409 
Q 1913 409 2125 536 
Q 2338 663 2509 909 
Q 2794 1319 2961 1936 
Q 3128 2553 3128 3206 
Q 3128 3722 2945 3986 
Q 2763 4250 2406 4250 
z
" transform="scale(0.015625)"/>
      <path id="DejaVuSans-Oblique-b0" d="M 1600 4347 
Q 1350 4347 1178 4173 
Q 1006 4000 1006 3750 
Q 1006 3503 1178 3333 
Q 1350 3163 1600 3163 
Q 1850 3163 2022 3333 
Q 2194 3503 2194 3750 
Q 2194 3997 2020 4172 
Q 1847 4347 1600 4347 
z
M 1600 4750 
Q 1800 4750 1984 4673 
Q 2169 4597 2303 4453 
Q 2447 4313 2519 4134 
Q 2591 3956 2591 3750 
Q 2591 3338 2302 3052 
Q 2013 2766 1594 2766 
Q 1172 2766 890 3047 
Q 609 3328 609 3750 
Q 609 4169 896 4459 
Q 1184 4750 1600 4750 
z
" transform="scale(0.015625)"/>
      <path id="DejaVuSans-Oblique-20" transform="scale(0.015625)"/>
      <path id="DejaVuSans-Oblique-3c" d="M 4684 3150 
L 1459 2003 
L 4684 863 
L 4684 294 
L 678 1747 
L 678 2266 
L 4684 3719 
L 4684 3150 
z
" transform="scale(0.015625)"/>
      <path id="DejaVuSans-Oblique-3b1" d="M 2619 1628 
L 2622 2350 
Q 2625 3088 2069 3091 
Q 1653 3094 1394 2747 
Q 1069 2319 959 1747 
Q 825 1059 994 731 
Q 1169 397 1547 397 
Q 1966 397 2319 1063 
L 2619 1628 
z
M 2166 3578 
Q 3141 3594 3128 2584 
Q 3128 2584 3616 3500 
L 4128 3500 
L 3119 1603 
L 3109 919 
Q 3109 766 3194 638 
Q 3291 488 3391 488 
L 3669 488 
L 3575 0 
L 3228 0 
Q 2934 0 2722 263 
Q 2622 394 2619 669 
Q 2416 334 2066 50 
Q 1900 -81 1453 -78 
Q 722 -72 456 397 
Q 184 884 353 1747 
Q 534 2675 1009 3097 
Q 1544 3569 2166 3578 
z
" transform="scale(0.015625)"/>
      <path id="DejaVuSans-Oblique-39" d="M 281 103 
L 397 678 
Q 578 559 809 496 
Q 1041 434 1306 434 
Q 1953 434 2348 843 
Q 2744 1253 2938 2119 
Q 2706 1853 2401 1714 
Q 2097 1575 1747 1575 
Q 1178 1575 842 1904 
Q 506 2234 506 2791 
Q 506 3247 672 3639 
Q 838 4031 1159 4325 
Q 1378 4531 1665 4640 
Q 1953 4750 2278 4750 
Q 2925 4750 3300 4339 
Q 3675 3928 3675 3219 
Q 3675 2559 3501 1943 
Q 3328 1328 3022 878 
Q 2697 403 2240 156 
Q 1784 -91 1228 -91 
Q 988 -91 748 -42 
Q 509 6 281 103 
z
M 1131 2938 
Q 1131 2541 1337 2308 
Q 1544 2075 1894 2075 
Q 2378 2075 2706 2447 
Q 3034 2819 3034 3372 
Q 3034 3784 2831 4017 
Q 2628 4250 2272 4250 
Q 1788 4250 1459 3870 
Q 1131 3491 1131 2938 
z
" transform="scale(0.015625)"/>
     </defs>
     <use xlink:href="#DejaVuSans-Oblique-30"/>
     <use xlink:href="#DejaVuSans-Oblique-b0" transform="translate(63.623047 0)"/>
     <use xlink:href="#DejaVuSans-Oblique-20" transform="translate(113.623047 0)"/>
     <use xlink:href="#DejaVuSans-Oblique-3c" transform="translate(145.410156 0)"/>
     <use xlink:href="#DejaVuSans-Oblique-20" transform="translate(229.199219 0)"/>
     <use xlink:href="#DejaVuSans-Oblique-3b1" transform="translate(260.986328 0)"/>
     <use xlink:href="#DejaVuSans-Oblique-20" transform="translate(326.904297 0)"/>
     <use xlink:href="#DejaVuSans-Oblique-3c" transform="translate(358.691406 0)"/>
     <use xlink:href="#DejaVuSans-Oblique-20" transform="translate(442.480469 0)"/>
     <use xlink:href="#DejaVuSans-Oblique-39" transform="translate(474.267578 0)"/>
     <use xlink:href="#DejaVuSans-Oblique-30" transform="translate(537.890625 0)"/>
     <use xlink:href="#DejaVuSans-Oblique-b0" transform="translate(601.513672 0)"/>
    </g>
   </g>
  </g>
  <g id="axes_2">
   <g id="line2d_2">
    <path d="M 333.771223 216.557945 
L 333.754752 215.530466 
L 333.705358 214.504042 
L 333.623091 213.479728 
L 333.508035 212.458578 
L 333.360308 211.44164 
L 333.180063 210.429959 
L 332.967485 209.424575 
L 332.722792 208.426522 
L 332.446235 207.436823 
L 332.138099 206.456498 
L 331.7987 205.486552 
L 331.428388 204.527983 
L 331.027542 203.581776 
L 330.596574 202.648902 
L 330.135928 201.730321 
L 329.646077 200.826976 
L 329.127524 199.939796 
L 328.580801 199.069693 
L 328.006471 198.217559 
L 327.405125 197.384272 
L 326.777378 196.570686 
L 326.123878 195.77764 
L 325.445295 195.005946 
L 324.742327 194.256398 
L 324.015696 193.529767 
L 323.266148 192.826799 
L 322.494454 192.148216 
L 321.701407 191.494715 
L 320.887822 190.866969 
L 320.054535 190.265622 
L 319.202401 189.691293 
L 318.332298 189.14457 
L 317.445118 188.626017 
L 316.541773 188.136166 
L 315.623192 187.675519 
L 314.690318 187.244552 
L 313.744111 186.843706 
L 312.785542 186.473393 
L 311.815596 186.133995 
L 310.835271 185.825859 
L 309.845572 185.549302 
L 308.847519 185.304609 
L 307.842135 185.092031 
L 306.830454 184.911786 
L 305.813516 184.764059 
L 304.792366 184.649003 
L 303.768052 184.566736 
L 302.741628 184.517341 
L 301.714149 184.500871 
" clip-path="url(#p047456870b)" style="fill: none; stroke: #dc2626; stroke-width: 2; stroke-linecap: square"/>
   </g>
   <g id="patch_5">
    <path d="M 303.71315 216.557945 
Q 355.142104 216.557945 404.334989 216.557945 
" style="fill: none; stroke: #dc2626; stroke-width: 2; stroke-linecap: round"/>
    <path d="M 399.534989 214.157945 
L 404.334989 216.557945 
L 399.534989 218.957945 
" style="fill: none; stroke: #dc2626; stroke-width: 2; stroke-linecap: round"/>
   </g>
   <g id="patch_6">
    <path d="M 301.714149 214.558944 
Q 301.714149 163.12999 301.714149 113.937105 
" style="fill: none; stroke: #dc2626; stroke-width: 2; stroke-linecap: round"/>
    <path d="M 299.314149 118.737105 
L 301.714149 113.937105 
L 304.114149 118.737105 
" style="fill: none; stroke: #dc2626; stroke-width: 2; stroke-linecap: round"/>
   </g>
   <g id="text_4">
    <g id="patch_7">
     <path d="M 330.03596 185.617384 
L 348.951585 185.617384 
Q 350.951585 185.617384 350.951585 183.617384 
L 350.951585 173.939259 
Q 350.951585 171.939259 348.951585 171.939259 
L 330.03596 171.939259 
Q 328.03596 171.939259 328.03596 173.939259 
L 328.03596 183.617384 
Q 328.03596 185.617384 330.03596 185.617384 
z
" style="fill: #ffffff; opacity: 0.8"/>
    </g>
    <!-- 90° -->
    <g style="fill: #dc2626" transform="translate(330.03596 181.537696) scale(0.1 -0.1)">
     <defs>
      <path id="DejaVuSans-Bold-39" d="M 641 103 
L 641 966 
Q 928 831 1190 764 
Q 1453 697 1709 697 
Q 2247 697 2547 995 
Q 2847 1294 2900 1881 
Q 2688 1725 2447 1647 
Q 2206 1569 1925 1569 
Q 1209 1569 770 1986 
Q 331 2403 331 3084 
Q 331 3838 820 4291 
Q 1309 4744 2131 4744 
Q 3044 4744 3544 4128 
Q 4044 3513 4044 2388 
Q 4044 1231 3459 570 
Q 2875 -91 1856 -91 
Q 1528 -91 1228 -42 
Q 928 6 641 103 
z
M 2125 2350 
Q 2441 2350 2600 2554 
Q 2759 2759 2759 3169 
Q 2759 3575 2600 3781 
Q 2441 3988 2125 3988 
Q 1809 3988 1650 3781 
Q 1491 3575 1491 3169 
Q 1491 2759 1650 2554 
Q 1809 2350 2125 2350 
z
" transform="scale(0.015625)"/>
      <path id="DejaVuSans-Bold-30" d="M 2944 2338 
Q 2944 3213 2780 3570 
Q 2616 3928 2228 3928 
Q 1841 3928 1675 3570 
Q 1509 3213 1509 2338 
Q 1509 1453 1675 1090 
Q 1841 728 2228 728 
Q 2613 728 2778 1090 
Q 2944 1453 2944 2338 
z
M 4147 2328 
Q 4147 1169 3647 539 
Q 3147 -91 2228 -91 
Q 1306 -91 806 539 
Q 306 1169 306 2328 
Q 306 3491 806 4120 
Q 1306 4750 2228 4750 
Q 3147 4750 3647 4120 
Q 4147 3491 4147 2328 
z
" transform="scale(0.015625)"/>
     </defs>
     <use xlink:href="#DejaVuSans-Bold-39"/>
     <use xlink:href="#DejaVuSans-Bold-30" transform="translate(69.580078 0)"/>
     <use xlink:href="#DejaVuSans-Bold-b0" transform="translate(139.160156 0)"/>
    </g>
   </g>
   <g id="text_5">
    <!-- Recto -->
    <g style="fill: #1f2937" transform="translate(337.50909 289.030375) scale(0.11 -0.11)">
     <defs>
      <path id="DejaVuSans-Bold-52" d="M 2297 2597 
Q 2675 2597 2839 2737 
Q 3003 2878 3003 3200 
Q 3003 3519 2839 3656 
Q 2675 3794 2297 3794 
L 1791 3794 
L 1791 2597 
L 2297 2597 
z
M 1791 1766 
L 1791 0 
L 588 0 
L 588 4666 
L 2425 4666 
Q 3347 4666 3776 4356 
Q 4206 4047 4206 3378 
Q 4206 2916 3982 2619 
Q 3759 2322 3309 2181 
Q 3556 2125 3751 1926 
Q 3947 1728 4147 1325 
L 4800 0 
L 3519 0 
L 2950 1159 
Q 2778 1509 2601 1637 
Q 2425 1766 2131 1766 
L 1791 1766 
z
" transform="scale(0.015625)"/>
      <path id="DejaVuSans-Bold-65" d="M 4031 1759 
L 4031 1441 
L 1416 1441 
Q 1456 1047 1700 850 
Q 1944 653 2381 653 
Q 2734 653 3104 758 
Q 3475 863 3866 1075 
L 3866 213 
Q 3469 63 3072 -14 
Q 2675 -91 2278 -91 
Q 1328 -91 801 392 
Q 275 875 275 1747 
Q 275 2603 792 3093 
Q 1309 3584 2216 3584 
Q 3041 3584 3536 3087 
Q 4031 2591 4031 1759 
z
M 2881 2131 
Q 2881 2450 2695 2645 
Q 2509 2841 2209 2841 
Q 1884 2841 1681 2658 
Q 1478 2475 1428 2131 
L 2881 2131 
z
" transform="scale(0.015625)"/>
      <path id="DejaVuSans-Bold-63" d="M 3366 3391 
L 3366 2478 
Q 3138 2634 2908 2709 
Q 2678 2784 2431 2784 
Q 1963 2784 1702 2511 
Q 1441 2238 1441 1747 
Q 1441 1256 1702 982 
Q 1963 709 2431 709 
Q 2694 709 2930 787 
Q 3166 866 3366 1019 
L 3366 103 
Q 3103 6 2833 -42 
Q 2563 -91 2291 -91 
Q 1344 -91 809 395 
Q 275 881 275 1747 
Q 275 2613 809 3098 
Q 1344 3584 2291 3584 
Q 2566 3584 2833 3536 
Q 3100 3488 3366 3391 
z
" transform="scale(0.015625)"/>
      <path id="DejaVuSans-Bold-74" d="M 1759 4494 
L 1759 3500 
L 2913 3500 
L 2913 2700 
L 1759 2700 
L 1759 1216 
Q 1759 972 1856 886 
Q 1953 800 2241 800 
L 2816 800 
L 2816 0 
L 1856 0 
Q 1194 0 917 276 
Q 641 553 641 1216 
L 641 2700 
L 84 2700 
L 84 3500 
L 641 3500 
L 641 4494 
L 1759 4494 
z
" transform="scale(0.015625)"/>
     </defs>
     <use xlink:href="#DejaVuSans-Bold-52"/>
     <use xlink:href="#DejaVuSans-Bold-65" transform="translate(77.001953 0)"/>
     <use xlink:href="#DejaVuSans-Bold-63" transform="translate(144.824219 0)"/>
     <use xlink:href="#DejaVuSans-Bold-74" transform="translate(204.101562 0)"/>
     <use xlink:href="#DejaVuSans-Bold-6f" transform="translate(251.904297 0)"/>
    </g>
   </g>
   <g id="text_6">
    <!-- α = 90° -->
    <g style="fill: #6b7280" transform="translate(337.568699 324.910608) scale(0.09 -0.09)">
     <defs>
      <path id="DejaVuSans-Oblique-3d" d="M 678 2906 
L 4684 2906 
L 4684 2381 
L 678 2381 
L 678 2906 
z
M 678 1631 
L 4684 1631 
L 4684 1100 
L 678 1100 
L 678 1631 
z
" transform="scale(0.015625)"/>
     </defs>
     <use xlink:href="#DejaVuSans-Oblique-3b1"/>
     <use xlink:href="#DejaVuSans-Oblique-20" transform="translate(65.917969 0)"/>
     <use xlink:href="#DejaVuSans-Oblique-3d" transform="translate(97.705078 0)"/>
     <use xlink:href="#DejaVuSans-Oblique-20" transform="translate(181.494141 0)"/>
     <use xlink:href="#DejaVuSans-Oblique-39" transform="translate(213.28125 0)"/>
     <use xlink:href="#DejaVuSans-Oblique-30" transform="translate(276.904297 0)"/>
     <use xlink:href="#DejaVuSans-Oblique-b0" transform="translate(340.527344 0)"/>
    </g>
   </g>
  </g>
  <g id="axes_3">
   <g id="line2d_3">
    <path d="M 564.171223 216.557945 
L 564.141944 215.188155 
L 564.054161 213.820866 
L 563.908035 212.458578 
L 563.703831 211.103777 
L 563.441924 209.75894 
L 563.122792 208.426522 
L 562.747017 207.108957 
L 562.315286 205.808652 
L 561.828388 204.527983 
L 561.287212 203.269289 
L 560.692746 202.034868 
L 560.046077 200.826976 
L 559.348386 199.64782 
L 558.600946 198.499552 
L 557.805125 197.384272 
L 556.962374 196.304015 
L 556.074234 195.260755 
L 555.142327 194.256398 
L 554.168355 193.292779 
L 553.154098 192.371657 
L 552.101407 191.494715 
L 551.012207 190.663556 
L 549.888486 189.879697 
L 548.732298 189.14457 
L 547.545753 188.459519 
L 546.33102 187.825793 
L 545.090318 187.244552 
L 543.825913 186.716856 
L 542.540114 186.243671 
L 541.235271 185.825859 
L 539.913766 185.464184 
L 538.578014 185.159307 
L 537.230454 184.911786 
L 535.873549 184.722071 
L 534.509777 184.590509 
L 533.141628 184.517341 
L 531.771603 184.502701 
L 530.402204 184.546615 
L 529.035931 184.649003 
L 527.675282 184.809678 
L 526.322741 185.028346 
L 524.980778 185.304609 
L 523.651847 185.637961 
L 522.338372 186.027793 
L 521.042755 186.473393 
L 519.767362 186.973948 
L 518.514522 187.528543 
L 517.286524 188.136166 
L 516.085611 188.795705 
" clip-path="url(#p09a8e00f41)" style="fill: none; stroke: #059669; stroke-width: 2; stroke-linecap: square"/>
   </g>
   <g id="patch_8">
    <path d="M 534.11315 216.557945 
Q 585.542104 216.557945 634.734989 216.557945 
" style="fill: none; stroke: #059669; stroke-width: 2; stroke-linecap: round"/>
    <path d="M 629.934989 214.157945 
L 634.734989 216.557945 
L 629.934989 218.957945 
" style="fill: none; stroke: #059669; stroke-width: 2; stroke-linecap: round"/>
   </g>
   <g id="patch_9">
    <path d="M 531.114648 214.826759 
Q 505.400171 170.287979 480.803728 127.685691 
" style="fill: none; stroke: #059669; stroke-width: 2; stroke-linecap: round"/>
    <path d="M 481.125267 133.042613 
L 480.803728 127.685691 
L 485.282189 130.642613 
" style="fill: none; stroke: #059669; stroke-width: 2; stroke-linecap: round"/>
   </g>
   <g id="text_7">
    <g id="patch_10">
     <path d="M 545.891658 177.126607 
L 571.765096 177.126607 
Q 573.765096 177.126607 573.765096 175.126607 
L 573.765096 165.448482 
Q 573.765096 163.448482 571.765096 163.448482 
L 545.891658 163.448482 
Q 543.891658 163.448482 543.891658 165.448482 
L 543.891658 175.126607 
Q 543.891658 177.126607 545.891658 177.126607 
z
" style="fill: #ffffff; opacity: 0.8"/>
    </g>
    <!-- 120° -->
    <g style="fill: #059669" transform="translate(545.891658 173.046919) scale(0.1 -0.1)">
     <defs>
      <path id="DejaVuSans-Bold-31" d="M 750 831 
L 1813 831 
L 1813 3847 
L 722 3622 
L 722 4441 
L 1806 4666 
L 2950 4666 
L 2950 831 
L 4013 831 
L 4013 0 
L 750 0 
L 750 831 
z
" transform="scale(0.015625)"/>
      <path id="DejaVuSans-Bold-32" d="M 1844 884 
L 3897 884 
L 3897 0 
L 506 0 
L 506 884 
L 2209 2388 
Q 2438 2594 2547 2791 
Q 2656 2988 2656 3200 
Q 2656 3528 2436 3728 
Q 2216 3928 1850 3928 
Q 1569 3928 1234 3808 
Q 900 3688 519 3450 
L 519 4475 
Q 925 4609 1322 4679 
Q 1719 4750 2100 4750 
Q 2938 4750 3402 4381 
Q 3866 4013 3866 3353 
Q 3866 2972 3669 2642 
Q 3472 2313 2841 1759 
L 1844 884 
z
" transform="scale(0.015625)"/>
     </defs>
     <use xlink:href="#DejaVuSans-Bold-31"/>
     <use xlink:href="#DejaVuSans-Bold-32" transform="translate(69.580078 0)"/>
     <use xlink:href="#DejaVuSans-Bold-30" transform="translate(139.160156 0)"/>
     <use xlink:href="#DejaVuSans-Bold-b0" transform="translate(208.740234 0)"/>
    </g>
   </g>
   <g id="text_8">
    <!-- Obtuso -->
    <g style="fill: #1f2937" transform="translate(563.333778 289.030375) scale(0.11 -0.11)">
     <defs>
      <path id="DejaVuSans-Bold-4f" d="M 2719 3878 
Q 2169 3878 1866 3472 
Q 1563 3066 1563 2328 
Q 1563 1594 1866 1187 
Q 2169 781 2719 781 
Q 3272 781 3575 1187 
Q 3878 1594 3878 2328 
Q 3878 3066 3575 3472 
Q 3272 3878 2719 3878 
z
M 2719 4750 
Q 3844 4750 4481 4106 
Q 5119 3463 5119 2328 
Q 5119 1197 4481 553 
Q 3844 -91 2719 -91 
Q 1597 -91 958 553 
Q 319 1197 319 2328 
Q 319 3463 958 4106 
Q 1597 4750 2719 4750 
z
" transform="scale(0.015625)"/>
      <path id="DejaVuSans-Bold-62" d="M 2400 722 
Q 2759 722 2948 984 
Q 3138 1247 3138 1747 
Q 3138 2247 2948 2509 
Q 2759 2772 2400 2772 
Q 2041 2772 1848 2508 
Q 1656 2244 1656 1747 
Q 1656 1250 1848 986 
Q 2041 722 2400 722 
z
M 1656 2988 
Q 1888 3294 2169 3439 
Q 2450 3584 2816 3584 
Q 3463 3584 3878 3070 
Q 4294 2556 4294 1747 
Q 4294 938 3878 423 
Q 3463 -91 2816 -91 
Q 2450 -91 2169 54 
Q 1888 200 1656 506 
L 1656 0 
L 538 0 
L 538 4863 
L 1656 4863 
L 1656 2988 
z
" transform="scale(0.015625)"/>
      <path id="DejaVuSans-Bold-73" d="M 3272 3391 
L 3272 2541 
Q 2913 2691 2578 2766 
Q 2244 2841 1947 2841 
Q 1628 2841 1473 2761 
Q 1319 2681 1319 2516 
Q 1319 2381 1436 2309 
Q 1553 2238 1856 2203 
L 2053 2175 
Q 2913 2066 3209 1816 
Q 3506 1566 3506 1031 
Q 3506 472 3093 190 
Q 2681 -91 1863 -91 
Q 1516 -91 1145 -36 
Q 775 19 384 128 
L 384 978 
Q 719 816 1070 734 
Q 1422 653 1784 653 
Q 2113 653 2278 743 
Q 2444 834 2444 1013 
Q 2444 1163 2330 1236 
Q 2216 1309 1875 1350 
L 1678 1375 
Q 931 1469 631 1722 
Q 331 1975 331 2491 
Q 331 3047 712 3315 
Q 1094 3584 1881 3584 
Q 2191 3584 2531 3537 
Q 2872 3491 3272 3391 
z
" transform="scale(0.015625)"/>
     </defs>
     <use xlink:href="#DejaVuSans-Bold-4f"/>
     <use xlink:href="#DejaVuSans-Bold-62" transform="translate(85.009766 0)"/>
     <use xlink:href="#DejaVuSans-Bold-74" transform="translate(156.591797 0)"/>
     <use xlink:href="#DejaVuSans-Bold-75" transform="translate(204.394531 0)"/>
     <use xlink:href="#DejaVuSans-Bold-73" transform="translate(275.585938 0)"/>
     <use xlink:href="#DejaVuSans-Bold-6f" transform="translate(335.107422 0)"/>
    </g>
   </g>
   <g id="text_9">
    <!-- 90° &lt; α &lt; 180° -->
    <g style="fill: #6b7280" transform="translate(550.498153 324.910608) scale(0.09 -0.09)">
     <defs>
      <path id="DejaVuSans-Oblique-31" d="M 416 531 
L 1447 531 
L 2144 4122 
L 978 3897 
L 1088 4441 
L 2247 4666 
L 2881 4666 
L 2075 531 
L 3103 531 
L 3003 0 
L 313 0 
L 416 531 
z
" transform="scale(0.015625)"/>
      <path id="DejaVuSans-Oblique-38" d="M 2847 1416 
Q 2847 1769 2600 1992 
Q 2353 2216 1953 2216 
Q 1466 2216 1148 1923 
Q 831 1631 831 1184 
Q 831 828 1073 618 
Q 1316 409 1728 409 
Q 2219 409 2533 693 
Q 2847 978 2847 1416 
z
M 3169 3591 
Q 3169 3888 2950 4069 
Q 2731 4250 2369 4250 
Q 1941 4250 1664 4009 
Q 1388 3769 1388 3406 
Q 1388 3094 1605 2903 
Q 1822 2713 2181 2713 
Q 2613 2713 2891 2961 
Q 3169 3209 3169 3591 
z
M 2741 2456 
Q 3094 2322 3281 2050 
Q 3469 1778 3469 1394 
Q 3469 747 2969 328 
Q 2469 -91 1678 -91 
Q 1006 -91 609 239 
Q 213 569 213 1119 
Q 213 1619 553 2008 
Q 894 2397 1441 2503 
Q 1113 2616 941 2852 
Q 769 3088 769 3425 
Q 769 3991 1239 4370 
Q 1709 4750 2431 4750 
Q 3034 4750 3414 4442 
Q 3794 4134 3794 3659 
Q 3794 3247 3511 2923 
Q 3228 2600 2741 2456 
z
" transform="scale(0.015625)"/>
     </defs>
     <use xlink:href="#DejaVuSans-Oblique-39"/>
     <use xlink:href="#DejaVuSans-Oblique-30" transform="translate(63.623047 0)"/>
     <use xlink:href="#DejaVuSans-Oblique-b0" transform="translate(127.246094 0)"/>
     <use xlink:href="#DejaVuSans-Oblique-20" transform="translate(177.246094 0)"/>
     <use xlink:href="#DejaVuSans-Oblique-3c" transform="translate(209.033203 0)"/>
     <use xlink:href="#DejaVuSans-Oblique-20" transform="translate(292.822266 0)"/>
     <use xlink:href="#DejaVuSans-Oblique-3b1" transform="translate(324.609375 0)"/>
     <use xlink:href="#DejaVuSans-Oblique-20" transform="translate(390.527344 0)"/>
     <use xlink:href="#DejaVuSans-Oblique-3c" transform="translate(422.314453 0)"/>
     <use xlink:href="#DejaVuSans-Oblique-20" transform="translate(506.103516 0)"/>
     <use xlink:href="#DejaVuSans-Oblique-31" transform="translate(537.890625 0)"/>
     <use xlink:href="#DejaVuSans-Oblique-38" transform="translate(601.513672 0)"/>
     <use xlink:href="#DejaVuSans-Oblique-30" transform="translate(665.136719 0)"/>
     <use xlink:href="#DejaVuSans-Oblique-b0" transform="translate(728.759766 0)"/>
    </g>
   </g>
  </g>
  <g id="axes_4">
   <g id="line2d_4">
    <path d="M 794.571223 216.557945 
L 794.505358 214.504042 
L 794.308035 212.458578 
L 793.980063 210.429959 
L 793.522792 208.426522 
L 792.938099 206.456498 
L 792.228388 204.527983 
L 791.396574 202.648902 
L 790.446077 200.826976 
L 789.380801 199.069693 
L 788.205125 197.384272 
L 786.923878 195.77764 
L 785.542327 194.256398 
L 784.066148 192.826799 
L 782.501407 191.494715 
L 780.854535 190.265622 
L 779.132298 189.14457 
L 777.341773 188.136166 
L 775.490318 187.244552 
L 773.585542 186.473393 
L 771.635271 185.825859 
L 769.647519 185.304609 
L 767.630454 184.911786 
L 765.592366 184.649003 
L 763.541628 184.517341 
L 761.486669 184.517341 
L 759.435931 184.649003 
L 757.397843 184.911786 
L 755.380778 185.304609 
L 753.393027 185.825859 
L 751.442755 186.473393 
L 749.537979 187.244552 
L 747.686524 188.136166 
L 745.895999 189.14457 
L 744.173762 190.265622 
L 742.52689 191.494715 
L 740.962149 192.826799 
L 739.48597 194.256398 
L 738.104419 195.77764 
L 736.823173 197.384272 
L 735.647496 199.069693 
L 734.58222 200.826976 
L 733.631723 202.648902 
L 732.799909 204.527983 
L 732.090198 206.456498 
L 731.505505 208.426522 
L 731.048234 210.429959 
L 730.720262 212.458578 
L 730.522939 214.504042 
L 730.457074 216.557945 
" clip-path="url(#p3fd77280be)" style="fill: none; stroke: #7c3aed; stroke-width: 2; stroke-linecap: square"/>
   </g>
   <g id="patch_11">
    <path d="M 764.51315 216.557945 
Q 815.942104 216.557945 865.134989 216.557945 
" style="fill: none; stroke: #7c3aed; stroke-width: 2; stroke-linecap: round"/>
    <path d="M 860.334989 214.157945 
L 865.134989 216.557945 
L 860.334989 218.957945 
" style="fill: none; stroke: #7c3aed; stroke-width: 2; stroke-linecap: round"/>
   </g>
   <g id="text_10">
    <g id="patch_12">
     <path d="M 749.57743 169.968551 
L 775.450867 169.968551 
Q 777.450867 169.968551 777.450867 167.968551 
L 777.450867 158.290426 
Q 777.450867 156.290426 775.450867 156.290426 
L 749.57743 156.290426 
Q 747.57743 156.290426 747.57743 158.290426 
L 747.57743 167.968551 
Q 747.57743 169.968551 749.57743 169.968551 
z
" style="fill: #ffffff; opacity: 0.8"/>
    </g>
    <!-- 180° -->
    <g style="fill: #7c3aed" transform="translate(749.57743 165.888863) scale(0.1 -0.1)">
     <defs>
      <path id="DejaVuSans-Bold-38" d="M 2228 2088 
Q 1891 2088 1709 1903 
Q 1528 1719 1528 1375 
Q 1528 1031 1709 848 
Q 1891 666 2228 666 
Q 2563 666 2741 848 
Q 2919 1031 2919 1375 
Q 2919 1722 2741 1905 
Q 2563 2088 2228 2088 
z
M 1350 2484 
Q 925 2613 709 2878 
Q 494 3144 494 3541 
Q 494 4131 934 4440 
Q 1375 4750 2228 4750 
Q 3075 4750 3515 4442 
Q 3956 4134 3956 3541 
Q 3956 3144 3739 2878 
Q 3522 2613 3097 2484 
Q 3572 2353 3814 2058 
Q 4056 1763 4056 1313 
Q 4056 619 3595 264 
Q 3134 -91 2228 -91 
Q 1319 -91 855 264 
Q 391 619 391 1313 
Q 391 1763 633 2058 
Q 875 2353 1350 2484 
z
M 1631 3419 
Q 1631 3141 1786 2991 
Q 1941 2841 2228 2841 
Q 2509 2841 2662 2991 
Q 2816 3141 2816 3419 
Q 2816 3697 2662 3845 
Q 2509 3994 2228 3994 
Q 1941 3994 1786 3844 
Q 1631 3694 1631 3419 
z
" transform="scale(0.015625)"/>
     </defs>
     <use xlink:href="#DejaVuSans-Bold-31"/>
     <use xlink:href="#DejaVuSans-Bold-38" transform="translate(69.580078 0)"/>
     <use xlink:href="#DejaVuSans-Bold-30" transform="translate(139.160156 0)"/>
     <use xlink:href="#DejaVuSans-Bold-b0" transform="translate(208.740234 0)"/>
    </g>
   </g>
   <g id="text_11">
    <!-- Llano -->
    <g style="fill: #1f2937" transform="translate(799.146981 289.030375) scale(0.11 -0.11)">
     <defs>
      <path id="DejaVuSans-Bold-4c" d="M 588 4666 
L 1791 4666 
L 1791 909 
L 3903 909 
L 3903 0 
L 588 0 
L 588 4666 
z
" transform="scale(0.015625)"/>
      <path id="DejaVuSans-Bold-6c" d="M 538 4863 
L 1656 4863 
L 1656 0 
L 538 0 
L 538 4863 
z
" transform="scale(0.015625)"/>
      <path id="DejaVuSans-Bold-61" d="M 2106 1575 
Q 1756 1575 1579 1456 
Q 1403 1338 1403 1106 
Q 1403 894 1545 773 
Q 1688 653 1941 653 
Q 2256 653 2472 879 
Q 2688 1106 2688 1447 
L 2688 1575 
L 2106 1575 
z
M 3816 1997 
L 3816 0 
L 2688 0 
L 2688 519 
Q 2463 200 2181 54 
Q 1900 -91 1497 -91 
Q 953 -91 614 226 
Q 275 544 275 1050 
Q 275 1666 698 1953 
Q 1122 2241 2028 2241 
L 2688 2241 
L 2688 2328 
Q 2688 2594 2478 2717 
Q 2269 2841 1825 2841 
Q 1466 2841 1156 2769 
Q 847 2697 581 2553 
L 581 3406 
Q 941 3494 1303 3539 
Q 1666 3584 2028 3584 
Q 2975 3584 3395 3211 
Q 3816 2838 3816 1997 
z
" transform="scale(0.015625)"/>
      <path id="DejaVuSans-Bold-6e" d="M 4056 2131 
L 4056 0 
L 2931 0 
L 2931 347 
L 2931 1631 
Q 2931 2084 2911 2256 
Q 2891 2428 2841 2509 
Q 2775 2619 2662 2680 
Q 2550 2741 2406 2741 
Q 2056 2741 1856 2470 
Q 1656 2200 1656 1722 
L 1656 0 
L 538 0 
L 538 3500 
L 1656 3500 
L 1656 2988 
Q 1909 3294 2193 3439 
Q 2478 3584 2822 3584 
Q 3428 3584 3742 3212 
Q 4056 2841 4056 2131 
z
" transform="scale(0.015625)"/>
     </defs>
     <use xlink:href="#DejaVuSans-Bold-4c"/>
     <use xlink:href="#DejaVuSans-Bold-6c" transform="translate(63.720703 0)"/>
     <use xlink:href="#DejaVuSans-Bold-61" transform="translate(97.998047 0)"/>
     <use xlink:href="#DejaVuSans-Bold-6e" transform="translate(165.478516 0)"/>
     <use xlink:href="#DejaVuSans-Bold-6f" transform="translate(236.669922 0)"/>
    </g>
   </g>
   <g id="text_12">
    <!-- α = 180° -->
    <g style="fill: #6b7280" transform="translate(795.505574 324.910608) scale(0.09 -0.09)">
     <use xlink:href="#DejaVuSans-Oblique-3b1"/>
     <use xlink:href="#DejaVuSans-Oblique-20" transform="translate(65.917969 0)"/>
     <use xlink:href="#DejaVuSans-Oblique-3d" transform="translate(97.705078 0)"/>
     <use xlink:href="#DejaVuSans-Oblique-20" transform="translate(181.494141 0)"/>
     <use xlink:href="#DejaVuSans-Oblique-31" transform="translate(213.28125 0)"/>
     <use xlink:href="#DejaVuSans-Oblique-38" transform="translate(276.904297 0)"/>
     <use xlink:href="#DejaVuSans-Oblique-30" transform="translate(340.527344 0)"/>
     <use xlink:href="#DejaVuSans-Oblique-b0" transform="translate(404.150391 0)"/>
    </g>
   </g>
  </g>
  <g id="axes_5">
   <g id="line2d_5">
    <path d="M 1024.971223 216.557945 
L 1024.823091 213.479728 
L 1024.380063 210.429959 
L 1023.646235 207.436823 
L 1022.628388 204.527983 
L 1021.335928 201.730321 
L 1019.780801 199.069693 
L 1017.977378 196.570686 
L 1015.942327 194.256398 
L 1013.694454 192.148216 
L 1011.254535 190.265622 
L 1008.645118 188.626017 
L 1005.890318 187.244552 
L 1003.015596 186.133995 
L 1000.047519 185.304609 
L 997.013516 184.764059 
L 993.941628 184.517341 
L 990.860245 184.566736 
L 987.797843 184.911786 
L 984.782725 185.549302 
L 981.842755 186.473393 
L 979.005105 187.675519 
L 976.295999 189.14457 
L 973.740475 190.866969 
L 971.362149 192.826799 
L 969.183002 195.005946 
L 967.223173 197.384272 
L 965.500773 199.939796 
L 964.031723 202.648902 
L 962.829597 205.486552 
L 961.905505 208.426522 
L 961.267989 211.44164 
L 960.922939 214.504042 
L 960.873545 217.585425 
L 961.120262 220.657313 
L 961.660812 223.691315 
L 962.490198 226.659393 
L 963.600755 229.534115 
L 964.98222 232.288914 
L 966.621826 234.898332 
L 968.504419 237.338251 
L 970.612601 239.586124 
L 972.92689 241.621175 
L 975.425896 243.424598 
L 978.086524 244.979725 
L 980.884186 246.272185 
L 983.793027 247.290032 
L 986.786162 248.02386 
L 989.835931 248.466888 
L 992.914149 248.61502 
" clip-path="url(#pb9ca6ce1df)" style="fill: none; stroke: #f59e0b; stroke-width: 2; stroke-linecap: square"/>
   </g>
   <g id="patch_13">
    <path d="M 994.91315 216.557945 
Q 1046.342104 216.557945 1095.534989 216.557945 
" style="fill: none; stroke: #f59e0b; stroke-width: 2; stroke-linecap: round"/>
    <path d="M 1090.734989 214.157945 
L 1095.534989 216.557945 
L 1090.734989 218.957945 
" style="fill: none; stroke: #f59e0b; stroke-width: 2; stroke-linecap: round"/>
   </g>
   <g id="patch_14">
    <path d="M 992.914149 218.556947 
Q 992.914149 269.9859 992.914149 319.178786 
" style="fill: none; stroke: #f59e0b; stroke-width: 2; stroke-linecap: round"/>
    <path d="M 995.314149 314.378786 
L 992.914149 319.178786 
L 990.514149 314.378786 
" style="fill: none; stroke: #f59e0b; stroke-width: 2; stroke-linecap: round"/>
   </g>
   <g id="text_13">
    <g id="patch_15">
     <path d="M 942.197805 185.617384 
L 968.071243 185.617384 
Q 970.071243 185.617384 970.071243 183.617384 
L 970.071243 173.939259 
Q 970.071243 171.939259 968.071243 171.939259 
L 942.197805 171.939259 
Q 940.197805 171.939259 940.197805 173.939259 
L 940.197805 183.617384 
Q 940.197805 185.617384 942.197805 185.617384 
z
" style="fill: #ffffff; opacity: 0.8"/>
    </g>
    <!-- 270° -->
    <g style="fill: #f59e0b" transform="translate(942.197805 181.537696) scale(0.1 -0.1)">
     <defs>
      <path id="DejaVuSans-Bold-37" d="M 428 4666 
L 3944 4666 
L 3944 3988 
L 2125 0 
L 953 0 
L 2675 3781 
L 428 3781 
L 428 4666 
z
" transform="scale(0.015625)"/>
     </defs>
     <use xlink:href="#DejaVuSans-Bold-32"/>
     <use xlink:href="#DejaVuSans-Bold-37" transform="translate(69.580078 0)"/>
     <use xlink:href="#DejaVuSans-Bold-30" transform="translate(139.160156 0)"/>
     <use xlink:href="#DejaVuSans-Bold-b0" transform="translate(208.740234 0)"/>
    </g>
   </g>
   <g id="text_14">
    <!-- Cóncavo -->
    <g style="fill: #1f2937" transform="translate(1020.276043 289.030375) scale(0.11 -0.11)">
     <defs>
      <path id="DejaVuSans-Bold-43" d="M 4288 256 
Q 3956 84 3597 -3 
Q 3238 -91 2847 -91 
Q 1681 -91 1000 561 
Q 319 1213 319 2328 
Q 319 3447 1000 4098 
Q 1681 4750 2847 4750 
Q 3238 4750 3597 4662 
Q 3956 4575 4288 4403 
L 4288 3438 
Q 3953 3666 3628 3772 
Q 3303 3878 2944 3878 
Q 2300 3878 1931 3465 
Q 1563 3053 1563 2328 
Q 1563 1606 1931 1193 
Q 2300 781 2944 781 
Q 3303 781 3628 887 
Q 3953 994 4288 1222 
L 4288 256 
z
" transform="scale(0.015625)"/>
      <path id="DejaVuSans-Bold-f3" d="M 2203 2784 
Q 1831 2784 1636 2517 
Q 1441 2250 1441 1747 
Q 1441 1244 1636 976 
Q 1831 709 2203 709 
Q 2569 709 2762 976 
Q 2956 1244 2956 1747 
Q 2956 2250 2762 2517 
Q 2569 2784 2203 2784 
z
M 2203 3584 
Q 3106 3584 3614 3096 
Q 4122 2609 4122 1747 
Q 4122 884 3614 396 
Q 3106 -91 2203 -91 
Q 1297 -91 786 396 
Q 275 884 275 1747 
Q 275 2609 786 3096 
Q 1297 3584 2203 3584 
z
M 2694 5119 
L 3578 5119 
L 2425 3944 
L 1813 3944 
L 2694 5119 
z
" transform="scale(0.015625)"/>
      <path id="DejaVuSans-Bold-76" d="M 97 3500 
L 1216 3500 
L 2088 1081 
L 2956 3500 
L 4078 3500 
L 2700 0 
L 1472 0 
L 97 3500 
z
" transform="scale(0.015625)"/>
     </defs>
     <use xlink:href="#DejaVuSans-Bold-43"/>
     <use xlink:href="#DejaVuSans-Bold-f3" transform="translate(73.388672 0)"/>
     <use xlink:href="#DejaVuSans-Bold-6e" transform="translate(142.089844 0)"/>
     <use xlink:href="#DejaVuSans-Bold-63" transform="translate(213.28125 0)"/>
     <use xlink:href="#DejaVuSans-Bold-61" transform="translate(272.558594 0)"/>
     <use xlink:href="#DejaVuSans-Bold-76" transform="translate(340.039062 0)"/>
     <use xlink:href="#DejaVuSans-Bold-6f" transform="translate(405.224609 0)"/>
    </g>
   </g>
   <g id="text_15">
    <!-- 180° &lt; α &lt; 360° -->
    <g style="fill: #6b7280" transform="translate(1008.435028 324.910608) scale(0.09 -0.09)">
     <defs>
      <path id="DejaVuSans-Oblique-33" d="M 1013 4550 
Q 1356 4650 1679 4700 
Q 2003 4750 2316 4750 
Q 2934 4750 3296 4475 
Q 3659 4200 3659 3738 
Q 3659 3284 3373 2959 
Q 3088 2634 2584 2516 
Q 2978 2403 3162 2165 
Q 3347 1928 3347 1538 
Q 3347 1163 3167 834 
Q 2988 506 2650 269 
Q 2394 88 2037 -1 
Q 1681 -91 1216 -91 
Q 922 -91 622 -33 
Q 322 25 13 141 
L 128 738 
Q 422 575 720 495 
Q 1019 416 1331 416 
Q 1947 416 2330 733 
Q 2713 1050 2713 1556 
Q 2713 1881 2469 2057 
Q 2225 2234 1772 2234 
L 1228 2234 
L 1325 2747 
L 1900 2747 
Q 2419 2747 2717 2984 
Q 3016 3222 3016 3628 
Q 3016 3922 2797 4083 
Q 2578 4244 2181 4244 
Q 1881 4244 1567 4180 
Q 1253 4116 916 3988 
L 1013 4550 
z
" transform="scale(0.015625)"/>
      <path id="DejaVuSans-Oblique-36" d="M 2938 1728 
Q 2938 2125 2734 2354 
Q 2531 2584 2181 2584 
Q 1697 2584 1367 2211 
Q 1038 1838 1038 1288 
Q 1038 875 1239 642 
Q 1441 409 1797 409 
Q 2284 409 2611 792 
Q 2938 1175 2938 1728 
z
M 3788 4556 
L 3681 3981 
Q 3500 4100 3265 4162 
Q 3031 4225 2766 4225 
Q 2119 4225 1726 3819 
Q 1334 3413 1141 2547 
Q 1369 2813 1670 2948 
Q 1972 3084 2322 3084 
Q 2894 3084 3233 2754 
Q 3572 2425 3572 1869 
Q 3572 1413 3405 1020 
Q 3238 628 2919 331 
Q 2700 128 2409 18 
Q 2119 -91 1791 -91 
Q 1147 -91 775 318 
Q 403 728 403 1441 
Q 403 2103 573 2717 
Q 744 3331 1050 3781 
Q 1372 4256 1830 4503 
Q 2288 4750 2841 4750 
Q 3084 4750 3321 4701 
Q 3559 4653 3788 4556 
z
" transform="scale(0.015625)"/>
     </defs>
     <use xlink:href="#DejaVuSans-Oblique-31"/>
     <use xlink:href="#DejaVuSans-Oblique-38" transform="translate(63.623047 0)"/>
     <use xlink:href="#DejaVuSans-Oblique-30" transform="translate(127.246094 0)"/>
     <use xlink:href="#DejaVuSans-Oblique-b0" transform="translate(190.869141 0)"/>
     <use xlink:href="#DejaVuSans-Oblique-20" transform="translate(240.869141 0)"/>
     <use xlink:href="#DejaVuSans-Oblique-3c" transform="translate(272.65625 0)"/>
     <use xlink:href="#DejaVuSans-Oblique-20" transform="translate(356.445312 0)"/>
     <use xlink:href="#DejaVuSans-Oblique-3b1" transform="translate(388.232422 0)"/>
     <use xlink:href="#DejaVuSans-Oblique-20" transform="translate(454.150391 0)"/>
     <use xlink:href="#DejaVuSans-Oblique-3c" transform="translate(485.9375 0)"/>
     <use xlink:href="#DejaVuSans-Oblique-20" transform="translate(569.726562 0)"/>
     <use xlink:href="#DejaVuSans-Oblique-33" transform="translate(601.513672 0)"/>
     <use xlink:href="#DejaVuSans-Oblique-36" transform="translate(665.136719 0)"/>
     <use xlink:href="#DejaVuSans-Oblique-30" transform="translate(728.759766 0)"/>
     <use xlink:href="#DejaVuSans-Oblique-b0" transform="translate(792.382812 0)"/>
    </g>
   </g>
  </g>
  <g id="text_16">
   <!-- Clasificación de Ángulos por Medida -->
   <g style="fill: #1f2937" transform="translate(437.307885 20.152187) scale(0.14 -0.14)">
    <defs>
     <path id="DejaVuSans-Bold-69" d="M 538 3500 
L 1656 3500 
L 1656 0 
L 538 0 
L 538 3500 
z
M 538 4863 
L 1656 4863 
L 1656 3950 
L 538 3950 
L 538 4863 
z
" transform="scale(0.015625)"/>
     <path id="DejaVuSans-Bold-66" d="M 2841 4863 
L 2841 4128 
L 2222 4128 
Q 1984 4128 1890 4042 
Q 1797 3956 1797 3744 
L 1797 3500 
L 2753 3500 
L 2753 2700 
L 1797 2700 
L 1797 0 
L 678 0 
L 678 2700 
L 122 2700 
L 122 3500 
L 678 3500 
L 678 3744 
Q 678 4316 997 4589 
Q 1316 4863 1984 4863 
L 2841 4863 
z
" transform="scale(0.015625)"/>
     <path id="DejaVuSans-Bold-20" transform="scale(0.015625)"/>
     <path id="DejaVuSans-Bold-c1" d="M 3419 850 
L 1538 850 
L 1241 0 
L 31 0 
L 1759 4666 
L 3194 4666 
L 4922 0 
L 3713 0 
L 3419 850 
z
M 1838 1716 
L 3116 1716 
L 2478 3572 
L 1838 1716 
z
M 2559 5921 
L 3444 5921 
L 2553 5096 
L 1941 5096 
L 2559 5921 
z
" transform="scale(0.015625)"/>
     <path id="DejaVuSans-Bold-70" d="M 1656 506 
L 1656 -1331 
L 538 -1331 
L 538 3500 
L 1656 3500 
L 1656 2988 
Q 1888 3294 2169 3439 
Q 2450 3584 2816 3584 
Q 3463 3584 3878 3070 
Q 4294 2556 4294 1747 
Q 4294 938 3878 423 
Q 3463 -91 2816 -91 
Q 2450 -91 2169 54 
Q 1888 200 1656 506 
z
M 2400 2772 
Q 2041 2772 1848 2508 
Q 1656 2244 1656 1747 
Q 1656 1250 1848 986 
Q 2041 722 2400 722 
Q 2759 722 2948 984 
Q 3138 1247 3138 1747 
Q 3138 2247 2948 2509 
Q 2759 2772 2400 2772 
z
" transform="scale(0.015625)"/>
     <path id="DejaVuSans-Bold-72" d="M 3138 2547 
Q 2991 2616 2845 2648 
Q 2700 2681 2553 2681 
Q 2122 2681 1889 2404 
Q 1656 2128 1656 1613 
L 1656 0 
L 538 0 
L 538 3500 
L 1656 3500 
L 1656 2925 
Q 1872 3269 2151 3426 
Q 2431 3584 2822 3584 
Q 2878 3584 2943 3579 
Q 3009 3575 3134 3559 
L 3138 2547 
z
" transform="scale(0.015625)"/>
     <path id="DejaVuSans-Bold-4d" d="M 588 4666 
L 2119 4666 
L 3181 2169 
L 4250 4666 
L 5778 4666 
L 5778 0 
L 4641 0 
L 4641 3413 
L 3566 897 
L 2803 897 
L 1728 3413 
L 1728 0 
L 588 0 
L 588 4666 
z
" transform="scale(0.015625)"/>
    </defs>
    <use xlink:href="#DejaVuSans-Bold-43"/>
    <use xlink:href="#DejaVuSans-Bold-6c" transform="translate(73.388672 0)"/>
    <use xlink:href="#DejaVuSans-Bold-61" transform="translate(107.666016 0)"/>
    <use xlink:href="#DejaVuSans-Bold-73" transform="translate(175.146484 0)"/>
    <use xlink:href="#DejaVuSans-Bold-69" transform="translate(234.667969 0)"/>
    <use xlink:href="#DejaVuSans-Bold-66" transform="translate(268.945312 0)"/>
    <use xlink:href="#DejaVuSans-Bold-69" transform="translate(312.451172 0)"/>
    <use xlink:href="#DejaVuSans-Bold-63" transform="translate(346.728516 0)"/>
    <use xlink:href="#DejaVuSans-Bold-61" transform="translate(406.005859 0)"/>
    <use xlink:href="#DejaVuSans-Bold-63" transform="translate(473.486328 0)"/>
    <use xlink:href="#DejaVuSans-Bold-69" transform="translate(532.763672 0)"/>
    <use xlink:href="#DejaVuSans-Bold-f3" transform="translate(567.041016 0)"/>
    <use xlink:href="#DejaVuSans-Bold-6e" transform="translate(635.742188 0)"/>
    <use xlink:href="#DejaVuSans-Bold-20" transform="translate(706.933594 0)"/>
    <use xlink:href="#DejaVuSans-Bold-64" transform="translate(741.748047 0)"/>
    <use xlink:href="#DejaVuSans-Bold-65" transform="translate(813.330078 0)"/>
    <use xlink:href="#DejaVuSans-Bold-20" transform="translate(881.152344 0)"/>
    <use xlink:href="#DejaVuSans-Bold-c1" transform="translate(915.966797 0)"/>
    <use xlink:href="#DejaVuSans-Bold-6e" transform="translate(993.359375 0)"/>
    <use xlink:href="#DejaVuSans-Bold-67" transform="translate(1064.550781 0)"/>
    <use xlink:href="#DejaVuSans-Bold-75" transform="translate(1136.132812 0)"/>
    <use xlink:href="#DejaVuSans-Bold-6c" transform="translate(1207.324219 0)"/>
    <use xlink:href="#DejaVuSans-Bold-6f" transform="translate(1241.601562 0)"/>
    <use xlink:href="#DejaVuSans-Bold-73" transform="translate(1310.302734 0)"/>
    <use xlink:href="#DejaVuSans-Bold-20" transform="translate(1369.824219 0)"/>
    <use xlink:href="#DejaVuSans-Bold-70" transform="translate(1404.638672 0)"/>
    <use xlink:href="#DejaVuSans-Bold-6f" transform="translate(1476.220703 0)"/>
    <use xlink:href="#DejaVuSans-Bold-72" transform="translate(1544.921875 0)"/>
    <use xlink:href="#DejaVuSans-Bold-20" transform="translate(1594.238281 0)"/>
    <use xlink:href="#DejaVuSans-Bold-4d" transform="translate(1629.052734 0)"/>
    <use xlink:href="#DejaVuSans-Bold-65" transform="translate(1728.564453 0)"/>
    <use xlink:href="#DejaVuSans-Bold-64" transform="translate(1796.386719 0)"/>
    <use xlink:href="#DejaVuSans-Bold-69" transform="translate(1867.96875 0)"/>
    <use xlink:href="#DejaVuSans-Bold-64" transform="translate(1902.246094 0)"/>
    <use xlink:href="#DejaVuSans-Bold-61" transform="translate(1973.828125 0)"/>
   </g>
  </g>
 </g>
 <defs>
  <clipPath id="p6dd187d656">
   <rect x="7.2" y="56.272574" width="224.39952" height="277.827977"/>
  </clipPath>
  <clipPath id="p047456870b">
   <rect x="237.6" y="56.272574" width="224.39952" height="277.827977"/>
  </clipPath>
  <clipPath id="p09a8e00f41">
   <rect x="468" y="56.272574" width="224.39952" height="277.827977"/>
  </clipPath>
  <clipPath id="p3fd77280be">
   <rect x="698.4" y="56.272574" width="224.39952" height="277.827977"/>
  </clipPath>
  <clipPath id="pb9ca6ce1df">
   <rect x="928.8" y="56.272574" width="224.39952" height="277.827977"/>
  </clipPath>
 </defs>
</svg>
