<?xml version="1.0" encoding="utf-8" standalone="no"?>
<!DOCTYPE svg PUBLIC "-//W3C//DTD SVG 1.1//EN"
  "http://www.w3.org/Graphics/SVG/1.1/DTD/svg11.dtd">
<svg xmlns:xlink="http://www.w3.org/1999/xlink" width="841.08pt" height="348.48pt" viewBox="0 0 841.08 348.48" xmlns="http://www.w3.org/2000/svg" version="1.1">
 <metadata>
  <rdf:RDF xmlns:dc="http://purl.org/dc/elements/1.1/" xmlns:cc="http://creativecommons.org/ns#" xmlns:rdf="http://www.w3.org/1999/02/22-rdf-syntax-ns#">
   <cc:Work>
    <dc:type rdf:resource="http://purl.org/dc/dcmitype/StillImage"/>
    <dc:date>2026-01-03T17:13:32.448067</dc:date>
    <dc:format>image/svg+xml</dc:format>
    <dc:creator>
     <cc:Agent>
      <dc:title>Repositorio Matemáticas Universitarias</dc:title>
     </cc:Agent>
    </dc:creator>
   </cc:Work>
  </rdf:RDF>
 </metadata>
 <defs>
  <style type="text/css">*{stroke-linejoin: round; stroke-linecap: butt}</style>
 </defs>
 <g id="figure_1">
  <g id="patch_1">
   <path d="M 0 348.48 
L 841.08 348.48 
L 841.08 0 
L 0 0 
z
" style="fill: #ffffff"/>
  </g>
  <g id="axes_1">
   <g id="line2d_1">
    <path d="M 118.56 285.6 
L 118.547648 284.427225 
L 118.510596 283.254971 
L 118.448862 282.083758 
L 118.362473 280.914104 
L 118.251466 279.746529 
L 118.115892 278.581552 
L 117.955811 277.419689 
L 117.771292 276.261455 
L 117.562419 275.107364 
L 117.329285 273.957929 
L 117.071991 272.81366 
L 116.790653 271.675063 
L 116.485396 270.542645 
L 116.156354 269.416908 
L 115.803675 268.298351 
L 115.427513 267.187471 
L 115.028037 266.08476 
L 114.605424 264.990708 
L 114.15986 263.905799 
L 113.691544 262.830517 
L 113.200684 261.765337 
L 112.687497 260.710732 
L 112.15221 259.66717 
L 111.595063 258.635114 
L 111.0163 257.615022 
L 110.416181 256.607347 
L 109.79497 255.612536 
L 109.152943 254.63103 
L 108.490386 253.663264 
" clip-path="url(#p938848498d)" style="fill: none; stroke: #2563eb; stroke-width: 2; stroke-linecap: square"/>
   </g>
   <g id="line2d_2">
    <path d="M 99.368309 260.050611 
L 98.502763 258.857025 
L 97.59819 257.692739 
L 96.65558 256.559026 
L 95.675966 255.457131 
L 94.660422 254.38826 
L 93.610059 253.353583 
L 92.52603 252.354235 
L 91.40952 251.391311 
L 90.261755 250.465865 
L 89.08399 249.578911 
L 87.877517 248.731421 
L 86.643657 247.924324 
L 85.383762 247.158504 
L 84.099212 246.434799 
L 82.791415 245.754003 
L 81.461803 245.116861 
L 80.111834 244.524072 
L 78.742985 243.976285 
L 77.356758 243.4741 
L 75.954669 243.018068 
L 74.538257 242.608687 
L 73.109072 242.246407 
L 71.66868 241.931624 
L 70.21866 241.664684 
L 68.760599 241.445878 
L 67.296096 241.275447 
L 65.826755 241.153576 
L 64.354185 241.080401 
L 62.88 241.056 
" clip-path="url(#p938848498d)" style="fill: none; stroke: #dc2626; stroke-width: 2; stroke-linecap: square"/>
   </g>
   <g id="line2d_3">
    <path d="M 79.584 285.6 
L 79.584 268.896 
L 62.88 268.896 
" clip-path="url(#p938848498d)" style="fill: none; stroke: #374151; stroke-width: 1.5; stroke-linecap: square"/>
   </g>
   <g id="patch_2">
    <path d="M 64.88168 285.6 
Q 174.242259 285.6 281.366771 285.6 
" style="fill: none; stroke: #374151; stroke-width: 2; stroke-linecap: round"/>
    <path d="M 276.566771 283.2 
L 281.366771 285.6 
L 276.566771 288 
" style="fill: none; stroke: #374151; stroke-width: 2; stroke-linecap: round"/>
   </g>
   <g id="patch_3">
    <path d="M 64.51968 284.451884 
Q 154.102622 221.725232 241.853885 160.281137 
" style="fill: none; stroke: #2563eb; stroke-width: 2; stroke-linecap: round"/>
    <path d="M 236.545372 161.068339 
L 241.853885 160.281137 
L 239.298539 165.000268 
" style="fill: none; stroke: #2563eb; stroke-width: 2; stroke-linecap: round"/>
   </g>
   <g id="patch_4">
    <path d="M 62.88 283.59832 
Q 62.88 174.237741 62.88 67.113229 
" style="fill: none; stroke: #374151; stroke-width: 2; stroke-linecap: round"/>
    <path d="M 60.48 71.913229 
L 62.88 67.113229 
L 65.28 71.913229 
" style="fill: none; stroke: #374151; stroke-width: 2; stroke-linecap: round"/>
   </g>
   <g id="text_1">
    <!-- α -->
    <g style="fill: #2563eb" transform="translate(140.832 263.328) scale(0.14 -0.14)">
     <defs>
      <path id="DejaVuSans-Bold-3b1" d="M 3006 3163 
L 3119 3500 
L 4088 3500 
L 3484 1697 
L 3569 1219 
Q 3659 703 3872 703 
L 4128 703 
L 4128 0 
L 3809 0 
Q 3313 0 3059 263 
Q 3003 322 2988 353 
Q 2838 163 2689 39 
Q 2541 -84 1763 -78 
Q 988 -72 648 400 
Q 309 872 309 1794 
Q 309 2713 663 3088 
Q 1109 3569 1966 3578 
Q 2688 3588 3006 3163 
z
M 2575 1841 
L 2481 2350 
Q 2394 2825 1981 2828 
Q 1772 2828 1598 2558 
Q 1425 2288 1425 1741 
Q 1425 1191 1581 944 
Q 1738 697 1969 691 
Q 2213 684 2363 1163 
L 2575 1841 
z
" transform="scale(0.015625)"/>
     </defs>
     <use xlink:href="#DejaVuSans-Bold-3b1"/>
    </g>
   </g>
   <g id="text_2">
    <!-- β -->
    <g style="fill: #dc2626" transform="translate(85.152 218.784) scale(0.14 -0.14)">
     <defs>
      <path id="DejaVuSans-Bold-3b2" d="M 2575 3038 
Q 2772 3309 2772 3503 
Q 2772 3769 2648 3948 
Q 2525 4128 2241 4128 
Q 1900 4128 1778 3864 
Q 1656 3600 1656 3103 
L 1656 1747 
Q 1656 1250 1848 986 
Q 2041 722 2400 722 
Q 2800 722 2953 934 
Q 3106 1147 3106 1275 
Q 3106 1722 2738 1988 
Q 2538 2122 1988 2134 
L 1988 2847 
Q 2497 2925 2575 3038 
z
M 538 -1331 
L 538 3044 
Q 538 3922 969 4369 
Q 1325 4741 1672 4845 
Q 2019 4950 2259 4950 
Q 2500 4947 2538 4941 
Q 3178 4841 3538 4438 
Q 3788 4163 3788 3600 
Q 3788 3313 3616 3053 
Q 3406 2734 3094 2709 
Q 3556 2584 3844 2322 
Q 4294 1919 4294 1288 
Q 4294 731 3903 320 
Q 3513 -91 2809 -91 
Q 2106 -91 1656 506 
L 1656 -1331 
L 538 -1331 
z
" transform="scale(0.015625)"/>
     </defs>
     <use xlink:href="#DejaVuSans-Bold-3b2"/>
    </g>
   </g>
   <g id="text_3">
    <!-- α + β = 90° -->
    <g style="fill: #1f2937" transform="translate(136.063125 319.008) scale(0.12 -0.12)">
     <defs>
      <path id="DejaVuSans-Bold-20" transform="scale(0.015625)"/>
      <path id="DejaVuSans-Bold-2b" d="M 3053 4013 
L 3053 2375 
L 4684 2375 
L 4684 1638 
L 3053 1638 
L 3053 0 
L 2309 0 
L 2309 1638 
L 678 1638 
L 678 2375 
L 2309 2375 
L 2309 4013 
L 3053 4013 
z
" transform="scale(0.015625)"/>
      <path id="DejaVuSans-Bold-3d" d="M 678 3084 
L 4684 3084 
L 4684 2350 
L 678 2350 
L 678 3084 
z
M 678 1663 
L 4684 1663 
L 4684 922 
L 678 922 
L 678 1663 
z
" transform="scale(0.015625)"/>
      <path id="DejaVuSans-Bold-39" d="M 641 103 
L 641 966 
Q 928 831 1190 764 
Q 1453 697 1709 697 
Q 2247 697 2547 995 
Q 2847 1294 2900 1881 
Q 2688 1725 2447 1647 
Q 2206 1569 1925 1569 
Q 1209 1569 770 1986 
Q 331 2403 331 3084 
Q 331 3838 820 4291 
Q 1309 4744 2131 4744 
Q 3044 4744 3544 4128 
Q 4044 3513 4044 2388 
Q 4044 1231 3459 570 
Q 2875 -91 1856 -91 
Q 1528 -91 1228 -42 
Q 928 6 641 103 
z
M 2125 2350 
Q 2441 2350 2600 2554 
Q 2759 2759 2759 3169 
Q 2759 3575 2600 3781 
Q 2441 3988 2125 3988 
Q 1809 3988 1650 3781 
Q 1491 3575 1491 3169 
Q 1491 2759 1650 2554 
Q 1809 2350 2125 2350 
z
" transform="scale(0.015625)"/>
      <path id="DejaVuSans-Bold-30" d="M 2944 2338 
Q 2944 3213 2780 3570 
Q 2616 3928 2228 3928 
Q 1841 3928 1675 3570 
Q 1509 3213 1509 2338 
Q 1509 1453 1675 1090 
Q 1841 728 2228 728 
Q 2613 728 2778 1090 
Q 2944 1453 2944 2338 
z
M 4147 2328 
Q 4147 1169 3647 539 
Q 3147 -91 2228 -91 
Q 1306 -91 806 539 
Q 306 1169 306 2328 
Q 306 3491 806 4120 
Q 1306 4750 2228 4750 
Q 3147 4750 3647 4120 
Q 4147 3491 4147 2328 
z
" transform="scale(0.015625)"/>
      <path id="DejaVuSans-Bold-b0" d="M 1600 4288 
Q 1375 4288 1219 4131 
Q 1063 3975 1063 3750 
Q 1063 3525 1217 3372 
Q 1372 3219 1600 3219 
Q 1825 3219 1981 3373 
Q 2138 3528 2138 3750 
Q 2138 3975 1980 4131 
Q 1822 4288 1600 4288 
z
M 1600 4794 
Q 1806 4794 1997 4714 
Q 2188 4634 2338 4488 
Q 2484 4338 2561 4150 
Q 2638 3963 2638 3750 
Q 2638 3541 2561 3352 
Q 2484 3163 2344 3022 
Q 2194 2872 2000 2792 
Q 1806 2713 1594 2713 
Q 1153 2713 854 3011 
Q 556 3309 556 3750 
Q 556 4191 857 4492 
Q 1159 4794 1600 4794 
z
" transform="scale(0.015625)"/>
     </defs>
     <use xlink:href="#DejaVuSans-Bold-3b1"/>
     <use xlink:href="#DejaVuSans-Bold-20" transform="translate(68.701172 0)"/>
     <use xlink:href="#DejaVuSans-Bold-2b" transform="translate(103.515625 0)"/>
     <use xlink:href="#DejaVuSans-Bold-20" transform="translate(187.304688 0)"/>
     <use xlink:href="#DejaVuSans-Bold-3b2" transform="translate(222.119141 0)"/>
     <use xlink:href="#DejaVuSans-Bold-20" transform="translate(293.701172 0)"/>
     <use xlink:href="#DejaVuSans-Bold-3d" transform="translate(328.515625 0)"/>
     <use xlink:href="#DejaVuSans-Bold-20" transform="translate(412.304688 0)"/>
     <use xlink:href="#DejaVuSans-Bold-39" transform="translate(447.119141 0)"/>
     <use xlink:href="#DejaVuSans-Bold-30" transform="translate(516.699219 0)"/>
     <use xlink:href="#DejaVuSans-Bold-b0" transform="translate(586.279297 0)"/>
    </g>
   </g>
   <g id="text_4">
    <!-- Ángulos Complementarios -->
    <g style="fill: #1f2937" transform="translate(78.108047 40.608) scale(0.13 -0.13)">
     <defs>
      <path id="DejaVuSans-Bold-c1" d="M 3419 850 
L 1538 850 
L 1241 0 
L 31 0 
L 1759 4666 
L 3194 4666 
L 4922 0 
L 3713 0 
L 3419 850 
z
M 1838 1716 
L 3116 1716 
L 2478 3572 
L 1838 1716 
z
M 2559 5921 
L 3444 5921 
L 2553 5096 
L 1941 5096 
L 2559 5921 
z
" transform="scale(0.015625)"/>
      <path id="DejaVuSans-Bold-6e" d="M 4056 2131 
L 4056 0 
L 2931 0 
L 2931 347 
L 2931 1631 
Q 2931 2084 2911 2256 
Q 2891 2428 2841 2509 
Q 2775 2619 2662 2680 
Q 2550 2741 2406 2741 
Q 2056 2741 1856 2470 
Q 1656 2200 1656 1722 
L 1656 0 
L 538 0 
L 538 3500 
L 1656 3500 
L 1656 2988 
Q 1909 3294 2193 3439 
Q 2478 3584 2822 3584 
Q 3428 3584 3742 3212 
Q 4056 2841 4056 2131 
z
" transform="scale(0.015625)"/>
      <path id="DejaVuSans-Bold-67" d="M 2919 594 
Q 2688 288 2409 144 
Q 2131 0 1766 0 
Q 1125 0 706 504 
Q 288 1009 288 1791 
Q 288 2575 706 3076 
Q 1125 3578 1766 3578 
Q 2131 3578 2409 3434 
Q 2688 3291 2919 2981 
L 2919 3500 
L 4044 3500 
L 4044 353 
Q 4044 -491 3511 -936 
Q 2978 -1381 1966 -1381 
Q 1638 -1381 1331 -1331 
Q 1025 -1281 716 -1178 
L 716 -306 
Q 1009 -475 1290 -558 
Q 1572 -641 1856 -641 
Q 2406 -641 2662 -400 
Q 2919 -159 2919 353 
L 2919 594 
z
M 2181 2772 
Q 1834 2772 1640 2515 
Q 1447 2259 1447 1791 
Q 1447 1309 1634 1061 
Q 1822 813 2181 813 
Q 2531 813 2725 1069 
Q 2919 1325 2919 1791 
Q 2919 2259 2725 2515 
Q 2531 2772 2181 2772 
z
" transform="scale(0.015625)"/>
      <path id="DejaVuSans-Bold-75" d="M 500 1363 
L 500 3500 
L 1625 3500 
L 1625 3150 
Q 1625 2866 1622 2436 
Q 1619 2006 1619 1863 
Q 1619 1441 1641 1255 
Q 1663 1069 1716 984 
Q 1784 875 1895 815 
Q 2006 756 2150 756 
Q 2500 756 2700 1025 
Q 2900 1294 2900 1772 
L 2900 3500 
L 4019 3500 
L 4019 0 
L 2900 0 
L 2900 506 
Q 2647 200 2364 54 
Q 2081 -91 1741 -91 
Q 1134 -91 817 281 
Q 500 653 500 1363 
z
" transform="scale(0.015625)"/>
      <path id="DejaVuSans-Bold-6c" d="M 538 4863 
L 1656 4863 
L 1656 0 
L 538 0 
L 538 4863 
z
" transform="scale(0.015625)"/>
      <path id="DejaVuSans-Bold-6f" d="M 2203 2784 
Q 1831 2784 1636 2517 
Q 1441 2250 1441 1747 
Q 1441 1244 1636 976 
Q 1831 709 2203 709 
Q 2569 709 2762 976 
Q 2956 1244 2956 1747 
Q 2956 2250 2762 2517 
Q 2569 2784 2203 2784 
z
M 2203 3584 
Q 3106 3584 3614 3096 
Q 4122 2609 4122 1747 
Q 4122 884 3614 396 
Q 3106 -91 2203 -91 
Q 1297 -91 786 396 
Q 275 884 275 1747 
Q 275 2609 786 3096 
Q 1297 3584 2203 3584 
z
" transform="scale(0.015625)"/>
      <path id="DejaVuSans-Bold-73" d="M 3272 3391 
L 3272 2541 
Q 2913 2691 2578 2766 
Q 2244 2841 1947 2841 
Q 1628 2841 1473 2761 
Q 1319 2681 1319 2516 
Q 1319 2381 1436 2309 
Q 1553 2238 1856 2203 
L 2053 2175 
Q 2913 2066 3209 1816 
Q 3506 1566 3506 1031 
Q 3506 472 3093 190 
Q 2681 -91 1863 -91 
Q 1516 -91 1145 -36 
Q 775 19 384 128 
L 384 978 
Q 719 816 1070 734 
Q 1422 653 1784 653 
Q 2113 653 2278 743 
Q 2444 834 2444 1013 
Q 2444 1163 2330 1236 
Q 2216 1309 1875 1350 
L 1678 1375 
Q 931 1469 631 1722 
Q 331 1975 331 2491 
Q 331 3047 712 3315 
Q 1094 3584 1881 3584 
Q 2191 3584 2531 3537 
Q 2872 3491 3272 3391 
z
" transform="scale(0.015625)"/>
      <path id="DejaVuSans-Bold-43" d="M 4288 256 
Q 3956 84 3597 -3 
Q 3238 -91 2847 -91 
Q 1681 -91 1000 561 
Q 319 1213 319 2328 
Q 319 3447 1000 4098 
Q 1681 4750 2847 4750 
Q 3238 4750 3597 4662 
Q 3956 4575 4288 4403 
L 4288 3438 
Q 3953 3666 3628 3772 
Q 3303 3878 2944 3878 
Q 2300 3878 1931 3465 
Q 1563 3053 1563 2328 
Q 1563 1606 1931 1193 
Q 2300 781 2944 781 
Q 3303 781 3628 887 
Q 3953 994 4288 1222 
L 4288 256 
z
" transform="scale(0.015625)"/>
      <path id="DejaVuSans-Bold-6d" d="M 3781 2919 
Q 3994 3244 4286 3414 
Q 4578 3584 4928 3584 
Q 5531 3584 5847 3212 
Q 6163 2841 6163 2131 
L 6163 0 
L 5038 0 
L 5038 1825 
Q 5041 1866 5042 1909 
Q 5044 1953 5044 2034 
Q 5044 2406 4934 2573 
Q 4825 2741 4581 2741 
Q 4263 2741 4089 2478 
Q 3916 2216 3909 1719 
L 3909 0 
L 2784 0 
L 2784 1825 
Q 2784 2406 2684 2573 
Q 2584 2741 2328 2741 
Q 2006 2741 1831 2477 
Q 1656 2213 1656 1722 
L 1656 0 
L 531 0 
L 531 3500 
L 1656 3500 
L 1656 2988 
Q 1863 3284 2130 3434 
Q 2397 3584 2719 3584 
Q 3081 3584 3359 3409 
Q 3638 3234 3781 2919 
z
" transform="scale(0.015625)"/>
      <path id="DejaVuSans-Bold-70" d="M 1656 506 
L 1656 -1331 
L 538 -1331 
L 538 3500 
L 1656 3500 
L 1656 2988 
Q 1888 3294 2169 3439 
Q 2450 3584 2816 3584 
Q 3463 3584 3878 3070 
Q 4294 2556 4294 1747 
Q 4294 938 3878 423 
Q 3463 -91 2816 -91 
Q 2450 -91 2169 54 
Q 1888 200 1656 506 
z
M 2400 2772 
Q 2041 2772 1848 2508 
Q 1656 2244 1656 1747 
Q 1656 1250 1848 986 
Q 2041 722 2400 722 
Q 2759 722 2948 984 
Q 3138 1247 3138 1747 
Q 3138 2247 2948 2509 
Q 2759 2772 2400 2772 
z
" transform="scale(0.015625)"/>
      <path id="DejaVuSans-Bold-65" d="M 4031 1759 
L 4031 1441 
L 1416 1441 
Q 1456 1047 1700 850 
Q 1944 653 2381 653 
Q 2734 653 3104 758 
Q 3475 863 3866 1075 
L 3866 213 
Q 3469 63 3072 -14 
Q 2675 -91 2278 -91 
Q 1328 -91 801 392 
Q 275 875 275 1747 
Q 275 2603 792 3093 
Q 1309 3584 2216 3584 
Q 3041 3584 3536 3087 
Q 4031 2591 4031 1759 
z
M 2881 2131 
Q 2881 2450 2695 2645 
Q 2509 2841 2209 2841 
Q 1884 2841 1681 2658 
Q 1478 2475 1428 2131 
L 2881 2131 
z
" transform="scale(0.015625)"/>
      <path id="DejaVuSans-Bold-74" d="M 1759 4494 
L 1759 3500 
L 2913 3500 
L 2913 2700 
L 1759 2700 
L 1759 1216 
Q 1759 972 1856 886 
Q 1953 800 2241 800 
L 2816 800 
L 2816 0 
L 1856 0 
Q 1194 0 917 276 
Q 641 553 641 1216 
L 641 2700 
L 84 2700 
L 84 3500 
L 641 3500 
L 641 4494 
L 1759 4494 
z
" transform="scale(0.015625)"/>
      <path id="DejaVuSans-Bold-61" d="M 2106 1575 
Q 1756 1575 1579 1456 
Q 1403 1338 1403 1106 
Q 1403 894 1545 773 
Q 1688 653 1941 653 
Q 2256 653 2472 879 
Q 2688 1106 2688 1447 
L 2688 1575 
L 2106 1575 
z
M 3816 1997 
L 3816 0 
L 2688 0 
L 2688 519 
Q 2463 200 2181 54 
Q 1900 -91 1497 -91 
Q 953 -91 614 226 
Q 275 544 275 1050 
Q 275 1666 698 1953 
Q 1122 2241 2028 2241 
L 2688 2241 
L 2688 2328 
Q 2688 2594 2478 2717 
Q 2269 2841 1825 2841 
Q 1466 2841 1156 2769 
Q 847 2697 581 2553 
L 581 3406 
Q 941 3494 1303 3539 
Q 1666 3584 2028 3584 
Q 2975 3584 3395 3211 
Q 3816 2838 3816 1997 
z
" transform="scale(0.015625)"/>
      <path id="DejaVuSans-Bold-72" d="M 3138 2547 
Q 2991 2616 2845 2648 
Q 2700 2681 2553 2681 
Q 2122 2681 1889 2404 
Q 1656 2128 1656 1613 
L 1656 0 
L 538 0 
L 538 3500 
L 1656 3500 
L 1656 2925 
Q 1872 3269 2151 3426 
Q 2431 3584 2822 3584 
Q 2878 3584 2943 3579 
Q 3009 3575 3134 3559 
L 3138 2547 
z
" transform="scale(0.015625)"/>
      <path id="DejaVuSans-Bold-69" d="M 538 3500 
L 1656 3500 
L 1656 0 
L 538 0 
L 538 3500 
z
M 538 4863 
L 1656 4863 
L 1656 3950 
L 538 3950 
L 538 4863 
z
" transform="scale(0.015625)"/>
     </defs>
     <use xlink:href="#DejaVuSans-Bold-c1"/>
     <use xlink:href="#DejaVuSans-Bold-6e" transform="translate(77.392578 0)"/>
     <use xlink:href="#DejaVuSans-Bold-67" transform="translate(148.583984 0)"/>
     <use xlink:href="#DejaVuSans-Bold-75" transform="translate(220.166016 0)"/>
     <use xlink:href="#DejaVuSans-Bold-6c" transform="translate(291.357422 0)"/>
     <use xlink:href="#DejaVuSans-Bold-6f" transform="translate(325.634766 0)"/>
     <use xlink:href="#DejaVuSans-Bold-73" transform="translate(394.335938 0)"/>
     <use xlink:href="#DejaVuSans-Bold-20" transform="translate(453.857422 0)"/>
     <use xlink:href="#DejaVuSans-Bold-43" transform="translate(488.671875 0)"/>
     <use xlink:href="#DejaVuSans-Bold-6f" transform="translate(562.060547 0)"/>
     <use xlink:href="#DejaVuSans-Bold-6d" transform="translate(630.761719 0)"/>
     <use xlink:href="#DejaVuSans-Bold-70" transform="translate(734.960938 0)"/>
     <use xlink:href="#DejaVuSans-Bold-6c" transform="translate(806.542969 0)"/>
     <use xlink:href="#DejaVuSans-Bold-65" transform="translate(840.820312 0)"/>
     <use xlink:href="#DejaVuSans-Bold-6d" transform="translate(908.642578 0)"/>
     <use xlink:href="#DejaVuSans-Bold-65" transform="translate(1012.841797 0)"/>
     <use xlink:href="#DejaVuSans-Bold-6e" transform="translate(1080.664062 0)"/>
     <use xlink:href="#DejaVuSans-Bold-74" transform="translate(1151.855469 0)"/>
     <use xlink:href="#DejaVuSans-Bold-61" transform="translate(1199.658203 0)"/>
     <use xlink:href="#DejaVuSans-Bold-72" transform="translate(1267.138672 0)"/>
     <use xlink:href="#DejaVuSans-Bold-69" transform="translate(1316.455078 0)"/>
     <use xlink:href="#DejaVuSans-Bold-6f" transform="translate(1350.732422 0)"/>
     <use xlink:href="#DejaVuSans-Bold-73" transform="translate(1419.433594 0)"/>
    </g>
   </g>
   <g id="text_5">
    <!-- α = 35°, β = 55° -->
    <g style="fill: #6b7280" transform="translate(127.901641 74.016) scale(0.11 -0.11)">
     <defs>
      <path id="DejaVuSans-3b1" d="M 2644 1628 
L 2506 2350 
Q 2366 3091 1809 3091 
Q 1391 3091 1200 2747 
Q 959 2316 959 1747 
Q 959 1059 1194 731 
Q 1431 397 1809 397 
Q 2228 397 2453 1063 
L 2644 1628 
z
M 2966 2584 
L 3275 3500 
L 3788 3500 
L 3147 1603 
L 3272 919 
Q 3300 766 3409 638 
Q 3538 488 3638 488 
L 3913 488 
L 3913 0 
L 3569 0 
Q 3275 0 3013 263 
Q 2884 394 2831 669 
Q 2688 322 2394 50 
Q 2256 -78 1809 -78 
Q 1075 -78 719 397 
Q 353 888 353 1747 
Q 353 2666 750 3097 
Q 1191 3578 1809 3578 
Q 2781 3578 2966 2584 
z
" transform="scale(0.015625)"/>
      <path id="DejaVuSans-20" transform="scale(0.015625)"/>
      <path id="DejaVuSans-3d" d="M 678 2906 
L 4684 2906 
L 4684 2381 
L 678 2381 
L 678 2906 
z
M 678 1631 
L 4684 1631 
L 4684 1100 
L 678 1100 
L 678 1631 
z
" transform="scale(0.015625)"/>
      <path id="DejaVuSans-33" d="M 2597 2516 
Q 3050 2419 3304 2112 
Q 3559 1806 3559 1356 
Q 3559 666 3084 287 
Q 2609 -91 1734 -91 
Q 1441 -91 1130 -33 
Q 819 25 488 141 
L 488 750 
Q 750 597 1062 519 
Q 1375 441 1716 441 
Q 2309 441 2620 675 
Q 2931 909 2931 1356 
Q 2931 1769 2642 2001 
Q 2353 2234 1838 2234 
L 1294 2234 
L 1294 2753 
L 1863 2753 
Q 2328 2753 2575 2939 
Q 2822 3125 2822 3475 
Q 2822 3834 2567 4026 
Q 2313 4219 1838 4219 
Q 1578 4219 1281 4162 
Q 984 4106 628 3988 
L 628 4550 
Q 988 4650 1302 4700 
Q 1616 4750 1894 4750 
Q 2613 4750 3031 4423 
Q 3450 4097 3450 3541 
Q 3450 3153 3228 2886 
Q 3006 2619 2597 2516 
z
" transform="scale(0.015625)"/>
      <path id="DejaVuSans-35" d="M 691 4666 
L 3169 4666 
L 3169 4134 
L 1269 4134 
L 1269 2991 
Q 1406 3038 1543 3061 
Q 1681 3084 1819 3084 
Q 2600 3084 3056 2656 
Q 3513 2228 3513 1497 
Q 3513 744 3044 326 
Q 2575 -91 1722 -91 
Q 1428 -91 1123 -41 
Q 819 9 494 109 
L 494 744 
Q 775 591 1075 516 
Q 1375 441 1709 441 
Q 2250 441 2565 725 
Q 2881 1009 2881 1497 
Q 2881 1984 2565 2268 
Q 2250 2553 1709 2553 
Q 1456 2553 1204 2497 
Q 953 2441 691 2322 
L 691 4666 
z
" transform="scale(0.015625)"/>
      <path id="DejaVuSans-b0" d="M 1600 4347 
Q 1350 4347 1178 4173 
Q 1006 4000 1006 3750 
Q 1006 3503 1178 3333 
Q 1350 3163 1600 3163 
Q 1850 3163 2022 3333 
Q 2194 3503 2194 3750 
Q 2194 3997 2020 4172 
Q 1847 4347 1600 4347 
z
M 1600 4750 
Q 1800 4750 1984 4673 
Q 2169 4597 2303 4453 
Q 2447 4313 2519 4134 
Q 2591 3956 2591 3750 
Q 2591 3338 2302 3052 
Q 2013 2766 1594 2766 
Q 1172 2766 890 3047 
Q 609 3328 609 3750 
Q 609 4169 896 4459 
Q 1184 4750 1600 4750 
z
" transform="scale(0.015625)"/>
      <path id="DejaVuSans-2c" d="M 750 794 
L 1409 794 
L 1409 256 
L 897 -744 
L 494 -744 
L 750 256 
L 750 794 
z
" transform="scale(0.015625)"/>
      <path id="DejaVuSans-3b2" d="M 1178 216 
L 1178 -1331 
L 600 -1331 
L 600 3478 
Q 600 4903 1931 4903 
Q 3288 4903 3288 3700 
Q 3288 2844 2750 2531 
Q 3625 2250 3625 1416 
Q 3625 -66 2119 -66 
Q 1456 -66 1178 216 
z
M 1178 966 
Q 1525 425 2141 425 
Q 3041 425 3041 1406 
Q 3041 2288 1591 2219 
L 1591 2750 
Q 2725 2750 2725 3750 
Q 2725 4434 1994 4434 
Q 1178 4434 1178 3459 
L 1178 966 
z
" transform="scale(0.015625)"/>
     </defs>
     <use xlink:href="#DejaVuSans-3b1"/>
     <use xlink:href="#DejaVuSans-20" transform="translate(65.917969 0)"/>
     <use xlink:href="#DejaVuSans-3d" transform="translate(97.705078 0)"/>
     <use xlink:href="#DejaVuSans-20" transform="translate(181.494141 0)"/>
     <use xlink:href="#DejaVuSans-33" transform="translate(213.28125 0)"/>
     <use xlink:href="#DejaVuSans-35" transform="translate(276.904297 0)"/>
     <use xlink:href="#DejaVuSans-b0" transform="translate(340.527344 0)"/>
     <use xlink:href="#DejaVuSans-2c" transform="translate(390.527344 0)"/>
     <use xlink:href="#DejaVuSans-20" transform="translate(422.314453 0)"/>
     <use xlink:href="#DejaVuSans-3b2" transform="translate(454.101562 0)"/>
     <use xlink:href="#DejaVuSans-20" transform="translate(517.919922 0)"/>
     <use xlink:href="#DejaVuSans-3d" transform="translate(549.707031 0)"/>
     <use xlink:href="#DejaVuSans-20" transform="translate(633.496094 0)"/>
     <use xlink:href="#DejaVuSans-35" transform="translate(665.283203 0)"/>
     <use xlink:href="#DejaVuSans-35" transform="translate(728.90625 0)"/>
     <use xlink:href="#DejaVuSans-b0" transform="translate(792.529297 0)"/>
    </g>
   </g>
  </g>
  <g id="axes_2">
   <g id="line2d_4">
    <path d="M 668.856 236.124 
L 668.829105 234.634559 
L 668.748455 233.14706 
L 668.614156 231.663442 
L 668.426381 230.18564 
L 668.185377 228.71558 
L 667.891458 227.25518 
L 667.545006 225.806342 
L 667.146473 224.370957 
L 666.696379 222.950896 
L 666.195311 221.54801 
L 665.643922 220.164128 
L 665.042932 218.801055 
L 664.393122 217.460568 
L 663.695342 216.144414 
L 662.9505 214.85431 
L 662.159567 213.591938 
L 661.323576 212.358943 
L 660.443616 211.156933 
L 659.520833 209.987475 
L 658.556432 208.852094 
L 657.55167 207.752271 
L 656.507857 206.689439 
L 655.426353 205.664984 
L 654.308569 204.680242 
L 653.155962 203.736497 
L 651.970035 202.834978 
L 650.752334 201.976863 
L 649.504446 201.163268 
L 648.228 200.395256 
" clip-path="url(#pe7b279c6a5)" style="fill: none; stroke: #2563eb; stroke-width: 2; stroke-linecap: square"/>
   </g>
   <g id="line2d_5">
    <path d="M 644.1024 207.541005 
L 641.996897 206.424738 
L 639.816336 205.463309 
L 637.572084 204.661731 
L 635.275842 204.024183 
L 632.939582 203.553988 
L 630.575484 203.253598 
L 628.195874 203.124579 
L 625.813156 203.167604 
L 623.439754 203.382449 
L 621.088042 203.767992 
L 618.770281 204.322225 
L 616.498553 205.042258 
L 614.284703 205.924336 
L 612.140273 206.963862 
L 610.076443 208.155415 
L 608.103972 209.492783 
L 606.233145 210.968994 
L 604.473715 212.576351 
L 602.834854 214.306475 
L 601.325108 216.150346 
L 599.952346 218.09835 
L 598.723727 220.140331 
L 597.645655 222.265644 
L 596.723751 224.463208 
L 595.962822 226.721566 
L 595.366834 229.028944 
L 594.938895 231.373312 
L 594.681236 233.742448 
L 594.5952 236.124 
" clip-path="url(#pe7b279c6a5)" style="fill: none; stroke: #dc2626; stroke-width: 2; stroke-linecap: square"/>
   </g>
   <g id="patch_5">
    <path d="M 466.813931 236.124 
Q 627.601065 236.124 788.3882 236.124 
" style="fill: none; stroke: #374151; stroke-width: 2; stroke-linecap: round"/>
    <path d="M 471.613931 238.524 
L 466.813931 236.124 
L 471.613931 233.724 
" style="fill: none; stroke: #374151; stroke-width: 2; stroke-linecap: round"/>
    <path d="M 783.5882 233.724 
L 788.3882 236.124 
L 783.5882 238.524 
" style="fill: none; stroke: #374151; stroke-width: 2; stroke-linecap: round"/>
   </g>
   <g id="patch_6">
    <path d="M 628.600931 234.390336 
Q 668.85523 164.667845 707.991495 96.881846 
" style="fill: none; stroke: #059669; stroke-width: 2; stroke-linecap: round"/>
    <path d="M 703.513034 99.838768 
L 707.991495 96.881846 
L 707.669956 102.238768 
" style="fill: none; stroke: #059669; stroke-width: 2; stroke-linecap: round"/>
   </g>
   <g id="text_6">
    <!-- α -->
    <g style="fill: #2563eb" transform="translate(677.1072 211.3704) scale(0.14 -0.14)">
     <use xlink:href="#DejaVuSans-Bold-3b1"/>
    </g>
   </g>
   <g id="text_7">
    <!-- β -->
    <g style="fill: #dc2626" transform="translate(586.344 203.1192) scale(0.14 -0.14)">
     <use xlink:href="#DejaVuSans-Bold-3b2"/>
    </g>
   </g>
   <g id="text_8">
    <!-- α + β = 180° -->
    <g style="fill: #1f2937" transform="translate(585.248437 260.8776) scale(0.12 -0.12)">
     <defs>
      <path id="DejaVuSans-Bold-31" d="M 750 831 
L 1813 831 
L 1813 3847 
L 722 3622 
L 722 4441 
L 1806 4666 
L 2950 4666 
L 2950 831 
L 4013 831 
L 4013 0 
L 750 0 
L 750 831 
z
" transform="scale(0.015625)"/>
      <path id="DejaVuSans-Bold-38" d="M 2228 2088 
Q 1891 2088 1709 1903 
Q 1528 1719 1528 1375 
Q 1528 1031 1709 848 
Q 1891 666 2228 666 
Q 2563 666 2741 848 
Q 2919 1031 2919 1375 
Q 2919 1722 2741 1905 
Q 2563 2088 2228 2088 
z
M 1350 2484 
Q 925 2613 709 2878 
Q 494 3144 494 3541 
Q 494 4131 934 4440 
Q 1375 4750 2228 4750 
Q 3075 4750 3515 4442 
Q 3956 4134 3956 3541 
Q 3956 3144 3739 2878 
Q 3522 2613 3097 2484 
Q 3572 2353 3814 2058 
Q 4056 1763 4056 1313 
Q 4056 619 3595 264 
Q 3134 -91 2228 -91 
Q 1319 -91 855 264 
Q 391 619 391 1313 
Q 391 1763 633 2058 
Q 875 2353 1350 2484 
z
M 1631 3419 
Q 1631 3141 1786 2991 
Q 1941 2841 2228 2841 
Q 2509 2841 2662 2991 
Q 2816 3141 2816 3419 
Q 2816 3697 2662 3845 
Q 2509 3994 2228 3994 
Q 1941 3994 1786 3844 
Q 1631 3694 1631 3419 
z
" transform="scale(0.015625)"/>
     </defs>
     <use xlink:href="#DejaVuSans-Bold-3b1"/>
     <use xlink:href="#DejaVuSans-Bold-20" transform="translate(68.701172 0)"/>
     <use xlink:href="#DejaVuSans-Bold-2b" transform="translate(103.515625 0)"/>
     <use xlink:href="#DejaVuSans-Bold-20" transform="translate(187.304688 0)"/>
     <use xlink:href="#DejaVuSans-Bold-3b2" transform="translate(222.119141 0)"/>
     <use xlink:href="#DejaVuSans-Bold-20" transform="translate(293.701172 0)"/>
     <use xlink:href="#DejaVuSans-Bold-3d" transform="translate(328.515625 0)"/>
     <use xlink:href="#DejaVuSans-Bold-20" transform="translate(412.304688 0)"/>
     <use xlink:href="#DejaVuSans-Bold-31" transform="translate(447.119141 0)"/>
     <use xlink:href="#DejaVuSans-Bold-38" transform="translate(516.699219 0)"/>
     <use xlink:href="#DejaVuSans-Bold-30" transform="translate(586.279297 0)"/>
     <use xlink:href="#DejaVuSans-Bold-b0" transform="translate(655.859375 0)"/>
    </g>
   </g>
   <g id="text_9">
    <!-- Ángulos Suplementarios -->
    <g style="fill: #1f2937" transform="translate(538.169141 87.6024) scale(0.13 -0.13)">
     <defs>
      <path id="DejaVuSans-Bold-53" d="M 3834 4519 
L 3834 3531 
Q 3450 3703 3084 3790 
Q 2719 3878 2394 3878 
Q 1963 3878 1756 3759 
Q 1550 3641 1550 3391 
Q 1550 3203 1689 3098 
Q 1828 2994 2194 2919 
L 2706 2816 
Q 3484 2659 3812 2340 
Q 4141 2022 4141 1434 
Q 4141 663 3683 286 
Q 3225 -91 2284 -91 
Q 1841 -91 1394 -6 
Q 947 78 500 244 
L 500 1259 
Q 947 1022 1364 901 
Q 1781 781 2169 781 
Q 2563 781 2772 912 
Q 2981 1044 2981 1288 
Q 2981 1506 2839 1625 
Q 2697 1744 2272 1838 
L 1806 1941 
Q 1106 2091 782 2419 
Q 459 2747 459 3303 
Q 459 4000 909 4375 
Q 1359 4750 2203 4750 
Q 2588 4750 2994 4692 
Q 3400 4634 3834 4519 
z
" transform="scale(0.015625)"/>
     </defs>
     <use xlink:href="#DejaVuSans-Bold-c1"/>
     <use xlink:href="#DejaVuSans-Bold-6e" transform="translate(77.392578 0)"/>
     <use xlink:href="#DejaVuSans-Bold-67" transform="translate(148.583984 0)"/>
     <use xlink:href="#DejaVuSans-Bold-75" transform="translate(220.166016 0)"/>
     <use xlink:href="#DejaVuSans-Bold-6c" transform="translate(291.357422 0)"/>
     <use xlink:href="#DejaVuSans-Bold-6f" transform="translate(325.634766 0)"/>
     <use xlink:href="#DejaVuSans-Bold-73" transform="translate(394.335938 0)"/>
     <use xlink:href="#DejaVuSans-Bold-20" transform="translate(453.857422 0)"/>
     <use xlink:href="#DejaVuSans-Bold-53" transform="translate(488.671875 0)"/>
     <use xlink:href="#DejaVuSans-Bold-75" transform="translate(560.693359 0)"/>
     <use xlink:href="#DejaVuSans-Bold-70" transform="translate(631.884766 0)"/>
     <use xlink:href="#DejaVuSans-Bold-6c" transform="translate(703.466797 0)"/>
     <use xlink:href="#DejaVuSans-Bold-65" transform="translate(737.744141 0)"/>
     <use xlink:href="#DejaVuSans-Bold-6d" transform="translate(805.566406 0)"/>
     <use xlink:href="#DejaVuSans-Bold-65" transform="translate(909.765625 0)"/>
     <use xlink:href="#DejaVuSans-Bold-6e" transform="translate(977.587891 0)"/>
     <use xlink:href="#DejaVuSans-Bold-74" transform="translate(1048.779297 0)"/>
     <use xlink:href="#DejaVuSans-Bold-61" transform="translate(1096.582031 0)"/>
     <use xlink:href="#DejaVuSans-Bold-72" transform="translate(1164.0625 0)"/>
     <use xlink:href="#DejaVuSans-Bold-69" transform="translate(1213.378906 0)"/>
     <use xlink:href="#DejaVuSans-Bold-6f" transform="translate(1247.65625 0)"/>
     <use xlink:href="#DejaVuSans-Bold-73" transform="translate(1316.357422 0)"/>
    </g>
   </g>
   <g id="text_10">
    <!-- α = 60°, β = 120° -->
    <g style="fill: #6b7280" transform="translate(577.762266 112.356) scale(0.11 -0.11)">
     <defs>
      <path id="DejaVuSans-36" d="M 2113 2584 
Q 1688 2584 1439 2293 
Q 1191 2003 1191 1497 
Q 1191 994 1439 701 
Q 1688 409 2113 409 
Q 2538 409 2786 701 
Q 3034 994 3034 1497 
Q 3034 2003 2786 2293 
Q 2538 2584 2113 2584 
z
M 3366 4563 
L 3366 3988 
Q 3128 4100 2886 4159 
Q 2644 4219 2406 4219 
Q 1781 4219 1451 3797 
Q 1122 3375 1075 2522 
Q 1259 2794 1537 2939 
Q 1816 3084 2150 3084 
Q 2853 3084 3261 2657 
Q 3669 2231 3669 1497 
Q 3669 778 3244 343 
Q 2819 -91 2113 -91 
Q 1303 -91 875 529 
Q 447 1150 447 2328 
Q 447 3434 972 4092 
Q 1497 4750 2381 4750 
Q 2619 4750 2861 4703 
Q 3103 4656 3366 4563 
z
" transform="scale(0.015625)"/>
      <path id="DejaVuSans-30" d="M 2034 4250 
Q 1547 4250 1301 3770 
Q 1056 3291 1056 2328 
Q 1056 1369 1301 889 
Q 1547 409 2034 409 
Q 2525 409 2770 889 
Q 3016 1369 3016 2328 
Q 3016 3291 2770 3770 
Q 2525 4250 2034 4250 
z
M 2034 4750 
Q 2819 4750 3233 4129 
Q 3647 3509 3647 2328 
Q 3647 1150 3233 529 
Q 2819 -91 2034 -91 
Q 1250 -91 836 529 
Q 422 1150 422 2328 
Q 422 3509 836 4129 
Q 1250 4750 2034 4750 
z
" transform="scale(0.015625)"/>
      <path id="DejaVuSans-31" d="M 794 531 
L 1825 531 
L 1825 4091 
L 703 3866 
L 703 4441 
L 1819 4666 
L 2450 4666 
L 2450 531 
L 3481 531 
L 3481 0 
L 794 0 
L 794 531 
z
" transform="scale(0.015625)"/>
      <path id="DejaVuSans-32" d="M 1228 531 
L 3431 531 
L 3431 0 
L 469 0 
L 469 531 
Q 828 903 1448 1529 
Q 2069 2156 2228 2338 
Q 2531 2678 2651 2914 
Q 2772 3150 2772 3378 
Q 2772 3750 2511 3984 
Q 2250 4219 1831 4219 
Q 1534 4219 1204 4116 
Q 875 4013 500 3803 
L 500 4441 
Q 881 4594 1212 4672 
Q 1544 4750 1819 4750 
Q 2544 4750 2975 4387 
Q 3406 4025 3406 3419 
Q 3406 3131 3298 2873 
Q 3191 2616 2906 2266 
Q 2828 2175 2409 1742 
Q 1991 1309 1228 531 
z
" transform="scale(0.015625)"/>
     </defs>
     <use xlink:href="#DejaVuSans-3b1"/>
     <use xlink:href="#DejaVuSans-20" transform="translate(65.917969 0)"/>
     <use xlink:href="#DejaVuSans-3d" transform="translate(97.705078 0)"/>
     <use xlink:href="#DejaVuSans-20" transform="translate(181.494141 0)"/>
     <use xlink:href="#DejaVuSans-36" transform="translate(213.28125 0)"/>
     <use xlink:href="#DejaVuSans-30" transform="translate(276.904297 0)"/>
     <use xlink:href="#DejaVuSans-b0" transform="translate(340.527344 0)"/>
     <use xlink:href="#DejaVuSans-2c" transform="translate(390.527344 0)"/>
     <use xlink:href="#DejaVuSans-20" transform="translate(422.314453 0)"/>
     <use xlink:href="#DejaVuSans-3b2" transform="translate(454.101562 0)"/>
     <use xlink:href="#DejaVuSans-20" transform="translate(517.919922 0)"/>
     <use xlink:href="#DejaVuSans-3d" transform="translate(549.707031 0)"/>
     <use xlink:href="#DejaVuSans-20" transform="translate(633.496094 0)"/>
     <use xlink:href="#DejaVuSans-31" transform="translate(665.283203 0)"/>
     <use xlink:href="#DejaVuSans-32" transform="translate(728.90625 0)"/>
     <use xlink:href="#DejaVuSans-30" transform="translate(792.529297 0)"/>
     <use xlink:href="#DejaVuSans-b0" transform="translate(856.152344 0)"/>
    </g>
   </g>
  </g>
 </g>
 <defs>
  <clipPath id="p938848498d">
   <rect x="7.2" y="7.2" width="389.76" height="334.08"/>
  </clipPath>
  <clipPath id="pe7b279c6a5">
   <rect x="421.32" y="71.1" width="412.56" height="206.28"/>
  </clipPath>
 </defs>
</svg>
