<?xml version="1.0" encoding="utf-8" standalone="no"?>
<!DOCTYPE svg PUBLIC "-//W3C//DTD SVG 1.1//EN"
  "http://www.w3.org/Graphics/SVG/1.1/DTD/svg11.dtd">
<svg xmlns:xlink="http://www.w3.org/1999/xlink" width="996.48pt" height="688.956654pt" viewBox="0 0 996.48 688.956654" xmlns="http://www.w3.org/2000/svg" version="1.1">
 <metadata>
  <rdf:RDF xmlns:dc="http://purl.org/dc/elements/1.1/" xmlns:cc="http://creativecommons.org/ns#" xmlns:rdf="http://www.w3.org/1999/02/22-rdf-syntax-ns#">
   <cc:Work>
    <dc:type rdf:resource="http://purl.org/dc/dcmitype/StillImage"/>
    <dc:date>2026-01-03T17:13:32.753090</dc:date>
    <dc:format>image/svg+xml</dc:format>
    <dc:creator>
     <cc:Agent>
      <dc:title>Repositorio Matemáticas Universitarias</dc:title>
     </cc:Agent>
    </dc:creator>
   </cc:Work>
  </rdf:RDF>
 </metadata>
 <defs>
  <style type="text/css">*{stroke-linejoin: round; stroke-linecap: butt}</style>
 </defs>
 <g id="figure_1">
  <g id="patch_1">
   <path d="M 0 688.956654 
L 996.48 688.956654 
L 996.48 0 
L 0 0 
z
" style="fill: #ffffff"/>
  </g>
  <g id="axes_1">
   <g id="patch_2">
    <path d="M 57 252.185551 
L 206.4 252.185551 
L 206.4 102.785551 
L 57 102.785551 
z
" clip-path="url(#p44240f1f09)" style="fill: #2563eb; opacity: 0.3; stroke: #2563eb; stroke-width: 2; stroke-linejoin: miter"/>
   </g>
   <g id="text_1">
    <!-- l -->
    <g style="fill: #2563eb" transform="translate(129.643125 282.065551) scale(0.12 -0.12)">
     <defs>
      <path id="DejaVuSans-Bold-6c" d="M 538 4863 
L 1656 4863 
L 1656 0 
L 538 0 
L 538 4863 
z
" transform="scale(0.015625)"/>
     </defs>
     <use xlink:href="#DejaVuSans-Bold-6c"/>
    </g>
   </g>
   <g id="text_2">
    <!-- l -->
    <g style="fill: #2563eb" transform="translate(30.043125 177.485551) scale(0.12 -0.12)">
     <use xlink:href="#DejaVuSans-Bold-6c"/>
    </g>
   </g>
   <g id="text_3">
    <!-- $A = l^2$ -->
    <g style="fill: #1f2937" transform="translate(113.89 321.905551) scale(0.13 -0.13)">
     <defs>
      <path id="DejaVuSans-Oblique-41" d="M 2356 4666 
L 3072 4666 
L 3938 0 
L 3278 0 
L 3084 1197 
L 984 1197 
L 325 0 
L -341 0 
L 2356 4666 
z
M 2584 4044 
L 1275 1722 
L 2988 1722 
L 2584 4044 
z
" transform="scale(0.015625)"/>
      <path id="DejaVuSans-3d" d="M 678 2906 
L 4684 2906 
L 4684 2381 
L 678 2381 
L 678 2906 
z
M 678 1631 
L 4684 1631 
L 4684 1100 
L 678 1100 
L 678 1631 
z
" transform="scale(0.015625)"/>
      <path id="DejaVuSans-Oblique-6c" d="M 1172 4863 
L 1747 4863 
L 800 0 
L 225 0 
L 1172 4863 
z
" transform="scale(0.015625)"/>
      <path id="DejaVuSans-32" d="M 1228 531 
L 3431 531 
L 3431 0 
L 469 0 
L 469 531 
Q 828 903 1448 1529 
Q 2069 2156 2228 2338 
Q 2531 2678 2651 2914 
Q 2772 3150 2772 3378 
Q 2772 3750 2511 3984 
Q 2250 4219 1831 4219 
Q 1534 4219 1204 4116 
Q 875 4013 500 3803 
L 500 4441 
Q 881 4594 1212 4672 
Q 1544 4750 1819 4750 
Q 2544 4750 2975 4387 
Q 3406 4025 3406 3419 
Q 3406 3131 3298 2873 
Q 3191 2616 2906 2266 
Q 2828 2175 2409 1742 
Q 1991 1309 1228 531 
z
" transform="scale(0.015625)"/>
     </defs>
     <use xlink:href="#DejaVuSans-Oblique-41" transform="translate(0 0.765625)"/>
     <use xlink:href="#DejaVuSans-3d" transform="translate(87.890625 0.765625)"/>
     <use xlink:href="#DejaVuSans-Oblique-6c" transform="translate(191.162109 0.765625)"/>
     <use xlink:href="#DejaVuSans-32" transform="translate(226.393021 39.046875) scale(0.7)"/>
    </g>
   </g>
   <g id="text_4">
    <!-- CUADRADO -->
    <g style="fill: #1f2937" transform="translate(131.673672 42.985551) scale(0.11 -0.11)">
     <defs>
      <path id="DejaVuSans-Bold-43" d="M 4288 256 
Q 3956 84 3597 -3 
Q 3238 -91 2847 -91 
Q 1681 -91 1000 561 
Q 319 1213 319 2328 
Q 319 3447 1000 4098 
Q 1681 4750 2847 4750 
Q 3238 4750 3597 4662 
Q 3956 4575 4288 4403 
L 4288 3438 
Q 3953 3666 3628 3772 
Q 3303 3878 2944 3878 
Q 2300 3878 1931 3465 
Q 1563 3053 1563 2328 
Q 1563 1606 1931 1193 
Q 2300 781 2944 781 
Q 3303 781 3628 887 
Q 3953 994 4288 1222 
L 4288 256 
z
" transform="scale(0.015625)"/>
      <path id="DejaVuSans-Bold-55" d="M 588 4666 
L 1791 4666 
L 1791 1869 
Q 1791 1291 1980 1042 
Q 2169 794 2597 794 
Q 3028 794 3217 1042 
Q 3406 1291 3406 1869 
L 3406 4666 
L 4609 4666 
L 4609 1869 
Q 4609 878 4112 393 
Q 3616 -91 2597 -91 
Q 1581 -91 1084 393 
Q 588 878 588 1869 
L 588 4666 
z
" transform="scale(0.015625)"/>
      <path id="DejaVuSans-Bold-41" d="M 3419 850 
L 1538 850 
L 1241 0 
L 31 0 
L 1759 4666 
L 3194 4666 
L 4922 0 
L 3713 0 
L 3419 850 
z
M 1838 1716 
L 3116 1716 
L 2478 3572 
L 1838 1716 
z
" transform="scale(0.015625)"/>
      <path id="DejaVuSans-Bold-44" d="M 1791 3756 
L 1791 909 
L 2222 909 
Q 2959 909 3348 1275 
Q 3738 1641 3738 2338 
Q 3738 3031 3350 3393 
Q 2963 3756 2222 3756 
L 1791 3756 
z
M 588 4666 
L 1856 4666 
Q 2919 4666 3439 4514 
Q 3959 4363 4331 4000 
Q 4659 3684 4818 3271 
Q 4978 2859 4978 2338 
Q 4978 1809 4818 1395 
Q 4659 981 4331 666 
Q 3956 303 3431 151 
Q 2906 0 1856 0 
L 588 0 
L 588 4666 
z
" transform="scale(0.015625)"/>
      <path id="DejaVuSans-Bold-52" d="M 2297 2597 
Q 2675 2597 2839 2737 
Q 3003 2878 3003 3200 
Q 3003 3519 2839 3656 
Q 2675 3794 2297 3794 
L 1791 3794 
L 1791 2597 
L 2297 2597 
z
M 1791 1766 
L 1791 0 
L 588 0 
L 588 4666 
L 2425 4666 
Q 3347 4666 3776 4356 
Q 4206 4047 4206 3378 
Q 4206 2916 3982 2619 
Q 3759 2322 3309 2181 
Q 3556 2125 3751 1926 
Q 3947 1728 4147 1325 
L 4800 0 
L 3519 0 
L 2950 1159 
Q 2778 1509 2601 1637 
Q 2425 1766 2131 1766 
L 1791 1766 
z
" transform="scale(0.015625)"/>
      <path id="DejaVuSans-Bold-4f" d="M 2719 3878 
Q 2169 3878 1866 3472 
Q 1563 3066 1563 2328 
Q 1563 1594 1866 1187 
Q 2169 781 2719 781 
Q 3272 781 3575 1187 
Q 3878 1594 3878 2328 
Q 3878 3066 3575 3472 
Q 3272 3878 2719 3878 
z
M 2719 4750 
Q 3844 4750 4481 4106 
Q 5119 3463 5119 2328 
Q 5119 1197 4481 553 
Q 3844 -91 2719 -91 
Q 1597 -91 958 553 
Q 319 1197 319 2328 
Q 319 3463 958 4106 
Q 1597 4750 2719 4750 
z
" transform="scale(0.015625)"/>
     </defs>
     <use xlink:href="#DejaVuSans-Bold-43"/>
     <use xlink:href="#DejaVuSans-Bold-55" transform="translate(73.388672 0)"/>
     <use xlink:href="#DejaVuSans-Bold-41" transform="translate(151.464844 0)"/>
     <use xlink:href="#DejaVuSans-Bold-44" transform="translate(228.857422 0)"/>
     <use xlink:href="#DejaVuSans-Bold-52" transform="translate(311.865234 0)"/>
     <use xlink:href="#DejaVuSans-Bold-41" transform="translate(388.867188 0)"/>
     <use xlink:href="#DejaVuSans-Bold-44" transform="translate(466.259766 0)"/>
     <use xlink:href="#DejaVuSans-Bold-4f" transform="translate(549.267578 0)"/>
    </g>
   </g>
  </g>
  <g id="axes_2">
   <g id="patch_3">
    <path d="M 388.68 252.185551 
L 587.88 252.185551 
L 587.88 132.665551 
L 388.68 132.665551 
z
" clip-path="url(#p7c98ec72e1)" style="fill: #dc2626; opacity: 0.3; stroke: #dc2626; stroke-width: 2; stroke-linejoin: miter"/>
   </g>
   <g id="text_5">
    <!-- b -->
    <g style="fill: #dc2626" transform="translate(483.985312 282.065551) scale(0.12 -0.12)">
     <defs>
      <path id="DejaVuSans-Bold-62" d="M 2400 722 
Q 2759 722 2948 984 
Q 3138 1247 3138 1747 
Q 3138 2247 2948 2509 
Q 2759 2772 2400 2772 
Q 2041 2772 1848 2508 
Q 1656 2244 1656 1747 
Q 1656 1250 1848 986 
Q 2041 722 2400 722 
z
M 1656 2988 
Q 1888 3294 2169 3439 
Q 2450 3584 2816 3584 
Q 3463 3584 3878 3070 
Q 4294 2556 4294 1747 
Q 4294 938 3878 423 
Q 3463 -91 2816 -91 
Q 2450 -91 2169 54 
Q 1888 200 1656 506 
L 1656 0 
L 538 0 
L 538 4863 
L 1656 4863 
L 1656 2988 
z
" transform="scale(0.015625)"/>
     </defs>
     <use xlink:href="#DejaVuSans-Bold-62"/>
    </g>
   </g>
   <g id="text_6">
    <!-- h -->
    <g style="fill: #dc2626" transform="translate(359.50875 192.425551) scale(0.12 -0.12)">
     <defs>
      <path id="DejaVuSans-Bold-68" d="M 4056 2131 
L 4056 0 
L 2931 0 
L 2931 347 
L 2931 1625 
Q 2931 2084 2911 2256 
Q 2891 2428 2841 2509 
Q 2775 2619 2662 2680 
Q 2550 2741 2406 2741 
Q 2056 2741 1856 2470 
Q 1656 2200 1656 1722 
L 1656 0 
L 538 0 
L 538 4863 
L 1656 4863 
L 1656 2988 
Q 1909 3294 2193 3439 
Q 2478 3584 2822 3584 
Q 3428 3584 3742 3212 
Q 4056 2841 4056 2131 
z
" transform="scale(0.015625)"/>
     </defs>
     <use xlink:href="#DejaVuSans-Bold-68"/>
    </g>
   </g>
   <g id="text_7">
    <!-- $A = b \cdot h$ -->
    <g style="fill: #1f2937" transform="translate(462.995 321.905551) scale(0.13 -0.13)">
     <defs>
      <path id="DejaVuSans-Oblique-62" d="M 3169 2138 
Q 3169 2591 2961 2847 
Q 2753 3103 2388 3103 
Q 2122 3103 1889 2973 
Q 1656 2844 1484 2597 
Q 1303 2338 1198 1995 
Q 1094 1653 1094 1313 
Q 1094 881 1298 636 
Q 1503 391 1863 391 
Q 2134 391 2365 517 
Q 2597 644 2772 891 
Q 2950 1147 3059 1487 
Q 3169 1828 3169 2138 
z
M 1381 2969 
Q 1594 3256 1914 3420 
Q 2234 3584 2584 3584 
Q 3122 3584 3439 3221 
Q 3756 2859 3756 2241 
Q 3756 1734 3570 1259 
Q 3384 784 3041 416 
Q 2816 172 2522 40 
Q 2228 -91 1906 -91 
Q 1566 -91 1316 65 
Q 1066 222 909 531 
L 806 0 
L 231 0 
L 1178 4863 
L 1753 4863 
L 1381 2969 
z
" transform="scale(0.015625)"/>
      <path id="DejaVuSans-22c5" d="M 684 2619 
L 1344 2619 
L 1344 1825 
L 684 1825 
L 684 2619 
z
" transform="scale(0.015625)"/>
      <path id="DejaVuSans-Oblique-68" d="M 3566 2113 
L 3156 0 
L 2578 0 
L 2988 2091 
Q 3016 2238 3031 2350 
Q 3047 2463 3047 2528 
Q 3047 2791 2881 2937 
Q 2716 3084 2419 3084 
Q 1956 3084 1617 2771 
Q 1278 2459 1178 1941 
L 800 0 
L 225 0 
L 1172 4863 
L 1747 4863 
L 1375 2950 
Q 1594 3244 1934 3414 
Q 2275 3584 2650 3584 
Q 3113 3584 3367 3334 
Q 3622 3084 3622 2631 
Q 3622 2519 3608 2391 
Q 3594 2263 3566 2113 
z
" transform="scale(0.015625)"/>
     </defs>
     <use xlink:href="#DejaVuSans-Oblique-41" transform="translate(0 0.015625)"/>
     <use xlink:href="#DejaVuSans-3d" transform="translate(87.890625 0.015625)"/>
     <use xlink:href="#DejaVuSans-Oblique-62" transform="translate(191.162109 0.015625)"/>
     <use xlink:href="#DejaVuSans-22c5" transform="translate(274.121094 0.015625)"/>
     <use xlink:href="#DejaVuSans-Oblique-68" transform="translate(325.390625 0.015625)"/>
    </g>
   </g>
   <g id="text_8">
    <!-- RECTÁNGULO -->
    <g style="fill: #1f2937" transform="translate(457.064766 42.985551) scale(0.11 -0.11)">
     <defs>
      <path id="DejaVuSans-Bold-45" d="M 588 4666 
L 3834 4666 
L 3834 3756 
L 1791 3756 
L 1791 2888 
L 3713 2888 
L 3713 1978 
L 1791 1978 
L 1791 909 
L 3903 909 
L 3903 0 
L 588 0 
L 588 4666 
z
" transform="scale(0.015625)"/>
      <path id="DejaVuSans-Bold-54" d="M 31 4666 
L 4331 4666 
L 4331 3756 
L 2784 3756 
L 2784 0 
L 1581 0 
L 1581 3756 
L 31 3756 
L 31 4666 
z
" transform="scale(0.015625)"/>
      <path id="DejaVuSans-Bold-c1" d="M 3419 850 
L 1538 850 
L 1241 0 
L 31 0 
L 1759 4666 
L 3194 4666 
L 4922 0 
L 3713 0 
L 3419 850 
z
M 1838 1716 
L 3116 1716 
L 2478 3572 
L 1838 1716 
z
M 2559 5921 
L 3444 5921 
L 2553 5096 
L 1941 5096 
L 2559 5921 
z
" transform="scale(0.015625)"/>
      <path id="DejaVuSans-Bold-4e" d="M 588 4666 
L 1931 4666 
L 3628 1466 
L 3628 4666 
L 4769 4666 
L 4769 0 
L 3425 0 
L 1728 3200 
L 1728 0 
L 588 0 
L 588 4666 
z
" transform="scale(0.015625)"/>
      <path id="DejaVuSans-Bold-47" d="M 4781 347 
Q 4331 128 3847 18 
Q 3363 -91 2847 -91 
Q 1681 -91 1000 561 
Q 319 1213 319 2328 
Q 319 3456 1012 4103 
Q 1706 4750 2913 4750 
Q 3378 4750 3804 4662 
Q 4231 4575 4609 4403 
L 4609 3438 
Q 4219 3659 3833 3768 
Q 3447 3878 3059 3878 
Q 2341 3878 1952 3476 
Q 1563 3075 1563 2328 
Q 1563 1588 1938 1184 
Q 2313 781 3003 781 
Q 3191 781 3352 804 
Q 3513 828 3641 878 
L 3641 1784 
L 2906 1784 
L 2906 2591 
L 4781 2591 
L 4781 347 
z
" transform="scale(0.015625)"/>
      <path id="DejaVuSans-Bold-4c" d="M 588 4666 
L 1791 4666 
L 1791 909 
L 3903 909 
L 3903 0 
L 588 0 
L 588 4666 
z
" transform="scale(0.015625)"/>
     </defs>
     <use xlink:href="#DejaVuSans-Bold-52"/>
     <use xlink:href="#DejaVuSans-Bold-45" transform="translate(77.001953 0)"/>
     <use xlink:href="#DejaVuSans-Bold-43" transform="translate(145.3125 0)"/>
     <use xlink:href="#DejaVuSans-Bold-54" transform="translate(218.701172 0)"/>
     <use xlink:href="#DejaVuSans-Bold-c1" transform="translate(279.164062 0)"/>
     <use xlink:href="#DejaVuSans-Bold-4e" transform="translate(356.556641 0)"/>
     <use xlink:href="#DejaVuSans-Bold-47" transform="translate(440.248047 0)"/>
     <use xlink:href="#DejaVuSans-Bold-55" transform="translate(522.328125 0)"/>
     <use xlink:href="#DejaVuSans-Bold-4c" transform="translate(603.529297 0)"/>
     <use xlink:href="#DejaVuSans-Bold-4f" transform="translate(663.625 0)"/>
    </g>
   </g>
  </g>
  <g id="axes_3">
   <g id="patch_4">
    <path d="M 720.36 252.185551 
L 919.56 252.185551 
L 800.04 112.745551 
z
" clip-path="url(#p478a5c1975)" style="fill: #059669; opacity: 0.3; stroke: #059669; stroke-width: 2; stroke-linejoin: miter"/>
   </g>
   <g id="line2d_1">
    <path d="M 800.04 252.185551 
L 800.04 112.745551 
" clip-path="url(#p478a5c1975)" style="fill: none; stroke-dasharray: 5.55,2.4; stroke-dashoffset: 0; stroke: #7c3aed; stroke-width: 1.5"/>
   </g>
   <g id="line2d_2">
    <path d="M 800.04 252.185551 
L 814.98 252.185551 
" clip-path="url(#p478a5c1975)" style="fill: none; stroke: #7c3aed; stroke-width: 1.5; stroke-linecap: square"/>
   </g>
   <g id="line2d_3">
    <path d="M 814.98 252.185551 
L 814.98 237.245551 
" clip-path="url(#p478a5c1975)" style="fill: none; stroke: #7c3aed; stroke-linecap: square"/>
   </g>
   <g id="text_9">
    <!-- b -->
    <g style="fill: #059669" transform="translate(815.665313 282.065551) scale(0.12 -0.12)">
     <use xlink:href="#DejaVuSans-Bold-62"/>
    </g>
   </g>
   <g id="text_10">
    <!-- h -->
    <g style="fill: #7c3aed" transform="translate(770.86875 182.465551) scale(0.12 -0.12)">
     <use xlink:href="#DejaVuSans-Bold-68"/>
    </g>
   </g>
   <g id="text_11">
    <!-- $A = \frac{b \cdot h}{2}$ -->
    <g style="fill: #1f2937" transform="translate(797.73 321.905551) scale(0.13 -0.13)">
     <use xlink:href="#DejaVuSans-Oblique-41" transform="translate(0 0.01875)"/>
     <use xlink:href="#DejaVuSans-3d" transform="translate(87.890625 0.01875)"/>
     <use xlink:href="#DejaVuSans-Oblique-62" transform="translate(191.162109 44.810938) scale(0.7)"/>
     <use xlink:href="#DejaVuSans-22c5" transform="translate(249.233398 44.810938) scale(0.7)"/>
     <use xlink:href="#DejaVuSans-Oblique-68" transform="translate(285.12207 44.810938) scale(0.7)"/>
     <use xlink:href="#DejaVuSans-32" transform="translate(238.162109 -39.3875) scale(0.7)"/>
     <path d="M 191.162109 18.815625 
L 191.162109 25.065625 
L 329.487305 25.065625 
L 329.487305 18.815625 
L 191.162109 18.815625 
z
"/>
    </g>
   </g>
   <g id="text_12">
    <!-- TRIÁNGULO -->
    <g style="fill: #1f2937" transform="translate(794.066016 42.985551) scale(0.11 -0.11)">
     <defs>
      <path id="DejaVuSans-Bold-49" d="M 588 4666 
L 1791 4666 
L 1791 0 
L 588 0 
L 588 4666 
z
" transform="scale(0.015625)"/>
     </defs>
     <use xlink:href="#DejaVuSans-Bold-54"/>
     <use xlink:href="#DejaVuSans-Bold-52" transform="translate(68.212891 0)"/>
     <use xlink:href="#DejaVuSans-Bold-49" transform="translate(145.214844 0)"/>
     <use xlink:href="#DejaVuSans-Bold-c1" transform="translate(182.421875 0)"/>
     <use xlink:href="#DejaVuSans-Bold-4e" transform="translate(259.814453 0)"/>
     <use xlink:href="#DejaVuSans-Bold-47" transform="translate(343.505859 0)"/>
     <use xlink:href="#DejaVuSans-Bold-55" transform="translate(425.585938 0)"/>
     <use xlink:href="#DejaVuSans-Bold-4c" transform="translate(506.787109 0)"/>
     <use xlink:href="#DejaVuSans-Bold-4f" transform="translate(566.882812 0)"/>
    </g>
   </g>
  </g>
  <g id="axes_4">
   <g id="patch_5">
    <path d="M 96.84 582.156654 
L 276.12 582.156654 
L 315.96 452.676654 
L 136.68 452.676654 
z
" clip-path="url(#p8e4eaedb35)" style="fill: #7c3aed; opacity: 0.3; stroke: #7c3aed; stroke-width: 2; stroke-linejoin: miter"/>
   </g>
   <g id="line2d_4">
    <path d="M 206.4 582.156654 
L 206.4 452.676654 
" clip-path="url(#p8e4eaedb35)" style="fill: none; stroke-dasharray: 5.55,2.4; stroke-dashoffset: 0; stroke: #2563eb; stroke-width: 1.5"/>
   </g>
   <g id="line2d_5">
    <path d="M 206.4 582.156654 
L 221.34 582.156654 
" clip-path="url(#p8e4eaedb35)" style="fill: none; stroke: #2563eb; stroke-width: 1.5; stroke-linecap: square"/>
   </g>
   <g id="text_13">
    <!-- b -->
    <g style="fill: #7c3aed" transform="translate(182.185312 612.036654) scale(0.12 -0.12)">
     <use xlink:href="#DejaVuSans-Bold-62"/>
    </g>
   </g>
   <g id="text_14">
    <!-- h -->
    <g style="fill: #2563eb" transform="translate(177.22875 517.416654) scale(0.12 -0.12)">
     <use xlink:href="#DejaVuSans-Bold-68"/>
    </g>
   </g>
   <g id="text_15">
    <!-- $A = b \cdot h$ -->
    <g style="fill: #1f2937" transform="translate(181.115 651.876654) scale(0.13 -0.13)">
     <use xlink:href="#DejaVuSans-Oblique-41" transform="translate(0 0.015625)"/>
     <use xlink:href="#DejaVuSans-3d" transform="translate(87.890625 0.015625)"/>
     <use xlink:href="#DejaVuSans-Oblique-62" transform="translate(191.162109 0.015625)"/>
     <use xlink:href="#DejaVuSans-22c5" transform="translate(274.121094 0.015625)"/>
     <use xlink:href="#DejaVuSans-Oblique-68" transform="translate(325.390625 0.015625)"/>
    </g>
   </g>
   <g id="text_16">
    <!-- PARALELOGRAMO -->
    <g style="fill: #1f2937" transform="translate(111.884844 372.956654) scale(0.11 -0.11)">
     <defs>
      <path id="DejaVuSans-Bold-50" d="M 588 4666 
L 2584 4666 
Q 3475 4666 3951 4270 
Q 4428 3875 4428 3144 
Q 4428 2409 3951 2014 
Q 3475 1619 2584 1619 
L 1791 1619 
L 1791 0 
L 588 0 
L 588 4666 
z
M 1791 3794 
L 1791 2491 
L 2456 2491 
Q 2806 2491 2997 2661 
Q 3188 2831 3188 3144 
Q 3188 3456 2997 3625 
Q 2806 3794 2456 3794 
L 1791 3794 
z
" transform="scale(0.015625)"/>
      <path id="DejaVuSans-Bold-4d" d="M 588 4666 
L 2119 4666 
L 3181 2169 
L 4250 4666 
L 5778 4666 
L 5778 0 
L 4641 0 
L 4641 3413 
L 3566 897 
L 2803 897 
L 1728 3413 
L 1728 0 
L 588 0 
L 588 4666 
z
" transform="scale(0.015625)"/>
     </defs>
     <use xlink:href="#DejaVuSans-Bold-50"/>
     <use xlink:href="#DejaVuSans-Bold-41" transform="translate(64.166016 0)"/>
     <use xlink:href="#DejaVuSans-Bold-52" transform="translate(141.558594 0)"/>
     <use xlink:href="#DejaVuSans-Bold-41" transform="translate(218.560547 0)"/>
     <use xlink:href="#DejaVuSans-Bold-4c" transform="translate(295.953125 0)"/>
     <use xlink:href="#DejaVuSans-Bold-45" transform="translate(359.673828 0)"/>
     <use xlink:href="#DejaVuSans-Bold-4c" transform="translate(427.984375 0)"/>
     <use xlink:href="#DejaVuSans-Bold-4f" transform="translate(488.080078 0)"/>
     <use xlink:href="#DejaVuSans-Bold-47" transform="translate(573.089844 0)"/>
     <use xlink:href="#DejaVuSans-Bold-52" transform="translate(655.169922 0)"/>
     <use xlink:href="#DejaVuSans-Bold-41" transform="translate(732.171875 0)"/>
     <use xlink:href="#DejaVuSans-Bold-4d" transform="translate(809.564453 0)"/>
     <use xlink:href="#DejaVuSans-Bold-4f" transform="translate(909.076172 0)"/>
    </g>
   </g>
  </g>
  <g id="axes_5">
   <g id="patch_6">
    <path d="M 418.56 582.156654 
L 617.76 582.156654 
L 567.96 462.636654 
L 458.4 462.636654 
z
" clip-path="url(#pedbf2409a5)" style="fill: #f59e0b; opacity: 0.3; stroke: #f59e0b; stroke-width: 2; stroke-linejoin: miter"/>
   </g>
   <g id="line2d_6">
    <path d="M 518.16 582.156654 
L 518.16 462.636654 
" clip-path="url(#pedbf2409a5)" style="fill: none; stroke-dasharray: 5.55,2.4; stroke-dashoffset: 0; stroke: #2563eb; stroke-width: 1.5"/>
   </g>
   <g id="text_17">
    <!-- B -->
    <g style="fill: #f59e0b" transform="translate(513.586875 612.036654) scale(0.12 -0.12)">
     <defs>
      <path id="DejaVuSans-Bold-42" d="M 2456 2859 
Q 2741 2859 2887 2984 
Q 3034 3109 3034 3353 
Q 3034 3594 2887 3720 
Q 2741 3847 2456 3847 
L 1791 3847 
L 1791 2859 
L 2456 2859 
z
M 2497 819 
Q 2859 819 3042 972 
Q 3225 1125 3225 1434 
Q 3225 1738 3044 1889 
Q 2863 2041 2497 2041 
L 1791 2041 
L 1791 819 
L 2497 819 
z
M 3616 2497 
Q 4003 2384 4215 2081 
Q 4428 1778 4428 1338 
Q 4428 663 3972 331 
Q 3516 0 2584 0 
L 588 0 
L 588 4666 
L 2394 4666 
Q 3366 4666 3802 4372 
Q 4238 4078 4238 3431 
Q 4238 3091 4078 2852 
Q 3919 2613 3616 2497 
z
" transform="scale(0.015625)"/>
     </defs>
     <use xlink:href="#DejaVuSans-Bold-42"/>
    </g>
   </g>
   <g id="text_18">
    <!-- b -->
    <g style="fill: #f59e0b" transform="translate(508.885312 442.716654) scale(0.12 -0.12)">
     <use xlink:href="#DejaVuSans-Bold-62"/>
    </g>
   </g>
   <g id="text_19">
    <!-- h -->
    <g style="fill: #2563eb" transform="translate(488.98875 522.396654) scale(0.12 -0.12)">
     <use xlink:href="#DejaVuSans-Bold-68"/>
    </g>
   </g>
   <g id="text_20">
    <!-- $A = \frac{(B + b) \cdot h}{2}$ -->
    <g style="fill: #1f2937" transform="translate(483.645 651.876654) scale(0.13 -0.13)">
     <defs>
      <path id="DejaVuSans-28" d="M 1984 4856 
Q 1566 4138 1362 3434 
Q 1159 2731 1159 2009 
Q 1159 1288 1364 580 
Q 1569 -128 1984 -844 
L 1484 -844 
Q 1016 -109 783 600 
Q 550 1309 550 2009 
Q 550 2706 781 3412 
Q 1013 4119 1484 4856 
L 1984 4856 
z
" transform="scale(0.015625)"/>
      <path id="DejaVuSans-Oblique-42" d="M 1081 4666 
L 2694 4666 
Q 3350 4666 3675 4422 
Q 4000 4178 4000 3688 
Q 4000 3238 3720 2911 
Q 3441 2584 2988 2516 
Q 3375 2428 3569 2181 
Q 3763 1934 3763 1522 
Q 3763 819 3242 409 
Q 2722 0 1819 0 
L 172 0 
L 1081 4666 
z
M 1234 2228 
L 903 519 
L 1919 519 
Q 2491 519 2800 781 
Q 3109 1044 3109 1522 
Q 3109 1891 2904 2059 
Q 2700 2228 2247 2228 
L 1234 2228 
z
M 1606 4147 
L 1331 2741 
L 2272 2741 
Q 2775 2741 3058 2959 
Q 3341 3178 3341 3566 
Q 3341 3869 3150 4008 
Q 2959 4147 2541 4147 
L 1606 4147 
z
" transform="scale(0.015625)"/>
      <path id="DejaVuSans-2b" d="M 2944 4013 
L 2944 2272 
L 4684 2272 
L 4684 1741 
L 2944 1741 
L 2944 0 
L 2419 0 
L 2419 1741 
L 678 1741 
L 678 2272 
L 2419 2272 
L 2419 4013 
L 2944 4013 
z
" transform="scale(0.015625)"/>
      <path id="DejaVuSans-29" d="M 513 4856 
L 1013 4856 
Q 1481 4119 1714 3412 
Q 1947 2706 1947 2009 
Q 1947 1309 1714 600 
Q 1481 -109 1013 -844 
L 513 -844 
Q 928 -128 1133 580 
Q 1338 1288 1338 2009 
Q 1338 2731 1133 3434 
Q 928 4138 513 4856 
z
" transform="scale(0.015625)"/>
     </defs>
     <use xlink:href="#DejaVuSans-Oblique-41" transform="translate(0 0.782813)"/>
     <use xlink:href="#DejaVuSans-3d" transform="translate(87.890625 0.782813)"/>
     <use xlink:href="#DejaVuSans-28" transform="translate(191.162109 53.810938) scale(0.7)"/>
     <use xlink:href="#DejaVuSans-Oblique-42" transform="translate(218.47168 53.810938) scale(0.7)"/>
     <use xlink:href="#DejaVuSans-2b" transform="translate(280.131836 53.810938) scale(0.7)"/>
     <use xlink:href="#DejaVuSans-Oblique-62" transform="translate(352.421875 53.810938) scale(0.7)"/>
     <use xlink:href="#DejaVuSans-29" transform="translate(396.855469 53.810938) scale(0.7)"/>
     <use xlink:href="#DejaVuSans-22c5" transform="translate(437.802734 53.810938) scale(0.7)"/>
     <use xlink:href="#DejaVuSans-Oblique-68" transform="translate(473.691406 53.810938) scale(0.7)"/>
     <use xlink:href="#DejaVuSans-32" transform="translate(332.162109 -38.623437) scale(0.7)"/>
     <path d="M 191.162109 19.579688 
L 191.162109 25.829688 
L 518.056641 25.829688 
L 518.056641 19.579688 
L 191.162109 19.579688 
z
"/>
    </g>
   </g>
   <g id="text_21">
    <!-- TRAPECIO -->
    <g style="fill: #1f2937" transform="translate(467.449453 372.956654) scale(0.11 -0.11)">
     <use xlink:href="#DejaVuSans-Bold-54"/>
     <use xlink:href="#DejaVuSans-Bold-52" transform="translate(68.212891 0)"/>
     <use xlink:href="#DejaVuSans-Bold-41" transform="translate(145.214844 0)"/>
     <use xlink:href="#DejaVuSans-Bold-50" transform="translate(222.607422 0)"/>
     <use xlink:href="#DejaVuSans-Bold-45" transform="translate(295.898438 0)"/>
     <use xlink:href="#DejaVuSans-Bold-43" transform="translate(364.208984 0)"/>
     <use xlink:href="#DejaVuSans-Bold-49" transform="translate(437.597656 0)"/>
     <use xlink:href="#DejaVuSans-Bold-4f" transform="translate(474.804688 0)"/>
    </g>
   </g>
  </g>
  <g id="axes_6">
   <g id="patch_7">
    <path d="M 909.6 512.436654 
L 909.419526 506.751334 
L 908.878829 501.088907 
L 907.980088 495.472173 
L 906.726922 489.923749 
L 905.124375 484.465976 
L 903.178902 479.120832 
L 900.898335 473.909838 
L 898.291858 468.853979 
L 895.369967 463.973612 
L 892.144426 459.288388 
L 888.628224 454.817173 
L 884.835519 450.577972 
L 880.781584 446.587854 
L 876.482741 442.862885 
L 871.956301 439.418066 
L 867.220491 436.267267 
L 862.294379 433.423175 
L 857.197802 430.897242 
L 851.951281 428.69964 
L 846.575942 426.839217 
L 841.093431 425.323465 
L 835.525823 424.158487 
L 829.895536 423.348974 
L 824.225243 422.898186 
L 818.537775 422.807938 
L 812.856034 423.078592 
L 807.202898 423.70906 
L 801.60113 424.696803 
L 796.073287 426.037843 
L 790.641628 427.726781 
L 785.328023 429.756815 
L 780.153869 432.119772 
L 775.14 434.806137 
L 770.306605 437.805093 
L 765.673148 441.104563 
L 761.258284 444.691263 
L 757.079791 448.550749 
L 753.154495 452.667481 
L 749.498201 457.024883 
L 746.125631 461.605408 
L 743.050367 466.390613 
L 740.28479 471.361229 
L 737.840038 476.497241 
L 735.725953 481.777969 
L 733.95105 487.182148 
L 732.522474 492.688018 
L 731.445978 498.273409 
L 730.725897 503.915831 
L 730.36513 509.592562 
L 730.36513 515.280746 
L 730.725897 520.957478 
L 731.445978 526.5999 
L 732.522474 532.185291 
L 733.95105 537.691161 
L 735.725953 543.09534 
L 737.840038 548.376068 
L 740.28479 553.51208 
L 743.050367 558.482696 
L 746.125631 563.267901 
L 749.498201 567.848426 
L 753.154495 572.205828 
L 757.079791 576.32256 
L 761.258284 580.182046 
L 765.673148 583.768746 
L 770.306605 587.068216 
L 775.14 590.067172 
L 780.153869 592.753536 
L 785.328023 595.116493 
L 790.641628 597.146528 
L 796.073287 598.835466 
L 801.60113 600.176506 
L 807.202898 601.164248 
L 812.856034 601.794717 
L 818.537775 602.065371 
L 824.225243 601.975123 
L 829.895536 601.524334 
L 835.525823 600.714821 
L 841.093431 599.549843 
L 846.575942 598.034091 
L 851.951281 596.173669 
L 857.197802 593.976066 
L 862.294379 591.450134 
L 867.220491 588.606042 
L 871.956301 585.455243 
L 876.482741 582.010423 
L 880.781584 578.285455 
L 884.835519 574.295337 
L 888.628224 570.056136 
L 892.144426 565.584921 
L 895.369967 560.899697 
L 898.291858 556.01933 
L 900.898335 550.96347 
L 903.178902 545.752477 
L 905.124375 540.407332 
L 906.726922 534.94956 
L 907.980088 529.401136 
L 908.878829 523.784402 
L 909.419526 518.121975 
L 909.6 512.436654 
z
" clip-path="url(#p60dd6b3a74)" style="fill: #ec4899; opacity: 0.3; stroke: #ec4899; stroke-linejoin: miter"/>
   </g>
   <g id="line2d_7">
    <path d="M 909.6 512.436654 
L 909.419526 506.751334 
L 908.878829 501.088907 
L 907.980088 495.472173 
L 906.726922 489.923749 
L 905.124375 484.465976 
L 903.178902 479.120832 
L 900.898335 473.909838 
L 898.291858 468.853979 
L 895.369967 463.973612 
L 892.144426 459.288388 
L 888.628224 454.817173 
L 884.835519 450.577972 
L 880.781584 446.587854 
L 876.482741 442.862885 
L 871.956301 439.418066 
L 867.220491 436.267267 
L 862.294379 433.423175 
L 857.197802 430.897242 
L 851.951281 428.69964 
L 846.575942 426.839217 
L 841.093431 425.323465 
L 835.525823 424.158487 
L 829.895536 423.348974 
L 824.225243 422.898186 
L 818.537775 422.807938 
L 812.856034 423.078592 
L 807.202898 423.70906 
L 801.60113 424.696803 
L 796.073287 426.037843 
L 790.641628 427.726781 
L 785.328023 429.756815 
L 780.153869 432.119772 
L 775.14 434.806137 
L 770.306605 437.805093 
L 765.673148 441.104563 
L 761.258284 444.691263 
L 757.079791 448.550749 
L 753.154495 452.667481 
L 749.498201 457.024883 
L 746.125631 461.605408 
L 743.050367 466.390613 
L 740.28479 471.361229 
L 737.840038 476.497241 
L 735.725953 481.777969 
L 733.95105 487.182148 
L 732.522474 492.688018 
L 731.445978 498.273409 
L 730.725897 503.915831 
L 730.36513 509.592562 
L 730.36513 515.280746 
L 730.725897 520.957478 
L 731.445978 526.5999 
L 732.522474 532.185291 
L 733.95105 537.691161 
L 735.725953 543.09534 
L 737.840038 548.376068 
L 740.28479 553.51208 
L 743.050367 558.482696 
L 746.125631 563.267901 
L 749.498201 567.848426 
L 753.154495 572.205828 
L 757.079791 576.32256 
L 761.258284 580.182046 
L 765.673148 583.768746 
L 770.306605 587.068216 
L 775.14 590.067172 
L 780.153869 592.753536 
L 785.328023 595.116493 
L 790.641628 597.146528 
L 796.073287 598.835466 
L 801.60113 600.176506 
L 807.202898 601.164248 
L 812.856034 601.794717 
L 818.537775 602.065371 
L 824.225243 601.975123 
L 829.895536 601.524334 
L 835.525823 600.714821 
L 841.093431 599.549843 
L 846.575942 598.034091 
L 851.951281 596.173669 
L 857.197802 593.976066 
L 862.294379 591.450134 
L 867.220491 588.606042 
L 871.956301 585.455243 
L 876.482741 582.010423 
L 880.781584 578.285455 
L 884.835519 574.295337 
L 888.628224 570.056136 
L 892.144426 565.584921 
L 895.369967 560.899697 
L 898.291858 556.01933 
L 900.898335 550.96347 
L 903.178902 545.752477 
L 905.124375 540.407332 
L 906.726922 534.94956 
L 907.980088 529.401136 
L 908.878829 523.784402 
L 909.419526 518.121975 
L 909.6 512.436654 
" clip-path="url(#p60dd6b3a74)" style="fill: none; stroke: #ec4899; stroke-width: 2; stroke-linecap: square"/>
   </g>
   <g id="line2d_8">
    <path d="M 819.96 512.436654 
L 909.6 512.436654 
" clip-path="url(#p60dd6b3a74)" style="fill: none; stroke: #2563eb; stroke-width: 2; stroke-linecap: square"/>
   </g>
   <g id="line2d_9">
    <defs>
     <path id="mfdbfae5642" d="M 0 2 
C 0.530406 2 1.03916 1.789267 1.414214 1.414214 
C 1.789267 1.03916 2 0.530406 2 0 
C 2 -0.530406 1.789267 -1.03916 1.414214 -1.414214 
C 1.03916 -1.789267 0.530406 -2 0 -2 
C -0.530406 -2 -1.03916 -1.789267 -1.414214 -1.414214 
C -1.789267 -1.03916 -2 -0.530406 -2 0 
C -2 0.530406 -1.789267 1.03916 -1.414214 1.414214 
C -1.03916 1.789267 -0.530406 2 0 2 
z
" style="stroke: #374151"/>
    </defs>
    <g clip-path="url(#p60dd6b3a74)">
     <use xlink:href="#mfdbfae5642" x="819.96" y="512.436654" style="fill: #374151; stroke: #374151"/>
    </g>
   </g>
   <g id="text_22">
    <!-- r -->
    <g style="fill: #2563eb" transform="translate(864.78 497.496654) scale(0.12 -0.12)">
     <defs>
      <path id="DejaVuSans-Bold-72" d="M 3138 2547 
Q 2991 2616 2845 2648 
Q 2700 2681 2553 2681 
Q 2122 2681 1889 2404 
Q 1656 2128 1656 1613 
L 1656 0 
L 538 0 
L 538 3500 
L 1656 3500 
L 1656 2925 
Q 1872 3269 2151 3426 
Q 2431 3584 2822 3584 
Q 2878 3584 2943 3579 
Q 3009 3575 3134 3559 
L 3138 2547 
z
" transform="scale(0.015625)"/>
     </defs>
     <use xlink:href="#DejaVuSans-Bold-72"/>
    </g>
   </g>
   <g id="text_23">
    <!-- $A = \pi r^2$ -->
    <g style="fill: #1f2937" transform="translate(797.535 636.936654) scale(0.13 -0.13)">
     <defs>
      <path id="DejaVuSans-Oblique-3c0" d="M 584 3500 
L 3938 3500 
L 3825 2925 
L 3384 2925 
L 2966 775 
Q 2922 550 2981 450 
Q 3038 353 3209 353 
Q 3256 353 3325 363 
Q 3397 369 3419 372 
L 3338 -44 
Q 3222 -84 3103 -103 
Q 2981 -122 2866 -122 
Q 2491 -122 2388 81 
Q 2284 288 2391 838 
L 2797 2925 
L 1506 2925 
L 938 0 
L 350 0 
L 919 2925 
L 472 2925 
L 584 3500 
z
" transform="scale(0.015625)"/>
      <path id="DejaVuSans-Oblique-72" d="M 2853 2969 
Q 2766 3016 2653 3041 
Q 2541 3066 2413 3066 
Q 1953 3066 1609 2717 
Q 1266 2369 1153 1784 
L 800 0 
L 225 0 
L 909 3500 
L 1484 3500 
L 1375 2956 
Q 1603 3259 1920 3421 
Q 2238 3584 2597 3584 
Q 2691 3584 2781 3573 
Q 2872 3563 2963 3538 
L 2853 2969 
z
" transform="scale(0.015625)"/>
     </defs>
     <use xlink:href="#DejaVuSans-Oblique-41" transform="translate(0 0.765625)"/>
     <use xlink:href="#DejaVuSans-3d" transform="translate(87.890625 0.765625)"/>
     <use xlink:href="#DejaVuSans-Oblique-3c0" transform="translate(191.162109 0.765625)"/>
     <use xlink:href="#DejaVuSans-Oblique-72" transform="translate(251.367188 0.765625)"/>
     <use xlink:href="#DejaVuSans-32" transform="translate(297.130365 39.046875) scale(0.7)"/>
    </g>
   </g>
   <g id="text_24">
    <!-- CÍRCULO -->
    <g style="fill: #1f2937" transform="translate(803.118672 372.956654) scale(0.11 -0.11)">
     <defs>
      <path id="DejaVuSans-Bold-cd" d="M 588 4666 
L 1791 4666 
L 1791 0 
L 588 0 
L 588 4666 
z
M 1271 5921 
L 2156 5921 
L 1265 5096 
L 653 5096 
L 1271 5921 
z
" transform="scale(0.015625)"/>
     </defs>
     <use xlink:href="#DejaVuSans-Bold-43"/>
     <use xlink:href="#DejaVuSans-Bold-cd" transform="translate(73.388672 0)"/>
     <use xlink:href="#DejaVuSans-Bold-52" transform="translate(110.595703 0)"/>
     <use xlink:href="#DejaVuSans-Bold-43" transform="translate(187.597656 0)"/>
     <use xlink:href="#DejaVuSans-Bold-55" transform="translate(260.986328 0)"/>
     <use xlink:href="#DejaVuSans-Bold-4c" transform="translate(342.1875 0)"/>
     <use xlink:href="#DejaVuSans-Bold-4f" transform="translate(402.283203 0)"/>
    </g>
   </g>
  </g>
  <g id="text_25">
   <!-- Fórmulas de Áreas de Figuras Planas -->
   <g style="fill: #1f2937" transform="translate(352.057031 20.152187) scale(0.14 -0.14)">
    <defs>
     <path id="DejaVuSans-Bold-46" d="M 588 4666 
L 3834 4666 
L 3834 3756 
L 1791 3756 
L 1791 2888 
L 3713 2888 
L 3713 1978 
L 1791 1978 
L 1791 0 
L 588 0 
L 588 4666 
z
" transform="scale(0.015625)"/>
     <path id="DejaVuSans-Bold-f3" d="M 2203 2784 
Q 1831 2784 1636 2517 
Q 1441 2250 1441 1747 
Q 1441 1244 1636 976 
Q 1831 709 2203 709 
Q 2569 709 2762 976 
Q 2956 1244 2956 1747 
Q 2956 2250 2762 2517 
Q 2569 2784 2203 2784 
z
M 2203 3584 
Q 3106 3584 3614 3096 
Q 4122 2609 4122 1747 
Q 4122 884 3614 396 
Q 3106 -91 2203 -91 
Q 1297 -91 786 396 
Q 275 884 275 1747 
Q 275 2609 786 3096 
Q 1297 3584 2203 3584 
z
M 2694 5119 
L 3578 5119 
L 2425 3944 
L 1813 3944 
L 2694 5119 
z
" transform="scale(0.015625)"/>
     <path id="DejaVuSans-Bold-6d" d="M 3781 2919 
Q 3994 3244 4286 3414 
Q 4578 3584 4928 3584 
Q 5531 3584 5847 3212 
Q 6163 2841 6163 2131 
L 6163 0 
L 5038 0 
L 5038 1825 
Q 5041 1866 5042 1909 
Q 5044 1953 5044 2034 
Q 5044 2406 4934 2573 
Q 4825 2741 4581 2741 
Q 4263 2741 4089 2478 
Q 3916 2216 3909 1719 
L 3909 0 
L 2784 0 
L 2784 1825 
Q 2784 2406 2684 2573 
Q 2584 2741 2328 2741 
Q 2006 2741 1831 2477 
Q 1656 2213 1656 1722 
L 1656 0 
L 531 0 
L 531 3500 
L 1656 3500 
L 1656 2988 
Q 1863 3284 2130 3434 
Q 2397 3584 2719 3584 
Q 3081 3584 3359 3409 
Q 3638 3234 3781 2919 
z
" transform="scale(0.015625)"/>
     <path id="DejaVuSans-Bold-75" d="M 500 1363 
L 500 3500 
L 1625 3500 
L 1625 3150 
Q 1625 2866 1622 2436 
Q 1619 2006 1619 1863 
Q 1619 1441 1641 1255 
Q 1663 1069 1716 984 
Q 1784 875 1895 815 
Q 2006 756 2150 756 
Q 2500 756 2700 1025 
Q 2900 1294 2900 1772 
L 2900 3500 
L 4019 3500 
L 4019 0 
L 2900 0 
L 2900 506 
Q 2647 200 2364 54 
Q 2081 -91 1741 -91 
Q 1134 -91 817 281 
Q 500 653 500 1363 
z
" transform="scale(0.015625)"/>
     <path id="DejaVuSans-Bold-61" d="M 2106 1575 
Q 1756 1575 1579 1456 
Q 1403 1338 1403 1106 
Q 1403 894 1545 773 
Q 1688 653 1941 653 
Q 2256 653 2472 879 
Q 2688 1106 2688 1447 
L 2688 1575 
L 2106 1575 
z
M 3816 1997 
L 3816 0 
L 2688 0 
L 2688 519 
Q 2463 200 2181 54 
Q 1900 -91 1497 -91 
Q 953 -91 614 226 
Q 275 544 275 1050 
Q 275 1666 698 1953 
Q 1122 2241 2028 2241 
L 2688 2241 
L 2688 2328 
Q 2688 2594 2478 2717 
Q 2269 2841 1825 2841 
Q 1466 2841 1156 2769 
Q 847 2697 581 2553 
L 581 3406 
Q 941 3494 1303 3539 
Q 1666 3584 2028 3584 
Q 2975 3584 3395 3211 
Q 3816 2838 3816 1997 
z
" transform="scale(0.015625)"/>
     <path id="DejaVuSans-Bold-73" d="M 3272 3391 
L 3272 2541 
Q 2913 2691 2578 2766 
Q 2244 2841 1947 2841 
Q 1628 2841 1473 2761 
Q 1319 2681 1319 2516 
Q 1319 2381 1436 2309 
Q 1553 2238 1856 2203 
L 2053 2175 
Q 2913 2066 3209 1816 
Q 3506 1566 3506 1031 
Q 3506 472 3093 190 
Q 2681 -91 1863 -91 
Q 1516 -91 1145 -36 
Q 775 19 384 128 
L 384 978 
Q 719 816 1070 734 
Q 1422 653 1784 653 
Q 2113 653 2278 743 
Q 2444 834 2444 1013 
Q 2444 1163 2330 1236 
Q 2216 1309 1875 1350 
L 1678 1375 
Q 931 1469 631 1722 
Q 331 1975 331 2491 
Q 331 3047 712 3315 
Q 1094 3584 1881 3584 
Q 2191 3584 2531 3537 
Q 2872 3491 3272 3391 
z
" transform="scale(0.015625)"/>
     <path id="DejaVuSans-Bold-20" transform="scale(0.015625)"/>
     <path id="DejaVuSans-Bold-64" d="M 2919 2988 
L 2919 4863 
L 4044 4863 
L 4044 0 
L 2919 0 
L 2919 506 
Q 2688 197 2409 53 
Q 2131 -91 1766 -91 
Q 1119 -91 703 423 
Q 288 938 288 1747 
Q 288 2556 703 3070 
Q 1119 3584 1766 3584 
Q 2128 3584 2408 3439 
Q 2688 3294 2919 2988 
z
M 2181 722 
Q 2541 722 2730 984 
Q 2919 1247 2919 1747 
Q 2919 2247 2730 2509 
Q 2541 2772 2181 2772 
Q 1825 2772 1636 2509 
Q 1447 2247 1447 1747 
Q 1447 1247 1636 984 
Q 1825 722 2181 722 
z
" transform="scale(0.015625)"/>
     <path id="DejaVuSans-Bold-65" d="M 4031 1759 
L 4031 1441 
L 1416 1441 
Q 1456 1047 1700 850 
Q 1944 653 2381 653 
Q 2734 653 3104 758 
Q 3475 863 3866 1075 
L 3866 213 
Q 3469 63 3072 -14 
Q 2675 -91 2278 -91 
Q 1328 -91 801 392 
Q 275 875 275 1747 
Q 275 2603 792 3093 
Q 1309 3584 2216 3584 
Q 3041 3584 3536 3087 
Q 4031 2591 4031 1759 
z
M 2881 2131 
Q 2881 2450 2695 2645 
Q 2509 2841 2209 2841 
Q 1884 2841 1681 2658 
Q 1478 2475 1428 2131 
L 2881 2131 
z
" transform="scale(0.015625)"/>
     <path id="DejaVuSans-Bold-69" d="M 538 3500 
L 1656 3500 
L 1656 0 
L 538 0 
L 538 3500 
z
M 538 4863 
L 1656 4863 
L 1656 3950 
L 538 3950 
L 538 4863 
z
" transform="scale(0.015625)"/>
     <path id="DejaVuSans-Bold-67" d="M 2919 594 
Q 2688 288 2409 144 
Q 2131 0 1766 0 
Q 1125 0 706 504 
Q 288 1009 288 1791 
Q 288 2575 706 3076 
Q 1125 3578 1766 3578 
Q 2131 3578 2409 3434 
Q 2688 3291 2919 2981 
L 2919 3500 
L 4044 3500 
L 4044 353 
Q 4044 -491 3511 -936 
Q 2978 -1381 1966 -1381 
Q 1638 -1381 1331 -1331 
Q 1025 -1281 716 -1178 
L 716 -306 
Q 1009 -475 1290 -558 
Q 1572 -641 1856 -641 
Q 2406 -641 2662 -400 
Q 2919 -159 2919 353 
L 2919 594 
z
M 2181 2772 
Q 1834 2772 1640 2515 
Q 1447 2259 1447 1791 
Q 1447 1309 1634 1061 
Q 1822 813 2181 813 
Q 2531 813 2725 1069 
Q 2919 1325 2919 1791 
Q 2919 2259 2725 2515 
Q 2531 2772 2181 2772 
z
" transform="scale(0.015625)"/>
     <path id="DejaVuSans-Bold-6e" d="M 4056 2131 
L 4056 0 
L 2931 0 
L 2931 347 
L 2931 1631 
Q 2931 2084 2911 2256 
Q 2891 2428 2841 2509 
Q 2775 2619 2662 2680 
Q 2550 2741 2406 2741 
Q 2056 2741 1856 2470 
Q 1656 2200 1656 1722 
L 1656 0 
L 538 0 
L 538 3500 
L 1656 3500 
L 1656 2988 
Q 1909 3294 2193 3439 
Q 2478 3584 2822 3584 
Q 3428 3584 3742 3212 
Q 4056 2841 4056 2131 
z
" transform="scale(0.015625)"/>
    </defs>
    <use xlink:href="#DejaVuSans-Bold-46"/>
    <use xlink:href="#DejaVuSans-Bold-f3" transform="translate(64.310547 0)"/>
    <use xlink:href="#DejaVuSans-Bold-72" transform="translate(133.011719 0)"/>
    <use xlink:href="#DejaVuSans-Bold-6d" transform="translate(182.328125 0)"/>
    <use xlink:href="#DejaVuSans-Bold-75" transform="translate(286.527344 0)"/>
    <use xlink:href="#DejaVuSans-Bold-6c" transform="translate(357.71875 0)"/>
    <use xlink:href="#DejaVuSans-Bold-61" transform="translate(391.996094 0)"/>
    <use xlink:href="#DejaVuSans-Bold-73" transform="translate(459.476562 0)"/>
    <use xlink:href="#DejaVuSans-Bold-20" transform="translate(518.998047 0)"/>
    <use xlink:href="#DejaVuSans-Bold-64" transform="translate(553.8125 0)"/>
    <use xlink:href="#DejaVuSans-Bold-65" transform="translate(625.394531 0)"/>
    <use xlink:href="#DejaVuSans-Bold-20" transform="translate(693.216797 0)"/>
    <use xlink:href="#DejaVuSans-Bold-c1" transform="translate(728.03125 0)"/>
    <use xlink:href="#DejaVuSans-Bold-72" transform="translate(805.423828 0)"/>
    <use xlink:href="#DejaVuSans-Bold-65" transform="translate(854.740234 0)"/>
    <use xlink:href="#DejaVuSans-Bold-61" transform="translate(922.5625 0)"/>
    <use xlink:href="#DejaVuSans-Bold-73" transform="translate(990.042969 0)"/>
    <use xlink:href="#DejaVuSans-Bold-20" transform="translate(1049.564453 0)"/>
    <use xlink:href="#DejaVuSans-Bold-64" transform="translate(1084.378906 0)"/>
    <use xlink:href="#DejaVuSans-Bold-65" transform="translate(1155.960938 0)"/>
    <use xlink:href="#DejaVuSans-Bold-20" transform="translate(1223.783203 0)"/>
    <use xlink:href="#DejaVuSans-Bold-46" transform="translate(1258.597656 0)"/>
    <use xlink:href="#DejaVuSans-Bold-69" transform="translate(1326.908203 0)"/>
    <use xlink:href="#DejaVuSans-Bold-67" transform="translate(1361.185547 0)"/>
    <use xlink:href="#DejaVuSans-Bold-75" transform="translate(1432.767578 0)"/>
    <use xlink:href="#DejaVuSans-Bold-72" transform="translate(1503.958984 0)"/>
    <use xlink:href="#DejaVuSans-Bold-61" transform="translate(1553.275391 0)"/>
    <use xlink:href="#DejaVuSans-Bold-73" transform="translate(1620.755859 0)"/>
    <use xlink:href="#DejaVuSans-Bold-20" transform="translate(1680.277344 0)"/>
    <use xlink:href="#DejaVuSans-Bold-50" transform="translate(1715.091797 0)"/>
    <use xlink:href="#DejaVuSans-Bold-6c" transform="translate(1788.382812 0)"/>
    <use xlink:href="#DejaVuSans-Bold-61" transform="translate(1822.660156 0)"/>
    <use xlink:href="#DejaVuSans-Bold-6e" transform="translate(1890.140625 0)"/>
    <use xlink:href="#DejaVuSans-Bold-61" transform="translate(1961.332031 0)"/>
    <use xlink:href="#DejaVuSans-Bold-73" transform="translate(2028.8125 0)"/>
   </g>
  </g>
 </g>
 <defs>
  <clipPath id="p44240f1f09">
   <rect x="7.2" y="52.985551" width="318.72" height="298.8"/>
  </clipPath>
  <clipPath id="p7c98ec72e1">
   <rect x="338.88" y="52.985551" width="318.72" height="298.8"/>
  </clipPath>
  <clipPath id="p478a5c1975">
   <rect x="670.56" y="52.985551" width="318.72" height="298.8"/>
  </clipPath>
  <clipPath id="p8e4eaedb35">
   <rect x="7.2" y="382.956654" width="318.72" height="298.8"/>
  </clipPath>
  <clipPath id="pedbf2409a5">
   <rect x="338.88" y="382.956654" width="318.72" height="298.8"/>
  </clipPath>
  <clipPath id="p60dd6b3a74">
   <rect x="670.56" y="382.956654" width="318.72" height="298.8"/>
  </clipPath>
 </defs>
</svg>
