<?xml version="1.0" encoding="utf-8" standalone="no"?>
<!DOCTYPE svg PUBLIC "-//W3C//DTD SVG 1.1//EN"
  "http://www.w3.org/Graphics/SVG/1.1/DTD/svg11.dtd">
<svg xmlns:xlink="http://www.w3.org/1999/xlink" width="1016.39952pt" height="712.477702pt" viewBox="0 0 1016.39952 712.477702" xmlns="http://www.w3.org/2000/svg" version="1.1">
 <metadata>
  <rdf:RDF xmlns:dc="http://purl.org/dc/elements/1.1/" xmlns:cc="http://creativecommons.org/ns#" xmlns:rdf="http://www.w3.org/1999/02/22-rdf-syntax-ns#">
   <cc:Work>
    <dc:type rdf:resource="http://purl.org/dc/dcmitype/StillImage"/>
    <dc:date>2026-01-03T21:56:38.950513</dc:date>
    <dc:format>image/svg+xml</dc:format>
    <dc:creator>
     <cc:Agent>
      <dc:title>Repositorio Matemáticas Universitarias</dc:title>
     </cc:Agent>
    </dc:creator>
   </cc:Work>
  </rdf:RDF>
 </metadata>
 <defs>
  <style type="text/css">*{stroke-linejoin: round; stroke-linecap: butt}</style>
 </defs>
 <g id="figure_1">
  <g id="patch_1">
   <path d="M 0 712.477702 
L 1016.39952 712.477702 
L 1016.39952 0 
L 0 0 
z
" style="fill: #ffffff"/>
  </g>
  <g id="axes_1">
   <g id="patch_2">
    <path d="M 58.687475 252.689794 
L 213.1499 252.689794 
L 213.1499 98.227369 
L 58.687475 98.227369 
z
" clip-path="url(#pd906eb7971)" style="fill: #2563eb; opacity: 0.3; stroke: #2563eb; stroke-width: 2; stroke-linejoin: miter"/>
   </g>
   <g id="text_1">
    <!-- l -->
    <g style="fill: #2563eb" transform="translate(133.861813 283.582279) scale(0.12 -0.12)">
     <defs>
      <path id="DejaVuSans-Bold-6c" d="M 538 4863 
L 1656 4863 
L 1656 0 
L 538 0 
L 538 4863 
z
" transform="scale(0.015625)"/>
     </defs>
     <use xlink:href="#DejaVuSans-Bold-6c"/>
    </g>
   </g>
   <g id="text_2">
    <!-- l -->
    <g style="fill: #2563eb" transform="translate(30.886863 175.458582) scale(0.12 -0.12)">
     <use xlink:href="#DejaVuSans-Bold-6c"/>
    </g>
   </g>
   <g id="text_3">
    <!-- $A = l^2$ -->
    <g style="fill: #1f2937" transform="translate(118.108688 324.772259) scale(0.13 -0.13)">
     <defs>
      <path id="DejaVuSans-Oblique-41" d="M 2356 4666 
L 3072 4666 
L 3938 0 
L 3278 0 
L 3084 1197 
L 984 1197 
L 325 0 
L -341 0 
L 2356 4666 
z
M 2584 4044 
L 1275 1722 
L 2988 1722 
L 2584 4044 
z
" transform="scale(0.015625)"/>
      <path id="DejaVuSans-3d" d="M 678 2906 
L 4684 2906 
L 4684 2381 
L 678 2381 
L 678 2906 
z
M 678 1631 
L 4684 1631 
L 4684 1100 
L 678 1100 
L 678 1631 
z
" transform="scale(0.015625)"/>
      <path id="DejaVuSans-Oblique-6c" d="M 1172 4863 
L 1747 4863 
L 800 0 
L 225 0 
L 1172 4863 
z
" transform="scale(0.015625)"/>
      <path id="DejaVuSans-32" d="M 1228 531 
L 3431 531 
L 3431 0 
L 469 0 
L 469 531 
Q 828 903 1448 1529 
Q 2069 2156 2228 2338 
Q 2531 2678 2651 2914 
Q 2772 3150 2772 3378 
Q 2772 3750 2511 3984 
Q 2250 4219 1831 4219 
Q 1534 4219 1204 4116 
Q 875 4013 500 3803 
L 500 4441 
Q 881 4594 1212 4672 
Q 1544 4750 1819 4750 
Q 2544 4750 2975 4387 
Q 3406 4025 3406 3419 
Q 3406 3131 3298 2873 
Q 3191 2616 2906 2266 
Q 2828 2175 2409 1742 
Q 1991 1309 1228 531 
z
" transform="scale(0.015625)"/>
     </defs>
     <use xlink:href="#DejaVuSans-Oblique-41" transform="translate(0 0.765625)"/>
     <use xlink:href="#DejaVuSans-3d" transform="translate(87.890625 0.765625)"/>
     <use xlink:href="#DejaVuSans-Oblique-6c" transform="translate(191.162109 0.765625)"/>
     <use xlink:href="#DejaVuSans-32" transform="translate(226.393021 39.046875) scale(0.7)"/>
    </g>
   </g>
   <g id="text_4">
    <!-- CUADRADO -->
    <g style="fill: #1f2937" transform="translate(137.073592 36.739894) scale(0.11 -0.11)">
     <defs>
      <path id="DejaVuSans-Bold-43" d="M 4288 256 
Q 3956 84 3597 -3 
Q 3238 -91 2847 -91 
Q 1681 -91 1000 561 
Q 319 1213 319 2328 
Q 319 3447 1000 4098 
Q 1681 4750 2847 4750 
Q 3238 4750 3597 4662 
Q 3956 4575 4288 4403 
L 4288 3438 
Q 3953 3666 3628 3772 
Q 3303 3878 2944 3878 
Q 2300 3878 1931 3465 
Q 1563 3053 1563 2328 
Q 1563 1606 1931 1193 
Q 2300 781 2944 781 
Q 3303 781 3628 887 
Q 3953 994 4288 1222 
L 4288 256 
z
" transform="scale(0.015625)"/>
      <path id="DejaVuSans-Bold-55" d="M 588 4666 
L 1791 4666 
L 1791 1869 
Q 1791 1291 1980 1042 
Q 2169 794 2597 794 
Q 3028 794 3217 1042 
Q 3406 1291 3406 1869 
L 3406 4666 
L 4609 4666 
L 4609 1869 
Q 4609 878 4112 393 
Q 3616 -91 2597 -91 
Q 1581 -91 1084 393 
Q 588 878 588 1869 
L 588 4666 
z
" transform="scale(0.015625)"/>
      <path id="DejaVuSans-Bold-41" d="M 3419 850 
L 1538 850 
L 1241 0 
L 31 0 
L 1759 4666 
L 3194 4666 
L 4922 0 
L 3713 0 
L 3419 850 
z
M 1838 1716 
L 3116 1716 
L 2478 3572 
L 1838 1716 
z
" transform="scale(0.015625)"/>
      <path id="DejaVuSans-Bold-44" d="M 1791 3756 
L 1791 909 
L 2222 909 
Q 2959 909 3348 1275 
Q 3738 1641 3738 2338 
Q 3738 3031 3350 3393 
Q 2963 3756 2222 3756 
L 1791 3756 
z
M 588 4666 
L 1856 4666 
Q 2919 4666 3439 4514 
Q 3959 4363 4331 4000 
Q 4659 3684 4818 3271 
Q 4978 2859 4978 2338 
Q 4978 1809 4818 1395 
Q 4659 981 4331 666 
Q 3956 303 3431 151 
Q 2906 0 1856 0 
L 588 0 
L 588 4666 
z
" transform="scale(0.015625)"/>
      <path id="DejaVuSans-Bold-52" d="M 2297 2597 
Q 2675 2597 2839 2737 
Q 3003 2878 3003 3200 
Q 3003 3519 2839 3656 
Q 2675 3794 2297 3794 
L 1791 3794 
L 1791 2597 
L 2297 2597 
z
M 1791 1766 
L 1791 0 
L 588 0 
L 588 4666 
L 2425 4666 
Q 3347 4666 3776 4356 
Q 4206 4047 4206 3378 
Q 4206 2916 3982 2619 
Q 3759 2322 3309 2181 
Q 3556 2125 3751 1926 
Q 3947 1728 4147 1325 
L 4800 0 
L 3519 0 
L 2950 1159 
Q 2778 1509 2601 1637 
Q 2425 1766 2131 1766 
L 1791 1766 
z
" transform="scale(0.015625)"/>
      <path id="DejaVuSans-Bold-4f" d="M 2719 3878 
Q 2169 3878 1866 3472 
Q 1563 3066 1563 2328 
Q 1563 1594 1866 1187 
Q 2169 781 2719 781 
Q 3272 781 3575 1187 
Q 3878 1594 3878 2328 
Q 3878 3066 3575 3472 
Q 3272 3878 2719 3878 
z
M 2719 4750 
Q 3844 4750 4481 4106 
Q 5119 3463 5119 2328 
Q 5119 1197 4481 553 
Q 3844 -91 2719 -91 
Q 1597 -91 958 553 
Q 319 1197 319 2328 
Q 319 3463 958 4106 
Q 1597 4750 2719 4750 
z
" transform="scale(0.015625)"/>
     </defs>
     <use xlink:href="#DejaVuSans-Bold-43"/>
     <use xlink:href="#DejaVuSans-Bold-55" transform="translate(73.388672 0)"/>
     <use xlink:href="#DejaVuSans-Bold-41" transform="translate(151.464844 0)"/>
     <use xlink:href="#DejaVuSans-Bold-44" transform="translate(228.857422 0)"/>
     <use xlink:href="#DejaVuSans-Bold-52" transform="translate(311.865234 0)"/>
     <use xlink:href="#DejaVuSans-Bold-41" transform="translate(388.867188 0)"/>
     <use xlink:href="#DejaVuSans-Bold-44" transform="translate(466.259766 0)"/>
     <use xlink:href="#DejaVuSans-Bold-4f" transform="translate(549.267578 0)"/>
    </g>
   </g>
  </g>
  <g id="axes_2">
   <g id="patch_3">
    <path d="M 394.927315 252.689794 
L 600.877215 252.689794 
L 600.877215 129.119854 
L 394.927315 129.119854 
z
" clip-path="url(#pf856a9ce29)" style="fill: #dc2626; opacity: 0.3; stroke: #dc2626; stroke-width: 2; stroke-linejoin: miter"/>
   </g>
   <g id="text_5">
    <!-- b -->
    <g style="fill: #dc2626" transform="translate(493.607578 283.582279) scale(0.12 -0.12)">
     <defs>
      <path id="DejaVuSans-Bold-62" d="M 2400 722 
Q 2759 722 2948 984 
Q 3138 1247 3138 1747 
Q 3138 2247 2948 2509 
Q 2759 2772 2400 2772 
Q 2041 2772 1848 2508 
Q 1656 2244 1656 1747 
Q 1656 1250 1848 986 
Q 2041 722 2400 722 
z
M 1656 2988 
Q 1888 3294 2169 3439 
Q 2450 3584 2816 3584 
Q 3463 3584 3878 3070 
Q 4294 2556 4294 1747 
Q 4294 938 3878 423 
Q 3463 -91 2816 -91 
Q 2450 -91 2169 54 
Q 1888 200 1656 506 
L 1656 0 
L 538 0 
L 538 4863 
L 1656 4863 
L 1656 2988 
z
" transform="scale(0.015625)"/>
     </defs>
     <use xlink:href="#DejaVuSans-Bold-62"/>
    </g>
   </g>
   <g id="text_6">
    <!-- h -->
    <g style="fill: #dc2626" transform="translate(364.912328 190.904824) scale(0.12 -0.12)">
     <defs>
      <path id="DejaVuSans-Bold-68" d="M 4056 2131 
L 4056 0 
L 2931 0 
L 2931 347 
L 2931 1625 
Q 2931 2084 2911 2256 
Q 2891 2428 2841 2509 
Q 2775 2619 2662 2680 
Q 2550 2741 2406 2741 
Q 2056 2741 1856 2470 
Q 1656 2200 1656 1722 
L 1656 0 
L 538 0 
L 538 4863 
L 1656 4863 
L 1656 2988 
Q 1909 3294 2193 3439 
Q 2478 3584 2822 3584 
Q 3428 3584 3742 3212 
Q 4056 2841 4056 2131 
z
" transform="scale(0.015625)"/>
     </defs>
     <use xlink:href="#DejaVuSans-Bold-68"/>
    </g>
   </g>
   <g id="text_7">
    <!-- $A = b \cdot h$ -->
    <g style="fill: #1f2937" transform="translate(472.617265 324.772259) scale(0.13 -0.13)">
     <defs>
      <path id="DejaVuSans-Oblique-62" d="M 3169 2138 
Q 3169 2591 2961 2847 
Q 2753 3103 2388 3103 
Q 2122 3103 1889 2973 
Q 1656 2844 1484 2597 
Q 1303 2338 1198 1995 
Q 1094 1653 1094 1313 
Q 1094 881 1298 636 
Q 1503 391 1863 391 
Q 2134 391 2365 517 
Q 2597 644 2772 891 
Q 2950 1147 3059 1487 
Q 3169 1828 3169 2138 
z
M 1381 2969 
Q 1594 3256 1914 3420 
Q 2234 3584 2584 3584 
Q 3122 3584 3439 3221 
Q 3756 2859 3756 2241 
Q 3756 1734 3570 1259 
Q 3384 784 3041 416 
Q 2816 172 2522 40 
Q 2228 -91 1906 -91 
Q 1566 -91 1316 65 
Q 1066 222 909 531 
L 806 0 
L 231 0 
L 1178 4863 
L 1753 4863 
L 1381 2969 
z
" transform="scale(0.015625)"/>
      <path id="DejaVuSans-22c5" d="M 684 2619 
L 1344 2619 
L 1344 1825 
L 684 1825 
L 684 2619 
z
" transform="scale(0.015625)"/>
      <path id="DejaVuSans-Oblique-68" d="M 3566 2113 
L 3156 0 
L 2578 0 
L 2988 2091 
Q 3016 2238 3031 2350 
Q 3047 2463 3047 2528 
Q 3047 2791 2881 2937 
Q 2716 3084 2419 3084 
Q 1956 3084 1617 2771 
Q 1278 2459 1178 1941 
L 800 0 
L 225 0 
L 1172 4863 
L 1747 4863 
L 1375 2950 
Q 1594 3244 1934 3414 
Q 2275 3584 2650 3584 
Q 3113 3584 3367 3334 
Q 3622 3084 3622 2631 
Q 3622 2519 3608 2391 
Q 3594 2263 3566 2113 
z
" transform="scale(0.015625)"/>
     </defs>
     <use xlink:href="#DejaVuSans-Oblique-41" transform="translate(0 0.015625)"/>
     <use xlink:href="#DejaVuSans-3d" transform="translate(87.890625 0.015625)"/>
     <use xlink:href="#DejaVuSans-Oblique-62" transform="translate(191.162109 0.015625)"/>
     <use xlink:href="#DejaVuSans-22c5" transform="translate(274.121094 0.015625)"/>
     <use xlink:href="#DejaVuSans-Oblique-68" transform="translate(325.390625 0.015625)"/>
    </g>
   </g>
   <g id="text_8">
    <!-- RECTÁNGULO -->
    <g style="fill: #1f2937" transform="translate(467.024526 36.739894) scale(0.11 -0.11)">
     <defs>
      <path id="DejaVuSans-Bold-45" d="M 588 4666 
L 3834 4666 
L 3834 3756 
L 1791 3756 
L 1791 2888 
L 3713 2888 
L 3713 1978 
L 1791 1978 
L 1791 909 
L 3903 909 
L 3903 0 
L 588 0 
L 588 4666 
z
" transform="scale(0.015625)"/>
      <path id="DejaVuSans-Bold-54" d="M 31 4666 
L 4331 4666 
L 4331 3756 
L 2784 3756 
L 2784 0 
L 1581 0 
L 1581 3756 
L 31 3756 
L 31 4666 
z
" transform="scale(0.015625)"/>
      <path id="DejaVuSans-Bold-c1" d="M 3419 850 
L 1538 850 
L 1241 0 
L 31 0 
L 1759 4666 
L 3194 4666 
L 4922 0 
L 3713 0 
L 3419 850 
z
M 1838 1716 
L 3116 1716 
L 2478 3572 
L 1838 1716 
z
M 2559 5921 
L 3444 5921 
L 2553 5096 
L 1941 5096 
L 2559 5921 
z
" transform="scale(0.015625)"/>
      <path id="DejaVuSans-Bold-4e" d="M 588 4666 
L 1931 4666 
L 3628 1466 
L 3628 4666 
L 4769 4666 
L 4769 0 
L 3425 0 
L 1728 3200 
L 1728 0 
L 588 0 
L 588 4666 
z
" transform="scale(0.015625)"/>
      <path id="DejaVuSans-Bold-47" d="M 4781 347 
Q 4331 128 3847 18 
Q 3363 -91 2847 -91 
Q 1681 -91 1000 561 
Q 319 1213 319 2328 
Q 319 3456 1012 4103 
Q 1706 4750 2913 4750 
Q 3378 4750 3804 4662 
Q 4231 4575 4609 4403 
L 4609 3438 
Q 4219 3659 3833 3768 
Q 3447 3878 3059 3878 
Q 2341 3878 1952 3476 
Q 1563 3075 1563 2328 
Q 1563 1588 1938 1184 
Q 2313 781 3003 781 
Q 3191 781 3352 804 
Q 3513 828 3641 878 
L 3641 1784 
L 2906 1784 
L 2906 2591 
L 4781 2591 
L 4781 347 
z
" transform="scale(0.015625)"/>
      <path id="DejaVuSans-Bold-4c" d="M 588 4666 
L 1791 4666 
L 1791 909 
L 3903 909 
L 3903 0 
L 588 0 
L 588 4666 
z
" transform="scale(0.015625)"/>
     </defs>
     <use xlink:href="#DejaVuSans-Bold-52"/>
     <use xlink:href="#DejaVuSans-Bold-45" transform="translate(77.001953 0)"/>
     <use xlink:href="#DejaVuSans-Bold-43" transform="translate(145.3125 0)"/>
     <use xlink:href="#DejaVuSans-Bold-54" transform="translate(218.701172 0)"/>
     <use xlink:href="#DejaVuSans-Bold-c1" transform="translate(279.164062 0)"/>
     <use xlink:href="#DejaVuSans-Bold-4e" transform="translate(356.556641 0)"/>
     <use xlink:href="#DejaVuSans-Bold-47" transform="translate(440.248047 0)"/>
     <use xlink:href="#DejaVuSans-Bold-55" transform="translate(522.328125 0)"/>
     <use xlink:href="#DejaVuSans-Bold-4c" transform="translate(603.529297 0)"/>
     <use xlink:href="#DejaVuSans-Bold-4f" transform="translate(663.625 0)"/>
    </g>
   </g>
  </g>
  <g id="axes_3">
   <g id="patch_4">
    <path d="M 731.167155 252.689794 
L 937.117055 252.689794 
L 813.547115 108.524864 
z
" clip-path="url(#p40a5075724)" style="fill: #059669; opacity: 0.3; stroke: #059669; stroke-width: 2; stroke-linejoin: miter"/>
   </g>
   <g id="line2d_1">
    <path d="M 813.547115 252.689794 
L 813.547115 108.524864 
" clip-path="url(#p40a5075724)" style="fill: none; stroke-dasharray: 5.55,2.4; stroke-dashoffset: 0; stroke: #7c3aed; stroke-width: 1.5"/>
   </g>
   <g id="line2d_2">
    <path d="M 813.547115 252.689794 
L 828.993358 252.689794 
" clip-path="url(#p40a5075724)" style="fill: none; stroke: #7c3aed; stroke-width: 1.5; stroke-linecap: square"/>
   </g>
   <g id="line2d_3">
    <path d="M 828.993358 252.689794 
L 828.993358 237.243552 
" clip-path="url(#p40a5075724)" style="fill: none; stroke: #7c3aed; stroke-linecap: square"/>
   </g>
   <g id="text_9">
    <!-- b -->
    <g style="fill: #059669" transform="translate(829.847418 283.582279) scale(0.12 -0.12)">
     <use xlink:href="#DejaVuSans-Bold-62"/>
    </g>
   </g>
   <g id="text_10">
    <!-- h -->
    <g style="fill: #7c3aed" transform="translate(783.532128 180.607329) scale(0.12 -0.12)">
     <use xlink:href="#DejaVuSans-Bold-68"/>
    </g>
   </g>
   <g id="text_11">
    <!-- $A = \frac{b \cdot h}{2}$ -->
    <g style="fill: #1f2937" transform="translate(811.912105 324.772259) scale(0.13 -0.13)">
     <use xlink:href="#DejaVuSans-Oblique-41" transform="translate(0 0.01875)"/>
     <use xlink:href="#DejaVuSans-3d" transform="translate(87.890625 0.01875)"/>
     <use xlink:href="#DejaVuSans-Oblique-62" transform="translate(191.162109 44.810938) scale(0.7)"/>
     <use xlink:href="#DejaVuSans-22c5" transform="translate(249.233398 44.810938) scale(0.7)"/>
     <use xlink:href="#DejaVuSans-Oblique-68" transform="translate(285.12207 44.810938) scale(0.7)"/>
     <use xlink:href="#DejaVuSans-32" transform="translate(238.162109 -39.3875) scale(0.7)"/>
     <path d="M 191.162109 18.815625 
L 191.162109 25.065625 
L 329.487305 25.065625 
L 329.487305 18.815625 
L 191.162109 18.815625 
z
"/>
    </g>
   </g>
   <g id="text_12">
    <!-- TRIÁNGULO -->
    <g style="fill: #1f2937" transform="translate(808.585616 36.739894) scale(0.11 -0.11)">
     <defs>
      <path id="DejaVuSans-Bold-49" d="M 588 4666 
L 1791 4666 
L 1791 0 
L 588 0 
L 588 4666 
z
" transform="scale(0.015625)"/>
     </defs>
     <use xlink:href="#DejaVuSans-Bold-54"/>
     <use xlink:href="#DejaVuSans-Bold-52" transform="translate(68.212891 0)"/>
     <use xlink:href="#DejaVuSans-Bold-49" transform="translate(145.214844 0)"/>
     <use xlink:href="#DejaVuSans-Bold-c1" transform="translate(182.421875 0)"/>
     <use xlink:href="#DejaVuSans-Bold-4e" transform="translate(259.814453 0)"/>
     <use xlink:href="#DejaVuSans-Bold-47" transform="translate(343.505859 0)"/>
     <use xlink:href="#DejaVuSans-Bold-55" transform="translate(425.585938 0)"/>
     <use xlink:href="#DejaVuSans-Bold-4c" transform="translate(506.787109 0)"/>
     <use xlink:href="#DejaVuSans-Bold-4f" transform="translate(566.882812 0)"/>
    </g>
   </g>
  </g>
  <g id="axes_4">
   <g id="patch_5">
    <path d="M 99.877455 602.302752 
L 285.232365 602.302752 
L 326.422345 468.435317 
L 141.067435 468.435317 
z
" clip-path="url(#p8012150bd7)" style="fill: #7c3aed; opacity: 0.3; stroke: #7c3aed; stroke-width: 2; stroke-linejoin: miter"/>
   </g>
   <g id="line2d_4">
    <path d="M 213.1499 602.302752 
L 213.1499 468.435317 
" clip-path="url(#p8012150bd7)" style="fill: none; stroke-dasharray: 5.55,2.4; stroke-dashoffset: 0; stroke: #2563eb; stroke-width: 1.5"/>
   </g>
   <g id="line2d_5">
    <path d="M 213.1499 602.302752 
L 228.596143 602.302752 
" clip-path="url(#p8012150bd7)" style="fill: none; stroke: #2563eb; stroke-width: 1.5; stroke-linecap: square"/>
   </g>
   <g id="text_13">
    <!-- b -->
    <g style="fill: #7c3aed" transform="translate(188.260223 633.195237) scale(0.12 -0.12)">
     <use xlink:href="#DejaVuSans-Bold-62"/>
    </g>
   </g>
   <g id="text_14">
    <!-- h -->
    <g style="fill: #2563eb" transform="translate(183.134913 535.369034) scale(0.12 -0.12)">
     <use xlink:href="#DejaVuSans-Bold-68"/>
    </g>
   </g>
   <g id="text_15">
    <!-- $A = b \cdot h$ -->
    <g style="fill: #1f2937" transform="translate(187.8649 674.385217) scale(0.13 -0.13)">
     <use xlink:href="#DejaVuSans-Oblique-41" transform="translate(0 0.015625)"/>
     <use xlink:href="#DejaVuSans-3d" transform="translate(87.890625 0.015625)"/>
     <use xlink:href="#DejaVuSans-Oblique-62" transform="translate(191.162109 0.015625)"/>
     <use xlink:href="#DejaVuSans-22c5" transform="translate(274.121094 0.015625)"/>
     <use xlink:href="#DejaVuSans-Oblique-68" transform="translate(325.390625 0.015625)"/>
    </g>
   </g>
   <g id="text_16">
    <!-- PARALELOGRAMO -->
    <g style="fill: #1f2937" transform="translate(117.284764 386.352852) scale(0.11 -0.11)">
     <defs>
      <path id="DejaVuSans-Bold-50" d="M 588 4666 
L 2584 4666 
Q 3475 4666 3951 4270 
Q 4428 3875 4428 3144 
Q 4428 2409 3951 2014 
Q 3475 1619 2584 1619 
L 1791 1619 
L 1791 0 
L 588 0 
L 588 4666 
z
M 1791 3794 
L 1791 2491 
L 2456 2491 
Q 2806 2491 2997 2661 
Q 3188 2831 3188 3144 
Q 3188 3456 2997 3625 
Q 2806 3794 2456 3794 
L 1791 3794 
z
" transform="scale(0.015625)"/>
      <path id="DejaVuSans-Bold-4d" d="M 588 4666 
L 2119 4666 
L 3181 2169 
L 4250 4666 
L 5778 4666 
L 5778 0 
L 4641 0 
L 4641 3413 
L 3566 897 
L 2803 897 
L 1728 3413 
L 1728 0 
L 588 0 
L 588 4666 
z
" transform="scale(0.015625)"/>
     </defs>
     <use xlink:href="#DejaVuSans-Bold-50"/>
     <use xlink:href="#DejaVuSans-Bold-41" transform="translate(64.166016 0)"/>
     <use xlink:href="#DejaVuSans-Bold-52" transform="translate(141.558594 0)"/>
     <use xlink:href="#DejaVuSans-Bold-41" transform="translate(218.560547 0)"/>
     <use xlink:href="#DejaVuSans-Bold-4c" transform="translate(295.953125 0)"/>
     <use xlink:href="#DejaVuSans-Bold-45" transform="translate(359.673828 0)"/>
     <use xlink:href="#DejaVuSans-Bold-4c" transform="translate(427.984375 0)"/>
     <use xlink:href="#DejaVuSans-Bold-4f" transform="translate(488.080078 0)"/>
     <use xlink:href="#DejaVuSans-Bold-47" transform="translate(573.089844 0)"/>
     <use xlink:href="#DejaVuSans-Bold-52" transform="translate(655.169922 0)"/>
     <use xlink:href="#DejaVuSans-Bold-41" transform="translate(732.171875 0)"/>
     <use xlink:href="#DejaVuSans-Bold-4d" transform="translate(809.564453 0)"/>
     <use xlink:href="#DejaVuSans-Bold-4f" transform="translate(909.076172 0)"/>
    </g>
   </g>
  </g>
  <g id="axes_5">
   <g id="patch_6">
    <path d="M 425.8198 602.302752 
L 631.7697 602.302752 
L 580.282225 478.732812 
L 467.00978 478.732812 
z
" clip-path="url(#pa013512ff9)" style="fill: #f59e0b; opacity: 0.3; stroke: #f59e0b; stroke-width: 2; stroke-linejoin: miter"/>
   </g>
   <g id="line2d_6">
    <path d="M 528.79475 602.302752 
L 528.79475 478.732812 
" clip-path="url(#pa013512ff9)" style="fill: none; stroke-dasharray: 5.55,2.4; stroke-dashoffset: 0; stroke: #2563eb; stroke-width: 1.5"/>
   </g>
   <g id="text_17">
    <!-- B -->
    <g style="fill: #f59e0b" transform="translate(524.221625 633.195237) scale(0.12 -0.12)">
     <defs>
      <path id="DejaVuSans-Bold-42" d="M 2456 2859 
Q 2741 2859 2887 2984 
Q 3034 3109 3034 3353 
Q 3034 3594 2887 3720 
Q 2741 3847 2456 3847 
L 1791 3847 
L 1791 2859 
L 2456 2859 
z
M 2497 819 
Q 2859 819 3042 972 
Q 3225 1125 3225 1434 
Q 3225 1738 3044 1889 
Q 2863 2041 2497 2041 
L 1791 2041 
L 1791 819 
L 2497 819 
z
M 3616 2497 
Q 4003 2384 4215 2081 
Q 4428 1778 4428 1338 
Q 4428 663 3972 331 
Q 3516 0 2584 0 
L 588 0 
L 588 4666 
L 2394 4666 
Q 3366 4666 3802 4372 
Q 4238 4078 4238 3431 
Q 4238 3091 4078 2852 
Q 3919 2613 3616 2497 
z
" transform="scale(0.015625)"/>
     </defs>
     <use xlink:href="#DejaVuSans-Bold-42"/>
    </g>
   </g>
   <g id="text_18">
    <!-- b -->
    <g style="fill: #f59e0b" transform="translate(519.351315 458.137822) scale(0.12 -0.12)">
     <use xlink:href="#DejaVuSans-Bold-62"/>
    </g>
   </g>
   <g id="text_19">
    <!-- h -->
    <g style="fill: #2563eb" transform="translate(498.779763 540.517782) scale(0.12 -0.12)">
     <use xlink:href="#DejaVuSans-Bold-68"/>
    </g>
   </g>
   <g id="text_20">
    <!-- $A = \frac{(B + b) \cdot h}{2}$ -->
    <g style="fill: #1f2937" transform="translate(494.27975 674.385217) scale(0.13 -0.13)">
     <defs>
      <path id="DejaVuSans-28" d="M 1984 4856 
Q 1566 4138 1362 3434 
Q 1159 2731 1159 2009 
Q 1159 1288 1364 580 
Q 1569 -128 1984 -844 
L 1484 -844 
Q 1016 -109 783 600 
Q 550 1309 550 2009 
Q 550 2706 781 3412 
Q 1013 4119 1484 4856 
L 1984 4856 
z
" transform="scale(0.015625)"/>
      <path id="DejaVuSans-Oblique-42" d="M 1081 4666 
L 2694 4666 
Q 3350 4666 3675 4422 
Q 4000 4178 4000 3688 
Q 4000 3238 3720 2911 
Q 3441 2584 2988 2516 
Q 3375 2428 3569 2181 
Q 3763 1934 3763 1522 
Q 3763 819 3242 409 
Q 2722 0 1819 0 
L 172 0 
L 1081 4666 
z
M 1234 2228 
L 903 519 
L 1919 519 
Q 2491 519 2800 781 
Q 3109 1044 3109 1522 
Q 3109 1891 2904 2059 
Q 2700 2228 2247 2228 
L 1234 2228 
z
M 1606 4147 
L 1331 2741 
L 2272 2741 
Q 2775 2741 3058 2959 
Q 3341 3178 3341 3566 
Q 3341 3869 3150 4008 
Q 2959 4147 2541 4147 
L 1606 4147 
z
" transform="scale(0.015625)"/>
      <path id="DejaVuSans-2b" d="M 2944 4013 
L 2944 2272 
L 4684 2272 
L 4684 1741 
L 2944 1741 
L 2944 0 
L 2419 0 
L 2419 1741 
L 678 1741 
L 678 2272 
L 2419 2272 
L 2419 4013 
L 2944 4013 
z
" transform="scale(0.015625)"/>
      <path id="DejaVuSans-29" d="M 513 4856 
L 1013 4856 
Q 1481 4119 1714 3412 
Q 1947 2706 1947 2009 
Q 1947 1309 1714 600 
Q 1481 -109 1013 -844 
L 513 -844 
Q 928 -128 1133 580 
Q 1338 1288 1338 2009 
Q 1338 2731 1133 3434 
Q 928 4138 513 4856 
z
" transform="scale(0.015625)"/>
     </defs>
     <use xlink:href="#DejaVuSans-Oblique-41" transform="translate(0 0.782813)"/>
     <use xlink:href="#DejaVuSans-3d" transform="translate(87.890625 0.782813)"/>
     <use xlink:href="#DejaVuSans-28" transform="translate(191.162109 53.810938) scale(0.7)"/>
     <use xlink:href="#DejaVuSans-Oblique-42" transform="translate(218.47168 53.810938) scale(0.7)"/>
     <use xlink:href="#DejaVuSans-2b" transform="translate(280.131836 53.810938) scale(0.7)"/>
     <use xlink:href="#DejaVuSans-Oblique-62" transform="translate(352.421875 53.810938) scale(0.7)"/>
     <use xlink:href="#DejaVuSans-29" transform="translate(396.855469 53.810938) scale(0.7)"/>
     <use xlink:href="#DejaVuSans-22c5" transform="translate(437.802734 53.810938) scale(0.7)"/>
     <use xlink:href="#DejaVuSans-Oblique-68" transform="translate(473.691406 53.810938) scale(0.7)"/>
     <use xlink:href="#DejaVuSans-32" transform="translate(332.162109 -38.623437) scale(0.7)"/>
     <path d="M 191.162109 19.579688 
L 191.162109 25.829688 
L 518.056641 25.829688 
L 518.056641 19.579688 
L 191.162109 19.579688 
z
"/>
    </g>
   </g>
   <g id="text_21">
    <!-- TRAPECIO -->
    <g style="fill: #1f2937" transform="translate(477.409213 386.352852) scale(0.11 -0.11)">
     <use xlink:href="#DejaVuSans-Bold-54"/>
     <use xlink:href="#DejaVuSans-Bold-52" transform="translate(68.212891 0)"/>
     <use xlink:href="#DejaVuSans-Bold-41" transform="translate(145.214844 0)"/>
     <use xlink:href="#DejaVuSans-Bold-50" transform="translate(222.607422 0)"/>
     <use xlink:href="#DejaVuSans-Bold-45" transform="translate(295.898438 0)"/>
     <use xlink:href="#DejaVuSans-Bold-43" transform="translate(364.208984 0)"/>
     <use xlink:href="#DejaVuSans-Bold-49" transform="translate(437.597656 0)"/>
     <use xlink:href="#DejaVuSans-Bold-4f" transform="translate(474.804688 0)"/>
    </g>
   </g>
  </g>
  <g id="axes_6">
   <g id="patch_7">
    <path d="M 926.81956 530.220287 
L 926.63297 524.342319 
L 926.073953 518.48802 
L 925.144758 512.680963 
L 923.849127 506.944531 
L 922.192278 501.301821 
L 920.180882 495.775556 
L 917.823039 490.387988 
L 915.128241 485.160811 
L 912.107341 480.115072 
L 908.772503 475.271089 
L 905.137154 470.648367 
L 901.215934 466.26552 
L 897.02463 462.140197 
L 892.580121 458.289008 
L 887.900303 454.727461 
L 883.00402 451.469896 
L 877.910986 448.529432 
L 872.641711 445.917908 
L 867.217412 443.645841 
L 861.65993 441.722377 
L 855.991643 440.155264 
L 850.235376 438.950811 
L 844.414307 438.113867 
L 838.551876 437.647804 
L 832.671688 437.554497 
L 826.797421 437.834323 
L 820.952728 438.486155 
L 815.161144 439.507367 
L 809.44599 440.893849 
L 803.830279 442.640016 
L 798.336622 444.738838 
L 792.987141 447.181864 
L 787.803378 449.959256 
L 782.806203 453.059832 
L 778.01574 456.471105 
L 773.451279 460.17934 
L 769.131198 464.169605 
L 765.072893 468.425833 
L 761.292705 472.930885 
L 757.805856 477.666622 
L 754.626386 482.613973 
L 751.767098 487.753019 
L 749.239505 493.063065 
L 747.053784 498.52273 
L 745.218738 504.11003 
L 743.741755 509.802467 
L 742.628782 515.57712 
L 741.884301 521.410735 
L 741.511309 527.279823 
L 741.511309 533.160751 
L 741.884301 539.029839 
L 742.628782 544.863454 
L 743.741755 550.638106 
L 745.218738 556.330543 
L 747.053784 561.917843 
L 749.239505 567.377508 
L 751.767098 572.687555 
L 754.626386 577.8266 
L 757.805856 582.773952 
L 761.292705 587.509688 
L 765.072893 592.014741 
L 769.131198 596.270969 
L 773.451279 600.261234 
L 778.01574 603.969469 
L 782.806203 607.380742 
L 787.803378 610.481317 
L 792.987141 613.258709 
L 798.336622 615.701735 
L 803.830279 617.800558 
L 809.44599 619.546725 
L 815.161144 620.933206 
L 820.952728 621.954419 
L 826.797421 622.60625 
L 832.671688 622.886076 
L 838.551876 622.79277 
L 844.414307 622.326706 
L 850.235376 621.489763 
L 855.991643 620.28531 
L 861.65993 618.718196 
L 867.217412 616.794733 
L 872.641711 614.522665 
L 877.910986 611.911141 
L 883.00402 608.970677 
L 887.900303 605.713113 
L 892.580121 602.151566 
L 897.02463 598.300377 
L 901.215934 594.175053 
L 905.137154 589.792207 
L 908.772503 585.169485 
L 912.107341 580.325502 
L 915.128241 575.279763 
L 917.823039 570.052585 
L 920.180882 564.665017 
L 922.192278 559.138752 
L 923.849127 553.496043 
L 925.144758 547.75961 
L 926.073953 541.952553 
L 926.63297 536.098254 
L 926.81956 530.220287 
z
" clip-path="url(#pb62061987d)" style="fill: #ec4899; opacity: 0.3; stroke: #ec4899; stroke-linejoin: miter"/>
   </g>
   <g id="line2d_7">
    <path d="M 926.81956 530.220287 
L 926.63297 524.342319 
L 926.073953 518.48802 
L 925.144758 512.680963 
L 923.849127 506.944531 
L 922.192278 501.301821 
L 920.180882 495.775556 
L 917.823039 490.387988 
L 915.128241 485.160811 
L 912.107341 480.115072 
L 908.772503 475.271089 
L 905.137154 470.648367 
L 901.215934 466.26552 
L 897.02463 462.140197 
L 892.580121 458.289008 
L 887.900303 454.727461 
L 883.00402 451.469896 
L 877.910986 448.529432 
L 872.641711 445.917908 
L 867.217412 443.645841 
L 861.65993 441.722377 
L 855.991643 440.155264 
L 850.235376 438.950811 
L 844.414307 438.113867 
L 838.551876 437.647804 
L 832.671688 437.554497 
L 826.797421 437.834323 
L 820.952728 438.486155 
L 815.161144 439.507367 
L 809.44599 440.893849 
L 803.830279 442.640016 
L 798.336622 444.738838 
L 792.987141 447.181864 
L 787.803378 449.959256 
L 782.806203 453.059832 
L 778.01574 456.471105 
L 773.451279 460.17934 
L 769.131198 464.169605 
L 765.072893 468.425833 
L 761.292705 472.930885 
L 757.805856 477.666622 
L 754.626386 482.613973 
L 751.767098 487.753019 
L 749.239505 493.063065 
L 747.053784 498.52273 
L 745.218738 504.11003 
L 743.741755 509.802467 
L 742.628782 515.57712 
L 741.884301 521.410735 
L 741.511309 527.279823 
L 741.511309 533.160751 
L 741.884301 539.029839 
L 742.628782 544.863454 
L 743.741755 550.638106 
L 745.218738 556.330543 
L 747.053784 561.917843 
L 749.239505 567.377508 
L 751.767098 572.687555 
L 754.626386 577.8266 
L 757.805856 582.773952 
L 761.292705 587.509688 
L 765.072893 592.014741 
L 769.131198 596.270969 
L 773.451279 600.261234 
L 778.01574 603.969469 
L 782.806203 607.380742 
L 787.803378 610.481317 
L 792.987141 613.258709 
L 798.336622 615.701735 
L 803.830279 617.800558 
L 809.44599 619.546725 
L 815.161144 620.933206 
L 820.952728 621.954419 
L 826.797421 622.60625 
L 832.671688 622.886076 
L 838.551876 622.79277 
L 844.414307 622.326706 
L 850.235376 621.489763 
L 855.991643 620.28531 
L 861.65993 618.718196 
L 867.217412 616.794733 
L 872.641711 614.522665 
L 877.910986 611.911141 
L 883.00402 608.970677 
L 887.900303 605.713113 
L 892.580121 602.151566 
L 897.02463 598.300377 
L 901.215934 594.175053 
L 905.137154 589.792207 
L 908.772503 585.169485 
L 912.107341 580.325502 
L 915.128241 575.279763 
L 917.823039 570.052585 
L 920.180882 564.665017 
L 922.192278 559.138752 
L 923.849127 553.496043 
L 925.144758 547.75961 
L 926.073953 541.952553 
L 926.63297 536.098254 
L 926.81956 530.220287 
" clip-path="url(#pb62061987d)" style="fill: none; stroke: #ec4899; stroke-width: 2; stroke-linecap: square"/>
   </g>
   <g id="line2d_8">
    <path d="M 834.142105 530.220287 
L 926.81956 530.220287 
" clip-path="url(#pb62061987d)" style="fill: none; stroke: #2563eb; stroke-width: 2; stroke-linecap: square"/>
   </g>
   <g id="line2d_9">
    <defs>
     <path id="md95240e33c" d="M 0 2 
C 0.530406 2 1.03916 1.789267 1.414214 1.414214 
C 1.789267 1.03916 2 0.530406 2 0 
C 2 -0.530406 1.789267 -1.03916 1.414214 -1.414214 
C 1.03916 -1.789267 0.530406 -2 0 -2 
C -0.530406 -2 -1.03916 -1.789267 -1.414214 -1.414214 
C -1.789267 -1.03916 -2 -0.530406 -2 0 
C -2 0.530406 -1.789267 1.03916 -1.414214 1.414214 
C -1.03916 1.789267 -0.530406 2 0 2 
z
" style="stroke: #374151"/>
    </defs>
    <g clip-path="url(#pb62061987d)">
     <use xlink:href="#md95240e33c" x="834.142105" y="530.220287" style="fill: #374151; stroke: #374151"/>
    </g>
   </g>
   <g id="text_22">
    <!-- r -->
    <g style="fill: #2563eb" transform="translate(880.480833 514.774044) scale(0.12 -0.12)">
     <defs>
      <path id="DejaVuSans-Bold-72" d="M 3138 2547 
Q 2991 2616 2845 2648 
Q 2700 2681 2553 2681 
Q 2122 2681 1889 2404 
Q 1656 2128 1656 1613 
L 1656 0 
L 538 0 
L 538 3500 
L 1656 3500 
L 1656 2925 
Q 1872 3269 2151 3426 
Q 2431 3584 2822 3584 
Q 2878 3584 2943 3579 
Q 3009 3575 3134 3559 
L 3138 2547 
z
" transform="scale(0.015625)"/>
     </defs>
     <use xlink:href="#DejaVuSans-Bold-72"/>
    </g>
   </g>
   <g id="text_23">
    <!-- $A = \pi r^2$ -->
    <g style="fill: #1f2937" transform="translate(811.717105 658.938974) scale(0.13 -0.13)">
     <defs>
      <path id="DejaVuSans-Oblique-3c0" d="M 584 3500 
L 3938 3500 
L 3825 2925 
L 3384 2925 
L 2966 775 
Q 2922 550 2981 450 
Q 3038 353 3209 353 
Q 3256 353 3325 363 
Q 3397 369 3419 372 
L 3338 -44 
Q 3222 -84 3103 -103 
Q 2981 -122 2866 -122 
Q 2491 -122 2388 81 
Q 2284 288 2391 838 
L 2797 2925 
L 1506 2925 
L 938 0 
L 350 0 
L 919 2925 
L 472 2925 
L 584 3500 
z
" transform="scale(0.015625)"/>
      <path id="DejaVuSans-Oblique-72" d="M 2853 2969 
Q 2766 3016 2653 3041 
Q 2541 3066 2413 3066 
Q 1953 3066 1609 2717 
Q 1266 2369 1153 1784 
L 800 0 
L 225 0 
L 909 3500 
L 1484 3500 
L 1375 2956 
Q 1603 3259 1920 3421 
Q 2238 3584 2597 3584 
Q 2691 3584 2781 3573 
Q 2872 3563 2963 3538 
L 2853 2969 
z
" transform="scale(0.015625)"/>
     </defs>
     <use xlink:href="#DejaVuSans-Oblique-41" transform="translate(0 0.765625)"/>
     <use xlink:href="#DejaVuSans-3d" transform="translate(87.890625 0.765625)"/>
     <use xlink:href="#DejaVuSans-Oblique-3c0" transform="translate(191.162109 0.765625)"/>
     <use xlink:href="#DejaVuSans-Oblique-72" transform="translate(251.367188 0.765625)"/>
     <use xlink:href="#DejaVuSans-32" transform="translate(297.130365 39.046875) scale(0.7)"/>
    </g>
   </g>
   <g id="text_24">
    <!-- CÍRCULO -->
    <g style="fill: #1f2937" transform="translate(817.638272 386.352852) scale(0.11 -0.11)">
     <defs>
      <path id="DejaVuSans-Bold-cd" d="M 588 4666 
L 1791 4666 
L 1791 0 
L 588 0 
L 588 4666 
z
M 1271 5921 
L 2156 5921 
L 1265 5096 
L 653 5096 
L 1271 5921 
z
" transform="scale(0.015625)"/>
     </defs>
     <use xlink:href="#DejaVuSans-Bold-43"/>
     <use xlink:href="#DejaVuSans-Bold-cd" transform="translate(73.388672 0)"/>
     <use xlink:href="#DejaVuSans-Bold-52" transform="translate(110.595703 0)"/>
     <use xlink:href="#DejaVuSans-Bold-43" transform="translate(187.597656 0)"/>
     <use xlink:href="#DejaVuSans-Bold-55" transform="translate(260.986328 0)"/>
     <use xlink:href="#DejaVuSans-Bold-4c" transform="translate(342.1875 0)"/>
     <use xlink:href="#DejaVuSans-Bold-4f" transform="translate(402.283203 0)"/>
    </g>
   </g>
  </g>
  <g id="text_25">
   <!-- Fórmulas de Áreas de Figuras Planas -->
   <g style="fill: #1f2937" transform="translate(362.016791 20.152187) scale(0.14 -0.14)">
    <defs>
     <path id="DejaVuSans-Bold-46" d="M 588 4666 
L 3834 4666 
L 3834 3756 
L 1791 3756 
L 1791 2888 
L 3713 2888 
L 3713 1978 
L 1791 1978 
L 1791 0 
L 588 0 
L 588 4666 
z
" transform="scale(0.015625)"/>
     <path id="DejaVuSans-Bold-f3" d="M 2203 2784 
Q 1831 2784 1636 2517 
Q 1441 2250 1441 1747 
Q 1441 1244 1636 976 
Q 1831 709 2203 709 
Q 2569 709 2762 976 
Q 2956 1244 2956 1747 
Q 2956 2250 2762 2517 
Q 2569 2784 2203 2784 
z
M 2203 3584 
Q 3106 3584 3614 3096 
Q 4122 2609 4122 1747 
Q 4122 884 3614 396 
Q 3106 -91 2203 -91 
Q 1297 -91 786 396 
Q 275 884 275 1747 
Q 275 2609 786 3096 
Q 1297 3584 2203 3584 
z
M 2694 5119 
L 3578 5119 
L 2425 3944 
L 1813 3944 
L 2694 5119 
z
" transform="scale(0.015625)"/>
     <path id="DejaVuSans-Bold-6d" d="M 3781 2919 
Q 3994 3244 4286 3414 
Q 4578 3584 4928 3584 
Q 5531 3584 5847 3212 
Q 6163 2841 6163 2131 
L 6163 0 
L 5038 0 
L 5038 1825 
Q 5041 1866 5042 1909 
Q 5044 1953 5044 2034 
Q 5044 2406 4934 2573 
Q 4825 2741 4581 2741 
Q 4263 2741 4089 2478 
Q 3916 2216 3909 1719 
L 3909 0 
L 2784 0 
L 2784 1825 
Q 2784 2406 2684 2573 
Q 2584 2741 2328 2741 
Q 2006 2741 1831 2477 
Q 1656 2213 1656 1722 
L 1656 0 
L 531 0 
L 531 3500 
L 1656 3500 
L 1656 2988 
Q 1863 3284 2130 3434 
Q 2397 3584 2719 3584 
Q 3081 3584 3359 3409 
Q 3638 3234 3781 2919 
z
" transform="scale(0.015625)"/>
     <path id="DejaVuSans-Bold-75" d="M 500 1363 
L 500 3500 
L 1625 3500 
L 1625 3150 
Q 1625 2866 1622 2436 
Q 1619 2006 1619 1863 
Q 1619 1441 1641 1255 
Q 1663 1069 1716 984 
Q 1784 875 1895 815 
Q 2006 756 2150 756 
Q 2500 756 2700 1025 
Q 2900 1294 2900 1772 
L 2900 3500 
L 4019 3500 
L 4019 0 
L 2900 0 
L 2900 506 
Q 2647 200 2364 54 
Q 2081 -91 1741 -91 
Q 1134 -91 817 281 
Q 500 653 500 1363 
z
" transform="scale(0.015625)"/>
     <path id="DejaVuSans-Bold-61" d="M 2106 1575 
Q 1756 1575 1579 1456 
Q 1403 1338 1403 1106 
Q 1403 894 1545 773 
Q 1688 653 1941 653 
Q 2256 653 2472 879 
Q 2688 1106 2688 1447 
L 2688 1575 
L 2106 1575 
z
M 3816 1997 
L 3816 0 
L 2688 0 
L 2688 519 
Q 2463 200 2181 54 
Q 1900 -91 1497 -91 
Q 953 -91 614 226 
Q 275 544 275 1050 
Q 275 1666 698 1953 
Q 1122 2241 2028 2241 
L 2688 2241 
L 2688 2328 
Q 2688 2594 2478 2717 
Q 2269 2841 1825 2841 
Q 1466 2841 1156 2769 
Q 847 2697 581 2553 
L 581 3406 
Q 941 3494 1303 3539 
Q 1666 3584 2028 3584 
Q 2975 3584 3395 3211 
Q 3816 2838 3816 1997 
z
" transform="scale(0.015625)"/>
     <path id="DejaVuSans-Bold-73" d="M 3272 3391 
L 3272 2541 
Q 2913 2691 2578 2766 
Q 2244 2841 1947 2841 
Q 1628 2841 1473 2761 
Q 1319 2681 1319 2516 
Q 1319 2381 1436 2309 
Q 1553 2238 1856 2203 
L 2053 2175 
Q 2913 2066 3209 1816 
Q 3506 1566 3506 1031 
Q 3506 472 3093 190 
Q 2681 -91 1863 -91 
Q 1516 -91 1145 -36 
Q 775 19 384 128 
L 384 978 
Q 719 816 1070 734 
Q 1422 653 1784 653 
Q 2113 653 2278 743 
Q 2444 834 2444 1013 
Q 2444 1163 2330 1236 
Q 2216 1309 1875 1350 
L 1678 1375 
Q 931 1469 631 1722 
Q 331 1975 331 2491 
Q 331 3047 712 3315 
Q 1094 3584 1881 3584 
Q 2191 3584 2531 3537 
Q 2872 3491 3272 3391 
z
" transform="scale(0.015625)"/>
     <path id="DejaVuSans-Bold-20" transform="scale(0.015625)"/>
     <path id="DejaVuSans-Bold-64" d="M 2919 2988 
L 2919 4863 
L 4044 4863 
L 4044 0 
L 2919 0 
L 2919 506 
Q 2688 197 2409 53 
Q 2131 -91 1766 -91 
Q 1119 -91 703 423 
Q 288 938 288 1747 
Q 288 2556 703 3070 
Q 1119 3584 1766 3584 
Q 2128 3584 2408 3439 
Q 2688 3294 2919 2988 
z
M 2181 722 
Q 2541 722 2730 984 
Q 2919 1247 2919 1747 
Q 2919 2247 2730 2509 
Q 2541 2772 2181 2772 
Q 1825 2772 1636 2509 
Q 1447 2247 1447 1747 
Q 1447 1247 1636 984 
Q 1825 722 2181 722 
z
" transform="scale(0.015625)"/>
     <path id="DejaVuSans-Bold-65" d="M 4031 1759 
L 4031 1441 
L 1416 1441 
Q 1456 1047 1700 850 
Q 1944 653 2381 653 
Q 2734 653 3104 758 
Q 3475 863 3866 1075 
L 3866 213 
Q 3469 63 3072 -14 
Q 2675 -91 2278 -91 
Q 1328 -91 801 392 
Q 275 875 275 1747 
Q 275 2603 792 3093 
Q 1309 3584 2216 3584 
Q 3041 3584 3536 3087 
Q 4031 2591 4031 1759 
z
M 2881 2131 
Q 2881 2450 2695 2645 
Q 2509 2841 2209 2841 
Q 1884 2841 1681 2658 
Q 1478 2475 1428 2131 
L 2881 2131 
z
" transform="scale(0.015625)"/>
     <path id="DejaVuSans-Bold-69" d="M 538 3500 
L 1656 3500 
L 1656 0 
L 538 0 
L 538 3500 
z
M 538 4863 
L 1656 4863 
L 1656 3950 
L 538 3950 
L 538 4863 
z
" transform="scale(0.015625)"/>
     <path id="DejaVuSans-Bold-67" d="M 2919 594 
Q 2688 288 2409 144 
Q 2131 0 1766 0 
Q 1125 0 706 504 
Q 288 1009 288 1791 
Q 288 2575 706 3076 
Q 1125 3578 1766 3578 
Q 2131 3578 2409 3434 
Q 2688 3291 2919 2981 
L 2919 3500 
L 4044 3500 
L 4044 353 
Q 4044 -491 3511 -936 
Q 2978 -1381 1966 -1381 
Q 1638 -1381 1331 -1331 
Q 1025 -1281 716 -1178 
L 716 -306 
Q 1009 -475 1290 -558 
Q 1572 -641 1856 -641 
Q 2406 -641 2662 -400 
Q 2919 -159 2919 353 
L 2919 594 
z
M 2181 2772 
Q 1834 2772 1640 2515 
Q 1447 2259 1447 1791 
Q 1447 1309 1634 1061 
Q 1822 813 2181 813 
Q 2531 813 2725 1069 
Q 2919 1325 2919 1791 
Q 2919 2259 2725 2515 
Q 2531 2772 2181 2772 
z
" transform="scale(0.015625)"/>
     <path id="DejaVuSans-Bold-6e" d="M 4056 2131 
L 4056 0 
L 2931 0 
L 2931 347 
L 2931 1631 
Q 2931 2084 2911 2256 
Q 2891 2428 2841 2509 
Q 2775 2619 2662 2680 
Q 2550 2741 2406 2741 
Q 2056 2741 1856 2470 
Q 1656 2200 1656 1722 
L 1656 0 
L 538 0 
L 538 3500 
L 1656 3500 
L 1656 2988 
Q 1909 3294 2193 3439 
Q 2478 3584 2822 3584 
Q 3428 3584 3742 3212 
Q 4056 2841 4056 2131 
z
" transform="scale(0.015625)"/>
    </defs>
    <use xlink:href="#DejaVuSans-Bold-46"/>
    <use xlink:href="#DejaVuSans-Bold-f3" transform="translate(64.310547 0)"/>
    <use xlink:href="#DejaVuSans-Bold-72" transform="translate(133.011719 0)"/>
    <use xlink:href="#DejaVuSans-Bold-6d" transform="translate(182.328125 0)"/>
    <use xlink:href="#DejaVuSans-Bold-75" transform="translate(286.527344 0)"/>
    <use xlink:href="#DejaVuSans-Bold-6c" transform="translate(357.71875 0)"/>
    <use xlink:href="#DejaVuSans-Bold-61" transform="translate(391.996094 0)"/>
    <use xlink:href="#DejaVuSans-Bold-73" transform="translate(459.476562 0)"/>
    <use xlink:href="#DejaVuSans-Bold-20" transform="translate(518.998047 0)"/>
    <use xlink:href="#DejaVuSans-Bold-64" transform="translate(553.8125 0)"/>
    <use xlink:href="#DejaVuSans-Bold-65" transform="translate(625.394531 0)"/>
    <use xlink:href="#DejaVuSans-Bold-20" transform="translate(693.216797 0)"/>
    <use xlink:href="#DejaVuSans-Bold-c1" transform="translate(728.03125 0)"/>
    <use xlink:href="#DejaVuSans-Bold-72" transform="translate(805.423828 0)"/>
    <use xlink:href="#DejaVuSans-Bold-65" transform="translate(854.740234 0)"/>
    <use xlink:href="#DejaVuSans-Bold-61" transform="translate(922.5625 0)"/>
    <use xlink:href="#DejaVuSans-Bold-73" transform="translate(990.042969 0)"/>
    <use xlink:href="#DejaVuSans-Bold-20" transform="translate(1049.564453 0)"/>
    <use xlink:href="#DejaVuSans-Bold-64" transform="translate(1084.378906 0)"/>
    <use xlink:href="#DejaVuSans-Bold-65" transform="translate(1155.960938 0)"/>
    <use xlink:href="#DejaVuSans-Bold-20" transform="translate(1223.783203 0)"/>
    <use xlink:href="#DejaVuSans-Bold-46" transform="translate(1258.597656 0)"/>
    <use xlink:href="#DejaVuSans-Bold-69" transform="translate(1326.908203 0)"/>
    <use xlink:href="#DejaVuSans-Bold-67" transform="translate(1361.185547 0)"/>
    <use xlink:href="#DejaVuSans-Bold-75" transform="translate(1432.767578 0)"/>
    <use xlink:href="#DejaVuSans-Bold-72" transform="translate(1503.958984 0)"/>
    <use xlink:href="#DejaVuSans-Bold-61" transform="translate(1553.275391 0)"/>
    <use xlink:href="#DejaVuSans-Bold-73" transform="translate(1620.755859 0)"/>
    <use xlink:href="#DejaVuSans-Bold-20" transform="translate(1680.277344 0)"/>
    <use xlink:href="#DejaVuSans-Bold-50" transform="translate(1715.091797 0)"/>
    <use xlink:href="#DejaVuSans-Bold-6c" transform="translate(1788.382812 0)"/>
    <use xlink:href="#DejaVuSans-Bold-61" transform="translate(1822.660156 0)"/>
    <use xlink:href="#DejaVuSans-Bold-6e" transform="translate(1890.140625 0)"/>
    <use xlink:href="#DejaVuSans-Bold-61" transform="translate(1961.332031 0)"/>
    <use xlink:href="#DejaVuSans-Bold-73" transform="translate(2028.8125 0)"/>
   </g>
  </g>
 </g>
 <defs>
  <clipPath id="pd906eb7971">
   <rect x="7.2" y="46.739894" width="329.51984" height="308.92485"/>
  </clipPath>
  <clipPath id="pf856a9ce29">
   <rect x="343.43984" y="46.739894" width="329.51984" height="308.92485"/>
  </clipPath>
  <clipPath id="p40a5075724">
   <rect x="679.67968" y="46.739894" width="329.51984" height="308.92485"/>
  </clipPath>
  <clipPath id="p8012150bd7">
   <rect x="7.2" y="396.352852" width="329.51984" height="308.92485"/>
  </clipPath>
  <clipPath id="pa013512ff9">
   <rect x="343.43984" y="396.352852" width="329.51984" height="308.92485"/>
  </clipPath>
  <clipPath id="pb62061987d">
   <rect x="679.67968" y="396.352852" width="329.51984" height="308.92485"/>
  </clipPath>
 </defs>
</svg>
