<?xml version="1.0" encoding="utf-8" standalone="no"?>
<!DOCTYPE svg PUBLIC "-//W3C//DTD SVG 1.1//EN"
  "http://www.w3.org/Graphics/SVG/1.1/DTD/svg11.dtd">
<svg xmlns:xlink="http://www.w3.org/1999/xlink" width="951.668504pt" height="368.64pt" viewBox="0 0 951.668504 368.64" xmlns="http://www.w3.org/2000/svg" version="1.1">
 <metadata>
  <rdf:RDF xmlns:dc="http://purl.org/dc/elements/1.1/" xmlns:cc="http://creativecommons.org/ns#" xmlns:rdf="http://www.w3.org/1999/02/22-rdf-syntax-ns#">
   <cc:Work>
    <dc:type rdf:resource="http://purl.org/dc/dcmitype/StillImage"/>
    <dc:date>2026-01-03T17:13:33.162469</dc:date>
    <dc:format>image/svg+xml</dc:format>
    <dc:creator>
     <cc:Agent>
      <dc:title>Repositorio Matemáticas Universitarias</dc:title>
     </cc:Agent>
    </dc:creator>
   </cc:Work>
  </rdf:RDF>
 </metadata>
 <defs>
  <style type="text/css">*{stroke-linejoin: round; stroke-linecap: butt}</style>
 </defs>
 <g id="figure_1">
  <g id="patch_1">
   <path d="M 0 368.64 
L 951.668504 368.64 
L 951.668504 0 
L 0 0 
z
" style="fill: #ffffff"/>
  </g>
  <g id="axes_1">
   <g id="line2d_1">
    <path d="M 229.75066 190.247185 
L 229.578326 184.818325 
L 229.062021 179.411326 
L 228.203821 174.047958 
L 227.007184 168.749819 
L 225.476927 163.538243 
L 223.619212 158.434214 
L 221.44152 153.458284 
L 218.95262 148.630491 
L 216.162532 143.970273 
L 213.082493 139.496396 
L 209.724904 135.226875 
L 206.103286 131.178901 
L 202.23222 127.368774 
L 198.127295 123.811836 
L 193.80504 120.52241 
L 189.282858 117.513741 
L 184.578959 114.797944 
L 179.712285 112.385954 
L 174.702431 110.287484 
L 169.56957 108.510983 
L 164.33437 107.063606 
L 159.017912 105.951179 
L 153.641604 105.178183 
L 148.227093 104.747729 
L 142.796183 104.661552 
L 137.37074 104.919997 
L 131.972613 105.522025 
L 126.623537 106.465212 
L 121.345051 107.745759 
L 116.158409 109.35851 
L 111.084497 111.296971 
L 106.143745 113.553337 
L 101.356048 116.118521 
L 96.740685 118.982196 
L 92.316238 122.13283 
L 88.100526 125.557736 
L 84.110522 129.243124 
L 80.362293 133.174154 
L 76.870931 137.334996 
L 73.650496 141.708898 
L 70.713954 146.278246 
L 68.073131 151.024641 
L 65.738659 155.928971 
L 63.71994 160.971489 
L 62.0251 166.13189 
L 60.660967 171.389395 
L 59.633031 176.722833 
L 58.945432 182.110729 
L 58.600939 187.531388 
L 58.600939 192.962982 
L 58.945432 198.383641 
L 59.633031 203.771537 
L 60.660967 209.104975 
L 62.0251 214.36248 
L 63.71994 219.52288 
L 65.738659 224.565398 
L 68.073131 229.469729 
L 70.713954 234.216124 
L 73.650496 238.785472 
L 76.870931 243.159373 
L 80.362293 247.320216 
L 84.110522 251.251246 
L 88.100526 254.936633 
L 92.316238 258.36154 
L 96.740685 261.512173 
L 101.356048 264.375848 
L 106.143745 266.941033 
L 111.084497 269.197399 
L 116.158409 271.13586 
L 121.345051 272.748611 
L 126.623537 274.029158 
L 131.972613 274.972344 
L 137.37074 275.574373 
L 142.796183 275.832818 
L 148.227093 275.746641 
L 153.641604 275.316187 
L 159.017912 274.543191 
L 164.33437 273.430764 
L 169.56957 271.983386 
L 174.702431 270.206886 
L 179.712285 268.108416 
L 184.578959 265.696426 
L 189.282858 262.980629 
L 193.80504 259.97196 
L 198.127295 256.682534 
L 202.23222 253.125596 
L 206.103286 249.315469 
L 209.724904 245.267495 
L 213.082493 240.997974 
L 216.162532 236.524097 
L 218.95262 231.863879 
L 221.44152 227.036085 
L 223.619212 222.060156 
L 225.476927 216.956127 
L 227.007184 211.74455 
L 228.203821 206.446412 
L 229.062021 201.083044 
L 229.578326 195.676045 
L 229.75066 190.247185 
" clip-path="url(#p876222ec28)" style="fill: none; stroke: #374151; stroke-width: 2; stroke-linecap: square"/>
   </g>
   <g id="line2d_2">
    <defs>
     <path id="m5f3daca3aa" d="M 0 2.5 
C 0.663008 2.5 1.29895 2.236584 1.767767 1.767767 
C 2.236584 1.29895 2.5 0.663008 2.5 0 
C 2.5 -0.663008 2.236584 -1.29895 1.767767 -1.767767 
C 1.29895 -2.236584 0.663008 -2.5 0 -2.5 
C -0.663008 -2.5 -1.29895 -2.236584 -1.767767 -1.767767 
C -2.236584 -1.29895 -2.5 -0.663008 -2.5 0 
C -2.5 0.663008 -2.236584 1.29895 -1.767767 1.767767 
C -1.29895 2.236584 -0.663008 2.5 0 2.5 
z
" style="stroke: #374151"/>
    </defs>
    <g clip-path="url(#p876222ec28)">
     <use xlink:href="#m5f3daca3aa" x="144.154252" y="190.247185" style="fill: #374151; stroke: #374151"/>
    </g>
   </g>
   <g id="line2d_3">
    <path d="M 144.154252 190.247185 
L 218.282916 147.448981 
" clip-path="url(#p876222ec28)" style="fill: none; stroke: #2563eb; stroke-width: 2; stroke-linecap: square"/>
   </g>
   <g id="line2d_4">
    <path d="M 144.154252 190.247185 
L 129.290592 105.951179 
" clip-path="url(#p876222ec28)" style="fill: none; stroke: #2563eb; stroke-width: 2; stroke-linecap: square"/>
   </g>
   <g id="line2d_5">
    <defs>
     <path id="m770397b2d5" d="M 0 3 
C 0.795609 3 1.55874 2.683901 2.12132 2.12132 
C 2.683901 1.55874 3 0.795609 3 0 
C 3 -0.795609 2.683901 -1.55874 2.12132 -2.12132 
C 1.55874 -2.683901 0.795609 -3 0 -3 
C -0.795609 -3 -1.55874 -2.683901 -2.12132 -2.12132 
C -2.683901 -1.55874 -3 -0.795609 -3 0 
C -3 0.795609 -2.683901 1.55874 -2.12132 2.12132 
C -1.55874 2.683901 -0.795609 3 0 3 
z
" style="stroke: #dc2626"/>
    </defs>
    <g clip-path="url(#p876222ec28)">
     <use xlink:href="#m770397b2d5" x="218.282916" y="147.448981" style="fill: #dc2626; stroke: #dc2626"/>
    </g>
   </g>
   <g id="line2d_6">
    <g clip-path="url(#p876222ec28)">
     <use xlink:href="#m770397b2d5" x="129.290592" y="105.951179" style="fill: #dc2626; stroke: #dc2626"/>
    </g>
   </g>
   <g id="line2d_7">
    <path d="M 162.686418 179.547634 
L 162.219351 178.776623 
L 161.720226 178.025968 
L 161.189929 177.297 
L 160.629401 176.591013 
L 160.039637 175.90926 
L 159.421684 175.25295 
L 158.776638 174.623248 
L 158.105643 174.021272 
L 157.409891 173.448089 
L 156.690616 172.904718 
L 155.949094 172.392122 
L 155.186642 171.911211 
L 154.404612 171.462838 
L 153.604392 171.047799 
L 152.787402 170.66683 
L 151.955093 170.320608 
L 151.10894 170.009747 
L 150.250446 169.734799 
L 149.381133 169.496251 
L 148.502546 169.294526 
L 147.616242 169.129984 
L 146.723794 169.002915 
L 145.826787 168.913545 
L 144.926811 168.862033 
L 144.025465 168.848471 
L 143.124347 168.872881 
L 142.225057 168.935222 
L 141.32919 169.035382 
L 140.438337 169.173183 
" clip-path="url(#p876222ec28)" style="fill: none; stroke: #059669; stroke-width: 2; stroke-linecap: square"/>
   </g>
   <g id="line2d_8">
    <path d="M 218.282916 147.448981 
L 216.414646 144.364939 
L 214.418146 141.362318 
L 212.296959 138.446446 
L 210.054848 135.622498 
L 207.695793 132.895484 
L 205.223979 130.270244 
L 202.643794 127.751437 
L 199.959815 125.343532 
L 197.176806 123.050803 
L 194.299706 120.877318 
L 191.333619 118.826934 
L 188.28381 116.903289 
L 185.15569 115.109797 
L 181.954811 113.449641 
L 178.686853 111.925767 
L 175.357614 110.540879 
L 171.973003 109.297434 
L 168.539026 108.19764 
L 165.061777 107.243448 
L 161.547426 106.43655 
L 158.00221 105.77838 
L 154.43242 105.270104 
L 150.84439 104.912625 
L 147.244489 104.706578 
L 143.639104 104.652327 
L 140.034633 104.74997 
L 136.437472 104.999333 
L 132.854006 105.399973 
L 129.290592 105.951179 
" clip-path="url(#p876222ec28)" style="fill: none; stroke: #dc2626; stroke-opacity: 0.5; stroke-width: 4; stroke-linecap: square"/>
   </g>
   <g id="text_1">
    <!-- O -->
    <g style="fill: #374151" transform="translate(152.713893 203.086646) scale(0.1 -0.1)">
     <defs>
      <path id="DejaVuSans-4f" d="M 2522 4238 
Q 1834 4238 1429 3725 
Q 1025 3213 1025 2328 
Q 1025 1447 1429 934 
Q 1834 422 2522 422 
Q 3209 422 3611 934 
Q 4013 1447 4013 2328 
Q 4013 3213 3611 3725 
Q 3209 4238 2522 4238 
z
M 2522 4750 
Q 3503 4750 4090 4092 
Q 4678 3434 4678 2328 
Q 4678 1225 4090 567 
Q 3503 -91 2522 -91 
Q 1538 -91 948 565 
Q 359 1222 359 2328 
Q 359 3434 948 4092 
Q 1538 4750 2522 4750 
z
" transform="scale(0.015625)"/>
     </defs>
     <use xlink:href="#DejaVuSans-4f"/>
    </g>
   </g>
   <g id="text_2">
    <!-- A -->
    <g style="fill: #1f2937" transform="translate(231.122377 147.448981) scale(0.1 -0.1)">
     <defs>
      <path id="DejaVuSans-41" d="M 2188 4044 
L 1331 1722 
L 3047 1722 
L 2188 4044 
z
M 1831 4666 
L 2547 4666 
L 4325 0 
L 3669 0 
L 3244 1197 
L 1141 1197 
L 716 0 
L 50 0 
L 1831 4666 
z
" transform="scale(0.015625)"/>
     </defs>
     <use xlink:href="#DejaVuSans-41"/>
    </g>
   </g>
   <g id="text_3">
    <!-- B -->
    <g style="fill: #1f2937" transform="translate(112.17131 97.391538) scale(0.1 -0.1)">
     <defs>
      <path id="DejaVuSans-42" d="M 1259 2228 
L 1259 519 
L 2272 519 
Q 2781 519 3026 730 
Q 3272 941 3272 1375 
Q 3272 1813 3026 2020 
Q 2781 2228 2272 2228 
L 1259 2228 
z
M 1259 4147 
L 1259 2741 
L 2194 2741 
Q 2656 2741 2882 2914 
Q 3109 3088 3109 3444 
Q 3109 3797 2882 3972 
Q 2656 4147 2194 4147 
L 1259 4147 
z
M 628 4666 
L 2241 4666 
Q 2963 4666 3353 4366 
Q 3744 4066 3744 3513 
Q 3744 3084 3544 2831 
Q 3344 2578 2956 2516 
Q 3422 2416 3680 2098 
Q 3938 1781 3938 1306 
Q 3938 681 3513 340 
Q 3088 0 2303 0 
L 628 0 
L 628 4666 
z
" transform="scale(0.015625)"/>
     </defs>
     <use xlink:href="#DejaVuSans-42"/>
    </g>
   </g>
   <g id="text_4">
    <!-- α -->
    <g style="fill: #059669" transform="translate(156.993713 160.288442) scale(0.12 -0.12)">
     <defs>
      <path id="DejaVuSans-Bold-3b1" d="M 3006 3163 
L 3119 3500 
L 4088 3500 
L 3484 1697 
L 3569 1219 
Q 3659 703 3872 703 
L 4128 703 
L 4128 0 
L 3809 0 
Q 3313 0 3059 263 
Q 3003 322 2988 353 
Q 2838 163 2689 39 
Q 2541 -84 1763 -78 
Q 988 -72 648 400 
Q 309 872 309 1794 
Q 309 2713 663 3088 
Q 1109 3569 1966 3578 
Q 2688 3588 3006 3163 
z
M 2575 1841 
L 2481 2350 
Q 2394 2825 1981 2828 
Q 1772 2828 1598 2558 
Q 1425 2288 1425 1741 
Q 1425 1191 1581 944 
Q 1738 697 1969 691 
Q 2213 684 2363 1163 
L 2575 1841 
z
" transform="scale(0.015625)"/>
     </defs>
     <use xlink:href="#DejaVuSans-Bold-3b1"/>
    </g>
   </g>
   <g id="text_5">
    <!-- α = arco AB -->
    <g style="fill: #4b5563" transform="translate(114.234721 318.641796) scale(0.1 -0.1)">
     <defs>
      <path id="DejaVuSans-3b1" d="M 2644 1628 
L 2506 2350 
Q 2366 3091 1809 3091 
Q 1391 3091 1200 2747 
Q 959 2316 959 1747 
Q 959 1059 1194 731 
Q 1431 397 1809 397 
Q 2228 397 2453 1063 
L 2644 1628 
z
M 2966 2584 
L 3275 3500 
L 3788 3500 
L 3147 1603 
L 3272 919 
Q 3300 766 3409 638 
Q 3538 488 3638 488 
L 3913 488 
L 3913 0 
L 3569 0 
Q 3275 0 3013 263 
Q 2884 394 2831 669 
Q 2688 322 2394 50 
Q 2256 -78 1809 -78 
Q 1075 -78 719 397 
Q 353 888 353 1747 
Q 353 2666 750 3097 
Q 1191 3578 1809 3578 
Q 2781 3578 2966 2584 
z
" transform="scale(0.015625)"/>
      <path id="DejaVuSans-20" transform="scale(0.015625)"/>
      <path id="DejaVuSans-3d" d="M 678 2906 
L 4684 2906 
L 4684 2381 
L 678 2381 
L 678 2906 
z
M 678 1631 
L 4684 1631 
L 4684 1100 
L 678 1100 
L 678 1631 
z
" transform="scale(0.015625)"/>
      <path id="DejaVuSans-61" d="M 2194 1759 
Q 1497 1759 1228 1600 
Q 959 1441 959 1056 
Q 959 750 1161 570 
Q 1363 391 1709 391 
Q 2188 391 2477 730 
Q 2766 1069 2766 1631 
L 2766 1759 
L 2194 1759 
z
M 3341 1997 
L 3341 0 
L 2766 0 
L 2766 531 
Q 2569 213 2275 61 
Q 1981 -91 1556 -91 
Q 1019 -91 701 211 
Q 384 513 384 1019 
Q 384 1609 779 1909 
Q 1175 2209 1959 2209 
L 2766 2209 
L 2766 2266 
Q 2766 2663 2505 2880 
Q 2244 3097 1772 3097 
Q 1472 3097 1187 3025 
Q 903 2953 641 2809 
L 641 3341 
Q 956 3463 1253 3523 
Q 1550 3584 1831 3584 
Q 2591 3584 2966 3190 
Q 3341 2797 3341 1997 
z
" transform="scale(0.015625)"/>
      <path id="DejaVuSans-72" d="M 2631 2963 
Q 2534 3019 2420 3045 
Q 2306 3072 2169 3072 
Q 1681 3072 1420 2755 
Q 1159 2438 1159 1844 
L 1159 0 
L 581 0 
L 581 3500 
L 1159 3500 
L 1159 2956 
Q 1341 3275 1631 3429 
Q 1922 3584 2338 3584 
Q 2397 3584 2469 3576 
Q 2541 3569 2628 3553 
L 2631 2963 
z
" transform="scale(0.015625)"/>
      <path id="DejaVuSans-63" d="M 3122 3366 
L 3122 2828 
Q 2878 2963 2633 3030 
Q 2388 3097 2138 3097 
Q 1578 3097 1268 2742 
Q 959 2388 959 1747 
Q 959 1106 1268 751 
Q 1578 397 2138 397 
Q 2388 397 2633 464 
Q 2878 531 3122 666 
L 3122 134 
Q 2881 22 2623 -34 
Q 2366 -91 2075 -91 
Q 1284 -91 818 406 
Q 353 903 353 1747 
Q 353 2603 823 3093 
Q 1294 3584 2113 3584 
Q 2378 3584 2631 3529 
Q 2884 3475 3122 3366 
z
" transform="scale(0.015625)"/>
      <path id="DejaVuSans-6f" d="M 1959 3097 
Q 1497 3097 1228 2736 
Q 959 2375 959 1747 
Q 959 1119 1226 758 
Q 1494 397 1959 397 
Q 2419 397 2687 759 
Q 2956 1122 2956 1747 
Q 2956 2369 2687 2733 
Q 2419 3097 1959 3097 
z
M 1959 3584 
Q 2709 3584 3137 3096 
Q 3566 2609 3566 1747 
Q 3566 888 3137 398 
Q 2709 -91 1959 -91 
Q 1206 -91 779 398 
Q 353 888 353 1747 
Q 353 2609 779 3096 
Q 1206 3584 1959 3584 
z
" transform="scale(0.015625)"/>
     </defs>
     <use xlink:href="#DejaVuSans-3b1"/>
     <use xlink:href="#DejaVuSans-20" transform="translate(65.917969 0)"/>
     <use xlink:href="#DejaVuSans-3d" transform="translate(97.705078 0)"/>
     <use xlink:href="#DejaVuSans-20" transform="translate(181.494141 0)"/>
     <use xlink:href="#DejaVuSans-61" transform="translate(213.28125 0)"/>
     <use xlink:href="#DejaVuSans-72" transform="translate(274.560547 0)"/>
     <use xlink:href="#DejaVuSans-63" transform="translate(313.423828 0)"/>
     <use xlink:href="#DejaVuSans-6f" transform="translate(368.404297 0)"/>
     <use xlink:href="#DejaVuSans-20" transform="translate(429.585938 0)"/>
     <use xlink:href="#DejaVuSans-41" transform="translate(461.373047 0)"/>
     <use xlink:href="#DejaVuSans-42" transform="translate(529.78125 0)"/>
    </g>
   </g>
   <g id="text_6">
    <!-- ÁNGULO CENTRAL -->
    <g style="fill: #1f2937" transform="translate(88.274252 51.852574) scale(0.11 -0.11)">
     <defs>
      <path id="DejaVuSans-Bold-c1" d="M 3419 850 
L 1538 850 
L 1241 0 
L 31 0 
L 1759 4666 
L 3194 4666 
L 4922 0 
L 3713 0 
L 3419 850 
z
M 1838 1716 
L 3116 1716 
L 2478 3572 
L 1838 1716 
z
M 2559 5921 
L 3444 5921 
L 2553 5096 
L 1941 5096 
L 2559 5921 
z
" transform="scale(0.015625)"/>
      <path id="DejaVuSans-Bold-4e" d="M 588 4666 
L 1931 4666 
L 3628 1466 
L 3628 4666 
L 4769 4666 
L 4769 0 
L 3425 0 
L 1728 3200 
L 1728 0 
L 588 0 
L 588 4666 
z
" transform="scale(0.015625)"/>
      <path id="DejaVuSans-Bold-47" d="M 4781 347 
Q 4331 128 3847 18 
Q 3363 -91 2847 -91 
Q 1681 -91 1000 561 
Q 319 1213 319 2328 
Q 319 3456 1012 4103 
Q 1706 4750 2913 4750 
Q 3378 4750 3804 4662 
Q 4231 4575 4609 4403 
L 4609 3438 
Q 4219 3659 3833 3768 
Q 3447 3878 3059 3878 
Q 2341 3878 1952 3476 
Q 1563 3075 1563 2328 
Q 1563 1588 1938 1184 
Q 2313 781 3003 781 
Q 3191 781 3352 804 
Q 3513 828 3641 878 
L 3641 1784 
L 2906 1784 
L 2906 2591 
L 4781 2591 
L 4781 347 
z
" transform="scale(0.015625)"/>
      <path id="DejaVuSans-Bold-55" d="M 588 4666 
L 1791 4666 
L 1791 1869 
Q 1791 1291 1980 1042 
Q 2169 794 2597 794 
Q 3028 794 3217 1042 
Q 3406 1291 3406 1869 
L 3406 4666 
L 4609 4666 
L 4609 1869 
Q 4609 878 4112 393 
Q 3616 -91 2597 -91 
Q 1581 -91 1084 393 
Q 588 878 588 1869 
L 588 4666 
z
" transform="scale(0.015625)"/>
      <path id="DejaVuSans-Bold-4c" d="M 588 4666 
L 1791 4666 
L 1791 909 
L 3903 909 
L 3903 0 
L 588 0 
L 588 4666 
z
" transform="scale(0.015625)"/>
      <path id="DejaVuSans-Bold-4f" d="M 2719 3878 
Q 2169 3878 1866 3472 
Q 1563 3066 1563 2328 
Q 1563 1594 1866 1187 
Q 2169 781 2719 781 
Q 3272 781 3575 1187 
Q 3878 1594 3878 2328 
Q 3878 3066 3575 3472 
Q 3272 3878 2719 3878 
z
M 2719 4750 
Q 3844 4750 4481 4106 
Q 5119 3463 5119 2328 
Q 5119 1197 4481 553 
Q 3844 -91 2719 -91 
Q 1597 -91 958 553 
Q 319 1197 319 2328 
Q 319 3463 958 4106 
Q 1597 4750 2719 4750 
z
" transform="scale(0.015625)"/>
      <path id="DejaVuSans-Bold-20" transform="scale(0.015625)"/>
      <path id="DejaVuSans-Bold-43" d="M 4288 256 
Q 3956 84 3597 -3 
Q 3238 -91 2847 -91 
Q 1681 -91 1000 561 
Q 319 1213 319 2328 
Q 319 3447 1000 4098 
Q 1681 4750 2847 4750 
Q 3238 4750 3597 4662 
Q 3956 4575 4288 4403 
L 4288 3438 
Q 3953 3666 3628 3772 
Q 3303 3878 2944 3878 
Q 2300 3878 1931 3465 
Q 1563 3053 1563 2328 
Q 1563 1606 1931 1193 
Q 2300 781 2944 781 
Q 3303 781 3628 887 
Q 3953 994 4288 1222 
L 4288 256 
z
" transform="scale(0.015625)"/>
      <path id="DejaVuSans-Bold-45" d="M 588 4666 
L 3834 4666 
L 3834 3756 
L 1791 3756 
L 1791 2888 
L 3713 2888 
L 3713 1978 
L 1791 1978 
L 1791 909 
L 3903 909 
L 3903 0 
L 588 0 
L 588 4666 
z
" transform="scale(0.015625)"/>
      <path id="DejaVuSans-Bold-54" d="M 31 4666 
L 4331 4666 
L 4331 3756 
L 2784 3756 
L 2784 0 
L 1581 0 
L 1581 3756 
L 31 3756 
L 31 4666 
z
" transform="scale(0.015625)"/>
      <path id="DejaVuSans-Bold-52" d="M 2297 2597 
Q 2675 2597 2839 2737 
Q 3003 2878 3003 3200 
Q 3003 3519 2839 3656 
Q 2675 3794 2297 3794 
L 1791 3794 
L 1791 2597 
L 2297 2597 
z
M 1791 1766 
L 1791 0 
L 588 0 
L 588 4666 
L 2425 4666 
Q 3347 4666 3776 4356 
Q 4206 4047 4206 3378 
Q 4206 2916 3982 2619 
Q 3759 2322 3309 2181 
Q 3556 2125 3751 1926 
Q 3947 1728 4147 1325 
L 4800 0 
L 3519 0 
L 2950 1159 
Q 2778 1509 2601 1637 
Q 2425 1766 2131 1766 
L 1791 1766 
z
" transform="scale(0.015625)"/>
      <path id="DejaVuSans-Bold-41" d="M 3419 850 
L 1538 850 
L 1241 0 
L 31 0 
L 1759 4666 
L 3194 4666 
L 4922 0 
L 3713 0 
L 3419 850 
z
M 1838 1716 
L 3116 1716 
L 2478 3572 
L 1838 1716 
z
" transform="scale(0.015625)"/>
     </defs>
     <use xlink:href="#DejaVuSans-Bold-c1"/>
     <use xlink:href="#DejaVuSans-Bold-4e" transform="translate(77.392578 0)"/>
     <use xlink:href="#DejaVuSans-Bold-47" transform="translate(161.083984 0)"/>
     <use xlink:href="#DejaVuSans-Bold-55" transform="translate(243.164062 0)"/>
     <use xlink:href="#DejaVuSans-Bold-4c" transform="translate(324.365234 0)"/>
     <use xlink:href="#DejaVuSans-Bold-4f" transform="translate(384.460938 0)"/>
     <use xlink:href="#DejaVuSans-Bold-20" transform="translate(469.470703 0)"/>
     <use xlink:href="#DejaVuSans-Bold-43" transform="translate(504.285156 0)"/>
     <use xlink:href="#DejaVuSans-Bold-45" transform="translate(577.673828 0)"/>
     <use xlink:href="#DejaVuSans-Bold-4e" transform="translate(645.984375 0)"/>
     <use xlink:href="#DejaVuSans-Bold-54" transform="translate(729.675781 0)"/>
     <use xlink:href="#DejaVuSans-Bold-52" transform="translate(797.888672 0)"/>
     <use xlink:href="#DejaVuSans-Bold-41" transform="translate(874.890625 0)"/>
     <use xlink:href="#DejaVuSans-Bold-4c" transform="translate(952.283203 0)"/>
    </g>
   </g>
  </g>
  <g id="axes_2">
   <g id="line2d_9">
    <path d="M 561.43066 190.247185 
L 561.258326 184.818325 
L 560.742021 179.411326 
L 559.883821 174.047958 
L 558.687184 168.749819 
L 557.156927 163.538243 
L 555.299212 158.434214 
L 553.12152 153.458284 
L 550.63262 148.630491 
L 547.842532 143.970273 
L 544.762493 139.496396 
L 541.404904 135.226875 
L 537.783286 131.178901 
L 533.91222 127.368774 
L 529.807295 123.811836 
L 525.48504 120.52241 
L 520.962858 117.513741 
L 516.258959 114.797944 
L 511.392285 112.385954 
L 506.382431 110.287484 
L 501.24957 108.510983 
L 496.01437 107.063606 
L 490.697912 105.951179 
L 485.321604 105.178183 
L 479.907093 104.747729 
L 474.476183 104.661552 
L 469.05074 104.919997 
L 463.652613 105.522025 
L 458.303537 106.465212 
L 453.025051 107.745759 
L 447.838409 109.35851 
L 442.764497 111.296971 
L 437.823745 113.553337 
L 433.036048 116.118521 
L 428.420685 118.982196 
L 423.996238 122.13283 
L 419.780526 125.557736 
L 415.790522 129.243124 
L 412.042293 133.174154 
L 408.550931 137.334996 
L 405.330496 141.708898 
L 402.393954 146.278246 
L 399.753131 151.024641 
L 397.418659 155.928971 
L 395.39994 160.971489 
L 393.7051 166.13189 
L 392.340967 171.389395 
L 391.313031 176.722833 
L 390.625432 182.110729 
L 390.280939 187.531388 
L 390.280939 192.962982 
L 390.625432 198.383641 
L 391.313031 203.771537 
L 392.340967 209.104975 
L 393.7051 214.36248 
L 395.39994 219.52288 
L 397.418659 224.565398 
L 399.753131 229.469729 
L 402.393954 234.216124 
L 405.330496 238.785472 
L 408.550931 243.159373 
L 412.042293 247.320216 
L 415.790522 251.251246 
L 419.780526 254.936633 
L 423.996238 258.36154 
L 428.420685 261.512173 
L 433.036048 264.375848 
L 437.823745 266.941033 
L 442.764497 269.197399 
L 447.838409 271.13586 
L 453.025051 272.748611 
L 458.303537 274.029158 
L 463.652613 274.972344 
L 469.05074 275.574373 
L 474.476183 275.832818 
L 479.907093 275.746641 
L 485.321604 275.316187 
L 490.697912 274.543191 
L 496.01437 273.430764 
L 501.24957 271.983386 
L 506.382431 270.206886 
L 511.392285 268.108416 
L 516.258959 265.696426 
L 520.962858 262.980629 
L 525.48504 259.97196 
L 529.807295 256.682534 
L 533.91222 253.125596 
L 537.783286 249.315469 
L 541.404904 245.267495 
L 544.762493 240.997974 
L 547.842532 236.524097 
L 550.63262 231.863879 
L 553.12152 227.036085 
L 555.299212 222.060156 
L 557.156927 216.956127 
L 558.687184 211.74455 
L 559.883821 206.446412 
L 560.742021 201.083044 
L 561.258326 195.676045 
L 561.43066 190.247185 
" clip-path="url(#pba0baaf1b2)" style="fill: none; stroke: #374151; stroke-width: 2; stroke-linecap: square"/>
   </g>
   <g id="line2d_10">
    <g clip-path="url(#pba0baaf1b2)">
     <use xlink:href="#m5f3daca3aa" x="475.834252" y="190.247185" style="fill: #374151; stroke: #374151"/>
    </g>
   </g>
   <g id="line2d_11">
    <path d="M 410.2636 245.267495 
L 556.268565 160.971489 
" clip-path="url(#pba0baaf1b2)" style="fill: none; stroke: #2563eb; stroke-width: 2; stroke-linecap: square"/>
   </g>
   <g id="line2d_12">
    <path d="M 410.2636 245.267495 
L 433.036048 116.118521 
" clip-path="url(#pba0baaf1b2)" style="fill: none; stroke: #2563eb; stroke-width: 2; stroke-linecap: square"/>
   </g>
   <g id="line2d_13">
    <g clip-path="url(#pba0baaf1b2)">
     <use xlink:href="#m770397b2d5" x="556.268565" y="160.971489" style="fill: #dc2626; stroke: #dc2626"/>
    </g>
   </g>
   <g id="line2d_14">
    <g clip-path="url(#pba0baaf1b2)">
     <use xlink:href="#m770397b2d5" x="433.036048" y="116.118521" style="fill: #dc2626; stroke: #dc2626"/>
    </g>
   </g>
   <g id="line2d_15">
    <defs>
     <path id="m1e1cb24be9" d="M 0 3 
C 0.795609 3 1.55874 2.683901 2.12132 2.12132 
C 2.683901 1.55874 3 0.795609 3 0 
C 3 -0.795609 2.683901 -1.55874 2.12132 -2.12132 
C 1.55874 -2.683901 0.795609 -3 0 -3 
C -0.795609 -3 -1.55874 -2.683901 -2.12132 -2.12132 
C -2.683901 -1.55874 -3 -0.795609 -3 0 
C -3 0.795609 -2.683901 1.55874 -2.12132 2.12132 
C -1.55874 2.683901 -0.795609 3 0 3 
z
" style="stroke: #059669"/>
    </defs>
    <g clip-path="url(#pba0baaf1b2)">
     <use xlink:href="#m1e1cb24be9" x="410.2636" y="245.267495" style="fill: #059669; stroke: #059669"/>
    </g>
   </g>
   <g id="line2d_16">
    <path d="M 425.089332 236.707854 
L 424.825084 236.265663 
L 424.54765 235.831622 
L 424.257283 235.406124 
L 423.954245 234.989556 
L 423.638811 234.582294 
L 423.311267 234.184707 
L 422.971908 233.797155 
L 422.621042 233.419989 
L 422.258988 233.05355 
L 421.886072 232.69817 
L 421.502633 232.354171 
L 421.109017 232.021865 
L 420.705581 231.701552 
L 420.292691 231.393522 
L 419.870719 231.098054 
L 419.440049 230.815416 
L 419.00107 230.545864 
L 418.554179 230.289642 
L 418.099782 230.046981 
L 417.63829 229.818102 
L 417.17012 229.603212 
L 416.695696 229.402504 
L 416.215449 229.216162 
L 415.729813 229.044354 
L 415.239227 228.887235 
L 414.744136 228.744947 
L 414.244987 228.61762 
L 413.742234 228.505368 
L 413.236332 228.408294 
" clip-path="url(#pba0baaf1b2)" style="fill: none; stroke: #059669; stroke-width: 2; stroke-linecap: square"/>
   </g>
   <g id="line2d_17">
    <path d="M 556.268565 160.971489 
L 554.36208 156.186575 
L 552.171247 151.524993 
L 549.703999 147.003625 
L 546.969268 142.638841 
L 543.976959 138.446446 
L 540.737905 134.441622 
L 537.263835 130.638869 
L 533.567329 127.051957 
L 529.661772 123.693875 
L 525.561306 120.576782 
L 521.280779 117.711965 
L 516.83569 115.109797 
L 512.242136 112.779701 
L 507.516748 110.730115 
L 502.676639 108.968459 
L 497.739334 107.501113 
L 492.72271 106.33339 
L 487.644933 105.469518 
L 482.52439 104.912625 
L 477.379622 104.664729 
L 472.229259 104.726725 
L 467.091949 105.098391 
L 461.986294 105.77838 
L 456.930783 106.764229 
L 451.943722 108.05237 
L 447.043168 109.638138 
L 442.246866 111.51579 
L 437.572184 113.678529 
L 433.036048 116.118521 
" clip-path="url(#pba0baaf1b2)" style="fill: none; stroke: #dc2626; stroke-opacity: 0.5; stroke-width: 4; stroke-linecap: square"/>
   </g>
   <g id="text_7">
    <!-- O -->
    <g style="fill: #374151" transform="translate(484.393893 203.086646) scale(0.1 -0.1)">
     <use xlink:href="#DejaVuSans-4f"/>
    </g>
   </g>
   <g id="text_8">
    <!-- A -->
    <g style="fill: #1f2937" transform="translate(569.108026 160.971489) scale(0.1 -0.1)">
     <use xlink:href="#DejaVuSans-41"/>
    </g>
   </g>
   <g id="text_9">
    <!-- B -->
    <g style="fill: #1f2937" transform="translate(415.916767 107.558881) scale(0.1 -0.1)">
     <use xlink:href="#DejaVuSans-42"/>
    </g>
   </g>
   <g id="text_10">
    <!-- P -->
    <g style="fill: #1f2937" transform="translate(393.144318 258.106956) scale(0.1 -0.1)">
     <defs>
      <path id="DejaVuSans-50" d="M 1259 4147 
L 1259 2394 
L 2053 2394 
Q 2494 2394 2734 2622 
Q 2975 2850 2975 3272 
Q 2975 3691 2734 3919 
Q 2494 4147 2053 4147 
L 1259 4147 
z
M 628 4666 
L 2053 4666 
Q 2838 4666 3239 4311 
Q 3641 3956 3641 3272 
Q 3641 2581 3239 2228 
Q 2838 1875 2053 1875 
L 1259 1875 
L 1259 0 
L 628 0 
L 628 4666 
z
" transform="scale(0.015625)"/>
     </defs>
     <use xlink:href="#DejaVuSans-50"/>
    </g>
   </g>
   <g id="text_11">
    <!-- β -->
    <g style="fill: #059669" transform="translate(431.662702 219.588573) scale(0.12 -0.12)">
     <defs>
      <path id="DejaVuSans-Bold-3b2" d="M 2575 3038 
Q 2772 3309 2772 3503 
Q 2772 3769 2648 3948 
Q 2525 4128 2241 4128 
Q 1900 4128 1778 3864 
Q 1656 3600 1656 3103 
L 1656 1747 
Q 1656 1250 1848 986 
Q 2041 722 2400 722 
Q 2800 722 2953 934 
Q 3106 1147 3106 1275 
Q 3106 1722 2738 1988 
Q 2538 2122 1988 2134 
L 1988 2847 
Q 2497 2925 2575 3038 
z
M 538 -1331 
L 538 3044 
Q 538 3922 969 4369 
Q 1325 4741 1672 4845 
Q 2019 4950 2259 4950 
Q 2500 4947 2538 4941 
Q 3178 4841 3538 4438 
Q 3788 4163 3788 3600 
Q 3788 3313 3616 3053 
Q 3406 2734 3094 2709 
Q 3556 2584 3844 2322 
Q 4294 1919 4294 1288 
Q 4294 731 3903 320 
Q 3513 -91 2809 -91 
Q 2106 -91 1656 506 
L 1656 -1331 
L 538 -1331 
z
" transform="scale(0.015625)"/>
     </defs>
     <use xlink:href="#DejaVuSans-Bold-3b2"/>
    </g>
   </g>
   <g id="text_12">
    <!-- β = arco AB / 2 -->
    <g style="fill: #4b5563" transform="translate(437.97644 318.641796) scale(0.1 -0.1)">
     <defs>
      <path id="DejaVuSans-3b2" d="M 1178 216 
L 1178 -1331 
L 600 -1331 
L 600 3478 
Q 600 4903 1931 4903 
Q 3288 4903 3288 3700 
Q 3288 2844 2750 2531 
Q 3625 2250 3625 1416 
Q 3625 -66 2119 -66 
Q 1456 -66 1178 216 
z
M 1178 966 
Q 1525 425 2141 425 
Q 3041 425 3041 1406 
Q 3041 2288 1591 2219 
L 1591 2750 
Q 2725 2750 2725 3750 
Q 2725 4434 1994 4434 
Q 1178 4434 1178 3459 
L 1178 966 
z
" transform="scale(0.015625)"/>
      <path id="DejaVuSans-2f" d="M 1625 4666 
L 2156 4666 
L 531 -594 
L 0 -594 
L 1625 4666 
z
" transform="scale(0.015625)"/>
      <path id="DejaVuSans-32" d="M 1228 531 
L 3431 531 
L 3431 0 
L 469 0 
L 469 531 
Q 828 903 1448 1529 
Q 2069 2156 2228 2338 
Q 2531 2678 2651 2914 
Q 2772 3150 2772 3378 
Q 2772 3750 2511 3984 
Q 2250 4219 1831 4219 
Q 1534 4219 1204 4116 
Q 875 4013 500 3803 
L 500 4441 
Q 881 4594 1212 4672 
Q 1544 4750 1819 4750 
Q 2544 4750 2975 4387 
Q 3406 4025 3406 3419 
Q 3406 3131 3298 2873 
Q 3191 2616 2906 2266 
Q 2828 2175 2409 1742 
Q 1991 1309 1228 531 
z
" transform="scale(0.015625)"/>
     </defs>
     <use xlink:href="#DejaVuSans-3b2"/>
     <use xlink:href="#DejaVuSans-20" transform="translate(63.818359 0)"/>
     <use xlink:href="#DejaVuSans-3d" transform="translate(95.605469 0)"/>
     <use xlink:href="#DejaVuSans-20" transform="translate(179.394531 0)"/>
     <use xlink:href="#DejaVuSans-61" transform="translate(211.181641 0)"/>
     <use xlink:href="#DejaVuSans-72" transform="translate(272.460938 0)"/>
     <use xlink:href="#DejaVuSans-63" transform="translate(311.324219 0)"/>
     <use xlink:href="#DejaVuSans-6f" transform="translate(366.304688 0)"/>
     <use xlink:href="#DejaVuSans-20" transform="translate(427.486328 0)"/>
     <use xlink:href="#DejaVuSans-41" transform="translate(459.273438 0)"/>
     <use xlink:href="#DejaVuSans-42" transform="translate(527.681641 0)"/>
     <use xlink:href="#DejaVuSans-20" transform="translate(596.285156 0)"/>
     <use xlink:href="#DejaVuSans-2f" transform="translate(628.072266 0)"/>
     <use xlink:href="#DejaVuSans-20" transform="translate(661.763672 0)"/>
     <use xlink:href="#DejaVuSans-32" transform="translate(693.550781 0)"/>
    </g>
   </g>
   <g id="text_13">
    <!-- ÁNGULO INSCRITO -->
    <g style="fill: #1f2937" transform="translate(418.743393 51.852574) scale(0.11 -0.11)">
     <defs>
      <path id="DejaVuSans-Bold-49" d="M 588 4666 
L 1791 4666 
L 1791 0 
L 588 0 
L 588 4666 
z
" transform="scale(0.015625)"/>
      <path id="DejaVuSans-Bold-53" d="M 3834 4519 
L 3834 3531 
Q 3450 3703 3084 3790 
Q 2719 3878 2394 3878 
Q 1963 3878 1756 3759 
Q 1550 3641 1550 3391 
Q 1550 3203 1689 3098 
Q 1828 2994 2194 2919 
L 2706 2816 
Q 3484 2659 3812 2340 
Q 4141 2022 4141 1434 
Q 4141 663 3683 286 
Q 3225 -91 2284 -91 
Q 1841 -91 1394 -6 
Q 947 78 500 244 
L 500 1259 
Q 947 1022 1364 901 
Q 1781 781 2169 781 
Q 2563 781 2772 912 
Q 2981 1044 2981 1288 
Q 2981 1506 2839 1625 
Q 2697 1744 2272 1838 
L 1806 1941 
Q 1106 2091 782 2419 
Q 459 2747 459 3303 
Q 459 4000 909 4375 
Q 1359 4750 2203 4750 
Q 2588 4750 2994 4692 
Q 3400 4634 3834 4519 
z
" transform="scale(0.015625)"/>
     </defs>
     <use xlink:href="#DejaVuSans-Bold-c1"/>
     <use xlink:href="#DejaVuSans-Bold-4e" transform="translate(77.392578 0)"/>
     <use xlink:href="#DejaVuSans-Bold-47" transform="translate(161.083984 0)"/>
     <use xlink:href="#DejaVuSans-Bold-55" transform="translate(243.164062 0)"/>
     <use xlink:href="#DejaVuSans-Bold-4c" transform="translate(324.365234 0)"/>
     <use xlink:href="#DejaVuSans-Bold-4f" transform="translate(384.460938 0)"/>
     <use xlink:href="#DejaVuSans-Bold-20" transform="translate(469.470703 0)"/>
     <use xlink:href="#DejaVuSans-Bold-49" transform="translate(504.285156 0)"/>
     <use xlink:href="#DejaVuSans-Bold-4e" transform="translate(541.492188 0)"/>
     <use xlink:href="#DejaVuSans-Bold-53" transform="translate(625.183594 0)"/>
     <use xlink:href="#DejaVuSans-Bold-43" transform="translate(697.205078 0)"/>
     <use xlink:href="#DejaVuSans-Bold-52" transform="translate(770.59375 0)"/>
     <use xlink:href="#DejaVuSans-Bold-49" transform="translate(847.595703 0)"/>
     <use xlink:href="#DejaVuSans-Bold-54" transform="translate(884.802734 0)"/>
     <use xlink:href="#DejaVuSans-Bold-4f" transform="translate(953.015625 0)"/>
    </g>
   </g>
  </g>
  <g id="axes_3">
   <g id="line2d_18">
    <path d="M 893.11066 190.247185 
L 892.938326 184.818325 
L 892.422021 179.411326 
L 891.563821 174.047958 
L 890.367184 168.749819 
L 888.836927 163.538243 
L 886.979212 158.434214 
L 884.80152 153.458284 
L 882.31262 148.630491 
L 879.522532 143.970273 
L 876.442493 139.496396 
L 873.084904 135.226875 
L 869.463286 131.178901 
L 865.59222 127.368774 
L 861.487295 123.811836 
L 857.16504 120.52241 
L 852.642858 117.513741 
L 847.938959 114.797944 
L 843.072285 112.385954 
L 838.062431 110.287484 
L 832.92957 108.510983 
L 827.69437 107.063606 
L 822.377912 105.951179 
L 817.001604 105.178183 
L 811.587093 104.747729 
L 806.156183 104.661552 
L 800.73074 104.919997 
L 795.332613 105.522025 
L 789.983537 106.465212 
L 784.705051 107.745759 
L 779.518409 109.35851 
L 774.444497 111.296971 
L 769.503745 113.553337 
L 764.716048 116.118521 
L 760.100685 118.982196 
L 755.676238 122.13283 
L 751.460526 125.557736 
L 747.470522 129.243124 
L 743.722293 133.174154 
L 740.230931 137.334996 
L 737.010496 141.708898 
L 734.073954 146.278246 
L 731.433131 151.024641 
L 729.098659 155.928971 
L 727.07994 160.971489 
L 725.3851 166.13189 
L 724.020967 171.389395 
L 722.993031 176.722833 
L 722.305432 182.110729 
L 721.960939 187.531388 
L 721.960939 192.962982 
L 722.305432 198.383641 
L 722.993031 203.771537 
L 724.020967 209.104975 
L 725.3851 214.36248 
L 727.07994 219.52288 
L 729.098659 224.565398 
L 731.433131 229.469729 
L 734.073954 234.216124 
L 737.010496 238.785472 
L 740.230931 243.159373 
L 743.722293 247.320216 
L 747.470522 251.251246 
L 751.460526 254.936633 
L 755.676238 258.36154 
L 760.100685 261.512173 
L 764.716048 264.375848 
L 769.503745 266.941033 
L 774.444497 269.197399 
L 779.518409 271.13586 
L 784.705051 272.748611 
L 789.983537 274.029158 
L 795.332613 274.972344 
L 800.73074 275.574373 
L 806.156183 275.832818 
L 811.587093 275.746641 
L 817.001604 275.316187 
L 822.377912 274.543191 
L 827.69437 273.430764 
L 832.92957 271.983386 
L 838.062431 270.206886 
L 843.072285 268.108416 
L 847.938959 265.696426 
L 852.642858 262.980629 
L 857.16504 259.97196 
L 861.487295 256.682534 
L 865.59222 253.125596 
L 869.463286 249.315469 
L 873.084904 245.267495 
L 876.442493 240.997974 
L 879.522532 236.524097 
L 882.31262 231.863879 
L 884.80152 227.036085 
L 886.979212 222.060156 
L 888.836927 216.956127 
L 890.367184 211.74455 
L 891.563821 206.446412 
L 892.422021 201.083044 
L 892.938326 195.676045 
L 893.11066 190.247185 
" clip-path="url(#p6a1b2dc5fe)" style="fill: none; stroke: #374151; stroke-width: 2; stroke-linecap: square"/>
   </g>
   <g id="line2d_19">
    <g clip-path="url(#p6a1b2dc5fe)">
     <use xlink:href="#m5f3daca3aa" x="807.514252" y="190.247185" style="fill: #374151; stroke: #374151"/>
    </g>
   </g>
   <g id="line2d_20">
    <path d="M 721.917845 190.247185 
L 893.11066 190.247185 
" clip-path="url(#p6a1b2dc5fe)" style="fill: none; stroke: #374151; stroke-width: 2; stroke-linecap: square"/>
   </g>
   <g id="line2d_21">
    <path d="M 850.312456 116.118521 
L 721.917845 190.247185 
" clip-path="url(#p6a1b2dc5fe)" style="fill: none; stroke: #2563eb; stroke-width: 2; stroke-linecap: square"/>
   </g>
   <g id="line2d_22">
    <path d="M 850.312456 116.118521 
L 893.11066 190.247185 
" clip-path="url(#p6a1b2dc5fe)" style="fill: none; stroke: #2563eb; stroke-width: 2; stroke-linecap: square"/>
   </g>
   <g id="line2d_23">
    <g clip-path="url(#p6a1b2dc5fe)">
     <use xlink:href="#m770397b2d5" x="721.917845" y="190.247185" style="fill: #dc2626; stroke: #dc2626"/>
    </g>
   </g>
   <g id="line2d_24">
    <g clip-path="url(#p6a1b2dc5fe)">
     <use xlink:href="#m770397b2d5" x="893.11066" y="190.247185" style="fill: #dc2626; stroke: #dc2626"/>
    </g>
   </g>
   <g id="line2d_25">
    <g clip-path="url(#p6a1b2dc5fe)">
     <use xlink:href="#m1e1cb24be9" x="850.312456" y="116.118521" style="fill: #059669; stroke: #059669"/>
    </g>
   </g>
   <g id="line2d_26">
    <path d="M 839.193156 122.538252 
L 845.612887 133.657552 
L 856.732186 127.237821 
" clip-path="url(#p6a1b2dc5fe)" style="fill: none; stroke: #dc2626; stroke-width: 1.5; stroke-linecap: square"/>
   </g>
   <g id="text_14">
    <!-- O -->
    <g style="fill: #374151" transform="translate(816.073893 203.086646) scale(0.1 -0.1)">
     <use xlink:href="#DejaVuSans-4f"/>
    </g>
   </g>
   <g id="text_15">
    <!-- A -->
    <g style="fill: #1f2937" transform="translate(704.798563 190.247185) scale(0.1 -0.1)">
     <use xlink:href="#DejaVuSans-41"/>
    </g>
   </g>
   <g id="text_16">
    <!-- B -->
    <g style="fill: #1f2937" transform="translate(901.6703 190.247185) scale(0.1 -0.1)">
     <use xlink:href="#DejaVuSans-42"/>
    </g>
   </g>
   <g id="text_17">
    <!-- P -->
    <g style="fill: #1f2937" transform="translate(858.872097 107.558881) scale(0.1 -0.1)">
     <use xlink:href="#DejaVuSans-50"/>
    </g>
   </g>
   <g id="text_18">
    <!-- ∠APB = 90° -->
    <g style="fill: #4b5563" transform="translate(776.935346 318.641796) scale(0.1 -0.1)">
     <defs>
      <path id="DejaVuSans-2220" d="M 5028 631 
L 5028 0 
L 547 0 
L 3525 4666 
L 4281 4666 
L 1716 631 
L 5028 631 
z
" transform="scale(0.015625)"/>
      <path id="DejaVuSans-39" d="M 703 97 
L 703 672 
Q 941 559 1184 500 
Q 1428 441 1663 441 
Q 2288 441 2617 861 
Q 2947 1281 2994 2138 
Q 2813 1869 2534 1725 
Q 2256 1581 1919 1581 
Q 1219 1581 811 2004 
Q 403 2428 403 3163 
Q 403 3881 828 4315 
Q 1253 4750 1959 4750 
Q 2769 4750 3195 4129 
Q 3622 3509 3622 2328 
Q 3622 1225 3098 567 
Q 2575 -91 1691 -91 
Q 1453 -91 1209 -44 
Q 966 3 703 97 
z
M 1959 2075 
Q 2384 2075 2632 2365 
Q 2881 2656 2881 3163 
Q 2881 3666 2632 3958 
Q 2384 4250 1959 4250 
Q 1534 4250 1286 3958 
Q 1038 3666 1038 3163 
Q 1038 2656 1286 2365 
Q 1534 2075 1959 2075 
z
" transform="scale(0.015625)"/>
      <path id="DejaVuSans-30" d="M 2034 4250 
Q 1547 4250 1301 3770 
Q 1056 3291 1056 2328 
Q 1056 1369 1301 889 
Q 1547 409 2034 409 
Q 2525 409 2770 889 
Q 3016 1369 3016 2328 
Q 3016 3291 2770 3770 
Q 2525 4250 2034 4250 
z
M 2034 4750 
Q 2819 4750 3233 4129 
Q 3647 3509 3647 2328 
Q 3647 1150 3233 529 
Q 2819 -91 2034 -91 
Q 1250 -91 836 529 
Q 422 1150 422 2328 
Q 422 3509 836 4129 
Q 1250 4750 2034 4750 
z
" transform="scale(0.015625)"/>
      <path id="DejaVuSans-b0" d="M 1600 4347 
Q 1350 4347 1178 4173 
Q 1006 4000 1006 3750 
Q 1006 3503 1178 3333 
Q 1350 3163 1600 3163 
Q 1850 3163 2022 3333 
Q 2194 3503 2194 3750 
Q 2194 3997 2020 4172 
Q 1847 4347 1600 4347 
z
M 1600 4750 
Q 1800 4750 1984 4673 
Q 2169 4597 2303 4453 
Q 2447 4313 2519 4134 
Q 2591 3956 2591 3750 
Q 2591 3338 2302 3052 
Q 2013 2766 1594 2766 
Q 1172 2766 890 3047 
Q 609 3328 609 3750 
Q 609 4169 896 4459 
Q 1184 4750 1600 4750 
z
" transform="scale(0.015625)"/>
     </defs>
     <use xlink:href="#DejaVuSans-2220"/>
     <use xlink:href="#DejaVuSans-41" transform="translate(89.648438 0)"/>
     <use xlink:href="#DejaVuSans-50" transform="translate(158.056641 0)"/>
     <use xlink:href="#DejaVuSans-42" transform="translate(218.359375 0)"/>
     <use xlink:href="#DejaVuSans-20" transform="translate(286.962891 0)"/>
     <use xlink:href="#DejaVuSans-3d" transform="translate(318.75 0)"/>
     <use xlink:href="#DejaVuSans-20" transform="translate(402.539062 0)"/>
     <use xlink:href="#DejaVuSans-39" transform="translate(434.326172 0)"/>
     <use xlink:href="#DejaVuSans-30" transform="translate(497.949219 0)"/>
     <use xlink:href="#DejaVuSans-b0" transform="translate(561.572266 0)"/>
    </g>
   </g>
   <g id="text_19">
    <!-- (AB es diámetro) -->
    <g style="fill: #6b7280" transform="translate(769.479408 344.320718) scale(0.09 -0.09)">
     <defs>
      <path id="DejaVuSans-Oblique-28" d="M 2731 4856 
Q 1903 3822 1495 2892 
Q 1088 1963 1088 1100 
Q 1088 606 1206 120 
Q 1325 -366 1563 -844 
L 1063 -844 
Q 775 -306 634 201 
Q 494 709 494 1197 
Q 494 2125 923 3036 
Q 1353 3947 2222 4856 
L 2731 4856 
z
" transform="scale(0.015625)"/>
      <path id="DejaVuSans-Oblique-41" d="M 2356 4666 
L 3072 4666 
L 3938 0 
L 3278 0 
L 3084 1197 
L 984 1197 
L 325 0 
L -341 0 
L 2356 4666 
z
M 2584 4044 
L 1275 1722 
L 2988 1722 
L 2584 4044 
z
" transform="scale(0.015625)"/>
      <path id="DejaVuSans-Oblique-42" d="M 1081 4666 
L 2694 4666 
Q 3350 4666 3675 4422 
Q 4000 4178 4000 3688 
Q 4000 3238 3720 2911 
Q 3441 2584 2988 2516 
Q 3375 2428 3569 2181 
Q 3763 1934 3763 1522 
Q 3763 819 3242 409 
Q 2722 0 1819 0 
L 172 0 
L 1081 4666 
z
M 1234 2228 
L 903 519 
L 1919 519 
Q 2491 519 2800 781 
Q 3109 1044 3109 1522 
Q 3109 1891 2904 2059 
Q 2700 2228 2247 2228 
L 1234 2228 
z
M 1606 4147 
L 1331 2741 
L 2272 2741 
Q 2775 2741 3058 2959 
Q 3341 3178 3341 3566 
Q 3341 3869 3150 4008 
Q 2959 4147 2541 4147 
L 1606 4147 
z
" transform="scale(0.015625)"/>
      <path id="DejaVuSans-Oblique-20" transform="scale(0.015625)"/>
      <path id="DejaVuSans-Oblique-65" d="M 3078 2063 
Q 3088 2113 3092 2166 
Q 3097 2219 3097 2272 
Q 3097 2653 2873 2875 
Q 2650 3097 2266 3097 
Q 1838 3097 1509 2826 
Q 1181 2556 1013 2059 
L 3078 2063 
z
M 3578 1613 
L 903 1613 
Q 884 1494 878 1425 
Q 872 1356 872 1306 
Q 872 872 1139 634 
Q 1406 397 1894 397 
Q 2269 397 2603 481 
Q 2938 566 3225 728 
L 3116 159 
Q 2806 34 2476 -28 
Q 2147 -91 1806 -91 
Q 1078 -91 686 257 
Q 294 606 294 1247 
Q 294 1794 489 2264 
Q 684 2734 1063 3103 
Q 1306 3334 1642 3459 
Q 1978 3584 2356 3584 
Q 2950 3584 3301 3228 
Q 3653 2872 3653 2272 
Q 3653 2128 3634 1964 
Q 3616 1800 3578 1613 
z
" transform="scale(0.015625)"/>
      <path id="DejaVuSans-Oblique-73" d="M 3200 3397 
L 3091 2853 
Q 2863 2978 2609 3040 
Q 2356 3103 2088 3103 
Q 1634 3103 1373 2948 
Q 1113 2794 1113 2528 
Q 1113 2219 1719 2053 
Q 1766 2041 1788 2034 
L 1972 1978 
Q 2547 1819 2739 1644 
Q 2931 1469 2931 1166 
Q 2931 609 2489 259 
Q 2047 -91 1331 -91 
Q 1053 -91 747 -37 
Q 441 16 72 128 
L 184 722 
Q 500 559 806 475 
Q 1113 391 1394 391 
Q 1816 391 2080 572 
Q 2344 753 2344 1031 
Q 2344 1331 1650 1516 
L 1591 1531 
L 1394 1581 
Q 956 1697 753 1886 
Q 550 2075 550 2369 
Q 550 2928 970 3256 
Q 1391 3584 2113 3584 
Q 2397 3584 2667 3537 
Q 2938 3491 3200 3397 
z
" transform="scale(0.015625)"/>
      <path id="DejaVuSans-Oblique-64" d="M 2675 525 
Q 2444 222 2128 65 
Q 1813 -91 1428 -91 
Q 903 -91 598 267 
Q 294 625 294 1247 
Q 294 1766 478 2236 
Q 663 2706 1013 3078 
Q 1244 3325 1534 3454 
Q 1825 3584 2144 3584 
Q 2481 3584 2739 3421 
Q 2997 3259 3138 2956 
L 3513 4863 
L 4091 4863 
L 3144 0 
L 2566 0 
L 2675 525 
z
M 891 1350 
Q 891 897 1095 644 
Q 1300 391 1663 391 
Q 1931 391 2161 520 
Q 2391 650 2566 903 
Q 2750 1166 2856 1509 
Q 2963 1853 2963 2188 
Q 2963 2622 2758 2865 
Q 2553 3109 2194 3109 
Q 1922 3109 1687 2981 
Q 1453 2853 1288 2613 
Q 1106 2353 998 2009 
Q 891 1666 891 1350 
z
" transform="scale(0.015625)"/>
      <path id="DejaVuSans-Oblique-69" d="M 1172 4863 
L 1747 4863 
L 1606 4134 
L 1031 4134 
L 1172 4863 
z
M 909 3500 
L 1484 3500 
L 800 0 
L 225 0 
L 909 3500 
z
" transform="scale(0.015625)"/>
      <path id="DejaVuSans-Oblique-e1" d="M 3438 1997 
L 3047 0 
L 2472 0 
L 2578 531 
Q 2325 219 2001 64 
Q 1678 -91 1281 -91 
Q 834 -91 548 182 
Q 263 456 263 884 
Q 263 1497 752 1853 
Q 1241 2209 2100 2209 
L 2900 2209 
L 2931 2363 
Q 2938 2388 2941 2417 
Q 2944 2447 2944 2509 
Q 2944 2788 2717 2942 
Q 2491 3097 2081 3097 
Q 1800 3097 1504 3025 
Q 1209 2953 897 2809 
L 997 3341 
Q 1322 3463 1633 3523 
Q 1944 3584 2234 3584 
Q 2853 3584 3176 3315 
Q 3500 3047 3500 2534 
Q 3500 2431 3484 2292 
Q 3469 2153 3438 1997 
z
M 2816 1759 
L 2241 1759 
Q 1534 1759 1195 1570 
Q 856 1381 856 984 
Q 856 709 1029 553 
Q 1203 397 1509 397 
Q 1978 397 2328 733 
Q 2678 1069 2791 1631 
L 2816 1759 
z
M 3031 5119 
L 3653 5119 
L 2406 3944 
L 1925 3944 
L 3031 5119 
z
" transform="scale(0.015625)"/>
      <path id="DejaVuSans-Oblique-6d" d="M 5747 2113 
L 5338 0 
L 4763 0 
L 5166 2094 
Q 5191 2228 5203 2325 
Q 5216 2422 5216 2491 
Q 5216 2772 5059 2928 
Q 4903 3084 4622 3084 
Q 4203 3084 3875 2770 
Q 3547 2456 3450 1953 
L 3066 0 
L 2491 0 
L 2900 2094 
Q 2925 2209 2937 2307 
Q 2950 2406 2950 2484 
Q 2950 2769 2794 2926 
Q 2638 3084 2363 3084 
Q 1938 3084 1609 2770 
Q 1281 2456 1184 1953 
L 800 0 
L 225 0 
L 909 3500 
L 1484 3500 
L 1375 2956 
Q 1609 3263 1923 3423 
Q 2238 3584 2597 3584 
Q 2978 3584 3223 3384 
Q 3469 3184 3519 2828 
Q 3781 3197 4126 3390 
Q 4472 3584 4856 3584 
Q 5306 3584 5551 3325 
Q 5797 3066 5797 2591 
Q 5797 2488 5784 2364 
Q 5772 2241 5747 2113 
z
" transform="scale(0.015625)"/>
      <path id="DejaVuSans-Oblique-74" d="M 2706 3500 
L 2619 3053 
L 1472 3053 
L 1100 1153 
Q 1081 1047 1072 975 
Q 1063 903 1063 863 
Q 1063 663 1183 572 
Q 1303 481 1569 481 
L 2150 481 
L 2053 0 
L 1503 0 
Q 991 0 739 200 
Q 488 400 488 806 
Q 488 878 497 964 
Q 506 1050 525 1153 
L 897 3053 
L 409 3053 
L 500 3500 
L 978 3500 
L 1172 4494 
L 1747 4494 
L 1556 3500 
L 2706 3500 
z
" transform="scale(0.015625)"/>
      <path id="DejaVuSans-Oblique-72" d="M 2853 2969 
Q 2766 3016 2653 3041 
Q 2541 3066 2413 3066 
Q 1953 3066 1609 2717 
Q 1266 2369 1153 1784 
L 800 0 
L 225 0 
L 909 3500 
L 1484 3500 
L 1375 2956 
Q 1603 3259 1920 3421 
Q 2238 3584 2597 3584 
Q 2691 3584 2781 3573 
Q 2872 3563 2963 3538 
L 2853 2969 
z
" transform="scale(0.015625)"/>
      <path id="DejaVuSans-Oblique-6f" d="M 1625 -91 
Q 1009 -91 651 289 
Q 294 669 294 1325 
Q 294 1706 417 2101 
Q 541 2497 738 2766 
Q 1047 3184 1428 3384 
Q 1809 3584 2291 3584 
Q 2888 3584 3255 3212 
Q 3622 2841 3622 2241 
Q 3622 1825 3500 1412 
Q 3378 1000 3181 728 
Q 2875 309 2494 109 
Q 2113 -91 1625 -91 
z
M 891 1344 
Q 891 869 1089 633 
Q 1288 397 1691 397 
Q 2269 397 2648 901 
Q 3028 1406 3028 2181 
Q 3028 2634 2825 2865 
Q 2622 3097 2228 3097 
Q 1903 3097 1650 2945 
Q 1397 2794 1197 2484 
Q 1050 2253 970 1956 
Q 891 1659 891 1344 
z
" transform="scale(0.015625)"/>
      <path id="DejaVuSans-Oblique-29" d="M -397 -844 
Q 434 191 840 1120 
Q 1247 2050 1247 2913 
Q 1247 3406 1130 3892 
Q 1013 4378 775 4856 
L 1275 4856 
Q 1563 4316 1703 3812 
Q 1844 3309 1844 2822 
Q 1844 1891 1411 973 
Q 978 56 116 -844 
L -397 -844 
z
" transform="scale(0.015625)"/>
     </defs>
     <use xlink:href="#DejaVuSans-Oblique-28"/>
     <use xlink:href="#DejaVuSans-Oblique-41" transform="translate(39.013672 0)"/>
     <use xlink:href="#DejaVuSans-Oblique-42" transform="translate(107.421875 0)"/>
     <use xlink:href="#DejaVuSans-Oblique-20" transform="translate(176.025391 0)"/>
     <use xlink:href="#DejaVuSans-Oblique-65" transform="translate(207.8125 0)"/>
     <use xlink:href="#DejaVuSans-Oblique-73" transform="translate(269.335938 0)"/>
     <use xlink:href="#DejaVuSans-Oblique-20" transform="translate(321.435547 0)"/>
     <use xlink:href="#DejaVuSans-Oblique-64" transform="translate(353.222656 0)"/>
     <use xlink:href="#DejaVuSans-Oblique-69" transform="translate(416.699219 0)"/>
     <use xlink:href="#DejaVuSans-Oblique-e1" transform="translate(444.482422 0)"/>
     <use xlink:href="#DejaVuSans-Oblique-6d" transform="translate(505.761719 0)"/>
     <use xlink:href="#DejaVuSans-Oblique-65" transform="translate(603.173828 0)"/>
     <use xlink:href="#DejaVuSans-Oblique-74" transform="translate(664.697266 0)"/>
     <use xlink:href="#DejaVuSans-Oblique-72" transform="translate(703.90625 0)"/>
     <use xlink:href="#DejaVuSans-Oblique-6f" transform="translate(745.019531 0)"/>
     <use xlink:href="#DejaVuSans-Oblique-29" transform="translate(806.201172 0)"/>
    </g>
   </g>
   <g id="text_20">
    <!-- ÁNGULO EN SEMICÍRCULO -->
    <g style="fill: #1f2937" transform="translate(727.46519 51.852574) scale(0.11 -0.11)">
     <defs>
      <path id="DejaVuSans-Bold-4d" d="M 588 4666 
L 2119 4666 
L 3181 2169 
L 4250 4666 
L 5778 4666 
L 5778 0 
L 4641 0 
L 4641 3413 
L 3566 897 
L 2803 897 
L 1728 3413 
L 1728 0 
L 588 0 
L 588 4666 
z
" transform="scale(0.015625)"/>
      <path id="DejaVuSans-Bold-cd" d="M 588 4666 
L 1791 4666 
L 1791 0 
L 588 0 
L 588 4666 
z
M 1271 5921 
L 2156 5921 
L 1265 5096 
L 653 5096 
L 1271 5921 
z
" transform="scale(0.015625)"/>
     </defs>
     <use xlink:href="#DejaVuSans-Bold-c1"/>
     <use xlink:href="#DejaVuSans-Bold-4e" transform="translate(77.392578 0)"/>
     <use xlink:href="#DejaVuSans-Bold-47" transform="translate(161.083984 0)"/>
     <use xlink:href="#DejaVuSans-Bold-55" transform="translate(243.164062 0)"/>
     <use xlink:href="#DejaVuSans-Bold-4c" transform="translate(324.365234 0)"/>
     <use xlink:href="#DejaVuSans-Bold-4f" transform="translate(384.460938 0)"/>
     <use xlink:href="#DejaVuSans-Bold-20" transform="translate(469.470703 0)"/>
     <use xlink:href="#DejaVuSans-Bold-45" transform="translate(504.285156 0)"/>
     <use xlink:href="#DejaVuSans-Bold-4e" transform="translate(572.595703 0)"/>
     <use xlink:href="#DejaVuSans-Bold-20" transform="translate(656.287109 0)"/>
     <use xlink:href="#DejaVuSans-Bold-53" transform="translate(691.101562 0)"/>
     <use xlink:href="#DejaVuSans-Bold-45" transform="translate(763.123047 0)"/>
     <use xlink:href="#DejaVuSans-Bold-4d" transform="translate(831.433594 0)"/>
     <use xlink:href="#DejaVuSans-Bold-49" transform="translate(930.945312 0)"/>
     <use xlink:href="#DejaVuSans-Bold-43" transform="translate(968.152344 0)"/>
     <use xlink:href="#DejaVuSans-Bold-cd" transform="translate(1041.541016 0)"/>
     <use xlink:href="#DejaVuSans-Bold-52" transform="translate(1078.748047 0)"/>
     <use xlink:href="#DejaVuSans-Bold-43" transform="translate(1155.75 0)"/>
     <use xlink:href="#DejaVuSans-Bold-55" transform="translate(1229.138672 0)"/>
     <use xlink:href="#DejaVuSans-Bold-4c" transform="translate(1310.339844 0)"/>
     <use xlink:href="#DejaVuSans-Bold-4f" transform="translate(1370.435547 0)"/>
    </g>
   </g>
  </g>
  <g id="text_21">
   <!-- Ángulos en la Circunferencia -->
   <g style="fill: #1f2937" transform="translate(362.545815 20.152187) scale(0.14 -0.14)">
    <defs>
     <path id="DejaVuSans-Bold-6e" d="M 4056 2131 
L 4056 0 
L 2931 0 
L 2931 347 
L 2931 1631 
Q 2931 2084 2911 2256 
Q 2891 2428 2841 2509 
Q 2775 2619 2662 2680 
Q 2550 2741 2406 2741 
Q 2056 2741 1856 2470 
Q 1656 2200 1656 1722 
L 1656 0 
L 538 0 
L 538 3500 
L 1656 3500 
L 1656 2988 
Q 1909 3294 2193 3439 
Q 2478 3584 2822 3584 
Q 3428 3584 3742 3212 
Q 4056 2841 4056 2131 
z
" transform="scale(0.015625)"/>
     <path id="DejaVuSans-Bold-67" d="M 2919 594 
Q 2688 288 2409 144 
Q 2131 0 1766 0 
Q 1125 0 706 504 
Q 288 1009 288 1791 
Q 288 2575 706 3076 
Q 1125 3578 1766 3578 
Q 2131 3578 2409 3434 
Q 2688 3291 2919 2981 
L 2919 3500 
L 4044 3500 
L 4044 353 
Q 4044 -491 3511 -936 
Q 2978 -1381 1966 -1381 
Q 1638 -1381 1331 -1331 
Q 1025 -1281 716 -1178 
L 716 -306 
Q 1009 -475 1290 -558 
Q 1572 -641 1856 -641 
Q 2406 -641 2662 -400 
Q 2919 -159 2919 353 
L 2919 594 
z
M 2181 2772 
Q 1834 2772 1640 2515 
Q 1447 2259 1447 1791 
Q 1447 1309 1634 1061 
Q 1822 813 2181 813 
Q 2531 813 2725 1069 
Q 2919 1325 2919 1791 
Q 2919 2259 2725 2515 
Q 2531 2772 2181 2772 
z
" transform="scale(0.015625)"/>
     <path id="DejaVuSans-Bold-75" d="M 500 1363 
L 500 3500 
L 1625 3500 
L 1625 3150 
Q 1625 2866 1622 2436 
Q 1619 2006 1619 1863 
Q 1619 1441 1641 1255 
Q 1663 1069 1716 984 
Q 1784 875 1895 815 
Q 2006 756 2150 756 
Q 2500 756 2700 1025 
Q 2900 1294 2900 1772 
L 2900 3500 
L 4019 3500 
L 4019 0 
L 2900 0 
L 2900 506 
Q 2647 200 2364 54 
Q 2081 -91 1741 -91 
Q 1134 -91 817 281 
Q 500 653 500 1363 
z
" transform="scale(0.015625)"/>
     <path id="DejaVuSans-Bold-6c" d="M 538 4863 
L 1656 4863 
L 1656 0 
L 538 0 
L 538 4863 
z
" transform="scale(0.015625)"/>
     <path id="DejaVuSans-Bold-6f" d="M 2203 2784 
Q 1831 2784 1636 2517 
Q 1441 2250 1441 1747 
Q 1441 1244 1636 976 
Q 1831 709 2203 709 
Q 2569 709 2762 976 
Q 2956 1244 2956 1747 
Q 2956 2250 2762 2517 
Q 2569 2784 2203 2784 
z
M 2203 3584 
Q 3106 3584 3614 3096 
Q 4122 2609 4122 1747 
Q 4122 884 3614 396 
Q 3106 -91 2203 -91 
Q 1297 -91 786 396 
Q 275 884 275 1747 
Q 275 2609 786 3096 
Q 1297 3584 2203 3584 
z
" transform="scale(0.015625)"/>
     <path id="DejaVuSans-Bold-73" d="M 3272 3391 
L 3272 2541 
Q 2913 2691 2578 2766 
Q 2244 2841 1947 2841 
Q 1628 2841 1473 2761 
Q 1319 2681 1319 2516 
Q 1319 2381 1436 2309 
Q 1553 2238 1856 2203 
L 2053 2175 
Q 2913 2066 3209 1816 
Q 3506 1566 3506 1031 
Q 3506 472 3093 190 
Q 2681 -91 1863 -91 
Q 1516 -91 1145 -36 
Q 775 19 384 128 
L 384 978 
Q 719 816 1070 734 
Q 1422 653 1784 653 
Q 2113 653 2278 743 
Q 2444 834 2444 1013 
Q 2444 1163 2330 1236 
Q 2216 1309 1875 1350 
L 1678 1375 
Q 931 1469 631 1722 
Q 331 1975 331 2491 
Q 331 3047 712 3315 
Q 1094 3584 1881 3584 
Q 2191 3584 2531 3537 
Q 2872 3491 3272 3391 
z
" transform="scale(0.015625)"/>
     <path id="DejaVuSans-Bold-65" d="M 4031 1759 
L 4031 1441 
L 1416 1441 
Q 1456 1047 1700 850 
Q 1944 653 2381 653 
Q 2734 653 3104 758 
Q 3475 863 3866 1075 
L 3866 213 
Q 3469 63 3072 -14 
Q 2675 -91 2278 -91 
Q 1328 -91 801 392 
Q 275 875 275 1747 
Q 275 2603 792 3093 
Q 1309 3584 2216 3584 
Q 3041 3584 3536 3087 
Q 4031 2591 4031 1759 
z
M 2881 2131 
Q 2881 2450 2695 2645 
Q 2509 2841 2209 2841 
Q 1884 2841 1681 2658 
Q 1478 2475 1428 2131 
L 2881 2131 
z
" transform="scale(0.015625)"/>
     <path id="DejaVuSans-Bold-61" d="M 2106 1575 
Q 1756 1575 1579 1456 
Q 1403 1338 1403 1106 
Q 1403 894 1545 773 
Q 1688 653 1941 653 
Q 2256 653 2472 879 
Q 2688 1106 2688 1447 
L 2688 1575 
L 2106 1575 
z
M 3816 1997 
L 3816 0 
L 2688 0 
L 2688 519 
Q 2463 200 2181 54 
Q 1900 -91 1497 -91 
Q 953 -91 614 226 
Q 275 544 275 1050 
Q 275 1666 698 1953 
Q 1122 2241 2028 2241 
L 2688 2241 
L 2688 2328 
Q 2688 2594 2478 2717 
Q 2269 2841 1825 2841 
Q 1466 2841 1156 2769 
Q 847 2697 581 2553 
L 581 3406 
Q 941 3494 1303 3539 
Q 1666 3584 2028 3584 
Q 2975 3584 3395 3211 
Q 3816 2838 3816 1997 
z
" transform="scale(0.015625)"/>
     <path id="DejaVuSans-Bold-69" d="M 538 3500 
L 1656 3500 
L 1656 0 
L 538 0 
L 538 3500 
z
M 538 4863 
L 1656 4863 
L 1656 3950 
L 538 3950 
L 538 4863 
z
" transform="scale(0.015625)"/>
     <path id="DejaVuSans-Bold-72" d="M 3138 2547 
Q 2991 2616 2845 2648 
Q 2700 2681 2553 2681 
Q 2122 2681 1889 2404 
Q 1656 2128 1656 1613 
L 1656 0 
L 538 0 
L 538 3500 
L 1656 3500 
L 1656 2925 
Q 1872 3269 2151 3426 
Q 2431 3584 2822 3584 
Q 2878 3584 2943 3579 
Q 3009 3575 3134 3559 
L 3138 2547 
z
" transform="scale(0.015625)"/>
     <path id="DejaVuSans-Bold-63" d="M 3366 3391 
L 3366 2478 
Q 3138 2634 2908 2709 
Q 2678 2784 2431 2784 
Q 1963 2784 1702 2511 
Q 1441 2238 1441 1747 
Q 1441 1256 1702 982 
Q 1963 709 2431 709 
Q 2694 709 2930 787 
Q 3166 866 3366 1019 
L 3366 103 
Q 3103 6 2833 -42 
Q 2563 -91 2291 -91 
Q 1344 -91 809 395 
Q 275 881 275 1747 
Q 275 2613 809 3098 
Q 1344 3584 2291 3584 
Q 2566 3584 2833 3536 
Q 3100 3488 3366 3391 
z
" transform="scale(0.015625)"/>
     <path id="DejaVuSans-Bold-66" d="M 2841 4863 
L 2841 4128 
L 2222 4128 
Q 1984 4128 1890 4042 
Q 1797 3956 1797 3744 
L 1797 3500 
L 2753 3500 
L 2753 2700 
L 1797 2700 
L 1797 0 
L 678 0 
L 678 2700 
L 122 2700 
L 122 3500 
L 678 3500 
L 678 3744 
Q 678 4316 997 4589 
Q 1316 4863 1984 4863 
L 2841 4863 
z
" transform="scale(0.015625)"/>
    </defs>
    <use xlink:href="#DejaVuSans-Bold-c1"/>
    <use xlink:href="#DejaVuSans-Bold-6e" transform="translate(77.392578 0)"/>
    <use xlink:href="#DejaVuSans-Bold-67" transform="translate(148.583984 0)"/>
    <use xlink:href="#DejaVuSans-Bold-75" transform="translate(220.166016 0)"/>
    <use xlink:href="#DejaVuSans-Bold-6c" transform="translate(291.357422 0)"/>
    <use xlink:href="#DejaVuSans-Bold-6f" transform="translate(325.634766 0)"/>
    <use xlink:href="#DejaVuSans-Bold-73" transform="translate(394.335938 0)"/>
    <use xlink:href="#DejaVuSans-Bold-20" transform="translate(453.857422 0)"/>
    <use xlink:href="#DejaVuSans-Bold-65" transform="translate(488.671875 0)"/>
    <use xlink:href="#DejaVuSans-Bold-6e" transform="translate(556.494141 0)"/>
    <use xlink:href="#DejaVuSans-Bold-20" transform="translate(627.685547 0)"/>
    <use xlink:href="#DejaVuSans-Bold-6c" transform="translate(662.5 0)"/>
    <use xlink:href="#DejaVuSans-Bold-61" transform="translate(696.777344 0)"/>
    <use xlink:href="#DejaVuSans-Bold-20" transform="translate(764.257812 0)"/>
    <use xlink:href="#DejaVuSans-Bold-43" transform="translate(799.072266 0)"/>
    <use xlink:href="#DejaVuSans-Bold-69" transform="translate(872.460938 0)"/>
    <use xlink:href="#DejaVuSans-Bold-72" transform="translate(906.738281 0)"/>
    <use xlink:href="#DejaVuSans-Bold-63" transform="translate(956.054688 0)"/>
    <use xlink:href="#DejaVuSans-Bold-75" transform="translate(1015.332031 0)"/>
    <use xlink:href="#DejaVuSans-Bold-6e" transform="translate(1086.523438 0)"/>
    <use xlink:href="#DejaVuSans-Bold-66" transform="translate(1157.714844 0)"/>
    <use xlink:href="#DejaVuSans-Bold-65" transform="translate(1201.220703 0)"/>
    <use xlink:href="#DejaVuSans-Bold-72" transform="translate(1269.042969 0)"/>
    <use xlink:href="#DejaVuSans-Bold-65" transform="translate(1318.359375 0)"/>
    <use xlink:href="#DejaVuSans-Bold-6e" transform="translate(1386.181641 0)"/>
    <use xlink:href="#DejaVuSans-Bold-63" transform="translate(1457.373047 0)"/>
    <use xlink:href="#DejaVuSans-Bold-69" transform="translate(1516.650391 0)"/>
    <use xlink:href="#DejaVuSans-Bold-61" transform="translate(1550.927734 0)"/>
   </g>
  </g>
 </g>
 <defs>
  <clipPath id="p876222ec28">
   <rect x="7.2" y="61.852574" width="273.908504" height="299.587426"/>
  </clipPath>
  <clipPath id="pba0baaf1b2">
   <rect x="338.88" y="61.852574" width="273.908504" height="299.587426"/>
  </clipPath>
  <clipPath id="p6a1b2dc5fe">
   <rect x="670.56" y="61.852574" width="273.908504" height="299.587426"/>
  </clipPath>
 </defs>
</svg>
