<?xml version="1.0" encoding="utf-8" standalone="no"?>
<!DOCTYPE svg PUBLIC "-//W3C//DTD SVG 1.1//EN"
  "http://www.w3.org/Graphics/SVG/1.1/DTD/svg11.dtd">
<svg xmlns:xlink="http://www.w3.org/1999/xlink" width="684pt" height="362.7575pt" viewBox="0 0 684 362.7575" xmlns="http://www.w3.org/2000/svg" version="1.1">
 <metadata>
  <rdf:RDF xmlns:dc="http://purl.org/dc/elements/1.1/" xmlns:cc="http://creativecommons.org/ns#" xmlns:rdf="http://www.w3.org/1999/02/22-rdf-syntax-ns#">
   <cc:Work>
    <dc:type rdf:resource="http://purl.org/dc/dcmitype/StillImage"/>
    <dc:date>2026-01-03T16:49:18.093484</dc:date>
    <dc:format>image/svg+xml</dc:format>
    <dc:creator>
     <cc:Agent>
      <dc:title>Repositorio Matemáticas Universitarias</dc:title>
     </cc:Agent>
    </dc:creator>
   </cc:Work>
  </rdf:RDF>
 </metadata>
 <defs>
  <style type="text/css">*{stroke-linejoin: round; stroke-linecap: butt}</style>
 </defs>
 <g id="figure_1">
  <g id="patch_1">
   <path d="M 0 362.7575 
L 684 362.7575 
L 684 0 
L 0 0 
z
" style="fill: #ffffff"/>
  </g>
  <g id="axes_1">
   <g id="patch_2">
    <path d="M 295.5 110.0375 
L 388.5 110.0375 
Q 395.94 110.0375 395.94 102.5975 
L 395.94 87.7175 
Q 395.94 80.2775 388.5 80.2775 
L 295.5 80.2775 
Q 288.06 80.2775 288.06 87.7175 
L 288.06 102.5975 
Q 288.06 110.0375 295.5 110.0375 
z
" clip-path="url(#p6f5a61fa06)" style="fill: #2563eb; opacity: 0.15; stroke: #1f2937; stroke-width: 2; stroke-linejoin: miter"/>
   </g>
   <g id="patch_3">
    <path d="M 295.5 110.0375 
L 388.5 110.0375 
Q 395.94 110.0375 395.94 102.5975 
L 395.94 87.7175 
Q 395.94 80.2775 388.5 80.2775 
L 295.5 80.2775 
Q 288.06 80.2775 288.06 87.7175 
L 288.06 102.5975 
Q 288.06 110.0375 295.5 110.0375 
L 295.5 110.0375 
z
" clip-path="url(#p6f5a61fa06)" style="fill: none; opacity: 0.8; stroke: #2563eb; stroke-width: 2; stroke-linejoin: miter"/>
   </g>
   <g id="patch_4">
    <path d="M 165.3 176.9975 
L 258.3 176.9975 
Q 265.74 176.9975 265.74 169.5575 
L 265.74 154.6775 
Q 265.74 147.2375 258.3 147.2375 
L 165.3 147.2375 
Q 157.86 147.2375 157.86 154.6775 
L 157.86 169.5575 
Q 157.86 176.9975 165.3 176.9975 
z
" clip-path="url(#p6f5a61fa06)" style="fill: #2563eb; opacity: 0.15; stroke: #1f2937; stroke-width: 2; stroke-linejoin: miter"/>
   </g>
   <g id="patch_5">
    <path d="M 165.3 176.9975 
L 258.3 176.9975 
Q 265.74 176.9975 265.74 169.5575 
L 265.74 154.6775 
Q 265.74 147.2375 258.3 147.2375 
L 165.3 147.2375 
Q 157.86 147.2375 157.86 154.6775 
L 157.86 169.5575 
Q 157.86 176.9975 165.3 176.9975 
L 165.3 176.9975 
z
" clip-path="url(#p6f5a61fa06)" style="fill: none; opacity: 0.8; stroke: #2563eb; stroke-width: 2; stroke-linejoin: miter"/>
   </g>
   <g id="patch_6">
    <path d="M 425.7 176.9975 
L 518.7 176.9975 
Q 526.14 176.9975 526.14 169.5575 
L 526.14 154.6775 
Q 526.14 147.2375 518.7 147.2375 
L 425.7 147.2375 
Q 418.26 147.2375 418.26 154.6775 
L 418.26 169.5575 
Q 418.26 176.9975 425.7 176.9975 
z
" clip-path="url(#p6f5a61fa06)" style="fill: #7c3aed; opacity: 0.15; stroke: #1f2937; stroke-width: 2; stroke-linejoin: miter"/>
   </g>
   <g id="patch_7">
    <path d="M 425.7 176.9975 
L 518.7 176.9975 
Q 526.14 176.9975 526.14 169.5575 
L 526.14 154.6775 
Q 526.14 147.2375 518.7 147.2375 
L 425.7 147.2375 
Q 418.26 147.2375 418.26 154.6775 
L 418.26 169.5575 
Q 418.26 176.9975 425.7 176.9975 
L 425.7 176.9975 
z
" clip-path="url(#p6f5a61fa06)" style="fill: none; opacity: 0.8; stroke: #7c3aed; stroke-width: 2; stroke-linejoin: miter"/>
   </g>
   <g id="patch_8">
    <path d="M 90.9 243.9575 
L 183.9 243.9575 
Q 191.34 243.9575 191.34 236.5175 
L 191.34 221.6375 
Q 191.34 214.1975 183.9 214.1975 
L 90.9 214.1975 
Q 83.46 214.1975 83.46 221.6375 
L 83.46 236.5175 
Q 83.46 243.9575 90.9 243.9575 
z
" clip-path="url(#p6f5a61fa06)" style="fill: #059669; opacity: 0.2; stroke: #1f2937; stroke-width: 2; stroke-linejoin: miter"/>
   </g>
   <g id="patch_9">
    <path d="M 90.9 243.9575 
L 183.9 243.9575 
Q 191.34 243.9575 191.34 236.5175 
L 191.34 221.6375 
Q 191.34 214.1975 183.9 214.1975 
L 90.9 214.1975 
Q 83.46 214.1975 83.46 221.6375 
L 83.46 236.5175 
Q 83.46 243.9575 90.9 243.9575 
L 90.9 243.9575 
z
" clip-path="url(#p6f5a61fa06)" style="fill: none; opacity: 0.8; stroke: #059669; stroke-width: 2; stroke-linejoin: miter"/>
   </g>
   <g id="patch_10">
    <path d="M 221.1 243.9575 
L 314.1 243.9575 
Q 321.54 243.9575 321.54 236.5175 
L 321.54 221.6375 
Q 321.54 214.1975 314.1 214.1975 
L 221.1 214.1975 
Q 213.66 214.1975 213.66 221.6375 
L 213.66 236.5175 
Q 213.66 243.9575 221.1 243.9575 
z
" clip-path="url(#p6f5a61fa06)" style="fill: #059669; opacity: 0.2; stroke: #1f2937; stroke-width: 2; stroke-linejoin: miter"/>
   </g>
   <g id="patch_11">
    <path d="M 221.1 243.9575 
L 314.1 243.9575 
Q 321.54 243.9575 321.54 236.5175 
L 321.54 221.6375 
Q 321.54 214.1975 314.1 214.1975 
L 221.1 214.1975 
Q 213.66 214.1975 213.66 221.6375 
L 213.66 236.5175 
Q 213.66 243.9575 221.1 243.9575 
L 221.1 243.9575 
z
" clip-path="url(#p6f5a61fa06)" style="fill: none; opacity: 0.8; stroke: #059669; stroke-width: 2; stroke-linejoin: miter"/>
   </g>
   <g id="patch_12">
    <path d="M 388.5 243.9575 
L 481.5 243.9575 
Q 488.94 243.9575 488.94 236.5175 
L 488.94 221.6375 
Q 488.94 214.1975 481.5 214.1975 
L 388.5 214.1975 
Q 381.06 214.1975 381.06 221.6375 
L 381.06 236.5175 
Q 381.06 243.9575 388.5 243.9575 
z
" clip-path="url(#p6f5a61fa06)" style="fill: #dc2626; opacity: 0.15; stroke: #1f2937; stroke-width: 2; stroke-linejoin: miter"/>
   </g>
   <g id="patch_13">
    <path d="M 388.5 243.9575 
L 481.5 243.9575 
Q 488.94 243.9575 488.94 236.5175 
L 488.94 221.6375 
Q 488.94 214.1975 481.5 214.1975 
L 388.5 214.1975 
Q 381.06 214.1975 381.06 221.6375 
L 381.06 236.5175 
Q 381.06 243.9575 388.5 243.9575 
L 388.5 243.9575 
z
" clip-path="url(#p6f5a61fa06)" style="fill: none; opacity: 0.8; stroke: #dc2626; stroke-width: 2; stroke-linejoin: miter"/>
   </g>
   <g id="patch_14">
    <path d="M 500.1 243.9575 
L 593.1 243.9575 
Q 600.54 243.9575 600.54 236.5175 
L 600.54 221.6375 
Q 600.54 214.1975 593.1 214.1975 
L 500.1 214.1975 
Q 492.66 214.1975 492.66 221.6375 
L 492.66 236.5175 
Q 492.66 243.9575 500.1 243.9575 
z
" clip-path="url(#p6f5a61fa06)" style="fill: #dc2626; opacity: 0.15; stroke: #1f2937; stroke-width: 2; stroke-linejoin: miter"/>
   </g>
   <g id="patch_15">
    <path d="M 500.1 243.9575 
L 593.1 243.9575 
Q 600.54 243.9575 600.54 236.5175 
L 600.54 221.6375 
Q 600.54 214.1975 593.1 214.1975 
L 500.1 214.1975 
Q 492.66 214.1975 492.66 221.6375 
L 492.66 236.5175 
Q 492.66 243.9575 500.1 243.9575 
L 500.1 243.9575 
z
" clip-path="url(#p6f5a61fa06)" style="fill: none; opacity: 0.8; stroke: #dc2626; stroke-width: 2; stroke-linejoin: miter"/>
   </g>
   <g id="patch_16">
    <path d="M 156 310.9175 
L 249 310.9175 
Q 256.44 310.9175 256.44 303.4775 
L 256.44 288.5975 
Q 256.44 281.1575 249 281.1575 
L 156 281.1575 
Q 148.56 281.1575 148.56 288.5975 
L 148.56 303.4775 
Q 148.56 310.9175 156 310.9175 
z
" clip-path="url(#p6f5a61fa06)" style="fill: #059669; opacity: 0.2; stroke: #1f2937; stroke-width: 2; stroke-linejoin: miter"/>
   </g>
   <g id="patch_17">
    <path d="M 156 310.9175 
L 249 310.9175 
Q 256.44 310.9175 256.44 303.4775 
L 256.44 288.5975 
Q 256.44 281.1575 249 281.1575 
L 156 281.1575 
Q 148.56 281.1575 148.56 288.5975 
L 148.56 303.4775 
Q 148.56 310.9175 156 310.9175 
L 156 310.9175 
z
" clip-path="url(#p6f5a61fa06)" style="fill: none; opacity: 0.8; stroke: #059669; stroke-width: 2; stroke-linejoin: miter"/>
   </g>
   <g id="patch_18">
    <path d="M 188.736 239.4935 
L 227.424 239.4935 
L 227.424 218.6615 
L 188.736 218.6615 
z
" clip-path="url(#p6f5a61fa06)" style="fill: #2563eb; opacity: 0.3; stroke: #1f2937; stroke-linejoin: miter"/>
   </g>
   <g id="patch_19">
    <path d="M 338.28 243.9575 
L 350.184 229.0775 
L 338.28 214.1975 
L 326.376 229.0775 
z
" clip-path="url(#p6f5a61fa06)" style="fill: #2563eb; opacity: 0.3; stroke: #1f2937; stroke-linejoin: miter"/>
   </g>
   <g id="patch_20">
    <path d="M 258.3 310.9175 
L 288.06 310.9175 
L 288.06 281.1575 
L 258.3 281.1575 
z
" clip-path="url(#p6f5a61fa06)" style="fill: #2563eb; opacity: 0.3; stroke: #1f2937; stroke-linejoin: miter"/>
   </g>
   <g id="patch_21">
    <path d="M 490.8 238.0055 
L 520.56 238.0055 
L 514.608 220.1495 
L 496.752 220.1495 
z
" clip-path="url(#p6f5a61fa06)" style="fill: #2563eb; opacity: 0.3; stroke: #1f2937; stroke-linejoin: miter"/>
   </g>
   <g id="patch_22">
    <path d="M 602.4 238.0055 
L 629.184 235.0295 
L 623.232 221.6375 
L 608.352 224.6135 
z
" clip-path="url(#p6f5a61fa06)" style="fill: #2563eb; opacity: 0.3; stroke: #1f2937; stroke-linejoin: miter"/>
   </g>
   <g id="line2d_1">
    <path d="M 342 108.1775 
L 342 128.6375 
" clip-path="url(#p6f5a61fa06)" style="fill: none; stroke: #1f2937; stroke-opacity: 0.5; stroke-width: 1.5; stroke-linecap: square"/>
   </g>
   <g id="line2d_2">
    <path d="M 342 128.6375 
L 211.8 128.6375 
" clip-path="url(#p6f5a61fa06)" style="fill: none; stroke: #1f2937; stroke-opacity: 0.5; stroke-width: 1.5; stroke-linecap: square"/>
   </g>
   <g id="line2d_3">
    <path d="M 211.8 128.6375 
L 211.8 149.0975 
" clip-path="url(#p6f5a61fa06)" style="fill: none; stroke: #1f2937; stroke-opacity: 0.5; stroke-width: 1.5; stroke-linecap: square"/>
   </g>
   <g id="line2d_4">
    <path d="M 342 108.1775 
L 342 128.6375 
" clip-path="url(#p6f5a61fa06)" style="fill: none; stroke: #1f2937; stroke-opacity: 0.5; stroke-width: 1.5; stroke-linecap: square"/>
   </g>
   <g id="line2d_5">
    <path d="M 342 128.6375 
L 472.2 128.6375 
" clip-path="url(#p6f5a61fa06)" style="fill: none; stroke: #1f2937; stroke-opacity: 0.5; stroke-width: 1.5; stroke-linecap: square"/>
   </g>
   <g id="line2d_6">
    <path d="M 472.2 128.6375 
L 472.2 149.0975 
" clip-path="url(#p6f5a61fa06)" style="fill: none; stroke: #1f2937; stroke-opacity: 0.5; stroke-width: 1.5; stroke-linecap: square"/>
   </g>
   <g id="line2d_7">
    <path d="M 211.8 175.1375 
L 211.8 195.5975 
" clip-path="url(#p6f5a61fa06)" style="fill: none; stroke: #1f2937; stroke-opacity: 0.5; stroke-width: 1.5; stroke-linecap: square"/>
   </g>
   <g id="line2d_8">
    <path d="M 211.8 195.5975 
L 137.4 195.5975 
" clip-path="url(#p6f5a61fa06)" style="fill: none; stroke: #1f2937; stroke-opacity: 0.5; stroke-width: 1.5; stroke-linecap: square"/>
   </g>
   <g id="line2d_9">
    <path d="M 137.4 195.5975 
L 137.4 216.0575 
" clip-path="url(#p6f5a61fa06)" style="fill: none; stroke: #1f2937; stroke-opacity: 0.5; stroke-width: 1.5; stroke-linecap: square"/>
   </g>
   <g id="line2d_10">
    <path d="M 211.8 175.1375 
L 211.8 195.5975 
" clip-path="url(#p6f5a61fa06)" style="fill: none; stroke: #1f2937; stroke-opacity: 0.5; stroke-width: 1.5; stroke-linecap: square"/>
   </g>
   <g id="line2d_11">
    <path d="M 211.8 195.5975 
L 267.6 195.5975 
" clip-path="url(#p6f5a61fa06)" style="fill: none; stroke: #1f2937; stroke-opacity: 0.5; stroke-width: 1.5; stroke-linecap: square"/>
   </g>
   <g id="line2d_12">
    <path d="M 267.6 195.5975 
L 267.6 216.0575 
" clip-path="url(#p6f5a61fa06)" style="fill: none; stroke: #1f2937; stroke-opacity: 0.5; stroke-width: 1.5; stroke-linecap: square"/>
   </g>
   <g id="line2d_13">
    <path d="M 472.2 175.1375 
L 472.2 195.5975 
" clip-path="url(#p6f5a61fa06)" style="fill: none; stroke: #1f2937; stroke-opacity: 0.5; stroke-width: 1.5; stroke-linecap: square"/>
   </g>
   <g id="line2d_14">
    <path d="M 472.2 195.5975 
L 435 195.5975 
" clip-path="url(#p6f5a61fa06)" style="fill: none; stroke: #1f2937; stroke-opacity: 0.5; stroke-width: 1.5; stroke-linecap: square"/>
   </g>
   <g id="line2d_15">
    <path d="M 435 195.5975 
L 435 216.0575 
" clip-path="url(#p6f5a61fa06)" style="fill: none; stroke: #1f2937; stroke-opacity: 0.5; stroke-width: 1.5; stroke-linecap: square"/>
   </g>
   <g id="line2d_16">
    <path d="M 472.2 175.1375 
L 472.2 195.5975 
" clip-path="url(#p6f5a61fa06)" style="fill: none; stroke: #1f2937; stroke-opacity: 0.5; stroke-width: 1.5; stroke-linecap: square"/>
   </g>
   <g id="line2d_17">
    <path d="M 472.2 195.5975 
L 546.6 195.5975 
" clip-path="url(#p6f5a61fa06)" style="fill: none; stroke: #1f2937; stroke-opacity: 0.5; stroke-width: 1.5; stroke-linecap: square"/>
   </g>
   <g id="line2d_18">
    <path d="M 546.6 195.5975 
L 546.6 216.0575 
" clip-path="url(#p6f5a61fa06)" style="fill: none; stroke: #1f2937; stroke-opacity: 0.5; stroke-width: 1.5; stroke-linecap: square"/>
   </g>
   <g id="line2d_19">
    <path d="M 137.4 242.0975 
L 137.4 262.5575 
" clip-path="url(#p6f5a61fa06)" style="fill: none; stroke: #1f2937; stroke-opacity: 0.5; stroke-width: 1.5; stroke-linecap: square"/>
   </g>
   <g id="line2d_20">
    <path d="M 137.4 262.5575 
L 202.5 262.5575 
" clip-path="url(#p6f5a61fa06)" style="fill: none; stroke: #1f2937; stroke-opacity: 0.5; stroke-width: 1.5; stroke-linecap: square"/>
   </g>
   <g id="line2d_21">
    <path d="M 202.5 262.5575 
L 202.5 283.0175 
" clip-path="url(#p6f5a61fa06)" style="fill: none; stroke: #1f2937; stroke-opacity: 0.5; stroke-width: 1.5; stroke-linecap: square"/>
   </g>
   <g id="line2d_22">
    <path d="M 267.6 242.0975 
L 267.6 262.5575 
" clip-path="url(#p6f5a61fa06)" style="fill: none; stroke: #1f2937; stroke-opacity: 0.5; stroke-width: 1.5; stroke-linecap: square"/>
   </g>
   <g id="line2d_23">
    <path d="M 267.6 262.5575 
L 202.5 262.5575 
" clip-path="url(#p6f5a61fa06)" style="fill: none; stroke: #1f2937; stroke-opacity: 0.5; stroke-width: 1.5; stroke-linecap: square"/>
   </g>
   <g id="line2d_24">
    <path d="M 202.5 262.5575 
L 202.5 283.0175 
" clip-path="url(#p6f5a61fa06)" style="fill: none; stroke: #1f2937; stroke-opacity: 0.5; stroke-width: 1.5; stroke-linecap: square"/>
   </g>
   <g id="text_1">
    <!-- Cuadriláteros -->
    <g style="fill: #1f2937" transform="translate(300.081406 95.216812) scale(0.11 -0.11)">
     <defs>
      <path id="DejaVuSans-Bold-43" d="M 4288 256 
Q 3956 84 3597 -3 
Q 3238 -91 2847 -91 
Q 1681 -91 1000 561 
Q 319 1213 319 2328 
Q 319 3447 1000 4098 
Q 1681 4750 2847 4750 
Q 3238 4750 3597 4662 
Q 3956 4575 4288 4403 
L 4288 3438 
Q 3953 3666 3628 3772 
Q 3303 3878 2944 3878 
Q 2300 3878 1931 3465 
Q 1563 3053 1563 2328 
Q 1563 1606 1931 1193 
Q 2300 781 2944 781 
Q 3303 781 3628 887 
Q 3953 994 4288 1222 
L 4288 256 
z
" transform="scale(0.015625)"/>
      <path id="DejaVuSans-Bold-75" d="M 500 1363 
L 500 3500 
L 1625 3500 
L 1625 3150 
Q 1625 2866 1622 2436 
Q 1619 2006 1619 1863 
Q 1619 1441 1641 1255 
Q 1663 1069 1716 984 
Q 1784 875 1895 815 
Q 2006 756 2150 756 
Q 2500 756 2700 1025 
Q 2900 1294 2900 1772 
L 2900 3500 
L 4019 3500 
L 4019 0 
L 2900 0 
L 2900 506 
Q 2647 200 2364 54 
Q 2081 -91 1741 -91 
Q 1134 -91 817 281 
Q 500 653 500 1363 
z
" transform="scale(0.015625)"/>
      <path id="DejaVuSans-Bold-61" d="M 2106 1575 
Q 1756 1575 1579 1456 
Q 1403 1338 1403 1106 
Q 1403 894 1545 773 
Q 1688 653 1941 653 
Q 2256 653 2472 879 
Q 2688 1106 2688 1447 
L 2688 1575 
L 2106 1575 
z
M 3816 1997 
L 3816 0 
L 2688 0 
L 2688 519 
Q 2463 200 2181 54 
Q 1900 -91 1497 -91 
Q 953 -91 614 226 
Q 275 544 275 1050 
Q 275 1666 698 1953 
Q 1122 2241 2028 2241 
L 2688 2241 
L 2688 2328 
Q 2688 2594 2478 2717 
Q 2269 2841 1825 2841 
Q 1466 2841 1156 2769 
Q 847 2697 581 2553 
L 581 3406 
Q 941 3494 1303 3539 
Q 1666 3584 2028 3584 
Q 2975 3584 3395 3211 
Q 3816 2838 3816 1997 
z
" transform="scale(0.015625)"/>
      <path id="DejaVuSans-Bold-64" d="M 2919 2988 
L 2919 4863 
L 4044 4863 
L 4044 0 
L 2919 0 
L 2919 506 
Q 2688 197 2409 53 
Q 2131 -91 1766 -91 
Q 1119 -91 703 423 
Q 288 938 288 1747 
Q 288 2556 703 3070 
Q 1119 3584 1766 3584 
Q 2128 3584 2408 3439 
Q 2688 3294 2919 2988 
z
M 2181 722 
Q 2541 722 2730 984 
Q 2919 1247 2919 1747 
Q 2919 2247 2730 2509 
Q 2541 2772 2181 2772 
Q 1825 2772 1636 2509 
Q 1447 2247 1447 1747 
Q 1447 1247 1636 984 
Q 1825 722 2181 722 
z
" transform="scale(0.015625)"/>
      <path id="DejaVuSans-Bold-72" d="M 3138 2547 
Q 2991 2616 2845 2648 
Q 2700 2681 2553 2681 
Q 2122 2681 1889 2404 
Q 1656 2128 1656 1613 
L 1656 0 
L 538 0 
L 538 3500 
L 1656 3500 
L 1656 2925 
Q 1872 3269 2151 3426 
Q 2431 3584 2822 3584 
Q 2878 3584 2943 3579 
Q 3009 3575 3134 3559 
L 3138 2547 
z
" transform="scale(0.015625)"/>
      <path id="DejaVuSans-Bold-69" d="M 538 3500 
L 1656 3500 
L 1656 0 
L 538 0 
L 538 3500 
z
M 538 4863 
L 1656 4863 
L 1656 3950 
L 538 3950 
L 538 4863 
z
" transform="scale(0.015625)"/>
      <path id="DejaVuSans-Bold-6c" d="M 538 4863 
L 1656 4863 
L 1656 0 
L 538 0 
L 538 4863 
z
" transform="scale(0.015625)"/>
      <path id="DejaVuSans-Bold-e1" d="M 2106 1575 
Q 1756 1575 1579 1456 
Q 1403 1338 1403 1106 
Q 1403 894 1545 773 
Q 1688 653 1941 653 
Q 2256 653 2472 879 
Q 2688 1106 2688 1447 
L 2688 1575 
L 2106 1575 
z
M 3816 1997 
L 3816 0 
L 2688 0 
L 2688 519 
Q 2463 200 2181 54 
Q 1900 -91 1497 -91 
Q 953 -91 614 226 
Q 275 544 275 1050 
Q 275 1666 698 1953 
Q 1122 2241 2028 2241 
L 2688 2241 
L 2688 2328 
Q 2688 2594 2478 2717 
Q 2269 2841 1825 2841 
Q 1466 2841 1156 2769 
Q 847 2697 581 2553 
L 581 3406 
Q 941 3494 1303 3539 
Q 1666 3584 2028 3584 
Q 2975 3584 3395 3211 
Q 3816 2838 3816 1997 
z
M 2606 5119 
L 3490 5119 
L 2337 3944 
L 1725 3944 
L 2606 5119 
z
" transform="scale(0.015625)"/>
      <path id="DejaVuSans-Bold-74" d="M 1759 4494 
L 1759 3500 
L 2913 3500 
L 2913 2700 
L 1759 2700 
L 1759 1216 
Q 1759 972 1856 886 
Q 1953 800 2241 800 
L 2816 800 
L 2816 0 
L 1856 0 
Q 1194 0 917 276 
Q 641 553 641 1216 
L 641 2700 
L 84 2700 
L 84 3500 
L 641 3500 
L 641 4494 
L 1759 4494 
z
" transform="scale(0.015625)"/>
      <path id="DejaVuSans-Bold-65" d="M 4031 1759 
L 4031 1441 
L 1416 1441 
Q 1456 1047 1700 850 
Q 1944 653 2381 653 
Q 2734 653 3104 758 
Q 3475 863 3866 1075 
L 3866 213 
Q 3469 63 3072 -14 
Q 2675 -91 2278 -91 
Q 1328 -91 801 392 
Q 275 875 275 1747 
Q 275 2603 792 3093 
Q 1309 3584 2216 3584 
Q 3041 3584 3536 3087 
Q 4031 2591 4031 1759 
z
M 2881 2131 
Q 2881 2450 2695 2645 
Q 2509 2841 2209 2841 
Q 1884 2841 1681 2658 
Q 1478 2475 1428 2131 
L 2881 2131 
z
" transform="scale(0.015625)"/>
      <path id="DejaVuSans-Bold-6f" d="M 2203 2784 
Q 1831 2784 1636 2517 
Q 1441 2250 1441 1747 
Q 1441 1244 1636 976 
Q 1831 709 2203 709 
Q 2569 709 2762 976 
Q 2956 1244 2956 1747 
Q 2956 2250 2762 2517 
Q 2569 2784 2203 2784 
z
M 2203 3584 
Q 3106 3584 3614 3096 
Q 4122 2609 4122 1747 
Q 4122 884 3614 396 
Q 3106 -91 2203 -91 
Q 1297 -91 786 396 
Q 275 884 275 1747 
Q 275 2609 786 3096 
Q 1297 3584 2203 3584 
z
" transform="scale(0.015625)"/>
      <path id="DejaVuSans-Bold-73" d="M 3272 3391 
L 3272 2541 
Q 2913 2691 2578 2766 
Q 2244 2841 1947 2841 
Q 1628 2841 1473 2761 
Q 1319 2681 1319 2516 
Q 1319 2381 1436 2309 
Q 1553 2238 1856 2203 
L 2053 2175 
Q 2913 2066 3209 1816 
Q 3506 1566 3506 1031 
Q 3506 472 3093 190 
Q 2681 -91 1863 -91 
Q 1516 -91 1145 -36 
Q 775 19 384 128 
L 384 978 
Q 719 816 1070 734 
Q 1422 653 1784 653 
Q 2113 653 2278 743 
Q 2444 834 2444 1013 
Q 2444 1163 2330 1236 
Q 2216 1309 1875 1350 
L 1678 1375 
Q 931 1469 631 1722 
Q 331 1975 331 2491 
Q 331 3047 712 3315 
Q 1094 3584 1881 3584 
Q 2191 3584 2531 3537 
Q 2872 3491 3272 3391 
z
" transform="scale(0.015625)"/>
     </defs>
     <use xlink:href="#DejaVuSans-Bold-43"/>
     <use xlink:href="#DejaVuSans-Bold-75" transform="translate(73.388672 0)"/>
     <use xlink:href="#DejaVuSans-Bold-61" transform="translate(144.580078 0)"/>
     <use xlink:href="#DejaVuSans-Bold-64" transform="translate(212.060547 0)"/>
     <use xlink:href="#DejaVuSans-Bold-72" transform="translate(283.642578 0)"/>
     <use xlink:href="#DejaVuSans-Bold-69" transform="translate(332.958984 0)"/>
     <use xlink:href="#DejaVuSans-Bold-6c" transform="translate(367.236328 0)"/>
     <use xlink:href="#DejaVuSans-Bold-e1" transform="translate(401.513672 0)"/>
     <use xlink:href="#DejaVuSans-Bold-74" transform="translate(468.994141 0)"/>
     <use xlink:href="#DejaVuSans-Bold-65" transform="translate(516.796875 0)"/>
     <use xlink:href="#DejaVuSans-Bold-72" transform="translate(584.619141 0)"/>
     <use xlink:href="#DejaVuSans-Bold-6f" transform="translate(633.935547 0)"/>
     <use xlink:href="#DejaVuSans-Bold-73" transform="translate(702.636719 0)"/>
    </g>
   </g>
   <g id="text_2">
    <!-- Paralelogramos -->
    <g style="fill: #1f2937" transform="translate(163.353594 162.133844) scale(0.11 -0.11)">
     <defs>
      <path id="DejaVuSans-Bold-50" d="M 588 4666 
L 2584 4666 
Q 3475 4666 3951 4270 
Q 4428 3875 4428 3144 
Q 4428 2409 3951 2014 
Q 3475 1619 2584 1619 
L 1791 1619 
L 1791 0 
L 588 0 
L 588 4666 
z
M 1791 3794 
L 1791 2491 
L 2456 2491 
Q 2806 2491 2997 2661 
Q 3188 2831 3188 3144 
Q 3188 3456 2997 3625 
Q 2806 3794 2456 3794 
L 1791 3794 
z
" transform="scale(0.015625)"/>
      <path id="DejaVuSans-Bold-67" d="M 2919 594 
Q 2688 288 2409 144 
Q 2131 0 1766 0 
Q 1125 0 706 504 
Q 288 1009 288 1791 
Q 288 2575 706 3076 
Q 1125 3578 1766 3578 
Q 2131 3578 2409 3434 
Q 2688 3291 2919 2981 
L 2919 3500 
L 4044 3500 
L 4044 353 
Q 4044 -491 3511 -936 
Q 2978 -1381 1966 -1381 
Q 1638 -1381 1331 -1331 
Q 1025 -1281 716 -1178 
L 716 -306 
Q 1009 -475 1290 -558 
Q 1572 -641 1856 -641 
Q 2406 -641 2662 -400 
Q 2919 -159 2919 353 
L 2919 594 
z
M 2181 2772 
Q 1834 2772 1640 2515 
Q 1447 2259 1447 1791 
Q 1447 1309 1634 1061 
Q 1822 813 2181 813 
Q 2531 813 2725 1069 
Q 2919 1325 2919 1791 
Q 2919 2259 2725 2515 
Q 2531 2772 2181 2772 
z
" transform="scale(0.015625)"/>
      <path id="DejaVuSans-Bold-6d" d="M 3781 2919 
Q 3994 3244 4286 3414 
Q 4578 3584 4928 3584 
Q 5531 3584 5847 3212 
Q 6163 2841 6163 2131 
L 6163 0 
L 5038 0 
L 5038 1825 
Q 5041 1866 5042 1909 
Q 5044 1953 5044 2034 
Q 5044 2406 4934 2573 
Q 4825 2741 4581 2741 
Q 4263 2741 4089 2478 
Q 3916 2216 3909 1719 
L 3909 0 
L 2784 0 
L 2784 1825 
Q 2784 2406 2684 2573 
Q 2584 2741 2328 2741 
Q 2006 2741 1831 2477 
Q 1656 2213 1656 1722 
L 1656 0 
L 531 0 
L 531 3500 
L 1656 3500 
L 1656 2988 
Q 1863 3284 2130 3434 
Q 2397 3584 2719 3584 
Q 3081 3584 3359 3409 
Q 3638 3234 3781 2919 
z
" transform="scale(0.015625)"/>
     </defs>
     <use xlink:href="#DejaVuSans-Bold-50"/>
     <use xlink:href="#DejaVuSans-Bold-61" transform="translate(70.666016 0)"/>
     <use xlink:href="#DejaVuSans-Bold-72" transform="translate(138.146484 0)"/>
     <use xlink:href="#DejaVuSans-Bold-61" transform="translate(187.462891 0)"/>
     <use xlink:href="#DejaVuSans-Bold-6c" transform="translate(254.943359 0)"/>
     <use xlink:href="#DejaVuSans-Bold-65" transform="translate(289.220703 0)"/>
     <use xlink:href="#DejaVuSans-Bold-6c" transform="translate(357.042969 0)"/>
     <use xlink:href="#DejaVuSans-Bold-6f" transform="translate(391.320312 0)"/>
     <use xlink:href="#DejaVuSans-Bold-67" transform="translate(460.021484 0)"/>
     <use xlink:href="#DejaVuSans-Bold-72" transform="translate(531.603516 0)"/>
     <use xlink:href="#DejaVuSans-Bold-61" transform="translate(580.919922 0)"/>
     <use xlink:href="#DejaVuSans-Bold-6d" transform="translate(648.400391 0)"/>
     <use xlink:href="#DejaVuSans-Bold-6f" transform="translate(752.599609 0)"/>
     <use xlink:href="#DejaVuSans-Bold-73" transform="translate(821.300781 0)"/>
    </g>
   </g>
   <g id="text_3">
    <!-- (lados opuestos paralelos) -->
    <g style="fill: #1f2937; opacity: 0.7" transform="translate(159.035625 172.509) scale(0.08 -0.08)">
     <defs>
      <path id="DejaVuSans-Oblique-28" d="M 2731 4856 
Q 1903 3822 1495 2892 
Q 1088 1963 1088 1100 
Q 1088 606 1206 120 
Q 1325 -366 1563 -844 
L 1063 -844 
Q 775 -306 634 201 
Q 494 709 494 1197 
Q 494 2125 923 3036 
Q 1353 3947 2222 4856 
L 2731 4856 
z
" transform="scale(0.015625)"/>
      <path id="DejaVuSans-Oblique-6c" d="M 1172 4863 
L 1747 4863 
L 800 0 
L 225 0 
L 1172 4863 
z
" transform="scale(0.015625)"/>
      <path id="DejaVuSans-Oblique-61" d="M 3438 1997 
L 3047 0 
L 2472 0 
L 2578 531 
Q 2325 219 2001 64 
Q 1678 -91 1281 -91 
Q 834 -91 548 182 
Q 263 456 263 884 
Q 263 1497 752 1853 
Q 1241 2209 2100 2209 
L 2900 2209 
L 2931 2363 
Q 2938 2388 2941 2417 
Q 2944 2447 2944 2509 
Q 2944 2788 2717 2942 
Q 2491 3097 2081 3097 
Q 1800 3097 1504 3025 
Q 1209 2953 897 2809 
L 997 3341 
Q 1322 3463 1633 3523 
Q 1944 3584 2234 3584 
Q 2853 3584 3176 3315 
Q 3500 3047 3500 2534 
Q 3500 2431 3484 2292 
Q 3469 2153 3438 1997 
z
M 2816 1759 
L 2241 1759 
Q 1534 1759 1195 1570 
Q 856 1381 856 984 
Q 856 709 1029 553 
Q 1203 397 1509 397 
Q 1978 397 2328 733 
Q 2678 1069 2791 1631 
L 2816 1759 
z
" transform="scale(0.015625)"/>
      <path id="DejaVuSans-Oblique-64" d="M 2675 525 
Q 2444 222 2128 65 
Q 1813 -91 1428 -91 
Q 903 -91 598 267 
Q 294 625 294 1247 
Q 294 1766 478 2236 
Q 663 2706 1013 3078 
Q 1244 3325 1534 3454 
Q 1825 3584 2144 3584 
Q 2481 3584 2739 3421 
Q 2997 3259 3138 2956 
L 3513 4863 
L 4091 4863 
L 3144 0 
L 2566 0 
L 2675 525 
z
M 891 1350 
Q 891 897 1095 644 
Q 1300 391 1663 391 
Q 1931 391 2161 520 
Q 2391 650 2566 903 
Q 2750 1166 2856 1509 
Q 2963 1853 2963 2188 
Q 2963 2622 2758 2865 
Q 2553 3109 2194 3109 
Q 1922 3109 1687 2981 
Q 1453 2853 1288 2613 
Q 1106 2353 998 2009 
Q 891 1666 891 1350 
z
" transform="scale(0.015625)"/>
      <path id="DejaVuSans-Oblique-6f" d="M 1625 -91 
Q 1009 -91 651 289 
Q 294 669 294 1325 
Q 294 1706 417 2101 
Q 541 2497 738 2766 
Q 1047 3184 1428 3384 
Q 1809 3584 2291 3584 
Q 2888 3584 3255 3212 
Q 3622 2841 3622 2241 
Q 3622 1825 3500 1412 
Q 3378 1000 3181 728 
Q 2875 309 2494 109 
Q 2113 -91 1625 -91 
z
M 891 1344 
Q 891 869 1089 633 
Q 1288 397 1691 397 
Q 2269 397 2648 901 
Q 3028 1406 3028 2181 
Q 3028 2634 2825 2865 
Q 2622 3097 2228 3097 
Q 1903 3097 1650 2945 
Q 1397 2794 1197 2484 
Q 1050 2253 970 1956 
Q 891 1659 891 1344 
z
" transform="scale(0.015625)"/>
      <path id="DejaVuSans-Oblique-73" d="M 3200 3397 
L 3091 2853 
Q 2863 2978 2609 3040 
Q 2356 3103 2088 3103 
Q 1634 3103 1373 2948 
Q 1113 2794 1113 2528 
Q 1113 2219 1719 2053 
Q 1766 2041 1788 2034 
L 1972 1978 
Q 2547 1819 2739 1644 
Q 2931 1469 2931 1166 
Q 2931 609 2489 259 
Q 2047 -91 1331 -91 
Q 1053 -91 747 -37 
Q 441 16 72 128 
L 184 722 
Q 500 559 806 475 
Q 1113 391 1394 391 
Q 1816 391 2080 572 
Q 2344 753 2344 1031 
Q 2344 1331 1650 1516 
L 1591 1531 
L 1394 1581 
Q 956 1697 753 1886 
Q 550 2075 550 2369 
Q 550 2928 970 3256 
Q 1391 3584 2113 3584 
Q 2397 3584 2667 3537 
Q 2938 3491 3200 3397 
z
" transform="scale(0.015625)"/>
      <path id="DejaVuSans-Oblique-20" transform="scale(0.015625)"/>
      <path id="DejaVuSans-Oblique-70" d="M 3175 2156 
Q 3175 2616 2975 2859 
Q 2775 3103 2400 3103 
Q 2144 3103 1911 2972 
Q 1678 2841 1497 2591 
Q 1319 2344 1212 1994 
Q 1106 1644 1106 1300 
Q 1106 863 1306 627 
Q 1506 391 1875 391 
Q 2147 391 2380 519 
Q 2613 647 2778 891 
Q 2956 1147 3065 1494 
Q 3175 1841 3175 2156 
z
M 1394 2969 
Q 1625 3272 1939 3428 
Q 2253 3584 2638 3584 
Q 3175 3584 3472 3232 
Q 3769 2881 3769 2247 
Q 3769 1728 3584 1258 
Q 3400 788 3053 416 
Q 2822 169 2531 39 
Q 2241 -91 1919 -91 
Q 1547 -91 1294 64 
Q 1041 219 916 525 
L 556 -1331 
L -19 -1331 
L 922 3500 
L 1497 3500 
L 1394 2969 
z
" transform="scale(0.015625)"/>
      <path id="DejaVuSans-Oblique-75" d="M 428 1388 
L 838 3500 
L 1416 3500 
L 1006 1409 
Q 975 1256 961 1147 
Q 947 1038 947 966 
Q 947 700 1109 554 
Q 1272 409 1569 409 
Q 2031 409 2368 721 
Q 2706 1034 2809 1563 
L 3194 3500 
L 3769 3500 
L 3091 0 
L 2516 0 
L 2631 550 
Q 2388 244 2052 76 
Q 1716 -91 1338 -91 
Q 878 -91 622 161 
Q 366 413 366 863 
Q 366 956 381 1097 
Q 397 1238 428 1388 
z
" transform="scale(0.015625)"/>
      <path id="DejaVuSans-Oblique-65" d="M 3078 2063 
Q 3088 2113 3092 2166 
Q 3097 2219 3097 2272 
Q 3097 2653 2873 2875 
Q 2650 3097 2266 3097 
Q 1838 3097 1509 2826 
Q 1181 2556 1013 2059 
L 3078 2063 
z
M 3578 1613 
L 903 1613 
Q 884 1494 878 1425 
Q 872 1356 872 1306 
Q 872 872 1139 634 
Q 1406 397 1894 397 
Q 2269 397 2603 481 
Q 2938 566 3225 728 
L 3116 159 
Q 2806 34 2476 -28 
Q 2147 -91 1806 -91 
Q 1078 -91 686 257 
Q 294 606 294 1247 
Q 294 1794 489 2264 
Q 684 2734 1063 3103 
Q 1306 3334 1642 3459 
Q 1978 3584 2356 3584 
Q 2950 3584 3301 3228 
Q 3653 2872 3653 2272 
Q 3653 2128 3634 1964 
Q 3616 1800 3578 1613 
z
" transform="scale(0.015625)"/>
      <path id="DejaVuSans-Oblique-74" d="M 2706 3500 
L 2619 3053 
L 1472 3053 
L 1100 1153 
Q 1081 1047 1072 975 
Q 1063 903 1063 863 
Q 1063 663 1183 572 
Q 1303 481 1569 481 
L 2150 481 
L 2053 0 
L 1503 0 
Q 991 0 739 200 
Q 488 400 488 806 
Q 488 878 497 964 
Q 506 1050 525 1153 
L 897 3053 
L 409 3053 
L 500 3500 
L 978 3500 
L 1172 4494 
L 1747 4494 
L 1556 3500 
L 2706 3500 
z
" transform="scale(0.015625)"/>
      <path id="DejaVuSans-Oblique-72" d="M 2853 2969 
Q 2766 3016 2653 3041 
Q 2541 3066 2413 3066 
Q 1953 3066 1609 2717 
Q 1266 2369 1153 1784 
L 800 0 
L 225 0 
L 909 3500 
L 1484 3500 
L 1375 2956 
Q 1603 3259 1920 3421 
Q 2238 3584 2597 3584 
Q 2691 3584 2781 3573 
Q 2872 3563 2963 3538 
L 2853 2969 
z
" transform="scale(0.015625)"/>
      <path id="DejaVuSans-Oblique-29" d="M -397 -844 
Q 434 191 840 1120 
Q 1247 2050 1247 2913 
Q 1247 3406 1130 3892 
Q 1013 4378 775 4856 
L 1275 4856 
Q 1563 4316 1703 3812 
Q 1844 3309 1844 2822 
Q 1844 1891 1411 973 
Q 978 56 116 -844 
L -397 -844 
z
" transform="scale(0.015625)"/>
     </defs>
     <use xlink:href="#DejaVuSans-Oblique-28"/>
     <use xlink:href="#DejaVuSans-Oblique-6c" transform="translate(39.013672 0)"/>
     <use xlink:href="#DejaVuSans-Oblique-61" transform="translate(66.796875 0)"/>
     <use xlink:href="#DejaVuSans-Oblique-64" transform="translate(128.076172 0)"/>
     <use xlink:href="#DejaVuSans-Oblique-6f" transform="translate(191.552734 0)"/>
     <use xlink:href="#DejaVuSans-Oblique-73" transform="translate(252.734375 0)"/>
     <use xlink:href="#DejaVuSans-Oblique-20" transform="translate(304.833984 0)"/>
     <use xlink:href="#DejaVuSans-Oblique-6f" transform="translate(336.621094 0)"/>
     <use xlink:href="#DejaVuSans-Oblique-70" transform="translate(397.802734 0)"/>
     <use xlink:href="#DejaVuSans-Oblique-75" transform="translate(461.279297 0)"/>
     <use xlink:href="#DejaVuSans-Oblique-65" transform="translate(524.658203 0)"/>
     <use xlink:href="#DejaVuSans-Oblique-73" transform="translate(586.181641 0)"/>
     <use xlink:href="#DejaVuSans-Oblique-74" transform="translate(638.28125 0)"/>
     <use xlink:href="#DejaVuSans-Oblique-6f" transform="translate(677.490234 0)"/>
     <use xlink:href="#DejaVuSans-Oblique-73" transform="translate(738.671875 0)"/>
     <use xlink:href="#DejaVuSans-Oblique-20" transform="translate(790.771484 0)"/>
     <use xlink:href="#DejaVuSans-Oblique-70" transform="translate(822.558594 0)"/>
     <use xlink:href="#DejaVuSans-Oblique-61" transform="translate(886.035156 0)"/>
     <use xlink:href="#DejaVuSans-Oblique-72" transform="translate(947.314453 0)"/>
     <use xlink:href="#DejaVuSans-Oblique-61" transform="translate(988.427734 0)"/>
     <use xlink:href="#DejaVuSans-Oblique-6c" transform="translate(1049.707031 0)"/>
     <use xlink:href="#DejaVuSans-Oblique-65" transform="translate(1077.490234 0)"/>
     <use xlink:href="#DejaVuSans-Oblique-6c" transform="translate(1139.013672 0)"/>
     <use xlink:href="#DejaVuSans-Oblique-6f" transform="translate(1166.796875 0)"/>
     <use xlink:href="#DejaVuSans-Oblique-73" transform="translate(1227.978516 0)"/>
     <use xlink:href="#DejaVuSans-Oblique-29" transform="translate(1280.078125 0)"/>
    </g>
   </g>
   <g id="text_4">
    <!-- No Paralelogramos -->
    <g style="fill: #1f2937" transform="translate(413.457422 162.133844) scale(0.11 -0.11)">
     <defs>
      <path id="DejaVuSans-Bold-4e" d="M 588 4666 
L 1931 4666 
L 3628 1466 
L 3628 4666 
L 4769 4666 
L 4769 0 
L 3425 0 
L 1728 3200 
L 1728 0 
L 588 0 
L 588 4666 
z
" transform="scale(0.015625)"/>
      <path id="DejaVuSans-Bold-20" transform="scale(0.015625)"/>
     </defs>
     <use xlink:href="#DejaVuSans-Bold-4e"/>
     <use xlink:href="#DejaVuSans-Bold-6f" transform="translate(83.691406 0)"/>
     <use xlink:href="#DejaVuSans-Bold-20" transform="translate(152.392578 0)"/>
     <use xlink:href="#DejaVuSans-Bold-50" transform="translate(187.207031 0)"/>
     <use xlink:href="#DejaVuSans-Bold-61" transform="translate(257.873047 0)"/>
     <use xlink:href="#DejaVuSans-Bold-72" transform="translate(325.353516 0)"/>
     <use xlink:href="#DejaVuSans-Bold-61" transform="translate(374.669922 0)"/>
     <use xlink:href="#DejaVuSans-Bold-6c" transform="translate(442.150391 0)"/>
     <use xlink:href="#DejaVuSans-Bold-65" transform="translate(476.427734 0)"/>
     <use xlink:href="#DejaVuSans-Bold-6c" transform="translate(544.25 0)"/>
     <use xlink:href="#DejaVuSans-Bold-6f" transform="translate(578.527344 0)"/>
     <use xlink:href="#DejaVuSans-Bold-67" transform="translate(647.228516 0)"/>
     <use xlink:href="#DejaVuSans-Bold-72" transform="translate(718.810547 0)"/>
     <use xlink:href="#DejaVuSans-Bold-61" transform="translate(768.126953 0)"/>
     <use xlink:href="#DejaVuSans-Bold-6d" transform="translate(835.607422 0)"/>
     <use xlink:href="#DejaVuSans-Bold-6f" transform="translate(939.806641 0)"/>
     <use xlink:href="#DejaVuSans-Bold-73" transform="translate(1008.507812 0)"/>
    </g>
   </g>
   <g id="text_5">
    <!-- Rectángulo -->
    <g style="fill: #1f2937" transform="translate(102.401953 229.313844) scale(0.11 -0.11)">
     <defs>
      <path id="DejaVuSans-Bold-52" d="M 2297 2597 
Q 2675 2597 2839 2737 
Q 3003 2878 3003 3200 
Q 3003 3519 2839 3656 
Q 2675 3794 2297 3794 
L 1791 3794 
L 1791 2597 
L 2297 2597 
z
M 1791 1766 
L 1791 0 
L 588 0 
L 588 4666 
L 2425 4666 
Q 3347 4666 3776 4356 
Q 4206 4047 4206 3378 
Q 4206 2916 3982 2619 
Q 3759 2322 3309 2181 
Q 3556 2125 3751 1926 
Q 3947 1728 4147 1325 
L 4800 0 
L 3519 0 
L 2950 1159 
Q 2778 1509 2601 1637 
Q 2425 1766 2131 1766 
L 1791 1766 
z
" transform="scale(0.015625)"/>
      <path id="DejaVuSans-Bold-63" d="M 3366 3391 
L 3366 2478 
Q 3138 2634 2908 2709 
Q 2678 2784 2431 2784 
Q 1963 2784 1702 2511 
Q 1441 2238 1441 1747 
Q 1441 1256 1702 982 
Q 1963 709 2431 709 
Q 2694 709 2930 787 
Q 3166 866 3366 1019 
L 3366 103 
Q 3103 6 2833 -42 
Q 2563 -91 2291 -91 
Q 1344 -91 809 395 
Q 275 881 275 1747 
Q 275 2613 809 3098 
Q 1344 3584 2291 3584 
Q 2566 3584 2833 3536 
Q 3100 3488 3366 3391 
z
" transform="scale(0.015625)"/>
      <path id="DejaVuSans-Bold-6e" d="M 4056 2131 
L 4056 0 
L 2931 0 
L 2931 347 
L 2931 1631 
Q 2931 2084 2911 2256 
Q 2891 2428 2841 2509 
Q 2775 2619 2662 2680 
Q 2550 2741 2406 2741 
Q 2056 2741 1856 2470 
Q 1656 2200 1656 1722 
L 1656 0 
L 538 0 
L 538 3500 
L 1656 3500 
L 1656 2988 
Q 1909 3294 2193 3439 
Q 2478 3584 2822 3584 
Q 3428 3584 3742 3212 
Q 4056 2841 4056 2131 
z
" transform="scale(0.015625)"/>
     </defs>
     <use xlink:href="#DejaVuSans-Bold-52"/>
     <use xlink:href="#DejaVuSans-Bold-65" transform="translate(77.001953 0)"/>
     <use xlink:href="#DejaVuSans-Bold-63" transform="translate(144.824219 0)"/>
     <use xlink:href="#DejaVuSans-Bold-74" transform="translate(204.101562 0)"/>
     <use xlink:href="#DejaVuSans-Bold-e1" transform="translate(251.904297 0)"/>
     <use xlink:href="#DejaVuSans-Bold-6e" transform="translate(319.384766 0)"/>
     <use xlink:href="#DejaVuSans-Bold-67" transform="translate(390.576172 0)"/>
     <use xlink:href="#DejaVuSans-Bold-75" transform="translate(462.158203 0)"/>
     <use xlink:href="#DejaVuSans-Bold-6c" transform="translate(533.349609 0)"/>
     <use xlink:href="#DejaVuSans-Bold-6f" transform="translate(567.626953 0)"/>
    </g>
   </g>
   <g id="text_6">
    <!-- (4 ángulos rectos) -->
    <g style="fill: #1f2937; opacity: 0.7" transform="translate(101.08375 239.629) scale(0.08 -0.08)">
     <defs>
      <path id="DejaVuSans-Oblique-34" d="M 2753 4666 
L 3547 4666 
L 2950 1625 
L 3616 1625 
L 3513 1100 
L 2847 1100 
L 2638 0 
L 2009 0 
L 2222 1100 
L 116 1100 
L 238 1709 
L 2753 4666 
z
M 2809 4116 
L 728 1625 
L 2322 1625 
L 2809 4116 
z
" transform="scale(0.015625)"/>
      <path id="DejaVuSans-Oblique-e1" d="M 3438 1997 
L 3047 0 
L 2472 0 
L 2578 531 
Q 2325 219 2001 64 
Q 1678 -91 1281 -91 
Q 834 -91 548 182 
Q 263 456 263 884 
Q 263 1497 752 1853 
Q 1241 2209 2100 2209 
L 2900 2209 
L 2931 2363 
Q 2938 2388 2941 2417 
Q 2944 2447 2944 2509 
Q 2944 2788 2717 2942 
Q 2491 3097 2081 3097 
Q 1800 3097 1504 3025 
Q 1209 2953 897 2809 
L 997 3341 
Q 1322 3463 1633 3523 
Q 1944 3584 2234 3584 
Q 2853 3584 3176 3315 
Q 3500 3047 3500 2534 
Q 3500 2431 3484 2292 
Q 3469 2153 3438 1997 
z
M 2816 1759 
L 2241 1759 
Q 1534 1759 1195 1570 
Q 856 1381 856 984 
Q 856 709 1029 553 
Q 1203 397 1509 397 
Q 1978 397 2328 733 
Q 2678 1069 2791 1631 
L 2816 1759 
z
M 3031 5119 
L 3653 5119 
L 2406 3944 
L 1925 3944 
L 3031 5119 
z
" transform="scale(0.015625)"/>
      <path id="DejaVuSans-Oblique-6e" d="M 3566 2113 
L 3156 0 
L 2578 0 
L 2988 2091 
Q 3016 2238 3031 2350 
Q 3047 2463 3047 2528 
Q 3047 2791 2881 2937 
Q 2716 3084 2419 3084 
Q 1956 3084 1622 2776 
Q 1288 2469 1184 1941 
L 800 0 
L 225 0 
L 903 3500 
L 1478 3500 
L 1363 2950 
Q 1603 3253 1940 3418 
Q 2278 3584 2650 3584 
Q 3113 3584 3367 3334 
Q 3622 3084 3622 2631 
Q 3622 2519 3608 2391 
Q 3594 2263 3566 2113 
z
" transform="scale(0.015625)"/>
      <path id="DejaVuSans-Oblique-67" d="M 3816 3500 
L 3219 434 
Q 3047 -456 2561 -893 
Q 2075 -1331 1253 -1331 
Q 950 -1331 690 -1286 
Q 431 -1241 206 -1147 
L 313 -588 
Q 525 -725 762 -790 
Q 1000 -856 1269 -856 
Q 1816 -856 2167 -557 
Q 2519 -259 2631 300 
L 2681 563 
Q 2441 288 2122 144 
Q 1803 0 1434 0 
Q 903 0 598 351 
Q 294 703 294 1319 
Q 294 1803 478 2267 
Q 663 2731 997 3091 
Q 1219 3328 1514 3456 
Q 1809 3584 2131 3584 
Q 2484 3584 2746 3420 
Q 3009 3256 3138 2956 
L 3238 3500 
L 3816 3500 
z
M 2950 2216 
Q 2950 2641 2750 2872 
Q 2550 3103 2181 3103 
Q 1953 3103 1747 3012 
Q 1541 2922 1394 2759 
Q 1156 2491 1023 2127 
Q 891 1763 891 1375 
Q 891 944 1092 712 
Q 1294 481 1672 481 
Q 2219 481 2584 976 
Q 2950 1472 2950 2216 
z
" transform="scale(0.015625)"/>
      <path id="DejaVuSans-Oblique-63" d="M 3431 3366 
L 3316 2797 
Q 3109 2947 2876 3022 
Q 2644 3097 2394 3097 
Q 2119 3097 1870 3000 
Q 1622 2903 1453 2725 
Q 1184 2453 1037 2087 
Q 891 1722 891 1331 
Q 891 859 1127 628 
Q 1363 397 1844 397 
Q 2081 397 2348 469 
Q 2616 541 2906 684 
L 2797 116 
Q 2547 13 2283 -39 
Q 2019 -91 1741 -91 
Q 1044 -91 669 257 
Q 294 606 294 1253 
Q 294 1797 489 2255 
Q 684 2713 1069 3078 
Q 1331 3328 1684 3456 
Q 2038 3584 2456 3584 
Q 2700 3584 2940 3529 
Q 3181 3475 3431 3366 
z
" transform="scale(0.015625)"/>
     </defs>
     <use xlink:href="#DejaVuSans-Oblique-28"/>
     <use xlink:href="#DejaVuSans-Oblique-34" transform="translate(39.013672 0)"/>
     <use xlink:href="#DejaVuSans-Oblique-20" transform="translate(102.636719 0)"/>
     <use xlink:href="#DejaVuSans-Oblique-e1" transform="translate(134.423828 0)"/>
     <use xlink:href="#DejaVuSans-Oblique-6e" transform="translate(195.703125 0)"/>
     <use xlink:href="#DejaVuSans-Oblique-67" transform="translate(259.082031 0)"/>
     <use xlink:href="#DejaVuSans-Oblique-75" transform="translate(322.558594 0)"/>
     <use xlink:href="#DejaVuSans-Oblique-6c" transform="translate(385.9375 0)"/>
     <use xlink:href="#DejaVuSans-Oblique-6f" transform="translate(413.720703 0)"/>
     <use xlink:href="#DejaVuSans-Oblique-73" transform="translate(474.902344 0)"/>
     <use xlink:href="#DejaVuSans-Oblique-20" transform="translate(527.001953 0)"/>
     <use xlink:href="#DejaVuSans-Oblique-72" transform="translate(558.789062 0)"/>
     <use xlink:href="#DejaVuSans-Oblique-65" transform="translate(599.902344 0)"/>
     <use xlink:href="#DejaVuSans-Oblique-63" transform="translate(661.425781 0)"/>
     <use xlink:href="#DejaVuSans-Oblique-74" transform="translate(716.40625 0)"/>
     <use xlink:href="#DejaVuSans-Oblique-6f" transform="translate(755.615234 0)"/>
     <use xlink:href="#DejaVuSans-Oblique-73" transform="translate(816.796875 0)"/>
     <use xlink:href="#DejaVuSans-Oblique-29" transform="translate(868.896484 0)"/>
    </g>
   </g>
   <g id="text_7">
    <!-- Rombo -->
    <g style="fill: #1f2937" transform="translate(246.139688 229.136812) scale(0.11 -0.11)">
     <defs>
      <path id="DejaVuSans-Bold-62" d="M 2400 722 
Q 2759 722 2948 984 
Q 3138 1247 3138 1747 
Q 3138 2247 2948 2509 
Q 2759 2772 2400 2772 
Q 2041 2772 1848 2508 
Q 1656 2244 1656 1747 
Q 1656 1250 1848 986 
Q 2041 722 2400 722 
z
M 1656 2988 
Q 1888 3294 2169 3439 
Q 2450 3584 2816 3584 
Q 3463 3584 3878 3070 
Q 4294 2556 4294 1747 
Q 4294 938 3878 423 
Q 3463 -91 2816 -91 
Q 2450 -91 2169 54 
Q 1888 200 1656 506 
L 1656 0 
L 538 0 
L 538 4863 
L 1656 4863 
L 1656 2988 
z
" transform="scale(0.015625)"/>
     </defs>
     <use xlink:href="#DejaVuSans-Bold-52"/>
     <use xlink:href="#DejaVuSans-Bold-6f" transform="translate(77.001953 0)"/>
     <use xlink:href="#DejaVuSans-Bold-6d" transform="translate(145.703125 0)"/>
     <use xlink:href="#DejaVuSans-Bold-62" transform="translate(249.902344 0)"/>
     <use xlink:href="#DejaVuSans-Bold-6f" transform="translate(321.484375 0)"/>
    </g>
   </g>
   <g id="text_8">
    <!-- (4 lados iguales) -->
    <g style="fill: #1f2937; opacity: 0.7" transform="translate(234.465 239.469) scale(0.08 -0.08)">
     <defs>
      <path id="DejaVuSans-Oblique-69" d="M 1172 4863 
L 1747 4863 
L 1606 4134 
L 1031 4134 
L 1172 4863 
z
M 909 3500 
L 1484 3500 
L 800 0 
L 225 0 
L 909 3500 
z
" transform="scale(0.015625)"/>
     </defs>
     <use xlink:href="#DejaVuSans-Oblique-28"/>
     <use xlink:href="#DejaVuSans-Oblique-34" transform="translate(39.013672 0)"/>
     <use xlink:href="#DejaVuSans-Oblique-20" transform="translate(102.636719 0)"/>
     <use xlink:href="#DejaVuSans-Oblique-6c" transform="translate(134.423828 0)"/>
     <use xlink:href="#DejaVuSans-Oblique-61" transform="translate(162.207031 0)"/>
     <use xlink:href="#DejaVuSans-Oblique-64" transform="translate(223.486328 0)"/>
     <use xlink:href="#DejaVuSans-Oblique-6f" transform="translate(286.962891 0)"/>
     <use xlink:href="#DejaVuSans-Oblique-73" transform="translate(348.144531 0)"/>
     <use xlink:href="#DejaVuSans-Oblique-20" transform="translate(400.244141 0)"/>
     <use xlink:href="#DejaVuSans-Oblique-69" transform="translate(432.03125 0)"/>
     <use xlink:href="#DejaVuSans-Oblique-67" transform="translate(459.814453 0)"/>
     <use xlink:href="#DejaVuSans-Oblique-75" transform="translate(523.291016 0)"/>
     <use xlink:href="#DejaVuSans-Oblique-61" transform="translate(586.669922 0)"/>
     <use xlink:href="#DejaVuSans-Oblique-6c" transform="translate(647.949219 0)"/>
     <use xlink:href="#DejaVuSans-Oblique-65" transform="translate(675.732422 0)"/>
     <use xlink:href="#DejaVuSans-Oblique-73" transform="translate(737.255859 0)"/>
     <use xlink:href="#DejaVuSans-Oblique-29" transform="translate(789.355469 0)"/>
    </g>
   </g>
   <g id="text_9">
    <!-- Trapecio -->
    <g style="fill: #1f2937" transform="translate(408.837188 229.136812) scale(0.11 -0.11)">
     <defs>
      <path id="DejaVuSans-Bold-54" d="M 31 4666 
L 4331 4666 
L 4331 3756 
L 2784 3756 
L 2784 0 
L 1581 0 
L 1581 3756 
L 31 3756 
L 31 4666 
z
" transform="scale(0.015625)"/>
      <path id="DejaVuSans-Bold-70" d="M 1656 506 
L 1656 -1331 
L 538 -1331 
L 538 3500 
L 1656 3500 
L 1656 2988 
Q 1888 3294 2169 3439 
Q 2450 3584 2816 3584 
Q 3463 3584 3878 3070 
Q 4294 2556 4294 1747 
Q 4294 938 3878 423 
Q 3463 -91 2816 -91 
Q 2450 -91 2169 54 
Q 1888 200 1656 506 
z
M 2400 2772 
Q 2041 2772 1848 2508 
Q 1656 2244 1656 1747 
Q 1656 1250 1848 986 
Q 2041 722 2400 722 
Q 2759 722 2948 984 
Q 3138 1247 3138 1747 
Q 3138 2247 2948 2509 
Q 2759 2772 2400 2772 
z
" transform="scale(0.015625)"/>
     </defs>
     <use xlink:href="#DejaVuSans-Bold-54"/>
     <use xlink:href="#DejaVuSans-Bold-72" transform="translate(57.212891 0)"/>
     <use xlink:href="#DejaVuSans-Bold-61" transform="translate(106.529297 0)"/>
     <use xlink:href="#DejaVuSans-Bold-70" transform="translate(174.009766 0)"/>
     <use xlink:href="#DejaVuSans-Bold-65" transform="translate(245.591797 0)"/>
     <use xlink:href="#DejaVuSans-Bold-63" transform="translate(313.414062 0)"/>
     <use xlink:href="#DejaVuSans-Bold-69" transform="translate(372.691406 0)"/>
     <use xlink:href="#DejaVuSans-Bold-6f" transform="translate(406.96875 0)"/>
    </g>
   </g>
   <g id="text_10">
    <!-- (1 par paralelo) -->
    <g style="fill: #1f2937; opacity: 0.7" transform="translate(403.93875 239.469) scale(0.08 -0.08)">
     <defs>
      <path id="DejaVuSans-Oblique-31" d="M 416 531 
L 1447 531 
L 2144 4122 
L 978 3897 
L 1088 4441 
L 2247 4666 
L 2881 4666 
L 2075 531 
L 3103 531 
L 3003 0 
L 313 0 
L 416 531 
z
" transform="scale(0.015625)"/>
     </defs>
     <use xlink:href="#DejaVuSans-Oblique-28"/>
     <use xlink:href="#DejaVuSans-Oblique-31" transform="translate(39.013672 0)"/>
     <use xlink:href="#DejaVuSans-Oblique-20" transform="translate(102.636719 0)"/>
     <use xlink:href="#DejaVuSans-Oblique-70" transform="translate(134.423828 0)"/>
     <use xlink:href="#DejaVuSans-Oblique-61" transform="translate(197.900391 0)"/>
     <use xlink:href="#DejaVuSans-Oblique-72" transform="translate(259.179688 0)"/>
     <use xlink:href="#DejaVuSans-Oblique-20" transform="translate(300.292969 0)"/>
     <use xlink:href="#DejaVuSans-Oblique-70" transform="translate(332.080078 0)"/>
     <use xlink:href="#DejaVuSans-Oblique-61" transform="translate(395.556641 0)"/>
     <use xlink:href="#DejaVuSans-Oblique-72" transform="translate(456.835938 0)"/>
     <use xlink:href="#DejaVuSans-Oblique-61" transform="translate(497.949219 0)"/>
     <use xlink:href="#DejaVuSans-Oblique-6c" transform="translate(559.228516 0)"/>
     <use xlink:href="#DejaVuSans-Oblique-65" transform="translate(587.011719 0)"/>
     <use xlink:href="#DejaVuSans-Oblique-6c" transform="translate(648.535156 0)"/>
     <use xlink:href="#DejaVuSans-Oblique-6f" transform="translate(676.318359 0)"/>
     <use xlink:href="#DejaVuSans-Oblique-29" transform="translate(737.5 0)"/>
    </g>
   </g>
   <g id="text_11">
    <!-- Trapezoide -->
    <g style="fill: #1f2937" transform="translate(512.829141 229.136812) scale(0.11 -0.11)">
     <defs>
      <path id="DejaVuSans-Bold-7a" d="M 366 3500 
L 3419 3500 
L 3419 2719 
L 1575 800 
L 3419 800 
L 3419 0 
L 288 0 
L 288 781 
L 2131 2700 
L 366 2700 
L 366 3500 
z
" transform="scale(0.015625)"/>
     </defs>
     <use xlink:href="#DejaVuSans-Bold-54"/>
     <use xlink:href="#DejaVuSans-Bold-72" transform="translate(57.212891 0)"/>
     <use xlink:href="#DejaVuSans-Bold-61" transform="translate(106.529297 0)"/>
     <use xlink:href="#DejaVuSans-Bold-70" transform="translate(174.009766 0)"/>
     <use xlink:href="#DejaVuSans-Bold-65" transform="translate(245.591797 0)"/>
     <use xlink:href="#DejaVuSans-Bold-7a" transform="translate(313.414062 0)"/>
     <use xlink:href="#DejaVuSans-Bold-6f" transform="translate(371.617188 0)"/>
     <use xlink:href="#DejaVuSans-Bold-69" transform="translate(440.318359 0)"/>
     <use xlink:href="#DejaVuSans-Bold-64" transform="translate(474.595703 0)"/>
     <use xlink:href="#DejaVuSans-Bold-65" transform="translate(546.177734 0)"/>
    </g>
   </g>
   <g id="text_12">
    <!-- (ningún paralelo) -->
    <g style="fill: #1f2937; opacity: 0.7" transform="translate(512.199375 239.629) scale(0.08 -0.08)">
     <defs>
      <path id="DejaVuSans-Oblique-fa" d="M 428 1388 
L 838 3500 
L 1416 3500 
L 1006 1409 
Q 975 1256 961 1147 
Q 947 1038 947 966 
Q 947 700 1109 554 
Q 1272 409 1569 409 
Q 2031 409 2368 721 
Q 2706 1034 2809 1563 
L 3194 3500 
L 3769 3500 
L 3091 0 
L 2516 0 
L 2631 550 
Q 2388 244 2052 76 
Q 1716 -91 1338 -91 
Q 878 -91 622 161 
Q 366 413 366 863 
Q 366 956 381 1097 
Q 397 1238 428 1388 
z
M 3047 5119 
L 3669 5119 
L 2422 3944 
L 1941 3944 
L 3047 5119 
z
" transform="scale(0.015625)"/>
     </defs>
     <use xlink:href="#DejaVuSans-Oblique-28"/>
     <use xlink:href="#DejaVuSans-Oblique-6e" transform="translate(39.013672 0)"/>
     <use xlink:href="#DejaVuSans-Oblique-69" transform="translate(102.392578 0)"/>
     <use xlink:href="#DejaVuSans-Oblique-6e" transform="translate(130.175781 0)"/>
     <use xlink:href="#DejaVuSans-Oblique-67" transform="translate(193.554688 0)"/>
     <use xlink:href="#DejaVuSans-Oblique-fa" transform="translate(257.03125 0)"/>
     <use xlink:href="#DejaVuSans-Oblique-6e" transform="translate(320.410156 0)"/>
     <use xlink:href="#DejaVuSans-Oblique-20" transform="translate(383.789062 0)"/>
     <use xlink:href="#DejaVuSans-Oblique-70" transform="translate(415.576172 0)"/>
     <use xlink:href="#DejaVuSans-Oblique-61" transform="translate(479.052734 0)"/>
     <use xlink:href="#DejaVuSans-Oblique-72" transform="translate(540.332031 0)"/>
     <use xlink:href="#DejaVuSans-Oblique-61" transform="translate(581.445312 0)"/>
     <use xlink:href="#DejaVuSans-Oblique-6c" transform="translate(642.724609 0)"/>
     <use xlink:href="#DejaVuSans-Oblique-65" transform="translate(670.507812 0)"/>
     <use xlink:href="#DejaVuSans-Oblique-6c" transform="translate(732.03125 0)"/>
     <use xlink:href="#DejaVuSans-Oblique-6f" transform="translate(759.814453 0)"/>
     <use xlink:href="#DejaVuSans-Oblique-29" transform="translate(820.996094 0)"/>
    </g>
   </g>
   <g id="text_13">
    <!-- Cuadrado -->
    <g style="fill: #1f2937" transform="translate(172.760469 296.096812) scale(0.11 -0.11)">
     <use xlink:href="#DejaVuSans-Bold-43"/>
     <use xlink:href="#DejaVuSans-Bold-75" transform="translate(73.388672 0)"/>
     <use xlink:href="#DejaVuSans-Bold-61" transform="translate(144.580078 0)"/>
     <use xlink:href="#DejaVuSans-Bold-64" transform="translate(212.060547 0)"/>
     <use xlink:href="#DejaVuSans-Bold-72" transform="translate(283.642578 0)"/>
     <use xlink:href="#DejaVuSans-Bold-61" transform="translate(332.958984 0)"/>
     <use xlink:href="#DejaVuSans-Bold-64" transform="translate(400.439453 0)"/>
     <use xlink:href="#DejaVuSans-Bold-6f" transform="translate(472.021484 0)"/>
    </g>
   </g>
   <g id="text_14">
    <!-- (rectángulo + rombo) -->
    <g style="fill: #1f2937; opacity: 0.7" transform="translate(159.016875 306.589) scale(0.08 -0.08)">
     <defs>
      <path id="DejaVuSans-Oblique-2b" d="M 2944 4013 
L 2944 2272 
L 4684 2272 
L 4684 1741 
L 2944 1741 
L 2944 0 
L 2419 0 
L 2419 1741 
L 678 1741 
L 678 2272 
L 2419 2272 
L 2419 4013 
L 2944 4013 
z
" transform="scale(0.015625)"/>
      <path id="DejaVuSans-Oblique-6d" d="M 5747 2113 
L 5338 0 
L 4763 0 
L 5166 2094 
Q 5191 2228 5203 2325 
Q 5216 2422 5216 2491 
Q 5216 2772 5059 2928 
Q 4903 3084 4622 3084 
Q 4203 3084 3875 2770 
Q 3547 2456 3450 1953 
L 3066 0 
L 2491 0 
L 2900 2094 
Q 2925 2209 2937 2307 
Q 2950 2406 2950 2484 
Q 2950 2769 2794 2926 
Q 2638 3084 2363 3084 
Q 1938 3084 1609 2770 
Q 1281 2456 1184 1953 
L 800 0 
L 225 0 
L 909 3500 
L 1484 3500 
L 1375 2956 
Q 1609 3263 1923 3423 
Q 2238 3584 2597 3584 
Q 2978 3584 3223 3384 
Q 3469 3184 3519 2828 
Q 3781 3197 4126 3390 
Q 4472 3584 4856 3584 
Q 5306 3584 5551 3325 
Q 5797 3066 5797 2591 
Q 5797 2488 5784 2364 
Q 5772 2241 5747 2113 
z
" transform="scale(0.015625)"/>
      <path id="DejaVuSans-Oblique-62" d="M 3169 2138 
Q 3169 2591 2961 2847 
Q 2753 3103 2388 3103 
Q 2122 3103 1889 2973 
Q 1656 2844 1484 2597 
Q 1303 2338 1198 1995 
Q 1094 1653 1094 1313 
Q 1094 881 1298 636 
Q 1503 391 1863 391 
Q 2134 391 2365 517 
Q 2597 644 2772 891 
Q 2950 1147 3059 1487 
Q 3169 1828 3169 2138 
z
M 1381 2969 
Q 1594 3256 1914 3420 
Q 2234 3584 2584 3584 
Q 3122 3584 3439 3221 
Q 3756 2859 3756 2241 
Q 3756 1734 3570 1259 
Q 3384 784 3041 416 
Q 2816 172 2522 40 
Q 2228 -91 1906 -91 
Q 1566 -91 1316 65 
Q 1066 222 909 531 
L 806 0 
L 231 0 
L 1178 4863 
L 1753 4863 
L 1381 2969 
z
" transform="scale(0.015625)"/>
     </defs>
     <use xlink:href="#DejaVuSans-Oblique-28"/>
     <use xlink:href="#DejaVuSans-Oblique-72" transform="translate(39.013672 0)"/>
     <use xlink:href="#DejaVuSans-Oblique-65" transform="translate(80.126953 0)"/>
     <use xlink:href="#DejaVuSans-Oblique-63" transform="translate(141.650391 0)"/>
     <use xlink:href="#DejaVuSans-Oblique-74" transform="translate(196.630859 0)"/>
     <use xlink:href="#DejaVuSans-Oblique-e1" transform="translate(235.839844 0)"/>
     <use xlink:href="#DejaVuSans-Oblique-6e" transform="translate(297.119141 0)"/>
     <use xlink:href="#DejaVuSans-Oblique-67" transform="translate(360.498047 0)"/>
     <use xlink:href="#DejaVuSans-Oblique-75" transform="translate(423.974609 0)"/>
     <use xlink:href="#DejaVuSans-Oblique-6c" transform="translate(487.353516 0)"/>
     <use xlink:href="#DejaVuSans-Oblique-6f" transform="translate(515.136719 0)"/>
     <use xlink:href="#DejaVuSans-Oblique-20" transform="translate(576.318359 0)"/>
     <use xlink:href="#DejaVuSans-Oblique-2b" transform="translate(608.105469 0)"/>
     <use xlink:href="#DejaVuSans-Oblique-20" transform="translate(691.894531 0)"/>
     <use xlink:href="#DejaVuSans-Oblique-72" transform="translate(723.681641 0)"/>
     <use xlink:href="#DejaVuSans-Oblique-6f" transform="translate(764.794922 0)"/>
     <use xlink:href="#DejaVuSans-Oblique-6d" transform="translate(825.976562 0)"/>
     <use xlink:href="#DejaVuSans-Oblique-62" transform="translate(923.388672 0)"/>
     <use xlink:href="#DejaVuSans-Oblique-6f" transform="translate(986.865234 0)"/>
     <use xlink:href="#DejaVuSans-Oblique-29" transform="translate(1048.046875 0)"/>
    </g>
   </g>
   <g id="text_15">
    <!-- Clasificación de Cuadriláteros -->
    <g style="fill: #1f2937" transform="translate(207.74875 19.3575) scale(0.16 -0.16)">
     <defs>
      <path id="DejaVuSans-Bold-66" d="M 2841 4863 
L 2841 4128 
L 2222 4128 
Q 1984 4128 1890 4042 
Q 1797 3956 1797 3744 
L 1797 3500 
L 2753 3500 
L 2753 2700 
L 1797 2700 
L 1797 0 
L 678 0 
L 678 2700 
L 122 2700 
L 122 3500 
L 678 3500 
L 678 3744 
Q 678 4316 997 4589 
Q 1316 4863 1984 4863 
L 2841 4863 
z
" transform="scale(0.015625)"/>
      <path id="DejaVuSans-Bold-f3" d="M 2203 2784 
Q 1831 2784 1636 2517 
Q 1441 2250 1441 1747 
Q 1441 1244 1636 976 
Q 1831 709 2203 709 
Q 2569 709 2762 976 
Q 2956 1244 2956 1747 
Q 2956 2250 2762 2517 
Q 2569 2784 2203 2784 
z
M 2203 3584 
Q 3106 3584 3614 3096 
Q 4122 2609 4122 1747 
Q 4122 884 3614 396 
Q 3106 -91 2203 -91 
Q 1297 -91 786 396 
Q 275 884 275 1747 
Q 275 2609 786 3096 
Q 1297 3584 2203 3584 
z
M 2694 5119 
L 3578 5119 
L 2425 3944 
L 1813 3944 
L 2694 5119 
z
" transform="scale(0.015625)"/>
     </defs>
     <use xlink:href="#DejaVuSans-Bold-43"/>
     <use xlink:href="#DejaVuSans-Bold-6c" transform="translate(73.388672 0)"/>
     <use xlink:href="#DejaVuSans-Bold-61" transform="translate(107.666016 0)"/>
     <use xlink:href="#DejaVuSans-Bold-73" transform="translate(175.146484 0)"/>
     <use xlink:href="#DejaVuSans-Bold-69" transform="translate(234.667969 0)"/>
     <use xlink:href="#DejaVuSans-Bold-66" transform="translate(268.945312 0)"/>
     <use xlink:href="#DejaVuSans-Bold-69" transform="translate(312.451172 0)"/>
     <use xlink:href="#DejaVuSans-Bold-63" transform="translate(346.728516 0)"/>
     <use xlink:href="#DejaVuSans-Bold-61" transform="translate(406.005859 0)"/>
     <use xlink:href="#DejaVuSans-Bold-63" transform="translate(473.486328 0)"/>
     <use xlink:href="#DejaVuSans-Bold-69" transform="translate(532.763672 0)"/>
     <use xlink:href="#DejaVuSans-Bold-f3" transform="translate(567.041016 0)"/>
     <use xlink:href="#DejaVuSans-Bold-6e" transform="translate(635.742188 0)"/>
     <use xlink:href="#DejaVuSans-Bold-20" transform="translate(706.933594 0)"/>
     <use xlink:href="#DejaVuSans-Bold-64" transform="translate(741.748047 0)"/>
     <use xlink:href="#DejaVuSans-Bold-65" transform="translate(813.330078 0)"/>
     <use xlink:href="#DejaVuSans-Bold-20" transform="translate(881.152344 0)"/>
     <use xlink:href="#DejaVuSans-Bold-43" transform="translate(915.966797 0)"/>
     <use xlink:href="#DejaVuSans-Bold-75" transform="translate(989.355469 0)"/>
     <use xlink:href="#DejaVuSans-Bold-61" transform="translate(1060.546875 0)"/>
     <use xlink:href="#DejaVuSans-Bold-64" transform="translate(1128.027344 0)"/>
     <use xlink:href="#DejaVuSans-Bold-72" transform="translate(1199.609375 0)"/>
     <use xlink:href="#DejaVuSans-Bold-69" transform="translate(1248.925781 0)"/>
     <use xlink:href="#DejaVuSans-Bold-6c" transform="translate(1283.203125 0)"/>
     <use xlink:href="#DejaVuSans-Bold-e1" transform="translate(1317.480469 0)"/>
     <use xlink:href="#DejaVuSans-Bold-74" transform="translate(1384.960938 0)"/>
     <use xlink:href="#DejaVuSans-Bold-65" transform="translate(1432.763672 0)"/>
     <use xlink:href="#DejaVuSans-Bold-72" transform="translate(1500.585938 0)"/>
     <use xlink:href="#DejaVuSans-Bold-6f" transform="translate(1549.902344 0)"/>
     <use xlink:href="#DejaVuSans-Bold-73" transform="translate(1618.603516 0)"/>
    </g>
   </g>
  </g>
 </g>
 <defs>
  <clipPath id="p6f5a61fa06">
   <rect x="7.2" y="39.3575" width="669.6" height="316.2"/>
  </clipPath>
 </defs>
</svg>
