<?xml version="1.0" encoding="utf-8" standalone="no"?>
<!DOCTYPE svg PUBLIC "-//W3C//DTD SVG 1.1//EN"
  "http://www.w3.org/Graphics/SVG/1.1/DTD/svg11.dtd">
<svg xmlns:xlink="http://www.w3.org/1999/xlink" width="797.823896pt" height="707.04pt" viewBox="0 0 797.823896 707.04" xmlns="http://www.w3.org/2000/svg" version="1.1">
 <metadata>
  <rdf:RDF xmlns:dc="http://purl.org/dc/elements/1.1/" xmlns:cc="http://creativecommons.org/ns#" xmlns:rdf="http://www.w3.org/1999/02/22-rdf-syntax-ns#">
   <cc:Work>
    <dc:type rdf:resource="http://purl.org/dc/dcmitype/StillImage"/>
    <dc:date>2026-01-03T17:13:34.405799</dc:date>
    <dc:format>image/svg+xml</dc:format>
    <dc:creator>
     <cc:Agent>
      <dc:title>Repositorio Matemáticas Universitarias</dc:title>
     </cc:Agent>
    </dc:creator>
   </cc:Work>
  </rdf:RDF>
 </metadata>
 <defs>
  <style type="text/css">*{stroke-linejoin: round; stroke-linecap: butt}</style>
 </defs>
 <g id="figure_1">
  <g id="patch_1">
   <path d="M 0 707.04 
L 797.823896 707.04 
L 797.823896 0 
L 0 0 
z
" style="fill: #ffffff"/>
  </g>
  <g id="axes_1">
   <g id="patch_2">
    <path d="M 40.071429 272.342857 
L 259.214286 272.342857 
L 324.957143 140.857143 
L 105.814286 140.857143 
z
" clip-path="url(#p768bcd5066)" style="fill: #2563eb; opacity: 0.15; stroke: #2563eb; stroke-width: 2.5; stroke-linejoin: miter"/>
   </g>
   <g id="line2d_1">
    <defs>
     <path id="m658274b3f8" d="M 0 2.5 
C 0.663008 2.5 1.29895 2.236584 1.767767 1.767767 
C 2.236584 1.29895 2.5 0.663008 2.5 0 
C 2.5 -0.663008 2.236584 -1.29895 1.767767 -1.767767 
C 1.29895 -2.236584 0.663008 -2.5 0 -2.5 
C -0.663008 -2.5 -1.29895 -2.236584 -1.767767 -1.767767 
C -2.236584 -1.29895 -2.5 -0.663008 -2.5 0 
C -2.5 0.663008 -2.236584 1.29895 -1.767767 1.767767 
C -1.29895 2.236584 -0.663008 2.5 0 2.5 
z
" style="stroke: #2563eb"/>
    </defs>
    <g clip-path="url(#p768bcd5066)">
     <use xlink:href="#m658274b3f8" x="40.071429" y="272.342857" style="fill: #2563eb; stroke: #2563eb"/>
    </g>
   </g>
   <g id="line2d_2">
    <g clip-path="url(#p768bcd5066)">
     <use xlink:href="#m658274b3f8" x="259.214286" y="272.342857" style="fill: #2563eb; stroke: #2563eb"/>
    </g>
   </g>
   <g id="line2d_3">
    <g clip-path="url(#p768bcd5066)">
     <use xlink:href="#m658274b3f8" x="324.957143" y="140.857143" style="fill: #2563eb; stroke: #2563eb"/>
    </g>
   </g>
   <g id="line2d_4">
    <g clip-path="url(#p768bcd5066)">
     <use xlink:href="#m658274b3f8" x="105.814286" y="140.857143" style="fill: #2563eb; stroke: #2563eb"/>
    </g>
   </g>
   <g id="line2d_5">
    <path d="M 40.071429 272.342857 
L 324.957143 140.857143 
" clip-path="url(#p768bcd5066)" style="fill: none; stroke-dasharray: 5.55,2.4; stroke-dashoffset: 0; stroke: #dc2626; stroke-opacity: 0.8; stroke-width: 1.5"/>
   </g>
   <g id="line2d_6">
    <path d="M 259.214286 272.342857 
L 105.814286 140.857143 
" clip-path="url(#p768bcd5066)" style="fill: none; stroke-dasharray: 5.55,2.4; stroke-dashoffset: 0; stroke: #059669; stroke-opacity: 0.8; stroke-width: 1.5"/>
   </g>
   <g id="line2d_7">
    <defs>
     <path id="m1f38a9367f" d="M 0 2 
C 0.530406 2 1.03916 1.789267 1.414214 1.414214 
C 1.789267 1.03916 2 0.530406 2 0 
C 2 -0.530406 1.789267 -1.03916 1.414214 -1.414214 
C 1.03916 -1.789267 0.530406 -2 0 -2 
C -0.530406 -2 -1.03916 -1.789267 -1.414214 -1.414214 
C -1.789267 -1.03916 -2 -0.530406 -2 0 
C -2 0.530406 -1.789267 1.03916 -1.414214 1.414214 
C -1.03916 1.789267 -0.530406 2 0 2 
z
" style="stroke: #374151"/>
    </defs>
    <g clip-path="url(#p768bcd5066)">
     <use xlink:href="#m1f38a9367f" x="182.514286" y="206.6" style="fill: #374151; stroke: #374151"/>
    </g>
   </g>
   <g id="text_1">
    <!-- • Lados opuestos paralelos e iguales -->
    <g style="fill: #4b5563" transform="translate(99.615145 306.093397) scale(0.09 -0.09)">
     <defs>
      <path id="DejaVuSans-2022" d="M 959 2381 
Q 959 2769 1229 3036 
Q 1500 3303 1894 3303 
Q 2281 3303 2548 3036 
Q 2816 2769 2816 2381 
Q 2816 1991 2547 1722 
Q 2278 1453 1888 1453 
Q 1497 1453 1228 1722 
Q 959 1991 959 2381 
z
" transform="scale(0.015625)"/>
      <path id="DejaVuSans-20" transform="scale(0.015625)"/>
      <path id="DejaVuSans-4c" d="M 628 4666 
L 1259 4666 
L 1259 531 
L 3531 531 
L 3531 0 
L 628 0 
L 628 4666 
z
" transform="scale(0.015625)"/>
      <path id="DejaVuSans-61" d="M 2194 1759 
Q 1497 1759 1228 1600 
Q 959 1441 959 1056 
Q 959 750 1161 570 
Q 1363 391 1709 391 
Q 2188 391 2477 730 
Q 2766 1069 2766 1631 
L 2766 1759 
L 2194 1759 
z
M 3341 1997 
L 3341 0 
L 2766 0 
L 2766 531 
Q 2569 213 2275 61 
Q 1981 -91 1556 -91 
Q 1019 -91 701 211 
Q 384 513 384 1019 
Q 384 1609 779 1909 
Q 1175 2209 1959 2209 
L 2766 2209 
L 2766 2266 
Q 2766 2663 2505 2880 
Q 2244 3097 1772 3097 
Q 1472 3097 1187 3025 
Q 903 2953 641 2809 
L 641 3341 
Q 956 3463 1253 3523 
Q 1550 3584 1831 3584 
Q 2591 3584 2966 3190 
Q 3341 2797 3341 1997 
z
" transform="scale(0.015625)"/>
      <path id="DejaVuSans-64" d="M 2906 2969 
L 2906 4863 
L 3481 4863 
L 3481 0 
L 2906 0 
L 2906 525 
Q 2725 213 2448 61 
Q 2172 -91 1784 -91 
Q 1150 -91 751 415 
Q 353 922 353 1747 
Q 353 2572 751 3078 
Q 1150 3584 1784 3584 
Q 2172 3584 2448 3432 
Q 2725 3281 2906 2969 
z
M 947 1747 
Q 947 1113 1208 752 
Q 1469 391 1925 391 
Q 2381 391 2643 752 
Q 2906 1113 2906 1747 
Q 2906 2381 2643 2742 
Q 2381 3103 1925 3103 
Q 1469 3103 1208 2742 
Q 947 2381 947 1747 
z
" transform="scale(0.015625)"/>
      <path id="DejaVuSans-6f" d="M 1959 3097 
Q 1497 3097 1228 2736 
Q 959 2375 959 1747 
Q 959 1119 1226 758 
Q 1494 397 1959 397 
Q 2419 397 2687 759 
Q 2956 1122 2956 1747 
Q 2956 2369 2687 2733 
Q 2419 3097 1959 3097 
z
M 1959 3584 
Q 2709 3584 3137 3096 
Q 3566 2609 3566 1747 
Q 3566 888 3137 398 
Q 2709 -91 1959 -91 
Q 1206 -91 779 398 
Q 353 888 353 1747 
Q 353 2609 779 3096 
Q 1206 3584 1959 3584 
z
" transform="scale(0.015625)"/>
      <path id="DejaVuSans-73" d="M 2834 3397 
L 2834 2853 
Q 2591 2978 2328 3040 
Q 2066 3103 1784 3103 
Q 1356 3103 1142 2972 
Q 928 2841 928 2578 
Q 928 2378 1081 2264 
Q 1234 2150 1697 2047 
L 1894 2003 
Q 2506 1872 2764 1633 
Q 3022 1394 3022 966 
Q 3022 478 2636 193 
Q 2250 -91 1575 -91 
Q 1294 -91 989 -36 
Q 684 19 347 128 
L 347 722 
Q 666 556 975 473 
Q 1284 391 1588 391 
Q 1994 391 2212 530 
Q 2431 669 2431 922 
Q 2431 1156 2273 1281 
Q 2116 1406 1581 1522 
L 1381 1569 
Q 847 1681 609 1914 
Q 372 2147 372 2553 
Q 372 3047 722 3315 
Q 1072 3584 1716 3584 
Q 2034 3584 2315 3537 
Q 2597 3491 2834 3397 
z
" transform="scale(0.015625)"/>
      <path id="DejaVuSans-70" d="M 1159 525 
L 1159 -1331 
L 581 -1331 
L 581 3500 
L 1159 3500 
L 1159 2969 
Q 1341 3281 1617 3432 
Q 1894 3584 2278 3584 
Q 2916 3584 3314 3078 
Q 3713 2572 3713 1747 
Q 3713 922 3314 415 
Q 2916 -91 2278 -91 
Q 1894 -91 1617 61 
Q 1341 213 1159 525 
z
M 3116 1747 
Q 3116 2381 2855 2742 
Q 2594 3103 2138 3103 
Q 1681 3103 1420 2742 
Q 1159 2381 1159 1747 
Q 1159 1113 1420 752 
Q 1681 391 2138 391 
Q 2594 391 2855 752 
Q 3116 1113 3116 1747 
z
" transform="scale(0.015625)"/>
      <path id="DejaVuSans-75" d="M 544 1381 
L 544 3500 
L 1119 3500 
L 1119 1403 
Q 1119 906 1312 657 
Q 1506 409 1894 409 
Q 2359 409 2629 706 
Q 2900 1003 2900 1516 
L 2900 3500 
L 3475 3500 
L 3475 0 
L 2900 0 
L 2900 538 
Q 2691 219 2414 64 
Q 2138 -91 1772 -91 
Q 1169 -91 856 284 
Q 544 659 544 1381 
z
M 1991 3584 
L 1991 3584 
z
" transform="scale(0.015625)"/>
      <path id="DejaVuSans-65" d="M 3597 1894 
L 3597 1613 
L 953 1613 
Q 991 1019 1311 708 
Q 1631 397 2203 397 
Q 2534 397 2845 478 
Q 3156 559 3463 722 
L 3463 178 
Q 3153 47 2828 -22 
Q 2503 -91 2169 -91 
Q 1331 -91 842 396 
Q 353 884 353 1716 
Q 353 2575 817 3079 
Q 1281 3584 2069 3584 
Q 2775 3584 3186 3129 
Q 3597 2675 3597 1894 
z
M 3022 2063 
Q 3016 2534 2758 2815 
Q 2500 3097 2075 3097 
Q 1594 3097 1305 2825 
Q 1016 2553 972 2059 
L 3022 2063 
z
" transform="scale(0.015625)"/>
      <path id="DejaVuSans-74" d="M 1172 4494 
L 1172 3500 
L 2356 3500 
L 2356 3053 
L 1172 3053 
L 1172 1153 
Q 1172 725 1289 603 
Q 1406 481 1766 481 
L 2356 481 
L 2356 0 
L 1766 0 
Q 1100 0 847 248 
Q 594 497 594 1153 
L 594 3053 
L 172 3053 
L 172 3500 
L 594 3500 
L 594 4494 
L 1172 4494 
z
" transform="scale(0.015625)"/>
      <path id="DejaVuSans-72" d="M 2631 2963 
Q 2534 3019 2420 3045 
Q 2306 3072 2169 3072 
Q 1681 3072 1420 2755 
Q 1159 2438 1159 1844 
L 1159 0 
L 581 0 
L 581 3500 
L 1159 3500 
L 1159 2956 
Q 1341 3275 1631 3429 
Q 1922 3584 2338 3584 
Q 2397 3584 2469 3576 
Q 2541 3569 2628 3553 
L 2631 2963 
z
" transform="scale(0.015625)"/>
      <path id="DejaVuSans-6c" d="M 603 4863 
L 1178 4863 
L 1178 0 
L 603 0 
L 603 4863 
z
" transform="scale(0.015625)"/>
      <path id="DejaVuSans-69" d="M 603 3500 
L 1178 3500 
L 1178 0 
L 603 0 
L 603 3500 
z
M 603 4863 
L 1178 4863 
L 1178 4134 
L 603 4134 
L 603 4863 
z
" transform="scale(0.015625)"/>
      <path id="DejaVuSans-67" d="M 2906 1791 
Q 2906 2416 2648 2759 
Q 2391 3103 1925 3103 
Q 1463 3103 1205 2759 
Q 947 2416 947 1791 
Q 947 1169 1205 825 
Q 1463 481 1925 481 
Q 2391 481 2648 825 
Q 2906 1169 2906 1791 
z
M 3481 434 
Q 3481 -459 3084 -895 
Q 2688 -1331 1869 -1331 
Q 1566 -1331 1297 -1286 
Q 1028 -1241 775 -1147 
L 775 -588 
Q 1028 -725 1275 -790 
Q 1522 -856 1778 -856 
Q 2344 -856 2625 -561 
Q 2906 -266 2906 331 
L 2906 616 
Q 2728 306 2450 153 
Q 2172 0 1784 0 
Q 1141 0 747 490 
Q 353 981 353 1791 
Q 353 2603 747 3093 
Q 1141 3584 1784 3584 
Q 2172 3584 2450 3431 
Q 2728 3278 2906 2969 
L 2906 3500 
L 3481 3500 
L 3481 434 
z
" transform="scale(0.015625)"/>
     </defs>
     <use xlink:href="#DejaVuSans-2022"/>
     <use xlink:href="#DejaVuSans-20" transform="translate(58.984375 0)"/>
     <use xlink:href="#DejaVuSans-4c" transform="translate(90.771484 0)"/>
     <use xlink:href="#DejaVuSans-61" transform="translate(146.484375 0)"/>
     <use xlink:href="#DejaVuSans-64" transform="translate(207.763672 0)"/>
     <use xlink:href="#DejaVuSans-6f" transform="translate(271.240234 0)"/>
     <use xlink:href="#DejaVuSans-73" transform="translate(332.421875 0)"/>
     <use xlink:href="#DejaVuSans-20" transform="translate(384.521484 0)"/>
     <use xlink:href="#DejaVuSans-6f" transform="translate(416.308594 0)"/>
     <use xlink:href="#DejaVuSans-70" transform="translate(477.490234 0)"/>
     <use xlink:href="#DejaVuSans-75" transform="translate(540.966797 0)"/>
     <use xlink:href="#DejaVuSans-65" transform="translate(604.345703 0)"/>
     <use xlink:href="#DejaVuSans-73" transform="translate(665.869141 0)"/>
     <use xlink:href="#DejaVuSans-74" transform="translate(717.96875 0)"/>
     <use xlink:href="#DejaVuSans-6f" transform="translate(757.177734 0)"/>
     <use xlink:href="#DejaVuSans-73" transform="translate(818.359375 0)"/>
     <use xlink:href="#DejaVuSans-20" transform="translate(870.458984 0)"/>
     <use xlink:href="#DejaVuSans-70" transform="translate(902.246094 0)"/>
     <use xlink:href="#DejaVuSans-61" transform="translate(965.722656 0)"/>
     <use xlink:href="#DejaVuSans-72" transform="translate(1027.001953 0)"/>
     <use xlink:href="#DejaVuSans-61" transform="translate(1068.115234 0)"/>
     <use xlink:href="#DejaVuSans-6c" transform="translate(1129.394531 0)"/>
     <use xlink:href="#DejaVuSans-65" transform="translate(1157.177734 0)"/>
     <use xlink:href="#DejaVuSans-6c" transform="translate(1218.701172 0)"/>
     <use xlink:href="#DejaVuSans-6f" transform="translate(1246.484375 0)"/>
     <use xlink:href="#DejaVuSans-73" transform="translate(1307.666016 0)"/>
     <use xlink:href="#DejaVuSans-20" transform="translate(1359.765625 0)"/>
     <use xlink:href="#DejaVuSans-65" transform="translate(1391.552734 0)"/>
     <use xlink:href="#DejaVuSans-20" transform="translate(1453.076172 0)"/>
     <use xlink:href="#DejaVuSans-69" transform="translate(1484.863281 0)"/>
     <use xlink:href="#DejaVuSans-67" transform="translate(1512.646484 0)"/>
     <use xlink:href="#DejaVuSans-75" transform="translate(1576.123047 0)"/>
     <use xlink:href="#DejaVuSans-61" transform="translate(1639.501953 0)"/>
     <use xlink:href="#DejaVuSans-6c" transform="translate(1700.78125 0)"/>
     <use xlink:href="#DejaVuSans-65" transform="translate(1728.564453 0)"/>
     <use xlink:href="#DejaVuSans-73" transform="translate(1790.087891 0)"/>
    </g>
    <!-- • Diagonales se bisecan -->
    <g style="fill: #4b5563" transform="translate(128.096629 316.171429) scale(0.09 -0.09)">
     <defs>
      <path id="DejaVuSans-44" d="M 1259 4147 
L 1259 519 
L 2022 519 
Q 2988 519 3436 956 
Q 3884 1394 3884 2338 
Q 3884 3275 3436 3711 
Q 2988 4147 2022 4147 
L 1259 4147 
z
M 628 4666 
L 1925 4666 
Q 3281 4666 3915 4102 
Q 4550 3538 4550 2338 
Q 4550 1131 3912 565 
Q 3275 0 1925 0 
L 628 0 
L 628 4666 
z
" transform="scale(0.015625)"/>
      <path id="DejaVuSans-6e" d="M 3513 2113 
L 3513 0 
L 2938 0 
L 2938 2094 
Q 2938 2591 2744 2837 
Q 2550 3084 2163 3084 
Q 1697 3084 1428 2787 
Q 1159 2491 1159 1978 
L 1159 0 
L 581 0 
L 581 3500 
L 1159 3500 
L 1159 2956 
Q 1366 3272 1645 3428 
Q 1925 3584 2291 3584 
Q 2894 3584 3203 3211 
Q 3513 2838 3513 2113 
z
" transform="scale(0.015625)"/>
      <path id="DejaVuSans-62" d="M 3116 1747 
Q 3116 2381 2855 2742 
Q 2594 3103 2138 3103 
Q 1681 3103 1420 2742 
Q 1159 2381 1159 1747 
Q 1159 1113 1420 752 
Q 1681 391 2138 391 
Q 2594 391 2855 752 
Q 3116 1113 3116 1747 
z
M 1159 2969 
Q 1341 3281 1617 3432 
Q 1894 3584 2278 3584 
Q 2916 3584 3314 3078 
Q 3713 2572 3713 1747 
Q 3713 922 3314 415 
Q 2916 -91 2278 -91 
Q 1894 -91 1617 61 
Q 1341 213 1159 525 
L 1159 0 
L 581 0 
L 581 4863 
L 1159 4863 
L 1159 2969 
z
" transform="scale(0.015625)"/>
      <path id="DejaVuSans-63" d="M 3122 3366 
L 3122 2828 
Q 2878 2963 2633 3030 
Q 2388 3097 2138 3097 
Q 1578 3097 1268 2742 
Q 959 2388 959 1747 
Q 959 1106 1268 751 
Q 1578 397 2138 397 
Q 2388 397 2633 464 
Q 2878 531 3122 666 
L 3122 134 
Q 2881 22 2623 -34 
Q 2366 -91 2075 -91 
Q 1284 -91 818 406 
Q 353 903 353 1747 
Q 353 2603 823 3093 
Q 1294 3584 2113 3584 
Q 2378 3584 2631 3529 
Q 2884 3475 3122 3366 
z
" transform="scale(0.015625)"/>
     </defs>
     <use xlink:href="#DejaVuSans-2022"/>
     <use xlink:href="#DejaVuSans-20" transform="translate(58.984375 0)"/>
     <use xlink:href="#DejaVuSans-44" transform="translate(90.771484 0)"/>
     <use xlink:href="#DejaVuSans-69" transform="translate(167.773438 0)"/>
     <use xlink:href="#DejaVuSans-61" transform="translate(195.556641 0)"/>
     <use xlink:href="#DejaVuSans-67" transform="translate(256.835938 0)"/>
     <use xlink:href="#DejaVuSans-6f" transform="translate(320.3125 0)"/>
     <use xlink:href="#DejaVuSans-6e" transform="translate(381.494141 0)"/>
     <use xlink:href="#DejaVuSans-61" transform="translate(444.873047 0)"/>
     <use xlink:href="#DejaVuSans-6c" transform="translate(506.152344 0)"/>
     <use xlink:href="#DejaVuSans-65" transform="translate(533.935547 0)"/>
     <use xlink:href="#DejaVuSans-73" transform="translate(595.458984 0)"/>
     <use xlink:href="#DejaVuSans-20" transform="translate(647.558594 0)"/>
     <use xlink:href="#DejaVuSans-73" transform="translate(679.345703 0)"/>
     <use xlink:href="#DejaVuSans-65" transform="translate(731.445312 0)"/>
     <use xlink:href="#DejaVuSans-20" transform="translate(792.96875 0)"/>
     <use xlink:href="#DejaVuSans-62" transform="translate(824.755859 0)"/>
     <use xlink:href="#DejaVuSans-69" transform="translate(888.232422 0)"/>
     <use xlink:href="#DejaVuSans-73" transform="translate(916.015625 0)"/>
     <use xlink:href="#DejaVuSans-65" transform="translate(968.115234 0)"/>
     <use xlink:href="#DejaVuSans-63" transform="translate(1029.638672 0)"/>
     <use xlink:href="#DejaVuSans-61" transform="translate(1084.619141 0)"/>
     <use xlink:href="#DejaVuSans-6e" transform="translate(1145.898438 0)"/>
    </g>
   </g>
   <g id="patch_3">
    <path d="M 168.440821 261.385714 
Q 149.643259 261.385714 130.845697 261.385714 
" style="fill: none; stroke: #6b7280; stroke-linecap: round"/>
    <path d="M 163.640821 258.985714 
L 168.440821 261.385714 
L 163.640821 263.785714 
" style="fill: none; stroke: #6b7280; stroke-linecap: round"/>
    <path d="M 135.645697 263.785714 
L 130.845697 261.385714 
L 135.645697 258.985714 
" style="fill: none; stroke: #6b7280; stroke-linecap: round"/>
   </g>
   <g id="patch_4">
    <path d="M 234.183678 151.814286 
Q 215.386116 151.814286 196.588554 151.814286 
" style="fill: none; stroke: #6b7280; stroke-linecap: round"/>
    <path d="M 229.383678 149.414286 
L 234.183678 151.814286 
L 229.383678 154.214286 
" style="fill: none; stroke: #6b7280; stroke-linecap: round"/>
    <path d="M 201.388554 154.214286 
L 196.588554 151.814286 
L 201.388554 149.414286 
" style="fill: none; stroke: #6b7280; stroke-linecap: round"/>
   </g>
   <g id="text_2">
    <!-- PARALELOGRAMO -->
    <g style="fill: #1f2937" transform="translate(128.347232 43.2) scale(0.12 -0.12)">
     <defs>
      <path id="DejaVuSans-Bold-50" d="M 588 4666 
L 2584 4666 
Q 3475 4666 3951 4270 
Q 4428 3875 4428 3144 
Q 4428 2409 3951 2014 
Q 3475 1619 2584 1619 
L 1791 1619 
L 1791 0 
L 588 0 
L 588 4666 
z
M 1791 3794 
L 1791 2491 
L 2456 2491 
Q 2806 2491 2997 2661 
Q 3188 2831 3188 3144 
Q 3188 3456 2997 3625 
Q 2806 3794 2456 3794 
L 1791 3794 
z
" transform="scale(0.015625)"/>
      <path id="DejaVuSans-Bold-41" d="M 3419 850 
L 1538 850 
L 1241 0 
L 31 0 
L 1759 4666 
L 3194 4666 
L 4922 0 
L 3713 0 
L 3419 850 
z
M 1838 1716 
L 3116 1716 
L 2478 3572 
L 1838 1716 
z
" transform="scale(0.015625)"/>
      <path id="DejaVuSans-Bold-52" d="M 2297 2597 
Q 2675 2597 2839 2737 
Q 3003 2878 3003 3200 
Q 3003 3519 2839 3656 
Q 2675 3794 2297 3794 
L 1791 3794 
L 1791 2597 
L 2297 2597 
z
M 1791 1766 
L 1791 0 
L 588 0 
L 588 4666 
L 2425 4666 
Q 3347 4666 3776 4356 
Q 4206 4047 4206 3378 
Q 4206 2916 3982 2619 
Q 3759 2322 3309 2181 
Q 3556 2125 3751 1926 
Q 3947 1728 4147 1325 
L 4800 0 
L 3519 0 
L 2950 1159 
Q 2778 1509 2601 1637 
Q 2425 1766 2131 1766 
L 1791 1766 
z
" transform="scale(0.015625)"/>
      <path id="DejaVuSans-Bold-4c" d="M 588 4666 
L 1791 4666 
L 1791 909 
L 3903 909 
L 3903 0 
L 588 0 
L 588 4666 
z
" transform="scale(0.015625)"/>
      <path id="DejaVuSans-Bold-45" d="M 588 4666 
L 3834 4666 
L 3834 3756 
L 1791 3756 
L 1791 2888 
L 3713 2888 
L 3713 1978 
L 1791 1978 
L 1791 909 
L 3903 909 
L 3903 0 
L 588 0 
L 588 4666 
z
" transform="scale(0.015625)"/>
      <path id="DejaVuSans-Bold-4f" d="M 2719 3878 
Q 2169 3878 1866 3472 
Q 1563 3066 1563 2328 
Q 1563 1594 1866 1187 
Q 2169 781 2719 781 
Q 3272 781 3575 1187 
Q 3878 1594 3878 2328 
Q 3878 3066 3575 3472 
Q 3272 3878 2719 3878 
z
M 2719 4750 
Q 3844 4750 4481 4106 
Q 5119 3463 5119 2328 
Q 5119 1197 4481 553 
Q 3844 -91 2719 -91 
Q 1597 -91 958 553 
Q 319 1197 319 2328 
Q 319 3463 958 4106 
Q 1597 4750 2719 4750 
z
" transform="scale(0.015625)"/>
      <path id="DejaVuSans-Bold-47" d="M 4781 347 
Q 4331 128 3847 18 
Q 3363 -91 2847 -91 
Q 1681 -91 1000 561 
Q 319 1213 319 2328 
Q 319 3456 1012 4103 
Q 1706 4750 2913 4750 
Q 3378 4750 3804 4662 
Q 4231 4575 4609 4403 
L 4609 3438 
Q 4219 3659 3833 3768 
Q 3447 3878 3059 3878 
Q 2341 3878 1952 3476 
Q 1563 3075 1563 2328 
Q 1563 1588 1938 1184 
Q 2313 781 3003 781 
Q 3191 781 3352 804 
Q 3513 828 3641 878 
L 3641 1784 
L 2906 1784 
L 2906 2591 
L 4781 2591 
L 4781 347 
z
" transform="scale(0.015625)"/>
      <path id="DejaVuSans-Bold-4d" d="M 588 4666 
L 2119 4666 
L 3181 2169 
L 4250 4666 
L 5778 4666 
L 5778 0 
L 4641 0 
L 4641 3413 
L 3566 897 
L 2803 897 
L 1728 3413 
L 1728 0 
L 588 0 
L 588 4666 
z
" transform="scale(0.015625)"/>
     </defs>
     <use xlink:href="#DejaVuSans-Bold-50"/>
     <use xlink:href="#DejaVuSans-Bold-41" transform="translate(64.166016 0)"/>
     <use xlink:href="#DejaVuSans-Bold-52" transform="translate(141.558594 0)"/>
     <use xlink:href="#DejaVuSans-Bold-41" transform="translate(218.560547 0)"/>
     <use xlink:href="#DejaVuSans-Bold-4c" transform="translate(295.953125 0)"/>
     <use xlink:href="#DejaVuSans-Bold-45" transform="translate(359.673828 0)"/>
     <use xlink:href="#DejaVuSans-Bold-4c" transform="translate(427.984375 0)"/>
     <use xlink:href="#DejaVuSans-Bold-4f" transform="translate(488.080078 0)"/>
     <use xlink:href="#DejaVuSans-Bold-47" transform="translate(573.089844 0)"/>
     <use xlink:href="#DejaVuSans-Bold-52" transform="translate(655.169922 0)"/>
     <use xlink:href="#DejaVuSans-Bold-41" transform="translate(732.171875 0)"/>
     <use xlink:href="#DejaVuSans-Bold-4d" transform="translate(809.564453 0)"/>
     <use xlink:href="#DejaVuSans-Bold-4f" transform="translate(909.076172 0)"/>
    </g>
   </g>
  </g>
  <g id="axes_2">
   <g id="patch_5">
    <path d="M 461.90961 272.342857 
L 702.966753 272.342857 
L 702.966753 118.942857 
L 461.90961 118.942857 
z
" clip-path="url(#p45fe72612a)" style="fill: #dc2626; opacity: 0.15; stroke: #dc2626; stroke-width: 2.5; stroke-linejoin: miter"/>
   </g>
   <g id="line2d_8">
    <defs>
     <path id="m4b0b1f6cfd" d="M 0 2.5 
C 0.663008 2.5 1.29895 2.236584 1.767767 1.767767 
C 2.236584 1.29895 2.5 0.663008 2.5 0 
C 2.5 -0.663008 2.236584 -1.29895 1.767767 -1.767767 
C 1.29895 -2.236584 0.663008 -2.5 0 -2.5 
C -0.663008 -2.5 -1.29895 -2.236584 -1.767767 -1.767767 
C -2.236584 -1.29895 -2.5 -0.663008 -2.5 0 
C -2.5 0.663008 -2.236584 1.29895 -1.767767 1.767767 
C -1.29895 2.236584 -0.663008 2.5 0 2.5 
z
" style="stroke: #dc2626"/>
    </defs>
    <g clip-path="url(#p45fe72612a)">
     <use xlink:href="#m4b0b1f6cfd" x="461.90961" y="272.342857" style="fill: #dc2626; stroke: #dc2626"/>
    </g>
   </g>
   <g id="line2d_9">
    <g clip-path="url(#p45fe72612a)">
     <use xlink:href="#m4b0b1f6cfd" x="702.966753" y="272.342857" style="fill: #dc2626; stroke: #dc2626"/>
    </g>
   </g>
   <g id="line2d_10">
    <g clip-path="url(#p45fe72612a)">
     <use xlink:href="#m4b0b1f6cfd" x="702.966753" y="118.942857" style="fill: #dc2626; stroke: #dc2626"/>
    </g>
   </g>
   <g id="line2d_11">
    <g clip-path="url(#p45fe72612a)">
     <use xlink:href="#m4b0b1f6cfd" x="461.90961" y="118.942857" style="fill: #dc2626; stroke: #dc2626"/>
    </g>
   </g>
   <g id="line2d_12">
    <path d="M 461.90961 272.342857 
L 702.966753 118.942857 
" clip-path="url(#p45fe72612a)" style="fill: none; stroke-dasharray: 5.55,2.4; stroke-dashoffset: 0; stroke: #dc2626; stroke-opacity: 0.8; stroke-width: 1.5"/>
   </g>
   <g id="line2d_13">
    <path d="M 702.966753 272.342857 
L 461.90961 118.942857 
" clip-path="url(#p45fe72612a)" style="fill: none; stroke-dasharray: 5.55,2.4; stroke-dashoffset: 0; stroke: #059669; stroke-opacity: 0.8; stroke-width: 1.5"/>
   </g>
   <g id="line2d_14">
    <g clip-path="url(#p45fe72612a)">
     <use xlink:href="#m1f38a9367f" x="582.438182" y="195.642857" style="fill: #374151; stroke: #374151"/>
    </g>
   </g>
   <g id="line2d_15">
    <path d="M 478.345325 272.342857 
L 478.345325 255.907143 
L 461.90961 255.907143 
" clip-path="url(#p45fe72612a)" style="fill: none; stroke: #dc2626; stroke-linecap: square"/>
   </g>
   <g id="line2d_16">
    <path d="M 686.531039 272.342857 
L 686.531039 255.907143 
L 702.966753 255.907143 
" clip-path="url(#p45fe72612a)" style="fill: none; stroke: #dc2626; stroke-linecap: square"/>
   </g>
   <g id="line2d_17">
    <path d="M 686.531039 118.942857 
L 686.531039 135.378571 
L 702.966753 135.378571 
" clip-path="url(#p45fe72612a)" style="fill: none; stroke: #dc2626; stroke-linecap: square"/>
   </g>
   <g id="line2d_18">
    <path d="M 478.345325 118.942857 
L 478.345325 135.378571 
L 461.90961 135.378571 
" clip-path="url(#p45fe72612a)" style="fill: none; stroke: #dc2626; stroke-linecap: square"/>
   </g>
   <g id="text_3">
    <!-- • 4 ángulos rectos -->
    <g style="fill: #4b5563" transform="translate(541.110604 306.093397) scale(0.09 -0.09)">
     <defs>
      <path id="DejaVuSans-34" d="M 2419 4116 
L 825 1625 
L 2419 1625 
L 2419 4116 
z
M 2253 4666 
L 3047 4666 
L 3047 1625 
L 3713 1625 
L 3713 1100 
L 3047 1100 
L 3047 0 
L 2419 0 
L 2419 1100 
L 313 1100 
L 313 1709 
L 2253 4666 
z
" transform="scale(0.015625)"/>
      <path id="DejaVuSans-e1" d="M 2194 1759 
Q 1497 1759 1228 1600 
Q 959 1441 959 1056 
Q 959 750 1161 570 
Q 1363 391 1709 391 
Q 2188 391 2477 730 
Q 2766 1069 2766 1631 
L 2766 1759 
L 2194 1759 
z
M 3341 1997 
L 3341 0 
L 2766 0 
L 2766 531 
Q 2569 213 2275 61 
Q 1981 -91 1556 -91 
Q 1019 -91 701 211 
Q 384 513 384 1019 
Q 384 1609 779 1909 
Q 1175 2209 1959 2209 
L 2766 2209 
L 2766 2266 
Q 2766 2663 2505 2880 
Q 2244 3097 1772 3097 
Q 1472 3097 1187 3025 
Q 903 2953 641 2809 
L 641 3341 
Q 956 3463 1253 3523 
Q 1550 3584 1831 3584 
Q 2591 3584 2966 3190 
Q 3341 2797 3341 1997 
z
M 2290 5119 
L 2912 5119 
L 1894 3944 
L 1415 3944 
L 2290 5119 
z
" transform="scale(0.015625)"/>
     </defs>
     <use xlink:href="#DejaVuSans-2022"/>
     <use xlink:href="#DejaVuSans-20" transform="translate(58.984375 0)"/>
     <use xlink:href="#DejaVuSans-34" transform="translate(90.771484 0)"/>
     <use xlink:href="#DejaVuSans-20" transform="translate(154.394531 0)"/>
     <use xlink:href="#DejaVuSans-e1" transform="translate(186.181641 0)"/>
     <use xlink:href="#DejaVuSans-6e" transform="translate(247.460938 0)"/>
     <use xlink:href="#DejaVuSans-67" transform="translate(310.839844 0)"/>
     <use xlink:href="#DejaVuSans-75" transform="translate(374.316406 0)"/>
     <use xlink:href="#DejaVuSans-6c" transform="translate(437.695312 0)"/>
     <use xlink:href="#DejaVuSans-6f" transform="translate(465.478516 0)"/>
     <use xlink:href="#DejaVuSans-73" transform="translate(526.660156 0)"/>
     <use xlink:href="#DejaVuSans-20" transform="translate(578.759766 0)"/>
     <use xlink:href="#DejaVuSans-72" transform="translate(610.546875 0)"/>
     <use xlink:href="#DejaVuSans-65" transform="translate(649.410156 0)"/>
     <use xlink:href="#DejaVuSans-63" transform="translate(710.933594 0)"/>
     <use xlink:href="#DejaVuSans-74" transform="translate(765.914062 0)"/>
     <use xlink:href="#DejaVuSans-6f" transform="translate(805.123047 0)"/>
     <use xlink:href="#DejaVuSans-73" transform="translate(866.304688 0)"/>
    </g>
    <!-- • Diagonales iguales -->
    <g style="fill: #4b5563" transform="translate(535.787947 316.171429) scale(0.09 -0.09)">
     <use xlink:href="#DejaVuSans-2022"/>
     <use xlink:href="#DejaVuSans-20" transform="translate(58.984375 0)"/>
     <use xlink:href="#DejaVuSans-44" transform="translate(90.771484 0)"/>
     <use xlink:href="#DejaVuSans-69" transform="translate(167.773438 0)"/>
     <use xlink:href="#DejaVuSans-61" transform="translate(195.556641 0)"/>
     <use xlink:href="#DejaVuSans-67" transform="translate(256.835938 0)"/>
     <use xlink:href="#DejaVuSans-6f" transform="translate(320.3125 0)"/>
     <use xlink:href="#DejaVuSans-6e" transform="translate(381.494141 0)"/>
     <use xlink:href="#DejaVuSans-61" transform="translate(444.873047 0)"/>
     <use xlink:href="#DejaVuSans-6c" transform="translate(506.152344 0)"/>
     <use xlink:href="#DejaVuSans-65" transform="translate(533.935547 0)"/>
     <use xlink:href="#DejaVuSans-73" transform="translate(595.458984 0)"/>
     <use xlink:href="#DejaVuSans-20" transform="translate(647.558594 0)"/>
     <use xlink:href="#DejaVuSans-69" transform="translate(679.345703 0)"/>
     <use xlink:href="#DejaVuSans-67" transform="translate(707.128906 0)"/>
     <use xlink:href="#DejaVuSans-75" transform="translate(770.605469 0)"/>
     <use xlink:href="#DejaVuSans-61" transform="translate(833.984375 0)"/>
     <use xlink:href="#DejaVuSans-6c" transform="translate(895.263672 0)"/>
     <use xlink:href="#DejaVuSans-65" transform="translate(923.046875 0)"/>
     <use xlink:href="#DejaVuSans-73" transform="translate(984.570312 0)"/>
    </g>
   </g>
   <g id="text_4">
    <!-- RECTÁNGULO -->
    <g style="fill: #1f2937" transform="translate(564.912601 43.2) scale(0.12 -0.12)">
     <defs>
      <path id="DejaVuSans-Bold-43" d="M 4288 256 
Q 3956 84 3597 -3 
Q 3238 -91 2847 -91 
Q 1681 -91 1000 561 
Q 319 1213 319 2328 
Q 319 3447 1000 4098 
Q 1681 4750 2847 4750 
Q 3238 4750 3597 4662 
Q 3956 4575 4288 4403 
L 4288 3438 
Q 3953 3666 3628 3772 
Q 3303 3878 2944 3878 
Q 2300 3878 1931 3465 
Q 1563 3053 1563 2328 
Q 1563 1606 1931 1193 
Q 2300 781 2944 781 
Q 3303 781 3628 887 
Q 3953 994 4288 1222 
L 4288 256 
z
" transform="scale(0.015625)"/>
      <path id="DejaVuSans-Bold-54" d="M 31 4666 
L 4331 4666 
L 4331 3756 
L 2784 3756 
L 2784 0 
L 1581 0 
L 1581 3756 
L 31 3756 
L 31 4666 
z
" transform="scale(0.015625)"/>
      <path id="DejaVuSans-Bold-c1" d="M 3419 850 
L 1538 850 
L 1241 0 
L 31 0 
L 1759 4666 
L 3194 4666 
L 4922 0 
L 3713 0 
L 3419 850 
z
M 1838 1716 
L 3116 1716 
L 2478 3572 
L 1838 1716 
z
M 2559 5921 
L 3444 5921 
L 2553 5096 
L 1941 5096 
L 2559 5921 
z
" transform="scale(0.015625)"/>
      <path id="DejaVuSans-Bold-4e" d="M 588 4666 
L 1931 4666 
L 3628 1466 
L 3628 4666 
L 4769 4666 
L 4769 0 
L 3425 0 
L 1728 3200 
L 1728 0 
L 588 0 
L 588 4666 
z
" transform="scale(0.015625)"/>
      <path id="DejaVuSans-Bold-55" d="M 588 4666 
L 1791 4666 
L 1791 1869 
Q 1791 1291 1980 1042 
Q 2169 794 2597 794 
Q 3028 794 3217 1042 
Q 3406 1291 3406 1869 
L 3406 4666 
L 4609 4666 
L 4609 1869 
Q 4609 878 4112 393 
Q 3616 -91 2597 -91 
Q 1581 -91 1084 393 
Q 588 878 588 1869 
L 588 4666 
z
" transform="scale(0.015625)"/>
     </defs>
     <use xlink:href="#DejaVuSans-Bold-52"/>
     <use xlink:href="#DejaVuSans-Bold-45" transform="translate(77.001953 0)"/>
     <use xlink:href="#DejaVuSans-Bold-43" transform="translate(145.3125 0)"/>
     <use xlink:href="#DejaVuSans-Bold-54" transform="translate(218.701172 0)"/>
     <use xlink:href="#DejaVuSans-Bold-c1" transform="translate(279.164062 0)"/>
     <use xlink:href="#DejaVuSans-Bold-4e" transform="translate(356.556641 0)"/>
     <use xlink:href="#DejaVuSans-Bold-47" transform="translate(440.248047 0)"/>
     <use xlink:href="#DejaVuSans-Bold-55" transform="translate(522.328125 0)"/>
     <use xlink:href="#DejaVuSans-Bold-4c" transform="translate(603.529297 0)"/>
     <use xlink:href="#DejaVuSans-Bold-4f" transform="translate(663.625 0)"/>
    </g>
   </g>
  </g>
  <g id="axes_3">
   <g id="patch_6">
    <path d="M 171.557143 612.182857 
L 281.128571 524.525714 
L 171.557143 436.868571 
L 61.985714 524.525714 
z
" clip-path="url(#p0d865b3e9c)" style="fill: #059669; opacity: 0.15; stroke: #059669; stroke-width: 2.5; stroke-linejoin: miter"/>
   </g>
   <g id="line2d_19">
    <defs>
     <path id="m035b3db926" d="M 0 2.5 
C 0.663008 2.5 1.29895 2.236584 1.767767 1.767767 
C 2.236584 1.29895 2.5 0.663008 2.5 0 
C 2.5 -0.663008 2.236584 -1.29895 1.767767 -1.767767 
C 1.29895 -2.236584 0.663008 -2.5 0 -2.5 
C -0.663008 -2.5 -1.29895 -2.236584 -1.767767 -1.767767 
C -2.236584 -1.29895 -2.5 -0.663008 -2.5 0 
C -2.5 0.663008 -2.236584 1.29895 -1.767767 1.767767 
C -1.29895 2.236584 -0.663008 2.5 0 2.5 
z
" style="stroke: #059669"/>
    </defs>
    <g clip-path="url(#p0d865b3e9c)">
     <use xlink:href="#m035b3db926" x="171.557143" y="612.182857" style="fill: #059669; stroke: #059669"/>
    </g>
   </g>
   <g id="line2d_20">
    <g clip-path="url(#p0d865b3e9c)">
     <use xlink:href="#m035b3db926" x="281.128571" y="524.525714" style="fill: #059669; stroke: #059669"/>
    </g>
   </g>
   <g id="line2d_21">
    <g clip-path="url(#p0d865b3e9c)">
     <use xlink:href="#m035b3db926" x="171.557143" y="436.868571" style="fill: #059669; stroke: #059669"/>
    </g>
   </g>
   <g id="line2d_22">
    <g clip-path="url(#p0d865b3e9c)">
     <use xlink:href="#m035b3db926" x="61.985714" y="524.525714" style="fill: #059669; stroke: #059669"/>
    </g>
   </g>
   <g id="line2d_23">
    <path d="M 171.557143 612.182857 
L 171.557143 436.868571 
" clip-path="url(#p0d865b3e9c)" style="fill: none; stroke-dasharray: 5.55,2.4; stroke-dashoffset: 0; stroke: #dc2626; stroke-opacity: 0.8; stroke-width: 1.5"/>
   </g>
   <g id="line2d_24">
    <path d="M 281.128571 524.525714 
L 61.985714 524.525714 
" clip-path="url(#p0d865b3e9c)" style="fill: none; stroke-dasharray: 5.55,2.4; stroke-dashoffset: 0; stroke: #059669; stroke-opacity: 0.8; stroke-width: 1.5"/>
   </g>
   <g id="line2d_25">
    <g clip-path="url(#p0d865b3e9c)">
     <use xlink:href="#m1f38a9367f" x="171.557143" y="524.525714" style="fill: #374151; stroke: #374151"/>
    </g>
   </g>
   <g id="line2d_26">
    <path d="M 158.408571 524.525714 
L 171.557143 524.525714 
L 171.557143 511.377143 
" clip-path="url(#p0d865b3e9c)" style="fill: none; stroke: #374151; stroke-linecap: square"/>
   </g>
   <g id="line2d_27">
    <defs>
     <path id="mcc1a290fda" d="M 0 4 
L 0 -4 
" style="stroke: #059669; stroke-width: 2"/>
    </defs>
    <g clip-path="url(#p0d865b3e9c)">
     <use xlink:href="#mcc1a290fda" x="226.342857" y="568.354286" style="fill: #059669; stroke: #059669; stroke-width: 2"/>
    </g>
   </g>
   <g id="line2d_28">
    <g clip-path="url(#p0d865b3e9c)">
     <use xlink:href="#mcc1a290fda" x="226.342857" y="480.697143" style="fill: #059669; stroke: #059669; stroke-width: 2"/>
    </g>
   </g>
   <g id="line2d_29">
    <g clip-path="url(#p0d865b3e9c)">
     <use xlink:href="#mcc1a290fda" x="116.771429" y="480.697143" style="fill: #059669; stroke: #059669; stroke-width: 2"/>
    </g>
   </g>
   <g id="line2d_30">
    <g clip-path="url(#p0d865b3e9c)">
     <use xlink:href="#mcc1a290fda" x="116.771429" y="568.354286" style="fill: #059669; stroke: #059669; stroke-width: 2"/>
    </g>
   </g>
   <g id="text_5">
    <!-- • 4 lados iguales -->
    <g style="fill: #4b5563" transform="translate(133.707221 645.933397) scale(0.09 -0.09)">
     <use xlink:href="#DejaVuSans-2022"/>
     <use xlink:href="#DejaVuSans-20" transform="translate(58.984375 0)"/>
     <use xlink:href="#DejaVuSans-34" transform="translate(90.771484 0)"/>
     <use xlink:href="#DejaVuSans-20" transform="translate(154.394531 0)"/>
     <use xlink:href="#DejaVuSans-6c" transform="translate(186.181641 0)"/>
     <use xlink:href="#DejaVuSans-61" transform="translate(213.964844 0)"/>
     <use xlink:href="#DejaVuSans-64" transform="translate(275.244141 0)"/>
     <use xlink:href="#DejaVuSans-6f" transform="translate(338.720703 0)"/>
     <use xlink:href="#DejaVuSans-73" transform="translate(399.902344 0)"/>
     <use xlink:href="#DejaVuSans-20" transform="translate(452.001953 0)"/>
     <use xlink:href="#DejaVuSans-69" transform="translate(483.789062 0)"/>
     <use xlink:href="#DejaVuSans-67" transform="translate(511.572266 0)"/>
     <use xlink:href="#DejaVuSans-75" transform="translate(575.048828 0)"/>
     <use xlink:href="#DejaVuSans-61" transform="translate(638.427734 0)"/>
     <use xlink:href="#DejaVuSans-6c" transform="translate(699.707031 0)"/>
     <use xlink:href="#DejaVuSans-65" transform="translate(727.490234 0)"/>
     <use xlink:href="#DejaVuSans-73" transform="translate(789.013672 0)"/>
    </g>
    <!-- • Diagonales perpendiculares -->
    <g style="fill: #4b5563" transform="translate(104.730737 656.011429) scale(0.09 -0.09)">
     <use xlink:href="#DejaVuSans-2022"/>
     <use xlink:href="#DejaVuSans-20" transform="translate(58.984375 0)"/>
     <use xlink:href="#DejaVuSans-44" transform="translate(90.771484 0)"/>
     <use xlink:href="#DejaVuSans-69" transform="translate(167.773438 0)"/>
     <use xlink:href="#DejaVuSans-61" transform="translate(195.556641 0)"/>
     <use xlink:href="#DejaVuSans-67" transform="translate(256.835938 0)"/>
     <use xlink:href="#DejaVuSans-6f" transform="translate(320.3125 0)"/>
     <use xlink:href="#DejaVuSans-6e" transform="translate(381.494141 0)"/>
     <use xlink:href="#DejaVuSans-61" transform="translate(444.873047 0)"/>
     <use xlink:href="#DejaVuSans-6c" transform="translate(506.152344 0)"/>
     <use xlink:href="#DejaVuSans-65" transform="translate(533.935547 0)"/>
     <use xlink:href="#DejaVuSans-73" transform="translate(595.458984 0)"/>
     <use xlink:href="#DejaVuSans-20" transform="translate(647.558594 0)"/>
     <use xlink:href="#DejaVuSans-70" transform="translate(679.345703 0)"/>
     <use xlink:href="#DejaVuSans-65" transform="translate(742.822266 0)"/>
     <use xlink:href="#DejaVuSans-72" transform="translate(804.345703 0)"/>
     <use xlink:href="#DejaVuSans-70" transform="translate(845.458984 0)"/>
     <use xlink:href="#DejaVuSans-65" transform="translate(908.935547 0)"/>
     <use xlink:href="#DejaVuSans-6e" transform="translate(970.458984 0)"/>
     <use xlink:href="#DejaVuSans-64" transform="translate(1033.837891 0)"/>
     <use xlink:href="#DejaVuSans-69" transform="translate(1097.314453 0)"/>
     <use xlink:href="#DejaVuSans-63" transform="translate(1125.097656 0)"/>
     <use xlink:href="#DejaVuSans-75" transform="translate(1180.078125 0)"/>
     <use xlink:href="#DejaVuSans-6c" transform="translate(1243.457031 0)"/>
     <use xlink:href="#DejaVuSans-61" transform="translate(1271.240234 0)"/>
     <use xlink:href="#DejaVuSans-72" transform="translate(1332.519531 0)"/>
     <use xlink:href="#DejaVuSans-65" transform="translate(1371.382812 0)"/>
     <use xlink:href="#DejaVuSans-73" transform="translate(1432.90625 0)"/>
    </g>
   </g>
   <g id="text_6">
    <!-- ROMBO -->
    <g style="fill: #1f2937" transform="translate(162.62692 383.04) scale(0.12 -0.12)">
     <defs>
      <path id="DejaVuSans-Bold-42" d="M 2456 2859 
Q 2741 2859 2887 2984 
Q 3034 3109 3034 3353 
Q 3034 3594 2887 3720 
Q 2741 3847 2456 3847 
L 1791 3847 
L 1791 2859 
L 2456 2859 
z
M 2497 819 
Q 2859 819 3042 972 
Q 3225 1125 3225 1434 
Q 3225 1738 3044 1889 
Q 2863 2041 2497 2041 
L 1791 2041 
L 1791 819 
L 2497 819 
z
M 3616 2497 
Q 4003 2384 4215 2081 
Q 4428 1778 4428 1338 
Q 4428 663 3972 331 
Q 3516 0 2584 0 
L 588 0 
L 588 4666 
L 2394 4666 
Q 3366 4666 3802 4372 
Q 4238 4078 4238 3431 
Q 4238 3091 4078 2852 
Q 3919 2613 3616 2497 
z
" transform="scale(0.015625)"/>
     </defs>
     <use xlink:href="#DejaVuSans-Bold-52"/>
     <use xlink:href="#DejaVuSans-Bold-4f" transform="translate(77.001953 0)"/>
     <use xlink:href="#DejaVuSans-Bold-4d" transform="translate(162.011719 0)"/>
     <use xlink:href="#DejaVuSans-Bold-42" transform="translate(261.523438 0)"/>
     <use xlink:href="#DejaVuSans-Bold-4f" transform="translate(337.744141 0)"/>
    </g>
   </g>
  </g>
  <g id="axes_4">
   <g id="patch_7">
    <path d="M 494.781039 612.182857 
L 659.138182 612.182857 
L 659.138182 447.825714 
L 494.781039 447.825714 
z
" clip-path="url(#pca4a8a05e0)" style="fill: #7c3aed; opacity: 0.15; stroke: #7c3aed; stroke-width: 2.5; stroke-linejoin: miter"/>
   </g>
   <g id="line2d_31">
    <defs>
     <path id="m2f07ab10fc" d="M 0 2.5 
C 0.663008 2.5 1.29895 2.236584 1.767767 1.767767 
C 2.236584 1.29895 2.5 0.663008 2.5 0 
C 2.5 -0.663008 2.236584 -1.29895 1.767767 -1.767767 
C 1.29895 -2.236584 0.663008 -2.5 0 -2.5 
C -0.663008 -2.5 -1.29895 -2.236584 -1.767767 -1.767767 
C -2.236584 -1.29895 -2.5 -0.663008 -2.5 0 
C -2.5 0.663008 -2.236584 1.29895 -1.767767 1.767767 
C -1.29895 2.236584 -0.663008 2.5 0 2.5 
z
" style="stroke: #7c3aed"/>
    </defs>
    <g clip-path="url(#pca4a8a05e0)">
     <use xlink:href="#m2f07ab10fc" x="494.781039" y="612.182857" style="fill: #7c3aed; stroke: #7c3aed"/>
    </g>
   </g>
   <g id="line2d_32">
    <g clip-path="url(#pca4a8a05e0)">
     <use xlink:href="#m2f07ab10fc" x="659.138182" y="612.182857" style="fill: #7c3aed; stroke: #7c3aed"/>
    </g>
   </g>
   <g id="line2d_33">
    <g clip-path="url(#pca4a8a05e0)">
     <use xlink:href="#m2f07ab10fc" x="659.138182" y="447.825714" style="fill: #7c3aed; stroke: #7c3aed"/>
    </g>
   </g>
   <g id="line2d_34">
    <g clip-path="url(#pca4a8a05e0)">
     <use xlink:href="#m2f07ab10fc" x="494.781039" y="447.825714" style="fill: #7c3aed; stroke: #7c3aed"/>
    </g>
   </g>
   <g id="line2d_35">
    <path d="M 494.781039 612.182857 
L 659.138182 447.825714 
" clip-path="url(#pca4a8a05e0)" style="fill: none; stroke-dasharray: 5.55,2.4; stroke-dashoffset: 0; stroke: #dc2626; stroke-opacity: 0.8; stroke-width: 1.5"/>
   </g>
   <g id="line2d_36">
    <path d="M 659.138182 612.182857 
L 494.781039 447.825714 
" clip-path="url(#pca4a8a05e0)" style="fill: none; stroke-dasharray: 5.55,2.4; stroke-dashoffset: 0; stroke: #059669; stroke-opacity: 0.8; stroke-width: 1.5"/>
   </g>
   <g id="line2d_37">
    <g clip-path="url(#pca4a8a05e0)">
     <use xlink:href="#m1f38a9367f" x="576.95961" y="530.004286" style="fill: #374151; stroke: #374151"/>
    </g>
   </g>
   <g id="line2d_38">
    <path d="M 563.811039 530.004286 
L 576.95961 530.004286 
L 576.95961 516.855714 
" clip-path="url(#pca4a8a05e0)" style="fill: none; stroke: #374151; stroke-linecap: square"/>
   </g>
   <g id="line2d_39">
    <path d="M 511.216753 612.182857 
L 511.216753 595.747143 
L 494.781039 595.747143 
" clip-path="url(#pca4a8a05e0)" style="fill: none; stroke: #7c3aed; stroke-linecap: square"/>
   </g>
   <g id="line2d_40">
    <path d="M 642.702468 612.182857 
L 642.702468 595.747143 
L 659.138182 595.747143 
" clip-path="url(#pca4a8a05e0)" style="fill: none; stroke: #7c3aed; stroke-linecap: square"/>
   </g>
   <g id="line2d_41">
    <path d="M 642.702468 447.825714 
L 642.702468 464.261429 
L 659.138182 464.261429 
" clip-path="url(#pca4a8a05e0)" style="fill: none; stroke: #7c3aed; stroke-linecap: square"/>
   </g>
   <g id="line2d_42">
    <path d="M 511.216753 447.825714 
L 511.216753 464.261429 
L 494.781039 464.261429 
" clip-path="url(#pca4a8a05e0)" style="fill: none; stroke: #7c3aed; stroke-linecap: square"/>
   </g>
   <g id="text_7">
    <!-- • 4 lados iguales + 4 ángulos rectos -->
    <g style="fill: #4b5563" transform="translate(495.235392 645.933397) scale(0.09 -0.09)">
     <defs>
      <path id="DejaVuSans-2b" d="M 2944 4013 
L 2944 2272 
L 4684 2272 
L 4684 1741 
L 2944 1741 
L 2944 0 
L 2419 0 
L 2419 1741 
L 678 1741 
L 678 2272 
L 2419 2272 
L 2419 4013 
L 2944 4013 
z
" transform="scale(0.015625)"/>
     </defs>
     <use xlink:href="#DejaVuSans-2022"/>
     <use xlink:href="#DejaVuSans-20" transform="translate(58.984375 0)"/>
     <use xlink:href="#DejaVuSans-34" transform="translate(90.771484 0)"/>
     <use xlink:href="#DejaVuSans-20" transform="translate(154.394531 0)"/>
     <use xlink:href="#DejaVuSans-6c" transform="translate(186.181641 0)"/>
     <use xlink:href="#DejaVuSans-61" transform="translate(213.964844 0)"/>
     <use xlink:href="#DejaVuSans-64" transform="translate(275.244141 0)"/>
     <use xlink:href="#DejaVuSans-6f" transform="translate(338.720703 0)"/>
     <use xlink:href="#DejaVuSans-73" transform="translate(399.902344 0)"/>
     <use xlink:href="#DejaVuSans-20" transform="translate(452.001953 0)"/>
     <use xlink:href="#DejaVuSans-69" transform="translate(483.789062 0)"/>
     <use xlink:href="#DejaVuSans-67" transform="translate(511.572266 0)"/>
     <use xlink:href="#DejaVuSans-75" transform="translate(575.048828 0)"/>
     <use xlink:href="#DejaVuSans-61" transform="translate(638.427734 0)"/>
     <use xlink:href="#DejaVuSans-6c" transform="translate(699.707031 0)"/>
     <use xlink:href="#DejaVuSans-65" transform="translate(727.490234 0)"/>
     <use xlink:href="#DejaVuSans-73" transform="translate(789.013672 0)"/>
     <use xlink:href="#DejaVuSans-20" transform="translate(841.113281 0)"/>
     <use xlink:href="#DejaVuSans-2b" transform="translate(872.900391 0)"/>
     <use xlink:href="#DejaVuSans-20" transform="translate(956.689453 0)"/>
     <use xlink:href="#DejaVuSans-34" transform="translate(988.476562 0)"/>
     <use xlink:href="#DejaVuSans-20" transform="translate(1052.099609 0)"/>
     <use xlink:href="#DejaVuSans-e1" transform="translate(1083.886719 0)"/>
     <use xlink:href="#DejaVuSans-6e" transform="translate(1145.166016 0)"/>
     <use xlink:href="#DejaVuSans-67" transform="translate(1208.544922 0)"/>
     <use xlink:href="#DejaVuSans-75" transform="translate(1272.021484 0)"/>
     <use xlink:href="#DejaVuSans-6c" transform="translate(1335.400391 0)"/>
     <use xlink:href="#DejaVuSans-6f" transform="translate(1363.183594 0)"/>
     <use xlink:href="#DejaVuSans-73" transform="translate(1424.365234 0)"/>
     <use xlink:href="#DejaVuSans-20" transform="translate(1476.464844 0)"/>
     <use xlink:href="#DejaVuSans-72" transform="translate(1508.251953 0)"/>
     <use xlink:href="#DejaVuSans-65" transform="translate(1547.115234 0)"/>
     <use xlink:href="#DejaVuSans-63" transform="translate(1608.638672 0)"/>
     <use xlink:href="#DejaVuSans-74" transform="translate(1663.619141 0)"/>
     <use xlink:href="#DejaVuSans-6f" transform="translate(1702.828125 0)"/>
     <use xlink:href="#DejaVuSans-73" transform="translate(1764.009766 0)"/>
    </g>
    <!-- • Diagonales iguales y perpendiculares -->
    <g style="fill: #4b5563" transform="translate(488.529689 656.011429) scale(0.09 -0.09)">
     <defs>
      <path id="DejaVuSans-79" d="M 2059 -325 
Q 1816 -950 1584 -1140 
Q 1353 -1331 966 -1331 
L 506 -1331 
L 506 -850 
L 844 -850 
Q 1081 -850 1212 -737 
Q 1344 -625 1503 -206 
L 1606 56 
L 191 3500 
L 800 3500 
L 1894 763 
L 2988 3500 
L 3597 3500 
L 2059 -325 
z
" transform="scale(0.015625)"/>
     </defs>
     <use xlink:href="#DejaVuSans-2022"/>
     <use xlink:href="#DejaVuSans-20" transform="translate(58.984375 0)"/>
     <use xlink:href="#DejaVuSans-44" transform="translate(90.771484 0)"/>
     <use xlink:href="#DejaVuSans-69" transform="translate(167.773438 0)"/>
     <use xlink:href="#DejaVuSans-61" transform="translate(195.556641 0)"/>
     <use xlink:href="#DejaVuSans-67" transform="translate(256.835938 0)"/>
     <use xlink:href="#DejaVuSans-6f" transform="translate(320.3125 0)"/>
     <use xlink:href="#DejaVuSans-6e" transform="translate(381.494141 0)"/>
     <use xlink:href="#DejaVuSans-61" transform="translate(444.873047 0)"/>
     <use xlink:href="#DejaVuSans-6c" transform="translate(506.152344 0)"/>
     <use xlink:href="#DejaVuSans-65" transform="translate(533.935547 0)"/>
     <use xlink:href="#DejaVuSans-73" transform="translate(595.458984 0)"/>
     <use xlink:href="#DejaVuSans-20" transform="translate(647.558594 0)"/>
     <use xlink:href="#DejaVuSans-69" transform="translate(679.345703 0)"/>
     <use xlink:href="#DejaVuSans-67" transform="translate(707.128906 0)"/>
     <use xlink:href="#DejaVuSans-75" transform="translate(770.605469 0)"/>
     <use xlink:href="#DejaVuSans-61" transform="translate(833.984375 0)"/>
     <use xlink:href="#DejaVuSans-6c" transform="translate(895.263672 0)"/>
     <use xlink:href="#DejaVuSans-65" transform="translate(923.046875 0)"/>
     <use xlink:href="#DejaVuSans-73" transform="translate(984.570312 0)"/>
     <use xlink:href="#DejaVuSans-20" transform="translate(1036.669922 0)"/>
     <use xlink:href="#DejaVuSans-79" transform="translate(1068.457031 0)"/>
     <use xlink:href="#DejaVuSans-20" transform="translate(1127.636719 0)"/>
     <use xlink:href="#DejaVuSans-70" transform="translate(1159.423828 0)"/>
     <use xlink:href="#DejaVuSans-65" transform="translate(1222.900391 0)"/>
     <use xlink:href="#DejaVuSans-72" transform="translate(1284.423828 0)"/>
     <use xlink:href="#DejaVuSans-70" transform="translate(1325.537109 0)"/>
     <use xlink:href="#DejaVuSans-65" transform="translate(1389.013672 0)"/>
     <use xlink:href="#DejaVuSans-6e" transform="translate(1450.537109 0)"/>
     <use xlink:href="#DejaVuSans-64" transform="translate(1513.916016 0)"/>
     <use xlink:href="#DejaVuSans-69" transform="translate(1577.392578 0)"/>
     <use xlink:href="#DejaVuSans-63" transform="translate(1605.175781 0)"/>
     <use xlink:href="#DejaVuSans-75" transform="translate(1660.15625 0)"/>
     <use xlink:href="#DejaVuSans-6c" transform="translate(1723.535156 0)"/>
     <use xlink:href="#DejaVuSans-61" transform="translate(1751.318359 0)"/>
     <use xlink:href="#DejaVuSans-72" transform="translate(1812.597656 0)"/>
     <use xlink:href="#DejaVuSans-65" transform="translate(1851.460938 0)"/>
     <use xlink:href="#DejaVuSans-73" transform="translate(1912.984375 0)"/>
    </g>
   </g>
   <g id="text_8">
    <!-- CUADRADO -->
    <g style="fill: #1f2937" transform="translate(571.773226 383.04) scale(0.12 -0.12)">
     <defs>
      <path id="DejaVuSans-Bold-44" d="M 1791 3756 
L 1791 909 
L 2222 909 
Q 2959 909 3348 1275 
Q 3738 1641 3738 2338 
Q 3738 3031 3350 3393 
Q 2963 3756 2222 3756 
L 1791 3756 
z
M 588 4666 
L 1856 4666 
Q 2919 4666 3439 4514 
Q 3959 4363 4331 4000 
Q 4659 3684 4818 3271 
Q 4978 2859 4978 2338 
Q 4978 1809 4818 1395 
Q 4659 981 4331 666 
Q 3956 303 3431 151 
Q 2906 0 1856 0 
L 588 0 
L 588 4666 
z
" transform="scale(0.015625)"/>
     </defs>
     <use xlink:href="#DejaVuSans-Bold-43"/>
     <use xlink:href="#DejaVuSans-Bold-55" transform="translate(73.388672 0)"/>
     <use xlink:href="#DejaVuSans-Bold-41" transform="translate(151.464844 0)"/>
     <use xlink:href="#DejaVuSans-Bold-44" transform="translate(228.857422 0)"/>
     <use xlink:href="#DejaVuSans-Bold-52" transform="translate(311.865234 0)"/>
     <use xlink:href="#DejaVuSans-Bold-41" transform="translate(388.867188 0)"/>
     <use xlink:href="#DejaVuSans-Bold-44" transform="translate(466.259766 0)"/>
     <use xlink:href="#DejaVuSans-Bold-4f" transform="translate(549.267578 0)"/>
    </g>
   </g>
  </g>
  <g id="text_9">
   <!-- Propiedades de Cuadriláteros Especiales -->
   <g style="fill: #1f2937" transform="translate(237.989604 18.397812) scale(0.14 -0.14)">
    <defs>
     <path id="DejaVuSans-Bold-72" d="M 3138 2547 
Q 2991 2616 2845 2648 
Q 2700 2681 2553 2681 
Q 2122 2681 1889 2404 
Q 1656 2128 1656 1613 
L 1656 0 
L 538 0 
L 538 3500 
L 1656 3500 
L 1656 2925 
Q 1872 3269 2151 3426 
Q 2431 3584 2822 3584 
Q 2878 3584 2943 3579 
Q 3009 3575 3134 3559 
L 3138 2547 
z
" transform="scale(0.015625)"/>
     <path id="DejaVuSans-Bold-6f" d="M 2203 2784 
Q 1831 2784 1636 2517 
Q 1441 2250 1441 1747 
Q 1441 1244 1636 976 
Q 1831 709 2203 709 
Q 2569 709 2762 976 
Q 2956 1244 2956 1747 
Q 2956 2250 2762 2517 
Q 2569 2784 2203 2784 
z
M 2203 3584 
Q 3106 3584 3614 3096 
Q 4122 2609 4122 1747 
Q 4122 884 3614 396 
Q 3106 -91 2203 -91 
Q 1297 -91 786 396 
Q 275 884 275 1747 
Q 275 2609 786 3096 
Q 1297 3584 2203 3584 
z
" transform="scale(0.015625)"/>
     <path id="DejaVuSans-Bold-70" d="M 1656 506 
L 1656 -1331 
L 538 -1331 
L 538 3500 
L 1656 3500 
L 1656 2988 
Q 1888 3294 2169 3439 
Q 2450 3584 2816 3584 
Q 3463 3584 3878 3070 
Q 4294 2556 4294 1747 
Q 4294 938 3878 423 
Q 3463 -91 2816 -91 
Q 2450 -91 2169 54 
Q 1888 200 1656 506 
z
M 2400 2772 
Q 2041 2772 1848 2508 
Q 1656 2244 1656 1747 
Q 1656 1250 1848 986 
Q 2041 722 2400 722 
Q 2759 722 2948 984 
Q 3138 1247 3138 1747 
Q 3138 2247 2948 2509 
Q 2759 2772 2400 2772 
z
" transform="scale(0.015625)"/>
     <path id="DejaVuSans-Bold-69" d="M 538 3500 
L 1656 3500 
L 1656 0 
L 538 0 
L 538 3500 
z
M 538 4863 
L 1656 4863 
L 1656 3950 
L 538 3950 
L 538 4863 
z
" transform="scale(0.015625)"/>
     <path id="DejaVuSans-Bold-65" d="M 4031 1759 
L 4031 1441 
L 1416 1441 
Q 1456 1047 1700 850 
Q 1944 653 2381 653 
Q 2734 653 3104 758 
Q 3475 863 3866 1075 
L 3866 213 
Q 3469 63 3072 -14 
Q 2675 -91 2278 -91 
Q 1328 -91 801 392 
Q 275 875 275 1747 
Q 275 2603 792 3093 
Q 1309 3584 2216 3584 
Q 3041 3584 3536 3087 
Q 4031 2591 4031 1759 
z
M 2881 2131 
Q 2881 2450 2695 2645 
Q 2509 2841 2209 2841 
Q 1884 2841 1681 2658 
Q 1478 2475 1428 2131 
L 2881 2131 
z
" transform="scale(0.015625)"/>
     <path id="DejaVuSans-Bold-64" d="M 2919 2988 
L 2919 4863 
L 4044 4863 
L 4044 0 
L 2919 0 
L 2919 506 
Q 2688 197 2409 53 
Q 2131 -91 1766 -91 
Q 1119 -91 703 423 
Q 288 938 288 1747 
Q 288 2556 703 3070 
Q 1119 3584 1766 3584 
Q 2128 3584 2408 3439 
Q 2688 3294 2919 2988 
z
M 2181 722 
Q 2541 722 2730 984 
Q 2919 1247 2919 1747 
Q 2919 2247 2730 2509 
Q 2541 2772 2181 2772 
Q 1825 2772 1636 2509 
Q 1447 2247 1447 1747 
Q 1447 1247 1636 984 
Q 1825 722 2181 722 
z
" transform="scale(0.015625)"/>
     <path id="DejaVuSans-Bold-61" d="M 2106 1575 
Q 1756 1575 1579 1456 
Q 1403 1338 1403 1106 
Q 1403 894 1545 773 
Q 1688 653 1941 653 
Q 2256 653 2472 879 
Q 2688 1106 2688 1447 
L 2688 1575 
L 2106 1575 
z
M 3816 1997 
L 3816 0 
L 2688 0 
L 2688 519 
Q 2463 200 2181 54 
Q 1900 -91 1497 -91 
Q 953 -91 614 226 
Q 275 544 275 1050 
Q 275 1666 698 1953 
Q 1122 2241 2028 2241 
L 2688 2241 
L 2688 2328 
Q 2688 2594 2478 2717 
Q 2269 2841 1825 2841 
Q 1466 2841 1156 2769 
Q 847 2697 581 2553 
L 581 3406 
Q 941 3494 1303 3539 
Q 1666 3584 2028 3584 
Q 2975 3584 3395 3211 
Q 3816 2838 3816 1997 
z
" transform="scale(0.015625)"/>
     <path id="DejaVuSans-Bold-73" d="M 3272 3391 
L 3272 2541 
Q 2913 2691 2578 2766 
Q 2244 2841 1947 2841 
Q 1628 2841 1473 2761 
Q 1319 2681 1319 2516 
Q 1319 2381 1436 2309 
Q 1553 2238 1856 2203 
L 2053 2175 
Q 2913 2066 3209 1816 
Q 3506 1566 3506 1031 
Q 3506 472 3093 190 
Q 2681 -91 1863 -91 
Q 1516 -91 1145 -36 
Q 775 19 384 128 
L 384 978 
Q 719 816 1070 734 
Q 1422 653 1784 653 
Q 2113 653 2278 743 
Q 2444 834 2444 1013 
Q 2444 1163 2330 1236 
Q 2216 1309 1875 1350 
L 1678 1375 
Q 931 1469 631 1722 
Q 331 1975 331 2491 
Q 331 3047 712 3315 
Q 1094 3584 1881 3584 
Q 2191 3584 2531 3537 
Q 2872 3491 3272 3391 
z
" transform="scale(0.015625)"/>
     <path id="DejaVuSans-Bold-20" transform="scale(0.015625)"/>
     <path id="DejaVuSans-Bold-75" d="M 500 1363 
L 500 3500 
L 1625 3500 
L 1625 3150 
Q 1625 2866 1622 2436 
Q 1619 2006 1619 1863 
Q 1619 1441 1641 1255 
Q 1663 1069 1716 984 
Q 1784 875 1895 815 
Q 2006 756 2150 756 
Q 2500 756 2700 1025 
Q 2900 1294 2900 1772 
L 2900 3500 
L 4019 3500 
L 4019 0 
L 2900 0 
L 2900 506 
Q 2647 200 2364 54 
Q 2081 -91 1741 -91 
Q 1134 -91 817 281 
Q 500 653 500 1363 
z
" transform="scale(0.015625)"/>
     <path id="DejaVuSans-Bold-6c" d="M 538 4863 
L 1656 4863 
L 1656 0 
L 538 0 
L 538 4863 
z
" transform="scale(0.015625)"/>
     <path id="DejaVuSans-Bold-e1" d="M 2106 1575 
Q 1756 1575 1579 1456 
Q 1403 1338 1403 1106 
Q 1403 894 1545 773 
Q 1688 653 1941 653 
Q 2256 653 2472 879 
Q 2688 1106 2688 1447 
L 2688 1575 
L 2106 1575 
z
M 3816 1997 
L 3816 0 
L 2688 0 
L 2688 519 
Q 2463 200 2181 54 
Q 1900 -91 1497 -91 
Q 953 -91 614 226 
Q 275 544 275 1050 
Q 275 1666 698 1953 
Q 1122 2241 2028 2241 
L 2688 2241 
L 2688 2328 
Q 2688 2594 2478 2717 
Q 2269 2841 1825 2841 
Q 1466 2841 1156 2769 
Q 847 2697 581 2553 
L 581 3406 
Q 941 3494 1303 3539 
Q 1666 3584 2028 3584 
Q 2975 3584 3395 3211 
Q 3816 2838 3816 1997 
z
M 2606 5119 
L 3490 5119 
L 2337 3944 
L 1725 3944 
L 2606 5119 
z
" transform="scale(0.015625)"/>
     <path id="DejaVuSans-Bold-74" d="M 1759 4494 
L 1759 3500 
L 2913 3500 
L 2913 2700 
L 1759 2700 
L 1759 1216 
Q 1759 972 1856 886 
Q 1953 800 2241 800 
L 2816 800 
L 2816 0 
L 1856 0 
Q 1194 0 917 276 
Q 641 553 641 1216 
L 641 2700 
L 84 2700 
L 84 3500 
L 641 3500 
L 641 4494 
L 1759 4494 
z
" transform="scale(0.015625)"/>
     <path id="DejaVuSans-Bold-63" d="M 3366 3391 
L 3366 2478 
Q 3138 2634 2908 2709 
Q 2678 2784 2431 2784 
Q 1963 2784 1702 2511 
Q 1441 2238 1441 1747 
Q 1441 1256 1702 982 
Q 1963 709 2431 709 
Q 2694 709 2930 787 
Q 3166 866 3366 1019 
L 3366 103 
Q 3103 6 2833 -42 
Q 2563 -91 2291 -91 
Q 1344 -91 809 395 
Q 275 881 275 1747 
Q 275 2613 809 3098 
Q 1344 3584 2291 3584 
Q 2566 3584 2833 3536 
Q 3100 3488 3366 3391 
z
" transform="scale(0.015625)"/>
    </defs>
    <use xlink:href="#DejaVuSans-Bold-50"/>
    <use xlink:href="#DejaVuSans-Bold-72" transform="translate(73.291016 0)"/>
    <use xlink:href="#DejaVuSans-Bold-6f" transform="translate(122.607422 0)"/>
    <use xlink:href="#DejaVuSans-Bold-70" transform="translate(191.308594 0)"/>
    <use xlink:href="#DejaVuSans-Bold-69" transform="translate(262.890625 0)"/>
    <use xlink:href="#DejaVuSans-Bold-65" transform="translate(297.167969 0)"/>
    <use xlink:href="#DejaVuSans-Bold-64" transform="translate(364.990234 0)"/>
    <use xlink:href="#DejaVuSans-Bold-61" transform="translate(436.572266 0)"/>
    <use xlink:href="#DejaVuSans-Bold-64" transform="translate(504.052734 0)"/>
    <use xlink:href="#DejaVuSans-Bold-65" transform="translate(575.634766 0)"/>
    <use xlink:href="#DejaVuSans-Bold-73" transform="translate(643.457031 0)"/>
    <use xlink:href="#DejaVuSans-Bold-20" transform="translate(702.978516 0)"/>
    <use xlink:href="#DejaVuSans-Bold-64" transform="translate(737.792969 0)"/>
    <use xlink:href="#DejaVuSans-Bold-65" transform="translate(809.375 0)"/>
    <use xlink:href="#DejaVuSans-Bold-20" transform="translate(877.197266 0)"/>
    <use xlink:href="#DejaVuSans-Bold-43" transform="translate(912.011719 0)"/>
    <use xlink:href="#DejaVuSans-Bold-75" transform="translate(985.400391 0)"/>
    <use xlink:href="#DejaVuSans-Bold-61" transform="translate(1056.591797 0)"/>
    <use xlink:href="#DejaVuSans-Bold-64" transform="translate(1124.072266 0)"/>
    <use xlink:href="#DejaVuSans-Bold-72" transform="translate(1195.654297 0)"/>
    <use xlink:href="#DejaVuSans-Bold-69" transform="translate(1244.970703 0)"/>
    <use xlink:href="#DejaVuSans-Bold-6c" transform="translate(1279.248047 0)"/>
    <use xlink:href="#DejaVuSans-Bold-e1" transform="translate(1313.525391 0)"/>
    <use xlink:href="#DejaVuSans-Bold-74" transform="translate(1381.005859 0)"/>
    <use xlink:href="#DejaVuSans-Bold-65" transform="translate(1428.808594 0)"/>
    <use xlink:href="#DejaVuSans-Bold-72" transform="translate(1496.630859 0)"/>
    <use xlink:href="#DejaVuSans-Bold-6f" transform="translate(1545.947266 0)"/>
    <use xlink:href="#DejaVuSans-Bold-73" transform="translate(1614.648438 0)"/>
    <use xlink:href="#DejaVuSans-Bold-20" transform="translate(1674.169922 0)"/>
    <use xlink:href="#DejaVuSans-Bold-45" transform="translate(1708.984375 0)"/>
    <use xlink:href="#DejaVuSans-Bold-73" transform="translate(1777.294922 0)"/>
    <use xlink:href="#DejaVuSans-Bold-70" transform="translate(1836.816406 0)"/>
    <use xlink:href="#DejaVuSans-Bold-65" transform="translate(1908.398438 0)"/>
    <use xlink:href="#DejaVuSans-Bold-63" transform="translate(1976.220703 0)"/>
    <use xlink:href="#DejaVuSans-Bold-69" transform="translate(2035.498047 0)"/>
    <use xlink:href="#DejaVuSans-Bold-61" transform="translate(2069.775391 0)"/>
    <use xlink:href="#DejaVuSans-Bold-6c" transform="translate(2137.255859 0)"/>
    <use xlink:href="#DejaVuSans-Bold-65" transform="translate(2171.533203 0)"/>
    <use xlink:href="#DejaVuSans-Bold-73" transform="translate(2239.355469 0)"/>
   </g>
  </g>
 </g>
 <defs>
  <clipPath id="p768bcd5066">
   <rect x="7.2" y="53.2" width="361.585714" height="306.8"/>
  </clipPath>
  <clipPath id="p45fe72612a">
   <rect x="429.038182" y="53.2" width="361.585714" height="306.8"/>
  </clipPath>
  <clipPath id="p0d865b3e9c">
   <rect x="7.2" y="393.04" width="361.585714" height="306.8"/>
  </clipPath>
  <clipPath id="pca4a8a05e0">
   <rect x="429.038182" y="393.04" width="361.585714" height="306.8"/>
  </clipPath>
 </defs>
</svg>
