<?xml version="1.0" encoding="utf-8" standalone="no"?>
<!DOCTYPE svg PUBLIC "-//W3C//DTD SVG 1.1//EN"
  "http://www.w3.org/Graphics/SVG/1.1/DTD/svg11.dtd">
<svg xmlns:xlink="http://www.w3.org/1999/xlink" width="852.48pt" height="384.93234pt" viewBox="0 0 852.48 384.93234" xmlns="http://www.w3.org/2000/svg" version="1.1">
 <metadata>
  <rdf:RDF xmlns:dc="http://purl.org/dc/elements/1.1/" xmlns:cc="http://creativecommons.org/ns#" xmlns:rdf="http://www.w3.org/1999/02/22-rdf-syntax-ns#">
   <cc:Work>
    <dc:type rdf:resource="http://purl.org/dc/dcmitype/StillImage"/>
    <dc:date>2026-01-03T17:13:35.596368</dc:date>
    <dc:format>image/svg+xml</dc:format>
    <dc:creator>
     <cc:Agent>
      <dc:title>Repositorio Matemáticas Universitarias</dc:title>
     </cc:Agent>
    </dc:creator>
   </cc:Work>
  </rdf:RDF>
 </metadata>
 <defs>
  <style type="text/css">*{stroke-linejoin: round; stroke-linecap: butt}</style>
 </defs>
 <g id="figure_1">
  <g id="patch_1">
   <path d="M 0 384.93234 
L 852.48 384.93234 
L 852.48 0 
L 0 0 
z
" style="fill: #ffffff"/>
  </g>
  <g id="axes_1">
   <g id="line2d_1">
    <path d="M 63.072 310.68594 
L 510.048 310.68594 
" clip-path="url(#pd36f2ff000)" style="fill: none; stroke: #2563eb; stroke-width: 3; stroke-linecap: square"/>
   </g>
   <g id="line2d_2">
    <path d="M 510.048 310.68594 
L 202.752 87.19794 
" clip-path="url(#pd36f2ff000)" style="fill: none; stroke: #dc2626; stroke-width: 3; stroke-linecap: square"/>
   </g>
   <g id="line2d_3">
    <path d="M 202.752 87.19794 
L 63.072 310.68594 
" clip-path="url(#pd36f2ff000)" style="fill: none; stroke: #059669; stroke-width: 3; stroke-linecap: square"/>
   </g>
   <g id="line2d_4">
    <path d="M 202.752 87.19794 
L 202.752 310.68594 
" clip-path="url(#pd36f2ff000)" style="fill: none; stroke-dasharray: 9.25,4; stroke-dashoffset: 0; stroke: #7c3aed; stroke-width: 2.5"/>
   </g>
   <g id="line2d_5">
    <path d="M 63.072 310.68594 
L 202.752 310.68594 
" clip-path="url(#pd36f2ff000)" style="fill: none; stroke: #f59e0b; stroke-opacity: 0.6; stroke-width: 4; stroke-linecap: square"/>
   </g>
   <g id="line2d_6">
    <path d="M 202.752 310.68594 
L 510.048 310.68594 
" clip-path="url(#pd36f2ff000)" style="fill: none; stroke: #ec4899; stroke-opacity: 0.6; stroke-width: 4; stroke-linecap: square"/>
   </g>
   <g id="line2d_7">
    <path d="M 185.9904 87.19794 
L 185.9904 103.95954 
L 202.752 103.95954 
" clip-path="url(#pd36f2ff000)" style="fill: none; stroke: #374151; stroke-width: 1.5; stroke-linecap: square"/>
   </g>
   <g id="line2d_8">
    <path d="M 216.72 310.68594 
L 216.72 296.71794 
L 202.752 296.71794 
" clip-path="url(#pd36f2ff000)" style="fill: none; stroke: #374151; stroke-width: 1.5; stroke-linecap: square"/>
   </g>
   <g id="line2d_9">
    <defs>
     <path id="m4eb832bf8e" d="M 0 4 
C 1.060812 4 2.078319 3.578535 2.828427 2.828427 
C 3.578535 2.078319 4 1.060812 4 0 
C 4 -1.060812 3.578535 -2.078319 2.828427 -2.828427 
C 2.078319 -3.578535 1.060812 -4 0 -4 
C -1.060812 -4 -2.078319 -3.578535 -2.828427 -2.828427 
C -3.578535 -2.078319 -4 -1.060812 -4 0 
C -4 1.060812 -3.578535 2.078319 -2.828427 2.828427 
C -2.078319 3.578535 -1.060812 4 0 4 
z
" style="stroke: #374151"/>
    </defs>
    <g clip-path="url(#pd36f2ff000)">
     <use xlink:href="#m4eb832bf8e" x="63.072" y="310.68594" style="fill: #374151; stroke: #374151"/>
    </g>
   </g>
   <g id="line2d_10">
    <g clip-path="url(#pd36f2ff000)">
     <use xlink:href="#m4eb832bf8e" x="510.048" y="310.68594" style="fill: #374151; stroke: #374151"/>
    </g>
   </g>
   <g id="line2d_11">
    <g clip-path="url(#pd36f2ff000)">
     <use xlink:href="#m4eb832bf8e" x="202.752" y="87.19794" style="fill: #374151; stroke: #374151"/>
    </g>
   </g>
   <g id="line2d_12">
    <g clip-path="url(#pd36f2ff000)">
     <use xlink:href="#m4eb832bf8e" x="202.752" y="310.68594" style="fill: #374151; stroke: #374151"/>
    </g>
   </g>
   <g id="line2d_13">
    <path d="M 593.856 288.33714 
L 621.792 288.33714 
" clip-path="url(#pd36f2ff000)" style="fill: none; stroke: #f59e0b; stroke-width: 3; stroke-linecap: square"/>
   </g>
   <g id="line2d_14">
    <path d="M 593.856 310.68594 
L 621.792 310.68594 
" clip-path="url(#pd36f2ff000)" style="fill: none; stroke: #ec4899; stroke-width: 3; stroke-linecap: square"/>
   </g>
   <g id="text_1">
    <!-- A -->
    <g style="fill: #1f2937" transform="translate(46.3104 327.44754) scale(0.13 -0.13)">
     <defs>
      <path id="DejaVuSans-Bold-41" d="M 3419 850 
L 1538 850 
L 1241 0 
L 31 0 
L 1759 4666 
L 3194 4666 
L 4922 0 
L 3713 0 
L 3419 850 
z
M 1838 1716 
L 3116 1716 
L 2478 3572 
L 1838 1716 
z
" transform="scale(0.015625)"/>
     </defs>
     <use xlink:href="#DejaVuSans-Bold-41"/>
    </g>
   </g>
   <g id="text_2">
    <!-- B -->
    <g style="fill: #1f2937" transform="translate(521.2224 327.44754) scale(0.13 -0.13)">
     <defs>
      <path id="DejaVuSans-Bold-42" d="M 2456 2859 
Q 2741 2859 2887 2984 
Q 3034 3109 3034 3353 
Q 3034 3594 2887 3720 
Q 2741 3847 2456 3847 
L 1791 3847 
L 1791 2859 
L 2456 2859 
z
M 2497 819 
Q 2859 819 3042 972 
Q 3225 1125 3225 1434 
Q 3225 1738 3044 1889 
Q 2863 2041 2497 2041 
L 1791 2041 
L 1791 819 
L 2497 819 
z
M 3616 2497 
Q 4003 2384 4215 2081 
Q 4428 1778 4428 1338 
Q 4428 663 3972 331 
Q 3516 0 2584 0 
L 588 0 
L 588 4666 
L 2394 4666 
Q 3366 4666 3802 4372 
Q 4238 4078 4238 3431 
Q 4238 3091 4078 2852 
Q 3919 2613 3616 2497 
z
" transform="scale(0.015625)"/>
     </defs>
     <use xlink:href="#DejaVuSans-Bold-42"/>
    </g>
   </g>
   <g id="text_3">
    <!-- C -->
    <g style="fill: #1f2937" transform="translate(185.9904 76.02354) scale(0.13 -0.13)">
     <defs>
      <path id="DejaVuSans-Bold-43" d="M 4288 256 
Q 3956 84 3597 -3 
Q 3238 -91 2847 -91 
Q 1681 -91 1000 561 
Q 319 1213 319 2328 
Q 319 3447 1000 4098 
Q 1681 4750 2847 4750 
Q 3238 4750 3597 4662 
Q 3956 4575 4288 4403 
L 4288 3438 
Q 3953 3666 3628 3772 
Q 3303 3878 2944 3878 
Q 2300 3878 1931 3465 
Q 1563 3053 1563 2328 
Q 1563 1606 1931 1193 
Q 2300 781 2944 781 
Q 3303 781 3628 887 
Q 3953 994 4288 1222 
L 4288 256 
z
" transform="scale(0.015625)"/>
     </defs>
     <use xlink:href="#DejaVuSans-Bold-43"/>
    </g>
   </g>
   <g id="text_4">
    <!-- H -->
    <g style="fill: #1f2937" transform="translate(202.752 333.03474) scale(0.13 -0.13)">
     <defs>
      <path id="DejaVuSans-Bold-48" d="M 588 4666 
L 1791 4666 
L 1791 2888 
L 3566 2888 
L 3566 4666 
L 4769 4666 
L 4769 0 
L 3566 0 
L 3566 1978 
L 1791 1978 
L 1791 0 
L 588 0 
L 588 4666 
z
" transform="scale(0.015625)"/>
     </defs>
     <use xlink:href="#DejaVuSans-Bold-48"/>
    </g>
   </g>
   <g id="text_5">
    <!-- c (hipotenusa) -->
    <g style="fill: #2563eb" transform="translate(246.878359 344.20914) scale(0.11 -0.11)">
     <defs>
      <path id="DejaVuSans-63" d="M 3122 3366 
L 3122 2828 
Q 2878 2963 2633 3030 
Q 2388 3097 2138 3097 
Q 1578 3097 1268 2742 
Q 959 2388 959 1747 
Q 959 1106 1268 751 
Q 1578 397 2138 397 
Q 2388 397 2633 464 
Q 2878 531 3122 666 
L 3122 134 
Q 2881 22 2623 -34 
Q 2366 -91 2075 -91 
Q 1284 -91 818 406 
Q 353 903 353 1747 
Q 353 2603 823 3093 
Q 1294 3584 2113 3584 
Q 2378 3584 2631 3529 
Q 2884 3475 3122 3366 
z
" transform="scale(0.015625)"/>
      <path id="DejaVuSans-20" transform="scale(0.015625)"/>
      <path id="DejaVuSans-28" d="M 1984 4856 
Q 1566 4138 1362 3434 
Q 1159 2731 1159 2009 
Q 1159 1288 1364 580 
Q 1569 -128 1984 -844 
L 1484 -844 
Q 1016 -109 783 600 
Q 550 1309 550 2009 
Q 550 2706 781 3412 
Q 1013 4119 1484 4856 
L 1984 4856 
z
" transform="scale(0.015625)"/>
      <path id="DejaVuSans-68" d="M 3513 2113 
L 3513 0 
L 2938 0 
L 2938 2094 
Q 2938 2591 2744 2837 
Q 2550 3084 2163 3084 
Q 1697 3084 1428 2787 
Q 1159 2491 1159 1978 
L 1159 0 
L 581 0 
L 581 4863 
L 1159 4863 
L 1159 2956 
Q 1366 3272 1645 3428 
Q 1925 3584 2291 3584 
Q 2894 3584 3203 3211 
Q 3513 2838 3513 2113 
z
" transform="scale(0.015625)"/>
      <path id="DejaVuSans-69" d="M 603 3500 
L 1178 3500 
L 1178 0 
L 603 0 
L 603 3500 
z
M 603 4863 
L 1178 4863 
L 1178 4134 
L 603 4134 
L 603 4863 
z
" transform="scale(0.015625)"/>
      <path id="DejaVuSans-70" d="M 1159 525 
L 1159 -1331 
L 581 -1331 
L 581 3500 
L 1159 3500 
L 1159 2969 
Q 1341 3281 1617 3432 
Q 1894 3584 2278 3584 
Q 2916 3584 3314 3078 
Q 3713 2572 3713 1747 
Q 3713 922 3314 415 
Q 2916 -91 2278 -91 
Q 1894 -91 1617 61 
Q 1341 213 1159 525 
z
M 3116 1747 
Q 3116 2381 2855 2742 
Q 2594 3103 2138 3103 
Q 1681 3103 1420 2742 
Q 1159 2381 1159 1747 
Q 1159 1113 1420 752 
Q 1681 391 2138 391 
Q 2594 391 2855 752 
Q 3116 1113 3116 1747 
z
" transform="scale(0.015625)"/>
      <path id="DejaVuSans-6f" d="M 1959 3097 
Q 1497 3097 1228 2736 
Q 959 2375 959 1747 
Q 959 1119 1226 758 
Q 1494 397 1959 397 
Q 2419 397 2687 759 
Q 2956 1122 2956 1747 
Q 2956 2369 2687 2733 
Q 2419 3097 1959 3097 
z
M 1959 3584 
Q 2709 3584 3137 3096 
Q 3566 2609 3566 1747 
Q 3566 888 3137 398 
Q 2709 -91 1959 -91 
Q 1206 -91 779 398 
Q 353 888 353 1747 
Q 353 2609 779 3096 
Q 1206 3584 1959 3584 
z
" transform="scale(0.015625)"/>
      <path id="DejaVuSans-74" d="M 1172 4494 
L 1172 3500 
L 2356 3500 
L 2356 3053 
L 1172 3053 
L 1172 1153 
Q 1172 725 1289 603 
Q 1406 481 1766 481 
L 2356 481 
L 2356 0 
L 1766 0 
Q 1100 0 847 248 
Q 594 497 594 1153 
L 594 3053 
L 172 3053 
L 172 3500 
L 594 3500 
L 594 4494 
L 1172 4494 
z
" transform="scale(0.015625)"/>
      <path id="DejaVuSans-65" d="M 3597 1894 
L 3597 1613 
L 953 1613 
Q 991 1019 1311 708 
Q 1631 397 2203 397 
Q 2534 397 2845 478 
Q 3156 559 3463 722 
L 3463 178 
Q 3153 47 2828 -22 
Q 2503 -91 2169 -91 
Q 1331 -91 842 396 
Q 353 884 353 1716 
Q 353 2575 817 3079 
Q 1281 3584 2069 3584 
Q 2775 3584 3186 3129 
Q 3597 2675 3597 1894 
z
M 3022 2063 
Q 3016 2534 2758 2815 
Q 2500 3097 2075 3097 
Q 1594 3097 1305 2825 
Q 1016 2553 972 2059 
L 3022 2063 
z
" transform="scale(0.015625)"/>
      <path id="DejaVuSans-6e" d="M 3513 2113 
L 3513 0 
L 2938 0 
L 2938 2094 
Q 2938 2591 2744 2837 
Q 2550 3084 2163 3084 
Q 1697 3084 1428 2787 
Q 1159 2491 1159 1978 
L 1159 0 
L 581 0 
L 581 3500 
L 1159 3500 
L 1159 2956 
Q 1366 3272 1645 3428 
Q 1925 3584 2291 3584 
Q 2894 3584 3203 3211 
Q 3513 2838 3513 2113 
z
" transform="scale(0.015625)"/>
      <path id="DejaVuSans-75" d="M 544 1381 
L 544 3500 
L 1119 3500 
L 1119 1403 
Q 1119 906 1312 657 
Q 1506 409 1894 409 
Q 2359 409 2629 706 
Q 2900 1003 2900 1516 
L 2900 3500 
L 3475 3500 
L 3475 0 
L 2900 0 
L 2900 538 
Q 2691 219 2414 64 
Q 2138 -91 1772 -91 
Q 1169 -91 856 284 
Q 544 659 544 1381 
z
M 1991 3584 
L 1991 3584 
z
" transform="scale(0.015625)"/>
      <path id="DejaVuSans-73" d="M 2834 3397 
L 2834 2853 
Q 2591 2978 2328 3040 
Q 2066 3103 1784 3103 
Q 1356 3103 1142 2972 
Q 928 2841 928 2578 
Q 928 2378 1081 2264 
Q 1234 2150 1697 2047 
L 1894 2003 
Q 2506 1872 2764 1633 
Q 3022 1394 3022 966 
Q 3022 478 2636 193 
Q 2250 -91 1575 -91 
Q 1294 -91 989 -36 
Q 684 19 347 128 
L 347 722 
Q 666 556 975 473 
Q 1284 391 1588 391 
Q 1994 391 2212 530 
Q 2431 669 2431 922 
Q 2431 1156 2273 1281 
Q 2116 1406 1581 1522 
L 1381 1569 
Q 847 1681 609 1914 
Q 372 2147 372 2553 
Q 372 3047 722 3315 
Q 1072 3584 1716 3584 
Q 2034 3584 2315 3537 
Q 2597 3491 2834 3397 
z
" transform="scale(0.015625)"/>
      <path id="DejaVuSans-61" d="M 2194 1759 
Q 1497 1759 1228 1600 
Q 959 1441 959 1056 
Q 959 750 1161 570 
Q 1363 391 1709 391 
Q 2188 391 2477 730 
Q 2766 1069 2766 1631 
L 2766 1759 
L 2194 1759 
z
M 3341 1997 
L 3341 0 
L 2766 0 
L 2766 531 
Q 2569 213 2275 61 
Q 1981 -91 1556 -91 
Q 1019 -91 701 211 
Q 384 513 384 1019 
Q 384 1609 779 1909 
Q 1175 2209 1959 2209 
L 2766 2209 
L 2766 2266 
Q 2766 2663 2505 2880 
Q 2244 3097 1772 3097 
Q 1472 3097 1187 3025 
Q 903 2953 641 2809 
L 641 3341 
Q 956 3463 1253 3523 
Q 1550 3584 1831 3584 
Q 2591 3584 2966 3190 
Q 3341 2797 3341 1997 
z
" transform="scale(0.015625)"/>
      <path id="DejaVuSans-29" d="M 513 4856 
L 1013 4856 
Q 1481 4119 1714 3412 
Q 1947 2706 1947 2009 
Q 1947 1309 1714 600 
Q 1481 -109 1013 -844 
L 513 -844 
Q 928 -128 1133 580 
Q 1338 1288 1338 2009 
Q 1338 2731 1133 3434 
Q 928 4138 513 4856 
z
" transform="scale(0.015625)"/>
     </defs>
     <use xlink:href="#DejaVuSans-63"/>
     <use xlink:href="#DejaVuSans-20" transform="translate(54.980469 0)"/>
     <use xlink:href="#DejaVuSans-28" transform="translate(86.767578 0)"/>
     <use xlink:href="#DejaVuSans-68" transform="translate(125.78125 0)"/>
     <use xlink:href="#DejaVuSans-69" transform="translate(189.160156 0)"/>
     <use xlink:href="#DejaVuSans-70" transform="translate(216.943359 0)"/>
     <use xlink:href="#DejaVuSans-6f" transform="translate(280.419922 0)"/>
     <use xlink:href="#DejaVuSans-74" transform="translate(341.601562 0)"/>
     <use xlink:href="#DejaVuSans-65" transform="translate(380.810547 0)"/>
     <use xlink:href="#DejaVuSans-6e" transform="translate(442.333984 0)"/>
     <use xlink:href="#DejaVuSans-75" transform="translate(505.712891 0)"/>
     <use xlink:href="#DejaVuSans-73" transform="translate(569.091797 0)"/>
     <use xlink:href="#DejaVuSans-61" transform="translate(621.191406 0)"/>
     <use xlink:href="#DejaVuSans-29" transform="translate(682.470703 0)"/>
    </g>
   </g>
   <g id="text_6">
    <!-- a -->
    <g style="fill: #dc2626" transform="translate(387.1296 182.18034) scale(0.13 -0.13)">
     <defs>
      <path id="DejaVuSans-Bold-61" d="M 2106 1575 
Q 1756 1575 1579 1456 
Q 1403 1338 1403 1106 
Q 1403 894 1545 773 
Q 1688 653 1941 653 
Q 2256 653 2472 879 
Q 2688 1106 2688 1447 
L 2688 1575 
L 2106 1575 
z
M 3816 1997 
L 3816 0 
L 2688 0 
L 2688 519 
Q 2463 200 2181 54 
Q 1900 -91 1497 -91 
Q 953 -91 614 226 
Q 275 544 275 1050 
Q 275 1666 698 1953 
Q 1122 2241 2028 2241 
L 2688 2241 
L 2688 2328 
Q 2688 2594 2478 2717 
Q 2269 2841 1825 2841 
Q 1466 2841 1156 2769 
Q 847 2697 581 2553 
L 581 3406 
Q 941 3494 1303 3539 
Q 1666 3584 2028 3584 
Q 2975 3584 3395 3211 
Q 3816 2838 3816 1997 
z
" transform="scale(0.015625)"/>
     </defs>
     <use xlink:href="#DejaVuSans-Bold-61"/>
    </g>
   </g>
   <g id="text_7">
    <!-- b -->
    <g style="fill: #059669" transform="translate(107.7696 182.18034) scale(0.13 -0.13)">
     <defs>
      <path id="DejaVuSans-Bold-62" d="M 2400 722 
Q 2759 722 2948 984 
Q 3138 1247 3138 1747 
Q 3138 2247 2948 2509 
Q 2759 2772 2400 2772 
Q 2041 2772 1848 2508 
Q 1656 2244 1656 1747 
Q 1656 1250 1848 986 
Q 2041 722 2400 722 
z
M 1656 2988 
Q 1888 3294 2169 3439 
Q 2450 3584 2816 3584 
Q 3463 3584 3878 3070 
Q 4294 2556 4294 1747 
Q 4294 938 3878 423 
Q 3463 -91 2816 -91 
Q 2450 -91 2169 54 
Q 1888 200 1656 506 
L 1656 0 
L 538 0 
L 538 4863 
L 1656 4863 
L 1656 2988 
z
" transform="scale(0.015625)"/>
     </defs>
     <use xlink:href="#DejaVuSans-Bold-62"/>
    </g>
   </g>
   <g id="text_8">
    <!-- h -->
    <g style="fill: #7c3aed" transform="translate(180.4032 198.94194) scale(0.13 -0.13)">
     <defs>
      <path id="DejaVuSans-Bold-68" d="M 4056 2131 
L 4056 0 
L 2931 0 
L 2931 347 
L 2931 1625 
Q 2931 2084 2911 2256 
Q 2891 2428 2841 2509 
Q 2775 2619 2662 2680 
Q 2550 2741 2406 2741 
Q 2056 2741 1856 2470 
Q 1656 2200 1656 1722 
L 1656 0 
L 538 0 
L 538 4863 
L 1656 4863 
L 1656 2988 
Q 1909 3294 2193 3439 
Q 2478 3584 2822 3584 
Q 3428 3584 3742 3212 
Q 4056 2841 4056 2131 
z
" transform="scale(0.015625)"/>
     </defs>
     <use xlink:href="#DejaVuSans-Bold-68"/>
    </g>
   </g>
   <g id="text_9">
    <!-- m -->
    <g style="fill: #f59e0b" transform="translate(130.1184 293.92434) scale(0.12 -0.12)">
     <defs>
      <path id="DejaVuSans-Bold-6d" d="M 3781 2919 
Q 3994 3244 4286 3414 
Q 4578 3584 4928 3584 
Q 5531 3584 5847 3212 
Q 6163 2841 6163 2131 
L 6163 0 
L 5038 0 
L 5038 1825 
Q 5041 1866 5042 1909 
Q 5044 1953 5044 2034 
Q 5044 2406 4934 2573 
Q 4825 2741 4581 2741 
Q 4263 2741 4089 2478 
Q 3916 2216 3909 1719 
L 3909 0 
L 2784 0 
L 2784 1825 
Q 2784 2406 2684 2573 
Q 2584 2741 2328 2741 
Q 2006 2741 1831 2477 
Q 1656 2213 1656 1722 
L 1656 0 
L 531 0 
L 531 3500 
L 1656 3500 
L 1656 2988 
Q 1863 3284 2130 3434 
Q 2397 3584 2719 3584 
Q 3081 3584 3359 3409 
Q 3638 3234 3781 2919 
z
" transform="scale(0.015625)"/>
     </defs>
     <use xlink:href="#DejaVuSans-Bold-6d"/>
    </g>
   </g>
   <g id="text_10">
    <!-- n -->
    <g style="fill: #ec4899" transform="translate(353.6064 293.92434) scale(0.12 -0.12)">
     <defs>
      <path id="DejaVuSans-Bold-6e" d="M 4056 2131 
L 4056 0 
L 2931 0 
L 2931 347 
L 2931 1631 
Q 2931 2084 2911 2256 
Q 2891 2428 2841 2509 
Q 2775 2619 2662 2680 
Q 2550 2741 2406 2741 
Q 2056 2741 1856 2470 
Q 1656 2200 1656 1722 
L 1656 0 
L 538 0 
L 538 3500 
L 1656 3500 
L 1656 2988 
Q 1909 3294 2193 3439 
Q 2478 3584 2822 3584 
Q 3428 3584 3742 3212 
Q 4056 2841 4056 2131 
z
" transform="scale(0.015625)"/>
     </defs>
     <use xlink:href="#DejaVuSans-Bold-6e"/>
    </g>
   </g>
   <g id="text_11">
    <g id="patch_2">
     <path d="M 593.856 121.229565 
L 650.616 121.229565 
Q 654.216 121.229565 654.216 117.629565 
L 654.216 106.015815 
Q 654.216 102.415815 650.616 102.415815 
L 593.856 102.415815 
Q 590.256 102.415815 590.256 106.015815 
L 590.256 117.629565 
Q 590.256 121.229565 593.856 121.229565 
z
" style="fill: #ffffff; stroke: #d1d5db; stroke-linejoin: miter"/>
    </g>
    <!-- $h^2 = m \cdot n$ -->
    <g style="fill: #1f2937" transform="translate(593.856 115.13394) scale(0.12 -0.12)">
     <defs>
      <path id="DejaVuSans-Oblique-68" d="M 3566 2113 
L 3156 0 
L 2578 0 
L 2988 2091 
Q 3016 2238 3031 2350 
Q 3047 2463 3047 2528 
Q 3047 2791 2881 2937 
Q 2716 3084 2419 3084 
Q 1956 3084 1617 2771 
Q 1278 2459 1178 1941 
L 800 0 
L 225 0 
L 1172 4863 
L 1747 4863 
L 1375 2950 
Q 1594 3244 1934 3414 
Q 2275 3584 2650 3584 
Q 3113 3584 3367 3334 
Q 3622 3084 3622 2631 
Q 3622 2519 3608 2391 
Q 3594 2263 3566 2113 
z
" transform="scale(0.015625)"/>
      <path id="DejaVuSans-32" d="M 1228 531 
L 3431 531 
L 3431 0 
L 469 0 
L 469 531 
Q 828 903 1448 1529 
Q 2069 2156 2228 2338 
Q 2531 2678 2651 2914 
Q 2772 3150 2772 3378 
Q 2772 3750 2511 3984 
Q 2250 4219 1831 4219 
Q 1534 4219 1204 4116 
Q 875 4013 500 3803 
L 500 4441 
Q 881 4594 1212 4672 
Q 1544 4750 1819 4750 
Q 2544 4750 2975 4387 
Q 3406 4025 3406 3419 
Q 3406 3131 3298 2873 
Q 3191 2616 2906 2266 
Q 2828 2175 2409 1742 
Q 1991 1309 1228 531 
z
" transform="scale(0.015625)"/>
      <path id="DejaVuSans-3d" d="M 678 2906 
L 4684 2906 
L 4684 2381 
L 678 2381 
L 678 2906 
z
M 678 1631 
L 4684 1631 
L 4684 1100 
L 678 1100 
L 678 1631 
z
" transform="scale(0.015625)"/>
      <path id="DejaVuSans-Oblique-6d" d="M 5747 2113 
L 5338 0 
L 4763 0 
L 5166 2094 
Q 5191 2228 5203 2325 
Q 5216 2422 5216 2491 
Q 5216 2772 5059 2928 
Q 4903 3084 4622 3084 
Q 4203 3084 3875 2770 
Q 3547 2456 3450 1953 
L 3066 0 
L 2491 0 
L 2900 2094 
Q 2925 2209 2937 2307 
Q 2950 2406 2950 2484 
Q 2950 2769 2794 2926 
Q 2638 3084 2363 3084 
Q 1938 3084 1609 2770 
Q 1281 2456 1184 1953 
L 800 0 
L 225 0 
L 909 3500 
L 1484 3500 
L 1375 2956 
Q 1609 3263 1923 3423 
Q 2238 3584 2597 3584 
Q 2978 3584 3223 3384 
Q 3469 3184 3519 2828 
Q 3781 3197 4126 3390 
Q 4472 3584 4856 3584 
Q 5306 3584 5551 3325 
Q 5797 3066 5797 2591 
Q 5797 2488 5784 2364 
Q 5772 2241 5747 2113 
z
" transform="scale(0.015625)"/>
      <path id="DejaVuSans-22c5" d="M 684 2619 
L 1344 2619 
L 1344 1825 
L 684 1825 
L 684 2619 
z
" transform="scale(0.015625)"/>
      <path id="DejaVuSans-Oblique-6e" d="M 3566 2113 
L 3156 0 
L 2578 0 
L 2988 2091 
Q 3016 2238 3031 2350 
Q 3047 2463 3047 2528 
Q 3047 2791 2881 2937 
Q 2716 3084 2419 3084 
Q 1956 3084 1622 2776 
Q 1288 2469 1184 1941 
L 800 0 
L 225 0 
L 903 3500 
L 1478 3500 
L 1363 2950 
Q 1603 3253 1940 3418 
Q 2278 3584 2650 3584 
Q 3113 3584 3367 3334 
Q 3622 3084 3622 2631 
Q 3622 2519 3608 2391 
Q 3594 2263 3566 2113 
z
" transform="scale(0.015625)"/>
     </defs>
     <use xlink:href="#DejaVuSans-Oblique-68" transform="translate(0 0.765625)"/>
     <use xlink:href="#DejaVuSans-32" transform="translate(70.826615 39.046875) scale(0.7)"/>
     <use xlink:href="#DejaVuSans-3d" transform="translate(137.579544 0.765625)"/>
     <use xlink:href="#DejaVuSans-Oblique-6d" transform="translate(240.851029 0.765625)"/>
     <use xlink:href="#DejaVuSans-22c5" transform="translate(357.74556 0.765625)"/>
     <use xlink:href="#DejaVuSans-Oblique-6e" transform="translate(409.015091 0.765625)"/>
    </g>
   </g>
   <g id="text_12">
    <!-- Altura al cuadrado -->
    <g style="fill: #6b7280" transform="translate(593.856 134.68914) scale(0.09 -0.09)">
     <defs>
      <path id="DejaVuSans-Oblique-41" d="M 2356 4666 
L 3072 4666 
L 3938 0 
L 3278 0 
L 3084 1197 
L 984 1197 
L 325 0 
L -341 0 
L 2356 4666 
z
M 2584 4044 
L 1275 1722 
L 2988 1722 
L 2584 4044 
z
" transform="scale(0.015625)"/>
      <path id="DejaVuSans-Oblique-6c" d="M 1172 4863 
L 1747 4863 
L 800 0 
L 225 0 
L 1172 4863 
z
" transform="scale(0.015625)"/>
      <path id="DejaVuSans-Oblique-74" d="M 2706 3500 
L 2619 3053 
L 1472 3053 
L 1100 1153 
Q 1081 1047 1072 975 
Q 1063 903 1063 863 
Q 1063 663 1183 572 
Q 1303 481 1569 481 
L 2150 481 
L 2053 0 
L 1503 0 
Q 991 0 739 200 
Q 488 400 488 806 
Q 488 878 497 964 
Q 506 1050 525 1153 
L 897 3053 
L 409 3053 
L 500 3500 
L 978 3500 
L 1172 4494 
L 1747 4494 
L 1556 3500 
L 2706 3500 
z
" transform="scale(0.015625)"/>
      <path id="DejaVuSans-Oblique-75" d="M 428 1388 
L 838 3500 
L 1416 3500 
L 1006 1409 
Q 975 1256 961 1147 
Q 947 1038 947 966 
Q 947 700 1109 554 
Q 1272 409 1569 409 
Q 2031 409 2368 721 
Q 2706 1034 2809 1563 
L 3194 3500 
L 3769 3500 
L 3091 0 
L 2516 0 
L 2631 550 
Q 2388 244 2052 76 
Q 1716 -91 1338 -91 
Q 878 -91 622 161 
Q 366 413 366 863 
Q 366 956 381 1097 
Q 397 1238 428 1388 
z
" transform="scale(0.015625)"/>
      <path id="DejaVuSans-Oblique-72" d="M 2853 2969 
Q 2766 3016 2653 3041 
Q 2541 3066 2413 3066 
Q 1953 3066 1609 2717 
Q 1266 2369 1153 1784 
L 800 0 
L 225 0 
L 909 3500 
L 1484 3500 
L 1375 2956 
Q 1603 3259 1920 3421 
Q 2238 3584 2597 3584 
Q 2691 3584 2781 3573 
Q 2872 3563 2963 3538 
L 2853 2969 
z
" transform="scale(0.015625)"/>
      <path id="DejaVuSans-Oblique-61" d="M 3438 1997 
L 3047 0 
L 2472 0 
L 2578 531 
Q 2325 219 2001 64 
Q 1678 -91 1281 -91 
Q 834 -91 548 182 
Q 263 456 263 884 
Q 263 1497 752 1853 
Q 1241 2209 2100 2209 
L 2900 2209 
L 2931 2363 
Q 2938 2388 2941 2417 
Q 2944 2447 2944 2509 
Q 2944 2788 2717 2942 
Q 2491 3097 2081 3097 
Q 1800 3097 1504 3025 
Q 1209 2953 897 2809 
L 997 3341 
Q 1322 3463 1633 3523 
Q 1944 3584 2234 3584 
Q 2853 3584 3176 3315 
Q 3500 3047 3500 2534 
Q 3500 2431 3484 2292 
Q 3469 2153 3438 1997 
z
M 2816 1759 
L 2241 1759 
Q 1534 1759 1195 1570 
Q 856 1381 856 984 
Q 856 709 1029 553 
Q 1203 397 1509 397 
Q 1978 397 2328 733 
Q 2678 1069 2791 1631 
L 2816 1759 
z
" transform="scale(0.015625)"/>
      <path id="DejaVuSans-Oblique-20" transform="scale(0.015625)"/>
      <path id="DejaVuSans-Oblique-63" d="M 3431 3366 
L 3316 2797 
Q 3109 2947 2876 3022 
Q 2644 3097 2394 3097 
Q 2119 3097 1870 3000 
Q 1622 2903 1453 2725 
Q 1184 2453 1037 2087 
Q 891 1722 891 1331 
Q 891 859 1127 628 
Q 1363 397 1844 397 
Q 2081 397 2348 469 
Q 2616 541 2906 684 
L 2797 116 
Q 2547 13 2283 -39 
Q 2019 -91 1741 -91 
Q 1044 -91 669 257 
Q 294 606 294 1253 
Q 294 1797 489 2255 
Q 684 2713 1069 3078 
Q 1331 3328 1684 3456 
Q 2038 3584 2456 3584 
Q 2700 3584 2940 3529 
Q 3181 3475 3431 3366 
z
" transform="scale(0.015625)"/>
      <path id="DejaVuSans-Oblique-64" d="M 2675 525 
Q 2444 222 2128 65 
Q 1813 -91 1428 -91 
Q 903 -91 598 267 
Q 294 625 294 1247 
Q 294 1766 478 2236 
Q 663 2706 1013 3078 
Q 1244 3325 1534 3454 
Q 1825 3584 2144 3584 
Q 2481 3584 2739 3421 
Q 2997 3259 3138 2956 
L 3513 4863 
L 4091 4863 
L 3144 0 
L 2566 0 
L 2675 525 
z
M 891 1350 
Q 891 897 1095 644 
Q 1300 391 1663 391 
Q 1931 391 2161 520 
Q 2391 650 2566 903 
Q 2750 1166 2856 1509 
Q 2963 1853 2963 2188 
Q 2963 2622 2758 2865 
Q 2553 3109 2194 3109 
Q 1922 3109 1687 2981 
Q 1453 2853 1288 2613 
Q 1106 2353 998 2009 
Q 891 1666 891 1350 
z
" transform="scale(0.015625)"/>
      <path id="DejaVuSans-Oblique-6f" d="M 1625 -91 
Q 1009 -91 651 289 
Q 294 669 294 1325 
Q 294 1706 417 2101 
Q 541 2497 738 2766 
Q 1047 3184 1428 3384 
Q 1809 3584 2291 3584 
Q 2888 3584 3255 3212 
Q 3622 2841 3622 2241 
Q 3622 1825 3500 1412 
Q 3378 1000 3181 728 
Q 2875 309 2494 109 
Q 2113 -91 1625 -91 
z
M 891 1344 
Q 891 869 1089 633 
Q 1288 397 1691 397 
Q 2269 397 2648 901 
Q 3028 1406 3028 2181 
Q 3028 2634 2825 2865 
Q 2622 3097 2228 3097 
Q 1903 3097 1650 2945 
Q 1397 2794 1197 2484 
Q 1050 2253 970 1956 
Q 891 1659 891 1344 
z
" transform="scale(0.015625)"/>
     </defs>
     <use xlink:href="#DejaVuSans-Oblique-41"/>
     <use xlink:href="#DejaVuSans-Oblique-6c" transform="translate(68.408203 0)"/>
     <use xlink:href="#DejaVuSans-Oblique-74" transform="translate(96.191406 0)"/>
     <use xlink:href="#DejaVuSans-Oblique-75" transform="translate(135.400391 0)"/>
     <use xlink:href="#DejaVuSans-Oblique-72" transform="translate(198.779297 0)"/>
     <use xlink:href="#DejaVuSans-Oblique-61" transform="translate(239.892578 0)"/>
     <use xlink:href="#DejaVuSans-Oblique-20" transform="translate(301.171875 0)"/>
     <use xlink:href="#DejaVuSans-Oblique-61" transform="translate(332.958984 0)"/>
     <use xlink:href="#DejaVuSans-Oblique-6c" transform="translate(394.238281 0)"/>
     <use xlink:href="#DejaVuSans-Oblique-20" transform="translate(422.021484 0)"/>
     <use xlink:href="#DejaVuSans-Oblique-63" transform="translate(453.808594 0)"/>
     <use xlink:href="#DejaVuSans-Oblique-75" transform="translate(508.789062 0)"/>
     <use xlink:href="#DejaVuSans-Oblique-61" transform="translate(572.167969 0)"/>
     <use xlink:href="#DejaVuSans-Oblique-64" transform="translate(633.447266 0)"/>
     <use xlink:href="#DejaVuSans-Oblique-72" transform="translate(696.923828 0)"/>
     <use xlink:href="#DejaVuSans-Oblique-61" transform="translate(738.037109 0)"/>
     <use xlink:href="#DejaVuSans-Oblique-64" transform="translate(799.316406 0)"/>
     <use xlink:href="#DejaVuSans-Oblique-6f" transform="translate(862.792969 0)"/>
    </g>
   </g>
   <g id="text_13">
    <g id="patch_3">
     <path d="M 593.856 171.514365 
L 644.976 171.514365 
Q 648.576 171.514365 648.576 167.914365 
L 648.576 156.300615 
Q 648.576 152.700615 644.976 152.700615 
L 593.856 152.700615 
Q 590.256 152.700615 590.256 156.300615 
L 590.256 167.914365 
Q 590.256 171.514365 593.856 171.514365 
z
" style="fill: #ffffff; stroke: #d1d5db; stroke-linejoin: miter"/>
    </g>
    <!-- $a^2 = n \cdot c$ -->
    <g style="fill: #1f2937" transform="translate(593.856 165.41874) scale(0.12 -0.12)">
     <use xlink:href="#DejaVuSans-Oblique-61" transform="translate(0 0.765625)"/>
     <use xlink:href="#DejaVuSans-32" transform="translate(65.929193 39.046875) scale(0.7)"/>
     <use xlink:href="#DejaVuSans-3d" transform="translate(132.682122 0.765625)"/>
     <use xlink:href="#DejaVuSans-Oblique-6e" transform="translate(235.953607 0.765625)"/>
     <use xlink:href="#DejaVuSans-22c5" transform="translate(318.814935 0.765625)"/>
     <use xlink:href="#DejaVuSans-Oblique-63" transform="translate(370.084466 0.765625)"/>
    </g>
   </g>
   <g id="text_14">
    <!-- Cateto a² -->
    <g style="fill: #6b7280" transform="translate(593.856 184.97394) scale(0.09 -0.09)">
     <defs>
      <path id="DejaVuSans-Oblique-43" d="M 4447 4306 
L 4319 3641 
Q 4019 3944 3683 4091 
Q 3347 4238 2956 4238 
Q 2422 4238 2017 3981 
Q 1613 3725 1319 3200 
Q 1131 2863 1032 2486 
Q 934 2109 934 1728 
Q 934 1091 1264 756 
Q 1594 422 2222 422 
Q 2656 422 3056 561 
Q 3456 700 3834 978 
L 3688 231 
Q 3316 72 2936 -9 
Q 2556 -91 2175 -91 
Q 1278 -91 773 396 
Q 269 884 269 1753 
Q 269 2309 461 2846 
Q 653 3384 1013 3828 
Q 1394 4300 1883 4525 
Q 2372 4750 3022 4750 
Q 3422 4750 3780 4639 
Q 4138 4528 4447 4306 
z
" transform="scale(0.015625)"/>
      <path id="DejaVuSans-Oblique-65" d="M 3078 2063 
Q 3088 2113 3092 2166 
Q 3097 2219 3097 2272 
Q 3097 2653 2873 2875 
Q 2650 3097 2266 3097 
Q 1838 3097 1509 2826 
Q 1181 2556 1013 2059 
L 3078 2063 
z
M 3578 1613 
L 903 1613 
Q 884 1494 878 1425 
Q 872 1356 872 1306 
Q 872 872 1139 634 
Q 1406 397 1894 397 
Q 2269 397 2603 481 
Q 2938 566 3225 728 
L 3116 159 
Q 2806 34 2476 -28 
Q 2147 -91 1806 -91 
Q 1078 -91 686 257 
Q 294 606 294 1247 
Q 294 1794 489 2264 
Q 684 2734 1063 3103 
Q 1306 3334 1642 3459 
Q 1978 3584 2356 3584 
Q 2950 3584 3301 3228 
Q 3653 2872 3653 2272 
Q 3653 2128 3634 1964 
Q 3616 1800 3578 1613 
z
" transform="scale(0.015625)"/>
      <path id="DejaVuSans-Oblique-b2" d="M 2059 3406 
L 856 2444 
L 2234 2444 
L 2163 2088 
L 231 2088 
L 300 2431 
L 1619 3494 
Q 1803 3638 1893 3772 
Q 1984 3906 1984 4031 
Q 1984 4200 1853 4304 
Q 1722 4409 1503 4409 
Q 1331 4409 1125 4356 
Q 919 4303 659 4191 
L 738 4575 
Q 975 4663 1187 4706 
Q 1400 4750 1600 4750 
Q 1984 4750 2223 4572 
Q 2463 4394 2463 4116 
Q 2463 3922 2363 3745 
Q 2263 3569 2059 3406 
z
" transform="scale(0.015625)"/>
     </defs>
     <use xlink:href="#DejaVuSans-Oblique-43"/>
     <use xlink:href="#DejaVuSans-Oblique-61" transform="translate(69.824219 0)"/>
     <use xlink:href="#DejaVuSans-Oblique-74" transform="translate(131.103516 0)"/>
     <use xlink:href="#DejaVuSans-Oblique-65" transform="translate(170.3125 0)"/>
     <use xlink:href="#DejaVuSans-Oblique-74" transform="translate(231.835938 0)"/>
     <use xlink:href="#DejaVuSans-Oblique-6f" transform="translate(271.044922 0)"/>
     <use xlink:href="#DejaVuSans-Oblique-20" transform="translate(332.226562 0)"/>
     <use xlink:href="#DejaVuSans-Oblique-61" transform="translate(364.013672 0)"/>
     <use xlink:href="#DejaVuSans-Oblique-b2" transform="translate(425.292969 0)"/>
    </g>
   </g>
   <g id="text_15">
    <g id="patch_4">
     <path d="M 593.856 221.799165 
L 649.656 221.799165 
Q 653.256 221.799165 653.256 218.199165 
L 653.256 206.585415 
Q 653.256 202.985415 649.656 202.985415 
L 593.856 202.985415 
Q 590.256 202.985415 590.256 206.585415 
L 590.256 218.199165 
Q 590.256 221.799165 593.856 221.799165 
z
" style="fill: #ffffff; stroke: #d1d5db; stroke-linejoin: miter"/>
    </g>
    <!-- $b^2 = m \cdot c$ -->
    <g style="fill: #1f2937" transform="translate(593.856 215.70354) scale(0.12 -0.12)">
     <defs>
      <path id="DejaVuSans-Oblique-62" d="M 3169 2138 
Q 3169 2591 2961 2847 
Q 2753 3103 2388 3103 
Q 2122 3103 1889 2973 
Q 1656 2844 1484 2597 
Q 1303 2338 1198 1995 
Q 1094 1653 1094 1313 
Q 1094 881 1298 636 
Q 1503 391 1863 391 
Q 2134 391 2365 517 
Q 2597 644 2772 891 
Q 2950 1147 3059 1487 
Q 3169 1828 3169 2138 
z
M 1381 2969 
Q 1594 3256 1914 3420 
Q 2234 3584 2584 3584 
Q 3122 3584 3439 3221 
Q 3756 2859 3756 2241 
Q 3756 1734 3570 1259 
Q 3384 784 3041 416 
Q 2816 172 2522 40 
Q 2228 -91 1906 -91 
Q 1566 -91 1316 65 
Q 1066 222 909 531 
L 806 0 
L 231 0 
L 1178 4863 
L 1753 4863 
L 1381 2969 
z
" transform="scale(0.015625)"/>
     </defs>
     <use xlink:href="#DejaVuSans-Oblique-62" transform="translate(0 0.765625)"/>
     <use xlink:href="#DejaVuSans-32" transform="translate(70.924271 39.046875) scale(0.7)"/>
     <use xlink:href="#DejaVuSans-3d" transform="translate(137.677201 0.765625)"/>
     <use xlink:href="#DejaVuSans-Oblique-6d" transform="translate(240.948685 0.765625)"/>
     <use xlink:href="#DejaVuSans-22c5" transform="translate(357.843216 0.765625)"/>
     <use xlink:href="#DejaVuSans-Oblique-63" transform="translate(409.112747 0.765625)"/>
    </g>
   </g>
   <g id="text_16">
    <!-- Cateto b² -->
    <g style="fill: #6b7280" transform="translate(593.856 235.25874) scale(0.09 -0.09)">
     <use xlink:href="#DejaVuSans-Oblique-43"/>
     <use xlink:href="#DejaVuSans-Oblique-61" transform="translate(69.824219 0)"/>
     <use xlink:href="#DejaVuSans-Oblique-74" transform="translate(131.103516 0)"/>
     <use xlink:href="#DejaVuSans-Oblique-65" transform="translate(170.3125 0)"/>
     <use xlink:href="#DejaVuSans-Oblique-74" transform="translate(231.835938 0)"/>
     <use xlink:href="#DejaVuSans-Oblique-6f" transform="translate(271.044922 0)"/>
     <use xlink:href="#DejaVuSans-Oblique-20" transform="translate(332.226562 0)"/>
     <use xlink:href="#DejaVuSans-Oblique-62" transform="translate(364.013672 0)"/>
     <use xlink:href="#DejaVuSans-Oblique-b2" transform="translate(427.490234 0)"/>
    </g>
   </g>
   <g id="text_17">
    <g id="patch_5">
     <path d="M 593.856 272.083965 
L 654.816 272.083965 
Q 658.416 272.083965 658.416 268.483965 
L 658.416 256.870215 
Q 658.416 253.270215 654.816 253.270215 
L 593.856 253.270215 
Q 590.256 253.270215 590.256 256.870215 
L 590.256 268.483965 
Q 590.256 272.083965 593.856 272.083965 
z
" style="fill: #ffffff; stroke: #d1d5db; stroke-linejoin: miter"/>
    </g>
    <!-- $a \cdot b = c \cdot h$ -->
    <g style="fill: #1f2937" transform="translate(593.856 265.98834) scale(0.12 -0.12)">
     <use xlink:href="#DejaVuSans-Oblique-61" transform="translate(0 0.015625)"/>
     <use xlink:href="#DejaVuSans-22c5" transform="translate(80.761719 0.015625)"/>
     <use xlink:href="#DejaVuSans-Oblique-62" transform="translate(132.03125 0.015625)"/>
     <use xlink:href="#DejaVuSans-3d" transform="translate(214.990234 0.015625)"/>
     <use xlink:href="#DejaVuSans-Oblique-63" transform="translate(318.261719 0.015625)"/>
     <use xlink:href="#DejaVuSans-22c5" transform="translate(392.724609 0.015625)"/>
     <use xlink:href="#DejaVuSans-Oblique-68" transform="translate(443.994141 0.015625)"/>
    </g>
   </g>
   <g id="text_18">
    <!-- Producto de catetos -->
    <g style="fill: #6b7280" transform="translate(593.856 285.54354) scale(0.09 -0.09)">
     <defs>
      <path id="DejaVuSans-Oblique-50" d="M 1081 4666 
L 2541 4666 
Q 3178 4666 3512 4369 
Q 3847 4072 3847 3500 
Q 3847 2731 3353 2303 
Q 2859 1875 1966 1875 
L 1172 1875 
L 806 0 
L 172 0 
L 1081 4666 
z
M 1613 4147 
L 1275 2394 
L 2069 2394 
Q 2606 2394 2893 2669 
Q 3181 2944 3181 3456 
Q 3181 3784 2986 3965 
Q 2791 4147 2438 4147 
L 1613 4147 
z
" transform="scale(0.015625)"/>
      <path id="DejaVuSans-Oblique-73" d="M 3200 3397 
L 3091 2853 
Q 2863 2978 2609 3040 
Q 2356 3103 2088 3103 
Q 1634 3103 1373 2948 
Q 1113 2794 1113 2528 
Q 1113 2219 1719 2053 
Q 1766 2041 1788 2034 
L 1972 1978 
Q 2547 1819 2739 1644 
Q 2931 1469 2931 1166 
Q 2931 609 2489 259 
Q 2047 -91 1331 -91 
Q 1053 -91 747 -37 
Q 441 16 72 128 
L 184 722 
Q 500 559 806 475 
Q 1113 391 1394 391 
Q 1816 391 2080 572 
Q 2344 753 2344 1031 
Q 2344 1331 1650 1516 
L 1591 1531 
L 1394 1581 
Q 956 1697 753 1886 
Q 550 2075 550 2369 
Q 550 2928 970 3256 
Q 1391 3584 2113 3584 
Q 2397 3584 2667 3537 
Q 2938 3491 3200 3397 
z
" transform="scale(0.015625)"/>
     </defs>
     <use xlink:href="#DejaVuSans-Oblique-50"/>
     <use xlink:href="#DejaVuSans-Oblique-72" transform="translate(60.302734 0)"/>
     <use xlink:href="#DejaVuSans-Oblique-6f" transform="translate(101.416016 0)"/>
     <use xlink:href="#DejaVuSans-Oblique-64" transform="translate(162.597656 0)"/>
     <use xlink:href="#DejaVuSans-Oblique-75" transform="translate(226.074219 0)"/>
     <use xlink:href="#DejaVuSans-Oblique-63" transform="translate(289.453125 0)"/>
     <use xlink:href="#DejaVuSans-Oblique-74" transform="translate(344.433594 0)"/>
     <use xlink:href="#DejaVuSans-Oblique-6f" transform="translate(383.642578 0)"/>
     <use xlink:href="#DejaVuSans-Oblique-20" transform="translate(444.824219 0)"/>
     <use xlink:href="#DejaVuSans-Oblique-64" transform="translate(476.611328 0)"/>
     <use xlink:href="#DejaVuSans-Oblique-65" transform="translate(540.087891 0)"/>
     <use xlink:href="#DejaVuSans-Oblique-20" transform="translate(601.611328 0)"/>
     <use xlink:href="#DejaVuSans-Oblique-63" transform="translate(633.398438 0)"/>
     <use xlink:href="#DejaVuSans-Oblique-61" transform="translate(688.378906 0)"/>
     <use xlink:href="#DejaVuSans-Oblique-74" transform="translate(749.658203 0)"/>
     <use xlink:href="#DejaVuSans-Oblique-65" transform="translate(788.867188 0)"/>
     <use xlink:href="#DejaVuSans-Oblique-74" transform="translate(850.390625 0)"/>
     <use xlink:href="#DejaVuSans-Oblique-6f" transform="translate(889.599609 0)"/>
     <use xlink:href="#DejaVuSans-Oblique-73" transform="translate(950.78125 0)"/>
    </g>
   </g>
   <g id="text_19">
    <!-- Proyecciones: -->
    <g style="fill: #374151" transform="translate(593.856 265.98834) scale(0.1 -0.1)">
     <defs>
      <path id="DejaVuSans-Bold-50" d="M 588 4666 
L 2584 4666 
Q 3475 4666 3951 4270 
Q 4428 3875 4428 3144 
Q 4428 2409 3951 2014 
Q 3475 1619 2584 1619 
L 1791 1619 
L 1791 0 
L 588 0 
L 588 4666 
z
M 1791 3794 
L 1791 2491 
L 2456 2491 
Q 2806 2491 2997 2661 
Q 3188 2831 3188 3144 
Q 3188 3456 2997 3625 
Q 2806 3794 2456 3794 
L 1791 3794 
z
" transform="scale(0.015625)"/>
      <path id="DejaVuSans-Bold-72" d="M 3138 2547 
Q 2991 2616 2845 2648 
Q 2700 2681 2553 2681 
Q 2122 2681 1889 2404 
Q 1656 2128 1656 1613 
L 1656 0 
L 538 0 
L 538 3500 
L 1656 3500 
L 1656 2925 
Q 1872 3269 2151 3426 
Q 2431 3584 2822 3584 
Q 2878 3584 2943 3579 
Q 3009 3575 3134 3559 
L 3138 2547 
z
" transform="scale(0.015625)"/>
      <path id="DejaVuSans-Bold-6f" d="M 2203 2784 
Q 1831 2784 1636 2517 
Q 1441 2250 1441 1747 
Q 1441 1244 1636 976 
Q 1831 709 2203 709 
Q 2569 709 2762 976 
Q 2956 1244 2956 1747 
Q 2956 2250 2762 2517 
Q 2569 2784 2203 2784 
z
M 2203 3584 
Q 3106 3584 3614 3096 
Q 4122 2609 4122 1747 
Q 4122 884 3614 396 
Q 3106 -91 2203 -91 
Q 1297 -91 786 396 
Q 275 884 275 1747 
Q 275 2609 786 3096 
Q 1297 3584 2203 3584 
z
" transform="scale(0.015625)"/>
      <path id="DejaVuSans-Bold-79" d="M 78 3500 
L 1197 3500 
L 2138 1125 
L 2938 3500 
L 4056 3500 
L 2584 -331 
Q 2363 -916 2067 -1148 
Q 1772 -1381 1288 -1381 
L 641 -1381 
L 641 -647 
L 991 -647 
Q 1275 -647 1404 -556 
Q 1534 -466 1606 -231 
L 1638 -134 
L 78 3500 
z
" transform="scale(0.015625)"/>
      <path id="DejaVuSans-Bold-65" d="M 4031 1759 
L 4031 1441 
L 1416 1441 
Q 1456 1047 1700 850 
Q 1944 653 2381 653 
Q 2734 653 3104 758 
Q 3475 863 3866 1075 
L 3866 213 
Q 3469 63 3072 -14 
Q 2675 -91 2278 -91 
Q 1328 -91 801 392 
Q 275 875 275 1747 
Q 275 2603 792 3093 
Q 1309 3584 2216 3584 
Q 3041 3584 3536 3087 
Q 4031 2591 4031 1759 
z
M 2881 2131 
Q 2881 2450 2695 2645 
Q 2509 2841 2209 2841 
Q 1884 2841 1681 2658 
Q 1478 2475 1428 2131 
L 2881 2131 
z
" transform="scale(0.015625)"/>
      <path id="DejaVuSans-Bold-63" d="M 3366 3391 
L 3366 2478 
Q 3138 2634 2908 2709 
Q 2678 2784 2431 2784 
Q 1963 2784 1702 2511 
Q 1441 2238 1441 1747 
Q 1441 1256 1702 982 
Q 1963 709 2431 709 
Q 2694 709 2930 787 
Q 3166 866 3366 1019 
L 3366 103 
Q 3103 6 2833 -42 
Q 2563 -91 2291 -91 
Q 1344 -91 809 395 
Q 275 881 275 1747 
Q 275 2613 809 3098 
Q 1344 3584 2291 3584 
Q 2566 3584 2833 3536 
Q 3100 3488 3366 3391 
z
" transform="scale(0.015625)"/>
      <path id="DejaVuSans-Bold-69" d="M 538 3500 
L 1656 3500 
L 1656 0 
L 538 0 
L 538 3500 
z
M 538 4863 
L 1656 4863 
L 1656 3950 
L 538 3950 
L 538 4863 
z
" transform="scale(0.015625)"/>
      <path id="DejaVuSans-Bold-73" d="M 3272 3391 
L 3272 2541 
Q 2913 2691 2578 2766 
Q 2244 2841 1947 2841 
Q 1628 2841 1473 2761 
Q 1319 2681 1319 2516 
Q 1319 2381 1436 2309 
Q 1553 2238 1856 2203 
L 2053 2175 
Q 2913 2066 3209 1816 
Q 3506 1566 3506 1031 
Q 3506 472 3093 190 
Q 2681 -91 1863 -91 
Q 1516 -91 1145 -36 
Q 775 19 384 128 
L 384 978 
Q 719 816 1070 734 
Q 1422 653 1784 653 
Q 2113 653 2278 743 
Q 2444 834 2444 1013 
Q 2444 1163 2330 1236 
Q 2216 1309 1875 1350 
L 1678 1375 
Q 931 1469 631 1722 
Q 331 1975 331 2491 
Q 331 3047 712 3315 
Q 1094 3584 1881 3584 
Q 2191 3584 2531 3537 
Q 2872 3491 3272 3391 
z
" transform="scale(0.015625)"/>
      <path id="DejaVuSans-Bold-3a" d="M 716 3500 
L 1844 3500 
L 1844 2291 
L 716 2291 
L 716 3500 
z
M 716 1209 
L 1844 1209 
L 1844 0 
L 716 0 
L 716 1209 
z
" transform="scale(0.015625)"/>
     </defs>
     <use xlink:href="#DejaVuSans-Bold-50"/>
     <use xlink:href="#DejaVuSans-Bold-72" transform="translate(73.291016 0)"/>
     <use xlink:href="#DejaVuSans-Bold-6f" transform="translate(122.607422 0)"/>
     <use xlink:href="#DejaVuSans-Bold-79" transform="translate(191.308594 0)"/>
     <use xlink:href="#DejaVuSans-Bold-65" transform="translate(256.494141 0)"/>
     <use xlink:href="#DejaVuSans-Bold-63" transform="translate(324.316406 0)"/>
     <use xlink:href="#DejaVuSans-Bold-63" transform="translate(383.59375 0)"/>
     <use xlink:href="#DejaVuSans-Bold-69" transform="translate(442.871094 0)"/>
     <use xlink:href="#DejaVuSans-Bold-6f" transform="translate(477.148438 0)"/>
     <use xlink:href="#DejaVuSans-Bold-6e" transform="translate(545.849609 0)"/>
     <use xlink:href="#DejaVuSans-Bold-65" transform="translate(617.041016 0)"/>
     <use xlink:href="#DejaVuSans-Bold-73" transform="translate(684.863281 0)"/>
     <use xlink:href="#DejaVuSans-Bold-3a" transform="translate(744.384766 0)"/>
    </g>
   </g>
   <g id="text_20">
    <!-- m = proyección de b -->
    <g style="fill: #1f2937" transform="translate(632.9664 291.000578) scale(0.09 -0.09)">
     <defs>
      <path id="DejaVuSans-6d" d="M 3328 2828 
Q 3544 3216 3844 3400 
Q 4144 3584 4550 3584 
Q 5097 3584 5394 3201 
Q 5691 2819 5691 2113 
L 5691 0 
L 5113 0 
L 5113 2094 
Q 5113 2597 4934 2840 
Q 4756 3084 4391 3084 
Q 3944 3084 3684 2787 
Q 3425 2491 3425 1978 
L 3425 0 
L 2847 0 
L 2847 2094 
Q 2847 2600 2669 2842 
Q 2491 3084 2119 3084 
Q 1678 3084 1418 2786 
Q 1159 2488 1159 1978 
L 1159 0 
L 581 0 
L 581 3500 
L 1159 3500 
L 1159 2956 
Q 1356 3278 1631 3431 
Q 1906 3584 2284 3584 
Q 2666 3584 2933 3390 
Q 3200 3197 3328 2828 
z
" transform="scale(0.015625)"/>
      <path id="DejaVuSans-72" d="M 2631 2963 
Q 2534 3019 2420 3045 
Q 2306 3072 2169 3072 
Q 1681 3072 1420 2755 
Q 1159 2438 1159 1844 
L 1159 0 
L 581 0 
L 581 3500 
L 1159 3500 
L 1159 2956 
Q 1341 3275 1631 3429 
Q 1922 3584 2338 3584 
Q 2397 3584 2469 3576 
Q 2541 3569 2628 3553 
L 2631 2963 
z
" transform="scale(0.015625)"/>
      <path id="DejaVuSans-79" d="M 2059 -325 
Q 1816 -950 1584 -1140 
Q 1353 -1331 966 -1331 
L 506 -1331 
L 506 -850 
L 844 -850 
Q 1081 -850 1212 -737 
Q 1344 -625 1503 -206 
L 1606 56 
L 191 3500 
L 800 3500 
L 1894 763 
L 2988 3500 
L 3597 3500 
L 2059 -325 
z
" transform="scale(0.015625)"/>
      <path id="DejaVuSans-f3" d="M 1959 3097 
Q 1497 3097 1228 2736 
Q 959 2375 959 1747 
Q 959 1119 1226 758 
Q 1494 397 1959 397 
Q 2419 397 2687 759 
Q 2956 1122 2956 1747 
Q 2956 2369 2687 2733 
Q 2419 3097 1959 3097 
z
M 1959 3584 
Q 2709 3584 3137 3096 
Q 3566 2609 3566 1747 
Q 3566 888 3137 398 
Q 2709 -91 1959 -91 
Q 1206 -91 779 398 
Q 353 888 353 1747 
Q 353 2609 779 3096 
Q 1206 3584 1959 3584 
z
M 2394 5119 
L 3016 5119 
L 1998 3944 
L 1519 3944 
L 2394 5119 
z
" transform="scale(0.015625)"/>
      <path id="DejaVuSans-64" d="M 2906 2969 
L 2906 4863 
L 3481 4863 
L 3481 0 
L 2906 0 
L 2906 525 
Q 2725 213 2448 61 
Q 2172 -91 1784 -91 
Q 1150 -91 751 415 
Q 353 922 353 1747 
Q 353 2572 751 3078 
Q 1150 3584 1784 3584 
Q 2172 3584 2448 3432 
Q 2725 3281 2906 2969 
z
M 947 1747 
Q 947 1113 1208 752 
Q 1469 391 1925 391 
Q 2381 391 2643 752 
Q 2906 1113 2906 1747 
Q 2906 2381 2643 2742 
Q 2381 3103 1925 3103 
Q 1469 3103 1208 2742 
Q 947 2381 947 1747 
z
" transform="scale(0.015625)"/>
      <path id="DejaVuSans-62" d="M 3116 1747 
Q 3116 2381 2855 2742 
Q 2594 3103 2138 3103 
Q 1681 3103 1420 2742 
Q 1159 2381 1159 1747 
Q 1159 1113 1420 752 
Q 1681 391 2138 391 
Q 2594 391 2855 752 
Q 3116 1113 3116 1747 
z
M 1159 2969 
Q 1341 3281 1617 3432 
Q 1894 3584 2278 3584 
Q 2916 3584 3314 3078 
Q 3713 2572 3713 1747 
Q 3713 922 3314 415 
Q 2916 -91 2278 -91 
Q 1894 -91 1617 61 
Q 1341 213 1159 525 
L 1159 0 
L 581 0 
L 581 4863 
L 1159 4863 
L 1159 2969 
z
" transform="scale(0.015625)"/>
     </defs>
     <use xlink:href="#DejaVuSans-6d"/>
     <use xlink:href="#DejaVuSans-20" transform="translate(97.412109 0)"/>
     <use xlink:href="#DejaVuSans-3d" transform="translate(129.199219 0)"/>
     <use xlink:href="#DejaVuSans-20" transform="translate(212.988281 0)"/>
     <use xlink:href="#DejaVuSans-70" transform="translate(244.775391 0)"/>
     <use xlink:href="#DejaVuSans-72" transform="translate(308.251953 0)"/>
     <use xlink:href="#DejaVuSans-6f" transform="translate(347.115234 0)"/>
     <use xlink:href="#DejaVuSans-79" transform="translate(408.296875 0)"/>
     <use xlink:href="#DejaVuSans-65" transform="translate(467.476562 0)"/>
     <use xlink:href="#DejaVuSans-63" transform="translate(529 0)"/>
     <use xlink:href="#DejaVuSans-63" transform="translate(583.980469 0)"/>
     <use xlink:href="#DejaVuSans-69" transform="translate(638.960938 0)"/>
     <use xlink:href="#DejaVuSans-f3" transform="translate(666.744141 0)"/>
     <use xlink:href="#DejaVuSans-6e" transform="translate(727.925781 0)"/>
     <use xlink:href="#DejaVuSans-20" transform="translate(791.304688 0)"/>
     <use xlink:href="#DejaVuSans-64" transform="translate(823.091797 0)"/>
     <use xlink:href="#DejaVuSans-65" transform="translate(886.568359 0)"/>
     <use xlink:href="#DejaVuSans-20" transform="translate(948.091797 0)"/>
     <use xlink:href="#DejaVuSans-62" transform="translate(979.878906 0)"/>
    </g>
   </g>
   <g id="text_21">
    <!-- n = proyección de a -->
    <g style="fill: #1f2937" transform="translate(632.9664 313.349378) scale(0.09 -0.09)">
     <use xlink:href="#DejaVuSans-6e"/>
     <use xlink:href="#DejaVuSans-20" transform="translate(63.378906 0)"/>
     <use xlink:href="#DejaVuSans-3d" transform="translate(95.166016 0)"/>
     <use xlink:href="#DejaVuSans-20" transform="translate(178.955078 0)"/>
     <use xlink:href="#DejaVuSans-70" transform="translate(210.742188 0)"/>
     <use xlink:href="#DejaVuSans-72" transform="translate(274.21875 0)"/>
     <use xlink:href="#DejaVuSans-6f" transform="translate(313.082031 0)"/>
     <use xlink:href="#DejaVuSans-79" transform="translate(374.263672 0)"/>
     <use xlink:href="#DejaVuSans-65" transform="translate(433.443359 0)"/>
     <use xlink:href="#DejaVuSans-63" transform="translate(494.966797 0)"/>
     <use xlink:href="#DejaVuSans-63" transform="translate(549.947266 0)"/>
     <use xlink:href="#DejaVuSans-69" transform="translate(604.927734 0)"/>
     <use xlink:href="#DejaVuSans-f3" transform="translate(632.710938 0)"/>
     <use xlink:href="#DejaVuSans-6e" transform="translate(693.892578 0)"/>
     <use xlink:href="#DejaVuSans-20" transform="translate(757.271484 0)"/>
     <use xlink:href="#DejaVuSans-64" transform="translate(789.058594 0)"/>
     <use xlink:href="#DejaVuSans-65" transform="translate(852.535156 0)"/>
     <use xlink:href="#DejaVuSans-20" transform="translate(914.058594 0)"/>
     <use xlink:href="#DejaVuSans-61" transform="translate(945.845703 0)"/>
    </g>
   </g>
   <g id="text_22">
    <!-- Relaciones Métricas en el Triángulo Rectángulo -->
    <g style="fill: #1f2937" transform="translate(239.399062 18.397812) scale(0.14 -0.14)">
     <defs>
      <path id="DejaVuSans-Bold-52" d="M 2297 2597 
Q 2675 2597 2839 2737 
Q 3003 2878 3003 3200 
Q 3003 3519 2839 3656 
Q 2675 3794 2297 3794 
L 1791 3794 
L 1791 2597 
L 2297 2597 
z
M 1791 1766 
L 1791 0 
L 588 0 
L 588 4666 
L 2425 4666 
Q 3347 4666 3776 4356 
Q 4206 4047 4206 3378 
Q 4206 2916 3982 2619 
Q 3759 2322 3309 2181 
Q 3556 2125 3751 1926 
Q 3947 1728 4147 1325 
L 4800 0 
L 3519 0 
L 2950 1159 
Q 2778 1509 2601 1637 
Q 2425 1766 2131 1766 
L 1791 1766 
z
" transform="scale(0.015625)"/>
      <path id="DejaVuSans-Bold-6c" d="M 538 4863 
L 1656 4863 
L 1656 0 
L 538 0 
L 538 4863 
z
" transform="scale(0.015625)"/>
      <path id="DejaVuSans-Bold-20" transform="scale(0.015625)"/>
      <path id="DejaVuSans-Bold-4d" d="M 588 4666 
L 2119 4666 
L 3181 2169 
L 4250 4666 
L 5778 4666 
L 5778 0 
L 4641 0 
L 4641 3413 
L 3566 897 
L 2803 897 
L 1728 3413 
L 1728 0 
L 588 0 
L 588 4666 
z
" transform="scale(0.015625)"/>
      <path id="DejaVuSans-Bold-e9" d="M 4031 1759 
L 4031 1441 
L 1416 1441 
Q 1456 1047 1700 850 
Q 1944 653 2381 653 
Q 2734 653 3104 758 
Q 3475 863 3866 1075 
L 3866 213 
Q 3469 63 3072 -14 
Q 2675 -91 2278 -91 
Q 1328 -91 801 392 
Q 275 875 275 1747 
Q 275 2603 792 3093 
Q 1309 3584 2216 3584 
Q 3041 3584 3536 3087 
Q 4031 2591 4031 1759 
z
M 2881 2131 
Q 2881 2450 2695 2645 
Q 2509 2841 2209 2841 
Q 1884 2841 1681 2658 
Q 1478 2475 1428 2131 
L 2881 2131 
z
M 2702 5119 
L 3586 5119 
L 2433 3944 
L 1821 3944 
L 2702 5119 
z
" transform="scale(0.015625)"/>
      <path id="DejaVuSans-Bold-74" d="M 1759 4494 
L 1759 3500 
L 2913 3500 
L 2913 2700 
L 1759 2700 
L 1759 1216 
Q 1759 972 1856 886 
Q 1953 800 2241 800 
L 2816 800 
L 2816 0 
L 1856 0 
Q 1194 0 917 276 
Q 641 553 641 1216 
L 641 2700 
L 84 2700 
L 84 3500 
L 641 3500 
L 641 4494 
L 1759 4494 
z
" transform="scale(0.015625)"/>
      <path id="DejaVuSans-Bold-54" d="M 31 4666 
L 4331 4666 
L 4331 3756 
L 2784 3756 
L 2784 0 
L 1581 0 
L 1581 3756 
L 31 3756 
L 31 4666 
z
" transform="scale(0.015625)"/>
      <path id="DejaVuSans-Bold-e1" d="M 2106 1575 
Q 1756 1575 1579 1456 
Q 1403 1338 1403 1106 
Q 1403 894 1545 773 
Q 1688 653 1941 653 
Q 2256 653 2472 879 
Q 2688 1106 2688 1447 
L 2688 1575 
L 2106 1575 
z
M 3816 1997 
L 3816 0 
L 2688 0 
L 2688 519 
Q 2463 200 2181 54 
Q 1900 -91 1497 -91 
Q 953 -91 614 226 
Q 275 544 275 1050 
Q 275 1666 698 1953 
Q 1122 2241 2028 2241 
L 2688 2241 
L 2688 2328 
Q 2688 2594 2478 2717 
Q 2269 2841 1825 2841 
Q 1466 2841 1156 2769 
Q 847 2697 581 2553 
L 581 3406 
Q 941 3494 1303 3539 
Q 1666 3584 2028 3584 
Q 2975 3584 3395 3211 
Q 3816 2838 3816 1997 
z
M 2606 5119 
L 3490 5119 
L 2337 3944 
L 1725 3944 
L 2606 5119 
z
" transform="scale(0.015625)"/>
      <path id="DejaVuSans-Bold-67" d="M 2919 594 
Q 2688 288 2409 144 
Q 2131 0 1766 0 
Q 1125 0 706 504 
Q 288 1009 288 1791 
Q 288 2575 706 3076 
Q 1125 3578 1766 3578 
Q 2131 3578 2409 3434 
Q 2688 3291 2919 2981 
L 2919 3500 
L 4044 3500 
L 4044 353 
Q 4044 -491 3511 -936 
Q 2978 -1381 1966 -1381 
Q 1638 -1381 1331 -1331 
Q 1025 -1281 716 -1178 
L 716 -306 
Q 1009 -475 1290 -558 
Q 1572 -641 1856 -641 
Q 2406 -641 2662 -400 
Q 2919 -159 2919 353 
L 2919 594 
z
M 2181 2772 
Q 1834 2772 1640 2515 
Q 1447 2259 1447 1791 
Q 1447 1309 1634 1061 
Q 1822 813 2181 813 
Q 2531 813 2725 1069 
Q 2919 1325 2919 1791 
Q 2919 2259 2725 2515 
Q 2531 2772 2181 2772 
z
" transform="scale(0.015625)"/>
      <path id="DejaVuSans-Bold-75" d="M 500 1363 
L 500 3500 
L 1625 3500 
L 1625 3150 
Q 1625 2866 1622 2436 
Q 1619 2006 1619 1863 
Q 1619 1441 1641 1255 
Q 1663 1069 1716 984 
Q 1784 875 1895 815 
Q 2006 756 2150 756 
Q 2500 756 2700 1025 
Q 2900 1294 2900 1772 
L 2900 3500 
L 4019 3500 
L 4019 0 
L 2900 0 
L 2900 506 
Q 2647 200 2364 54 
Q 2081 -91 1741 -91 
Q 1134 -91 817 281 
Q 500 653 500 1363 
z
" transform="scale(0.015625)"/>
     </defs>
     <use xlink:href="#DejaVuSans-Bold-52"/>
     <use xlink:href="#DejaVuSans-Bold-65" transform="translate(77.001953 0)"/>
     <use xlink:href="#DejaVuSans-Bold-6c" transform="translate(144.824219 0)"/>
     <use xlink:href="#DejaVuSans-Bold-61" transform="translate(179.101562 0)"/>
     <use xlink:href="#DejaVuSans-Bold-63" transform="translate(246.582031 0)"/>
     <use xlink:href="#DejaVuSans-Bold-69" transform="translate(305.859375 0)"/>
     <use xlink:href="#DejaVuSans-Bold-6f" transform="translate(340.136719 0)"/>
     <use xlink:href="#DejaVuSans-Bold-6e" transform="translate(408.837891 0)"/>
     <use xlink:href="#DejaVuSans-Bold-65" transform="translate(480.029297 0)"/>
     <use xlink:href="#DejaVuSans-Bold-73" transform="translate(547.851562 0)"/>
     <use xlink:href="#DejaVuSans-Bold-20" transform="translate(607.373047 0)"/>
     <use xlink:href="#DejaVuSans-Bold-4d" transform="translate(642.1875 0)"/>
     <use xlink:href="#DejaVuSans-Bold-e9" transform="translate(741.699219 0)"/>
     <use xlink:href="#DejaVuSans-Bold-74" transform="translate(809.521484 0)"/>
     <use xlink:href="#DejaVuSans-Bold-72" transform="translate(857.324219 0)"/>
     <use xlink:href="#DejaVuSans-Bold-69" transform="translate(906.640625 0)"/>
     <use xlink:href="#DejaVuSans-Bold-63" transform="translate(940.917969 0)"/>
     <use xlink:href="#DejaVuSans-Bold-61" transform="translate(1000.195312 0)"/>
     <use xlink:href="#DejaVuSans-Bold-73" transform="translate(1067.675781 0)"/>
     <use xlink:href="#DejaVuSans-Bold-20" transform="translate(1127.197266 0)"/>
     <use xlink:href="#DejaVuSans-Bold-65" transform="translate(1162.011719 0)"/>
     <use xlink:href="#DejaVuSans-Bold-6e" transform="translate(1229.833984 0)"/>
     <use xlink:href="#DejaVuSans-Bold-20" transform="translate(1301.025391 0)"/>
     <use xlink:href="#DejaVuSans-Bold-65" transform="translate(1335.839844 0)"/>
     <use xlink:href="#DejaVuSans-Bold-6c" transform="translate(1403.662109 0)"/>
     <use xlink:href="#DejaVuSans-Bold-20" transform="translate(1437.939453 0)"/>
     <use xlink:href="#DejaVuSans-Bold-54" transform="translate(1472.753906 0)"/>
     <use xlink:href="#DejaVuSans-Bold-72" transform="translate(1529.966797 0)"/>
     <use xlink:href="#DejaVuSans-Bold-69" transform="translate(1579.283203 0)"/>
     <use xlink:href="#DejaVuSans-Bold-e1" transform="translate(1613.560547 0)"/>
     <use xlink:href="#DejaVuSans-Bold-6e" transform="translate(1681.041016 0)"/>
     <use xlink:href="#DejaVuSans-Bold-67" transform="translate(1752.232422 0)"/>
     <use xlink:href="#DejaVuSans-Bold-75" transform="translate(1823.814453 0)"/>
     <use xlink:href="#DejaVuSans-Bold-6c" transform="translate(1895.005859 0)"/>
     <use xlink:href="#DejaVuSans-Bold-6f" transform="translate(1929.283203 0)"/>
     <use xlink:href="#DejaVuSans-Bold-20" transform="translate(1997.984375 0)"/>
     <use xlink:href="#DejaVuSans-Bold-52" transform="translate(2032.798828 0)"/>
     <use xlink:href="#DejaVuSans-Bold-65" transform="translate(2109.800781 0)"/>
     <use xlink:href="#DejaVuSans-Bold-63" transform="translate(2177.623047 0)"/>
     <use xlink:href="#DejaVuSans-Bold-74" transform="translate(2236.900391 0)"/>
     <use xlink:href="#DejaVuSans-Bold-e1" transform="translate(2284.703125 0)"/>
     <use xlink:href="#DejaVuSans-Bold-6e" transform="translate(2352.183594 0)"/>
     <use xlink:href="#DejaVuSans-Bold-67" transform="translate(2423.375 0)"/>
     <use xlink:href="#DejaVuSans-Bold-75" transform="translate(2494.957031 0)"/>
     <use xlink:href="#DejaVuSans-Bold-6c" transform="translate(2566.148438 0)"/>
     <use xlink:href="#DejaVuSans-Bold-6f" transform="translate(2600.425781 0)"/>
    </g>
   </g>
  </g>
 </g>
 <defs>
  <clipPath id="pd36f2ff000">
   <rect x="7.2" y="31.32594" width="838.08" height="346.4064"/>
  </clipPath>
 </defs>
</svg>
