<?xml version="1.0" encoding="utf-8" standalone="no"?>
<!DOCTYPE svg PUBLIC "-//W3C//DTD SVG 1.1//EN"
  "http://www.w3.org/Graphics/SVG/1.1/DTD/svg11.dtd">
<svg xmlns:xlink="http://www.w3.org/1999/xlink" width="883.817492pt" height="512.39952pt" viewBox="0 0 883.817492 512.39952" xmlns="http://www.w3.org/2000/svg" version="1.1">
 <metadata>
  <rdf:RDF xmlns:dc="http://purl.org/dc/elements/1.1/" xmlns:cc="http://creativecommons.org/ns#" xmlns:rdf="http://www.w3.org/1999/02/22-rdf-syntax-ns#">
   <cc:Work>
    <dc:type rdf:resource="http://purl.org/dc/dcmitype/StillImage"/>
    <dc:date>2026-01-03T21:56:56.140263</dc:date>
    <dc:format>image/svg+xml</dc:format>
    <dc:creator>
     <cc:Agent>
      <dc:title>Repositorio Matemáticas Universitarias</dc:title>
     </cc:Agent>
    </dc:creator>
   </cc:Work>
  </rdf:RDF>
 </metadata>
 <defs>
  <style type="text/css">*{stroke-linejoin: round; stroke-linecap: butt}</style>
 </defs>
 <g id="figure_1">
  <g id="patch_1">
   <path d="M 0 512.39952 
L 883.817492 512.39952 
L 883.817492 0 
L 0 0 
z
" style="fill: #ffffff"/>
  </g>
  <g id="axes_1">
   <g id="patch_2">
    <path d="M 188.888866 232.666221 
L 310.840071 188.279612 
L 309.525931 184.823081 
L 308.113843 181.405395 
L 306.604954 178.029329 
L 305.000489 174.697623 
L 303.301751 171.412983 
L 301.510118 168.178076 
L 299.627046 164.995528 
L 297.654064 161.867923 
L 295.592773 158.7978 
L 293.444847 155.787653 
L 291.21203 152.839926 
L 288.896135 149.95701 
L 286.499042 147.141248 
L 284.022697 144.394926 
L 281.469111 141.720272 
L 278.840358 139.11946 
L 276.138571 136.5946 
L 273.365944 134.147742 
L 270.524728 131.780874 
L 267.617231 129.495916 
L 264.645813 127.294724 
L 261.612886 125.179086 
L 258.520913 123.150718 
L 255.372405 121.211268 
L 252.169917 119.362311 
L 248.91605 117.605348 
L 245.613446 115.941804 
L 242.264786 114.373032 
L 238.872789 112.900304 
L 235.440209 111.524817 
L 231.969833 110.247686 
L 228.464478 109.06995 
L 224.926992 107.992564 
L 221.360245 107.016403 
L 217.767135 106.142259 
L 214.150577 105.370843 
L 210.513509 104.70278 
L 206.858884 104.138614 
L 203.189668 103.678801 
L 199.508841 103.323716 
L 195.819392 103.073647 
L 192.124315 102.928797 
L 188.426612 102.889283 
L 184.729284 102.955137 
L 181.035333 103.126307 
L 177.347759 103.402652 
L 173.669555 103.783949 
L 170.003708 104.269889 
L 166.353194 104.860075 
z
" clip-path="url(#pdf78c91fbf)" style="fill: #2563eb; opacity: 0.4; stroke: #2563eb; stroke-linejoin: miter"/>
   </g>
   <g id="line2d_1">
    <path d="M 318.666627 232.666221 
L 318.405343 224.435207 
L 317.622541 216.237336 
L 316.321374 208.105618 
L 314.507082 200.072797 
L 312.186969 192.171219 
L 309.370378 184.432699 
L 306.068651 176.888399 
L 302.295082 169.568697 
L 298.064866 162.503066 
L 293.395037 155.719957 
L 288.304399 149.246684 
L 282.813449 143.109312 
L 276.944299 137.332553 
L 270.72058 131.93967 
L 264.167353 126.952377 
L 257.311007 122.390757 
L 250.179149 118.273177 
L 242.800496 114.616217 
L 235.204761 111.434603 
L 227.422528 108.741146 
L 219.485133 106.546691 
L 211.424538 104.860075 
L 203.273199 103.68809 
L 195.063941 103.035454 
L 186.829817 102.904795 
L 178.603984 103.29664 
L 170.419565 104.20941 
L 162.309515 105.639431 
L 154.306491 107.580943 
L 146.442718 110.02613 
L 138.74986 112.965145 
L 131.258895 116.386155 
L 123.999985 120.275383 
L 117.00236 124.617169 
L 110.294197 129.394031 
L 103.902506 134.586733 
L 97.853025 140.174367 
L 92.170114 146.134433 
L 86.876655 152.442932 
L 81.993963 159.074461 
L 77.541699 166.002319 
L 73.537791 173.198609 
L 69.998361 180.634354 
L 66.937661 188.279612 
L 64.368016 196.1036 
L 62.299772 204.074813 
L 60.741257 212.161154 
L 59.698748 220.33006 
L 59.176442 228.548641 
L 59.176442 236.783801 
L 59.698748 245.002382 
L 60.741257 253.171288 
L 62.299772 261.257629 
L 64.368016 269.228842 
L 66.937661 277.05283 
L 69.998361 284.698088 
L 73.537791 292.133833 
L 77.541699 299.330123 
L 81.993963 306.257981 
L 86.876655 312.88951 
L 92.170114 319.198009 
L 97.853025 325.158075 
L 103.902506 330.745709 
L 110.294197 335.938411 
L 117.00236 340.715273 
L 123.999985 345.057059 
L 131.258895 348.946287 
L 138.74986 352.367297 
L 146.442718 355.306312 
L 154.306491 357.751499 
L 162.309515 359.693011 
L 170.419565 361.123032 
L 178.603984 362.035802 
L 186.829817 362.427647 
L 195.063941 362.296988 
L 203.273199 361.644352 
L 211.424538 360.472367 
L 219.485133 358.785751 
L 227.422528 356.591296 
L 235.204761 353.897839 
L 242.800496 350.716225 
L 250.179149 347.059265 
L 257.311007 342.941685 
L 264.167353 338.380065 
L 270.72058 333.392772 
L 276.944299 327.999889 
L 282.813449 322.22313 
L 288.304399 316.085758 
L 293.395037 309.612485 
L 298.064866 302.829376 
L 302.295082 295.763745 
L 306.068651 288.444043 
L 309.370378 280.899743 
L 312.186969 273.161223 
L 314.507082 265.259645 
L 316.321374 257.226824 
L 317.622541 249.095106 
L 318.405343 240.897235 
L 318.666627 232.666221 
" clip-path="url(#pdf78c91fbf)" style="fill: none; stroke: #d1d5db; stroke-width: 1.5; stroke-linecap: square"/>
   </g>
   <g id="line2d_2">
    <path d="M 310.840071 188.279612 
L 309.525931 184.823081 
L 308.113843 181.405395 
L 306.604954 178.029329 
L 305.000489 174.697623 
L 303.301751 171.412983 
L 301.510118 168.178076 
L 299.627046 164.995528 
L 297.654064 161.867923 
L 295.592773 158.7978 
L 293.444847 155.787653 
L 291.21203 152.839926 
L 288.896135 149.95701 
L 286.499042 147.141248 
L 284.022697 144.394926 
L 281.469111 141.720272 
L 278.840358 139.11946 
L 276.138571 136.5946 
L 273.365944 134.147742 
L 270.524728 131.780874 
L 267.617231 129.495916 
L 264.645813 127.294724 
L 261.612886 125.179086 
L 258.520913 123.150718 
L 255.372405 121.211268 
L 252.169917 119.362311 
L 248.91605 117.605348 
L 245.613446 115.941804 
L 242.264786 114.373032 
L 238.872789 112.900304 
L 235.440209 111.524817 
L 231.969833 110.247686 
L 228.464478 109.06995 
L 224.926992 107.992564 
L 221.360245 107.016403 
L 217.767135 106.142259 
L 214.150577 105.370843 
L 210.513509 104.70278 
L 206.858884 104.138614 
L 203.189668 103.678801 
L 199.508841 103.323716 
L 195.819392 103.073647 
L 192.124315 102.928797 
L 188.426612 102.889283 
L 184.729284 102.955137 
L 181.035333 103.126307 
L 177.347759 103.402652 
L 173.669555 103.783949 
L 170.003708 104.269889 
L 166.353194 104.860075 
" clip-path="url(#pdf78c91fbf)" style="fill: none; stroke: #2563eb; stroke-width: 3; stroke-linecap: square"/>
   </g>
   <g id="line2d_3">
    <path d="M 188.888866 232.666221 
L 310.840071 188.279612 
" clip-path="url(#pdf78c91fbf)" style="fill: none; stroke: #dc2626; stroke-width: 2.5; stroke-linecap: square"/>
   </g>
   <g id="line2d_4">
    <path d="M 188.888866 232.666221 
L 166.353194 104.860075 
" clip-path="url(#pdf78c91fbf)" style="fill: none; stroke: #dc2626; stroke-width: 2.5; stroke-linecap: square"/>
   </g>
   <g id="line2d_5">
    <defs>
     <path id="mc46067d609" d="M 0 3 
C 0.795609 3 1.55874 2.683901 2.12132 2.12132 
C 2.683901 1.55874 3 0.795609 3 0 
C 3 -0.795609 2.683901 -1.55874 2.12132 -2.12132 
C 1.55874 -2.683901 0.795609 -3 0 -3 
C -0.795609 -3 -1.55874 -2.683901 -2.12132 -2.12132 
C -2.683901 -1.55874 -3 -0.795609 -3 0 
C -3 0.795609 -2.683901 1.55874 -2.12132 2.12132 
C -1.55874 2.683901 -0.795609 3 0 3 
z
" style="stroke: #374151"/>
    </defs>
    <g clip-path="url(#pdf78c91fbf)">
     <use xlink:href="#mc46067d609" x="188.888866" y="232.666221" style="fill: #374151; stroke: #374151"/>
    </g>
   </g>
   <g id="line2d_6">
    <path d="M 213.279107 223.788899 
L 212.823591 222.625323 
L 212.312602 221.485019 
L 211.747324 220.370629 
L 211.129067 219.284736 
L 210.459265 218.229857 
L 209.739469 217.208438 
L 208.971347 216.222844 
L 208.156681 215.275362 
L 207.297359 214.368186 
L 206.395371 213.503419 
L 205.452808 212.683065 
L 204.471855 211.909026 
L 203.454786 211.183096 
L 202.403958 210.506957 
L 201.321806 209.882176 
L 200.210838 209.310202 
L 199.073629 208.792359 
L 197.912816 208.329849 
L 196.731087 207.923742 
L 195.531183 207.574981 
L 194.315884 207.284374 
L 193.088007 207.052594 
L 191.850398 206.880178 
L 190.605924 206.767526 
L 189.357471 206.714899 
L 188.107932 206.722419 
L 186.860203 206.790069 
L 185.617176 206.917692 
L 184.381732 207.104992 
" clip-path="url(#pdf78c91fbf)" style="fill: none; stroke: #059669; stroke-width: 2; stroke-linecap: square"/>
   </g>
   <g id="text_1">
    <g id="patch_3">
     <path d="M 198.622198 258.764985 
L 207.973917 258.764985 
Q 209.073917 258.764985 209.073917 257.664985 
L 209.073917 247.019048 
Q 209.073917 245.919048 207.973917 245.919048 
L 198.622198 245.919048 
Q 197.522198 245.919048 197.522198 247.019048 
L 197.522198 257.664985 
Q 197.522198 258.764985 198.622198 258.764985 
z
" style="fill: #ffffff; opacity: 0.8"/>
    </g>
    <!-- O -->
    <g style="fill: #1f2937" transform="translate(198.622198 255.377329) scale(0.11 -0.11)">
     <defs>
      <path id="DejaVuSans-Bold-4f" d="M 2719 3878 
Q 2169 3878 1866 3472 
Q 1563 3066 1563 2328 
Q 1563 1594 1866 1187 
Q 2169 781 2719 781 
Q 3272 781 3575 1187 
Q 3878 1594 3878 2328 
Q 3878 3066 3575 3472 
Q 3272 3878 2719 3878 
z
M 2719 4750 
Q 3844 4750 4481 4106 
Q 5119 3463 5119 2328 
Q 5119 1197 4481 553 
Q 3844 -91 2719 -91 
Q 1597 -91 958 553 
Q 319 1197 319 2328 
Q 319 3463 958 4106 
Q 1597 4750 2719 4750 
z
" transform="scale(0.015625)"/>
     </defs>
     <use xlink:href="#DejaVuSans-Bold-4f"/>
    </g>
   </g>
   <g id="text_2">
    <g id="patch_4">
     <path d="M 224.57775 201.288899 
L 234.196188 201.288899 
Q 235.596188 201.288899 235.596188 199.888899 
L 235.596188 186.339524 
Q 235.596188 184.939524 234.196188 184.939524 
L 224.57775 184.939524 
Q 223.17775 184.939524 223.17775 186.339524 
L 223.17775 199.888899 
Q 223.17775 201.288899 224.57775 201.288899 
z
" style="fill: #ffffff; opacity: 0.8"/>
    </g>
    <!-- θ -->
    <g style="fill: #059669" transform="translate(224.57775 196.977337) scale(0.14 -0.14)">
     <defs>
      <path id="DejaVuSans-Bold-3b8" d="M 1447 2081 
Q 1469 1444 1638 1181 
Q 1922 728 2197 725 
Q 2475 722 2763 1181 
Q 2931 1453 2953 2081 
L 1447 2081 
z
M 2950 2881 
Q 2913 3394 2759 3688 
Q 2522 4144 2200 4144 
Q 1875 4144 1641 3688 
Q 1484 3384 1450 2881 
L 2950 2881 
z
M 2200 4913 
Q 3247 4913 3686 4231 
Q 4125 3550 4125 2403 
Q 4125 1256 3673 592 
Q 3222 -72 2200 -72 
Q 1178 -72 726 592 
Q 275 1256 275 2403 
Q 275 3550 714 4231 
Q 1153 4913 2200 4913 
z
" transform="scale(0.015625)"/>
     </defs>
     <use xlink:href="#DejaVuSans-Bold-3b8"/>
    </g>
   </g>
   <g id="text_3">
    <g id="patch_5">
     <path d="M 254.51646 101.876903 
L 278.994585 101.876903 
Q 280.994585 101.876903 280.994585 99.876903 
L 280.994585 90.198778 
Q 280.994585 88.198778 278.994585 88.198778 
L 254.51646 88.198778 
Q 252.51646 88.198778 252.51646 90.198778 
L 252.51646 99.876903 
Q 252.51646 101.876903 254.51646 101.876903 
z
" style="fill: #ffffff; opacity: 0.8"/>
    </g>
    <!-- arco -->
    <g style="fill: #2563eb" transform="translate(254.51646 97.797215) scale(0.1 -0.1)">
     <defs>
      <path id="DejaVuSans-Bold-61" d="M 2106 1575 
Q 1756 1575 1579 1456 
Q 1403 1338 1403 1106 
Q 1403 894 1545 773 
Q 1688 653 1941 653 
Q 2256 653 2472 879 
Q 2688 1106 2688 1447 
L 2688 1575 
L 2106 1575 
z
M 3816 1997 
L 3816 0 
L 2688 0 
L 2688 519 
Q 2463 200 2181 54 
Q 1900 -91 1497 -91 
Q 953 -91 614 226 
Q 275 544 275 1050 
Q 275 1666 698 1953 
Q 1122 2241 2028 2241 
L 2688 2241 
L 2688 2328 
Q 2688 2594 2478 2717 
Q 2269 2841 1825 2841 
Q 1466 2841 1156 2769 
Q 847 2697 581 2553 
L 581 3406 
Q 941 3494 1303 3539 
Q 1666 3584 2028 3584 
Q 2975 3584 3395 3211 
Q 3816 2838 3816 1997 
z
" transform="scale(0.015625)"/>
      <path id="DejaVuSans-Bold-72" d="M 3138 2547 
Q 2991 2616 2845 2648 
Q 2700 2681 2553 2681 
Q 2122 2681 1889 2404 
Q 1656 2128 1656 1613 
L 1656 0 
L 538 0 
L 538 3500 
L 1656 3500 
L 1656 2925 
Q 1872 3269 2151 3426 
Q 2431 3584 2822 3584 
Q 2878 3584 2943 3579 
Q 3009 3575 3134 3559 
L 3138 2547 
z
" transform="scale(0.015625)"/>
      <path id="DejaVuSans-Bold-63" d="M 3366 3391 
L 3366 2478 
Q 3138 2634 2908 2709 
Q 2678 2784 2431 2784 
Q 1963 2784 1702 2511 
Q 1441 2238 1441 1747 
Q 1441 1256 1702 982 
Q 1963 709 2431 709 
Q 2694 709 2930 787 
Q 3166 866 3366 1019 
L 3366 103 
Q 3103 6 2833 -42 
Q 2563 -91 2291 -91 
Q 1344 -91 809 395 
Q 275 881 275 1747 
Q 275 2613 809 3098 
Q 1344 3584 2291 3584 
Q 2566 3584 2833 3536 
Q 3100 3488 3366 3391 
z
" transform="scale(0.015625)"/>
      <path id="DejaVuSans-Bold-6f" d="M 2203 2784 
Q 1831 2784 1636 2517 
Q 1441 2250 1441 1747 
Q 1441 1244 1636 976 
Q 1831 709 2203 709 
Q 2569 709 2762 976 
Q 2956 1244 2956 1747 
Q 2956 2250 2762 2517 
Q 2569 2784 2203 2784 
z
M 2203 3584 
Q 3106 3584 3614 3096 
Q 4122 2609 4122 1747 
Q 4122 884 3614 396 
Q 3106 -91 2203 -91 
Q 1297 -91 786 396 
Q 275 884 275 1747 
Q 275 2609 786 3096 
Q 1297 3584 2203 3584 
z
" transform="scale(0.015625)"/>
     </defs>
     <use xlink:href="#DejaVuSans-Bold-61"/>
     <use xlink:href="#DejaVuSans-Bold-72" transform="translate(67.480469 0)"/>
     <use xlink:href="#DejaVuSans-Bold-63" transform="translate(116.796875 0)"/>
     <use xlink:href="#DejaVuSans-Bold-6f" transform="translate(176.074219 0)"/>
    </g>
   </g>
   <g id="text_4">
    <g id="patch_6">
     <path d="M 255.962029 224.926987 
L 261.879529 224.926987 
Q 263.079529 224.926987 263.079529 223.726987 
L 263.079529 212.113237 
Q 263.079529 210.913237 261.879529 210.913237 
L 255.962029 210.913237 
Q 254.762029 210.913237 254.762029 212.113237 
L 254.762029 223.726987 
Q 254.762029 224.926987 255.962029 224.926987 
z
" style="fill: #ffffff; opacity: 0.8"/>
    </g>
    <!-- r -->
    <g style="fill: #dc2626" transform="translate(255.962029 221.231362) scale(0.12 -0.12)">
     <use xlink:href="#DejaVuSans-Bold-72"/>
    </g>
   </g>
   <g id="text_5">
    <g id="patch_7">
     <path d="M 139.663866 478.128457 
L 238.113866 478.128457 
Q 243.613866 478.128457 243.613866 472.628457 
L 243.613866 427.332863 
Q 243.613866 421.832863 238.113866 421.832863 
L 139.663866 421.832863 
Q 134.163866 421.832863 134.163866 427.332863 
L 134.163866 472.628457 
Q 134.163866 478.128457 139.663866 478.128457 
z
" style="fill: #f8fafc; opacity: 0.95; stroke: #e2e8f0; stroke-linejoin: miter"/>
    </g>
    <!-- Área: $A = \frac{\theta}{360°} \cdot \pi r^2$ -->
    <g style="fill: #1f2937" transform="translate(139.663866 438.222863) scale(0.11 -0.11)">
     <defs>
      <path id="DejaVuSans-c1" d="M 2188 4044 
L 1331 1722 
L 3047 1722 
L 2188 4044 
z
M 1831 4666 
L 2547 4666 
L 4325 0 
L 3669 0 
L 3244 1197 
L 1141 1197 
L 716 0 
L 50 0 
L 1831 4666 
z
M 2356 5921 
L 2934 5921 
L 2222 5096 
L 1743 5096 
L 2356 5921 
z
" transform="scale(0.015625)"/>
      <path id="DejaVuSans-72" d="M 2631 2963 
Q 2534 3019 2420 3045 
Q 2306 3072 2169 3072 
Q 1681 3072 1420 2755 
Q 1159 2438 1159 1844 
L 1159 0 
L 581 0 
L 581 3500 
L 1159 3500 
L 1159 2956 
Q 1341 3275 1631 3429 
Q 1922 3584 2338 3584 
Q 2397 3584 2469 3576 
Q 2541 3569 2628 3553 
L 2631 2963 
z
" transform="scale(0.015625)"/>
      <path id="DejaVuSans-65" d="M 3597 1894 
L 3597 1613 
L 953 1613 
Q 991 1019 1311 708 
Q 1631 397 2203 397 
Q 2534 397 2845 478 
Q 3156 559 3463 722 
L 3463 178 
Q 3153 47 2828 -22 
Q 2503 -91 2169 -91 
Q 1331 -91 842 396 
Q 353 884 353 1716 
Q 353 2575 817 3079 
Q 1281 3584 2069 3584 
Q 2775 3584 3186 3129 
Q 3597 2675 3597 1894 
z
M 3022 2063 
Q 3016 2534 2758 2815 
Q 2500 3097 2075 3097 
Q 1594 3097 1305 2825 
Q 1016 2553 972 2059 
L 3022 2063 
z
" transform="scale(0.015625)"/>
      <path id="DejaVuSans-61" d="M 2194 1759 
Q 1497 1759 1228 1600 
Q 959 1441 959 1056 
Q 959 750 1161 570 
Q 1363 391 1709 391 
Q 2188 391 2477 730 
Q 2766 1069 2766 1631 
L 2766 1759 
L 2194 1759 
z
M 3341 1997 
L 3341 0 
L 2766 0 
L 2766 531 
Q 2569 213 2275 61 
Q 1981 -91 1556 -91 
Q 1019 -91 701 211 
Q 384 513 384 1019 
Q 384 1609 779 1909 
Q 1175 2209 1959 2209 
L 2766 2209 
L 2766 2266 
Q 2766 2663 2505 2880 
Q 2244 3097 1772 3097 
Q 1472 3097 1187 3025 
Q 903 2953 641 2809 
L 641 3341 
Q 956 3463 1253 3523 
Q 1550 3584 1831 3584 
Q 2591 3584 2966 3190 
Q 3341 2797 3341 1997 
z
" transform="scale(0.015625)"/>
      <path id="DejaVuSans-3a" d="M 750 794 
L 1409 794 
L 1409 0 
L 750 0 
L 750 794 
z
M 750 3309 
L 1409 3309 
L 1409 2516 
L 750 2516 
L 750 3309 
z
" transform="scale(0.015625)"/>
      <path id="DejaVuSans-20" transform="scale(0.015625)"/>
      <path id="DejaVuSans-Oblique-41" d="M 2356 4666 
L 3072 4666 
L 3938 0 
L 3278 0 
L 3084 1197 
L 984 1197 
L 325 0 
L -341 0 
L 2356 4666 
z
M 2584 4044 
L 1275 1722 
L 2988 1722 
L 2584 4044 
z
" transform="scale(0.015625)"/>
      <path id="DejaVuSans-3d" d="M 678 2906 
L 4684 2906 
L 4684 2381 
L 678 2381 
L 678 2906 
z
M 678 1631 
L 4684 1631 
L 4684 1100 
L 678 1100 
L 678 1631 
z
" transform="scale(0.015625)"/>
      <path id="DejaVuSans-Oblique-3b8" d="M 2913 2219 
L 925 2219 
Q 791 1284 928 888 
Q 1100 400 1566 400 
Q 2034 400 2391 891 
Q 2703 1322 2913 2219 
z
M 3009 2750 
Q 3094 3638 2984 3950 
Q 2813 4444 2353 4444 
Q 1875 4444 1525 3956 
Q 1250 3563 1034 2750 
L 3009 2750 
z
M 2444 4913 
Q 3194 4913 3494 4250 
Q 3794 3591 3566 2422 
Q 3341 1256 2781 594 
Q 2225 -72 1475 -72 
Q 722 -72 425 594 
Q 128 1256 353 2422 
Q 581 3591 1134 4250 
Q 1691 4913 2444 4913 
z
" transform="scale(0.015625)"/>
      <path id="DejaVuSans-33" d="M 2597 2516 
Q 3050 2419 3304 2112 
Q 3559 1806 3559 1356 
Q 3559 666 3084 287 
Q 2609 -91 1734 -91 
Q 1441 -91 1130 -33 
Q 819 25 488 141 
L 488 750 
Q 750 597 1062 519 
Q 1375 441 1716 441 
Q 2309 441 2620 675 
Q 2931 909 2931 1356 
Q 2931 1769 2642 2001 
Q 2353 2234 1838 2234 
L 1294 2234 
L 1294 2753 
L 1863 2753 
Q 2328 2753 2575 2939 
Q 2822 3125 2822 3475 
Q 2822 3834 2567 4026 
Q 2313 4219 1838 4219 
Q 1578 4219 1281 4162 
Q 984 4106 628 3988 
L 628 4550 
Q 988 4650 1302 4700 
Q 1616 4750 1894 4750 
Q 2613 4750 3031 4423 
Q 3450 4097 3450 3541 
Q 3450 3153 3228 2886 
Q 3006 2619 2597 2516 
z
" transform="scale(0.015625)"/>
      <path id="DejaVuSans-36" d="M 2113 2584 
Q 1688 2584 1439 2293 
Q 1191 2003 1191 1497 
Q 1191 994 1439 701 
Q 1688 409 2113 409 
Q 2538 409 2786 701 
Q 3034 994 3034 1497 
Q 3034 2003 2786 2293 
Q 2538 2584 2113 2584 
z
M 3366 4563 
L 3366 3988 
Q 3128 4100 2886 4159 
Q 2644 4219 2406 4219 
Q 1781 4219 1451 3797 
Q 1122 3375 1075 2522 
Q 1259 2794 1537 2939 
Q 1816 3084 2150 3084 
Q 2853 3084 3261 2657 
Q 3669 2231 3669 1497 
Q 3669 778 3244 343 
Q 2819 -91 2113 -91 
Q 1303 -91 875 529 
Q 447 1150 447 2328 
Q 447 3434 972 4092 
Q 1497 4750 2381 4750 
Q 2619 4750 2861 4703 
Q 3103 4656 3366 4563 
z
" transform="scale(0.015625)"/>
      <path id="DejaVuSans-30" d="M 2034 4250 
Q 1547 4250 1301 3770 
Q 1056 3291 1056 2328 
Q 1056 1369 1301 889 
Q 1547 409 2034 409 
Q 2525 409 2770 889 
Q 3016 1369 3016 2328 
Q 3016 3291 2770 3770 
Q 2525 4250 2034 4250 
z
M 2034 4750 
Q 2819 4750 3233 4129 
Q 3647 3509 3647 2328 
Q 3647 1150 3233 529 
Q 2819 -91 2034 -91 
Q 1250 -91 836 529 
Q 422 1150 422 2328 
Q 422 3509 836 4129 
Q 1250 4750 2034 4750 
z
" transform="scale(0.015625)"/>
      <path id="DejaVuSans-b0" d="M 1600 4347 
Q 1350 4347 1178 4173 
Q 1006 4000 1006 3750 
Q 1006 3503 1178 3333 
Q 1350 3163 1600 3163 
Q 1850 3163 2022 3333 
Q 2194 3503 2194 3750 
Q 2194 3997 2020 4172 
Q 1847 4347 1600 4347 
z
M 1600 4750 
Q 1800 4750 1984 4673 
Q 2169 4597 2303 4453 
Q 2447 4313 2519 4134 
Q 2591 3956 2591 3750 
Q 2591 3338 2302 3052 
Q 2013 2766 1594 2766 
Q 1172 2766 890 3047 
Q 609 3328 609 3750 
Q 609 4169 896 4459 
Q 1184 4750 1600 4750 
z
" transform="scale(0.015625)"/>
      <path id="DejaVuSans-22c5" d="M 684 2619 
L 1344 2619 
L 1344 1825 
L 684 1825 
L 684 2619 
z
" transform="scale(0.015625)"/>
      <path id="DejaVuSans-Oblique-3c0" d="M 584 3500 
L 3938 3500 
L 3825 2925 
L 3384 2925 
L 2966 775 
Q 2922 550 2981 450 
Q 3038 353 3209 353 
Q 3256 353 3325 363 
Q 3397 369 3419 372 
L 3338 -44 
Q 3222 -84 3103 -103 
Q 2981 -122 2866 -122 
Q 2491 -122 2388 81 
Q 2284 288 2391 838 
L 2797 2925 
L 1506 2925 
L 938 0 
L 350 0 
L 919 2925 
L 472 2925 
L 584 3500 
z
" transform="scale(0.015625)"/>
      <path id="DejaVuSans-Oblique-72" d="M 2853 2969 
Q 2766 3016 2653 3041 
Q 2541 3066 2413 3066 
Q 1953 3066 1609 2717 
Q 1266 2369 1153 1784 
L 800 0 
L 225 0 
L 909 3500 
L 1484 3500 
L 1375 2956 
Q 1603 3259 1920 3421 
Q 2238 3584 2597 3584 
Q 2691 3584 2781 3573 
Q 2872 3563 2963 3538 
L 2853 2969 
z
" transform="scale(0.015625)"/>
      <path id="DejaVuSans-32" d="M 1228 531 
L 3431 531 
L 3431 0 
L 469 0 
L 469 531 
Q 828 903 1448 1529 
Q 2069 2156 2228 2338 
Q 2531 2678 2651 2914 
Q 2772 3150 2772 3378 
Q 2772 3750 2511 3984 
Q 2250 4219 1831 4219 
Q 1534 4219 1204 4116 
Q 875 4013 500 3803 
L 500 4441 
Q 881 4594 1212 4672 
Q 1544 4750 1819 4750 
Q 2544 4750 2975 4387 
Q 3406 4025 3406 3419 
Q 3406 3131 3298 2873 
Q 3191 2616 2906 2266 
Q 2828 2175 2409 1742 
Q 1991 1309 1228 531 
z
" transform="scale(0.015625)"/>
     </defs>
     <use xlink:href="#DejaVuSans-c1" transform="translate(0 0.679688)"/>
     <use xlink:href="#DejaVuSans-72" transform="translate(68.408203 0.679688)"/>
     <use xlink:href="#DejaVuSans-65" transform="translate(109.521484 0.679688)"/>
     <use xlink:href="#DejaVuSans-61" transform="translate(171.044922 0.679688)"/>
     <use xlink:href="#DejaVuSans-3a" transform="translate(232.324219 0.679688)"/>
     <use xlink:href="#DejaVuSans-20" transform="translate(266.015625 0.679688)"/>
     <use xlink:href="#DejaVuSans-Oblique-41" transform="translate(297.802734 0.679688)"/>
     <use xlink:href="#DejaVuSans-3d" transform="translate(385.693359 0.679688)"/>
     <use xlink:href="#DejaVuSans-Oblique-3b8" transform="translate(551.964844 45.264063) scale(0.7)"/>
     <use xlink:href="#DejaVuSans-33" transform="translate(488.964844 -38.726562) scale(0.7)"/>
     <use xlink:href="#DejaVuSans-36" transform="translate(533.500977 -38.726562) scale(0.7)"/>
     <use xlink:href="#DejaVuSans-30" transform="translate(578.037109 -38.726562) scale(0.7)"/>
     <use xlink:href="#DejaVuSans-b0" transform="translate(622.573242 -38.726562) scale(0.7)"/>
     <use xlink:href="#DejaVuSans-22c5" transform="translate(689.555664 0.679688)"/>
     <use xlink:href="#DejaVuSans-Oblique-3c0" transform="translate(740.825195 0.679688)"/>
     <use xlink:href="#DejaVuSans-Oblique-72" transform="translate(801.030273 0.679688)"/>
     <use xlink:href="#DejaVuSans-32" transform="translate(846.793451 38.960938) scale(0.7)"/>
     <path d="M 488.964844 19.476562 
L 488.964844 25.726562 
L 657.573242 25.726562 
L 657.573242 19.476562 
L 488.964844 19.476562 
z
"/>
    </g>
    <!--  -->
    <g style="fill: #1f2937" transform="translate(188.888866 452.762801) scale(0.11 -0.11)"/>
    <!-- Arco: $L = \frac{\theta}{360°} \cdot 2\pi r$ -->
    <g style="fill: #1f2937" transform="translate(140.103866 468.118457) scale(0.11 -0.11)">
     <defs>
      <path id="DejaVuSans-41" d="M 2188 4044 
L 1331 1722 
L 3047 1722 
L 2188 4044 
z
M 1831 4666 
L 2547 4666 
L 4325 0 
L 3669 0 
L 3244 1197 
L 1141 1197 
L 716 0 
L 50 0 
L 1831 4666 
z
" transform="scale(0.015625)"/>
      <path id="DejaVuSans-63" d="M 3122 3366 
L 3122 2828 
Q 2878 2963 2633 3030 
Q 2388 3097 2138 3097 
Q 1578 3097 1268 2742 
Q 959 2388 959 1747 
Q 959 1106 1268 751 
Q 1578 397 2138 397 
Q 2388 397 2633 464 
Q 2878 531 3122 666 
L 3122 134 
Q 2881 22 2623 -34 
Q 2366 -91 2075 -91 
Q 1284 -91 818 406 
Q 353 903 353 1747 
Q 353 2603 823 3093 
Q 1294 3584 2113 3584 
Q 2378 3584 2631 3529 
Q 2884 3475 3122 3366 
z
" transform="scale(0.015625)"/>
      <path id="DejaVuSans-6f" d="M 1959 3097 
Q 1497 3097 1228 2736 
Q 959 2375 959 1747 
Q 959 1119 1226 758 
Q 1494 397 1959 397 
Q 2419 397 2687 759 
Q 2956 1122 2956 1747 
Q 2956 2369 2687 2733 
Q 2419 3097 1959 3097 
z
M 1959 3584 
Q 2709 3584 3137 3096 
Q 3566 2609 3566 1747 
Q 3566 888 3137 398 
Q 2709 -91 1959 -91 
Q 1206 -91 779 398 
Q 353 888 353 1747 
Q 353 2609 779 3096 
Q 1206 3584 1959 3584 
z
" transform="scale(0.015625)"/>
      <path id="DejaVuSans-Oblique-4c" d="M 1075 4666 
L 1709 4666 
L 909 525 
L 3181 525 
L 3078 0 
L 172 0 
L 1075 4666 
z
" transform="scale(0.015625)"/>
     </defs>
     <use xlink:href="#DejaVuSans-41" transform="translate(0 0.679688)"/>
     <use xlink:href="#DejaVuSans-72" transform="translate(68.408203 0.679688)"/>
     <use xlink:href="#DejaVuSans-63" transform="translate(109.521484 0.679688)"/>
     <use xlink:href="#DejaVuSans-6f" transform="translate(164.501953 0.679688)"/>
     <use xlink:href="#DejaVuSans-3a" transform="translate(225.683594 0.679688)"/>
     <use xlink:href="#DejaVuSans-20" transform="translate(259.375 0.679688)"/>
     <use xlink:href="#DejaVuSans-Oblique-4c" transform="translate(291.162109 0.679688)"/>
     <use xlink:href="#DejaVuSans-3d" transform="translate(366.357422 0.679688)"/>
     <use xlink:href="#DejaVuSans-Oblique-3b8" transform="translate(532.628906 45.264063) scale(0.7)"/>
     <use xlink:href="#DejaVuSans-33" transform="translate(469.628906 -38.726562) scale(0.7)"/>
     <use xlink:href="#DejaVuSans-36" transform="translate(514.165039 -38.726562) scale(0.7)"/>
     <use xlink:href="#DejaVuSans-30" transform="translate(558.701172 -38.726562) scale(0.7)"/>
     <use xlink:href="#DejaVuSans-b0" transform="translate(603.237305 -38.726562) scale(0.7)"/>
     <use xlink:href="#DejaVuSans-22c5" transform="translate(670.219727 0.679688)"/>
     <use xlink:href="#DejaVuSans-32" transform="translate(721.489258 0.679688)"/>
     <use xlink:href="#DejaVuSans-Oblique-3c0" transform="translate(785.112305 0.679688)"/>
     <use xlink:href="#DejaVuSans-Oblique-72" transform="translate(845.317383 0.679688)"/>
     <path d="M 469.628906 19.476562 
L 469.628906 25.726562 
L 638.237305 25.726562 
L 638.237305 19.476562 
L 469.628906 19.476562 
z
"/>
    </g>
   </g>
   <g id="text_6">
    <!-- SECTOR CIRCULAR -->
    <g style="fill: #1f2937" transform="translate(126.545116 35.977355) scale(0.12 -0.12)">
     <defs>
      <path id="DejaVuSans-Bold-53" d="M 3834 4519 
L 3834 3531 
Q 3450 3703 3084 3790 
Q 2719 3878 2394 3878 
Q 1963 3878 1756 3759 
Q 1550 3641 1550 3391 
Q 1550 3203 1689 3098 
Q 1828 2994 2194 2919 
L 2706 2816 
Q 3484 2659 3812 2340 
Q 4141 2022 4141 1434 
Q 4141 663 3683 286 
Q 3225 -91 2284 -91 
Q 1841 -91 1394 -6 
Q 947 78 500 244 
L 500 1259 
Q 947 1022 1364 901 
Q 1781 781 2169 781 
Q 2563 781 2772 912 
Q 2981 1044 2981 1288 
Q 2981 1506 2839 1625 
Q 2697 1744 2272 1838 
L 1806 1941 
Q 1106 2091 782 2419 
Q 459 2747 459 3303 
Q 459 4000 909 4375 
Q 1359 4750 2203 4750 
Q 2588 4750 2994 4692 
Q 3400 4634 3834 4519 
z
" transform="scale(0.015625)"/>
      <path id="DejaVuSans-Bold-45" d="M 588 4666 
L 3834 4666 
L 3834 3756 
L 1791 3756 
L 1791 2888 
L 3713 2888 
L 3713 1978 
L 1791 1978 
L 1791 909 
L 3903 909 
L 3903 0 
L 588 0 
L 588 4666 
z
" transform="scale(0.015625)"/>
      <path id="DejaVuSans-Bold-43" d="M 4288 256 
Q 3956 84 3597 -3 
Q 3238 -91 2847 -91 
Q 1681 -91 1000 561 
Q 319 1213 319 2328 
Q 319 3447 1000 4098 
Q 1681 4750 2847 4750 
Q 3238 4750 3597 4662 
Q 3956 4575 4288 4403 
L 4288 3438 
Q 3953 3666 3628 3772 
Q 3303 3878 2944 3878 
Q 2300 3878 1931 3465 
Q 1563 3053 1563 2328 
Q 1563 1606 1931 1193 
Q 2300 781 2944 781 
Q 3303 781 3628 887 
Q 3953 994 4288 1222 
L 4288 256 
z
" transform="scale(0.015625)"/>
      <path id="DejaVuSans-Bold-54" d="M 31 4666 
L 4331 4666 
L 4331 3756 
L 2784 3756 
L 2784 0 
L 1581 0 
L 1581 3756 
L 31 3756 
L 31 4666 
z
" transform="scale(0.015625)"/>
      <path id="DejaVuSans-Bold-52" d="M 2297 2597 
Q 2675 2597 2839 2737 
Q 3003 2878 3003 3200 
Q 3003 3519 2839 3656 
Q 2675 3794 2297 3794 
L 1791 3794 
L 1791 2597 
L 2297 2597 
z
M 1791 1766 
L 1791 0 
L 588 0 
L 588 4666 
L 2425 4666 
Q 3347 4666 3776 4356 
Q 4206 4047 4206 3378 
Q 4206 2916 3982 2619 
Q 3759 2322 3309 2181 
Q 3556 2125 3751 1926 
Q 3947 1728 4147 1325 
L 4800 0 
L 3519 0 
L 2950 1159 
Q 2778 1509 2601 1637 
Q 2425 1766 2131 1766 
L 1791 1766 
z
" transform="scale(0.015625)"/>
      <path id="DejaVuSans-Bold-20" transform="scale(0.015625)"/>
      <path id="DejaVuSans-Bold-49" d="M 588 4666 
L 1791 4666 
L 1791 0 
L 588 0 
L 588 4666 
z
" transform="scale(0.015625)"/>
      <path id="DejaVuSans-Bold-55" d="M 588 4666 
L 1791 4666 
L 1791 1869 
Q 1791 1291 1980 1042 
Q 2169 794 2597 794 
Q 3028 794 3217 1042 
Q 3406 1291 3406 1869 
L 3406 4666 
L 4609 4666 
L 4609 1869 
Q 4609 878 4112 393 
Q 3616 -91 2597 -91 
Q 1581 -91 1084 393 
Q 588 878 588 1869 
L 588 4666 
z
" transform="scale(0.015625)"/>
      <path id="DejaVuSans-Bold-4c" d="M 588 4666 
L 1791 4666 
L 1791 909 
L 3903 909 
L 3903 0 
L 588 0 
L 588 4666 
z
" transform="scale(0.015625)"/>
      <path id="DejaVuSans-Bold-41" d="M 3419 850 
L 1538 850 
L 1241 0 
L 31 0 
L 1759 4666 
L 3194 4666 
L 4922 0 
L 3713 0 
L 3419 850 
z
M 1838 1716 
L 3116 1716 
L 2478 3572 
L 1838 1716 
z
" transform="scale(0.015625)"/>
     </defs>
     <use xlink:href="#DejaVuSans-Bold-53"/>
     <use xlink:href="#DejaVuSans-Bold-45" transform="translate(72.021484 0)"/>
     <use xlink:href="#DejaVuSans-Bold-43" transform="translate(140.332031 0)"/>
     <use xlink:href="#DejaVuSans-Bold-54" transform="translate(213.720703 0)"/>
     <use xlink:href="#DejaVuSans-Bold-4f" transform="translate(281.933594 0)"/>
     <use xlink:href="#DejaVuSans-Bold-52" transform="translate(366.943359 0)"/>
     <use xlink:href="#DejaVuSans-Bold-20" transform="translate(443.945312 0)"/>
     <use xlink:href="#DejaVuSans-Bold-43" transform="translate(478.759766 0)"/>
     <use xlink:href="#DejaVuSans-Bold-49" transform="translate(552.148438 0)"/>
     <use xlink:href="#DejaVuSans-Bold-52" transform="translate(589.355469 0)"/>
     <use xlink:href="#DejaVuSans-Bold-43" transform="translate(666.357422 0)"/>
     <use xlink:href="#DejaVuSans-Bold-55" transform="translate(739.746094 0)"/>
     <use xlink:href="#DejaVuSans-Bold-4c" transform="translate(820.947266 0)"/>
     <use xlink:href="#DejaVuSans-Bold-41" transform="translate(884.667969 0)"/>
     <use xlink:href="#DejaVuSans-Bold-52" transform="translate(962.060547 0)"/>
    </g>
   </g>
  </g>
  <g id="axes_2">
   <g id="patch_8">
    <path d="M 816.879831 188.279612 
L 815.565691 184.823081 
L 814.153603 181.405395 
L 812.644714 178.029329 
L 811.040249 174.697623 
L 809.341511 171.412983 
L 807.549878 168.178076 
L 805.666806 164.995528 
L 803.693824 161.867923 
L 801.632533 158.7978 
L 799.484607 155.787653 
L 797.25179 152.839926 
L 794.935895 149.95701 
L 792.538802 147.141248 
L 790.062457 144.394926 
L 787.508871 141.720272 
L 784.880118 139.11946 
L 782.178331 136.5946 
L 779.405704 134.147742 
L 776.564488 131.780874 
L 773.656991 129.495916 
L 770.685573 127.294724 
L 767.652646 125.179086 
L 764.560673 123.150718 
L 761.412165 121.211268 
L 758.209677 119.362311 
L 754.95581 117.605348 
L 751.653206 115.941804 
L 748.304546 114.373032 
L 744.912549 112.900304 
L 741.479969 111.524817 
L 738.009593 110.247686 
L 734.504238 109.06995 
L 730.966752 107.992564 
L 727.400005 107.016403 
L 723.806895 106.142259 
L 720.190337 105.370843 
L 716.553269 104.70278 
L 712.898644 104.138614 
L 709.229428 103.678801 
L 705.548601 103.323716 
L 701.859152 103.073647 
L 698.164075 102.928797 
L 694.466372 102.889283 
L 690.769044 102.955137 
L 687.075093 103.126307 
L 683.387519 103.402652 
L 679.709315 103.783949 
L 676.043468 104.269889 
L 672.392954 104.860075 
z
" clip-path="url(#p3f3a72d938)" style="fill: #7c3aed; opacity: 0.4; stroke: #7c3aed; stroke-linejoin: miter"/>
   </g>
   <g id="line2d_7">
    <path d="M 824.706387 232.666221 
L 824.445103 224.435207 
L 823.662301 216.237336 
L 822.361134 208.105618 
L 820.546842 200.072797 
L 818.226729 192.171219 
L 815.410138 184.432699 
L 812.108411 176.888399 
L 808.334842 169.568697 
L 804.104626 162.503066 
L 799.434797 155.719957 
L 794.344159 149.246684 
L 788.853209 143.109312 
L 782.984059 137.332553 
L 776.76034 131.93967 
L 770.207113 126.952377 
L 763.350767 122.390757 
L 756.218909 118.273177 
L 748.840256 114.616217 
L 741.244521 111.434603 
L 733.462288 108.741146 
L 725.524893 106.546691 
L 717.464298 104.860075 
L 709.312959 103.68809 
L 701.103701 103.035454 
L 692.869577 102.904795 
L 684.643744 103.29664 
L 676.459325 104.20941 
L 668.349275 105.639431 
L 660.346251 107.580943 
L 652.482478 110.02613 
L 644.78962 112.965145 
L 637.298655 116.386155 
L 630.039745 120.275383 
L 623.04212 124.617169 
L 616.333957 129.394031 
L 609.942266 134.586733 
L 603.892785 140.174367 
L 598.209874 146.134433 
L 592.916415 152.442932 
L 588.033723 159.074461 
L 583.581459 166.002319 
L 579.577551 173.198609 
L 576.038121 180.634354 
L 572.977421 188.279612 
L 570.407776 196.1036 
L 568.339532 204.074813 
L 566.781017 212.161154 
L 565.738508 220.33006 
L 565.216202 228.548641 
L 565.216202 236.783801 
L 565.738508 245.002382 
L 566.781017 253.171288 
L 568.339532 261.257629 
L 570.407776 269.228842 
L 572.977421 277.05283 
L 576.038121 284.698088 
L 579.577551 292.133833 
L 583.581459 299.330123 
L 588.033723 306.257981 
L 592.916415 312.88951 
L 598.209874 319.198009 
L 603.892785 325.158075 
L 609.942266 330.745709 
L 616.333957 335.938411 
L 623.04212 340.715273 
L 630.039745 345.057059 
L 637.298655 348.946287 
L 644.78962 352.367297 
L 652.482478 355.306312 
L 660.346251 357.751499 
L 668.349275 359.693011 
L 676.459325 361.123032 
L 684.643744 362.035802 
L 692.869577 362.427647 
L 701.103701 362.296988 
L 709.312959 361.644352 
L 717.464298 360.472367 
L 725.524893 358.785751 
L 733.462288 356.591296 
L 741.244521 353.897839 
L 748.840256 350.716225 
L 756.218909 347.059265 
L 763.350767 342.941685 
L 770.207113 338.380065 
L 776.76034 333.392772 
L 782.984059 327.999889 
L 788.853209 322.22313 
L 794.344159 316.085758 
L 799.434797 309.612485 
L 804.104626 302.829376 
L 808.334842 295.763745 
L 812.108411 288.444043 
L 815.410138 280.899743 
L 818.226729 273.161223 
L 820.546842 265.259645 
L 822.361134 257.226824 
L 823.662301 249.095106 
L 824.445103 240.897235 
L 824.706387 232.666221 
" clip-path="url(#p3f3a72d938)" style="fill: none; stroke: #d1d5db; stroke-width: 1.5; stroke-linecap: square"/>
   </g>
   <g id="line2d_8">
    <path d="M 816.879831 188.279612 
L 815.565691 184.823081 
L 814.153603 181.405395 
L 812.644714 178.029329 
L 811.040249 174.697623 
L 809.341511 171.412983 
L 807.549878 168.178076 
L 805.666806 164.995528 
L 803.693824 161.867923 
L 801.632533 158.7978 
L 799.484607 155.787653 
L 797.25179 152.839926 
L 794.935895 149.95701 
L 792.538802 147.141248 
L 790.062457 144.394926 
L 787.508871 141.720272 
L 784.880118 139.11946 
L 782.178331 136.5946 
L 779.405704 134.147742 
L 776.564488 131.780874 
L 773.656991 129.495916 
L 770.685573 127.294724 
L 767.652646 125.179086 
L 764.560673 123.150718 
L 761.412165 121.211268 
L 758.209677 119.362311 
L 754.95581 117.605348 
L 751.653206 115.941804 
L 748.304546 114.373032 
L 744.912549 112.900304 
L 741.479969 111.524817 
L 738.009593 110.247686 
L 734.504238 109.06995 
L 730.966752 107.992564 
L 727.400005 107.016403 
L 723.806895 106.142259 
L 720.190337 105.370843 
L 716.553269 104.70278 
L 712.898644 104.138614 
L 709.229428 103.678801 
L 705.548601 103.323716 
L 701.859152 103.073647 
L 698.164075 102.928797 
L 694.466372 102.889283 
L 690.769044 102.955137 
L 687.075093 103.126307 
L 683.387519 103.402652 
L 679.709315 103.783949 
L 676.043468 104.269889 
L 672.392954 104.860075 
" clip-path="url(#p3f3a72d938)" style="fill: none; stroke: #7c3aed; stroke-width: 3; stroke-linecap: square"/>
   </g>
   <g id="line2d_9">
    <path d="M 816.879831 188.279612 
L 672.392954 104.860075 
" clip-path="url(#p3f3a72d938)" style="fill: none; stroke: #dc2626; stroke-width: 2.5; stroke-linecap: square"/>
   </g>
   <g id="line2d_10">
    <g clip-path="url(#p3f3a72d938)">
     <use xlink:href="#mc46067d609" x="694.928626" y="232.666221" style="fill: #374151; stroke: #374151"/>
    </g>
   </g>
   <g id="line2d_11">
    <path d="M 694.928626 232.666221 
L 816.879831 188.279612 
" clip-path="url(#p3f3a72d938)" style="fill: none; stroke-dasharray: 5.55,2.4; stroke-dashoffset: 0; stroke: #9ca3af; stroke-width: 1.5"/>
   </g>
   <g id="line2d_12">
    <path d="M 694.928626 232.666221 
L 672.392954 104.860075 
" clip-path="url(#p3f3a72d938)" style="fill: none; stroke-dasharray: 5.55,2.4; stroke-dashoffset: 0; stroke: #9ca3af; stroke-width: 1.5"/>
   </g>
   <g id="line2d_13">
    <defs>
     <path id="mc3b5f6e9fc" d="M 0 3.5 
C 0.928211 3.5 1.81853 3.131218 2.474874 2.474874 
C 3.131218 1.81853 3.5 0.928211 3.5 0 
C 3.5 -0.928211 3.131218 -1.81853 2.474874 -2.474874 
C 1.81853 -3.131218 0.928211 -3.5 0 -3.5 
C -0.928211 -3.5 -1.81853 -3.131218 -2.474874 -2.474874 
C -3.131218 -1.81853 -3.5 -0.928211 -3.5 0 
C -3.5 0.928211 -3.131218 1.81853 -2.474874 2.474874 
C -1.81853 3.131218 -0.928211 3.5 0 3.5 
z
" style="stroke: #dc2626"/>
    </defs>
    <g clip-path="url(#p3f3a72d938)">
     <use xlink:href="#mc3b5f6e9fc" x="816.879831" y="188.279612" style="fill: #dc2626; stroke: #dc2626"/>
    </g>
   </g>
   <g id="line2d_14">
    <g clip-path="url(#p3f3a72d938)">
     <use xlink:href="#mc3b5f6e9fc" x="672.392954" y="104.860075" style="fill: #dc2626; stroke: #dc2626"/>
    </g>
   </g>
   <g id="text_7">
    <g id="patch_9">
     <path d="M 704.661958 258.764985 
L 714.013677 258.764985 
Q 715.113677 258.764985 715.113677 257.664985 
L 715.113677 247.019048 
Q 715.113677 245.919048 714.013677 245.919048 
L 704.661958 245.919048 
Q 703.561958 245.919048 703.561958 247.019048 
L 703.561958 257.664985 
Q 703.561958 258.764985 704.661958 258.764985 
z
" style="fill: #ffffff; opacity: 0.8"/>
    </g>
    <!-- O -->
    <g style="fill: #1f2937" transform="translate(704.661958 255.377329) scale(0.11 -0.11)">
     <use xlink:href="#DejaVuSans-Bold-4f"/>
    </g>
   </g>
   <g id="text_8">
    <g id="patch_10">
     <path d="M 829.857607 207.889489 
L 838.370576 207.889489 
Q 839.470576 207.889489 839.470576 206.789489 
L 839.470576 196.143551 
Q 839.470576 195.043551 838.370576 195.043551 
L 829.857607 195.043551 
Q 828.757607 195.043551 828.757607 196.143551 
L 828.757607 206.789489 
Q 828.757607 207.889489 829.857607 207.889489 
z
" style="fill: #ffffff; opacity: 0.8"/>
    </g>
    <!-- A -->
    <g style="fill: #1f2937" transform="translate(829.857607 204.501833) scale(0.11 -0.11)">
     <use xlink:href="#DejaVuSans-Bold-41"/>
    </g>
   </g>
   <g id="text_9">
    <g id="patch_11">
     <path d="M 662.659622 92.025511 
L 671.043685 92.025511 
Q 672.143685 92.025511 672.143685 90.925511 
L 672.143685 80.279574 
Q 672.143685 79.179574 671.043685 79.179574 
L 662.659622 79.179574 
Q 661.559622 79.179574 661.559622 80.279574 
L 661.559622 90.925511 
Q 661.559622 92.025511 662.659622 92.025511 
z
" style="fill: #ffffff; opacity: 0.8"/>
    </g>
    <!-- B -->
    <g style="fill: #1f2937" transform="translate(662.659622 88.637855) scale(0.11 -0.11)">
     <defs>
      <path id="DejaVuSans-Bold-42" d="M 2456 2859 
Q 2741 2859 2887 2984 
Q 3034 3109 3034 3353 
Q 3034 3594 2887 3720 
Q 2741 3847 2456 3847 
L 1791 3847 
L 1791 2859 
L 2456 2859 
z
M 2497 819 
Q 2859 819 3042 972 
Q 3225 1125 3225 1434 
Q 3225 1738 3044 1889 
Q 2863 2041 2497 2041 
L 1791 2041 
L 1791 819 
L 2497 819 
z
M 3616 2497 
Q 4003 2384 4215 2081 
Q 4428 1778 4428 1338 
Q 4428 663 3972 331 
Q 3516 0 2584 0 
L 588 0 
L 588 4666 
L 2394 4666 
Q 3366 4666 3802 4372 
Q 4238 4078 4238 3431 
Q 4238 3091 4078 2852 
Q 3919 2613 3616 2497 
z
" transform="scale(0.015625)"/>
     </defs>
     <use xlink:href="#DejaVuSans-Bold-42"/>
    </g>
   </g>
   <g id="text_10">
    <g id="patch_12">
     <path d="M 718.68084 173.36064 
L 757.348028 173.36064 
Q 759.348028 173.36064 759.348028 171.36064 
L 759.348028 161.682515 
Q 759.348028 159.682515 757.348028 159.682515 
L 718.68084 159.682515 
Q 716.68084 159.682515 716.68084 161.682515 
L 716.68084 171.36064 
Q 716.68084 173.36064 718.68084 173.36064 
z
" style="fill: #ffffff; opacity: 0.8"/>
    </g>
    <!-- cuerda -->
    <g style="fill: #dc2626" transform="translate(718.68084 169.280952) scale(0.1 -0.1)">
     <defs>
      <path id="DejaVuSans-Bold-75" d="M 500 1363 
L 500 3500 
L 1625 3500 
L 1625 3150 
Q 1625 2866 1622 2436 
Q 1619 2006 1619 1863 
Q 1619 1441 1641 1255 
Q 1663 1069 1716 984 
Q 1784 875 1895 815 
Q 2006 756 2150 756 
Q 2500 756 2700 1025 
Q 2900 1294 2900 1772 
L 2900 3500 
L 4019 3500 
L 4019 0 
L 2900 0 
L 2900 506 
Q 2647 200 2364 54 
Q 2081 -91 1741 -91 
Q 1134 -91 817 281 
Q 500 653 500 1363 
z
" transform="scale(0.015625)"/>
      <path id="DejaVuSans-Bold-65" d="M 4031 1759 
L 4031 1441 
L 1416 1441 
Q 1456 1047 1700 850 
Q 1944 653 2381 653 
Q 2734 653 3104 758 
Q 3475 863 3866 1075 
L 3866 213 
Q 3469 63 3072 -14 
Q 2675 -91 2278 -91 
Q 1328 -91 801 392 
Q 275 875 275 1747 
Q 275 2603 792 3093 
Q 1309 3584 2216 3584 
Q 3041 3584 3536 3087 
Q 4031 2591 4031 1759 
z
M 2881 2131 
Q 2881 2450 2695 2645 
Q 2509 2841 2209 2841 
Q 1884 2841 1681 2658 
Q 1478 2475 1428 2131 
L 2881 2131 
z
" transform="scale(0.015625)"/>
      <path id="DejaVuSans-Bold-64" d="M 2919 2988 
L 2919 4863 
L 4044 4863 
L 4044 0 
L 2919 0 
L 2919 506 
Q 2688 197 2409 53 
Q 2131 -91 1766 -91 
Q 1119 -91 703 423 
Q 288 938 288 1747 
Q 288 2556 703 3070 
Q 1119 3584 1766 3584 
Q 2128 3584 2408 3439 
Q 2688 3294 2919 2988 
z
M 2181 722 
Q 2541 722 2730 984 
Q 2919 1247 2919 1747 
Q 2919 2247 2730 2509 
Q 2541 2772 2181 2772 
Q 1825 2772 1636 2509 
Q 1447 2247 1447 1747 
Q 1447 1247 1636 984 
Q 1825 722 2181 722 
z
" transform="scale(0.015625)"/>
     </defs>
     <use xlink:href="#DejaVuSans-Bold-63"/>
     <use xlink:href="#DejaVuSans-Bold-75" transform="translate(59.277344 0)"/>
     <use xlink:href="#DejaVuSans-Bold-65" transform="translate(130.46875 0)"/>
     <use xlink:href="#DejaVuSans-Bold-72" transform="translate(198.291016 0)"/>
     <use xlink:href="#DejaVuSans-Bold-64" transform="translate(247.607422 0)"/>
     <use xlink:href="#DejaVuSans-Bold-61" transform="translate(319.189453 0)"/>
    </g>
   </g>
   <g id="text_11">
    <g id="patch_13">
     <path d="M 720.884178 107.046272 
L 776.748241 107.046272 
Q 778.748241 107.046272 778.748241 105.046272 
L 778.748241 95.368147 
Q 778.748241 93.368147 776.748241 93.368147 
L 720.884178 93.368147 
Q 718.884178 93.368147 718.884178 95.368147 
L 718.884178 105.046272 
Q 718.884178 107.046272 720.884178 107.046272 
z
" style="fill: #ffffff; opacity: 0.8"/>
    </g>
    <!-- segmento -->
    <g style="fill: #7c3aed" transform="translate(720.884178 102.88846) scale(0.1 -0.1)">
     <defs>
      <path id="DejaVuSans-Bold-73" d="M 3272 3391 
L 3272 2541 
Q 2913 2691 2578 2766 
Q 2244 2841 1947 2841 
Q 1628 2841 1473 2761 
Q 1319 2681 1319 2516 
Q 1319 2381 1436 2309 
Q 1553 2238 1856 2203 
L 2053 2175 
Q 2913 2066 3209 1816 
Q 3506 1566 3506 1031 
Q 3506 472 3093 190 
Q 2681 -91 1863 -91 
Q 1516 -91 1145 -36 
Q 775 19 384 128 
L 384 978 
Q 719 816 1070 734 
Q 1422 653 1784 653 
Q 2113 653 2278 743 
Q 2444 834 2444 1013 
Q 2444 1163 2330 1236 
Q 2216 1309 1875 1350 
L 1678 1375 
Q 931 1469 631 1722 
Q 331 1975 331 2491 
Q 331 3047 712 3315 
Q 1094 3584 1881 3584 
Q 2191 3584 2531 3537 
Q 2872 3491 3272 3391 
z
" transform="scale(0.015625)"/>
      <path id="DejaVuSans-Bold-67" d="M 2919 594 
Q 2688 288 2409 144 
Q 2131 0 1766 0 
Q 1125 0 706 504 
Q 288 1009 288 1791 
Q 288 2575 706 3076 
Q 1125 3578 1766 3578 
Q 2131 3578 2409 3434 
Q 2688 3291 2919 2981 
L 2919 3500 
L 4044 3500 
L 4044 353 
Q 4044 -491 3511 -936 
Q 2978 -1381 1966 -1381 
Q 1638 -1381 1331 -1331 
Q 1025 -1281 716 -1178 
L 716 -306 
Q 1009 -475 1290 -558 
Q 1572 -641 1856 -641 
Q 2406 -641 2662 -400 
Q 2919 -159 2919 353 
L 2919 594 
z
M 2181 2772 
Q 1834 2772 1640 2515 
Q 1447 2259 1447 1791 
Q 1447 1309 1634 1061 
Q 1822 813 2181 813 
Q 2531 813 2725 1069 
Q 2919 1325 2919 1791 
Q 2919 2259 2725 2515 
Q 2531 2772 2181 2772 
z
" transform="scale(0.015625)"/>
      <path id="DejaVuSans-Bold-6d" d="M 3781 2919 
Q 3994 3244 4286 3414 
Q 4578 3584 4928 3584 
Q 5531 3584 5847 3212 
Q 6163 2841 6163 2131 
L 6163 0 
L 5038 0 
L 5038 1825 
Q 5041 1866 5042 1909 
Q 5044 1953 5044 2034 
Q 5044 2406 4934 2573 
Q 4825 2741 4581 2741 
Q 4263 2741 4089 2478 
Q 3916 2216 3909 1719 
L 3909 0 
L 2784 0 
L 2784 1825 
Q 2784 2406 2684 2573 
Q 2584 2741 2328 2741 
Q 2006 2741 1831 2477 
Q 1656 2213 1656 1722 
L 1656 0 
L 531 0 
L 531 3500 
L 1656 3500 
L 1656 2988 
Q 1863 3284 2130 3434 
Q 2397 3584 2719 3584 
Q 3081 3584 3359 3409 
Q 3638 3234 3781 2919 
z
" transform="scale(0.015625)"/>
      <path id="DejaVuSans-Bold-6e" d="M 4056 2131 
L 4056 0 
L 2931 0 
L 2931 347 
L 2931 1631 
Q 2931 2084 2911 2256 
Q 2891 2428 2841 2509 
Q 2775 2619 2662 2680 
Q 2550 2741 2406 2741 
Q 2056 2741 1856 2470 
Q 1656 2200 1656 1722 
L 1656 0 
L 538 0 
L 538 3500 
L 1656 3500 
L 1656 2988 
Q 1909 3294 2193 3439 
Q 2478 3584 2822 3584 
Q 3428 3584 3742 3212 
Q 4056 2841 4056 2131 
z
" transform="scale(0.015625)"/>
      <path id="DejaVuSans-Bold-74" d="M 1759 4494 
L 1759 3500 
L 2913 3500 
L 2913 2700 
L 1759 2700 
L 1759 1216 
Q 1759 972 1856 886 
Q 1953 800 2241 800 
L 2816 800 
L 2816 0 
L 1856 0 
Q 1194 0 917 276 
Q 641 553 641 1216 
L 641 2700 
L 84 2700 
L 84 3500 
L 641 3500 
L 641 4494 
L 1759 4494 
z
" transform="scale(0.015625)"/>
     </defs>
     <use xlink:href="#DejaVuSans-Bold-73"/>
     <use xlink:href="#DejaVuSans-Bold-65" transform="translate(59.521484 0)"/>
     <use xlink:href="#DejaVuSans-Bold-67" transform="translate(127.34375 0)"/>
     <use xlink:href="#DejaVuSans-Bold-6d" transform="translate(198.925781 0)"/>
     <use xlink:href="#DejaVuSans-Bold-65" transform="translate(303.125 0)"/>
     <use xlink:href="#DejaVuSans-Bold-6e" transform="translate(370.947266 0)"/>
     <use xlink:href="#DejaVuSans-Bold-74" transform="translate(442.138672 0)"/>
     <use xlink:href="#DejaVuSans-Bold-6f" transform="translate(489.941406 0)"/>
    </g>
   </g>
   <g id="text_12">
    <g id="patch_14">
     <path d="M 615.948626 475.114457 
L 773.908626 475.114457 
Q 779.408626 475.114457 779.408626 469.614457 
L 779.408626 428.322863 
Q 779.408626 422.822863 773.908626 422.822863 
L 615.948626 422.822863 
Q 610.448626 422.822863 610.448626 428.322863 
L 610.448626 469.614457 
Q 610.448626 475.114457 615.948626 475.114457 
z
" style="fill: #f8fafc; opacity: 0.95; stroke: #e2e8f0; stroke-linejoin: miter"/>
    </g>
    <!-- $A_{seg} = A_{sector} - A_{triángulo}$ -->
    <g style="fill: #1f2937" transform="translate(633.658626 435.362863) scale(0.11 -0.11)">
     <defs>
      <path id="DejaVuSans-Oblique-73" d="M 3200 3397 
L 3091 2853 
Q 2863 2978 2609 3040 
Q 2356 3103 2088 3103 
Q 1634 3103 1373 2948 
Q 1113 2794 1113 2528 
Q 1113 2219 1719 2053 
Q 1766 2041 1788 2034 
L 1972 1978 
Q 2547 1819 2739 1644 
Q 2931 1469 2931 1166 
Q 2931 609 2489 259 
Q 2047 -91 1331 -91 
Q 1053 -91 747 -37 
Q 441 16 72 128 
L 184 722 
Q 500 559 806 475 
Q 1113 391 1394 391 
Q 1816 391 2080 572 
Q 2344 753 2344 1031 
Q 2344 1331 1650 1516 
L 1591 1531 
L 1394 1581 
Q 956 1697 753 1886 
Q 550 2075 550 2369 
Q 550 2928 970 3256 
Q 1391 3584 2113 3584 
Q 2397 3584 2667 3537 
Q 2938 3491 3200 3397 
z
" transform="scale(0.015625)"/>
      <path id="DejaVuSans-Oblique-65" d="M 3078 2063 
Q 3088 2113 3092 2166 
Q 3097 2219 3097 2272 
Q 3097 2653 2873 2875 
Q 2650 3097 2266 3097 
Q 1838 3097 1509 2826 
Q 1181 2556 1013 2059 
L 3078 2063 
z
M 3578 1613 
L 903 1613 
Q 884 1494 878 1425 
Q 872 1356 872 1306 
Q 872 872 1139 634 
Q 1406 397 1894 397 
Q 2269 397 2603 481 
Q 2938 566 3225 728 
L 3116 159 
Q 2806 34 2476 -28 
Q 2147 -91 1806 -91 
Q 1078 -91 686 257 
Q 294 606 294 1247 
Q 294 1794 489 2264 
Q 684 2734 1063 3103 
Q 1306 3334 1642 3459 
Q 1978 3584 2356 3584 
Q 2950 3584 3301 3228 
Q 3653 2872 3653 2272 
Q 3653 2128 3634 1964 
Q 3616 1800 3578 1613 
z
" transform="scale(0.015625)"/>
      <path id="DejaVuSans-Oblique-67" d="M 3816 3500 
L 3219 434 
Q 3047 -456 2561 -893 
Q 2075 -1331 1253 -1331 
Q 950 -1331 690 -1286 
Q 431 -1241 206 -1147 
L 313 -588 
Q 525 -725 762 -790 
Q 1000 -856 1269 -856 
Q 1816 -856 2167 -557 
Q 2519 -259 2631 300 
L 2681 563 
Q 2441 288 2122 144 
Q 1803 0 1434 0 
Q 903 0 598 351 
Q 294 703 294 1319 
Q 294 1803 478 2267 
Q 663 2731 997 3091 
Q 1219 3328 1514 3456 
Q 1809 3584 2131 3584 
Q 2484 3584 2746 3420 
Q 3009 3256 3138 2956 
L 3238 3500 
L 3816 3500 
z
M 2950 2216 
Q 2950 2641 2750 2872 
Q 2550 3103 2181 3103 
Q 1953 3103 1747 3012 
Q 1541 2922 1394 2759 
Q 1156 2491 1023 2127 
Q 891 1763 891 1375 
Q 891 944 1092 712 
Q 1294 481 1672 481 
Q 2219 481 2584 976 
Q 2950 1472 2950 2216 
z
" transform="scale(0.015625)"/>
      <path id="DejaVuSans-Oblique-63" d="M 3431 3366 
L 3316 2797 
Q 3109 2947 2876 3022 
Q 2644 3097 2394 3097 
Q 2119 3097 1870 3000 
Q 1622 2903 1453 2725 
Q 1184 2453 1037 2087 
Q 891 1722 891 1331 
Q 891 859 1127 628 
Q 1363 397 1844 397 
Q 2081 397 2348 469 
Q 2616 541 2906 684 
L 2797 116 
Q 2547 13 2283 -39 
Q 2019 -91 1741 -91 
Q 1044 -91 669 257 
Q 294 606 294 1253 
Q 294 1797 489 2255 
Q 684 2713 1069 3078 
Q 1331 3328 1684 3456 
Q 2038 3584 2456 3584 
Q 2700 3584 2940 3529 
Q 3181 3475 3431 3366 
z
" transform="scale(0.015625)"/>
      <path id="DejaVuSans-Oblique-74" d="M 2706 3500 
L 2619 3053 
L 1472 3053 
L 1100 1153 
Q 1081 1047 1072 975 
Q 1063 903 1063 863 
Q 1063 663 1183 572 
Q 1303 481 1569 481 
L 2150 481 
L 2053 0 
L 1503 0 
Q 991 0 739 200 
Q 488 400 488 806 
Q 488 878 497 964 
Q 506 1050 525 1153 
L 897 3053 
L 409 3053 
L 500 3500 
L 978 3500 
L 1172 4494 
L 1747 4494 
L 1556 3500 
L 2706 3500 
z
" transform="scale(0.015625)"/>
      <path id="DejaVuSans-Oblique-6f" d="M 1625 -91 
Q 1009 -91 651 289 
Q 294 669 294 1325 
Q 294 1706 417 2101 
Q 541 2497 738 2766 
Q 1047 3184 1428 3384 
Q 1809 3584 2291 3584 
Q 2888 3584 3255 3212 
Q 3622 2841 3622 2241 
Q 3622 1825 3500 1412 
Q 3378 1000 3181 728 
Q 2875 309 2494 109 
Q 2113 -91 1625 -91 
z
M 891 1344 
Q 891 869 1089 633 
Q 1288 397 1691 397 
Q 2269 397 2648 901 
Q 3028 1406 3028 2181 
Q 3028 2634 2825 2865 
Q 2622 3097 2228 3097 
Q 1903 3097 1650 2945 
Q 1397 2794 1197 2484 
Q 1050 2253 970 1956 
Q 891 1659 891 1344 
z
" transform="scale(0.015625)"/>
      <path id="DejaVuSans-2212" d="M 678 2272 
L 4684 2272 
L 4684 1741 
L 678 1741 
L 678 2272 
z
" transform="scale(0.015625)"/>
      <path id="DejaVuSans-Oblique-69" d="M 1172 4863 
L 1747 4863 
L 1606 4134 
L 1031 4134 
L 1172 4863 
z
M 909 3500 
L 1484 3500 
L 800 0 
L 225 0 
L 909 3500 
z
" transform="scale(0.015625)"/>
      <path id="DejaVuSans-Oblique-e1" d="M 3438 1997 
L 3047 0 
L 2472 0 
L 2578 531 
Q 2325 219 2001 64 
Q 1678 -91 1281 -91 
Q 834 -91 548 182 
Q 263 456 263 884 
Q 263 1497 752 1853 
Q 1241 2209 2100 2209 
L 2900 2209 
L 2931 2363 
Q 2938 2388 2941 2417 
Q 2944 2447 2944 2509 
Q 2944 2788 2717 2942 
Q 2491 3097 2081 3097 
Q 1800 3097 1504 3025 
Q 1209 2953 897 2809 
L 997 3341 
Q 1322 3463 1633 3523 
Q 1944 3584 2234 3584 
Q 2853 3584 3176 3315 
Q 3500 3047 3500 2534 
Q 3500 2431 3484 2292 
Q 3469 2153 3438 1997 
z
M 2816 1759 
L 2241 1759 
Q 1534 1759 1195 1570 
Q 856 1381 856 984 
Q 856 709 1029 553 
Q 1203 397 1509 397 
Q 1978 397 2328 733 
Q 2678 1069 2791 1631 
L 2816 1759 
z
M 3031 5119 
L 3653 5119 
L 2406 3944 
L 1925 3944 
L 3031 5119 
z
" transform="scale(0.015625)"/>
      <path id="DejaVuSans-Oblique-6e" d="M 3566 2113 
L 3156 0 
L 2578 0 
L 2988 2091 
Q 3016 2238 3031 2350 
Q 3047 2463 3047 2528 
Q 3047 2791 2881 2937 
Q 2716 3084 2419 3084 
Q 1956 3084 1622 2776 
Q 1288 2469 1184 1941 
L 800 0 
L 225 0 
L 903 3500 
L 1478 3500 
L 1363 2950 
Q 1603 3253 1940 3418 
Q 2278 3584 2650 3584 
Q 3113 3584 3367 3334 
Q 3622 3084 3622 2631 
Q 3622 2519 3608 2391 
Q 3594 2263 3566 2113 
z
" transform="scale(0.015625)"/>
      <path id="DejaVuSans-Oblique-75" d="M 428 1388 
L 838 3500 
L 1416 3500 
L 1006 1409 
Q 975 1256 961 1147 
Q 947 1038 947 966 
Q 947 700 1109 554 
Q 1272 409 1569 409 
Q 2031 409 2368 721 
Q 2706 1034 2809 1563 
L 3194 3500 
L 3769 3500 
L 3091 0 
L 2516 0 
L 2631 550 
Q 2388 244 2052 76 
Q 1716 -91 1338 -91 
Q 878 -91 622 161 
Q 366 413 366 863 
Q 366 956 381 1097 
Q 397 1238 428 1388 
z
" transform="scale(0.015625)"/>
      <path id="DejaVuSans-Oblique-6c" d="M 1172 4863 
L 1747 4863 
L 800 0 
L 225 0 
L 1172 4863 
z
" transform="scale(0.015625)"/>
     </defs>
     <use xlink:href="#DejaVuSans-Oblique-41" transform="translate(0 0.09375)"/>
     <use xlink:href="#DejaVuSans-Oblique-73" transform="translate(68.408203 -16.3125) scale(0.7)"/>
     <use xlink:href="#DejaVuSans-Oblique-65" transform="translate(104.87793 -16.3125) scale(0.7)"/>
     <use xlink:href="#DejaVuSans-Oblique-67" transform="translate(147.944336 -16.3125) scale(0.7)"/>
     <use xlink:href="#DejaVuSans-3d" transform="translate(214.594727 0.09375)"/>
     <use xlink:href="#DejaVuSans-Oblique-41" transform="translate(317.866211 0.09375)"/>
     <use xlink:href="#DejaVuSans-Oblique-73" transform="translate(386.274414 -16.3125) scale(0.7)"/>
     <use xlink:href="#DejaVuSans-Oblique-65" transform="translate(422.744141 -16.3125) scale(0.7)"/>
     <use xlink:href="#DejaVuSans-Oblique-63" transform="translate(465.810547 -16.3125) scale(0.7)"/>
     <use xlink:href="#DejaVuSans-Oblique-74" transform="translate(504.296875 -16.3125) scale(0.7)"/>
     <use xlink:href="#DejaVuSans-Oblique-6f" transform="translate(531.743164 -16.3125) scale(0.7)"/>
     <use xlink:href="#DejaVuSans-Oblique-72" transform="translate(574.570312 -16.3125) scale(0.7)"/>
     <use xlink:href="#DejaVuSans-2212" transform="translate(625.566406 0.09375)"/>
     <use xlink:href="#DejaVuSans-Oblique-41" transform="translate(728.837891 0.09375)"/>
     <use xlink:href="#DejaVuSans-Oblique-74" transform="translate(797.246094 -16.3125) scale(0.7)"/>
     <use xlink:href="#DejaVuSans-Oblique-72" transform="translate(824.692383 -16.3125) scale(0.7)"/>
     <use xlink:href="#DejaVuSans-Oblique-69" transform="translate(853.47168 -16.3125) scale(0.7)"/>
     <use xlink:href="#DejaVuSans-Oblique-e1" transform="translate(872.919922 -16.3125) scale(0.7)"/>
     <use xlink:href="#DejaVuSans-Oblique-6e" transform="translate(915.81543 -16.3125) scale(0.7)"/>
     <use xlink:href="#DejaVuSans-Oblique-67" transform="translate(960.180664 -16.3125) scale(0.7)"/>
     <use xlink:href="#DejaVuSans-Oblique-75" transform="translate(1004.614258 -16.3125) scale(0.7)"/>
     <use xlink:href="#DejaVuSans-Oblique-6c" transform="translate(1048.979492 -16.3125) scale(0.7)"/>
     <use xlink:href="#DejaVuSans-Oblique-6f" transform="translate(1068.427734 -16.3125) scale(0.7)"/>
    </g>
    <!--  -->
    <g style="fill: #1f2937" transform="translate(694.928626 448.802801) scale(0.11 -0.11)"/>
    <!-- $A_{seg} = \frac{r^2}{2}(\theta - \sin\theta)$  (θ en rad) -->
    <g style="fill: #1f2937" transform="translate(615.948626 465.214457) scale(0.11 -0.11)">
     <defs>
      <path id="DejaVuSans-28" d="M 1984 4856 
Q 1566 4138 1362 3434 
Q 1159 2731 1159 2009 
Q 1159 1288 1364 580 
Q 1569 -128 1984 -844 
L 1484 -844 
Q 1016 -109 783 600 
Q 550 1309 550 2009 
Q 550 2706 781 3412 
Q 1013 4119 1484 4856 
L 1984 4856 
z
" transform="scale(0.015625)"/>
      <path id="DejaVuSans-73" d="M 2834 3397 
L 2834 2853 
Q 2591 2978 2328 3040 
Q 2066 3103 1784 3103 
Q 1356 3103 1142 2972 
Q 928 2841 928 2578 
Q 928 2378 1081 2264 
Q 1234 2150 1697 2047 
L 1894 2003 
Q 2506 1872 2764 1633 
Q 3022 1394 3022 966 
Q 3022 478 2636 193 
Q 2250 -91 1575 -91 
Q 1294 -91 989 -36 
Q 684 19 347 128 
L 347 722 
Q 666 556 975 473 
Q 1284 391 1588 391 
Q 1994 391 2212 530 
Q 2431 669 2431 922 
Q 2431 1156 2273 1281 
Q 2116 1406 1581 1522 
L 1381 1569 
Q 847 1681 609 1914 
Q 372 2147 372 2553 
Q 372 3047 722 3315 
Q 1072 3584 1716 3584 
Q 2034 3584 2315 3537 
Q 2597 3491 2834 3397 
z
" transform="scale(0.015625)"/>
      <path id="DejaVuSans-69" d="M 603 3500 
L 1178 3500 
L 1178 0 
L 603 0 
L 603 3500 
z
M 603 4863 
L 1178 4863 
L 1178 4134 
L 603 4134 
L 603 4863 
z
" transform="scale(0.015625)"/>
      <path id="DejaVuSans-6e" d="M 3513 2113 
L 3513 0 
L 2938 0 
L 2938 2094 
Q 2938 2591 2744 2837 
Q 2550 3084 2163 3084 
Q 1697 3084 1428 2787 
Q 1159 2491 1159 1978 
L 1159 0 
L 581 0 
L 581 3500 
L 1159 3500 
L 1159 2956 
Q 1366 3272 1645 3428 
Q 1925 3584 2291 3584 
Q 2894 3584 3203 3211 
Q 3513 2838 3513 2113 
z
" transform="scale(0.015625)"/>
      <path id="DejaVuSans-29" d="M 513 4856 
L 1013 4856 
Q 1481 4119 1714 3412 
Q 1947 2706 1947 2009 
Q 1947 1309 1714 600 
Q 1481 -109 1013 -844 
L 513 -844 
Q 928 -128 1133 580 
Q 1338 1288 1338 2009 
Q 1338 2731 1133 3434 
Q 928 4138 513 4856 
z
" transform="scale(0.015625)"/>
      <path id="DejaVuSans-3b8" d="M 2953 2219 
L 963 2219 
Q 1009 1284 1225 888 
Q 1494 400 1959 400 
Q 2428 400 2688 891 
Q 2916 1322 2953 2219 
z
M 2944 2750 
Q 2856 3638 2688 3950 
Q 2419 4444 1959 4444 
Q 1481 4444 1228 3956 
Q 1028 3563 969 2750 
L 2944 2750 
z
M 1959 4913 
Q 2709 4913 3138 4250 
Q 3566 3591 3566 2422 
Q 3566 1256 3138 594 
Q 2709 -72 1959 -72 
Q 1206 -72 781 594 
Q 353 1256 353 2422 
Q 353 3591 781 4250 
Q 1206 4913 1959 4913 
z
" transform="scale(0.015625)"/>
      <path id="DejaVuSans-64" d="M 2906 2969 
L 2906 4863 
L 3481 4863 
L 3481 0 
L 2906 0 
L 2906 525 
Q 2725 213 2448 61 
Q 2172 -91 1784 -91 
Q 1150 -91 751 415 
Q 353 922 353 1747 
Q 353 2572 751 3078 
Q 1150 3584 1784 3584 
Q 2172 3584 2448 3432 
Q 2725 3281 2906 2969 
z
M 947 1747 
Q 947 1113 1208 752 
Q 1469 391 1925 391 
Q 2381 391 2643 752 
Q 2906 1113 2906 1747 
Q 2906 2381 2643 2742 
Q 2381 3103 1925 3103 
Q 1469 3103 1208 2742 
Q 947 2381 947 1747 
z
" transform="scale(0.015625)"/>
     </defs>
     <use xlink:href="#DejaVuSans-Oblique-41" transform="translate(0 0.039062)"/>
     <use xlink:href="#DejaVuSans-Oblique-73" transform="translate(68.408203 -16.367188) scale(0.7)"/>
     <use xlink:href="#DejaVuSans-Oblique-65" transform="translate(104.87793 -16.367188) scale(0.7)"/>
     <use xlink:href="#DejaVuSans-Oblique-67" transform="translate(147.944336 -16.367188) scale(0.7)"/>
     <use xlink:href="#DejaVuSans-3d" transform="translate(214.594727 0.039062)"/>
     <use xlink:href="#DejaVuSans-Oblique-72" transform="translate(317.866211 43.835938) scale(0.7)"/>
     <use xlink:href="#DejaVuSans-32" transform="translate(349.900435 70.632812) scale(0.49)"/>
     <use xlink:href="#DejaVuSans-32" transform="translate(327.866211 -39.367188) scale(0.7)"/>
     <use xlink:href="#DejaVuSans-28" transform="translate(395.48979 0.039062)"/>
     <use xlink:href="#DejaVuSans-Oblique-3b8" transform="translate(434.503462 0.039062)"/>
     <use xlink:href="#DejaVuSans-2212" transform="translate(515.167525 0.039062)"/>
     <use xlink:href="#DejaVuSans-73" transform="translate(618.439009 0.039062)"/>
     <use xlink:href="#DejaVuSans-69" transform="translate(670.538618 0.039062)"/>
     <use xlink:href="#DejaVuSans-6e" transform="translate(698.321822 0.039062)"/>
     <use xlink:href="#DejaVuSans-Oblique-3b8" transform="translate(777.936404 0.039062)"/>
     <use xlink:href="#DejaVuSans-29" transform="translate(839.118045 0.039062)"/>
     <use xlink:href="#DejaVuSans-20" transform="translate(878.131717 0.039062)"/>
     <use xlink:href="#DejaVuSans-20" transform="translate(909.918826 0.039062)"/>
     <use xlink:href="#DejaVuSans-28" transform="translate(941.705935 0.039062)"/>
     <use xlink:href="#DejaVuSans-3b8" transform="translate(980.719607 0.039062)"/>
     <use xlink:href="#DejaVuSans-20" transform="translate(1041.901248 0.039062)"/>
     <use xlink:href="#DejaVuSans-65" transform="translate(1073.688357 0.039062)"/>
     <use xlink:href="#DejaVuSans-6e" transform="translate(1135.211795 0.039062)"/>
     <use xlink:href="#DejaVuSans-20" transform="translate(1198.590701 0.039062)"/>
     <use xlink:href="#DejaVuSans-72" transform="translate(1230.37781 0.039062)"/>
     <use xlink:href="#DejaVuSans-61" transform="translate(1271.491092 0.039062)"/>
     <use xlink:href="#DejaVuSans-64" transform="translate(1332.770389 0.039062)"/>
     <use xlink:href="#DejaVuSans-29" transform="translate(1396.246951 0.039062)"/>
     <path d="M 317.866211 18.835938 
L 317.866211 25.085938 
L 382.98979 25.085938 
L 382.98979 18.835938 
L 317.866211 18.835938 
z
"/>
    </g>
   </g>
   <g id="text_13">
    <!-- SEGMENTO CIRCULAR -->
    <g style="fill: #1f2937" transform="translate(621.592688 35.977355) scale(0.12 -0.12)">
     <defs>
      <path id="DejaVuSans-Bold-47" d="M 4781 347 
Q 4331 128 3847 18 
Q 3363 -91 2847 -91 
Q 1681 -91 1000 561 
Q 319 1213 319 2328 
Q 319 3456 1012 4103 
Q 1706 4750 2913 4750 
Q 3378 4750 3804 4662 
Q 4231 4575 4609 4403 
L 4609 3438 
Q 4219 3659 3833 3768 
Q 3447 3878 3059 3878 
Q 2341 3878 1952 3476 
Q 1563 3075 1563 2328 
Q 1563 1588 1938 1184 
Q 2313 781 3003 781 
Q 3191 781 3352 804 
Q 3513 828 3641 878 
L 3641 1784 
L 2906 1784 
L 2906 2591 
L 4781 2591 
L 4781 347 
z
" transform="scale(0.015625)"/>
      <path id="DejaVuSans-Bold-4d" d="M 588 4666 
L 2119 4666 
L 3181 2169 
L 4250 4666 
L 5778 4666 
L 5778 0 
L 4641 0 
L 4641 3413 
L 3566 897 
L 2803 897 
L 1728 3413 
L 1728 0 
L 588 0 
L 588 4666 
z
" transform="scale(0.015625)"/>
      <path id="DejaVuSans-Bold-4e" d="M 588 4666 
L 1931 4666 
L 3628 1466 
L 3628 4666 
L 4769 4666 
L 4769 0 
L 3425 0 
L 1728 3200 
L 1728 0 
L 588 0 
L 588 4666 
z
" transform="scale(0.015625)"/>
     </defs>
     <use xlink:href="#DejaVuSans-Bold-53"/>
     <use xlink:href="#DejaVuSans-Bold-45" transform="translate(72.021484 0)"/>
     <use xlink:href="#DejaVuSans-Bold-47" transform="translate(140.332031 0)"/>
     <use xlink:href="#DejaVuSans-Bold-4d" transform="translate(222.412109 0)"/>
     <use xlink:href="#DejaVuSans-Bold-45" transform="translate(321.923828 0)"/>
     <use xlink:href="#DejaVuSans-Bold-4e" transform="translate(390.234375 0)"/>
     <use xlink:href="#DejaVuSans-Bold-54" transform="translate(473.925781 0)"/>
     <use xlink:href="#DejaVuSans-Bold-4f" transform="translate(542.138672 0)"/>
     <use xlink:href="#DejaVuSans-Bold-20" transform="translate(627.148438 0)"/>
     <use xlink:href="#DejaVuSans-Bold-43" transform="translate(661.962891 0)"/>
     <use xlink:href="#DejaVuSans-Bold-49" transform="translate(735.351562 0)"/>
     <use xlink:href="#DejaVuSans-Bold-52" transform="translate(772.558594 0)"/>
     <use xlink:href="#DejaVuSans-Bold-43" transform="translate(849.560547 0)"/>
     <use xlink:href="#DejaVuSans-Bold-55" transform="translate(922.949219 0)"/>
     <use xlink:href="#DejaVuSans-Bold-4c" transform="translate(1004.150391 0)"/>
     <use xlink:href="#DejaVuSans-Bold-41" transform="translate(1067.871094 0)"/>
     <use xlink:href="#DejaVuSans-Bold-52" transform="translate(1145.263672 0)"/>
    </g>
   </g>
  </g>
  <g id="text_14">
   <!-- Sector y Segmento Circular -->
   <g style="fill: #1f2937" transform="translate(333.81234 17.837812) scale(0.14 -0.14)">
    <defs>
     <path id="DejaVuSans-Bold-79" d="M 78 3500 
L 1197 3500 
L 2138 1125 
L 2938 3500 
L 4056 3500 
L 2584 -331 
Q 2363 -916 2067 -1148 
Q 1772 -1381 1288 -1381 
L 641 -1381 
L 641 -647 
L 991 -647 
Q 1275 -647 1404 -556 
Q 1534 -466 1606 -231 
L 1638 -134 
L 78 3500 
z
" transform="scale(0.015625)"/>
     <path id="DejaVuSans-Bold-69" d="M 538 3500 
L 1656 3500 
L 1656 0 
L 538 0 
L 538 3500 
z
M 538 4863 
L 1656 4863 
L 1656 3950 
L 538 3950 
L 538 4863 
z
" transform="scale(0.015625)"/>
     <path id="DejaVuSans-Bold-6c" d="M 538 4863 
L 1656 4863 
L 1656 0 
L 538 0 
L 538 4863 
z
" transform="scale(0.015625)"/>
    </defs>
    <use xlink:href="#DejaVuSans-Bold-53"/>
    <use xlink:href="#DejaVuSans-Bold-65" transform="translate(72.021484 0)"/>
    <use xlink:href="#DejaVuSans-Bold-63" transform="translate(139.84375 0)"/>
    <use xlink:href="#DejaVuSans-Bold-74" transform="translate(199.121094 0)"/>
    <use xlink:href="#DejaVuSans-Bold-6f" transform="translate(246.923828 0)"/>
    <use xlink:href="#DejaVuSans-Bold-72" transform="translate(315.625 0)"/>
    <use xlink:href="#DejaVuSans-Bold-20" transform="translate(364.941406 0)"/>
    <use xlink:href="#DejaVuSans-Bold-79" transform="translate(399.755859 0)"/>
    <use xlink:href="#DejaVuSans-Bold-20" transform="translate(464.941406 0)"/>
    <use xlink:href="#DejaVuSans-Bold-53" transform="translate(499.755859 0)"/>
    <use xlink:href="#DejaVuSans-Bold-65" transform="translate(571.777344 0)"/>
    <use xlink:href="#DejaVuSans-Bold-67" transform="translate(639.599609 0)"/>
    <use xlink:href="#DejaVuSans-Bold-6d" transform="translate(711.181641 0)"/>
    <use xlink:href="#DejaVuSans-Bold-65" transform="translate(815.380859 0)"/>
    <use xlink:href="#DejaVuSans-Bold-6e" transform="translate(883.203125 0)"/>
    <use xlink:href="#DejaVuSans-Bold-74" transform="translate(954.394531 0)"/>
    <use xlink:href="#DejaVuSans-Bold-6f" transform="translate(1002.197266 0)"/>
    <use xlink:href="#DejaVuSans-Bold-20" transform="translate(1070.898438 0)"/>
    <use xlink:href="#DejaVuSans-Bold-43" transform="translate(1105.712891 0)"/>
    <use xlink:href="#DejaVuSans-Bold-69" transform="translate(1179.101562 0)"/>
    <use xlink:href="#DejaVuSans-Bold-72" transform="translate(1213.378906 0)"/>
    <use xlink:href="#DejaVuSans-Bold-63" transform="translate(1262.695312 0)"/>
    <use xlink:href="#DejaVuSans-Bold-75" transform="translate(1321.972656 0)"/>
    <use xlink:href="#DejaVuSans-Bold-6c" transform="translate(1393.164062 0)"/>
    <use xlink:href="#DejaVuSans-Bold-61" transform="translate(1427.441406 0)"/>
    <use xlink:href="#DejaVuSans-Bold-72" transform="translate(1494.921875 0)"/>
   </g>
  </g>
 </g>
 <defs>
  <clipPath id="pdf78c91fbf">
   <rect x="7.2" y="50.977355" width="363.377732" height="454.222165"/>
  </clipPath>
  <clipPath id="p3f3a72d938">
   <rect x="513.23976" y="50.977355" width="363.377732" height="454.222165"/>
  </clipPath>
 </defs>
</svg>
