<?xml version="1.0" encoding="utf-8" standalone="no"?>
<!DOCTYPE svg PUBLIC "-//W3C//DTD SVG 1.1//EN"
  "http://www.w3.org/Graphics/SVG/1.1/DTD/svg11.dtd">
<svg xmlns:xlink="http://www.w3.org/1999/xlink" width="737.635915pt" height="424.8pt" viewBox="0 0 737.635915 424.8" xmlns="http://www.w3.org/2000/svg" version="1.1">
 <metadata>
  <rdf:RDF xmlns:dc="http://purl.org/dc/elements/1.1/" xmlns:cc="http://creativecommons.org/ns#" xmlns:rdf="http://www.w3.org/1999/02/22-rdf-syntax-ns#">
   <cc:Work>
    <dc:type rdf:resource="http://purl.org/dc/dcmitype/StillImage"/>
    <dc:date>2026-01-03T17:13:36.163668</dc:date>
    <dc:format>image/svg+xml</dc:format>
    <dc:creator>
     <cc:Agent>
      <dc:title>Repositorio Matemáticas Universitarias</dc:title>
     </cc:Agent>
    </dc:creator>
   </cc:Work>
  </rdf:RDF>
 </metadata>
 <defs>
  <style type="text/css">*{stroke-linejoin: round; stroke-linecap: butt}</style>
 </defs>
 <g id="figure_1">
  <g id="patch_1">
   <path d="M 0 424.8 
L 737.635915 424.8 
L 737.635915 0 
L 0 0 
z
" style="fill: #ffffff"/>
  </g>
  <g id="axes_1">
   <g id="patch_2">
    <path d="M 145.036712 196.076712 
L 237.553956 162.403189 
L 236.556995 159.780922 
L 235.485727 157.188123 
L 234.341021 154.626899 
L 233.123807 152.099328 
L 231.835074 149.607464 
L 230.475867 147.153329 
L 229.047291 144.738917 
L 227.550504 142.366186 
L 225.986724 140.037064 
L 224.357218 137.753441 
L 222.66331 135.517172 
L 220.906376 133.330073 
L 219.087842 131.193919 
L 217.209184 129.110445 
L 215.271928 127.081342 
L 213.277646 125.108258 
L 211.227958 123.192794 
L 209.124529 121.336507 
L 206.969065 119.540902 
L 204.763317 117.807438 
L 202.509076 116.137523 
L 200.208171 114.532512 
L 197.862473 112.993708 
L 195.473883 111.522361 
L 193.044343 110.119665 
L 190.575825 108.78676 
L 188.070332 107.524727 
L 185.5299 106.334591 
L 182.95659 105.217318 
L 180.352492 104.173817 
L 177.719721 103.204932 
L 175.060414 102.311453 
L 172.37673 101.494103 
L 169.670848 100.753547 
L 166.944965 100.090385 
L 164.201295 99.505157 
L 161.442064 98.998337 
L 158.669513 98.570337 
L 155.885894 98.221504 
L 153.093466 97.952122 
L 150.294497 97.762409 
L 147.491258 97.652519 
L 144.686027 97.622542 
L 141.881081 97.672502 
L 139.078697 97.802359 
L 136.28115 98.012006 
L 133.490712 98.301274 
L 130.709648 98.669927 
L 127.940217 99.117667 
z
" clip-path="url(#p3d054bd40e)" style="fill: #2563eb; opacity: 0.4; stroke: #2563eb; stroke-linejoin: miter"/>
   </g>
   <g id="line2d_1">
    <path d="M 243.491507 196.076712 
L 243.293285 189.832323 
L 242.69942 183.613078 
L 241.7123 177.44402 
L 240.335903 171.349989 
L 238.575769 165.355524 
L 236.438986 159.484762 
L 233.934159 153.761343 
L 231.071373 148.208313 
L 227.862156 142.848032 
L 224.31943 137.702084 
L 220.457461 132.79119 
L 216.291798 128.135125 
L 211.839217 123.752637 
L 207.117646 119.661372 
L 202.146096 115.877804 
L 196.944587 112.41717 
L 191.534064 109.293403 
L 185.936312 106.519081 
L 180.173872 104.105377 
L 174.269947 102.062008 
L 168.24831 100.397204 
L 162.133208 99.117667 
L 155.949265 98.228551 
L 149.72138 97.733434 
L 143.474632 97.634311 
L 137.234174 97.93158 
L 131.025134 98.624046 
L 124.872514 99.708919 
L 118.801088 101.181831 
L 112.835303 103.036851 
L 106.999182 105.26651 
L 101.316225 107.861829 
L 95.809315 110.812359 
L 90.500626 114.106218 
L 85.411535 117.730144 
L 80.562533 121.669543 
L 75.973146 125.908554 
L 71.661854 130.430107 
L 67.646016 135.215996 
L 63.941804 140.24695 
L 60.564132 145.50271 
L 57.526601 150.962114 
L 54.841442 156.603179 
L 52.519468 162.403189 
L 50.570029 168.338791 
L 49.000973 174.386084 
L 47.818619 180.520717 
L 47.027729 186.717989 
L 46.631486 192.952945 
L 46.631486 199.20048 
L 47.027729 205.435436 
L 47.818619 211.632707 
L 49.000973 217.767341 
L 50.570029 223.814633 
L 52.519468 229.750235 
L 54.841442 235.550246 
L 57.526601 241.19131 
L 60.564132 246.650714 
L 63.941804 251.906475 
L 67.646016 256.937428 
L 71.661854 261.723317 
L 75.973146 266.244871 
L 80.562533 270.483881 
L 85.411535 274.423281 
L 90.500626 278.047206 
L 95.809315 281.341066 
L 101.316225 284.291595 
L 106.999182 286.886915 
L 112.835303 289.116574 
L 118.801088 290.971594 
L 124.872514 292.444506 
L 131.025134 293.529379 
L 137.234174 294.221844 
L 143.474632 294.519114 
L 149.72138 294.419991 
L 155.949265 293.924874 
L 162.133208 293.035757 
L 168.24831 291.756221 
L 174.269947 290.091416 
L 180.173872 288.048048 
L 185.936312 285.634344 
L 191.534064 282.860022 
L 196.944587 279.736255 
L 202.146096 276.27562 
L 207.117646 272.492053 
L 211.839217 268.400788 
L 216.291798 264.0183 
L 220.457461 259.362234 
L 224.31943 254.451341 
L 227.862156 249.305393 
L 231.071373 243.945112 
L 233.934159 238.392082 
L 236.438986 232.668663 
L 238.575769 226.797901 
L 240.335903 220.803436 
L 241.7123 214.709405 
L 242.69942 208.540346 
L 243.293285 202.321101 
L 243.491507 196.076712 
" clip-path="url(#p3d054bd40e)" style="fill: none; stroke: #d1d5db; stroke-width: 1.5; stroke-linecap: square"/>
   </g>
   <g id="line2d_2">
    <path d="M 237.553956 162.403189 
L 236.556995 159.780922 
L 235.485727 157.188123 
L 234.341021 154.626899 
L 233.123807 152.099328 
L 231.835074 149.607464 
L 230.475867 147.153329 
L 229.047291 144.738917 
L 227.550504 142.366186 
L 225.986724 140.037064 
L 224.357218 137.753441 
L 222.66331 135.517172 
L 220.906376 133.330073 
L 219.087842 131.193919 
L 217.209184 129.110445 
L 215.271928 127.081342 
L 213.277646 125.108258 
L 211.227958 123.192794 
L 209.124529 121.336507 
L 206.969065 119.540902 
L 204.763317 117.807438 
L 202.509076 116.137523 
L 200.208171 114.532512 
L 197.862473 112.993708 
L 195.473883 111.522361 
L 193.044343 110.119665 
L 190.575825 108.78676 
L 188.070332 107.524727 
L 185.5299 106.334591 
L 182.95659 105.217318 
L 180.352492 104.173817 
L 177.719721 103.204932 
L 175.060414 102.311453 
L 172.37673 101.494103 
L 169.670848 100.753547 
L 166.944965 100.090385 
L 164.201295 99.505157 
L 161.442064 98.998337 
L 158.669513 98.570337 
L 155.885894 98.221504 
L 153.093466 97.952122 
L 150.294497 97.762409 
L 147.491258 97.652519 
L 144.686027 97.622542 
L 141.881081 97.672502 
L 139.078697 97.802359 
L 136.28115 98.012006 
L 133.490712 98.301274 
L 130.709648 98.669927 
L 127.940217 99.117667 
" clip-path="url(#p3d054bd40e)" style="fill: none; stroke: #2563eb; stroke-width: 3; stroke-linecap: square"/>
   </g>
   <g id="line2d_3">
    <path d="M 145.036712 196.076712 
L 237.553956 162.403189 
" clip-path="url(#p3d054bd40e)" style="fill: none; stroke: #dc2626; stroke-width: 2.5; stroke-linecap: square"/>
   </g>
   <g id="line2d_4">
    <path d="M 145.036712 196.076712 
L 127.940217 99.117667 
" clip-path="url(#p3d054bd40e)" style="fill: none; stroke: #dc2626; stroke-width: 2.5; stroke-linecap: square"/>
   </g>
   <g id="line2d_5">
    <defs>
     <path id="mb8f1373716" d="M 0 3 
C 0.795609 3 1.55874 2.683901 2.12132 2.12132 
C 2.683901 1.55874 3 0.795609 3 0 
C 3 -0.795609 2.683901 -1.55874 2.12132 -2.12132 
C 1.55874 -2.683901 0.795609 -3 0 -3 
C -0.795609 -3 -1.55874 -2.683901 -2.12132 -2.12132 
C -2.683901 -1.55874 -3 -0.795609 -3 0 
C -3 0.795609 -2.683901 1.55874 -2.12132 2.12132 
C -1.55874 2.683901 -0.795609 3 0 3 
z
" style="stroke: #374151"/>
    </defs>
    <g clip-path="url(#p3d054bd40e)">
     <use xlink:href="#mb8f1373716" x="145.036712" y="196.076712" style="fill: #374151; stroke: #374151"/>
    </g>
   </g>
   <g id="line2d_6">
    <path d="M 163.540161 189.342008 
L 163.194588 188.459271 
L 162.80693 187.594188 
L 162.378087 186.748766 
L 161.909052 185.924963 
L 161.400912 185.124688 
L 160.854845 184.349797 
L 160.272116 183.602085 
L 159.654077 182.883285 
L 159.002159 182.195064 
L 158.317873 181.539015 
L 157.602806 180.916661 
L 156.858615 180.329443 
L 156.087024 179.778722 
L 155.289822 179.265775 
L 154.468856 178.79179 
L 153.62603 178.357867 
L 152.763296 177.96501 
L 151.882655 177.61413 
L 150.986147 177.306041 
L 150.07585 177.041457 
L 149.153874 176.82099 
L 148.222355 176.645152 
L 147.283453 176.51435 
L 146.339344 176.428888 
L 145.392216 176.388963 
L 144.444264 176.394668 
L 143.497685 176.44599 
L 142.554673 176.54281 
L 141.617413 176.684903 
" clip-path="url(#p3d054bd40e)" style="fill: none; stroke: #059669; stroke-width: 2; stroke-linecap: square"/>
   </g>
   <g id="text_1">
    <!-- O -->
    <g style="fill: #1f2937" transform="translate(152.420822 208.383562) scale(0.11 -0.11)">
     <defs>
      <path id="DejaVuSans-Bold-4f" d="M 2719 3878 
Q 2169 3878 1866 3472 
Q 1563 3066 1563 2328 
Q 1563 1594 1866 1187 
Q 2169 781 2719 781 
Q 3272 781 3575 1187 
Q 3878 1594 3878 2328 
Q 3878 3066 3575 3472 
Q 3272 3878 2719 3878 
z
M 2719 4750 
Q 3844 4750 4481 4106 
Q 5119 3463 5119 2328 
Q 5119 1197 4481 553 
Q 3844 -91 2719 -91 
Q 1597 -91 958 553 
Q 319 1197 319 2328 
Q 319 3463 958 4106 
Q 1597 4750 2719 4750 
z
" transform="scale(0.015625)"/>
     </defs>
     <use xlink:href="#DejaVuSans-Bold-4f"/>
    </g>
   </g>
   <g id="text_2">
    <!-- θ -->
    <g style="fill: #059669" transform="translate(162.266301 169.001644) scale(0.14 -0.14)">
     <defs>
      <path id="DejaVuSans-Bold-3b8" d="M 1447 2081 
Q 1469 1444 1638 1181 
Q 1922 728 2197 725 
Q 2475 722 2763 1181 
Q 2931 1453 2953 2081 
L 1447 2081 
z
M 2950 2881 
Q 2913 3394 2759 3688 
Q 2522 4144 2200 4144 
Q 1875 4144 1641 3688 
Q 1484 3384 1450 2881 
L 2950 2881 
z
M 2200 4913 
Q 3247 4913 3686 4231 
Q 4125 3550 4125 2403 
Q 4125 1256 3673 592 
Q 3222 -72 2200 -72 
Q 1178 -72 726 592 
Q 275 1256 275 2403 
Q 275 3550 714 4231 
Q 1153 4913 2200 4913 
z
" transform="scale(0.015625)"/>
     </defs>
     <use xlink:href="#DejaVuSans-Bold-3b8"/>
    </g>
   </g>
   <g id="text_3">
    <!-- arco -->
    <g style="fill: #2563eb" transform="translate(189.409157 98.022706) scale(0.1 -0.1)">
     <defs>
      <path id="DejaVuSans-Bold-61" d="M 2106 1575 
Q 1756 1575 1579 1456 
Q 1403 1338 1403 1106 
Q 1403 894 1545 773 
Q 1688 653 1941 653 
Q 2256 653 2472 879 
Q 2688 1106 2688 1447 
L 2688 1575 
L 2106 1575 
z
M 3816 1997 
L 3816 0 
L 2688 0 
L 2688 519 
Q 2463 200 2181 54 
Q 1900 -91 1497 -91 
Q 953 -91 614 226 
Q 275 544 275 1050 
Q 275 1666 698 1953 
Q 1122 2241 2028 2241 
L 2688 2241 
L 2688 2328 
Q 2688 2594 2478 2717 
Q 2269 2841 1825 2841 
Q 1466 2841 1156 2769 
Q 847 2697 581 2553 
L 581 3406 
Q 941 3494 1303 3539 
Q 1666 3584 2028 3584 
Q 2975 3584 3395 3211 
Q 3816 2838 3816 1997 
z
" transform="scale(0.015625)"/>
      <path id="DejaVuSans-Bold-72" d="M 3138 2547 
Q 2991 2616 2845 2648 
Q 2700 2681 2553 2681 
Q 2122 2681 1889 2404 
Q 1656 2128 1656 1613 
L 1656 0 
L 538 0 
L 538 3500 
L 1656 3500 
L 1656 2925 
Q 1872 3269 2151 3426 
Q 2431 3584 2822 3584 
Q 2878 3584 2943 3579 
Q 3009 3575 3134 3559 
L 3138 2547 
z
" transform="scale(0.015625)"/>
      <path id="DejaVuSans-Bold-63" d="M 3366 3391 
L 3366 2478 
Q 3138 2634 2908 2709 
Q 2678 2784 2431 2784 
Q 1963 2784 1702 2511 
Q 1441 2238 1441 1747 
Q 1441 1256 1702 982 
Q 1963 709 2431 709 
Q 2694 709 2930 787 
Q 3166 866 3366 1019 
L 3366 103 
Q 3103 6 2833 -42 
Q 2563 -91 2291 -91 
Q 1344 -91 809 395 
Q 275 881 275 1747 
Q 275 2613 809 3098 
Q 1344 3584 2291 3584 
Q 2566 3584 2833 3536 
Q 3100 3488 3366 3391 
z
" transform="scale(0.015625)"/>
      <path id="DejaVuSans-Bold-6f" d="M 2203 2784 
Q 1831 2784 1636 2517 
Q 1441 2250 1441 1747 
Q 1441 1244 1636 976 
Q 1831 709 2203 709 
Q 2569 709 2762 976 
Q 2956 1244 2956 1747 
Q 2956 2250 2762 2517 
Q 2569 2784 2203 2784 
z
M 2203 3584 
Q 3106 3584 3614 3096 
Q 4122 2609 4122 1747 
Q 4122 884 3614 396 
Q 3106 -91 2203 -91 
Q 1297 -91 786 396 
Q 275 884 275 1747 
Q 275 2609 786 3096 
Q 1297 3584 2203 3584 
z
" transform="scale(0.015625)"/>
     </defs>
     <use xlink:href="#DejaVuSans-Bold-61"/>
     <use xlink:href="#DejaVuSans-Bold-72" transform="translate(67.480469 0)"/>
     <use xlink:href="#DejaVuSans-Bold-63" transform="translate(116.796875 0)"/>
     <use xlink:href="#DejaVuSans-Bold-6f" transform="translate(176.074219 0)"/>
    </g>
   </g>
   <g id="text_4">
    <!-- r -->
    <g style="fill: #dc2626" transform="translate(200.547059 183.256708) scale(0.12 -0.12)">
     <use xlink:href="#DejaVuSans-Bold-72"/>
    </g>
   </g>
   <g id="text_5">
    <!-- Área del sector: -->
    <g style="fill: #374151" transform="translate(100.149212 333.913425) scale(0.1 -0.1)">
     <defs>
      <path id="DejaVuSans-Bold-c1" d="M 3419 850 
L 1538 850 
L 1241 0 
L 31 0 
L 1759 4666 
L 3194 4666 
L 4922 0 
L 3713 0 
L 3419 850 
z
M 1838 1716 
L 3116 1716 
L 2478 3572 
L 1838 1716 
z
M 2559 5921 
L 3444 5921 
L 2553 5096 
L 1941 5096 
L 2559 5921 
z
" transform="scale(0.015625)"/>
      <path id="DejaVuSans-Bold-65" d="M 4031 1759 
L 4031 1441 
L 1416 1441 
Q 1456 1047 1700 850 
Q 1944 653 2381 653 
Q 2734 653 3104 758 
Q 3475 863 3866 1075 
L 3866 213 
Q 3469 63 3072 -14 
Q 2675 -91 2278 -91 
Q 1328 -91 801 392 
Q 275 875 275 1747 
Q 275 2603 792 3093 
Q 1309 3584 2216 3584 
Q 3041 3584 3536 3087 
Q 4031 2591 4031 1759 
z
M 2881 2131 
Q 2881 2450 2695 2645 
Q 2509 2841 2209 2841 
Q 1884 2841 1681 2658 
Q 1478 2475 1428 2131 
L 2881 2131 
z
" transform="scale(0.015625)"/>
      <path id="DejaVuSans-Bold-20" transform="scale(0.015625)"/>
      <path id="DejaVuSans-Bold-64" d="M 2919 2988 
L 2919 4863 
L 4044 4863 
L 4044 0 
L 2919 0 
L 2919 506 
Q 2688 197 2409 53 
Q 2131 -91 1766 -91 
Q 1119 -91 703 423 
Q 288 938 288 1747 
Q 288 2556 703 3070 
Q 1119 3584 1766 3584 
Q 2128 3584 2408 3439 
Q 2688 3294 2919 2988 
z
M 2181 722 
Q 2541 722 2730 984 
Q 2919 1247 2919 1747 
Q 2919 2247 2730 2509 
Q 2541 2772 2181 2772 
Q 1825 2772 1636 2509 
Q 1447 2247 1447 1747 
Q 1447 1247 1636 984 
Q 1825 722 2181 722 
z
" transform="scale(0.015625)"/>
      <path id="DejaVuSans-Bold-6c" d="M 538 4863 
L 1656 4863 
L 1656 0 
L 538 0 
L 538 4863 
z
" transform="scale(0.015625)"/>
      <path id="DejaVuSans-Bold-73" d="M 3272 3391 
L 3272 2541 
Q 2913 2691 2578 2766 
Q 2244 2841 1947 2841 
Q 1628 2841 1473 2761 
Q 1319 2681 1319 2516 
Q 1319 2381 1436 2309 
Q 1553 2238 1856 2203 
L 2053 2175 
Q 2913 2066 3209 1816 
Q 3506 1566 3506 1031 
Q 3506 472 3093 190 
Q 2681 -91 1863 -91 
Q 1516 -91 1145 -36 
Q 775 19 384 128 
L 384 978 
Q 719 816 1070 734 
Q 1422 653 1784 653 
Q 2113 653 2278 743 
Q 2444 834 2444 1013 
Q 2444 1163 2330 1236 
Q 2216 1309 1875 1350 
L 1678 1375 
Q 931 1469 631 1722 
Q 331 1975 331 2491 
Q 331 3047 712 3315 
Q 1094 3584 1881 3584 
Q 2191 3584 2531 3537 
Q 2872 3491 3272 3391 
z
" transform="scale(0.015625)"/>
      <path id="DejaVuSans-Bold-74" d="M 1759 4494 
L 1759 3500 
L 2913 3500 
L 2913 2700 
L 1759 2700 
L 1759 1216 
Q 1759 972 1856 886 
Q 1953 800 2241 800 
L 2816 800 
L 2816 0 
L 1856 0 
Q 1194 0 917 276 
Q 641 553 641 1216 
L 641 2700 
L 84 2700 
L 84 3500 
L 641 3500 
L 641 4494 
L 1759 4494 
z
" transform="scale(0.015625)"/>
      <path id="DejaVuSans-Bold-3a" d="M 716 3500 
L 1844 3500 
L 1844 2291 
L 716 2291 
L 716 3500 
z
M 716 1209 
L 1844 1209 
L 1844 0 
L 716 0 
L 716 1209 
z
" transform="scale(0.015625)"/>
     </defs>
     <use xlink:href="#DejaVuSans-Bold-c1"/>
     <use xlink:href="#DejaVuSans-Bold-72" transform="translate(77.392578 0)"/>
     <use xlink:href="#DejaVuSans-Bold-65" transform="translate(126.708984 0)"/>
     <use xlink:href="#DejaVuSans-Bold-61" transform="translate(194.53125 0)"/>
     <use xlink:href="#DejaVuSans-Bold-20" transform="translate(262.011719 0)"/>
     <use xlink:href="#DejaVuSans-Bold-64" transform="translate(296.826172 0)"/>
     <use xlink:href="#DejaVuSans-Bold-65" transform="translate(368.408203 0)"/>
     <use xlink:href="#DejaVuSans-Bold-6c" transform="translate(436.230469 0)"/>
     <use xlink:href="#DejaVuSans-Bold-20" transform="translate(470.507812 0)"/>
     <use xlink:href="#DejaVuSans-Bold-73" transform="translate(505.322266 0)"/>
     <use xlink:href="#DejaVuSans-Bold-65" transform="translate(564.84375 0)"/>
     <use xlink:href="#DejaVuSans-Bold-63" transform="translate(632.666016 0)"/>
     <use xlink:href="#DejaVuSans-Bold-74" transform="translate(691.943359 0)"/>
     <use xlink:href="#DejaVuSans-Bold-6f" transform="translate(739.746094 0)"/>
     <use xlink:href="#DejaVuSans-Bold-72" transform="translate(808.447266 0)"/>
     <use xlink:href="#DejaVuSans-Bold-3a" transform="translate(857.763672 0)"/>
    </g>
   </g>
   <g id="text_6">
    <!-- $A = \frac{\theta}{360°} \cdot \pi r^2$ -->
    <g style="fill: #1f2937" transform="translate(109.216712 353.604384) scale(0.12 -0.12)">
     <defs>
      <path id="DejaVuSans-Oblique-41" d="M 2356 4666 
L 3072 4666 
L 3938 0 
L 3278 0 
L 3084 1197 
L 984 1197 
L 325 0 
L -341 0 
L 2356 4666 
z
M 2584 4044 
L 1275 1722 
L 2988 1722 
L 2584 4044 
z
" transform="scale(0.015625)"/>
      <path id="DejaVuSans-3d" d="M 678 2906 
L 4684 2906 
L 4684 2381 
L 678 2381 
L 678 2906 
z
M 678 1631 
L 4684 1631 
L 4684 1100 
L 678 1100 
L 678 1631 
z
" transform="scale(0.015625)"/>
      <path id="DejaVuSans-Oblique-3b8" d="M 2913 2219 
L 925 2219 
Q 791 1284 928 888 
Q 1100 400 1566 400 
Q 2034 400 2391 891 
Q 2703 1322 2913 2219 
z
M 3009 2750 
Q 3094 3638 2984 3950 
Q 2813 4444 2353 4444 
Q 1875 4444 1525 3956 
Q 1250 3563 1034 2750 
L 3009 2750 
z
M 2444 4913 
Q 3194 4913 3494 4250 
Q 3794 3591 3566 2422 
Q 3341 1256 2781 594 
Q 2225 -72 1475 -72 
Q 722 -72 425 594 
Q 128 1256 353 2422 
Q 581 3591 1134 4250 
Q 1691 4913 2444 4913 
z
" transform="scale(0.015625)"/>
      <path id="DejaVuSans-33" d="M 2597 2516 
Q 3050 2419 3304 2112 
Q 3559 1806 3559 1356 
Q 3559 666 3084 287 
Q 2609 -91 1734 -91 
Q 1441 -91 1130 -33 
Q 819 25 488 141 
L 488 750 
Q 750 597 1062 519 
Q 1375 441 1716 441 
Q 2309 441 2620 675 
Q 2931 909 2931 1356 
Q 2931 1769 2642 2001 
Q 2353 2234 1838 2234 
L 1294 2234 
L 1294 2753 
L 1863 2753 
Q 2328 2753 2575 2939 
Q 2822 3125 2822 3475 
Q 2822 3834 2567 4026 
Q 2313 4219 1838 4219 
Q 1578 4219 1281 4162 
Q 984 4106 628 3988 
L 628 4550 
Q 988 4650 1302 4700 
Q 1616 4750 1894 4750 
Q 2613 4750 3031 4423 
Q 3450 4097 3450 3541 
Q 3450 3153 3228 2886 
Q 3006 2619 2597 2516 
z
" transform="scale(0.015625)"/>
      <path id="DejaVuSans-36" d="M 2113 2584 
Q 1688 2584 1439 2293 
Q 1191 2003 1191 1497 
Q 1191 994 1439 701 
Q 1688 409 2113 409 
Q 2538 409 2786 701 
Q 3034 994 3034 1497 
Q 3034 2003 2786 2293 
Q 2538 2584 2113 2584 
z
M 3366 4563 
L 3366 3988 
Q 3128 4100 2886 4159 
Q 2644 4219 2406 4219 
Q 1781 4219 1451 3797 
Q 1122 3375 1075 2522 
Q 1259 2794 1537 2939 
Q 1816 3084 2150 3084 
Q 2853 3084 3261 2657 
Q 3669 2231 3669 1497 
Q 3669 778 3244 343 
Q 2819 -91 2113 -91 
Q 1303 -91 875 529 
Q 447 1150 447 2328 
Q 447 3434 972 4092 
Q 1497 4750 2381 4750 
Q 2619 4750 2861 4703 
Q 3103 4656 3366 4563 
z
" transform="scale(0.015625)"/>
      <path id="DejaVuSans-30" d="M 2034 4250 
Q 1547 4250 1301 3770 
Q 1056 3291 1056 2328 
Q 1056 1369 1301 889 
Q 1547 409 2034 409 
Q 2525 409 2770 889 
Q 3016 1369 3016 2328 
Q 3016 3291 2770 3770 
Q 2525 4250 2034 4250 
z
M 2034 4750 
Q 2819 4750 3233 4129 
Q 3647 3509 3647 2328 
Q 3647 1150 3233 529 
Q 2819 -91 2034 -91 
Q 1250 -91 836 529 
Q 422 1150 422 2328 
Q 422 3509 836 4129 
Q 1250 4750 2034 4750 
z
" transform="scale(0.015625)"/>
      <path id="DejaVuSans-b0" d="M 1600 4347 
Q 1350 4347 1178 4173 
Q 1006 4000 1006 3750 
Q 1006 3503 1178 3333 
Q 1350 3163 1600 3163 
Q 1850 3163 2022 3333 
Q 2194 3503 2194 3750 
Q 2194 3997 2020 4172 
Q 1847 4347 1600 4347 
z
M 1600 4750 
Q 1800 4750 1984 4673 
Q 2169 4597 2303 4453 
Q 2447 4313 2519 4134 
Q 2591 3956 2591 3750 
Q 2591 3338 2302 3052 
Q 2013 2766 1594 2766 
Q 1172 2766 890 3047 
Q 609 3328 609 3750 
Q 609 4169 896 4459 
Q 1184 4750 1600 4750 
z
" transform="scale(0.015625)"/>
      <path id="DejaVuSans-22c5" d="M 684 2619 
L 1344 2619 
L 1344 1825 
L 684 1825 
L 684 2619 
z
" transform="scale(0.015625)"/>
      <path id="DejaVuSans-Oblique-3c0" d="M 584 3500 
L 3938 3500 
L 3825 2925 
L 3384 2925 
L 2966 775 
Q 2922 550 2981 450 
Q 3038 353 3209 353 
Q 3256 353 3325 363 
Q 3397 369 3419 372 
L 3338 -44 
Q 3222 -84 3103 -103 
Q 2981 -122 2866 -122 
Q 2491 -122 2388 81 
Q 2284 288 2391 838 
L 2797 2925 
L 1506 2925 
L 938 0 
L 350 0 
L 919 2925 
L 472 2925 
L 584 3500 
z
" transform="scale(0.015625)"/>
      <path id="DejaVuSans-Oblique-72" d="M 2853 2969 
Q 2766 3016 2653 3041 
Q 2541 3066 2413 3066 
Q 1953 3066 1609 2717 
Q 1266 2369 1153 1784 
L 800 0 
L 225 0 
L 909 3500 
L 1484 3500 
L 1375 2956 
Q 1603 3259 1920 3421 
Q 2238 3584 2597 3584 
Q 2691 3584 2781 3573 
Q 2872 3563 2963 3538 
L 2853 2969 
z
" transform="scale(0.015625)"/>
      <path id="DejaVuSans-32" d="M 1228 531 
L 3431 531 
L 3431 0 
L 469 0 
L 469 531 
Q 828 903 1448 1529 
Q 2069 2156 2228 2338 
Q 2531 2678 2651 2914 
Q 2772 3150 2772 3378 
Q 2772 3750 2511 3984 
Q 2250 4219 1831 4219 
Q 1534 4219 1204 4116 
Q 875 4013 500 3803 
L 500 4441 
Q 881 4594 1212 4672 
Q 1544 4750 1819 4750 
Q 2544 4750 2975 4387 
Q 3406 4025 3406 3419 
Q 3406 3131 3298 2873 
Q 3191 2616 2906 2266 
Q 2828 2175 2409 1742 
Q 1991 1309 1228 531 
z
" transform="scale(0.015625)"/>
     </defs>
     <use xlink:href="#DejaVuSans-Oblique-41" transform="translate(0 0.679688)"/>
     <use xlink:href="#DejaVuSans-3d" transform="translate(87.890625 0.679688)"/>
     <use xlink:href="#DejaVuSans-Oblique-3b8" transform="translate(254.162109 45.264063) scale(0.7)"/>
     <use xlink:href="#DejaVuSans-33" transform="translate(191.162109 -38.726562) scale(0.7)"/>
     <use xlink:href="#DejaVuSans-36" transform="translate(235.698242 -38.726562) scale(0.7)"/>
     <use xlink:href="#DejaVuSans-30" transform="translate(280.234375 -38.726562) scale(0.7)"/>
     <use xlink:href="#DejaVuSans-b0" transform="translate(324.770508 -38.726562) scale(0.7)"/>
     <use xlink:href="#DejaVuSans-22c5" transform="translate(391.75293 0.679688)"/>
     <use xlink:href="#DejaVuSans-Oblique-3c0" transform="translate(443.022461 0.679688)"/>
     <use xlink:href="#DejaVuSans-Oblique-72" transform="translate(503.227539 0.679688)"/>
     <use xlink:href="#DejaVuSans-32" transform="translate(548.990716 38.960938) scale(0.7)"/>
     <path d="M 191.162109 19.476562 
L 191.162109 25.726562 
L 359.770508 25.726562 
L 359.770508 19.476562 
L 191.162109 19.476562 
z
"/>
    </g>
   </g>
   <g id="text_7">
    <!-- Longitud del arco: -->
    <g style="fill: #374151" transform="translate(93.631244 378.218082) scale(0.1 -0.1)">
     <defs>
      <path id="DejaVuSans-Bold-4c" d="M 588 4666 
L 1791 4666 
L 1791 909 
L 3903 909 
L 3903 0 
L 588 0 
L 588 4666 
z
" transform="scale(0.015625)"/>
      <path id="DejaVuSans-Bold-6e" d="M 4056 2131 
L 4056 0 
L 2931 0 
L 2931 347 
L 2931 1631 
Q 2931 2084 2911 2256 
Q 2891 2428 2841 2509 
Q 2775 2619 2662 2680 
Q 2550 2741 2406 2741 
Q 2056 2741 1856 2470 
Q 1656 2200 1656 1722 
L 1656 0 
L 538 0 
L 538 3500 
L 1656 3500 
L 1656 2988 
Q 1909 3294 2193 3439 
Q 2478 3584 2822 3584 
Q 3428 3584 3742 3212 
Q 4056 2841 4056 2131 
z
" transform="scale(0.015625)"/>
      <path id="DejaVuSans-Bold-67" d="M 2919 594 
Q 2688 288 2409 144 
Q 2131 0 1766 0 
Q 1125 0 706 504 
Q 288 1009 288 1791 
Q 288 2575 706 3076 
Q 1125 3578 1766 3578 
Q 2131 3578 2409 3434 
Q 2688 3291 2919 2981 
L 2919 3500 
L 4044 3500 
L 4044 353 
Q 4044 -491 3511 -936 
Q 2978 -1381 1966 -1381 
Q 1638 -1381 1331 -1331 
Q 1025 -1281 716 -1178 
L 716 -306 
Q 1009 -475 1290 -558 
Q 1572 -641 1856 -641 
Q 2406 -641 2662 -400 
Q 2919 -159 2919 353 
L 2919 594 
z
M 2181 2772 
Q 1834 2772 1640 2515 
Q 1447 2259 1447 1791 
Q 1447 1309 1634 1061 
Q 1822 813 2181 813 
Q 2531 813 2725 1069 
Q 2919 1325 2919 1791 
Q 2919 2259 2725 2515 
Q 2531 2772 2181 2772 
z
" transform="scale(0.015625)"/>
      <path id="DejaVuSans-Bold-69" d="M 538 3500 
L 1656 3500 
L 1656 0 
L 538 0 
L 538 3500 
z
M 538 4863 
L 1656 4863 
L 1656 3950 
L 538 3950 
L 538 4863 
z
" transform="scale(0.015625)"/>
      <path id="DejaVuSans-Bold-75" d="M 500 1363 
L 500 3500 
L 1625 3500 
L 1625 3150 
Q 1625 2866 1622 2436 
Q 1619 2006 1619 1863 
Q 1619 1441 1641 1255 
Q 1663 1069 1716 984 
Q 1784 875 1895 815 
Q 2006 756 2150 756 
Q 2500 756 2700 1025 
Q 2900 1294 2900 1772 
L 2900 3500 
L 4019 3500 
L 4019 0 
L 2900 0 
L 2900 506 
Q 2647 200 2364 54 
Q 2081 -91 1741 -91 
Q 1134 -91 817 281 
Q 500 653 500 1363 
z
" transform="scale(0.015625)"/>
     </defs>
     <use xlink:href="#DejaVuSans-Bold-4c"/>
     <use xlink:href="#DejaVuSans-Bold-6f" transform="translate(63.720703 0)"/>
     <use xlink:href="#DejaVuSans-Bold-6e" transform="translate(132.421875 0)"/>
     <use xlink:href="#DejaVuSans-Bold-67" transform="translate(203.613281 0)"/>
     <use xlink:href="#DejaVuSans-Bold-69" transform="translate(275.195312 0)"/>
     <use xlink:href="#DejaVuSans-Bold-74" transform="translate(309.472656 0)"/>
     <use xlink:href="#DejaVuSans-Bold-75" transform="translate(357.275391 0)"/>
     <use xlink:href="#DejaVuSans-Bold-64" transform="translate(428.466797 0)"/>
     <use xlink:href="#DejaVuSans-Bold-20" transform="translate(500.048828 0)"/>
     <use xlink:href="#DejaVuSans-Bold-64" transform="translate(534.863281 0)"/>
     <use xlink:href="#DejaVuSans-Bold-65" transform="translate(606.445312 0)"/>
     <use xlink:href="#DejaVuSans-Bold-6c" transform="translate(674.267578 0)"/>
     <use xlink:href="#DejaVuSans-Bold-20" transform="translate(708.544922 0)"/>
     <use xlink:href="#DejaVuSans-Bold-61" transform="translate(743.359375 0)"/>
     <use xlink:href="#DejaVuSans-Bold-72" transform="translate(810.839844 0)"/>
     <use xlink:href="#DejaVuSans-Bold-63" transform="translate(860.15625 0)"/>
     <use xlink:href="#DejaVuSans-Bold-6f" transform="translate(919.433594 0)"/>
     <use xlink:href="#DejaVuSans-Bold-3a" transform="translate(988.134766 0)"/>
    </g>
   </g>
   <g id="text_8">
    <!-- $L = \frac{\theta}{360°} \cdot 2\pi r$ -->
    <g style="fill: #1f2937" transform="translate(109.276712 397.909041) scale(0.12 -0.12)">
     <defs>
      <path id="DejaVuSans-Oblique-4c" d="M 1075 4666 
L 1709 4666 
L 909 525 
L 3181 525 
L 3078 0 
L 172 0 
L 1075 4666 
z
" transform="scale(0.015625)"/>
     </defs>
     <use xlink:href="#DejaVuSans-Oblique-4c" transform="translate(0 0.679688)"/>
     <use xlink:href="#DejaVuSans-3d" transform="translate(75.195312 0.679688)"/>
     <use xlink:href="#DejaVuSans-Oblique-3b8" transform="translate(241.466797 45.264063) scale(0.7)"/>
     <use xlink:href="#DejaVuSans-33" transform="translate(178.466797 -38.726562) scale(0.7)"/>
     <use xlink:href="#DejaVuSans-36" transform="translate(223.00293 -38.726562) scale(0.7)"/>
     <use xlink:href="#DejaVuSans-30" transform="translate(267.539062 -38.726562) scale(0.7)"/>
     <use xlink:href="#DejaVuSans-b0" transform="translate(312.075195 -38.726562) scale(0.7)"/>
     <use xlink:href="#DejaVuSans-22c5" transform="translate(379.057617 0.679688)"/>
     <use xlink:href="#DejaVuSans-32" transform="translate(430.327148 0.679688)"/>
     <use xlink:href="#DejaVuSans-Oblique-3c0" transform="translate(493.950195 0.679688)"/>
     <use xlink:href="#DejaVuSans-Oblique-72" transform="translate(554.155273 0.679688)"/>
     <path d="M 178.466797 19.476562 
L 178.466797 25.726562 
L 347.075195 25.726562 
L 347.075195 19.476562 
L 178.466797 19.476562 
z
"/>
    </g>
   </g>
   <g id="text_9">
    <!-- SECTOR CIRCULAR -->
    <g style="fill: #1f2937" transform="translate(82.692962 48.24) scale(0.12 -0.12)">
     <defs>
      <path id="DejaVuSans-Bold-53" d="M 3834 4519 
L 3834 3531 
Q 3450 3703 3084 3790 
Q 2719 3878 2394 3878 
Q 1963 3878 1756 3759 
Q 1550 3641 1550 3391 
Q 1550 3203 1689 3098 
Q 1828 2994 2194 2919 
L 2706 2816 
Q 3484 2659 3812 2340 
Q 4141 2022 4141 1434 
Q 4141 663 3683 286 
Q 3225 -91 2284 -91 
Q 1841 -91 1394 -6 
Q 947 78 500 244 
L 500 1259 
Q 947 1022 1364 901 
Q 1781 781 2169 781 
Q 2563 781 2772 912 
Q 2981 1044 2981 1288 
Q 2981 1506 2839 1625 
Q 2697 1744 2272 1838 
L 1806 1941 
Q 1106 2091 782 2419 
Q 459 2747 459 3303 
Q 459 4000 909 4375 
Q 1359 4750 2203 4750 
Q 2588 4750 2994 4692 
Q 3400 4634 3834 4519 
z
" transform="scale(0.015625)"/>
      <path id="DejaVuSans-Bold-45" d="M 588 4666 
L 3834 4666 
L 3834 3756 
L 1791 3756 
L 1791 2888 
L 3713 2888 
L 3713 1978 
L 1791 1978 
L 1791 909 
L 3903 909 
L 3903 0 
L 588 0 
L 588 4666 
z
" transform="scale(0.015625)"/>
      <path id="DejaVuSans-Bold-43" d="M 4288 256 
Q 3956 84 3597 -3 
Q 3238 -91 2847 -91 
Q 1681 -91 1000 561 
Q 319 1213 319 2328 
Q 319 3447 1000 4098 
Q 1681 4750 2847 4750 
Q 3238 4750 3597 4662 
Q 3956 4575 4288 4403 
L 4288 3438 
Q 3953 3666 3628 3772 
Q 3303 3878 2944 3878 
Q 2300 3878 1931 3465 
Q 1563 3053 1563 2328 
Q 1563 1606 1931 1193 
Q 2300 781 2944 781 
Q 3303 781 3628 887 
Q 3953 994 4288 1222 
L 4288 256 
z
" transform="scale(0.015625)"/>
      <path id="DejaVuSans-Bold-54" d="M 31 4666 
L 4331 4666 
L 4331 3756 
L 2784 3756 
L 2784 0 
L 1581 0 
L 1581 3756 
L 31 3756 
L 31 4666 
z
" transform="scale(0.015625)"/>
      <path id="DejaVuSans-Bold-52" d="M 2297 2597 
Q 2675 2597 2839 2737 
Q 3003 2878 3003 3200 
Q 3003 3519 2839 3656 
Q 2675 3794 2297 3794 
L 1791 3794 
L 1791 2597 
L 2297 2597 
z
M 1791 1766 
L 1791 0 
L 588 0 
L 588 4666 
L 2425 4666 
Q 3347 4666 3776 4356 
Q 4206 4047 4206 3378 
Q 4206 2916 3982 2619 
Q 3759 2322 3309 2181 
Q 3556 2125 3751 1926 
Q 3947 1728 4147 1325 
L 4800 0 
L 3519 0 
L 2950 1159 
Q 2778 1509 2601 1637 
Q 2425 1766 2131 1766 
L 1791 1766 
z
" transform="scale(0.015625)"/>
      <path id="DejaVuSans-Bold-49" d="M 588 4666 
L 1791 4666 
L 1791 0 
L 588 0 
L 588 4666 
z
" transform="scale(0.015625)"/>
      <path id="DejaVuSans-Bold-55" d="M 588 4666 
L 1791 4666 
L 1791 1869 
Q 1791 1291 1980 1042 
Q 2169 794 2597 794 
Q 3028 794 3217 1042 
Q 3406 1291 3406 1869 
L 3406 4666 
L 4609 4666 
L 4609 1869 
Q 4609 878 4112 393 
Q 3616 -91 2597 -91 
Q 1581 -91 1084 393 
Q 588 878 588 1869 
L 588 4666 
z
" transform="scale(0.015625)"/>
      <path id="DejaVuSans-Bold-41" d="M 3419 850 
L 1538 850 
L 1241 0 
L 31 0 
L 1759 4666 
L 3194 4666 
L 4922 0 
L 3713 0 
L 3419 850 
z
M 1838 1716 
L 3116 1716 
L 2478 3572 
L 1838 1716 
z
" transform="scale(0.015625)"/>
     </defs>
     <use xlink:href="#DejaVuSans-Bold-53"/>
     <use xlink:href="#DejaVuSans-Bold-45" transform="translate(72.021484 0)"/>
     <use xlink:href="#DejaVuSans-Bold-43" transform="translate(140.332031 0)"/>
     <use xlink:href="#DejaVuSans-Bold-54" transform="translate(213.720703 0)"/>
     <use xlink:href="#DejaVuSans-Bold-4f" transform="translate(281.933594 0)"/>
     <use xlink:href="#DejaVuSans-Bold-52" transform="translate(366.943359 0)"/>
     <use xlink:href="#DejaVuSans-Bold-20" transform="translate(443.945312 0)"/>
     <use xlink:href="#DejaVuSans-Bold-43" transform="translate(478.759766 0)"/>
     <use xlink:href="#DejaVuSans-Bold-49" transform="translate(552.148438 0)"/>
     <use xlink:href="#DejaVuSans-Bold-52" transform="translate(589.355469 0)"/>
     <use xlink:href="#DejaVuSans-Bold-43" transform="translate(666.357422 0)"/>
     <use xlink:href="#DejaVuSans-Bold-55" transform="translate(739.746094 0)"/>
     <use xlink:href="#DejaVuSans-Bold-4c" transform="translate(820.947266 0)"/>
     <use xlink:href="#DejaVuSans-Bold-41" transform="translate(884.667969 0)"/>
     <use xlink:href="#DejaVuSans-Bold-52" transform="translate(962.060547 0)"/>
    </g>
   </g>
  </g>
  <g id="axes_2">
   <g id="patch_3">
    <path d="M 685.116447 162.403189 
L 684.119486 159.780922 
L 683.048217 157.188123 
L 681.903511 154.626899 
L 680.686298 152.099328 
L 679.397564 149.607464 
L 678.038358 147.153329 
L 676.609781 144.738917 
L 675.112995 142.366186 
L 673.549214 140.037064 
L 671.919709 137.753441 
L 670.225801 135.517172 
L 668.468867 133.330073 
L 666.650332 131.193919 
L 664.771674 129.110445 
L 662.834418 127.081342 
L 660.840137 125.108258 
L 658.790449 123.192794 
L 656.687019 121.336507 
L 654.531555 119.540902 
L 652.325807 117.807438 
L 650.071566 116.137523 
L 647.770662 114.532512 
L 645.424963 112.993708 
L 643.036374 111.522361 
L 640.606834 110.119665 
L 638.138315 108.78676 
L 635.632823 107.524727 
L 633.09239 106.334591 
L 630.519081 105.217318 
L 627.914983 104.173817 
L 625.282212 103.204932 
L 622.622905 102.311453 
L 619.939221 101.494103 
L 617.233339 100.753547 
L 614.507456 100.090385 
L 611.763785 99.505157 
L 609.004555 98.998337 
L 606.232004 98.570337 
L 603.448385 98.221504 
L 600.655957 97.952122 
L 597.856987 97.762409 
L 595.053749 97.652519 
L 592.248518 97.622542 
L 589.443572 97.672502 
L 586.641187 97.802359 
L 583.84364 98.012006 
L 581.053202 98.301274 
L 578.272139 98.669927 
L 575.502707 99.117667 
z
" clip-path="url(#p2ec593d192)" style="fill: #7c3aed; opacity: 0.4; stroke: #7c3aed; stroke-linejoin: miter"/>
   </g>
   <g id="line2d_7">
    <path d="M 691.053998 196.076712 
L 690.855776 189.832323 
L 690.26191 183.613078 
L 689.274791 177.44402 
L 687.898393 171.349989 
L 686.13826 165.355524 
L 684.001477 159.484762 
L 681.49665 153.761343 
L 678.633864 148.208313 
L 675.424647 142.848032 
L 671.881921 137.702084 
L 668.019951 132.79119 
L 663.854289 128.135125 
L 659.401708 123.752637 
L 654.680136 119.661372 
L 649.708587 115.877804 
L 644.507078 112.41717 
L 639.096555 109.293403 
L 633.498803 106.519081 
L 627.736363 104.105377 
L 621.832438 102.062008 
L 615.810801 100.397204 
L 609.695699 99.117667 
L 603.511755 98.228551 
L 597.283871 97.733434 
L 591.037123 97.634311 
L 584.796665 97.93158 
L 578.587625 98.624046 
L 572.435005 99.708919 
L 566.363578 101.181831 
L 560.397794 103.036851 
L 554.561673 105.26651 
L 548.878716 107.861829 
L 543.371806 110.812359 
L 538.063117 114.106218 
L 532.974026 117.730144 
L 528.125024 121.669543 
L 523.535637 125.908554 
L 519.224345 130.430107 
L 515.208507 135.215996 
L 511.504294 140.24695 
L 508.126622 145.50271 
L 505.089092 150.962114 
L 502.403933 156.603179 
L 500.081959 162.403189 
L 498.132519 168.338791 
L 496.563464 174.386084 
L 495.38111 180.520717 
L 494.590219 186.717989 
L 494.193976 192.952945 
L 494.193976 199.20048 
L 494.590219 205.435436 
L 495.38111 211.632707 
L 496.563464 217.767341 
L 498.132519 223.814633 
L 500.081959 229.750235 
L 502.403933 235.550246 
L 505.089092 241.19131 
L 508.126622 246.650714 
L 511.504294 251.906475 
L 515.208507 256.937428 
L 519.224345 261.723317 
L 523.535637 266.244871 
L 528.125024 270.483881 
L 532.974026 274.423281 
L 538.063117 278.047206 
L 543.371806 281.341066 
L 548.878716 284.291595 
L 554.561673 286.886915 
L 560.397794 289.116574 
L 566.363578 290.971594 
L 572.435005 292.444506 
L 578.587625 293.529379 
L 584.796665 294.221844 
L 591.037123 294.519114 
L 597.283871 294.419991 
L 603.511755 293.924874 
L 609.695699 293.035757 
L 615.810801 291.756221 
L 621.832438 290.091416 
L 627.736363 288.048048 
L 633.498803 285.634344 
L 639.096555 282.860022 
L 644.507078 279.736255 
L 649.708587 276.27562 
L 654.680136 272.492053 
L 659.401708 268.400788 
L 663.854289 264.0183 
L 668.019951 259.362234 
L 671.881921 254.451341 
L 675.424647 249.305393 
L 678.633864 243.945112 
L 681.49665 238.392082 
L 684.001477 232.668663 
L 686.13826 226.797901 
L 687.898393 220.803436 
L 689.274791 214.709405 
L 690.26191 208.540346 
L 690.855776 202.321101 
L 691.053998 196.076712 
" clip-path="url(#p2ec593d192)" style="fill: none; stroke: #d1d5db; stroke-width: 1.5; stroke-linecap: square"/>
   </g>
   <g id="line2d_8">
    <path d="M 685.116447 162.403189 
L 684.119486 159.780922 
L 683.048217 157.188123 
L 681.903511 154.626899 
L 680.686298 152.099328 
L 679.397564 149.607464 
L 678.038358 147.153329 
L 676.609781 144.738917 
L 675.112995 142.366186 
L 673.549214 140.037064 
L 671.919709 137.753441 
L 670.225801 135.517172 
L 668.468867 133.330073 
L 666.650332 131.193919 
L 664.771674 129.110445 
L 662.834418 127.081342 
L 660.840137 125.108258 
L 658.790449 123.192794 
L 656.687019 121.336507 
L 654.531555 119.540902 
L 652.325807 117.807438 
L 650.071566 116.137523 
L 647.770662 114.532512 
L 645.424963 112.993708 
L 643.036374 111.522361 
L 640.606834 110.119665 
L 638.138315 108.78676 
L 635.632823 107.524727 
L 633.09239 106.334591 
L 630.519081 105.217318 
L 627.914983 104.173817 
L 625.282212 103.204932 
L 622.622905 102.311453 
L 619.939221 101.494103 
L 617.233339 100.753547 
L 614.507456 100.090385 
L 611.763785 99.505157 
L 609.004555 98.998337 
L 606.232004 98.570337 
L 603.448385 98.221504 
L 600.655957 97.952122 
L 597.856987 97.762409 
L 595.053749 97.652519 
L 592.248518 97.622542 
L 589.443572 97.672502 
L 586.641187 97.802359 
L 583.84364 98.012006 
L 581.053202 98.301274 
L 578.272139 98.669927 
L 575.502707 99.117667 
" clip-path="url(#p2ec593d192)" style="fill: none; stroke: #7c3aed; stroke-width: 3; stroke-linecap: square"/>
   </g>
   <g id="line2d_9">
    <path d="M 685.116447 162.403189 
L 575.502707 99.117667 
" clip-path="url(#p2ec593d192)" style="fill: none; stroke: #dc2626; stroke-width: 2.5; stroke-linecap: square"/>
   </g>
   <g id="line2d_10">
    <g clip-path="url(#p2ec593d192)">
     <use xlink:href="#mb8f1373716" x="592.599203" y="196.076712" style="fill: #374151; stroke: #374151"/>
    </g>
   </g>
   <g id="line2d_11">
    <path d="M 592.599203 196.076712 
L 685.116447 162.403189 
" clip-path="url(#p2ec593d192)" style="fill: none; stroke-dasharray: 5.55,2.4; stroke-dashoffset: 0; stroke: #9ca3af; stroke-width: 1.5"/>
   </g>
   <g id="line2d_12">
    <path d="M 592.599203 196.076712 
L 575.502707 99.117667 
" clip-path="url(#p2ec593d192)" style="fill: none; stroke-dasharray: 5.55,2.4; stroke-dashoffset: 0; stroke: #9ca3af; stroke-width: 1.5"/>
   </g>
   <g id="line2d_13">
    <defs>
     <path id="m945d3d53e3" d="M 0 3.5 
C 0.928211 3.5 1.81853 3.131218 2.474874 2.474874 
C 3.131218 1.81853 3.5 0.928211 3.5 0 
C 3.5 -0.928211 3.131218 -1.81853 2.474874 -2.474874 
C 1.81853 -3.131218 0.928211 -3.5 0 -3.5 
C -0.928211 -3.5 -1.81853 -3.131218 -2.474874 -2.474874 
C -3.131218 -1.81853 -3.5 -0.928211 -3.5 0 
C -3.5 0.928211 -3.131218 1.81853 -2.474874 2.474874 
C -1.81853 3.131218 -0.928211 3.5 0 3.5 
z
" style="stroke: #dc2626"/>
    </defs>
    <g clip-path="url(#p2ec593d192)">
     <use xlink:href="#m945d3d53e3" x="685.116447" y="162.403189" style="fill: #dc2626; stroke: #dc2626"/>
    </g>
   </g>
   <g id="line2d_14">
    <g clip-path="url(#p2ec593d192)">
     <use xlink:href="#m945d3d53e3" x="575.502707" y="99.117667" style="fill: #dc2626; stroke: #dc2626"/>
    </g>
   </g>
   <g id="text_10">
    <!-- O -->
    <g style="fill: #1f2937" transform="translate(599.983313 208.383562) scale(0.11 -0.11)">
     <use xlink:href="#DejaVuSans-Bold-4f"/>
    </g>
   </g>
   <g id="text_11">
    <!-- A -->
    <g style="fill: #1f2937" transform="translate(692.500556 172.248669) scale(0.11 -0.11)">
     <use xlink:href="#DejaVuSans-Bold-41"/>
    </g>
   </g>
   <g id="text_12">
    <!-- B -->
    <g style="fill: #1f2937" transform="translate(570.579968 89.272188) scale(0.11 -0.11)">
     <defs>
      <path id="DejaVuSans-Bold-42" d="M 2456 2859 
Q 2741 2859 2887 2984 
Q 3034 3109 3034 3353 
Q 3034 3594 2887 3720 
Q 2741 3847 2456 3847 
L 1791 3847 
L 1791 2859 
L 2456 2859 
z
M 2497 819 
Q 2859 819 3042 972 
Q 3225 1125 3225 1434 
Q 3225 1738 3044 1889 
Q 2863 2041 2497 2041 
L 1791 2041 
L 1791 819 
L 2497 819 
z
M 3616 2497 
Q 4003 2384 4215 2081 
Q 4428 1778 4428 1338 
Q 4428 663 3972 331 
Q 3516 0 2584 0 
L 588 0 
L 588 4666 
L 2394 4666 
Q 3366 4666 3802 4372 
Q 4238 4078 4238 3431 
Q 4238 3091 4078 2852 
Q 3919 2613 3616 2497 
z
" transform="scale(0.015625)"/>
     </defs>
     <use xlink:href="#DejaVuSans-Bold-42"/>
    </g>
   </g>
   <g id="text_13">
    <!-- cuerda -->
    <g style="fill: #dc2626" transform="translate(615.541358 145.528648) scale(0.1 -0.1)">
     <use xlink:href="#DejaVuSans-Bold-63"/>
     <use xlink:href="#DejaVuSans-Bold-75" transform="translate(59.277344 0)"/>
     <use xlink:href="#DejaVuSans-Bold-65" transform="translate(130.46875 0)"/>
     <use xlink:href="#DejaVuSans-Bold-72" transform="translate(198.291016 0)"/>
     <use xlink:href="#DejaVuSans-Bold-64" transform="translate(247.607422 0)"/>
     <use xlink:href="#DejaVuSans-Bold-61" transform="translate(319.189453 0)"/>
    </g>
   </g>
   <g id="text_14">
    <!-- segmento -->
    <g style="fill: #7c3aed" transform="translate(607.367422 107.467397) scale(0.1 -0.1)">
     <defs>
      <path id="DejaVuSans-Bold-6d" d="M 3781 2919 
Q 3994 3244 4286 3414 
Q 4578 3584 4928 3584 
Q 5531 3584 5847 3212 
Q 6163 2841 6163 2131 
L 6163 0 
L 5038 0 
L 5038 1825 
Q 5041 1866 5042 1909 
Q 5044 1953 5044 2034 
Q 5044 2406 4934 2573 
Q 4825 2741 4581 2741 
Q 4263 2741 4089 2478 
Q 3916 2216 3909 1719 
L 3909 0 
L 2784 0 
L 2784 1825 
Q 2784 2406 2684 2573 
Q 2584 2741 2328 2741 
Q 2006 2741 1831 2477 
Q 1656 2213 1656 1722 
L 1656 0 
L 531 0 
L 531 3500 
L 1656 3500 
L 1656 2988 
Q 1863 3284 2130 3434 
Q 2397 3584 2719 3584 
Q 3081 3584 3359 3409 
Q 3638 3234 3781 2919 
z
" transform="scale(0.015625)"/>
     </defs>
     <use xlink:href="#DejaVuSans-Bold-73"/>
     <use xlink:href="#DejaVuSans-Bold-65" transform="translate(59.521484 0)"/>
     <use xlink:href="#DejaVuSans-Bold-67" transform="translate(127.34375 0)"/>
     <use xlink:href="#DejaVuSans-Bold-6d" transform="translate(198.925781 0)"/>
     <use xlink:href="#DejaVuSans-Bold-65" transform="translate(303.125 0)"/>
     <use xlink:href="#DejaVuSans-Bold-6e" transform="translate(370.947266 0)"/>
     <use xlink:href="#DejaVuSans-Bold-74" transform="translate(442.138672 0)"/>
     <use xlink:href="#DejaVuSans-Bold-6f" transform="translate(489.941406 0)"/>
    </g>
   </g>
   <g id="text_15">
    <!-- Área del segmento: -->
    <g style="fill: #374151" transform="translate(537.401547 333.913425) scale(0.1 -0.1)">
     <use xlink:href="#DejaVuSans-Bold-c1"/>
     <use xlink:href="#DejaVuSans-Bold-72" transform="translate(77.392578 0)"/>
     <use xlink:href="#DejaVuSans-Bold-65" transform="translate(126.708984 0)"/>
     <use xlink:href="#DejaVuSans-Bold-61" transform="translate(194.53125 0)"/>
     <use xlink:href="#DejaVuSans-Bold-20" transform="translate(262.011719 0)"/>
     <use xlink:href="#DejaVuSans-Bold-64" transform="translate(296.826172 0)"/>
     <use xlink:href="#DejaVuSans-Bold-65" transform="translate(368.408203 0)"/>
     <use xlink:href="#DejaVuSans-Bold-6c" transform="translate(436.230469 0)"/>
     <use xlink:href="#DejaVuSans-Bold-20" transform="translate(470.507812 0)"/>
     <use xlink:href="#DejaVuSans-Bold-73" transform="translate(505.322266 0)"/>
     <use xlink:href="#DejaVuSans-Bold-65" transform="translate(564.84375 0)"/>
     <use xlink:href="#DejaVuSans-Bold-67" transform="translate(632.666016 0)"/>
     <use xlink:href="#DejaVuSans-Bold-6d" transform="translate(704.248047 0)"/>
     <use xlink:href="#DejaVuSans-Bold-65" transform="translate(808.447266 0)"/>
     <use xlink:href="#DejaVuSans-Bold-6e" transform="translate(876.269531 0)"/>
     <use xlink:href="#DejaVuSans-Bold-74" transform="translate(947.460938 0)"/>
     <use xlink:href="#DejaVuSans-Bold-6f" transform="translate(995.263672 0)"/>
     <use xlink:href="#DejaVuSans-Bold-3a" transform="translate(1063.964844 0)"/>
    </g>
   </g>
   <g id="text_16">
    <!-- $A_{seg} = A_{sector} - A_{triángulo}$ -->
    <g style="fill: #1f2937" transform="translate(531.329203 353.604384) scale(0.11 -0.11)">
     <defs>
      <path id="DejaVuSans-Oblique-73" d="M 3200 3397 
L 3091 2853 
Q 2863 2978 2609 3040 
Q 2356 3103 2088 3103 
Q 1634 3103 1373 2948 
Q 1113 2794 1113 2528 
Q 1113 2219 1719 2053 
Q 1766 2041 1788 2034 
L 1972 1978 
Q 2547 1819 2739 1644 
Q 2931 1469 2931 1166 
Q 2931 609 2489 259 
Q 2047 -91 1331 -91 
Q 1053 -91 747 -37 
Q 441 16 72 128 
L 184 722 
Q 500 559 806 475 
Q 1113 391 1394 391 
Q 1816 391 2080 572 
Q 2344 753 2344 1031 
Q 2344 1331 1650 1516 
L 1591 1531 
L 1394 1581 
Q 956 1697 753 1886 
Q 550 2075 550 2369 
Q 550 2928 970 3256 
Q 1391 3584 2113 3584 
Q 2397 3584 2667 3537 
Q 2938 3491 3200 3397 
z
" transform="scale(0.015625)"/>
      <path id="DejaVuSans-Oblique-65" d="M 3078 2063 
Q 3088 2113 3092 2166 
Q 3097 2219 3097 2272 
Q 3097 2653 2873 2875 
Q 2650 3097 2266 3097 
Q 1838 3097 1509 2826 
Q 1181 2556 1013 2059 
L 3078 2063 
z
M 3578 1613 
L 903 1613 
Q 884 1494 878 1425 
Q 872 1356 872 1306 
Q 872 872 1139 634 
Q 1406 397 1894 397 
Q 2269 397 2603 481 
Q 2938 566 3225 728 
L 3116 159 
Q 2806 34 2476 -28 
Q 2147 -91 1806 -91 
Q 1078 -91 686 257 
Q 294 606 294 1247 
Q 294 1794 489 2264 
Q 684 2734 1063 3103 
Q 1306 3334 1642 3459 
Q 1978 3584 2356 3584 
Q 2950 3584 3301 3228 
Q 3653 2872 3653 2272 
Q 3653 2128 3634 1964 
Q 3616 1800 3578 1613 
z
" transform="scale(0.015625)"/>
      <path id="DejaVuSans-Oblique-67" d="M 3816 3500 
L 3219 434 
Q 3047 -456 2561 -893 
Q 2075 -1331 1253 -1331 
Q 950 -1331 690 -1286 
Q 431 -1241 206 -1147 
L 313 -588 
Q 525 -725 762 -790 
Q 1000 -856 1269 -856 
Q 1816 -856 2167 -557 
Q 2519 -259 2631 300 
L 2681 563 
Q 2441 288 2122 144 
Q 1803 0 1434 0 
Q 903 0 598 351 
Q 294 703 294 1319 
Q 294 1803 478 2267 
Q 663 2731 997 3091 
Q 1219 3328 1514 3456 
Q 1809 3584 2131 3584 
Q 2484 3584 2746 3420 
Q 3009 3256 3138 2956 
L 3238 3500 
L 3816 3500 
z
M 2950 2216 
Q 2950 2641 2750 2872 
Q 2550 3103 2181 3103 
Q 1953 3103 1747 3012 
Q 1541 2922 1394 2759 
Q 1156 2491 1023 2127 
Q 891 1763 891 1375 
Q 891 944 1092 712 
Q 1294 481 1672 481 
Q 2219 481 2584 976 
Q 2950 1472 2950 2216 
z
" transform="scale(0.015625)"/>
      <path id="DejaVuSans-Oblique-63" d="M 3431 3366 
L 3316 2797 
Q 3109 2947 2876 3022 
Q 2644 3097 2394 3097 
Q 2119 3097 1870 3000 
Q 1622 2903 1453 2725 
Q 1184 2453 1037 2087 
Q 891 1722 891 1331 
Q 891 859 1127 628 
Q 1363 397 1844 397 
Q 2081 397 2348 469 
Q 2616 541 2906 684 
L 2797 116 
Q 2547 13 2283 -39 
Q 2019 -91 1741 -91 
Q 1044 -91 669 257 
Q 294 606 294 1253 
Q 294 1797 489 2255 
Q 684 2713 1069 3078 
Q 1331 3328 1684 3456 
Q 2038 3584 2456 3584 
Q 2700 3584 2940 3529 
Q 3181 3475 3431 3366 
z
" transform="scale(0.015625)"/>
      <path id="DejaVuSans-Oblique-74" d="M 2706 3500 
L 2619 3053 
L 1472 3053 
L 1100 1153 
Q 1081 1047 1072 975 
Q 1063 903 1063 863 
Q 1063 663 1183 572 
Q 1303 481 1569 481 
L 2150 481 
L 2053 0 
L 1503 0 
Q 991 0 739 200 
Q 488 400 488 806 
Q 488 878 497 964 
Q 506 1050 525 1153 
L 897 3053 
L 409 3053 
L 500 3500 
L 978 3500 
L 1172 4494 
L 1747 4494 
L 1556 3500 
L 2706 3500 
z
" transform="scale(0.015625)"/>
      <path id="DejaVuSans-Oblique-6f" d="M 1625 -91 
Q 1009 -91 651 289 
Q 294 669 294 1325 
Q 294 1706 417 2101 
Q 541 2497 738 2766 
Q 1047 3184 1428 3384 
Q 1809 3584 2291 3584 
Q 2888 3584 3255 3212 
Q 3622 2841 3622 2241 
Q 3622 1825 3500 1412 
Q 3378 1000 3181 728 
Q 2875 309 2494 109 
Q 2113 -91 1625 -91 
z
M 891 1344 
Q 891 869 1089 633 
Q 1288 397 1691 397 
Q 2269 397 2648 901 
Q 3028 1406 3028 2181 
Q 3028 2634 2825 2865 
Q 2622 3097 2228 3097 
Q 1903 3097 1650 2945 
Q 1397 2794 1197 2484 
Q 1050 2253 970 1956 
Q 891 1659 891 1344 
z
" transform="scale(0.015625)"/>
      <path id="DejaVuSans-2212" d="M 678 2272 
L 4684 2272 
L 4684 1741 
L 678 1741 
L 678 2272 
z
" transform="scale(0.015625)"/>
      <path id="DejaVuSans-Oblique-69" d="M 1172 4863 
L 1747 4863 
L 1606 4134 
L 1031 4134 
L 1172 4863 
z
M 909 3500 
L 1484 3500 
L 800 0 
L 225 0 
L 909 3500 
z
" transform="scale(0.015625)"/>
      <path id="DejaVuSans-Oblique-e1" d="M 3438 1997 
L 3047 0 
L 2472 0 
L 2578 531 
Q 2325 219 2001 64 
Q 1678 -91 1281 -91 
Q 834 -91 548 182 
Q 263 456 263 884 
Q 263 1497 752 1853 
Q 1241 2209 2100 2209 
L 2900 2209 
L 2931 2363 
Q 2938 2388 2941 2417 
Q 2944 2447 2944 2509 
Q 2944 2788 2717 2942 
Q 2491 3097 2081 3097 
Q 1800 3097 1504 3025 
Q 1209 2953 897 2809 
L 997 3341 
Q 1322 3463 1633 3523 
Q 1944 3584 2234 3584 
Q 2853 3584 3176 3315 
Q 3500 3047 3500 2534 
Q 3500 2431 3484 2292 
Q 3469 2153 3438 1997 
z
M 2816 1759 
L 2241 1759 
Q 1534 1759 1195 1570 
Q 856 1381 856 984 
Q 856 709 1029 553 
Q 1203 397 1509 397 
Q 1978 397 2328 733 
Q 2678 1069 2791 1631 
L 2816 1759 
z
M 3031 5119 
L 3653 5119 
L 2406 3944 
L 1925 3944 
L 3031 5119 
z
" transform="scale(0.015625)"/>
      <path id="DejaVuSans-Oblique-6e" d="M 3566 2113 
L 3156 0 
L 2578 0 
L 2988 2091 
Q 3016 2238 3031 2350 
Q 3047 2463 3047 2528 
Q 3047 2791 2881 2937 
Q 2716 3084 2419 3084 
Q 1956 3084 1622 2776 
Q 1288 2469 1184 1941 
L 800 0 
L 225 0 
L 903 3500 
L 1478 3500 
L 1363 2950 
Q 1603 3253 1940 3418 
Q 2278 3584 2650 3584 
Q 3113 3584 3367 3334 
Q 3622 3084 3622 2631 
Q 3622 2519 3608 2391 
Q 3594 2263 3566 2113 
z
" transform="scale(0.015625)"/>
      <path id="DejaVuSans-Oblique-75" d="M 428 1388 
L 838 3500 
L 1416 3500 
L 1006 1409 
Q 975 1256 961 1147 
Q 947 1038 947 966 
Q 947 700 1109 554 
Q 1272 409 1569 409 
Q 2031 409 2368 721 
Q 2706 1034 2809 1563 
L 3194 3500 
L 3769 3500 
L 3091 0 
L 2516 0 
L 2631 550 
Q 2388 244 2052 76 
Q 1716 -91 1338 -91 
Q 878 -91 622 161 
Q 366 413 366 863 
Q 366 956 381 1097 
Q 397 1238 428 1388 
z
" transform="scale(0.015625)"/>
      <path id="DejaVuSans-Oblique-6c" d="M 1172 4863 
L 1747 4863 
L 800 0 
L 225 0 
L 1172 4863 
z
" transform="scale(0.015625)"/>
     </defs>
     <use xlink:href="#DejaVuSans-Oblique-41" transform="translate(0 0.09375)"/>
     <use xlink:href="#DejaVuSans-Oblique-73" transform="translate(68.408203 -16.3125) scale(0.7)"/>
     <use xlink:href="#DejaVuSans-Oblique-65" transform="translate(104.87793 -16.3125) scale(0.7)"/>
     <use xlink:href="#DejaVuSans-Oblique-67" transform="translate(147.944336 -16.3125) scale(0.7)"/>
     <use xlink:href="#DejaVuSans-3d" transform="translate(214.594727 0.09375)"/>
     <use xlink:href="#DejaVuSans-Oblique-41" transform="translate(317.866211 0.09375)"/>
     <use xlink:href="#DejaVuSans-Oblique-73" transform="translate(386.274414 -16.3125) scale(0.7)"/>
     <use xlink:href="#DejaVuSans-Oblique-65" transform="translate(422.744141 -16.3125) scale(0.7)"/>
     <use xlink:href="#DejaVuSans-Oblique-63" transform="translate(465.810547 -16.3125) scale(0.7)"/>
     <use xlink:href="#DejaVuSans-Oblique-74" transform="translate(504.296875 -16.3125) scale(0.7)"/>
     <use xlink:href="#DejaVuSans-Oblique-6f" transform="translate(531.743164 -16.3125) scale(0.7)"/>
     <use xlink:href="#DejaVuSans-Oblique-72" transform="translate(574.570312 -16.3125) scale(0.7)"/>
     <use xlink:href="#DejaVuSans-2212" transform="translate(625.566406 0.09375)"/>
     <use xlink:href="#DejaVuSans-Oblique-41" transform="translate(728.837891 0.09375)"/>
     <use xlink:href="#DejaVuSans-Oblique-74" transform="translate(797.246094 -16.3125) scale(0.7)"/>
     <use xlink:href="#DejaVuSans-Oblique-72" transform="translate(824.692383 -16.3125) scale(0.7)"/>
     <use xlink:href="#DejaVuSans-Oblique-69" transform="translate(853.47168 -16.3125) scale(0.7)"/>
     <use xlink:href="#DejaVuSans-Oblique-e1" transform="translate(872.919922 -16.3125) scale(0.7)"/>
     <use xlink:href="#DejaVuSans-Oblique-6e" transform="translate(915.81543 -16.3125) scale(0.7)"/>
     <use xlink:href="#DejaVuSans-Oblique-67" transform="translate(960.180664 -16.3125) scale(0.7)"/>
     <use xlink:href="#DejaVuSans-Oblique-75" transform="translate(1004.614258 -16.3125) scale(0.7)"/>
     <use xlink:href="#DejaVuSans-Oblique-6c" transform="translate(1048.979492 -16.3125) scale(0.7)"/>
     <use xlink:href="#DejaVuSans-Oblique-6f" transform="translate(1068.427734 -16.3125) scale(0.7)"/>
    </g>
   </g>
   <g id="text_17">
    <!-- $A_{seg} = \frac{r^2}{2}(\theta - \sin\theta)$ -->
    <g style="fill: #7c3aed" transform="translate(544.254203 378.218082) scale(0.11 -0.11)">
     <defs>
      <path id="DejaVuSans-28" d="M 1984 4856 
Q 1566 4138 1362 3434 
Q 1159 2731 1159 2009 
Q 1159 1288 1364 580 
Q 1569 -128 1984 -844 
L 1484 -844 
Q 1016 -109 783 600 
Q 550 1309 550 2009 
Q 550 2706 781 3412 
Q 1013 4119 1484 4856 
L 1984 4856 
z
" transform="scale(0.015625)"/>
      <path id="DejaVuSans-73" d="M 2834 3397 
L 2834 2853 
Q 2591 2978 2328 3040 
Q 2066 3103 1784 3103 
Q 1356 3103 1142 2972 
Q 928 2841 928 2578 
Q 928 2378 1081 2264 
Q 1234 2150 1697 2047 
L 1894 2003 
Q 2506 1872 2764 1633 
Q 3022 1394 3022 966 
Q 3022 478 2636 193 
Q 2250 -91 1575 -91 
Q 1294 -91 989 -36 
Q 684 19 347 128 
L 347 722 
Q 666 556 975 473 
Q 1284 391 1588 391 
Q 1994 391 2212 530 
Q 2431 669 2431 922 
Q 2431 1156 2273 1281 
Q 2116 1406 1581 1522 
L 1381 1569 
Q 847 1681 609 1914 
Q 372 2147 372 2553 
Q 372 3047 722 3315 
Q 1072 3584 1716 3584 
Q 2034 3584 2315 3537 
Q 2597 3491 2834 3397 
z
" transform="scale(0.015625)"/>
      <path id="DejaVuSans-69" d="M 603 3500 
L 1178 3500 
L 1178 0 
L 603 0 
L 603 3500 
z
M 603 4863 
L 1178 4863 
L 1178 4134 
L 603 4134 
L 603 4863 
z
" transform="scale(0.015625)"/>
      <path id="DejaVuSans-6e" d="M 3513 2113 
L 3513 0 
L 2938 0 
L 2938 2094 
Q 2938 2591 2744 2837 
Q 2550 3084 2163 3084 
Q 1697 3084 1428 2787 
Q 1159 2491 1159 1978 
L 1159 0 
L 581 0 
L 581 3500 
L 1159 3500 
L 1159 2956 
Q 1366 3272 1645 3428 
Q 1925 3584 2291 3584 
Q 2894 3584 3203 3211 
Q 3513 2838 3513 2113 
z
" transform="scale(0.015625)"/>
      <path id="DejaVuSans-29" d="M 513 4856 
L 1013 4856 
Q 1481 4119 1714 3412 
Q 1947 2706 1947 2009 
Q 1947 1309 1714 600 
Q 1481 -109 1013 -844 
L 513 -844 
Q 928 -128 1133 580 
Q 1338 1288 1338 2009 
Q 1338 2731 1133 3434 
Q 928 4138 513 4856 
z
" transform="scale(0.015625)"/>
     </defs>
     <use xlink:href="#DejaVuSans-Oblique-41" transform="translate(0 0.039062)"/>
     <use xlink:href="#DejaVuSans-Oblique-73" transform="translate(68.408203 -16.367188) scale(0.7)"/>
     <use xlink:href="#DejaVuSans-Oblique-65" transform="translate(104.87793 -16.367188) scale(0.7)"/>
     <use xlink:href="#DejaVuSans-Oblique-67" transform="translate(147.944336 -16.367188) scale(0.7)"/>
     <use xlink:href="#DejaVuSans-3d" transform="translate(214.594727 0.039062)"/>
     <use xlink:href="#DejaVuSans-Oblique-72" transform="translate(317.866211 43.835938) scale(0.7)"/>
     <use xlink:href="#DejaVuSans-32" transform="translate(349.900435 70.632812) scale(0.49)"/>
     <use xlink:href="#DejaVuSans-32" transform="translate(327.866211 -39.367188) scale(0.7)"/>
     <use xlink:href="#DejaVuSans-28" transform="translate(395.48979 0.039062)"/>
     <use xlink:href="#DejaVuSans-Oblique-3b8" transform="translate(434.503462 0.039062)"/>
     <use xlink:href="#DejaVuSans-2212" transform="translate(515.167525 0.039062)"/>
     <use xlink:href="#DejaVuSans-73" transform="translate(618.439009 0.039062)"/>
     <use xlink:href="#DejaVuSans-69" transform="translate(670.538618 0.039062)"/>
     <use xlink:href="#DejaVuSans-6e" transform="translate(698.321822 0.039062)"/>
     <use xlink:href="#DejaVuSans-Oblique-3b8" transform="translate(777.936404 0.039062)"/>
     <use xlink:href="#DejaVuSans-29" transform="translate(839.118045 0.039062)"/>
     <path d="M 317.866211 18.835938 
L 317.866211 25.085938 
L 382.98979 25.085938 
L 382.98979 18.835938 
L 317.866211 18.835938 
z
"/>
    </g>
   </g>
   <g id="text_18">
    <!-- (θ en radianes) -->
    <g style="fill: #6b7280" transform="translate(558.416078 397.909041) scale(0.09 -0.09)">
     <defs>
      <path id="DejaVuSans-Oblique-28" d="M 2731 4856 
Q 1903 3822 1495 2892 
Q 1088 1963 1088 1100 
Q 1088 606 1206 120 
Q 1325 -366 1563 -844 
L 1063 -844 
Q 775 -306 634 201 
Q 494 709 494 1197 
Q 494 2125 923 3036 
Q 1353 3947 2222 4856 
L 2731 4856 
z
" transform="scale(0.015625)"/>
      <path id="DejaVuSans-Oblique-20" transform="scale(0.015625)"/>
      <path id="DejaVuSans-Oblique-61" d="M 3438 1997 
L 3047 0 
L 2472 0 
L 2578 531 
Q 2325 219 2001 64 
Q 1678 -91 1281 -91 
Q 834 -91 548 182 
Q 263 456 263 884 
Q 263 1497 752 1853 
Q 1241 2209 2100 2209 
L 2900 2209 
L 2931 2363 
Q 2938 2388 2941 2417 
Q 2944 2447 2944 2509 
Q 2944 2788 2717 2942 
Q 2491 3097 2081 3097 
Q 1800 3097 1504 3025 
Q 1209 2953 897 2809 
L 997 3341 
Q 1322 3463 1633 3523 
Q 1944 3584 2234 3584 
Q 2853 3584 3176 3315 
Q 3500 3047 3500 2534 
Q 3500 2431 3484 2292 
Q 3469 2153 3438 1997 
z
M 2816 1759 
L 2241 1759 
Q 1534 1759 1195 1570 
Q 856 1381 856 984 
Q 856 709 1029 553 
Q 1203 397 1509 397 
Q 1978 397 2328 733 
Q 2678 1069 2791 1631 
L 2816 1759 
z
" transform="scale(0.015625)"/>
      <path id="DejaVuSans-Oblique-64" d="M 2675 525 
Q 2444 222 2128 65 
Q 1813 -91 1428 -91 
Q 903 -91 598 267 
Q 294 625 294 1247 
Q 294 1766 478 2236 
Q 663 2706 1013 3078 
Q 1244 3325 1534 3454 
Q 1825 3584 2144 3584 
Q 2481 3584 2739 3421 
Q 2997 3259 3138 2956 
L 3513 4863 
L 4091 4863 
L 3144 0 
L 2566 0 
L 2675 525 
z
M 891 1350 
Q 891 897 1095 644 
Q 1300 391 1663 391 
Q 1931 391 2161 520 
Q 2391 650 2566 903 
Q 2750 1166 2856 1509 
Q 2963 1853 2963 2188 
Q 2963 2622 2758 2865 
Q 2553 3109 2194 3109 
Q 1922 3109 1687 2981 
Q 1453 2853 1288 2613 
Q 1106 2353 998 2009 
Q 891 1666 891 1350 
z
" transform="scale(0.015625)"/>
      <path id="DejaVuSans-Oblique-29" d="M -397 -844 
Q 434 191 840 1120 
Q 1247 2050 1247 2913 
Q 1247 3406 1130 3892 
Q 1013 4378 775 4856 
L 1275 4856 
Q 1563 4316 1703 3812 
Q 1844 3309 1844 2822 
Q 1844 1891 1411 973 
Q 978 56 116 -844 
L -397 -844 
z
" transform="scale(0.015625)"/>
     </defs>
     <use xlink:href="#DejaVuSans-Oblique-28"/>
     <use xlink:href="#DejaVuSans-Oblique-3b8" transform="translate(39.013672 0)"/>
     <use xlink:href="#DejaVuSans-Oblique-20" transform="translate(100.195312 0)"/>
     <use xlink:href="#DejaVuSans-Oblique-65" transform="translate(131.982422 0)"/>
     <use xlink:href="#DejaVuSans-Oblique-6e" transform="translate(193.505859 0)"/>
     <use xlink:href="#DejaVuSans-Oblique-20" transform="translate(256.884766 0)"/>
     <use xlink:href="#DejaVuSans-Oblique-72" transform="translate(288.671875 0)"/>
     <use xlink:href="#DejaVuSans-Oblique-61" transform="translate(329.785156 0)"/>
     <use xlink:href="#DejaVuSans-Oblique-64" transform="translate(391.064453 0)"/>
     <use xlink:href="#DejaVuSans-Oblique-69" transform="translate(454.541016 0)"/>
     <use xlink:href="#DejaVuSans-Oblique-61" transform="translate(482.324219 0)"/>
     <use xlink:href="#DejaVuSans-Oblique-6e" transform="translate(543.603516 0)"/>
     <use xlink:href="#DejaVuSans-Oblique-65" transform="translate(606.982422 0)"/>
     <use xlink:href="#DejaVuSans-Oblique-73" transform="translate(668.505859 0)"/>
     <use xlink:href="#DejaVuSans-Oblique-29" transform="translate(720.605469 0)"/>
    </g>
   </g>
   <g id="text_19">
    <!-- SEGMENTO CIRCULAR -->
    <g style="fill: #1f2937" transform="translate(519.263265 48.24) scale(0.12 -0.12)">
     <defs>
      <path id="DejaVuSans-Bold-47" d="M 4781 347 
Q 4331 128 3847 18 
Q 3363 -91 2847 -91 
Q 1681 -91 1000 561 
Q 319 1213 319 2328 
Q 319 3456 1012 4103 
Q 1706 4750 2913 4750 
Q 3378 4750 3804 4662 
Q 4231 4575 4609 4403 
L 4609 3438 
Q 4219 3659 3833 3768 
Q 3447 3878 3059 3878 
Q 2341 3878 1952 3476 
Q 1563 3075 1563 2328 
Q 1563 1588 1938 1184 
Q 2313 781 3003 781 
Q 3191 781 3352 804 
Q 3513 828 3641 878 
L 3641 1784 
L 2906 1784 
L 2906 2591 
L 4781 2591 
L 4781 347 
z
" transform="scale(0.015625)"/>
      <path id="DejaVuSans-Bold-4d" d="M 588 4666 
L 2119 4666 
L 3181 2169 
L 4250 4666 
L 5778 4666 
L 5778 0 
L 4641 0 
L 4641 3413 
L 3566 897 
L 2803 897 
L 1728 3413 
L 1728 0 
L 588 0 
L 588 4666 
z
" transform="scale(0.015625)"/>
      <path id="DejaVuSans-Bold-4e" d="M 588 4666 
L 1931 4666 
L 3628 1466 
L 3628 4666 
L 4769 4666 
L 4769 0 
L 3425 0 
L 1728 3200 
L 1728 0 
L 588 0 
L 588 4666 
z
" transform="scale(0.015625)"/>
     </defs>
     <use xlink:href="#DejaVuSans-Bold-53"/>
     <use xlink:href="#DejaVuSans-Bold-45" transform="translate(72.021484 0)"/>
     <use xlink:href="#DejaVuSans-Bold-47" transform="translate(140.332031 0)"/>
     <use xlink:href="#DejaVuSans-Bold-4d" transform="translate(222.412109 0)"/>
     <use xlink:href="#DejaVuSans-Bold-45" transform="translate(321.923828 0)"/>
     <use xlink:href="#DejaVuSans-Bold-4e" transform="translate(390.234375 0)"/>
     <use xlink:href="#DejaVuSans-Bold-54" transform="translate(473.925781 0)"/>
     <use xlink:href="#DejaVuSans-Bold-4f" transform="translate(542.138672 0)"/>
     <use xlink:href="#DejaVuSans-Bold-20" transform="translate(627.148438 0)"/>
     <use xlink:href="#DejaVuSans-Bold-43" transform="translate(661.962891 0)"/>
     <use xlink:href="#DejaVuSans-Bold-49" transform="translate(735.351562 0)"/>
     <use xlink:href="#DejaVuSans-Bold-52" transform="translate(772.558594 0)"/>
     <use xlink:href="#DejaVuSans-Bold-43" transform="translate(849.560547 0)"/>
     <use xlink:href="#DejaVuSans-Bold-55" transform="translate(922.949219 0)"/>
     <use xlink:href="#DejaVuSans-Bold-4c" transform="translate(1004.150391 0)"/>
     <use xlink:href="#DejaVuSans-Bold-41" transform="translate(1067.871094 0)"/>
     <use xlink:href="#DejaVuSans-Bold-52" transform="translate(1145.263672 0)"/>
    </g>
   </g>
  </g>
  <g id="text_20">
   <!-- Sector y Segmento Circular -->
   <g style="fill: #1f2937" transform="translate(260.721551 17.837812) scale(0.14 -0.14)">
    <defs>
     <path id="DejaVuSans-Bold-79" d="M 78 3500 
L 1197 3500 
L 2138 1125 
L 2938 3500 
L 4056 3500 
L 2584 -331 
Q 2363 -916 2067 -1148 
Q 1772 -1381 1288 -1381 
L 641 -1381 
L 641 -647 
L 991 -647 
Q 1275 -647 1404 -556 
Q 1534 -466 1606 -231 
L 1638 -134 
L 78 3500 
z
" transform="scale(0.015625)"/>
    </defs>
    <use xlink:href="#DejaVuSans-Bold-53"/>
    <use xlink:href="#DejaVuSans-Bold-65" transform="translate(72.021484 0)"/>
    <use xlink:href="#DejaVuSans-Bold-63" transform="translate(139.84375 0)"/>
    <use xlink:href="#DejaVuSans-Bold-74" transform="translate(199.121094 0)"/>
    <use xlink:href="#DejaVuSans-Bold-6f" transform="translate(246.923828 0)"/>
    <use xlink:href="#DejaVuSans-Bold-72" transform="translate(315.625 0)"/>
    <use xlink:href="#DejaVuSans-Bold-20" transform="translate(364.941406 0)"/>
    <use xlink:href="#DejaVuSans-Bold-79" transform="translate(399.755859 0)"/>
    <use xlink:href="#DejaVuSans-Bold-20" transform="translate(464.941406 0)"/>
    <use xlink:href="#DejaVuSans-Bold-53" transform="translate(499.755859 0)"/>
    <use xlink:href="#DejaVuSans-Bold-65" transform="translate(571.777344 0)"/>
    <use xlink:href="#DejaVuSans-Bold-67" transform="translate(639.599609 0)"/>
    <use xlink:href="#DejaVuSans-Bold-6d" transform="translate(711.181641 0)"/>
    <use xlink:href="#DejaVuSans-Bold-65" transform="translate(815.380859 0)"/>
    <use xlink:href="#DejaVuSans-Bold-6e" transform="translate(883.203125 0)"/>
    <use xlink:href="#DejaVuSans-Bold-74" transform="translate(954.394531 0)"/>
    <use xlink:href="#DejaVuSans-Bold-6f" transform="translate(1002.197266 0)"/>
    <use xlink:href="#DejaVuSans-Bold-20" transform="translate(1070.898438 0)"/>
    <use xlink:href="#DejaVuSans-Bold-43" transform="translate(1105.712891 0)"/>
    <use xlink:href="#DejaVuSans-Bold-69" transform="translate(1179.101562 0)"/>
    <use xlink:href="#DejaVuSans-Bold-72" transform="translate(1213.378906 0)"/>
    <use xlink:href="#DejaVuSans-Bold-63" transform="translate(1262.695312 0)"/>
    <use xlink:href="#DejaVuSans-Bold-75" transform="translate(1321.972656 0)"/>
    <use xlink:href="#DejaVuSans-Bold-6c" transform="translate(1393.164062 0)"/>
    <use xlink:href="#DejaVuSans-Bold-61" transform="translate(1427.441406 0)"/>
    <use xlink:href="#DejaVuSans-Bold-72" transform="translate(1494.921875 0)"/>
   </g>
  </g>
 </g>
 <defs>
  <clipPath id="p3d054bd40e">
   <rect x="7.2" y="58.24" width="275.673425" height="359.36"/>
  </clipPath>
  <clipPath id="p2ec593d192">
   <rect x="454.762491" y="58.24" width="275.673425" height="359.36"/>
  </clipPath>
 </defs>
</svg>
