<?xml version="1.0" encoding="utf-8" standalone="no"?>
<!DOCTYPE svg PUBLIC "-//W3C//DTD SVG 1.1//EN"
  "http://www.w3.org/Graphics/SVG/1.1/DTD/svg11.dtd">
<svg xmlns:xlink="http://www.w3.org/1999/xlink" width="996.48pt" height="283.7472pt" viewBox="0 0 996.48 283.7472" xmlns="http://www.w3.org/2000/svg" version="1.1">
 <metadata>
  <rdf:RDF xmlns:dc="http://purl.org/dc/elements/1.1/" xmlns:cc="http://creativecommons.org/ns#" xmlns:rdf="http://www.w3.org/1999/02/22-rdf-syntax-ns#">
   <cc:Work>
    <dc:type rdf:resource="http://purl.org/dc/dcmitype/StillImage"/>
    <dc:date>2026-01-03T17:13:36.540858</dc:date>
    <dc:format>image/svg+xml</dc:format>
    <dc:creator>
     <cc:Agent>
      <dc:title>Repositorio Matemáticas Universitarias</dc:title>
     </cc:Agent>
    </dc:creator>
   </cc:Work>
  </rdf:RDF>
 </metadata>
 <defs>
  <style type="text/css">*{stroke-linejoin: round; stroke-linecap: butt}</style>
 </defs>
 <g id="figure_1">
  <g id="patch_1">
   <path d="M 0 283.7472 
L 996.48 283.7472 
L 996.48 0 
L 0 0 
z
" style="fill: #ffffff"/>
  </g>
  <g id="axes_1">
   <g id="patch_2">
    <path d="M 39.072 238.3008 
L 115.5648 238.3008 
L 64.5696 180.9312 
z
" clip-path="url(#p1b617be193)" style="fill: #2563eb; opacity: 0.15; stroke: #2563eb; stroke-width: 2; stroke-linejoin: miter"/>
   </g>
   <g id="patch_3">
    <path d="M 166.56 238.3008 
L 294.048 238.3008 
L 211.1808 142.6848 
z
" clip-path="url(#p1b617be193)" style="fill: #dc2626; opacity: 0.15; stroke: #dc2626; stroke-width: 2; stroke-linejoin: miter"/>
   </g>
   <g id="line2d_1">
    <defs>
     <path id="m20b7cff8d4" d="M 0 2.5 
C 0.663008 2.5 1.29895 2.236584 1.767767 1.767767 
C 2.236584 1.29895 2.5 0.663008 2.5 0 
C 2.5 -0.663008 2.236584 -1.29895 1.767767 -1.767767 
C 1.29895 -2.236584 0.663008 -2.5 0 -2.5 
C -0.663008 -2.5 -1.29895 -2.236584 -1.767767 -1.767767 
C -2.236584 -1.29895 -2.5 -0.663008 -2.5 0 
C -2.5 0.663008 -2.236584 1.29895 -1.767767 1.767767 
C -1.29895 2.236584 -0.663008 2.5 0 2.5 
z
" style="stroke: #2563eb"/>
    </defs>
    <g clip-path="url(#p1b617be193)">
     <use xlink:href="#m20b7cff8d4" x="39.072" y="238.3008" style="fill: #2563eb; stroke: #2563eb"/>
    </g>
   </g>
   <g id="line2d_2">
    <g clip-path="url(#p1b617be193)">
     <use xlink:href="#m20b7cff8d4" x="115.5648" y="238.3008" style="fill: #2563eb; stroke: #2563eb"/>
    </g>
   </g>
   <g id="line2d_3">
    <g clip-path="url(#p1b617be193)">
     <use xlink:href="#m20b7cff8d4" x="64.5696" y="180.9312" style="fill: #2563eb; stroke: #2563eb"/>
    </g>
   </g>
   <g id="line2d_4">
    <defs>
     <path id="m22b428dbce" d="M 0 2.5 
C 0.663008 2.5 1.29895 2.236584 1.767767 1.767767 
C 2.236584 1.29895 2.5 0.663008 2.5 0 
C 2.5 -0.663008 2.236584 -1.29895 1.767767 -1.767767 
C 1.29895 -2.236584 0.663008 -2.5 0 -2.5 
C -0.663008 -2.5 -1.29895 -2.236584 -1.767767 -1.767767 
C -2.236584 -1.29895 -2.5 -0.663008 -2.5 0 
C -2.5 0.663008 -2.236584 1.29895 -1.767767 1.767767 
C -1.29895 2.236584 -0.663008 2.5 0 2.5 
z
" style="stroke: #dc2626"/>
    </defs>
    <g clip-path="url(#p1b617be193)">
     <use xlink:href="#m22b428dbce" x="166.56" y="238.3008" style="fill: #dc2626; stroke: #dc2626"/>
    </g>
   </g>
   <g id="line2d_5">
    <g clip-path="url(#p1b617be193)">
     <use xlink:href="#m22b428dbce" x="294.048" y="238.3008" style="fill: #dc2626; stroke: #dc2626"/>
    </g>
   </g>
   <g id="line2d_6">
    <g clip-path="url(#p1b617be193)">
     <use xlink:href="#m22b428dbce" x="211.1808" y="142.6848" style="fill: #dc2626; stroke: #dc2626"/>
    </g>
   </g>
   <g id="line2d_7">
    <path d="M 42.955334 229.563299 
L 40.483773 228.843999 
L 37.909893 228.810083 
L 35.420237 229.464012 
L 33.195245 230.758391 
L 31.396172 232.599408 
L 30.153409 234.853637 
L 29.557025 237.357701 
L 29.650242 239.930115 
L 30.426305 242.384445 
L 31.828969 244.542811 
L 33.756574 246.248784 
L 36.069418 247.378723 
L 38.599874 247.850737 
L 41.164549 247.630614 
L 43.577564 246.73431 
L 45.664038 245.226783 
L 47.27275 243.217292 
L 48.287109 240.851477 
L 48.6336 238.3008 
" clip-path="url(#p1b617be193)" style="fill: none; stroke: #059669; stroke-width: 1.5; stroke-linecap: square"/>
   </g>
   <g id="line2d_8">
    <path d="M 171.951282 226.748052 
L 168.661896 225.726464 
L 165.219086 225.622715 
L 161.874153 226.444378 
L 158.871255 228.131478 
L 156.429582 230.560869 
L 154.727359 233.555221 
L 153.888838 236.895968 
L 153.975224 240.339257 
L 154.980211 243.633753 
L 156.830443 246.538981 
L 159.390866 248.842878 
L 162.474585 250.377277 
L 165.856512 251.030176 
L 169.289788 250.753918 
L 172.523809 249.568669 
L 175.322513 247.560944 
L 177.481614 244.877292 
L 178.843513 241.713601 
L 179.3088 238.3008 
" clip-path="url(#p1b617be193)" style="fill: none; stroke: #059669; stroke-width: 1.5; stroke-linecap: square"/>
   </g>
   <g id="line2d_9">
    <path d="M 106.0032 238.3008 
L 106.392307 241.000719 
L 107.527958 243.480892 
L 109.317723 245.539461 
L 111.615934 247.00888 
L 114.235541 247.769552 
L 116.963336 247.759568 
L 119.577305 246.97974 
L 121.864698 245.493538 
L 123.639346 243.421923 
L 124.756811 240.933502 
L 125.126144 238.230808 
L 124.717284 235.53381 
L 123.563508 233.062015 
L 121.758722 231.016603 
L 119.449816 229.564047 
L 116.824711 228.822571 
L 114.097062 228.852523 
L 111.488871 229.651465 
L 109.212419 231.154371 
" clip-path="url(#p1b617be193)" style="fill: none; stroke: #059669; stroke-width: 1.5; stroke-linecap: square"/>
   </g>
   <g id="line2d_10">
    <path d="M 281.2992 238.3008 
L 281.815633 241.892611 
L 283.323094 245.193426 
L 285.699452 247.935822 
L 288.752183 249.897619 
L 292.233963 250.91988 
L 295.862711 250.919783 
L 299.344438 249.897336 
L 302.397063 247.935375 
L 304.773275 245.192852 
L 306.280559 241.891957 
L 306.7968 238.300118 
L 306.280174 234.708334 
L 304.772537 231.407601 
L 302.396033 228.665332 
L 299.343197 226.703697 
L 295.861362 225.681623 
L 292.232614 225.681914 
L 288.750942 226.704547 
L 285.698422 228.666671 
" clip-path="url(#p1b617be193)" style="fill: none; stroke: #059669; stroke-width: 1.5; stroke-linecap: square"/>
   </g>
   <g id="text_1">
    <!-- A -->
    <g style="fill: #2563eb" transform="translate(29.5104 231.9264) scale(0.09 -0.09)">
     <defs>
      <path id="DejaVuSans-41" d="M 2188 4044 
L 1331 1722 
L 3047 1722 
L 2188 4044 
z
M 1831 4666 
L 2547 4666 
L 4325 0 
L 3669 0 
L 3244 1197 
L 1141 1197 
L 716 0 
L 50 0 
L 1831 4666 
z
" transform="scale(0.015625)"/>
     </defs>
     <use xlink:href="#DejaVuSans-41"/>
    </g>
   </g>
   <g id="text_2">
    <!-- B -->
    <g style="fill: #2563eb" transform="translate(106.0032 231.9264) scale(0.09 -0.09)">
     <defs>
      <path id="DejaVuSans-42" d="M 1259 2228 
L 1259 519 
L 2272 519 
Q 2781 519 3026 730 
Q 3272 941 3272 1375 
Q 3272 1813 3026 2020 
Q 2781 2228 2272 2228 
L 1259 2228 
z
M 1259 4147 
L 1259 2741 
L 2194 2741 
Q 2656 2741 2882 2914 
Q 3109 3088 3109 3444 
Q 3109 3797 2882 3972 
Q 2656 4147 2194 4147 
L 1259 4147 
z
M 628 4666 
L 2241 4666 
Q 2963 4666 3353 4366 
Q 3744 4066 3744 3513 
Q 3744 3084 3544 2831 
Q 3344 2578 2956 2516 
Q 3422 2416 3680 2098 
Q 3938 1781 3938 1306 
Q 3938 681 3513 340 
Q 3088 0 2303 0 
L 628 0 
L 628 4666 
z
" transform="scale(0.015625)"/>
     </defs>
     <use xlink:href="#DejaVuSans-42"/>
    </g>
   </g>
   <g id="text_3">
    <!-- C -->
    <g style="fill: #2563eb" transform="translate(55.008 174.5568) scale(0.09 -0.09)">
     <defs>
      <path id="DejaVuSans-43" d="M 4122 4306 
L 4122 3641 
Q 3803 3938 3442 4084 
Q 3081 4231 2675 4231 
Q 1875 4231 1450 3742 
Q 1025 3253 1025 2328 
Q 1025 1406 1450 917 
Q 1875 428 2675 428 
Q 3081 428 3442 575 
Q 3803 722 4122 1019 
L 4122 359 
Q 3791 134 3420 21 
Q 3050 -91 2638 -91 
Q 1578 -91 968 557 
Q 359 1206 359 2328 
Q 359 3453 968 4101 
Q 1578 4750 2638 4750 
Q 3056 4750 3426 4639 
Q 3797 4528 4122 4306 
z
" transform="scale(0.015625)"/>
     </defs>
     <use xlink:href="#DejaVuSans-43"/>
    </g>
   </g>
   <g id="text_4">
    <!-- A' -->
    <g style="fill: #dc2626" transform="translate(172.9344 231.9264) scale(0.09 -0.09)">
     <defs>
      <path id="DejaVuSans-27" d="M 1147 4666 
L 1147 2931 
L 616 2931 
L 616 4666 
L 1147 4666 
z
" transform="scale(0.015625)"/>
     </defs>
     <use xlink:href="#DejaVuSans-41"/>
     <use xlink:href="#DejaVuSans-27" transform="translate(68.408203 0)"/>
    </g>
   </g>
   <g id="text_5">
    <!-- B' -->
    <g style="fill: #dc2626" transform="translate(300.4224 231.9264) scale(0.09 -0.09)">
     <use xlink:href="#DejaVuSans-42"/>
     <use xlink:href="#DejaVuSans-27" transform="translate(68.603516 0)"/>
    </g>
   </g>
   <g id="text_6">
    <!-- C' -->
    <g style="fill: #dc2626" transform="translate(217.5552 136.3104) scale(0.09 -0.09)">
     <use xlink:href="#DejaVuSans-43"/>
     <use xlink:href="#DejaVuSans-27" transform="translate(69.824219 0)"/>
    </g>
   </g>
   <g id="text_7">
    <!-- ~ -->
    <g style="fill: #7c3aed" transform="translate(143.755575 181.1793) scale(0.24 -0.24)">
     <defs>
      <path id="DejaVuSans-Bold-7e" d="M 4684 2656 
L 4684 1894 
Q 4353 1644 4073 1536 
Q 3794 1428 3494 1428 
Q 3159 1428 2713 1609 
Q 2669 1628 2644 1638 
Q 2622 1647 2575 1666 
Q 2091 1856 1797 1856 
Q 1522 1856 1253 1736 
Q 984 1616 678 1356 
L 678 2119 
Q 1013 2369 1291 2476 
Q 1569 2584 1869 2584 
Q 2203 2584 2650 2403 
Q 2697 2384 2719 2375 
Q 2741 2366 2788 2347 
Q 3272 2156 3566 2156 
Q 3834 2156 4098 2273 
Q 4363 2391 4684 2656 
z
" transform="scale(0.015625)"/>
     </defs>
     <use xlink:href="#DejaVuSans-Bold-7e"/>
    </g>
   </g>
   <g id="text_8">
    <!-- 2 ángulos iguales -->
    <g style="fill: #6b7280" transform="translate(114.341981 257.424) scale(0.09 -0.09)">
     <defs>
      <path id="DejaVuSans-Oblique-32" d="M 2950 2253 
L 934 525 
L 3163 525 
L 3053 0 
L 25 0 
L 128 531 
L 2234 2338 
Q 2656 2703 2832 2979 
Q 3009 3256 3009 3547 
Q 3009 3850 2796 4040 
Q 2584 4231 2241 4231 
Q 1944 4231 1581 4125 
Q 1219 4019 806 3816 
L 922 4441 
Q 1309 4594 1662 4672 
Q 2016 4750 2316 4750 
Q 2928 4750 3301 4425 
Q 3675 4100 3675 3572 
Q 3675 3216 3497 2892 
Q 3319 2569 2950 2253 
z
" transform="scale(0.015625)"/>
      <path id="DejaVuSans-Oblique-20" transform="scale(0.015625)"/>
      <path id="DejaVuSans-Oblique-e1" d="M 3438 1997 
L 3047 0 
L 2472 0 
L 2578 531 
Q 2325 219 2001 64 
Q 1678 -91 1281 -91 
Q 834 -91 548 182 
Q 263 456 263 884 
Q 263 1497 752 1853 
Q 1241 2209 2100 2209 
L 2900 2209 
L 2931 2363 
Q 2938 2388 2941 2417 
Q 2944 2447 2944 2509 
Q 2944 2788 2717 2942 
Q 2491 3097 2081 3097 
Q 1800 3097 1504 3025 
Q 1209 2953 897 2809 
L 997 3341 
Q 1322 3463 1633 3523 
Q 1944 3584 2234 3584 
Q 2853 3584 3176 3315 
Q 3500 3047 3500 2534 
Q 3500 2431 3484 2292 
Q 3469 2153 3438 1997 
z
M 2816 1759 
L 2241 1759 
Q 1534 1759 1195 1570 
Q 856 1381 856 984 
Q 856 709 1029 553 
Q 1203 397 1509 397 
Q 1978 397 2328 733 
Q 2678 1069 2791 1631 
L 2816 1759 
z
M 3031 5119 
L 3653 5119 
L 2406 3944 
L 1925 3944 
L 3031 5119 
z
" transform="scale(0.015625)"/>
      <path id="DejaVuSans-Oblique-6e" d="M 3566 2113 
L 3156 0 
L 2578 0 
L 2988 2091 
Q 3016 2238 3031 2350 
Q 3047 2463 3047 2528 
Q 3047 2791 2881 2937 
Q 2716 3084 2419 3084 
Q 1956 3084 1622 2776 
Q 1288 2469 1184 1941 
L 800 0 
L 225 0 
L 903 3500 
L 1478 3500 
L 1363 2950 
Q 1603 3253 1940 3418 
Q 2278 3584 2650 3584 
Q 3113 3584 3367 3334 
Q 3622 3084 3622 2631 
Q 3622 2519 3608 2391 
Q 3594 2263 3566 2113 
z
" transform="scale(0.015625)"/>
      <path id="DejaVuSans-Oblique-67" d="M 3816 3500 
L 3219 434 
Q 3047 -456 2561 -893 
Q 2075 -1331 1253 -1331 
Q 950 -1331 690 -1286 
Q 431 -1241 206 -1147 
L 313 -588 
Q 525 -725 762 -790 
Q 1000 -856 1269 -856 
Q 1816 -856 2167 -557 
Q 2519 -259 2631 300 
L 2681 563 
Q 2441 288 2122 144 
Q 1803 0 1434 0 
Q 903 0 598 351 
Q 294 703 294 1319 
Q 294 1803 478 2267 
Q 663 2731 997 3091 
Q 1219 3328 1514 3456 
Q 1809 3584 2131 3584 
Q 2484 3584 2746 3420 
Q 3009 3256 3138 2956 
L 3238 3500 
L 3816 3500 
z
M 2950 2216 
Q 2950 2641 2750 2872 
Q 2550 3103 2181 3103 
Q 1953 3103 1747 3012 
Q 1541 2922 1394 2759 
Q 1156 2491 1023 2127 
Q 891 1763 891 1375 
Q 891 944 1092 712 
Q 1294 481 1672 481 
Q 2219 481 2584 976 
Q 2950 1472 2950 2216 
z
" transform="scale(0.015625)"/>
      <path id="DejaVuSans-Oblique-75" d="M 428 1388 
L 838 3500 
L 1416 3500 
L 1006 1409 
Q 975 1256 961 1147 
Q 947 1038 947 966 
Q 947 700 1109 554 
Q 1272 409 1569 409 
Q 2031 409 2368 721 
Q 2706 1034 2809 1563 
L 3194 3500 
L 3769 3500 
L 3091 0 
L 2516 0 
L 2631 550 
Q 2388 244 2052 76 
Q 1716 -91 1338 -91 
Q 878 -91 622 161 
Q 366 413 366 863 
Q 366 956 381 1097 
Q 397 1238 428 1388 
z
" transform="scale(0.015625)"/>
      <path id="DejaVuSans-Oblique-6c" d="M 1172 4863 
L 1747 4863 
L 800 0 
L 225 0 
L 1172 4863 
z
" transform="scale(0.015625)"/>
      <path id="DejaVuSans-Oblique-6f" d="M 1625 -91 
Q 1009 -91 651 289 
Q 294 669 294 1325 
Q 294 1706 417 2101 
Q 541 2497 738 2766 
Q 1047 3184 1428 3384 
Q 1809 3584 2291 3584 
Q 2888 3584 3255 3212 
Q 3622 2841 3622 2241 
Q 3622 1825 3500 1412 
Q 3378 1000 3181 728 
Q 2875 309 2494 109 
Q 2113 -91 1625 -91 
z
M 891 1344 
Q 891 869 1089 633 
Q 1288 397 1691 397 
Q 2269 397 2648 901 
Q 3028 1406 3028 2181 
Q 3028 2634 2825 2865 
Q 2622 3097 2228 3097 
Q 1903 3097 1650 2945 
Q 1397 2794 1197 2484 
Q 1050 2253 970 1956 
Q 891 1659 891 1344 
z
" transform="scale(0.015625)"/>
      <path id="DejaVuSans-Oblique-73" d="M 3200 3397 
L 3091 2853 
Q 2863 2978 2609 3040 
Q 2356 3103 2088 3103 
Q 1634 3103 1373 2948 
Q 1113 2794 1113 2528 
Q 1113 2219 1719 2053 
Q 1766 2041 1788 2034 
L 1972 1978 
Q 2547 1819 2739 1644 
Q 2931 1469 2931 1166 
Q 2931 609 2489 259 
Q 2047 -91 1331 -91 
Q 1053 -91 747 -37 
Q 441 16 72 128 
L 184 722 
Q 500 559 806 475 
Q 1113 391 1394 391 
Q 1816 391 2080 572 
Q 2344 753 2344 1031 
Q 2344 1331 1650 1516 
L 1591 1531 
L 1394 1581 
Q 956 1697 753 1886 
Q 550 2075 550 2369 
Q 550 2928 970 3256 
Q 1391 3584 2113 3584 
Q 2397 3584 2667 3537 
Q 2938 3491 3200 3397 
z
" transform="scale(0.015625)"/>
      <path id="DejaVuSans-Oblique-69" d="M 1172 4863 
L 1747 4863 
L 1606 4134 
L 1031 4134 
L 1172 4863 
z
M 909 3500 
L 1484 3500 
L 800 0 
L 225 0 
L 909 3500 
z
" transform="scale(0.015625)"/>
      <path id="DejaVuSans-Oblique-61" d="M 3438 1997 
L 3047 0 
L 2472 0 
L 2578 531 
Q 2325 219 2001 64 
Q 1678 -91 1281 -91 
Q 834 -91 548 182 
Q 263 456 263 884 
Q 263 1497 752 1853 
Q 1241 2209 2100 2209 
L 2900 2209 
L 2931 2363 
Q 2938 2388 2941 2417 
Q 2944 2447 2944 2509 
Q 2944 2788 2717 2942 
Q 2491 3097 2081 3097 
Q 1800 3097 1504 3025 
Q 1209 2953 897 2809 
L 997 3341 
Q 1322 3463 1633 3523 
Q 1944 3584 2234 3584 
Q 2853 3584 3176 3315 
Q 3500 3047 3500 2534 
Q 3500 2431 3484 2292 
Q 3469 2153 3438 1997 
z
M 2816 1759 
L 2241 1759 
Q 1534 1759 1195 1570 
Q 856 1381 856 984 
Q 856 709 1029 553 
Q 1203 397 1509 397 
Q 1978 397 2328 733 
Q 2678 1069 2791 1631 
L 2816 1759 
z
" transform="scale(0.015625)"/>
      <path id="DejaVuSans-Oblique-65" d="M 3078 2063 
Q 3088 2113 3092 2166 
Q 3097 2219 3097 2272 
Q 3097 2653 2873 2875 
Q 2650 3097 2266 3097 
Q 1838 3097 1509 2826 
Q 1181 2556 1013 2059 
L 3078 2063 
z
M 3578 1613 
L 903 1613 
Q 884 1494 878 1425 
Q 872 1356 872 1306 
Q 872 872 1139 634 
Q 1406 397 1894 397 
Q 2269 397 2603 481 
Q 2938 566 3225 728 
L 3116 159 
Q 2806 34 2476 -28 
Q 2147 -91 1806 -91 
Q 1078 -91 686 257 
Q 294 606 294 1247 
Q 294 1794 489 2264 
Q 684 2734 1063 3103 
Q 1306 3334 1642 3459 
Q 1978 3584 2356 3584 
Q 2950 3584 3301 3228 
Q 3653 2872 3653 2272 
Q 3653 2128 3634 1964 
Q 3616 1800 3578 1613 
z
" transform="scale(0.015625)"/>
     </defs>
     <use xlink:href="#DejaVuSans-Oblique-32"/>
     <use xlink:href="#DejaVuSans-Oblique-20" transform="translate(63.623047 0)"/>
     <use xlink:href="#DejaVuSans-Oblique-e1" transform="translate(95.410156 0)"/>
     <use xlink:href="#DejaVuSans-Oblique-6e" transform="translate(156.689453 0)"/>
     <use xlink:href="#DejaVuSans-Oblique-67" transform="translate(220.068359 0)"/>
     <use xlink:href="#DejaVuSans-Oblique-75" transform="translate(283.544922 0)"/>
     <use xlink:href="#DejaVuSans-Oblique-6c" transform="translate(346.923828 0)"/>
     <use xlink:href="#DejaVuSans-Oblique-6f" transform="translate(374.707031 0)"/>
     <use xlink:href="#DejaVuSans-Oblique-73" transform="translate(435.888672 0)"/>
     <use xlink:href="#DejaVuSans-Oblique-20" transform="translate(487.988281 0)"/>
     <use xlink:href="#DejaVuSans-Oblique-69" transform="translate(519.775391 0)"/>
     <use xlink:href="#DejaVuSans-Oblique-67" transform="translate(547.558594 0)"/>
     <use xlink:href="#DejaVuSans-Oblique-75" transform="translate(611.035156 0)"/>
     <use xlink:href="#DejaVuSans-Oblique-61" transform="translate(674.414062 0)"/>
     <use xlink:href="#DejaVuSans-Oblique-6c" transform="translate(735.693359 0)"/>
     <use xlink:href="#DejaVuSans-Oblique-65" transform="translate(763.476562 0)"/>
     <use xlink:href="#DejaVuSans-Oblique-73" transform="translate(825 0)"/>
    </g>
   </g>
   <g id="text_9">
    <!-- AA (Ángulo-Ángulo) -->
    <g style="fill: #1f2937" transform="translate(105.446406 102.8128) scale(0.11 -0.11)">
     <defs>
      <path id="DejaVuSans-Bold-41" d="M 3419 850 
L 1538 850 
L 1241 0 
L 31 0 
L 1759 4666 
L 3194 4666 
L 4922 0 
L 3713 0 
L 3419 850 
z
M 1838 1716 
L 3116 1716 
L 2478 3572 
L 1838 1716 
z
" transform="scale(0.015625)"/>
      <path id="DejaVuSans-Bold-20" transform="scale(0.015625)"/>
      <path id="DejaVuSans-Bold-28" d="M 2413 -844 
L 1484 -844 
Q 1006 -72 778 623 
Q 550 1319 550 2003 
Q 550 2688 779 3389 
Q 1009 4091 1484 4856 
L 2413 4856 
Q 2013 4116 1813 3408 
Q 1613 2700 1613 2009 
Q 1613 1319 1811 609 
Q 2009 -100 2413 -844 
z
" transform="scale(0.015625)"/>
      <path id="DejaVuSans-Bold-c1" d="M 3419 850 
L 1538 850 
L 1241 0 
L 31 0 
L 1759 4666 
L 3194 4666 
L 4922 0 
L 3713 0 
L 3419 850 
z
M 1838 1716 
L 3116 1716 
L 2478 3572 
L 1838 1716 
z
M 2559 5921 
L 3444 5921 
L 2553 5096 
L 1941 5096 
L 2559 5921 
z
" transform="scale(0.015625)"/>
      <path id="DejaVuSans-Bold-6e" d="M 4056 2131 
L 4056 0 
L 2931 0 
L 2931 347 
L 2931 1631 
Q 2931 2084 2911 2256 
Q 2891 2428 2841 2509 
Q 2775 2619 2662 2680 
Q 2550 2741 2406 2741 
Q 2056 2741 1856 2470 
Q 1656 2200 1656 1722 
L 1656 0 
L 538 0 
L 538 3500 
L 1656 3500 
L 1656 2988 
Q 1909 3294 2193 3439 
Q 2478 3584 2822 3584 
Q 3428 3584 3742 3212 
Q 4056 2841 4056 2131 
z
" transform="scale(0.015625)"/>
      <path id="DejaVuSans-Bold-67" d="M 2919 594 
Q 2688 288 2409 144 
Q 2131 0 1766 0 
Q 1125 0 706 504 
Q 288 1009 288 1791 
Q 288 2575 706 3076 
Q 1125 3578 1766 3578 
Q 2131 3578 2409 3434 
Q 2688 3291 2919 2981 
L 2919 3500 
L 4044 3500 
L 4044 353 
Q 4044 -491 3511 -936 
Q 2978 -1381 1966 -1381 
Q 1638 -1381 1331 -1331 
Q 1025 -1281 716 -1178 
L 716 -306 
Q 1009 -475 1290 -558 
Q 1572 -641 1856 -641 
Q 2406 -641 2662 -400 
Q 2919 -159 2919 353 
L 2919 594 
z
M 2181 2772 
Q 1834 2772 1640 2515 
Q 1447 2259 1447 1791 
Q 1447 1309 1634 1061 
Q 1822 813 2181 813 
Q 2531 813 2725 1069 
Q 2919 1325 2919 1791 
Q 2919 2259 2725 2515 
Q 2531 2772 2181 2772 
z
" transform="scale(0.015625)"/>
      <path id="DejaVuSans-Bold-75" d="M 500 1363 
L 500 3500 
L 1625 3500 
L 1625 3150 
Q 1625 2866 1622 2436 
Q 1619 2006 1619 1863 
Q 1619 1441 1641 1255 
Q 1663 1069 1716 984 
Q 1784 875 1895 815 
Q 2006 756 2150 756 
Q 2500 756 2700 1025 
Q 2900 1294 2900 1772 
L 2900 3500 
L 4019 3500 
L 4019 0 
L 2900 0 
L 2900 506 
Q 2647 200 2364 54 
Q 2081 -91 1741 -91 
Q 1134 -91 817 281 
Q 500 653 500 1363 
z
" transform="scale(0.015625)"/>
      <path id="DejaVuSans-Bold-6c" d="M 538 4863 
L 1656 4863 
L 1656 0 
L 538 0 
L 538 4863 
z
" transform="scale(0.015625)"/>
      <path id="DejaVuSans-Bold-6f" d="M 2203 2784 
Q 1831 2784 1636 2517 
Q 1441 2250 1441 1747 
Q 1441 1244 1636 976 
Q 1831 709 2203 709 
Q 2569 709 2762 976 
Q 2956 1244 2956 1747 
Q 2956 2250 2762 2517 
Q 2569 2784 2203 2784 
z
M 2203 3584 
Q 3106 3584 3614 3096 
Q 4122 2609 4122 1747 
Q 4122 884 3614 396 
Q 3106 -91 2203 -91 
Q 1297 -91 786 396 
Q 275 884 275 1747 
Q 275 2609 786 3096 
Q 1297 3584 2203 3584 
z
" transform="scale(0.015625)"/>
      <path id="DejaVuSans-Bold-2d" d="M 347 2297 
L 2309 2297 
L 2309 1388 
L 347 1388 
L 347 2297 
z
" transform="scale(0.015625)"/>
      <path id="DejaVuSans-Bold-29" d="M 513 -844 
Q 913 -100 1113 609 
Q 1313 1319 1313 2009 
Q 1313 2700 1113 3408 
Q 913 4116 513 4856 
L 1441 4856 
Q 1916 4091 2145 3389 
Q 2375 2688 2375 2003 
Q 2375 1319 2147 623 
Q 1919 -72 1441 -844 
L 513 -844 
z
" transform="scale(0.015625)"/>
     </defs>
     <use xlink:href="#DejaVuSans-Bold-41"/>
     <use xlink:href="#DejaVuSans-Bold-41" transform="translate(77.392578 0)"/>
     <use xlink:href="#DejaVuSans-Bold-20" transform="translate(154.785156 0)"/>
     <use xlink:href="#DejaVuSans-Bold-28" transform="translate(189.599609 0)"/>
     <use xlink:href="#DejaVuSans-Bold-c1" transform="translate(235.302734 0)"/>
     <use xlink:href="#DejaVuSans-Bold-6e" transform="translate(312.695312 0)"/>
     <use xlink:href="#DejaVuSans-Bold-67" transform="translate(383.886719 0)"/>
     <use xlink:href="#DejaVuSans-Bold-75" transform="translate(455.46875 0)"/>
     <use xlink:href="#DejaVuSans-Bold-6c" transform="translate(526.660156 0)"/>
     <use xlink:href="#DejaVuSans-Bold-6f" transform="translate(560.9375 0)"/>
     <use xlink:href="#DejaVuSans-Bold-2d" transform="translate(629.638672 0)"/>
     <use xlink:href="#DejaVuSans-Bold-c1" transform="translate(671.142578 0)"/>
     <use xlink:href="#DejaVuSans-Bold-6e" transform="translate(748.535156 0)"/>
     <use xlink:href="#DejaVuSans-Bold-67" transform="translate(819.726562 0)"/>
     <use xlink:href="#DejaVuSans-Bold-75" transform="translate(891.308594 0)"/>
     <use xlink:href="#DejaVuSans-Bold-6c" transform="translate(962.5 0)"/>
     <use xlink:href="#DejaVuSans-Bold-6f" transform="translate(996.777344 0)"/>
     <use xlink:href="#DejaVuSans-Bold-29" transform="translate(1065.478516 0)"/>
    </g>
   </g>
  </g>
  <g id="axes_2">
   <g id="patch_4">
    <path d="M 370.752 238.3008 
L 447.2448 238.3008 
L 396.2496 180.9312 
z
" clip-path="url(#p491926239c)" style="fill: #2563eb; opacity: 0.15; stroke: #2563eb; stroke-width: 2; stroke-linejoin: miter"/>
   </g>
   <g id="patch_5">
    <path d="M 498.24 238.3008 
L 625.728 238.3008 
L 542.8608 142.6848 
z
" clip-path="url(#p491926239c)" style="fill: #dc2626; opacity: 0.15; stroke: #dc2626; stroke-width: 2; stroke-linejoin: miter"/>
   </g>
   <g id="line2d_11">
    <g clip-path="url(#p491926239c)">
     <use xlink:href="#m20b7cff8d4" x="370.752" y="238.3008" style="fill: #2563eb; stroke: #2563eb"/>
    </g>
   </g>
   <g id="line2d_12">
    <g clip-path="url(#p491926239c)">
     <use xlink:href="#m20b7cff8d4" x="447.2448" y="238.3008" style="fill: #2563eb; stroke: #2563eb"/>
    </g>
   </g>
   <g id="line2d_13">
    <g clip-path="url(#p491926239c)">
     <use xlink:href="#m20b7cff8d4" x="396.2496" y="180.9312" style="fill: #2563eb; stroke: #2563eb"/>
    </g>
   </g>
   <g id="line2d_14">
    <g clip-path="url(#p491926239c)">
     <use xlink:href="#m22b428dbce" x="498.24" y="238.3008" style="fill: #dc2626; stroke: #dc2626"/>
    </g>
   </g>
   <g id="line2d_15">
    <g clip-path="url(#p491926239c)">
     <use xlink:href="#m22b428dbce" x="625.728" y="238.3008" style="fill: #dc2626; stroke: #dc2626"/>
    </g>
   </g>
   <g id="line2d_16">
    <g clip-path="url(#p491926239c)">
     <use xlink:href="#m22b428dbce" x="542.8608" y="142.6848" style="fill: #dc2626; stroke: #dc2626"/>
    </g>
   </g>
   <g id="line2d_17">
    <path d="M 374.635334 229.563299 
L 372.163773 228.843999 
L 369.589893 228.810083 
L 367.100237 229.464012 
L 364.875245 230.758391 
L 363.076172 232.599408 
L 361.833409 234.853637 
L 361.237025 237.357701 
L 361.330242 239.930115 
L 362.106305 242.384445 
L 363.508969 244.542811 
L 365.436574 246.248784 
L 367.749418 247.378723 
L 370.279874 247.850737 
L 372.844549 247.630614 
L 375.257564 246.73431 
L 377.344038 245.226783 
L 378.95275 243.217292 
L 379.967109 240.851477 
L 380.3136 238.3008 
" clip-path="url(#p491926239c)" style="fill: none; stroke: #059669; stroke-width: 1.5; stroke-linecap: square"/>
   </g>
   <g id="line2d_18">
    <path d="M 503.631282 226.748052 
L 500.341896 225.726464 
L 496.899086 225.622715 
L 493.554153 226.444378 
L 490.551255 228.131478 
L 488.109582 230.560869 
L 486.407359 233.555221 
L 485.568838 236.895968 
L 485.655224 240.339257 
L 486.660211 243.633753 
L 488.510443 246.538981 
L 491.070866 248.842878 
L 494.154585 250.377277 
L 497.536512 251.030176 
L 500.969788 250.753918 
L 504.203809 249.568669 
L 507.002513 247.560944 
L 509.161614 244.877292 
L 510.523513 241.713601 
L 510.9888 238.3008 
" clip-path="url(#p491926239c)" style="fill: none; stroke: #059669; stroke-width: 1.5; stroke-linecap: square"/>
   </g>
   <g id="text_10">
    <!-- A -->
    <g style="fill: #2563eb" transform="translate(361.1904 231.9264) scale(0.09 -0.09)">
     <use xlink:href="#DejaVuSans-41"/>
    </g>
   </g>
   <g id="text_11">
    <!-- B -->
    <g style="fill: #2563eb" transform="translate(437.6832 231.9264) scale(0.09 -0.09)">
     <use xlink:href="#DejaVuSans-42"/>
    </g>
   </g>
   <g id="text_12">
    <!-- C -->
    <g style="fill: #2563eb" transform="translate(386.688 174.5568) scale(0.09 -0.09)">
     <use xlink:href="#DejaVuSans-43"/>
    </g>
   </g>
   <g id="text_13">
    <!-- A' -->
    <g style="fill: #dc2626" transform="translate(504.6144 231.9264) scale(0.09 -0.09)">
     <use xlink:href="#DejaVuSans-41"/>
     <use xlink:href="#DejaVuSans-27" transform="translate(68.408203 0)"/>
    </g>
   </g>
   <g id="text_14">
    <!-- B' -->
    <g style="fill: #dc2626" transform="translate(632.1024 231.9264) scale(0.09 -0.09)">
     <use xlink:href="#DejaVuSans-42"/>
     <use xlink:href="#DejaVuSans-27" transform="translate(68.603516 0)"/>
    </g>
   </g>
   <g id="text_15">
    <!-- C' -->
    <g style="fill: #dc2626" transform="translate(549.2352 136.3104) scale(0.09 -0.09)">
     <use xlink:href="#DejaVuSans-43"/>
     <use xlink:href="#DejaVuSans-27" transform="translate(69.824219 0)"/>
    </g>
   </g>
   <g id="text_16">
    <!-- ~ -->
    <g style="fill: #7c3aed" transform="translate(475.435575 181.1793) scale(0.24 -0.24)">
     <use xlink:href="#DejaVuSans-Bold-7e"/>
    </g>
   </g>
   <g id="text_17">
    <!-- 2 lados proporcionales y -->
    <g style="fill: #6b7280" transform="translate(430.340888 246.913969) scale(0.09 -0.09)">
     <defs>
      <path id="DejaVuSans-Oblique-64" d="M 2675 525 
Q 2444 222 2128 65 
Q 1813 -91 1428 -91 
Q 903 -91 598 267 
Q 294 625 294 1247 
Q 294 1766 478 2236 
Q 663 2706 1013 3078 
Q 1244 3325 1534 3454 
Q 1825 3584 2144 3584 
Q 2481 3584 2739 3421 
Q 2997 3259 3138 2956 
L 3513 4863 
L 4091 4863 
L 3144 0 
L 2566 0 
L 2675 525 
z
M 891 1350 
Q 891 897 1095 644 
Q 1300 391 1663 391 
Q 1931 391 2161 520 
Q 2391 650 2566 903 
Q 2750 1166 2856 1509 
Q 2963 1853 2963 2188 
Q 2963 2622 2758 2865 
Q 2553 3109 2194 3109 
Q 1922 3109 1687 2981 
Q 1453 2853 1288 2613 
Q 1106 2353 998 2009 
Q 891 1666 891 1350 
z
" transform="scale(0.015625)"/>
      <path id="DejaVuSans-Oblique-70" d="M 3175 2156 
Q 3175 2616 2975 2859 
Q 2775 3103 2400 3103 
Q 2144 3103 1911 2972 
Q 1678 2841 1497 2591 
Q 1319 2344 1212 1994 
Q 1106 1644 1106 1300 
Q 1106 863 1306 627 
Q 1506 391 1875 391 
Q 2147 391 2380 519 
Q 2613 647 2778 891 
Q 2956 1147 3065 1494 
Q 3175 1841 3175 2156 
z
M 1394 2969 
Q 1625 3272 1939 3428 
Q 2253 3584 2638 3584 
Q 3175 3584 3472 3232 
Q 3769 2881 3769 2247 
Q 3769 1728 3584 1258 
Q 3400 788 3053 416 
Q 2822 169 2531 39 
Q 2241 -91 1919 -91 
Q 1547 -91 1294 64 
Q 1041 219 916 525 
L 556 -1331 
L -19 -1331 
L 922 3500 
L 1497 3500 
L 1394 2969 
z
" transform="scale(0.015625)"/>
      <path id="DejaVuSans-Oblique-72" d="M 2853 2969 
Q 2766 3016 2653 3041 
Q 2541 3066 2413 3066 
Q 1953 3066 1609 2717 
Q 1266 2369 1153 1784 
L 800 0 
L 225 0 
L 909 3500 
L 1484 3500 
L 1375 2956 
Q 1603 3259 1920 3421 
Q 2238 3584 2597 3584 
Q 2691 3584 2781 3573 
Q 2872 3563 2963 3538 
L 2853 2969 
z
" transform="scale(0.015625)"/>
      <path id="DejaVuSans-Oblique-63" d="M 3431 3366 
L 3316 2797 
Q 3109 2947 2876 3022 
Q 2644 3097 2394 3097 
Q 2119 3097 1870 3000 
Q 1622 2903 1453 2725 
Q 1184 2453 1037 2087 
Q 891 1722 891 1331 
Q 891 859 1127 628 
Q 1363 397 1844 397 
Q 2081 397 2348 469 
Q 2616 541 2906 684 
L 2797 116 
Q 2547 13 2283 -39 
Q 2019 -91 1741 -91 
Q 1044 -91 669 257 
Q 294 606 294 1253 
Q 294 1797 489 2255 
Q 684 2713 1069 3078 
Q 1331 3328 1684 3456 
Q 2038 3584 2456 3584 
Q 2700 3584 2940 3529 
Q 3181 3475 3431 3366 
z
" transform="scale(0.015625)"/>
      <path id="DejaVuSans-Oblique-79" d="M 1588 -325 
Q 1188 -997 936 -1164 
Q 684 -1331 294 -1331 
L -159 -1331 
L -63 -850 
L 269 -850 
Q 509 -850 678 -719 
Q 847 -588 1056 -206 
L 1234 128 
L 459 3500 
L 1069 3500 
L 1650 819 
L 3256 3500 
L 3859 3500 
L 1588 -325 
z
" transform="scale(0.015625)"/>
     </defs>
     <use xlink:href="#DejaVuSans-Oblique-32"/>
     <use xlink:href="#DejaVuSans-Oblique-20" transform="translate(63.623047 0)"/>
     <use xlink:href="#DejaVuSans-Oblique-6c" transform="translate(95.410156 0)"/>
     <use xlink:href="#DejaVuSans-Oblique-61" transform="translate(123.193359 0)"/>
     <use xlink:href="#DejaVuSans-Oblique-64" transform="translate(184.472656 0)"/>
     <use xlink:href="#DejaVuSans-Oblique-6f" transform="translate(247.949219 0)"/>
     <use xlink:href="#DejaVuSans-Oblique-73" transform="translate(309.130859 0)"/>
     <use xlink:href="#DejaVuSans-Oblique-20" transform="translate(361.230469 0)"/>
     <use xlink:href="#DejaVuSans-Oblique-70" transform="translate(393.017578 0)"/>
     <use xlink:href="#DejaVuSans-Oblique-72" transform="translate(456.494141 0)"/>
     <use xlink:href="#DejaVuSans-Oblique-6f" transform="translate(497.607422 0)"/>
     <use xlink:href="#DejaVuSans-Oblique-70" transform="translate(558.789062 0)"/>
     <use xlink:href="#DejaVuSans-Oblique-6f" transform="translate(622.265625 0)"/>
     <use xlink:href="#DejaVuSans-Oblique-72" transform="translate(683.447266 0)"/>
     <use xlink:href="#DejaVuSans-Oblique-63" transform="translate(724.560547 0)"/>
     <use xlink:href="#DejaVuSans-Oblique-69" transform="translate(779.541016 0)"/>
     <use xlink:href="#DejaVuSans-Oblique-6f" transform="translate(807.324219 0)"/>
     <use xlink:href="#DejaVuSans-Oblique-6e" transform="translate(868.505859 0)"/>
     <use xlink:href="#DejaVuSans-Oblique-61" transform="translate(931.884766 0)"/>
     <use xlink:href="#DejaVuSans-Oblique-6c" transform="translate(993.164062 0)"/>
     <use xlink:href="#DejaVuSans-Oblique-65" transform="translate(1020.947266 0)"/>
     <use xlink:href="#DejaVuSans-Oblique-73" transform="translate(1082.470703 0)"/>
     <use xlink:href="#DejaVuSans-Oblique-20" transform="translate(1134.570312 0)"/>
     <use xlink:href="#DejaVuSans-Oblique-79" transform="translate(1166.357422 0)"/>
    </g>
    <!-- ángulo comprendido igual -->
    <g style="fill: #6b7280" transform="translate(426.686747 257.424) scale(0.09 -0.09)">
     <defs>
      <path id="DejaVuSans-Oblique-6d" d="M 5747 2113 
L 5338 0 
L 4763 0 
L 5166 2094 
Q 5191 2228 5203 2325 
Q 5216 2422 5216 2491 
Q 5216 2772 5059 2928 
Q 4903 3084 4622 3084 
Q 4203 3084 3875 2770 
Q 3547 2456 3450 1953 
L 3066 0 
L 2491 0 
L 2900 2094 
Q 2925 2209 2937 2307 
Q 2950 2406 2950 2484 
Q 2950 2769 2794 2926 
Q 2638 3084 2363 3084 
Q 1938 3084 1609 2770 
Q 1281 2456 1184 1953 
L 800 0 
L 225 0 
L 909 3500 
L 1484 3500 
L 1375 2956 
Q 1609 3263 1923 3423 
Q 2238 3584 2597 3584 
Q 2978 3584 3223 3384 
Q 3469 3184 3519 2828 
Q 3781 3197 4126 3390 
Q 4472 3584 4856 3584 
Q 5306 3584 5551 3325 
Q 5797 3066 5797 2591 
Q 5797 2488 5784 2364 
Q 5772 2241 5747 2113 
z
" transform="scale(0.015625)"/>
     </defs>
     <use xlink:href="#DejaVuSans-Oblique-e1"/>
     <use xlink:href="#DejaVuSans-Oblique-6e" transform="translate(61.279297 0)"/>
     <use xlink:href="#DejaVuSans-Oblique-67" transform="translate(124.658203 0)"/>
     <use xlink:href="#DejaVuSans-Oblique-75" transform="translate(188.134766 0)"/>
     <use xlink:href="#DejaVuSans-Oblique-6c" transform="translate(251.513672 0)"/>
     <use xlink:href="#DejaVuSans-Oblique-6f" transform="translate(279.296875 0)"/>
     <use xlink:href="#DejaVuSans-Oblique-20" transform="translate(340.478516 0)"/>
     <use xlink:href="#DejaVuSans-Oblique-63" transform="translate(372.265625 0)"/>
     <use xlink:href="#DejaVuSans-Oblique-6f" transform="translate(427.246094 0)"/>
     <use xlink:href="#DejaVuSans-Oblique-6d" transform="translate(488.427734 0)"/>
     <use xlink:href="#DejaVuSans-Oblique-70" transform="translate(585.839844 0)"/>
     <use xlink:href="#DejaVuSans-Oblique-72" transform="translate(649.316406 0)"/>
     <use xlink:href="#DejaVuSans-Oblique-65" transform="translate(690.429688 0)"/>
     <use xlink:href="#DejaVuSans-Oblique-6e" transform="translate(751.953125 0)"/>
     <use xlink:href="#DejaVuSans-Oblique-64" transform="translate(815.332031 0)"/>
     <use xlink:href="#DejaVuSans-Oblique-69" transform="translate(878.808594 0)"/>
     <use xlink:href="#DejaVuSans-Oblique-64" transform="translate(906.591797 0)"/>
     <use xlink:href="#DejaVuSans-Oblique-6f" transform="translate(970.068359 0)"/>
     <use xlink:href="#DejaVuSans-Oblique-20" transform="translate(1031.25 0)"/>
     <use xlink:href="#DejaVuSans-Oblique-69" transform="translate(1063.037109 0)"/>
     <use xlink:href="#DejaVuSans-Oblique-67" transform="translate(1090.820312 0)"/>
     <use xlink:href="#DejaVuSans-Oblique-75" transform="translate(1154.296875 0)"/>
     <use xlink:href="#DejaVuSans-Oblique-61" transform="translate(1217.675781 0)"/>
     <use xlink:href="#DejaVuSans-Oblique-6c" transform="translate(1278.955078 0)"/>
    </g>
   </g>
   <g id="text_18">
    <!-- k -->
    <g style="fill: #059669" transform="translate(383.5008 209.616) scale(0.09 -0.09)">
     <defs>
      <path id="DejaVuSans-6b" d="M 581 4863 
L 1159 4863 
L 1159 1991 
L 2875 3500 
L 3609 3500 
L 1753 1863 
L 3688 0 
L 2938 0 
L 1159 1709 
L 1159 0 
L 581 0 
L 581 4863 
z
" transform="scale(0.015625)"/>
     </defs>
     <use xlink:href="#DejaVuSans-6b"/>
    </g>
   </g>
   <g id="text_19">
    <!-- k -->
    <g style="fill: #059669" transform="translate(421.7472 209.616) scale(0.09 -0.09)">
     <use xlink:href="#DejaVuSans-6b"/>
    </g>
   </g>
   <g id="text_20">
    <!-- 2k -->
    <g style="fill: #059669" transform="translate(520.5504 190.4928) scale(0.09 -0.09)">
     <defs>
      <path id="DejaVuSans-32" d="M 1228 531 
L 3431 531 
L 3431 0 
L 469 0 
L 469 531 
Q 828 903 1448 1529 
Q 2069 2156 2228 2338 
Q 2531 2678 2651 2914 
Q 2772 3150 2772 3378 
Q 2772 3750 2511 3984 
Q 2250 4219 1831 4219 
Q 1534 4219 1204 4116 
Q 875 4013 500 3803 
L 500 4441 
Q 881 4594 1212 4672 
Q 1544 4750 1819 4750 
Q 2544 4750 2975 4387 
Q 3406 4025 3406 3419 
Q 3406 3131 3298 2873 
Q 3191 2616 2906 2266 
Q 2828 2175 2409 1742 
Q 1991 1309 1228 531 
z
" transform="scale(0.015625)"/>
     </defs>
     <use xlink:href="#DejaVuSans-32"/>
     <use xlink:href="#DejaVuSans-6b" transform="translate(63.623047 0)"/>
    </g>
   </g>
   <g id="text_21">
    <!-- 2k -->
    <g style="fill: #059669" transform="translate(584.2944 190.4928) scale(0.09 -0.09)">
     <use xlink:href="#DejaVuSans-32"/>
     <use xlink:href="#DejaVuSans-6b" transform="translate(63.623047 0)"/>
    </g>
   </g>
   <g id="text_22">
    <!-- LAL (Lado-Ángulo-Lado) -->
    <g style="fill: #1f2937" transform="translate(423.916094 102.8128) scale(0.11 -0.11)">
     <defs>
      <path id="DejaVuSans-Bold-4c" d="M 588 4666 
L 1791 4666 
L 1791 909 
L 3903 909 
L 3903 0 
L 588 0 
L 588 4666 
z
" transform="scale(0.015625)"/>
      <path id="DejaVuSans-Bold-61" d="M 2106 1575 
Q 1756 1575 1579 1456 
Q 1403 1338 1403 1106 
Q 1403 894 1545 773 
Q 1688 653 1941 653 
Q 2256 653 2472 879 
Q 2688 1106 2688 1447 
L 2688 1575 
L 2106 1575 
z
M 3816 1997 
L 3816 0 
L 2688 0 
L 2688 519 
Q 2463 200 2181 54 
Q 1900 -91 1497 -91 
Q 953 -91 614 226 
Q 275 544 275 1050 
Q 275 1666 698 1953 
Q 1122 2241 2028 2241 
L 2688 2241 
L 2688 2328 
Q 2688 2594 2478 2717 
Q 2269 2841 1825 2841 
Q 1466 2841 1156 2769 
Q 847 2697 581 2553 
L 581 3406 
Q 941 3494 1303 3539 
Q 1666 3584 2028 3584 
Q 2975 3584 3395 3211 
Q 3816 2838 3816 1997 
z
" transform="scale(0.015625)"/>
      <path id="DejaVuSans-Bold-64" d="M 2919 2988 
L 2919 4863 
L 4044 4863 
L 4044 0 
L 2919 0 
L 2919 506 
Q 2688 197 2409 53 
Q 2131 -91 1766 -91 
Q 1119 -91 703 423 
Q 288 938 288 1747 
Q 288 2556 703 3070 
Q 1119 3584 1766 3584 
Q 2128 3584 2408 3439 
Q 2688 3294 2919 2988 
z
M 2181 722 
Q 2541 722 2730 984 
Q 2919 1247 2919 1747 
Q 2919 2247 2730 2509 
Q 2541 2772 2181 2772 
Q 1825 2772 1636 2509 
Q 1447 2247 1447 1747 
Q 1447 1247 1636 984 
Q 1825 722 2181 722 
z
" transform="scale(0.015625)"/>
     </defs>
     <use xlink:href="#DejaVuSans-Bold-4c"/>
     <use xlink:href="#DejaVuSans-Bold-41" transform="translate(63.720703 0)"/>
     <use xlink:href="#DejaVuSans-Bold-4c" transform="translate(141.113281 0)"/>
     <use xlink:href="#DejaVuSans-Bold-20" transform="translate(204.833984 0)"/>
     <use xlink:href="#DejaVuSans-Bold-28" transform="translate(239.648438 0)"/>
     <use xlink:href="#DejaVuSans-Bold-4c" transform="translate(285.351562 0)"/>
     <use xlink:href="#DejaVuSans-Bold-61" transform="translate(349.072266 0)"/>
     <use xlink:href="#DejaVuSans-Bold-64" transform="translate(416.552734 0)"/>
     <use xlink:href="#DejaVuSans-Bold-6f" transform="translate(488.134766 0)"/>
     <use xlink:href="#DejaVuSans-Bold-2d" transform="translate(556.835938 0)"/>
     <use xlink:href="#DejaVuSans-Bold-c1" transform="translate(598.339844 0)"/>
     <use xlink:href="#DejaVuSans-Bold-6e" transform="translate(675.732422 0)"/>
     <use xlink:href="#DejaVuSans-Bold-67" transform="translate(746.923828 0)"/>
     <use xlink:href="#DejaVuSans-Bold-75" transform="translate(818.505859 0)"/>
     <use xlink:href="#DejaVuSans-Bold-6c" transform="translate(889.697266 0)"/>
     <use xlink:href="#DejaVuSans-Bold-6f" transform="translate(923.974609 0)"/>
     <use xlink:href="#DejaVuSans-Bold-2d" transform="translate(992.675781 0)"/>
     <use xlink:href="#DejaVuSans-Bold-4c" transform="translate(1034.179688 0)"/>
     <use xlink:href="#DejaVuSans-Bold-61" transform="translate(1097.900391 0)"/>
     <use xlink:href="#DejaVuSans-Bold-64" transform="translate(1165.380859 0)"/>
     <use xlink:href="#DejaVuSans-Bold-6f" transform="translate(1236.962891 0)"/>
     <use xlink:href="#DejaVuSans-Bold-29" transform="translate(1305.664062 0)"/>
    </g>
   </g>
  </g>
  <g id="axes_3">
   <g id="patch_6">
    <path d="M 702.432 238.3008 
L 778.9248 238.3008 
L 727.9296 180.9312 
z
" clip-path="url(#p2598f398bd)" style="fill: #2563eb; opacity: 0.15; stroke: #2563eb; stroke-width: 2; stroke-linejoin: miter"/>
   </g>
   <g id="patch_7">
    <path d="M 829.92 238.3008 
L 957.408 238.3008 
L 874.5408 142.6848 
z
" clip-path="url(#p2598f398bd)" style="fill: #dc2626; opacity: 0.15; stroke: #dc2626; stroke-width: 2; stroke-linejoin: miter"/>
   </g>
   <g id="line2d_19">
    <g clip-path="url(#p2598f398bd)">
     <use xlink:href="#m20b7cff8d4" x="702.432" y="238.3008" style="fill: #2563eb; stroke: #2563eb"/>
    </g>
   </g>
   <g id="line2d_20">
    <g clip-path="url(#p2598f398bd)">
     <use xlink:href="#m20b7cff8d4" x="778.9248" y="238.3008" style="fill: #2563eb; stroke: #2563eb"/>
    </g>
   </g>
   <g id="line2d_21">
    <g clip-path="url(#p2598f398bd)">
     <use xlink:href="#m20b7cff8d4" x="727.9296" y="180.9312" style="fill: #2563eb; stroke: #2563eb"/>
    </g>
   </g>
   <g id="line2d_22">
    <g clip-path="url(#p2598f398bd)">
     <use xlink:href="#m22b428dbce" x="829.92" y="238.3008" style="fill: #dc2626; stroke: #dc2626"/>
    </g>
   </g>
   <g id="line2d_23">
    <g clip-path="url(#p2598f398bd)">
     <use xlink:href="#m22b428dbce" x="957.408" y="238.3008" style="fill: #dc2626; stroke: #dc2626"/>
    </g>
   </g>
   <g id="line2d_24">
    <g clip-path="url(#p2598f398bd)">
     <use xlink:href="#m22b428dbce" x="874.5408" y="142.6848" style="fill: #dc2626; stroke: #dc2626"/>
    </g>
   </g>
   <g id="text_23">
    <!-- A -->
    <g style="fill: #2563eb" transform="translate(692.8704 231.9264) scale(0.09 -0.09)">
     <use xlink:href="#DejaVuSans-41"/>
    </g>
   </g>
   <g id="text_24">
    <!-- B -->
    <g style="fill: #2563eb" transform="translate(769.3632 231.9264) scale(0.09 -0.09)">
     <use xlink:href="#DejaVuSans-42"/>
    </g>
   </g>
   <g id="text_25">
    <!-- C -->
    <g style="fill: #2563eb" transform="translate(718.368 174.5568) scale(0.09 -0.09)">
     <use xlink:href="#DejaVuSans-43"/>
    </g>
   </g>
   <g id="text_26">
    <!-- A' -->
    <g style="fill: #dc2626" transform="translate(836.2944 231.9264) scale(0.09 -0.09)">
     <use xlink:href="#DejaVuSans-41"/>
     <use xlink:href="#DejaVuSans-27" transform="translate(68.408203 0)"/>
    </g>
   </g>
   <g id="text_27">
    <!-- B' -->
    <g style="fill: #dc2626" transform="translate(963.7824 231.9264) scale(0.09 -0.09)">
     <use xlink:href="#DejaVuSans-42"/>
     <use xlink:href="#DejaVuSans-27" transform="translate(68.603516 0)"/>
    </g>
   </g>
   <g id="text_28">
    <!-- C' -->
    <g style="fill: #dc2626" transform="translate(880.9152 136.3104) scale(0.09 -0.09)">
     <use xlink:href="#DejaVuSans-43"/>
     <use xlink:href="#DejaVuSans-27" transform="translate(69.824219 0)"/>
    </g>
   </g>
   <g id="text_29">
    <!-- ~ -->
    <g style="fill: #7c3aed" transform="translate(807.115575 181.1793) scale(0.24 -0.24)">
     <use xlink:href="#DejaVuSans-Bold-7e"/>
    </g>
   </g>
   <g id="text_30">
    <!-- 3 lados proporcionales -->
    <g style="fill: #6b7280" transform="translate(766.114481 257.424) scale(0.09 -0.09)">
     <defs>
      <path id="DejaVuSans-Oblique-33" d="M 1013 4550 
Q 1356 4650 1679 4700 
Q 2003 4750 2316 4750 
Q 2934 4750 3296 4475 
Q 3659 4200 3659 3738 
Q 3659 3284 3373 2959 
Q 3088 2634 2584 2516 
Q 2978 2403 3162 2165 
Q 3347 1928 3347 1538 
Q 3347 1163 3167 834 
Q 2988 506 2650 269 
Q 2394 88 2037 -1 
Q 1681 -91 1216 -91 
Q 922 -91 622 -33 
Q 322 25 13 141 
L 128 738 
Q 422 575 720 495 
Q 1019 416 1331 416 
Q 1947 416 2330 733 
Q 2713 1050 2713 1556 
Q 2713 1881 2469 2057 
Q 2225 2234 1772 2234 
L 1228 2234 
L 1325 2747 
L 1900 2747 
Q 2419 2747 2717 2984 
Q 3016 3222 3016 3628 
Q 3016 3922 2797 4083 
Q 2578 4244 2181 4244 
Q 1881 4244 1567 4180 
Q 1253 4116 916 3988 
L 1013 4550 
z
" transform="scale(0.015625)"/>
     </defs>
     <use xlink:href="#DejaVuSans-Oblique-33"/>
     <use xlink:href="#DejaVuSans-Oblique-20" transform="translate(63.623047 0)"/>
     <use xlink:href="#DejaVuSans-Oblique-6c" transform="translate(95.410156 0)"/>
     <use xlink:href="#DejaVuSans-Oblique-61" transform="translate(123.193359 0)"/>
     <use xlink:href="#DejaVuSans-Oblique-64" transform="translate(184.472656 0)"/>
     <use xlink:href="#DejaVuSans-Oblique-6f" transform="translate(247.949219 0)"/>
     <use xlink:href="#DejaVuSans-Oblique-73" transform="translate(309.130859 0)"/>
     <use xlink:href="#DejaVuSans-Oblique-20" transform="translate(361.230469 0)"/>
     <use xlink:href="#DejaVuSans-Oblique-70" transform="translate(393.017578 0)"/>
     <use xlink:href="#DejaVuSans-Oblique-72" transform="translate(456.494141 0)"/>
     <use xlink:href="#DejaVuSans-Oblique-6f" transform="translate(497.607422 0)"/>
     <use xlink:href="#DejaVuSans-Oblique-70" transform="translate(558.789062 0)"/>
     <use xlink:href="#DejaVuSans-Oblique-6f" transform="translate(622.265625 0)"/>
     <use xlink:href="#DejaVuSans-Oblique-72" transform="translate(683.447266 0)"/>
     <use xlink:href="#DejaVuSans-Oblique-63" transform="translate(724.560547 0)"/>
     <use xlink:href="#DejaVuSans-Oblique-69" transform="translate(779.541016 0)"/>
     <use xlink:href="#DejaVuSans-Oblique-6f" transform="translate(807.324219 0)"/>
     <use xlink:href="#DejaVuSans-Oblique-6e" transform="translate(868.505859 0)"/>
     <use xlink:href="#DejaVuSans-Oblique-61" transform="translate(931.884766 0)"/>
     <use xlink:href="#DejaVuSans-Oblique-6c" transform="translate(993.164062 0)"/>
     <use xlink:href="#DejaVuSans-Oblique-65" transform="translate(1020.947266 0)"/>
     <use xlink:href="#DejaVuSans-Oblique-73" transform="translate(1082.470703 0)"/>
    </g>
   </g>
   <g id="text_31">
    <!-- 1 -->
    <g style="fill: #2563eb" transform="translate(737.895275 235.1136) scale(0.08 -0.08)">
     <defs>
      <path id="DejaVuSans-Bold-31" d="M 750 831 
L 1813 831 
L 1813 3847 
L 722 3622 
L 722 4441 
L 1806 4666 
L 2950 4666 
L 2950 831 
L 4013 831 
L 4013 0 
L 750 0 
L 750 831 
z
" transform="scale(0.015625)"/>
     </defs>
     <use xlink:href="#DejaVuSans-Bold-31"/>
    </g>
   </g>
   <g id="text_32">
    <!-- 2 -->
    <g style="fill: #2563eb" transform="translate(750.644075 206.4288) scale(0.08 -0.08)">
     <defs>
      <path id="DejaVuSans-Bold-32" d="M 1844 884 
L 3897 884 
L 3897 0 
L 506 0 
L 506 884 
L 2209 2388 
Q 2438 2594 2547 2791 
Q 2656 2988 2656 3200 
Q 2656 3528 2436 3728 
Q 2216 3928 1850 3928 
Q 1569 3928 1234 3808 
Q 900 3688 519 3450 
L 519 4475 
Q 925 4609 1322 4679 
Q 1719 4750 2100 4750 
Q 2938 4750 3402 4381 
Q 3866 4013 3866 3353 
Q 3866 2972 3669 2642 
Q 3472 2313 2841 1759 
L 1844 884 
z
" transform="scale(0.015625)"/>
     </defs>
     <use xlink:href="#DejaVuSans-Bold-32"/>
    </g>
   </g>
   <g id="text_33">
    <!-- 3 -->
    <g style="fill: #2563eb" transform="translate(712.397675 206.4288) scale(0.08 -0.08)">
     <defs>
      <path id="DejaVuSans-Bold-33" d="M 2981 2516 
Q 3453 2394 3698 2092 
Q 3944 1791 3944 1325 
Q 3944 631 3412 270 
Q 2881 -91 1863 -91 
Q 1503 -91 1142 -33 
Q 781 25 428 141 
L 428 1069 
Q 766 900 1098 814 
Q 1431 728 1753 728 
Q 2231 728 2486 893 
Q 2741 1059 2741 1369 
Q 2741 1688 2480 1852 
Q 2219 2016 1709 2016 
L 1228 2016 
L 1228 2791 
L 1734 2791 
Q 2188 2791 2409 2933 
Q 2631 3075 2631 3366 
Q 2631 3634 2415 3781 
Q 2200 3928 1806 3928 
Q 1516 3928 1219 3862 
Q 922 3797 628 3669 
L 628 4550 
Q 984 4650 1334 4700 
Q 1684 4750 2022 4750 
Q 2931 4750 3382 4451 
Q 3834 4153 3834 3553 
Q 3834 3144 3618 2883 
Q 3403 2622 2981 2516 
z
" transform="scale(0.015625)"/>
     </defs>
     <use xlink:href="#DejaVuSans-Bold-33"/>
    </g>
   </g>
   <g id="text_34">
    <!-- 2 -->
    <g style="fill: #dc2626" transform="translate(890.880875 235.1136) scale(0.08 -0.08)">
     <use xlink:href="#DejaVuSans-Bold-32"/>
    </g>
   </g>
   <g id="text_35">
    <!-- 4 -->
    <g style="fill: #dc2626" transform="translate(913.191275 187.3056) scale(0.08 -0.08)">
     <defs>
      <path id="DejaVuSans-Bold-34" d="M 2356 3675 
L 1038 1722 
L 2356 1722 
L 2356 3675 
z
M 2156 4666 
L 3494 4666 
L 3494 1722 
L 4159 1722 
L 4159 850 
L 3494 850 
L 3494 0 
L 2356 0 
L 2356 850 
L 288 850 
L 288 1881 
L 2156 4666 
z
" transform="scale(0.015625)"/>
     </defs>
     <use xlink:href="#DejaVuSans-Bold-34"/>
    </g>
   </g>
   <g id="text_36">
    <!-- 6 -->
    <g style="fill: #dc2626" transform="translate(849.447275 187.3056) scale(0.08 -0.08)">
     <defs>
      <path id="DejaVuSans-Bold-36" d="M 2316 2303 
Q 2000 2303 1842 2098 
Q 1684 1894 1684 1484 
Q 1684 1075 1842 870 
Q 2000 666 2316 666 
Q 2634 666 2792 870 
Q 2950 1075 2950 1484 
Q 2950 1894 2792 2098 
Q 2634 2303 2316 2303 
z
M 3803 4544 
L 3803 3681 
Q 3506 3822 3243 3889 
Q 2981 3956 2731 3956 
Q 2194 3956 1894 3657 
Q 1594 3359 1544 2772 
Q 1750 2925 1990 3001 
Q 2231 3078 2516 3078 
Q 3231 3078 3670 2659 
Q 4109 2241 4109 1563 
Q 4109 813 3618 361 
Q 3128 -91 2303 -91 
Q 1394 -91 895 523 
Q 397 1138 397 2266 
Q 397 3422 980 4083 
Q 1563 4744 2578 4744 
Q 2900 4744 3203 4694 
Q 3506 4644 3803 4544 
z
" transform="scale(0.015625)"/>
     </defs>
     <use xlink:href="#DejaVuSans-Bold-36"/>
    </g>
   </g>
   <g id="text_37">
    <!-- LLL (Lado-Lado-Lado) -->
    <g style="fill: #1f2937" transform="translate(763.104453 102.8128) scale(0.11 -0.11)">
     <use xlink:href="#DejaVuSans-Bold-4c"/>
     <use xlink:href="#DejaVuSans-Bold-4c" transform="translate(63.720703 0)"/>
     <use xlink:href="#DejaVuSans-Bold-4c" transform="translate(127.441406 0)"/>
     <use xlink:href="#DejaVuSans-Bold-20" transform="translate(191.162109 0)"/>
     <use xlink:href="#DejaVuSans-Bold-28" transform="translate(225.976562 0)"/>
     <use xlink:href="#DejaVuSans-Bold-4c" transform="translate(271.679688 0)"/>
     <use xlink:href="#DejaVuSans-Bold-61" transform="translate(335.400391 0)"/>
     <use xlink:href="#DejaVuSans-Bold-64" transform="translate(402.880859 0)"/>
     <use xlink:href="#DejaVuSans-Bold-6f" transform="translate(474.462891 0)"/>
     <use xlink:href="#DejaVuSans-Bold-2d" transform="translate(543.164062 0)"/>
     <use xlink:href="#DejaVuSans-Bold-4c" transform="translate(584.667969 0)"/>
     <use xlink:href="#DejaVuSans-Bold-61" transform="translate(648.388672 0)"/>
     <use xlink:href="#DejaVuSans-Bold-64" transform="translate(715.869141 0)"/>
     <use xlink:href="#DejaVuSans-Bold-6f" transform="translate(787.451172 0)"/>
     <use xlink:href="#DejaVuSans-Bold-2d" transform="translate(856.152344 0)"/>
     <use xlink:href="#DejaVuSans-Bold-4c" transform="translate(897.65625 0)"/>
     <use xlink:href="#DejaVuSans-Bold-61" transform="translate(961.376953 0)"/>
     <use xlink:href="#DejaVuSans-Bold-64" transform="translate(1028.857422 0)"/>
     <use xlink:href="#DejaVuSans-Bold-6f" transform="translate(1100.439453 0)"/>
     <use xlink:href="#DejaVuSans-Bold-29" transform="translate(1169.140625 0)"/>
    </g>
   </g>
  </g>
  <g id="text_38">
   <!-- Criterios de Semejanza de Triángulos -->
   <g style="fill: #1f2937" transform="translate(351.3975 18.397812) scale(0.14 -0.14)">
    <defs>
     <path id="DejaVuSans-Bold-43" d="M 4288 256 
Q 3956 84 3597 -3 
Q 3238 -91 2847 -91 
Q 1681 -91 1000 561 
Q 319 1213 319 2328 
Q 319 3447 1000 4098 
Q 1681 4750 2847 4750 
Q 3238 4750 3597 4662 
Q 3956 4575 4288 4403 
L 4288 3438 
Q 3953 3666 3628 3772 
Q 3303 3878 2944 3878 
Q 2300 3878 1931 3465 
Q 1563 3053 1563 2328 
Q 1563 1606 1931 1193 
Q 2300 781 2944 781 
Q 3303 781 3628 887 
Q 3953 994 4288 1222 
L 4288 256 
z
" transform="scale(0.015625)"/>
     <path id="DejaVuSans-Bold-72" d="M 3138 2547 
Q 2991 2616 2845 2648 
Q 2700 2681 2553 2681 
Q 2122 2681 1889 2404 
Q 1656 2128 1656 1613 
L 1656 0 
L 538 0 
L 538 3500 
L 1656 3500 
L 1656 2925 
Q 1872 3269 2151 3426 
Q 2431 3584 2822 3584 
Q 2878 3584 2943 3579 
Q 3009 3575 3134 3559 
L 3138 2547 
z
" transform="scale(0.015625)"/>
     <path id="DejaVuSans-Bold-69" d="M 538 3500 
L 1656 3500 
L 1656 0 
L 538 0 
L 538 3500 
z
M 538 4863 
L 1656 4863 
L 1656 3950 
L 538 3950 
L 538 4863 
z
" transform="scale(0.015625)"/>
     <path id="DejaVuSans-Bold-74" d="M 1759 4494 
L 1759 3500 
L 2913 3500 
L 2913 2700 
L 1759 2700 
L 1759 1216 
Q 1759 972 1856 886 
Q 1953 800 2241 800 
L 2816 800 
L 2816 0 
L 1856 0 
Q 1194 0 917 276 
Q 641 553 641 1216 
L 641 2700 
L 84 2700 
L 84 3500 
L 641 3500 
L 641 4494 
L 1759 4494 
z
" transform="scale(0.015625)"/>
     <path id="DejaVuSans-Bold-65" d="M 4031 1759 
L 4031 1441 
L 1416 1441 
Q 1456 1047 1700 850 
Q 1944 653 2381 653 
Q 2734 653 3104 758 
Q 3475 863 3866 1075 
L 3866 213 
Q 3469 63 3072 -14 
Q 2675 -91 2278 -91 
Q 1328 -91 801 392 
Q 275 875 275 1747 
Q 275 2603 792 3093 
Q 1309 3584 2216 3584 
Q 3041 3584 3536 3087 
Q 4031 2591 4031 1759 
z
M 2881 2131 
Q 2881 2450 2695 2645 
Q 2509 2841 2209 2841 
Q 1884 2841 1681 2658 
Q 1478 2475 1428 2131 
L 2881 2131 
z
" transform="scale(0.015625)"/>
     <path id="DejaVuSans-Bold-73" d="M 3272 3391 
L 3272 2541 
Q 2913 2691 2578 2766 
Q 2244 2841 1947 2841 
Q 1628 2841 1473 2761 
Q 1319 2681 1319 2516 
Q 1319 2381 1436 2309 
Q 1553 2238 1856 2203 
L 2053 2175 
Q 2913 2066 3209 1816 
Q 3506 1566 3506 1031 
Q 3506 472 3093 190 
Q 2681 -91 1863 -91 
Q 1516 -91 1145 -36 
Q 775 19 384 128 
L 384 978 
Q 719 816 1070 734 
Q 1422 653 1784 653 
Q 2113 653 2278 743 
Q 2444 834 2444 1013 
Q 2444 1163 2330 1236 
Q 2216 1309 1875 1350 
L 1678 1375 
Q 931 1469 631 1722 
Q 331 1975 331 2491 
Q 331 3047 712 3315 
Q 1094 3584 1881 3584 
Q 2191 3584 2531 3537 
Q 2872 3491 3272 3391 
z
" transform="scale(0.015625)"/>
     <path id="DejaVuSans-Bold-53" d="M 3834 4519 
L 3834 3531 
Q 3450 3703 3084 3790 
Q 2719 3878 2394 3878 
Q 1963 3878 1756 3759 
Q 1550 3641 1550 3391 
Q 1550 3203 1689 3098 
Q 1828 2994 2194 2919 
L 2706 2816 
Q 3484 2659 3812 2340 
Q 4141 2022 4141 1434 
Q 4141 663 3683 286 
Q 3225 -91 2284 -91 
Q 1841 -91 1394 -6 
Q 947 78 500 244 
L 500 1259 
Q 947 1022 1364 901 
Q 1781 781 2169 781 
Q 2563 781 2772 912 
Q 2981 1044 2981 1288 
Q 2981 1506 2839 1625 
Q 2697 1744 2272 1838 
L 1806 1941 
Q 1106 2091 782 2419 
Q 459 2747 459 3303 
Q 459 4000 909 4375 
Q 1359 4750 2203 4750 
Q 2588 4750 2994 4692 
Q 3400 4634 3834 4519 
z
" transform="scale(0.015625)"/>
     <path id="DejaVuSans-Bold-6d" d="M 3781 2919 
Q 3994 3244 4286 3414 
Q 4578 3584 4928 3584 
Q 5531 3584 5847 3212 
Q 6163 2841 6163 2131 
L 6163 0 
L 5038 0 
L 5038 1825 
Q 5041 1866 5042 1909 
Q 5044 1953 5044 2034 
Q 5044 2406 4934 2573 
Q 4825 2741 4581 2741 
Q 4263 2741 4089 2478 
Q 3916 2216 3909 1719 
L 3909 0 
L 2784 0 
L 2784 1825 
Q 2784 2406 2684 2573 
Q 2584 2741 2328 2741 
Q 2006 2741 1831 2477 
Q 1656 2213 1656 1722 
L 1656 0 
L 531 0 
L 531 3500 
L 1656 3500 
L 1656 2988 
Q 1863 3284 2130 3434 
Q 2397 3584 2719 3584 
Q 3081 3584 3359 3409 
Q 3638 3234 3781 2919 
z
" transform="scale(0.015625)"/>
     <path id="DejaVuSans-Bold-6a" d="M 538 3500 
L 1656 3500 
L 1656 63 
Q 1656 -641 1318 -1011 
Q 981 -1381 341 -1381 
L -213 -1381 
L -213 -647 
L -19 -647 
Q 300 -647 419 -503 
Q 538 -359 538 63 
L 538 3500 
z
M 538 4863 
L 1656 4863 
L 1656 3950 
L 538 3950 
L 538 4863 
z
" transform="scale(0.015625)"/>
     <path id="DejaVuSans-Bold-7a" d="M 366 3500 
L 3419 3500 
L 3419 2719 
L 1575 800 
L 3419 800 
L 3419 0 
L 288 0 
L 288 781 
L 2131 2700 
L 366 2700 
L 366 3500 
z
" transform="scale(0.015625)"/>
     <path id="DejaVuSans-Bold-54" d="M 31 4666 
L 4331 4666 
L 4331 3756 
L 2784 3756 
L 2784 0 
L 1581 0 
L 1581 3756 
L 31 3756 
L 31 4666 
z
" transform="scale(0.015625)"/>
     <path id="DejaVuSans-Bold-e1" d="M 2106 1575 
Q 1756 1575 1579 1456 
Q 1403 1338 1403 1106 
Q 1403 894 1545 773 
Q 1688 653 1941 653 
Q 2256 653 2472 879 
Q 2688 1106 2688 1447 
L 2688 1575 
L 2106 1575 
z
M 3816 1997 
L 3816 0 
L 2688 0 
L 2688 519 
Q 2463 200 2181 54 
Q 1900 -91 1497 -91 
Q 953 -91 614 226 
Q 275 544 275 1050 
Q 275 1666 698 1953 
Q 1122 2241 2028 2241 
L 2688 2241 
L 2688 2328 
Q 2688 2594 2478 2717 
Q 2269 2841 1825 2841 
Q 1466 2841 1156 2769 
Q 847 2697 581 2553 
L 581 3406 
Q 941 3494 1303 3539 
Q 1666 3584 2028 3584 
Q 2975 3584 3395 3211 
Q 3816 2838 3816 1997 
z
M 2606 5119 
L 3490 5119 
L 2337 3944 
L 1725 3944 
L 2606 5119 
z
" transform="scale(0.015625)"/>
    </defs>
    <use xlink:href="#DejaVuSans-Bold-43"/>
    <use xlink:href="#DejaVuSans-Bold-72" transform="translate(73.388672 0)"/>
    <use xlink:href="#DejaVuSans-Bold-69" transform="translate(122.705078 0)"/>
    <use xlink:href="#DejaVuSans-Bold-74" transform="translate(156.982422 0)"/>
    <use xlink:href="#DejaVuSans-Bold-65" transform="translate(204.785156 0)"/>
    <use xlink:href="#DejaVuSans-Bold-72" transform="translate(272.607422 0)"/>
    <use xlink:href="#DejaVuSans-Bold-69" transform="translate(321.923828 0)"/>
    <use xlink:href="#DejaVuSans-Bold-6f" transform="translate(356.201172 0)"/>
    <use xlink:href="#DejaVuSans-Bold-73" transform="translate(424.902344 0)"/>
    <use xlink:href="#DejaVuSans-Bold-20" transform="translate(484.423828 0)"/>
    <use xlink:href="#DejaVuSans-Bold-64" transform="translate(519.238281 0)"/>
    <use xlink:href="#DejaVuSans-Bold-65" transform="translate(590.820312 0)"/>
    <use xlink:href="#DejaVuSans-Bold-20" transform="translate(658.642578 0)"/>
    <use xlink:href="#DejaVuSans-Bold-53" transform="translate(693.457031 0)"/>
    <use xlink:href="#DejaVuSans-Bold-65" transform="translate(765.478516 0)"/>
    <use xlink:href="#DejaVuSans-Bold-6d" transform="translate(833.300781 0)"/>
    <use xlink:href="#DejaVuSans-Bold-65" transform="translate(937.5 0)"/>
    <use xlink:href="#DejaVuSans-Bold-6a" transform="translate(1005.322266 0)"/>
    <use xlink:href="#DejaVuSans-Bold-61" transform="translate(1039.599609 0)"/>
    <use xlink:href="#DejaVuSans-Bold-6e" transform="translate(1107.080078 0)"/>
    <use xlink:href="#DejaVuSans-Bold-7a" transform="translate(1178.271484 0)"/>
    <use xlink:href="#DejaVuSans-Bold-61" transform="translate(1236.474609 0)"/>
    <use xlink:href="#DejaVuSans-Bold-20" transform="translate(1303.955078 0)"/>
    <use xlink:href="#DejaVuSans-Bold-64" transform="translate(1338.769531 0)"/>
    <use xlink:href="#DejaVuSans-Bold-65" transform="translate(1410.351562 0)"/>
    <use xlink:href="#DejaVuSans-Bold-20" transform="translate(1478.173828 0)"/>
    <use xlink:href="#DejaVuSans-Bold-54" transform="translate(1512.988281 0)"/>
    <use xlink:href="#DejaVuSans-Bold-72" transform="translate(1570.201172 0)"/>
    <use xlink:href="#DejaVuSans-Bold-69" transform="translate(1619.517578 0)"/>
    <use xlink:href="#DejaVuSans-Bold-e1" transform="translate(1653.794922 0)"/>
    <use xlink:href="#DejaVuSans-Bold-6e" transform="translate(1721.275391 0)"/>
    <use xlink:href="#DejaVuSans-Bold-67" transform="translate(1792.466797 0)"/>
    <use xlink:href="#DejaVuSans-Bold-75" transform="translate(1864.048828 0)"/>
    <use xlink:href="#DejaVuSans-Bold-6c" transform="translate(1935.240234 0)"/>
    <use xlink:href="#DejaVuSans-Bold-6f" transform="translate(1969.517578 0)"/>
    <use xlink:href="#DejaVuSans-Bold-73" transform="translate(2038.21875 0)"/>
   </g>
  </g>
 </g>
 <defs>
  <clipPath id="p1b617be193">
   <rect x="7.2" y="110.8128" width="318.72" height="165.7344"/>
  </clipPath>
  <clipPath id="p491926239c">
   <rect x="338.88" y="110.8128" width="318.72" height="165.7344"/>
  </clipPath>
  <clipPath id="p2598f398bd">
   <rect x="670.56" y="110.8128" width="318.72" height="165.7344"/>
  </clipPath>
 </defs>
</svg>
