<?xml version="1.0" encoding="utf-8" standalone="no"?>
<!DOCTYPE svg PUBLIC "-//W3C//DTD SVG 1.1//EN"
  "http://www.w3.org/Graphics/SVG/1.1/DTD/svg11.dtd">
<svg xmlns:xlink="http://www.w3.org/1999/xlink" width="944.39952pt" height="512.39952pt" viewBox="0 0 944.39952 512.39952" xmlns="http://www.w3.org/2000/svg" version="1.1">
 <metadata>
  <rdf:RDF xmlns:dc="http://purl.org/dc/elements/1.1/" xmlns:cc="http://creativecommons.org/ns#" xmlns:rdf="http://www.w3.org/1999/02/22-rdf-syntax-ns#">
   <cc:Work>
    <dc:type rdf:resource="http://purl.org/dc/dcmitype/StillImage"/>
    <dc:date>2026-01-03T21:56:57.439766</dc:date>
    <dc:format>image/svg+xml</dc:format>
    <dc:creator>
     <cc:Agent>
      <dc:title>Repositorio Matemáticas Universitarias</dc:title>
     </cc:Agent>
    </dc:creator>
   </cc:Work>
  </rdf:RDF>
 </metadata>
 <defs>
  <style type="text/css">*{stroke-linejoin: round; stroke-linecap: butt}</style>
 </defs>
 <g id="figure_1">
  <g id="patch_1">
   <path d="M 0 512.39952 
L 944.39952 512.39952 
L 944.39952 0 
L 0 0 
z
" style="fill: #ffffff"/>
  </g>
  <g id="axes_1">
   <g id="patch_2">
    <path d="M 27.007987 229.347021 
L 96.335942 229.347021 
L 51.767971 174.875056 
z
" clip-path="url(#pe514962988)" style="fill: #2563eb; opacity: 0.15; stroke: #2563eb; stroke-width: 2.5; stroke-linejoin: miter"/>
   </g>
   <g id="patch_3">
    <path d="M 135.951917 229.347021 
L 234.991853 229.347021 
L 170.615894 150.115072 
z
" clip-path="url(#pe514962988)" style="fill: #dc2626; opacity: 0.15; stroke: #dc2626; stroke-width: 2.5; stroke-linejoin: miter"/>
   </g>
   <g id="line2d_1">
    <defs>
     <path id="mef6e239920" d="M 0 3 
C 0.795609 3 1.55874 2.683901 2.12132 2.12132 
C 2.683901 1.55874 3 0.795609 3 0 
C 3 -0.795609 2.683901 -1.55874 2.12132 -2.12132 
C 1.55874 -2.683901 0.795609 -3 0 -3 
C -0.795609 -3 -1.55874 -2.683901 -2.12132 -2.12132 
C -2.683901 -1.55874 -3 -0.795609 -3 0 
C -3 0.795609 -2.683901 1.55874 -2.12132 2.12132 
C -1.55874 2.683901 -0.795609 3 0 3 
z
" style="stroke: #2563eb"/>
    </defs>
    <g clip-path="url(#pe514962988)">
     <use xlink:href="#mef6e239920" x="27.007987" y="229.347021" style="fill: #2563eb; stroke: #2563eb"/>
    </g>
   </g>
   <g id="line2d_2">
    <g clip-path="url(#pe514962988)">
     <use xlink:href="#mef6e239920" x="96.335942" y="229.347021" style="fill: #2563eb; stroke: #2563eb"/>
    </g>
   </g>
   <g id="line2d_3">
    <g clip-path="url(#pe514962988)">
     <use xlink:href="#mef6e239920" x="51.767971" y="174.875056" style="fill: #2563eb; stroke: #2563eb"/>
    </g>
   </g>
   <g id="line2d_4">
    <defs>
     <path id="m943862f04b" d="M 0 3 
C 0.795609 3 1.55874 2.683901 2.12132 2.12132 
C 2.683901 1.55874 3 0.795609 3 0 
C 3 -0.795609 2.683901 -1.55874 2.12132 -2.12132 
C 1.55874 -2.683901 0.795609 -3 0 -3 
C -0.795609 -3 -1.55874 -2.683901 -2.12132 -2.12132 
C -2.683901 -1.55874 -3 -0.795609 -3 0 
C -3 0.795609 -2.683901 1.55874 -2.12132 2.12132 
C -1.55874 2.683901 -0.795609 3 0 3 
z
" style="stroke: #dc2626"/>
    </defs>
    <g clip-path="url(#pe514962988)">
     <use xlink:href="#m943862f04b" x="135.951917" y="229.347021" style="fill: #dc2626; stroke: #dc2626"/>
    </g>
   </g>
   <g id="line2d_5">
    <g clip-path="url(#pe514962988)">
     <use xlink:href="#m943862f04b" x="234.991853" y="229.347021" style="fill: #dc2626; stroke: #dc2626"/>
    </g>
   </g>
   <g id="line2d_6">
    <g clip-path="url(#pe514962988)">
     <use xlink:href="#m943862f04b" x="170.615894" y="150.115072" style="fill: #dc2626; stroke: #dc2626"/>
    </g>
   </g>
   <g id="line2d_7">
    <path d="M 30.696459 221.232383 
L 28.394221 220.541879 
L 25.991189 220.491611 
L 23.662089 221.085233 
L 21.576275 222.279583 
L 19.88541 223.987818 
L 18.712438 226.085729 
L 18.142649 228.420773 
L 18.217472 230.823166 
L 18.931468 233.118227 
L 20.23272 235.139077 
L 22.026613 236.738777 
L 24.182709 237.801012 
L 26.544235 238.248543 
L 28.939482 238.04883 
L 31.194287 237.216395 
L 33.144699 235.811766 
L 34.648901 233.937074 
L 35.597521 231.728633 
L 35.921581 229.347021 
" clip-path="url(#pe514962988)" style="fill: none; stroke: #059669; stroke-width: 2; stroke-linecap: square"/>
   </g>
   <g id="line2d_8">
    <path d="M 140.914051 218.005 
L 137.712358 217.092836 
L 134.383364 217.066799 
L 131.167795 217.928773 
L 128.298177 219.616426 
L 125.982018 222.007721 
L 124.386805 224.929737 
L 123.627892 228.171177 
L 123.760156 231.497644 
L 124.774035 234.668596 
L 126.596211 237.454732 
L 129.09492 239.654581 
L 132.089474 241.109067 
L 135.363329 241.713013 
L 138.679747 241.422746 
L 141.798909 240.259256 
L 144.495262 238.306678 
L 146.573826 235.706206 
L 147.884296 232.645888 
L 148.331909 229.347021 
" clip-path="url(#pe514962988)" style="fill: none; stroke: #059669; stroke-width: 2; stroke-linecap: square"/>
   </g>
   <g id="line2d_9">
    <path d="M 87.422348 229.347021 
L 87.779685 231.845543 
L 88.823043 234.143739 
L 90.46877 236.057345 
L 92.584913 237.432931 
L 95.001807 238.160206 
L 97.525668 238.18086 
L 99.95414 237.493235 
L 102.092512 236.152465 
L 103.769335 234.266048 
L 104.850165 231.985235 
L 105.248343 229.492895 
L 104.931944 226.98886 
L 103.926336 224.673897 
L 102.312147 222.733614 
L 100.218798 221.323581 
L 97.814131 220.556849 
L 95.290946 220.494894 
L 92.851546 221.142684 
L 90.691518 222.448279 
" clip-path="url(#pe514962988)" style="fill: none; stroke: #059669; stroke-width: 2; stroke-linecap: square"/>
   </g>
   <g id="line2d_10">
    <path d="M 222.611861 229.347021 
L 223.107538 232.815056 
L 224.554878 236.00538 
L 226.837981 238.662522 
L 229.774022 240.573705 
L 233.127893 241.585887 
L 236.631025 241.618016 
L 240.002896 240.667517 
L 242.973497 238.810506 
L 245.304951 236.195685 
L 246.810561 233.032443 
L 247.369762 229.574083 
L 246.937776 226.09754 
L 245.549194 222.881206 
L 243.31521 220.182637 
L 240.414715 218.217925 
L 237.079972 217.1444 
L 233.578019 217.048026 
L 230.189282 217.93652 
L 227.185121 219.738736 
" clip-path="url(#pe514962988)" style="fill: none; stroke: #059669; stroke-width: 2; stroke-linecap: square"/>
   </g>
   <g id="text_1">
    <!-- ~ -->
    <g style="fill: #7c3aed" transform="translate(95.346342 201.857418) scale(0.26 -0.26)">
     <defs>
      <path id="DejaVuSans-Bold-7e" d="M 4684 2656 
L 4684 1894 
Q 4353 1644 4073 1536 
Q 3794 1428 3494 1428 
Q 3159 1428 2713 1609 
Q 2669 1628 2644 1638 
Q 2622 1647 2575 1666 
Q 2091 1856 1797 1856 
Q 1522 1856 1253 1736 
Q 984 1616 678 1356 
L 678 2119 
Q 1013 2369 1291 2476 
Q 1569 2584 1869 2584 
Q 2203 2584 2650 2403 
Q 2697 2384 2719 2375 
Q 2741 2366 2788 2347 
Q 3272 2156 3566 2156 
Q 3834 2156 4098 2273 
Q 4363 2391 4684 2656 
z
" transform="scale(0.015625)"/>
     </defs>
     <use xlink:href="#DejaVuSans-Bold-7e"/>
    </g>
   </g>
   <g id="text_2">
    <!-- AA -->
    <g style="fill: #2563eb" transform="translate(120.939139 124.307085) scale(0.13 -0.13)">
     <defs>
      <path id="DejaVuSans-Bold-41" d="M 3419 850 
L 1538 850 
L 1241 0 
L 31 0 
L 1759 4666 
L 3194 4666 
L 4922 0 
L 3713 0 
L 3419 850 
z
M 1838 1716 
L 3116 1716 
L 2478 3572 
L 1838 1716 
z
" transform="scale(0.015625)"/>
     </defs>
     <use xlink:href="#DejaVuSans-Bold-41"/>
     <use xlink:href="#DejaVuSans-Bold-41" transform="translate(77.392578 0)"/>
    </g>
   </g>
  </g>
  <g id="axes_2">
   <g id="patch_4">
    <path d="M 368.207827 229.347021 
L 437.535782 229.347021 
L 392.967811 174.875056 
z
" clip-path="url(#p7ea5d9ee64)" style="fill: #2563eb; opacity: 0.15; stroke: #2563eb; stroke-width: 2.5; stroke-linejoin: miter"/>
   </g>
   <g id="patch_5">
    <path d="M 477.151757 229.347021 
L 576.191693 229.347021 
L 511.815734 150.115072 
z
" clip-path="url(#p7ea5d9ee64)" style="fill: #dc2626; opacity: 0.15; stroke: #dc2626; stroke-width: 2.5; stroke-linejoin: miter"/>
   </g>
   <g id="line2d_11">
    <g clip-path="url(#p7ea5d9ee64)">
     <use xlink:href="#mef6e239920" x="368.207827" y="229.347021" style="fill: #2563eb; stroke: #2563eb"/>
    </g>
   </g>
   <g id="line2d_12">
    <g clip-path="url(#p7ea5d9ee64)">
     <use xlink:href="#mef6e239920" x="437.535782" y="229.347021" style="fill: #2563eb; stroke: #2563eb"/>
    </g>
   </g>
   <g id="line2d_13">
    <g clip-path="url(#p7ea5d9ee64)">
     <use xlink:href="#mef6e239920" x="392.967811" y="174.875056" style="fill: #2563eb; stroke: #2563eb"/>
    </g>
   </g>
   <g id="line2d_14">
    <g clip-path="url(#p7ea5d9ee64)">
     <use xlink:href="#m943862f04b" x="477.151757" y="229.347021" style="fill: #dc2626; stroke: #dc2626"/>
    </g>
   </g>
   <g id="line2d_15">
    <g clip-path="url(#p7ea5d9ee64)">
     <use xlink:href="#m943862f04b" x="576.191693" y="229.347021" style="fill: #dc2626; stroke: #dc2626"/>
    </g>
   </g>
   <g id="line2d_16">
    <g clip-path="url(#p7ea5d9ee64)">
     <use xlink:href="#m943862f04b" x="511.815734" y="150.115072" style="fill: #dc2626; stroke: #dc2626"/>
    </g>
   </g>
   <g id="line2d_17">
    <path d="M 371.896299 221.232383 
L 369.594061 220.541879 
L 367.191029 220.491611 
L 364.861929 221.085233 
L 362.776115 222.279583 
L 361.08525 223.987818 
L 359.912278 226.085729 
L 359.342489 228.420773 
L 359.417312 230.823166 
L 360.131308 233.118227 
L 361.43256 235.139077 
L 363.226453 236.738777 
L 365.382549 237.801012 
L 367.744075 238.248543 
L 370.139322 238.04883 
L 372.394127 237.216395 
L 374.344539 235.811766 
L 375.848741 233.937074 
L 376.797361 231.728633 
L 377.121421 229.347021 
" clip-path="url(#p7ea5d9ee64)" style="fill: none; stroke: #059669; stroke-width: 2; stroke-linecap: square"/>
   </g>
   <g id="line2d_18">
    <path d="M 482.113891 218.005 
L 478.912198 217.092836 
L 475.583204 217.066799 
L 472.367635 217.928773 
L 469.498017 219.616426 
L 467.181858 222.007721 
L 465.586645 224.929737 
L 464.827732 228.171177 
L 464.959996 231.497644 
L 465.973875 234.668596 
L 467.796051 237.454732 
L 470.29476 239.654581 
L 473.289314 241.109067 
L 476.563169 241.713013 
L 479.879587 241.422746 
L 482.998749 240.259256 
L 485.695102 238.306678 
L 487.773666 235.706206 
L 489.084136 232.645888 
L 489.531749 229.347021 
" clip-path="url(#p7ea5d9ee64)" style="fill: none; stroke: #059669; stroke-width: 2; stroke-linecap: square"/>
   </g>
   <g id="line2d_19">
    <path d="M 380.587819 204.587037 
L 380.587819 199.63504 
" clip-path="url(#p7ea5d9ee64)" style="fill: none; stroke: #059669; stroke-width: 2; stroke-linecap: square"/>
   </g>
   <g id="line2d_20">
    <path d="M 415.251797 204.587037 
L 415.251797 199.63504 
" clip-path="url(#p7ea5d9ee64)" style="fill: none; stroke: #059669; stroke-width: 2; stroke-linecap: square"/>
   </g>
   <g id="line2d_21">
    <path d="M 494.483746 194.683043 
L 494.483746 187.255048 
" clip-path="url(#p7ea5d9ee64)" style="fill: none; stroke: #059669; stroke-width: 2; stroke-linecap: square"/>
   </g>
   <g id="line2d_22">
    <path d="M 494.978945 193.692644 
L 494.978945 186.264648 
" clip-path="url(#p7ea5d9ee64)" style="fill: none; stroke: #059669; stroke-width: 2; stroke-linecap: square"/>
   </g>
   <g id="line2d_23">
    <path d="M 544.003714 194.683043 
L 544.003714 187.255048 
" clip-path="url(#p7ea5d9ee64)" style="fill: none; stroke: #059669; stroke-width: 2; stroke-linecap: square"/>
   </g>
   <g id="line2d_24">
    <path d="M 544.498913 193.692644 
L 544.498913 186.264648 
" clip-path="url(#p7ea5d9ee64)" style="fill: none; stroke: #059669; stroke-width: 2; stroke-linecap: square"/>
   </g>
   <g id="text_3">
    <!-- ~ -->
    <g style="fill: #7c3aed" transform="translate(436.546182 201.857418) scale(0.26 -0.26)">
     <use xlink:href="#DejaVuSans-Bold-7e"/>
    </g>
   </g>
   <g id="text_4">
    <!-- LAL -->
    <g style="fill: #2563eb" transform="translate(458.885932 124.307085) scale(0.13 -0.13)">
     <defs>
      <path id="DejaVuSans-Bold-4c" d="M 588 4666 
L 1791 4666 
L 1791 909 
L 3903 909 
L 3903 0 
L 588 0 
L 588 4666 
z
" transform="scale(0.015625)"/>
     </defs>
     <use xlink:href="#DejaVuSans-Bold-4c"/>
     <use xlink:href="#DejaVuSans-Bold-41" transform="translate(63.720703 0)"/>
     <use xlink:href="#DejaVuSans-Bold-4c" transform="translate(141.113281 0)"/>
    </g>
   </g>
  </g>
  <g id="axes_3">
   <g id="patch_6">
    <path d="M 709.407667 229.347021 
L 778.735622 229.347021 
L 734.167651 174.875056 
z
" clip-path="url(#p0aad37b4b4)" style="fill: #2563eb; opacity: 0.15; stroke: #2563eb; stroke-width: 2.5; stroke-linejoin: miter"/>
   </g>
   <g id="patch_7">
    <path d="M 818.351597 229.347021 
L 917.391533 229.347021 
L 853.015574 150.115072 
z
" clip-path="url(#p0aad37b4b4)" style="fill: #dc2626; opacity: 0.15; stroke: #dc2626; stroke-width: 2.5; stroke-linejoin: miter"/>
   </g>
   <g id="line2d_25">
    <g clip-path="url(#p0aad37b4b4)">
     <use xlink:href="#mef6e239920" x="709.407667" y="229.347021" style="fill: #2563eb; stroke: #2563eb"/>
    </g>
   </g>
   <g id="line2d_26">
    <g clip-path="url(#p0aad37b4b4)">
     <use xlink:href="#mef6e239920" x="778.735622" y="229.347021" style="fill: #2563eb; stroke: #2563eb"/>
    </g>
   </g>
   <g id="line2d_27">
    <g clip-path="url(#p0aad37b4b4)">
     <use xlink:href="#mef6e239920" x="734.167651" y="174.875056" style="fill: #2563eb; stroke: #2563eb"/>
    </g>
   </g>
   <g id="line2d_28">
    <g clip-path="url(#p0aad37b4b4)">
     <use xlink:href="#m943862f04b" x="818.351597" y="229.347021" style="fill: #dc2626; stroke: #dc2626"/>
    </g>
   </g>
   <g id="line2d_29">
    <g clip-path="url(#p0aad37b4b4)">
     <use xlink:href="#m943862f04b" x="917.391533" y="229.347021" style="fill: #dc2626; stroke: #dc2626"/>
    </g>
   </g>
   <g id="line2d_30">
    <g clip-path="url(#p0aad37b4b4)">
     <use xlink:href="#m943862f04b" x="853.015574" y="150.115072" style="fill: #dc2626; stroke: #dc2626"/>
    </g>
   </g>
   <g id="line2d_31">
    <path d="M 744.071645 233.308618 
L 744.071645 228.356621 
" clip-path="url(#p0aad37b4b4)" style="fill: none; stroke: #2563eb; stroke-width: 2; stroke-linecap: square"/>
   </g>
   <g id="line2d_32">
    <path d="M 756.451637 204.587037 
L 758.927635 202.111038 
" clip-path="url(#p0aad37b4b4)" style="fill: none; stroke: #2563eb; stroke-width: 2; stroke-linecap: square"/>
   </g>
   <g id="line2d_33">
    <path d="M 753.975638 203.596637 
L 756.451637 201.120639 
" clip-path="url(#p0aad37b4b4)" style="fill: none; stroke: #2563eb; stroke-width: 2; stroke-linecap: square"/>
   </g>
   <g id="line2d_34">
    <path d="M 719.311661 204.587037 
L 721.787659 202.111038 
" clip-path="url(#p0aad37b4b4)" style="fill: none; stroke: #2563eb; stroke-width: 2; stroke-linecap: square"/>
   </g>
   <g id="line2d_35">
    <path d="M 720.30206 203.596637 
L 722.778059 201.120639 
" clip-path="url(#p0aad37b4b4)" style="fill: none; stroke: #2563eb; stroke-width: 2; stroke-linecap: square"/>
   </g>
   <g id="line2d_36">
    <path d="M 721.29246 202.606238 
L 723.768458 200.13024 
" clip-path="url(#p0aad37b4b4)" style="fill: none; stroke: #2563eb; stroke-width: 2; stroke-linecap: square"/>
   </g>
   <g id="line2d_37">
    <path d="M 867.871565 233.308618 
L 867.871565 228.356621 
" clip-path="url(#p0aad37b4b4)" style="fill: none; stroke: #dc2626; stroke-width: 2; stroke-linecap: square"/>
   </g>
   <g id="line2d_38">
    <path d="M 887.679552 194.683043 
L 890.15555 190.721446 
" clip-path="url(#p0aad37b4b4)" style="fill: none; stroke: #dc2626; stroke-width: 2; stroke-linecap: square"/>
   </g>
   <g id="line2d_39">
    <path d="M 885.203554 193.692644 
L 887.679552 189.731046 
" clip-path="url(#p0aad37b4b4)" style="fill: none; stroke: #dc2626; stroke-width: 2; stroke-linecap: square"/>
   </g>
   <g id="line2d_40">
    <path d="M 833.207587 194.683043 
L 835.683586 190.721446 
" clip-path="url(#p0aad37b4b4)" style="fill: none; stroke: #dc2626; stroke-width: 2; stroke-linecap: square"/>
   </g>
   <g id="line2d_41">
    <path d="M 834.197987 193.692644 
L 836.673985 189.731046 
" clip-path="url(#p0aad37b4b4)" style="fill: none; stroke: #dc2626; stroke-width: 2; stroke-linecap: square"/>
   </g>
   <g id="line2d_42">
    <path d="M 835.188386 192.702244 
L 837.664384 188.740647 
" clip-path="url(#p0aad37b4b4)" style="fill: none; stroke: #dc2626; stroke-width: 2; stroke-linecap: square"/>
   </g>
   <g id="text_5">
    <!-- ~ -->
    <g style="fill: #7c3aed" transform="translate(777.746022 201.857418) scale(0.26 -0.26)">
     <use xlink:href="#DejaVuSans-Bold-7e"/>
    </g>
   </g>
   <g id="text_6">
    <!-- LLL -->
    <g style="fill: #2563eb" transform="translate(800.974444 124.307085) scale(0.13 -0.13)">
     <use xlink:href="#DejaVuSans-Bold-4c"/>
     <use xlink:href="#DejaVuSans-Bold-4c" transform="translate(63.720703 0)"/>
     <use xlink:href="#DejaVuSans-Bold-4c" transform="translate(127.441406 0)"/>
    </g>
   </g>
  </g>
  <g id="axes_4">
   <g id="line2d_43">
    <path d="M 25.79999 383.724298 
L 918.59953 383.724298 
" clip-path="url(#p9ba0a39f19)" style="fill: none; stroke: #d1d5db; stroke-width: 1.5; stroke-linecap: square"/>
   </g>
   <g id="line2d_44">
    <path d="M 314.099842 492.412655 
L 314.099842 390.117731 
" clip-path="url(#p9ba0a39f19)" style="fill: none; stroke: #e5e7eb; stroke-linecap: square"/>
   </g>
   <g id="line2d_45">
    <path d="M 630.299678 492.412655 
L 630.299678 390.117731 
" clip-path="url(#p9ba0a39f19)" style="fill: none; stroke: #e5e7eb; stroke-linecap: square"/>
   </g>
   <g id="line2d_46">
    <path d="M 332.699832 498.806087 
L 360.599818 498.806087 
" clip-path="url(#p9ba0a39f19)" style="fill: none; stroke: #2563eb; stroke-width: 4; stroke-linecap: square"/>
   </g>
   <g id="line2d_47">
    <path d="M 546.599722 498.806087 
L 574.499707 498.806087 
" clip-path="url(#p9ba0a39f19)" style="fill: none; stroke: #dc2626; stroke-width: 4; stroke-linecap: square"/>
   </g>
   <g id="text_7">
    <!-- AA -->
    <g style="fill: #7c3aed" transform="translate(156.013043 400.347223) scale(0.12 -0.12)">
     <use xlink:href="#DejaVuSans-Bold-41"/>
     <use xlink:href="#DejaVuSans-Bold-41" transform="translate(77.392578 0)"/>
    </g>
   </g>
   <g id="text_8">
    <!-- Ángulo-Ángulo -->
    <g style="fill: #374151" transform="translate(128.753825 418.248835) scale(0.1 -0.1)">
     <defs>
      <path id="DejaVuSans-c1" d="M 2188 4044 
L 1331 1722 
L 3047 1722 
L 2188 4044 
z
M 1831 4666 
L 2547 4666 
L 4325 0 
L 3669 0 
L 3244 1197 
L 1141 1197 
L 716 0 
L 50 0 
L 1831 4666 
z
M 2356 5921 
L 2934 5921 
L 2222 5096 
L 1743 5096 
L 2356 5921 
z
" transform="scale(0.015625)"/>
      <path id="DejaVuSans-6e" d="M 3513 2113 
L 3513 0 
L 2938 0 
L 2938 2094 
Q 2938 2591 2744 2837 
Q 2550 3084 2163 3084 
Q 1697 3084 1428 2787 
Q 1159 2491 1159 1978 
L 1159 0 
L 581 0 
L 581 3500 
L 1159 3500 
L 1159 2956 
Q 1366 3272 1645 3428 
Q 1925 3584 2291 3584 
Q 2894 3584 3203 3211 
Q 3513 2838 3513 2113 
z
" transform="scale(0.015625)"/>
      <path id="DejaVuSans-67" d="M 2906 1791 
Q 2906 2416 2648 2759 
Q 2391 3103 1925 3103 
Q 1463 3103 1205 2759 
Q 947 2416 947 1791 
Q 947 1169 1205 825 
Q 1463 481 1925 481 
Q 2391 481 2648 825 
Q 2906 1169 2906 1791 
z
M 3481 434 
Q 3481 -459 3084 -895 
Q 2688 -1331 1869 -1331 
Q 1566 -1331 1297 -1286 
Q 1028 -1241 775 -1147 
L 775 -588 
Q 1028 -725 1275 -790 
Q 1522 -856 1778 -856 
Q 2344 -856 2625 -561 
Q 2906 -266 2906 331 
L 2906 616 
Q 2728 306 2450 153 
Q 2172 0 1784 0 
Q 1141 0 747 490 
Q 353 981 353 1791 
Q 353 2603 747 3093 
Q 1141 3584 1784 3584 
Q 2172 3584 2450 3431 
Q 2728 3278 2906 2969 
L 2906 3500 
L 3481 3500 
L 3481 434 
z
" transform="scale(0.015625)"/>
      <path id="DejaVuSans-75" d="M 544 1381 
L 544 3500 
L 1119 3500 
L 1119 1403 
Q 1119 906 1312 657 
Q 1506 409 1894 409 
Q 2359 409 2629 706 
Q 2900 1003 2900 1516 
L 2900 3500 
L 3475 3500 
L 3475 0 
L 2900 0 
L 2900 538 
Q 2691 219 2414 64 
Q 2138 -91 1772 -91 
Q 1169 -91 856 284 
Q 544 659 544 1381 
z
M 1991 3584 
L 1991 3584 
z
" transform="scale(0.015625)"/>
      <path id="DejaVuSans-6c" d="M 603 4863 
L 1178 4863 
L 1178 0 
L 603 0 
L 603 4863 
z
" transform="scale(0.015625)"/>
      <path id="DejaVuSans-6f" d="M 1959 3097 
Q 1497 3097 1228 2736 
Q 959 2375 959 1747 
Q 959 1119 1226 758 
Q 1494 397 1959 397 
Q 2419 397 2687 759 
Q 2956 1122 2956 1747 
Q 2956 2369 2687 2733 
Q 2419 3097 1959 3097 
z
M 1959 3584 
Q 2709 3584 3137 3096 
Q 3566 2609 3566 1747 
Q 3566 888 3137 398 
Q 2709 -91 1959 -91 
Q 1206 -91 779 398 
Q 353 888 353 1747 
Q 353 2609 779 3096 
Q 1206 3584 1959 3584 
z
" transform="scale(0.015625)"/>
      <path id="DejaVuSans-2d" d="M 313 2009 
L 1997 2009 
L 1997 1497 
L 313 1497 
L 313 2009 
z
" transform="scale(0.015625)"/>
     </defs>
     <use xlink:href="#DejaVuSans-c1"/>
     <use xlink:href="#DejaVuSans-6e" transform="translate(68.408203 0)"/>
     <use xlink:href="#DejaVuSans-67" transform="translate(131.787109 0)"/>
     <use xlink:href="#DejaVuSans-75" transform="translate(195.263672 0)"/>
     <use xlink:href="#DejaVuSans-6c" transform="translate(258.642578 0)"/>
     <use xlink:href="#DejaVuSans-6f" transform="translate(286.425781 0)"/>
     <use xlink:href="#DejaVuSans-2d" transform="translate(349.482422 0)"/>
     <use xlink:href="#DejaVuSans-c1" transform="translate(383.316406 0)"/>
     <use xlink:href="#DejaVuSans-6e" transform="translate(451.724609 0)"/>
     <use xlink:href="#DejaVuSans-67" transform="translate(515.103516 0)"/>
     <use xlink:href="#DejaVuSans-75" transform="translate(578.580078 0)"/>
     <use xlink:href="#DejaVuSans-6c" transform="translate(641.958984 0)"/>
     <use xlink:href="#DejaVuSans-6f" transform="translate(669.742188 0)"/>
    </g>
   </g>
   <g id="text_9">
    <!-- Dos triángulos son semejantes si -->
    <g style="fill: #6b7280" transform="translate(90.940231 448.463787) scale(0.09 -0.09)">
     <defs>
      <path id="DejaVuSans-44" d="M 1259 4147 
L 1259 519 
L 2022 519 
Q 2988 519 3436 956 
Q 3884 1394 3884 2338 
Q 3884 3275 3436 3711 
Q 2988 4147 2022 4147 
L 1259 4147 
z
M 628 4666 
L 1925 4666 
Q 3281 4666 3915 4102 
Q 4550 3538 4550 2338 
Q 4550 1131 3912 565 
Q 3275 0 1925 0 
L 628 0 
L 628 4666 
z
" transform="scale(0.015625)"/>
      <path id="DejaVuSans-73" d="M 2834 3397 
L 2834 2853 
Q 2591 2978 2328 3040 
Q 2066 3103 1784 3103 
Q 1356 3103 1142 2972 
Q 928 2841 928 2578 
Q 928 2378 1081 2264 
Q 1234 2150 1697 2047 
L 1894 2003 
Q 2506 1872 2764 1633 
Q 3022 1394 3022 966 
Q 3022 478 2636 193 
Q 2250 -91 1575 -91 
Q 1294 -91 989 -36 
Q 684 19 347 128 
L 347 722 
Q 666 556 975 473 
Q 1284 391 1588 391 
Q 1994 391 2212 530 
Q 2431 669 2431 922 
Q 2431 1156 2273 1281 
Q 2116 1406 1581 1522 
L 1381 1569 
Q 847 1681 609 1914 
Q 372 2147 372 2553 
Q 372 3047 722 3315 
Q 1072 3584 1716 3584 
Q 2034 3584 2315 3537 
Q 2597 3491 2834 3397 
z
" transform="scale(0.015625)"/>
      <path id="DejaVuSans-20" transform="scale(0.015625)"/>
      <path id="DejaVuSans-74" d="M 1172 4494 
L 1172 3500 
L 2356 3500 
L 2356 3053 
L 1172 3053 
L 1172 1153 
Q 1172 725 1289 603 
Q 1406 481 1766 481 
L 2356 481 
L 2356 0 
L 1766 0 
Q 1100 0 847 248 
Q 594 497 594 1153 
L 594 3053 
L 172 3053 
L 172 3500 
L 594 3500 
L 594 4494 
L 1172 4494 
z
" transform="scale(0.015625)"/>
      <path id="DejaVuSans-72" d="M 2631 2963 
Q 2534 3019 2420 3045 
Q 2306 3072 2169 3072 
Q 1681 3072 1420 2755 
Q 1159 2438 1159 1844 
L 1159 0 
L 581 0 
L 581 3500 
L 1159 3500 
L 1159 2956 
Q 1341 3275 1631 3429 
Q 1922 3584 2338 3584 
Q 2397 3584 2469 3576 
Q 2541 3569 2628 3553 
L 2631 2963 
z
" transform="scale(0.015625)"/>
      <path id="DejaVuSans-69" d="M 603 3500 
L 1178 3500 
L 1178 0 
L 603 0 
L 603 3500 
z
M 603 4863 
L 1178 4863 
L 1178 4134 
L 603 4134 
L 603 4863 
z
" transform="scale(0.015625)"/>
      <path id="DejaVuSans-e1" d="M 2194 1759 
Q 1497 1759 1228 1600 
Q 959 1441 959 1056 
Q 959 750 1161 570 
Q 1363 391 1709 391 
Q 2188 391 2477 730 
Q 2766 1069 2766 1631 
L 2766 1759 
L 2194 1759 
z
M 3341 1997 
L 3341 0 
L 2766 0 
L 2766 531 
Q 2569 213 2275 61 
Q 1981 -91 1556 -91 
Q 1019 -91 701 211 
Q 384 513 384 1019 
Q 384 1609 779 1909 
Q 1175 2209 1959 2209 
L 2766 2209 
L 2766 2266 
Q 2766 2663 2505 2880 
Q 2244 3097 1772 3097 
Q 1472 3097 1187 3025 
Q 903 2953 641 2809 
L 641 3341 
Q 956 3463 1253 3523 
Q 1550 3584 1831 3584 
Q 2591 3584 2966 3190 
Q 3341 2797 3341 1997 
z
M 2290 5119 
L 2912 5119 
L 1894 3944 
L 1415 3944 
L 2290 5119 
z
" transform="scale(0.015625)"/>
      <path id="DejaVuSans-65" d="M 3597 1894 
L 3597 1613 
L 953 1613 
Q 991 1019 1311 708 
Q 1631 397 2203 397 
Q 2534 397 2845 478 
Q 3156 559 3463 722 
L 3463 178 
Q 3153 47 2828 -22 
Q 2503 -91 2169 -91 
Q 1331 -91 842 396 
Q 353 884 353 1716 
Q 353 2575 817 3079 
Q 1281 3584 2069 3584 
Q 2775 3584 3186 3129 
Q 3597 2675 3597 1894 
z
M 3022 2063 
Q 3016 2534 2758 2815 
Q 2500 3097 2075 3097 
Q 1594 3097 1305 2825 
Q 1016 2553 972 2059 
L 3022 2063 
z
" transform="scale(0.015625)"/>
      <path id="DejaVuSans-6d" d="M 3328 2828 
Q 3544 3216 3844 3400 
Q 4144 3584 4550 3584 
Q 5097 3584 5394 3201 
Q 5691 2819 5691 2113 
L 5691 0 
L 5113 0 
L 5113 2094 
Q 5113 2597 4934 2840 
Q 4756 3084 4391 3084 
Q 3944 3084 3684 2787 
Q 3425 2491 3425 1978 
L 3425 0 
L 2847 0 
L 2847 2094 
Q 2847 2600 2669 2842 
Q 2491 3084 2119 3084 
Q 1678 3084 1418 2786 
Q 1159 2488 1159 1978 
L 1159 0 
L 581 0 
L 581 3500 
L 1159 3500 
L 1159 2956 
Q 1356 3278 1631 3431 
Q 1906 3584 2284 3584 
Q 2666 3584 2933 3390 
Q 3200 3197 3328 2828 
z
" transform="scale(0.015625)"/>
      <path id="DejaVuSans-6a" d="M 603 3500 
L 1178 3500 
L 1178 -63 
Q 1178 -731 923 -1031 
Q 669 -1331 103 -1331 
L -116 -1331 
L -116 -844 
L 38 -844 
Q 366 -844 484 -692 
Q 603 -541 603 -63 
L 603 3500 
z
M 603 4863 
L 1178 4863 
L 1178 4134 
L 603 4134 
L 603 4863 
z
" transform="scale(0.015625)"/>
      <path id="DejaVuSans-61" d="M 2194 1759 
Q 1497 1759 1228 1600 
Q 959 1441 959 1056 
Q 959 750 1161 570 
Q 1363 391 1709 391 
Q 2188 391 2477 730 
Q 2766 1069 2766 1631 
L 2766 1759 
L 2194 1759 
z
M 3341 1997 
L 3341 0 
L 2766 0 
L 2766 531 
Q 2569 213 2275 61 
Q 1981 -91 1556 -91 
Q 1019 -91 701 211 
Q 384 513 384 1019 
Q 384 1609 779 1909 
Q 1175 2209 1959 2209 
L 2766 2209 
L 2766 2266 
Q 2766 2663 2505 2880 
Q 2244 3097 1772 3097 
Q 1472 3097 1187 3025 
Q 903 2953 641 2809 
L 641 3341 
Q 956 3463 1253 3523 
Q 1550 3584 1831 3584 
Q 2591 3584 2966 3190 
Q 3341 2797 3341 1997 
z
" transform="scale(0.015625)"/>
     </defs>
     <use xlink:href="#DejaVuSans-44"/>
     <use xlink:href="#DejaVuSans-6f" transform="translate(77.001953 0)"/>
     <use xlink:href="#DejaVuSans-73" transform="translate(138.183594 0)"/>
     <use xlink:href="#DejaVuSans-20" transform="translate(190.283203 0)"/>
     <use xlink:href="#DejaVuSans-74" transform="translate(222.070312 0)"/>
     <use xlink:href="#DejaVuSans-72" transform="translate(261.279297 0)"/>
     <use xlink:href="#DejaVuSans-69" transform="translate(302.392578 0)"/>
     <use xlink:href="#DejaVuSans-e1" transform="translate(330.175781 0)"/>
     <use xlink:href="#DejaVuSans-6e" transform="translate(391.455078 0)"/>
     <use xlink:href="#DejaVuSans-67" transform="translate(454.833984 0)"/>
     <use xlink:href="#DejaVuSans-75" transform="translate(518.310547 0)"/>
     <use xlink:href="#DejaVuSans-6c" transform="translate(581.689453 0)"/>
     <use xlink:href="#DejaVuSans-6f" transform="translate(609.472656 0)"/>
     <use xlink:href="#DejaVuSans-73" transform="translate(670.654297 0)"/>
     <use xlink:href="#DejaVuSans-20" transform="translate(722.753906 0)"/>
     <use xlink:href="#DejaVuSans-73" transform="translate(754.541016 0)"/>
     <use xlink:href="#DejaVuSans-6f" transform="translate(806.640625 0)"/>
     <use xlink:href="#DejaVuSans-6e" transform="translate(867.822266 0)"/>
     <use xlink:href="#DejaVuSans-20" transform="translate(931.201172 0)"/>
     <use xlink:href="#DejaVuSans-73" transform="translate(962.988281 0)"/>
     <use xlink:href="#DejaVuSans-65" transform="translate(1015.087891 0)"/>
     <use xlink:href="#DejaVuSans-6d" transform="translate(1076.611328 0)"/>
     <use xlink:href="#DejaVuSans-65" transform="translate(1174.023438 0)"/>
     <use xlink:href="#DejaVuSans-6a" transform="translate(1235.546875 0)"/>
     <use xlink:href="#DejaVuSans-61" transform="translate(1263.330078 0)"/>
     <use xlink:href="#DejaVuSans-6e" transform="translate(1324.609375 0)"/>
     <use xlink:href="#DejaVuSans-74" transform="translate(1387.988281 0)"/>
     <use xlink:href="#DejaVuSans-65" transform="translate(1427.197266 0)"/>
     <use xlink:href="#DejaVuSans-73" transform="translate(1488.720703 0)"/>
     <use xlink:href="#DejaVuSans-20" transform="translate(1540.820312 0)"/>
     <use xlink:href="#DejaVuSans-73" transform="translate(1572.607422 0)"/>
     <use xlink:href="#DejaVuSans-69" transform="translate(1624.707031 0)"/>
    </g>
    <!-- tienen dos ángulos iguales. -->
    <g style="fill: #6b7280" transform="translate(103.6232 459.693677) scale(0.09 -0.09)">
     <defs>
      <path id="DejaVuSans-64" d="M 2906 2969 
L 2906 4863 
L 3481 4863 
L 3481 0 
L 2906 0 
L 2906 525 
Q 2725 213 2448 61 
Q 2172 -91 1784 -91 
Q 1150 -91 751 415 
Q 353 922 353 1747 
Q 353 2572 751 3078 
Q 1150 3584 1784 3584 
Q 2172 3584 2448 3432 
Q 2725 3281 2906 2969 
z
M 947 1747 
Q 947 1113 1208 752 
Q 1469 391 1925 391 
Q 2381 391 2643 752 
Q 2906 1113 2906 1747 
Q 2906 2381 2643 2742 
Q 2381 3103 1925 3103 
Q 1469 3103 1208 2742 
Q 947 2381 947 1747 
z
" transform="scale(0.015625)"/>
      <path id="DejaVuSans-2e" d="M 684 794 
L 1344 794 
L 1344 0 
L 684 0 
L 684 794 
z
" transform="scale(0.015625)"/>
     </defs>
     <use xlink:href="#DejaVuSans-74"/>
     <use xlink:href="#DejaVuSans-69" transform="translate(39.208984 0)"/>
     <use xlink:href="#DejaVuSans-65" transform="translate(66.992188 0)"/>
     <use xlink:href="#DejaVuSans-6e" transform="translate(128.515625 0)"/>
     <use xlink:href="#DejaVuSans-65" transform="translate(191.894531 0)"/>
     <use xlink:href="#DejaVuSans-6e" transform="translate(253.417969 0)"/>
     <use xlink:href="#DejaVuSans-20" transform="translate(316.796875 0)"/>
     <use xlink:href="#DejaVuSans-64" transform="translate(348.583984 0)"/>
     <use xlink:href="#DejaVuSans-6f" transform="translate(412.060547 0)"/>
     <use xlink:href="#DejaVuSans-73" transform="translate(473.242188 0)"/>
     <use xlink:href="#DejaVuSans-20" transform="translate(525.341797 0)"/>
     <use xlink:href="#DejaVuSans-e1" transform="translate(557.128906 0)"/>
     <use xlink:href="#DejaVuSans-6e" transform="translate(618.408203 0)"/>
     <use xlink:href="#DejaVuSans-67" transform="translate(681.787109 0)"/>
     <use xlink:href="#DejaVuSans-75" transform="translate(745.263672 0)"/>
     <use xlink:href="#DejaVuSans-6c" transform="translate(808.642578 0)"/>
     <use xlink:href="#DejaVuSans-6f" transform="translate(836.425781 0)"/>
     <use xlink:href="#DejaVuSans-73" transform="translate(897.607422 0)"/>
     <use xlink:href="#DejaVuSans-20" transform="translate(949.707031 0)"/>
     <use xlink:href="#DejaVuSans-69" transform="translate(981.494141 0)"/>
     <use xlink:href="#DejaVuSans-67" transform="translate(1009.277344 0)"/>
     <use xlink:href="#DejaVuSans-75" transform="translate(1072.753906 0)"/>
     <use xlink:href="#DejaVuSans-61" transform="translate(1136.132812 0)"/>
     <use xlink:href="#DejaVuSans-6c" transform="translate(1197.412109 0)"/>
     <use xlink:href="#DejaVuSans-65" transform="translate(1225.195312 0)"/>
     <use xlink:href="#DejaVuSans-73" transform="translate(1286.71875 0)"/>
     <use xlink:href="#DejaVuSans-2e" transform="translate(1338.818359 0)"/>
    </g>
   </g>
   <g id="text_10">
    <!-- LAL -->
    <g style="fill: #7c3aed" transform="translate(459.910072 400.347223) scale(0.12 -0.12)">
     <use xlink:href="#DejaVuSans-Bold-4c"/>
     <use xlink:href="#DejaVuSans-Bold-41" transform="translate(63.720703 0)"/>
     <use xlink:href="#DejaVuSans-Bold-4c" transform="translate(141.113281 0)"/>
    </g>
   </g>
   <g id="text_11">
    <!-- Lado-Ángulo-Lado -->
    <g style="fill: #374151" transform="translate(426.969291 418.248835) scale(0.1 -0.1)">
     <defs>
      <path id="DejaVuSans-4c" d="M 628 4666 
L 1259 4666 
L 1259 531 
L 3531 531 
L 3531 0 
L 628 0 
L 628 4666 
z
" transform="scale(0.015625)"/>
     </defs>
     <use xlink:href="#DejaVuSans-4c"/>
     <use xlink:href="#DejaVuSans-61" transform="translate(55.712891 0)"/>
     <use xlink:href="#DejaVuSans-64" transform="translate(116.992188 0)"/>
     <use xlink:href="#DejaVuSans-6f" transform="translate(180.46875 0)"/>
     <use xlink:href="#DejaVuSans-2d" transform="translate(243.525391 0)"/>
     <use xlink:href="#DejaVuSans-c1" transform="translate(277.359375 0)"/>
     <use xlink:href="#DejaVuSans-6e" transform="translate(345.767578 0)"/>
     <use xlink:href="#DejaVuSans-67" transform="translate(409.146484 0)"/>
     <use xlink:href="#DejaVuSans-75" transform="translate(472.623047 0)"/>
     <use xlink:href="#DejaVuSans-6c" transform="translate(536.001953 0)"/>
     <use xlink:href="#DejaVuSans-6f" transform="translate(563.785156 0)"/>
     <use xlink:href="#DejaVuSans-2d" transform="translate(626.841797 0)"/>
     <use xlink:href="#DejaVuSans-4c" transform="translate(662.925781 0)"/>
     <use xlink:href="#DejaVuSans-61" transform="translate(718.638672 0)"/>
     <use xlink:href="#DejaVuSans-64" transform="translate(779.917969 0)"/>
     <use xlink:href="#DejaVuSans-6f" transform="translate(843.394531 0)"/>
    </g>
   </g>
   <g id="text_12">
    <!-- Dos triángulos son semejantes si -->
    <g style="fill: #6b7280" transform="translate(397.840072 448.463787) scale(0.09 -0.09)">
     <use xlink:href="#DejaVuSans-44"/>
     <use xlink:href="#DejaVuSans-6f" transform="translate(77.001953 0)"/>
     <use xlink:href="#DejaVuSans-73" transform="translate(138.183594 0)"/>
     <use xlink:href="#DejaVuSans-20" transform="translate(190.283203 0)"/>
     <use xlink:href="#DejaVuSans-74" transform="translate(222.070312 0)"/>
     <use xlink:href="#DejaVuSans-72" transform="translate(261.279297 0)"/>
     <use xlink:href="#DejaVuSans-69" transform="translate(302.392578 0)"/>
     <use xlink:href="#DejaVuSans-e1" transform="translate(330.175781 0)"/>
     <use xlink:href="#DejaVuSans-6e" transform="translate(391.455078 0)"/>
     <use xlink:href="#DejaVuSans-67" transform="translate(454.833984 0)"/>
     <use xlink:href="#DejaVuSans-75" transform="translate(518.310547 0)"/>
     <use xlink:href="#DejaVuSans-6c" transform="translate(581.689453 0)"/>
     <use xlink:href="#DejaVuSans-6f" transform="translate(609.472656 0)"/>
     <use xlink:href="#DejaVuSans-73" transform="translate(670.654297 0)"/>
     <use xlink:href="#DejaVuSans-20" transform="translate(722.753906 0)"/>
     <use xlink:href="#DejaVuSans-73" transform="translate(754.541016 0)"/>
     <use xlink:href="#DejaVuSans-6f" transform="translate(806.640625 0)"/>
     <use xlink:href="#DejaVuSans-6e" transform="translate(867.822266 0)"/>
     <use xlink:href="#DejaVuSans-20" transform="translate(931.201172 0)"/>
     <use xlink:href="#DejaVuSans-73" transform="translate(962.988281 0)"/>
     <use xlink:href="#DejaVuSans-65" transform="translate(1015.087891 0)"/>
     <use xlink:href="#DejaVuSans-6d" transform="translate(1076.611328 0)"/>
     <use xlink:href="#DejaVuSans-65" transform="translate(1174.023438 0)"/>
     <use xlink:href="#DejaVuSans-6a" transform="translate(1235.546875 0)"/>
     <use xlink:href="#DejaVuSans-61" transform="translate(1263.330078 0)"/>
     <use xlink:href="#DejaVuSans-6e" transform="translate(1324.609375 0)"/>
     <use xlink:href="#DejaVuSans-74" transform="translate(1387.988281 0)"/>
     <use xlink:href="#DejaVuSans-65" transform="translate(1427.197266 0)"/>
     <use xlink:href="#DejaVuSans-73" transform="translate(1488.720703 0)"/>
     <use xlink:href="#DejaVuSans-20" transform="translate(1540.820312 0)"/>
     <use xlink:href="#DejaVuSans-73" transform="translate(1572.607422 0)"/>
     <use xlink:href="#DejaVuSans-69" transform="translate(1624.707031 0)"/>
    </g>
    <!-- tienen dos lados proporcionales -->
    <g style="fill: #6b7280" transform="translate(400.568197 459.225677) scale(0.09 -0.09)">
     <defs>
      <path id="DejaVuSans-70" d="M 1159 525 
L 1159 -1331 
L 581 -1331 
L 581 3500 
L 1159 3500 
L 1159 2969 
Q 1341 3281 1617 3432 
Q 1894 3584 2278 3584 
Q 2916 3584 3314 3078 
Q 3713 2572 3713 1747 
Q 3713 922 3314 415 
Q 2916 -91 2278 -91 
Q 1894 -91 1617 61 
Q 1341 213 1159 525 
z
M 3116 1747 
Q 3116 2381 2855 2742 
Q 2594 3103 2138 3103 
Q 1681 3103 1420 2742 
Q 1159 2381 1159 1747 
Q 1159 1113 1420 752 
Q 1681 391 2138 391 
Q 2594 391 2855 752 
Q 3116 1113 3116 1747 
z
" transform="scale(0.015625)"/>
      <path id="DejaVuSans-63" d="M 3122 3366 
L 3122 2828 
Q 2878 2963 2633 3030 
Q 2388 3097 2138 3097 
Q 1578 3097 1268 2742 
Q 959 2388 959 1747 
Q 959 1106 1268 751 
Q 1578 397 2138 397 
Q 2388 397 2633 464 
Q 2878 531 3122 666 
L 3122 134 
Q 2881 22 2623 -34 
Q 2366 -91 2075 -91 
Q 1284 -91 818 406 
Q 353 903 353 1747 
Q 353 2603 823 3093 
Q 1294 3584 2113 3584 
Q 2378 3584 2631 3529 
Q 2884 3475 3122 3366 
z
" transform="scale(0.015625)"/>
     </defs>
     <use xlink:href="#DejaVuSans-74"/>
     <use xlink:href="#DejaVuSans-69" transform="translate(39.208984 0)"/>
     <use xlink:href="#DejaVuSans-65" transform="translate(66.992188 0)"/>
     <use xlink:href="#DejaVuSans-6e" transform="translate(128.515625 0)"/>
     <use xlink:href="#DejaVuSans-65" transform="translate(191.894531 0)"/>
     <use xlink:href="#DejaVuSans-6e" transform="translate(253.417969 0)"/>
     <use xlink:href="#DejaVuSans-20" transform="translate(316.796875 0)"/>
     <use xlink:href="#DejaVuSans-64" transform="translate(348.583984 0)"/>
     <use xlink:href="#DejaVuSans-6f" transform="translate(412.060547 0)"/>
     <use xlink:href="#DejaVuSans-73" transform="translate(473.242188 0)"/>
     <use xlink:href="#DejaVuSans-20" transform="translate(525.341797 0)"/>
     <use xlink:href="#DejaVuSans-6c" transform="translate(557.128906 0)"/>
     <use xlink:href="#DejaVuSans-61" transform="translate(584.912109 0)"/>
     <use xlink:href="#DejaVuSans-64" transform="translate(646.191406 0)"/>
     <use xlink:href="#DejaVuSans-6f" transform="translate(709.667969 0)"/>
     <use xlink:href="#DejaVuSans-73" transform="translate(770.849609 0)"/>
     <use xlink:href="#DejaVuSans-20" transform="translate(822.949219 0)"/>
     <use xlink:href="#DejaVuSans-70" transform="translate(854.736328 0)"/>
     <use xlink:href="#DejaVuSans-72" transform="translate(918.212891 0)"/>
     <use xlink:href="#DejaVuSans-6f" transform="translate(957.076172 0)"/>
     <use xlink:href="#DejaVuSans-70" transform="translate(1018.257812 0)"/>
     <use xlink:href="#DejaVuSans-6f" transform="translate(1081.734375 0)"/>
     <use xlink:href="#DejaVuSans-72" transform="translate(1142.916016 0)"/>
     <use xlink:href="#DejaVuSans-63" transform="translate(1181.779297 0)"/>
     <use xlink:href="#DejaVuSans-69" transform="translate(1236.759766 0)"/>
     <use xlink:href="#DejaVuSans-6f" transform="translate(1264.542969 0)"/>
     <use xlink:href="#DejaVuSans-6e" transform="translate(1325.724609 0)"/>
     <use xlink:href="#DejaVuSans-61" transform="translate(1389.103516 0)"/>
     <use xlink:href="#DejaVuSans-6c" transform="translate(1450.382812 0)"/>
     <use xlink:href="#DejaVuSans-65" transform="translate(1478.166016 0)"/>
     <use xlink:href="#DejaVuSans-73" transform="translate(1539.689453 0)"/>
    </g>
    <!-- y el ángulo comprendido igual. -->
    <g style="fill: #6b7280" transform="translate(402.523588 470.455568) scale(0.09 -0.09)">
     <defs>
      <path id="DejaVuSans-79" d="M 2059 -325 
Q 1816 -950 1584 -1140 
Q 1353 -1331 966 -1331 
L 506 -1331 
L 506 -850 
L 844 -850 
Q 1081 -850 1212 -737 
Q 1344 -625 1503 -206 
L 1606 56 
L 191 3500 
L 800 3500 
L 1894 763 
L 2988 3500 
L 3597 3500 
L 2059 -325 
z
" transform="scale(0.015625)"/>
     </defs>
     <use xlink:href="#DejaVuSans-79"/>
     <use xlink:href="#DejaVuSans-20" transform="translate(59.179688 0)"/>
     <use xlink:href="#DejaVuSans-65" transform="translate(90.966797 0)"/>
     <use xlink:href="#DejaVuSans-6c" transform="translate(152.490234 0)"/>
     <use xlink:href="#DejaVuSans-20" transform="translate(180.273438 0)"/>
     <use xlink:href="#DejaVuSans-e1" transform="translate(212.060547 0)"/>
     <use xlink:href="#DejaVuSans-6e" transform="translate(273.339844 0)"/>
     <use xlink:href="#DejaVuSans-67" transform="translate(336.71875 0)"/>
     <use xlink:href="#DejaVuSans-75" transform="translate(400.195312 0)"/>
     <use xlink:href="#DejaVuSans-6c" transform="translate(463.574219 0)"/>
     <use xlink:href="#DejaVuSans-6f" transform="translate(491.357422 0)"/>
     <use xlink:href="#DejaVuSans-20" transform="translate(552.539062 0)"/>
     <use xlink:href="#DejaVuSans-63" transform="translate(584.326172 0)"/>
     <use xlink:href="#DejaVuSans-6f" transform="translate(639.306641 0)"/>
     <use xlink:href="#DejaVuSans-6d" transform="translate(700.488281 0)"/>
     <use xlink:href="#DejaVuSans-70" transform="translate(797.900391 0)"/>
     <use xlink:href="#DejaVuSans-72" transform="translate(861.376953 0)"/>
     <use xlink:href="#DejaVuSans-65" transform="translate(900.240234 0)"/>
     <use xlink:href="#DejaVuSans-6e" transform="translate(961.763672 0)"/>
     <use xlink:href="#DejaVuSans-64" transform="translate(1025.142578 0)"/>
     <use xlink:href="#DejaVuSans-69" transform="translate(1088.619141 0)"/>
     <use xlink:href="#DejaVuSans-64" transform="translate(1116.402344 0)"/>
     <use xlink:href="#DejaVuSans-6f" transform="translate(1179.878906 0)"/>
     <use xlink:href="#DejaVuSans-20" transform="translate(1241.060547 0)"/>
     <use xlink:href="#DejaVuSans-69" transform="translate(1272.847656 0)"/>
     <use xlink:href="#DejaVuSans-67" transform="translate(1300.630859 0)"/>
     <use xlink:href="#DejaVuSans-75" transform="translate(1364.107422 0)"/>
     <use xlink:href="#DejaVuSans-61" transform="translate(1427.486328 0)"/>
     <use xlink:href="#DejaVuSans-6c" transform="translate(1488.765625 0)"/>
     <use xlink:href="#DejaVuSans-2e" transform="translate(1516.548828 0)"/>
    </g>
   </g>
   <g id="text_13">
    <!-- LLL -->
    <g style="fill: #7c3aed" transform="translate(767.630227 400.347223) scale(0.12 -0.12)">
     <use xlink:href="#DejaVuSans-Bold-4c"/>
     <use xlink:href="#DejaVuSans-Bold-4c" transform="translate(63.720703 0)"/>
     <use xlink:href="#DejaVuSans-Bold-4c" transform="translate(127.441406 0)"/>
    </g>
   </g>
   <g id="text_14">
    <!-- Lado-Lado-Lado -->
    <g style="fill: #374151" transform="translate(739.053508 418.248835) scale(0.1 -0.1)">
     <use xlink:href="#DejaVuSans-4c"/>
     <use xlink:href="#DejaVuSans-61" transform="translate(55.712891 0)"/>
     <use xlink:href="#DejaVuSans-64" transform="translate(116.992188 0)"/>
     <use xlink:href="#DejaVuSans-6f" transform="translate(180.46875 0)"/>
     <use xlink:href="#DejaVuSans-2d" transform="translate(243.525391 0)"/>
     <use xlink:href="#DejaVuSans-4c" transform="translate(279.609375 0)"/>
     <use xlink:href="#DejaVuSans-61" transform="translate(335.322266 0)"/>
     <use xlink:href="#DejaVuSans-64" transform="translate(396.601562 0)"/>
     <use xlink:href="#DejaVuSans-6f" transform="translate(460.078125 0)"/>
     <use xlink:href="#DejaVuSans-2d" transform="translate(523.134766 0)"/>
     <use xlink:href="#DejaVuSans-4c" transform="translate(559.21875 0)"/>
     <use xlink:href="#DejaVuSans-61" transform="translate(614.931641 0)"/>
     <use xlink:href="#DejaVuSans-64" transform="translate(676.210938 0)"/>
     <use xlink:href="#DejaVuSans-6f" transform="translate(739.6875 0)"/>
    </g>
   </g>
   <g id="text_15">
    <!-- Dos triángulos son semejantes si -->
    <g style="fill: #6b7280" transform="translate(704.739914 448.463787) scale(0.09 -0.09)">
     <use xlink:href="#DejaVuSans-44"/>
     <use xlink:href="#DejaVuSans-6f" transform="translate(77.001953 0)"/>
     <use xlink:href="#DejaVuSans-73" transform="translate(138.183594 0)"/>
     <use xlink:href="#DejaVuSans-20" transform="translate(190.283203 0)"/>
     <use xlink:href="#DejaVuSans-74" transform="translate(222.070312 0)"/>
     <use xlink:href="#DejaVuSans-72" transform="translate(261.279297 0)"/>
     <use xlink:href="#DejaVuSans-69" transform="translate(302.392578 0)"/>
     <use xlink:href="#DejaVuSans-e1" transform="translate(330.175781 0)"/>
     <use xlink:href="#DejaVuSans-6e" transform="translate(391.455078 0)"/>
     <use xlink:href="#DejaVuSans-67" transform="translate(454.833984 0)"/>
     <use xlink:href="#DejaVuSans-75" transform="translate(518.310547 0)"/>
     <use xlink:href="#DejaVuSans-6c" transform="translate(581.689453 0)"/>
     <use xlink:href="#DejaVuSans-6f" transform="translate(609.472656 0)"/>
     <use xlink:href="#DejaVuSans-73" transform="translate(670.654297 0)"/>
     <use xlink:href="#DejaVuSans-20" transform="translate(722.753906 0)"/>
     <use xlink:href="#DejaVuSans-73" transform="translate(754.541016 0)"/>
     <use xlink:href="#DejaVuSans-6f" transform="translate(806.640625 0)"/>
     <use xlink:href="#DejaVuSans-6e" transform="translate(867.822266 0)"/>
     <use xlink:href="#DejaVuSans-20" transform="translate(931.201172 0)"/>
     <use xlink:href="#DejaVuSans-73" transform="translate(962.988281 0)"/>
     <use xlink:href="#DejaVuSans-65" transform="translate(1015.087891 0)"/>
     <use xlink:href="#DejaVuSans-6d" transform="translate(1076.611328 0)"/>
     <use xlink:href="#DejaVuSans-65" transform="translate(1174.023438 0)"/>
     <use xlink:href="#DejaVuSans-6a" transform="translate(1235.546875 0)"/>
     <use xlink:href="#DejaVuSans-61" transform="translate(1263.330078 0)"/>
     <use xlink:href="#DejaVuSans-6e" transform="translate(1324.609375 0)"/>
     <use xlink:href="#DejaVuSans-74" transform="translate(1387.988281 0)"/>
     <use xlink:href="#DejaVuSans-65" transform="translate(1427.197266 0)"/>
     <use xlink:href="#DejaVuSans-73" transform="translate(1488.720703 0)"/>
     <use xlink:href="#DejaVuSans-20" transform="translate(1540.820312 0)"/>
     <use xlink:href="#DejaVuSans-73" transform="translate(1572.607422 0)"/>
     <use xlink:href="#DejaVuSans-69" transform="translate(1624.707031 0)"/>
    </g>
    <!-- tienen los tres lados proporcionales. -->
    <g style="fill: #6b7280" transform="translate(697.58843 459.225677) scale(0.09 -0.09)">
     <use xlink:href="#DejaVuSans-74"/>
     <use xlink:href="#DejaVuSans-69" transform="translate(39.208984 0)"/>
     <use xlink:href="#DejaVuSans-65" transform="translate(66.992188 0)"/>
     <use xlink:href="#DejaVuSans-6e" transform="translate(128.515625 0)"/>
     <use xlink:href="#DejaVuSans-65" transform="translate(191.894531 0)"/>
     <use xlink:href="#DejaVuSans-6e" transform="translate(253.417969 0)"/>
     <use xlink:href="#DejaVuSans-20" transform="translate(316.796875 0)"/>
     <use xlink:href="#DejaVuSans-6c" transform="translate(348.583984 0)"/>
     <use xlink:href="#DejaVuSans-6f" transform="translate(376.367188 0)"/>
     <use xlink:href="#DejaVuSans-73" transform="translate(437.548828 0)"/>
     <use xlink:href="#DejaVuSans-20" transform="translate(489.648438 0)"/>
     <use xlink:href="#DejaVuSans-74" transform="translate(521.435547 0)"/>
     <use xlink:href="#DejaVuSans-72" transform="translate(560.644531 0)"/>
     <use xlink:href="#DejaVuSans-65" transform="translate(599.507812 0)"/>
     <use xlink:href="#DejaVuSans-73" transform="translate(661.03125 0)"/>
     <use xlink:href="#DejaVuSans-20" transform="translate(713.130859 0)"/>
     <use xlink:href="#DejaVuSans-6c" transform="translate(744.917969 0)"/>
     <use xlink:href="#DejaVuSans-61" transform="translate(772.701172 0)"/>
     <use xlink:href="#DejaVuSans-64" transform="translate(833.980469 0)"/>
     <use xlink:href="#DejaVuSans-6f" transform="translate(897.457031 0)"/>
     <use xlink:href="#DejaVuSans-73" transform="translate(958.638672 0)"/>
     <use xlink:href="#DejaVuSans-20" transform="translate(1010.738281 0)"/>
     <use xlink:href="#DejaVuSans-70" transform="translate(1042.525391 0)"/>
     <use xlink:href="#DejaVuSans-72" transform="translate(1106.001953 0)"/>
     <use xlink:href="#DejaVuSans-6f" transform="translate(1144.865234 0)"/>
     <use xlink:href="#DejaVuSans-70" transform="translate(1206.046875 0)"/>
     <use xlink:href="#DejaVuSans-6f" transform="translate(1269.523438 0)"/>
     <use xlink:href="#DejaVuSans-72" transform="translate(1330.705078 0)"/>
     <use xlink:href="#DejaVuSans-63" transform="translate(1369.568359 0)"/>
     <use xlink:href="#DejaVuSans-69" transform="translate(1424.548828 0)"/>
     <use xlink:href="#DejaVuSans-6f" transform="translate(1452.332031 0)"/>
     <use xlink:href="#DejaVuSans-6e" transform="translate(1513.513672 0)"/>
     <use xlink:href="#DejaVuSans-61" transform="translate(1576.892578 0)"/>
     <use xlink:href="#DejaVuSans-6c" transform="translate(1638.171875 0)"/>
     <use xlink:href="#DejaVuSans-65" transform="translate(1665.955078 0)"/>
     <use xlink:href="#DejaVuSans-73" transform="translate(1727.478516 0)"/>
     <use xlink:href="#DejaVuSans-2e" transform="translate(1779.578125 0)"/>
    </g>
   </g>
   <g id="text_16">
    <!-- Leyenda: -->
    <g style="fill: #374151" transform="translate(449.033901 489.855281) scale(0.09 -0.09)">
     <defs>
      <path id="DejaVuSans-Bold-65" d="M 4031 1759 
L 4031 1441 
L 1416 1441 
Q 1456 1047 1700 850 
Q 1944 653 2381 653 
Q 2734 653 3104 758 
Q 3475 863 3866 1075 
L 3866 213 
Q 3469 63 3072 -14 
Q 2675 -91 2278 -91 
Q 1328 -91 801 392 
Q 275 875 275 1747 
Q 275 2603 792 3093 
Q 1309 3584 2216 3584 
Q 3041 3584 3536 3087 
Q 4031 2591 4031 1759 
z
M 2881 2131 
Q 2881 2450 2695 2645 
Q 2509 2841 2209 2841 
Q 1884 2841 1681 2658 
Q 1478 2475 1428 2131 
L 2881 2131 
z
" transform="scale(0.015625)"/>
      <path id="DejaVuSans-Bold-79" d="M 78 3500 
L 1197 3500 
L 2138 1125 
L 2938 3500 
L 4056 3500 
L 2584 -331 
Q 2363 -916 2067 -1148 
Q 1772 -1381 1288 -1381 
L 641 -1381 
L 641 -647 
L 991 -647 
Q 1275 -647 1404 -556 
Q 1534 -466 1606 -231 
L 1638 -134 
L 78 3500 
z
" transform="scale(0.015625)"/>
      <path id="DejaVuSans-Bold-6e" d="M 4056 2131 
L 4056 0 
L 2931 0 
L 2931 347 
L 2931 1631 
Q 2931 2084 2911 2256 
Q 2891 2428 2841 2509 
Q 2775 2619 2662 2680 
Q 2550 2741 2406 2741 
Q 2056 2741 1856 2470 
Q 1656 2200 1656 1722 
L 1656 0 
L 538 0 
L 538 3500 
L 1656 3500 
L 1656 2988 
Q 1909 3294 2193 3439 
Q 2478 3584 2822 3584 
Q 3428 3584 3742 3212 
Q 4056 2841 4056 2131 
z
" transform="scale(0.015625)"/>
      <path id="DejaVuSans-Bold-64" d="M 2919 2988 
L 2919 4863 
L 4044 4863 
L 4044 0 
L 2919 0 
L 2919 506 
Q 2688 197 2409 53 
Q 2131 -91 1766 -91 
Q 1119 -91 703 423 
Q 288 938 288 1747 
Q 288 2556 703 3070 
Q 1119 3584 1766 3584 
Q 2128 3584 2408 3439 
Q 2688 3294 2919 2988 
z
M 2181 722 
Q 2541 722 2730 984 
Q 2919 1247 2919 1747 
Q 2919 2247 2730 2509 
Q 2541 2772 2181 2772 
Q 1825 2772 1636 2509 
Q 1447 2247 1447 1747 
Q 1447 1247 1636 984 
Q 1825 722 2181 722 
z
" transform="scale(0.015625)"/>
      <path id="DejaVuSans-Bold-61" d="M 2106 1575 
Q 1756 1575 1579 1456 
Q 1403 1338 1403 1106 
Q 1403 894 1545 773 
Q 1688 653 1941 653 
Q 2256 653 2472 879 
Q 2688 1106 2688 1447 
L 2688 1575 
L 2106 1575 
z
M 3816 1997 
L 3816 0 
L 2688 0 
L 2688 519 
Q 2463 200 2181 54 
Q 1900 -91 1497 -91 
Q 953 -91 614 226 
Q 275 544 275 1050 
Q 275 1666 698 1953 
Q 1122 2241 2028 2241 
L 2688 2241 
L 2688 2328 
Q 2688 2594 2478 2717 
Q 2269 2841 1825 2841 
Q 1466 2841 1156 2769 
Q 847 2697 581 2553 
L 581 3406 
Q 941 3494 1303 3539 
Q 1666 3584 2028 3584 
Q 2975 3584 3395 3211 
Q 3816 2838 3816 1997 
z
" transform="scale(0.015625)"/>
      <path id="DejaVuSans-Bold-3a" d="M 716 3500 
L 1844 3500 
L 1844 2291 
L 716 2291 
L 716 3500 
z
M 716 1209 
L 1844 1209 
L 1844 0 
L 716 0 
L 716 1209 
z
" transform="scale(0.015625)"/>
     </defs>
     <use xlink:href="#DejaVuSans-Bold-4c"/>
     <use xlink:href="#DejaVuSans-Bold-65" transform="translate(63.720703 0)"/>
     <use xlink:href="#DejaVuSans-Bold-79" transform="translate(131.542969 0)"/>
     <use xlink:href="#DejaVuSans-Bold-65" transform="translate(196.728516 0)"/>
     <use xlink:href="#DejaVuSans-Bold-6e" transform="translate(264.550781 0)"/>
     <use xlink:href="#DejaVuSans-Bold-64" transform="translate(335.742188 0)"/>
     <use xlink:href="#DejaVuSans-Bold-61" transform="translate(407.324219 0)"/>
     <use xlink:href="#DejaVuSans-Bold-3a" transform="translate(474.804688 0)"/>
    </g>
   </g>
   <g id="text_17">
    <!-- Triángulo pequeño -->
    <g style="fill: #1f2937" transform="translate(369.899813 501.173587) scale(0.08 -0.08)">
     <defs>
      <path id="DejaVuSans-54" d="M -19 4666 
L 3928 4666 
L 3928 4134 
L 2272 4134 
L 2272 0 
L 1638 0 
L 1638 4134 
L -19 4134 
L -19 4666 
z
" transform="scale(0.015625)"/>
      <path id="DejaVuSans-71" d="M 947 1747 
Q 947 1113 1208 752 
Q 1469 391 1925 391 
Q 2381 391 2643 752 
Q 2906 1113 2906 1747 
Q 2906 2381 2643 2742 
Q 2381 3103 1925 3103 
Q 1469 3103 1208 2742 
Q 947 2381 947 1747 
z
M 2906 525 
Q 2725 213 2448 61 
Q 2172 -91 1784 -91 
Q 1150 -91 751 415 
Q 353 922 353 1747 
Q 353 2572 751 3078 
Q 1150 3584 1784 3584 
Q 2172 3584 2448 3432 
Q 2725 3281 2906 2969 
L 2906 3500 
L 3481 3500 
L 3481 -1331 
L 2906 -1331 
L 2906 525 
z
" transform="scale(0.015625)"/>
      <path id="DejaVuSans-f1" d="M 3513 2113 
L 3513 0 
L 2938 0 
L 2938 2094 
Q 2938 2591 2744 2837 
Q 2550 3084 2163 3084 
Q 1697 3084 1428 2787 
Q 1159 2491 1159 1978 
L 1159 0 
L 581 0 
L 581 3500 
L 1159 3500 
L 1159 2956 
Q 1366 3272 1645 3428 
Q 1925 3584 2291 3584 
Q 2894 3584 3203 3211 
Q 3513 2838 3513 2113 
z
M 2060 4281 
L 1881 4453 
Q 1813 4516 1761 4545 
Q 1710 4575 1669 4575 
Q 1550 4575 1494 4461 
Q 1438 4347 1431 4091 
L 1041 4091 
Q 1047 4513 1206 4742 
Q 1366 4972 1650 4972 
Q 1769 4972 1869 4928 
Q 1969 4884 2085 4781 
L 2263 4609 
Q 2331 4547 2383 4517 
Q 2435 4488 2475 4488 
Q 2594 4488 2650 4602 
Q 2706 4716 2713 4972 
L 3103 4972 
Q 3097 4550 2937 4320 
Q 2778 4091 2494 4091 
Q 2375 4091 2275 4134 
Q 2175 4178 2060 4281 
z
" transform="scale(0.015625)"/>
     </defs>
     <use xlink:href="#DejaVuSans-54"/>
     <use xlink:href="#DejaVuSans-72" transform="translate(46.333984 0)"/>
     <use xlink:href="#DejaVuSans-69" transform="translate(87.447266 0)"/>
     <use xlink:href="#DejaVuSans-e1" transform="translate(115.230469 0)"/>
     <use xlink:href="#DejaVuSans-6e" transform="translate(176.509766 0)"/>
     <use xlink:href="#DejaVuSans-67" transform="translate(239.888672 0)"/>
     <use xlink:href="#DejaVuSans-75" transform="translate(303.365234 0)"/>
     <use xlink:href="#DejaVuSans-6c" transform="translate(366.744141 0)"/>
     <use xlink:href="#DejaVuSans-6f" transform="translate(394.527344 0)"/>
     <use xlink:href="#DejaVuSans-20" transform="translate(455.708984 0)"/>
     <use xlink:href="#DejaVuSans-70" transform="translate(487.496094 0)"/>
     <use xlink:href="#DejaVuSans-65" transform="translate(550.972656 0)"/>
     <use xlink:href="#DejaVuSans-71" transform="translate(612.496094 0)"/>
     <use xlink:href="#DejaVuSans-75" transform="translate(675.972656 0)"/>
     <use xlink:href="#DejaVuSans-65" transform="translate(739.351562 0)"/>
     <use xlink:href="#DejaVuSans-f1" transform="translate(800.875 0)"/>
     <use xlink:href="#DejaVuSans-6f" transform="translate(864.253906 0)"/>
    </g>
   </g>
   <g id="text_18">
    <!-- Triángulo grande -->
    <g style="fill: #1f2937" transform="translate(583.799702 501.173587) scale(0.08 -0.08)">
     <use xlink:href="#DejaVuSans-54"/>
     <use xlink:href="#DejaVuSans-72" transform="translate(46.333984 0)"/>
     <use xlink:href="#DejaVuSans-69" transform="translate(87.447266 0)"/>
     <use xlink:href="#DejaVuSans-e1" transform="translate(115.230469 0)"/>
     <use xlink:href="#DejaVuSans-6e" transform="translate(176.509766 0)"/>
     <use xlink:href="#DejaVuSans-67" transform="translate(239.888672 0)"/>
     <use xlink:href="#DejaVuSans-75" transform="translate(303.365234 0)"/>
     <use xlink:href="#DejaVuSans-6c" transform="translate(366.744141 0)"/>
     <use xlink:href="#DejaVuSans-6f" transform="translate(394.527344 0)"/>
     <use xlink:href="#DejaVuSans-20" transform="translate(455.708984 0)"/>
     <use xlink:href="#DejaVuSans-67" transform="translate(487.496094 0)"/>
     <use xlink:href="#DejaVuSans-72" transform="translate(550.972656 0)"/>
     <use xlink:href="#DejaVuSans-61" transform="translate(592.085938 0)"/>
     <use xlink:href="#DejaVuSans-6e" transform="translate(653.365234 0)"/>
     <use xlink:href="#DejaVuSans-64" transform="translate(716.744141 0)"/>
     <use xlink:href="#DejaVuSans-65" transform="translate(780.220703 0)"/>
    </g>
   </g>
  </g>
  <g id="text_19">
   <!-- Criterios de Semejanza de Triángulos -->
   <g style="fill: #1f2937" transform="translate(325.35726 18.397812) scale(0.14 -0.14)">
    <defs>
     <path id="DejaVuSans-Bold-43" d="M 4288 256 
Q 3956 84 3597 -3 
Q 3238 -91 2847 -91 
Q 1681 -91 1000 561 
Q 319 1213 319 2328 
Q 319 3447 1000 4098 
Q 1681 4750 2847 4750 
Q 3238 4750 3597 4662 
Q 3956 4575 4288 4403 
L 4288 3438 
Q 3953 3666 3628 3772 
Q 3303 3878 2944 3878 
Q 2300 3878 1931 3465 
Q 1563 3053 1563 2328 
Q 1563 1606 1931 1193 
Q 2300 781 2944 781 
Q 3303 781 3628 887 
Q 3953 994 4288 1222 
L 4288 256 
z
" transform="scale(0.015625)"/>
     <path id="DejaVuSans-Bold-72" d="M 3138 2547 
Q 2991 2616 2845 2648 
Q 2700 2681 2553 2681 
Q 2122 2681 1889 2404 
Q 1656 2128 1656 1613 
L 1656 0 
L 538 0 
L 538 3500 
L 1656 3500 
L 1656 2925 
Q 1872 3269 2151 3426 
Q 2431 3584 2822 3584 
Q 2878 3584 2943 3579 
Q 3009 3575 3134 3559 
L 3138 2547 
z
" transform="scale(0.015625)"/>
     <path id="DejaVuSans-Bold-69" d="M 538 3500 
L 1656 3500 
L 1656 0 
L 538 0 
L 538 3500 
z
M 538 4863 
L 1656 4863 
L 1656 3950 
L 538 3950 
L 538 4863 
z
" transform="scale(0.015625)"/>
     <path id="DejaVuSans-Bold-74" d="M 1759 4494 
L 1759 3500 
L 2913 3500 
L 2913 2700 
L 1759 2700 
L 1759 1216 
Q 1759 972 1856 886 
Q 1953 800 2241 800 
L 2816 800 
L 2816 0 
L 1856 0 
Q 1194 0 917 276 
Q 641 553 641 1216 
L 641 2700 
L 84 2700 
L 84 3500 
L 641 3500 
L 641 4494 
L 1759 4494 
z
" transform="scale(0.015625)"/>
     <path id="DejaVuSans-Bold-6f" d="M 2203 2784 
Q 1831 2784 1636 2517 
Q 1441 2250 1441 1747 
Q 1441 1244 1636 976 
Q 1831 709 2203 709 
Q 2569 709 2762 976 
Q 2956 1244 2956 1747 
Q 2956 2250 2762 2517 
Q 2569 2784 2203 2784 
z
M 2203 3584 
Q 3106 3584 3614 3096 
Q 4122 2609 4122 1747 
Q 4122 884 3614 396 
Q 3106 -91 2203 -91 
Q 1297 -91 786 396 
Q 275 884 275 1747 
Q 275 2609 786 3096 
Q 1297 3584 2203 3584 
z
" transform="scale(0.015625)"/>
     <path id="DejaVuSans-Bold-73" d="M 3272 3391 
L 3272 2541 
Q 2913 2691 2578 2766 
Q 2244 2841 1947 2841 
Q 1628 2841 1473 2761 
Q 1319 2681 1319 2516 
Q 1319 2381 1436 2309 
Q 1553 2238 1856 2203 
L 2053 2175 
Q 2913 2066 3209 1816 
Q 3506 1566 3506 1031 
Q 3506 472 3093 190 
Q 2681 -91 1863 -91 
Q 1516 -91 1145 -36 
Q 775 19 384 128 
L 384 978 
Q 719 816 1070 734 
Q 1422 653 1784 653 
Q 2113 653 2278 743 
Q 2444 834 2444 1013 
Q 2444 1163 2330 1236 
Q 2216 1309 1875 1350 
L 1678 1375 
Q 931 1469 631 1722 
Q 331 1975 331 2491 
Q 331 3047 712 3315 
Q 1094 3584 1881 3584 
Q 2191 3584 2531 3537 
Q 2872 3491 3272 3391 
z
" transform="scale(0.015625)"/>
     <path id="DejaVuSans-Bold-20" transform="scale(0.015625)"/>
     <path id="DejaVuSans-Bold-53" d="M 3834 4519 
L 3834 3531 
Q 3450 3703 3084 3790 
Q 2719 3878 2394 3878 
Q 1963 3878 1756 3759 
Q 1550 3641 1550 3391 
Q 1550 3203 1689 3098 
Q 1828 2994 2194 2919 
L 2706 2816 
Q 3484 2659 3812 2340 
Q 4141 2022 4141 1434 
Q 4141 663 3683 286 
Q 3225 -91 2284 -91 
Q 1841 -91 1394 -6 
Q 947 78 500 244 
L 500 1259 
Q 947 1022 1364 901 
Q 1781 781 2169 781 
Q 2563 781 2772 912 
Q 2981 1044 2981 1288 
Q 2981 1506 2839 1625 
Q 2697 1744 2272 1838 
L 1806 1941 
Q 1106 2091 782 2419 
Q 459 2747 459 3303 
Q 459 4000 909 4375 
Q 1359 4750 2203 4750 
Q 2588 4750 2994 4692 
Q 3400 4634 3834 4519 
z
" transform="scale(0.015625)"/>
     <path id="DejaVuSans-Bold-6d" d="M 3781 2919 
Q 3994 3244 4286 3414 
Q 4578 3584 4928 3584 
Q 5531 3584 5847 3212 
Q 6163 2841 6163 2131 
L 6163 0 
L 5038 0 
L 5038 1825 
Q 5041 1866 5042 1909 
Q 5044 1953 5044 2034 
Q 5044 2406 4934 2573 
Q 4825 2741 4581 2741 
Q 4263 2741 4089 2478 
Q 3916 2216 3909 1719 
L 3909 0 
L 2784 0 
L 2784 1825 
Q 2784 2406 2684 2573 
Q 2584 2741 2328 2741 
Q 2006 2741 1831 2477 
Q 1656 2213 1656 1722 
L 1656 0 
L 531 0 
L 531 3500 
L 1656 3500 
L 1656 2988 
Q 1863 3284 2130 3434 
Q 2397 3584 2719 3584 
Q 3081 3584 3359 3409 
Q 3638 3234 3781 2919 
z
" transform="scale(0.015625)"/>
     <path id="DejaVuSans-Bold-6a" d="M 538 3500 
L 1656 3500 
L 1656 63 
Q 1656 -641 1318 -1011 
Q 981 -1381 341 -1381 
L -213 -1381 
L -213 -647 
L -19 -647 
Q 300 -647 419 -503 
Q 538 -359 538 63 
L 538 3500 
z
M 538 4863 
L 1656 4863 
L 1656 3950 
L 538 3950 
L 538 4863 
z
" transform="scale(0.015625)"/>
     <path id="DejaVuSans-Bold-7a" d="M 366 3500 
L 3419 3500 
L 3419 2719 
L 1575 800 
L 3419 800 
L 3419 0 
L 288 0 
L 288 781 
L 2131 2700 
L 366 2700 
L 366 3500 
z
" transform="scale(0.015625)"/>
     <path id="DejaVuSans-Bold-54" d="M 31 4666 
L 4331 4666 
L 4331 3756 
L 2784 3756 
L 2784 0 
L 1581 0 
L 1581 3756 
L 31 3756 
L 31 4666 
z
" transform="scale(0.015625)"/>
     <path id="DejaVuSans-Bold-e1" d="M 2106 1575 
Q 1756 1575 1579 1456 
Q 1403 1338 1403 1106 
Q 1403 894 1545 773 
Q 1688 653 1941 653 
Q 2256 653 2472 879 
Q 2688 1106 2688 1447 
L 2688 1575 
L 2106 1575 
z
M 3816 1997 
L 3816 0 
L 2688 0 
L 2688 519 
Q 2463 200 2181 54 
Q 1900 -91 1497 -91 
Q 953 -91 614 226 
Q 275 544 275 1050 
Q 275 1666 698 1953 
Q 1122 2241 2028 2241 
L 2688 2241 
L 2688 2328 
Q 2688 2594 2478 2717 
Q 2269 2841 1825 2841 
Q 1466 2841 1156 2769 
Q 847 2697 581 2553 
L 581 3406 
Q 941 3494 1303 3539 
Q 1666 3584 2028 3584 
Q 2975 3584 3395 3211 
Q 3816 2838 3816 1997 
z
M 2606 5119 
L 3490 5119 
L 2337 3944 
L 1725 3944 
L 2606 5119 
z
" transform="scale(0.015625)"/>
     <path id="DejaVuSans-Bold-67" d="M 2919 594 
Q 2688 288 2409 144 
Q 2131 0 1766 0 
Q 1125 0 706 504 
Q 288 1009 288 1791 
Q 288 2575 706 3076 
Q 1125 3578 1766 3578 
Q 2131 3578 2409 3434 
Q 2688 3291 2919 2981 
L 2919 3500 
L 4044 3500 
L 4044 353 
Q 4044 -491 3511 -936 
Q 2978 -1381 1966 -1381 
Q 1638 -1381 1331 -1331 
Q 1025 -1281 716 -1178 
L 716 -306 
Q 1009 -475 1290 -558 
Q 1572 -641 1856 -641 
Q 2406 -641 2662 -400 
Q 2919 -159 2919 353 
L 2919 594 
z
M 2181 2772 
Q 1834 2772 1640 2515 
Q 1447 2259 1447 1791 
Q 1447 1309 1634 1061 
Q 1822 813 2181 813 
Q 2531 813 2725 1069 
Q 2919 1325 2919 1791 
Q 2919 2259 2725 2515 
Q 2531 2772 2181 2772 
z
" transform="scale(0.015625)"/>
     <path id="DejaVuSans-Bold-75" d="M 500 1363 
L 500 3500 
L 1625 3500 
L 1625 3150 
Q 1625 2866 1622 2436 
Q 1619 2006 1619 1863 
Q 1619 1441 1641 1255 
Q 1663 1069 1716 984 
Q 1784 875 1895 815 
Q 2006 756 2150 756 
Q 2500 756 2700 1025 
Q 2900 1294 2900 1772 
L 2900 3500 
L 4019 3500 
L 4019 0 
L 2900 0 
L 2900 506 
Q 2647 200 2364 54 
Q 2081 -91 1741 -91 
Q 1134 -91 817 281 
Q 500 653 500 1363 
z
" transform="scale(0.015625)"/>
     <path id="DejaVuSans-Bold-6c" d="M 538 4863 
L 1656 4863 
L 1656 0 
L 538 0 
L 538 4863 
z
" transform="scale(0.015625)"/>
    </defs>
    <use xlink:href="#DejaVuSans-Bold-43"/>
    <use xlink:href="#DejaVuSans-Bold-72" transform="translate(73.388672 0)"/>
    <use xlink:href="#DejaVuSans-Bold-69" transform="translate(122.705078 0)"/>
    <use xlink:href="#DejaVuSans-Bold-74" transform="translate(156.982422 0)"/>
    <use xlink:href="#DejaVuSans-Bold-65" transform="translate(204.785156 0)"/>
    <use xlink:href="#DejaVuSans-Bold-72" transform="translate(272.607422 0)"/>
    <use xlink:href="#DejaVuSans-Bold-69" transform="translate(321.923828 0)"/>
    <use xlink:href="#DejaVuSans-Bold-6f" transform="translate(356.201172 0)"/>
    <use xlink:href="#DejaVuSans-Bold-73" transform="translate(424.902344 0)"/>
    <use xlink:href="#DejaVuSans-Bold-20" transform="translate(484.423828 0)"/>
    <use xlink:href="#DejaVuSans-Bold-64" transform="translate(519.238281 0)"/>
    <use xlink:href="#DejaVuSans-Bold-65" transform="translate(590.820312 0)"/>
    <use xlink:href="#DejaVuSans-Bold-20" transform="translate(658.642578 0)"/>
    <use xlink:href="#DejaVuSans-Bold-53" transform="translate(693.457031 0)"/>
    <use xlink:href="#DejaVuSans-Bold-65" transform="translate(765.478516 0)"/>
    <use xlink:href="#DejaVuSans-Bold-6d" transform="translate(833.300781 0)"/>
    <use xlink:href="#DejaVuSans-Bold-65" transform="translate(937.5 0)"/>
    <use xlink:href="#DejaVuSans-Bold-6a" transform="translate(1005.322266 0)"/>
    <use xlink:href="#DejaVuSans-Bold-61" transform="translate(1039.599609 0)"/>
    <use xlink:href="#DejaVuSans-Bold-6e" transform="translate(1107.080078 0)"/>
    <use xlink:href="#DejaVuSans-Bold-7a" transform="translate(1178.271484 0)"/>
    <use xlink:href="#DejaVuSans-Bold-61" transform="translate(1236.474609 0)"/>
    <use xlink:href="#DejaVuSans-Bold-20" transform="translate(1303.955078 0)"/>
    <use xlink:href="#DejaVuSans-Bold-64" transform="translate(1338.769531 0)"/>
    <use xlink:href="#DejaVuSans-Bold-65" transform="translate(1410.351562 0)"/>
    <use xlink:href="#DejaVuSans-Bold-20" transform="translate(1478.173828 0)"/>
    <use xlink:href="#DejaVuSans-Bold-54" transform="translate(1512.988281 0)"/>
    <use xlink:href="#DejaVuSans-Bold-72" transform="translate(1570.201172 0)"/>
    <use xlink:href="#DejaVuSans-Bold-69" transform="translate(1619.517578 0)"/>
    <use xlink:href="#DejaVuSans-Bold-e1" transform="translate(1653.794922 0)"/>
    <use xlink:href="#DejaVuSans-Bold-6e" transform="translate(1721.275391 0)"/>
    <use xlink:href="#DejaVuSans-Bold-67" transform="translate(1792.466797 0)"/>
    <use xlink:href="#DejaVuSans-Bold-75" transform="translate(1864.048828 0)"/>
    <use xlink:href="#DejaVuSans-Bold-6c" transform="translate(1935.240234 0)"/>
    <use xlink:href="#DejaVuSans-Bold-6f" transform="translate(1969.517578 0)"/>
    <use xlink:href="#DejaVuSans-Bold-73" transform="translate(2038.21875 0)"/>
   </g>
  </g>
 </g>
 <defs>
  <clipPath id="pe514962988">
   <rect x="7.2" y="130.307085" width="247.59984" height="113.895926"/>
  </clipPath>
  <clipPath id="p7ea5d9ee64">
   <rect x="348.39984" y="130.307085" width="247.59984" height="113.895926"/>
  </clipPath>
  <clipPath id="p0aad37b4b4">
   <rect x="689.59968" y="130.307085" width="247.59984" height="113.895926"/>
  </clipPath>
  <clipPath id="p9ba0a39f19">
   <rect x="7.2" y="377.330866" width="929.99952" height="127.868654"/>
  </clipPath>
 </defs>
</svg>
