<?xml version="1.0" encoding="utf-8" standalone="no"?>
<!DOCTYPE svg PUBLIC "-//W3C//DTD SVG 1.1//EN"
  "http://www.w3.org/Graphics/SVG/1.1/DTD/svg11.dtd">
<svg xmlns:xlink="http://www.w3.org/1999/xlink" width="885.0949pt" height="440.39952pt" viewBox="0 0 885.0949 440.39952" xmlns="http://www.w3.org/2000/svg" version="1.1">
 <metadata>
  <rdf:RDF xmlns:dc="http://purl.org/dc/elements/1.1/" xmlns:cc="http://creativecommons.org/ns#" xmlns:rdf="http://www.w3.org/1999/02/22-rdf-syntax-ns#">
   <cc:Work>
    <dc:type rdf:resource="http://purl.org/dc/dcmitype/StillImage"/>
    <dc:date>2026-01-03T21:57:02.177041</dc:date>
    <dc:format>image/svg+xml</dc:format>
    <dc:creator>
     <cc:Agent>
      <dc:title>Repositorio Matemáticas Universitarias</dc:title>
     </cc:Agent>
    </dc:creator>
   </cc:Work>
  </rdf:RDF>
 </metadata>
 <defs>
  <style type="text/css">*{stroke-linejoin: round; stroke-linecap: butt}</style>
 </defs>
 <g id="figure_1">
  <g id="patch_1">
   <path d="M 0 440.39952 
L 885.0949 440.39952 
L 885.0949 0 
L 0 0 
z
" style="fill: #ffffff"/>
  </g>
  <g id="axes_1">
   <g id="line2d_1">
    <path d="M 171.318835 93.239076 
L 54.091096 327.694555 
" clip-path="url(#p13d1989609)" style="fill: none; stroke: #2563eb; stroke-width: 2.5; stroke-linecap: square"/>
   </g>
   <g id="line2d_2">
    <path d="M 171.318835 93.239076 
L 347.160444 327.694555 
" clip-path="url(#p13d1989609)" style="fill: none; stroke: #2563eb; stroke-width: 2.5; stroke-linecap: square"/>
   </g>
   <g id="line2d_3">
    <path d="M 54.091096 327.694555 
L 347.160444 327.694555 
" clip-path="url(#p13d1989609)" style="fill: none; stroke: #2563eb; stroke-width: 2.5; stroke-linecap: square"/>
   </g>
   <g id="line2d_4">
    <path d="M 124.427739 187.021267 
L 241.655479 187.021267 
" clip-path="url(#p13d1989609)" style="fill: none; stroke: #dc2626; stroke-width: 2.5; stroke-linecap: square"/>
   </g>
   <g id="line2d_5">
    <path d="M 36.506935 327.694555 
L 364.744605 327.694555 
" clip-path="url(#p13d1989609)" style="fill: none; stroke-dasharray: 3.7,1.6; stroke-dashoffset: 0; stroke: #2563eb; stroke-opacity: 0.5"/>
   </g>
   <g id="line2d_6">
    <path d="M 112.704965 187.021267 
L 253.378253 187.021267 
" clip-path="url(#p13d1989609)" style="fill: none; stroke-dasharray: 3.7,1.6; stroke-dashoffset: 0; stroke: #dc2626; stroke-opacity: 0.5"/>
   </g>
   <g id="line2d_7">
    <defs>
     <path id="md232a9e787" d="M 0 3 
C 0.795609 3 1.55874 2.683901 2.12132 2.12132 
C 2.683901 1.55874 3 0.795609 3 0 
C 3 -0.795609 2.683901 -1.55874 2.12132 -2.12132 
C 1.55874 -2.683901 0.795609 -3 0 -3 
C -0.795609 -3 -1.55874 -2.683901 -2.12132 -2.12132 
C -2.683901 -1.55874 -3 -0.795609 -3 0 
C -3 0.795609 -2.683901 1.55874 -2.12132 2.12132 
C -1.55874 2.683901 -0.795609 3 0 3 
z
" style="stroke: #374151"/>
    </defs>
    <g clip-path="url(#p13d1989609)">
     <use xlink:href="#md232a9e787" x="171.318835" y="93.239076" style="fill: #374151; stroke: #374151"/>
    </g>
   </g>
   <g id="line2d_8">
    <g clip-path="url(#p13d1989609)">
     <use xlink:href="#md232a9e787" x="54.091096" y="327.694555" style="fill: #374151; stroke: #374151"/>
    </g>
   </g>
   <g id="line2d_9">
    <g clip-path="url(#p13d1989609)">
     <use xlink:href="#md232a9e787" x="347.160444" y="327.694555" style="fill: #374151; stroke: #374151"/>
    </g>
   </g>
   <g id="line2d_10">
    <g clip-path="url(#p13d1989609)">
     <use xlink:href="#md232a9e787" x="124.427739" y="187.021267" style="fill: #374151; stroke: #374151"/>
    </g>
   </g>
   <g id="line2d_11">
    <g clip-path="url(#p13d1989609)">
     <use xlink:href="#md232a9e787" x="241.655479" y="187.021267" style="fill: #374151; stroke: #374151"/>
    </g>
   </g>
   <g id="text_1">
    <!-- A -->
    <g style="fill: #1f2937" transform="translate(171.318835 81.516302) scale(0.11 -0.11)">
     <defs>
      <path id="DejaVuSans-Bold-41" d="M 3419 850 
L 1538 850 
L 1241 0 
L 31 0 
L 1759 4666 
L 3194 4666 
L 4922 0 
L 3713 0 
L 3419 850 
z
M 1838 1716 
L 3116 1716 
L 2478 3572 
L 1838 1716 
z
" transform="scale(0.015625)"/>
     </defs>
     <use xlink:href="#DejaVuSans-Bold-41"/>
    </g>
   </g>
   <g id="text_2">
    <!-- B -->
    <g style="fill: #1f2937" transform="translate(36.506935 333.555942) scale(0.11 -0.11)">
     <defs>
      <path id="DejaVuSans-Bold-42" d="M 2456 2859 
Q 2741 2859 2887 2984 
Q 3034 3109 3034 3353 
Q 3034 3594 2887 3720 
Q 2741 3847 2456 3847 
L 1791 3847 
L 1791 2859 
L 2456 2859 
z
M 2497 819 
Q 2859 819 3042 972 
Q 3225 1125 3225 1434 
Q 3225 1738 3044 1889 
Q 2863 2041 2497 2041 
L 1791 2041 
L 1791 819 
L 2497 819 
z
M 3616 2497 
Q 4003 2384 4215 2081 
Q 4428 1778 4428 1338 
Q 4428 663 3972 331 
Q 3516 0 2584 0 
L 588 0 
L 588 4666 
L 2394 4666 
Q 3366 4666 3802 4372 
Q 4238 4078 4238 3431 
Q 4238 3091 4078 2852 
Q 3919 2613 3616 2497 
z
" transform="scale(0.015625)"/>
     </defs>
     <use xlink:href="#DejaVuSans-Bold-42"/>
    </g>
   </g>
   <g id="text_3">
    <!-- C -->
    <g style="fill: #1f2937" transform="translate(358.883218 333.555942) scale(0.11 -0.11)">
     <defs>
      <path id="DejaVuSans-Bold-43" d="M 4288 256 
Q 3956 84 3597 -3 
Q 3238 -91 2847 -91 
Q 1681 -91 1000 561 
Q 319 1213 319 2328 
Q 319 3447 1000 4098 
Q 1681 4750 2847 4750 
Q 3238 4750 3597 4662 
Q 3956 4575 4288 4403 
L 4288 3438 
Q 3953 3666 3628 3772 
Q 3303 3878 2944 3878 
Q 2300 3878 1931 3465 
Q 1563 3053 1563 2328 
Q 1563 1606 1931 1193 
Q 2300 781 2944 781 
Q 3303 781 3628 887 
Q 3953 994 4288 1222 
L 4288 256 
z
" transform="scale(0.015625)"/>
     </defs>
     <use xlink:href="#DejaVuSans-Bold-43"/>
    </g>
   </g>
   <g id="text_4">
    <!-- D -->
    <g style="fill: #1f2937" transform="translate(103.912885 187.021267) scale(0.11 -0.11)">
     <defs>
      <path id="DejaVuSans-Bold-44" d="M 1791 3756 
L 1791 909 
L 2222 909 
Q 2959 909 3348 1275 
Q 3738 1641 3738 2338 
Q 3738 3031 3350 3393 
Q 2963 3756 2222 3756 
L 1791 3756 
z
M 588 4666 
L 1856 4666 
Q 2919 4666 3439 4514 
Q 3959 4363 4331 4000 
Q 4659 3684 4818 3271 
Q 4978 2859 4978 2338 
Q 4978 1809 4818 1395 
Q 4659 981 4331 666 
Q 3956 303 3431 151 
Q 2906 0 1856 0 
L 588 0 
L 588 4666 
z
" transform="scale(0.015625)"/>
     </defs>
     <use xlink:href="#DejaVuSans-Bold-44"/>
    </g>
   </g>
   <g id="text_5">
    <!-- E -->
    <g style="fill: #1f2937" transform="translate(253.378253 187.021267) scale(0.11 -0.11)">
     <defs>
      <path id="DejaVuSans-Bold-45" d="M 588 4666 
L 3834 4666 
L 3834 3756 
L 1791 3756 
L 1791 2888 
L 3713 2888 
L 3713 1978 
L 1791 1978 
L 1791 909 
L 3903 909 
L 3903 0 
L 588 0 
L 588 4666 
z
" transform="scale(0.015625)"/>
     </defs>
     <use xlink:href="#DejaVuSans-Bold-45"/>
    </g>
   </g>
   <g id="text_6">
    <!-- AD -->
    <g style="fill: #059669" transform="translate(124.427739 140.130172) scale(0.1 -0.1)">
     <defs>
      <path id="DejaVuSans-41" d="M 2188 4044 
L 1331 1722 
L 3047 1722 
L 2188 4044 
z
M 1831 4666 
L 2547 4666 
L 4325 0 
L 3669 0 
L 3244 1197 
L 1141 1197 
L 716 0 
L 50 0 
L 1831 4666 
z
" transform="scale(0.015625)"/>
      <path id="DejaVuSans-44" d="M 1259 4147 
L 1259 519 
L 2022 519 
Q 2988 519 3436 956 
Q 3884 1394 3884 2338 
Q 3884 3275 3436 3711 
Q 2988 4147 2022 4147 
L 1259 4147 
z
M 628 4666 
L 1925 4666 
Q 3281 4666 3915 4102 
Q 4550 3538 4550 2338 
Q 4550 1131 3912 565 
Q 3275 0 1925 0 
L 628 0 
L 628 4666 
z
" transform="scale(0.015625)"/>
     </defs>
     <use xlink:href="#DejaVuSans-41"/>
     <use xlink:href="#DejaVuSans-44" transform="translate(68.408203 0)"/>
    </g>
   </g>
   <g id="text_7">
    <!-- DB -->
    <g style="fill: #059669" transform="translate(65.81387 257.357911) scale(0.1 -0.1)">
     <defs>
      <path id="DejaVuSans-42" d="M 1259 2228 
L 1259 519 
L 2272 519 
Q 2781 519 3026 730 
Q 3272 941 3272 1375 
Q 3272 1813 3026 2020 
Q 2781 2228 2272 2228 
L 1259 2228 
z
M 1259 4147 
L 1259 2741 
L 2194 2741 
Q 2656 2741 2882 2914 
Q 3109 3088 3109 3444 
Q 3109 3797 2882 3972 
Q 2656 4147 2194 4147 
L 1259 4147 
z
M 628 4666 
L 2241 4666 
Q 2963 4666 3353 4366 
Q 3744 4066 3744 3513 
Q 3744 3084 3544 2831 
Q 3344 2578 2956 2516 
Q 3422 2416 3680 2098 
Q 3938 1781 3938 1306 
Q 3938 681 3513 340 
Q 3088 0 2303 0 
L 628 0 
L 628 4666 
z
" transform="scale(0.015625)"/>
     </defs>
     <use xlink:href="#DejaVuSans-44"/>
     <use xlink:href="#DejaVuSans-42" transform="translate(77.001953 0)"/>
    </g>
   </g>
   <g id="text_8">
    <!-- AE -->
    <g style="fill: #7c3aed" transform="translate(218.209931 140.130172) scale(0.1 -0.1)">
     <defs>
      <path id="DejaVuSans-45" d="M 628 4666 
L 3578 4666 
L 3578 4134 
L 1259 4134 
L 1259 2753 
L 3481 2753 
L 3481 2222 
L 1259 2222 
L 1259 531 
L 3634 531 
L 3634 0 
L 628 0 
L 628 4666 
z
" transform="scale(0.015625)"/>
     </defs>
     <use xlink:href="#DejaVuSans-41"/>
     <use xlink:href="#DejaVuSans-45" transform="translate(68.408203 0)"/>
    </g>
   </g>
   <g id="text_9">
    <!-- EC -->
    <g style="fill: #7c3aed" transform="translate(306.130735 257.357911) scale(0.1 -0.1)">
     <defs>
      <path id="DejaVuSans-43" d="M 4122 4306 
L 4122 3641 
Q 3803 3938 3442 4084 
Q 3081 4231 2675 4231 
Q 1875 4231 1450 3742 
Q 1025 3253 1025 2328 
Q 1025 1406 1450 917 
Q 1875 428 2675 428 
Q 3081 428 3442 575 
Q 3803 722 4122 1019 
L 4122 359 
Q 3791 134 3420 21 
Q 3050 -91 2638 -91 
Q 1578 -91 968 557 
Q 359 1206 359 2328 
Q 359 3453 968 4101 
Q 1578 4750 2638 4750 
Q 3056 4750 3426 4639 
Q 3797 4528 4122 4306 
z
" transform="scale(0.015625)"/>
     </defs>
     <use xlink:href="#DejaVuSans-45"/>
     <use xlink:href="#DejaVuSans-43" transform="translate(63.183594 0)"/>
    </g>
   </g>
   <g id="text_10">
    <!-- ∥ -->
    <g style="fill: #6b7280" transform="translate(200.62577 239.77375) scale(0.2 -0.2)">
     <defs>
      <path id="DejaVuSans-2225" d="M 850 4934 
L 1350 4934 
L 1350 -1369 
L 850 -1369 
L 850 4934 
z
M 1850 4934 
L 2350 4934 
L 2350 -1369 
L 1850 -1369 
L 1850 4934 
z
" transform="scale(0.015625)"/>
     </defs>
     <use xlink:href="#DejaVuSans-2225"/>
    </g>
   </g>
   <g id="text_11">
    <!-- Si DE ∥ BC: -->
    <g style="fill: #374151" transform="translate(170.531317 374.58565) scale(0.11 -0.11)">
     <defs>
      <path id="DejaVuSans-53" d="M 3425 4513 
L 3425 3897 
Q 3066 4069 2747 4153 
Q 2428 4238 2131 4238 
Q 1616 4238 1336 4038 
Q 1056 3838 1056 3469 
Q 1056 3159 1242 3001 
Q 1428 2844 1947 2747 
L 2328 2669 
Q 3034 2534 3370 2195 
Q 3706 1856 3706 1288 
Q 3706 609 3251 259 
Q 2797 -91 1919 -91 
Q 1588 -91 1214 -16 
Q 841 59 441 206 
L 441 856 
Q 825 641 1194 531 
Q 1563 422 1919 422 
Q 2459 422 2753 634 
Q 3047 847 3047 1241 
Q 3047 1584 2836 1778 
Q 2625 1972 2144 2069 
L 1759 2144 
Q 1053 2284 737 2584 
Q 422 2884 422 3419 
Q 422 4038 858 4394 
Q 1294 4750 2059 4750 
Q 2388 4750 2728 4690 
Q 3069 4631 3425 4513 
z
" transform="scale(0.015625)"/>
      <path id="DejaVuSans-69" d="M 603 3500 
L 1178 3500 
L 1178 0 
L 603 0 
L 603 3500 
z
M 603 4863 
L 1178 4863 
L 1178 4134 
L 603 4134 
L 603 4863 
z
" transform="scale(0.015625)"/>
      <path id="DejaVuSans-20" transform="scale(0.015625)"/>
      <path id="DejaVuSans-3a" d="M 750 794 
L 1409 794 
L 1409 0 
L 750 0 
L 750 794 
z
M 750 3309 
L 1409 3309 
L 1409 2516 
L 750 2516 
L 750 3309 
z
" transform="scale(0.015625)"/>
     </defs>
     <use xlink:href="#DejaVuSans-53"/>
     <use xlink:href="#DejaVuSans-69" transform="translate(63.476562 0)"/>
     <use xlink:href="#DejaVuSans-20" transform="translate(91.259766 0)"/>
     <use xlink:href="#DejaVuSans-44" transform="translate(123.046875 0)"/>
     <use xlink:href="#DejaVuSans-45" transform="translate(200.048828 0)"/>
     <use xlink:href="#DejaVuSans-20" transform="translate(263.232422 0)"/>
     <use xlink:href="#DejaVuSans-2225" transform="translate(295.019531 0)"/>
     <use xlink:href="#DejaVuSans-20" transform="translate(345.019531 0)"/>
     <use xlink:href="#DejaVuSans-42" transform="translate(376.806641 0)"/>
     <use xlink:href="#DejaVuSans-43" transform="translate(443.660156 0)"/>
     <use xlink:href="#DejaVuSans-3a" transform="translate(513.484375 0)"/>
    </g>
   </g>
   <g id="text_12">
    <!-- $\frac{AD}{DB} = \frac{AE}{EC}$ -->
    <g style="fill: #2563eb" transform="translate(176.61577 403.892585) scale(0.14 -0.14)">
     <defs>
      <path id="DejaVuSans-Oblique-41" d="M 2356 4666 
L 3072 4666 
L 3938 0 
L 3278 0 
L 3084 1197 
L 984 1197 
L 325 0 
L -341 0 
L 2356 4666 
z
M 2584 4044 
L 1275 1722 
L 2988 1722 
L 2584 4044 
z
" transform="scale(0.015625)"/>
      <path id="DejaVuSans-Oblique-44" d="M 1081 4666 
L 2438 4666 
Q 3519 4666 4070 4208 
Q 4622 3750 4622 2847 
Q 4622 2250 4412 1698 
Q 4203 1147 3834 769 
Q 3463 381 2891 190 
Q 2319 0 1538 0 
L 172 0 
L 1081 4666 
z
M 1613 4147 
L 909 519 
L 1734 519 
Q 2794 519 3375 1128 
Q 3956 1738 3956 2847 
Q 3956 3519 3581 3833 
Q 3206 4147 2406 4147 
L 1613 4147 
z
" transform="scale(0.015625)"/>
      <path id="DejaVuSans-Oblique-42" d="M 1081 4666 
L 2694 4666 
Q 3350 4666 3675 4422 
Q 4000 4178 4000 3688 
Q 4000 3238 3720 2911 
Q 3441 2584 2988 2516 
Q 3375 2428 3569 2181 
Q 3763 1934 3763 1522 
Q 3763 819 3242 409 
Q 2722 0 1819 0 
L 172 0 
L 1081 4666 
z
M 1234 2228 
L 903 519 
L 1919 519 
Q 2491 519 2800 781 
Q 3109 1044 3109 1522 
Q 3109 1891 2904 2059 
Q 2700 2228 2247 2228 
L 1234 2228 
z
M 1606 4147 
L 1331 2741 
L 2272 2741 
Q 2775 2741 3058 2959 
Q 3341 3178 3341 3566 
Q 3341 3869 3150 4008 
Q 2959 4147 2541 4147 
L 1606 4147 
z
" transform="scale(0.015625)"/>
      <path id="DejaVuSans-3d" d="M 678 2906 
L 4684 2906 
L 4684 2381 
L 678 2381 
L 678 2906 
z
M 678 1631 
L 4684 1631 
L 4684 1100 
L 678 1100 
L 678 1631 
z
" transform="scale(0.015625)"/>
      <path id="DejaVuSans-Oblique-45" d="M 1081 4666 
L 4031 4666 
L 3928 4134 
L 1606 4134 
L 1338 2753 
L 3566 2753 
L 3463 2222 
L 1234 2222 
L 909 531 
L 3284 531 
L 3181 0 
L 172 0 
L 1081 4666 
z
" transform="scale(0.015625)"/>
      <path id="DejaVuSans-Oblique-43" d="M 4447 4306 
L 4319 3641 
Q 4019 3944 3683 4091 
Q 3347 4238 2956 4238 
Q 2422 4238 2017 3981 
Q 1613 3725 1319 3200 
Q 1131 2863 1032 2486 
Q 934 2109 934 1728 
Q 934 1091 1264 756 
Q 1594 422 2222 422 
Q 2656 422 3056 561 
Q 3456 700 3834 978 
L 3688 231 
Q 3316 72 2936 -9 
Q 2556 -91 2175 -91 
Q 1278 -91 773 396 
Q 269 884 269 1753 
Q 269 2309 461 2846 
Q 653 3384 1013 3828 
Q 1394 4300 1883 4525 
Q 2372 4750 3022 4750 
Q 3422 4750 3780 4639 
Q 4138 4528 4447 4306 
z
" transform="scale(0.015625)"/>
     </defs>
     <use xlink:href="#DejaVuSans-Oblique-41" transform="translate(0 43.965625) scale(0.7)"/>
     <use xlink:href="#DejaVuSans-Oblique-44" transform="translate(47.885742 43.965625) scale(0.7)"/>
     <use xlink:href="#DejaVuSans-Oblique-44" transform="translate(0 -38.31875) scale(0.7)"/>
     <use xlink:href="#DejaVuSans-Oblique-42" transform="translate(53.901367 -38.31875) scale(0.7)"/>
     <use xlink:href="#DejaVuSans-3d" transform="translate(133.90625 0.16875)"/>
     <use xlink:href="#DejaVuSans-Oblique-41" transform="translate(237.177734 43.965625) scale(0.7)"/>
     <use xlink:href="#DejaVuSans-Oblique-45" transform="translate(285.063477 43.965625) scale(0.7)"/>
     <use xlink:href="#DejaVuSans-Oblique-45" transform="translate(237.177734 -39.2375) scale(0.7)"/>
     <use xlink:href="#DejaVuSans-Oblique-43" transform="translate(281.40625 -39.2375) scale(0.7)"/>
     <path d="M 0 18.965625 
L 0 25.215625 
L 101.923828 25.215625 
L 101.923828 18.965625 
L 0 18.965625 
z
"/>
     <path d="M 237.177734 18.965625 
L 237.177734 25.215625 
L 330.283203 25.215625 
L 330.283203 18.965625 
L 237.177734 18.965625 
z
"/>
    </g>
   </g>
   <g id="text_13">
    <!-- Teorema de Tales en Triángulo -->
    <g style="fill: #1f2937" transform="translate(98.16452 36.34798) scale(0.12 -0.12)">
     <defs>
      <path id="DejaVuSans-Bold-54" d="M 31 4666 
L 4331 4666 
L 4331 3756 
L 2784 3756 
L 2784 0 
L 1581 0 
L 1581 3756 
L 31 3756 
L 31 4666 
z
" transform="scale(0.015625)"/>
      <path id="DejaVuSans-Bold-65" d="M 4031 1759 
L 4031 1441 
L 1416 1441 
Q 1456 1047 1700 850 
Q 1944 653 2381 653 
Q 2734 653 3104 758 
Q 3475 863 3866 1075 
L 3866 213 
Q 3469 63 3072 -14 
Q 2675 -91 2278 -91 
Q 1328 -91 801 392 
Q 275 875 275 1747 
Q 275 2603 792 3093 
Q 1309 3584 2216 3584 
Q 3041 3584 3536 3087 
Q 4031 2591 4031 1759 
z
M 2881 2131 
Q 2881 2450 2695 2645 
Q 2509 2841 2209 2841 
Q 1884 2841 1681 2658 
Q 1478 2475 1428 2131 
L 2881 2131 
z
" transform="scale(0.015625)"/>
      <path id="DejaVuSans-Bold-6f" d="M 2203 2784 
Q 1831 2784 1636 2517 
Q 1441 2250 1441 1747 
Q 1441 1244 1636 976 
Q 1831 709 2203 709 
Q 2569 709 2762 976 
Q 2956 1244 2956 1747 
Q 2956 2250 2762 2517 
Q 2569 2784 2203 2784 
z
M 2203 3584 
Q 3106 3584 3614 3096 
Q 4122 2609 4122 1747 
Q 4122 884 3614 396 
Q 3106 -91 2203 -91 
Q 1297 -91 786 396 
Q 275 884 275 1747 
Q 275 2609 786 3096 
Q 1297 3584 2203 3584 
z
" transform="scale(0.015625)"/>
      <path id="DejaVuSans-Bold-72" d="M 3138 2547 
Q 2991 2616 2845 2648 
Q 2700 2681 2553 2681 
Q 2122 2681 1889 2404 
Q 1656 2128 1656 1613 
L 1656 0 
L 538 0 
L 538 3500 
L 1656 3500 
L 1656 2925 
Q 1872 3269 2151 3426 
Q 2431 3584 2822 3584 
Q 2878 3584 2943 3579 
Q 3009 3575 3134 3559 
L 3138 2547 
z
" transform="scale(0.015625)"/>
      <path id="DejaVuSans-Bold-6d" d="M 3781 2919 
Q 3994 3244 4286 3414 
Q 4578 3584 4928 3584 
Q 5531 3584 5847 3212 
Q 6163 2841 6163 2131 
L 6163 0 
L 5038 0 
L 5038 1825 
Q 5041 1866 5042 1909 
Q 5044 1953 5044 2034 
Q 5044 2406 4934 2573 
Q 4825 2741 4581 2741 
Q 4263 2741 4089 2478 
Q 3916 2216 3909 1719 
L 3909 0 
L 2784 0 
L 2784 1825 
Q 2784 2406 2684 2573 
Q 2584 2741 2328 2741 
Q 2006 2741 1831 2477 
Q 1656 2213 1656 1722 
L 1656 0 
L 531 0 
L 531 3500 
L 1656 3500 
L 1656 2988 
Q 1863 3284 2130 3434 
Q 2397 3584 2719 3584 
Q 3081 3584 3359 3409 
Q 3638 3234 3781 2919 
z
" transform="scale(0.015625)"/>
      <path id="DejaVuSans-Bold-61" d="M 2106 1575 
Q 1756 1575 1579 1456 
Q 1403 1338 1403 1106 
Q 1403 894 1545 773 
Q 1688 653 1941 653 
Q 2256 653 2472 879 
Q 2688 1106 2688 1447 
L 2688 1575 
L 2106 1575 
z
M 3816 1997 
L 3816 0 
L 2688 0 
L 2688 519 
Q 2463 200 2181 54 
Q 1900 -91 1497 -91 
Q 953 -91 614 226 
Q 275 544 275 1050 
Q 275 1666 698 1953 
Q 1122 2241 2028 2241 
L 2688 2241 
L 2688 2328 
Q 2688 2594 2478 2717 
Q 2269 2841 1825 2841 
Q 1466 2841 1156 2769 
Q 847 2697 581 2553 
L 581 3406 
Q 941 3494 1303 3539 
Q 1666 3584 2028 3584 
Q 2975 3584 3395 3211 
Q 3816 2838 3816 1997 
z
" transform="scale(0.015625)"/>
      <path id="DejaVuSans-Bold-20" transform="scale(0.015625)"/>
      <path id="DejaVuSans-Bold-64" d="M 2919 2988 
L 2919 4863 
L 4044 4863 
L 4044 0 
L 2919 0 
L 2919 506 
Q 2688 197 2409 53 
Q 2131 -91 1766 -91 
Q 1119 -91 703 423 
Q 288 938 288 1747 
Q 288 2556 703 3070 
Q 1119 3584 1766 3584 
Q 2128 3584 2408 3439 
Q 2688 3294 2919 2988 
z
M 2181 722 
Q 2541 722 2730 984 
Q 2919 1247 2919 1747 
Q 2919 2247 2730 2509 
Q 2541 2772 2181 2772 
Q 1825 2772 1636 2509 
Q 1447 2247 1447 1747 
Q 1447 1247 1636 984 
Q 1825 722 2181 722 
z
" transform="scale(0.015625)"/>
      <path id="DejaVuSans-Bold-6c" d="M 538 4863 
L 1656 4863 
L 1656 0 
L 538 0 
L 538 4863 
z
" transform="scale(0.015625)"/>
      <path id="DejaVuSans-Bold-73" d="M 3272 3391 
L 3272 2541 
Q 2913 2691 2578 2766 
Q 2244 2841 1947 2841 
Q 1628 2841 1473 2761 
Q 1319 2681 1319 2516 
Q 1319 2381 1436 2309 
Q 1553 2238 1856 2203 
L 2053 2175 
Q 2913 2066 3209 1816 
Q 3506 1566 3506 1031 
Q 3506 472 3093 190 
Q 2681 -91 1863 -91 
Q 1516 -91 1145 -36 
Q 775 19 384 128 
L 384 978 
Q 719 816 1070 734 
Q 1422 653 1784 653 
Q 2113 653 2278 743 
Q 2444 834 2444 1013 
Q 2444 1163 2330 1236 
Q 2216 1309 1875 1350 
L 1678 1375 
Q 931 1469 631 1722 
Q 331 1975 331 2491 
Q 331 3047 712 3315 
Q 1094 3584 1881 3584 
Q 2191 3584 2531 3537 
Q 2872 3491 3272 3391 
z
" transform="scale(0.015625)"/>
      <path id="DejaVuSans-Bold-6e" d="M 4056 2131 
L 4056 0 
L 2931 0 
L 2931 347 
L 2931 1631 
Q 2931 2084 2911 2256 
Q 2891 2428 2841 2509 
Q 2775 2619 2662 2680 
Q 2550 2741 2406 2741 
Q 2056 2741 1856 2470 
Q 1656 2200 1656 1722 
L 1656 0 
L 538 0 
L 538 3500 
L 1656 3500 
L 1656 2988 
Q 1909 3294 2193 3439 
Q 2478 3584 2822 3584 
Q 3428 3584 3742 3212 
Q 4056 2841 4056 2131 
z
" transform="scale(0.015625)"/>
      <path id="DejaVuSans-Bold-69" d="M 538 3500 
L 1656 3500 
L 1656 0 
L 538 0 
L 538 3500 
z
M 538 4863 
L 1656 4863 
L 1656 3950 
L 538 3950 
L 538 4863 
z
" transform="scale(0.015625)"/>
      <path id="DejaVuSans-Bold-e1" d="M 2106 1575 
Q 1756 1575 1579 1456 
Q 1403 1338 1403 1106 
Q 1403 894 1545 773 
Q 1688 653 1941 653 
Q 2256 653 2472 879 
Q 2688 1106 2688 1447 
L 2688 1575 
L 2106 1575 
z
M 3816 1997 
L 3816 0 
L 2688 0 
L 2688 519 
Q 2463 200 2181 54 
Q 1900 -91 1497 -91 
Q 953 -91 614 226 
Q 275 544 275 1050 
Q 275 1666 698 1953 
Q 1122 2241 2028 2241 
L 2688 2241 
L 2688 2328 
Q 2688 2594 2478 2717 
Q 2269 2841 1825 2841 
Q 1466 2841 1156 2769 
Q 847 2697 581 2553 
L 581 3406 
Q 941 3494 1303 3539 
Q 1666 3584 2028 3584 
Q 2975 3584 3395 3211 
Q 3816 2838 3816 1997 
z
M 2606 5119 
L 3490 5119 
L 2337 3944 
L 1725 3944 
L 2606 5119 
z
" transform="scale(0.015625)"/>
      <path id="DejaVuSans-Bold-67" d="M 2919 594 
Q 2688 288 2409 144 
Q 2131 0 1766 0 
Q 1125 0 706 504 
Q 288 1009 288 1791 
Q 288 2575 706 3076 
Q 1125 3578 1766 3578 
Q 2131 3578 2409 3434 
Q 2688 3291 2919 2981 
L 2919 3500 
L 4044 3500 
L 4044 353 
Q 4044 -491 3511 -936 
Q 2978 -1381 1966 -1381 
Q 1638 -1381 1331 -1331 
Q 1025 -1281 716 -1178 
L 716 -306 
Q 1009 -475 1290 -558 
Q 1572 -641 1856 -641 
Q 2406 -641 2662 -400 
Q 2919 -159 2919 353 
L 2919 594 
z
M 2181 2772 
Q 1834 2772 1640 2515 
Q 1447 2259 1447 1791 
Q 1447 1309 1634 1061 
Q 1822 813 2181 813 
Q 2531 813 2725 1069 
Q 2919 1325 2919 1791 
Q 2919 2259 2725 2515 
Q 2531 2772 2181 2772 
z
" transform="scale(0.015625)"/>
      <path id="DejaVuSans-Bold-75" d="M 500 1363 
L 500 3500 
L 1625 3500 
L 1625 3150 
Q 1625 2866 1622 2436 
Q 1619 2006 1619 1863 
Q 1619 1441 1641 1255 
Q 1663 1069 1716 984 
Q 1784 875 1895 815 
Q 2006 756 2150 756 
Q 2500 756 2700 1025 
Q 2900 1294 2900 1772 
L 2900 3500 
L 4019 3500 
L 4019 0 
L 2900 0 
L 2900 506 
Q 2647 200 2364 54 
Q 2081 -91 1741 -91 
Q 1134 -91 817 281 
Q 500 653 500 1363 
z
" transform="scale(0.015625)"/>
     </defs>
     <use xlink:href="#DejaVuSans-Bold-54"/>
     <use xlink:href="#DejaVuSans-Bold-65" transform="translate(54.962891 0)"/>
     <use xlink:href="#DejaVuSans-Bold-6f" transform="translate(122.785156 0)"/>
     <use xlink:href="#DejaVuSans-Bold-72" transform="translate(191.486328 0)"/>
     <use xlink:href="#DejaVuSans-Bold-65" transform="translate(240.802734 0)"/>
     <use xlink:href="#DejaVuSans-Bold-6d" transform="translate(308.625 0)"/>
     <use xlink:href="#DejaVuSans-Bold-61" transform="translate(412.824219 0)"/>
     <use xlink:href="#DejaVuSans-Bold-20" transform="translate(480.304688 0)"/>
     <use xlink:href="#DejaVuSans-Bold-64" transform="translate(515.119141 0)"/>
     <use xlink:href="#DejaVuSans-Bold-65" transform="translate(586.701172 0)"/>
     <use xlink:href="#DejaVuSans-Bold-20" transform="translate(654.523438 0)"/>
     <use xlink:href="#DejaVuSans-Bold-54" transform="translate(689.337891 0)"/>
     <use xlink:href="#DejaVuSans-Bold-61" transform="translate(744.675781 0)"/>
     <use xlink:href="#DejaVuSans-Bold-6c" transform="translate(812.15625 0)"/>
     <use xlink:href="#DejaVuSans-Bold-65" transform="translate(846.433594 0)"/>
     <use xlink:href="#DejaVuSans-Bold-73" transform="translate(914.255859 0)"/>
     <use xlink:href="#DejaVuSans-Bold-20" transform="translate(973.777344 0)"/>
     <use xlink:href="#DejaVuSans-Bold-65" transform="translate(1008.591797 0)"/>
     <use xlink:href="#DejaVuSans-Bold-6e" transform="translate(1076.414062 0)"/>
     <use xlink:href="#DejaVuSans-Bold-20" transform="translate(1147.605469 0)"/>
     <use xlink:href="#DejaVuSans-Bold-54" transform="translate(1182.419922 0)"/>
     <use xlink:href="#DejaVuSans-Bold-72" transform="translate(1239.632812 0)"/>
     <use xlink:href="#DejaVuSans-Bold-69" transform="translate(1288.949219 0)"/>
     <use xlink:href="#DejaVuSans-Bold-e1" transform="translate(1323.226562 0)"/>
     <use xlink:href="#DejaVuSans-Bold-6e" transform="translate(1390.707031 0)"/>
     <use xlink:href="#DejaVuSans-Bold-67" transform="translate(1461.898438 0)"/>
     <use xlink:href="#DejaVuSans-Bold-75" transform="translate(1533.480469 0)"/>
     <use xlink:href="#DejaVuSans-Bold-6c" transform="translate(1604.671875 0)"/>
     <use xlink:href="#DejaVuSans-Bold-6f" transform="translate(1638.949219 0)"/>
    </g>
   </g>
  </g>
  <g id="axes_2">
   <g id="line2d_12">
    <path d="M 552.559097 319.046607 
L 860.771963 319.046607 
" clip-path="url(#pc61e7535ad)" style="fill: none; stroke: #374151; stroke-width: 2; stroke-linecap: square"/>
   </g>
   <g id="line2d_13">
    <path d="M 552.559097 223.919179 
L 860.771963 223.919179 
" clip-path="url(#pc61e7535ad)" style="fill: none; stroke: #374151; stroke-width: 2; stroke-linecap: square"/>
   </g>
   <g id="line2d_14">
    <path d="M 552.559097 97.082608 
L 860.771963 97.082608 
" clip-path="url(#pc61e7535ad)" style="fill: none; stroke: #374151; stroke-width: 2; stroke-linecap: square"/>
   </g>
   <g id="line2d_15">
    <path d="M 605.196274 319.046607 
L 668.614559 223.919179 
L 763.741987 97.082608 
" clip-path="url(#pc61e7535ad)" style="fill: none; stroke: #2563eb; stroke-width: 2.5; stroke-linecap: square"/>
   </g>
   <g id="line2d_16">
    <defs>
     <path id="m3c2ccc114a" d="M 0 3.5 
C 0.928211 3.5 1.81853 3.131218 2.474874 2.474874 
C 3.131218 1.81853 3.5 0.928211 3.5 0 
C 3.5 -0.928211 3.131218 -1.81853 2.474874 -2.474874 
C 1.81853 -3.131218 0.928211 -3.5 0 -3.5 
C -0.928211 -3.5 -1.81853 -3.131218 -2.474874 -2.474874 
C -3.131218 -1.81853 -3.5 -0.928211 -3.5 0 
C -3.5 0.928211 -3.131218 1.81853 -2.474874 2.474874 
C -1.81853 3.131218 -0.928211 3.5 0 3.5 
z
" style="stroke: #2563eb"/>
    </defs>
    <g clip-path="url(#pc61e7535ad)">
     <use xlink:href="#m3c2ccc114a" x="605.196274" y="319.046607" style="fill: #2563eb; stroke: #2563eb"/>
    </g>
   </g>
   <g id="line2d_17">
    <g clip-path="url(#pc61e7535ad)">
     <use xlink:href="#m3c2ccc114a" x="668.614559" y="223.919179" style="fill: #2563eb; stroke: #2563eb"/>
    </g>
   </g>
   <g id="line2d_18">
    <g clip-path="url(#pc61e7535ad)">
     <use xlink:href="#m3c2ccc114a" x="763.741987" y="97.082608" style="fill: #2563eb; stroke: #2563eb"/>
    </g>
   </g>
   <g id="line2d_19">
    <path d="M 700.323701 319.046607 
L 751.05833 223.919179 
L 827.160272 97.082608 
" clip-path="url(#pc61e7535ad)" style="fill: none; stroke: #dc2626; stroke-width: 2.5; stroke-linecap: square"/>
   </g>
   <g id="line2d_20">
    <defs>
     <path id="m3b9e74a96a" d="M 0 3.5 
C 0.928211 3.5 1.81853 3.131218 2.474874 2.474874 
C 3.131218 1.81853 3.5 0.928211 3.5 0 
C 3.5 -0.928211 3.131218 -1.81853 2.474874 -2.474874 
C 1.81853 -3.131218 0.928211 -3.5 0 -3.5 
C -0.928211 -3.5 -1.81853 -3.131218 -2.474874 -2.474874 
C -3.131218 -1.81853 -3.5 -0.928211 -3.5 0 
C -3.5 0.928211 -3.131218 1.81853 -2.474874 2.474874 
C -1.81853 3.131218 -0.928211 3.5 0 3.5 
z
" style="stroke: #dc2626"/>
    </defs>
    <g clip-path="url(#pc61e7535ad)">
     <use xlink:href="#m3b9e74a96a" x="700.323701" y="319.046607" style="fill: #dc2626; stroke: #dc2626"/>
    </g>
   </g>
   <g id="line2d_21">
    <g clip-path="url(#pc61e7535ad)">
     <use xlink:href="#m3b9e74a96a" x="751.05833" y="223.919179" style="fill: #dc2626; stroke: #dc2626"/>
    </g>
   </g>
   <g id="line2d_22">
    <g clip-path="url(#pc61e7535ad)">
     <use xlink:href="#m3b9e74a96a" x="827.160272" y="97.082608" style="fill: #dc2626; stroke: #dc2626"/>
    </g>
   </g>
   <g id="text_14">
    <!-- ℓ₁ -->
    <g style="fill: #374151" transform="translate(554.461645 319.046607) scale(0.11 -0.11)">
     <defs>
      <path id="DejaVuSans-2113" d="M 950 838 
Q 1078 213 1350 213 
Q 1531 213 1766 572 
L 2181 572 
Q 1994 253 1775 88 
Q 1538 -91 1319 -91 
Q 831 -91 634 344 
L 400 0 
L -88 0 
Q 250 459 500 888 
Q 469 1131 469 1397 
Q 469 1872 566 2347 
Q 931 4131 1256 4497 
Q 1481 4750 1866 4750 
Q 2256 4750 2256 4209 
Q 2253 3966 2197 3675 
Q 1972 2484 950 838 
z
M 947 1656 
Q 1531 2744 1709 3613 
Q 1803 4072 1803 4191 
Q 1803 4406 1725 4406 
Q 1384 4134 1081 2516 
Q 997 2063 947 1656 
z
" transform="scale(0.015625)"/>
      <path id="DejaVuSans-2081" d="M 488 319 
L 1125 319 
L 1125 2229 
L 428 2101 
L 428 2463 
L 1147 2585 
L 1575 2585 
L 1575 319 
L 2216 319 
L 2216 -24 
L 488 -24 
L 488 319 
z
" transform="scale(0.015625)"/>
     </defs>
     <use xlink:href="#DejaVuSans-2113"/>
     <use xlink:href="#DejaVuSans-2081" transform="translate(41.308594 0)"/>
    </g>
   </g>
   <g id="text_15">
    <!-- ℓ₂ -->
    <g style="fill: #374151" transform="translate(554.461645 223.919179) scale(0.11 -0.11)">
     <defs>
      <path id="DejaVuSans-2082" d="M 838 332 
L 2163 332 
L 2163 -24 
L 294 -24 
L 294 319 
Q 400 416 597 591 
Q 1672 1544 1672 1838 
Q 1672 2044 1509 2170 
Q 1347 2297 1081 2297 
Q 919 2297 728 2242 
Q 538 2188 313 2079 
L 313 2463 
Q 553 2551 761 2594 
Q 969 2638 1147 2638 
Q 1600 2638 1872 2432 
Q 2144 2226 2144 1888 
Q 2144 1454 1109 566 
Q 934 416 838 332 
z
" transform="scale(0.015625)"/>
     </defs>
     <use xlink:href="#DejaVuSans-2113"/>
     <use xlink:href="#DejaVuSans-2082" transform="translate(41.308594 0)"/>
    </g>
   </g>
   <g id="text_16">
    <!-- ℓ₃ -->
    <g style="fill: #374151" transform="translate(554.461645 97.082608) scale(0.11 -0.11)">
     <defs>
      <path id="DejaVuSans-2083" d="M 1638 1388 
Q 1925 1332 2083 1161 
Q 2241 991 2241 735 
Q 2241 347 1944 138 
Q 1647 -71 1094 -71 
Q 916 -71 720 -38 
Q 525 -6 306 57 
L 306 435 
Q 469 351 655 310 
Q 841 269 1050 269 
Q 1391 269 1578 392 
Q 1766 516 1766 735 
Q 1766 966 1592 1085 
Q 1419 1204 1081 1204 
L 813 1204 
L 813 1541 
L 1106 1541 
Q 1400 1541 1551 1639 
Q 1703 1738 1703 1926 
Q 1703 2107 1547 2202 
Q 1391 2297 1094 2297 
Q 969 2297 809 2269 
Q 650 2241 397 2169 
L 397 2529 
Q 625 2582 825 2610 
Q 1025 2638 1197 2638 
Q 1647 2638 1911 2453 
Q 2175 2269 2175 1960 
Q 2175 1744 2034 1594 
Q 1894 1444 1638 1388 
z
" transform="scale(0.015625)"/>
     </defs>
     <use xlink:href="#DejaVuSans-2113"/>
     <use xlink:href="#DejaVuSans-2083" transform="translate(41.308594 0)"/>
    </g>
   </g>
   <g id="text_17">
    <!-- A -->
    <g style="fill: #1f2937" transform="translate(595.434133 341.243006) scale(0.1 -0.1)">
     <use xlink:href="#DejaVuSans-41"/>
    </g>
   </g>
   <g id="text_18">
    <!-- B -->
    <g style="fill: #1f2937" transform="translate(658.842262 246.115579) scale(0.1 -0.1)">
     <use xlink:href="#DejaVuSans-42"/>
    </g>
   </g>
   <g id="text_19">
    <!-- C -->
    <g style="fill: #1f2937" transform="translate(753.908752 84.398951) scale(0.1 -0.1)">
     <use xlink:href="#DejaVuSans-43"/>
    </g>
   </g>
   <g id="text_20">
    <!-- A' -->
    <g style="fill: #1f2937" transform="translate(701.870999 341.243006) scale(0.1 -0.1)">
     <defs>
      <path id="DejaVuSans-27" d="M 1147 4666 
L 1147 2931 
L 616 2931 
L 616 4666 
L 1147 4666 
z
" transform="scale(0.015625)"/>
     </defs>
     <use xlink:href="#DejaVuSans-41"/>
     <use xlink:href="#DejaVuSans-27" transform="translate(68.408203 0)"/>
    </g>
   </g>
   <g id="text_21">
    <!-- B' -->
    <g style="fill: #1f2937" transform="translate(752.595471 246.115579) scale(0.1 -0.1)">
     <use xlink:href="#DejaVuSans-42"/>
     <use xlink:href="#DejaVuSans-27" transform="translate(68.603516 0)"/>
    </g>
   </g>
   <g id="text_22">
    <!-- C' -->
    <g style="fill: #1f2937" transform="translate(828.636475 84.398951) scale(0.1 -0.1)">
     <use xlink:href="#DejaVuSans-43"/>
     <use xlink:href="#DejaVuSans-27" transform="translate(69.824219 0)"/>
    </g>
   </g>
   <g id="text_23">
    <!-- a -->
    <g style="fill: #059669" transform="translate(624.221759 271.482893) scale(0.11 -0.11)">
     <use xlink:href="#DejaVuSans-Bold-61"/>
    </g>
   </g>
   <g id="text_24">
    <!-- b -->
    <g style="fill: #059669" transform="translate(700.323701 160.500893) scale(0.11 -0.11)">
     <defs>
      <path id="DejaVuSans-Bold-62" d="M 2400 722 
Q 2759 722 2948 984 
Q 3138 1247 3138 1747 
Q 3138 2247 2948 2509 
Q 2759 2772 2400 2772 
Q 2041 2772 1848 2508 
Q 1656 2244 1656 1747 
Q 1656 1250 1848 986 
Q 2041 722 2400 722 
z
M 1656 2988 
Q 1888 3294 2169 3439 
Q 2450 3584 2816 3584 
Q 3463 3584 3878 3070 
Q 4294 2556 4294 1747 
Q 4294 938 3878 423 
Q 3463 -91 2816 -91 
Q 2450 -91 2169 54 
Q 1888 200 1656 506 
L 1656 0 
L 538 0 
L 538 4863 
L 1656 4863 
L 1656 2988 
z
" transform="scale(0.015625)"/>
     </defs>
     <use xlink:href="#DejaVuSans-Bold-62"/>
    </g>
   </g>
   <g id="text_25">
    <!-- a' -->
    <g style="fill: #7c3aed" transform="translate(713.007359 271.482893) scale(0.11 -0.11)">
     <defs>
      <path id="DejaVuSans-Bold-27" d="M 1350 4666 
L 1350 2931 
L 609 2931 
L 609 4666 
L 1350 4666 
z
" transform="scale(0.015625)"/>
     </defs>
     <use xlink:href="#DejaVuSans-Bold-61"/>
     <use xlink:href="#DejaVuSans-Bold-27" transform="translate(67.480469 0)"/>
    </g>
   </g>
   <g id="text_26">
    <!-- b' -->
    <g style="fill: #7c3aed" transform="translate(776.425644 160.500893) scale(0.11 -0.11)">
     <use xlink:href="#DejaVuSans-Bold-62"/>
     <use xlink:href="#DejaVuSans-Bold-27" transform="translate(71.582031 0)"/>
    </g>
   </g>
   <g id="text_27">
    <!-- Si ℓ₁ ∥ ℓ₂ ∥ ℓ₃: -->
    <g style="fill: #374151" transform="translate(681.633976 369.781235) scale(0.11 -0.11)">
     <use xlink:href="#DejaVuSans-53"/>
     <use xlink:href="#DejaVuSans-69" transform="translate(63.476562 0)"/>
     <use xlink:href="#DejaVuSans-20" transform="translate(91.259766 0)"/>
     <use xlink:href="#DejaVuSans-2113" transform="translate(123.046875 0)"/>
     <use xlink:href="#DejaVuSans-2081" transform="translate(164.355469 0)"/>
     <use xlink:href="#DejaVuSans-20" transform="translate(204.443359 0)"/>
     <use xlink:href="#DejaVuSans-2225" transform="translate(236.230469 0)"/>
     <use xlink:href="#DejaVuSans-20" transform="translate(286.230469 0)"/>
     <use xlink:href="#DejaVuSans-2113" transform="translate(318.017578 0)"/>
     <use xlink:href="#DejaVuSans-2082" transform="translate(359.326172 0)"/>
     <use xlink:href="#DejaVuSans-20" transform="translate(399.414062 0)"/>
     <use xlink:href="#DejaVuSans-2225" transform="translate(431.201172 0)"/>
     <use xlink:href="#DejaVuSans-20" transform="translate(481.201172 0)"/>
     <use xlink:href="#DejaVuSans-2113" transform="translate(512.988281 0)"/>
     <use xlink:href="#DejaVuSans-2083" transform="translate(554.296875 0)"/>
     <use xlink:href="#DejaVuSans-3a" transform="translate(594.384766 0)"/>
    </g>
   </g>
   <g id="text_28">
    <!-- $\frac{a}{b} = \frac{a'}{b'}$ -->
    <g style="fill: #2563eb" transform="translate(698.118273 401.490377) scale(0.14 -0.14)">
     <defs>
      <path id="DejaVuSans-Oblique-61" d="M 3438 1997 
L 3047 0 
L 2472 0 
L 2578 531 
Q 2325 219 2001 64 
Q 1678 -91 1281 -91 
Q 834 -91 548 182 
Q 263 456 263 884 
Q 263 1497 752 1853 
Q 1241 2209 2100 2209 
L 2900 2209 
L 2931 2363 
Q 2938 2388 2941 2417 
Q 2944 2447 2944 2509 
Q 2944 2788 2717 2942 
Q 2491 3097 2081 3097 
Q 1800 3097 1504 3025 
Q 1209 2953 897 2809 
L 997 3341 
Q 1322 3463 1633 3523 
Q 1944 3584 2234 3584 
Q 2853 3584 3176 3315 
Q 3500 3047 3500 2534 
Q 3500 2431 3484 2292 
Q 3469 2153 3438 1997 
z
M 2816 1759 
L 2241 1759 
Q 1534 1759 1195 1570 
Q 856 1381 856 984 
Q 856 709 1029 553 
Q 1203 397 1509 397 
Q 1978 397 2328 733 
Q 2678 1069 2791 1631 
L 2816 1759 
z
" transform="scale(0.015625)"/>
      <path id="DejaVuSans-Oblique-62" d="M 3169 2138 
Q 3169 2591 2961 2847 
Q 2753 3103 2388 3103 
Q 2122 3103 1889 2973 
Q 1656 2844 1484 2597 
Q 1303 2338 1198 1995 
Q 1094 1653 1094 1313 
Q 1094 881 1298 636 
Q 1503 391 1863 391 
Q 2134 391 2365 517 
Q 2597 644 2772 891 
Q 2950 1147 3059 1487 
Q 3169 1828 3169 2138 
z
M 1381 2969 
Q 1594 3256 1914 3420 
Q 2234 3584 2584 3584 
Q 3122 3584 3439 3221 
Q 3756 2859 3756 2241 
Q 3756 1734 3570 1259 
Q 3384 784 3041 416 
Q 2816 172 2522 40 
Q 2228 -91 1906 -91 
Q 1566 -91 1316 65 
Q 1066 222 909 531 
L 806 0 
L 231 0 
L 1178 4863 
L 1753 4863 
L 1381 2969 
z
" transform="scale(0.015625)"/>
      <path id="Cmsy10-30" d="M 225 347 
Q 184 359 184 409 
L 966 3316 
Q 1003 3434 1093 3506 
Q 1184 3578 1300 3578 
Q 1450 3578 1564 3479 
Q 1678 3381 1678 3231 
Q 1678 3166 1644 3084 
L 488 319 
Q 466 275 428 275 
Q 394 275 320 306 
Q 247 338 225 347 
z
" transform="scale(0.015625)"/>
     </defs>
     <use xlink:href="#DejaVuSans-Oblique-61" transform="translate(1 44.809063) scale(0.7)"/>
     <use xlink:href="#DejaVuSans-Oblique-62" transform="translate(0 -40.625312) scale(0.7)"/>
     <use xlink:href="#DejaVuSans-3d" transform="translate(76.416016 0.016875)"/>
     <use xlink:href="#DejaVuSans-Oblique-61" transform="translate(181.6875 44.809062) scale(0.7)"/>
     <use xlink:href="#Cmsy10-30" transform="translate(227.837935 71.605937) scale(0.49)"/>
     <use xlink:href="#DejaVuSans-Oblique-62" transform="translate(179.6875 -41.627187) scale(0.7)"/>
     <use xlink:href="#Cmsy10-30" transform="translate(229.33449 -14.830313) scale(0.49)"/>
     <path d="M 0 18.81375 
L 0 25.06375 
L 44.433594 25.06375 
L 44.433594 18.81375 
L 0 18.81375 
z
"/>
     <path d="M 179.6875 18.81375 
L 179.6875 25.06375 
L 244.718767 25.06375 
L 244.718767 18.81375 
L 179.6875 18.81375 
z
"/>
    </g>
   </g>
   <g id="text_29">
    <!-- Teorema de Tales General -->
    <g style="fill: #1f2937" transform="translate(619.74803 36.34798) scale(0.12 -0.12)">
     <defs>
      <path id="DejaVuSans-Bold-47" d="M 4781 347 
Q 4331 128 3847 18 
Q 3363 -91 2847 -91 
Q 1681 -91 1000 561 
Q 319 1213 319 2328 
Q 319 3456 1012 4103 
Q 1706 4750 2913 4750 
Q 3378 4750 3804 4662 
Q 4231 4575 4609 4403 
L 4609 3438 
Q 4219 3659 3833 3768 
Q 3447 3878 3059 3878 
Q 2341 3878 1952 3476 
Q 1563 3075 1563 2328 
Q 1563 1588 1938 1184 
Q 2313 781 3003 781 
Q 3191 781 3352 804 
Q 3513 828 3641 878 
L 3641 1784 
L 2906 1784 
L 2906 2591 
L 4781 2591 
L 4781 347 
z
" transform="scale(0.015625)"/>
     </defs>
     <use xlink:href="#DejaVuSans-Bold-54"/>
     <use xlink:href="#DejaVuSans-Bold-65" transform="translate(54.962891 0)"/>
     <use xlink:href="#DejaVuSans-Bold-6f" transform="translate(122.785156 0)"/>
     <use xlink:href="#DejaVuSans-Bold-72" transform="translate(191.486328 0)"/>
     <use xlink:href="#DejaVuSans-Bold-65" transform="translate(240.802734 0)"/>
     <use xlink:href="#DejaVuSans-Bold-6d" transform="translate(308.625 0)"/>
     <use xlink:href="#DejaVuSans-Bold-61" transform="translate(412.824219 0)"/>
     <use xlink:href="#DejaVuSans-Bold-20" transform="translate(480.304688 0)"/>
     <use xlink:href="#DejaVuSans-Bold-64" transform="translate(515.119141 0)"/>
     <use xlink:href="#DejaVuSans-Bold-65" transform="translate(586.701172 0)"/>
     <use xlink:href="#DejaVuSans-Bold-20" transform="translate(654.523438 0)"/>
     <use xlink:href="#DejaVuSans-Bold-54" transform="translate(689.337891 0)"/>
     <use xlink:href="#DejaVuSans-Bold-61" transform="translate(744.675781 0)"/>
     <use xlink:href="#DejaVuSans-Bold-6c" transform="translate(812.15625 0)"/>
     <use xlink:href="#DejaVuSans-Bold-65" transform="translate(846.433594 0)"/>
     <use xlink:href="#DejaVuSans-Bold-73" transform="translate(914.255859 0)"/>
     <use xlink:href="#DejaVuSans-Bold-20" transform="translate(973.777344 0)"/>
     <use xlink:href="#DejaVuSans-Bold-47" transform="translate(1008.591797 0)"/>
     <use xlink:href="#DejaVuSans-Bold-65" transform="translate(1090.671875 0)"/>
     <use xlink:href="#DejaVuSans-Bold-6e" transform="translate(1158.494141 0)"/>
     <use xlink:href="#DejaVuSans-Bold-65" transform="translate(1229.685547 0)"/>
     <use xlink:href="#DejaVuSans-Bold-72" transform="translate(1297.507812 0)"/>
     <use xlink:href="#DejaVuSans-Bold-61" transform="translate(1346.824219 0)"/>
     <use xlink:href="#DejaVuSans-Bold-6c" transform="translate(1414.304688 0)"/>
    </g>
   </g>
  </g>
  <g id="text_30">
   <!-- Teorema de Tales -->
   <g style="fill: #1f2937" transform="translate(385.478775 17.837812) scale(0.14 -0.14)">
    <use xlink:href="#DejaVuSans-Bold-54"/>
    <use xlink:href="#DejaVuSans-Bold-65" transform="translate(54.962891 0)"/>
    <use xlink:href="#DejaVuSans-Bold-6f" transform="translate(122.785156 0)"/>
    <use xlink:href="#DejaVuSans-Bold-72" transform="translate(191.486328 0)"/>
    <use xlink:href="#DejaVuSans-Bold-65" transform="translate(240.802734 0)"/>
    <use xlink:href="#DejaVuSans-Bold-6d" transform="translate(308.625 0)"/>
    <use xlink:href="#DejaVuSans-Bold-61" transform="translate(412.824219 0)"/>
    <use xlink:href="#DejaVuSans-Bold-20" transform="translate(480.304688 0)"/>
    <use xlink:href="#DejaVuSans-Bold-64" transform="translate(515.119141 0)"/>
    <use xlink:href="#DejaVuSans-Bold-65" transform="translate(586.701172 0)"/>
    <use xlink:href="#DejaVuSans-Bold-20" transform="translate(654.523438 0)"/>
    <use xlink:href="#DejaVuSans-Bold-54" transform="translate(689.337891 0)"/>
    <use xlink:href="#DejaVuSans-Bold-61" transform="translate(744.675781 0)"/>
    <use xlink:href="#DejaVuSans-Bold-6c" transform="translate(812.15625 0)"/>
    <use xlink:href="#DejaVuSans-Bold-65" transform="translate(846.433594 0)"/>
    <use xlink:href="#DejaVuSans-Bold-73" transform="translate(914.255859 0)"/>
   </g>
  </g>
 </g>
 <defs>
  <clipPath id="p13d1989609">
   <rect x="7.2" y="46.34798" width="386.85154" height="386.85154"/>
  </clipPath>
  <clipPath id="pc61e7535ad">
   <rect x="535.43616" y="46.34798" width="342.45874" height="386.85154"/>
  </clipPath>
 </defs>
</svg>
