<?xml version="1.0" encoding="utf-8" standalone="no"?>
<!DOCTYPE svg PUBLIC "-//W3C//DTD SVG 1.1//EN"
  "http://www.w3.org/Graphics/SVG/1.1/DTD/svg11.dtd">
<svg xmlns:xlink="http://www.w3.org/1999/xlink" width="852.48pt" height="790.375994pt" viewBox="0 0 852.48 790.375994" xmlns="http://www.w3.org/2000/svg" version="1.1">
 <metadata>
  <rdf:RDF xmlns:dc="http://purl.org/dc/elements/1.1/" xmlns:cc="http://creativecommons.org/ns#" xmlns:rdf="http://www.w3.org/1999/02/22-rdf-syntax-ns#">
   <cc:Work>
    <dc:type rdf:resource="http://purl.org/dc/dcmitype/StillImage"/>
    <dc:date>2026-01-03T16:49:18.913167</dc:date>
    <dc:format>image/svg+xml</dc:format>
    <dc:creator>
     <cc:Agent>
      <dc:title>Repositorio Matemáticas Universitarias</dc:title>
     </cc:Agent>
    </dc:creator>
   </cc:Work>
  </rdf:RDF>
 </metadata>
 <defs>
  <style type="text/css">*{stroke-linejoin: round; stroke-linecap: butt}</style>
 </defs>
 <g id="figure_1">
  <g id="patch_1">
   <path d="M 0 790.375994 
L 852.48 790.375994 
L 852.48 0 
L 0 0 
z
" style="fill: #ffffff"/>
  </g>
  <g id="axes_1">
   <g id="patch_2">
    <path d="M 75.96 302.877812 
L 351 302.877812 
L 167.64 96.597812 
z
" clip-path="url(#pda31ec41c6)" style="fill: #2563eb; opacity: 0.1; stroke: #2563eb; stroke-width: 2; stroke-linejoin: miter"/>
   </g>
   <g id="line2d_1">
    <path d="M 167.64 96.597812 
L 213.48 302.877812 
" clip-path="url(#pda31ec41c6)" style="fill: none; stroke: #059669; stroke-width: 2.5; stroke-linecap: square"/>
   </g>
   <g id="line2d_2">
    <defs>
     <path id="m7704160dcd" d="M 0 4 
C 1.060812 4 2.078319 3.578535 2.828427 2.828427 
C 3.578535 2.078319 4 1.060812 4 0 
C 4 -1.060812 3.578535 -2.078319 2.828427 -2.828427 
C 2.078319 -3.578535 1.060812 -4 0 -4 
C -1.060812 -4 -2.078319 -3.578535 -2.828427 -2.828427 
C -3.578535 -2.078319 -4 -1.060812 -4 0 
C -4 1.060812 -3.578535 2.078319 -2.828427 2.828427 
C -2.078319 3.578535 -1.060812 4 0 4 
z
" style="stroke: #059669"/>
    </defs>
    <g clip-path="url(#pda31ec41c6)">
     <use xlink:href="#m7704160dcd" x="213.48" y="302.877812" style="fill: #059669; stroke: #059669"/>
    </g>
   </g>
   <g id="text_1">
    <!-- $A$ -->
    <g style="fill: #1f2937" transform="translate(62.208 316.629812) scale(0.13 -0.13)">
     <defs>
      <path id="DejaVuSans-Oblique-41" d="M 2356 4666 
L 3072 4666 
L 3938 0 
L 3278 0 
L 3084 1197 
L 984 1197 
L 325 0 
L -341 0 
L 2356 4666 
z
M 2584 4044 
L 1275 1722 
L 2988 1722 
L 2584 4044 
z
" transform="scale(0.015625)"/>
     </defs>
     <use xlink:href="#DejaVuSans-Oblique-41" transform="translate(0 0.09375)"/>
    </g>
   </g>
   <g id="text_2">
    <!-- $B$ -->
    <g style="fill: #1f2937" transform="translate(360.168 316.629812) scale(0.13 -0.13)">
     <defs>
      <path id="DejaVuSans-Oblique-42" d="M 1081 4666 
L 2694 4666 
Q 3350 4666 3675 4422 
Q 4000 4178 4000 3688 
Q 4000 3238 3720 2911 
Q 3441 2584 2988 2516 
Q 3375 2428 3569 2181 
Q 3763 1934 3763 1522 
Q 3763 819 3242 409 
Q 2722 0 1819 0 
L 172 0 
L 1081 4666 
z
M 1234 2228 
L 903 519 
L 1919 519 
Q 2491 519 2800 781 
Q 3109 1044 3109 1522 
Q 3109 1891 2904 2059 
Q 2700 2228 2247 2228 
L 1234 2228 
z
M 1606 4147 
L 1331 2741 
L 2272 2741 
Q 2775 2741 3058 2959 
Q 3341 3178 3341 3566 
Q 3341 3869 3150 4008 
Q 2959 4147 2541 4147 
L 1606 4147 
z
" transform="scale(0.015625)"/>
     </defs>
     <use xlink:href="#DejaVuSans-Oblique-42" transform="translate(0 0.09375)"/>
    </g>
   </g>
   <g id="text_3">
    <!-- $C$ -->
    <g style="fill: #1f2937" transform="translate(153.888 87.429812) scale(0.13 -0.13)">
     <defs>
      <path id="DejaVuSans-Oblique-43" d="M 4447 4306 
L 4319 3641 
Q 4019 3944 3683 4091 
Q 3347 4238 2956 4238 
Q 2422 4238 2017 3981 
Q 1613 3725 1319 3200 
Q 1131 2863 1032 2486 
Q 934 2109 934 1728 
Q 934 1091 1264 756 
Q 1594 422 2222 422 
Q 2656 422 3056 561 
Q 3456 700 3834 978 
L 3688 231 
Q 3316 72 2936 -9 
Q 2556 -91 2175 -91 
Q 1278 -91 773 396 
Q 269 884 269 1753 
Q 269 2309 461 2846 
Q 653 3384 1013 3828 
Q 1394 4300 1883 4525 
Q 2372 4750 3022 4750 
Q 3422 4750 3780 4639 
Q 4138 4528 4447 4306 
z
" transform="scale(0.015625)"/>
     </defs>
     <use xlink:href="#DejaVuSans-Oblique-43" transform="translate(0 0.78125)"/>
    </g>
   </g>
   <g id="text_4">
    <!-- $M$ -->
    <g style="fill: #059669" transform="translate(208.26 321.213812) scale(0.12 -0.12)">
     <defs>
      <path id="DejaVuSans-Oblique-4d" d="M 1081 4666 
L 2028 4666 
L 2572 1522 
L 4378 4666 
L 5350 4666 
L 4441 0 
L 3828 0 
L 4622 4091 
L 2791 897 
L 2175 897 
L 1581 4103 
L 788 0 
L 172 0 
L 1081 4666 
z
" transform="scale(0.015625)"/>
     </defs>
     <use xlink:href="#DejaVuSans-Oblique-4d" transform="translate(0 0.09375)"/>
    </g>
   </g>
   <g id="text_5">
    <!-- Une vértice con punto -->
    <g style="fill: #1f2937" transform="translate(158.033125 328.352) scale(0.1 -0.1)">
     <defs>
      <path id="DejaVuSans-Oblique-55" d="M 991 4666 
L 1625 4666 
L 1075 1831 
Q 1041 1641 1027 1517 
Q 1013 1394 1013 1300 
Q 1013 869 1253 645 
Q 1494 422 1959 422 
Q 2563 422 2898 753 
Q 3234 1084 3378 1831 
L 3928 4666 
L 4563 4666 
L 4000 1753 
Q 3816 809 3300 359 
Q 2784 -91 1888 -91 
Q 1188 -91 780 261 
Q 372 613 372 1216 
Q 372 1325 387 1461 
Q 403 1597 434 1753 
L 991 4666 
z
" transform="scale(0.015625)"/>
      <path id="DejaVuSans-Oblique-6e" d="M 3566 2113 
L 3156 0 
L 2578 0 
L 2988 2091 
Q 3016 2238 3031 2350 
Q 3047 2463 3047 2528 
Q 3047 2791 2881 2937 
Q 2716 3084 2419 3084 
Q 1956 3084 1622 2776 
Q 1288 2469 1184 1941 
L 800 0 
L 225 0 
L 903 3500 
L 1478 3500 
L 1363 2950 
Q 1603 3253 1940 3418 
Q 2278 3584 2650 3584 
Q 3113 3584 3367 3334 
Q 3622 3084 3622 2631 
Q 3622 2519 3608 2391 
Q 3594 2263 3566 2113 
z
" transform="scale(0.015625)"/>
      <path id="DejaVuSans-Oblique-65" d="M 3078 2063 
Q 3088 2113 3092 2166 
Q 3097 2219 3097 2272 
Q 3097 2653 2873 2875 
Q 2650 3097 2266 3097 
Q 1838 3097 1509 2826 
Q 1181 2556 1013 2059 
L 3078 2063 
z
M 3578 1613 
L 903 1613 
Q 884 1494 878 1425 
Q 872 1356 872 1306 
Q 872 872 1139 634 
Q 1406 397 1894 397 
Q 2269 397 2603 481 
Q 2938 566 3225 728 
L 3116 159 
Q 2806 34 2476 -28 
Q 2147 -91 1806 -91 
Q 1078 -91 686 257 
Q 294 606 294 1247 
Q 294 1794 489 2264 
Q 684 2734 1063 3103 
Q 1306 3334 1642 3459 
Q 1978 3584 2356 3584 
Q 2950 3584 3301 3228 
Q 3653 2872 3653 2272 
Q 3653 2128 3634 1964 
Q 3616 1800 3578 1613 
z
" transform="scale(0.015625)"/>
      <path id="DejaVuSans-Oblique-20" transform="scale(0.015625)"/>
      <path id="DejaVuSans-Oblique-76" d="M 459 3500 
L 1069 3500 
L 1581 525 
L 3256 3500 
L 3866 3500 
L 1875 0 
L 1100 0 
L 459 3500 
z
" transform="scale(0.015625)"/>
      <path id="DejaVuSans-Oblique-e9" d="M 3078 2063 
Q 3088 2113 3092 2166 
Q 3097 2219 3097 2272 
Q 3097 2653 2873 2875 
Q 2650 3097 2266 3097 
Q 1838 3097 1509 2826 
Q 1181 2556 1013 2059 
L 3078 2063 
z
M 3578 1613 
L 903 1613 
Q 884 1494 878 1425 
Q 872 1356 872 1306 
Q 872 872 1139 634 
Q 1406 397 1894 397 
Q 2269 397 2603 481 
Q 2938 566 3225 728 
L 3116 159 
Q 2806 34 2476 -28 
Q 2147 -91 1806 -91 
Q 1078 -91 686 257 
Q 294 606 294 1247 
Q 294 1794 489 2264 
Q 684 2734 1063 3103 
Q 1306 3334 1642 3459 
Q 1978 3584 2356 3584 
Q 2950 3584 3301 3228 
Q 3653 2872 3653 2272 
Q 3653 2128 3634 1964 
Q 3616 1800 3578 1613 
z
M 3063 5119 
L 3685 5119 
L 2438 3944 
L 1957 3944 
L 3063 5119 
z
" transform="scale(0.015625)"/>
      <path id="DejaVuSans-Oblique-72" d="M 2853 2969 
Q 2766 3016 2653 3041 
Q 2541 3066 2413 3066 
Q 1953 3066 1609 2717 
Q 1266 2369 1153 1784 
L 800 0 
L 225 0 
L 909 3500 
L 1484 3500 
L 1375 2956 
Q 1603 3259 1920 3421 
Q 2238 3584 2597 3584 
Q 2691 3584 2781 3573 
Q 2872 3563 2963 3538 
L 2853 2969 
z
" transform="scale(0.015625)"/>
      <path id="DejaVuSans-Oblique-74" d="M 2706 3500 
L 2619 3053 
L 1472 3053 
L 1100 1153 
Q 1081 1047 1072 975 
Q 1063 903 1063 863 
Q 1063 663 1183 572 
Q 1303 481 1569 481 
L 2150 481 
L 2053 0 
L 1503 0 
Q 991 0 739 200 
Q 488 400 488 806 
Q 488 878 497 964 
Q 506 1050 525 1153 
L 897 3053 
L 409 3053 
L 500 3500 
L 978 3500 
L 1172 4494 
L 1747 4494 
L 1556 3500 
L 2706 3500 
z
" transform="scale(0.015625)"/>
      <path id="DejaVuSans-Oblique-69" d="M 1172 4863 
L 1747 4863 
L 1606 4134 
L 1031 4134 
L 1172 4863 
z
M 909 3500 
L 1484 3500 
L 800 0 
L 225 0 
L 909 3500 
z
" transform="scale(0.015625)"/>
      <path id="DejaVuSans-Oblique-63" d="M 3431 3366 
L 3316 2797 
Q 3109 2947 2876 3022 
Q 2644 3097 2394 3097 
Q 2119 3097 1870 3000 
Q 1622 2903 1453 2725 
Q 1184 2453 1037 2087 
Q 891 1722 891 1331 
Q 891 859 1127 628 
Q 1363 397 1844 397 
Q 2081 397 2348 469 
Q 2616 541 2906 684 
L 2797 116 
Q 2547 13 2283 -39 
Q 2019 -91 1741 -91 
Q 1044 -91 669 257 
Q 294 606 294 1253 
Q 294 1797 489 2255 
Q 684 2713 1069 3078 
Q 1331 3328 1684 3456 
Q 2038 3584 2456 3584 
Q 2700 3584 2940 3529 
Q 3181 3475 3431 3366 
z
" transform="scale(0.015625)"/>
      <path id="DejaVuSans-Oblique-6f" d="M 1625 -91 
Q 1009 -91 651 289 
Q 294 669 294 1325 
Q 294 1706 417 2101 
Q 541 2497 738 2766 
Q 1047 3184 1428 3384 
Q 1809 3584 2291 3584 
Q 2888 3584 3255 3212 
Q 3622 2841 3622 2241 
Q 3622 1825 3500 1412 
Q 3378 1000 3181 728 
Q 2875 309 2494 109 
Q 2113 -91 1625 -91 
z
M 891 1344 
Q 891 869 1089 633 
Q 1288 397 1691 397 
Q 2269 397 2648 901 
Q 3028 1406 3028 2181 
Q 3028 2634 2825 2865 
Q 2622 3097 2228 3097 
Q 1903 3097 1650 2945 
Q 1397 2794 1197 2484 
Q 1050 2253 970 1956 
Q 891 1659 891 1344 
z
" transform="scale(0.015625)"/>
      <path id="DejaVuSans-Oblique-70" d="M 3175 2156 
Q 3175 2616 2975 2859 
Q 2775 3103 2400 3103 
Q 2144 3103 1911 2972 
Q 1678 2841 1497 2591 
Q 1319 2344 1212 1994 
Q 1106 1644 1106 1300 
Q 1106 863 1306 627 
Q 1506 391 1875 391 
Q 2147 391 2380 519 
Q 2613 647 2778 891 
Q 2956 1147 3065 1494 
Q 3175 1841 3175 2156 
z
M 1394 2969 
Q 1625 3272 1939 3428 
Q 2253 3584 2638 3584 
Q 3175 3584 3472 3232 
Q 3769 2881 3769 2247 
Q 3769 1728 3584 1258 
Q 3400 788 3053 416 
Q 2822 169 2531 39 
Q 2241 -91 1919 -91 
Q 1547 -91 1294 64 
Q 1041 219 916 525 
L 556 -1331 
L -19 -1331 
L 922 3500 
L 1497 3500 
L 1394 2969 
z
" transform="scale(0.015625)"/>
      <path id="DejaVuSans-Oblique-75" d="M 428 1388 
L 838 3500 
L 1416 3500 
L 1006 1409 
Q 975 1256 961 1147 
Q 947 1038 947 966 
Q 947 700 1109 554 
Q 1272 409 1569 409 
Q 2031 409 2368 721 
Q 2706 1034 2809 1563 
L 3194 3500 
L 3769 3500 
L 3091 0 
L 2516 0 
L 2631 550 
Q 2388 244 2052 76 
Q 1716 -91 1338 -91 
Q 878 -91 622 161 
Q 366 413 366 863 
Q 366 956 381 1097 
Q 397 1238 428 1388 
z
" transform="scale(0.015625)"/>
     </defs>
     <use xlink:href="#DejaVuSans-Oblique-55"/>
     <use xlink:href="#DejaVuSans-Oblique-6e" transform="translate(73.193359 0)"/>
     <use xlink:href="#DejaVuSans-Oblique-65" transform="translate(136.572266 0)"/>
     <use xlink:href="#DejaVuSans-Oblique-20" transform="translate(198.095703 0)"/>
     <use xlink:href="#DejaVuSans-Oblique-76" transform="translate(229.882812 0)"/>
     <use xlink:href="#DejaVuSans-Oblique-e9" transform="translate(289.0625 0)"/>
     <use xlink:href="#DejaVuSans-Oblique-72" transform="translate(350.585938 0)"/>
     <use xlink:href="#DejaVuSans-Oblique-74" transform="translate(391.699219 0)"/>
     <use xlink:href="#DejaVuSans-Oblique-69" transform="translate(430.908203 0)"/>
     <use xlink:href="#DejaVuSans-Oblique-63" transform="translate(458.691406 0)"/>
     <use xlink:href="#DejaVuSans-Oblique-65" transform="translate(513.671875 0)"/>
     <use xlink:href="#DejaVuSans-Oblique-20" transform="translate(575.195312 0)"/>
     <use xlink:href="#DejaVuSans-Oblique-63" transform="translate(606.982422 0)"/>
     <use xlink:href="#DejaVuSans-Oblique-6f" transform="translate(661.962891 0)"/>
     <use xlink:href="#DejaVuSans-Oblique-6e" transform="translate(723.144531 0)"/>
     <use xlink:href="#DejaVuSans-Oblique-20" transform="translate(786.523438 0)"/>
     <use xlink:href="#DejaVuSans-Oblique-70" transform="translate(818.310547 0)"/>
     <use xlink:href="#DejaVuSans-Oblique-75" transform="translate(881.787109 0)"/>
     <use xlink:href="#DejaVuSans-Oblique-6e" transform="translate(945.166016 0)"/>
     <use xlink:href="#DejaVuSans-Oblique-74" transform="translate(1008.544922 0)"/>
     <use xlink:href="#DejaVuSans-Oblique-6f" transform="translate(1047.753906 0)"/>
    </g>
    <!-- medio del lado opuesto -->
    <g style="fill: #1f2937" transform="translate(154.713594 339.549812) scale(0.1 -0.1)">
     <defs>
      <path id="DejaVuSans-Oblique-6d" d="M 5747 2113 
L 5338 0 
L 4763 0 
L 5166 2094 
Q 5191 2228 5203 2325 
Q 5216 2422 5216 2491 
Q 5216 2772 5059 2928 
Q 4903 3084 4622 3084 
Q 4203 3084 3875 2770 
Q 3547 2456 3450 1953 
L 3066 0 
L 2491 0 
L 2900 2094 
Q 2925 2209 2937 2307 
Q 2950 2406 2950 2484 
Q 2950 2769 2794 2926 
Q 2638 3084 2363 3084 
Q 1938 3084 1609 2770 
Q 1281 2456 1184 1953 
L 800 0 
L 225 0 
L 909 3500 
L 1484 3500 
L 1375 2956 
Q 1609 3263 1923 3423 
Q 2238 3584 2597 3584 
Q 2978 3584 3223 3384 
Q 3469 3184 3519 2828 
Q 3781 3197 4126 3390 
Q 4472 3584 4856 3584 
Q 5306 3584 5551 3325 
Q 5797 3066 5797 2591 
Q 5797 2488 5784 2364 
Q 5772 2241 5747 2113 
z
" transform="scale(0.015625)"/>
      <path id="DejaVuSans-Oblique-64" d="M 2675 525 
Q 2444 222 2128 65 
Q 1813 -91 1428 -91 
Q 903 -91 598 267 
Q 294 625 294 1247 
Q 294 1766 478 2236 
Q 663 2706 1013 3078 
Q 1244 3325 1534 3454 
Q 1825 3584 2144 3584 
Q 2481 3584 2739 3421 
Q 2997 3259 3138 2956 
L 3513 4863 
L 4091 4863 
L 3144 0 
L 2566 0 
L 2675 525 
z
M 891 1350 
Q 891 897 1095 644 
Q 1300 391 1663 391 
Q 1931 391 2161 520 
Q 2391 650 2566 903 
Q 2750 1166 2856 1509 
Q 2963 1853 2963 2188 
Q 2963 2622 2758 2865 
Q 2553 3109 2194 3109 
Q 1922 3109 1687 2981 
Q 1453 2853 1288 2613 
Q 1106 2353 998 2009 
Q 891 1666 891 1350 
z
" transform="scale(0.015625)"/>
      <path id="DejaVuSans-Oblique-6c" d="M 1172 4863 
L 1747 4863 
L 800 0 
L 225 0 
L 1172 4863 
z
" transform="scale(0.015625)"/>
      <path id="DejaVuSans-Oblique-61" d="M 3438 1997 
L 3047 0 
L 2472 0 
L 2578 531 
Q 2325 219 2001 64 
Q 1678 -91 1281 -91 
Q 834 -91 548 182 
Q 263 456 263 884 
Q 263 1497 752 1853 
Q 1241 2209 2100 2209 
L 2900 2209 
L 2931 2363 
Q 2938 2388 2941 2417 
Q 2944 2447 2944 2509 
Q 2944 2788 2717 2942 
Q 2491 3097 2081 3097 
Q 1800 3097 1504 3025 
Q 1209 2953 897 2809 
L 997 3341 
Q 1322 3463 1633 3523 
Q 1944 3584 2234 3584 
Q 2853 3584 3176 3315 
Q 3500 3047 3500 2534 
Q 3500 2431 3484 2292 
Q 3469 2153 3438 1997 
z
M 2816 1759 
L 2241 1759 
Q 1534 1759 1195 1570 
Q 856 1381 856 984 
Q 856 709 1029 553 
Q 1203 397 1509 397 
Q 1978 397 2328 733 
Q 2678 1069 2791 1631 
L 2816 1759 
z
" transform="scale(0.015625)"/>
      <path id="DejaVuSans-Oblique-73" d="M 3200 3397 
L 3091 2853 
Q 2863 2978 2609 3040 
Q 2356 3103 2088 3103 
Q 1634 3103 1373 2948 
Q 1113 2794 1113 2528 
Q 1113 2219 1719 2053 
Q 1766 2041 1788 2034 
L 1972 1978 
Q 2547 1819 2739 1644 
Q 2931 1469 2931 1166 
Q 2931 609 2489 259 
Q 2047 -91 1331 -91 
Q 1053 -91 747 -37 
Q 441 16 72 128 
L 184 722 
Q 500 559 806 475 
Q 1113 391 1394 391 
Q 1816 391 2080 572 
Q 2344 753 2344 1031 
Q 2344 1331 1650 1516 
L 1591 1531 
L 1394 1581 
Q 956 1697 753 1886 
Q 550 2075 550 2369 
Q 550 2928 970 3256 
Q 1391 3584 2113 3584 
Q 2397 3584 2667 3537 
Q 2938 3491 3200 3397 
z
" transform="scale(0.015625)"/>
     </defs>
     <use xlink:href="#DejaVuSans-Oblique-6d"/>
     <use xlink:href="#DejaVuSans-Oblique-65" transform="translate(97.412109 0)"/>
     <use xlink:href="#DejaVuSans-Oblique-64" transform="translate(158.935547 0)"/>
     <use xlink:href="#DejaVuSans-Oblique-69" transform="translate(222.412109 0)"/>
     <use xlink:href="#DejaVuSans-Oblique-6f" transform="translate(250.195312 0)"/>
     <use xlink:href="#DejaVuSans-Oblique-20" transform="translate(311.376953 0)"/>
     <use xlink:href="#DejaVuSans-Oblique-64" transform="translate(343.164062 0)"/>
     <use xlink:href="#DejaVuSans-Oblique-65" transform="translate(406.640625 0)"/>
     <use xlink:href="#DejaVuSans-Oblique-6c" transform="translate(468.164062 0)"/>
     <use xlink:href="#DejaVuSans-Oblique-20" transform="translate(495.947266 0)"/>
     <use xlink:href="#DejaVuSans-Oblique-6c" transform="translate(527.734375 0)"/>
     <use xlink:href="#DejaVuSans-Oblique-61" transform="translate(555.517578 0)"/>
     <use xlink:href="#DejaVuSans-Oblique-64" transform="translate(616.796875 0)"/>
     <use xlink:href="#DejaVuSans-Oblique-6f" transform="translate(680.273438 0)"/>
     <use xlink:href="#DejaVuSans-Oblique-20" transform="translate(741.455078 0)"/>
     <use xlink:href="#DejaVuSans-Oblique-6f" transform="translate(773.242188 0)"/>
     <use xlink:href="#DejaVuSans-Oblique-70" transform="translate(834.423828 0)"/>
     <use xlink:href="#DejaVuSans-Oblique-75" transform="translate(897.900391 0)"/>
     <use xlink:href="#DejaVuSans-Oblique-65" transform="translate(961.279297 0)"/>
     <use xlink:href="#DejaVuSans-Oblique-73" transform="translate(1022.802734 0)"/>
     <use xlink:href="#DejaVuSans-Oblique-74" transform="translate(1074.902344 0)"/>
     <use xlink:href="#DejaVuSans-Oblique-6f" transform="translate(1114.111328 0)"/>
    </g>
   </g>
   <g id="text_6">
    <g id="patch_3">
     <path d="M 155.828437 65.0055 
L 271.131562 65.0055 
Q 274.131562 65.0055 274.131562 62.0055 
L 274.131562 41.129562 
Q 274.131562 38.129562 271.131562 38.129562 
L 155.828437 38.129562 
Q 152.828437 38.129562 152.828437 41.129562 
L 152.828437 62.0055 
Q 152.828437 65.0055 155.828437 65.0055 
z
" style="fill: #ffffff; opacity: 0.8; stroke: #000000; stroke-linejoin: miter"/>
    </g>
    <!-- Punto de concurrencia: -->
    <g style="fill: #059669" transform="translate(155.828437 48.728) scale(0.1 -0.1)">
     <defs>
      <path id="DejaVuSans-50" d="M 1259 4147 
L 1259 2394 
L 2053 2394 
Q 2494 2394 2734 2622 
Q 2975 2850 2975 3272 
Q 2975 3691 2734 3919 
Q 2494 4147 2053 4147 
L 1259 4147 
z
M 628 4666 
L 2053 4666 
Q 2838 4666 3239 4311 
Q 3641 3956 3641 3272 
Q 3641 2581 3239 2228 
Q 2838 1875 2053 1875 
L 1259 1875 
L 1259 0 
L 628 0 
L 628 4666 
z
" transform="scale(0.015625)"/>
      <path id="DejaVuSans-75" d="M 544 1381 
L 544 3500 
L 1119 3500 
L 1119 1403 
Q 1119 906 1312 657 
Q 1506 409 1894 409 
Q 2359 409 2629 706 
Q 2900 1003 2900 1516 
L 2900 3500 
L 3475 3500 
L 3475 0 
L 2900 0 
L 2900 538 
Q 2691 219 2414 64 
Q 2138 -91 1772 -91 
Q 1169 -91 856 284 
Q 544 659 544 1381 
z
M 1991 3584 
L 1991 3584 
z
" transform="scale(0.015625)"/>
      <path id="DejaVuSans-6e" d="M 3513 2113 
L 3513 0 
L 2938 0 
L 2938 2094 
Q 2938 2591 2744 2837 
Q 2550 3084 2163 3084 
Q 1697 3084 1428 2787 
Q 1159 2491 1159 1978 
L 1159 0 
L 581 0 
L 581 3500 
L 1159 3500 
L 1159 2956 
Q 1366 3272 1645 3428 
Q 1925 3584 2291 3584 
Q 2894 3584 3203 3211 
Q 3513 2838 3513 2113 
z
" transform="scale(0.015625)"/>
      <path id="DejaVuSans-74" d="M 1172 4494 
L 1172 3500 
L 2356 3500 
L 2356 3053 
L 1172 3053 
L 1172 1153 
Q 1172 725 1289 603 
Q 1406 481 1766 481 
L 2356 481 
L 2356 0 
L 1766 0 
Q 1100 0 847 248 
Q 594 497 594 1153 
L 594 3053 
L 172 3053 
L 172 3500 
L 594 3500 
L 594 4494 
L 1172 4494 
z
" transform="scale(0.015625)"/>
      <path id="DejaVuSans-6f" d="M 1959 3097 
Q 1497 3097 1228 2736 
Q 959 2375 959 1747 
Q 959 1119 1226 758 
Q 1494 397 1959 397 
Q 2419 397 2687 759 
Q 2956 1122 2956 1747 
Q 2956 2369 2687 2733 
Q 2419 3097 1959 3097 
z
M 1959 3584 
Q 2709 3584 3137 3096 
Q 3566 2609 3566 1747 
Q 3566 888 3137 398 
Q 2709 -91 1959 -91 
Q 1206 -91 779 398 
Q 353 888 353 1747 
Q 353 2609 779 3096 
Q 1206 3584 1959 3584 
z
" transform="scale(0.015625)"/>
      <path id="DejaVuSans-20" transform="scale(0.015625)"/>
      <path id="DejaVuSans-64" d="M 2906 2969 
L 2906 4863 
L 3481 4863 
L 3481 0 
L 2906 0 
L 2906 525 
Q 2725 213 2448 61 
Q 2172 -91 1784 -91 
Q 1150 -91 751 415 
Q 353 922 353 1747 
Q 353 2572 751 3078 
Q 1150 3584 1784 3584 
Q 2172 3584 2448 3432 
Q 2725 3281 2906 2969 
z
M 947 1747 
Q 947 1113 1208 752 
Q 1469 391 1925 391 
Q 2381 391 2643 752 
Q 2906 1113 2906 1747 
Q 2906 2381 2643 2742 
Q 2381 3103 1925 3103 
Q 1469 3103 1208 2742 
Q 947 2381 947 1747 
z
" transform="scale(0.015625)"/>
      <path id="DejaVuSans-65" d="M 3597 1894 
L 3597 1613 
L 953 1613 
Q 991 1019 1311 708 
Q 1631 397 2203 397 
Q 2534 397 2845 478 
Q 3156 559 3463 722 
L 3463 178 
Q 3153 47 2828 -22 
Q 2503 -91 2169 -91 
Q 1331 -91 842 396 
Q 353 884 353 1716 
Q 353 2575 817 3079 
Q 1281 3584 2069 3584 
Q 2775 3584 3186 3129 
Q 3597 2675 3597 1894 
z
M 3022 2063 
Q 3016 2534 2758 2815 
Q 2500 3097 2075 3097 
Q 1594 3097 1305 2825 
Q 1016 2553 972 2059 
L 3022 2063 
z
" transform="scale(0.015625)"/>
      <path id="DejaVuSans-63" d="M 3122 3366 
L 3122 2828 
Q 2878 2963 2633 3030 
Q 2388 3097 2138 3097 
Q 1578 3097 1268 2742 
Q 959 2388 959 1747 
Q 959 1106 1268 751 
Q 1578 397 2138 397 
Q 2388 397 2633 464 
Q 2878 531 3122 666 
L 3122 134 
Q 2881 22 2623 -34 
Q 2366 -91 2075 -91 
Q 1284 -91 818 406 
Q 353 903 353 1747 
Q 353 2603 823 3093 
Q 1294 3584 2113 3584 
Q 2378 3584 2631 3529 
Q 2884 3475 3122 3366 
z
" transform="scale(0.015625)"/>
      <path id="DejaVuSans-72" d="M 2631 2963 
Q 2534 3019 2420 3045 
Q 2306 3072 2169 3072 
Q 1681 3072 1420 2755 
Q 1159 2438 1159 1844 
L 1159 0 
L 581 0 
L 581 3500 
L 1159 3500 
L 1159 2956 
Q 1341 3275 1631 3429 
Q 1922 3584 2338 3584 
Q 2397 3584 2469 3576 
Q 2541 3569 2628 3553 
L 2631 2963 
z
" transform="scale(0.015625)"/>
      <path id="DejaVuSans-69" d="M 603 3500 
L 1178 3500 
L 1178 0 
L 603 0 
L 603 3500 
z
M 603 4863 
L 1178 4863 
L 1178 4134 
L 603 4134 
L 603 4863 
z
" transform="scale(0.015625)"/>
      <path id="DejaVuSans-61" d="M 2194 1759 
Q 1497 1759 1228 1600 
Q 959 1441 959 1056 
Q 959 750 1161 570 
Q 1363 391 1709 391 
Q 2188 391 2477 730 
Q 2766 1069 2766 1631 
L 2766 1759 
L 2194 1759 
z
M 3341 1997 
L 3341 0 
L 2766 0 
L 2766 531 
Q 2569 213 2275 61 
Q 1981 -91 1556 -91 
Q 1019 -91 701 211 
Q 384 513 384 1019 
Q 384 1609 779 1909 
Q 1175 2209 1959 2209 
L 2766 2209 
L 2766 2266 
Q 2766 2663 2505 2880 
Q 2244 3097 1772 3097 
Q 1472 3097 1187 3025 
Q 903 2953 641 2809 
L 641 3341 
Q 956 3463 1253 3523 
Q 1550 3584 1831 3584 
Q 2591 3584 2966 3190 
Q 3341 2797 3341 1997 
z
" transform="scale(0.015625)"/>
      <path id="DejaVuSans-3a" d="M 750 794 
L 1409 794 
L 1409 0 
L 750 0 
L 750 794 
z
M 750 3309 
L 1409 3309 
L 1409 2516 
L 750 2516 
L 750 3309 
z
" transform="scale(0.015625)"/>
     </defs>
     <use xlink:href="#DejaVuSans-50"/>
     <use xlink:href="#DejaVuSans-75" transform="translate(58.552734 0)"/>
     <use xlink:href="#DejaVuSans-6e" transform="translate(121.931641 0)"/>
     <use xlink:href="#DejaVuSans-74" transform="translate(185.310547 0)"/>
     <use xlink:href="#DejaVuSans-6f" transform="translate(224.519531 0)"/>
     <use xlink:href="#DejaVuSans-20" transform="translate(285.701172 0)"/>
     <use xlink:href="#DejaVuSans-64" transform="translate(317.488281 0)"/>
     <use xlink:href="#DejaVuSans-65" transform="translate(380.964844 0)"/>
     <use xlink:href="#DejaVuSans-20" transform="translate(442.488281 0)"/>
     <use xlink:href="#DejaVuSans-63" transform="translate(474.275391 0)"/>
     <use xlink:href="#DejaVuSans-6f" transform="translate(529.255859 0)"/>
     <use xlink:href="#DejaVuSans-6e" transform="translate(590.4375 0)"/>
     <use xlink:href="#DejaVuSans-63" transform="translate(653.816406 0)"/>
     <use xlink:href="#DejaVuSans-75" transform="translate(708.796875 0)"/>
     <use xlink:href="#DejaVuSans-72" transform="translate(772.175781 0)"/>
     <use xlink:href="#DejaVuSans-72" transform="translate(811.539062 0)"/>
     <use xlink:href="#DejaVuSans-65" transform="translate(850.402344 0)"/>
     <use xlink:href="#DejaVuSans-6e" transform="translate(911.925781 0)"/>
     <use xlink:href="#DejaVuSans-63" transform="translate(975.304688 0)"/>
     <use xlink:href="#DejaVuSans-69" transform="translate(1030.285156 0)"/>
     <use xlink:href="#DejaVuSans-61" transform="translate(1058.068359 0)"/>
     <use xlink:href="#DejaVuSans-3a" transform="translate(1119.347656 0)"/>
    </g>
    <!-- Centroide (G) -->
    <g style="fill: #059669" transform="translate(179.776094 59.925812) scale(0.1 -0.1)">
     <defs>
      <path id="DejaVuSans-43" d="M 4122 4306 
L 4122 3641 
Q 3803 3938 3442 4084 
Q 3081 4231 2675 4231 
Q 1875 4231 1450 3742 
Q 1025 3253 1025 2328 
Q 1025 1406 1450 917 
Q 1875 428 2675 428 
Q 3081 428 3442 575 
Q 3803 722 4122 1019 
L 4122 359 
Q 3791 134 3420 21 
Q 3050 -91 2638 -91 
Q 1578 -91 968 557 
Q 359 1206 359 2328 
Q 359 3453 968 4101 
Q 1578 4750 2638 4750 
Q 3056 4750 3426 4639 
Q 3797 4528 4122 4306 
z
" transform="scale(0.015625)"/>
      <path id="DejaVuSans-28" d="M 1984 4856 
Q 1566 4138 1362 3434 
Q 1159 2731 1159 2009 
Q 1159 1288 1364 580 
Q 1569 -128 1984 -844 
L 1484 -844 
Q 1016 -109 783 600 
Q 550 1309 550 2009 
Q 550 2706 781 3412 
Q 1013 4119 1484 4856 
L 1984 4856 
z
" transform="scale(0.015625)"/>
      <path id="DejaVuSans-47" d="M 3809 666 
L 3809 1919 
L 2778 1919 
L 2778 2438 
L 4434 2438 
L 4434 434 
Q 4069 175 3628 42 
Q 3188 -91 2688 -91 
Q 1594 -91 976 548 
Q 359 1188 359 2328 
Q 359 3472 976 4111 
Q 1594 4750 2688 4750 
Q 3144 4750 3555 4637 
Q 3966 4525 4313 4306 
L 4313 3634 
Q 3963 3931 3569 4081 
Q 3175 4231 2741 4231 
Q 1884 4231 1454 3753 
Q 1025 3275 1025 2328 
Q 1025 1384 1454 906 
Q 1884 428 2741 428 
Q 3075 428 3337 486 
Q 3600 544 3809 666 
z
" transform="scale(0.015625)"/>
      <path id="DejaVuSans-29" d="M 513 4856 
L 1013 4856 
Q 1481 4119 1714 3412 
Q 1947 2706 1947 2009 
Q 1947 1309 1714 600 
Q 1481 -109 1013 -844 
L 513 -844 
Q 928 -128 1133 580 
Q 1338 1288 1338 2009 
Q 1338 2731 1133 3434 
Q 928 4138 513 4856 
z
" transform="scale(0.015625)"/>
     </defs>
     <use xlink:href="#DejaVuSans-43"/>
     <use xlink:href="#DejaVuSans-65" transform="translate(69.824219 0)"/>
     <use xlink:href="#DejaVuSans-6e" transform="translate(131.347656 0)"/>
     <use xlink:href="#DejaVuSans-74" transform="translate(194.726562 0)"/>
     <use xlink:href="#DejaVuSans-72" transform="translate(233.935547 0)"/>
     <use xlink:href="#DejaVuSans-6f" transform="translate(272.798828 0)"/>
     <use xlink:href="#DejaVuSans-69" transform="translate(333.980469 0)"/>
     <use xlink:href="#DejaVuSans-64" transform="translate(361.763672 0)"/>
     <use xlink:href="#DejaVuSans-65" transform="translate(425.240234 0)"/>
     <use xlink:href="#DejaVuSans-20" transform="translate(486.763672 0)"/>
     <use xlink:href="#DejaVuSans-28" transform="translate(518.550781 0)"/>
     <use xlink:href="#DejaVuSans-47" transform="translate(557.564453 0)"/>
     <use xlink:href="#DejaVuSans-29" transform="translate(635.054688 0)"/>
    </g>
   </g>
   <g id="text_7">
    <!-- Mediana -->
    <g style="fill: #1f2937" transform="translate(179.924844 17.837812) scale(0.14 -0.14)">
     <defs>
      <path id="DejaVuSans-Bold-4d" d="M 588 4666 
L 2119 4666 
L 3181 2169 
L 4250 4666 
L 5778 4666 
L 5778 0 
L 4641 0 
L 4641 3413 
L 3566 897 
L 2803 897 
L 1728 3413 
L 1728 0 
L 588 0 
L 588 4666 
z
" transform="scale(0.015625)"/>
      <path id="DejaVuSans-Bold-65" d="M 4031 1759 
L 4031 1441 
L 1416 1441 
Q 1456 1047 1700 850 
Q 1944 653 2381 653 
Q 2734 653 3104 758 
Q 3475 863 3866 1075 
L 3866 213 
Q 3469 63 3072 -14 
Q 2675 -91 2278 -91 
Q 1328 -91 801 392 
Q 275 875 275 1747 
Q 275 2603 792 3093 
Q 1309 3584 2216 3584 
Q 3041 3584 3536 3087 
Q 4031 2591 4031 1759 
z
M 2881 2131 
Q 2881 2450 2695 2645 
Q 2509 2841 2209 2841 
Q 1884 2841 1681 2658 
Q 1478 2475 1428 2131 
L 2881 2131 
z
" transform="scale(0.015625)"/>
      <path id="DejaVuSans-Bold-64" d="M 2919 2988 
L 2919 4863 
L 4044 4863 
L 4044 0 
L 2919 0 
L 2919 506 
Q 2688 197 2409 53 
Q 2131 -91 1766 -91 
Q 1119 -91 703 423 
Q 288 938 288 1747 
Q 288 2556 703 3070 
Q 1119 3584 1766 3584 
Q 2128 3584 2408 3439 
Q 2688 3294 2919 2988 
z
M 2181 722 
Q 2541 722 2730 984 
Q 2919 1247 2919 1747 
Q 2919 2247 2730 2509 
Q 2541 2772 2181 2772 
Q 1825 2772 1636 2509 
Q 1447 2247 1447 1747 
Q 1447 1247 1636 984 
Q 1825 722 2181 722 
z
" transform="scale(0.015625)"/>
      <path id="DejaVuSans-Bold-69" d="M 538 3500 
L 1656 3500 
L 1656 0 
L 538 0 
L 538 3500 
z
M 538 4863 
L 1656 4863 
L 1656 3950 
L 538 3950 
L 538 4863 
z
" transform="scale(0.015625)"/>
      <path id="DejaVuSans-Bold-61" d="M 2106 1575 
Q 1756 1575 1579 1456 
Q 1403 1338 1403 1106 
Q 1403 894 1545 773 
Q 1688 653 1941 653 
Q 2256 653 2472 879 
Q 2688 1106 2688 1447 
L 2688 1575 
L 2106 1575 
z
M 3816 1997 
L 3816 0 
L 2688 0 
L 2688 519 
Q 2463 200 2181 54 
Q 1900 -91 1497 -91 
Q 953 -91 614 226 
Q 275 544 275 1050 
Q 275 1666 698 1953 
Q 1122 2241 2028 2241 
L 2688 2241 
L 2688 2328 
Q 2688 2594 2478 2717 
Q 2269 2841 1825 2841 
Q 1466 2841 1156 2769 
Q 847 2697 581 2553 
L 581 3406 
Q 941 3494 1303 3539 
Q 1666 3584 2028 3584 
Q 2975 3584 3395 3211 
Q 3816 2838 3816 1997 
z
" transform="scale(0.015625)"/>
      <path id="DejaVuSans-Bold-6e" d="M 4056 2131 
L 4056 0 
L 2931 0 
L 2931 347 
L 2931 1631 
Q 2931 2084 2911 2256 
Q 2891 2428 2841 2509 
Q 2775 2619 2662 2680 
Q 2550 2741 2406 2741 
Q 2056 2741 1856 2470 
Q 1656 2200 1656 1722 
L 1656 0 
L 538 0 
L 538 3500 
L 1656 3500 
L 1656 2988 
Q 1909 3294 2193 3439 
Q 2478 3584 2822 3584 
Q 3428 3584 3742 3212 
Q 4056 2841 4056 2131 
z
" transform="scale(0.015625)"/>
     </defs>
     <use xlink:href="#DejaVuSans-Bold-4d"/>
     <use xlink:href="#DejaVuSans-Bold-65" transform="translate(99.511719 0)"/>
     <use xlink:href="#DejaVuSans-Bold-64" transform="translate(167.333984 0)"/>
     <use xlink:href="#DejaVuSans-Bold-69" transform="translate(238.916016 0)"/>
     <use xlink:href="#DejaVuSans-Bold-61" transform="translate(273.193359 0)"/>
     <use xlink:href="#DejaVuSans-Bold-6e" transform="translate(340.673828 0)"/>
     <use xlink:href="#DejaVuSans-Bold-61" transform="translate(411.865234 0)"/>
    </g>
   </g>
  </g>
  <g id="axes_2">
   <g id="patch_4">
    <path d="M 501.48 302.877812 
L 776.52 302.877812 
L 593.16 96.597812 
z
" clip-path="url(#p28c5e43c31)" style="fill: #2563eb; opacity: 0.1; stroke: #2563eb; stroke-width: 2; stroke-linejoin: miter"/>
   </g>
   <g id="line2d_3">
    <path d="M 593.16 96.597812 
L 593.16 302.877812 
" clip-path="url(#p28c5e43c31)" style="fill: none; stroke-dasharray: 9.25,4; stroke-dashoffset: 0; stroke: #dc2626; stroke-width: 2.5"/>
   </g>
   <g id="line2d_4">
    <defs>
     <path id="m79ce0b041a" d="M 0 4 
C 1.060812 4 2.078319 3.578535 2.828427 2.828427 
C 3.578535 2.078319 4 1.060812 4 0 
C 4 -1.060812 3.578535 -2.078319 2.828427 -2.828427 
C 2.078319 -3.578535 1.060812 -4 0 -4 
C -1.060812 -4 -2.078319 -3.578535 -2.828427 -2.828427 
C -3.578535 -2.078319 -4 -1.060812 -4 0 
C -4 1.060812 -3.578535 2.078319 -2.828427 2.828427 
C -2.078319 3.578535 -1.060812 4 0 4 
z
" style="stroke: #dc2626"/>
    </defs>
    <g clip-path="url(#p28c5e43c31)">
     <use xlink:href="#m79ce0b041a" x="593.16" y="302.877812" style="fill: #dc2626; stroke: #dc2626"/>
    </g>
   </g>
   <g id="line2d_5">
    <path d="M 593.16 302.877812 
L 606.912 302.877812 
" clip-path="url(#p28c5e43c31)" style="fill: none; stroke: #dc2626; stroke-width: 1.5; stroke-linecap: square"/>
   </g>
   <g id="line2d_6">
    <path d="M 606.912 302.877812 
L 606.912 289.125812 
" clip-path="url(#p28c5e43c31)" style="fill: none; stroke: #dc2626; stroke-width: 1.5; stroke-linecap: square"/>
   </g>
   <g id="text_8">
    <!-- $A$ -->
    <g style="fill: #1f2937" transform="translate(487.728 316.629812) scale(0.13 -0.13)">
     <use xlink:href="#DejaVuSans-Oblique-41" transform="translate(0 0.09375)"/>
    </g>
   </g>
   <g id="text_9">
    <!-- $B$ -->
    <g style="fill: #1f2937" transform="translate(785.688 316.629812) scale(0.13 -0.13)">
     <use xlink:href="#DejaVuSans-Oblique-42" transform="translate(0 0.09375)"/>
    </g>
   </g>
   <g id="text_10">
    <!-- $C$ -->
    <g style="fill: #1f2937" transform="translate(579.408 87.429812) scale(0.13 -0.13)">
     <use xlink:href="#DejaVuSans-Oblique-43" transform="translate(0 0.78125)"/>
    </g>
   </g>
   <g id="text_11">
    <!-- $H$ -->
    <g style="fill: #dc2626" transform="translate(606.912 316.629812) scale(0.12 -0.12)">
     <defs>
      <path id="DejaVuSans-Oblique-48" d="M 1081 4666 
L 1716 4666 
L 1344 2753 
L 3634 2753 
L 4006 4666 
L 4641 4666 
L 3731 0 
L 3097 0 
L 3531 2222 
L 1241 2222 
L 806 0 
L 172 0 
L 1081 4666 
z
" transform="scale(0.015625)"/>
     </defs>
     <use xlink:href="#DejaVuSans-Oblique-48" transform="translate(0 0.09375)"/>
    </g>
   </g>
   <g id="text_12">
    <!-- Perpendicular desde vértice -->
    <g style="fill: #1f2937" transform="translate(568.892969 328.352) scale(0.1 -0.1)">
     <defs>
      <path id="DejaVuSans-Oblique-50" d="M 1081 4666 
L 2541 4666 
Q 3178 4666 3512 4369 
Q 3847 4072 3847 3500 
Q 3847 2731 3353 2303 
Q 2859 1875 1966 1875 
L 1172 1875 
L 806 0 
L 172 0 
L 1081 4666 
z
M 1613 4147 
L 1275 2394 
L 2069 2394 
Q 2606 2394 2893 2669 
Q 3181 2944 3181 3456 
Q 3181 3784 2986 3965 
Q 2791 4147 2438 4147 
L 1613 4147 
z
" transform="scale(0.015625)"/>
     </defs>
     <use xlink:href="#DejaVuSans-Oblique-50"/>
     <use xlink:href="#DejaVuSans-Oblique-65" transform="translate(60.302734 0)"/>
     <use xlink:href="#DejaVuSans-Oblique-72" transform="translate(121.826172 0)"/>
     <use xlink:href="#DejaVuSans-Oblique-70" transform="translate(162.939453 0)"/>
     <use xlink:href="#DejaVuSans-Oblique-65" transform="translate(226.416016 0)"/>
     <use xlink:href="#DejaVuSans-Oblique-6e" transform="translate(287.939453 0)"/>
     <use xlink:href="#DejaVuSans-Oblique-64" transform="translate(351.318359 0)"/>
     <use xlink:href="#DejaVuSans-Oblique-69" transform="translate(414.794922 0)"/>
     <use xlink:href="#DejaVuSans-Oblique-63" transform="translate(442.578125 0)"/>
     <use xlink:href="#DejaVuSans-Oblique-75" transform="translate(497.558594 0)"/>
     <use xlink:href="#DejaVuSans-Oblique-6c" transform="translate(560.9375 0)"/>
     <use xlink:href="#DejaVuSans-Oblique-61" transform="translate(588.720703 0)"/>
     <use xlink:href="#DejaVuSans-Oblique-72" transform="translate(650 0)"/>
     <use xlink:href="#DejaVuSans-Oblique-20" transform="translate(691.113281 0)"/>
     <use xlink:href="#DejaVuSans-Oblique-64" transform="translate(722.900391 0)"/>
     <use xlink:href="#DejaVuSans-Oblique-65" transform="translate(786.376953 0)"/>
     <use xlink:href="#DejaVuSans-Oblique-73" transform="translate(847.900391 0)"/>
     <use xlink:href="#DejaVuSans-Oblique-64" transform="translate(900 0)"/>
     <use xlink:href="#DejaVuSans-Oblique-65" transform="translate(963.476562 0)"/>
     <use xlink:href="#DejaVuSans-Oblique-20" transform="translate(1025 0)"/>
     <use xlink:href="#DejaVuSans-Oblique-76" transform="translate(1056.787109 0)"/>
     <use xlink:href="#DejaVuSans-Oblique-e9" transform="translate(1115.966797 0)"/>
     <use xlink:href="#DejaVuSans-Oblique-72" transform="translate(1177.490234 0)"/>
     <use xlink:href="#DejaVuSans-Oblique-74" transform="translate(1218.603516 0)"/>
     <use xlink:href="#DejaVuSans-Oblique-69" transform="translate(1257.8125 0)"/>
     <use xlink:href="#DejaVuSans-Oblique-63" transform="translate(1285.595703 0)"/>
     <use xlink:href="#DejaVuSans-Oblique-65" transform="translate(1340.576172 0)"/>
    </g>
    <!-- al lado opuesto -->
    <g style="fill: #1f2937" transform="translate(600.578906 339.549812) scale(0.1 -0.1)">
     <use xlink:href="#DejaVuSans-Oblique-61"/>
     <use xlink:href="#DejaVuSans-Oblique-6c" transform="translate(61.279297 0)"/>
     <use xlink:href="#DejaVuSans-Oblique-20" transform="translate(89.0625 0)"/>
     <use xlink:href="#DejaVuSans-Oblique-6c" transform="translate(120.849609 0)"/>
     <use xlink:href="#DejaVuSans-Oblique-61" transform="translate(148.632812 0)"/>
     <use xlink:href="#DejaVuSans-Oblique-64" transform="translate(209.912109 0)"/>
     <use xlink:href="#DejaVuSans-Oblique-6f" transform="translate(273.388672 0)"/>
     <use xlink:href="#DejaVuSans-Oblique-20" transform="translate(334.570312 0)"/>
     <use xlink:href="#DejaVuSans-Oblique-6f" transform="translate(366.357422 0)"/>
     <use xlink:href="#DejaVuSans-Oblique-70" transform="translate(427.539062 0)"/>
     <use xlink:href="#DejaVuSans-Oblique-75" transform="translate(491.015625 0)"/>
     <use xlink:href="#DejaVuSans-Oblique-65" transform="translate(554.394531 0)"/>
     <use xlink:href="#DejaVuSans-Oblique-73" transform="translate(615.917969 0)"/>
     <use xlink:href="#DejaVuSans-Oblique-74" transform="translate(668.017578 0)"/>
     <use xlink:href="#DejaVuSans-Oblique-6f" transform="translate(707.226562 0)"/>
    </g>
   </g>
   <g id="text_13">
    <g id="patch_5">
     <path d="M 581.348437 65.0055 
L 696.651562 65.0055 
Q 699.651562 65.0055 699.651562 62.0055 
L 699.651562 41.129562 
Q 699.651562 38.129562 696.651562 38.129562 
L 581.348437 38.129562 
Q 578.348437 38.129562 578.348437 41.129562 
L 578.348437 62.0055 
Q 578.348437 65.0055 581.348437 65.0055 
z
" style="fill: #ffffff; opacity: 0.8; stroke: #000000; stroke-linejoin: miter"/>
    </g>
    <!-- Punto de concurrencia: -->
    <g style="fill: #dc2626" transform="translate(581.348437 48.728) scale(0.1 -0.1)">
     <use xlink:href="#DejaVuSans-50"/>
     <use xlink:href="#DejaVuSans-75" transform="translate(58.552734 0)"/>
     <use xlink:href="#DejaVuSans-6e" transform="translate(121.931641 0)"/>
     <use xlink:href="#DejaVuSans-74" transform="translate(185.310547 0)"/>
     <use xlink:href="#DejaVuSans-6f" transform="translate(224.519531 0)"/>
     <use xlink:href="#DejaVuSans-20" transform="translate(285.701172 0)"/>
     <use xlink:href="#DejaVuSans-64" transform="translate(317.488281 0)"/>
     <use xlink:href="#DejaVuSans-65" transform="translate(380.964844 0)"/>
     <use xlink:href="#DejaVuSans-20" transform="translate(442.488281 0)"/>
     <use xlink:href="#DejaVuSans-63" transform="translate(474.275391 0)"/>
     <use xlink:href="#DejaVuSans-6f" transform="translate(529.255859 0)"/>
     <use xlink:href="#DejaVuSans-6e" transform="translate(590.4375 0)"/>
     <use xlink:href="#DejaVuSans-63" transform="translate(653.816406 0)"/>
     <use xlink:href="#DejaVuSans-75" transform="translate(708.796875 0)"/>
     <use xlink:href="#DejaVuSans-72" transform="translate(772.175781 0)"/>
     <use xlink:href="#DejaVuSans-72" transform="translate(811.539062 0)"/>
     <use xlink:href="#DejaVuSans-65" transform="translate(850.402344 0)"/>
     <use xlink:href="#DejaVuSans-6e" transform="translate(911.925781 0)"/>
     <use xlink:href="#DejaVuSans-63" transform="translate(975.304688 0)"/>
     <use xlink:href="#DejaVuSans-69" transform="translate(1030.285156 0)"/>
     <use xlink:href="#DejaVuSans-61" transform="translate(1058.068359 0)"/>
     <use xlink:href="#DejaVuSans-3a" transform="translate(1119.347656 0)"/>
    </g>
    <!-- Ortocentro (H) -->
    <g style="fill: #dc2626" transform="translate(602.78125 59.925812) scale(0.1 -0.1)">
     <defs>
      <path id="DejaVuSans-4f" d="M 2522 4238 
Q 1834 4238 1429 3725 
Q 1025 3213 1025 2328 
Q 1025 1447 1429 934 
Q 1834 422 2522 422 
Q 3209 422 3611 934 
Q 4013 1447 4013 2328 
Q 4013 3213 3611 3725 
Q 3209 4238 2522 4238 
z
M 2522 4750 
Q 3503 4750 4090 4092 
Q 4678 3434 4678 2328 
Q 4678 1225 4090 567 
Q 3503 -91 2522 -91 
Q 1538 -91 948 565 
Q 359 1222 359 2328 
Q 359 3434 948 4092 
Q 1538 4750 2522 4750 
z
" transform="scale(0.015625)"/>
      <path id="DejaVuSans-48" d="M 628 4666 
L 1259 4666 
L 1259 2753 
L 3553 2753 
L 3553 4666 
L 4184 4666 
L 4184 0 
L 3553 0 
L 3553 2222 
L 1259 2222 
L 1259 0 
L 628 0 
L 628 4666 
z
" transform="scale(0.015625)"/>
     </defs>
     <use xlink:href="#DejaVuSans-4f"/>
     <use xlink:href="#DejaVuSans-72" transform="translate(78.710938 0)"/>
     <use xlink:href="#DejaVuSans-74" transform="translate(119.824219 0)"/>
     <use xlink:href="#DejaVuSans-6f" transform="translate(159.033203 0)"/>
     <use xlink:href="#DejaVuSans-63" transform="translate(220.214844 0)"/>
     <use xlink:href="#DejaVuSans-65" transform="translate(275.195312 0)"/>
     <use xlink:href="#DejaVuSans-6e" transform="translate(336.71875 0)"/>
     <use xlink:href="#DejaVuSans-74" transform="translate(400.097656 0)"/>
     <use xlink:href="#DejaVuSans-72" transform="translate(439.306641 0)"/>
     <use xlink:href="#DejaVuSans-6f" transform="translate(478.169922 0)"/>
     <use xlink:href="#DejaVuSans-20" transform="translate(539.351562 0)"/>
     <use xlink:href="#DejaVuSans-28" transform="translate(571.138672 0)"/>
     <use xlink:href="#DejaVuSans-48" transform="translate(610.152344 0)"/>
     <use xlink:href="#DejaVuSans-29" transform="translate(685.347656 0)"/>
    </g>
   </g>
   <g id="text_14">
    <!-- Altura -->
    <g style="fill: #1f2937" transform="translate(614.678281 17.837812) scale(0.14 -0.14)">
     <defs>
      <path id="DejaVuSans-Bold-41" d="M 3419 850 
L 1538 850 
L 1241 0 
L 31 0 
L 1759 4666 
L 3194 4666 
L 4922 0 
L 3713 0 
L 3419 850 
z
M 1838 1716 
L 3116 1716 
L 2478 3572 
L 1838 1716 
z
" transform="scale(0.015625)"/>
      <path id="DejaVuSans-Bold-6c" d="M 538 4863 
L 1656 4863 
L 1656 0 
L 538 0 
L 538 4863 
z
" transform="scale(0.015625)"/>
      <path id="DejaVuSans-Bold-74" d="M 1759 4494 
L 1759 3500 
L 2913 3500 
L 2913 2700 
L 1759 2700 
L 1759 1216 
Q 1759 972 1856 886 
Q 1953 800 2241 800 
L 2816 800 
L 2816 0 
L 1856 0 
Q 1194 0 917 276 
Q 641 553 641 1216 
L 641 2700 
L 84 2700 
L 84 3500 
L 641 3500 
L 641 4494 
L 1759 4494 
z
" transform="scale(0.015625)"/>
      <path id="DejaVuSans-Bold-75" d="M 500 1363 
L 500 3500 
L 1625 3500 
L 1625 3150 
Q 1625 2866 1622 2436 
Q 1619 2006 1619 1863 
Q 1619 1441 1641 1255 
Q 1663 1069 1716 984 
Q 1784 875 1895 815 
Q 2006 756 2150 756 
Q 2500 756 2700 1025 
Q 2900 1294 2900 1772 
L 2900 3500 
L 4019 3500 
L 4019 0 
L 2900 0 
L 2900 506 
Q 2647 200 2364 54 
Q 2081 -91 1741 -91 
Q 1134 -91 817 281 
Q 500 653 500 1363 
z
" transform="scale(0.015625)"/>
      <path id="DejaVuSans-Bold-72" d="M 3138 2547 
Q 2991 2616 2845 2648 
Q 2700 2681 2553 2681 
Q 2122 2681 1889 2404 
Q 1656 2128 1656 1613 
L 1656 0 
L 538 0 
L 538 3500 
L 1656 3500 
L 1656 2925 
Q 1872 3269 2151 3426 
Q 2431 3584 2822 3584 
Q 2878 3584 2943 3579 
Q 3009 3575 3134 3559 
L 3138 2547 
z
" transform="scale(0.015625)"/>
     </defs>
     <use xlink:href="#DejaVuSans-Bold-41"/>
     <use xlink:href="#DejaVuSans-Bold-6c" transform="translate(77.392578 0)"/>
     <use xlink:href="#DejaVuSans-Bold-74" transform="translate(111.669922 0)"/>
     <use xlink:href="#DejaVuSans-Bold-75" transform="translate(159.472656 0)"/>
     <use xlink:href="#DejaVuSans-Bold-72" transform="translate(230.664062 0)"/>
     <use xlink:href="#DejaVuSans-Bold-61" transform="translate(279.980469 0)"/>
    </g>
   </g>
  </g>
  <g id="axes_3">
   <g id="patch_6">
    <path d="M 75.96 714.415994 
L 351 714.415994 
L 167.64 508.135994 
z
" clip-path="url(#pd202cdd2db)" style="fill: #2563eb; opacity: 0.1; stroke: #2563eb; stroke-width: 2; stroke-linejoin: miter"/>
   </g>
   <g id="line2d_7">
    <path d="M 213.48 791.375994 
L 213.48 599.815994 
" clip-path="url(#pd202cdd2db)" style="fill: none; stroke: #7c3aed; stroke-width: 2.5; stroke-linecap: square"/>
   </g>
   <g id="line2d_8">
    <defs>
     <path id="m972fb1b0f0" d="M 0 4 
C 1.060812 4 2.078319 3.578535 2.828427 2.828427 
C 3.578535 2.078319 4 1.060812 4 0 
C 4 -1.060812 3.578535 -2.078319 2.828427 -2.828427 
C 2.078319 -3.578535 1.060812 -4 0 -4 
C -1.060812 -4 -2.078319 -3.578535 -2.828427 -2.828427 
C -3.578535 -2.078319 -4 -1.060812 -4 0 
C -4 1.060812 -3.578535 2.078319 -2.828427 2.828427 
C -2.078319 3.578535 -1.060812 4 0 4 
z
" style="stroke: #7c3aed"/>
    </defs>
    <g clip-path="url(#pd202cdd2db)">
     <use xlink:href="#m972fb1b0f0" x="213.48" y="714.415994" style="fill: #7c3aed; stroke: #7c3aed"/>
    </g>
   </g>
   <g id="line2d_9">
    <path d="M 144.72 721.291994 
L 144.72 707.539994 
" clip-path="url(#pd202cdd2db)" style="fill: none; stroke: #7c3aed; stroke-width: 2; stroke-linecap: square"/>
   </g>
   <g id="line2d_10">
    <path d="M 282.24 721.291994 
L 282.24 707.539994 
" clip-path="url(#pd202cdd2db)" style="fill: none; stroke: #7c3aed; stroke-width: 2; stroke-linecap: square"/>
   </g>
   <g id="text_15">
    <!-- $A$ -->
    <g style="fill: #1f2937" transform="translate(62.208 728.167994) scale(0.13 -0.13)">
     <use xlink:href="#DejaVuSans-Oblique-41" transform="translate(0 0.09375)"/>
    </g>
   </g>
   <g id="text_16">
    <!-- $B$ -->
    <g style="fill: #1f2937" transform="translate(360.168 728.167994) scale(0.13 -0.13)">
     <use xlink:href="#DejaVuSans-Oblique-42" transform="translate(0 0.09375)"/>
    </g>
   </g>
   <g id="text_17">
    <!-- $C$ -->
    <g style="fill: #1f2937" transform="translate(153.888 498.967994) scale(0.13 -0.13)">
     <use xlink:href="#DejaVuSans-Oblique-43" transform="translate(0 0.78125)"/>
    </g>
   </g>
   <g id="text_18">
    <!-- $M$ -->
    <g style="fill: #7c3aed" transform="translate(227.232 728.167994) scale(0.12 -0.12)">
     <use xlink:href="#DejaVuSans-Oblique-4d" transform="translate(0 0.09375)"/>
    </g>
   </g>
   <g id="text_19">
    <!-- Perpendicular que pasa -->
    <g style="fill: #1f2937" transform="translate(154.419062 739.890182) scale(0.1 -0.1)">
     <defs>
      <path id="DejaVuSans-Oblique-71" d="M 2669 525 
Q 2438 222 2123 65 
Q 1809 -91 1428 -91 
Q 897 -91 595 267 
Q 294 625 294 1253 
Q 294 1759 480 2231 
Q 666 2703 1013 3078 
Q 1238 3322 1530 3453 
Q 1822 3584 2144 3584 
Q 2531 3584 2781 3431 
Q 3031 3278 3144 2969 
L 3244 3494 
L 3822 3494 
L 2888 -1319 
L 2309 -1319 
L 2669 525 
z
M 891 1338 
Q 891 875 1084 633 
Q 1278 391 1644 391 
Q 2188 391 2572 911 
Q 2956 1431 2956 2175 
Q 2956 2625 2757 2864 
Q 2559 3103 2188 3103 
Q 1916 3103 1684 2976 
Q 1453 2850 1281 2606 
Q 1100 2350 995 2006 
Q 891 1663 891 1338 
z
" transform="scale(0.015625)"/>
     </defs>
     <use xlink:href="#DejaVuSans-Oblique-50"/>
     <use xlink:href="#DejaVuSans-Oblique-65" transform="translate(60.302734 0)"/>
     <use xlink:href="#DejaVuSans-Oblique-72" transform="translate(121.826172 0)"/>
     <use xlink:href="#DejaVuSans-Oblique-70" transform="translate(162.939453 0)"/>
     <use xlink:href="#DejaVuSans-Oblique-65" transform="translate(226.416016 0)"/>
     <use xlink:href="#DejaVuSans-Oblique-6e" transform="translate(287.939453 0)"/>
     <use xlink:href="#DejaVuSans-Oblique-64" transform="translate(351.318359 0)"/>
     <use xlink:href="#DejaVuSans-Oblique-69" transform="translate(414.794922 0)"/>
     <use xlink:href="#DejaVuSans-Oblique-63" transform="translate(442.578125 0)"/>
     <use xlink:href="#DejaVuSans-Oblique-75" transform="translate(497.558594 0)"/>
     <use xlink:href="#DejaVuSans-Oblique-6c" transform="translate(560.9375 0)"/>
     <use xlink:href="#DejaVuSans-Oblique-61" transform="translate(588.720703 0)"/>
     <use xlink:href="#DejaVuSans-Oblique-72" transform="translate(650 0)"/>
     <use xlink:href="#DejaVuSans-Oblique-20" transform="translate(691.113281 0)"/>
     <use xlink:href="#DejaVuSans-Oblique-71" transform="translate(722.900391 0)"/>
     <use xlink:href="#DejaVuSans-Oblique-75" transform="translate(786.376953 0)"/>
     <use xlink:href="#DejaVuSans-Oblique-65" transform="translate(849.755859 0)"/>
     <use xlink:href="#DejaVuSans-Oblique-20" transform="translate(911.279297 0)"/>
     <use xlink:href="#DejaVuSans-Oblique-70" transform="translate(943.066406 0)"/>
     <use xlink:href="#DejaVuSans-Oblique-61" transform="translate(1006.542969 0)"/>
     <use xlink:href="#DejaVuSans-Oblique-73" transform="translate(1067.822266 0)"/>
     <use xlink:href="#DejaVuSans-Oblique-61" transform="translate(1119.921875 0)"/>
    </g>
    <!-- por punto medio del lado -->
    <g style="fill: #1f2937" transform="translate(150.407344 751.087994) scale(0.1 -0.1)">
     <use xlink:href="#DejaVuSans-Oblique-70"/>
     <use xlink:href="#DejaVuSans-Oblique-6f" transform="translate(63.476562 0)"/>
     <use xlink:href="#DejaVuSans-Oblique-72" transform="translate(124.658203 0)"/>
     <use xlink:href="#DejaVuSans-Oblique-20" transform="translate(165.771484 0)"/>
     <use xlink:href="#DejaVuSans-Oblique-70" transform="translate(197.558594 0)"/>
     <use xlink:href="#DejaVuSans-Oblique-75" transform="translate(261.035156 0)"/>
     <use xlink:href="#DejaVuSans-Oblique-6e" transform="translate(324.414062 0)"/>
     <use xlink:href="#DejaVuSans-Oblique-74" transform="translate(387.792969 0)"/>
     <use xlink:href="#DejaVuSans-Oblique-6f" transform="translate(427.001953 0)"/>
     <use xlink:href="#DejaVuSans-Oblique-20" transform="translate(488.183594 0)"/>
     <use xlink:href="#DejaVuSans-Oblique-6d" transform="translate(519.970703 0)"/>
     <use xlink:href="#DejaVuSans-Oblique-65" transform="translate(617.382812 0)"/>
     <use xlink:href="#DejaVuSans-Oblique-64" transform="translate(678.90625 0)"/>
     <use xlink:href="#DejaVuSans-Oblique-69" transform="translate(742.382812 0)"/>
     <use xlink:href="#DejaVuSans-Oblique-6f" transform="translate(770.166016 0)"/>
     <use xlink:href="#DejaVuSans-Oblique-20" transform="translate(831.347656 0)"/>
     <use xlink:href="#DejaVuSans-Oblique-64" transform="translate(863.134766 0)"/>
     <use xlink:href="#DejaVuSans-Oblique-65" transform="translate(926.611328 0)"/>
     <use xlink:href="#DejaVuSans-Oblique-6c" transform="translate(988.134766 0)"/>
     <use xlink:href="#DejaVuSans-Oblique-20" transform="translate(1015.917969 0)"/>
     <use xlink:href="#DejaVuSans-Oblique-6c" transform="translate(1047.705078 0)"/>
     <use xlink:href="#DejaVuSans-Oblique-61" transform="translate(1075.488281 0)"/>
     <use xlink:href="#DejaVuSans-Oblique-64" transform="translate(1136.767578 0)"/>
     <use xlink:href="#DejaVuSans-Oblique-6f" transform="translate(1200.244141 0)"/>
    </g>
   </g>
   <g id="text_20">
    <g id="patch_7">
     <path d="M 155.828437 476.543682 
L 271.131562 476.543682 
Q 274.131562 476.543682 274.131562 473.543682 
L 274.131562 452.667744 
Q 274.131562 449.667744 271.131562 449.667744 
L 155.828437 449.667744 
Q 152.828437 449.667744 152.828437 452.667744 
L 152.828437 473.543682 
Q 152.828437 476.543682 155.828437 476.543682 
z
" style="fill: #ffffff; opacity: 0.8; stroke: #000000; stroke-linejoin: miter"/>
    </g>
    <!-- Punto de concurrencia: -->
    <g style="fill: #7c3aed" transform="translate(155.828437 460.266182) scale(0.1 -0.1)">
     <use xlink:href="#DejaVuSans-50"/>
     <use xlink:href="#DejaVuSans-75" transform="translate(58.552734 0)"/>
     <use xlink:href="#DejaVuSans-6e" transform="translate(121.931641 0)"/>
     <use xlink:href="#DejaVuSans-74" transform="translate(185.310547 0)"/>
     <use xlink:href="#DejaVuSans-6f" transform="translate(224.519531 0)"/>
     <use xlink:href="#DejaVuSans-20" transform="translate(285.701172 0)"/>
     <use xlink:href="#DejaVuSans-64" transform="translate(317.488281 0)"/>
     <use xlink:href="#DejaVuSans-65" transform="translate(380.964844 0)"/>
     <use xlink:href="#DejaVuSans-20" transform="translate(442.488281 0)"/>
     <use xlink:href="#DejaVuSans-63" transform="translate(474.275391 0)"/>
     <use xlink:href="#DejaVuSans-6f" transform="translate(529.255859 0)"/>
     <use xlink:href="#DejaVuSans-6e" transform="translate(590.4375 0)"/>
     <use xlink:href="#DejaVuSans-63" transform="translate(653.816406 0)"/>
     <use xlink:href="#DejaVuSans-75" transform="translate(708.796875 0)"/>
     <use xlink:href="#DejaVuSans-72" transform="translate(772.175781 0)"/>
     <use xlink:href="#DejaVuSans-72" transform="translate(811.539062 0)"/>
     <use xlink:href="#DejaVuSans-65" transform="translate(850.402344 0)"/>
     <use xlink:href="#DejaVuSans-6e" transform="translate(911.925781 0)"/>
     <use xlink:href="#DejaVuSans-63" transform="translate(975.304688 0)"/>
     <use xlink:href="#DejaVuSans-69" transform="translate(1030.285156 0)"/>
     <use xlink:href="#DejaVuSans-61" transform="translate(1058.068359 0)"/>
     <use xlink:href="#DejaVuSans-3a" transform="translate(1119.347656 0)"/>
    </g>
    <!-- Circuncentro (O) -->
    <g style="fill: #7c3aed" transform="translate(172.18625 471.463994) scale(0.1 -0.1)">
     <use xlink:href="#DejaVuSans-43"/>
     <use xlink:href="#DejaVuSans-69" transform="translate(69.824219 0)"/>
     <use xlink:href="#DejaVuSans-72" transform="translate(97.607422 0)"/>
     <use xlink:href="#DejaVuSans-63" transform="translate(136.470703 0)"/>
     <use xlink:href="#DejaVuSans-75" transform="translate(191.451172 0)"/>
     <use xlink:href="#DejaVuSans-6e" transform="translate(254.830078 0)"/>
     <use xlink:href="#DejaVuSans-63" transform="translate(318.208984 0)"/>
     <use xlink:href="#DejaVuSans-65" transform="translate(373.189453 0)"/>
     <use xlink:href="#DejaVuSans-6e" transform="translate(434.712891 0)"/>
     <use xlink:href="#DejaVuSans-74" transform="translate(498.091797 0)"/>
     <use xlink:href="#DejaVuSans-72" transform="translate(537.300781 0)"/>
     <use xlink:href="#DejaVuSans-6f" transform="translate(576.164062 0)"/>
     <use xlink:href="#DejaVuSans-20" transform="translate(637.345703 0)"/>
     <use xlink:href="#DejaVuSans-28" transform="translate(669.132812 0)"/>
     <use xlink:href="#DejaVuSans-4f" transform="translate(708.146484 0)"/>
     <use xlink:href="#DejaVuSans-29" transform="translate(786.857422 0)"/>
    </g>
   </g>
   <g id="text_21">
    <!-- Mediatriz -->
    <g style="fill: #1f2937" transform="translate(176.360312 429.375994) scale(0.14 -0.14)">
     <defs>
      <path id="DejaVuSans-Bold-7a" d="M 366 3500 
L 3419 3500 
L 3419 2719 
L 1575 800 
L 3419 800 
L 3419 0 
L 288 0 
L 288 781 
L 2131 2700 
L 366 2700 
L 366 3500 
z
" transform="scale(0.015625)"/>
     </defs>
     <use xlink:href="#DejaVuSans-Bold-4d"/>
     <use xlink:href="#DejaVuSans-Bold-65" transform="translate(99.511719 0)"/>
     <use xlink:href="#DejaVuSans-Bold-64" transform="translate(167.333984 0)"/>
     <use xlink:href="#DejaVuSans-Bold-69" transform="translate(238.916016 0)"/>
     <use xlink:href="#DejaVuSans-Bold-61" transform="translate(273.193359 0)"/>
     <use xlink:href="#DejaVuSans-Bold-74" transform="translate(340.673828 0)"/>
     <use xlink:href="#DejaVuSans-Bold-72" transform="translate(388.476562 0)"/>
     <use xlink:href="#DejaVuSans-Bold-69" transform="translate(437.792969 0)"/>
     <use xlink:href="#DejaVuSans-Bold-7a" transform="translate(472.070312 0)"/>
    </g>
   </g>
  </g>
  <g id="axes_4">
   <g id="patch_8">
    <path d="M 501.48 714.415994 
L 776.52 714.415994 
L 593.16 508.135994 
z
" clip-path="url(#peaf927b2ad)" style="fill: #2563eb; opacity: 0.1; stroke: #2563eb; stroke-width: 2; stroke-linejoin: miter"/>
   </g>
   <g id="patch_9">
    <path d="M 578.26609 541.647291 
C 581.468701 543.070674 584.858882 544.027633 588.333063 544.488934 
C 591.807244 544.950236 595.329682 544.911133 598.792766 544.37282 
" clip-path="url(#peaf927b2ad)" style="fill: none; stroke: #f59e0b; stroke-width: 1.5; stroke-linejoin: miter"/>
   </g>
   <g id="patch_10">
    <path d="M 598.792766 544.37282 
C 602.25585 543.834507 605.623951 542.802523 608.794174 541.308395 
C 611.964397 539.814267 614.904126 537.873367 617.523551 535.544989 
" clip-path="url(#peaf927b2ad)" style="fill: none; stroke: #f59e0b; stroke-width: 1.5; stroke-linejoin: miter"/>
   </g>
   <g id="line2d_11">
    <path d="M 593.16 508.135994 
L 625.224809 714.415994 
" clip-path="url(#peaf927b2ad)" style="fill: none; stroke: #f59e0b; stroke-width: 2.5; stroke-linecap: square"/>
   </g>
   <g id="line2d_12">
    <defs>
     <path id="md373386bec" d="M 0 4 
C 1.060812 4 2.078319 3.578535 2.828427 2.828427 
C 3.578535 2.078319 4 1.060812 4 0 
C 4 -1.060812 3.578535 -2.078319 2.828427 -2.828427 
C 2.078319 -3.578535 1.060812 -4 0 -4 
C -1.060812 -4 -2.078319 -3.578535 -2.828427 -2.828427 
C -3.578535 -2.078319 -4 -1.060812 -4 0 
C -4 1.060812 -3.578535 2.078319 -2.828427 2.828427 
C -2.078319 3.578535 -1.060812 4 0 4 
z
" style="stroke: #f59e0b"/>
    </defs>
    <g clip-path="url(#peaf927b2ad)">
     <use xlink:href="#md373386bec" x="625.224809" y="714.415994" style="fill: #f59e0b; stroke: #f59e0b"/>
    </g>
   </g>
   <g id="text_22">
    <!-- $A$ -->
    <g style="fill: #1f2937" transform="translate(487.728 728.167994) scale(0.13 -0.13)">
     <use xlink:href="#DejaVuSans-Oblique-41" transform="translate(0 0.09375)"/>
    </g>
   </g>
   <g id="text_23">
    <!-- $B$ -->
    <g style="fill: #1f2937" transform="translate(785.688 728.167994) scale(0.13 -0.13)">
     <use xlink:href="#DejaVuSans-Oblique-42" transform="translate(0 0.09375)"/>
    </g>
   </g>
   <g id="text_24">
    <!-- $C$ -->
    <g style="fill: #1f2937" transform="translate(579.408 498.967994) scale(0.13 -0.13)">
     <use xlink:href="#DejaVuSans-Oblique-43" transform="translate(0 0.78125)"/>
    </g>
   </g>
   <g id="text_25">
    <!-- $D$ -->
    <g style="fill: #f59e0b" transform="translate(638.976809 705.247994) scale(0.12 -0.12)">
     <defs>
      <path id="DejaVuSans-Oblique-44" d="M 1081 4666 
L 2438 4666 
Q 3519 4666 4070 4208 
Q 4622 3750 4622 2847 
Q 4622 2250 4412 1698 
Q 4203 1147 3834 769 
Q 3463 381 2891 190 
Q 2319 0 1538 0 
L 172 0 
L 1081 4666 
z
M 1613 4147 
L 909 519 
L 1734 519 
Q 2794 519 3375 1128 
Q 3956 1738 3956 2847 
Q 3956 3519 3581 3833 
Q 3206 4147 2406 4147 
L 1613 4147 
z
" transform="scale(0.015625)"/>
     </defs>
     <use xlink:href="#DejaVuSans-Oblique-44" transform="translate(0 0.09375)"/>
    </g>
   </g>
   <g id="text_26">
    <!-- Divide el ángulo -->
    <g style="fill: #1f2937" transform="translate(598.49375 739.890182) scale(0.1 -0.1)">
     <defs>
      <path id="DejaVuSans-Oblique-e1" d="M 3438 1997 
L 3047 0 
L 2472 0 
L 2578 531 
Q 2325 219 2001 64 
Q 1678 -91 1281 -91 
Q 834 -91 548 182 
Q 263 456 263 884 
Q 263 1497 752 1853 
Q 1241 2209 2100 2209 
L 2900 2209 
L 2931 2363 
Q 2938 2388 2941 2417 
Q 2944 2447 2944 2509 
Q 2944 2788 2717 2942 
Q 2491 3097 2081 3097 
Q 1800 3097 1504 3025 
Q 1209 2953 897 2809 
L 997 3341 
Q 1322 3463 1633 3523 
Q 1944 3584 2234 3584 
Q 2853 3584 3176 3315 
Q 3500 3047 3500 2534 
Q 3500 2431 3484 2292 
Q 3469 2153 3438 1997 
z
M 2816 1759 
L 2241 1759 
Q 1534 1759 1195 1570 
Q 856 1381 856 984 
Q 856 709 1029 553 
Q 1203 397 1509 397 
Q 1978 397 2328 733 
Q 2678 1069 2791 1631 
L 2816 1759 
z
M 3031 5119 
L 3653 5119 
L 2406 3944 
L 1925 3944 
L 3031 5119 
z
" transform="scale(0.015625)"/>
      <path id="DejaVuSans-Oblique-67" d="M 3816 3500 
L 3219 434 
Q 3047 -456 2561 -893 
Q 2075 -1331 1253 -1331 
Q 950 -1331 690 -1286 
Q 431 -1241 206 -1147 
L 313 -588 
Q 525 -725 762 -790 
Q 1000 -856 1269 -856 
Q 1816 -856 2167 -557 
Q 2519 -259 2631 300 
L 2681 563 
Q 2441 288 2122 144 
Q 1803 0 1434 0 
Q 903 0 598 351 
Q 294 703 294 1319 
Q 294 1803 478 2267 
Q 663 2731 997 3091 
Q 1219 3328 1514 3456 
Q 1809 3584 2131 3584 
Q 2484 3584 2746 3420 
Q 3009 3256 3138 2956 
L 3238 3500 
L 3816 3500 
z
M 2950 2216 
Q 2950 2641 2750 2872 
Q 2550 3103 2181 3103 
Q 1953 3103 1747 3012 
Q 1541 2922 1394 2759 
Q 1156 2491 1023 2127 
Q 891 1763 891 1375 
Q 891 944 1092 712 
Q 1294 481 1672 481 
Q 2219 481 2584 976 
Q 2950 1472 2950 2216 
z
" transform="scale(0.015625)"/>
     </defs>
     <use xlink:href="#DejaVuSans-Oblique-44"/>
     <use xlink:href="#DejaVuSans-Oblique-69" transform="translate(77.001953 0)"/>
     <use xlink:href="#DejaVuSans-Oblique-76" transform="translate(104.785156 0)"/>
     <use xlink:href="#DejaVuSans-Oblique-69" transform="translate(163.964844 0)"/>
     <use xlink:href="#DejaVuSans-Oblique-64" transform="translate(191.748047 0)"/>
     <use xlink:href="#DejaVuSans-Oblique-65" transform="translate(255.224609 0)"/>
     <use xlink:href="#DejaVuSans-Oblique-20" transform="translate(316.748047 0)"/>
     <use xlink:href="#DejaVuSans-Oblique-65" transform="translate(348.535156 0)"/>
     <use xlink:href="#DejaVuSans-Oblique-6c" transform="translate(410.058594 0)"/>
     <use xlink:href="#DejaVuSans-Oblique-20" transform="translate(437.841797 0)"/>
     <use xlink:href="#DejaVuSans-Oblique-e1" transform="translate(469.628906 0)"/>
     <use xlink:href="#DejaVuSans-Oblique-6e" transform="translate(530.908203 0)"/>
     <use xlink:href="#DejaVuSans-Oblique-67" transform="translate(594.287109 0)"/>
     <use xlink:href="#DejaVuSans-Oblique-75" transform="translate(657.763672 0)"/>
     <use xlink:href="#DejaVuSans-Oblique-6c" transform="translate(721.142578 0)"/>
     <use xlink:href="#DejaVuSans-Oblique-6f" transform="translate(748.925781 0)"/>
    </g>
    <!-- en dos partes iguales -->
    <g style="fill: #1f2937" transform="translate(585.347656 751.087994) scale(0.1 -0.1)">
     <use xlink:href="#DejaVuSans-Oblique-65"/>
     <use xlink:href="#DejaVuSans-Oblique-6e" transform="translate(61.523438 0)"/>
     <use xlink:href="#DejaVuSans-Oblique-20" transform="translate(124.902344 0)"/>
     <use xlink:href="#DejaVuSans-Oblique-64" transform="translate(156.689453 0)"/>
     <use xlink:href="#DejaVuSans-Oblique-6f" transform="translate(220.166016 0)"/>
     <use xlink:href="#DejaVuSans-Oblique-73" transform="translate(281.347656 0)"/>
     <use xlink:href="#DejaVuSans-Oblique-20" transform="translate(333.447266 0)"/>
     <use xlink:href="#DejaVuSans-Oblique-70" transform="translate(365.234375 0)"/>
     <use xlink:href="#DejaVuSans-Oblique-61" transform="translate(428.710938 0)"/>
     <use xlink:href="#DejaVuSans-Oblique-72" transform="translate(489.990234 0)"/>
     <use xlink:href="#DejaVuSans-Oblique-74" transform="translate(531.103516 0)"/>
     <use xlink:href="#DejaVuSans-Oblique-65" transform="translate(570.3125 0)"/>
     <use xlink:href="#DejaVuSans-Oblique-73" transform="translate(631.835938 0)"/>
     <use xlink:href="#DejaVuSans-Oblique-20" transform="translate(683.935547 0)"/>
     <use xlink:href="#DejaVuSans-Oblique-69" transform="translate(715.722656 0)"/>
     <use xlink:href="#DejaVuSans-Oblique-67" transform="translate(743.505859 0)"/>
     <use xlink:href="#DejaVuSans-Oblique-75" transform="translate(806.982422 0)"/>
     <use xlink:href="#DejaVuSans-Oblique-61" transform="translate(870.361328 0)"/>
     <use xlink:href="#DejaVuSans-Oblique-6c" transform="translate(931.640625 0)"/>
     <use xlink:href="#DejaVuSans-Oblique-65" transform="translate(959.423828 0)"/>
     <use xlink:href="#DejaVuSans-Oblique-73" transform="translate(1020.947266 0)"/>
    </g>
   </g>
   <g id="text_27">
    <g id="patch_11">
     <path d="M 581.348437 476.543682 
L 696.651562 476.543682 
Q 699.651562 476.543682 699.651562 473.543682 
L 699.651562 452.667744 
Q 699.651562 449.667744 696.651562 449.667744 
L 581.348437 449.667744 
Q 578.348437 449.667744 578.348437 452.667744 
L 578.348437 473.543682 
Q 578.348437 476.543682 581.348437 476.543682 
z
" style="fill: #ffffff; opacity: 0.8; stroke: #000000; stroke-linejoin: miter"/>
    </g>
    <!-- Punto de concurrencia: -->
    <g style="fill: #f59e0b" transform="translate(581.348437 460.266182) scale(0.1 -0.1)">
     <use xlink:href="#DejaVuSans-50"/>
     <use xlink:href="#DejaVuSans-75" transform="translate(58.552734 0)"/>
     <use xlink:href="#DejaVuSans-6e" transform="translate(121.931641 0)"/>
     <use xlink:href="#DejaVuSans-74" transform="translate(185.310547 0)"/>
     <use xlink:href="#DejaVuSans-6f" transform="translate(224.519531 0)"/>
     <use xlink:href="#DejaVuSans-20" transform="translate(285.701172 0)"/>
     <use xlink:href="#DejaVuSans-64" transform="translate(317.488281 0)"/>
     <use xlink:href="#DejaVuSans-65" transform="translate(380.964844 0)"/>
     <use xlink:href="#DejaVuSans-20" transform="translate(442.488281 0)"/>
     <use xlink:href="#DejaVuSans-63" transform="translate(474.275391 0)"/>
     <use xlink:href="#DejaVuSans-6f" transform="translate(529.255859 0)"/>
     <use xlink:href="#DejaVuSans-6e" transform="translate(590.4375 0)"/>
     <use xlink:href="#DejaVuSans-63" transform="translate(653.816406 0)"/>
     <use xlink:href="#DejaVuSans-75" transform="translate(708.796875 0)"/>
     <use xlink:href="#DejaVuSans-72" transform="translate(772.175781 0)"/>
     <use xlink:href="#DejaVuSans-72" transform="translate(811.539062 0)"/>
     <use xlink:href="#DejaVuSans-65" transform="translate(850.402344 0)"/>
     <use xlink:href="#DejaVuSans-6e" transform="translate(911.925781 0)"/>
     <use xlink:href="#DejaVuSans-63" transform="translate(975.304688 0)"/>
     <use xlink:href="#DejaVuSans-69" transform="translate(1030.285156 0)"/>
     <use xlink:href="#DejaVuSans-61" transform="translate(1058.068359 0)"/>
     <use xlink:href="#DejaVuSans-3a" transform="translate(1119.347656 0)"/>
    </g>
    <!-- Incentro (I) -->
    <g style="fill: #f59e0b" transform="translate(611.433594 471.463994) scale(0.1 -0.1)">
     <defs>
      <path id="DejaVuSans-49" d="M 628 4666 
L 1259 4666 
L 1259 0 
L 628 0 
L 628 4666 
z
" transform="scale(0.015625)"/>
     </defs>
     <use xlink:href="#DejaVuSans-49"/>
     <use xlink:href="#DejaVuSans-6e" transform="translate(29.492188 0)"/>
     <use xlink:href="#DejaVuSans-63" transform="translate(92.871094 0)"/>
     <use xlink:href="#DejaVuSans-65" transform="translate(147.851562 0)"/>
     <use xlink:href="#DejaVuSans-6e" transform="translate(209.375 0)"/>
     <use xlink:href="#DejaVuSans-74" transform="translate(272.753906 0)"/>
     <use xlink:href="#DejaVuSans-72" transform="translate(311.962891 0)"/>
     <use xlink:href="#DejaVuSans-6f" transform="translate(350.826172 0)"/>
     <use xlink:href="#DejaVuSans-20" transform="translate(412.007812 0)"/>
     <use xlink:href="#DejaVuSans-28" transform="translate(443.794922 0)"/>
     <use xlink:href="#DejaVuSans-49" transform="translate(482.808594 0)"/>
     <use xlink:href="#DejaVuSans-29" transform="translate(512.300781 0)"/>
    </g>
   </g>
   <g id="text_28">
    <!-- Bisectriz -->
    <g style="fill: #1f2937" transform="translate(604.929687 429.375994) scale(0.14 -0.14)">
     <defs>
      <path id="DejaVuSans-Bold-42" d="M 2456 2859 
Q 2741 2859 2887 2984 
Q 3034 3109 3034 3353 
Q 3034 3594 2887 3720 
Q 2741 3847 2456 3847 
L 1791 3847 
L 1791 2859 
L 2456 2859 
z
M 2497 819 
Q 2859 819 3042 972 
Q 3225 1125 3225 1434 
Q 3225 1738 3044 1889 
Q 2863 2041 2497 2041 
L 1791 2041 
L 1791 819 
L 2497 819 
z
M 3616 2497 
Q 4003 2384 4215 2081 
Q 4428 1778 4428 1338 
Q 4428 663 3972 331 
Q 3516 0 2584 0 
L 588 0 
L 588 4666 
L 2394 4666 
Q 3366 4666 3802 4372 
Q 4238 4078 4238 3431 
Q 4238 3091 4078 2852 
Q 3919 2613 3616 2497 
z
" transform="scale(0.015625)"/>
      <path id="DejaVuSans-Bold-73" d="M 3272 3391 
L 3272 2541 
Q 2913 2691 2578 2766 
Q 2244 2841 1947 2841 
Q 1628 2841 1473 2761 
Q 1319 2681 1319 2516 
Q 1319 2381 1436 2309 
Q 1553 2238 1856 2203 
L 2053 2175 
Q 2913 2066 3209 1816 
Q 3506 1566 3506 1031 
Q 3506 472 3093 190 
Q 2681 -91 1863 -91 
Q 1516 -91 1145 -36 
Q 775 19 384 128 
L 384 978 
Q 719 816 1070 734 
Q 1422 653 1784 653 
Q 2113 653 2278 743 
Q 2444 834 2444 1013 
Q 2444 1163 2330 1236 
Q 2216 1309 1875 1350 
L 1678 1375 
Q 931 1469 631 1722 
Q 331 1975 331 2491 
Q 331 3047 712 3315 
Q 1094 3584 1881 3584 
Q 2191 3584 2531 3537 
Q 2872 3491 3272 3391 
z
" transform="scale(0.015625)"/>
      <path id="DejaVuSans-Bold-63" d="M 3366 3391 
L 3366 2478 
Q 3138 2634 2908 2709 
Q 2678 2784 2431 2784 
Q 1963 2784 1702 2511 
Q 1441 2238 1441 1747 
Q 1441 1256 1702 982 
Q 1963 709 2431 709 
Q 2694 709 2930 787 
Q 3166 866 3366 1019 
L 3366 103 
Q 3103 6 2833 -42 
Q 2563 -91 2291 -91 
Q 1344 -91 809 395 
Q 275 881 275 1747 
Q 275 2613 809 3098 
Q 1344 3584 2291 3584 
Q 2566 3584 2833 3536 
Q 3100 3488 3366 3391 
z
" transform="scale(0.015625)"/>
     </defs>
     <use xlink:href="#DejaVuSans-Bold-42"/>
     <use xlink:href="#DejaVuSans-Bold-69" transform="translate(76.220703 0)"/>
     <use xlink:href="#DejaVuSans-Bold-73" transform="translate(110.498047 0)"/>
     <use xlink:href="#DejaVuSans-Bold-65" transform="translate(170.019531 0)"/>
     <use xlink:href="#DejaVuSans-Bold-63" transform="translate(237.841797 0)"/>
     <use xlink:href="#DejaVuSans-Bold-74" transform="translate(297.119141 0)"/>
     <use xlink:href="#DejaVuSans-Bold-72" transform="translate(344.921875 0)"/>
     <use xlink:href="#DejaVuSans-Bold-69" transform="translate(394.238281 0)"/>
     <use xlink:href="#DejaVuSans-Bold-7a" transform="translate(428.515625 0)"/>
    </g>
   </g>
  </g>
 </g>
 <defs>
  <clipPath id="pda31ec41c6">
   <rect x="7.2" y="27.837812" width="412.56" height="343.8"/>
  </clipPath>
  <clipPath id="p28c5e43c31">
   <rect x="432.72" y="27.837812" width="412.56" height="343.8"/>
  </clipPath>
  <clipPath id="pd202cdd2db">
   <rect x="7.2" y="439.375994" width="412.56" height="343.8"/>
  </clipPath>
  <clipPath id="peaf927b2ad">
   <rect x="432.72" y="439.375994" width="412.56" height="343.8"/>
  </clipPath>
 </defs>
</svg>
