<?xml version="1.0" encoding="utf-8" standalone="no"?>
<!DOCTYPE svg PUBLIC "-//W3C//DTD SVG 1.1//EN"
  "http://www.w3.org/Graphics/SVG/1.1/DTD/svg11.dtd">
<svg xmlns:xlink="http://www.w3.org/1999/xlink" width="1016.39952pt" height="728.39952pt" viewBox="0 0 1016.39952 728.39952" xmlns="http://www.w3.org/2000/svg" version="1.1">
 <metadata>
  <rdf:RDF xmlns:dc="http://purl.org/dc/elements/1.1/" xmlns:cc="http://creativecommons.org/ns#" xmlns:rdf="http://www.w3.org/1999/02/22-rdf-syntax-ns#">
   <cc:Work>
    <dc:type rdf:resource="http://purl.org/dc/dcmitype/StillImage"/>
    <dc:date>2026-01-03T21:57:08.923608</dc:date>
    <dc:format>image/svg+xml</dc:format>
    <dc:creator>
     <cc:Agent>
      <dc:title>Repositorio Matemáticas Universitarias</dc:title>
     </cc:Agent>
    </dc:creator>
   </cc:Work>
  </rdf:RDF>
 </metadata>
 <defs>
  <style type="text/css">*{stroke-linejoin: round; stroke-linecap: butt}</style>
 </defs>
 <g id="figure_1">
  <g id="patch_1">
   <path d="M 0 728.39952 
L 1016.39952 728.39952 
L 1016.39952 0 
L 0 0 
z
" style="fill: #ffffff"/>
  </g>
  <g id="axes_1">
   <g id="patch_2">
    <path d="M 33.787485 329.817428 
L 193.312395 329.817428 
L 86.962455 210.173746 
z
" clip-path="url(#pb24e1b54d6)" style="fill: #2563eb; opacity: 0.1; stroke: #2563eb; stroke-width: 2; stroke-linejoin: miter"/>
   </g>
   <g id="line2d_1">
    <path d="M 86.962455 210.173746 
L 113.54994 329.817428 
" clip-path="url(#pb24e1b54d6)" style="fill: none; stroke: #059669; stroke-width: 2.5; stroke-linecap: square"/>
   </g>
   <g id="line2d_2">
    <defs>
     <path id="mc901423f11" d="M 0 3.5 
C 0.928211 3.5 1.81853 3.131218 2.474874 2.474874 
C 3.131218 1.81853 3.5 0.928211 3.5 0 
C 3.5 -0.928211 3.131218 -1.81853 2.474874 -2.474874 
C 1.81853 -3.131218 0.928211 -3.5 0 -3.5 
C -0.928211 -3.5 -1.81853 -3.131218 -2.474874 -2.474874 
C -3.131218 -1.81853 -3.5 -0.928211 -3.5 0 
C -3.5 0.928211 -3.131218 1.81853 -2.474874 2.474874 
C -1.81853 3.131218 -0.928211 3.5 0 3.5 
z
" style="stroke: #059669"/>
    </defs>
    <g clip-path="url(#pb24e1b54d6)">
     <use xlink:href="#mc901423f11" x="113.54994" y="329.817428" style="fill: #059669; stroke: #059669"/>
    </g>
   </g>
   <g id="text_1">
    <!-- A -->
    <g style="fill: #1f2937" transform="translate(25.81124 337.793674) scale(0.11 -0.11)">
     <defs>
      <path id="DejaVuSans-Bold-41" d="M 3419 850 
L 1538 850 
L 1241 0 
L 31 0 
L 1759 4666 
L 3194 4666 
L 4922 0 
L 3713 0 
L 3419 850 
z
M 1838 1716 
L 3116 1716 
L 2478 3572 
L 1838 1716 
z
" transform="scale(0.015625)"/>
     </defs>
     <use xlink:href="#DejaVuSans-Bold-41"/>
    </g>
   </g>
   <g id="text_2">
    <!-- B -->
    <g style="fill: #1f2937" transform="translate(198.629892 337.793674) scale(0.11 -0.11)">
     <defs>
      <path id="DejaVuSans-Bold-42" d="M 2456 2859 
Q 2741 2859 2887 2984 
Q 3034 3109 3034 3353 
Q 3034 3594 2887 3720 
Q 2741 3847 2456 3847 
L 1791 3847 
L 1791 2859 
L 2456 2859 
z
M 2497 819 
Q 2859 819 3042 972 
Q 3225 1125 3225 1434 
Q 3225 1738 3044 1889 
Q 2863 2041 2497 2041 
L 1791 2041 
L 1791 819 
L 2497 819 
z
M 3616 2497 
Q 4003 2384 4215 2081 
Q 4428 1778 4428 1338 
Q 4428 663 3972 331 
Q 3516 0 2584 0 
L 588 0 
L 588 4666 
L 2394 4666 
Q 3366 4666 3802 4372 
Q 4238 4078 4238 3431 
Q 4238 3091 4078 2852 
Q 3919 2613 3616 2497 
z
" transform="scale(0.015625)"/>
     </defs>
     <use xlink:href="#DejaVuSans-Bold-42"/>
    </g>
   </g>
   <g id="text_3">
    <!-- C -->
    <g style="fill: #1f2937" transform="translate(78.98621 204.856249) scale(0.11 -0.11)">
     <defs>
      <path id="DejaVuSans-Bold-43" d="M 4288 256 
Q 3956 84 3597 -3 
Q 3238 -91 2847 -91 
Q 1681 -91 1000 561 
Q 319 1213 319 2328 
Q 319 3447 1000 4098 
Q 1681 4750 2847 4750 
Q 3238 4750 3597 4662 
Q 3956 4575 4288 4403 
L 4288 3438 
Q 3953 3666 3628 3772 
Q 3303 3878 2944 3878 
Q 2300 3878 1931 3465 
Q 1563 3053 1563 2328 
Q 1563 1606 1931 1193 
Q 2300 781 2944 781 
Q 3303 781 3628 887 
Q 3953 994 4288 1222 
L 4288 256 
z
" transform="scale(0.015625)"/>
     </defs>
     <use xlink:href="#DejaVuSans-Bold-43"/>
    </g>
   </g>
   <g id="text_4">
    <!-- M -->
    <g style="fill: #059669" transform="translate(109.235878 340.452422) scale(0.1 -0.1)">
     <defs>
      <path id="DejaVuSans-4d" d="M 628 4666 
L 1569 4666 
L 2759 1491 
L 3956 4666 
L 4897 4666 
L 4897 0 
L 4281 0 
L 4281 4097 
L 3078 897 
L 2444 897 
L 1241 4097 
L 1241 0 
L 628 0 
L 628 4666 
z
" transform="scale(0.015625)"/>
     </defs>
     <use xlink:href="#DejaVuSans-4d"/>
    </g>
   </g>
   <g id="text_5">
    <!-- Mediana -->
    <g style="fill: #059669" transform="translate(84.788378 175.586261) scale(0.12 -0.12)">
     <defs>
      <path id="DejaVuSans-Bold-4d" d="M 588 4666 
L 2119 4666 
L 3181 2169 
L 4250 4666 
L 5778 4666 
L 5778 0 
L 4641 0 
L 4641 3413 
L 3566 897 
L 2803 897 
L 1728 3413 
L 1728 0 
L 588 0 
L 588 4666 
z
" transform="scale(0.015625)"/>
      <path id="DejaVuSans-Bold-65" d="M 4031 1759 
L 4031 1441 
L 1416 1441 
Q 1456 1047 1700 850 
Q 1944 653 2381 653 
Q 2734 653 3104 758 
Q 3475 863 3866 1075 
L 3866 213 
Q 3469 63 3072 -14 
Q 2675 -91 2278 -91 
Q 1328 -91 801 392 
Q 275 875 275 1747 
Q 275 2603 792 3093 
Q 1309 3584 2216 3584 
Q 3041 3584 3536 3087 
Q 4031 2591 4031 1759 
z
M 2881 2131 
Q 2881 2450 2695 2645 
Q 2509 2841 2209 2841 
Q 1884 2841 1681 2658 
Q 1478 2475 1428 2131 
L 2881 2131 
z
" transform="scale(0.015625)"/>
      <path id="DejaVuSans-Bold-64" d="M 2919 2988 
L 2919 4863 
L 4044 4863 
L 4044 0 
L 2919 0 
L 2919 506 
Q 2688 197 2409 53 
Q 2131 -91 1766 -91 
Q 1119 -91 703 423 
Q 288 938 288 1747 
Q 288 2556 703 3070 
Q 1119 3584 1766 3584 
Q 2128 3584 2408 3439 
Q 2688 3294 2919 2988 
z
M 2181 722 
Q 2541 722 2730 984 
Q 2919 1247 2919 1747 
Q 2919 2247 2730 2509 
Q 2541 2772 2181 2772 
Q 1825 2772 1636 2509 
Q 1447 2247 1447 1747 
Q 1447 1247 1636 984 
Q 1825 722 2181 722 
z
" transform="scale(0.015625)"/>
      <path id="DejaVuSans-Bold-69" d="M 538 3500 
L 1656 3500 
L 1656 0 
L 538 0 
L 538 3500 
z
M 538 4863 
L 1656 4863 
L 1656 3950 
L 538 3950 
L 538 4863 
z
" transform="scale(0.015625)"/>
      <path id="DejaVuSans-Bold-61" d="M 2106 1575 
Q 1756 1575 1579 1456 
Q 1403 1338 1403 1106 
Q 1403 894 1545 773 
Q 1688 653 1941 653 
Q 2256 653 2472 879 
Q 2688 1106 2688 1447 
L 2688 1575 
L 2106 1575 
z
M 3816 1997 
L 3816 0 
L 2688 0 
L 2688 519 
Q 2463 200 2181 54 
Q 1900 -91 1497 -91 
Q 953 -91 614 226 
Q 275 544 275 1050 
Q 275 1666 698 1953 
Q 1122 2241 2028 2241 
L 2688 2241 
L 2688 2328 
Q 2688 2594 2478 2717 
Q 2269 2841 1825 2841 
Q 1466 2841 1156 2769 
Q 847 2697 581 2553 
L 581 3406 
Q 941 3494 1303 3539 
Q 1666 3584 2028 3584 
Q 2975 3584 3395 3211 
Q 3816 2838 3816 1997 
z
" transform="scale(0.015625)"/>
      <path id="DejaVuSans-Bold-6e" d="M 4056 2131 
L 4056 0 
L 2931 0 
L 2931 347 
L 2931 1631 
Q 2931 2084 2911 2256 
Q 2891 2428 2841 2509 
Q 2775 2619 2662 2680 
Q 2550 2741 2406 2741 
Q 2056 2741 1856 2470 
Q 1656 2200 1656 1722 
L 1656 0 
L 538 0 
L 538 3500 
L 1656 3500 
L 1656 2988 
Q 1909 3294 2193 3439 
Q 2478 3584 2822 3584 
Q 3428 3584 3742 3212 
Q 4056 2841 4056 2131 
z
" transform="scale(0.015625)"/>
     </defs>
     <use xlink:href="#DejaVuSans-Bold-4d"/>
     <use xlink:href="#DejaVuSans-Bold-65" transform="translate(99.511719 0)"/>
     <use xlink:href="#DejaVuSans-Bold-64" transform="translate(167.333984 0)"/>
     <use xlink:href="#DejaVuSans-Bold-69" transform="translate(238.916016 0)"/>
     <use xlink:href="#DejaVuSans-Bold-61" transform="translate(273.193359 0)"/>
     <use xlink:href="#DejaVuSans-Bold-6e" transform="translate(340.673828 0)"/>
     <use xlink:href="#DejaVuSans-Bold-61" transform="translate(411.865234 0)"/>
    </g>
   </g>
  </g>
  <g id="axes_2">
   <g id="patch_3">
    <path d="M 296.887365 329.817428 
L 456.412275 329.817428 
L 350.062335 210.173746 
z
" clip-path="url(#pf293d65c4b)" style="fill: #2563eb; opacity: 0.1; stroke: #2563eb; stroke-width: 2; stroke-linejoin: miter"/>
   </g>
   <g id="line2d_3">
    <path d="M 350.062335 210.173746 
L 350.062335 329.817428 
" clip-path="url(#pf293d65c4b)" style="fill: none; stroke-dasharray: 9.25,4; stroke-dashoffset: 0; stroke: #dc2626; stroke-width: 2.5"/>
   </g>
   <g id="line2d_4">
    <defs>
     <path id="mfaff5c18d1" d="M 0 3.5 
C 0.928211 3.5 1.81853 3.131218 2.474874 2.474874 
C 3.131218 1.81853 3.5 0.928211 3.5 0 
C 3.5 -0.928211 3.131218 -1.81853 2.474874 -2.474874 
C 1.81853 -3.131218 0.928211 -3.5 0 -3.5 
C -0.928211 -3.5 -1.81853 -3.131218 -2.474874 -2.474874 
C -3.131218 -1.81853 -3.5 -0.928211 -3.5 0 
C -3.5 0.928211 -3.131218 1.81853 -2.474874 2.474874 
C -1.81853 3.131218 -0.928211 3.5 0 3.5 
z
" style="stroke: #dc2626"/>
    </defs>
    <g clip-path="url(#pf293d65c4b)">
     <use xlink:href="#mfaff5c18d1" x="350.062335" y="329.817428" style="fill: #dc2626; stroke: #dc2626"/>
    </g>
   </g>
   <g id="line2d_5">
    <path d="M 350.062335 329.817428 
L 358.038581 329.817428 
" clip-path="url(#pf293d65c4b)" style="fill: none; stroke: #dc2626; stroke-width: 1.5; stroke-linecap: square"/>
   </g>
   <g id="line2d_6">
    <path d="M 358.038581 329.817428 
L 358.038581 321.841183 
" clip-path="url(#pf293d65c4b)" style="fill: none; stroke: #dc2626; stroke-width: 1.5; stroke-linecap: square"/>
   </g>
   <g id="text_6">
    <!-- A -->
    <g style="fill: #1f2937" transform="translate(288.91112 337.793674) scale(0.11 -0.11)">
     <use xlink:href="#DejaVuSans-Bold-41"/>
    </g>
   </g>
   <g id="text_7">
    <!-- B -->
    <g style="fill: #1f2937" transform="translate(461.729772 337.793674) scale(0.11 -0.11)">
     <use xlink:href="#DejaVuSans-Bold-42"/>
    </g>
   </g>
   <g id="text_8">
    <!-- C -->
    <g style="fill: #1f2937" transform="translate(342.08609 204.856249) scale(0.11 -0.11)">
     <use xlink:href="#DejaVuSans-Bold-43"/>
    </g>
   </g>
   <g id="text_9">
    <!-- H -->
    <g style="fill: #dc2626" transform="translate(358.038581 337.793674) scale(0.1 -0.1)">
     <defs>
      <path id="DejaVuSans-48" d="M 628 4666 
L 1259 4666 
L 1259 2753 
L 3553 2753 
L 3553 4666 
L 4184 4666 
L 4184 0 
L 3553 0 
L 3553 2222 
L 1259 2222 
L 1259 0 
L 628 0 
L 628 4666 
z
" transform="scale(0.015625)"/>
     </defs>
     <use xlink:href="#DejaVuSans-48"/>
    </g>
   </g>
   <g id="text_10">
    <!-- Altura -->
    <g style="fill: #dc2626" transform="translate(355.802633 175.586261) scale(0.12 -0.12)">
     <defs>
      <path id="DejaVuSans-Bold-6c" d="M 538 4863 
L 1656 4863 
L 1656 0 
L 538 0 
L 538 4863 
z
" transform="scale(0.015625)"/>
      <path id="DejaVuSans-Bold-74" d="M 1759 4494 
L 1759 3500 
L 2913 3500 
L 2913 2700 
L 1759 2700 
L 1759 1216 
Q 1759 972 1856 886 
Q 1953 800 2241 800 
L 2816 800 
L 2816 0 
L 1856 0 
Q 1194 0 917 276 
Q 641 553 641 1216 
L 641 2700 
L 84 2700 
L 84 3500 
L 641 3500 
L 641 4494 
L 1759 4494 
z
" transform="scale(0.015625)"/>
      <path id="DejaVuSans-Bold-75" d="M 500 1363 
L 500 3500 
L 1625 3500 
L 1625 3150 
Q 1625 2866 1622 2436 
Q 1619 2006 1619 1863 
Q 1619 1441 1641 1255 
Q 1663 1069 1716 984 
Q 1784 875 1895 815 
Q 2006 756 2150 756 
Q 2500 756 2700 1025 
Q 2900 1294 2900 1772 
L 2900 3500 
L 4019 3500 
L 4019 0 
L 2900 0 
L 2900 506 
Q 2647 200 2364 54 
Q 2081 -91 1741 -91 
Q 1134 -91 817 281 
Q 500 653 500 1363 
z
" transform="scale(0.015625)"/>
      <path id="DejaVuSans-Bold-72" d="M 3138 2547 
Q 2991 2616 2845 2648 
Q 2700 2681 2553 2681 
Q 2122 2681 1889 2404 
Q 1656 2128 1656 1613 
L 1656 0 
L 538 0 
L 538 3500 
L 1656 3500 
L 1656 2925 
Q 1872 3269 2151 3426 
Q 2431 3584 2822 3584 
Q 2878 3584 2943 3579 
Q 3009 3575 3134 3559 
L 3138 2547 
z
" transform="scale(0.015625)"/>
     </defs>
     <use xlink:href="#DejaVuSans-Bold-41"/>
     <use xlink:href="#DejaVuSans-Bold-6c" transform="translate(77.392578 0)"/>
     <use xlink:href="#DejaVuSans-Bold-74" transform="translate(111.669922 0)"/>
     <use xlink:href="#DejaVuSans-Bold-75" transform="translate(159.472656 0)"/>
     <use xlink:href="#DejaVuSans-Bold-72" transform="translate(230.664062 0)"/>
     <use xlink:href="#DejaVuSans-Bold-61" transform="translate(279.980469 0)"/>
    </g>
   </g>
  </g>
  <g id="axes_3">
   <g id="patch_4">
    <path d="M 559.987245 329.817429 
L 719.512155 329.817429 
L 613.162215 210.173746 
z
" clip-path="url(#p7705116c7a)" style="fill: #2563eb; opacity: 0.1; stroke: #2563eb; stroke-width: 2; stroke-linejoin: miter"/>
   </g>
   <g id="line2d_7">
    <path d="M 639.7497 382.992399 
L 639.7497 276.642458 
" clip-path="url(#p7705116c7a)" style="fill: none; stroke: #7c3aed; stroke-width: 2.5; stroke-linecap: square"/>
   </g>
   <g id="line2d_8">
    <defs>
     <path id="m0afc0b80fb" d="M 0 3.5 
C 0.928211 3.5 1.81853 3.131218 2.474874 2.474874 
C 3.131218 1.81853 3.5 0.928211 3.5 0 
C 3.5 -0.928211 3.131218 -1.81853 2.474874 -2.474874 
C 1.81853 -3.131218 0.928211 -3.5 0 -3.5 
C -0.928211 -3.5 -1.81853 -3.131218 -2.474874 -2.474874 
C -3.131218 -1.81853 -3.5 -0.928211 -3.5 0 
C -3.5 0.928211 -3.131218 1.81853 -2.474874 2.474874 
C -1.81853 3.131218 -0.928211 3.5 0 3.5 
z
" style="stroke: #7c3aed"/>
    </defs>
    <g clip-path="url(#p7705116c7a)">
     <use xlink:href="#m0afc0b80fb" x="639.7497" y="329.817429" style="fill: #7c3aed; stroke: #7c3aed"/>
    </g>
   </g>
   <g id="line2d_9">
    <path d="M 599.868473 333.007927 
L 599.868473 326.62693 
" clip-path="url(#p7705116c7a)" style="fill: none; stroke: #7c3aed; stroke-width: 2; stroke-linecap: square"/>
   </g>
   <g id="line2d_10">
    <path d="M 679.630928 333.007927 
L 679.630928 326.62693 
" clip-path="url(#p7705116c7a)" style="fill: none; stroke: #7c3aed; stroke-width: 2; stroke-linecap: square"/>
   </g>
   <g id="text_11">
    <!-- A -->
    <g style="fill: #1f2937" transform="translate(552.011 337.793674) scale(0.11 -0.11)">
     <use xlink:href="#DejaVuSans-Bold-41"/>
    </g>
   </g>
   <g id="text_12">
    <!-- B -->
    <g style="fill: #1f2937" transform="translate(724.829652 337.793674) scale(0.11 -0.11)">
     <use xlink:href="#DejaVuSans-Bold-42"/>
    </g>
   </g>
   <g id="text_13">
    <!-- C -->
    <g style="fill: #1f2937" transform="translate(605.18597 204.856249) scale(0.11 -0.11)">
     <use xlink:href="#DejaVuSans-Bold-43"/>
    </g>
   </g>
   <g id="text_14">
    <!-- M -->
    <g style="fill: #7c3aed" transform="translate(647.725946 337.793674) scale(0.1 -0.1)">
     <use xlink:href="#DejaVuSans-4d"/>
    </g>
   </g>
   <g id="text_15">
    <!-- Mediatriz -->
    <g style="fill: #7c3aed" transform="translate(607.932825 175.586261) scale(0.12 -0.12)">
     <defs>
      <path id="DejaVuSans-Bold-7a" d="M 366 3500 
L 3419 3500 
L 3419 2719 
L 1575 800 
L 3419 800 
L 3419 0 
L 288 0 
L 288 781 
L 2131 2700 
L 366 2700 
L 366 3500 
z
" transform="scale(0.015625)"/>
     </defs>
     <use xlink:href="#DejaVuSans-Bold-4d"/>
     <use xlink:href="#DejaVuSans-Bold-65" transform="translate(99.511719 0)"/>
     <use xlink:href="#DejaVuSans-Bold-64" transform="translate(167.333984 0)"/>
     <use xlink:href="#DejaVuSans-Bold-69" transform="translate(238.916016 0)"/>
     <use xlink:href="#DejaVuSans-Bold-61" transform="translate(273.193359 0)"/>
     <use xlink:href="#DejaVuSans-Bold-74" transform="translate(340.673828 0)"/>
     <use xlink:href="#DejaVuSans-Bold-72" transform="translate(388.476562 0)"/>
     <use xlink:href="#DejaVuSans-Bold-69" transform="translate(437.792969 0)"/>
     <use xlink:href="#DejaVuSans-Bold-7a" transform="translate(472.070312 0)"/>
    </g>
   </g>
  </g>
  <g id="axes_4">
   <g id="patch_5">
    <path d="M 823.087125 329.817428 
L 982.612035 329.817428 
L 876.262095 210.173746 
z
" clip-path="url(#p6c180a1345)" style="fill: #2563eb; opacity: 0.1; stroke: #2563eb; stroke-width: 2; stroke-linejoin: miter"/>
   </g>
   <g id="patch_6">
    <path d="M 868.703355 227.180912 
C 870.328697 227.903286 872.049232 228.388948 873.812398 228.623061 
C 875.575564 228.857174 877.36322 228.837329 879.120754 228.564132 
" clip-path="url(#p6c180a1345)" style="fill: none; stroke: #f59e0b; stroke-width: 1.5; stroke-linejoin: miter"/>
   </g>
   <g id="patch_7">
    <path d="M 879.120754 228.564132 
C 880.878288 228.290936 882.587618 227.767198 884.196523 227.00892 
C 885.805429 226.250642 887.297357 225.265624 888.62673 224.08396 
" clip-path="url(#p6c180a1345)" style="fill: none; stroke: #f59e0b; stroke-width: 1.5; stroke-linejoin: miter"/>
   </g>
   <g id="line2d_11">
    <path d="M 876.262095 210.173746 
L 894.859884 329.817428 
" clip-path="url(#p6c180a1345)" style="fill: none; stroke: #f59e0b; stroke-width: 2.5; stroke-linecap: square"/>
   </g>
   <g id="line2d_12">
    <defs>
     <path id="m91d01e92f3" d="M 0 3.5 
C 0.928211 3.5 1.81853 3.131218 2.474874 2.474874 
C 3.131218 1.81853 3.5 0.928211 3.5 0 
C 3.5 -0.928211 3.131218 -1.81853 2.474874 -2.474874 
C 1.81853 -3.131218 0.928211 -3.5 0 -3.5 
C -0.928211 -3.5 -1.81853 -3.131218 -2.474874 -2.474874 
C -3.131218 -1.81853 -3.5 -0.928211 -3.5 0 
C -3.5 0.928211 -3.131218 1.81853 -2.474874 2.474874 
C -1.81853 3.131218 -0.928211 3.5 0 3.5 
z
" style="stroke: #f59e0b"/>
    </defs>
    <g clip-path="url(#p6c180a1345)">
     <use xlink:href="#m91d01e92f3" x="894.859884" y="329.817428" style="fill: #f59e0b; stroke: #f59e0b"/>
    </g>
   </g>
   <g id="text_16">
    <!-- A -->
    <g style="fill: #1f2937" transform="translate(815.11088 337.793674) scale(0.11 -0.11)">
     <use xlink:href="#DejaVuSans-Bold-41"/>
    </g>
   </g>
   <g id="text_17">
    <!-- B -->
    <g style="fill: #1f2937" transform="translate(987.929532 337.793674) scale(0.11 -0.11)">
     <use xlink:href="#DejaVuSans-Bold-42"/>
    </g>
   </g>
   <g id="text_18">
    <!-- C -->
    <g style="fill: #1f2937" transform="translate(868.28585 204.856249) scale(0.11 -0.11)">
     <use xlink:href="#DejaVuSans-Bold-43"/>
    </g>
   </g>
   <g id="text_19">
    <!-- D -->
    <g style="fill: #f59e0b" transform="translate(902.836129 324.499931) scale(0.1 -0.1)">
     <defs>
      <path id="DejaVuSans-44" d="M 1259 4147 
L 1259 519 
L 2022 519 
Q 2988 519 3436 956 
Q 3884 1394 3884 2338 
Q 3884 3275 3436 3711 
Q 2988 4147 2022 4147 
L 1259 4147 
z
M 628 4666 
L 1925 4666 
Q 3281 4666 3915 4102 
Q 4550 3538 4550 2338 
Q 4550 1131 3912 565 
Q 3275 0 1925 0 
L 628 0 
L 628 4666 
z
" transform="scale(0.015625)"/>
     </defs>
     <use xlink:href="#DejaVuSans-44"/>
    </g>
   </g>
   <g id="text_20">
    <!-- Bisectriz -->
    <g style="fill: #f59e0b" transform="translate(873.646455 175.586261) scale(0.12 -0.12)">
     <defs>
      <path id="DejaVuSans-Bold-73" d="M 3272 3391 
L 3272 2541 
Q 2913 2691 2578 2766 
Q 2244 2841 1947 2841 
Q 1628 2841 1473 2761 
Q 1319 2681 1319 2516 
Q 1319 2381 1436 2309 
Q 1553 2238 1856 2203 
L 2053 2175 
Q 2913 2066 3209 1816 
Q 3506 1566 3506 1031 
Q 3506 472 3093 190 
Q 2681 -91 1863 -91 
Q 1516 -91 1145 -36 
Q 775 19 384 128 
L 384 978 
Q 719 816 1070 734 
Q 1422 653 1784 653 
Q 2113 653 2278 743 
Q 2444 834 2444 1013 
Q 2444 1163 2330 1236 
Q 2216 1309 1875 1350 
L 1678 1375 
Q 931 1469 631 1722 
Q 331 1975 331 2491 
Q 331 3047 712 3315 
Q 1094 3584 1881 3584 
Q 2191 3584 2531 3537 
Q 2872 3491 3272 3391 
z
" transform="scale(0.015625)"/>
      <path id="DejaVuSans-Bold-63" d="M 3366 3391 
L 3366 2478 
Q 3138 2634 2908 2709 
Q 2678 2784 2431 2784 
Q 1963 2784 1702 2511 
Q 1441 2238 1441 1747 
Q 1441 1256 1702 982 
Q 1963 709 2431 709 
Q 2694 709 2930 787 
Q 3166 866 3366 1019 
L 3366 103 
Q 3103 6 2833 -42 
Q 2563 -91 2291 -91 
Q 1344 -91 809 395 
Q 275 881 275 1747 
Q 275 2613 809 3098 
Q 1344 3584 2291 3584 
Q 2566 3584 2833 3536 
Q 3100 3488 3366 3391 
z
" transform="scale(0.015625)"/>
     </defs>
     <use xlink:href="#DejaVuSans-Bold-42"/>
     <use xlink:href="#DejaVuSans-Bold-69" transform="translate(76.220703 0)"/>
     <use xlink:href="#DejaVuSans-Bold-73" transform="translate(110.498047 0)"/>
     <use xlink:href="#DejaVuSans-Bold-65" transform="translate(170.019531 0)"/>
     <use xlink:href="#DejaVuSans-Bold-63" transform="translate(237.841797 0)"/>
     <use xlink:href="#DejaVuSans-Bold-74" transform="translate(297.119141 0)"/>
     <use xlink:href="#DejaVuSans-Bold-72" transform="translate(344.921875 0)"/>
     <use xlink:href="#DejaVuSans-Bold-69" transform="translate(394.238281 0)"/>
     <use xlink:href="#DejaVuSans-Bold-7a" transform="translate(428.515625 0)"/>
    </g>
   </g>
  </g>
  <g id="axes_5">
   <g id="line2d_13">
    <path d="M 27.23999 569.251701 
L 989.15953 569.251701 
" clip-path="url(#p9143443710)" style="fill: none; stroke: #d1d5db; stroke-width: 1.5; stroke-linecap: square"/>
   </g>
   <g id="line2d_14">
    <path d="M 257.69988 708.403914 
L 257.69988 577.248955 
" clip-path="url(#p9143443710)" style="fill: none; stroke: #e5e7eb; stroke-linecap: square"/>
   </g>
   <g id="line2d_15">
    <path d="M 508.19976 708.403914 
L 508.19976 577.248955 
" clip-path="url(#p9143443710)" style="fill: none; stroke: #e5e7eb; stroke-linecap: square"/>
   </g>
   <g id="line2d_16">
    <path d="M 758.69964 708.403914 
L 758.69964 577.248955 
" clip-path="url(#p9143443710)" style="fill: none; stroke: #e5e7eb; stroke-linecap: square"/>
   </g>
   <g id="text_21">
    <!-- Mediana -->
    <g style="fill: #059669" transform="translate(108.481971 590.044561) scale(0.1 -0.1)">
     <use xlink:href="#DejaVuSans-Bold-4d"/>
     <use xlink:href="#DejaVuSans-Bold-65" transform="translate(99.511719 0)"/>
     <use xlink:href="#DejaVuSans-Bold-64" transform="translate(167.333984 0)"/>
     <use xlink:href="#DejaVuSans-Bold-69" transform="translate(238.916016 0)"/>
     <use xlink:href="#DejaVuSans-Bold-61" transform="translate(273.193359 0)"/>
     <use xlink:href="#DejaVuSans-Bold-6e" transform="translate(340.673828 0)"/>
     <use xlink:href="#DejaVuSans-Bold-61" transform="translate(411.865234 0)"/>
    </g>
   </g>
   <g id="text_22">
    <!-- Une vértice con punto medio -->
    <g style="fill: #4b5563" transform="translate(74.365565 639.62848) scale(0.08 -0.08)">
     <defs>
      <path id="DejaVuSans-55" d="M 556 4666 
L 1191 4666 
L 1191 1831 
Q 1191 1081 1462 751 
Q 1734 422 2344 422 
Q 2950 422 3222 751 
Q 3494 1081 3494 1831 
L 3494 4666 
L 4128 4666 
L 4128 1753 
Q 4128 841 3676 375 
Q 3225 -91 2344 -91 
Q 1459 -91 1007 375 
Q 556 841 556 1753 
L 556 4666 
z
" transform="scale(0.015625)"/>
      <path id="DejaVuSans-6e" d="M 3513 2113 
L 3513 0 
L 2938 0 
L 2938 2094 
Q 2938 2591 2744 2837 
Q 2550 3084 2163 3084 
Q 1697 3084 1428 2787 
Q 1159 2491 1159 1978 
L 1159 0 
L 581 0 
L 581 3500 
L 1159 3500 
L 1159 2956 
Q 1366 3272 1645 3428 
Q 1925 3584 2291 3584 
Q 2894 3584 3203 3211 
Q 3513 2838 3513 2113 
z
" transform="scale(0.015625)"/>
      <path id="DejaVuSans-65" d="M 3597 1894 
L 3597 1613 
L 953 1613 
Q 991 1019 1311 708 
Q 1631 397 2203 397 
Q 2534 397 2845 478 
Q 3156 559 3463 722 
L 3463 178 
Q 3153 47 2828 -22 
Q 2503 -91 2169 -91 
Q 1331 -91 842 396 
Q 353 884 353 1716 
Q 353 2575 817 3079 
Q 1281 3584 2069 3584 
Q 2775 3584 3186 3129 
Q 3597 2675 3597 1894 
z
M 3022 2063 
Q 3016 2534 2758 2815 
Q 2500 3097 2075 3097 
Q 1594 3097 1305 2825 
Q 1016 2553 972 2059 
L 3022 2063 
z
" transform="scale(0.015625)"/>
      <path id="DejaVuSans-20" transform="scale(0.015625)"/>
      <path id="DejaVuSans-76" d="M 191 3500 
L 800 3500 
L 1894 563 
L 2988 3500 
L 3597 3500 
L 2284 0 
L 1503 0 
L 191 3500 
z
" transform="scale(0.015625)"/>
      <path id="DejaVuSans-e9" d="M 3597 1894 
L 3597 1613 
L 953 1613 
Q 991 1019 1311 708 
Q 1631 397 2203 397 
Q 2534 397 2845 478 
Q 3156 559 3463 722 
L 3463 178 
Q 3153 47 2828 -22 
Q 2503 -91 2169 -91 
Q 1331 -91 842 396 
Q 353 884 353 1716 
Q 353 2575 817 3079 
Q 1281 3584 2069 3584 
Q 2775 3584 3186 3129 
Q 3597 2675 3597 1894 
z
M 3022 2063 
Q 3016 2534 2758 2815 
Q 2500 3097 2075 3097 
Q 1594 3097 1305 2825 
Q 1016 2553 972 2059 
L 3022 2063 
z
M 2466 5119 
L 3088 5119 
L 2070 3944 
L 1591 3944 
L 2466 5119 
z
" transform="scale(0.015625)"/>
      <path id="DejaVuSans-72" d="M 2631 2963 
Q 2534 3019 2420 3045 
Q 2306 3072 2169 3072 
Q 1681 3072 1420 2755 
Q 1159 2438 1159 1844 
L 1159 0 
L 581 0 
L 581 3500 
L 1159 3500 
L 1159 2956 
Q 1341 3275 1631 3429 
Q 1922 3584 2338 3584 
Q 2397 3584 2469 3576 
Q 2541 3569 2628 3553 
L 2631 2963 
z
" transform="scale(0.015625)"/>
      <path id="DejaVuSans-74" d="M 1172 4494 
L 1172 3500 
L 2356 3500 
L 2356 3053 
L 1172 3053 
L 1172 1153 
Q 1172 725 1289 603 
Q 1406 481 1766 481 
L 2356 481 
L 2356 0 
L 1766 0 
Q 1100 0 847 248 
Q 594 497 594 1153 
L 594 3053 
L 172 3053 
L 172 3500 
L 594 3500 
L 594 4494 
L 1172 4494 
z
" transform="scale(0.015625)"/>
      <path id="DejaVuSans-69" d="M 603 3500 
L 1178 3500 
L 1178 0 
L 603 0 
L 603 3500 
z
M 603 4863 
L 1178 4863 
L 1178 4134 
L 603 4134 
L 603 4863 
z
" transform="scale(0.015625)"/>
      <path id="DejaVuSans-63" d="M 3122 3366 
L 3122 2828 
Q 2878 2963 2633 3030 
Q 2388 3097 2138 3097 
Q 1578 3097 1268 2742 
Q 959 2388 959 1747 
Q 959 1106 1268 751 
Q 1578 397 2138 397 
Q 2388 397 2633 464 
Q 2878 531 3122 666 
L 3122 134 
Q 2881 22 2623 -34 
Q 2366 -91 2075 -91 
Q 1284 -91 818 406 
Q 353 903 353 1747 
Q 353 2603 823 3093 
Q 1294 3584 2113 3584 
Q 2378 3584 2631 3529 
Q 2884 3475 3122 3366 
z
" transform="scale(0.015625)"/>
      <path id="DejaVuSans-6f" d="M 1959 3097 
Q 1497 3097 1228 2736 
Q 959 2375 959 1747 
Q 959 1119 1226 758 
Q 1494 397 1959 397 
Q 2419 397 2687 759 
Q 2956 1122 2956 1747 
Q 2956 2369 2687 2733 
Q 2419 3097 1959 3097 
z
M 1959 3584 
Q 2709 3584 3137 3096 
Q 3566 2609 3566 1747 
Q 3566 888 3137 398 
Q 2709 -91 1959 -91 
Q 1206 -91 779 398 
Q 353 888 353 1747 
Q 353 2609 779 3096 
Q 1206 3584 1959 3584 
z
" transform="scale(0.015625)"/>
      <path id="DejaVuSans-70" d="M 1159 525 
L 1159 -1331 
L 581 -1331 
L 581 3500 
L 1159 3500 
L 1159 2969 
Q 1341 3281 1617 3432 
Q 1894 3584 2278 3584 
Q 2916 3584 3314 3078 
Q 3713 2572 3713 1747 
Q 3713 922 3314 415 
Q 2916 -91 2278 -91 
Q 1894 -91 1617 61 
Q 1341 213 1159 525 
z
M 3116 1747 
Q 3116 2381 2855 2742 
Q 2594 3103 2138 3103 
Q 1681 3103 1420 2742 
Q 1159 2381 1159 1747 
Q 1159 1113 1420 752 
Q 1681 391 2138 391 
Q 2594 391 2855 752 
Q 3116 1113 3116 1747 
z
" transform="scale(0.015625)"/>
      <path id="DejaVuSans-75" d="M 544 1381 
L 544 3500 
L 1119 3500 
L 1119 1403 
Q 1119 906 1312 657 
Q 1506 409 1894 409 
Q 2359 409 2629 706 
Q 2900 1003 2900 1516 
L 2900 3500 
L 3475 3500 
L 3475 0 
L 2900 0 
L 2900 538 
Q 2691 219 2414 64 
Q 2138 -91 1772 -91 
Q 1169 -91 856 284 
Q 544 659 544 1381 
z
M 1991 3584 
L 1991 3584 
z
" transform="scale(0.015625)"/>
      <path id="DejaVuSans-6d" d="M 3328 2828 
Q 3544 3216 3844 3400 
Q 4144 3584 4550 3584 
Q 5097 3584 5394 3201 
Q 5691 2819 5691 2113 
L 5691 0 
L 5113 0 
L 5113 2094 
Q 5113 2597 4934 2840 
Q 4756 3084 4391 3084 
Q 3944 3084 3684 2787 
Q 3425 2491 3425 1978 
L 3425 0 
L 2847 0 
L 2847 2094 
Q 2847 2600 2669 2842 
Q 2491 3084 2119 3084 
Q 1678 3084 1418 2786 
Q 1159 2488 1159 1978 
L 1159 0 
L 581 0 
L 581 3500 
L 1159 3500 
L 1159 2956 
Q 1356 3278 1631 3431 
Q 1906 3584 2284 3584 
Q 2666 3584 2933 3390 
Q 3200 3197 3328 2828 
z
" transform="scale(0.015625)"/>
      <path id="DejaVuSans-64" d="M 2906 2969 
L 2906 4863 
L 3481 4863 
L 3481 0 
L 2906 0 
L 2906 525 
Q 2725 213 2448 61 
Q 2172 -91 1784 -91 
Q 1150 -91 751 415 
Q 353 922 353 1747 
Q 353 2572 751 3078 
Q 1150 3584 1784 3584 
Q 2172 3584 2448 3432 
Q 2725 3281 2906 2969 
z
M 947 1747 
Q 947 1113 1208 752 
Q 1469 391 1925 391 
Q 2381 391 2643 752 
Q 2906 1113 2906 1747 
Q 2906 2381 2643 2742 
Q 2381 3103 1925 3103 
Q 1469 3103 1208 2742 
Q 947 2381 947 1747 
z
" transform="scale(0.015625)"/>
     </defs>
     <use xlink:href="#DejaVuSans-55"/>
     <use xlink:href="#DejaVuSans-6e" transform="translate(73.193359 0)"/>
     <use xlink:href="#DejaVuSans-65" transform="translate(136.572266 0)"/>
     <use xlink:href="#DejaVuSans-20" transform="translate(198.095703 0)"/>
     <use xlink:href="#DejaVuSans-76" transform="translate(229.882812 0)"/>
     <use xlink:href="#DejaVuSans-e9" transform="translate(289.0625 0)"/>
     <use xlink:href="#DejaVuSans-72" transform="translate(350.585938 0)"/>
     <use xlink:href="#DejaVuSans-74" transform="translate(391.699219 0)"/>
     <use xlink:href="#DejaVuSans-69" transform="translate(430.908203 0)"/>
     <use xlink:href="#DejaVuSans-63" transform="translate(458.691406 0)"/>
     <use xlink:href="#DejaVuSans-65" transform="translate(513.671875 0)"/>
     <use xlink:href="#DejaVuSans-20" transform="translate(575.195312 0)"/>
     <use xlink:href="#DejaVuSans-63" transform="translate(606.982422 0)"/>
     <use xlink:href="#DejaVuSans-6f" transform="translate(661.962891 0)"/>
     <use xlink:href="#DejaVuSans-6e" transform="translate(723.144531 0)"/>
     <use xlink:href="#DejaVuSans-20" transform="translate(786.523438 0)"/>
     <use xlink:href="#DejaVuSans-70" transform="translate(818.310547 0)"/>
     <use xlink:href="#DejaVuSans-75" transform="translate(881.787109 0)"/>
     <use xlink:href="#DejaVuSans-6e" transform="translate(945.166016 0)"/>
     <use xlink:href="#DejaVuSans-74" transform="translate(1008.544922 0)"/>
     <use xlink:href="#DejaVuSans-6f" transform="translate(1047.753906 0)"/>
     <use xlink:href="#DejaVuSans-20" transform="translate(1108.935547 0)"/>
     <use xlink:href="#DejaVuSans-6d" transform="translate(1140.722656 0)"/>
     <use xlink:href="#DejaVuSans-65" transform="translate(1238.134766 0)"/>
     <use xlink:href="#DejaVuSans-64" transform="translate(1299.658203 0)"/>
     <use xlink:href="#DejaVuSans-69" transform="translate(1363.134766 0)"/>
     <use xlink:href="#DejaVuSans-6f" transform="translate(1390.917969 0)"/>
    </g>
    <!-- del lado opuesto -->
    <g style="fill: #4b5563" transform="translate(99.16369 649.194605) scale(0.08 -0.08)">
     <defs>
      <path id="DejaVuSans-6c" d="M 603 4863 
L 1178 4863 
L 1178 0 
L 603 0 
L 603 4863 
z
" transform="scale(0.015625)"/>
      <path id="DejaVuSans-61" d="M 2194 1759 
Q 1497 1759 1228 1600 
Q 959 1441 959 1056 
Q 959 750 1161 570 
Q 1363 391 1709 391 
Q 2188 391 2477 730 
Q 2766 1069 2766 1631 
L 2766 1759 
L 2194 1759 
z
M 3341 1997 
L 3341 0 
L 2766 0 
L 2766 531 
Q 2569 213 2275 61 
Q 1981 -91 1556 -91 
Q 1019 -91 701 211 
Q 384 513 384 1019 
Q 384 1609 779 1909 
Q 1175 2209 1959 2209 
L 2766 2209 
L 2766 2266 
Q 2766 2663 2505 2880 
Q 2244 3097 1772 3097 
Q 1472 3097 1187 3025 
Q 903 2953 641 2809 
L 641 3341 
Q 956 3463 1253 3523 
Q 1550 3584 1831 3584 
Q 2591 3584 2966 3190 
Q 3341 2797 3341 1997 
z
" transform="scale(0.015625)"/>
      <path id="DejaVuSans-73" d="M 2834 3397 
L 2834 2853 
Q 2591 2978 2328 3040 
Q 2066 3103 1784 3103 
Q 1356 3103 1142 2972 
Q 928 2841 928 2578 
Q 928 2378 1081 2264 
Q 1234 2150 1697 2047 
L 1894 2003 
Q 2506 1872 2764 1633 
Q 3022 1394 3022 966 
Q 3022 478 2636 193 
Q 2250 -91 1575 -91 
Q 1294 -91 989 -36 
Q 684 19 347 128 
L 347 722 
Q 666 556 975 473 
Q 1284 391 1588 391 
Q 1994 391 2212 530 
Q 2431 669 2431 922 
Q 2431 1156 2273 1281 
Q 2116 1406 1581 1522 
L 1381 1569 
Q 847 1681 609 1914 
Q 372 2147 372 2553 
Q 372 3047 722 3315 
Q 1072 3584 1716 3584 
Q 2034 3584 2315 3537 
Q 2597 3491 2834 3397 
z
" transform="scale(0.015625)"/>
     </defs>
     <use xlink:href="#DejaVuSans-64"/>
     <use xlink:href="#DejaVuSans-65" transform="translate(63.476562 0)"/>
     <use xlink:href="#DejaVuSans-6c" transform="translate(125 0)"/>
     <use xlink:href="#DejaVuSans-20" transform="translate(152.783203 0)"/>
     <use xlink:href="#DejaVuSans-6c" transform="translate(184.570312 0)"/>
     <use xlink:href="#DejaVuSans-61" transform="translate(212.353516 0)"/>
     <use xlink:href="#DejaVuSans-64" transform="translate(273.632812 0)"/>
     <use xlink:href="#DejaVuSans-6f" transform="translate(337.109375 0)"/>
     <use xlink:href="#DejaVuSans-20" transform="translate(398.291016 0)"/>
     <use xlink:href="#DejaVuSans-6f" transform="translate(430.078125 0)"/>
     <use xlink:href="#DejaVuSans-70" transform="translate(491.259766 0)"/>
     <use xlink:href="#DejaVuSans-75" transform="translate(554.736328 0)"/>
     <use xlink:href="#DejaVuSans-65" transform="translate(618.115234 0)"/>
     <use xlink:href="#DejaVuSans-73" transform="translate(679.638672 0)"/>
     <use xlink:href="#DejaVuSans-74" transform="translate(731.738281 0)"/>
     <use xlink:href="#DejaVuSans-6f" transform="translate(770.947266 0)"/>
    </g>
   </g>
   <g id="text_23">
    <g id="patch_8">
     <path d="M 98.240799 696.081126 
L 166.659081 696.081126 
Q 168.459081 696.081126 168.459081 694.281126 
L 168.459081 685.570813 
Q 168.459081 683.770813 166.659081 683.770813 
L 98.240799 683.770813 
Q 96.440799 683.770813 96.440799 685.570813 
L 96.440799 694.281126 
Q 96.440799 696.081126 98.240799 696.081126 
z
" style="fill: #ffffff; stroke: #059669; stroke-linejoin: miter"/>
    </g>
    <!-- Centroide (G) -->
    <g style="fill: #059669" transform="translate(98.240799 692.409407) scale(0.09 -0.09)">
     <defs>
      <path id="DejaVuSans-Bold-6f" d="M 2203 2784 
Q 1831 2784 1636 2517 
Q 1441 2250 1441 1747 
Q 1441 1244 1636 976 
Q 1831 709 2203 709 
Q 2569 709 2762 976 
Q 2956 1244 2956 1747 
Q 2956 2250 2762 2517 
Q 2569 2784 2203 2784 
z
M 2203 3584 
Q 3106 3584 3614 3096 
Q 4122 2609 4122 1747 
Q 4122 884 3614 396 
Q 3106 -91 2203 -91 
Q 1297 -91 786 396 
Q 275 884 275 1747 
Q 275 2609 786 3096 
Q 1297 3584 2203 3584 
z
" transform="scale(0.015625)"/>
      <path id="DejaVuSans-Bold-20" transform="scale(0.015625)"/>
      <path id="DejaVuSans-Bold-28" d="M 2413 -844 
L 1484 -844 
Q 1006 -72 778 623 
Q 550 1319 550 2003 
Q 550 2688 779 3389 
Q 1009 4091 1484 4856 
L 2413 4856 
Q 2013 4116 1813 3408 
Q 1613 2700 1613 2009 
Q 1613 1319 1811 609 
Q 2009 -100 2413 -844 
z
" transform="scale(0.015625)"/>
      <path id="DejaVuSans-Bold-47" d="M 4781 347 
Q 4331 128 3847 18 
Q 3363 -91 2847 -91 
Q 1681 -91 1000 561 
Q 319 1213 319 2328 
Q 319 3456 1012 4103 
Q 1706 4750 2913 4750 
Q 3378 4750 3804 4662 
Q 4231 4575 4609 4403 
L 4609 3438 
Q 4219 3659 3833 3768 
Q 3447 3878 3059 3878 
Q 2341 3878 1952 3476 
Q 1563 3075 1563 2328 
Q 1563 1588 1938 1184 
Q 2313 781 3003 781 
Q 3191 781 3352 804 
Q 3513 828 3641 878 
L 3641 1784 
L 2906 1784 
L 2906 2591 
L 4781 2591 
L 4781 347 
z
" transform="scale(0.015625)"/>
      <path id="DejaVuSans-Bold-29" d="M 513 -844 
Q 913 -100 1113 609 
Q 1313 1319 1313 2009 
Q 1313 2700 1113 3408 
Q 913 4116 513 4856 
L 1441 4856 
Q 1916 4091 2145 3389 
Q 2375 2688 2375 2003 
Q 2375 1319 2147 623 
Q 1919 -72 1441 -844 
L 513 -844 
z
" transform="scale(0.015625)"/>
     </defs>
     <use xlink:href="#DejaVuSans-Bold-43"/>
     <use xlink:href="#DejaVuSans-Bold-65" transform="translate(73.388672 0)"/>
     <use xlink:href="#DejaVuSans-Bold-6e" transform="translate(141.210938 0)"/>
     <use xlink:href="#DejaVuSans-Bold-74" transform="translate(212.402344 0)"/>
     <use xlink:href="#DejaVuSans-Bold-72" transform="translate(260.205078 0)"/>
     <use xlink:href="#DejaVuSans-Bold-6f" transform="translate(309.521484 0)"/>
     <use xlink:href="#DejaVuSans-Bold-69" transform="translate(378.222656 0)"/>
     <use xlink:href="#DejaVuSans-Bold-64" transform="translate(412.5 0)"/>
     <use xlink:href="#DejaVuSans-Bold-65" transform="translate(484.082031 0)"/>
     <use xlink:href="#DejaVuSans-Bold-20" transform="translate(551.904297 0)"/>
     <use xlink:href="#DejaVuSans-Bold-28" transform="translate(586.71875 0)"/>
     <use xlink:href="#DejaVuSans-Bold-47" transform="translate(632.421875 0)"/>
     <use xlink:href="#DejaVuSans-Bold-29" transform="translate(714.501953 0)"/>
    </g>
   </g>
   <g id="text_24">
    <!-- Altura -->
    <g style="fill: #dc2626" transform="translate(365.577164 590.044561) scale(0.1 -0.1)">
     <use xlink:href="#DejaVuSans-Bold-41"/>
     <use xlink:href="#DejaVuSans-Bold-6c" transform="translate(77.392578 0)"/>
     <use xlink:href="#DejaVuSans-Bold-74" transform="translate(111.669922 0)"/>
     <use xlink:href="#DejaVuSans-Bold-75" transform="translate(159.472656 0)"/>
     <use xlink:href="#DejaVuSans-Bold-72" transform="translate(230.664062 0)"/>
     <use xlink:href="#DejaVuSans-Bold-61" transform="translate(279.980469 0)"/>
    </g>
   </g>
   <g id="text_25">
    <!-- Perpendicular desde -->
    <g style="fill: #4b5563" transform="translate(342.09357 639.30848) scale(0.08 -0.08)">
     <defs>
      <path id="DejaVuSans-50" d="M 1259 4147 
L 1259 2394 
L 2053 2394 
Q 2494 2394 2734 2622 
Q 2975 2850 2975 3272 
Q 2975 3691 2734 3919 
Q 2494 4147 2053 4147 
L 1259 4147 
z
M 628 4666 
L 2053 4666 
Q 2838 4666 3239 4311 
Q 3641 3956 3641 3272 
Q 3641 2581 3239 2228 
Q 2838 1875 2053 1875 
L 1259 1875 
L 1259 0 
L 628 0 
L 628 4666 
z
" transform="scale(0.015625)"/>
     </defs>
     <use xlink:href="#DejaVuSans-50"/>
     <use xlink:href="#DejaVuSans-65" transform="translate(56.677734 0)"/>
     <use xlink:href="#DejaVuSans-72" transform="translate(118.201172 0)"/>
     <use xlink:href="#DejaVuSans-70" transform="translate(159.314453 0)"/>
     <use xlink:href="#DejaVuSans-65" transform="translate(222.791016 0)"/>
     <use xlink:href="#DejaVuSans-6e" transform="translate(284.314453 0)"/>
     <use xlink:href="#DejaVuSans-64" transform="translate(347.693359 0)"/>
     <use xlink:href="#DejaVuSans-69" transform="translate(411.169922 0)"/>
     <use xlink:href="#DejaVuSans-63" transform="translate(438.953125 0)"/>
     <use xlink:href="#DejaVuSans-75" transform="translate(493.933594 0)"/>
     <use xlink:href="#DejaVuSans-6c" transform="translate(557.3125 0)"/>
     <use xlink:href="#DejaVuSans-61" transform="translate(585.095703 0)"/>
     <use xlink:href="#DejaVuSans-72" transform="translate(646.375 0)"/>
     <use xlink:href="#DejaVuSans-20" transform="translate(687.488281 0)"/>
     <use xlink:href="#DejaVuSans-64" transform="translate(719.275391 0)"/>
     <use xlink:href="#DejaVuSans-65" transform="translate(782.751953 0)"/>
     <use xlink:href="#DejaVuSans-73" transform="translate(844.275391 0)"/>
     <use xlink:href="#DejaVuSans-64" transform="translate(896.375 0)"/>
     <use xlink:href="#DejaVuSans-65" transform="translate(959.851562 0)"/>
    </g>
    <!-- vértice al lado opuesto -->
    <g style="fill: #4b5563" transform="translate(337.12857 649.290605) scale(0.08 -0.08)">
     <use xlink:href="#DejaVuSans-76"/>
     <use xlink:href="#DejaVuSans-e9" transform="translate(59.179688 0)"/>
     <use xlink:href="#DejaVuSans-72" transform="translate(120.703125 0)"/>
     <use xlink:href="#DejaVuSans-74" transform="translate(161.816406 0)"/>
     <use xlink:href="#DejaVuSans-69" transform="translate(201.025391 0)"/>
     <use xlink:href="#DejaVuSans-63" transform="translate(228.808594 0)"/>
     <use xlink:href="#DejaVuSans-65" transform="translate(283.789062 0)"/>
     <use xlink:href="#DejaVuSans-20" transform="translate(345.3125 0)"/>
     <use xlink:href="#DejaVuSans-61" transform="translate(377.099609 0)"/>
     <use xlink:href="#DejaVuSans-6c" transform="translate(438.378906 0)"/>
     <use xlink:href="#DejaVuSans-20" transform="translate(466.162109 0)"/>
     <use xlink:href="#DejaVuSans-6c" transform="translate(497.949219 0)"/>
     <use xlink:href="#DejaVuSans-61" transform="translate(525.732422 0)"/>
     <use xlink:href="#DejaVuSans-64" transform="translate(587.011719 0)"/>
     <use xlink:href="#DejaVuSans-6f" transform="translate(650.488281 0)"/>
     <use xlink:href="#DejaVuSans-20" transform="translate(711.669922 0)"/>
     <use xlink:href="#DejaVuSans-6f" transform="translate(743.457031 0)"/>
     <use xlink:href="#DejaVuSans-70" transform="translate(804.638672 0)"/>
     <use xlink:href="#DejaVuSans-75" transform="translate(868.115234 0)"/>
     <use xlink:href="#DejaVuSans-65" transform="translate(931.494141 0)"/>
     <use xlink:href="#DejaVuSans-73" transform="translate(993.017578 0)"/>
     <use xlink:href="#DejaVuSans-74" transform="translate(1045.117188 0)"/>
     <use xlink:href="#DejaVuSans-6f" transform="translate(1084.326172 0)"/>
    </g>
   </g>
   <g id="text_26">
    <g id="patch_9">
     <path d="M 345.831851 696.081126 
L 420.067789 696.081126 
Q 421.867789 696.081126 421.867789 694.281126 
L 421.867789 685.570813 
Q 421.867789 683.770813 420.067789 683.770813 
L 345.831851 683.770813 
Q 344.031851 683.770813 344.031851 685.570813 
L 344.031851 694.281126 
Q 344.031851 696.081126 345.831851 696.081126 
z
" style="fill: #ffffff; stroke: #dc2626; stroke-linejoin: miter"/>
    </g>
    <!-- Ortocentro (H) -->
    <g style="fill: #dc2626" transform="translate(345.831851 692.409407) scale(0.09 -0.09)">
     <defs>
      <path id="DejaVuSans-Bold-4f" d="M 2719 3878 
Q 2169 3878 1866 3472 
Q 1563 3066 1563 2328 
Q 1563 1594 1866 1187 
Q 2169 781 2719 781 
Q 3272 781 3575 1187 
Q 3878 1594 3878 2328 
Q 3878 3066 3575 3472 
Q 3272 3878 2719 3878 
z
M 2719 4750 
Q 3844 4750 4481 4106 
Q 5119 3463 5119 2328 
Q 5119 1197 4481 553 
Q 3844 -91 2719 -91 
Q 1597 -91 958 553 
Q 319 1197 319 2328 
Q 319 3463 958 4106 
Q 1597 4750 2719 4750 
z
" transform="scale(0.015625)"/>
      <path id="DejaVuSans-Bold-48" d="M 588 4666 
L 1791 4666 
L 1791 2888 
L 3566 2888 
L 3566 4666 
L 4769 4666 
L 4769 0 
L 3566 0 
L 3566 1978 
L 1791 1978 
L 1791 0 
L 588 0 
L 588 4666 
z
" transform="scale(0.015625)"/>
     </defs>
     <use xlink:href="#DejaVuSans-Bold-4f"/>
     <use xlink:href="#DejaVuSans-Bold-72" transform="translate(85.009766 0)"/>
     <use xlink:href="#DejaVuSans-Bold-74" transform="translate(134.326172 0)"/>
     <use xlink:href="#DejaVuSans-Bold-6f" transform="translate(182.128906 0)"/>
     <use xlink:href="#DejaVuSans-Bold-63" transform="translate(250.830078 0)"/>
     <use xlink:href="#DejaVuSans-Bold-65" transform="translate(310.107422 0)"/>
     <use xlink:href="#DejaVuSans-Bold-6e" transform="translate(377.929688 0)"/>
     <use xlink:href="#DejaVuSans-Bold-74" transform="translate(449.121094 0)"/>
     <use xlink:href="#DejaVuSans-Bold-72" transform="translate(496.923828 0)"/>
     <use xlink:href="#DejaVuSans-Bold-6f" transform="translate(546.240234 0)"/>
     <use xlink:href="#DejaVuSans-Bold-20" transform="translate(614.941406 0)"/>
     <use xlink:href="#DejaVuSans-Bold-28" transform="translate(649.755859 0)"/>
     <use xlink:href="#DejaVuSans-Bold-48" transform="translate(695.458984 0)"/>
     <use xlink:href="#DejaVuSans-Bold-29" transform="translate(779.150391 0)"/>
    </g>
   </g>
   <g id="text_27">
    <!-- Mediatriz -->
    <g style="fill: #7c3aed" transform="translate(606.935637 590.044561) scale(0.1 -0.1)">
     <use xlink:href="#DejaVuSans-Bold-4d"/>
     <use xlink:href="#DejaVuSans-Bold-65" transform="translate(99.511719 0)"/>
     <use xlink:href="#DejaVuSans-Bold-64" transform="translate(167.333984 0)"/>
     <use xlink:href="#DejaVuSans-Bold-69" transform="translate(238.916016 0)"/>
     <use xlink:href="#DejaVuSans-Bold-61" transform="translate(273.193359 0)"/>
     <use xlink:href="#DejaVuSans-Bold-74" transform="translate(340.673828 0)"/>
     <use xlink:href="#DejaVuSans-Bold-72" transform="translate(388.476562 0)"/>
     <use xlink:href="#DejaVuSans-Bold-69" transform="translate(437.792969 0)"/>
     <use xlink:href="#DejaVuSans-Bold-7a" transform="translate(472.070312 0)"/>
    </g>
   </g>
   <g id="text_28">
    <!-- Perpendicular por el -->
    <g style="fill: #4b5563" transform="translate(593.20345 639.30848) scale(0.08 -0.08)">
     <use xlink:href="#DejaVuSans-50"/>
     <use xlink:href="#DejaVuSans-65" transform="translate(56.677734 0)"/>
     <use xlink:href="#DejaVuSans-72" transform="translate(118.201172 0)"/>
     <use xlink:href="#DejaVuSans-70" transform="translate(159.314453 0)"/>
     <use xlink:href="#DejaVuSans-65" transform="translate(222.791016 0)"/>
     <use xlink:href="#DejaVuSans-6e" transform="translate(284.314453 0)"/>
     <use xlink:href="#DejaVuSans-64" transform="translate(347.693359 0)"/>
     <use xlink:href="#DejaVuSans-69" transform="translate(411.169922 0)"/>
     <use xlink:href="#DejaVuSans-63" transform="translate(438.953125 0)"/>
     <use xlink:href="#DejaVuSans-75" transform="translate(493.933594 0)"/>
     <use xlink:href="#DejaVuSans-6c" transform="translate(557.3125 0)"/>
     <use xlink:href="#DejaVuSans-61" transform="translate(585.095703 0)"/>
     <use xlink:href="#DejaVuSans-72" transform="translate(646.375 0)"/>
     <use xlink:href="#DejaVuSans-20" transform="translate(687.488281 0)"/>
     <use xlink:href="#DejaVuSans-70" transform="translate(719.275391 0)"/>
     <use xlink:href="#DejaVuSans-6f" transform="translate(782.751953 0)"/>
     <use xlink:href="#DejaVuSans-72" transform="translate(843.933594 0)"/>
     <use xlink:href="#DejaVuSans-20" transform="translate(885.046875 0)"/>
     <use xlink:href="#DejaVuSans-65" transform="translate(916.833984 0)"/>
     <use xlink:href="#DejaVuSans-6c" transform="translate(978.357422 0)"/>
    </g>
    <!-- punto medio del lado -->
    <g style="fill: #4b5563" transform="translate(590.894075 648.874605) scale(0.08 -0.08)">
     <use xlink:href="#DejaVuSans-70"/>
     <use xlink:href="#DejaVuSans-75" transform="translate(63.476562 0)"/>
     <use xlink:href="#DejaVuSans-6e" transform="translate(126.855469 0)"/>
     <use xlink:href="#DejaVuSans-74" transform="translate(190.234375 0)"/>
     <use xlink:href="#DejaVuSans-6f" transform="translate(229.443359 0)"/>
     <use xlink:href="#DejaVuSans-20" transform="translate(290.625 0)"/>
     <use xlink:href="#DejaVuSans-6d" transform="translate(322.412109 0)"/>
     <use xlink:href="#DejaVuSans-65" transform="translate(419.824219 0)"/>
     <use xlink:href="#DejaVuSans-64" transform="translate(481.347656 0)"/>
     <use xlink:href="#DejaVuSans-69" transform="translate(544.824219 0)"/>
     <use xlink:href="#DejaVuSans-6f" transform="translate(572.607422 0)"/>
     <use xlink:href="#DejaVuSans-20" transform="translate(633.789062 0)"/>
     <use xlink:href="#DejaVuSans-64" transform="translate(665.576172 0)"/>
     <use xlink:href="#DejaVuSans-65" transform="translate(729.052734 0)"/>
     <use xlink:href="#DejaVuSans-6c" transform="translate(790.576172 0)"/>
     <use xlink:href="#DejaVuSans-20" transform="translate(818.359375 0)"/>
     <use xlink:href="#DejaVuSans-6c" transform="translate(850.146484 0)"/>
     <use xlink:href="#DejaVuSans-61" transform="translate(877.929688 0)"/>
     <use xlink:href="#DejaVuSans-64" transform="translate(939.208984 0)"/>
     <use xlink:href="#DejaVuSans-6f" transform="translate(1002.685547 0)"/>
    </g>
   </g>
   <g id="text_29">
    <g id="patch_10">
     <path d="M 591.420403 696.081126 
L 675.478997 696.081126 
Q 677.278997 696.081126 677.278997 694.281126 
L 677.278997 685.570813 
Q 677.278997 683.770813 675.478997 683.770813 
L 591.420403 683.770813 
Q 589.620403 683.770813 589.620403 685.570813 
L 589.620403 694.281126 
Q 589.620403 696.081126 591.420403 696.081126 
z
" style="fill: #ffffff; stroke: #7c3aed; stroke-linejoin: miter"/>
    </g>
    <!-- Circuncentro (O) -->
    <g style="fill: #7c3aed" transform="translate(591.420403 692.409407) scale(0.09 -0.09)">
     <use xlink:href="#DejaVuSans-Bold-43"/>
     <use xlink:href="#DejaVuSans-Bold-69" transform="translate(73.388672 0)"/>
     <use xlink:href="#DejaVuSans-Bold-72" transform="translate(107.666016 0)"/>
     <use xlink:href="#DejaVuSans-Bold-63" transform="translate(156.982422 0)"/>
     <use xlink:href="#DejaVuSans-Bold-75" transform="translate(216.259766 0)"/>
     <use xlink:href="#DejaVuSans-Bold-6e" transform="translate(287.451172 0)"/>
     <use xlink:href="#DejaVuSans-Bold-63" transform="translate(358.642578 0)"/>
     <use xlink:href="#DejaVuSans-Bold-65" transform="translate(417.919922 0)"/>
     <use xlink:href="#DejaVuSans-Bold-6e" transform="translate(485.742188 0)"/>
     <use xlink:href="#DejaVuSans-Bold-74" transform="translate(556.933594 0)"/>
     <use xlink:href="#DejaVuSans-Bold-72" transform="translate(604.736328 0)"/>
     <use xlink:href="#DejaVuSans-Bold-6f" transform="translate(654.052734 0)"/>
     <use xlink:href="#DejaVuSans-Bold-20" transform="translate(722.753906 0)"/>
     <use xlink:href="#DejaVuSans-Bold-28" transform="translate(757.568359 0)"/>
     <use xlink:href="#DejaVuSans-Bold-4f" transform="translate(803.271484 0)"/>
     <use xlink:href="#DejaVuSans-Bold-29" transform="translate(888.28125 0)"/>
    </g>
   </g>
   <g id="text_30">
    <!-- Bisectriz -->
    <g style="fill: #f59e0b" transform="translate(859.613642 590.044561) scale(0.1 -0.1)">
     <use xlink:href="#DejaVuSans-Bold-42"/>
     <use xlink:href="#DejaVuSans-Bold-69" transform="translate(76.220703 0)"/>
     <use xlink:href="#DejaVuSans-Bold-73" transform="translate(110.498047 0)"/>
     <use xlink:href="#DejaVuSans-Bold-65" transform="translate(170.019531 0)"/>
     <use xlink:href="#DejaVuSans-Bold-63" transform="translate(237.841797 0)"/>
     <use xlink:href="#DejaVuSans-Bold-74" transform="translate(297.119141 0)"/>
     <use xlink:href="#DejaVuSans-Bold-72" transform="translate(344.921875 0)"/>
     <use xlink:href="#DejaVuSans-Bold-69" transform="translate(394.238281 0)"/>
     <use xlink:href="#DejaVuSans-Bold-7a" transform="translate(428.515625 0)"/>
    </g>
   </g>
   <g id="text_31">
    <!-- Divide el ángulo -->
    <g style="fill: #4b5563" transform="translate(851.54458 639.62848) scale(0.08 -0.08)">
     <defs>
      <path id="DejaVuSans-e1" d="M 2194 1759 
Q 1497 1759 1228 1600 
Q 959 1441 959 1056 
Q 959 750 1161 570 
Q 1363 391 1709 391 
Q 2188 391 2477 730 
Q 2766 1069 2766 1631 
L 2766 1759 
L 2194 1759 
z
M 3341 1997 
L 3341 0 
L 2766 0 
L 2766 531 
Q 2569 213 2275 61 
Q 1981 -91 1556 -91 
Q 1019 -91 701 211 
Q 384 513 384 1019 
Q 384 1609 779 1909 
Q 1175 2209 1959 2209 
L 2766 2209 
L 2766 2266 
Q 2766 2663 2505 2880 
Q 2244 3097 1772 3097 
Q 1472 3097 1187 3025 
Q 903 2953 641 2809 
L 641 3341 
Q 956 3463 1253 3523 
Q 1550 3584 1831 3584 
Q 2591 3584 2966 3190 
Q 3341 2797 3341 1997 
z
M 2290 5119 
L 2912 5119 
L 1894 3944 
L 1415 3944 
L 2290 5119 
z
" transform="scale(0.015625)"/>
      <path id="DejaVuSans-67" d="M 2906 1791 
Q 2906 2416 2648 2759 
Q 2391 3103 1925 3103 
Q 1463 3103 1205 2759 
Q 947 2416 947 1791 
Q 947 1169 1205 825 
Q 1463 481 1925 481 
Q 2391 481 2648 825 
Q 2906 1169 2906 1791 
z
M 3481 434 
Q 3481 -459 3084 -895 
Q 2688 -1331 1869 -1331 
Q 1566 -1331 1297 -1286 
Q 1028 -1241 775 -1147 
L 775 -588 
Q 1028 -725 1275 -790 
Q 1522 -856 1778 -856 
Q 2344 -856 2625 -561 
Q 2906 -266 2906 331 
L 2906 616 
Q 2728 306 2450 153 
Q 2172 0 1784 0 
Q 1141 0 747 490 
Q 353 981 353 1791 
Q 353 2603 747 3093 
Q 1141 3584 1784 3584 
Q 2172 3584 2450 3431 
Q 2728 3278 2906 2969 
L 2906 3500 
L 3481 3500 
L 3481 434 
z
" transform="scale(0.015625)"/>
     </defs>
     <use xlink:href="#DejaVuSans-44"/>
     <use xlink:href="#DejaVuSans-69" transform="translate(77.001953 0)"/>
     <use xlink:href="#DejaVuSans-76" transform="translate(104.785156 0)"/>
     <use xlink:href="#DejaVuSans-69" transform="translate(163.964844 0)"/>
     <use xlink:href="#DejaVuSans-64" transform="translate(191.748047 0)"/>
     <use xlink:href="#DejaVuSans-65" transform="translate(255.224609 0)"/>
     <use xlink:href="#DejaVuSans-20" transform="translate(316.748047 0)"/>
     <use xlink:href="#DejaVuSans-65" transform="translate(348.535156 0)"/>
     <use xlink:href="#DejaVuSans-6c" transform="translate(410.058594 0)"/>
     <use xlink:href="#DejaVuSans-20" transform="translate(437.841797 0)"/>
     <use xlink:href="#DejaVuSans-e1" transform="translate(469.628906 0)"/>
     <use xlink:href="#DejaVuSans-6e" transform="translate(530.908203 0)"/>
     <use xlink:href="#DejaVuSans-67" transform="translate(594.287109 0)"/>
     <use xlink:href="#DejaVuSans-75" transform="translate(657.763672 0)"/>
     <use xlink:href="#DejaVuSans-6c" transform="translate(721.142578 0)"/>
     <use xlink:href="#DejaVuSans-6f" transform="translate(748.925781 0)"/>
    </g>
    <!-- en dos partes iguales -->
    <g style="fill: #4b5563" transform="translate(841.027705 649.194605) scale(0.08 -0.08)">
     <use xlink:href="#DejaVuSans-65"/>
     <use xlink:href="#DejaVuSans-6e" transform="translate(61.523438 0)"/>
     <use xlink:href="#DejaVuSans-20" transform="translate(124.902344 0)"/>
     <use xlink:href="#DejaVuSans-64" transform="translate(156.689453 0)"/>
     <use xlink:href="#DejaVuSans-6f" transform="translate(220.166016 0)"/>
     <use xlink:href="#DejaVuSans-73" transform="translate(281.347656 0)"/>
     <use xlink:href="#DejaVuSans-20" transform="translate(333.447266 0)"/>
     <use xlink:href="#DejaVuSans-70" transform="translate(365.234375 0)"/>
     <use xlink:href="#DejaVuSans-61" transform="translate(428.710938 0)"/>
     <use xlink:href="#DejaVuSans-72" transform="translate(489.990234 0)"/>
     <use xlink:href="#DejaVuSans-74" transform="translate(531.103516 0)"/>
     <use xlink:href="#DejaVuSans-65" transform="translate(570.3125 0)"/>
     <use xlink:href="#DejaVuSans-73" transform="translate(631.835938 0)"/>
     <use xlink:href="#DejaVuSans-20" transform="translate(683.935547 0)"/>
     <use xlink:href="#DejaVuSans-69" transform="translate(715.722656 0)"/>
     <use xlink:href="#DejaVuSans-67" transform="translate(743.505859 0)"/>
     <use xlink:href="#DejaVuSans-75" transform="translate(806.982422 0)"/>
     <use xlink:href="#DejaVuSans-61" transform="translate(870.361328 0)"/>
     <use xlink:href="#DejaVuSans-6c" transform="translate(931.640625 0)"/>
     <use xlink:href="#DejaVuSans-65" transform="translate(959.423828 0)"/>
     <use xlink:href="#DejaVuSans-73" transform="translate(1020.947266 0)"/>
    </g>
   </g>
   <g id="text_32">
    <g id="patch_11">
     <path d="M 855.333096 696.081126 
L 912.566064 696.081126 
Q 914.366064 696.081126 914.366064 694.281126 
L 914.366064 685.570813 
Q 914.366064 683.770813 912.566064 683.770813 
L 855.333096 683.770813 
Q 853.533096 683.770813 853.533096 685.570813 
L 853.533096 694.281126 
Q 853.533096 696.081126 855.333096 696.081126 
z
" style="fill: #ffffff; stroke: #f59e0b; stroke-linejoin: miter"/>
    </g>
    <!-- Incentro (I) -->
    <g style="fill: #f59e0b" transform="translate(855.333096 692.409407) scale(0.09 -0.09)">
     <defs>
      <path id="DejaVuSans-Bold-49" d="M 588 4666 
L 1791 4666 
L 1791 0 
L 588 0 
L 588 4666 
z
" transform="scale(0.015625)"/>
     </defs>
     <use xlink:href="#DejaVuSans-Bold-49"/>
     <use xlink:href="#DejaVuSans-Bold-6e" transform="translate(37.207031 0)"/>
     <use xlink:href="#DejaVuSans-Bold-63" transform="translate(108.398438 0)"/>
     <use xlink:href="#DejaVuSans-Bold-65" transform="translate(167.675781 0)"/>
     <use xlink:href="#DejaVuSans-Bold-6e" transform="translate(235.498047 0)"/>
     <use xlink:href="#DejaVuSans-Bold-74" transform="translate(306.689453 0)"/>
     <use xlink:href="#DejaVuSans-Bold-72" transform="translate(354.492188 0)"/>
     <use xlink:href="#DejaVuSans-Bold-6f" transform="translate(403.808594 0)"/>
     <use xlink:href="#DejaVuSans-Bold-20" transform="translate(472.509766 0)"/>
     <use xlink:href="#DejaVuSans-Bold-28" transform="translate(507.324219 0)"/>
     <use xlink:href="#DejaVuSans-Bold-49" transform="translate(553.027344 0)"/>
     <use xlink:href="#DejaVuSans-Bold-29" transform="translate(590.234375 0)"/>
    </g>
   </g>
  </g>
  <g id="text_33">
   <!-- Líneas Notables del Triángulo -->
   <g style="fill: #1f2937" transform="translate(391.42226 18.397812) scale(0.14 -0.14)">
    <defs>
     <path id="DejaVuSans-Bold-4c" d="M 588 4666 
L 1791 4666 
L 1791 909 
L 3903 909 
L 3903 0 
L 588 0 
L 588 4666 
z
" transform="scale(0.015625)"/>
     <path id="DejaVuSans-Bold-ed" d="M 538 3500 
L 1656 3500 
L 1656 0 
L 538 0 
L 538 3500 
z
M 1590 5119 
L 2474 5119 
L 1321 3944 
L 709 3944 
L 1590 5119 
z
" transform="scale(0.015625)"/>
     <path id="DejaVuSans-Bold-4e" d="M 588 4666 
L 1931 4666 
L 3628 1466 
L 3628 4666 
L 4769 4666 
L 4769 0 
L 3425 0 
L 1728 3200 
L 1728 0 
L 588 0 
L 588 4666 
z
" transform="scale(0.015625)"/>
     <path id="DejaVuSans-Bold-62" d="M 2400 722 
Q 2759 722 2948 984 
Q 3138 1247 3138 1747 
Q 3138 2247 2948 2509 
Q 2759 2772 2400 2772 
Q 2041 2772 1848 2508 
Q 1656 2244 1656 1747 
Q 1656 1250 1848 986 
Q 2041 722 2400 722 
z
M 1656 2988 
Q 1888 3294 2169 3439 
Q 2450 3584 2816 3584 
Q 3463 3584 3878 3070 
Q 4294 2556 4294 1747 
Q 4294 938 3878 423 
Q 3463 -91 2816 -91 
Q 2450 -91 2169 54 
Q 1888 200 1656 506 
L 1656 0 
L 538 0 
L 538 4863 
L 1656 4863 
L 1656 2988 
z
" transform="scale(0.015625)"/>
     <path id="DejaVuSans-Bold-54" d="M 31 4666 
L 4331 4666 
L 4331 3756 
L 2784 3756 
L 2784 0 
L 1581 0 
L 1581 3756 
L 31 3756 
L 31 4666 
z
" transform="scale(0.015625)"/>
     <path id="DejaVuSans-Bold-e1" d="M 2106 1575 
Q 1756 1575 1579 1456 
Q 1403 1338 1403 1106 
Q 1403 894 1545 773 
Q 1688 653 1941 653 
Q 2256 653 2472 879 
Q 2688 1106 2688 1447 
L 2688 1575 
L 2106 1575 
z
M 3816 1997 
L 3816 0 
L 2688 0 
L 2688 519 
Q 2463 200 2181 54 
Q 1900 -91 1497 -91 
Q 953 -91 614 226 
Q 275 544 275 1050 
Q 275 1666 698 1953 
Q 1122 2241 2028 2241 
L 2688 2241 
L 2688 2328 
Q 2688 2594 2478 2717 
Q 2269 2841 1825 2841 
Q 1466 2841 1156 2769 
Q 847 2697 581 2553 
L 581 3406 
Q 941 3494 1303 3539 
Q 1666 3584 2028 3584 
Q 2975 3584 3395 3211 
Q 3816 2838 3816 1997 
z
M 2606 5119 
L 3490 5119 
L 2337 3944 
L 1725 3944 
L 2606 5119 
z
" transform="scale(0.015625)"/>
     <path id="DejaVuSans-Bold-67" d="M 2919 594 
Q 2688 288 2409 144 
Q 2131 0 1766 0 
Q 1125 0 706 504 
Q 288 1009 288 1791 
Q 288 2575 706 3076 
Q 1125 3578 1766 3578 
Q 2131 3578 2409 3434 
Q 2688 3291 2919 2981 
L 2919 3500 
L 4044 3500 
L 4044 353 
Q 4044 -491 3511 -936 
Q 2978 -1381 1966 -1381 
Q 1638 -1381 1331 -1331 
Q 1025 -1281 716 -1178 
L 716 -306 
Q 1009 -475 1290 -558 
Q 1572 -641 1856 -641 
Q 2406 -641 2662 -400 
Q 2919 -159 2919 353 
L 2919 594 
z
M 2181 2772 
Q 1834 2772 1640 2515 
Q 1447 2259 1447 1791 
Q 1447 1309 1634 1061 
Q 1822 813 2181 813 
Q 2531 813 2725 1069 
Q 2919 1325 2919 1791 
Q 2919 2259 2725 2515 
Q 2531 2772 2181 2772 
z
" transform="scale(0.015625)"/>
    </defs>
    <use xlink:href="#DejaVuSans-Bold-4c"/>
    <use xlink:href="#DejaVuSans-Bold-ed" transform="translate(63.720703 0)"/>
    <use xlink:href="#DejaVuSans-Bold-6e" transform="translate(97.998047 0)"/>
    <use xlink:href="#DejaVuSans-Bold-65" transform="translate(169.189453 0)"/>
    <use xlink:href="#DejaVuSans-Bold-61" transform="translate(237.011719 0)"/>
    <use xlink:href="#DejaVuSans-Bold-73" transform="translate(304.492188 0)"/>
    <use xlink:href="#DejaVuSans-Bold-20" transform="translate(364.013672 0)"/>
    <use xlink:href="#DejaVuSans-Bold-4e" transform="translate(398.828125 0)"/>
    <use xlink:href="#DejaVuSans-Bold-6f" transform="translate(482.519531 0)"/>
    <use xlink:href="#DejaVuSans-Bold-74" transform="translate(551.220703 0)"/>
    <use xlink:href="#DejaVuSans-Bold-61" transform="translate(599.023438 0)"/>
    <use xlink:href="#DejaVuSans-Bold-62" transform="translate(666.503906 0)"/>
    <use xlink:href="#DejaVuSans-Bold-6c" transform="translate(738.085938 0)"/>
    <use xlink:href="#DejaVuSans-Bold-65" transform="translate(772.363281 0)"/>
    <use xlink:href="#DejaVuSans-Bold-73" transform="translate(840.185547 0)"/>
    <use xlink:href="#DejaVuSans-Bold-20" transform="translate(899.707031 0)"/>
    <use xlink:href="#DejaVuSans-Bold-64" transform="translate(934.521484 0)"/>
    <use xlink:href="#DejaVuSans-Bold-65" transform="translate(1006.103516 0)"/>
    <use xlink:href="#DejaVuSans-Bold-6c" transform="translate(1073.925781 0)"/>
    <use xlink:href="#DejaVuSans-Bold-20" transform="translate(1108.203125 0)"/>
    <use xlink:href="#DejaVuSans-Bold-54" transform="translate(1143.017578 0)"/>
    <use xlink:href="#DejaVuSans-Bold-72" transform="translate(1200.230469 0)"/>
    <use xlink:href="#DejaVuSans-Bold-69" transform="translate(1249.546875 0)"/>
    <use xlink:href="#DejaVuSans-Bold-e1" transform="translate(1283.824219 0)"/>
    <use xlink:href="#DejaVuSans-Bold-6e" transform="translate(1351.304688 0)"/>
    <use xlink:href="#DejaVuSans-Bold-67" transform="translate(1422.496094 0)"/>
    <use xlink:href="#DejaVuSans-Bold-75" transform="translate(1494.078125 0)"/>
    <use xlink:href="#DejaVuSans-Bold-6c" transform="translate(1565.269531 0)"/>
    <use xlink:href="#DejaVuSans-Bold-6f" transform="translate(1599.546875 0)"/>
   </g>
  </g>
 </g>
 <defs>
  <clipPath id="pb24e1b54d6">
   <rect x="7.2" y="183.586261" width="212.69988" height="167.501156"/>
  </clipPath>
  <clipPath id="pf293d65c4b">
   <rect x="270.29988" y="183.586261" width="212.69988" height="167.501155"/>
  </clipPath>
  <clipPath id="p7705116c7a">
   <rect x="533.39976" y="183.586261" width="212.69988" height="167.501156"/>
  </clipPath>
  <clipPath id="p6c180a1345">
   <rect x="796.49964" y="183.586261" width="212.69988" height="167.501155"/>
  </clipPath>
  <clipPath id="p9143443710">
   <rect x="7.2" y="561.254447" width="1001.99952" height="159.945073"/>
  </clipPath>
 </defs>
</svg>
