<?xml version="1.0" encoding="utf-8" standalone="no"?>
<!DOCTYPE svg PUBLIC "-//W3C//DTD SVG 1.1//EN"
  "http://www.w3.org/Graphics/SVG/1.1/DTD/svg11.dtd">
<svg xmlns:xlink="http://www.w3.org/1999/xlink" width="944.39952pt" height="512.39952pt" viewBox="0 0 944.39952 512.39952" xmlns="http://www.w3.org/2000/svg" version="1.1">
 <metadata>
  <rdf:RDF xmlns:dc="http://purl.org/dc/elements/1.1/" xmlns:cc="http://creativecommons.org/ns#" xmlns:rdf="http://www.w3.org/1999/02/22-rdf-syntax-ns#">
   <cc:Work>
    <dc:type rdf:resource="http://purl.org/dc/dcmitype/StillImage"/>
    <dc:date>2026-01-03T21:57:06.131245</dc:date>
    <dc:format>image/svg+xml</dc:format>
    <dc:creator>
     <cc:Agent>
      <dc:title>Repositorio Matemáticas Universitarias</dc:title>
     </cc:Agent>
    </dc:creator>
   </cc:Work>
  </rdf:RDF>
 </metadata>
 <defs>
  <style type="text/css">*{stroke-linejoin: round; stroke-linecap: butt}</style>
 </defs>
 <g id="figure_1">
  <g id="patch_1">
   <path d="M 0 512.39952 
L 944.39952 512.39952 
L 944.39952 0 
L 0 0 
z
" style="fill: #ffffff"/>
  </g>
  <g id="axes_1">
   <g id="patch_2">
    <path d="M 71.262243 413.977293 
L 471.651262 413.977293 
L 191.378949 173.743882 
z
" clip-path="url(#p3acd1b90be)" style="fill: #2563eb; opacity: 0.15; stroke: #2563eb; stroke-width: 2.5; stroke-linejoin: miter"/>
   </g>
   <g id="patch_3">
    <path d="M 191.378949 173.743882 
L 166.310631 223.880518 
L 172.205467 226.417219 
L 178.351612 228.263523 
L 184.668508 229.395232 
L 191.073359 229.797512 
L 197.482215 229.465089 
L 203.811075 228.402322 
L 209.976986 226.623139 
L 215.899129 224.150861 
L 221.499884 221.017892 
L 226.705839 217.265297 
L 231.448761 212.942261 
L 235.666482 208.105447 
L 239.303721 202.818252 
L 242.312804 197.149975 
L 244.65429 191.174911 
L 246.29749 184.971377 
L 247.220865 178.620682 
L 247.412313 172.206067 
L 246.869324 165.811608 
L 245.599016 159.521118 
L 243.618039 153.417048 
L 240.952357 147.579404 
L 237.636911 142.084702 
L 233.715155 137.00496 
L 229.238493 132.40676 
L 224.265602 128.350371 
L 218.86166 124.888961 
L 213.0975 122.067898 
L 207.048671 119.924159 
L 200.794458 118.485842 
L 194.416834 117.7718 
L 187.999392 117.79139 
L 181.626246 118.544357 
L 175.380931 120.020831 
L 169.345303 122.20146 
L 163.598473 125.057663 
L 158.215766 128.552001 
L 153.267733 132.638676 
L 148.819228 137.264121 
z
" clip-path="url(#p3acd1b90be)" style="fill: #7c3aed; opacity: 0.25; stroke: #7c3aed; stroke-linejoin: miter"/>
   </g>
   <g id="line2d_1">
    <path d="M 471.651262 413.977293 
L 39.379946 43.459023 
" clip-path="url(#p3acd1b90be)" style="fill: none; stroke-dasharray: 7.4,3.2; stroke-dashoffset: 0; stroke: #374151; stroke-width: 2"/>
   </g>
   <g id="line2d_2">
    <defs>
     <path id="ma89b7a2110" d="M 0 3.5 
C 0.928211 3.5 1.81853 3.131218 2.474874 2.474874 
C 3.131218 1.81853 3.5 0.928211 3.5 0 
C 3.5 -0.928211 3.131218 -1.81853 2.474874 -2.474874 
C 1.81853 -3.131218 0.928211 -3.5 0 -3.5 
C -0.928211 -3.5 -1.81853 -3.131218 -2.474874 -2.474874 
C -3.131218 -1.81853 -3.5 -0.928211 -3.5 0 
C -3.5 0.928211 -3.131218 1.81853 -2.474874 2.474874 
C -1.81853 3.131218 -0.928211 3.5 0 3.5 
z
" style="stroke: #374151"/>
    </defs>
    <g clip-path="url(#p3acd1b90be)">
     <use xlink:href="#ma89b7a2110" x="71.262243" y="413.977293" style="fill: #374151; stroke: #374151"/>
    </g>
   </g>
   <g id="line2d_3">
    <g clip-path="url(#p3acd1b90be)">
     <use xlink:href="#ma89b7a2110" x="471.651262" y="413.977293" style="fill: #374151; stroke: #374151"/>
    </g>
   </g>
   <g id="line2d_4">
    <g clip-path="url(#p3acd1b90be)">
     <use xlink:href="#ma89b7a2110" x="191.378949" y="173.743882" style="fill: #374151; stroke: #374151"/>
    </g>
   </g>
   <g id="line2d_5">
    <g clip-path="url(#p3acd1b90be)">
     <use xlink:href="#ma89b7a2110" x="39.379946" y="43.459023" style="fill: #374151; stroke: #374151"/>
    </g>
   </g>
   <g id="line2d_6">
    <path d="M 111.301145 413.977293 
L 111.27197 412.449078 
L 111.184486 410.923089 
L 111.038822 409.401552 
L 110.83519 407.886683 
L 110.573886 406.38069 
L 110.255292 404.885768 
L 109.879871 403.404096 
L 109.44817 401.937832 
L 108.96082 400.489115 
L 108.418529 399.060054 
L 107.822089 397.652732 
L 107.172369 396.269202 
L 106.470315 394.911478 
L 105.716951 393.581539 
L 104.913374 392.281325 
L 104.060755 391.012728 
L 103.160338 389.7776 
L 102.213435 388.577738 
L 101.221424 387.414893 
L 100.185753 386.290758 
L 99.10793 385.206972 
L 97.989526 384.165115 
L 96.832172 383.166704 
L 95.637553 382.213195 
L 94.40741 381.305977 
L 93.143537 380.446373 
L 91.847776 379.635635 
L 90.522014 378.874945 
L 89.168184 378.165411 
" clip-path="url(#p3acd1b90be)" style="fill: none; stroke: #dc2626; stroke-width: 2.5; stroke-linecap: square"/>
   </g>
   <g id="line2d_7">
    <path d="M 431.61236 413.977293 
L 431.624313 412.999025 
L 431.660164 412.02134 
L 431.719892 411.044823 
L 431.803462 410.070057 
L 431.910823 409.097624 
L 432.041911 408.128104 
L 432.196649 407.162077 
L 432.374943 406.200118 
L 432.576687 405.242804 
L 432.801762 404.290704 
L 433.050031 403.344387 
L 433.321348 402.404419 
L 433.615551 401.471361 
L 433.932462 400.545769 
L 434.271894 399.628197 
L 434.633644 398.719192 
L 435.017495 397.819298 
L 435.423219 396.92905 
L 435.850573 396.048981 
L 436.299303 395.179617 
L 436.769139 394.321475 
L 437.259802 393.47507 
L 437.770999 392.640905 
L 438.302424 391.81948 
L 438.853761 391.011284 
L 439.424679 390.2168 
L 440.014839 389.436502 
L 440.623887 388.670857 
L 441.251461 387.920321 
" clip-path="url(#p3acd1b90be)" style="fill: none; stroke: #059669; stroke-width: 2.5; stroke-linecap: square"/>
   </g>
   <g id="line2d_8">
    <path d="M 178.84479 198.8122 
L 180.003557 199.358842 
L 181.186096 199.851955 
L 182.389935 200.290508 
L 183.61256 200.673585 
L 184.851414 201.000386 
L 186.103909 201.270227 
L 187.367428 201.482545 
L 188.63933 201.636895 
L 189.916957 201.732956 
L 191.197639 201.770527 
L 192.4787 201.749529 
L 193.757463 201.670006 
L 195.031255 201.532123 
L 196.297415 201.336171 
L 197.553297 201.082557 
L 198.796275 200.771811 
L 200.023753 200.404584 
L 201.233166 199.981643 
L 202.421986 199.503871 
L 203.587728 198.972267 
L 204.727957 198.387941 
L 205.84029 197.752116 
L 206.922402 197.066119 
L 207.972033 196.331384 
L 208.986987 195.549447 
L 209.965145 194.721942 
L 210.904463 193.850597 
L 211.802976 192.937235 
L 212.658809 191.983763 
" clip-path="url(#p3acd1b90be)" style="fill: none; stroke: #6b7280; stroke-width: 2; stroke-linecap: square"/>
   </g>
   <g id="line2d_9">
    <path d="M 166.310631 223.880518 
L 172.205467 226.417219 
L 178.351612 228.263523 
L 184.668508 229.395232 
L 191.073359 229.797512 
L 197.482215 229.465089 
L 203.811075 228.402322 
L 209.976986 226.623139 
L 215.899129 224.150861 
L 221.499884 221.017892 
L 226.705839 217.265297 
L 231.448761 212.942261 
L 235.666482 208.105447 
L 239.303721 202.818252 
L 242.312804 197.149975 
L 244.65429 191.174911 
L 246.29749 184.971377 
L 247.220865 178.620682 
L 247.412313 172.206067 
L 246.869324 165.811608 
L 245.599016 159.521118 
L 243.618039 153.417048 
L 240.952357 147.579404 
L 237.636911 142.084702 
L 233.715155 137.00496 
L 229.238493 132.40676 
L 224.265602 128.350371 
L 218.86166 124.888961 
L 213.0975 122.067898 
L 207.048671 119.924159 
L 200.794458 118.485842 
L 194.416834 117.7718 
L 187.999392 117.79139 
L 181.626246 118.544357 
L 175.380931 120.020831 
L 169.345303 122.20146 
L 163.598473 125.057663 
L 158.215766 128.552001 
L 153.267733 132.638676 
L 148.819228 137.264121 
" clip-path="url(#p3acd1b90be)" style="fill: none; stroke: #7c3aed; stroke-width: 3; stroke-linecap: square"/>
   </g>
   <g id="text_1">
    <!-- A -->
    <g style="fill: #1f2937" transform="translate(39.231121 442.004525) scale(0.12 -0.12)">
     <defs>
      <path id="DejaVuSans-Bold-41" d="M 3419 850 
L 1538 850 
L 1241 0 
L 31 0 
L 1759 4666 
L 3194 4666 
L 4922 0 
L 3713 0 
L 3419 850 
z
M 1838 1716 
L 3116 1716 
L 2478 3572 
L 1838 1716 
z
" transform="scale(0.015625)"/>
     </defs>
     <use xlink:href="#DejaVuSans-Bold-41"/>
    </g>
   </g>
   <g id="text_2">
    <!-- B -->
    <g style="fill: #1f2937" transform="translate(495.674603 442.004525) scale(0.12 -0.12)">
     <defs>
      <path id="DejaVuSans-Bold-42" d="M 2456 2859 
Q 2741 2859 2887 2984 
Q 3034 3109 3034 3353 
Q 3034 3594 2887 3720 
Q 2741 3847 2456 3847 
L 1791 3847 
L 1791 2859 
L 2456 2859 
z
M 2497 819 
Q 2859 819 3042 972 
Q 3225 1125 3225 1434 
Q 3225 1738 3044 1889 
Q 2863 2041 2497 2041 
L 1791 2041 
L 1791 819 
L 2497 819 
z
M 3616 2497 
Q 4003 2384 4215 2081 
Q 4428 1778 4428 1338 
Q 4428 663 3972 331 
Q 3516 0 2584 0 
L 588 0 
L 588 4666 
L 2394 4666 
Q 3366 4666 3802 4372 
Q 4238 4078 4238 3431 
Q 4238 3091 4078 2852 
Q 3919 2613 3616 2497 
z
" transform="scale(0.015625)"/>
     </defs>
     <use xlink:href="#DejaVuSans-Bold-42"/>
    </g>
   </g>
   <g id="text_3">
    <!-- C -->
    <g style="fill: #1f2937" transform="translate(163.351717 153.724431) scale(0.12 -0.12)">
     <defs>
      <path id="DejaVuSans-Bold-43" d="M 4288 256 
Q 3956 84 3597 -3 
Q 3238 -91 2847 -91 
Q 1681 -91 1000 561 
Q 319 1213 319 2328 
Q 319 3447 1000 4098 
Q 1681 4750 2847 4750 
Q 3238 4750 3597 4662 
Q 3956 4575 4288 4403 
L 4288 3438 
Q 3953 3666 3628 3772 
Q 3303 3878 2944 3878 
Q 2300 3878 1931 3465 
Q 1563 3053 1563 2328 
Q 1563 1606 1931 1193 
Q 2300 781 2944 781 
Q 3303 781 3628 887 
Q 3953 994 4288 1222 
L 4288 256 
z
" transform="scale(0.015625)"/>
     </defs>
     <use xlink:href="#DejaVuSans-Bold-43"/>
    </g>
   </g>
   <g id="text_4">
    <!-- D -->
    <g style="fill: #1f2937" transform="translate(59.399397 31.447352) scale(0.12 -0.12)">
     <defs>
      <path id="DejaVuSans-Bold-44" d="M 1791 3756 
L 1791 909 
L 2222 909 
Q 2959 909 3348 1275 
Q 3738 1641 3738 2338 
Q 3738 3031 3350 3393 
Q 2963 3756 2222 3756 
L 1791 3756 
z
M 588 4666 
L 1856 4666 
Q 2919 4666 3439 4514 
Q 3959 4363 4331 4000 
Q 4659 3684 4818 3271 
Q 4978 2859 4978 2338 
Q 4978 1809 4818 1395 
Q 4659 981 4331 666 
Q 3956 303 3431 151 
Q 2906 0 1856 0 
L 588 0 
L 588 4666 
z
" transform="scale(0.015625)"/>
     </defs>
     <use xlink:href="#DejaVuSans-Bold-44"/>
    </g>
   </g>
   <g id="text_5">
    <!-- α -->
    <g style="fill: #dc2626" transform="translate(127.316706 381.946172) scale(0.14 -0.14)">
     <defs>
      <path id="DejaVuSans-Bold-3b1" d="M 3006 3163 
L 3119 3500 
L 4088 3500 
L 3484 1697 
L 3569 1219 
Q 3659 703 3872 703 
L 4128 703 
L 4128 0 
L 3809 0 
Q 3313 0 3059 263 
Q 3003 322 2988 353 
Q 2838 163 2689 39 
Q 2541 -84 1763 -78 
Q 988 -72 648 400 
Q 309 872 309 1794 
Q 309 2713 663 3088 
Q 1109 3569 1966 3578 
Q 2688 3588 3006 3163 
z
M 2575 1841 
L 2481 2350 
Q 2394 2825 1981 2828 
Q 1772 2828 1598 2558 
Q 1425 2288 1425 1741 
Q 1425 1191 1581 944 
Q 1738 697 1969 691 
Q 2213 684 2363 1163 
L 2575 1841 
z
" transform="scale(0.015625)"/>
     </defs>
     <use xlink:href="#DejaVuSans-Bold-3b1"/>
    </g>
   </g>
   <g id="text_6">
    <!-- β -->
    <g style="fill: #059669" transform="translate(423.604579 369.934501) scale(0.14 -0.14)">
     <defs>
      <path id="DejaVuSans-Bold-3b2" d="M 2575 3038 
Q 2772 3309 2772 3503 
Q 2772 3769 2648 3948 
Q 2525 4128 2241 4128 
Q 1900 4128 1778 3864 
Q 1656 3600 1656 3103 
L 1656 1747 
Q 1656 1250 1848 986 
Q 2041 722 2400 722 
Q 2800 722 2953 934 
Q 3106 1147 3106 1275 
Q 3106 1722 2738 1988 
Q 2538 2122 1988 2134 
L 1988 2847 
Q 2497 2925 2575 3038 
z
M 538 -1331 
L 538 3044 
Q 538 3922 969 4369 
Q 1325 4741 1672 4845 
Q 2019 4950 2259 4950 
Q 2500 4947 2538 4941 
Q 3178 4841 3538 4438 
Q 3788 4163 3788 3600 
Q 3788 3313 3616 3053 
Q 3406 2734 3094 2709 
Q 3556 2584 3844 2322 
Q 4294 1919 4294 1288 
Q 4294 731 3903 320 
Q 3513 -91 2809 -91 
Q 2106 -91 1656 506 
L 1656 -1331 
L 538 -1331 
z
" transform="scale(0.015625)"/>
     </defs>
     <use xlink:href="#DejaVuSans-Bold-3b2"/>
    </g>
   </g>
   <g id="text_7">
    <!-- γ -->
    <g style="fill: #6b7280" transform="translate(207.394509 221.790564) scale(0.12 -0.12)">
     <defs>
      <path id="DejaVuSans-3b3" d="M 1128 2950 
L 1894 788 
L 2988 3500 
L 3597 3500 
L 2181 0 
L 2181 -1331 
L 1606 -1331 
L 1606 0 
L 688 2613 
Q 550 3006 253 3006 
L 100 3006 
L 100 3500 
L 319 3500 
Q 934 3500 1128 2950 
z
" transform="scale(0.015625)"/>
     </defs>
     <use xlink:href="#DejaVuSans-3b3"/>
    </g>
   </g>
   <g id="text_8">
    <!-- θ -->
    <g style="fill: #7c3aed" transform="translate(175.363388 97.669969) scale(0.16 -0.16)">
     <defs>
      <path id="DejaVuSans-Bold-3b8" d="M 1447 2081 
Q 1469 1444 1638 1181 
Q 1922 728 2197 725 
Q 2475 722 2763 1181 
Q 2931 1453 2953 2081 
L 1447 2081 
z
M 2950 2881 
Q 2913 3394 2759 3688 
Q 2522 4144 2200 4144 
Q 1875 4144 1641 3688 
Q 1484 3384 1450 2881 
L 2950 2881 
z
M 2200 4913 
Q 3247 4913 3686 4231 
Q 4125 3550 4125 2403 
Q 4125 1256 3673 592 
Q 3222 -72 2200 -72 
Q 1178 -72 726 592 
Q 275 1256 275 2403 
Q 275 3550 714 4231 
Q 1153 4913 2200 4913 
z
" transform="scale(0.015625)"/>
     </defs>
     <use xlink:href="#DejaVuSans-Bold-3b8"/>
    </g>
   </g>
   <g id="text_9">
    <!-- Figura -->
    <g style="fill: #6b7280" transform="translate(239.526488 71.650518) scale(0.11 -0.11)">
     <defs>
      <path id="DejaVuSans-Bold-46" d="M 588 4666 
L 3834 4666 
L 3834 3756 
L 1791 3756 
L 1791 2888 
L 3713 2888 
L 3713 1978 
L 1791 1978 
L 1791 0 
L 588 0 
L 588 4666 
z
" transform="scale(0.015625)"/>
      <path id="DejaVuSans-Bold-69" d="M 538 3500 
L 1656 3500 
L 1656 0 
L 538 0 
L 538 3500 
z
M 538 4863 
L 1656 4863 
L 1656 3950 
L 538 3950 
L 538 4863 
z
" transform="scale(0.015625)"/>
      <path id="DejaVuSans-Bold-67" d="M 2919 594 
Q 2688 288 2409 144 
Q 2131 0 1766 0 
Q 1125 0 706 504 
Q 288 1009 288 1791 
Q 288 2575 706 3076 
Q 1125 3578 1766 3578 
Q 2131 3578 2409 3434 
Q 2688 3291 2919 2981 
L 2919 3500 
L 4044 3500 
L 4044 353 
Q 4044 -491 3511 -936 
Q 2978 -1381 1966 -1381 
Q 1638 -1381 1331 -1331 
Q 1025 -1281 716 -1178 
L 716 -306 
Q 1009 -475 1290 -558 
Q 1572 -641 1856 -641 
Q 2406 -641 2662 -400 
Q 2919 -159 2919 353 
L 2919 594 
z
M 2181 2772 
Q 1834 2772 1640 2515 
Q 1447 2259 1447 1791 
Q 1447 1309 1634 1061 
Q 1822 813 2181 813 
Q 2531 813 2725 1069 
Q 2919 1325 2919 1791 
Q 2919 2259 2725 2515 
Q 2531 2772 2181 2772 
z
" transform="scale(0.015625)"/>
      <path id="DejaVuSans-Bold-75" d="M 500 1363 
L 500 3500 
L 1625 3500 
L 1625 3150 
Q 1625 2866 1622 2436 
Q 1619 2006 1619 1863 
Q 1619 1441 1641 1255 
Q 1663 1069 1716 984 
Q 1784 875 1895 815 
Q 2006 756 2150 756 
Q 2500 756 2700 1025 
Q 2900 1294 2900 1772 
L 2900 3500 
L 4019 3500 
L 4019 0 
L 2900 0 
L 2900 506 
Q 2647 200 2364 54 
Q 2081 -91 1741 -91 
Q 1134 -91 817 281 
Q 500 653 500 1363 
z
" transform="scale(0.015625)"/>
      <path id="DejaVuSans-Bold-72" d="M 3138 2547 
Q 2991 2616 2845 2648 
Q 2700 2681 2553 2681 
Q 2122 2681 1889 2404 
Q 1656 2128 1656 1613 
L 1656 0 
L 538 0 
L 538 3500 
L 1656 3500 
L 1656 2925 
Q 1872 3269 2151 3426 
Q 2431 3584 2822 3584 
Q 2878 3584 2943 3579 
Q 3009 3575 3134 3559 
L 3138 2547 
z
" transform="scale(0.015625)"/>
      <path id="DejaVuSans-Bold-61" d="M 2106 1575 
Q 1756 1575 1579 1456 
Q 1403 1338 1403 1106 
Q 1403 894 1545 773 
Q 1688 653 1941 653 
Q 2256 653 2472 879 
Q 2688 1106 2688 1447 
L 2688 1575 
L 2106 1575 
z
M 3816 1997 
L 3816 0 
L 2688 0 
L 2688 519 
Q 2463 200 2181 54 
Q 1900 -91 1497 -91 
Q 953 -91 614 226 
Q 275 544 275 1050 
Q 275 1666 698 1953 
Q 1122 2241 2028 2241 
L 2688 2241 
L 2688 2328 
Q 2688 2594 2478 2717 
Q 2269 2841 1825 2841 
Q 1466 2841 1156 2769 
Q 847 2697 581 2553 
L 581 3406 
Q 941 3494 1303 3539 
Q 1666 3584 2028 3584 
Q 2975 3584 3395 3211 
Q 3816 2838 3816 1997 
z
" transform="scale(0.015625)"/>
     </defs>
     <use xlink:href="#DejaVuSans-Bold-46"/>
     <use xlink:href="#DejaVuSans-Bold-69" transform="translate(68.310547 0)"/>
     <use xlink:href="#DejaVuSans-Bold-67" transform="translate(102.587891 0)"/>
     <use xlink:href="#DejaVuSans-Bold-75" transform="translate(174.169922 0)"/>
     <use xlink:href="#DejaVuSans-Bold-72" transform="translate(245.361328 0)"/>
     <use xlink:href="#DejaVuSans-Bold-61" transform="translate(294.677734 0)"/>
    </g>
   </g>
  </g>
  <g id="axes_2">
   <g id="patch_4">
    <path d="M 568.533631 150.526511 
L 917.796052 150.526511 
L 917.796052 68.678893 
L 568.533631 68.678893 
z
" style="fill: #fffbeb; stroke: #7c3aed; stroke-width: 2; stroke-linejoin: miter"/>
   </g>
   <g id="patch_5">
    <path d="M 580.175712 500.65243 
L 906.153971 500.65243 
L 906.153971 464.275711 
L 580.175712 464.275711 
z
" clip-path="url(#p12a810c356)" style="fill: #f9fafb; stroke: #d1d5db; stroke-linejoin: miter"/>
   </g>
   <g id="line2d_10">
    <path d="M 568.533631 168.71487 
L 917.796052 168.71487 
" clip-path="url(#p12a810c356)" style="fill: none; stroke: #e5e7eb; stroke-linecap: square"/>
   </g>
   <g id="line2d_11">
    <path d="M 568.533631 341.504285 
L 917.796052 341.504285 
" clip-path="url(#p12a810c356)" style="fill: none; stroke: #e5e7eb; stroke-linecap: square"/>
   </g>
   <g id="line2d_12">
    <path d="M 568.533631 441.540262 
L 917.796052 441.540262 
" clip-path="url(#p12a810c356)" style="fill: none; stroke: #e5e7eb; stroke-linecap: square"/>
   </g>
   <g id="text_10">
    <!-- FÓRMULA PRINCIPAL -->
    <g style="fill: #7c3aed" transform="translate(690.333435 98.44487) scale(0.09 -0.09)">
     <defs>
      <path id="DejaVuSans-Bold-d3" d="M 2719 3878 
Q 2169 3878 1866 3472 
Q 1563 3066 1563 2328 
Q 1563 1594 1866 1187 
Q 2169 781 2719 781 
Q 3272 781 3575 1187 
Q 3878 1594 3878 2328 
Q 3878 3066 3575 3472 
Q 3272 3878 2719 3878 
z
M 2719 4750 
Q 3844 4750 4481 4106 
Q 5119 3463 5119 2328 
Q 5119 1197 4481 553 
Q 3844 -91 2719 -91 
Q 1597 -91 958 553 
Q 319 1197 319 2328 
Q 319 3463 958 4106 
Q 1597 4750 2719 4750 
z
M 2799 5921 
L 3684 5921 
L 2793 5096 
L 2181 5096 
L 2799 5921 
z
" transform="scale(0.015625)"/>
      <path id="DejaVuSans-Bold-52" d="M 2297 2597 
Q 2675 2597 2839 2737 
Q 3003 2878 3003 3200 
Q 3003 3519 2839 3656 
Q 2675 3794 2297 3794 
L 1791 3794 
L 1791 2597 
L 2297 2597 
z
M 1791 1766 
L 1791 0 
L 588 0 
L 588 4666 
L 2425 4666 
Q 3347 4666 3776 4356 
Q 4206 4047 4206 3378 
Q 4206 2916 3982 2619 
Q 3759 2322 3309 2181 
Q 3556 2125 3751 1926 
Q 3947 1728 4147 1325 
L 4800 0 
L 3519 0 
L 2950 1159 
Q 2778 1509 2601 1637 
Q 2425 1766 2131 1766 
L 1791 1766 
z
" transform="scale(0.015625)"/>
      <path id="DejaVuSans-Bold-4d" d="M 588 4666 
L 2119 4666 
L 3181 2169 
L 4250 4666 
L 5778 4666 
L 5778 0 
L 4641 0 
L 4641 3413 
L 3566 897 
L 2803 897 
L 1728 3413 
L 1728 0 
L 588 0 
L 588 4666 
z
" transform="scale(0.015625)"/>
      <path id="DejaVuSans-Bold-55" d="M 588 4666 
L 1791 4666 
L 1791 1869 
Q 1791 1291 1980 1042 
Q 2169 794 2597 794 
Q 3028 794 3217 1042 
Q 3406 1291 3406 1869 
L 3406 4666 
L 4609 4666 
L 4609 1869 
Q 4609 878 4112 393 
Q 3616 -91 2597 -91 
Q 1581 -91 1084 393 
Q 588 878 588 1869 
L 588 4666 
z
" transform="scale(0.015625)"/>
      <path id="DejaVuSans-Bold-4c" d="M 588 4666 
L 1791 4666 
L 1791 909 
L 3903 909 
L 3903 0 
L 588 0 
L 588 4666 
z
" transform="scale(0.015625)"/>
      <path id="DejaVuSans-Bold-20" transform="scale(0.015625)"/>
      <path id="DejaVuSans-Bold-50" d="M 588 4666 
L 2584 4666 
Q 3475 4666 3951 4270 
Q 4428 3875 4428 3144 
Q 4428 2409 3951 2014 
Q 3475 1619 2584 1619 
L 1791 1619 
L 1791 0 
L 588 0 
L 588 4666 
z
M 1791 3794 
L 1791 2491 
L 2456 2491 
Q 2806 2491 2997 2661 
Q 3188 2831 3188 3144 
Q 3188 3456 2997 3625 
Q 2806 3794 2456 3794 
L 1791 3794 
z
" transform="scale(0.015625)"/>
      <path id="DejaVuSans-Bold-49" d="M 588 4666 
L 1791 4666 
L 1791 0 
L 588 0 
L 588 4666 
z
" transform="scale(0.015625)"/>
      <path id="DejaVuSans-Bold-4e" d="M 588 4666 
L 1931 4666 
L 3628 1466 
L 3628 4666 
L 4769 4666 
L 4769 0 
L 3425 0 
L 1728 3200 
L 1728 0 
L 588 0 
L 588 4666 
z
" transform="scale(0.015625)"/>
     </defs>
     <use xlink:href="#DejaVuSans-Bold-46"/>
     <use xlink:href="#DejaVuSans-Bold-d3" transform="translate(68.310547 0)"/>
     <use xlink:href="#DejaVuSans-Bold-52" transform="translate(153.320312 0)"/>
     <use xlink:href="#DejaVuSans-Bold-4d" transform="translate(230.322266 0)"/>
     <use xlink:href="#DejaVuSans-Bold-55" transform="translate(329.833984 0)"/>
     <use xlink:href="#DejaVuSans-Bold-4c" transform="translate(411.035156 0)"/>
     <use xlink:href="#DejaVuSans-Bold-41" transform="translate(474.755859 0)"/>
     <use xlink:href="#DejaVuSans-Bold-20" transform="translate(552.148438 0)"/>
     <use xlink:href="#DejaVuSans-Bold-50" transform="translate(586.962891 0)"/>
     <use xlink:href="#DejaVuSans-Bold-52" transform="translate(660.253906 0)"/>
     <use xlink:href="#DejaVuSans-Bold-49" transform="translate(737.255859 0)"/>
     <use xlink:href="#DejaVuSans-Bold-4e" transform="translate(774.462891 0)"/>
     <use xlink:href="#DejaVuSans-Bold-43" transform="translate(858.154297 0)"/>
     <use xlink:href="#DejaVuSans-Bold-49" transform="translate(931.542969 0)"/>
     <use xlink:href="#DejaVuSans-Bold-50" transform="translate(968.75 0)"/>
     <use xlink:href="#DejaVuSans-Bold-41" transform="translate(1032.916016 0)"/>
     <use xlink:href="#DejaVuSans-Bold-4c" transform="translate(1110.308594 0)"/>
    </g>
   </g>
   <g id="text_11">
    <!-- $\theta = \alpha + \beta$ -->
    <g style="fill: #7c3aed" transform="translate(695.094842 138.498152) scale(0.22 -0.22)">
     <defs>
      <path id="DejaVuSans-Oblique-3b8" d="M 2913 2219 
L 925 2219 
Q 791 1284 928 888 
Q 1100 400 1566 400 
Q 2034 400 2391 891 
Q 2703 1322 2913 2219 
z
M 3009 2750 
Q 3094 3638 2984 3950 
Q 2813 4444 2353 4444 
Q 1875 4444 1525 3956 
Q 1250 3563 1034 2750 
L 3009 2750 
z
M 2444 4913 
Q 3194 4913 3494 4250 
Q 3794 3591 3566 2422 
Q 3341 1256 2781 594 
Q 2225 -72 1475 -72 
Q 722 -72 425 594 
Q 128 1256 353 2422 
Q 581 3591 1134 4250 
Q 1691 4913 2444 4913 
z
" transform="scale(0.015625)"/>
      <path id="DejaVuSans-3d" d="M 678 2906 
L 4684 2906 
L 4684 2381 
L 678 2381 
L 678 2906 
z
M 678 1631 
L 4684 1631 
L 4684 1100 
L 678 1100 
L 678 1631 
z
" transform="scale(0.015625)"/>
      <path id="DejaVuSans-Oblique-3b1" d="M 2619 1628 
L 2622 2350 
Q 2625 3088 2069 3091 
Q 1653 3094 1394 2747 
Q 1069 2319 959 1747 
Q 825 1059 994 731 
Q 1169 397 1547 397 
Q 1966 397 2319 1063 
L 2619 1628 
z
M 2166 3578 
Q 3141 3594 3128 2584 
Q 3128 2584 3616 3500 
L 4128 3500 
L 3119 1603 
L 3109 919 
Q 3109 766 3194 638 
Q 3291 488 3391 488 
L 3669 488 
L 3575 0 
L 3228 0 
Q 2934 0 2722 263 
Q 2622 394 2619 669 
Q 2416 334 2066 50 
Q 1900 -81 1453 -78 
Q 722 -72 456 397 
Q 184 884 353 1747 
Q 534 2675 1009 3097 
Q 1544 3569 2166 3578 
z
" transform="scale(0.015625)"/>
      <path id="DejaVuSans-2b" d="M 2944 4013 
L 2944 2272 
L 4684 2272 
L 4684 1741 
L 2944 1741 
L 2944 0 
L 2419 0 
L 2419 1741 
L 678 1741 
L 678 2272 
L 2419 2272 
L 2419 4013 
L 2944 4013 
z
" transform="scale(0.015625)"/>
      <path id="DejaVuSans-Oblique-3b2" d="M 872 216 
L 572 -1331 
L -6 -1331 
L 928 3478 
Q 1206 4903 2538 4903 
Q 3888 4903 3659 3700 
Q 3503 2844 2894 2531 
Q 3713 2250 3553 1416 
Q 3272 -69 1759 -66 
Q 1097 -63 872 216 
z
M 1019 966 
Q 1259 422 1875 425 
Q 2775 425 2966 1406 
Q 3138 2288 1675 2219 
L 1778 2750 
Q 2909 2731 3106 3750 
Q 3241 4438 2509 4434 
Q 1691 4434 1503 3459 
L 1019 966 
z
" transform="scale(0.015625)"/>
     </defs>
     <use xlink:href="#DejaVuSans-Oblique-3b8" transform="translate(0 0.234375)"/>
     <use xlink:href="#DejaVuSans-3d" transform="translate(80.664062 0.234375)"/>
     <use xlink:href="#DejaVuSans-Oblique-3b1" transform="translate(183.935547 0.234375)"/>
     <use xlink:href="#DejaVuSans-2b" transform="translate(269.335938 0.234375)"/>
     <use xlink:href="#DejaVuSans-Oblique-3b2" transform="translate(372.607422 0.234375)"/>
    </g>
   </g>
   <g id="text_12">
    <!-- Leyenda de Símbolos -->
    <g style="fill: #374151" transform="translate(683.308592 186.90323) scale(0.1 -0.1)">
     <defs>
      <path id="DejaVuSans-Bold-65" d="M 4031 1759 
L 4031 1441 
L 1416 1441 
Q 1456 1047 1700 850 
Q 1944 653 2381 653 
Q 2734 653 3104 758 
Q 3475 863 3866 1075 
L 3866 213 
Q 3469 63 3072 -14 
Q 2675 -91 2278 -91 
Q 1328 -91 801 392 
Q 275 875 275 1747 
Q 275 2603 792 3093 
Q 1309 3584 2216 3584 
Q 3041 3584 3536 3087 
Q 4031 2591 4031 1759 
z
M 2881 2131 
Q 2881 2450 2695 2645 
Q 2509 2841 2209 2841 
Q 1884 2841 1681 2658 
Q 1478 2475 1428 2131 
L 2881 2131 
z
" transform="scale(0.015625)"/>
      <path id="DejaVuSans-Bold-79" d="M 78 3500 
L 1197 3500 
L 2138 1125 
L 2938 3500 
L 4056 3500 
L 2584 -331 
Q 2363 -916 2067 -1148 
Q 1772 -1381 1288 -1381 
L 641 -1381 
L 641 -647 
L 991 -647 
Q 1275 -647 1404 -556 
Q 1534 -466 1606 -231 
L 1638 -134 
L 78 3500 
z
" transform="scale(0.015625)"/>
      <path id="DejaVuSans-Bold-6e" d="M 4056 2131 
L 4056 0 
L 2931 0 
L 2931 347 
L 2931 1631 
Q 2931 2084 2911 2256 
Q 2891 2428 2841 2509 
Q 2775 2619 2662 2680 
Q 2550 2741 2406 2741 
Q 2056 2741 1856 2470 
Q 1656 2200 1656 1722 
L 1656 0 
L 538 0 
L 538 3500 
L 1656 3500 
L 1656 2988 
Q 1909 3294 2193 3439 
Q 2478 3584 2822 3584 
Q 3428 3584 3742 3212 
Q 4056 2841 4056 2131 
z
" transform="scale(0.015625)"/>
      <path id="DejaVuSans-Bold-64" d="M 2919 2988 
L 2919 4863 
L 4044 4863 
L 4044 0 
L 2919 0 
L 2919 506 
Q 2688 197 2409 53 
Q 2131 -91 1766 -91 
Q 1119 -91 703 423 
Q 288 938 288 1747 
Q 288 2556 703 3070 
Q 1119 3584 1766 3584 
Q 2128 3584 2408 3439 
Q 2688 3294 2919 2988 
z
M 2181 722 
Q 2541 722 2730 984 
Q 2919 1247 2919 1747 
Q 2919 2247 2730 2509 
Q 2541 2772 2181 2772 
Q 1825 2772 1636 2509 
Q 1447 2247 1447 1747 
Q 1447 1247 1636 984 
Q 1825 722 2181 722 
z
" transform="scale(0.015625)"/>
      <path id="DejaVuSans-Bold-53" d="M 3834 4519 
L 3834 3531 
Q 3450 3703 3084 3790 
Q 2719 3878 2394 3878 
Q 1963 3878 1756 3759 
Q 1550 3641 1550 3391 
Q 1550 3203 1689 3098 
Q 1828 2994 2194 2919 
L 2706 2816 
Q 3484 2659 3812 2340 
Q 4141 2022 4141 1434 
Q 4141 663 3683 286 
Q 3225 -91 2284 -91 
Q 1841 -91 1394 -6 
Q 947 78 500 244 
L 500 1259 
Q 947 1022 1364 901 
Q 1781 781 2169 781 
Q 2563 781 2772 912 
Q 2981 1044 2981 1288 
Q 2981 1506 2839 1625 
Q 2697 1744 2272 1838 
L 1806 1941 
Q 1106 2091 782 2419 
Q 459 2747 459 3303 
Q 459 4000 909 4375 
Q 1359 4750 2203 4750 
Q 2588 4750 2994 4692 
Q 3400 4634 3834 4519 
z
" transform="scale(0.015625)"/>
      <path id="DejaVuSans-Bold-ed" d="M 538 3500 
L 1656 3500 
L 1656 0 
L 538 0 
L 538 3500 
z
M 1590 5119 
L 2474 5119 
L 1321 3944 
L 709 3944 
L 1590 5119 
z
" transform="scale(0.015625)"/>
      <path id="DejaVuSans-Bold-6d" d="M 3781 2919 
Q 3994 3244 4286 3414 
Q 4578 3584 4928 3584 
Q 5531 3584 5847 3212 
Q 6163 2841 6163 2131 
L 6163 0 
L 5038 0 
L 5038 1825 
Q 5041 1866 5042 1909 
Q 5044 1953 5044 2034 
Q 5044 2406 4934 2573 
Q 4825 2741 4581 2741 
Q 4263 2741 4089 2478 
Q 3916 2216 3909 1719 
L 3909 0 
L 2784 0 
L 2784 1825 
Q 2784 2406 2684 2573 
Q 2584 2741 2328 2741 
Q 2006 2741 1831 2477 
Q 1656 2213 1656 1722 
L 1656 0 
L 531 0 
L 531 3500 
L 1656 3500 
L 1656 2988 
Q 1863 3284 2130 3434 
Q 2397 3584 2719 3584 
Q 3081 3584 3359 3409 
Q 3638 3234 3781 2919 
z
" transform="scale(0.015625)"/>
      <path id="DejaVuSans-Bold-62" d="M 2400 722 
Q 2759 722 2948 984 
Q 3138 1247 3138 1747 
Q 3138 2247 2948 2509 
Q 2759 2772 2400 2772 
Q 2041 2772 1848 2508 
Q 1656 2244 1656 1747 
Q 1656 1250 1848 986 
Q 2041 722 2400 722 
z
M 1656 2988 
Q 1888 3294 2169 3439 
Q 2450 3584 2816 3584 
Q 3463 3584 3878 3070 
Q 4294 2556 4294 1747 
Q 4294 938 3878 423 
Q 3463 -91 2816 -91 
Q 2450 -91 2169 54 
Q 1888 200 1656 506 
L 1656 0 
L 538 0 
L 538 4863 
L 1656 4863 
L 1656 2988 
z
" transform="scale(0.015625)"/>
      <path id="DejaVuSans-Bold-6f" d="M 2203 2784 
Q 1831 2784 1636 2517 
Q 1441 2250 1441 1747 
Q 1441 1244 1636 976 
Q 1831 709 2203 709 
Q 2569 709 2762 976 
Q 2956 1244 2956 1747 
Q 2956 2250 2762 2517 
Q 2569 2784 2203 2784 
z
M 2203 3584 
Q 3106 3584 3614 3096 
Q 4122 2609 4122 1747 
Q 4122 884 3614 396 
Q 3106 -91 2203 -91 
Q 1297 -91 786 396 
Q 275 884 275 1747 
Q 275 2609 786 3096 
Q 1297 3584 2203 3584 
z
" transform="scale(0.015625)"/>
      <path id="DejaVuSans-Bold-6c" d="M 538 4863 
L 1656 4863 
L 1656 0 
L 538 0 
L 538 4863 
z
" transform="scale(0.015625)"/>
      <path id="DejaVuSans-Bold-73" d="M 3272 3391 
L 3272 2541 
Q 2913 2691 2578 2766 
Q 2244 2841 1947 2841 
Q 1628 2841 1473 2761 
Q 1319 2681 1319 2516 
Q 1319 2381 1436 2309 
Q 1553 2238 1856 2203 
L 2053 2175 
Q 2913 2066 3209 1816 
Q 3506 1566 3506 1031 
Q 3506 472 3093 190 
Q 2681 -91 1863 -91 
Q 1516 -91 1145 -36 
Q 775 19 384 128 
L 384 978 
Q 719 816 1070 734 
Q 1422 653 1784 653 
Q 2113 653 2278 743 
Q 2444 834 2444 1013 
Q 2444 1163 2330 1236 
Q 2216 1309 1875 1350 
L 1678 1375 
Q 931 1469 631 1722 
Q 331 1975 331 2491 
Q 331 3047 712 3315 
Q 1094 3584 1881 3584 
Q 2191 3584 2531 3537 
Q 2872 3491 3272 3391 
z
" transform="scale(0.015625)"/>
     </defs>
     <use xlink:href="#DejaVuSans-Bold-4c"/>
     <use xlink:href="#DejaVuSans-Bold-65" transform="translate(63.720703 0)"/>
     <use xlink:href="#DejaVuSans-Bold-79" transform="translate(131.542969 0)"/>
     <use xlink:href="#DejaVuSans-Bold-65" transform="translate(196.728516 0)"/>
     <use xlink:href="#DejaVuSans-Bold-6e" transform="translate(264.550781 0)"/>
     <use xlink:href="#DejaVuSans-Bold-64" transform="translate(335.742188 0)"/>
     <use xlink:href="#DejaVuSans-Bold-61" transform="translate(407.324219 0)"/>
     <use xlink:href="#DejaVuSans-Bold-20" transform="translate(474.804688 0)"/>
     <use xlink:href="#DejaVuSans-Bold-64" transform="translate(509.619141 0)"/>
     <use xlink:href="#DejaVuSans-Bold-65" transform="translate(581.201172 0)"/>
     <use xlink:href="#DejaVuSans-Bold-20" transform="translate(649.023438 0)"/>
     <use xlink:href="#DejaVuSans-Bold-53" transform="translate(683.837891 0)"/>
     <use xlink:href="#DejaVuSans-Bold-ed" transform="translate(755.859375 0)"/>
     <use xlink:href="#DejaVuSans-Bold-6d" transform="translate(790.136719 0)"/>
     <use xlink:href="#DejaVuSans-Bold-62" transform="translate(894.335938 0)"/>
     <use xlink:href="#DejaVuSans-Bold-6f" transform="translate(965.917969 0)"/>
     <use xlink:href="#DejaVuSans-Bold-6c" transform="translate(1034.619141 0)"/>
     <use xlink:href="#DejaVuSans-Bold-6f" transform="translate(1068.896484 0)"/>
     <use xlink:href="#DejaVuSans-Bold-73" transform="translate(1137.597656 0)"/>
    </g>
   </g>
   <g id="text_13">
    <!-- α -->
    <g style="fill: #dc2626" transform="translate(587.937099 226.867136) scale(0.13 -0.13)">
     <use xlink:href="#DejaVuSans-Bold-3b1"/>
    </g>
   </g>
   <g id="text_14">
    <!-- = ángulo interior en A -->
    <g style="fill: #374151" transform="translate(618.982648 225.943386) scale(0.09 -0.09)">
     <defs>
      <path id="DejaVuSans-20" transform="scale(0.015625)"/>
      <path id="DejaVuSans-e1" d="M 2194 1759 
Q 1497 1759 1228 1600 
Q 959 1441 959 1056 
Q 959 750 1161 570 
Q 1363 391 1709 391 
Q 2188 391 2477 730 
Q 2766 1069 2766 1631 
L 2766 1759 
L 2194 1759 
z
M 3341 1997 
L 3341 0 
L 2766 0 
L 2766 531 
Q 2569 213 2275 61 
Q 1981 -91 1556 -91 
Q 1019 -91 701 211 
Q 384 513 384 1019 
Q 384 1609 779 1909 
Q 1175 2209 1959 2209 
L 2766 2209 
L 2766 2266 
Q 2766 2663 2505 2880 
Q 2244 3097 1772 3097 
Q 1472 3097 1187 3025 
Q 903 2953 641 2809 
L 641 3341 
Q 956 3463 1253 3523 
Q 1550 3584 1831 3584 
Q 2591 3584 2966 3190 
Q 3341 2797 3341 1997 
z
M 2290 5119 
L 2912 5119 
L 1894 3944 
L 1415 3944 
L 2290 5119 
z
" transform="scale(0.015625)"/>
      <path id="DejaVuSans-6e" d="M 3513 2113 
L 3513 0 
L 2938 0 
L 2938 2094 
Q 2938 2591 2744 2837 
Q 2550 3084 2163 3084 
Q 1697 3084 1428 2787 
Q 1159 2491 1159 1978 
L 1159 0 
L 581 0 
L 581 3500 
L 1159 3500 
L 1159 2956 
Q 1366 3272 1645 3428 
Q 1925 3584 2291 3584 
Q 2894 3584 3203 3211 
Q 3513 2838 3513 2113 
z
" transform="scale(0.015625)"/>
      <path id="DejaVuSans-67" d="M 2906 1791 
Q 2906 2416 2648 2759 
Q 2391 3103 1925 3103 
Q 1463 3103 1205 2759 
Q 947 2416 947 1791 
Q 947 1169 1205 825 
Q 1463 481 1925 481 
Q 2391 481 2648 825 
Q 2906 1169 2906 1791 
z
M 3481 434 
Q 3481 -459 3084 -895 
Q 2688 -1331 1869 -1331 
Q 1566 -1331 1297 -1286 
Q 1028 -1241 775 -1147 
L 775 -588 
Q 1028 -725 1275 -790 
Q 1522 -856 1778 -856 
Q 2344 -856 2625 -561 
Q 2906 -266 2906 331 
L 2906 616 
Q 2728 306 2450 153 
Q 2172 0 1784 0 
Q 1141 0 747 490 
Q 353 981 353 1791 
Q 353 2603 747 3093 
Q 1141 3584 1784 3584 
Q 2172 3584 2450 3431 
Q 2728 3278 2906 2969 
L 2906 3500 
L 3481 3500 
L 3481 434 
z
" transform="scale(0.015625)"/>
      <path id="DejaVuSans-75" d="M 544 1381 
L 544 3500 
L 1119 3500 
L 1119 1403 
Q 1119 906 1312 657 
Q 1506 409 1894 409 
Q 2359 409 2629 706 
Q 2900 1003 2900 1516 
L 2900 3500 
L 3475 3500 
L 3475 0 
L 2900 0 
L 2900 538 
Q 2691 219 2414 64 
Q 2138 -91 1772 -91 
Q 1169 -91 856 284 
Q 544 659 544 1381 
z
M 1991 3584 
L 1991 3584 
z
" transform="scale(0.015625)"/>
      <path id="DejaVuSans-6c" d="M 603 4863 
L 1178 4863 
L 1178 0 
L 603 0 
L 603 4863 
z
" transform="scale(0.015625)"/>
      <path id="DejaVuSans-6f" d="M 1959 3097 
Q 1497 3097 1228 2736 
Q 959 2375 959 1747 
Q 959 1119 1226 758 
Q 1494 397 1959 397 
Q 2419 397 2687 759 
Q 2956 1122 2956 1747 
Q 2956 2369 2687 2733 
Q 2419 3097 1959 3097 
z
M 1959 3584 
Q 2709 3584 3137 3096 
Q 3566 2609 3566 1747 
Q 3566 888 3137 398 
Q 2709 -91 1959 -91 
Q 1206 -91 779 398 
Q 353 888 353 1747 
Q 353 2609 779 3096 
Q 1206 3584 1959 3584 
z
" transform="scale(0.015625)"/>
      <path id="DejaVuSans-69" d="M 603 3500 
L 1178 3500 
L 1178 0 
L 603 0 
L 603 3500 
z
M 603 4863 
L 1178 4863 
L 1178 4134 
L 603 4134 
L 603 4863 
z
" transform="scale(0.015625)"/>
      <path id="DejaVuSans-74" d="M 1172 4494 
L 1172 3500 
L 2356 3500 
L 2356 3053 
L 1172 3053 
L 1172 1153 
Q 1172 725 1289 603 
Q 1406 481 1766 481 
L 2356 481 
L 2356 0 
L 1766 0 
Q 1100 0 847 248 
Q 594 497 594 1153 
L 594 3053 
L 172 3053 
L 172 3500 
L 594 3500 
L 594 4494 
L 1172 4494 
z
" transform="scale(0.015625)"/>
      <path id="DejaVuSans-65" d="M 3597 1894 
L 3597 1613 
L 953 1613 
Q 991 1019 1311 708 
Q 1631 397 2203 397 
Q 2534 397 2845 478 
Q 3156 559 3463 722 
L 3463 178 
Q 3153 47 2828 -22 
Q 2503 -91 2169 -91 
Q 1331 -91 842 396 
Q 353 884 353 1716 
Q 353 2575 817 3079 
Q 1281 3584 2069 3584 
Q 2775 3584 3186 3129 
Q 3597 2675 3597 1894 
z
M 3022 2063 
Q 3016 2534 2758 2815 
Q 2500 3097 2075 3097 
Q 1594 3097 1305 2825 
Q 1016 2553 972 2059 
L 3022 2063 
z
" transform="scale(0.015625)"/>
      <path id="DejaVuSans-72" d="M 2631 2963 
Q 2534 3019 2420 3045 
Q 2306 3072 2169 3072 
Q 1681 3072 1420 2755 
Q 1159 2438 1159 1844 
L 1159 0 
L 581 0 
L 581 3500 
L 1159 3500 
L 1159 2956 
Q 1341 3275 1631 3429 
Q 1922 3584 2338 3584 
Q 2397 3584 2469 3576 
Q 2541 3569 2628 3553 
L 2631 2963 
z
" transform="scale(0.015625)"/>
      <path id="DejaVuSans-41" d="M 2188 4044 
L 1331 1722 
L 3047 1722 
L 2188 4044 
z
M 1831 4666 
L 2547 4666 
L 4325 0 
L 3669 0 
L 3244 1197 
L 1141 1197 
L 716 0 
L 50 0 
L 1831 4666 
z
" transform="scale(0.015625)"/>
     </defs>
     <use xlink:href="#DejaVuSans-3d"/>
     <use xlink:href="#DejaVuSans-20" transform="translate(83.789062 0)"/>
     <use xlink:href="#DejaVuSans-e1" transform="translate(115.576172 0)"/>
     <use xlink:href="#DejaVuSans-6e" transform="translate(176.855469 0)"/>
     <use xlink:href="#DejaVuSans-67" transform="translate(240.234375 0)"/>
     <use xlink:href="#DejaVuSans-75" transform="translate(303.710938 0)"/>
     <use xlink:href="#DejaVuSans-6c" transform="translate(367.089844 0)"/>
     <use xlink:href="#DejaVuSans-6f" transform="translate(394.873047 0)"/>
     <use xlink:href="#DejaVuSans-20" transform="translate(456.054688 0)"/>
     <use xlink:href="#DejaVuSans-69" transform="translate(487.841797 0)"/>
     <use xlink:href="#DejaVuSans-6e" transform="translate(515.625 0)"/>
     <use xlink:href="#DejaVuSans-74" transform="translate(579.003906 0)"/>
     <use xlink:href="#DejaVuSans-65" transform="translate(618.212891 0)"/>
     <use xlink:href="#DejaVuSans-72" transform="translate(679.736328 0)"/>
     <use xlink:href="#DejaVuSans-69" transform="translate(720.849609 0)"/>
     <use xlink:href="#DejaVuSans-6f" transform="translate(748.632812 0)"/>
     <use xlink:href="#DejaVuSans-72" transform="translate(809.814453 0)"/>
     <use xlink:href="#DejaVuSans-20" transform="translate(850.927734 0)"/>
     <use xlink:href="#DejaVuSans-65" transform="translate(882.714844 0)"/>
     <use xlink:href="#DejaVuSans-6e" transform="translate(944.238281 0)"/>
     <use xlink:href="#DejaVuSans-20" transform="translate(1007.617188 0)"/>
     <use xlink:href="#DejaVuSans-41" transform="translate(1039.404297 0)"/>
    </g>
   </g>
   <g id="text_15">
    <!-- β -->
    <g style="fill: #059669" transform="translate(587.937099 256.51158) scale(0.13 -0.13)">
     <use xlink:href="#DejaVuSans-Bold-3b2"/>
    </g>
   </g>
   <g id="text_16">
    <!-- = ángulo interior en B -->
    <g style="fill: #374151" transform="translate(618.982648 255.49947) scale(0.09 -0.09)">
     <defs>
      <path id="DejaVuSans-42" d="M 1259 2228 
L 1259 519 
L 2272 519 
Q 2781 519 3026 730 
Q 3272 941 3272 1375 
Q 3272 1813 3026 2020 
Q 2781 2228 2272 2228 
L 1259 2228 
z
M 1259 4147 
L 1259 2741 
L 2194 2741 
Q 2656 2741 2882 2914 
Q 3109 3088 3109 3444 
Q 3109 3797 2882 3972 
Q 2656 4147 2194 4147 
L 1259 4147 
z
M 628 4666 
L 2241 4666 
Q 2963 4666 3353 4366 
Q 3744 4066 3744 3513 
Q 3744 3084 3544 2831 
Q 3344 2578 2956 2516 
Q 3422 2416 3680 2098 
Q 3938 1781 3938 1306 
Q 3938 681 3513 340 
Q 3088 0 2303 0 
L 628 0 
L 628 4666 
z
" transform="scale(0.015625)"/>
     </defs>
     <use xlink:href="#DejaVuSans-3d"/>
     <use xlink:href="#DejaVuSans-20" transform="translate(83.789062 0)"/>
     <use xlink:href="#DejaVuSans-e1" transform="translate(115.576172 0)"/>
     <use xlink:href="#DejaVuSans-6e" transform="translate(176.855469 0)"/>
     <use xlink:href="#DejaVuSans-67" transform="translate(240.234375 0)"/>
     <use xlink:href="#DejaVuSans-75" transform="translate(303.710938 0)"/>
     <use xlink:href="#DejaVuSans-6c" transform="translate(367.089844 0)"/>
     <use xlink:href="#DejaVuSans-6f" transform="translate(394.873047 0)"/>
     <use xlink:href="#DejaVuSans-20" transform="translate(456.054688 0)"/>
     <use xlink:href="#DejaVuSans-69" transform="translate(487.841797 0)"/>
     <use xlink:href="#DejaVuSans-6e" transform="translate(515.625 0)"/>
     <use xlink:href="#DejaVuSans-74" transform="translate(579.003906 0)"/>
     <use xlink:href="#DejaVuSans-65" transform="translate(618.212891 0)"/>
     <use xlink:href="#DejaVuSans-72" transform="translate(679.736328 0)"/>
     <use xlink:href="#DejaVuSans-69" transform="translate(720.849609 0)"/>
     <use xlink:href="#DejaVuSans-6f" transform="translate(748.632812 0)"/>
     <use xlink:href="#DejaVuSans-72" transform="translate(809.814453 0)"/>
     <use xlink:href="#DejaVuSans-20" transform="translate(850.927734 0)"/>
     <use xlink:href="#DejaVuSans-65" transform="translate(882.714844 0)"/>
     <use xlink:href="#DejaVuSans-6e" transform="translate(944.238281 0)"/>
     <use xlink:href="#DejaVuSans-20" transform="translate(1007.617188 0)"/>
     <use xlink:href="#DejaVuSans-42" transform="translate(1039.404297 0)"/>
    </g>
   </g>
   <g id="text_17">
    <!-- γ -->
    <g style="fill: #6b7280" transform="translate(587.937099 285.979304) scale(0.13 -0.13)">
     <defs>
      <path id="DejaVuSans-Bold-3b3" d="M 1769 2450 
L 2275 1100 
L 3144 3500 
L 4266 3500 
L 2834 0 
L 2834 -1331 
L 1716 -1331 
L 1716 0 
L 794 2350 
Q 688 2625 594 2675 
Q 425 2766 309 2766 
L 97 2766 
L 97 3500 
L 606 3500 
Q 819 3500 1294 3269 
Q 1500 3169 1769 2450 
z
" transform="scale(0.015625)"/>
     </defs>
     <use xlink:href="#DejaVuSans-Bold-3b3"/>
    </g>
   </g>
   <g id="text_18">
    <!-- = ángulo interior en C -->
    <g style="fill: #374151" transform="translate(618.982648 285.055554) scale(0.09 -0.09)">
     <defs>
      <path id="DejaVuSans-43" d="M 4122 4306 
L 4122 3641 
Q 3803 3938 3442 4084 
Q 3081 4231 2675 4231 
Q 1875 4231 1450 3742 
Q 1025 3253 1025 2328 
Q 1025 1406 1450 917 
Q 1875 428 2675 428 
Q 3081 428 3442 575 
Q 3803 722 4122 1019 
L 4122 359 
Q 3791 134 3420 21 
Q 3050 -91 2638 -91 
Q 1578 -91 968 557 
Q 359 1206 359 2328 
Q 359 3453 968 4101 
Q 1578 4750 2638 4750 
Q 3056 4750 3426 4639 
Q 3797 4528 4122 4306 
z
" transform="scale(0.015625)"/>
     </defs>
     <use xlink:href="#DejaVuSans-3d"/>
     <use xlink:href="#DejaVuSans-20" transform="translate(83.789062 0)"/>
     <use xlink:href="#DejaVuSans-e1" transform="translate(115.576172 0)"/>
     <use xlink:href="#DejaVuSans-6e" transform="translate(176.855469 0)"/>
     <use xlink:href="#DejaVuSans-67" transform="translate(240.234375 0)"/>
     <use xlink:href="#DejaVuSans-75" transform="translate(303.710938 0)"/>
     <use xlink:href="#DejaVuSans-6c" transform="translate(367.089844 0)"/>
     <use xlink:href="#DejaVuSans-6f" transform="translate(394.873047 0)"/>
     <use xlink:href="#DejaVuSans-20" transform="translate(456.054688 0)"/>
     <use xlink:href="#DejaVuSans-69" transform="translate(487.841797 0)"/>
     <use xlink:href="#DejaVuSans-6e" transform="translate(515.625 0)"/>
     <use xlink:href="#DejaVuSans-74" transform="translate(579.003906 0)"/>
     <use xlink:href="#DejaVuSans-65" transform="translate(618.212891 0)"/>
     <use xlink:href="#DejaVuSans-72" transform="translate(679.736328 0)"/>
     <use xlink:href="#DejaVuSans-69" transform="translate(720.849609 0)"/>
     <use xlink:href="#DejaVuSans-6f" transform="translate(748.632812 0)"/>
     <use xlink:href="#DejaVuSans-72" transform="translate(809.814453 0)"/>
     <use xlink:href="#DejaVuSans-20" transform="translate(850.927734 0)"/>
     <use xlink:href="#DejaVuSans-65" transform="translate(882.714844 0)"/>
     <use xlink:href="#DejaVuSans-6e" transform="translate(944.238281 0)"/>
     <use xlink:href="#DejaVuSans-20" transform="translate(1007.617188 0)"/>
     <use xlink:href="#DejaVuSans-43" transform="translate(1039.404297 0)"/>
    </g>
   </g>
   <g id="text_19">
    <!-- θ -->
    <g style="fill: #7c3aed" transform="translate(587.937099 315.535388) scale(0.13 -0.13)">
     <use xlink:href="#DejaVuSans-Bold-3b8"/>
    </g>
   </g>
   <g id="text_20">
    <!-- = ángulo exterior en C -->
    <g style="fill: #374151" transform="translate(618.982648 314.611638) scale(0.09 -0.09)">
     <defs>
      <path id="DejaVuSans-78" d="M 3513 3500 
L 2247 1797 
L 3578 0 
L 2900 0 
L 1881 1375 
L 863 0 
L 184 0 
L 1544 1831 
L 300 3500 
L 978 3500 
L 1906 2253 
L 2834 3500 
L 3513 3500 
z
" transform="scale(0.015625)"/>
     </defs>
     <use xlink:href="#DejaVuSans-3d"/>
     <use xlink:href="#DejaVuSans-20" transform="translate(83.789062 0)"/>
     <use xlink:href="#DejaVuSans-e1" transform="translate(115.576172 0)"/>
     <use xlink:href="#DejaVuSans-6e" transform="translate(176.855469 0)"/>
     <use xlink:href="#DejaVuSans-67" transform="translate(240.234375 0)"/>
     <use xlink:href="#DejaVuSans-75" transform="translate(303.710938 0)"/>
     <use xlink:href="#DejaVuSans-6c" transform="translate(367.089844 0)"/>
     <use xlink:href="#DejaVuSans-6f" transform="translate(394.873047 0)"/>
     <use xlink:href="#DejaVuSans-20" transform="translate(456.054688 0)"/>
     <use xlink:href="#DejaVuSans-65" transform="translate(487.841797 0)"/>
     <use xlink:href="#DejaVuSans-78" transform="translate(547.615234 0)"/>
     <use xlink:href="#DejaVuSans-74" transform="translate(606.794922 0)"/>
     <use xlink:href="#DejaVuSans-65" transform="translate(646.003906 0)"/>
     <use xlink:href="#DejaVuSans-72" transform="translate(707.527344 0)"/>
     <use xlink:href="#DejaVuSans-69" transform="translate(748.640625 0)"/>
     <use xlink:href="#DejaVuSans-6f" transform="translate(776.423828 0)"/>
     <use xlink:href="#DejaVuSans-72" transform="translate(837.605469 0)"/>
     <use xlink:href="#DejaVuSans-20" transform="translate(878.71875 0)"/>
     <use xlink:href="#DejaVuSans-65" transform="translate(910.505859 0)"/>
     <use xlink:href="#DejaVuSans-6e" transform="translate(972.029297 0)"/>
     <use xlink:href="#DejaVuSans-20" transform="translate(1035.408203 0)"/>
     <use xlink:href="#DejaVuSans-43" transform="translate(1067.195312 0)"/>
    </g>
   </g>
   <g id="text_21">
    <!-- Propiedad -->
    <g style="fill: #374151" transform="translate(714.38281 359.692644) scale(0.1 -0.1)">
     <defs>
      <path id="DejaVuSans-Bold-70" d="M 1656 506 
L 1656 -1331 
L 538 -1331 
L 538 3500 
L 1656 3500 
L 1656 2988 
Q 1888 3294 2169 3439 
Q 2450 3584 2816 3584 
Q 3463 3584 3878 3070 
Q 4294 2556 4294 1747 
Q 4294 938 3878 423 
Q 3463 -91 2816 -91 
Q 2450 -91 2169 54 
Q 1888 200 1656 506 
z
M 2400 2772 
Q 2041 2772 1848 2508 
Q 1656 2244 1656 1747 
Q 1656 1250 1848 986 
Q 2041 722 2400 722 
Q 2759 722 2948 984 
Q 3138 1247 3138 1747 
Q 3138 2247 2948 2509 
Q 2759 2772 2400 2772 
z
" transform="scale(0.015625)"/>
     </defs>
     <use xlink:href="#DejaVuSans-Bold-50"/>
     <use xlink:href="#DejaVuSans-Bold-72" transform="translate(73.291016 0)"/>
     <use xlink:href="#DejaVuSans-Bold-6f" transform="translate(122.607422 0)"/>
     <use xlink:href="#DejaVuSans-Bold-70" transform="translate(191.308594 0)"/>
     <use xlink:href="#DejaVuSans-Bold-69" transform="translate(262.890625 0)"/>
     <use xlink:href="#DejaVuSans-Bold-65" transform="translate(297.167969 0)"/>
     <use xlink:href="#DejaVuSans-Bold-64" transform="translate(364.990234 0)"/>
     <use xlink:href="#DejaVuSans-Bold-61" transform="translate(436.572266 0)"/>
     <use xlink:href="#DejaVuSans-Bold-64" transform="translate(504.052734 0)"/>
    </g>
   </g>
   <g id="text_22">
    <!-- El ángulo exterior de un triángulo es igual -->
    <g style="fill: #4b5563" transform="translate(648.553045 385.079598) scale(0.09 -0.09)">
     <defs>
      <path id="DejaVuSans-45" d="M 628 4666 
L 3578 4666 
L 3578 4134 
L 1259 4134 
L 1259 2753 
L 3481 2753 
L 3481 2222 
L 1259 2222 
L 1259 531 
L 3634 531 
L 3634 0 
L 628 0 
L 628 4666 
z
" transform="scale(0.015625)"/>
      <path id="DejaVuSans-64" d="M 2906 2969 
L 2906 4863 
L 3481 4863 
L 3481 0 
L 2906 0 
L 2906 525 
Q 2725 213 2448 61 
Q 2172 -91 1784 -91 
Q 1150 -91 751 415 
Q 353 922 353 1747 
Q 353 2572 751 3078 
Q 1150 3584 1784 3584 
Q 2172 3584 2448 3432 
Q 2725 3281 2906 2969 
z
M 947 1747 
Q 947 1113 1208 752 
Q 1469 391 1925 391 
Q 2381 391 2643 752 
Q 2906 1113 2906 1747 
Q 2906 2381 2643 2742 
Q 2381 3103 1925 3103 
Q 1469 3103 1208 2742 
Q 947 2381 947 1747 
z
" transform="scale(0.015625)"/>
      <path id="DejaVuSans-73" d="M 2834 3397 
L 2834 2853 
Q 2591 2978 2328 3040 
Q 2066 3103 1784 3103 
Q 1356 3103 1142 2972 
Q 928 2841 928 2578 
Q 928 2378 1081 2264 
Q 1234 2150 1697 2047 
L 1894 2003 
Q 2506 1872 2764 1633 
Q 3022 1394 3022 966 
Q 3022 478 2636 193 
Q 2250 -91 1575 -91 
Q 1294 -91 989 -36 
Q 684 19 347 128 
L 347 722 
Q 666 556 975 473 
Q 1284 391 1588 391 
Q 1994 391 2212 530 
Q 2431 669 2431 922 
Q 2431 1156 2273 1281 
Q 2116 1406 1581 1522 
L 1381 1569 
Q 847 1681 609 1914 
Q 372 2147 372 2553 
Q 372 3047 722 3315 
Q 1072 3584 1716 3584 
Q 2034 3584 2315 3537 
Q 2597 3491 2834 3397 
z
" transform="scale(0.015625)"/>
      <path id="DejaVuSans-61" d="M 2194 1759 
Q 1497 1759 1228 1600 
Q 959 1441 959 1056 
Q 959 750 1161 570 
Q 1363 391 1709 391 
Q 2188 391 2477 730 
Q 2766 1069 2766 1631 
L 2766 1759 
L 2194 1759 
z
M 3341 1997 
L 3341 0 
L 2766 0 
L 2766 531 
Q 2569 213 2275 61 
Q 1981 -91 1556 -91 
Q 1019 -91 701 211 
Q 384 513 384 1019 
Q 384 1609 779 1909 
Q 1175 2209 1959 2209 
L 2766 2209 
L 2766 2266 
Q 2766 2663 2505 2880 
Q 2244 3097 1772 3097 
Q 1472 3097 1187 3025 
Q 903 2953 641 2809 
L 641 3341 
Q 956 3463 1253 3523 
Q 1550 3584 1831 3584 
Q 2591 3584 2966 3190 
Q 3341 2797 3341 1997 
z
" transform="scale(0.015625)"/>
     </defs>
     <use xlink:href="#DejaVuSans-45"/>
     <use xlink:href="#DejaVuSans-6c" transform="translate(63.183594 0)"/>
     <use xlink:href="#DejaVuSans-20" transform="translate(90.966797 0)"/>
     <use xlink:href="#DejaVuSans-e1" transform="translate(122.753906 0)"/>
     <use xlink:href="#DejaVuSans-6e" transform="translate(184.033203 0)"/>
     <use xlink:href="#DejaVuSans-67" transform="translate(247.412109 0)"/>
     <use xlink:href="#DejaVuSans-75" transform="translate(310.888672 0)"/>
     <use xlink:href="#DejaVuSans-6c" transform="translate(374.267578 0)"/>
     <use xlink:href="#DejaVuSans-6f" transform="translate(402.050781 0)"/>
     <use xlink:href="#DejaVuSans-20" transform="translate(463.232422 0)"/>
     <use xlink:href="#DejaVuSans-65" transform="translate(495.019531 0)"/>
     <use xlink:href="#DejaVuSans-78" transform="translate(554.792969 0)"/>
     <use xlink:href="#DejaVuSans-74" transform="translate(613.972656 0)"/>
     <use xlink:href="#DejaVuSans-65" transform="translate(653.181641 0)"/>
     <use xlink:href="#DejaVuSans-72" transform="translate(714.705078 0)"/>
     <use xlink:href="#DejaVuSans-69" transform="translate(755.818359 0)"/>
     <use xlink:href="#DejaVuSans-6f" transform="translate(783.601562 0)"/>
     <use xlink:href="#DejaVuSans-72" transform="translate(844.783203 0)"/>
     <use xlink:href="#DejaVuSans-20" transform="translate(885.896484 0)"/>
     <use xlink:href="#DejaVuSans-64" transform="translate(917.683594 0)"/>
     <use xlink:href="#DejaVuSans-65" transform="translate(981.160156 0)"/>
     <use xlink:href="#DejaVuSans-20" transform="translate(1042.683594 0)"/>
     <use xlink:href="#DejaVuSans-75" transform="translate(1074.470703 0)"/>
     <use xlink:href="#DejaVuSans-6e" transform="translate(1137.849609 0)"/>
     <use xlink:href="#DejaVuSans-20" transform="translate(1201.228516 0)"/>
     <use xlink:href="#DejaVuSans-74" transform="translate(1233.015625 0)"/>
     <use xlink:href="#DejaVuSans-72" transform="translate(1272.224609 0)"/>
     <use xlink:href="#DejaVuSans-69" transform="translate(1313.337891 0)"/>
     <use xlink:href="#DejaVuSans-e1" transform="translate(1341.121094 0)"/>
     <use xlink:href="#DejaVuSans-6e" transform="translate(1402.400391 0)"/>
     <use xlink:href="#DejaVuSans-67" transform="translate(1465.779297 0)"/>
     <use xlink:href="#DejaVuSans-75" transform="translate(1529.255859 0)"/>
     <use xlink:href="#DejaVuSans-6c" transform="translate(1592.634766 0)"/>
     <use xlink:href="#DejaVuSans-6f" transform="translate(1620.417969 0)"/>
     <use xlink:href="#DejaVuSans-20" transform="translate(1681.599609 0)"/>
     <use xlink:href="#DejaVuSans-65" transform="translate(1713.386719 0)"/>
     <use xlink:href="#DejaVuSans-73" transform="translate(1774.910156 0)"/>
     <use xlink:href="#DejaVuSans-20" transform="translate(1827.009766 0)"/>
     <use xlink:href="#DejaVuSans-69" transform="translate(1858.796875 0)"/>
     <use xlink:href="#DejaVuSans-67" transform="translate(1886.580078 0)"/>
     <use xlink:href="#DejaVuSans-75" transform="translate(1950.056641 0)"/>
     <use xlink:href="#DejaVuSans-61" transform="translate(2013.435547 0)"/>
     <use xlink:href="#DejaVuSans-6c" transform="translate(2074.714844 0)"/>
    </g>
    <!-- a la suma de los dos ángulos interiores -->
    <g style="fill: #4b5563" transform="translate(655.106873 396.309488) scale(0.09 -0.09)">
     <defs>
      <path id="DejaVuSans-6d" d="M 3328 2828 
Q 3544 3216 3844 3400 
Q 4144 3584 4550 3584 
Q 5097 3584 5394 3201 
Q 5691 2819 5691 2113 
L 5691 0 
L 5113 0 
L 5113 2094 
Q 5113 2597 4934 2840 
Q 4756 3084 4391 3084 
Q 3944 3084 3684 2787 
Q 3425 2491 3425 1978 
L 3425 0 
L 2847 0 
L 2847 2094 
Q 2847 2600 2669 2842 
Q 2491 3084 2119 3084 
Q 1678 3084 1418 2786 
Q 1159 2488 1159 1978 
L 1159 0 
L 581 0 
L 581 3500 
L 1159 3500 
L 1159 2956 
Q 1356 3278 1631 3431 
Q 1906 3584 2284 3584 
Q 2666 3584 2933 3390 
Q 3200 3197 3328 2828 
z
" transform="scale(0.015625)"/>
     </defs>
     <use xlink:href="#DejaVuSans-61"/>
     <use xlink:href="#DejaVuSans-20" transform="translate(61.279297 0)"/>
     <use xlink:href="#DejaVuSans-6c" transform="translate(93.066406 0)"/>
     <use xlink:href="#DejaVuSans-61" transform="translate(120.849609 0)"/>
     <use xlink:href="#DejaVuSans-20" transform="translate(182.128906 0)"/>
     <use xlink:href="#DejaVuSans-73" transform="translate(213.916016 0)"/>
     <use xlink:href="#DejaVuSans-75" transform="translate(266.015625 0)"/>
     <use xlink:href="#DejaVuSans-6d" transform="translate(329.394531 0)"/>
     <use xlink:href="#DejaVuSans-61" transform="translate(426.806641 0)"/>
     <use xlink:href="#DejaVuSans-20" transform="translate(488.085938 0)"/>
     <use xlink:href="#DejaVuSans-64" transform="translate(519.873047 0)"/>
     <use xlink:href="#DejaVuSans-65" transform="translate(583.349609 0)"/>
     <use xlink:href="#DejaVuSans-20" transform="translate(644.873047 0)"/>
     <use xlink:href="#DejaVuSans-6c" transform="translate(676.660156 0)"/>
     <use xlink:href="#DejaVuSans-6f" transform="translate(704.443359 0)"/>
     <use xlink:href="#DejaVuSans-73" transform="translate(765.625 0)"/>
     <use xlink:href="#DejaVuSans-20" transform="translate(817.724609 0)"/>
     <use xlink:href="#DejaVuSans-64" transform="translate(849.511719 0)"/>
     <use xlink:href="#DejaVuSans-6f" transform="translate(912.988281 0)"/>
     <use xlink:href="#DejaVuSans-73" transform="translate(974.169922 0)"/>
     <use xlink:href="#DejaVuSans-20" transform="translate(1026.269531 0)"/>
     <use xlink:href="#DejaVuSans-e1" transform="translate(1058.056641 0)"/>
     <use xlink:href="#DejaVuSans-6e" transform="translate(1119.335938 0)"/>
     <use xlink:href="#DejaVuSans-67" transform="translate(1182.714844 0)"/>
     <use xlink:href="#DejaVuSans-75" transform="translate(1246.191406 0)"/>
     <use xlink:href="#DejaVuSans-6c" transform="translate(1309.570312 0)"/>
     <use xlink:href="#DejaVuSans-6f" transform="translate(1337.353516 0)"/>
     <use xlink:href="#DejaVuSans-73" transform="translate(1398.535156 0)"/>
     <use xlink:href="#DejaVuSans-20" transform="translate(1450.634766 0)"/>
     <use xlink:href="#DejaVuSans-69" transform="translate(1482.421875 0)"/>
     <use xlink:href="#DejaVuSans-6e" transform="translate(1510.205078 0)"/>
     <use xlink:href="#DejaVuSans-74" transform="translate(1573.583984 0)"/>
     <use xlink:href="#DejaVuSans-65" transform="translate(1612.792969 0)"/>
     <use xlink:href="#DejaVuSans-72" transform="translate(1674.316406 0)"/>
     <use xlink:href="#DejaVuSans-69" transform="translate(1715.429688 0)"/>
     <use xlink:href="#DejaVuSans-6f" transform="translate(1743.212891 0)"/>
     <use xlink:href="#DejaVuSans-72" transform="translate(1804.394531 0)"/>
     <use xlink:href="#DejaVuSans-65" transform="translate(1843.257812 0)"/>
     <use xlink:href="#DejaVuSans-73" transform="translate(1904.78125 0)"/>
    </g>
    <!-- no adyacentes a él. -->
    <g style="fill: #4b5563" transform="translate(699.054295 407.539379) scale(0.09 -0.09)">
     <defs>
      <path id="DejaVuSans-79" d="M 2059 -325 
Q 1816 -950 1584 -1140 
Q 1353 -1331 966 -1331 
L 506 -1331 
L 506 -850 
L 844 -850 
Q 1081 -850 1212 -737 
Q 1344 -625 1503 -206 
L 1606 56 
L 191 3500 
L 800 3500 
L 1894 763 
L 2988 3500 
L 3597 3500 
L 2059 -325 
z
" transform="scale(0.015625)"/>
      <path id="DejaVuSans-63" d="M 3122 3366 
L 3122 2828 
Q 2878 2963 2633 3030 
Q 2388 3097 2138 3097 
Q 1578 3097 1268 2742 
Q 959 2388 959 1747 
Q 959 1106 1268 751 
Q 1578 397 2138 397 
Q 2388 397 2633 464 
Q 2878 531 3122 666 
L 3122 134 
Q 2881 22 2623 -34 
Q 2366 -91 2075 -91 
Q 1284 -91 818 406 
Q 353 903 353 1747 
Q 353 2603 823 3093 
Q 1294 3584 2113 3584 
Q 2378 3584 2631 3529 
Q 2884 3475 3122 3366 
z
" transform="scale(0.015625)"/>
      <path id="DejaVuSans-e9" d="M 3597 1894 
L 3597 1613 
L 953 1613 
Q 991 1019 1311 708 
Q 1631 397 2203 397 
Q 2534 397 2845 478 
Q 3156 559 3463 722 
L 3463 178 
Q 3153 47 2828 -22 
Q 2503 -91 2169 -91 
Q 1331 -91 842 396 
Q 353 884 353 1716 
Q 353 2575 817 3079 
Q 1281 3584 2069 3584 
Q 2775 3584 3186 3129 
Q 3597 2675 3597 1894 
z
M 3022 2063 
Q 3016 2534 2758 2815 
Q 2500 3097 2075 3097 
Q 1594 3097 1305 2825 
Q 1016 2553 972 2059 
L 3022 2063 
z
M 2466 5119 
L 3088 5119 
L 2070 3944 
L 1591 3944 
L 2466 5119 
z
" transform="scale(0.015625)"/>
      <path id="DejaVuSans-2e" d="M 684 794 
L 1344 794 
L 1344 0 
L 684 0 
L 684 794 
z
" transform="scale(0.015625)"/>
     </defs>
     <use xlink:href="#DejaVuSans-6e"/>
     <use xlink:href="#DejaVuSans-6f" transform="translate(63.378906 0)"/>
     <use xlink:href="#DejaVuSans-20" transform="translate(124.560547 0)"/>
     <use xlink:href="#DejaVuSans-61" transform="translate(156.347656 0)"/>
     <use xlink:href="#DejaVuSans-64" transform="translate(217.626953 0)"/>
     <use xlink:href="#DejaVuSans-79" transform="translate(281.103516 0)"/>
     <use xlink:href="#DejaVuSans-61" transform="translate(340.283203 0)"/>
     <use xlink:href="#DejaVuSans-63" transform="translate(401.5625 0)"/>
     <use xlink:href="#DejaVuSans-65" transform="translate(456.542969 0)"/>
     <use xlink:href="#DejaVuSans-6e" transform="translate(518.066406 0)"/>
     <use xlink:href="#DejaVuSans-74" transform="translate(581.445312 0)"/>
     <use xlink:href="#DejaVuSans-65" transform="translate(620.654297 0)"/>
     <use xlink:href="#DejaVuSans-73" transform="translate(682.177734 0)"/>
     <use xlink:href="#DejaVuSans-20" transform="translate(734.277344 0)"/>
     <use xlink:href="#DejaVuSans-61" transform="translate(766.064453 0)"/>
     <use xlink:href="#DejaVuSans-20" transform="translate(827.34375 0)"/>
     <use xlink:href="#DejaVuSans-e9" transform="translate(859.130859 0)"/>
     <use xlink:href="#DejaVuSans-6c" transform="translate(920.654297 0)"/>
     <use xlink:href="#DejaVuSans-2e" transform="translate(948.4375 0)"/>
    </g>
   </g>
   <g id="text_23">
    <!-- Demostración -->
    <g style="fill: #6b7280" transform="translate(704.099217 459.728621) scale(0.1 -0.1)">
     <defs>
      <path id="DejaVuSans-Bold-74" d="M 1759 4494 
L 1759 3500 
L 2913 3500 
L 2913 2700 
L 1759 2700 
L 1759 1216 
Q 1759 972 1856 886 
Q 1953 800 2241 800 
L 2816 800 
L 2816 0 
L 1856 0 
Q 1194 0 917 276 
Q 641 553 641 1216 
L 641 2700 
L 84 2700 
L 84 3500 
L 641 3500 
L 641 4494 
L 1759 4494 
z
" transform="scale(0.015625)"/>
      <path id="DejaVuSans-Bold-63" d="M 3366 3391 
L 3366 2478 
Q 3138 2634 2908 2709 
Q 2678 2784 2431 2784 
Q 1963 2784 1702 2511 
Q 1441 2238 1441 1747 
Q 1441 1256 1702 982 
Q 1963 709 2431 709 
Q 2694 709 2930 787 
Q 3166 866 3366 1019 
L 3366 103 
Q 3103 6 2833 -42 
Q 2563 -91 2291 -91 
Q 1344 -91 809 395 
Q 275 881 275 1747 
Q 275 2613 809 3098 
Q 1344 3584 2291 3584 
Q 2566 3584 2833 3536 
Q 3100 3488 3366 3391 
z
" transform="scale(0.015625)"/>
      <path id="DejaVuSans-Bold-f3" d="M 2203 2784 
Q 1831 2784 1636 2517 
Q 1441 2250 1441 1747 
Q 1441 1244 1636 976 
Q 1831 709 2203 709 
Q 2569 709 2762 976 
Q 2956 1244 2956 1747 
Q 2956 2250 2762 2517 
Q 2569 2784 2203 2784 
z
M 2203 3584 
Q 3106 3584 3614 3096 
Q 4122 2609 4122 1747 
Q 4122 884 3614 396 
Q 3106 -91 2203 -91 
Q 1297 -91 786 396 
Q 275 884 275 1747 
Q 275 2609 786 3096 
Q 1297 3584 2203 3584 
z
M 2694 5119 
L 3578 5119 
L 2425 3944 
L 1813 3944 
L 2694 5119 
z
" transform="scale(0.015625)"/>
     </defs>
     <use xlink:href="#DejaVuSans-Bold-44"/>
     <use xlink:href="#DejaVuSans-Bold-65" transform="translate(83.007812 0)"/>
     <use xlink:href="#DejaVuSans-Bold-6d" transform="translate(150.830078 0)"/>
     <use xlink:href="#DejaVuSans-Bold-6f" transform="translate(255.029297 0)"/>
     <use xlink:href="#DejaVuSans-Bold-73" transform="translate(323.730469 0)"/>
     <use xlink:href="#DejaVuSans-Bold-74" transform="translate(383.251953 0)"/>
     <use xlink:href="#DejaVuSans-Bold-72" transform="translate(431.054688 0)"/>
     <use xlink:href="#DejaVuSans-Bold-61" transform="translate(480.371094 0)"/>
     <use xlink:href="#DejaVuSans-Bold-63" transform="translate(547.851562 0)"/>
     <use xlink:href="#DejaVuSans-Bold-69" transform="translate(607.128906 0)"/>
     <use xlink:href="#DejaVuSans-Bold-f3" transform="translate(641.40625 0)"/>
     <use xlink:href="#DejaVuSans-Bold-6e" transform="translate(710.107422 0)"/>
    </g>
   </g>
   <g id="text_24">
    <!-- $\alpha + \beta + \gamma = 180°$  y  $\theta + \gamma = 180°$  $\Rightarrow$  $\theta = \alpha + \beta$ -->
    <g style="fill: #4b5563" transform="translate(640.654842 484.984071) scale(0.09 -0.09)">
     <defs>
      <path id="DejaVuSans-Oblique-3b3" d="M 1491 2950 
L 1838 788 
L 3456 3500 
L 4066 3500 
L 1972 0 
L 1713 -1331 
L 1138 -1331 
L 1397 0 
L 988 2613 
Q 925 3006 628 3006 
L 475 3006 
L 569 3500 
L 788 3500 
Q 1403 3500 1491 2950 
z
" transform="scale(0.015625)"/>
      <path id="DejaVuSans-31" d="M 794 531 
L 1825 531 
L 1825 4091 
L 703 3866 
L 703 4441 
L 1819 4666 
L 2450 4666 
L 2450 531 
L 3481 531 
L 3481 0 
L 794 0 
L 794 531 
z
" transform="scale(0.015625)"/>
      <path id="DejaVuSans-38" d="M 2034 2216 
Q 1584 2216 1326 1975 
Q 1069 1734 1069 1313 
Q 1069 891 1326 650 
Q 1584 409 2034 409 
Q 2484 409 2743 651 
Q 3003 894 3003 1313 
Q 3003 1734 2745 1975 
Q 2488 2216 2034 2216 
z
M 1403 2484 
Q 997 2584 770 2862 
Q 544 3141 544 3541 
Q 544 4100 942 4425 
Q 1341 4750 2034 4750 
Q 2731 4750 3128 4425 
Q 3525 4100 3525 3541 
Q 3525 3141 3298 2862 
Q 3072 2584 2669 2484 
Q 3125 2378 3379 2068 
Q 3634 1759 3634 1313 
Q 3634 634 3220 271 
Q 2806 -91 2034 -91 
Q 1263 -91 848 271 
Q 434 634 434 1313 
Q 434 1759 690 2068 
Q 947 2378 1403 2484 
z
M 1172 3481 
Q 1172 3119 1398 2916 
Q 1625 2713 2034 2713 
Q 2441 2713 2670 2916 
Q 2900 3119 2900 3481 
Q 2900 3844 2670 4047 
Q 2441 4250 2034 4250 
Q 1625 4250 1398 4047 
Q 1172 3844 1172 3481 
z
" transform="scale(0.015625)"/>
      <path id="DejaVuSans-30" d="M 2034 4250 
Q 1547 4250 1301 3770 
Q 1056 3291 1056 2328 
Q 1056 1369 1301 889 
Q 1547 409 2034 409 
Q 2525 409 2770 889 
Q 3016 1369 3016 2328 
Q 3016 3291 2770 3770 
Q 2525 4250 2034 4250 
z
M 2034 4750 
Q 2819 4750 3233 4129 
Q 3647 3509 3647 2328 
Q 3647 1150 3233 529 
Q 2819 -91 2034 -91 
Q 1250 -91 836 529 
Q 422 1150 422 2328 
Q 422 3509 836 4129 
Q 1250 4750 2034 4750 
z
" transform="scale(0.015625)"/>
      <path id="DejaVuSans-b0" d="M 1600 4347 
Q 1350 4347 1178 4173 
Q 1006 4000 1006 3750 
Q 1006 3503 1178 3333 
Q 1350 3163 1600 3163 
Q 1850 3163 2022 3333 
Q 2194 3503 2194 3750 
Q 2194 3997 2020 4172 
Q 1847 4347 1600 4347 
z
M 1600 4750 
Q 1800 4750 1984 4673 
Q 2169 4597 2303 4453 
Q 2447 4313 2519 4134 
Q 2591 3956 2591 3750 
Q 2591 3338 2302 3052 
Q 2013 2766 1594 2766 
Q 1172 2766 890 3047 
Q 609 3328 609 3750 
Q 609 4169 896 4459 
Q 1184 4750 1600 4750 
z
" transform="scale(0.015625)"/>
      <path id="DejaVuSans-21d2" d="M 4113 1678 
L 4441 2006 
L 4113 2334 
L 366 2334 
L 366 2709 
L 3738 2709 
L 3447 3000 
L 3822 3375 
L 5050 2147 
L 5050 1866 
L 3822 638 
L 3447 1013 
L 3738 1303 
L 366 1303 
L 366 1678 
L 4113 1678 
z
" transform="scale(0.015625)"/>
     </defs>
     <use xlink:href="#DejaVuSans-Oblique-3b1" transform="translate(0 0.234375)"/>
     <use xlink:href="#DejaVuSans-2b" transform="translate(85.400391 0.234375)"/>
     <use xlink:href="#DejaVuSans-Oblique-3b2" transform="translate(188.671875 0.234375)"/>
     <use xlink:href="#DejaVuSans-2b" transform="translate(271.972656 0.234375)"/>
     <use xlink:href="#DejaVuSans-Oblique-3b3" transform="translate(375.244141 0.234375)"/>
     <use xlink:href="#DejaVuSans-3d" transform="translate(453.90625 0.234375)"/>
     <use xlink:href="#DejaVuSans-31" transform="translate(557.177734 0.234375)"/>
     <use xlink:href="#DejaVuSans-38" transform="translate(620.800781 0.234375)"/>
     <use xlink:href="#DejaVuSans-30" transform="translate(684.423828 0.234375)"/>
     <use xlink:href="#DejaVuSans-b0" transform="translate(748.046875 0.234375)"/>
     <use xlink:href="#DejaVuSans-20" transform="translate(798.046875 0.234375)"/>
     <use xlink:href="#DejaVuSans-20" transform="translate(829.833984 0.234375)"/>
     <use xlink:href="#DejaVuSans-79" transform="translate(861.621094 0.234375)"/>
     <use xlink:href="#DejaVuSans-20" transform="translate(920.800781 0.234375)"/>
     <use xlink:href="#DejaVuSans-20" transform="translate(952.587891 0.234375)"/>
     <use xlink:href="#DejaVuSans-Oblique-3b8" transform="translate(984.375 0.234375)"/>
     <use xlink:href="#DejaVuSans-2b" transform="translate(1065.039062 0.234375)"/>
     <use xlink:href="#DejaVuSans-Oblique-3b3" transform="translate(1168.310547 0.234375)"/>
     <use xlink:href="#DejaVuSans-3d" transform="translate(1246.972656 0.234375)"/>
     <use xlink:href="#DejaVuSans-31" transform="translate(1350.244141 0.234375)"/>
     <use xlink:href="#DejaVuSans-38" transform="translate(1413.867188 0.234375)"/>
     <use xlink:href="#DejaVuSans-30" transform="translate(1477.490234 0.234375)"/>
     <use xlink:href="#DejaVuSans-b0" transform="translate(1541.113281 0.234375)"/>
     <use xlink:href="#DejaVuSans-20" transform="translate(1591.113281 0.234375)"/>
     <use xlink:href="#DejaVuSans-20" transform="translate(1622.900391 0.234375)"/>
     <use xlink:href="#DejaVuSans-21d2" transform="translate(1674.169922 0.234375)"/>
     <use xlink:href="#DejaVuSans-20" transform="translate(1777.441406 0.234375)"/>
     <use xlink:href="#DejaVuSans-20" transform="translate(1809.228516 0.234375)"/>
     <use xlink:href="#DejaVuSans-Oblique-3b8" transform="translate(1841.015625 0.234375)"/>
     <use xlink:href="#DejaVuSans-3d" transform="translate(1921.679688 0.234375)"/>
     <use xlink:href="#DejaVuSans-Oblique-3b1" transform="translate(2024.951172 0.234375)"/>
     <use xlink:href="#DejaVuSans-2b" transform="translate(2110.351562 0.234375)"/>
     <use xlink:href="#DejaVuSans-Oblique-3b2" transform="translate(2213.623047 0.234375)"/>
    </g>
   </g>
  </g>
  <g id="text_25">
   <!-- Ángulo Exterior del Triángulo -->
   <g style="fill: #1f2937" transform="translate(356.858354 20.152187) scale(0.14 -0.14)">
    <defs>
     <path id="DejaVuSans-Bold-c1" d="M 3419 850 
L 1538 850 
L 1241 0 
L 31 0 
L 1759 4666 
L 3194 4666 
L 4922 0 
L 3713 0 
L 3419 850 
z
M 1838 1716 
L 3116 1716 
L 2478 3572 
L 1838 1716 
z
M 2559 5921 
L 3444 5921 
L 2553 5096 
L 1941 5096 
L 2559 5921 
z
" transform="scale(0.015625)"/>
     <path id="DejaVuSans-Bold-45" d="M 588 4666 
L 3834 4666 
L 3834 3756 
L 1791 3756 
L 1791 2888 
L 3713 2888 
L 3713 1978 
L 1791 1978 
L 1791 909 
L 3903 909 
L 3903 0 
L 588 0 
L 588 4666 
z
" transform="scale(0.015625)"/>
     <path id="DejaVuSans-Bold-78" d="M 1422 1791 
L 159 3500 
L 1344 3500 
L 2059 2463 
L 2784 3500 
L 3969 3500 
L 2706 1797 
L 4031 0 
L 2847 0 
L 2059 1106 
L 1281 0 
L 97 0 
L 1422 1791 
z
" transform="scale(0.015625)"/>
     <path id="DejaVuSans-Bold-54" d="M 31 4666 
L 4331 4666 
L 4331 3756 
L 2784 3756 
L 2784 0 
L 1581 0 
L 1581 3756 
L 31 3756 
L 31 4666 
z
" transform="scale(0.015625)"/>
     <path id="DejaVuSans-Bold-e1" d="M 2106 1575 
Q 1756 1575 1579 1456 
Q 1403 1338 1403 1106 
Q 1403 894 1545 773 
Q 1688 653 1941 653 
Q 2256 653 2472 879 
Q 2688 1106 2688 1447 
L 2688 1575 
L 2106 1575 
z
M 3816 1997 
L 3816 0 
L 2688 0 
L 2688 519 
Q 2463 200 2181 54 
Q 1900 -91 1497 -91 
Q 953 -91 614 226 
Q 275 544 275 1050 
Q 275 1666 698 1953 
Q 1122 2241 2028 2241 
L 2688 2241 
L 2688 2328 
Q 2688 2594 2478 2717 
Q 2269 2841 1825 2841 
Q 1466 2841 1156 2769 
Q 847 2697 581 2553 
L 581 3406 
Q 941 3494 1303 3539 
Q 1666 3584 2028 3584 
Q 2975 3584 3395 3211 
Q 3816 2838 3816 1997 
z
M 2606 5119 
L 3490 5119 
L 2337 3944 
L 1725 3944 
L 2606 5119 
z
" transform="scale(0.015625)"/>
    </defs>
    <use xlink:href="#DejaVuSans-Bold-c1"/>
    <use xlink:href="#DejaVuSans-Bold-6e" transform="translate(77.392578 0)"/>
    <use xlink:href="#DejaVuSans-Bold-67" transform="translate(148.583984 0)"/>
    <use xlink:href="#DejaVuSans-Bold-75" transform="translate(220.166016 0)"/>
    <use xlink:href="#DejaVuSans-Bold-6c" transform="translate(291.357422 0)"/>
    <use xlink:href="#DejaVuSans-Bold-6f" transform="translate(325.634766 0)"/>
    <use xlink:href="#DejaVuSans-Bold-20" transform="translate(394.335938 0)"/>
    <use xlink:href="#DejaVuSans-Bold-45" transform="translate(429.150391 0)"/>
    <use xlink:href="#DejaVuSans-Bold-78" transform="translate(497.460938 0)"/>
    <use xlink:href="#DejaVuSans-Bold-74" transform="translate(561.962891 0)"/>
    <use xlink:href="#DejaVuSans-Bold-65" transform="translate(609.765625 0)"/>
    <use xlink:href="#DejaVuSans-Bold-72" transform="translate(677.587891 0)"/>
    <use xlink:href="#DejaVuSans-Bold-69" transform="translate(726.904297 0)"/>
    <use xlink:href="#DejaVuSans-Bold-6f" transform="translate(761.181641 0)"/>
    <use xlink:href="#DejaVuSans-Bold-72" transform="translate(829.882812 0)"/>
    <use xlink:href="#DejaVuSans-Bold-20" transform="translate(879.199219 0)"/>
    <use xlink:href="#DejaVuSans-Bold-64" transform="translate(914.013672 0)"/>
    <use xlink:href="#DejaVuSans-Bold-65" transform="translate(985.595703 0)"/>
    <use xlink:href="#DejaVuSans-Bold-6c" transform="translate(1053.417969 0)"/>
    <use xlink:href="#DejaVuSans-Bold-20" transform="translate(1087.695312 0)"/>
    <use xlink:href="#DejaVuSans-Bold-54" transform="translate(1122.509766 0)"/>
    <use xlink:href="#DejaVuSans-Bold-72" transform="translate(1179.722656 0)"/>
    <use xlink:href="#DejaVuSans-Bold-69" transform="translate(1229.039062 0)"/>
    <use xlink:href="#DejaVuSans-Bold-e1" transform="translate(1263.316406 0)"/>
    <use xlink:href="#DejaVuSans-Bold-6e" transform="translate(1330.796875 0)"/>
    <use xlink:href="#DejaVuSans-Bold-67" transform="translate(1401.988281 0)"/>
    <use xlink:href="#DejaVuSans-Bold-75" transform="translate(1473.570312 0)"/>
    <use xlink:href="#DejaVuSans-Bold-6c" transform="translate(1544.761719 0)"/>
    <use xlink:href="#DejaVuSans-Bold-6f" transform="translate(1579.039062 0)"/>
   </g>
  </g>
 </g>
 <defs>
  <clipPath id="p3acd1b90be">
   <rect x="7.2" y="77.650518" width="504.490163" height="400.389019"/>
  </clipPath>
  <clipPath id="p12a810c356">
   <rect x="549.130163" y="50.490534" width="388.069357" height="454.708986"/>
  </clipPath>
 </defs>
</svg>
