<?xml version="1.0" encoding="utf-8" standalone="no"?>
<!DOCTYPE svg PUBLIC "-//W3C//DTD SVG 1.1//EN"
  "http://www.w3.org/Graphics/SVG/1.1/DTD/svg11.dtd">
<svg xmlns:xlink="http://www.w3.org/1999/xlink" width="1016.39952pt" height="325.956502pt" viewBox="0 0 1016.39952 325.956502" xmlns="http://www.w3.org/2000/svg" version="1.1">
 <metadata>
  <rdf:RDF xmlns:dc="http://purl.org/dc/elements/1.1/" xmlns:cc="http://creativecommons.org/ns#" xmlns:rdf="http://www.w3.org/1999/02/22-rdf-syntax-ns#">
   <cc:Work>
    <dc:type rdf:resource="http://purl.org/dc/dcmitype/StillImage"/>
    <dc:date>2026-01-03T21:57:10.264839</dc:date>
    <dc:format>image/svg+xml</dc:format>
    <dc:creator>
     <cc:Agent>
      <dc:title>Repositorio Matemáticas Universitarias</dc:title>
     </cc:Agent>
    </dc:creator>
   </cc:Work>
  </rdf:RDF>
 </metadata>
 <defs>
  <style type="text/css">*{stroke-linejoin: round; stroke-linecap: butt}</style>
 </defs>
 <g id="figure_1">
  <g id="patch_1">
   <path d="M 0 325.956502 
L 1016.39952 325.956502 
L 1016.39952 0 
L 0 0 
z
" style="fill: #ffffff"/>
  </g>
  <g id="axes_1">
   <g id="patch_2">
    <path d="M 48.38998 252.852534 
L 254.33988 252.852534 
L 147.245932 104.568606 
z
" clip-path="url(#p80d380187e)" style="fill: #2563eb; opacity: 0.15; stroke: #2563eb; stroke-width: 2.5; stroke-linejoin: miter"/>
   </g>
   <g id="line2d_1">
    <path d="M 73.103968 252.852534 
L 73.089777 252.015152 
L 73.047222 251.17873 
L 72.976351 250.344231 
L 72.877245 249.512613 
L 72.750018 248.68483 
L 72.594816 247.861833 
L 72.411818 247.044567 
L 72.201234 246.233971 
L 71.963305 245.430976 
L 71.698305 244.636503 
L 71.406539 243.851466 
L 71.08834 243.076766 
L 70.744075 242.313291 
L 70.374139 241.56192 
L 69.978956 240.823515 
L 69.558981 240.098924 
L 69.114696 239.388978 
L 68.646611 238.694494 
L 68.155264 238.016269 
L 67.641218 237.355082 
L 67.105065 236.711692 
L 66.547419 236.086838 
L 65.968922 235.481237 
L 65.370238 234.895585 
L 64.752053 234.330554 
L 64.115079 233.786794 
L 63.460046 233.264929 
L 62.787707 232.765557 
L 62.098834 232.289254 
" clip-path="url(#p80d380187e)" style="fill: none; stroke: #059669; stroke-width: 2; stroke-linecap: square"/>
   </g>
   <g id="line2d_2">
    <path d="M 239.870073 232.817418 
L 239.224792 233.299649 
L 238.595571 233.802655 
L 237.983077 234.3259 
L 237.387961 234.868829 
L 236.810857 235.430866 
L 236.252376 236.011412 
L 235.713113 236.609851 
L 235.19364 237.225548 
L 234.69451 237.857848 
L 234.216252 238.506079 
L 233.759374 239.169553 
L 233.324363 239.847565 
L 232.91168 240.539394 
L 232.521764 241.244305 
L 232.155028 241.961549 
L 231.811864 242.690365 
L 231.492634 243.429978 
L 231.197679 244.179602 
L 230.927312 244.938441 
L 230.68182 245.705688 
L 230.461464 246.480529 
L 230.266478 247.262139 
L 230.097069 248.049689 
L 229.953417 248.842342 
L 229.835675 249.639256 
L 229.743968 250.439583 
L 229.678394 251.242475 
L 229.639021 252.047077 
L 229.625892 252.852534 
" clip-path="url(#p80d380187e)" style="fill: none; stroke: #059669; stroke-width: 2; stroke-linecap: square"/>
   </g>
   <g id="line2d_3">
    <path d="M 133.537078 125.131887 
L 134.409285 125.687359 
L 135.303965 126.205858 
L 136.219552 126.686476 
L 137.154443 127.128373 
L 138.107001 127.530774 
L 139.075559 127.892976 
L 140.05842 128.214344 
L 141.053865 128.494315 
L 142.06015 128.732399 
L 143.075514 128.92818 
L 144.098179 129.081314 
L 145.126354 129.191535 
L 146.158241 129.258648 
L 147.192031 129.282536 
L 148.225916 129.263157 
L 149.258086 129.200546 
L 150.286732 129.094812 
L 151.310055 128.946139 
L 152.326264 128.754789 
L 153.333577 128.521096 
L 154.330234 128.24547 
L 155.314488 127.928393 
L 156.284616 127.570419 
L 157.23892 127.172177 
L 158.17573 126.734362 
L 159.093404 126.257742 
L 159.990338 125.743151 
L 160.86496 125.191489 
L 161.715739 124.603723 
" clip-path="url(#p80d380187e)" style="fill: none; stroke: #059669; stroke-width: 2; stroke-linecap: square"/>
   </g>
   <g id="text_1">
    <!-- α -->
    <g style="fill: #059669" transform="translate(60.746974 236.376542) scale(0.1 -0.1)">
     <defs>
      <path id="DejaVuSans-3b1" d="M 2644 1628 
L 2506 2350 
Q 2366 3091 1809 3091 
Q 1391 3091 1200 2747 
Q 959 2316 959 1747 
Q 959 1059 1194 731 
Q 1431 397 1809 397 
Q 2228 397 2453 1063 
L 2644 1628 
z
M 2966 2584 
L 3275 3500 
L 3788 3500 
L 3147 1603 
L 3272 919 
Q 3300 766 3409 638 
Q 3538 488 3638 488 
L 3913 488 
L 3913 0 
L 3569 0 
Q 3275 0 3013 263 
Q 2884 394 2831 669 
Q 2688 322 2394 50 
Q 2256 -78 1809 -78 
Q 1075 -78 719 397 
Q 353 888 353 1747 
Q 353 2666 750 3097 
Q 1191 3578 1809 3578 
Q 2781 3578 2966 2584 
z
" transform="scale(0.015625)"/>
     </defs>
     <use xlink:href="#DejaVuSans-3b1"/>
    </g>
   </g>
   <g id="text_2">
    <!-- β -->
    <g style="fill: #059669" transform="translate(225.506894 236.376542) scale(0.1 -0.1)">
     <defs>
      <path id="DejaVuSans-3b2" d="M 1178 216 
L 1178 -1331 
L 600 -1331 
L 600 3478 
Q 600 4903 1931 4903 
Q 3288 4903 3288 3700 
Q 3288 2844 2750 2531 
Q 3625 2250 3625 1416 
Q 3625 -66 2119 -66 
Q 1456 -66 1178 216 
z
M 1178 966 
Q 1525 425 2141 425 
Q 3041 425 3041 1406 
Q 3041 2288 1591 2219 
L 1591 2750 
Q 2725 2750 2725 3750 
Q 2725 4434 1994 4434 
Q 1178 4434 1178 3459 
L 1178 966 
z
" transform="scale(0.015625)"/>
     </defs>
     <use xlink:href="#DejaVuSans-3b2"/>
    </g>
   </g>
   <g id="text_3">
    <!-- γ -->
    <g style="fill: #059669" transform="translate(147.245932 137.52059) scale(0.1 -0.1)">
     <defs>
      <path id="DejaVuSans-3b3" d="M 1128 2950 
L 1894 788 
L 2988 3500 
L 3597 3500 
L 2181 0 
L 2181 -1331 
L 1606 -1331 
L 1606 0 
L 688 2613 
Q 550 3006 253 3006 
L 100 3006 
L 100 3500 
L 319 3500 
Q 934 3500 1128 2950 
z
" transform="scale(0.015625)"/>
     </defs>
     <use xlink:href="#DejaVuSans-3b3"/>
    </g>
   </g>
   <g id="text_4">
    <!-- α, β, γ &lt; 90° -->
    <g style="fill: #6b7280" transform="translate(116.128836 294.042514) scale(0.11 -0.11)">
     <defs>
      <path id="DejaVuSans-2c" d="M 750 794 
L 1409 794 
L 1409 256 
L 897 -744 
L 494 -744 
L 750 256 
L 750 794 
z
" transform="scale(0.015625)"/>
      <path id="DejaVuSans-20" transform="scale(0.015625)"/>
      <path id="DejaVuSans-3c" d="M 4684 3150 
L 1459 2003 
L 4684 863 
L 4684 294 
L 678 1747 
L 678 2266 
L 4684 3719 
L 4684 3150 
z
" transform="scale(0.015625)"/>
      <path id="DejaVuSans-39" d="M 703 97 
L 703 672 
Q 941 559 1184 500 
Q 1428 441 1663 441 
Q 2288 441 2617 861 
Q 2947 1281 2994 2138 
Q 2813 1869 2534 1725 
Q 2256 1581 1919 1581 
Q 1219 1581 811 2004 
Q 403 2428 403 3163 
Q 403 3881 828 4315 
Q 1253 4750 1959 4750 
Q 2769 4750 3195 4129 
Q 3622 3509 3622 2328 
Q 3622 1225 3098 567 
Q 2575 -91 1691 -91 
Q 1453 -91 1209 -44 
Q 966 3 703 97 
z
M 1959 2075 
Q 2384 2075 2632 2365 
Q 2881 2656 2881 3163 
Q 2881 3666 2632 3958 
Q 2384 4250 1959 4250 
Q 1534 4250 1286 3958 
Q 1038 3666 1038 3163 
Q 1038 2656 1286 2365 
Q 1534 2075 1959 2075 
z
" transform="scale(0.015625)"/>
      <path id="DejaVuSans-30" d="M 2034 4250 
Q 1547 4250 1301 3770 
Q 1056 3291 1056 2328 
Q 1056 1369 1301 889 
Q 1547 409 2034 409 
Q 2525 409 2770 889 
Q 3016 1369 3016 2328 
Q 3016 3291 2770 3770 
Q 2525 4250 2034 4250 
z
M 2034 4750 
Q 2819 4750 3233 4129 
Q 3647 3509 3647 2328 
Q 3647 1150 3233 529 
Q 2819 -91 2034 -91 
Q 1250 -91 836 529 
Q 422 1150 422 2328 
Q 422 3509 836 4129 
Q 1250 4750 2034 4750 
z
" transform="scale(0.015625)"/>
      <path id="DejaVuSans-b0" d="M 1600 4347 
Q 1350 4347 1178 4173 
Q 1006 4000 1006 3750 
Q 1006 3503 1178 3333 
Q 1350 3163 1600 3163 
Q 1850 3163 2022 3333 
Q 2194 3503 2194 3750 
Q 2194 3997 2020 4172 
Q 1847 4347 1600 4347 
z
M 1600 4750 
Q 1800 4750 1984 4673 
Q 2169 4597 2303 4453 
Q 2447 4313 2519 4134 
Q 2591 3956 2591 3750 
Q 2591 3338 2302 3052 
Q 2013 2766 1594 2766 
Q 1172 2766 890 3047 
Q 609 3328 609 3750 
Q 609 4169 896 4459 
Q 1184 4750 1600 4750 
z
" transform="scale(0.015625)"/>
     </defs>
     <use xlink:href="#DejaVuSans-3b1"/>
     <use xlink:href="#DejaVuSans-2c" transform="translate(65.917969 0)"/>
     <use xlink:href="#DejaVuSans-20" transform="translate(97.705078 0)"/>
     <use xlink:href="#DejaVuSans-3b2" transform="translate(129.492188 0)"/>
     <use xlink:href="#DejaVuSans-2c" transform="translate(193.310547 0)"/>
     <use xlink:href="#DejaVuSans-20" transform="translate(225.097656 0)"/>
     <use xlink:href="#DejaVuSans-3b3" transform="translate(256.884766 0)"/>
     <use xlink:href="#DejaVuSans-20" transform="translate(316.064453 0)"/>
     <use xlink:href="#DejaVuSans-3c" transform="translate(347.851562 0)"/>
     <use xlink:href="#DejaVuSans-20" transform="translate(431.640625 0)"/>
     <use xlink:href="#DejaVuSans-39" transform="translate(463.427734 0)"/>
     <use xlink:href="#DejaVuSans-30" transform="translate(527.050781 0)"/>
     <use xlink:href="#DejaVuSans-b0" transform="translate(590.673828 0)"/>
    </g>
   </g>
   <g id="text_5">
    <!-- ACUTÁNGULO -->
    <g style="fill: #1f2937" transform="translate(126.244608 47.603247) scale(0.12 -0.12)">
     <defs>
      <path id="DejaVuSans-Bold-41" d="M 3419 850 
L 1538 850 
L 1241 0 
L 31 0 
L 1759 4666 
L 3194 4666 
L 4922 0 
L 3713 0 
L 3419 850 
z
M 1838 1716 
L 3116 1716 
L 2478 3572 
L 1838 1716 
z
" transform="scale(0.015625)"/>
      <path id="DejaVuSans-Bold-43" d="M 4288 256 
Q 3956 84 3597 -3 
Q 3238 -91 2847 -91 
Q 1681 -91 1000 561 
Q 319 1213 319 2328 
Q 319 3447 1000 4098 
Q 1681 4750 2847 4750 
Q 3238 4750 3597 4662 
Q 3956 4575 4288 4403 
L 4288 3438 
Q 3953 3666 3628 3772 
Q 3303 3878 2944 3878 
Q 2300 3878 1931 3465 
Q 1563 3053 1563 2328 
Q 1563 1606 1931 1193 
Q 2300 781 2944 781 
Q 3303 781 3628 887 
Q 3953 994 4288 1222 
L 4288 256 
z
" transform="scale(0.015625)"/>
      <path id="DejaVuSans-Bold-55" d="M 588 4666 
L 1791 4666 
L 1791 1869 
Q 1791 1291 1980 1042 
Q 2169 794 2597 794 
Q 3028 794 3217 1042 
Q 3406 1291 3406 1869 
L 3406 4666 
L 4609 4666 
L 4609 1869 
Q 4609 878 4112 393 
Q 3616 -91 2597 -91 
Q 1581 -91 1084 393 
Q 588 878 588 1869 
L 588 4666 
z
" transform="scale(0.015625)"/>
      <path id="DejaVuSans-Bold-54" d="M 31 4666 
L 4331 4666 
L 4331 3756 
L 2784 3756 
L 2784 0 
L 1581 0 
L 1581 3756 
L 31 3756 
L 31 4666 
z
" transform="scale(0.015625)"/>
      <path id="DejaVuSans-Bold-c1" d="M 3419 850 
L 1538 850 
L 1241 0 
L 31 0 
L 1759 4666 
L 3194 4666 
L 4922 0 
L 3713 0 
L 3419 850 
z
M 1838 1716 
L 3116 1716 
L 2478 3572 
L 1838 1716 
z
M 2559 5921 
L 3444 5921 
L 2553 5096 
L 1941 5096 
L 2559 5921 
z
" transform="scale(0.015625)"/>
      <path id="DejaVuSans-Bold-4e" d="M 588 4666 
L 1931 4666 
L 3628 1466 
L 3628 4666 
L 4769 4666 
L 4769 0 
L 3425 0 
L 1728 3200 
L 1728 0 
L 588 0 
L 588 4666 
z
" transform="scale(0.015625)"/>
      <path id="DejaVuSans-Bold-47" d="M 4781 347 
Q 4331 128 3847 18 
Q 3363 -91 2847 -91 
Q 1681 -91 1000 561 
Q 319 1213 319 2328 
Q 319 3456 1012 4103 
Q 1706 4750 2913 4750 
Q 3378 4750 3804 4662 
Q 4231 4575 4609 4403 
L 4609 3438 
Q 4219 3659 3833 3768 
Q 3447 3878 3059 3878 
Q 2341 3878 1952 3476 
Q 1563 3075 1563 2328 
Q 1563 1588 1938 1184 
Q 2313 781 3003 781 
Q 3191 781 3352 804 
Q 3513 828 3641 878 
L 3641 1784 
L 2906 1784 
L 2906 2591 
L 4781 2591 
L 4781 347 
z
" transform="scale(0.015625)"/>
      <path id="DejaVuSans-Bold-4c" d="M 588 4666 
L 1791 4666 
L 1791 909 
L 3903 909 
L 3903 0 
L 588 0 
L 588 4666 
z
" transform="scale(0.015625)"/>
      <path id="DejaVuSans-Bold-4f" d="M 2719 3878 
Q 2169 3878 1866 3472 
Q 1563 3066 1563 2328 
Q 1563 1594 1866 1187 
Q 2169 781 2719 781 
Q 3272 781 3575 1187 
Q 3878 1594 3878 2328 
Q 3878 3066 3575 3472 
Q 3272 3878 2719 3878 
z
M 2719 4750 
Q 3844 4750 4481 4106 
Q 5119 3463 5119 2328 
Q 5119 1197 4481 553 
Q 3844 -91 2719 -91 
Q 1597 -91 958 553 
Q 319 1197 319 2328 
Q 319 3463 958 4106 
Q 1597 4750 2719 4750 
z
" transform="scale(0.015625)"/>
     </defs>
     <use xlink:href="#DejaVuSans-Bold-41"/>
     <use xlink:href="#DejaVuSans-Bold-43" transform="translate(77.392578 0)"/>
     <use xlink:href="#DejaVuSans-Bold-55" transform="translate(150.78125 0)"/>
     <use xlink:href="#DejaVuSans-Bold-54" transform="translate(231.982422 0)"/>
     <use xlink:href="#DejaVuSans-Bold-c1" transform="translate(292.445312 0)"/>
     <use xlink:href="#DejaVuSans-Bold-4e" transform="translate(369.837891 0)"/>
     <use xlink:href="#DejaVuSans-Bold-47" transform="translate(453.529297 0)"/>
     <use xlink:href="#DejaVuSans-Bold-55" transform="translate(535.609375 0)"/>
     <use xlink:href="#DejaVuSans-Bold-4c" transform="translate(616.810547 0)"/>
     <use xlink:href="#DejaVuSans-Bold-4f" transform="translate(676.90625 0)"/>
    </g>
    <!-- (3 ángulos agudos) -->
    <g style="fill: #1f2937" transform="translate(106.884295 61.616622) scale(0.12 -0.12)">
     <defs>
      <path id="DejaVuSans-Bold-28" d="M 2413 -844 
L 1484 -844 
Q 1006 -72 778 623 
Q 550 1319 550 2003 
Q 550 2688 779 3389 
Q 1009 4091 1484 4856 
L 2413 4856 
Q 2013 4116 1813 3408 
Q 1613 2700 1613 2009 
Q 1613 1319 1811 609 
Q 2009 -100 2413 -844 
z
" transform="scale(0.015625)"/>
      <path id="DejaVuSans-Bold-33" d="M 2981 2516 
Q 3453 2394 3698 2092 
Q 3944 1791 3944 1325 
Q 3944 631 3412 270 
Q 2881 -91 1863 -91 
Q 1503 -91 1142 -33 
Q 781 25 428 141 
L 428 1069 
Q 766 900 1098 814 
Q 1431 728 1753 728 
Q 2231 728 2486 893 
Q 2741 1059 2741 1369 
Q 2741 1688 2480 1852 
Q 2219 2016 1709 2016 
L 1228 2016 
L 1228 2791 
L 1734 2791 
Q 2188 2791 2409 2933 
Q 2631 3075 2631 3366 
Q 2631 3634 2415 3781 
Q 2200 3928 1806 3928 
Q 1516 3928 1219 3862 
Q 922 3797 628 3669 
L 628 4550 
Q 984 4650 1334 4700 
Q 1684 4750 2022 4750 
Q 2931 4750 3382 4451 
Q 3834 4153 3834 3553 
Q 3834 3144 3618 2883 
Q 3403 2622 2981 2516 
z
" transform="scale(0.015625)"/>
      <path id="DejaVuSans-Bold-20" transform="scale(0.015625)"/>
      <path id="DejaVuSans-Bold-e1" d="M 2106 1575 
Q 1756 1575 1579 1456 
Q 1403 1338 1403 1106 
Q 1403 894 1545 773 
Q 1688 653 1941 653 
Q 2256 653 2472 879 
Q 2688 1106 2688 1447 
L 2688 1575 
L 2106 1575 
z
M 3816 1997 
L 3816 0 
L 2688 0 
L 2688 519 
Q 2463 200 2181 54 
Q 1900 -91 1497 -91 
Q 953 -91 614 226 
Q 275 544 275 1050 
Q 275 1666 698 1953 
Q 1122 2241 2028 2241 
L 2688 2241 
L 2688 2328 
Q 2688 2594 2478 2717 
Q 2269 2841 1825 2841 
Q 1466 2841 1156 2769 
Q 847 2697 581 2553 
L 581 3406 
Q 941 3494 1303 3539 
Q 1666 3584 2028 3584 
Q 2975 3584 3395 3211 
Q 3816 2838 3816 1997 
z
M 2606 5119 
L 3490 5119 
L 2337 3944 
L 1725 3944 
L 2606 5119 
z
" transform="scale(0.015625)"/>
      <path id="DejaVuSans-Bold-6e" d="M 4056 2131 
L 4056 0 
L 2931 0 
L 2931 347 
L 2931 1631 
Q 2931 2084 2911 2256 
Q 2891 2428 2841 2509 
Q 2775 2619 2662 2680 
Q 2550 2741 2406 2741 
Q 2056 2741 1856 2470 
Q 1656 2200 1656 1722 
L 1656 0 
L 538 0 
L 538 3500 
L 1656 3500 
L 1656 2988 
Q 1909 3294 2193 3439 
Q 2478 3584 2822 3584 
Q 3428 3584 3742 3212 
Q 4056 2841 4056 2131 
z
" transform="scale(0.015625)"/>
      <path id="DejaVuSans-Bold-67" d="M 2919 594 
Q 2688 288 2409 144 
Q 2131 0 1766 0 
Q 1125 0 706 504 
Q 288 1009 288 1791 
Q 288 2575 706 3076 
Q 1125 3578 1766 3578 
Q 2131 3578 2409 3434 
Q 2688 3291 2919 2981 
L 2919 3500 
L 4044 3500 
L 4044 353 
Q 4044 -491 3511 -936 
Q 2978 -1381 1966 -1381 
Q 1638 -1381 1331 -1331 
Q 1025 -1281 716 -1178 
L 716 -306 
Q 1009 -475 1290 -558 
Q 1572 -641 1856 -641 
Q 2406 -641 2662 -400 
Q 2919 -159 2919 353 
L 2919 594 
z
M 2181 2772 
Q 1834 2772 1640 2515 
Q 1447 2259 1447 1791 
Q 1447 1309 1634 1061 
Q 1822 813 2181 813 
Q 2531 813 2725 1069 
Q 2919 1325 2919 1791 
Q 2919 2259 2725 2515 
Q 2531 2772 2181 2772 
z
" transform="scale(0.015625)"/>
      <path id="DejaVuSans-Bold-75" d="M 500 1363 
L 500 3500 
L 1625 3500 
L 1625 3150 
Q 1625 2866 1622 2436 
Q 1619 2006 1619 1863 
Q 1619 1441 1641 1255 
Q 1663 1069 1716 984 
Q 1784 875 1895 815 
Q 2006 756 2150 756 
Q 2500 756 2700 1025 
Q 2900 1294 2900 1772 
L 2900 3500 
L 4019 3500 
L 4019 0 
L 2900 0 
L 2900 506 
Q 2647 200 2364 54 
Q 2081 -91 1741 -91 
Q 1134 -91 817 281 
Q 500 653 500 1363 
z
" transform="scale(0.015625)"/>
      <path id="DejaVuSans-Bold-6c" d="M 538 4863 
L 1656 4863 
L 1656 0 
L 538 0 
L 538 4863 
z
" transform="scale(0.015625)"/>
      <path id="DejaVuSans-Bold-6f" d="M 2203 2784 
Q 1831 2784 1636 2517 
Q 1441 2250 1441 1747 
Q 1441 1244 1636 976 
Q 1831 709 2203 709 
Q 2569 709 2762 976 
Q 2956 1244 2956 1747 
Q 2956 2250 2762 2517 
Q 2569 2784 2203 2784 
z
M 2203 3584 
Q 3106 3584 3614 3096 
Q 4122 2609 4122 1747 
Q 4122 884 3614 396 
Q 3106 -91 2203 -91 
Q 1297 -91 786 396 
Q 275 884 275 1747 
Q 275 2609 786 3096 
Q 1297 3584 2203 3584 
z
" transform="scale(0.015625)"/>
      <path id="DejaVuSans-Bold-73" d="M 3272 3391 
L 3272 2541 
Q 2913 2691 2578 2766 
Q 2244 2841 1947 2841 
Q 1628 2841 1473 2761 
Q 1319 2681 1319 2516 
Q 1319 2381 1436 2309 
Q 1553 2238 1856 2203 
L 2053 2175 
Q 2913 2066 3209 1816 
Q 3506 1566 3506 1031 
Q 3506 472 3093 190 
Q 2681 -91 1863 -91 
Q 1516 -91 1145 -36 
Q 775 19 384 128 
L 384 978 
Q 719 816 1070 734 
Q 1422 653 1784 653 
Q 2113 653 2278 743 
Q 2444 834 2444 1013 
Q 2444 1163 2330 1236 
Q 2216 1309 1875 1350 
L 1678 1375 
Q 931 1469 631 1722 
Q 331 1975 331 2491 
Q 331 3047 712 3315 
Q 1094 3584 1881 3584 
Q 2191 3584 2531 3537 
Q 2872 3491 3272 3391 
z
" transform="scale(0.015625)"/>
      <path id="DejaVuSans-Bold-61" d="M 2106 1575 
Q 1756 1575 1579 1456 
Q 1403 1338 1403 1106 
Q 1403 894 1545 773 
Q 1688 653 1941 653 
Q 2256 653 2472 879 
Q 2688 1106 2688 1447 
L 2688 1575 
L 2106 1575 
z
M 3816 1997 
L 3816 0 
L 2688 0 
L 2688 519 
Q 2463 200 2181 54 
Q 1900 -91 1497 -91 
Q 953 -91 614 226 
Q 275 544 275 1050 
Q 275 1666 698 1953 
Q 1122 2241 2028 2241 
L 2688 2241 
L 2688 2328 
Q 2688 2594 2478 2717 
Q 2269 2841 1825 2841 
Q 1466 2841 1156 2769 
Q 847 2697 581 2553 
L 581 3406 
Q 941 3494 1303 3539 
Q 1666 3584 2028 3584 
Q 2975 3584 3395 3211 
Q 3816 2838 3816 1997 
z
" transform="scale(0.015625)"/>
      <path id="DejaVuSans-Bold-64" d="M 2919 2988 
L 2919 4863 
L 4044 4863 
L 4044 0 
L 2919 0 
L 2919 506 
Q 2688 197 2409 53 
Q 2131 -91 1766 -91 
Q 1119 -91 703 423 
Q 288 938 288 1747 
Q 288 2556 703 3070 
Q 1119 3584 1766 3584 
Q 2128 3584 2408 3439 
Q 2688 3294 2919 2988 
z
M 2181 722 
Q 2541 722 2730 984 
Q 2919 1247 2919 1747 
Q 2919 2247 2730 2509 
Q 2541 2772 2181 2772 
Q 1825 2772 1636 2509 
Q 1447 2247 1447 1747 
Q 1447 1247 1636 984 
Q 1825 722 2181 722 
z
" transform="scale(0.015625)"/>
      <path id="DejaVuSans-Bold-29" d="M 513 -844 
Q 913 -100 1113 609 
Q 1313 1319 1313 2009 
Q 1313 2700 1113 3408 
Q 913 4116 513 4856 
L 1441 4856 
Q 1916 4091 2145 3389 
Q 2375 2688 2375 2003 
Q 2375 1319 2147 623 
Q 1919 -72 1441 -844 
L 513 -844 
z
" transform="scale(0.015625)"/>
     </defs>
     <use xlink:href="#DejaVuSans-Bold-28"/>
     <use xlink:href="#DejaVuSans-Bold-33" transform="translate(45.703125 0)"/>
     <use xlink:href="#DejaVuSans-Bold-20" transform="translate(115.283203 0)"/>
     <use xlink:href="#DejaVuSans-Bold-e1" transform="translate(150.097656 0)"/>
     <use xlink:href="#DejaVuSans-Bold-6e" transform="translate(217.578125 0)"/>
     <use xlink:href="#DejaVuSans-Bold-67" transform="translate(288.769531 0)"/>
     <use xlink:href="#DejaVuSans-Bold-75" transform="translate(360.351562 0)"/>
     <use xlink:href="#DejaVuSans-Bold-6c" transform="translate(431.542969 0)"/>
     <use xlink:href="#DejaVuSans-Bold-6f" transform="translate(465.820312 0)"/>
     <use xlink:href="#DejaVuSans-Bold-73" transform="translate(534.521484 0)"/>
     <use xlink:href="#DejaVuSans-Bold-20" transform="translate(594.042969 0)"/>
     <use xlink:href="#DejaVuSans-Bold-61" transform="translate(628.857422 0)"/>
     <use xlink:href="#DejaVuSans-Bold-67" transform="translate(696.337891 0)"/>
     <use xlink:href="#DejaVuSans-Bold-75" transform="translate(767.919922 0)"/>
     <use xlink:href="#DejaVuSans-Bold-64" transform="translate(839.111328 0)"/>
     <use xlink:href="#DejaVuSans-Bold-6f" transform="translate(910.693359 0)"/>
     <use xlink:href="#DejaVuSans-Bold-73" transform="translate(979.394531 0)"/>
     <use xlink:href="#DejaVuSans-Bold-29" transform="translate(1038.916016 0)"/>
    </g>
   </g>
  </g>
  <g id="axes_2">
   <g id="patch_3">
    <path d="M 384.62982 252.852534 
L 590.57972 252.852534 
L 384.62982 104.568606 
z
" clip-path="url(#p5b7fdcaf48)" style="fill: #dc2626; opacity: 0.15; stroke: #dc2626; stroke-width: 2.5; stroke-linejoin: miter"/>
   </g>
   <g id="line2d_4">
    <path d="M 401.105812 252.852534 
L 401.105812 236.376542 
L 384.62982 236.376542 
" clip-path="url(#p5b7fdcaf48)" style="fill: none; stroke: #dc2626; stroke-width: 1.5; stroke-linecap: square"/>
   </g>
   <g id="line2d_5">
    <path d="M 570.52347 238.412035 
L 570.217406 238.846915 
L 569.92077 239.288281 
L 569.633699 239.735927 
L 569.356326 240.189646 
L 569.08878 240.649228 
L 568.831184 241.11446 
L 568.583658 241.585127 
L 568.346317 242.061011 
L 568.119269 242.541892 
L 567.902621 243.027546 
L 567.696473 243.51775 
L 567.50092 244.012275 
L 567.316052 244.510894 
L 567.141956 245.013375 
L 566.978712 245.519485 
L 566.826395 246.028991 
L 566.685076 246.541656 
L 566.55482 247.057244 
L 566.435689 247.575514 
L 566.327736 248.096228 
L 566.231012 248.619144 
L 566.145561 249.14402 
L 566.071424 249.670613 
L 566.008634 250.198679 
L 565.957221 250.727974 
L 565.917209 251.258253 
L 565.888615 251.78927 
L 565.871453 252.320779 
L 565.865732 252.852534 
" clip-path="url(#p5b7fdcaf48)" style="fill: none; stroke: #059669; stroke-width: 2; stroke-linecap: square"/>
   </g>
   <g id="line2d_6">
    <path d="M 384.62982 129.282594 
L 385.436523 129.269425 
L 386.242366 129.22993 
L 387.046491 129.164153 
L 387.84804 129.072163 
L 388.646159 128.954058 
L 389.439998 128.809964 
L 390.22871 128.640034 
L 391.011456 128.444451 
L 391.7874 128.223421 
L 392.555716 127.977181 
L 393.315584 127.705994 
L 394.066196 127.410148 
L 394.806751 127.089958 
L 395.53646 126.745766 
L 396.254545 126.377939 
L 396.960241 125.986868 
L 397.652796 125.57297 
L 398.331471 125.136687 
L 398.995544 124.678484 
L 399.644307 124.198848 
L 400.277067 123.698292 
L 400.893152 123.177347 
L 401.491904 122.636571 
L 402.072685 122.076538 
L 402.634876 121.497846 
L 403.177878 120.901112 
L 403.701113 120.286971 
L 404.204022 119.656079 
L 404.68607 119.009106 
" clip-path="url(#p5b7fdcaf48)" style="fill: none; stroke: #059669; stroke-width: 2; stroke-linecap: square"/>
   </g>
   <g id="text_6">
    <!-- β -->
    <g style="fill: #059669" transform="translate(557.627736 236.376542) scale(0.1 -0.1)">
     <use xlink:href="#DejaVuSans-3b2"/>
    </g>
   </g>
   <g id="text_7">
    <!-- γ -->
    <g style="fill: #059669" transform="translate(396.986814 137.52059) scale(0.1 -0.1)">
     <use xlink:href="#DejaVuSans-3b3"/>
    </g>
   </g>
   <g id="text_8">
    <!-- hipotenusa -->
    <g style="fill: #dc2626" transform="translate(508.003218 170.811071) rotate(-35) scale(0.09 -0.09)">
     <defs>
      <path id="DejaVuSans-68" d="M 3513 2113 
L 3513 0 
L 2938 0 
L 2938 2094 
Q 2938 2591 2744 2837 
Q 2550 3084 2163 3084 
Q 1697 3084 1428 2787 
Q 1159 2491 1159 1978 
L 1159 0 
L 581 0 
L 581 4863 
L 1159 4863 
L 1159 2956 
Q 1366 3272 1645 3428 
Q 1925 3584 2291 3584 
Q 2894 3584 3203 3211 
Q 3513 2838 3513 2113 
z
" transform="scale(0.015625)"/>
      <path id="DejaVuSans-69" d="M 603 3500 
L 1178 3500 
L 1178 0 
L 603 0 
L 603 3500 
z
M 603 4863 
L 1178 4863 
L 1178 4134 
L 603 4134 
L 603 4863 
z
" transform="scale(0.015625)"/>
      <path id="DejaVuSans-70" d="M 1159 525 
L 1159 -1331 
L 581 -1331 
L 581 3500 
L 1159 3500 
L 1159 2969 
Q 1341 3281 1617 3432 
Q 1894 3584 2278 3584 
Q 2916 3584 3314 3078 
Q 3713 2572 3713 1747 
Q 3713 922 3314 415 
Q 2916 -91 2278 -91 
Q 1894 -91 1617 61 
Q 1341 213 1159 525 
z
M 3116 1747 
Q 3116 2381 2855 2742 
Q 2594 3103 2138 3103 
Q 1681 3103 1420 2742 
Q 1159 2381 1159 1747 
Q 1159 1113 1420 752 
Q 1681 391 2138 391 
Q 2594 391 2855 752 
Q 3116 1113 3116 1747 
z
" transform="scale(0.015625)"/>
      <path id="DejaVuSans-6f" d="M 1959 3097 
Q 1497 3097 1228 2736 
Q 959 2375 959 1747 
Q 959 1119 1226 758 
Q 1494 397 1959 397 
Q 2419 397 2687 759 
Q 2956 1122 2956 1747 
Q 2956 2369 2687 2733 
Q 2419 3097 1959 3097 
z
M 1959 3584 
Q 2709 3584 3137 3096 
Q 3566 2609 3566 1747 
Q 3566 888 3137 398 
Q 2709 -91 1959 -91 
Q 1206 -91 779 398 
Q 353 888 353 1747 
Q 353 2609 779 3096 
Q 1206 3584 1959 3584 
z
" transform="scale(0.015625)"/>
      <path id="DejaVuSans-74" d="M 1172 4494 
L 1172 3500 
L 2356 3500 
L 2356 3053 
L 1172 3053 
L 1172 1153 
Q 1172 725 1289 603 
Q 1406 481 1766 481 
L 2356 481 
L 2356 0 
L 1766 0 
Q 1100 0 847 248 
Q 594 497 594 1153 
L 594 3053 
L 172 3053 
L 172 3500 
L 594 3500 
L 594 4494 
L 1172 4494 
z
" transform="scale(0.015625)"/>
      <path id="DejaVuSans-65" d="M 3597 1894 
L 3597 1613 
L 953 1613 
Q 991 1019 1311 708 
Q 1631 397 2203 397 
Q 2534 397 2845 478 
Q 3156 559 3463 722 
L 3463 178 
Q 3153 47 2828 -22 
Q 2503 -91 2169 -91 
Q 1331 -91 842 396 
Q 353 884 353 1716 
Q 353 2575 817 3079 
Q 1281 3584 2069 3584 
Q 2775 3584 3186 3129 
Q 3597 2675 3597 1894 
z
M 3022 2063 
Q 3016 2534 2758 2815 
Q 2500 3097 2075 3097 
Q 1594 3097 1305 2825 
Q 1016 2553 972 2059 
L 3022 2063 
z
" transform="scale(0.015625)"/>
      <path id="DejaVuSans-6e" d="M 3513 2113 
L 3513 0 
L 2938 0 
L 2938 2094 
Q 2938 2591 2744 2837 
Q 2550 3084 2163 3084 
Q 1697 3084 1428 2787 
Q 1159 2491 1159 1978 
L 1159 0 
L 581 0 
L 581 3500 
L 1159 3500 
L 1159 2956 
Q 1366 3272 1645 3428 
Q 1925 3584 2291 3584 
Q 2894 3584 3203 3211 
Q 3513 2838 3513 2113 
z
" transform="scale(0.015625)"/>
      <path id="DejaVuSans-75" d="M 544 1381 
L 544 3500 
L 1119 3500 
L 1119 1403 
Q 1119 906 1312 657 
Q 1506 409 1894 409 
Q 2359 409 2629 706 
Q 2900 1003 2900 1516 
L 2900 3500 
L 3475 3500 
L 3475 0 
L 2900 0 
L 2900 538 
Q 2691 219 2414 64 
Q 2138 -91 1772 -91 
Q 1169 -91 856 284 
Q 544 659 544 1381 
z
M 1991 3584 
L 1991 3584 
z
" transform="scale(0.015625)"/>
      <path id="DejaVuSans-73" d="M 2834 3397 
L 2834 2853 
Q 2591 2978 2328 3040 
Q 2066 3103 1784 3103 
Q 1356 3103 1142 2972 
Q 928 2841 928 2578 
Q 928 2378 1081 2264 
Q 1234 2150 1697 2047 
L 1894 2003 
Q 2506 1872 2764 1633 
Q 3022 1394 3022 966 
Q 3022 478 2636 193 
Q 2250 -91 1575 -91 
Q 1294 -91 989 -36 
Q 684 19 347 128 
L 347 722 
Q 666 556 975 473 
Q 1284 391 1588 391 
Q 1994 391 2212 530 
Q 2431 669 2431 922 
Q 2431 1156 2273 1281 
Q 2116 1406 1581 1522 
L 1381 1569 
Q 847 1681 609 1914 
Q 372 2147 372 2553 
Q 372 3047 722 3315 
Q 1072 3584 1716 3584 
Q 2034 3584 2315 3537 
Q 2597 3491 2834 3397 
z
" transform="scale(0.015625)"/>
      <path id="DejaVuSans-61" d="M 2194 1759 
Q 1497 1759 1228 1600 
Q 959 1441 959 1056 
Q 959 750 1161 570 
Q 1363 391 1709 391 
Q 2188 391 2477 730 
Q 2766 1069 2766 1631 
L 2766 1759 
L 2194 1759 
z
M 3341 1997 
L 3341 0 
L 2766 0 
L 2766 531 
Q 2569 213 2275 61 
Q 1981 -91 1556 -91 
Q 1019 -91 701 211 
Q 384 513 384 1019 
Q 384 1609 779 1909 
Q 1175 2209 1959 2209 
L 2766 2209 
L 2766 2266 
Q 2766 2663 2505 2880 
Q 2244 3097 1772 3097 
Q 1472 3097 1187 3025 
Q 903 2953 641 2809 
L 641 3341 
Q 956 3463 1253 3523 
Q 1550 3584 1831 3584 
Q 2591 3584 2966 3190 
Q 3341 2797 3341 1997 
z
" transform="scale(0.015625)"/>
     </defs>
     <use xlink:href="#DejaVuSans-68"/>
     <use xlink:href="#DejaVuSans-69" transform="translate(63.378906 0)"/>
     <use xlink:href="#DejaVuSans-70" transform="translate(91.162109 0)"/>
     <use xlink:href="#DejaVuSans-6f" transform="translate(154.638672 0)"/>
     <use xlink:href="#DejaVuSans-74" transform="translate(215.820312 0)"/>
     <use xlink:href="#DejaVuSans-65" transform="translate(255.029297 0)"/>
     <use xlink:href="#DejaVuSans-6e" transform="translate(316.552734 0)"/>
     <use xlink:href="#DejaVuSans-75" transform="translate(379.931641 0)"/>
     <use xlink:href="#DejaVuSans-73" transform="translate(443.310547 0)"/>
     <use xlink:href="#DejaVuSans-61" transform="translate(495.410156 0)"/>
    </g>
   </g>
   <g id="text_9">
    <!-- Un ángulo = 90° -->
    <g style="fill: #6b7280" transform="translate(441.765708 294.042514) scale(0.11 -0.11)">
     <defs>
      <path id="DejaVuSans-55" d="M 556 4666 
L 1191 4666 
L 1191 1831 
Q 1191 1081 1462 751 
Q 1734 422 2344 422 
Q 2950 422 3222 751 
Q 3494 1081 3494 1831 
L 3494 4666 
L 4128 4666 
L 4128 1753 
Q 4128 841 3676 375 
Q 3225 -91 2344 -91 
Q 1459 -91 1007 375 
Q 556 841 556 1753 
L 556 4666 
z
" transform="scale(0.015625)"/>
      <path id="DejaVuSans-e1" d="M 2194 1759 
Q 1497 1759 1228 1600 
Q 959 1441 959 1056 
Q 959 750 1161 570 
Q 1363 391 1709 391 
Q 2188 391 2477 730 
Q 2766 1069 2766 1631 
L 2766 1759 
L 2194 1759 
z
M 3341 1997 
L 3341 0 
L 2766 0 
L 2766 531 
Q 2569 213 2275 61 
Q 1981 -91 1556 -91 
Q 1019 -91 701 211 
Q 384 513 384 1019 
Q 384 1609 779 1909 
Q 1175 2209 1959 2209 
L 2766 2209 
L 2766 2266 
Q 2766 2663 2505 2880 
Q 2244 3097 1772 3097 
Q 1472 3097 1187 3025 
Q 903 2953 641 2809 
L 641 3341 
Q 956 3463 1253 3523 
Q 1550 3584 1831 3584 
Q 2591 3584 2966 3190 
Q 3341 2797 3341 1997 
z
M 2290 5119 
L 2912 5119 
L 1894 3944 
L 1415 3944 
L 2290 5119 
z
" transform="scale(0.015625)"/>
      <path id="DejaVuSans-67" d="M 2906 1791 
Q 2906 2416 2648 2759 
Q 2391 3103 1925 3103 
Q 1463 3103 1205 2759 
Q 947 2416 947 1791 
Q 947 1169 1205 825 
Q 1463 481 1925 481 
Q 2391 481 2648 825 
Q 2906 1169 2906 1791 
z
M 3481 434 
Q 3481 -459 3084 -895 
Q 2688 -1331 1869 -1331 
Q 1566 -1331 1297 -1286 
Q 1028 -1241 775 -1147 
L 775 -588 
Q 1028 -725 1275 -790 
Q 1522 -856 1778 -856 
Q 2344 -856 2625 -561 
Q 2906 -266 2906 331 
L 2906 616 
Q 2728 306 2450 153 
Q 2172 0 1784 0 
Q 1141 0 747 490 
Q 353 981 353 1791 
Q 353 2603 747 3093 
Q 1141 3584 1784 3584 
Q 2172 3584 2450 3431 
Q 2728 3278 2906 2969 
L 2906 3500 
L 3481 3500 
L 3481 434 
z
" transform="scale(0.015625)"/>
      <path id="DejaVuSans-6c" d="M 603 4863 
L 1178 4863 
L 1178 0 
L 603 0 
L 603 4863 
z
" transform="scale(0.015625)"/>
      <path id="DejaVuSans-3d" d="M 678 2906 
L 4684 2906 
L 4684 2381 
L 678 2381 
L 678 2906 
z
M 678 1631 
L 4684 1631 
L 4684 1100 
L 678 1100 
L 678 1631 
z
" transform="scale(0.015625)"/>
     </defs>
     <use xlink:href="#DejaVuSans-55"/>
     <use xlink:href="#DejaVuSans-6e" transform="translate(73.193359 0)"/>
     <use xlink:href="#DejaVuSans-20" transform="translate(136.572266 0)"/>
     <use xlink:href="#DejaVuSans-e1" transform="translate(168.359375 0)"/>
     <use xlink:href="#DejaVuSans-6e" transform="translate(229.638672 0)"/>
     <use xlink:href="#DejaVuSans-67" transform="translate(293.017578 0)"/>
     <use xlink:href="#DejaVuSans-75" transform="translate(356.494141 0)"/>
     <use xlink:href="#DejaVuSans-6c" transform="translate(419.873047 0)"/>
     <use xlink:href="#DejaVuSans-6f" transform="translate(447.65625 0)"/>
     <use xlink:href="#DejaVuSans-20" transform="translate(508.837891 0)"/>
     <use xlink:href="#DejaVuSans-3d" transform="translate(540.625 0)"/>
     <use xlink:href="#DejaVuSans-20" transform="translate(624.414062 0)"/>
     <use xlink:href="#DejaVuSans-39" transform="translate(656.201172 0)"/>
     <use xlink:href="#DejaVuSans-30" transform="translate(719.824219 0)"/>
     <use xlink:href="#DejaVuSans-b0" transform="translate(783.447266 0)"/>
    </g>
   </g>
   <g id="text_10">
    <!-- RECTÁNGULO -->
    <g style="fill: #1f2937" transform="translate(463.281323 47.603248) scale(0.12 -0.12)">
     <defs>
      <path id="DejaVuSans-Bold-52" d="M 2297 2597 
Q 2675 2597 2839 2737 
Q 3003 2878 3003 3200 
Q 3003 3519 2839 3656 
Q 2675 3794 2297 3794 
L 1791 3794 
L 1791 2597 
L 2297 2597 
z
M 1791 1766 
L 1791 0 
L 588 0 
L 588 4666 
L 2425 4666 
Q 3347 4666 3776 4356 
Q 4206 4047 4206 3378 
Q 4206 2916 3982 2619 
Q 3759 2322 3309 2181 
Q 3556 2125 3751 1926 
Q 3947 1728 4147 1325 
L 4800 0 
L 3519 0 
L 2950 1159 
Q 2778 1509 2601 1637 
Q 2425 1766 2131 1766 
L 1791 1766 
z
" transform="scale(0.015625)"/>
      <path id="DejaVuSans-Bold-45" d="M 588 4666 
L 3834 4666 
L 3834 3756 
L 1791 3756 
L 1791 2888 
L 3713 2888 
L 3713 1978 
L 1791 1978 
L 1791 909 
L 3903 909 
L 3903 0 
L 588 0 
L 588 4666 
z
" transform="scale(0.015625)"/>
     </defs>
     <use xlink:href="#DejaVuSans-Bold-52"/>
     <use xlink:href="#DejaVuSans-Bold-45" transform="translate(77.001953 0)"/>
     <use xlink:href="#DejaVuSans-Bold-43" transform="translate(145.3125 0)"/>
     <use xlink:href="#DejaVuSans-Bold-54" transform="translate(218.701172 0)"/>
     <use xlink:href="#DejaVuSans-Bold-c1" transform="translate(279.164062 0)"/>
     <use xlink:href="#DejaVuSans-Bold-4e" transform="translate(356.556641 0)"/>
     <use xlink:href="#DejaVuSans-Bold-47" transform="translate(440.248047 0)"/>
     <use xlink:href="#DejaVuSans-Bold-55" transform="translate(522.328125 0)"/>
     <use xlink:href="#DejaVuSans-Bold-4c" transform="translate(603.529297 0)"/>
     <use xlink:href="#DejaVuSans-Bold-4f" transform="translate(663.625 0)"/>
    </g>
    <!-- (1 ángulo recto) -->
    <g style="fill: #1f2937" transform="translate(453.722573 61.616623) scale(0.12 -0.12)">
     <defs>
      <path id="DejaVuSans-Bold-31" d="M 750 831 
L 1813 831 
L 1813 3847 
L 722 3622 
L 722 4441 
L 1806 4666 
L 2950 4666 
L 2950 831 
L 4013 831 
L 4013 0 
L 750 0 
L 750 831 
z
" transform="scale(0.015625)"/>
      <path id="DejaVuSans-Bold-72" d="M 3138 2547 
Q 2991 2616 2845 2648 
Q 2700 2681 2553 2681 
Q 2122 2681 1889 2404 
Q 1656 2128 1656 1613 
L 1656 0 
L 538 0 
L 538 3500 
L 1656 3500 
L 1656 2925 
Q 1872 3269 2151 3426 
Q 2431 3584 2822 3584 
Q 2878 3584 2943 3579 
Q 3009 3575 3134 3559 
L 3138 2547 
z
" transform="scale(0.015625)"/>
      <path id="DejaVuSans-Bold-65" d="M 4031 1759 
L 4031 1441 
L 1416 1441 
Q 1456 1047 1700 850 
Q 1944 653 2381 653 
Q 2734 653 3104 758 
Q 3475 863 3866 1075 
L 3866 213 
Q 3469 63 3072 -14 
Q 2675 -91 2278 -91 
Q 1328 -91 801 392 
Q 275 875 275 1747 
Q 275 2603 792 3093 
Q 1309 3584 2216 3584 
Q 3041 3584 3536 3087 
Q 4031 2591 4031 1759 
z
M 2881 2131 
Q 2881 2450 2695 2645 
Q 2509 2841 2209 2841 
Q 1884 2841 1681 2658 
Q 1478 2475 1428 2131 
L 2881 2131 
z
" transform="scale(0.015625)"/>
      <path id="DejaVuSans-Bold-63" d="M 3366 3391 
L 3366 2478 
Q 3138 2634 2908 2709 
Q 2678 2784 2431 2784 
Q 1963 2784 1702 2511 
Q 1441 2238 1441 1747 
Q 1441 1256 1702 982 
Q 1963 709 2431 709 
Q 2694 709 2930 787 
Q 3166 866 3366 1019 
L 3366 103 
Q 3103 6 2833 -42 
Q 2563 -91 2291 -91 
Q 1344 -91 809 395 
Q 275 881 275 1747 
Q 275 2613 809 3098 
Q 1344 3584 2291 3584 
Q 2566 3584 2833 3536 
Q 3100 3488 3366 3391 
z
" transform="scale(0.015625)"/>
      <path id="DejaVuSans-Bold-74" d="M 1759 4494 
L 1759 3500 
L 2913 3500 
L 2913 2700 
L 1759 2700 
L 1759 1216 
Q 1759 972 1856 886 
Q 1953 800 2241 800 
L 2816 800 
L 2816 0 
L 1856 0 
Q 1194 0 917 276 
Q 641 553 641 1216 
L 641 2700 
L 84 2700 
L 84 3500 
L 641 3500 
L 641 4494 
L 1759 4494 
z
" transform="scale(0.015625)"/>
     </defs>
     <use xlink:href="#DejaVuSans-Bold-28"/>
     <use xlink:href="#DejaVuSans-Bold-31" transform="translate(45.703125 0)"/>
     <use xlink:href="#DejaVuSans-Bold-20" transform="translate(115.283203 0)"/>
     <use xlink:href="#DejaVuSans-Bold-e1" transform="translate(150.097656 0)"/>
     <use xlink:href="#DejaVuSans-Bold-6e" transform="translate(217.578125 0)"/>
     <use xlink:href="#DejaVuSans-Bold-67" transform="translate(288.769531 0)"/>
     <use xlink:href="#DejaVuSans-Bold-75" transform="translate(360.351562 0)"/>
     <use xlink:href="#DejaVuSans-Bold-6c" transform="translate(431.542969 0)"/>
     <use xlink:href="#DejaVuSans-Bold-6f" transform="translate(465.820312 0)"/>
     <use xlink:href="#DejaVuSans-Bold-20" transform="translate(534.521484 0)"/>
     <use xlink:href="#DejaVuSans-Bold-72" transform="translate(569.335938 0)"/>
     <use xlink:href="#DejaVuSans-Bold-65" transform="translate(618.652344 0)"/>
     <use xlink:href="#DejaVuSans-Bold-63" transform="translate(686.474609 0)"/>
     <use xlink:href="#DejaVuSans-Bold-74" transform="translate(745.751953 0)"/>
     <use xlink:href="#DejaVuSans-Bold-6f" transform="translate(793.554688 0)"/>
     <use xlink:href="#DejaVuSans-Bold-29" transform="translate(862.255859 0)"/>
    </g>
   </g>
  </g>
  <g id="axes_3">
   <g id="patch_4">
    <path d="M 720.86966 252.852534 
L 968.00954 252.852534 
L 762.05964 153.996582 
z
" clip-path="url(#p572b76db01)" style="fill: #7c3aed; opacity: 0.15; stroke: #7c3aed; stroke-width: 2.5; stroke-linejoin: miter"/>
   </g>
   <g id="line2d_7">
    <path d="M 741.46465 252.852534 
L 741.447719 252.017597 
L 741.396952 251.184033 
L 741.312434 250.353212 
L 741.194303 249.526501 
L 741.042754 248.705258 
L 740.858035 247.890834 
L 740.640451 247.084569 
L 740.390359 246.287787 
L 740.108171 245.5018 
L 739.79435 244.727898 
L 739.449413 243.967356 
L 739.073926 243.221423 
L 738.668507 242.491325 
L 738.233823 241.778264 
L 737.770588 241.083411 
L 737.279564 240.40791 
L 736.761558 239.752871 
L 736.217422 239.11937 
L 735.648051 238.50845 
L 735.054381 237.921115 
L 734.437388 237.35833 
L 733.798086 236.821022 
L 733.137528 236.310073 
L 732.456798 235.826324 
L 731.757016 235.370569 
L 731.039332 234.94356 
L 730.304928 234.545996 
L 729.555009 234.178533 
L 728.79081 233.841774 
" clip-path="url(#p572b76db01)" style="fill: none; stroke: #7c3aed; stroke-width: 2; stroke-linecap: square"/>
   </g>
   <g id="line2d_8">
    <path d="M 945.72931 242.158024 
L 945.566935 242.503106 
L 945.409904 242.850653 
L 945.258254 243.200581 
L 945.112023 243.552808 
L 944.971244 243.907249 
L 944.835952 244.263821 
L 944.706177 244.622438 
L 944.581952 244.983015 
L 944.463306 245.345465 
L 944.350268 245.709704 
L 944.242863 246.075643 
L 944.141118 246.443196 
L 944.045056 246.812275 
L 943.954702 247.182793 
L 943.870076 247.554661 
L 943.791198 247.927791 
L 943.718087 248.302093 
L 943.650761 248.677479 
L 943.589236 249.053859 
L 943.533525 249.431144 
L 943.483644 249.809243 
L 943.439603 250.188067 
L 943.401412 250.567526 
L 943.369082 250.947529 
L 943.34262 251.327985 
L 943.322031 251.708805 
L 943.307322 252.089897 
L 943.298495 252.47117 
L 943.295552 252.852534 
" clip-path="url(#p572b76db01)" style="fill: none; stroke: #059669; stroke-width: 2; stroke-linecap: square"/>
   </g>
   <g id="line2d_9">
    <path d="M 750.97003 180.611646 
L 752.377807 181.155434 
L 753.812109 181.624816 
L 755.269005 182.018509 
L 756.744505 182.335433 
L 758.234567 182.574719 
L 759.735107 182.735713 
L 761.242016 182.817973 
L 762.751165 182.821275 
L 764.258419 182.745608 
L 765.75965 182.59118 
L 767.250744 182.358415 
L 768.727616 182.047949 
L 770.186221 181.660634 
L 771.622563 181.197531 
L 773.032705 180.659908 
L 774.412786 180.049238 
L 775.759025 179.367194 
L 777.067732 178.615645 
L 778.335323 177.79665 
L 779.558326 176.912452 
L 780.733389 175.965474 
L 781.857293 174.95831 
L 782.92696 173.893719 
L 783.939459 172.774618 
L 784.892016 171.604072 
L 785.782021 170.385289 
L 786.607037 169.121608 
L 787.364802 167.81649 
L 788.053242 166.473511 
" clip-path="url(#p572b76db01)" style="fill: none; stroke: #059669; stroke-width: 2; stroke-linecap: square"/>
   </g>
   <g id="text_11">
    <!-- α -->
    <g style="fill: #7c3aed" transform="translate(749.702646 240.49554) scale(0.1 -0.1)">
     <defs>
      <path id="DejaVuSans-Bold-3b1" d="M 3006 3163 
L 3119 3500 
L 4088 3500 
L 3484 1697 
L 3569 1219 
Q 3659 703 3872 703 
L 4128 703 
L 4128 0 
L 3809 0 
Q 3313 0 3059 263 
Q 3003 322 2988 353 
Q 2838 163 2689 39 
Q 2541 -84 1763 -78 
Q 988 -72 648 400 
Q 309 872 309 1794 
Q 309 2713 663 3088 
Q 1109 3569 1966 3578 
Q 2688 3588 3006 3163 
z
M 2575 1841 
L 2481 2350 
Q 2394 2825 1981 2828 
Q 1772 2828 1598 2558 
Q 1425 2288 1425 1741 
Q 1425 1191 1581 944 
Q 1738 697 1969 691 
Q 2213 684 2363 1163 
L 2575 1841 
z
" transform="scale(0.015625)"/>
     </defs>
     <use xlink:href="#DejaVuSans-Bold-3b1"/>
    </g>
   </g>
   <g id="text_12">
    <!-- β -->
    <g style="fill: #059669" transform="translate(935.057556 236.376542) scale(0.1 -0.1)">
     <use xlink:href="#DejaVuSans-3b2"/>
    </g>
   </g>
   <g id="text_13">
    <!-- γ -->
    <g style="fill: #059669" transform="translate(770.297636 182.829568) scale(0.1 -0.1)">
     <use xlink:href="#DejaVuSans-3b3"/>
    </g>
   </g>
   <g id="text_14">
    <!-- α &gt; 90° -->
    <g style="fill: #6b7280" transform="translate(822.960381 294.042514) scale(0.11 -0.11)">
     <defs>
      <path id="DejaVuSans-3e" d="M 678 3150 
L 678 3719 
L 4684 2266 
L 4684 1747 
L 678 294 
L 678 863 
L 3897 2003 
L 678 3150 
z
" transform="scale(0.015625)"/>
     </defs>
     <use xlink:href="#DejaVuSans-3b1"/>
     <use xlink:href="#DejaVuSans-20" transform="translate(65.917969 0)"/>
     <use xlink:href="#DejaVuSans-3e" transform="translate(97.705078 0)"/>
     <use xlink:href="#DejaVuSans-20" transform="translate(181.494141 0)"/>
     <use xlink:href="#DejaVuSans-39" transform="translate(213.28125 0)"/>
     <use xlink:href="#DejaVuSans-30" transform="translate(276.904297 0)"/>
     <use xlink:href="#DejaVuSans-b0" transform="translate(340.527344 0)"/>
    </g>
   </g>
   <g id="text_15">
    <!-- OBTUSÁNGULO -->
    <g style="fill: #1f2937" transform="translate(793.311162 47.603247) scale(0.12 -0.12)">
     <defs>
      <path id="DejaVuSans-Bold-42" d="M 2456 2859 
Q 2741 2859 2887 2984 
Q 3034 3109 3034 3353 
Q 3034 3594 2887 3720 
Q 2741 3847 2456 3847 
L 1791 3847 
L 1791 2859 
L 2456 2859 
z
M 2497 819 
Q 2859 819 3042 972 
Q 3225 1125 3225 1434 
Q 3225 1738 3044 1889 
Q 2863 2041 2497 2041 
L 1791 2041 
L 1791 819 
L 2497 819 
z
M 3616 2497 
Q 4003 2384 4215 2081 
Q 4428 1778 4428 1338 
Q 4428 663 3972 331 
Q 3516 0 2584 0 
L 588 0 
L 588 4666 
L 2394 4666 
Q 3366 4666 3802 4372 
Q 4238 4078 4238 3431 
Q 4238 3091 4078 2852 
Q 3919 2613 3616 2497 
z
" transform="scale(0.015625)"/>
      <path id="DejaVuSans-Bold-53" d="M 3834 4519 
L 3834 3531 
Q 3450 3703 3084 3790 
Q 2719 3878 2394 3878 
Q 1963 3878 1756 3759 
Q 1550 3641 1550 3391 
Q 1550 3203 1689 3098 
Q 1828 2994 2194 2919 
L 2706 2816 
Q 3484 2659 3812 2340 
Q 4141 2022 4141 1434 
Q 4141 663 3683 286 
Q 3225 -91 2284 -91 
Q 1841 -91 1394 -6 
Q 947 78 500 244 
L 500 1259 
Q 947 1022 1364 901 
Q 1781 781 2169 781 
Q 2563 781 2772 912 
Q 2981 1044 2981 1288 
Q 2981 1506 2839 1625 
Q 2697 1744 2272 1838 
L 1806 1941 
Q 1106 2091 782 2419 
Q 459 2747 459 3303 
Q 459 4000 909 4375 
Q 1359 4750 2203 4750 
Q 2588 4750 2994 4692 
Q 3400 4634 3834 4519 
z
" transform="scale(0.015625)"/>
     </defs>
     <use xlink:href="#DejaVuSans-Bold-4f"/>
     <use xlink:href="#DejaVuSans-Bold-42" transform="translate(85.009766 0)"/>
     <use xlink:href="#DejaVuSans-Bold-54" transform="translate(161.230469 0)"/>
     <use xlink:href="#DejaVuSans-Bold-55" transform="translate(229.443359 0)"/>
     <use xlink:href="#DejaVuSans-Bold-53" transform="translate(310.644531 0)"/>
     <use xlink:href="#DejaVuSans-Bold-c1" transform="translate(382.666016 0)"/>
     <use xlink:href="#DejaVuSans-Bold-4e" transform="translate(460.058594 0)"/>
     <use xlink:href="#DejaVuSans-Bold-47" transform="translate(543.75 0)"/>
     <use xlink:href="#DejaVuSans-Bold-55" transform="translate(625.830078 0)"/>
     <use xlink:href="#DejaVuSans-Bold-4c" transform="translate(707.03125 0)"/>
     <use xlink:href="#DejaVuSans-Bold-4f" transform="translate(767.126953 0)"/>
    </g>
    <!-- (1 ángulo obtuso) -->
    <g style="fill: #1f2937" transform="translate(784.288662 61.616622) scale(0.12 -0.12)">
     <defs>
      <path id="DejaVuSans-Bold-62" d="M 2400 722 
Q 2759 722 2948 984 
Q 3138 1247 3138 1747 
Q 3138 2247 2948 2509 
Q 2759 2772 2400 2772 
Q 2041 2772 1848 2508 
Q 1656 2244 1656 1747 
Q 1656 1250 1848 986 
Q 2041 722 2400 722 
z
M 1656 2988 
Q 1888 3294 2169 3439 
Q 2450 3584 2816 3584 
Q 3463 3584 3878 3070 
Q 4294 2556 4294 1747 
Q 4294 938 3878 423 
Q 3463 -91 2816 -91 
Q 2450 -91 2169 54 
Q 1888 200 1656 506 
L 1656 0 
L 538 0 
L 538 4863 
L 1656 4863 
L 1656 2988 
z
" transform="scale(0.015625)"/>
     </defs>
     <use xlink:href="#DejaVuSans-Bold-28"/>
     <use xlink:href="#DejaVuSans-Bold-31" transform="translate(45.703125 0)"/>
     <use xlink:href="#DejaVuSans-Bold-20" transform="translate(115.283203 0)"/>
     <use xlink:href="#DejaVuSans-Bold-e1" transform="translate(150.097656 0)"/>
     <use xlink:href="#DejaVuSans-Bold-6e" transform="translate(217.578125 0)"/>
     <use xlink:href="#DejaVuSans-Bold-67" transform="translate(288.769531 0)"/>
     <use xlink:href="#DejaVuSans-Bold-75" transform="translate(360.351562 0)"/>
     <use xlink:href="#DejaVuSans-Bold-6c" transform="translate(431.542969 0)"/>
     <use xlink:href="#DejaVuSans-Bold-6f" transform="translate(465.820312 0)"/>
     <use xlink:href="#DejaVuSans-Bold-20" transform="translate(534.521484 0)"/>
     <use xlink:href="#DejaVuSans-Bold-6f" transform="translate(569.335938 0)"/>
     <use xlink:href="#DejaVuSans-Bold-62" transform="translate(638.037109 0)"/>
     <use xlink:href="#DejaVuSans-Bold-74" transform="translate(709.619141 0)"/>
     <use xlink:href="#DejaVuSans-Bold-75" transform="translate(757.421875 0)"/>
     <use xlink:href="#DejaVuSans-Bold-73" transform="translate(828.613281 0)"/>
     <use xlink:href="#DejaVuSans-Bold-6f" transform="translate(888.134766 0)"/>
     <use xlink:href="#DejaVuSans-Bold-29" transform="translate(956.835938 0)"/>
    </g>
   </g>
  </g>
  <g id="text_16">
   <!-- Clasificación de Triángulos por Ángulos -->
   <g style="fill: #1f2937" transform="translate(353.233979 20.152187) scale(0.14 -0.14)">
    <defs>
     <path id="DejaVuSans-Bold-69" d="M 538 3500 
L 1656 3500 
L 1656 0 
L 538 0 
L 538 3500 
z
M 538 4863 
L 1656 4863 
L 1656 3950 
L 538 3950 
L 538 4863 
z
" transform="scale(0.015625)"/>
     <path id="DejaVuSans-Bold-66" d="M 2841 4863 
L 2841 4128 
L 2222 4128 
Q 1984 4128 1890 4042 
Q 1797 3956 1797 3744 
L 1797 3500 
L 2753 3500 
L 2753 2700 
L 1797 2700 
L 1797 0 
L 678 0 
L 678 2700 
L 122 2700 
L 122 3500 
L 678 3500 
L 678 3744 
Q 678 4316 997 4589 
Q 1316 4863 1984 4863 
L 2841 4863 
z
" transform="scale(0.015625)"/>
     <path id="DejaVuSans-Bold-f3" d="M 2203 2784 
Q 1831 2784 1636 2517 
Q 1441 2250 1441 1747 
Q 1441 1244 1636 976 
Q 1831 709 2203 709 
Q 2569 709 2762 976 
Q 2956 1244 2956 1747 
Q 2956 2250 2762 2517 
Q 2569 2784 2203 2784 
z
M 2203 3584 
Q 3106 3584 3614 3096 
Q 4122 2609 4122 1747 
Q 4122 884 3614 396 
Q 3106 -91 2203 -91 
Q 1297 -91 786 396 
Q 275 884 275 1747 
Q 275 2609 786 3096 
Q 1297 3584 2203 3584 
z
M 2694 5119 
L 3578 5119 
L 2425 3944 
L 1813 3944 
L 2694 5119 
z
" transform="scale(0.015625)"/>
     <path id="DejaVuSans-Bold-70" d="M 1656 506 
L 1656 -1331 
L 538 -1331 
L 538 3500 
L 1656 3500 
L 1656 2988 
Q 1888 3294 2169 3439 
Q 2450 3584 2816 3584 
Q 3463 3584 3878 3070 
Q 4294 2556 4294 1747 
Q 4294 938 3878 423 
Q 3463 -91 2816 -91 
Q 2450 -91 2169 54 
Q 1888 200 1656 506 
z
M 2400 2772 
Q 2041 2772 1848 2508 
Q 1656 2244 1656 1747 
Q 1656 1250 1848 986 
Q 2041 722 2400 722 
Q 2759 722 2948 984 
Q 3138 1247 3138 1747 
Q 3138 2247 2948 2509 
Q 2759 2772 2400 2772 
z
" transform="scale(0.015625)"/>
    </defs>
    <use xlink:href="#DejaVuSans-Bold-43"/>
    <use xlink:href="#DejaVuSans-Bold-6c" transform="translate(73.388672 0)"/>
    <use xlink:href="#DejaVuSans-Bold-61" transform="translate(107.666016 0)"/>
    <use xlink:href="#DejaVuSans-Bold-73" transform="translate(175.146484 0)"/>
    <use xlink:href="#DejaVuSans-Bold-69" transform="translate(234.667969 0)"/>
    <use xlink:href="#DejaVuSans-Bold-66" transform="translate(268.945312 0)"/>
    <use xlink:href="#DejaVuSans-Bold-69" transform="translate(312.451172 0)"/>
    <use xlink:href="#DejaVuSans-Bold-63" transform="translate(346.728516 0)"/>
    <use xlink:href="#DejaVuSans-Bold-61" transform="translate(406.005859 0)"/>
    <use xlink:href="#DejaVuSans-Bold-63" transform="translate(473.486328 0)"/>
    <use xlink:href="#DejaVuSans-Bold-69" transform="translate(532.763672 0)"/>
    <use xlink:href="#DejaVuSans-Bold-f3" transform="translate(567.041016 0)"/>
    <use xlink:href="#DejaVuSans-Bold-6e" transform="translate(635.742188 0)"/>
    <use xlink:href="#DejaVuSans-Bold-20" transform="translate(706.933594 0)"/>
    <use xlink:href="#DejaVuSans-Bold-64" transform="translate(741.748047 0)"/>
    <use xlink:href="#DejaVuSans-Bold-65" transform="translate(813.330078 0)"/>
    <use xlink:href="#DejaVuSans-Bold-20" transform="translate(881.152344 0)"/>
    <use xlink:href="#DejaVuSans-Bold-54" transform="translate(915.966797 0)"/>
    <use xlink:href="#DejaVuSans-Bold-72" transform="translate(973.179688 0)"/>
    <use xlink:href="#DejaVuSans-Bold-69" transform="translate(1022.496094 0)"/>
    <use xlink:href="#DejaVuSans-Bold-e1" transform="translate(1056.773438 0)"/>
    <use xlink:href="#DejaVuSans-Bold-6e" transform="translate(1124.253906 0)"/>
    <use xlink:href="#DejaVuSans-Bold-67" transform="translate(1195.445312 0)"/>
    <use xlink:href="#DejaVuSans-Bold-75" transform="translate(1267.027344 0)"/>
    <use xlink:href="#DejaVuSans-Bold-6c" transform="translate(1338.21875 0)"/>
    <use xlink:href="#DejaVuSans-Bold-6f" transform="translate(1372.496094 0)"/>
    <use xlink:href="#DejaVuSans-Bold-73" transform="translate(1441.197266 0)"/>
    <use xlink:href="#DejaVuSans-Bold-20" transform="translate(1500.71875 0)"/>
    <use xlink:href="#DejaVuSans-Bold-70" transform="translate(1535.533203 0)"/>
    <use xlink:href="#DejaVuSans-Bold-6f" transform="translate(1607.115234 0)"/>
    <use xlink:href="#DejaVuSans-Bold-72" transform="translate(1675.816406 0)"/>
    <use xlink:href="#DejaVuSans-Bold-20" transform="translate(1725.132812 0)"/>
    <use xlink:href="#DejaVuSans-Bold-c1" transform="translate(1759.947266 0)"/>
    <use xlink:href="#DejaVuSans-Bold-6e" transform="translate(1837.339844 0)"/>
    <use xlink:href="#DejaVuSans-Bold-67" transform="translate(1908.53125 0)"/>
    <use xlink:href="#DejaVuSans-Bold-75" transform="translate(1980.113281 0)"/>
    <use xlink:href="#DejaVuSans-Bold-6c" transform="translate(2051.304688 0)"/>
    <use xlink:href="#DejaVuSans-Bold-6f" transform="translate(2085.582031 0)"/>
    <use xlink:href="#DejaVuSans-Bold-73" transform="translate(2154.283203 0)"/>
   </g>
  </g>
 </g>
 <defs>
  <clipPath id="p80d380187e">
   <rect x="7.2" y="71.616622" width="329.51984" height="247.13988"/>
  </clipPath>
  <clipPath id="p5b7fdcaf48">
   <rect x="343.43984" y="71.616622" width="329.51984" height="247.13988"/>
  </clipPath>
  <clipPath id="p572b76db01">
   <rect x="679.67968" y="71.616622" width="329.51984" height="247.13988"/>
  </clipPath>
 </defs>
</svg>
