<?xml version="1.0" encoding="utf-8" standalone="no"?>
<!DOCTYPE svg PUBLIC "-//W3C//DTD SVG 1.1//EN"
  "http://www.w3.org/Graphics/SVG/1.1/DTD/svg11.dtd">
<svg xmlns:xlink="http://www.w3.org/1999/xlink" width="721.244287pt" height="494.206454pt" viewBox="0 0 721.244287 494.206454" xmlns="http://www.w3.org/2000/svg" version="1.1">
 <metadata>
  <rdf:RDF xmlns:dc="http://purl.org/dc/elements/1.1/" xmlns:cc="http://creativecommons.org/ns#" xmlns:rdf="http://www.w3.org/1999/02/22-rdf-syntax-ns#">
   <cc:Work>
    <dc:type rdf:resource="http://purl.org/dc/dcmitype/StillImage"/>
    <dc:date>2026-01-03T17:13:39.681780</dc:date>
    <dc:format>image/svg+xml</dc:format>
    <dc:creator>
     <cc:Agent>
      <dc:title>Repositorio Matemáticas Universitarias</dc:title>
     </cc:Agent>
    </dc:creator>
   </cc:Work>
  </rdf:RDF>
 </metadata>
 <defs>
  <style type="text/css">*{stroke-linejoin: round; stroke-linecap: butt}</style>
 </defs>
 <g id="figure_1">
  <g id="patch_1">
   <path d="M 0 494.206454 
L 721.244287 494.206454 
L 721.244287 0 
L 0 0 
z
" style="fill: #ffffff"/>
  </g>
  <g id="axes_1">
   <g id="patch_2">
    <path d="M 75.32957 418.876884 
L 501.139381 418.876884 
L 203.072513 163.390997 
z
" clip-path="url(#p808f025900)" style="fill: #2563eb; opacity: 0.15; stroke: #2563eb; stroke-width: 2.5; stroke-linejoin: miter"/>
   </g>
   <g id="patch_3">
    <path d="M 203.072513 163.390997 
L 176.412602 216.710819 
L 182.681703 219.408576 
L 189.218068 221.372103 
L 195.936026 222.575665 
L 202.747522 223.003485 
L 209.563278 222.649957 
L 216.293959 221.519714 
L 222.851344 219.62757 
L 229.149486 216.998327 
L 235.105834 213.666445 
L 240.642317 209.675597 
L 245.686367 205.078091 
L 250.171873 199.934186 
L 254.040041 194.311305 
L 257.240171 188.283148 
L 259.730319 181.928726 
L 261.477845 175.331328 
L 262.459846 168.577426 
L 262.663449 161.755546 
L 262.085986 154.955101 
L 260.735026 148.265226 
L 258.628276 141.773608 
L 255.793349 135.56533 
L 252.267404 129.721768 
L 248.096655 124.319512 
L 243.335769 119.429372 
L 238.047147 115.115442 
L 232.300109 111.434265 
L 226.16998 108.434093 
L 219.73711 106.154247 
L 213.085815 104.624611 
L 206.303274 103.865234 
L 199.478388 103.886068 
L 192.70061 104.686841 
L 186.058777 106.257057 
L 179.639947 108.576135 
L 173.528249 111.613678 
L 167.803792 115.329873 
L 162.541607 119.676012 
L 157.810666 124.595128 
z
" clip-path="url(#p808f025900)" style="fill: #7c3aed; opacity: 0.25; stroke: #7c3aed; stroke-linejoin: miter"/>
   </g>
   <g id="line2d_1">
    <path d="M 501.139381 418.876884 
L 41.423058 24.834321 
" clip-path="url(#p808f025900)" style="fill: none; stroke-dasharray: 7.4,3.2; stroke-dashoffset: 0; stroke: #374151; stroke-width: 2"/>
   </g>
   <g id="line2d_2">
    <defs>
     <path id="m2b406500f8" d="M 0 3.5 
C 0.928211 3.5 1.81853 3.131218 2.474874 2.474874 
C 3.131218 1.81853 3.5 0.928211 3.5 0 
C 3.5 -0.928211 3.131218 -1.81853 2.474874 -2.474874 
C 1.81853 -3.131218 0.928211 -3.5 0 -3.5 
C -0.928211 -3.5 -1.81853 -3.131218 -2.474874 -2.474874 
C -3.131218 -1.81853 -3.5 -0.928211 -3.5 0 
C -3.5 0.928211 -3.131218 1.81853 -2.474874 2.474874 
C -1.81853 3.131218 -0.928211 3.5 0 3.5 
z
" style="stroke: #374151"/>
    </defs>
    <g clip-path="url(#p808f025900)">
     <use xlink:href="#m2b406500f8" x="75.32957" y="418.876884" style="fill: #374151; stroke: #374151"/>
    </g>
   </g>
   <g id="line2d_3">
    <g clip-path="url(#p808f025900)">
     <use xlink:href="#m2b406500f8" x="501.139381" y="418.876884" style="fill: #374151; stroke: #374151"/>
    </g>
   </g>
   <g id="line2d_4">
    <g clip-path="url(#p808f025900)">
     <use xlink:href="#m2b406500f8" x="203.072513" y="163.390997" style="fill: #374151; stroke: #374151"/>
    </g>
   </g>
   <g id="line2d_5">
    <g clip-path="url(#p808f025900)">
     <use xlink:href="#m2b406500f8" x="41.423058" y="24.834321" style="fill: #374151; stroke: #374151"/>
    </g>
   </g>
   <g id="line2d_6">
    <path d="M 117.910551 418.876884 
L 117.879523 417.251642 
L 117.786486 415.628768 
L 117.631573 414.010628 
L 117.415012 412.399579 
L 117.137118 410.797971 
L 116.798296 409.208136 
L 116.39904 407.632392 
L 115.939931 406.073035 
L 115.421638 404.532338 
L 114.844918 403.012545 
L 114.210609 401.515873 
L 113.519638 400.044501 
L 112.773011 398.600575 
L 111.971815 397.186199 
L 111.117219 395.803433 
L 110.210468 394.454293 
L 109.252883 393.140746 
L 108.24586 391.864705 
L 107.190867 390.62803 
L 106.08944 389.432524 
L 104.943186 388.279929 
L 103.753775 387.171923 
L 102.522939 386.110123 
L 101.252474 385.096076 
L 99.944229 384.131258 
L 98.600113 383.217078 
L 97.222083 382.354866 
L 95.812148 381.545879 
L 94.372363 380.791297 
" clip-path="url(#p808f025900)" style="fill: none; stroke: #dc2626; stroke-width: 2.5; stroke-linecap: square"/>
   </g>
   <g id="line2d_7">
    <path d="M 458.5584 418.876884 
L 458.571112 417.836505 
L 458.609239 416.796747 
L 458.672759 415.75823 
L 458.761635 414.721576 
L 458.875812 413.687403 
L 459.015224 412.656328 
L 459.179786 411.628968 
L 459.3694 410.605934 
L 459.583953 409.587839 
L 459.823317 408.57529 
L 460.08735 407.568892 
L 460.375893 406.569245 
L 460.688774 405.576947 
L 461.025806 404.592589 
L 461.386789 403.61676 
L 461.771506 402.650043 
L 462.179728 401.693013 
L 462.611212 400.746244 
L 463.065699 399.810299 
L 463.542918 398.885738 
L 464.042584 397.973114 
L 464.5644 397.072969 
L 465.108053 396.185844 
L 465.673218 395.312266 
L 466.259559 394.452757 
L 466.866725 393.607831 
L 467.494355 392.777992 
L 468.142072 391.963736 
L 468.80949 391.165549 
" clip-path="url(#p808f025900)" style="fill: none; stroke: #059669; stroke-width: 2.5; stroke-linecap: square"/>
   </g>
   <g id="line2d_8">
    <path d="M 189.742558 190.050908 
L 190.974895 190.632257 
L 192.232514 191.156677 
L 193.512785 191.623074 
L 194.813034 192.030473 
L 196.130544 192.378023 
L 197.46256 192.664996 
L 198.8063 192.890794 
L 200.158955 193.054944 
L 201.517699 193.157104 
L 202.879692 193.19706 
L 204.242088 193.174729 
L 205.60204 193.090157 
L 206.956706 192.94352 
L 208.303254 192.735127 
L 209.638872 192.465411 
L 210.960768 192.134936 
L 212.266179 191.744394 
L 213.552377 191.2946 
L 214.816675 190.786494 
L 216.056431 190.221138 
L 217.269054 189.599714 
L 218.452009 188.923519 
L 219.602825 188.193968 
L 220.719096 187.412585 
L 221.79849 186.581003 
L 222.838752 185.700959 
L 223.837707 184.774292 
L 224.793267 183.80294 
L 225.703437 182.788932 
" clip-path="url(#p808f025900)" style="fill: none; stroke: #6b7280; stroke-width: 2; stroke-linecap: square"/>
   </g>
   <g id="line2d_9">
    <path d="M 176.412602 216.710819 
L 182.681703 219.408576 
L 189.218068 221.372103 
L 195.936026 222.575665 
L 202.747522 223.003485 
L 209.563278 222.649957 
L 216.293959 221.519714 
L 222.851344 219.62757 
L 229.149486 216.998327 
L 235.105834 213.666445 
L 240.642317 209.675597 
L 245.686367 205.078091 
L 250.171873 199.934186 
L 254.040041 194.311305 
L 257.240171 188.283148 
L 259.730319 181.928726 
L 261.477845 175.331328 
L 262.459846 168.577426 
L 262.663449 161.755546 
L 262.085986 154.955101 
L 260.735026 148.265226 
L 258.628276 141.773608 
L 255.793349 135.56533 
L 252.267404 129.721768 
L 248.096655 124.319512 
L 243.335769 119.429372 
L 238.047147 115.115442 
L 232.300109 111.434265 
L 226.16998 108.434093 
L 219.73711 106.154247 
L 213.085815 104.624611 
L 206.303274 103.865234 
L 199.478388 103.886068 
L 192.70061 104.686841 
L 186.058777 106.257057 
L 179.639947 108.576135 
L 173.528249 111.613678 
L 167.803792 115.329873 
L 162.541607 119.676012 
L 157.810666 124.595128 
" clip-path="url(#p808f025900)" style="fill: none; stroke: #7c3aed; stroke-width: 3; stroke-linecap: square"/>
   </g>
   <g id="text_1">
    <!-- A -->
    <g style="fill: #1f2937" transform="translate(49.780981 440.167375) scale(0.12 -0.12)">
     <defs>
      <path id="DejaVuSans-Bold-41" d="M 3419 850 
L 1538 850 
L 1241 0 
L 31 0 
L 1759 4666 
L 3194 4666 
L 4922 0 
L 3713 0 
L 3419 850 
z
M 1838 1716 
L 3116 1716 
L 2478 3572 
L 1838 1716 
z
" transform="scale(0.015625)"/>
     </defs>
     <use xlink:href="#DejaVuSans-Bold-41"/>
    </g>
   </g>
   <g id="text_2">
    <!-- B -->
    <g style="fill: #1f2937" transform="translate(518.171774 440.167375) scale(0.12 -0.12)">
     <defs>
      <path id="DejaVuSans-Bold-42" d="M 2456 2859 
Q 2741 2859 2887 2984 
Q 3034 3109 3034 3353 
Q 3034 3594 2887 3720 
Q 2741 3847 2456 3847 
L 1791 3847 
L 1791 2859 
L 2456 2859 
z
M 2497 819 
Q 2859 819 3042 972 
Q 3225 1125 3225 1434 
Q 3225 1738 3044 1889 
Q 2863 2041 2497 2041 
L 1791 2041 
L 1791 819 
L 2497 819 
z
M 3616 2497 
Q 4003 2384 4215 2081 
Q 4428 1778 4428 1338 
Q 4428 663 3972 331 
Q 3516 0 2584 0 
L 588 0 
L 588 4666 
L 2394 4666 
Q 3366 4666 3802 4372 
Q 4238 4078 4238 3431 
Q 4238 3091 4078 2852 
Q 3919 2613 3616 2497 
z
" transform="scale(0.015625)"/>
     </defs>
     <use xlink:href="#DejaVuSans-Bold-42"/>
    </g>
   </g>
   <g id="text_3">
    <!-- C -->
    <g style="fill: #1f2937" transform="translate(181.782023 146.358605) scale(0.12 -0.12)">
     <defs>
      <path id="DejaVuSans-Bold-43" d="M 4288 256 
Q 3956 84 3597 -3 
Q 3238 -91 2847 -91 
Q 1681 -91 1000 561 
Q 319 1213 319 2328 
Q 319 3447 1000 4098 
Q 1681 4750 2847 4750 
Q 3238 4750 3597 4662 
Q 3956 4575 4288 4403 
L 4288 3438 
Q 3953 3666 3628 3772 
Q 3303 3878 2944 3878 
Q 2300 3878 1931 3465 
Q 1563 3053 1563 2328 
Q 1563 1606 1931 1193 
Q 2300 781 2944 781 
Q 3303 781 3628 887 
Q 3953 994 4288 1222 
L 4288 256 
z
" transform="scale(0.015625)"/>
     </defs>
     <use xlink:href="#DejaVuSans-Bold-43"/>
    </g>
   </g>
   <g id="text_4">
    <!-- D -->
    <g style="fill: #1f2937" transform="translate(54.197352 16.318125) scale(0.12 -0.12)">
     <defs>
      <path id="DejaVuSans-Bold-44" d="M 1791 3756 
L 1791 909 
L 2222 909 
Q 2959 909 3348 1275 
Q 3738 1641 3738 2338 
Q 3738 3031 3350 3393 
Q 2963 3756 2222 3756 
L 1791 3756 
z
M 588 4666 
L 1856 4666 
Q 2919 4666 3439 4514 
Q 3959 4363 4331 4000 
Q 4659 3684 4818 3271 
Q 4978 2859 4978 2338 
Q 4978 1809 4818 1395 
Q 4659 981 4331 666 
Q 3956 303 3431 151 
Q 2906 0 1856 0 
L 588 0 
L 588 4666 
z
" transform="scale(0.015625)"/>
     </defs>
     <use xlink:href="#DejaVuSans-Bold-44"/>
    </g>
   </g>
   <g id="text_5">
    <!-- α -->
    <g style="fill: #dc2626" transform="translate(130.684845 389.070197) scale(0.14 -0.14)">
     <defs>
      <path id="DejaVuSans-Bold-3b1" d="M 3006 3163 
L 3119 3500 
L 4088 3500 
L 3484 1697 
L 3569 1219 
Q 3659 703 3872 703 
L 4128 703 
L 4128 0 
L 3809 0 
Q 3313 0 3059 263 
Q 3003 322 2988 353 
Q 2838 163 2689 39 
Q 2541 -84 1763 -78 
Q 988 -72 648 400 
Q 309 872 309 1794 
Q 309 2713 663 3088 
Q 1109 3569 1966 3578 
Q 2688 3588 3006 3163 
z
M 2575 1841 
L 2481 2350 
Q 2394 2825 1981 2828 
Q 1772 2828 1598 2558 
Q 1425 2288 1425 1741 
Q 1425 1191 1581 944 
Q 1738 697 1969 691 
Q 2213 684 2363 1163 
L 2575 1841 
z
" transform="scale(0.015625)"/>
     </defs>
     <use xlink:href="#DejaVuSans-Bold-3b1"/>
    </g>
   </g>
   <g id="text_6">
    <!-- β -->
    <g style="fill: #059669" transform="translate(454.300302 376.295903) scale(0.14 -0.14)">
     <defs>
      <path id="DejaVuSans-Bold-3b2" d="M 2575 3038 
Q 2772 3309 2772 3503 
Q 2772 3769 2648 3948 
Q 2525 4128 2241 4128 
Q 1900 4128 1778 3864 
Q 1656 3600 1656 3103 
L 1656 1747 
Q 1656 1250 1848 986 
Q 2041 722 2400 722 
Q 2800 722 2953 934 
Q 3106 1147 3106 1275 
Q 3106 1722 2738 1988 
Q 2538 2122 1988 2134 
L 1988 2847 
Q 2497 2925 2575 3038 
z
M 538 -1331 
L 538 3044 
Q 538 3922 969 4369 
Q 1325 4741 1672 4845 
Q 2019 4950 2259 4950 
Q 2500 4947 2538 4941 
Q 3178 4841 3538 4438 
Q 3788 4163 3788 3600 
Q 3788 3313 3616 3053 
Q 3406 2734 3094 2709 
Q 3556 2584 3844 2322 
Q 4294 1919 4294 1288 
Q 4294 731 3903 320 
Q 3513 -91 2809 -91 
Q 2106 -91 1656 506 
L 1656 -1331 
L 538 -1331 
z
" transform="scale(0.015625)"/>
     </defs>
     <use xlink:href="#DejaVuSans-Bold-3b2"/>
    </g>
   </g>
   <g id="text_7">
    <!-- γ -->
    <g style="fill: #6b7280" transform="translate(215.846808 210.230076) scale(0.12 -0.12)">
     <defs>
      <path id="DejaVuSans-3b3" d="M 1128 2950 
L 1894 788 
L 2988 3500 
L 3597 3500 
L 2181 0 
L 2181 -1331 
L 1606 -1331 
L 1606 0 
L 688 2613 
Q 550 3006 253 3006 
L 100 3006 
L 100 3500 
L 319 3500 
Q 934 3500 1128 2950 
z
" transform="scale(0.015625)"/>
     </defs>
     <use xlink:href="#DejaVuSans-3b3"/>
    </g>
   </g>
   <g id="text_8">
    <!-- θ -->
    <g style="fill: #7c3aed" transform="translate(177.523925 86.745231) scale(0.16 -0.16)">
     <defs>
      <path id="DejaVuSans-Bold-3b8" d="M 1447 2081 
Q 1469 1444 1638 1181 
Q 1922 728 2197 725 
Q 2475 722 2763 1181 
Q 2931 1453 2953 2081 
L 1447 2081 
z
M 2950 2881 
Q 2913 3394 2759 3688 
Q 2522 4144 2200 4144 
Q 1875 4144 1641 3688 
Q 1484 3384 1450 2881 
L 2950 2881 
z
M 2200 4913 
Q 3247 4913 3686 4231 
Q 4125 3550 4125 2403 
Q 4125 1256 3673 592 
Q 3222 -72 2200 -72 
Q 1178 -72 726 592 
Q 275 1256 275 2403 
Q 275 3550 714 4231 
Q 1153 4913 2200 4913 
z
" transform="scale(0.015625)"/>
     </defs>
     <use xlink:href="#DejaVuSans-Bold-3b8"/>
    </g>
   </g>
   <g id="text_9">
    <!-- (exterior) -->
    <g style="fill: #7c3aed" transform="translate(134.942943 52.680446) scale(0.1 -0.1)">
     <defs>
      <path id="DejaVuSans-Oblique-28" d="M 2731 4856 
Q 1903 3822 1495 2892 
Q 1088 1963 1088 1100 
Q 1088 606 1206 120 
Q 1325 -366 1563 -844 
L 1063 -844 
Q 775 -306 634 201 
Q 494 709 494 1197 
Q 494 2125 923 3036 
Q 1353 3947 2222 4856 
L 2731 4856 
z
" transform="scale(0.015625)"/>
      <path id="DejaVuSans-Oblique-65" d="M 3078 2063 
Q 3088 2113 3092 2166 
Q 3097 2219 3097 2272 
Q 3097 2653 2873 2875 
Q 2650 3097 2266 3097 
Q 1838 3097 1509 2826 
Q 1181 2556 1013 2059 
L 3078 2063 
z
M 3578 1613 
L 903 1613 
Q 884 1494 878 1425 
Q 872 1356 872 1306 
Q 872 872 1139 634 
Q 1406 397 1894 397 
Q 2269 397 2603 481 
Q 2938 566 3225 728 
L 3116 159 
Q 2806 34 2476 -28 
Q 2147 -91 1806 -91 
Q 1078 -91 686 257 
Q 294 606 294 1247 
Q 294 1794 489 2264 
Q 684 2734 1063 3103 
Q 1306 3334 1642 3459 
Q 1978 3584 2356 3584 
Q 2950 3584 3301 3228 
Q 3653 2872 3653 2272 
Q 3653 2128 3634 1964 
Q 3616 1800 3578 1613 
z
" transform="scale(0.015625)"/>
      <path id="DejaVuSans-Oblique-78" d="M 3841 3500 
L 2234 1784 
L 3219 0 
L 2559 0 
L 1819 1388 
L 531 0 
L -166 0 
L 1556 1844 
L 641 3500 
L 1300 3500 
L 1972 2234 
L 3144 3500 
L 3841 3500 
z
" transform="scale(0.015625)"/>
      <path id="DejaVuSans-Oblique-74" d="M 2706 3500 
L 2619 3053 
L 1472 3053 
L 1100 1153 
Q 1081 1047 1072 975 
Q 1063 903 1063 863 
Q 1063 663 1183 572 
Q 1303 481 1569 481 
L 2150 481 
L 2053 0 
L 1503 0 
Q 991 0 739 200 
Q 488 400 488 806 
Q 488 878 497 964 
Q 506 1050 525 1153 
L 897 3053 
L 409 3053 
L 500 3500 
L 978 3500 
L 1172 4494 
L 1747 4494 
L 1556 3500 
L 2706 3500 
z
" transform="scale(0.015625)"/>
      <path id="DejaVuSans-Oblique-72" d="M 2853 2969 
Q 2766 3016 2653 3041 
Q 2541 3066 2413 3066 
Q 1953 3066 1609 2717 
Q 1266 2369 1153 1784 
L 800 0 
L 225 0 
L 909 3500 
L 1484 3500 
L 1375 2956 
Q 1603 3259 1920 3421 
Q 2238 3584 2597 3584 
Q 2691 3584 2781 3573 
Q 2872 3563 2963 3538 
L 2853 2969 
z
" transform="scale(0.015625)"/>
      <path id="DejaVuSans-Oblique-69" d="M 1172 4863 
L 1747 4863 
L 1606 4134 
L 1031 4134 
L 1172 4863 
z
M 909 3500 
L 1484 3500 
L 800 0 
L 225 0 
L 909 3500 
z
" transform="scale(0.015625)"/>
      <path id="DejaVuSans-Oblique-6f" d="M 1625 -91 
Q 1009 -91 651 289 
Q 294 669 294 1325 
Q 294 1706 417 2101 
Q 541 2497 738 2766 
Q 1047 3184 1428 3384 
Q 1809 3584 2291 3584 
Q 2888 3584 3255 3212 
Q 3622 2841 3622 2241 
Q 3622 1825 3500 1412 
Q 3378 1000 3181 728 
Q 2875 309 2494 109 
Q 2113 -91 1625 -91 
z
M 891 1344 
Q 891 869 1089 633 
Q 1288 397 1691 397 
Q 2269 397 2648 901 
Q 3028 1406 3028 2181 
Q 3028 2634 2825 2865 
Q 2622 3097 2228 3097 
Q 1903 3097 1650 2945 
Q 1397 2794 1197 2484 
Q 1050 2253 970 1956 
Q 891 1659 891 1344 
z
" transform="scale(0.015625)"/>
      <path id="DejaVuSans-Oblique-29" d="M -397 -844 
Q 434 191 840 1120 
Q 1247 2050 1247 2913 
Q 1247 3406 1130 3892 
Q 1013 4378 775 4856 
L 1275 4856 
Q 1563 4316 1703 3812 
Q 1844 3309 1844 2822 
Q 1844 1891 1411 973 
Q 978 56 116 -844 
L -397 -844 
z
" transform="scale(0.015625)"/>
     </defs>
     <use xlink:href="#DejaVuSans-Oblique-28"/>
     <use xlink:href="#DejaVuSans-Oblique-65" transform="translate(39.013672 0)"/>
     <use xlink:href="#DejaVuSans-Oblique-78" transform="translate(100.537109 0)"/>
     <use xlink:href="#DejaVuSans-Oblique-74" transform="translate(159.716797 0)"/>
     <use xlink:href="#DejaVuSans-Oblique-65" transform="translate(198.925781 0)"/>
     <use xlink:href="#DejaVuSans-Oblique-72" transform="translate(260.449219 0)"/>
     <use xlink:href="#DejaVuSans-Oblique-69" transform="translate(301.5625 0)"/>
     <use xlink:href="#DejaVuSans-Oblique-6f" transform="translate(329.345703 0)"/>
     <use xlink:href="#DejaVuSans-Oblique-72" transform="translate(390.527344 0)"/>
     <use xlink:href="#DejaVuSans-Oblique-29" transform="translate(431.640625 0)"/>
    </g>
   </g>
   <g id="text_10">
    <!-- PROPIEDAD: -->
    <g style="fill: #374151" transform="translate(415.977419 120.810016) scale(0.1 -0.1)">
     <defs>
      <path id="DejaVuSans-Bold-50" d="M 588 4666 
L 2584 4666 
Q 3475 4666 3951 4270 
Q 4428 3875 4428 3144 
Q 4428 2409 3951 2014 
Q 3475 1619 2584 1619 
L 1791 1619 
L 1791 0 
L 588 0 
L 588 4666 
z
M 1791 3794 
L 1791 2491 
L 2456 2491 
Q 2806 2491 2997 2661 
Q 3188 2831 3188 3144 
Q 3188 3456 2997 3625 
Q 2806 3794 2456 3794 
L 1791 3794 
z
" transform="scale(0.015625)"/>
      <path id="DejaVuSans-Bold-52" d="M 2297 2597 
Q 2675 2597 2839 2737 
Q 3003 2878 3003 3200 
Q 3003 3519 2839 3656 
Q 2675 3794 2297 3794 
L 1791 3794 
L 1791 2597 
L 2297 2597 
z
M 1791 1766 
L 1791 0 
L 588 0 
L 588 4666 
L 2425 4666 
Q 3347 4666 3776 4356 
Q 4206 4047 4206 3378 
Q 4206 2916 3982 2619 
Q 3759 2322 3309 2181 
Q 3556 2125 3751 1926 
Q 3947 1728 4147 1325 
L 4800 0 
L 3519 0 
L 2950 1159 
Q 2778 1509 2601 1637 
Q 2425 1766 2131 1766 
L 1791 1766 
z
" transform="scale(0.015625)"/>
      <path id="DejaVuSans-Bold-4f" d="M 2719 3878 
Q 2169 3878 1866 3472 
Q 1563 3066 1563 2328 
Q 1563 1594 1866 1187 
Q 2169 781 2719 781 
Q 3272 781 3575 1187 
Q 3878 1594 3878 2328 
Q 3878 3066 3575 3472 
Q 3272 3878 2719 3878 
z
M 2719 4750 
Q 3844 4750 4481 4106 
Q 5119 3463 5119 2328 
Q 5119 1197 4481 553 
Q 3844 -91 2719 -91 
Q 1597 -91 958 553 
Q 319 1197 319 2328 
Q 319 3463 958 4106 
Q 1597 4750 2719 4750 
z
" transform="scale(0.015625)"/>
      <path id="DejaVuSans-Bold-49" d="M 588 4666 
L 1791 4666 
L 1791 0 
L 588 0 
L 588 4666 
z
" transform="scale(0.015625)"/>
      <path id="DejaVuSans-Bold-45" d="M 588 4666 
L 3834 4666 
L 3834 3756 
L 1791 3756 
L 1791 2888 
L 3713 2888 
L 3713 1978 
L 1791 1978 
L 1791 909 
L 3903 909 
L 3903 0 
L 588 0 
L 588 4666 
z
" transform="scale(0.015625)"/>
      <path id="DejaVuSans-Bold-3a" d="M 716 3500 
L 1844 3500 
L 1844 2291 
L 716 2291 
L 716 3500 
z
M 716 1209 
L 1844 1209 
L 1844 0 
L 716 0 
L 716 1209 
z
" transform="scale(0.015625)"/>
     </defs>
     <use xlink:href="#DejaVuSans-Bold-50"/>
     <use xlink:href="#DejaVuSans-Bold-52" transform="translate(73.291016 0)"/>
     <use xlink:href="#DejaVuSans-Bold-4f" transform="translate(150.292969 0)"/>
     <use xlink:href="#DejaVuSans-Bold-50" transform="translate(235.302734 0)"/>
     <use xlink:href="#DejaVuSans-Bold-49" transform="translate(308.59375 0)"/>
     <use xlink:href="#DejaVuSans-Bold-45" transform="translate(345.800781 0)"/>
     <use xlink:href="#DejaVuSans-Bold-44" transform="translate(414.111328 0)"/>
     <use xlink:href="#DejaVuSans-Bold-41" transform="translate(497.119141 0)"/>
     <use xlink:href="#DejaVuSans-Bold-44" transform="translate(574.511719 0)"/>
     <use xlink:href="#DejaVuSans-Bold-3a" transform="translate(657.519531 0)"/>
    </g>
   </g>
   <g id="text_11">
    <!-- El ángulo exterior de un triángulo -->
    <g style="fill: #374151" transform="translate(415.977419 180.42339) scale(0.1 -0.1)">
     <defs>
      <path id="DejaVuSans-45" d="M 628 4666 
L 3578 4666 
L 3578 4134 
L 1259 4134 
L 1259 2753 
L 3481 2753 
L 3481 2222 
L 1259 2222 
L 1259 531 
L 3634 531 
L 3634 0 
L 628 0 
L 628 4666 
z
" transform="scale(0.015625)"/>
      <path id="DejaVuSans-6c" d="M 603 4863 
L 1178 4863 
L 1178 0 
L 603 0 
L 603 4863 
z
" transform="scale(0.015625)"/>
      <path id="DejaVuSans-20" transform="scale(0.015625)"/>
      <path id="DejaVuSans-e1" d="M 2194 1759 
Q 1497 1759 1228 1600 
Q 959 1441 959 1056 
Q 959 750 1161 570 
Q 1363 391 1709 391 
Q 2188 391 2477 730 
Q 2766 1069 2766 1631 
L 2766 1759 
L 2194 1759 
z
M 3341 1997 
L 3341 0 
L 2766 0 
L 2766 531 
Q 2569 213 2275 61 
Q 1981 -91 1556 -91 
Q 1019 -91 701 211 
Q 384 513 384 1019 
Q 384 1609 779 1909 
Q 1175 2209 1959 2209 
L 2766 2209 
L 2766 2266 
Q 2766 2663 2505 2880 
Q 2244 3097 1772 3097 
Q 1472 3097 1187 3025 
Q 903 2953 641 2809 
L 641 3341 
Q 956 3463 1253 3523 
Q 1550 3584 1831 3584 
Q 2591 3584 2966 3190 
Q 3341 2797 3341 1997 
z
M 2290 5119 
L 2912 5119 
L 1894 3944 
L 1415 3944 
L 2290 5119 
z
" transform="scale(0.015625)"/>
      <path id="DejaVuSans-6e" d="M 3513 2113 
L 3513 0 
L 2938 0 
L 2938 2094 
Q 2938 2591 2744 2837 
Q 2550 3084 2163 3084 
Q 1697 3084 1428 2787 
Q 1159 2491 1159 1978 
L 1159 0 
L 581 0 
L 581 3500 
L 1159 3500 
L 1159 2956 
Q 1366 3272 1645 3428 
Q 1925 3584 2291 3584 
Q 2894 3584 3203 3211 
Q 3513 2838 3513 2113 
z
" transform="scale(0.015625)"/>
      <path id="DejaVuSans-67" d="M 2906 1791 
Q 2906 2416 2648 2759 
Q 2391 3103 1925 3103 
Q 1463 3103 1205 2759 
Q 947 2416 947 1791 
Q 947 1169 1205 825 
Q 1463 481 1925 481 
Q 2391 481 2648 825 
Q 2906 1169 2906 1791 
z
M 3481 434 
Q 3481 -459 3084 -895 
Q 2688 -1331 1869 -1331 
Q 1566 -1331 1297 -1286 
Q 1028 -1241 775 -1147 
L 775 -588 
Q 1028 -725 1275 -790 
Q 1522 -856 1778 -856 
Q 2344 -856 2625 -561 
Q 2906 -266 2906 331 
L 2906 616 
Q 2728 306 2450 153 
Q 2172 0 1784 0 
Q 1141 0 747 490 
Q 353 981 353 1791 
Q 353 2603 747 3093 
Q 1141 3584 1784 3584 
Q 2172 3584 2450 3431 
Q 2728 3278 2906 2969 
L 2906 3500 
L 3481 3500 
L 3481 434 
z
" transform="scale(0.015625)"/>
      <path id="DejaVuSans-75" d="M 544 1381 
L 544 3500 
L 1119 3500 
L 1119 1403 
Q 1119 906 1312 657 
Q 1506 409 1894 409 
Q 2359 409 2629 706 
Q 2900 1003 2900 1516 
L 2900 3500 
L 3475 3500 
L 3475 0 
L 2900 0 
L 2900 538 
Q 2691 219 2414 64 
Q 2138 -91 1772 -91 
Q 1169 -91 856 284 
Q 544 659 544 1381 
z
M 1991 3584 
L 1991 3584 
z
" transform="scale(0.015625)"/>
      <path id="DejaVuSans-6f" d="M 1959 3097 
Q 1497 3097 1228 2736 
Q 959 2375 959 1747 
Q 959 1119 1226 758 
Q 1494 397 1959 397 
Q 2419 397 2687 759 
Q 2956 1122 2956 1747 
Q 2956 2369 2687 2733 
Q 2419 3097 1959 3097 
z
M 1959 3584 
Q 2709 3584 3137 3096 
Q 3566 2609 3566 1747 
Q 3566 888 3137 398 
Q 2709 -91 1959 -91 
Q 1206 -91 779 398 
Q 353 888 353 1747 
Q 353 2609 779 3096 
Q 1206 3584 1959 3584 
z
" transform="scale(0.015625)"/>
      <path id="DejaVuSans-65" d="M 3597 1894 
L 3597 1613 
L 953 1613 
Q 991 1019 1311 708 
Q 1631 397 2203 397 
Q 2534 397 2845 478 
Q 3156 559 3463 722 
L 3463 178 
Q 3153 47 2828 -22 
Q 2503 -91 2169 -91 
Q 1331 -91 842 396 
Q 353 884 353 1716 
Q 353 2575 817 3079 
Q 1281 3584 2069 3584 
Q 2775 3584 3186 3129 
Q 3597 2675 3597 1894 
z
M 3022 2063 
Q 3016 2534 2758 2815 
Q 2500 3097 2075 3097 
Q 1594 3097 1305 2825 
Q 1016 2553 972 2059 
L 3022 2063 
z
" transform="scale(0.015625)"/>
      <path id="DejaVuSans-78" d="M 3513 3500 
L 2247 1797 
L 3578 0 
L 2900 0 
L 1881 1375 
L 863 0 
L 184 0 
L 1544 1831 
L 300 3500 
L 978 3500 
L 1906 2253 
L 2834 3500 
L 3513 3500 
z
" transform="scale(0.015625)"/>
      <path id="DejaVuSans-74" d="M 1172 4494 
L 1172 3500 
L 2356 3500 
L 2356 3053 
L 1172 3053 
L 1172 1153 
Q 1172 725 1289 603 
Q 1406 481 1766 481 
L 2356 481 
L 2356 0 
L 1766 0 
Q 1100 0 847 248 
Q 594 497 594 1153 
L 594 3053 
L 172 3053 
L 172 3500 
L 594 3500 
L 594 4494 
L 1172 4494 
z
" transform="scale(0.015625)"/>
      <path id="DejaVuSans-72" d="M 2631 2963 
Q 2534 3019 2420 3045 
Q 2306 3072 2169 3072 
Q 1681 3072 1420 2755 
Q 1159 2438 1159 1844 
L 1159 0 
L 581 0 
L 581 3500 
L 1159 3500 
L 1159 2956 
Q 1341 3275 1631 3429 
Q 1922 3584 2338 3584 
Q 2397 3584 2469 3576 
Q 2541 3569 2628 3553 
L 2631 2963 
z
" transform="scale(0.015625)"/>
      <path id="DejaVuSans-69" d="M 603 3500 
L 1178 3500 
L 1178 0 
L 603 0 
L 603 3500 
z
M 603 4863 
L 1178 4863 
L 1178 4134 
L 603 4134 
L 603 4863 
z
" transform="scale(0.015625)"/>
      <path id="DejaVuSans-64" d="M 2906 2969 
L 2906 4863 
L 3481 4863 
L 3481 0 
L 2906 0 
L 2906 525 
Q 2725 213 2448 61 
Q 2172 -91 1784 -91 
Q 1150 -91 751 415 
Q 353 922 353 1747 
Q 353 2572 751 3078 
Q 1150 3584 1784 3584 
Q 2172 3584 2448 3432 
Q 2725 3281 2906 2969 
z
M 947 1747 
Q 947 1113 1208 752 
Q 1469 391 1925 391 
Q 2381 391 2643 752 
Q 2906 1113 2906 1747 
Q 2906 2381 2643 2742 
Q 2381 3103 1925 3103 
Q 1469 3103 1208 2742 
Q 947 2381 947 1747 
z
" transform="scale(0.015625)"/>
     </defs>
     <use xlink:href="#DejaVuSans-45"/>
     <use xlink:href="#DejaVuSans-6c" transform="translate(63.183594 0)"/>
     <use xlink:href="#DejaVuSans-20" transform="translate(90.966797 0)"/>
     <use xlink:href="#DejaVuSans-e1" transform="translate(122.753906 0)"/>
     <use xlink:href="#DejaVuSans-6e" transform="translate(184.033203 0)"/>
     <use xlink:href="#DejaVuSans-67" transform="translate(247.412109 0)"/>
     <use xlink:href="#DejaVuSans-75" transform="translate(310.888672 0)"/>
     <use xlink:href="#DejaVuSans-6c" transform="translate(374.267578 0)"/>
     <use xlink:href="#DejaVuSans-6f" transform="translate(402.050781 0)"/>
     <use xlink:href="#DejaVuSans-20" transform="translate(463.232422 0)"/>
     <use xlink:href="#DejaVuSans-65" transform="translate(495.019531 0)"/>
     <use xlink:href="#DejaVuSans-78" transform="translate(554.792969 0)"/>
     <use xlink:href="#DejaVuSans-74" transform="translate(613.972656 0)"/>
     <use xlink:href="#DejaVuSans-65" transform="translate(653.181641 0)"/>
     <use xlink:href="#DejaVuSans-72" transform="translate(714.705078 0)"/>
     <use xlink:href="#DejaVuSans-69" transform="translate(755.818359 0)"/>
     <use xlink:href="#DejaVuSans-6f" transform="translate(783.601562 0)"/>
     <use xlink:href="#DejaVuSans-72" transform="translate(844.783203 0)"/>
     <use xlink:href="#DejaVuSans-20" transform="translate(885.896484 0)"/>
     <use xlink:href="#DejaVuSans-64" transform="translate(917.683594 0)"/>
     <use xlink:href="#DejaVuSans-65" transform="translate(981.160156 0)"/>
     <use xlink:href="#DejaVuSans-20" transform="translate(1042.683594 0)"/>
     <use xlink:href="#DejaVuSans-75" transform="translate(1074.470703 0)"/>
     <use xlink:href="#DejaVuSans-6e" transform="translate(1137.849609 0)"/>
     <use xlink:href="#DejaVuSans-20" transform="translate(1201.228516 0)"/>
     <use xlink:href="#DejaVuSans-74" transform="translate(1233.015625 0)"/>
     <use xlink:href="#DejaVuSans-72" transform="translate(1272.224609 0)"/>
     <use xlink:href="#DejaVuSans-69" transform="translate(1313.337891 0)"/>
     <use xlink:href="#DejaVuSans-e1" transform="translate(1341.121094 0)"/>
     <use xlink:href="#DejaVuSans-6e" transform="translate(1402.400391 0)"/>
     <use xlink:href="#DejaVuSans-67" transform="translate(1465.779297 0)"/>
     <use xlink:href="#DejaVuSans-75" transform="translate(1529.255859 0)"/>
     <use xlink:href="#DejaVuSans-6c" transform="translate(1592.634766 0)"/>
     <use xlink:href="#DejaVuSans-6f" transform="translate(1620.417969 0)"/>
    </g>
   </g>
   <g id="text_12">
    <!-- es igual a la suma de los dos -->
    <g style="fill: #374151" transform="translate(415.977419 210.230076) scale(0.1 -0.1)">
     <defs>
      <path id="DejaVuSans-73" d="M 2834 3397 
L 2834 2853 
Q 2591 2978 2328 3040 
Q 2066 3103 1784 3103 
Q 1356 3103 1142 2972 
Q 928 2841 928 2578 
Q 928 2378 1081 2264 
Q 1234 2150 1697 2047 
L 1894 2003 
Q 2506 1872 2764 1633 
Q 3022 1394 3022 966 
Q 3022 478 2636 193 
Q 2250 -91 1575 -91 
Q 1294 -91 989 -36 
Q 684 19 347 128 
L 347 722 
Q 666 556 975 473 
Q 1284 391 1588 391 
Q 1994 391 2212 530 
Q 2431 669 2431 922 
Q 2431 1156 2273 1281 
Q 2116 1406 1581 1522 
L 1381 1569 
Q 847 1681 609 1914 
Q 372 2147 372 2553 
Q 372 3047 722 3315 
Q 1072 3584 1716 3584 
Q 2034 3584 2315 3537 
Q 2597 3491 2834 3397 
z
" transform="scale(0.015625)"/>
      <path id="DejaVuSans-61" d="M 2194 1759 
Q 1497 1759 1228 1600 
Q 959 1441 959 1056 
Q 959 750 1161 570 
Q 1363 391 1709 391 
Q 2188 391 2477 730 
Q 2766 1069 2766 1631 
L 2766 1759 
L 2194 1759 
z
M 3341 1997 
L 3341 0 
L 2766 0 
L 2766 531 
Q 2569 213 2275 61 
Q 1981 -91 1556 -91 
Q 1019 -91 701 211 
Q 384 513 384 1019 
Q 384 1609 779 1909 
Q 1175 2209 1959 2209 
L 2766 2209 
L 2766 2266 
Q 2766 2663 2505 2880 
Q 2244 3097 1772 3097 
Q 1472 3097 1187 3025 
Q 903 2953 641 2809 
L 641 3341 
Q 956 3463 1253 3523 
Q 1550 3584 1831 3584 
Q 2591 3584 2966 3190 
Q 3341 2797 3341 1997 
z
" transform="scale(0.015625)"/>
      <path id="DejaVuSans-6d" d="M 3328 2828 
Q 3544 3216 3844 3400 
Q 4144 3584 4550 3584 
Q 5097 3584 5394 3201 
Q 5691 2819 5691 2113 
L 5691 0 
L 5113 0 
L 5113 2094 
Q 5113 2597 4934 2840 
Q 4756 3084 4391 3084 
Q 3944 3084 3684 2787 
Q 3425 2491 3425 1978 
L 3425 0 
L 2847 0 
L 2847 2094 
Q 2847 2600 2669 2842 
Q 2491 3084 2119 3084 
Q 1678 3084 1418 2786 
Q 1159 2488 1159 1978 
L 1159 0 
L 581 0 
L 581 3500 
L 1159 3500 
L 1159 2956 
Q 1356 3278 1631 3431 
Q 1906 3584 2284 3584 
Q 2666 3584 2933 3390 
Q 3200 3197 3328 2828 
z
" transform="scale(0.015625)"/>
     </defs>
     <use xlink:href="#DejaVuSans-65"/>
     <use xlink:href="#DejaVuSans-73" transform="translate(61.523438 0)"/>
     <use xlink:href="#DejaVuSans-20" transform="translate(113.623047 0)"/>
     <use xlink:href="#DejaVuSans-69" transform="translate(145.410156 0)"/>
     <use xlink:href="#DejaVuSans-67" transform="translate(173.193359 0)"/>
     <use xlink:href="#DejaVuSans-75" transform="translate(236.669922 0)"/>
     <use xlink:href="#DejaVuSans-61" transform="translate(300.048828 0)"/>
     <use xlink:href="#DejaVuSans-6c" transform="translate(361.328125 0)"/>
     <use xlink:href="#DejaVuSans-20" transform="translate(389.111328 0)"/>
     <use xlink:href="#DejaVuSans-61" transform="translate(420.898438 0)"/>
     <use xlink:href="#DejaVuSans-20" transform="translate(482.177734 0)"/>
     <use xlink:href="#DejaVuSans-6c" transform="translate(513.964844 0)"/>
     <use xlink:href="#DejaVuSans-61" transform="translate(541.748047 0)"/>
     <use xlink:href="#DejaVuSans-20" transform="translate(603.027344 0)"/>
     <use xlink:href="#DejaVuSans-73" transform="translate(634.814453 0)"/>
     <use xlink:href="#DejaVuSans-75" transform="translate(686.914062 0)"/>
     <use xlink:href="#DejaVuSans-6d" transform="translate(750.292969 0)"/>
     <use xlink:href="#DejaVuSans-61" transform="translate(847.705078 0)"/>
     <use xlink:href="#DejaVuSans-20" transform="translate(908.984375 0)"/>
     <use xlink:href="#DejaVuSans-64" transform="translate(940.771484 0)"/>
     <use xlink:href="#DejaVuSans-65" transform="translate(1004.248047 0)"/>
     <use xlink:href="#DejaVuSans-20" transform="translate(1065.771484 0)"/>
     <use xlink:href="#DejaVuSans-6c" transform="translate(1097.558594 0)"/>
     <use xlink:href="#DejaVuSans-6f" transform="translate(1125.341797 0)"/>
     <use xlink:href="#DejaVuSans-73" transform="translate(1186.523438 0)"/>
     <use xlink:href="#DejaVuSans-20" transform="translate(1238.623047 0)"/>
     <use xlink:href="#DejaVuSans-64" transform="translate(1270.410156 0)"/>
     <use xlink:href="#DejaVuSans-6f" transform="translate(1333.886719 0)"/>
     <use xlink:href="#DejaVuSans-73" transform="translate(1395.068359 0)"/>
    </g>
   </g>
   <g id="text_13">
    <!-- ángulos interiores no adyacentes. -->
    <g style="fill: #374151" transform="translate(415.977419 240.036763) scale(0.1 -0.1)">
     <defs>
      <path id="DejaVuSans-79" d="M 2059 -325 
Q 1816 -950 1584 -1140 
Q 1353 -1331 966 -1331 
L 506 -1331 
L 506 -850 
L 844 -850 
Q 1081 -850 1212 -737 
Q 1344 -625 1503 -206 
L 1606 56 
L 191 3500 
L 800 3500 
L 1894 763 
L 2988 3500 
L 3597 3500 
L 2059 -325 
z
" transform="scale(0.015625)"/>
      <path id="DejaVuSans-63" d="M 3122 3366 
L 3122 2828 
Q 2878 2963 2633 3030 
Q 2388 3097 2138 3097 
Q 1578 3097 1268 2742 
Q 959 2388 959 1747 
Q 959 1106 1268 751 
Q 1578 397 2138 397 
Q 2388 397 2633 464 
Q 2878 531 3122 666 
L 3122 134 
Q 2881 22 2623 -34 
Q 2366 -91 2075 -91 
Q 1284 -91 818 406 
Q 353 903 353 1747 
Q 353 2603 823 3093 
Q 1294 3584 2113 3584 
Q 2378 3584 2631 3529 
Q 2884 3475 3122 3366 
z
" transform="scale(0.015625)"/>
      <path id="DejaVuSans-2e" d="M 684 794 
L 1344 794 
L 1344 0 
L 684 0 
L 684 794 
z
" transform="scale(0.015625)"/>
     </defs>
     <use xlink:href="#DejaVuSans-e1"/>
     <use xlink:href="#DejaVuSans-6e" transform="translate(61.279297 0)"/>
     <use xlink:href="#DejaVuSans-67" transform="translate(124.658203 0)"/>
     <use xlink:href="#DejaVuSans-75" transform="translate(188.134766 0)"/>
     <use xlink:href="#DejaVuSans-6c" transform="translate(251.513672 0)"/>
     <use xlink:href="#DejaVuSans-6f" transform="translate(279.296875 0)"/>
     <use xlink:href="#DejaVuSans-73" transform="translate(340.478516 0)"/>
     <use xlink:href="#DejaVuSans-20" transform="translate(392.578125 0)"/>
     <use xlink:href="#DejaVuSans-69" transform="translate(424.365234 0)"/>
     <use xlink:href="#DejaVuSans-6e" transform="translate(452.148438 0)"/>
     <use xlink:href="#DejaVuSans-74" transform="translate(515.527344 0)"/>
     <use xlink:href="#DejaVuSans-65" transform="translate(554.736328 0)"/>
     <use xlink:href="#DejaVuSans-72" transform="translate(616.259766 0)"/>
     <use xlink:href="#DejaVuSans-69" transform="translate(657.373047 0)"/>
     <use xlink:href="#DejaVuSans-6f" transform="translate(685.15625 0)"/>
     <use xlink:href="#DejaVuSans-72" transform="translate(746.337891 0)"/>
     <use xlink:href="#DejaVuSans-65" transform="translate(785.201172 0)"/>
     <use xlink:href="#DejaVuSans-73" transform="translate(846.724609 0)"/>
     <use xlink:href="#DejaVuSans-20" transform="translate(898.824219 0)"/>
     <use xlink:href="#DejaVuSans-6e" transform="translate(930.611328 0)"/>
     <use xlink:href="#DejaVuSans-6f" transform="translate(993.990234 0)"/>
     <use xlink:href="#DejaVuSans-20" transform="translate(1055.171875 0)"/>
     <use xlink:href="#DejaVuSans-61" transform="translate(1086.958984 0)"/>
     <use xlink:href="#DejaVuSans-64" transform="translate(1148.238281 0)"/>
     <use xlink:href="#DejaVuSans-79" transform="translate(1211.714844 0)"/>
     <use xlink:href="#DejaVuSans-61" transform="translate(1270.894531 0)"/>
     <use xlink:href="#DejaVuSans-63" transform="translate(1332.173828 0)"/>
     <use xlink:href="#DejaVuSans-65" transform="translate(1387.154297 0)"/>
     <use xlink:href="#DejaVuSans-6e" transform="translate(1448.677734 0)"/>
     <use xlink:href="#DejaVuSans-74" transform="translate(1512.056641 0)"/>
     <use xlink:href="#DejaVuSans-65" transform="translate(1551.265625 0)"/>
     <use xlink:href="#DejaVuSans-73" transform="translate(1612.789062 0)"/>
     <use xlink:href="#DejaVuSans-2e" transform="translate(1664.888672 0)"/>
    </g>
   </g>
   <g id="text_14">
    <!-- θ = α + β -->
    <g style="fill: #7c3aed" transform="translate(415.977419 299.650137) scale(0.13 -0.13)">
     <defs>
      <path id="DejaVuSans-Bold-20" transform="scale(0.015625)"/>
      <path id="DejaVuSans-Bold-3d" d="M 678 3084 
L 4684 3084 
L 4684 2350 
L 678 2350 
L 678 3084 
z
M 678 1663 
L 4684 1663 
L 4684 922 
L 678 922 
L 678 1663 
z
" transform="scale(0.015625)"/>
      <path id="DejaVuSans-Bold-2b" d="M 3053 4013 
L 3053 2375 
L 4684 2375 
L 4684 1638 
L 3053 1638 
L 3053 0 
L 2309 0 
L 2309 1638 
L 678 1638 
L 678 2375 
L 2309 2375 
L 2309 4013 
L 3053 4013 
z
" transform="scale(0.015625)"/>
     </defs>
     <use xlink:href="#DejaVuSans-Bold-3b8"/>
     <use xlink:href="#DejaVuSans-Bold-20" transform="translate(68.701172 0)"/>
     <use xlink:href="#DejaVuSans-Bold-3d" transform="translate(103.515625 0)"/>
     <use xlink:href="#DejaVuSans-Bold-20" transform="translate(187.304688 0)"/>
     <use xlink:href="#DejaVuSans-Bold-3b1" transform="translate(222.119141 0)"/>
     <use xlink:href="#DejaVuSans-Bold-20" transform="translate(290.820312 0)"/>
     <use xlink:href="#DejaVuSans-Bold-2b" transform="translate(325.634766 0)"/>
     <use xlink:href="#DejaVuSans-Bold-20" transform="translate(409.423828 0)"/>
     <use xlink:href="#DejaVuSans-Bold-3b2" transform="translate(444.238281 0)"/>
    </g>
   </g>
   <g id="text_15">
    <!-- Demostración: -->
    <g style="fill: #6b7280" transform="translate(415.977419 350.747314) scale(0.1 -0.1)">
     <defs>
      <path id="DejaVuSans-Bold-65" d="M 4031 1759 
L 4031 1441 
L 1416 1441 
Q 1456 1047 1700 850 
Q 1944 653 2381 653 
Q 2734 653 3104 758 
Q 3475 863 3866 1075 
L 3866 213 
Q 3469 63 3072 -14 
Q 2675 -91 2278 -91 
Q 1328 -91 801 392 
Q 275 875 275 1747 
Q 275 2603 792 3093 
Q 1309 3584 2216 3584 
Q 3041 3584 3536 3087 
Q 4031 2591 4031 1759 
z
M 2881 2131 
Q 2881 2450 2695 2645 
Q 2509 2841 2209 2841 
Q 1884 2841 1681 2658 
Q 1478 2475 1428 2131 
L 2881 2131 
z
" transform="scale(0.015625)"/>
      <path id="DejaVuSans-Bold-6d" d="M 3781 2919 
Q 3994 3244 4286 3414 
Q 4578 3584 4928 3584 
Q 5531 3584 5847 3212 
Q 6163 2841 6163 2131 
L 6163 0 
L 5038 0 
L 5038 1825 
Q 5041 1866 5042 1909 
Q 5044 1953 5044 2034 
Q 5044 2406 4934 2573 
Q 4825 2741 4581 2741 
Q 4263 2741 4089 2478 
Q 3916 2216 3909 1719 
L 3909 0 
L 2784 0 
L 2784 1825 
Q 2784 2406 2684 2573 
Q 2584 2741 2328 2741 
Q 2006 2741 1831 2477 
Q 1656 2213 1656 1722 
L 1656 0 
L 531 0 
L 531 3500 
L 1656 3500 
L 1656 2988 
Q 1863 3284 2130 3434 
Q 2397 3584 2719 3584 
Q 3081 3584 3359 3409 
Q 3638 3234 3781 2919 
z
" transform="scale(0.015625)"/>
      <path id="DejaVuSans-Bold-6f" d="M 2203 2784 
Q 1831 2784 1636 2517 
Q 1441 2250 1441 1747 
Q 1441 1244 1636 976 
Q 1831 709 2203 709 
Q 2569 709 2762 976 
Q 2956 1244 2956 1747 
Q 2956 2250 2762 2517 
Q 2569 2784 2203 2784 
z
M 2203 3584 
Q 3106 3584 3614 3096 
Q 4122 2609 4122 1747 
Q 4122 884 3614 396 
Q 3106 -91 2203 -91 
Q 1297 -91 786 396 
Q 275 884 275 1747 
Q 275 2609 786 3096 
Q 1297 3584 2203 3584 
z
" transform="scale(0.015625)"/>
      <path id="DejaVuSans-Bold-73" d="M 3272 3391 
L 3272 2541 
Q 2913 2691 2578 2766 
Q 2244 2841 1947 2841 
Q 1628 2841 1473 2761 
Q 1319 2681 1319 2516 
Q 1319 2381 1436 2309 
Q 1553 2238 1856 2203 
L 2053 2175 
Q 2913 2066 3209 1816 
Q 3506 1566 3506 1031 
Q 3506 472 3093 190 
Q 2681 -91 1863 -91 
Q 1516 -91 1145 -36 
Q 775 19 384 128 
L 384 978 
Q 719 816 1070 734 
Q 1422 653 1784 653 
Q 2113 653 2278 743 
Q 2444 834 2444 1013 
Q 2444 1163 2330 1236 
Q 2216 1309 1875 1350 
L 1678 1375 
Q 931 1469 631 1722 
Q 331 1975 331 2491 
Q 331 3047 712 3315 
Q 1094 3584 1881 3584 
Q 2191 3584 2531 3537 
Q 2872 3491 3272 3391 
z
" transform="scale(0.015625)"/>
      <path id="DejaVuSans-Bold-74" d="M 1759 4494 
L 1759 3500 
L 2913 3500 
L 2913 2700 
L 1759 2700 
L 1759 1216 
Q 1759 972 1856 886 
Q 1953 800 2241 800 
L 2816 800 
L 2816 0 
L 1856 0 
Q 1194 0 917 276 
Q 641 553 641 1216 
L 641 2700 
L 84 2700 
L 84 3500 
L 641 3500 
L 641 4494 
L 1759 4494 
z
" transform="scale(0.015625)"/>
      <path id="DejaVuSans-Bold-72" d="M 3138 2547 
Q 2991 2616 2845 2648 
Q 2700 2681 2553 2681 
Q 2122 2681 1889 2404 
Q 1656 2128 1656 1613 
L 1656 0 
L 538 0 
L 538 3500 
L 1656 3500 
L 1656 2925 
Q 1872 3269 2151 3426 
Q 2431 3584 2822 3584 
Q 2878 3584 2943 3579 
Q 3009 3575 3134 3559 
L 3138 2547 
z
" transform="scale(0.015625)"/>
      <path id="DejaVuSans-Bold-61" d="M 2106 1575 
Q 1756 1575 1579 1456 
Q 1403 1338 1403 1106 
Q 1403 894 1545 773 
Q 1688 653 1941 653 
Q 2256 653 2472 879 
Q 2688 1106 2688 1447 
L 2688 1575 
L 2106 1575 
z
M 3816 1997 
L 3816 0 
L 2688 0 
L 2688 519 
Q 2463 200 2181 54 
Q 1900 -91 1497 -91 
Q 953 -91 614 226 
Q 275 544 275 1050 
Q 275 1666 698 1953 
Q 1122 2241 2028 2241 
L 2688 2241 
L 2688 2328 
Q 2688 2594 2478 2717 
Q 2269 2841 1825 2841 
Q 1466 2841 1156 2769 
Q 847 2697 581 2553 
L 581 3406 
Q 941 3494 1303 3539 
Q 1666 3584 2028 3584 
Q 2975 3584 3395 3211 
Q 3816 2838 3816 1997 
z
" transform="scale(0.015625)"/>
      <path id="DejaVuSans-Bold-63" d="M 3366 3391 
L 3366 2478 
Q 3138 2634 2908 2709 
Q 2678 2784 2431 2784 
Q 1963 2784 1702 2511 
Q 1441 2238 1441 1747 
Q 1441 1256 1702 982 
Q 1963 709 2431 709 
Q 2694 709 2930 787 
Q 3166 866 3366 1019 
L 3366 103 
Q 3103 6 2833 -42 
Q 2563 -91 2291 -91 
Q 1344 -91 809 395 
Q 275 881 275 1747 
Q 275 2613 809 3098 
Q 1344 3584 2291 3584 
Q 2566 3584 2833 3536 
Q 3100 3488 3366 3391 
z
" transform="scale(0.015625)"/>
      <path id="DejaVuSans-Bold-69" d="M 538 3500 
L 1656 3500 
L 1656 0 
L 538 0 
L 538 3500 
z
M 538 4863 
L 1656 4863 
L 1656 3950 
L 538 3950 
L 538 4863 
z
" transform="scale(0.015625)"/>
      <path id="DejaVuSans-Bold-f3" d="M 2203 2784 
Q 1831 2784 1636 2517 
Q 1441 2250 1441 1747 
Q 1441 1244 1636 976 
Q 1831 709 2203 709 
Q 2569 709 2762 976 
Q 2956 1244 2956 1747 
Q 2956 2250 2762 2517 
Q 2569 2784 2203 2784 
z
M 2203 3584 
Q 3106 3584 3614 3096 
Q 4122 2609 4122 1747 
Q 4122 884 3614 396 
Q 3106 -91 2203 -91 
Q 1297 -91 786 396 
Q 275 884 275 1747 
Q 275 2609 786 3096 
Q 1297 3584 2203 3584 
z
M 2694 5119 
L 3578 5119 
L 2425 3944 
L 1813 3944 
L 2694 5119 
z
" transform="scale(0.015625)"/>
      <path id="DejaVuSans-Bold-6e" d="M 4056 2131 
L 4056 0 
L 2931 0 
L 2931 347 
L 2931 1631 
Q 2931 2084 2911 2256 
Q 2891 2428 2841 2509 
Q 2775 2619 2662 2680 
Q 2550 2741 2406 2741 
Q 2056 2741 1856 2470 
Q 1656 2200 1656 1722 
L 1656 0 
L 538 0 
L 538 3500 
L 1656 3500 
L 1656 2988 
Q 1909 3294 2193 3439 
Q 2478 3584 2822 3584 
Q 3428 3584 3742 3212 
Q 4056 2841 4056 2131 
z
" transform="scale(0.015625)"/>
     </defs>
     <use xlink:href="#DejaVuSans-Bold-44"/>
     <use xlink:href="#DejaVuSans-Bold-65" transform="translate(83.007812 0)"/>
     <use xlink:href="#DejaVuSans-Bold-6d" transform="translate(150.830078 0)"/>
     <use xlink:href="#DejaVuSans-Bold-6f" transform="translate(255.029297 0)"/>
     <use xlink:href="#DejaVuSans-Bold-73" transform="translate(323.730469 0)"/>
     <use xlink:href="#DejaVuSans-Bold-74" transform="translate(383.251953 0)"/>
     <use xlink:href="#DejaVuSans-Bold-72" transform="translate(431.054688 0)"/>
     <use xlink:href="#DejaVuSans-Bold-61" transform="translate(480.371094 0)"/>
     <use xlink:href="#DejaVuSans-Bold-63" transform="translate(547.851562 0)"/>
     <use xlink:href="#DejaVuSans-Bold-69" transform="translate(607.128906 0)"/>
     <use xlink:href="#DejaVuSans-Bold-f3" transform="translate(641.40625 0)"/>
     <use xlink:href="#DejaVuSans-Bold-6e" transform="translate(710.107422 0)"/>
     <use xlink:href="#DejaVuSans-Bold-3a" transform="translate(781.298828 0)"/>
    </g>
   </g>
   <g id="text_16">
    <!-- α + β + γ = 180° (suma interior) -->
    <g style="fill: #6b7280" transform="translate(415.977419 384.812099) scale(0.09 -0.09)">
     <defs>
      <path id="DejaVuSans-3b1" d="M 2644 1628 
L 2506 2350 
Q 2366 3091 1809 3091 
Q 1391 3091 1200 2747 
Q 959 2316 959 1747 
Q 959 1059 1194 731 
Q 1431 397 1809 397 
Q 2228 397 2453 1063 
L 2644 1628 
z
M 2966 2584 
L 3275 3500 
L 3788 3500 
L 3147 1603 
L 3272 919 
Q 3300 766 3409 638 
Q 3538 488 3638 488 
L 3913 488 
L 3913 0 
L 3569 0 
Q 3275 0 3013 263 
Q 2884 394 2831 669 
Q 2688 322 2394 50 
Q 2256 -78 1809 -78 
Q 1075 -78 719 397 
Q 353 888 353 1747 
Q 353 2666 750 3097 
Q 1191 3578 1809 3578 
Q 2781 3578 2966 2584 
z
" transform="scale(0.015625)"/>
      <path id="DejaVuSans-2b" d="M 2944 4013 
L 2944 2272 
L 4684 2272 
L 4684 1741 
L 2944 1741 
L 2944 0 
L 2419 0 
L 2419 1741 
L 678 1741 
L 678 2272 
L 2419 2272 
L 2419 4013 
L 2944 4013 
z
" transform="scale(0.015625)"/>
      <path id="DejaVuSans-3b2" d="M 1178 216 
L 1178 -1331 
L 600 -1331 
L 600 3478 
Q 600 4903 1931 4903 
Q 3288 4903 3288 3700 
Q 3288 2844 2750 2531 
Q 3625 2250 3625 1416 
Q 3625 -66 2119 -66 
Q 1456 -66 1178 216 
z
M 1178 966 
Q 1525 425 2141 425 
Q 3041 425 3041 1406 
Q 3041 2288 1591 2219 
L 1591 2750 
Q 2725 2750 2725 3750 
Q 2725 4434 1994 4434 
Q 1178 4434 1178 3459 
L 1178 966 
z
" transform="scale(0.015625)"/>
      <path id="DejaVuSans-3d" d="M 678 2906 
L 4684 2906 
L 4684 2381 
L 678 2381 
L 678 2906 
z
M 678 1631 
L 4684 1631 
L 4684 1100 
L 678 1100 
L 678 1631 
z
" transform="scale(0.015625)"/>
      <path id="DejaVuSans-31" d="M 794 531 
L 1825 531 
L 1825 4091 
L 703 3866 
L 703 4441 
L 1819 4666 
L 2450 4666 
L 2450 531 
L 3481 531 
L 3481 0 
L 794 0 
L 794 531 
z
" transform="scale(0.015625)"/>
      <path id="DejaVuSans-38" d="M 2034 2216 
Q 1584 2216 1326 1975 
Q 1069 1734 1069 1313 
Q 1069 891 1326 650 
Q 1584 409 2034 409 
Q 2484 409 2743 651 
Q 3003 894 3003 1313 
Q 3003 1734 2745 1975 
Q 2488 2216 2034 2216 
z
M 1403 2484 
Q 997 2584 770 2862 
Q 544 3141 544 3541 
Q 544 4100 942 4425 
Q 1341 4750 2034 4750 
Q 2731 4750 3128 4425 
Q 3525 4100 3525 3541 
Q 3525 3141 3298 2862 
Q 3072 2584 2669 2484 
Q 3125 2378 3379 2068 
Q 3634 1759 3634 1313 
Q 3634 634 3220 271 
Q 2806 -91 2034 -91 
Q 1263 -91 848 271 
Q 434 634 434 1313 
Q 434 1759 690 2068 
Q 947 2378 1403 2484 
z
M 1172 3481 
Q 1172 3119 1398 2916 
Q 1625 2713 2034 2713 
Q 2441 2713 2670 2916 
Q 2900 3119 2900 3481 
Q 2900 3844 2670 4047 
Q 2441 4250 2034 4250 
Q 1625 4250 1398 4047 
Q 1172 3844 1172 3481 
z
" transform="scale(0.015625)"/>
      <path id="DejaVuSans-30" d="M 2034 4250 
Q 1547 4250 1301 3770 
Q 1056 3291 1056 2328 
Q 1056 1369 1301 889 
Q 1547 409 2034 409 
Q 2525 409 2770 889 
Q 3016 1369 3016 2328 
Q 3016 3291 2770 3770 
Q 2525 4250 2034 4250 
z
M 2034 4750 
Q 2819 4750 3233 4129 
Q 3647 3509 3647 2328 
Q 3647 1150 3233 529 
Q 2819 -91 2034 -91 
Q 1250 -91 836 529 
Q 422 1150 422 2328 
Q 422 3509 836 4129 
Q 1250 4750 2034 4750 
z
" transform="scale(0.015625)"/>
      <path id="DejaVuSans-b0" d="M 1600 4347 
Q 1350 4347 1178 4173 
Q 1006 4000 1006 3750 
Q 1006 3503 1178 3333 
Q 1350 3163 1600 3163 
Q 1850 3163 2022 3333 
Q 2194 3503 2194 3750 
Q 2194 3997 2020 4172 
Q 1847 4347 1600 4347 
z
M 1600 4750 
Q 1800 4750 1984 4673 
Q 2169 4597 2303 4453 
Q 2447 4313 2519 4134 
Q 2591 3956 2591 3750 
Q 2591 3338 2302 3052 
Q 2013 2766 1594 2766 
Q 1172 2766 890 3047 
Q 609 3328 609 3750 
Q 609 4169 896 4459 
Q 1184 4750 1600 4750 
z
" transform="scale(0.015625)"/>
      <path id="DejaVuSans-28" d="M 1984 4856 
Q 1566 4138 1362 3434 
Q 1159 2731 1159 2009 
Q 1159 1288 1364 580 
Q 1569 -128 1984 -844 
L 1484 -844 
Q 1016 -109 783 600 
Q 550 1309 550 2009 
Q 550 2706 781 3412 
Q 1013 4119 1484 4856 
L 1984 4856 
z
" transform="scale(0.015625)"/>
      <path id="DejaVuSans-29" d="M 513 4856 
L 1013 4856 
Q 1481 4119 1714 3412 
Q 1947 2706 1947 2009 
Q 1947 1309 1714 600 
Q 1481 -109 1013 -844 
L 513 -844 
Q 928 -128 1133 580 
Q 1338 1288 1338 2009 
Q 1338 2731 1133 3434 
Q 928 4138 513 4856 
z
" transform="scale(0.015625)"/>
     </defs>
     <use xlink:href="#DejaVuSans-3b1"/>
     <use xlink:href="#DejaVuSans-20" transform="translate(65.917969 0)"/>
     <use xlink:href="#DejaVuSans-2b" transform="translate(97.705078 0)"/>
     <use xlink:href="#DejaVuSans-20" transform="translate(181.494141 0)"/>
     <use xlink:href="#DejaVuSans-3b2" transform="translate(213.28125 0)"/>
     <use xlink:href="#DejaVuSans-20" transform="translate(277.099609 0)"/>
     <use xlink:href="#DejaVuSans-2b" transform="translate(308.886719 0)"/>
     <use xlink:href="#DejaVuSans-20" transform="translate(392.675781 0)"/>
     <use xlink:href="#DejaVuSans-3b3" transform="translate(424.462891 0)"/>
     <use xlink:href="#DejaVuSans-20" transform="translate(483.642578 0)"/>
     <use xlink:href="#DejaVuSans-3d" transform="translate(515.429688 0)"/>
     <use xlink:href="#DejaVuSans-20" transform="translate(599.21875 0)"/>
     <use xlink:href="#DejaVuSans-31" transform="translate(631.005859 0)"/>
     <use xlink:href="#DejaVuSans-38" transform="translate(694.628906 0)"/>
     <use xlink:href="#DejaVuSans-30" transform="translate(758.251953 0)"/>
     <use xlink:href="#DejaVuSans-b0" transform="translate(821.875 0)"/>
     <use xlink:href="#DejaVuSans-20" transform="translate(871.875 0)"/>
     <use xlink:href="#DejaVuSans-28" transform="translate(903.662109 0)"/>
     <use xlink:href="#DejaVuSans-73" transform="translate(942.675781 0)"/>
     <use xlink:href="#DejaVuSans-75" transform="translate(994.775391 0)"/>
     <use xlink:href="#DejaVuSans-6d" transform="translate(1058.154297 0)"/>
     <use xlink:href="#DejaVuSans-61" transform="translate(1155.566406 0)"/>
     <use xlink:href="#DejaVuSans-20" transform="translate(1216.845703 0)"/>
     <use xlink:href="#DejaVuSans-69" transform="translate(1248.632812 0)"/>
     <use xlink:href="#DejaVuSans-6e" transform="translate(1276.416016 0)"/>
     <use xlink:href="#DejaVuSans-74" transform="translate(1339.794922 0)"/>
     <use xlink:href="#DejaVuSans-65" transform="translate(1379.003906 0)"/>
     <use xlink:href="#DejaVuSans-72" transform="translate(1440.527344 0)"/>
     <use xlink:href="#DejaVuSans-69" transform="translate(1481.640625 0)"/>
     <use xlink:href="#DejaVuSans-6f" transform="translate(1509.423828 0)"/>
     <use xlink:href="#DejaVuSans-72" transform="translate(1570.605469 0)"/>
     <use xlink:href="#DejaVuSans-29" transform="translate(1611.71875 0)"/>
    </g>
   </g>
   <g id="text_17">
    <!-- θ + γ = 180° (ángulos suplementarios) -->
    <g style="fill: #6b7280" transform="translate(415.977419 410.360688) scale(0.09 -0.09)">
     <defs>
      <path id="DejaVuSans-3b8" d="M 2953 2219 
L 963 2219 
Q 1009 1284 1225 888 
Q 1494 400 1959 400 
Q 2428 400 2688 891 
Q 2916 1322 2953 2219 
z
M 2944 2750 
Q 2856 3638 2688 3950 
Q 2419 4444 1959 4444 
Q 1481 4444 1228 3956 
Q 1028 3563 969 2750 
L 2944 2750 
z
M 1959 4913 
Q 2709 4913 3138 4250 
Q 3566 3591 3566 2422 
Q 3566 1256 3138 594 
Q 2709 -72 1959 -72 
Q 1206 -72 781 594 
Q 353 1256 353 2422 
Q 353 3591 781 4250 
Q 1206 4913 1959 4913 
z
" transform="scale(0.015625)"/>
      <path id="DejaVuSans-70" d="M 1159 525 
L 1159 -1331 
L 581 -1331 
L 581 3500 
L 1159 3500 
L 1159 2969 
Q 1341 3281 1617 3432 
Q 1894 3584 2278 3584 
Q 2916 3584 3314 3078 
Q 3713 2572 3713 1747 
Q 3713 922 3314 415 
Q 2916 -91 2278 -91 
Q 1894 -91 1617 61 
Q 1341 213 1159 525 
z
M 3116 1747 
Q 3116 2381 2855 2742 
Q 2594 3103 2138 3103 
Q 1681 3103 1420 2742 
Q 1159 2381 1159 1747 
Q 1159 1113 1420 752 
Q 1681 391 2138 391 
Q 2594 391 2855 752 
Q 3116 1113 3116 1747 
z
" transform="scale(0.015625)"/>
     </defs>
     <use xlink:href="#DejaVuSans-3b8"/>
     <use xlink:href="#DejaVuSans-20" transform="translate(61.181641 0)"/>
     <use xlink:href="#DejaVuSans-2b" transform="translate(92.96875 0)"/>
     <use xlink:href="#DejaVuSans-20" transform="translate(176.757812 0)"/>
     <use xlink:href="#DejaVuSans-3b3" transform="translate(208.544922 0)"/>
     <use xlink:href="#DejaVuSans-20" transform="translate(267.724609 0)"/>
     <use xlink:href="#DejaVuSans-3d" transform="translate(299.511719 0)"/>
     <use xlink:href="#DejaVuSans-20" transform="translate(383.300781 0)"/>
     <use xlink:href="#DejaVuSans-31" transform="translate(415.087891 0)"/>
     <use xlink:href="#DejaVuSans-38" transform="translate(478.710938 0)"/>
     <use xlink:href="#DejaVuSans-30" transform="translate(542.333984 0)"/>
     <use xlink:href="#DejaVuSans-b0" transform="translate(605.957031 0)"/>
     <use xlink:href="#DejaVuSans-20" transform="translate(655.957031 0)"/>
     <use xlink:href="#DejaVuSans-28" transform="translate(687.744141 0)"/>
     <use xlink:href="#DejaVuSans-e1" transform="translate(726.757812 0)"/>
     <use xlink:href="#DejaVuSans-6e" transform="translate(788.037109 0)"/>
     <use xlink:href="#DejaVuSans-67" transform="translate(851.416016 0)"/>
     <use xlink:href="#DejaVuSans-75" transform="translate(914.892578 0)"/>
     <use xlink:href="#DejaVuSans-6c" transform="translate(978.271484 0)"/>
     <use xlink:href="#DejaVuSans-6f" transform="translate(1006.054688 0)"/>
     <use xlink:href="#DejaVuSans-73" transform="translate(1067.236328 0)"/>
     <use xlink:href="#DejaVuSans-20" transform="translate(1119.335938 0)"/>
     <use xlink:href="#DejaVuSans-73" transform="translate(1151.123047 0)"/>
     <use xlink:href="#DejaVuSans-75" transform="translate(1203.222656 0)"/>
     <use xlink:href="#DejaVuSans-70" transform="translate(1266.601562 0)"/>
     <use xlink:href="#DejaVuSans-6c" transform="translate(1330.078125 0)"/>
     <use xlink:href="#DejaVuSans-65" transform="translate(1357.861328 0)"/>
     <use xlink:href="#DejaVuSans-6d" transform="translate(1419.384766 0)"/>
     <use xlink:href="#DejaVuSans-65" transform="translate(1516.796875 0)"/>
     <use xlink:href="#DejaVuSans-6e" transform="translate(1578.320312 0)"/>
     <use xlink:href="#DejaVuSans-74" transform="translate(1641.699219 0)"/>
     <use xlink:href="#DejaVuSans-61" transform="translate(1680.908203 0)"/>
     <use xlink:href="#DejaVuSans-72" transform="translate(1742.1875 0)"/>
     <use xlink:href="#DejaVuSans-69" transform="translate(1783.300781 0)"/>
     <use xlink:href="#DejaVuSans-6f" transform="translate(1811.083984 0)"/>
     <use xlink:href="#DejaVuSans-73" transform="translate(1872.265625 0)"/>
     <use xlink:href="#DejaVuSans-29" transform="translate(1924.365234 0)"/>
    </g>
   </g>
   <g id="text_18">
    <!-- ∴ θ = α + β -->
    <g style="fill: #7c3aed" transform="translate(415.977419 435.909276) scale(0.1 -0.1)">
     <defs>
      <path id="DejaVuSans-Bold-2234" d="M 1661 4172 
L 2786 4172 
L 2786 2963 
L 1661 2963 
L 1661 4172 
z
M 2949 1740 
L 4074 1740 
L 4074 531 
L 2949 531 
L 2949 1740 
z
M 381 1740 
L 1506 1740 
L 1506 531 
L 381 531 
L 381 1740 
z
" transform="scale(0.015625)"/>
     </defs>
     <use xlink:href="#DejaVuSans-Bold-2234"/>
     <use xlink:href="#DejaVuSans-Bold-20" transform="translate(69.580078 0)"/>
     <use xlink:href="#DejaVuSans-Bold-3b8" transform="translate(104.394531 0)"/>
     <use xlink:href="#DejaVuSans-Bold-20" transform="translate(173.095703 0)"/>
     <use xlink:href="#DejaVuSans-Bold-3d" transform="translate(207.910156 0)"/>
     <use xlink:href="#DejaVuSans-Bold-20" transform="translate(291.699219 0)"/>
     <use xlink:href="#DejaVuSans-Bold-3b1" transform="translate(326.513672 0)"/>
     <use xlink:href="#DejaVuSans-Bold-20" transform="translate(395.214844 0)"/>
     <use xlink:href="#DejaVuSans-Bold-2b" transform="translate(430.029297 0)"/>
     <use xlink:href="#DejaVuSans-Bold-20" transform="translate(513.818359 0)"/>
     <use xlink:href="#DejaVuSans-Bold-3b2" transform="translate(548.632812 0)"/>
    </g>
   </g>
   <g id="text_19">
    <!-- Ángulo Exterior del Triángulo -->
    <g style="fill: #1f2937" transform="translate(245.280737 20.620886) scale(0.14 -0.14)">
     <defs>
      <path id="DejaVuSans-Bold-c1" d="M 3419 850 
L 1538 850 
L 1241 0 
L 31 0 
L 1759 4666 
L 3194 4666 
L 4922 0 
L 3713 0 
L 3419 850 
z
M 1838 1716 
L 3116 1716 
L 2478 3572 
L 1838 1716 
z
M 2559 5921 
L 3444 5921 
L 2553 5096 
L 1941 5096 
L 2559 5921 
z
" transform="scale(0.015625)"/>
      <path id="DejaVuSans-Bold-67" d="M 2919 594 
Q 2688 288 2409 144 
Q 2131 0 1766 0 
Q 1125 0 706 504 
Q 288 1009 288 1791 
Q 288 2575 706 3076 
Q 1125 3578 1766 3578 
Q 2131 3578 2409 3434 
Q 2688 3291 2919 2981 
L 2919 3500 
L 4044 3500 
L 4044 353 
Q 4044 -491 3511 -936 
Q 2978 -1381 1966 -1381 
Q 1638 -1381 1331 -1331 
Q 1025 -1281 716 -1178 
L 716 -306 
Q 1009 -475 1290 -558 
Q 1572 -641 1856 -641 
Q 2406 -641 2662 -400 
Q 2919 -159 2919 353 
L 2919 594 
z
M 2181 2772 
Q 1834 2772 1640 2515 
Q 1447 2259 1447 1791 
Q 1447 1309 1634 1061 
Q 1822 813 2181 813 
Q 2531 813 2725 1069 
Q 2919 1325 2919 1791 
Q 2919 2259 2725 2515 
Q 2531 2772 2181 2772 
z
" transform="scale(0.015625)"/>
      <path id="DejaVuSans-Bold-75" d="M 500 1363 
L 500 3500 
L 1625 3500 
L 1625 3150 
Q 1625 2866 1622 2436 
Q 1619 2006 1619 1863 
Q 1619 1441 1641 1255 
Q 1663 1069 1716 984 
Q 1784 875 1895 815 
Q 2006 756 2150 756 
Q 2500 756 2700 1025 
Q 2900 1294 2900 1772 
L 2900 3500 
L 4019 3500 
L 4019 0 
L 2900 0 
L 2900 506 
Q 2647 200 2364 54 
Q 2081 -91 1741 -91 
Q 1134 -91 817 281 
Q 500 653 500 1363 
z
" transform="scale(0.015625)"/>
      <path id="DejaVuSans-Bold-6c" d="M 538 4863 
L 1656 4863 
L 1656 0 
L 538 0 
L 538 4863 
z
" transform="scale(0.015625)"/>
      <path id="DejaVuSans-Bold-78" d="M 1422 1791 
L 159 3500 
L 1344 3500 
L 2059 2463 
L 2784 3500 
L 3969 3500 
L 2706 1797 
L 4031 0 
L 2847 0 
L 2059 1106 
L 1281 0 
L 97 0 
L 1422 1791 
z
" transform="scale(0.015625)"/>
      <path id="DejaVuSans-Bold-64" d="M 2919 2988 
L 2919 4863 
L 4044 4863 
L 4044 0 
L 2919 0 
L 2919 506 
Q 2688 197 2409 53 
Q 2131 -91 1766 -91 
Q 1119 -91 703 423 
Q 288 938 288 1747 
Q 288 2556 703 3070 
Q 1119 3584 1766 3584 
Q 2128 3584 2408 3439 
Q 2688 3294 2919 2988 
z
M 2181 722 
Q 2541 722 2730 984 
Q 2919 1247 2919 1747 
Q 2919 2247 2730 2509 
Q 2541 2772 2181 2772 
Q 1825 2772 1636 2509 
Q 1447 2247 1447 1747 
Q 1447 1247 1636 984 
Q 1825 722 2181 722 
z
" transform="scale(0.015625)"/>
      <path id="DejaVuSans-Bold-54" d="M 31 4666 
L 4331 4666 
L 4331 3756 
L 2784 3756 
L 2784 0 
L 1581 0 
L 1581 3756 
L 31 3756 
L 31 4666 
z
" transform="scale(0.015625)"/>
      <path id="DejaVuSans-Bold-e1" d="M 2106 1575 
Q 1756 1575 1579 1456 
Q 1403 1338 1403 1106 
Q 1403 894 1545 773 
Q 1688 653 1941 653 
Q 2256 653 2472 879 
Q 2688 1106 2688 1447 
L 2688 1575 
L 2106 1575 
z
M 3816 1997 
L 3816 0 
L 2688 0 
L 2688 519 
Q 2463 200 2181 54 
Q 1900 -91 1497 -91 
Q 953 -91 614 226 
Q 275 544 275 1050 
Q 275 1666 698 1953 
Q 1122 2241 2028 2241 
L 2688 2241 
L 2688 2328 
Q 2688 2594 2478 2717 
Q 2269 2841 1825 2841 
Q 1466 2841 1156 2769 
Q 847 2697 581 2553 
L 581 3406 
Q 941 3494 1303 3539 
Q 1666 3584 2028 3584 
Q 2975 3584 3395 3211 
Q 3816 2838 3816 1997 
z
M 2606 5119 
L 3490 5119 
L 2337 3944 
L 1725 3944 
L 2606 5119 
z
" transform="scale(0.015625)"/>
     </defs>
     <use xlink:href="#DejaVuSans-Bold-c1"/>
     <use xlink:href="#DejaVuSans-Bold-6e" transform="translate(77.392578 0)"/>
     <use xlink:href="#DejaVuSans-Bold-67" transform="translate(148.583984 0)"/>
     <use xlink:href="#DejaVuSans-Bold-75" transform="translate(220.166016 0)"/>
     <use xlink:href="#DejaVuSans-Bold-6c" transform="translate(291.357422 0)"/>
     <use xlink:href="#DejaVuSans-Bold-6f" transform="translate(325.634766 0)"/>
     <use xlink:href="#DejaVuSans-Bold-20" transform="translate(394.335938 0)"/>
     <use xlink:href="#DejaVuSans-Bold-45" transform="translate(429.150391 0)"/>
     <use xlink:href="#DejaVuSans-Bold-78" transform="translate(497.460938 0)"/>
     <use xlink:href="#DejaVuSans-Bold-74" transform="translate(561.962891 0)"/>
     <use xlink:href="#DejaVuSans-Bold-65" transform="translate(609.765625 0)"/>
     <use xlink:href="#DejaVuSans-Bold-72" transform="translate(677.587891 0)"/>
     <use xlink:href="#DejaVuSans-Bold-69" transform="translate(726.904297 0)"/>
     <use xlink:href="#DejaVuSans-Bold-6f" transform="translate(761.181641 0)"/>
     <use xlink:href="#DejaVuSans-Bold-72" transform="translate(829.882812 0)"/>
     <use xlink:href="#DejaVuSans-Bold-20" transform="translate(879.199219 0)"/>
     <use xlink:href="#DejaVuSans-Bold-64" transform="translate(914.013672 0)"/>
     <use xlink:href="#DejaVuSans-Bold-65" transform="translate(985.595703 0)"/>
     <use xlink:href="#DejaVuSans-Bold-6c" transform="translate(1053.417969 0)"/>
     <use xlink:href="#DejaVuSans-Bold-20" transform="translate(1087.695312 0)"/>
     <use xlink:href="#DejaVuSans-Bold-54" transform="translate(1122.509766 0)"/>
     <use xlink:href="#DejaVuSans-Bold-72" transform="translate(1179.722656 0)"/>
     <use xlink:href="#DejaVuSans-Bold-69" transform="translate(1229.039062 0)"/>
     <use xlink:href="#DejaVuSans-Bold-e1" transform="translate(1263.316406 0)"/>
     <use xlink:href="#DejaVuSans-Bold-6e" transform="translate(1330.796875 0)"/>
     <use xlink:href="#DejaVuSans-Bold-67" transform="translate(1401.988281 0)"/>
     <use xlink:href="#DejaVuSans-Bold-75" transform="translate(1473.570312 0)"/>
     <use xlink:href="#DejaVuSans-Bold-6c" transform="translate(1544.761719 0)"/>
     <use xlink:href="#DejaVuSans-Bold-6f" transform="translate(1579.039062 0)"/>
    </g>
   </g>
  </g>
 </g>
 <defs>
  <clipPath id="p808f025900">
   <rect x="7.2" y="35.648054" width="706.844287" height="451.3584"/>
  </clipPath>
 </defs>
</svg>
