<?xml version="1.0" encoding="utf-8" standalone="no"?>
<!DOCTYPE svg PUBLIC "-//W3C//DTD SVG 1.1//EN"
  "http://www.w3.org/Graphics/SVG/1.1/DTD/svg11.dtd">
<svg xmlns:xlink="http://www.w3.org/1999/xlink" width="728.39952pt" height="592.597435pt" viewBox="0 0 728.39952 592.597435" xmlns="http://www.w3.org/2000/svg" version="1.1">
 <metadata>
  <rdf:RDF xmlns:dc="http://purl.org/dc/elements/1.1/" xmlns:cc="http://creativecommons.org/ns#" xmlns:rdf="http://www.w3.org/1999/02/22-rdf-syntax-ns#">
   <cc:Work>
    <dc:type rdf:resource="http://purl.org/dc/dcmitype/StillImage"/>
    <dc:date>2026-01-03T21:57:07.540090</dc:date>
    <dc:format>image/svg+xml</dc:format>
    <dc:creator>
     <cc:Agent>
      <dc:title>Repositorio Matemáticas Universitarias</dc:title>
     </cc:Agent>
    </dc:creator>
   </cc:Work>
  </rdf:RDF>
 </metadata>
 <defs>
  <style type="text/css">*{stroke-linejoin: round; stroke-linecap: butt}</style>
 </defs>
 <g id="figure_1">
  <g id="patch_1">
   <path d="M 0 592.597435 
L 728.39952 592.597435 
L 728.39952 0 
L 0 0 
z
" style="fill: #ffffff"/>
  </g>
  <g id="axes_1">
   <g id="patch_2">
    <path d="M 109.199931 483.397504 
L 517.199657 483.397504 
L 313.199794 130.059377 
z
" clip-path="url(#p979f107c44)" style="fill: #2563eb; opacity: 0.15; stroke: #2563eb; stroke-width: 2.5; stroke-linejoin: miter"/>
   </g>
   <g id="line2d_1">
    <path d="M 313.199794 483.397504 
L 313.199794 130.059377 
" clip-path="url(#p979f107c44)" style="fill: none; stroke-dasharray: 7.4,3.2; stroke-dashoffset: 0; stroke: #dc2626; stroke-width: 2"/>
   </g>
   <g id="line2d_2">
    <path d="M 297.899805 483.397504 
L 297.899805 468.097514 
L 313.199794 468.097514 
" clip-path="url(#p979f107c44)" style="fill: none; stroke: #dc2626; stroke-width: 1.5; stroke-linecap: square"/>
   </g>
   <g id="line2d_3">
    <defs>
     <path id="mbe9bf2452b" d="M 0 3 
C 0.795609 3 1.55874 2.683901 2.12132 2.12132 
C 2.683901 1.55874 3 0.795609 3 0 
C 3 -0.795609 2.683901 -1.55874 2.12132 -2.12132 
C 1.55874 -2.683901 0.795609 -3 0 -3 
C -0.795609 -3 -1.55874 -2.683901 -2.12132 -2.12132 
C -2.683901 -1.55874 -3 -0.795609 -3 0 
C -3 0.795609 -2.683901 1.55874 -2.12132 2.12132 
C -1.55874 2.683901 -0.795609 3 0 3 
z
" style="stroke: #dc2626"/>
    </defs>
    <g clip-path="url(#p979f107c44)">
     <use xlink:href="#mbe9bf2452b" x="313.199794" y="483.397504" style="fill: #dc2626; stroke: #dc2626"/>
    </g>
   </g>
   <g id="line2d_4">
    <defs>
     <path id="m87aac35f7a" d="M 0 4 
C 1.060812 4 2.078319 3.578535 2.828427 2.828427 
C 3.578535 2.078319 4 1.060812 4 0 
C 4 -1.060812 3.578535 -2.078319 2.828427 -2.828427 
C 2.078319 -3.578535 1.060812 -4 0 -4 
C -1.060812 -4 -2.078319 -3.578535 -2.828427 -2.828427 
C -3.578535 -2.078319 -4 -1.060812 -4 0 
C -4 1.060812 -3.578535 2.078319 -2.828427 2.828427 
C -2.078319 3.578535 -1.060812 4 0 4 
z
" style="stroke: #374151"/>
    </defs>
    <g clip-path="url(#p979f107c44)">
     <use xlink:href="#m87aac35f7a" x="313.199794" y="365.618128" style="fill: #374151; stroke: #374151"/>
    </g>
   </g>
   <g id="line2d_5">
    <path d="M 430.97917 365.618128 
L 430.742042 358.148099 
L 430.031613 350.708148 
L 428.850743 343.328235 
L 427.204188 336.038075 
L 425.098577 328.867024 
L 422.54239 321.843956 
L 419.545918 314.997152 
L 416.121228 308.35418 
L 412.28211 301.94179 
L 408.044023 295.785802 
L 403.424031 289.911005 
L 398.440737 284.341053 
L 393.114209 279.098375 
L 387.465894 274.204082 
L 381.518535 269.677881 
L 375.296081 265.537998 
L 368.823587 261.801101 
L 362.127115 258.48224 
L 355.233631 255.594776 
L 348.170891 253.150338 
L 340.967335 251.158768 
L 333.651968 249.628086 
L 326.254248 248.564454 
L 318.803963 247.972157 
L 311.331111 247.853578 
L 303.865784 248.209195 
L 296.438041 249.037577 
L 289.077793 250.335387 
L 281.814675 252.0974 
L 274.677934 254.316522 
L 267.696307 256.983815 
L 260.897906 260.088541 
L 254.310106 263.618197 
L 247.959435 267.55857 
L 241.871463 271.893795 
L 236.070706 276.606415 
L 230.58052 281.677454 
L 225.423013 287.086492 
L 220.618951 292.811749 
L 216.187681 298.830171 
L 212.147043 305.117526 
L 208.51331 311.648495 
L 205.301112 318.39678 
L 202.523384 325.335209 
L 200.191311 332.435844 
L 198.314283 339.670091 
L 196.899858 347.008822 
L 195.953733 354.422487 
L 195.479715 361.881232 
L 195.479715 369.355024 
L 195.953733 376.81377 
L 196.899858 384.227434 
L 198.314283 391.566165 
L 200.191311 398.800413 
L 202.523384 405.901047 
L 205.301112 412.839476 
L 208.51331 419.587762 
L 212.147043 426.118731 
L 216.187681 432.406085 
L 220.618951 438.424508 
L 225.423013 444.149765 
L 230.58052 449.558803 
L 236.070706 454.629841 
L 241.871463 459.342461 
L 247.959435 463.677686 
L 254.310106 467.61806 
L 260.897906 471.147716 
L 267.696307 474.252441 
L 274.677934 476.919735 
L 281.814675 479.138856 
L 289.077793 480.900869 
L 296.438041 482.19868 
L 303.865784 483.027061 
L 311.331111 483.382679 
L 318.803963 483.2641 
L 326.254248 482.671802 
L 333.651968 481.608171 
L 340.967335 480.077488 
L 348.170891 478.085918 
L 355.233631 475.64148 
L 362.127115 472.754017 
L 368.823587 469.435155 
L 375.296081 465.698259 
L 381.518535 461.558375 
L 387.465894 457.032174 
L 393.114209 452.137881 
L 398.440737 446.895203 
L 403.424031 441.325252 
L 408.044023 435.450454 
L 412.28211 429.294466 
L 416.121228 422.882076 
L 419.545918 416.239105 
L 422.54239 409.3923 
L 425.098577 402.369233 
L 427.204188 395.198181 
L 428.850743 387.908022 
L 430.031613 380.528108 
L 430.742042 373.088158 
L 430.97917 365.618128 
" clip-path="url(#p979f107c44)" style="fill: none; stroke: #059669; stroke-width: 2; stroke-linecap: square"/>
   </g>
   <g id="line2d_6">
    <path d="M 313.199794 365.618128 
L 313.199794 483.397504 
" clip-path="url(#p979f107c44)" style="fill: none; stroke: #059669; stroke-width: 1.5; stroke-linecap: square"/>
   </g>
   <g id="line2d_7">
    <path d="M 548.758546 365.618128 
L 548.28429 350.678069 
L 546.863432 335.798168 
L 544.501692 321.038341 
L 541.208582 306.458022 
L 536.997361 292.115919 
L 531.884985 278.069784 
L 525.892042 264.376175 
L 519.042663 251.090232 
L 511.364426 238.265452 
L 502.888251 225.953477 
L 493.648267 214.203881 
L 483.681681 203.063978 
L 473.028624 192.578622 
L 461.731993 182.790036 
L 449.837276 173.737634 
L 437.392367 165.457867 
L 424.447379 157.984074 
L 411.054436 151.346351 
L 397.267467 145.571425 
L 383.141987 140.682548 
L 368.734875 136.699408 
L 354.104142 133.638043 
L 339.308702 131.51078 
L 324.408131 130.326185 
L 309.462428 130.089027 
L 294.531773 130.800262 
L 279.676289 132.457025 
L 264.955791 135.052646 
L 250.429555 138.576673 
L 236.156073 143.014915 
L 222.192819 148.349502 
L 208.596017 154.558953 
L 195.420419 161.618265 
L 182.719076 169.499013 
L 170.543133 178.169463 
L 158.941617 187.594702 
L 147.961246 197.736779 
L 137.646231 208.554855 
L 128.038109 220.005369 
L 119.175567 232.042215 
L 111.094293 244.616923 
L 103.826826 257.678861 
L 97.40243 271.175432 
L 91.846974 285.05229 
L 87.182827 299.253559 
L 83.428772 313.722054 
L 80.599923 328.399517 
L 78.707671 343.226845 
L 77.759637 358.144336 
L 77.759637 373.091921 
L 78.707671 388.009411 
L 80.599923 402.83674 
L 83.428772 417.514202 
L 87.182827 431.982698 
L 91.846974 446.183966 
L 97.40243 460.060825 
L 103.826826 473.557396 
L 111.094293 486.619333 
L 119.175567 499.194042 
L 128.038109 511.230887 
L 137.646231 522.681401 
L 147.961246 533.499477 
L 158.941617 543.641554 
L 170.543133 553.066794 
L 182.719076 561.737244 
L 195.420419 569.617991 
L 208.596017 576.677303 
L 222.192819 582.886754 
L 236.156073 588.221341 
L 250.429555 592.659584 
L 254.295433 593.597435 
M 372.132752 593.597435 
L 383.141987 590.553708 
L 397.267467 585.664832 
L 411.054436 579.889905 
L 424.447379 573.252182 
L 437.392367 565.77839 
L 449.837276 557.498622 
L 461.731993 548.44622 
L 473.028624 538.657634 
L 483.681681 528.172279 
L 493.648267 517.032375 
L 502.888251 505.28278 
L 511.364426 492.970804 
L 519.042663 480.146024 
L 525.892042 466.860081 
L 531.884985 453.166472 
L 536.997361 439.120337 
L 541.208582 424.778234 
L 544.501692 410.197915 
L 546.863432 395.438089 
L 548.28429 380.558188 
L 548.758546 365.618128 
" clip-path="url(#p979f107c44)" style="fill: none; stroke-dasharray: 7.4,3.2; stroke-dashoffset: 0; stroke: #7c3aed; stroke-width: 2"/>
   </g>
   <g id="line2d_8">
    <path d="M 313.199794 365.618128 
L 313.199794 130.059377 
" clip-path="url(#p979f107c44)" style="fill: none; stroke: #7c3aed; stroke-width: 1.5; stroke-linecap: square"/>
   </g>
   <g id="line2d_9">
    <defs>
     <path id="m9ac8677ce2" d="M 0 4 
C 1.060812 4 2.078319 3.578535 2.828427 2.828427 
C 3.578535 2.078319 4 1.060812 4 0 
C 4 -1.060812 3.578535 -2.078319 2.828427 -2.828427 
C 2.078319 -3.578535 1.060812 -4 0 -4 
C -1.060812 -4 -2.078319 -3.578535 -2.828427 -2.828427 
C -3.578535 -2.078319 -4 -1.060812 -4 0 
C -4 1.060812 -3.578535 2.078319 -2.828427 2.828427 
C -2.078319 3.578535 -1.060812 4 0 4 
z
" style="stroke: #2563eb"/>
    </defs>
    <g clip-path="url(#p979f107c44)">
     <use xlink:href="#m9ac8677ce2" x="109.199931" y="483.397504" style="fill: #2563eb; stroke: #2563eb"/>
    </g>
   </g>
   <g id="line2d_10">
    <g clip-path="url(#p979f107c44)">
     <use xlink:href="#m9ac8677ce2" x="517.199657" y="483.397504" style="fill: #2563eb; stroke: #2563eb"/>
    </g>
   </g>
   <g id="line2d_11">
    <g clip-path="url(#p979f107c44)">
     <use xlink:href="#m9ac8677ce2" x="313.199794" y="130.059377" style="fill: #2563eb; stroke: #2563eb"/>
    </g>
   </g>
   <g id="text_1">
    <!-- M -->
    <g style="fill: #1f2937" transform="translate(308.454326 508.897487) scale(0.11 -0.11)">
     <defs>
      <path id="DejaVuSans-4d" d="M 628 4666 
L 1569 4666 
L 2759 1491 
L 3956 4666 
L 4897 4666 
L 4897 0 
L 4281 0 
L 4281 4097 
L 3078 897 
L 2444 897 
L 1241 4097 
L 1241 0 
L 628 0 
L 628 4666 
z
" transform="scale(0.015625)"/>
     </defs>
     <use xlink:href="#DejaVuSans-4d"/>
    </g>
   </g>
   <g id="text_2">
    <!-- G -->
    <g style="fill: #1f2937" transform="translate(328.499784 355.418135) scale(0.11 -0.11)">
     <defs>
      <path id="DejaVuSans-Bold-47" d="M 4781 347 
Q 4331 128 3847 18 
Q 3363 -91 2847 -91 
Q 1681 -91 1000 561 
Q 319 1213 319 2328 
Q 319 3456 1012 4103 
Q 1706 4750 2913 4750 
Q 3378 4750 3804 4662 
Q 4231 4575 4609 4403 
L 4609 3438 
Q 4219 3659 3833 3768 
Q 3447 3878 3059 3878 
Q 2341 3878 1952 3476 
Q 1563 3075 1563 2328 
Q 1563 1588 1938 1184 
Q 2313 781 3003 781 
Q 3191 781 3352 804 
Q 3513 828 3641 878 
L 3641 1784 
L 2906 1784 
L 2906 2591 
L 4781 2591 
L 4781 347 
z
" transform="scale(0.015625)"/>
     </defs>
     <use xlink:href="#DejaVuSans-Bold-47"/>
    </g>
   </g>
   <g id="text_3">
    <!-- r -->
    <g style="fill: #059669" transform="translate(323.399787 424.507816) scale(0.11 -0.11)">
     <defs>
      <path id="DejaVuSans-Bold-72" d="M 3138 2547 
Q 2991 2616 2845 2648 
Q 2700 2681 2553 2681 
Q 2122 2681 1889 2404 
Q 1656 2128 1656 1613 
L 1656 0 
L 538 0 
L 538 3500 
L 1656 3500 
L 1656 2925 
Q 1872 3269 2151 3426 
Q 2431 3584 2822 3584 
Q 2878 3584 2943 3579 
Q 3009 3575 3134 3559 
L 3138 2547 
z
" transform="scale(0.015625)"/>
     </defs>
     <use xlink:href="#DejaVuSans-Bold-72"/>
    </g>
   </g>
   <g id="text_4">
    <!-- R -->
    <g style="fill: #7c3aed" transform="translate(338.699777 247.838752) scale(0.11 -0.11)">
     <defs>
      <path id="DejaVuSans-Bold-52" d="M 2297 2597 
Q 2675 2597 2839 2737 
Q 3003 2878 3003 3200 
Q 3003 3519 2839 3656 
Q 2675 3794 2297 3794 
L 1791 3794 
L 1791 2597 
L 2297 2597 
z
M 1791 1766 
L 1791 0 
L 588 0 
L 588 4666 
L 2425 4666 
Q 3347 4666 3776 4356 
Q 4206 4047 4206 3378 
Q 4206 2916 3982 2619 
Q 3759 2322 3309 2181 
Q 3556 2125 3751 1926 
Q 3947 1728 4147 1325 
L 4800 0 
L 3519 0 
L 2950 1159 
Q 2778 1509 2601 1637 
Q 2425 1766 2131 1766 
L 1791 1766 
z
" transform="scale(0.015625)"/>
     </defs>
     <use xlink:href="#DejaVuSans-Bold-52"/>
    </g>
   </g>
   <g id="text_5">
    <!-- A -->
    <g style="fill: #1f2937" transform="translate(83.699949 503.79749) scale(0.12 -0.12)">
     <defs>
      <path id="DejaVuSans-Bold-41" d="M 3419 850 
L 1538 850 
L 1241 0 
L 31 0 
L 1759 4666 
L 3194 4666 
L 4922 0 
L 3713 0 
L 3419 850 
z
M 1838 1716 
L 3116 1716 
L 2478 3572 
L 1838 1716 
z
" transform="scale(0.015625)"/>
     </defs>
     <use xlink:href="#DejaVuSans-Bold-41"/>
    </g>
   </g>
   <g id="text_6">
    <!-- B -->
    <g style="fill: #1f2937" transform="translate(532.499647 503.79749) scale(0.12 -0.12)">
     <defs>
      <path id="DejaVuSans-Bold-42" d="M 2456 2859 
Q 2741 2859 2887 2984 
Q 3034 3109 3034 3353 
Q 3034 3594 2887 3720 
Q 2741 3847 2456 3847 
L 1791 3847 
L 1791 2859 
L 2456 2859 
z
M 2497 819 
Q 2859 819 3042 972 
Q 3225 1125 3225 1434 
Q 3225 1738 3044 1889 
Q 2863 2041 2497 2041 
L 1791 2041 
L 1791 819 
L 2497 819 
z
M 3616 2497 
Q 4003 2384 4215 2081 
Q 4428 1778 4428 1338 
Q 4428 663 3972 331 
Q 3516 0 2584 0 
L 588 0 
L 588 4666 
L 2394 4666 
Q 3366 4666 3802 4372 
Q 4238 4078 4238 3431 
Q 4238 3091 4078 2852 
Q 3919 2613 3616 2497 
z
" transform="scale(0.015625)"/>
     </defs>
     <use xlink:href="#DejaVuSans-Bold-42"/>
    </g>
   </g>
   <g id="text_7">
    <!-- C -->
    <g style="fill: #1f2937" transform="translate(313.199794 109.65939) scale(0.12 -0.12)">
     <defs>
      <path id="DejaVuSans-Bold-43" d="M 4288 256 
Q 3956 84 3597 -3 
Q 3238 -91 2847 -91 
Q 1681 -91 1000 561 
Q 319 1213 319 2328 
Q 319 3447 1000 4098 
Q 1681 4750 2847 4750 
Q 3238 4750 3597 4662 
Q 3956 4575 4288 4403 
L 4288 3438 
Q 3953 3666 3628 3772 
Q 3303 3878 2944 3878 
Q 2300 3878 1931 3465 
Q 1563 3053 1563 2328 
Q 1563 1606 1931 1193 
Q 2300 781 2944 781 
Q 3303 781 3628 887 
Q 3953 994 4288 1222 
L 4288 256 
z
" transform="scale(0.015625)"/>
     </defs>
     <use xlink:href="#DejaVuSans-Bold-43"/>
    </g>
   </g>
   <g id="text_8">
    <!-- L -->
    <g style="fill: #2563eb" transform="translate(309.058076 524.197476) scale(0.13 -0.13)">
     <defs>
      <path id="DejaVuSans-Bold-4c" d="M 588 4666 
L 1791 4666 
L 1791 909 
L 3903 909 
L 3903 0 
L 588 0 
L 588 4666 
z
" transform="scale(0.015625)"/>
     </defs>
     <use xlink:href="#DejaVuSans-Bold-4c"/>
    </g>
   </g>
   <g id="text_9">
    <!-- h -->
    <g style="fill: #dc2626" transform="translate(333.599781 306.72844) scale(0.13 -0.13)">
     <defs>
      <path id="DejaVuSans-Bold-68" d="M 4056 2131 
L 4056 0 
L 2931 0 
L 2931 347 
L 2931 1625 
Q 2931 2084 2911 2256 
Q 2891 2428 2841 2509 
Q 2775 2619 2662 2680 
Q 2550 2741 2406 2741 
Q 2056 2741 1856 2470 
Q 1656 2200 1656 1722 
L 1656 0 
L 538 0 
L 538 4863 
L 1656 4863 
L 1656 2988 
Q 1909 3294 2193 3439 
Q 2478 3584 2822 3584 
Q 3428 3584 3742 3212 
Q 4056 2841 4056 2131 
z
" transform="scale(0.015625)"/>
     </defs>
     <use xlink:href="#DejaVuSans-Bold-68"/>
    </g>
   </g>
   <g id="text_10">
    <g id="patch_3">
     <path d="M 568.199623 185.79771 
L 609.359623 185.79771 
Q 612.959623 185.79771 612.959623 182.19771 
L 612.959623 162.63771 
Q 612.959623 159.03771 609.359623 159.03771 
L 568.199623 159.03771 
Q 564.599623 159.03771 564.599623 162.63771 
L 564.599623 182.19771 
Q 564.599623 185.79771 568.199623 185.79771 
z
" style="fill: #ffffff; opacity: 0.9; stroke: #d1d5db; stroke-linejoin: miter"/>
    </g>
    <!-- $h = \frac{L\sqrt{3}}{2}$ -->
    <g style="fill: #1f2937" transform="translate(568.199623 177.39771) scale(0.12 -0.12)">
     <defs>
      <path id="DejaVuSans-Oblique-68" d="M 3566 2113 
L 3156 0 
L 2578 0 
L 2988 2091 
Q 3016 2238 3031 2350 
Q 3047 2463 3047 2528 
Q 3047 2791 2881 2937 
Q 2716 3084 2419 3084 
Q 1956 3084 1617 2771 
Q 1278 2459 1178 1941 
L 800 0 
L 225 0 
L 1172 4863 
L 1747 4863 
L 1375 2950 
Q 1594 3244 1934 3414 
Q 2275 3584 2650 3584 
Q 3113 3584 3367 3334 
Q 3622 3084 3622 2631 
Q 3622 2519 3608 2391 
Q 3594 2263 3566 2113 
z
" transform="scale(0.015625)"/>
      <path id="DejaVuSans-3d" d="M 678 2906 
L 4684 2906 
L 4684 2381 
L 678 2381 
L 678 2906 
z
M 678 1631 
L 4684 1631 
L 4684 1100 
L 678 1100 
L 678 1631 
z
" transform="scale(0.015625)"/>
      <path id="DejaVuSans-Oblique-4c" d="M 1075 4666 
L 1709 4666 
L 909 525 
L 3181 525 
L 3078 0 
L 172 0 
L 1075 4666 
z
" transform="scale(0.015625)"/>
      <path id="STIXSizeOneSym-Regular-221a" d="M 6970 9933 
L 3373 -1888 
L 3104 -1888 
L 1626 2918 
Q 1555 3149 1465 3251 
Q 1376 3354 1229 3354 
Q 1011 3354 794 3181 
L 717 3309 
L 1766 4115 
L 1926 4115 
L 3379 -602 
L 3405 -602 
L 6605 9933 
L 6970 9933 
z
" transform="scale(0.015625)"/>
      <path id="DejaVuSans-33" d="M 2597 2516 
Q 3050 2419 3304 2112 
Q 3559 1806 3559 1356 
Q 3559 666 3084 287 
Q 2609 -91 1734 -91 
Q 1441 -91 1130 -33 
Q 819 25 488 141 
L 488 750 
Q 750 597 1062 519 
Q 1375 441 1716 441 
Q 2309 441 2620 675 
Q 2931 909 2931 1356 
Q 2931 1769 2642 2001 
Q 2353 2234 1838 2234 
L 1294 2234 
L 1294 2753 
L 1863 2753 
Q 2328 2753 2575 2939 
Q 2822 3125 2822 3475 
Q 2822 3834 2567 4026 
Q 2313 4219 1838 4219 
Q 1578 4219 1281 4162 
Q 984 4106 628 3988 
L 628 4550 
Q 988 4650 1302 4700 
Q 1616 4750 1894 4750 
Q 2613 4750 3031 4423 
Q 3450 4097 3450 3541 
Q 3450 3153 3228 2886 
Q 3006 2619 2597 2516 
z
" transform="scale(0.015625)"/>
      <path id="DejaVuSans-32" d="M 1228 531 
L 3431 531 
L 3431 0 
L 469 0 
L 469 531 
Q 828 903 1448 1529 
Q 2069 2156 2228 2338 
Q 2531 2678 2651 2914 
Q 2772 3150 2772 3378 
Q 2772 3750 2511 3984 
Q 2250 4219 1831 4219 
Q 1534 4219 1204 4116 
Q 875 4013 500 3803 
L 500 4441 
Q 881 4594 1212 4672 
Q 1544 4750 1819 4750 
Q 2544 4750 2975 4387 
Q 3406 4025 3406 3419 
Q 3406 3131 3298 2873 
Q 3191 2616 2906 2266 
Q 2828 2175 2409 1742 
Q 1991 1309 1228 531 
z
" transform="scale(0.015625)"/>
     </defs>
     <use xlink:href="#DejaVuSans-Oblique-68" transform="translate(0 0.015625)"/>
     <use xlink:href="#DejaVuSans-3d" transform="translate(82.861328 0.015625)"/>
     <use xlink:href="#DejaVuSans-Oblique-4c" transform="translate(186.132812 44.807813) scale(0.7)"/>
     <use xlink:href="#STIXSizeOneSym-Regular-221a" transform="translate(225.131836 55.789063) scale(0.405101)"/>
     <use xlink:href="#DejaVuSans-33" transform="translate(276.703548 44.671875) scale(0.7)"/>
     <use xlink:href="#DejaVuSans-32" transform="translate(236.132812 -39.390625) scale(0.7)"/>
     <path d="M 267.953548 114.25 
L 267.953548 118.625 
L 329.98968 118.625 
L 329.98968 114.25 
L 267.953548 114.25 
z
"/>
     <path d="M 186.132812 18.8125 
L 186.132812 25.0625 
L 329.98968 25.0625 
L 329.98968 18.8125 
L 186.132812 18.8125 
z
"/>
    </g>
   </g>
   <g id="text_11">
    <g id="patch_4">
     <path d="M 568.199623 236.677675 
L 614.519623 236.677675 
Q 618.119623 236.677675 618.119623 233.077675 
L 618.119623 213.637675 
Q 618.119623 210.037675 614.519623 210.037675 
L 568.199623 210.037675 
Q 564.599623 210.037675 564.599623 213.637675 
L 564.599623 233.077675 
Q 564.599623 236.677675 568.199623 236.677675 
z
" style="fill: #ffffff; opacity: 0.9; stroke: #d1d5db; stroke-linejoin: miter"/>
    </g>
    <!-- $A = \frac{L^2\sqrt{3}}{4}$ -->
    <g style="fill: #1f2937" transform="translate(568.199623 228.397675) scale(0.12 -0.12)">
     <defs>
      <path id="DejaVuSans-Oblique-41" d="M 2356 4666 
L 3072 4666 
L 3938 0 
L 3278 0 
L 3084 1197 
L 984 1197 
L 325 0 
L -341 0 
L 2356 4666 
z
M 2584 4044 
L 1275 1722 
L 2988 1722 
L 2584 4044 
z
" transform="scale(0.015625)"/>
      <path id="DejaVuSans-34" d="M 2419 4116 
L 825 1625 
L 2419 1625 
L 2419 4116 
z
M 2253 4666 
L 3047 4666 
L 3047 1625 
L 3713 1625 
L 3713 1100 
L 3047 1100 
L 3047 0 
L 2419 0 
L 2419 1100 
L 313 1100 
L 313 1709 
L 2253 4666 
z
" transform="scale(0.015625)"/>
     </defs>
     <use xlink:href="#DejaVuSans-Oblique-41" transform="translate(0 0.015625)"/>
     <use xlink:href="#DejaVuSans-3d" transform="translate(87.890625 0.015625)"/>
     <use xlink:href="#DejaVuSans-Oblique-4c" transform="translate(191.162109 44.807813) scale(0.7)"/>
     <use xlink:href="#DejaVuSans-32" transform="translate(235.072872 71.604688) scale(0.49)"/>
     <use xlink:href="#STIXSizeOneSym-Regular-221a" transform="translate(268.162228 55.789063) scale(0.405101)"/>
     <use xlink:href="#DejaVuSans-33" transform="translate(319.73394 44.671875) scale(0.7)"/>
     <use xlink:href="#DejaVuSans-34" transform="translate(260.162109 -38.471875) scale(0.7)"/>
     <path d="M 310.98394 114.25 
L 310.98394 118.625 
L 373.020072 118.625 
L 373.020072 114.25 
L 310.98394 114.25 
z
"/>
     <path d="M 191.162109 18.8125 
L 191.162109 25.0625 
L 373.020072 25.0625 
L 373.020072 18.8125 
L 191.162109 18.8125 
z
"/>
    </g>
   </g>
   <g id="text_12">
    <g id="patch_5">
     <path d="M 568.199623 287.917641 
L 606.719623 287.917641 
Q 610.319623 287.917641 610.319623 284.317641 
L 610.319623 264.637641 
Q 610.319623 261.037641 606.719623 261.037641 
L 568.199623 261.037641 
Q 564.599623 261.037641 564.599623 264.637641 
L 564.599623 284.317641 
Q 564.599623 287.917641 568.199623 287.917641 
z
" style="fill: #ffffff; opacity: 0.9; stroke: #d1d5db; stroke-linejoin: miter"/>
    </g>
    <!-- $r = \frac{L\sqrt{3}}{6}$ -->
    <g style="fill: #1f2937" transform="translate(568.199623 279.397641) scale(0.12 -0.12)">
     <defs>
      <path id="DejaVuSans-Oblique-72" d="M 2853 2969 
Q 2766 3016 2653 3041 
Q 2541 3066 2413 3066 
Q 1953 3066 1609 2717 
Q 1266 2369 1153 1784 
L 800 0 
L 225 0 
L 909 3500 
L 1484 3500 
L 1375 2956 
Q 1603 3259 1920 3421 
Q 2238 3584 2597 3584 
Q 2691 3584 2781 3573 
Q 2872 3563 2963 3538 
L 2853 2969 
z
" transform="scale(0.015625)"/>
      <path id="DejaVuSans-36" d="M 2113 2584 
Q 1688 2584 1439 2293 
Q 1191 2003 1191 1497 
Q 1191 994 1439 701 
Q 1688 409 2113 409 
Q 2538 409 2786 701 
Q 3034 994 3034 1497 
Q 3034 2003 2786 2293 
Q 2538 2584 2113 2584 
z
M 3366 4563 
L 3366 3988 
Q 3128 4100 2886 4159 
Q 2644 4219 2406 4219 
Q 1781 4219 1451 3797 
Q 1122 3375 1075 2522 
Q 1259 2794 1537 2939 
Q 1816 3084 2150 3084 
Q 2853 3084 3261 2657 
Q 3669 2231 3669 1497 
Q 3669 778 3244 343 
Q 2819 -91 2113 -91 
Q 1303 -91 875 529 
Q 447 1150 447 2328 
Q 447 3434 972 4092 
Q 1497 4750 2381 4750 
Q 2619 4750 2861 4703 
Q 3103 4656 3366 4563 
z
" transform="scale(0.015625)"/>
     </defs>
     <use xlink:href="#DejaVuSans-Oblique-72" transform="translate(0 0.015625)"/>
     <use xlink:href="#DejaVuSans-3d" transform="translate(60.595703 0.015625)"/>
     <use xlink:href="#DejaVuSans-Oblique-4c" transform="translate(163.867188 44.807813) scale(0.7)"/>
     <use xlink:href="#STIXSizeOneSym-Regular-221a" transform="translate(202.866211 55.789063) scale(0.405101)"/>
     <use xlink:href="#DejaVuSans-33" transform="translate(254.437923 44.671875) scale(0.7)"/>
     <use xlink:href="#DejaVuSans-36" transform="translate(213.867188 -39.390625) scale(0.7)"/>
     <path d="M 245.687923 114.25 
L 245.687923 118.625 
L 307.724055 118.625 
L 307.724055 114.25 
L 245.687923 114.25 
z
"/>
     <path d="M 163.867188 18.8125 
L 163.867188 25.0625 
L 307.724055 25.0625 
L 307.724055 18.8125 
L 163.867188 18.8125 
z
"/>
    </g>
   </g>
   <g id="text_13">
    <g id="patch_6">
     <path d="M 568.199623 338.917607 
L 610.079623 338.917607 
Q 613.679623 338.917607 613.679623 335.317607 
L 613.679623 315.637607 
Q 613.679623 312.037607 610.079623 312.037607 
L 568.199623 312.037607 
Q 564.599623 312.037607 564.599623 315.637607 
L 564.599623 335.317607 
Q 564.599623 338.917607 568.199623 338.917607 
z
" style="fill: #ffffff; opacity: 0.9; stroke: #d1d5db; stroke-linejoin: miter"/>
    </g>
    <!-- $R = \frac{L\sqrt{3}}{3}$ -->
    <g style="fill: #1f2937" transform="translate(568.199623 330.397607) scale(0.12 -0.12)">
     <defs>
      <path id="DejaVuSans-Oblique-52" d="M 1613 4147 
L 1294 2491 
L 2106 2491 
Q 2584 2491 2879 2755 
Q 3175 3019 3175 3444 
Q 3175 3784 2976 3965 
Q 2778 4147 2406 4147 
L 1613 4147 
z
M 2772 2241 
Q 2972 2194 3105 2009 
Q 3238 1825 3413 1275 
L 3809 0 
L 3144 0 
L 2778 1197 
Q 2638 1659 2453 1815 
Q 2269 1972 1888 1972 
L 1191 1972 
L 806 0 
L 172 0 
L 1081 4666 
L 2503 4666 
Q 3150 4666 3495 4373 
Q 3841 4081 3841 3531 
Q 3841 3044 3547 2687 
Q 3253 2331 2772 2241 
z
" transform="scale(0.015625)"/>
     </defs>
     <use xlink:href="#DejaVuSans-Oblique-52" transform="translate(0 0.015625)"/>
     <use xlink:href="#DejaVuSans-3d" transform="translate(88.964844 0.015625)"/>
     <use xlink:href="#DejaVuSans-Oblique-4c" transform="translate(192.236328 44.807813) scale(0.7)"/>
     <use xlink:href="#STIXSizeOneSym-Regular-221a" transform="translate(231.235352 55.789063) scale(0.405101)"/>
     <use xlink:href="#DejaVuSans-33" transform="translate(282.807063 44.671875) scale(0.7)"/>
     <use xlink:href="#DejaVuSans-33" transform="translate(242.236328 -39.390625) scale(0.7)"/>
     <path d="M 274.057063 114.25 
L 274.057063 118.625 
L 336.093196 118.625 
L 336.093196 114.25 
L 274.057063 114.25 
z
"/>
     <path d="M 192.236328 18.8125 
L 192.236328 25.0625 
L 336.093196 25.0625 
L 336.093196 18.8125 
L 192.236328 18.8125 
z
"/>
    </g>
   </g>
   <g id="text_14">
    <!-- Triángulo Equilátero - Elementos -->
    <g style="fill: #1f2937" transform="translate(235.288197 18.397813) scale(0.14 -0.14)">
     <defs>
      <path id="DejaVuSans-Bold-54" d="M 31 4666 
L 4331 4666 
L 4331 3756 
L 2784 3756 
L 2784 0 
L 1581 0 
L 1581 3756 
L 31 3756 
L 31 4666 
z
" transform="scale(0.015625)"/>
      <path id="DejaVuSans-Bold-69" d="M 538 3500 
L 1656 3500 
L 1656 0 
L 538 0 
L 538 3500 
z
M 538 4863 
L 1656 4863 
L 1656 3950 
L 538 3950 
L 538 4863 
z
" transform="scale(0.015625)"/>
      <path id="DejaVuSans-Bold-e1" d="M 2106 1575 
Q 1756 1575 1579 1456 
Q 1403 1338 1403 1106 
Q 1403 894 1545 773 
Q 1688 653 1941 653 
Q 2256 653 2472 879 
Q 2688 1106 2688 1447 
L 2688 1575 
L 2106 1575 
z
M 3816 1997 
L 3816 0 
L 2688 0 
L 2688 519 
Q 2463 200 2181 54 
Q 1900 -91 1497 -91 
Q 953 -91 614 226 
Q 275 544 275 1050 
Q 275 1666 698 1953 
Q 1122 2241 2028 2241 
L 2688 2241 
L 2688 2328 
Q 2688 2594 2478 2717 
Q 2269 2841 1825 2841 
Q 1466 2841 1156 2769 
Q 847 2697 581 2553 
L 581 3406 
Q 941 3494 1303 3539 
Q 1666 3584 2028 3584 
Q 2975 3584 3395 3211 
Q 3816 2838 3816 1997 
z
M 2606 5119 
L 3490 5119 
L 2337 3944 
L 1725 3944 
L 2606 5119 
z
" transform="scale(0.015625)"/>
      <path id="DejaVuSans-Bold-6e" d="M 4056 2131 
L 4056 0 
L 2931 0 
L 2931 347 
L 2931 1631 
Q 2931 2084 2911 2256 
Q 2891 2428 2841 2509 
Q 2775 2619 2662 2680 
Q 2550 2741 2406 2741 
Q 2056 2741 1856 2470 
Q 1656 2200 1656 1722 
L 1656 0 
L 538 0 
L 538 3500 
L 1656 3500 
L 1656 2988 
Q 1909 3294 2193 3439 
Q 2478 3584 2822 3584 
Q 3428 3584 3742 3212 
Q 4056 2841 4056 2131 
z
" transform="scale(0.015625)"/>
      <path id="DejaVuSans-Bold-67" d="M 2919 594 
Q 2688 288 2409 144 
Q 2131 0 1766 0 
Q 1125 0 706 504 
Q 288 1009 288 1791 
Q 288 2575 706 3076 
Q 1125 3578 1766 3578 
Q 2131 3578 2409 3434 
Q 2688 3291 2919 2981 
L 2919 3500 
L 4044 3500 
L 4044 353 
Q 4044 -491 3511 -936 
Q 2978 -1381 1966 -1381 
Q 1638 -1381 1331 -1331 
Q 1025 -1281 716 -1178 
L 716 -306 
Q 1009 -475 1290 -558 
Q 1572 -641 1856 -641 
Q 2406 -641 2662 -400 
Q 2919 -159 2919 353 
L 2919 594 
z
M 2181 2772 
Q 1834 2772 1640 2515 
Q 1447 2259 1447 1791 
Q 1447 1309 1634 1061 
Q 1822 813 2181 813 
Q 2531 813 2725 1069 
Q 2919 1325 2919 1791 
Q 2919 2259 2725 2515 
Q 2531 2772 2181 2772 
z
" transform="scale(0.015625)"/>
      <path id="DejaVuSans-Bold-75" d="M 500 1363 
L 500 3500 
L 1625 3500 
L 1625 3150 
Q 1625 2866 1622 2436 
Q 1619 2006 1619 1863 
Q 1619 1441 1641 1255 
Q 1663 1069 1716 984 
Q 1784 875 1895 815 
Q 2006 756 2150 756 
Q 2500 756 2700 1025 
Q 2900 1294 2900 1772 
L 2900 3500 
L 4019 3500 
L 4019 0 
L 2900 0 
L 2900 506 
Q 2647 200 2364 54 
Q 2081 -91 1741 -91 
Q 1134 -91 817 281 
Q 500 653 500 1363 
z
" transform="scale(0.015625)"/>
      <path id="DejaVuSans-Bold-6c" d="M 538 4863 
L 1656 4863 
L 1656 0 
L 538 0 
L 538 4863 
z
" transform="scale(0.015625)"/>
      <path id="DejaVuSans-Bold-6f" d="M 2203 2784 
Q 1831 2784 1636 2517 
Q 1441 2250 1441 1747 
Q 1441 1244 1636 976 
Q 1831 709 2203 709 
Q 2569 709 2762 976 
Q 2956 1244 2956 1747 
Q 2956 2250 2762 2517 
Q 2569 2784 2203 2784 
z
M 2203 3584 
Q 3106 3584 3614 3096 
Q 4122 2609 4122 1747 
Q 4122 884 3614 396 
Q 3106 -91 2203 -91 
Q 1297 -91 786 396 
Q 275 884 275 1747 
Q 275 2609 786 3096 
Q 1297 3584 2203 3584 
z
" transform="scale(0.015625)"/>
      <path id="DejaVuSans-Bold-20" transform="scale(0.015625)"/>
      <path id="DejaVuSans-Bold-45" d="M 588 4666 
L 3834 4666 
L 3834 3756 
L 1791 3756 
L 1791 2888 
L 3713 2888 
L 3713 1978 
L 1791 1978 
L 1791 909 
L 3903 909 
L 3903 0 
L 588 0 
L 588 4666 
z
" transform="scale(0.015625)"/>
      <path id="DejaVuSans-Bold-71" d="M 2181 2772 
Q 1825 2772 1636 2509 
Q 1447 2247 1447 1747 
Q 1447 1247 1636 984 
Q 1825 722 2181 722 
Q 2541 722 2730 984 
Q 2919 1247 2919 1747 
Q 2919 2247 2730 2509 
Q 2541 2772 2181 2772 
z
M 2919 506 
Q 2688 197 2409 53 
Q 2131 -91 1766 -91 
Q 1119 -91 703 423 
Q 288 938 288 1747 
Q 288 2556 703 3067 
Q 1119 3578 1766 3578 
Q 2131 3578 2409 3434 
Q 2688 3291 2919 2981 
L 2919 3500 
L 4044 3500 
L 4044 -1331 
L 2919 -1331 
L 2919 506 
z
" transform="scale(0.015625)"/>
      <path id="DejaVuSans-Bold-74" d="M 1759 4494 
L 1759 3500 
L 2913 3500 
L 2913 2700 
L 1759 2700 
L 1759 1216 
Q 1759 972 1856 886 
Q 1953 800 2241 800 
L 2816 800 
L 2816 0 
L 1856 0 
Q 1194 0 917 276 
Q 641 553 641 1216 
L 641 2700 
L 84 2700 
L 84 3500 
L 641 3500 
L 641 4494 
L 1759 4494 
z
" transform="scale(0.015625)"/>
      <path id="DejaVuSans-Bold-65" d="M 4031 1759 
L 4031 1441 
L 1416 1441 
Q 1456 1047 1700 850 
Q 1944 653 2381 653 
Q 2734 653 3104 758 
Q 3475 863 3866 1075 
L 3866 213 
Q 3469 63 3072 -14 
Q 2675 -91 2278 -91 
Q 1328 -91 801 392 
Q 275 875 275 1747 
Q 275 2603 792 3093 
Q 1309 3584 2216 3584 
Q 3041 3584 3536 3087 
Q 4031 2591 4031 1759 
z
M 2881 2131 
Q 2881 2450 2695 2645 
Q 2509 2841 2209 2841 
Q 1884 2841 1681 2658 
Q 1478 2475 1428 2131 
L 2881 2131 
z
" transform="scale(0.015625)"/>
      <path id="DejaVuSans-Bold-2d" d="M 347 2297 
L 2309 2297 
L 2309 1388 
L 347 1388 
L 347 2297 
z
" transform="scale(0.015625)"/>
      <path id="DejaVuSans-Bold-6d" d="M 3781 2919 
Q 3994 3244 4286 3414 
Q 4578 3584 4928 3584 
Q 5531 3584 5847 3212 
Q 6163 2841 6163 2131 
L 6163 0 
L 5038 0 
L 5038 1825 
Q 5041 1866 5042 1909 
Q 5044 1953 5044 2034 
Q 5044 2406 4934 2573 
Q 4825 2741 4581 2741 
Q 4263 2741 4089 2478 
Q 3916 2216 3909 1719 
L 3909 0 
L 2784 0 
L 2784 1825 
Q 2784 2406 2684 2573 
Q 2584 2741 2328 2741 
Q 2006 2741 1831 2477 
Q 1656 2213 1656 1722 
L 1656 0 
L 531 0 
L 531 3500 
L 1656 3500 
L 1656 2988 
Q 1863 3284 2130 3434 
Q 2397 3584 2719 3584 
Q 3081 3584 3359 3409 
Q 3638 3234 3781 2919 
z
" transform="scale(0.015625)"/>
      <path id="DejaVuSans-Bold-73" d="M 3272 3391 
L 3272 2541 
Q 2913 2691 2578 2766 
Q 2244 2841 1947 2841 
Q 1628 2841 1473 2761 
Q 1319 2681 1319 2516 
Q 1319 2381 1436 2309 
Q 1553 2238 1856 2203 
L 2053 2175 
Q 2913 2066 3209 1816 
Q 3506 1566 3506 1031 
Q 3506 472 3093 190 
Q 2681 -91 1863 -91 
Q 1516 -91 1145 -36 
Q 775 19 384 128 
L 384 978 
Q 719 816 1070 734 
Q 1422 653 1784 653 
Q 2113 653 2278 743 
Q 2444 834 2444 1013 
Q 2444 1163 2330 1236 
Q 2216 1309 1875 1350 
L 1678 1375 
Q 931 1469 631 1722 
Q 331 1975 331 2491 
Q 331 3047 712 3315 
Q 1094 3584 1881 3584 
Q 2191 3584 2531 3537 
Q 2872 3491 3272 3391 
z
" transform="scale(0.015625)"/>
     </defs>
     <use xlink:href="#DejaVuSans-Bold-54"/>
     <use xlink:href="#DejaVuSans-Bold-72" transform="translate(57.212891 0)"/>
     <use xlink:href="#DejaVuSans-Bold-69" transform="translate(106.529297 0)"/>
     <use xlink:href="#DejaVuSans-Bold-e1" transform="translate(140.806641 0)"/>
     <use xlink:href="#DejaVuSans-Bold-6e" transform="translate(208.287109 0)"/>
     <use xlink:href="#DejaVuSans-Bold-67" transform="translate(279.478516 0)"/>
     <use xlink:href="#DejaVuSans-Bold-75" transform="translate(351.060547 0)"/>
     <use xlink:href="#DejaVuSans-Bold-6c" transform="translate(422.251953 0)"/>
     <use xlink:href="#DejaVuSans-Bold-6f" transform="translate(456.529297 0)"/>
     <use xlink:href="#DejaVuSans-Bold-20" transform="translate(525.230469 0)"/>
     <use xlink:href="#DejaVuSans-Bold-45" transform="translate(560.044922 0)"/>
     <use xlink:href="#DejaVuSans-Bold-71" transform="translate(628.355469 0)"/>
     <use xlink:href="#DejaVuSans-Bold-75" transform="translate(699.9375 0)"/>
     <use xlink:href="#DejaVuSans-Bold-69" transform="translate(771.128906 0)"/>
     <use xlink:href="#DejaVuSans-Bold-6c" transform="translate(805.40625 0)"/>
     <use xlink:href="#DejaVuSans-Bold-e1" transform="translate(839.683594 0)"/>
     <use xlink:href="#DejaVuSans-Bold-74" transform="translate(907.164062 0)"/>
     <use xlink:href="#DejaVuSans-Bold-65" transform="translate(954.966797 0)"/>
     <use xlink:href="#DejaVuSans-Bold-72" transform="translate(1022.789062 0)"/>
     <use xlink:href="#DejaVuSans-Bold-6f" transform="translate(1072.105469 0)"/>
     <use xlink:href="#DejaVuSans-Bold-20" transform="translate(1140.806641 0)"/>
     <use xlink:href="#DejaVuSans-Bold-2d" transform="translate(1175.621094 0)"/>
     <use xlink:href="#DejaVuSans-Bold-20" transform="translate(1217.125 0)"/>
     <use xlink:href="#DejaVuSans-Bold-45" transform="translate(1251.939453 0)"/>
     <use xlink:href="#DejaVuSans-Bold-6c" transform="translate(1320.25 0)"/>
     <use xlink:href="#DejaVuSans-Bold-65" transform="translate(1354.527344 0)"/>
     <use xlink:href="#DejaVuSans-Bold-6d" transform="translate(1422.349609 0)"/>
     <use xlink:href="#DejaVuSans-Bold-65" transform="translate(1526.548828 0)"/>
     <use xlink:href="#DejaVuSans-Bold-6e" transform="translate(1594.371094 0)"/>
     <use xlink:href="#DejaVuSans-Bold-74" transform="translate(1665.5625 0)"/>
     <use xlink:href="#DejaVuSans-Bold-6f" transform="translate(1713.365234 0)"/>
     <use xlink:href="#DejaVuSans-Bold-73" transform="translate(1782.066406 0)"/>
    </g>
   </g>
   <g id="legend_1">
    <g id="patch_7">
     <path d="M 14.2 76.432188 
L 136.267187 76.432188 
Q 138.267187 76.432188 138.267187 74.432188 
L 138.267187 31.397813 
Q 138.267187 29.397813 136.267187 29.397813 
L 14.2 29.397813 
Q 12.2 29.397813 12.2 31.397813 
L 12.2 74.432188 
Q 12.2 76.432188 14.2 76.432188 
z
" style="fill: #ffffff; opacity: 0.8; stroke: #cccccc; stroke-linejoin: miter"/>
    </g>
    <g id="line2d_12">
     <path d="M 16.2 37.49625 
L 26.2 37.49625 
L 36.2 37.49625 
" style="fill: none; stroke-dasharray: 7.4,3.2; stroke-dashoffset: 0; stroke: #dc2626; stroke-width: 2"/>
    </g>
    <g id="text_15">
     <!-- Altura h = L·√3/2 -->
     <g style="fill: #1f2937" transform="translate(44.2 40.99625) scale(0.1 -0.1)">
      <defs>
       <path id="DejaVuSans-41" d="M 2188 4044 
L 1331 1722 
L 3047 1722 
L 2188 4044 
z
M 1831 4666 
L 2547 4666 
L 4325 0 
L 3669 0 
L 3244 1197 
L 1141 1197 
L 716 0 
L 50 0 
L 1831 4666 
z
" transform="scale(0.015625)"/>
       <path id="DejaVuSans-6c" d="M 603 4863 
L 1178 4863 
L 1178 0 
L 603 0 
L 603 4863 
z
" transform="scale(0.015625)"/>
       <path id="DejaVuSans-74" d="M 1172 4494 
L 1172 3500 
L 2356 3500 
L 2356 3053 
L 1172 3053 
L 1172 1153 
Q 1172 725 1289 603 
Q 1406 481 1766 481 
L 2356 481 
L 2356 0 
L 1766 0 
Q 1100 0 847 248 
Q 594 497 594 1153 
L 594 3053 
L 172 3053 
L 172 3500 
L 594 3500 
L 594 4494 
L 1172 4494 
z
" transform="scale(0.015625)"/>
       <path id="DejaVuSans-75" d="M 544 1381 
L 544 3500 
L 1119 3500 
L 1119 1403 
Q 1119 906 1312 657 
Q 1506 409 1894 409 
Q 2359 409 2629 706 
Q 2900 1003 2900 1516 
L 2900 3500 
L 3475 3500 
L 3475 0 
L 2900 0 
L 2900 538 
Q 2691 219 2414 64 
Q 2138 -91 1772 -91 
Q 1169 -91 856 284 
Q 544 659 544 1381 
z
M 1991 3584 
L 1991 3584 
z
" transform="scale(0.015625)"/>
       <path id="DejaVuSans-72" d="M 2631 2963 
Q 2534 3019 2420 3045 
Q 2306 3072 2169 3072 
Q 1681 3072 1420 2755 
Q 1159 2438 1159 1844 
L 1159 0 
L 581 0 
L 581 3500 
L 1159 3500 
L 1159 2956 
Q 1341 3275 1631 3429 
Q 1922 3584 2338 3584 
Q 2397 3584 2469 3576 
Q 2541 3569 2628 3553 
L 2631 2963 
z
" transform="scale(0.015625)"/>
       <path id="DejaVuSans-61" d="M 2194 1759 
Q 1497 1759 1228 1600 
Q 959 1441 959 1056 
Q 959 750 1161 570 
Q 1363 391 1709 391 
Q 2188 391 2477 730 
Q 2766 1069 2766 1631 
L 2766 1759 
L 2194 1759 
z
M 3341 1997 
L 3341 0 
L 2766 0 
L 2766 531 
Q 2569 213 2275 61 
Q 1981 -91 1556 -91 
Q 1019 -91 701 211 
Q 384 513 384 1019 
Q 384 1609 779 1909 
Q 1175 2209 1959 2209 
L 2766 2209 
L 2766 2266 
Q 2766 2663 2505 2880 
Q 2244 3097 1772 3097 
Q 1472 3097 1187 3025 
Q 903 2953 641 2809 
L 641 3341 
Q 956 3463 1253 3523 
Q 1550 3584 1831 3584 
Q 2591 3584 2966 3190 
Q 3341 2797 3341 1997 
z
" transform="scale(0.015625)"/>
       <path id="DejaVuSans-20" transform="scale(0.015625)"/>
       <path id="DejaVuSans-68" d="M 3513 2113 
L 3513 0 
L 2938 0 
L 2938 2094 
Q 2938 2591 2744 2837 
Q 2550 3084 2163 3084 
Q 1697 3084 1428 2787 
Q 1159 2491 1159 1978 
L 1159 0 
L 581 0 
L 581 4863 
L 1159 4863 
L 1159 2956 
Q 1366 3272 1645 3428 
Q 1925 3584 2291 3584 
Q 2894 3584 3203 3211 
Q 3513 2838 3513 2113 
z
" transform="scale(0.015625)"/>
       <path id="DejaVuSans-4c" d="M 628 4666 
L 1259 4666 
L 1259 531 
L 3531 531 
L 3531 0 
L 628 0 
L 628 4666 
z
" transform="scale(0.015625)"/>
       <path id="DejaVuSans-b7" d="M 684 2619 
L 1344 2619 
L 1344 1825 
L 684 1825 
L 684 2619 
z
" transform="scale(0.015625)"/>
       <path id="DejaVuSans-221a" d="M 3488 5191 
L 4078 5191 
L 4078 4891 
L 3719 4891 
L 1863 -128 
L 1656 -128 
L 659 2631 
L 269 2491 
L 191 2741 
L 1075 3047 
L 1875 831 
L 3488 5191 
z
" transform="scale(0.015625)"/>
       <path id="DejaVuSans-2f" d="M 1625 4666 
L 2156 4666 
L 531 -594 
L 0 -594 
L 1625 4666 
z
" transform="scale(0.015625)"/>
      </defs>
      <use xlink:href="#DejaVuSans-41"/>
      <use xlink:href="#DejaVuSans-6c" transform="translate(68.408203 0)"/>
      <use xlink:href="#DejaVuSans-74" transform="translate(96.191406 0)"/>
      <use xlink:href="#DejaVuSans-75" transform="translate(135.400391 0)"/>
      <use xlink:href="#DejaVuSans-72" transform="translate(198.779297 0)"/>
      <use xlink:href="#DejaVuSans-61" transform="translate(239.892578 0)"/>
      <use xlink:href="#DejaVuSans-20" transform="translate(301.171875 0)"/>
      <use xlink:href="#DejaVuSans-68" transform="translate(332.958984 0)"/>
      <use xlink:href="#DejaVuSans-20" transform="translate(396.337891 0)"/>
      <use xlink:href="#DejaVuSans-3d" transform="translate(428.125 0)"/>
      <use xlink:href="#DejaVuSans-20" transform="translate(511.914062 0)"/>
      <use xlink:href="#DejaVuSans-4c" transform="translate(543.701172 0)"/>
      <use xlink:href="#DejaVuSans-b7" transform="translate(599.414062 0)"/>
      <use xlink:href="#DejaVuSans-221a" transform="translate(631.201172 0)"/>
      <use xlink:href="#DejaVuSans-33" transform="translate(694.921875 0)"/>
      <use xlink:href="#DejaVuSans-2f" transform="translate(758.544922 0)"/>
      <use xlink:href="#DejaVuSans-32" transform="translate(792.236328 0)"/>
     </g>
    </g>
    <g id="line2d_13">
     <path d="M 16.2 52.174375 
L 26.2 52.174375 
L 36.2 52.174375 
" style="fill: none; stroke: #059669; stroke-width: 2; stroke-linecap: square"/>
    </g>
    <g id="text_16">
     <!-- r = h/3 = L·√3/6 -->
     <g style="fill: #1f2937" transform="translate(44.2 55.674375) scale(0.1 -0.1)">
      <use xlink:href="#DejaVuSans-72"/>
      <use xlink:href="#DejaVuSans-20" transform="translate(41.113281 0)"/>
      <use xlink:href="#DejaVuSans-3d" transform="translate(72.900391 0)"/>
      <use xlink:href="#DejaVuSans-20" transform="translate(156.689453 0)"/>
      <use xlink:href="#DejaVuSans-68" transform="translate(188.476562 0)"/>
      <use xlink:href="#DejaVuSans-2f" transform="translate(251.855469 0)"/>
      <use xlink:href="#DejaVuSans-33" transform="translate(285.546875 0)"/>
      <use xlink:href="#DejaVuSans-20" transform="translate(349.169922 0)"/>
      <use xlink:href="#DejaVuSans-3d" transform="translate(380.957031 0)"/>
      <use xlink:href="#DejaVuSans-20" transform="translate(464.746094 0)"/>
      <use xlink:href="#DejaVuSans-4c" transform="translate(496.533203 0)"/>
      <use xlink:href="#DejaVuSans-b7" transform="translate(552.246094 0)"/>
      <use xlink:href="#DejaVuSans-221a" transform="translate(584.033203 0)"/>
      <use xlink:href="#DejaVuSans-33" transform="translate(647.753906 0)"/>
      <use xlink:href="#DejaVuSans-2f" transform="translate(711.376953 0)"/>
      <use xlink:href="#DejaVuSans-36" transform="translate(745.068359 0)"/>
     </g>
    </g>
    <g id="line2d_14">
     <path d="M 16.2 66.8525 
L 26.2 66.8525 
L 36.2 66.8525 
" style="fill: none; stroke-dasharray: 7.4,3.2; stroke-dashoffset: 0; stroke: #7c3aed; stroke-width: 2"/>
    </g>
    <g id="text_17">
     <!-- R = 2h/3 = L·√3/3 -->
     <g style="fill: #1f2937" transform="translate(44.2 70.3525) scale(0.1 -0.1)">
      <defs>
       <path id="DejaVuSans-52" d="M 2841 2188 
Q 3044 2119 3236 1894 
Q 3428 1669 3622 1275 
L 4263 0 
L 3584 0 
L 2988 1197 
Q 2756 1666 2539 1819 
Q 2322 1972 1947 1972 
L 1259 1972 
L 1259 0 
L 628 0 
L 628 4666 
L 2053 4666 
Q 2853 4666 3247 4331 
Q 3641 3997 3641 3322 
Q 3641 2881 3436 2590 
Q 3231 2300 2841 2188 
z
M 1259 4147 
L 1259 2491 
L 2053 2491 
Q 2509 2491 2742 2702 
Q 2975 2913 2975 3322 
Q 2975 3731 2742 3939 
Q 2509 4147 2053 4147 
L 1259 4147 
z
" transform="scale(0.015625)"/>
      </defs>
      <use xlink:href="#DejaVuSans-52"/>
      <use xlink:href="#DejaVuSans-20" transform="translate(69.482422 0)"/>
      <use xlink:href="#DejaVuSans-3d" transform="translate(101.269531 0)"/>
      <use xlink:href="#DejaVuSans-20" transform="translate(185.058594 0)"/>
      <use xlink:href="#DejaVuSans-32" transform="translate(216.845703 0)"/>
      <use xlink:href="#DejaVuSans-68" transform="translate(280.46875 0)"/>
      <use xlink:href="#DejaVuSans-2f" transform="translate(343.847656 0)"/>
      <use xlink:href="#DejaVuSans-33" transform="translate(377.539062 0)"/>
      <use xlink:href="#DejaVuSans-20" transform="translate(441.162109 0)"/>
      <use xlink:href="#DejaVuSans-3d" transform="translate(472.949219 0)"/>
      <use xlink:href="#DejaVuSans-20" transform="translate(556.738281 0)"/>
      <use xlink:href="#DejaVuSans-4c" transform="translate(588.525391 0)"/>
      <use xlink:href="#DejaVuSans-b7" transform="translate(644.238281 0)"/>
      <use xlink:href="#DejaVuSans-221a" transform="translate(676.025391 0)"/>
      <use xlink:href="#DejaVuSans-33" transform="translate(739.746094 0)"/>
      <use xlink:href="#DejaVuSans-2f" transform="translate(803.369141 0)"/>
      <use xlink:href="#DejaVuSans-33" transform="translate(837.060547 0)"/>
     </g>
    </g>
   </g>
  </g>
 </g>
 <defs>
  <clipPath id="p979f107c44">
   <rect x="7.2" y="24.397813" width="713.99952" height="560.999623"/>
  </clipPath>
 </defs>
</svg>
