<?xml version="1.0" encoding="utf-8" standalone="no"?>
<!DOCTYPE svg PUBLIC "-//W3C//DTD SVG 1.1//EN"
  "http://www.w3.org/Graphics/SVG/1.1/DTD/svg11.dtd">
<svg xmlns:xlink="http://www.w3.org/1999/xlink" width="1055.365714pt" height="848.16pt" viewBox="0 0 1055.365714 848.16" xmlns="http://www.w3.org/2000/svg" version="1.1">
 <metadata>
  <rdf:RDF xmlns:dc="http://purl.org/dc/elements/1.1/" xmlns:cc="http://creativecommons.org/ns#" xmlns:rdf="http://www.w3.org/1999/02/22-rdf-syntax-ns#">
   <cc:Work>
    <dc:type rdf:resource="http://purl.org/dc/dcmitype/StillImage"/>
    <dc:date>2026-01-05T13:08:32.196645</dc:date>
    <dc:format>image/svg+xml</dc:format>
    <dc:creator>
     <cc:Agent>
      <dc:title>Repositorio Matemáticas Universitarias</dc:title>
     </cc:Agent>
    </dc:creator>
   </cc:Work>
  </rdf:RDF>
 </metadata>
 <defs>
  <style type="text/css">*{stroke-linejoin: round; stroke-linecap: butt}</style>
 </defs>
 <g id="figure_1">
  <g id="patch_1">
   <path d="M 0 848.16 
L 1055.365714 848.16 
L 1055.365714 0 
L 0 0 
z
" style="fill: #ffffff"/>
  </g>
  <g id="axes_1">
   <g id="patch_2">
    <path d="M 302.140286 126.741857 
L 753.225429 126.741857 
Q 761.900143 126.741857 761.900143 118.067143 
L 761.900143 60.235714 
Q 761.900143 51.561 753.225429 51.561 
L 302.140286 51.561 
Q 293.465571 51.561 293.465571 60.235714 
L 293.465571 118.067143 
Q 293.465571 126.741857 302.140286 126.741857 
z
" clip-path="url(#p70e93a7910)" style="fill: #1e3a5f; opacity: 0.9; stroke: #1f2937; stroke-width: 2; stroke-linejoin: miter"/>
   </g>
   <g id="patch_3">
    <path d="M 200.935286 242.404714 
L 391.779 242.404714 
Q 400.453714 242.404714 400.453714 233.73 
L 400.453714 175.898571 
Q 400.453714 167.223857 391.779 167.223857 
L 200.935286 167.223857 
Q 192.260571 167.223857 192.260571 175.898571 
L 192.260571 233.73 
Q 192.260571 242.404714 200.935286 242.404714 
z
" clip-path="url(#p70e93a7910)" style="fill: #2563eb; opacity: 0.9; stroke: #1f2937; stroke-width: 2; stroke-linejoin: miter"/>
   </g>
   <g id="patch_4">
    <path d="M 432.261 242.404714 
L 623.104714 242.404714 
Q 631.779429 242.404714 631.779429 233.73 
L 631.779429 175.898571 
Q 631.779429 167.223857 623.104714 167.223857 
L 432.261 167.223857 
Q 423.586286 167.223857 423.586286 175.898571 
L 423.586286 233.73 
Q 423.586286 242.404714 432.261 242.404714 
z
" clip-path="url(#p70e93a7910)" style="fill: #059669; opacity: 0.9; stroke: #1f2937; stroke-width: 2; stroke-linejoin: miter"/>
   </g>
   <g id="patch_5">
    <path d="M 663.586714 242.404714 
L 854.430429 242.404714 
Q 863.105143 242.404714 863.105143 233.73 
L 863.105143 175.898571 
Q 863.105143 167.223857 854.430429 167.223857 
L 663.586714 167.223857 
Q 654.912 167.223857 654.912 175.898571 
L 654.912 233.73 
Q 654.912 242.404714 663.586714 242.404714 
z
" clip-path="url(#p70e93a7910)" style="fill: #dc2626; opacity: 0.9; stroke: #1f2937; stroke-width: 2; stroke-linejoin: miter"/>
   </g>
   <g id="patch_6">
    <path d="M 215.393143 349.392857 
L 377.321143 349.392857 
Q 385.995857 349.392857 385.995857 340.718143 
L 385.995857 300.236143 
Q 385.995857 291.561429 377.321143 291.561429 
L 215.393143 291.561429 
Q 206.718429 291.561429 206.718429 300.236143 
L 206.718429 340.718143 
Q 206.718429 349.392857 215.393143 349.392857 
z
" clip-path="url(#p70e93a7910)" style="fill: #64748b; opacity: 0.9; stroke: #1f2937; stroke-width: 2; stroke-linejoin: miter"/>
   </g>
   <g id="patch_7">
    <path d="M 446.718857 349.392857 
L 608.646857 349.392857 
Q 617.321571 349.392857 617.321571 340.718143 
L 617.321571 300.236143 
Q 617.321571 291.561429 608.646857 291.561429 
L 446.718857 291.561429 
Q 438.044143 291.561429 438.044143 300.236143 
L 438.044143 340.718143 
Q 438.044143 349.392857 446.718857 349.392857 
z
" clip-path="url(#p70e93a7910)" style="fill: #64748b; opacity: 0.9; stroke: #1f2937; stroke-width: 2; stroke-linejoin: miter"/>
   </g>
   <g id="patch_8">
    <path d="M 759.008571 279.995143 
L 799.490571 320.477143 
L 759.008571 360.959143 
L 718.526571 320.477143 
z
" clip-path="url(#p70e93a7910)" style="fill: #f59e0b; opacity: 0.9; stroke: #1f2937; stroke-width: 2; stroke-linejoin: miter"/>
   </g>
   <g id="patch_9">
    <path d="M 585.514286 418.790571 
L 701.177143 418.790571 
Q 709.851857 418.790571 709.851857 410.115857 
L 709.851857 369.633857 
Q 709.851857 360.959143 701.177143 360.959143 
L 585.514286 360.959143 
Q 576.839571 360.959143 576.839571 369.633857 
L 576.839571 410.115857 
Q 576.839571 418.790571 585.514286 418.790571 
z
" clip-path="url(#p70e93a7910)" style="fill: #059669; opacity: 0.9; stroke: #1f2937; stroke-width: 2; stroke-linejoin: miter"/>
   </g>
   <g id="patch_10">
    <path d="M 808.165286 418.790571 
L 941.177571 418.790571 
Q 949.852286 418.790571 949.852286 410.115857 
L 949.852286 369.633857 
Q 949.852286 360.959143 941.177571 360.959143 
L 808.165286 360.959143 
Q 799.490571 360.959143 799.490571 369.633857 
L 799.490571 410.115857 
Q 799.490571 418.790571 808.165286 418.790571 
z
" clip-path="url(#p70e93a7910)" style="fill: #7c3aed; opacity: 0.9; stroke: #1f2937; stroke-width: 2; stroke-linejoin: miter"/>
   </g>
   <g id="patch_11">
    <path d="M 244.308857 525.778714 
L 811.056857 525.778714 
Q 819.731571 525.778714 819.731571 517.104 
L 819.731571 470.838857 
Q 819.731571 462.164143 811.056857 462.164143 
L 244.308857 462.164143 
Q 235.634143 462.164143 235.634143 470.838857 
L 235.634143 517.104 
Q 235.634143 525.778714 244.308857 525.778714 
z
" clip-path="url(#p70e93a7910)" style="fill: #1e3a5f; opacity: 0.9; stroke: #1f2937; stroke-width: 2; stroke-linejoin: miter"/>
   </g>
   <g id="patch_12">
    <path d="M 151.778571 641.441571 
L 325.272857 641.441571 
Q 333.947571 641.441571 333.947571 632.766857 
L 333.947571 563.369143 
Q 333.947571 554.694429 325.272857 554.694429 
L 151.778571 554.694429 
Q 143.103857 554.694429 143.103857 563.369143 
L 143.103857 632.766857 
Q 143.103857 641.441571 151.778571 641.441571 
z
" clip-path="url(#p70e93a7910)" style="fill: #7c3aed; opacity: 0.9; stroke: #1f2937; stroke-width: 2; stroke-linejoin: miter"/>
   </g>
   <g id="patch_13">
    <path d="M 354.188571 641.441571 
L 527.682857 641.441571 
Q 536.357571 641.441571 536.357571 632.766857 
L 536.357571 563.369143 
Q 536.357571 554.694429 527.682857 554.694429 
L 354.188571 554.694429 
Q 345.513857 554.694429 345.513857 563.369143 
L 345.513857 632.766857 
Q 345.513857 641.441571 354.188571 641.441571 
z
" clip-path="url(#p70e93a7910)" style="fill: #2563eb; opacity: 0.9; stroke: #1f2937; stroke-width: 2; stroke-linejoin: miter"/>
   </g>
   <g id="patch_14">
    <path d="M 527.682857 641.441571 
L 701.177143 641.441571 
Q 709.851857 641.441571 709.851857 632.766857 
L 709.851857 563.369143 
Q 709.851857 554.694429 701.177143 554.694429 
L 527.682857 554.694429 
Q 519.008143 554.694429 519.008143 563.369143 
L 519.008143 632.766857 
Q 519.008143 641.441571 527.682857 641.441571 
z
" clip-path="url(#p70e93a7910)" style="fill: #059669; opacity: 0.9; stroke: #1f2937; stroke-width: 2; stroke-linejoin: miter"/>
   </g>
   <g id="patch_15">
    <path d="M 730.092857 641.441571 
L 903.587143 641.441571 
Q 912.261857 641.441571 912.261857 632.766857 
L 912.261857 563.369143 
Q 912.261857 554.694429 903.587143 554.694429 
L 730.092857 554.694429 
Q 721.418143 554.694429 721.418143 563.369143 
L 721.418143 632.766857 
Q 721.418143 641.441571 730.092857 641.441571 
z
" clip-path="url(#p70e93a7910)" style="fill: #dc2626; opacity: 0.9; stroke: #1f2937; stroke-width: 2; stroke-linejoin: miter"/>
   </g>
   <g id="patch_16">
    <path d="M 163.344857 742.646571 
L 313.706571 742.646571 
Q 322.381286 742.646571 322.381286 733.971857 
L 322.381286 693.489857 
Q 322.381286 684.815143 313.706571 684.815143 
L 163.344857 684.815143 
Q 154.670143 684.815143 154.670143 693.489857 
L 154.670143 733.971857 
Q 154.670143 742.646571 163.344857 742.646571 
z
" clip-path="url(#p70e93a7910)" style="fill: #64748b; opacity: 0.9; stroke: #1f2937; stroke-width: 2; stroke-linejoin: miter"/>
   </g>
   <g id="patch_17">
    <path d="M 365.754857 742.646571 
L 516.116571 742.646571 
Q 524.791286 742.646571 524.791286 733.971857 
L 524.791286 693.489857 
Q 524.791286 684.815143 516.116571 684.815143 
L 365.754857 684.815143 
Q 357.080143 684.815143 357.080143 693.489857 
L 357.080143 733.971857 
Q 357.080143 742.646571 365.754857 742.646571 
z
" clip-path="url(#p70e93a7910)" style="fill: #64748b; opacity: 0.9; stroke: #1f2937; stroke-width: 2; stroke-linejoin: miter"/>
   </g>
   <g id="patch_18">
    <path d="M 539.249143 742.646571 
L 689.610857 742.646571 
Q 698.285571 742.646571 698.285571 733.971857 
L 698.285571 693.489857 
Q 698.285571 684.815143 689.610857 684.815143 
L 539.249143 684.815143 
Q 530.574429 684.815143 530.574429 693.489857 
L 530.574429 733.971857 
Q 530.574429 742.646571 539.249143 742.646571 
z
" clip-path="url(#p70e93a7910)" style="fill: #64748b; opacity: 0.9; stroke: #1f2937; stroke-width: 2; stroke-linejoin: miter"/>
   </g>
   <g id="patch_19">
    <path d="M 741.659143 742.646571 
L 892.020857 742.646571 
Q 900.695571 742.646571 900.695571 733.971857 
L 900.695571 693.489857 
Q 900.695571 684.815143 892.020857 684.815143 
L 741.659143 684.815143 
Q 732.984429 684.815143 732.984429 693.489857 
L 732.984429 733.971857 
Q 732.984429 742.646571 741.659143 742.646571 
z
" clip-path="url(#p70e93a7910)" style="fill: #64748b; opacity: 0.9; stroke: #1f2937; stroke-width: 2; stroke-linejoin: miter"/>
   </g>
   <g id="patch_20">
    <path d="M 209.61 801.634629 
L 232.742571 801.634629 
Q 233.8992 801.634629 233.8992 800.478 
L 233.8992 777.345429 
Q 233.8992 776.1888 232.742571 776.1888 
L 209.61 776.1888 
Q 208.453371 776.1888 208.453371 777.345429 
L 208.453371 800.478 
Q 208.453371 801.634629 209.61 801.634629 
z
" clip-path="url(#p70e93a7910)" style="fill: #2563eb"/>
   </g>
   <g id="patch_21">
    <path d="M 412.02 801.634629 
L 435.152571 801.634629 
Q 436.3092 801.634629 436.3092 800.478 
L 436.3092 777.345429 
Q 436.3092 776.1888 435.152571 776.1888 
L 412.02 776.1888 
Q 410.863371 776.1888 410.863371 777.345429 
L 410.863371 800.478 
Q 410.863371 801.634629 412.02 801.634629 
z
" clip-path="url(#p70e93a7910)" style="fill: #059669"/>
   </g>
   <g id="patch_22">
    <path d="M 614.43 801.634629 
L 637.562571 801.634629 
Q 638.7192 801.634629 638.7192 800.478 
L 638.7192 777.345429 
Q 638.7192 776.1888 637.562571 776.1888 
L 614.43 776.1888 
Q 613.273371 776.1888 613.273371 777.345429 
L 613.273371 800.478 
Q 613.273371 801.634629 614.43 801.634629 
z
" clip-path="url(#p70e93a7910)" style="fill: #dc2626"/>
   </g>
   <g id="patch_23">
    <path d="M 816.84 801.634629 
L 839.972571 801.634629 
Q 841.1292 801.634629 841.1292 800.478 
L 841.1292 777.345429 
Q 841.1292 776.1888 839.972571 776.1888 
L 816.84 776.1888 
Q 815.683371 776.1888 815.683371 777.345429 
L 815.683371 800.478 
Q 815.683371 801.634629 816.84 801.634629 
z
" clip-path="url(#p70e93a7910)" style="fill: #7c3aed"/>
   </g>
   <g id="text_1">
    <!-- ¿Qué forma tiene la EDO? -->
    <g style="fill: #ffffff" transform="translate(426.914576 93.212522) scale(0.14 -0.14)">
     <defs>
      <path id="DejaVuSans-Bold-bf" d="M 1522 1919 
L 2650 1919 
L 2650 1766 
Q 2650 1513 2548 1316 
Q 2447 1119 2106 806 
L 1906 625 
Q 1731 466 1650 322 
Q 1569 178 1569 31 
Q 1569 -188 1719 -313 
Q 1869 -438 2138 -438 
Q 2391 -438 2686 -331 
Q 2981 -225 3297 -19 
L 3297 -1000 
Q 2925 -1131 2608 -1193 
Q 2291 -1256 2003 -1256 
Q 1241 -1256 841 -945 
Q 441 -634 441 -41 
Q 441 269 562 511 
Q 684 753 978 1028 
L 1178 1209 
Q 1391 1400 1456 1519 
Q 1522 1638 1522 1778 
L 1522 1919 
z
M 2650 2388 
L 1522 2388 
L 1522 3500 
L 2650 3500 
L 2650 2388 
z
" transform="scale(0.015625)"/>
      <path id="DejaVuSans-Bold-51" d="M 2847 -84 
L 2753 -84 
Q 1600 -84 959 553 
Q 319 1191 319 2328 
Q 319 3463 958 4106 
Q 1597 4750 2719 4750 
Q 3853 4750 4486 4112 
Q 5119 3475 5119 2328 
Q 5119 1541 4783 972 
Q 4447 403 3816 116 
L 4756 -934 
L 3609 -934 
L 2847 -84 
z
M 2719 3878 
Q 2169 3878 1866 3472 
Q 1563 3066 1563 2328 
Q 1563 1578 1859 1179 
Q 2156 781 2719 781 
Q 3272 781 3575 1187 
Q 3878 1594 3878 2328 
Q 3878 3066 3575 3472 
Q 3272 3878 2719 3878 
z
" transform="scale(0.015625)"/>
      <path id="DejaVuSans-Bold-75" d="M 500 1363 
L 500 3500 
L 1625 3500 
L 1625 3150 
Q 1625 2866 1622 2436 
Q 1619 2006 1619 1863 
Q 1619 1441 1641 1255 
Q 1663 1069 1716 984 
Q 1784 875 1895 815 
Q 2006 756 2150 756 
Q 2500 756 2700 1025 
Q 2900 1294 2900 1772 
L 2900 3500 
L 4019 3500 
L 4019 0 
L 2900 0 
L 2900 506 
Q 2647 200 2364 54 
Q 2081 -91 1741 -91 
Q 1134 -91 817 281 
Q 500 653 500 1363 
z
" transform="scale(0.015625)"/>
      <path id="DejaVuSans-Bold-e9" d="M 4031 1759 
L 4031 1441 
L 1416 1441 
Q 1456 1047 1700 850 
Q 1944 653 2381 653 
Q 2734 653 3104 758 
Q 3475 863 3866 1075 
L 3866 213 
Q 3469 63 3072 -14 
Q 2675 -91 2278 -91 
Q 1328 -91 801 392 
Q 275 875 275 1747 
Q 275 2603 792 3093 
Q 1309 3584 2216 3584 
Q 3041 3584 3536 3087 
Q 4031 2591 4031 1759 
z
M 2881 2131 
Q 2881 2450 2695 2645 
Q 2509 2841 2209 2841 
Q 1884 2841 1681 2658 
Q 1478 2475 1428 2131 
L 2881 2131 
z
M 2702 5119 
L 3586 5119 
L 2433 3944 
L 1821 3944 
L 2702 5119 
z
" transform="scale(0.015625)"/>
      <path id="DejaVuSans-Bold-20" transform="scale(0.015625)"/>
      <path id="DejaVuSans-Bold-66" d="M 2841 4863 
L 2841 4128 
L 2222 4128 
Q 1984 4128 1890 4042 
Q 1797 3956 1797 3744 
L 1797 3500 
L 2753 3500 
L 2753 2700 
L 1797 2700 
L 1797 0 
L 678 0 
L 678 2700 
L 122 2700 
L 122 3500 
L 678 3500 
L 678 3744 
Q 678 4316 997 4589 
Q 1316 4863 1984 4863 
L 2841 4863 
z
" transform="scale(0.015625)"/>
      <path id="DejaVuSans-Bold-6f" d="M 2203 2784 
Q 1831 2784 1636 2517 
Q 1441 2250 1441 1747 
Q 1441 1244 1636 976 
Q 1831 709 2203 709 
Q 2569 709 2762 976 
Q 2956 1244 2956 1747 
Q 2956 2250 2762 2517 
Q 2569 2784 2203 2784 
z
M 2203 3584 
Q 3106 3584 3614 3096 
Q 4122 2609 4122 1747 
Q 4122 884 3614 396 
Q 3106 -91 2203 -91 
Q 1297 -91 786 396 
Q 275 884 275 1747 
Q 275 2609 786 3096 
Q 1297 3584 2203 3584 
z
" transform="scale(0.015625)"/>
      <path id="DejaVuSans-Bold-72" d="M 3138 2547 
Q 2991 2616 2845 2648 
Q 2700 2681 2553 2681 
Q 2122 2681 1889 2404 
Q 1656 2128 1656 1613 
L 1656 0 
L 538 0 
L 538 3500 
L 1656 3500 
L 1656 2925 
Q 1872 3269 2151 3426 
Q 2431 3584 2822 3584 
Q 2878 3584 2943 3579 
Q 3009 3575 3134 3559 
L 3138 2547 
z
" transform="scale(0.015625)"/>
      <path id="DejaVuSans-Bold-6d" d="M 3781 2919 
Q 3994 3244 4286 3414 
Q 4578 3584 4928 3584 
Q 5531 3584 5847 3212 
Q 6163 2841 6163 2131 
L 6163 0 
L 5038 0 
L 5038 1825 
Q 5041 1866 5042 1909 
Q 5044 1953 5044 2034 
Q 5044 2406 4934 2573 
Q 4825 2741 4581 2741 
Q 4263 2741 4089 2478 
Q 3916 2216 3909 1719 
L 3909 0 
L 2784 0 
L 2784 1825 
Q 2784 2406 2684 2573 
Q 2584 2741 2328 2741 
Q 2006 2741 1831 2477 
Q 1656 2213 1656 1722 
L 1656 0 
L 531 0 
L 531 3500 
L 1656 3500 
L 1656 2988 
Q 1863 3284 2130 3434 
Q 2397 3584 2719 3584 
Q 3081 3584 3359 3409 
Q 3638 3234 3781 2919 
z
" transform="scale(0.015625)"/>
      <path id="DejaVuSans-Bold-61" d="M 2106 1575 
Q 1756 1575 1579 1456 
Q 1403 1338 1403 1106 
Q 1403 894 1545 773 
Q 1688 653 1941 653 
Q 2256 653 2472 879 
Q 2688 1106 2688 1447 
L 2688 1575 
L 2106 1575 
z
M 3816 1997 
L 3816 0 
L 2688 0 
L 2688 519 
Q 2463 200 2181 54 
Q 1900 -91 1497 -91 
Q 953 -91 614 226 
Q 275 544 275 1050 
Q 275 1666 698 1953 
Q 1122 2241 2028 2241 
L 2688 2241 
L 2688 2328 
Q 2688 2594 2478 2717 
Q 2269 2841 1825 2841 
Q 1466 2841 1156 2769 
Q 847 2697 581 2553 
L 581 3406 
Q 941 3494 1303 3539 
Q 1666 3584 2028 3584 
Q 2975 3584 3395 3211 
Q 3816 2838 3816 1997 
z
" transform="scale(0.015625)"/>
      <path id="DejaVuSans-Bold-74" d="M 1759 4494 
L 1759 3500 
L 2913 3500 
L 2913 2700 
L 1759 2700 
L 1759 1216 
Q 1759 972 1856 886 
Q 1953 800 2241 800 
L 2816 800 
L 2816 0 
L 1856 0 
Q 1194 0 917 276 
Q 641 553 641 1216 
L 641 2700 
L 84 2700 
L 84 3500 
L 641 3500 
L 641 4494 
L 1759 4494 
z
" transform="scale(0.015625)"/>
      <path id="DejaVuSans-Bold-69" d="M 538 3500 
L 1656 3500 
L 1656 0 
L 538 0 
L 538 3500 
z
M 538 4863 
L 1656 4863 
L 1656 3950 
L 538 3950 
L 538 4863 
z
" transform="scale(0.015625)"/>
      <path id="DejaVuSans-Bold-65" d="M 4031 1759 
L 4031 1441 
L 1416 1441 
Q 1456 1047 1700 850 
Q 1944 653 2381 653 
Q 2734 653 3104 758 
Q 3475 863 3866 1075 
L 3866 213 
Q 3469 63 3072 -14 
Q 2675 -91 2278 -91 
Q 1328 -91 801 392 
Q 275 875 275 1747 
Q 275 2603 792 3093 
Q 1309 3584 2216 3584 
Q 3041 3584 3536 3087 
Q 4031 2591 4031 1759 
z
M 2881 2131 
Q 2881 2450 2695 2645 
Q 2509 2841 2209 2841 
Q 1884 2841 1681 2658 
Q 1478 2475 1428 2131 
L 2881 2131 
z
" transform="scale(0.015625)"/>
      <path id="DejaVuSans-Bold-6e" d="M 4056 2131 
L 4056 0 
L 2931 0 
L 2931 347 
L 2931 1631 
Q 2931 2084 2911 2256 
Q 2891 2428 2841 2509 
Q 2775 2619 2662 2680 
Q 2550 2741 2406 2741 
Q 2056 2741 1856 2470 
Q 1656 2200 1656 1722 
L 1656 0 
L 538 0 
L 538 3500 
L 1656 3500 
L 1656 2988 
Q 1909 3294 2193 3439 
Q 2478 3584 2822 3584 
Q 3428 3584 3742 3212 
Q 4056 2841 4056 2131 
z
" transform="scale(0.015625)"/>
      <path id="DejaVuSans-Bold-6c" d="M 538 4863 
L 1656 4863 
L 1656 0 
L 538 0 
L 538 4863 
z
" transform="scale(0.015625)"/>
      <path id="DejaVuSans-Bold-45" d="M 588 4666 
L 3834 4666 
L 3834 3756 
L 1791 3756 
L 1791 2888 
L 3713 2888 
L 3713 1978 
L 1791 1978 
L 1791 909 
L 3903 909 
L 3903 0 
L 588 0 
L 588 4666 
z
" transform="scale(0.015625)"/>
      <path id="DejaVuSans-Bold-44" d="M 1791 3756 
L 1791 909 
L 2222 909 
Q 2959 909 3348 1275 
Q 3738 1641 3738 2338 
Q 3738 3031 3350 3393 
Q 2963 3756 2222 3756 
L 1791 3756 
z
M 588 4666 
L 1856 4666 
Q 2919 4666 3439 4514 
Q 3959 4363 4331 4000 
Q 4659 3684 4818 3271 
Q 4978 2859 4978 2338 
Q 4978 1809 4818 1395 
Q 4659 981 4331 666 
Q 3956 303 3431 151 
Q 2906 0 1856 0 
L 588 0 
L 588 4666 
z
" transform="scale(0.015625)"/>
      <path id="DejaVuSans-Bold-4f" d="M 2719 3878 
Q 2169 3878 1866 3472 
Q 1563 3066 1563 2328 
Q 1563 1594 1866 1187 
Q 2169 781 2719 781 
Q 3272 781 3575 1187 
Q 3878 1594 3878 2328 
Q 3878 3066 3575 3472 
Q 3272 3878 2719 3878 
z
M 2719 4750 
Q 3844 4750 4481 4106 
Q 5119 3463 5119 2328 
Q 5119 1197 4481 553 
Q 3844 -91 2719 -91 
Q 1597 -91 958 553 
Q 319 1197 319 2328 
Q 319 3463 958 4106 
Q 1597 4750 2719 4750 
z
" transform="scale(0.015625)"/>
      <path id="DejaVuSans-Bold-3f" d="M 2216 1575 
L 1088 1575 
L 1088 1728 
Q 1088 1984 1191 2182 
Q 1294 2381 1625 2688 
L 1825 2869 
Q 2003 3031 2086 3175 
Q 2169 3319 2169 3463 
Q 2169 3681 2019 3804 
Q 1869 3928 1600 3928 
Q 1347 3928 1053 3823 
Q 759 3719 441 3513 
L 441 4494 
Q 819 4625 1131 4687 
Q 1444 4750 1734 4750 
Q 2497 4750 2897 4439 
Q 3297 4128 3297 3531 
Q 3297 3225 3175 2983 
Q 3053 2741 2759 2463 
L 2559 2284 
Q 2347 2091 2281 1973 
Q 2216 1856 2216 1716 
L 2216 1575 
z
M 1088 1113 
L 2216 1113 
L 2216 0 
L 1088 0 
L 1088 1113 
z
" transform="scale(0.015625)"/>
     </defs>
     <use xlink:href="#DejaVuSans-Bold-bf"/>
     <use xlink:href="#DejaVuSans-Bold-51" transform="translate(58.007812 0)"/>
     <use xlink:href="#DejaVuSans-Bold-75" transform="translate(143.017578 0)"/>
     <use xlink:href="#DejaVuSans-Bold-e9" transform="translate(214.208984 0)"/>
     <use xlink:href="#DejaVuSans-Bold-20" transform="translate(282.03125 0)"/>
     <use xlink:href="#DejaVuSans-Bold-66" transform="translate(316.845703 0)"/>
     <use xlink:href="#DejaVuSans-Bold-6f" transform="translate(360.351562 0)"/>
     <use xlink:href="#DejaVuSans-Bold-72" transform="translate(429.052734 0)"/>
     <use xlink:href="#DejaVuSans-Bold-6d" transform="translate(478.369141 0)"/>
     <use xlink:href="#DejaVuSans-Bold-61" transform="translate(582.568359 0)"/>
     <use xlink:href="#DejaVuSans-Bold-20" transform="translate(650.048828 0)"/>
     <use xlink:href="#DejaVuSans-Bold-74" transform="translate(684.863281 0)"/>
     <use xlink:href="#DejaVuSans-Bold-69" transform="translate(732.666016 0)"/>
     <use xlink:href="#DejaVuSans-Bold-65" transform="translate(766.943359 0)"/>
     <use xlink:href="#DejaVuSans-Bold-6e" transform="translate(834.765625 0)"/>
     <use xlink:href="#DejaVuSans-Bold-65" transform="translate(905.957031 0)"/>
     <use xlink:href="#DejaVuSans-Bold-20" transform="translate(973.779297 0)"/>
     <use xlink:href="#DejaVuSans-Bold-6c" transform="translate(1008.59375 0)"/>
     <use xlink:href="#DejaVuSans-Bold-61" transform="translate(1042.871094 0)"/>
     <use xlink:href="#DejaVuSans-Bold-20" transform="translate(1110.351562 0)"/>
     <use xlink:href="#DejaVuSans-Bold-45" transform="translate(1145.166016 0)"/>
     <use xlink:href="#DejaVuSans-Bold-44" transform="translate(1213.476562 0)"/>
     <use xlink:href="#DejaVuSans-Bold-4f" transform="translate(1296.484375 0)"/>
     <use xlink:href="#DejaVuSans-Bold-3f" transform="translate(1381.494141 0)"/>
    </g>
   </g>
   <g id="patch_24">
    <path d="M 296.357143 125.85236 
Q 296.357143 146.98295 296.357143 165.877473 
" style="fill: none; stroke: #64748b; stroke-width: 2; stroke-linecap: round"/>
    <path d="M 298.757143 161.077473 
L 296.357143 165.877473 
L 293.957143 161.077473 
" style="fill: none; stroke: #64748b; stroke-width: 2; stroke-linecap: round"/>
   </g>
   <g id="patch_25">
    <path d="M 527.682857 125.85236 
Q 527.682857 146.98295 527.682857 165.877473 
" style="fill: none; stroke: #64748b; stroke-width: 2; stroke-linecap: round"/>
    <path d="M 530.082857 161.077473 
L 527.682857 165.877473 
L 525.282857 161.077473 
" style="fill: none; stroke: #64748b; stroke-width: 2; stroke-linecap: round"/>
   </g>
   <g id="patch_26">
    <path d="M 759.008571 125.85236 
Q 759.008571 146.98295 759.008571 165.877473 
" style="fill: none; stroke: #64748b; stroke-width: 2; stroke-linecap: round"/>
    <path d="M 761.408571 161.077473 
L 759.008571 165.877473 
L 756.608571 161.077473 
" style="fill: none; stroke: #64748b; stroke-width: 2; stroke-linecap: round"/>
   </g>
   <g id="text_2">
    <!-- y' = g(x)·h(y) -->
    <g style="fill: #ffffff" transform="translate(259.233705 201.935692) scale(0.1 -0.1)">
     <defs>
      <path id="DejaVuSans-Bold-79" d="M 78 3500 
L 1197 3500 
L 2138 1125 
L 2938 3500 
L 4056 3500 
L 2584 -331 
Q 2363 -916 2067 -1148 
Q 1772 -1381 1288 -1381 
L 641 -1381 
L 641 -647 
L 991 -647 
Q 1275 -647 1404 -556 
Q 1534 -466 1606 -231 
L 1638 -134 
L 78 3500 
z
" transform="scale(0.015625)"/>
      <path id="DejaVuSans-Bold-27" d="M 1350 4666 
L 1350 2931 
L 609 2931 
L 609 4666 
L 1350 4666 
z
" transform="scale(0.015625)"/>
      <path id="DejaVuSans-Bold-3d" d="M 678 3084 
L 4684 3084 
L 4684 2350 
L 678 2350 
L 678 3084 
z
M 678 1663 
L 4684 1663 
L 4684 922 
L 678 922 
L 678 1663 
z
" transform="scale(0.015625)"/>
      <path id="DejaVuSans-Bold-67" d="M 2919 594 
Q 2688 288 2409 144 
Q 2131 0 1766 0 
Q 1125 0 706 504 
Q 288 1009 288 1791 
Q 288 2575 706 3076 
Q 1125 3578 1766 3578 
Q 2131 3578 2409 3434 
Q 2688 3291 2919 2981 
L 2919 3500 
L 4044 3500 
L 4044 353 
Q 4044 -491 3511 -936 
Q 2978 -1381 1966 -1381 
Q 1638 -1381 1331 -1331 
Q 1025 -1281 716 -1178 
L 716 -306 
Q 1009 -475 1290 -558 
Q 1572 -641 1856 -641 
Q 2406 -641 2662 -400 
Q 2919 -159 2919 353 
L 2919 594 
z
M 2181 2772 
Q 1834 2772 1640 2515 
Q 1447 2259 1447 1791 
Q 1447 1309 1634 1061 
Q 1822 813 2181 813 
Q 2531 813 2725 1069 
Q 2919 1325 2919 1791 
Q 2919 2259 2725 2515 
Q 2531 2772 2181 2772 
z
" transform="scale(0.015625)"/>
      <path id="DejaVuSans-Bold-28" d="M 2413 -844 
L 1484 -844 
Q 1006 -72 778 623 
Q 550 1319 550 2003 
Q 550 2688 779 3389 
Q 1009 4091 1484 4856 
L 2413 4856 
Q 2013 4116 1813 3408 
Q 1613 2700 1613 2009 
Q 1613 1319 1811 609 
Q 2009 -100 2413 -844 
z
" transform="scale(0.015625)"/>
      <path id="DejaVuSans-Bold-78" d="M 1422 1791 
L 159 3500 
L 1344 3500 
L 2059 2463 
L 2784 3500 
L 3969 3500 
L 2706 1797 
L 4031 0 
L 2847 0 
L 2059 1106 
L 1281 0 
L 97 0 
L 1422 1791 
z
" transform="scale(0.015625)"/>
      <path id="DejaVuSans-Bold-29" d="M 513 -844 
Q 913 -100 1113 609 
Q 1313 1319 1313 2009 
Q 1313 2700 1113 3408 
Q 913 4116 513 4856 
L 1441 4856 
Q 1916 4091 2145 3389 
Q 2375 2688 2375 2003 
Q 2375 1319 2147 623 
Q 1919 -72 1441 -844 
L 513 -844 
z
" transform="scale(0.015625)"/>
      <path id="DejaVuSans-Bold-b7" d="M 653 2828 
L 1778 2828 
L 1778 1619 
L 653 1619 
L 653 2828 
z
" transform="scale(0.015625)"/>
      <path id="DejaVuSans-Bold-68" d="M 4056 2131 
L 4056 0 
L 2931 0 
L 2931 347 
L 2931 1625 
Q 2931 2084 2911 2256 
Q 2891 2428 2841 2509 
Q 2775 2619 2662 2680 
Q 2550 2741 2406 2741 
Q 2056 2741 1856 2470 
Q 1656 2200 1656 1722 
L 1656 0 
L 538 0 
L 538 4863 
L 1656 4863 
L 1656 2988 
Q 1909 3294 2193 3439 
Q 2478 3584 2822 3584 
Q 3428 3584 3742 3212 
Q 4056 2841 4056 2131 
z
" transform="scale(0.015625)"/>
     </defs>
     <use xlink:href="#DejaVuSans-Bold-79"/>
     <use xlink:href="#DejaVuSans-Bold-27" transform="translate(65.185547 0)"/>
     <use xlink:href="#DejaVuSans-Bold-20" transform="translate(95.800781 0)"/>
     <use xlink:href="#DejaVuSans-Bold-3d" transform="translate(130.615234 0)"/>
     <use xlink:href="#DejaVuSans-Bold-20" transform="translate(214.404297 0)"/>
     <use xlink:href="#DejaVuSans-Bold-67" transform="translate(249.21875 0)"/>
     <use xlink:href="#DejaVuSans-Bold-28" transform="translate(320.800781 0)"/>
     <use xlink:href="#DejaVuSans-Bold-78" transform="translate(366.503906 0)"/>
     <use xlink:href="#DejaVuSans-Bold-29" transform="translate(431.005859 0)"/>
     <use xlink:href="#DejaVuSans-Bold-b7" transform="translate(476.708984 0)"/>
     <use xlink:href="#DejaVuSans-Bold-68" transform="translate(514.697266 0)"/>
     <use xlink:href="#DejaVuSans-Bold-28" transform="translate(585.888672 0)"/>
     <use xlink:href="#DejaVuSans-Bold-79" transform="translate(631.591797 0)"/>
     <use xlink:href="#DejaVuSans-Bold-29" transform="translate(696.777344 0)"/>
    </g>
    <!-- SEPARABLE -->
    <g style="fill: #ffffff" transform="translate(264.13058 213.211629) scale(0.1 -0.1)">
     <defs>
      <path id="DejaVuSans-Bold-53" d="M 3834 4519 
L 3834 3531 
Q 3450 3703 3084 3790 
Q 2719 3878 2394 3878 
Q 1963 3878 1756 3759 
Q 1550 3641 1550 3391 
Q 1550 3203 1689 3098 
Q 1828 2994 2194 2919 
L 2706 2816 
Q 3484 2659 3812 2340 
Q 4141 2022 4141 1434 
Q 4141 663 3683 286 
Q 3225 -91 2284 -91 
Q 1841 -91 1394 -6 
Q 947 78 500 244 
L 500 1259 
Q 947 1022 1364 901 
Q 1781 781 2169 781 
Q 2563 781 2772 912 
Q 2981 1044 2981 1288 
Q 2981 1506 2839 1625 
Q 2697 1744 2272 1838 
L 1806 1941 
Q 1106 2091 782 2419 
Q 459 2747 459 3303 
Q 459 4000 909 4375 
Q 1359 4750 2203 4750 
Q 2588 4750 2994 4692 
Q 3400 4634 3834 4519 
z
" transform="scale(0.015625)"/>
      <path id="DejaVuSans-Bold-50" d="M 588 4666 
L 2584 4666 
Q 3475 4666 3951 4270 
Q 4428 3875 4428 3144 
Q 4428 2409 3951 2014 
Q 3475 1619 2584 1619 
L 1791 1619 
L 1791 0 
L 588 0 
L 588 4666 
z
M 1791 3794 
L 1791 2491 
L 2456 2491 
Q 2806 2491 2997 2661 
Q 3188 2831 3188 3144 
Q 3188 3456 2997 3625 
Q 2806 3794 2456 3794 
L 1791 3794 
z
" transform="scale(0.015625)"/>
      <path id="DejaVuSans-Bold-41" d="M 3419 850 
L 1538 850 
L 1241 0 
L 31 0 
L 1759 4666 
L 3194 4666 
L 4922 0 
L 3713 0 
L 3419 850 
z
M 1838 1716 
L 3116 1716 
L 2478 3572 
L 1838 1716 
z
" transform="scale(0.015625)"/>
      <path id="DejaVuSans-Bold-52" d="M 2297 2597 
Q 2675 2597 2839 2737 
Q 3003 2878 3003 3200 
Q 3003 3519 2839 3656 
Q 2675 3794 2297 3794 
L 1791 3794 
L 1791 2597 
L 2297 2597 
z
M 1791 1766 
L 1791 0 
L 588 0 
L 588 4666 
L 2425 4666 
Q 3347 4666 3776 4356 
Q 4206 4047 4206 3378 
Q 4206 2916 3982 2619 
Q 3759 2322 3309 2181 
Q 3556 2125 3751 1926 
Q 3947 1728 4147 1325 
L 4800 0 
L 3519 0 
L 2950 1159 
Q 2778 1509 2601 1637 
Q 2425 1766 2131 1766 
L 1791 1766 
z
" transform="scale(0.015625)"/>
      <path id="DejaVuSans-Bold-42" d="M 2456 2859 
Q 2741 2859 2887 2984 
Q 3034 3109 3034 3353 
Q 3034 3594 2887 3720 
Q 2741 3847 2456 3847 
L 1791 3847 
L 1791 2859 
L 2456 2859 
z
M 2497 819 
Q 2859 819 3042 972 
Q 3225 1125 3225 1434 
Q 3225 1738 3044 1889 
Q 2863 2041 2497 2041 
L 1791 2041 
L 1791 819 
L 2497 819 
z
M 3616 2497 
Q 4003 2384 4215 2081 
Q 4428 1778 4428 1338 
Q 4428 663 3972 331 
Q 3516 0 2584 0 
L 588 0 
L 588 4666 
L 2394 4666 
Q 3366 4666 3802 4372 
Q 4238 4078 4238 3431 
Q 4238 3091 4078 2852 
Q 3919 2613 3616 2497 
z
" transform="scale(0.015625)"/>
      <path id="DejaVuSans-Bold-4c" d="M 588 4666 
L 1791 4666 
L 1791 909 
L 3903 909 
L 3903 0 
L 588 0 
L 588 4666 
z
" transform="scale(0.015625)"/>
     </defs>
     <use xlink:href="#DejaVuSans-Bold-53"/>
     <use xlink:href="#DejaVuSans-Bold-45" transform="translate(72.021484 0)"/>
     <use xlink:href="#DejaVuSans-Bold-50" transform="translate(140.332031 0)"/>
     <use xlink:href="#DejaVuSans-Bold-41" transform="translate(204.498047 0)"/>
     <use xlink:href="#DejaVuSans-Bold-52" transform="translate(281.890625 0)"/>
     <use xlink:href="#DejaVuSans-Bold-41" transform="translate(358.892578 0)"/>
     <use xlink:href="#DejaVuSans-Bold-42" transform="translate(436.285156 0)"/>
     <use xlink:href="#DejaVuSans-Bold-4c" transform="translate(512.505859 0)"/>
     <use xlink:href="#DejaVuSans-Bold-45" transform="translate(576.226562 0)"/>
    </g>
   </g>
   <g id="text_3">
    <!-- y' + P(x)y = Q(x) -->
    <g style="fill: #ffffff" transform="translate(480.785201 201.930223) scale(0.1 -0.1)">
     <defs>
      <path id="DejaVuSans-Bold-2b" d="M 3053 4013 
L 3053 2375 
L 4684 2375 
L 4684 1638 
L 3053 1638 
L 3053 0 
L 2309 0 
L 2309 1638 
L 678 1638 
L 678 2375 
L 2309 2375 
L 2309 4013 
L 3053 4013 
z
" transform="scale(0.015625)"/>
     </defs>
     <use xlink:href="#DejaVuSans-Bold-79"/>
     <use xlink:href="#DejaVuSans-Bold-27" transform="translate(65.185547 0)"/>
     <use xlink:href="#DejaVuSans-Bold-20" transform="translate(95.800781 0)"/>
     <use xlink:href="#DejaVuSans-Bold-2b" transform="translate(130.615234 0)"/>
     <use xlink:href="#DejaVuSans-Bold-20" transform="translate(214.404297 0)"/>
     <use xlink:href="#DejaVuSans-Bold-50" transform="translate(249.21875 0)"/>
     <use xlink:href="#DejaVuSans-Bold-28" transform="translate(322.509766 0)"/>
     <use xlink:href="#DejaVuSans-Bold-78" transform="translate(368.212891 0)"/>
     <use xlink:href="#DejaVuSans-Bold-29" transform="translate(432.714844 0)"/>
     <use xlink:href="#DejaVuSans-Bold-79" transform="translate(478.417969 0)"/>
     <use xlink:href="#DejaVuSans-Bold-20" transform="translate(543.603516 0)"/>
     <use xlink:href="#DejaVuSans-Bold-3d" transform="translate(578.417969 0)"/>
     <use xlink:href="#DejaVuSans-Bold-20" transform="translate(662.207031 0)"/>
     <use xlink:href="#DejaVuSans-Bold-51" transform="translate(697.021484 0)"/>
     <use xlink:href="#DejaVuSans-Bold-28" transform="translate(782.03125 0)"/>
     <use xlink:href="#DejaVuSans-Bold-78" transform="translate(827.734375 0)"/>
     <use xlink:href="#DejaVuSans-Bold-29" transform="translate(892.236328 0)"/>
    </g>
    <!-- LINEAL -->
    <g style="fill: #ffffff" transform="translate(507.981295 213.206161) scale(0.1 -0.1)">
     <defs>
      <path id="DejaVuSans-Bold-49" d="M 588 4666 
L 1791 4666 
L 1791 0 
L 588 0 
L 588 4666 
z
" transform="scale(0.015625)"/>
      <path id="DejaVuSans-Bold-4e" d="M 588 4666 
L 1931 4666 
L 3628 1466 
L 3628 4666 
L 4769 4666 
L 4769 0 
L 3425 0 
L 1728 3200 
L 1728 0 
L 588 0 
L 588 4666 
z
" transform="scale(0.015625)"/>
     </defs>
     <use xlink:href="#DejaVuSans-Bold-4c"/>
     <use xlink:href="#DejaVuSans-Bold-49" transform="translate(63.720703 0)"/>
     <use xlink:href="#DejaVuSans-Bold-4e" transform="translate(100.927734 0)"/>
     <use xlink:href="#DejaVuSans-Bold-45" transform="translate(184.619141 0)"/>
     <use xlink:href="#DejaVuSans-Bold-41" transform="translate(252.929688 0)"/>
     <use xlink:href="#DejaVuSans-Bold-4c" transform="translate(330.322266 0)"/>
    </g>
   </g>
   <g id="text_4">
    <!-- M dx + N dy = 0 -->
    <g style="fill: #ffffff" transform="translate(713.903884 201.935692) scale(0.1 -0.1)">
     <defs>
      <path id="DejaVuSans-Bold-4d" d="M 588 4666 
L 2119 4666 
L 3181 2169 
L 4250 4666 
L 5778 4666 
L 5778 0 
L 4641 0 
L 4641 3413 
L 3566 897 
L 2803 897 
L 1728 3413 
L 1728 0 
L 588 0 
L 588 4666 
z
" transform="scale(0.015625)"/>
      <path id="DejaVuSans-Bold-64" d="M 2919 2988 
L 2919 4863 
L 4044 4863 
L 4044 0 
L 2919 0 
L 2919 506 
Q 2688 197 2409 53 
Q 2131 -91 1766 -91 
Q 1119 -91 703 423 
Q 288 938 288 1747 
Q 288 2556 703 3070 
Q 1119 3584 1766 3584 
Q 2128 3584 2408 3439 
Q 2688 3294 2919 2988 
z
M 2181 722 
Q 2541 722 2730 984 
Q 2919 1247 2919 1747 
Q 2919 2247 2730 2509 
Q 2541 2772 2181 2772 
Q 1825 2772 1636 2509 
Q 1447 2247 1447 1747 
Q 1447 1247 1636 984 
Q 1825 722 2181 722 
z
" transform="scale(0.015625)"/>
      <path id="DejaVuSans-Bold-30" d="M 2944 2338 
Q 2944 3213 2780 3570 
Q 2616 3928 2228 3928 
Q 1841 3928 1675 3570 
Q 1509 3213 1509 2338 
Q 1509 1453 1675 1090 
Q 1841 728 2228 728 
Q 2613 728 2778 1090 
Q 2944 1453 2944 2338 
z
M 4147 2328 
Q 4147 1169 3647 539 
Q 3147 -91 2228 -91 
Q 1306 -91 806 539 
Q 306 1169 306 2328 
Q 306 3491 806 4120 
Q 1306 4750 2228 4750 
Q 3147 4750 3647 4120 
Q 4147 3491 4147 2328 
z
" transform="scale(0.015625)"/>
     </defs>
     <use xlink:href="#DejaVuSans-Bold-4d"/>
     <use xlink:href="#DejaVuSans-Bold-20" transform="translate(99.511719 0)"/>
     <use xlink:href="#DejaVuSans-Bold-64" transform="translate(134.326172 0)"/>
     <use xlink:href="#DejaVuSans-Bold-78" transform="translate(205.908203 0)"/>
     <use xlink:href="#DejaVuSans-Bold-20" transform="translate(270.410156 0)"/>
     <use xlink:href="#DejaVuSans-Bold-2b" transform="translate(305.224609 0)"/>
     <use xlink:href="#DejaVuSans-Bold-20" transform="translate(389.013672 0)"/>
     <use xlink:href="#DejaVuSans-Bold-4e" transform="translate(423.828125 0)"/>
     <use xlink:href="#DejaVuSans-Bold-20" transform="translate(507.519531 0)"/>
     <use xlink:href="#DejaVuSans-Bold-64" transform="translate(542.333984 0)"/>
     <use xlink:href="#DejaVuSans-Bold-79" transform="translate(613.916016 0)"/>
     <use xlink:href="#DejaVuSans-Bold-20" transform="translate(679.101562 0)"/>
     <use xlink:href="#DejaVuSans-Bold-3d" transform="translate(713.916016 0)"/>
     <use xlink:href="#DejaVuSans-Bold-20" transform="translate(797.705078 0)"/>
     <use xlink:href="#DejaVuSans-Bold-30" transform="translate(832.519531 0)"/>
    </g>
    <!-- DIFERENCIAL -->
    <g style="fill: #ffffff" transform="translate(722.131228 213.211629) scale(0.1 -0.1)">
     <defs>
      <path id="DejaVuSans-Bold-46" d="M 588 4666 
L 3834 4666 
L 3834 3756 
L 1791 3756 
L 1791 2888 
L 3713 2888 
L 3713 1978 
L 1791 1978 
L 1791 0 
L 588 0 
L 588 4666 
z
" transform="scale(0.015625)"/>
      <path id="DejaVuSans-Bold-43" d="M 4288 256 
Q 3956 84 3597 -3 
Q 3238 -91 2847 -91 
Q 1681 -91 1000 561 
Q 319 1213 319 2328 
Q 319 3447 1000 4098 
Q 1681 4750 2847 4750 
Q 3238 4750 3597 4662 
Q 3956 4575 4288 4403 
L 4288 3438 
Q 3953 3666 3628 3772 
Q 3303 3878 2944 3878 
Q 2300 3878 1931 3465 
Q 1563 3053 1563 2328 
Q 1563 1606 1931 1193 
Q 2300 781 2944 781 
Q 3303 781 3628 887 
Q 3953 994 4288 1222 
L 4288 256 
z
" transform="scale(0.015625)"/>
     </defs>
     <use xlink:href="#DejaVuSans-Bold-44"/>
     <use xlink:href="#DejaVuSans-Bold-49" transform="translate(83.007812 0)"/>
     <use xlink:href="#DejaVuSans-Bold-46" transform="translate(120.214844 0)"/>
     <use xlink:href="#DejaVuSans-Bold-45" transform="translate(188.525391 0)"/>
     <use xlink:href="#DejaVuSans-Bold-52" transform="translate(256.835938 0)"/>
     <use xlink:href="#DejaVuSans-Bold-45" transform="translate(333.837891 0)"/>
     <use xlink:href="#DejaVuSans-Bold-4e" transform="translate(402.148438 0)"/>
     <use xlink:href="#DejaVuSans-Bold-43" transform="translate(485.839844 0)"/>
     <use xlink:href="#DejaVuSans-Bold-49" transform="translate(559.228516 0)"/>
     <use xlink:href="#DejaVuSans-Bold-41" transform="translate(596.435547 0)"/>
     <use xlink:href="#DejaVuSans-Bold-4c" transform="translate(673.828125 0)"/>
    </g>
   </g>
   <g id="patch_27">
    <path d="M 296.357143 241.515217 
Q 296.357143 262.645807 296.357143 281.54033 
" style="fill: none; stroke: #64748b; stroke-width: 2; stroke-linecap: round"/>
    <path d="M 298.757143 276.74033 
L 296.357143 281.54033 
L 293.957143 276.74033 
" style="fill: none; stroke: #64748b; stroke-width: 2; stroke-linecap: round"/>
   </g>
   <g id="text_5">
    <!-- Separar e -->
    <g style="fill: #ffffff" transform="translate(271.712612 317.886408) scale(0.09 -0.09)">
     <defs>
      <path id="DejaVuSans-Bold-70" d="M 1656 506 
L 1656 -1331 
L 538 -1331 
L 538 3500 
L 1656 3500 
L 1656 2988 
Q 1888 3294 2169 3439 
Q 2450 3584 2816 3584 
Q 3463 3584 3878 3070 
Q 4294 2556 4294 1747 
Q 4294 938 3878 423 
Q 3463 -91 2816 -91 
Q 2450 -91 2169 54 
Q 1888 200 1656 506 
z
M 2400 2772 
Q 2041 2772 1848 2508 
Q 1656 2244 1656 1747 
Q 1656 1250 1848 986 
Q 2041 722 2400 722 
Q 2759 722 2948 984 
Q 3138 1247 3138 1747 
Q 3138 2247 2948 2509 
Q 2759 2772 2400 2772 
z
" transform="scale(0.015625)"/>
     </defs>
     <use xlink:href="#DejaVuSans-Bold-53"/>
     <use xlink:href="#DejaVuSans-Bold-65" transform="translate(72.021484 0)"/>
     <use xlink:href="#DejaVuSans-Bold-70" transform="translate(139.84375 0)"/>
     <use xlink:href="#DejaVuSans-Bold-61" transform="translate(211.425781 0)"/>
     <use xlink:href="#DejaVuSans-Bold-72" transform="translate(278.90625 0)"/>
     <use xlink:href="#DejaVuSans-Bold-61" transform="translate(328.222656 0)"/>
     <use xlink:href="#DejaVuSans-Bold-72" transform="translate(395.703125 0)"/>
     <use xlink:href="#DejaVuSans-Bold-20" transform="translate(445.019531 0)"/>
     <use xlink:href="#DejaVuSans-Bold-65" transform="translate(479.833984 0)"/>
    </g>
    <!-- integrar -->
    <g style="fill: #ffffff" transform="translate(275.711987 327.96444) scale(0.09 -0.09)">
     <use xlink:href="#DejaVuSans-Bold-69"/>
     <use xlink:href="#DejaVuSans-Bold-6e" transform="translate(34.277344 0)"/>
     <use xlink:href="#DejaVuSans-Bold-74" transform="translate(105.46875 0)"/>
     <use xlink:href="#DejaVuSans-Bold-65" transform="translate(153.271484 0)"/>
     <use xlink:href="#DejaVuSans-Bold-67" transform="translate(221.09375 0)"/>
     <use xlink:href="#DejaVuSans-Bold-72" transform="translate(292.675781 0)"/>
     <use xlink:href="#DejaVuSans-Bold-61" transform="translate(341.992188 0)"/>
     <use xlink:href="#DejaVuSans-Bold-72" transform="translate(409.472656 0)"/>
    </g>
   </g>
   <g id="patch_28">
    <path d="M 527.682857 241.515217 
Q 527.682857 262.645807 527.682857 281.54033 
" style="fill: none; stroke: #64748b; stroke-width: 2; stroke-linecap: round"/>
    <path d="M 530.082857 276.74033 
L 527.682857 281.54033 
L 525.282857 276.74033 
" style="fill: none; stroke: #64748b; stroke-width: 2; stroke-linecap: round"/>
   </g>
   <g id="text_6">
    <!-- Factor integrante -->
    <g style="fill: #ffffff" transform="translate(483.307935 317.800627) scale(0.09 -0.09)">
     <defs>
      <path id="DejaVuSans-Bold-63" d="M 3366 3391 
L 3366 2478 
Q 3138 2634 2908 2709 
Q 2678 2784 2431 2784 
Q 1963 2784 1702 2511 
Q 1441 2238 1441 1747 
Q 1441 1256 1702 982 
Q 1963 709 2431 709 
Q 2694 709 2930 787 
Q 3166 866 3366 1019 
L 3366 103 
Q 3103 6 2833 -42 
Q 2563 -91 2291 -91 
Q 1344 -91 809 395 
Q 275 881 275 1747 
Q 275 2613 809 3098 
Q 1344 3584 2291 3584 
Q 2566 3584 2833 3536 
Q 3100 3488 3366 3391 
z
" transform="scale(0.015625)"/>
     </defs>
     <use xlink:href="#DejaVuSans-Bold-46"/>
     <use xlink:href="#DejaVuSans-Bold-61" transform="translate(62.435547 0)"/>
     <use xlink:href="#DejaVuSans-Bold-63" transform="translate(129.916016 0)"/>
     <use xlink:href="#DejaVuSans-Bold-74" transform="translate(189.193359 0)"/>
     <use xlink:href="#DejaVuSans-Bold-6f" transform="translate(236.996094 0)"/>
     <use xlink:href="#DejaVuSans-Bold-72" transform="translate(305.697266 0)"/>
     <use xlink:href="#DejaVuSans-Bold-20" transform="translate(355.013672 0)"/>
     <use xlink:href="#DejaVuSans-Bold-69" transform="translate(389.828125 0)"/>
     <use xlink:href="#DejaVuSans-Bold-6e" transform="translate(424.105469 0)"/>
     <use xlink:href="#DejaVuSans-Bold-74" transform="translate(495.296875 0)"/>
     <use xlink:href="#DejaVuSans-Bold-65" transform="translate(543.099609 0)"/>
     <use xlink:href="#DejaVuSans-Bold-67" transform="translate(610.921875 0)"/>
     <use xlink:href="#DejaVuSans-Bold-72" transform="translate(682.503906 0)"/>
     <use xlink:href="#DejaVuSans-Bold-61" transform="translate(731.820312 0)"/>
     <use xlink:href="#DejaVuSans-Bold-6e" transform="translate(799.300781 0)"/>
     <use xlink:href="#DejaVuSans-Bold-74" transform="translate(870.492188 0)"/>
     <use xlink:href="#DejaVuSans-Bold-65" transform="translate(918.294922 0)"/>
    </g>
    <!-- μ = e^∫P dx -->
    <g style="fill: #ffffff" transform="translate(496.911998 327.948971) scale(0.09 -0.09)">
     <defs>
      <path id="DejaVuSans-Bold-3bc" d="M 544 -1338 
L 544 3500 
L 1672 3500 
L 1672 1466 
Q 1672 1103 1828 926 
Q 1984 750 2303 750 
Q 2625 750 2781 926 
Q 2938 1103 2938 1466 
L 2938 3500 
L 4063 3500 
L 4063 1159 
Q 4063 938 4114 850 
Q 4166 763 4288 763 
Q 4344 763 4395 778 
Q 4447 794 4506 831 
L 4506 50 
Q 4341 -22 4195 -56 
Q 4050 -91 3909 -91 
Q 3631 -91 3454 26 
Q 3278 144 3169 403 
Q 3022 156 2811 32 
Q 2600 -91 2322 -91 
Q 2091 -91 1928 -17 
Q 1766 56 1672 206 
L 1672 -1338 
L 544 -1338 
z
" transform="scale(0.015625)"/>
      <path id="DejaVuSans-Bold-5e" d="M 3066 4666 
L 4716 2925 
L 3963 2925 
L 2681 3866 
L 1403 2925 
L 647 2925 
L 2297 4666 
L 3066 4666 
z
" transform="scale(0.015625)"/>
      <path id="DejaVuSans-Bold-222b" d="M 2034 -531 
Q 2000 -1013 1659 -1284 
Q 1447 -1453 1050 -1453 
Q 553 -1453 319 -1209 
Q 150 -1034 94 -594 
L 788 -525 
Q 844 -703 1031 -703 
Q 1234 -703 1256 -416 
Q 1256 -416 1566 3903 
Q 1600 4384 1941 4656 
Q 2153 4825 2550 4825 
Q 3047 4825 3281 4581 
Q 3450 4406 3506 3966 
L 2813 3897 
Q 2756 4075 2569 4075 
Q 2366 4075 2344 3788 
Q 2344 3788 2034 -531 
z
" transform="scale(0.015625)"/>
     </defs>
     <use xlink:href="#DejaVuSans-Bold-3bc"/>
     <use xlink:href="#DejaVuSans-Bold-20" transform="translate(73.583984 0)"/>
     <use xlink:href="#DejaVuSans-Bold-3d" transform="translate(108.398438 0)"/>
     <use xlink:href="#DejaVuSans-Bold-20" transform="translate(192.1875 0)"/>
     <use xlink:href="#DejaVuSans-Bold-65" transform="translate(227.001953 0)"/>
     <use xlink:href="#DejaVuSans-Bold-5e" transform="translate(294.824219 0)"/>
     <use xlink:href="#DejaVuSans-Bold-222b" transform="translate(378.613281 0)"/>
     <use xlink:href="#DejaVuSans-Bold-50" transform="translate(439.599609 0)"/>
     <use xlink:href="#DejaVuSans-Bold-20" transform="translate(512.890625 0)"/>
     <use xlink:href="#DejaVuSans-Bold-64" transform="translate(547.705078 0)"/>
     <use xlink:href="#DejaVuSans-Bold-78" transform="translate(619.287109 0)"/>
    </g>
   </g>
   <g id="patch_29">
    <path d="M 759.008571 241.515217 
Q 759.008571 262.645807 759.008571 281.54033 
" style="fill: none; stroke: #64748b; stroke-width: 2; stroke-linecap: round"/>
    <path d="M 761.408571 276.74033 
L 759.008571 281.54033 
L 756.608571 276.74033 
" style="fill: none; stroke: #64748b; stroke-width: 2; stroke-linecap: round"/>
   </g>
   <g id="text_7">
    <!-- ¿Mᵧ=Nₓ? -->
    <g style="fill: #ffffff" transform="translate(737.985837 322.96058) scale(0.09 -0.09)">
     <defs>
      <path id="DejaVuSans-Bold-1d67" d="M 1116 1347 
L 1434 591 
L 1981 1935 
L 2688 1935 
L 1784 -24 
L 1784 -771 
L 1081 -771 
L 1081 -24 
L 500 1291 
Q 431 1444 372 1472 
Q 269 1526 194 1526 
L 63 1526 
L 63 1935 
L 381 1935 
Q 516 1935 816 1804 
Q 944 1751 1116 1347 
z
" transform="scale(0.015625)"/>
      <path id="DejaVuSans-Bold-2093" d="M 909 979 
L 103 1935 
L 859 1935 
L 1319 1354 
L 1781 1935 
L 2541 1935 
L 1731 982 
L 2581 -24 
L 1822 -24 
L 1319 594 
L 819 -24 
L 63 -24 
L 909 979 
z
" transform="scale(0.015625)"/>
     </defs>
     <use xlink:href="#DejaVuSans-Bold-bf"/>
     <use xlink:href="#DejaVuSans-Bold-4d" transform="translate(58.007812 0)"/>
     <use xlink:href="#DejaVuSans-Bold-1d67" transform="translate(157.519531 0)"/>
     <use xlink:href="#DejaVuSans-Bold-3d" transform="translate(200.390625 0)"/>
     <use xlink:href="#DejaVuSans-Bold-4e" transform="translate(284.179688 0)"/>
     <use xlink:href="#DejaVuSans-Bold-2093" transform="translate(367.871094 0)"/>
     <use xlink:href="#DejaVuSans-Bold-3f" transform="translate(409.130859 0)"/>
    </g>
   </g>
   <g id="patch_30">
    <path d="M 716.837586 321.551952 
Q 686.719542 340.71798 658.487983 358.683518 
" style="fill: none; stroke: #64748b; stroke-width: 2; stroke-linecap: round"/>
    <path d="M 663.826059 358.131303 
L 658.487983 358.683518 
L 661.249056 354.081728 
" style="fill: none; stroke: #64748b; stroke-width: 2; stroke-linecap: round"/>
   </g>
   <g id="patch_31">
    <path d="M 801.179557 321.551952 
Q 831.297601 340.71798 859.52916 358.683518 
" style="fill: none; stroke: #64748b; stroke-width: 2; stroke-linecap: round"/>
    <path d="M 856.768086 354.081728 
L 859.52916 358.683518 
L 854.191084 358.131303 
" style="fill: none; stroke: #64748b; stroke-width: 2; stroke-linecap: round"/>
   </g>
   <g id="text_8">
    <!-- EXACTA -->
    <g style="fill: #ffffff" transform="translate(623.813605 387.319279) scale(0.09 -0.09)">
     <defs>
      <path id="DejaVuSans-Bold-58" d="M 3188 2381 
L 4806 0 
L 3553 0 
L 2463 1594 
L 1381 0 
L 122 0 
L 1741 2381 
L 184 4666 
L 1441 4666 
L 2463 3163 
L 3481 4666 
L 4744 4666 
L 3188 2381 
z
" transform="scale(0.015625)"/>
      <path id="DejaVuSans-Bold-54" d="M 31 4666 
L 4331 4666 
L 4331 3756 
L 2784 3756 
L 2784 0 
L 1581 0 
L 1581 3756 
L 31 3756 
L 31 4666 
z
" transform="scale(0.015625)"/>
     </defs>
     <use xlink:href="#DejaVuSans-Bold-45"/>
     <use xlink:href="#DejaVuSans-Bold-58" transform="translate(68.310547 0)"/>
     <use xlink:href="#DejaVuSans-Bold-41" transform="translate(145.410156 0)"/>
     <use xlink:href="#DejaVuSans-Bold-43" transform="translate(222.802734 0)"/>
     <use xlink:href="#DejaVuSans-Bold-54" transform="translate(296.191406 0)"/>
     <use xlink:href="#DejaVuSans-Bold-41" transform="translate(356.654297 0)"/>
    </g>
    <!-- Buscar F -->
    <g style="fill: #ffffff" transform="translate(621.470089 397.39731) scale(0.09 -0.09)">
     <defs>
      <path id="DejaVuSans-Bold-73" d="M 3272 3391 
L 3272 2541 
Q 2913 2691 2578 2766 
Q 2244 2841 1947 2841 
Q 1628 2841 1473 2761 
Q 1319 2681 1319 2516 
Q 1319 2381 1436 2309 
Q 1553 2238 1856 2203 
L 2053 2175 
Q 2913 2066 3209 1816 
Q 3506 1566 3506 1031 
Q 3506 472 3093 190 
Q 2681 -91 1863 -91 
Q 1516 -91 1145 -36 
Q 775 19 384 128 
L 384 978 
Q 719 816 1070 734 
Q 1422 653 1784 653 
Q 2113 653 2278 743 
Q 2444 834 2444 1013 
Q 2444 1163 2330 1236 
Q 2216 1309 1875 1350 
L 1678 1375 
Q 931 1469 631 1722 
Q 331 1975 331 2491 
Q 331 3047 712 3315 
Q 1094 3584 1881 3584 
Q 2191 3584 2531 3537 
Q 2872 3491 3272 3391 
z
" transform="scale(0.015625)"/>
     </defs>
     <use xlink:href="#DejaVuSans-Bold-42"/>
     <use xlink:href="#DejaVuSans-Bold-75" transform="translate(76.220703 0)"/>
     <use xlink:href="#DejaVuSans-Bold-73" transform="translate(147.412109 0)"/>
     <use xlink:href="#DejaVuSans-Bold-63" transform="translate(206.933594 0)"/>
     <use xlink:href="#DejaVuSans-Bold-61" transform="translate(266.210938 0)"/>
     <use xlink:href="#DejaVuSans-Bold-72" transform="translate(333.691406 0)"/>
     <use xlink:href="#DejaVuSans-Bold-20" transform="translate(383.007812 0)"/>
     <use xlink:href="#DejaVuSans-Bold-46" transform="translate(417.822266 0)"/>
    </g>
   </g>
   <g id="text_9">
    <!-- FACTOR -->
    <g style="fill: #ffffff" transform="translate(854.969163 387.319279) scale(0.09 -0.09)">
     <use xlink:href="#DejaVuSans-Bold-46"/>
     <use xlink:href="#DejaVuSans-Bold-41" transform="translate(56.810547 0)"/>
     <use xlink:href="#DejaVuSans-Bold-43" transform="translate(134.203125 0)"/>
     <use xlink:href="#DejaVuSans-Bold-54" transform="translate(207.591797 0)"/>
     <use xlink:href="#DejaVuSans-Bold-4f" transform="translate(275.804688 0)"/>
     <use xlink:href="#DejaVuSans-Bold-52" transform="translate(360.814453 0)"/>
    </g>
    <!-- INTEGRANTE -->
    <g style="fill: #ffffff" transform="translate(842.536507 397.39731) scale(0.09 -0.09)">
     <defs>
      <path id="DejaVuSans-Bold-47" d="M 4781 347 
Q 4331 128 3847 18 
Q 3363 -91 2847 -91 
Q 1681 -91 1000 561 
Q 319 1213 319 2328 
Q 319 3456 1012 4103 
Q 1706 4750 2913 4750 
Q 3378 4750 3804 4662 
Q 4231 4575 4609 4403 
L 4609 3438 
Q 4219 3659 3833 3768 
Q 3447 3878 3059 3878 
Q 2341 3878 1952 3476 
Q 1563 3075 1563 2328 
Q 1563 1588 1938 1184 
Q 2313 781 3003 781 
Q 3191 781 3352 804 
Q 3513 828 3641 878 
L 3641 1784 
L 2906 1784 
L 2906 2591 
L 4781 2591 
L 4781 347 
z
" transform="scale(0.015625)"/>
     </defs>
     <use xlink:href="#DejaVuSans-Bold-49"/>
     <use xlink:href="#DejaVuSans-Bold-4e" transform="translate(37.207031 0)"/>
     <use xlink:href="#DejaVuSans-Bold-54" transform="translate(120.898438 0)"/>
     <use xlink:href="#DejaVuSans-Bold-45" transform="translate(189.111328 0)"/>
     <use xlink:href="#DejaVuSans-Bold-47" transform="translate(257.421875 0)"/>
     <use xlink:href="#DejaVuSans-Bold-52" transform="translate(339.501953 0)"/>
     <use xlink:href="#DejaVuSans-Bold-41" transform="translate(416.503906 0)"/>
     <use xlink:href="#DejaVuSans-Bold-4e" transform="translate(493.896484 0)"/>
     <use xlink:href="#DejaVuSans-Bold-54" transform="translate(577.587891 0)"/>
     <use xlink:href="#DejaVuSans-Bold-45" transform="translate(645.800781 0)"/>
    </g>
   </g>
   <g id="text_10">
    <!-- Sí -->
    <g style="fill: #059669" transform="translate(672.261429 332.043429) scale(0.09 -0.09)">
     <defs>
      <path id="DejaVuSans-Bold-ed" d="M 538 3500 
L 1656 3500 
L 1656 0 
L 538 0 
L 538 3500 
z
M 1590 5119 
L 2474 5119 
L 1321 3944 
L 709 3944 
L 1590 5119 
z
" transform="scale(0.015625)"/>
     </defs>
     <use xlink:href="#DejaVuSans-Bold-53"/>
     <use xlink:href="#DejaVuSans-Bold-ed" transform="translate(72.021484 0)"/>
    </g>
   </g>
   <g id="text_11">
    <!-- No -->
    <g style="fill: #dc2626" transform="translate(828.406286 332.043429) scale(0.09 -0.09)">
     <use xlink:href="#DejaVuSans-Bold-4e"/>
     <use xlink:href="#DejaVuSans-Bold-6f" transform="translate(83.691406 0)"/>
    </g>
   </g>
   <g id="text_12">
    <!-- CASOS ESPECIALES -->
    <g style="fill: #ffffff" transform="translate(462.366295 497.282679) scale(0.12 -0.12)">
     <use xlink:href="#DejaVuSans-Bold-43"/>
     <use xlink:href="#DejaVuSans-Bold-41" transform="translate(73.388672 0)"/>
     <use xlink:href="#DejaVuSans-Bold-53" transform="translate(150.78125 0)"/>
     <use xlink:href="#DejaVuSans-Bold-4f" transform="translate(222.802734 0)"/>
     <use xlink:href="#DejaVuSans-Bold-53" transform="translate(307.8125 0)"/>
     <use xlink:href="#DejaVuSans-Bold-20" transform="translate(379.833984 0)"/>
     <use xlink:href="#DejaVuSans-Bold-45" transform="translate(414.648438 0)"/>
     <use xlink:href="#DejaVuSans-Bold-53" transform="translate(482.958984 0)"/>
     <use xlink:href="#DejaVuSans-Bold-50" transform="translate(554.980469 0)"/>
     <use xlink:href="#DejaVuSans-Bold-45" transform="translate(628.271484 0)"/>
     <use xlink:href="#DejaVuSans-Bold-43" transform="translate(696.582031 0)"/>
     <use xlink:href="#DejaVuSans-Bold-49" transform="translate(769.970703 0)"/>
     <use xlink:href="#DejaVuSans-Bold-41" transform="translate(807.177734 0)"/>
     <use xlink:href="#DejaVuSans-Bold-4c" transform="translate(884.570312 0)"/>
     <use xlink:href="#DejaVuSans-Bold-45" transform="translate(948.291016 0)"/>
     <use xlink:href="#DejaVuSans-Bold-53" transform="translate(1016.601562 0)"/>
    </g>
   </g>
   <g id="patch_32">
    <path d="M 238.525714 524.888511 
Q 238.525714 543.130642 238.525714 559.136704 
" style="fill: none; stroke: #64748b; stroke-width: 2; stroke-linecap: round"/>
    <path d="M 240.925714 554.336704 
L 238.525714 559.136704 
L 236.125714 554.336704 
" style="fill: none; stroke: #64748b; stroke-width: 2; stroke-linecap: round"/>
   </g>
   <g id="patch_33">
    <path d="M 440.935714 524.888511 
Q 440.935714 543.130642 440.935714 559.136704 
" style="fill: none; stroke: #64748b; stroke-width: 2; stroke-linecap: round"/>
    <path d="M 443.335714 554.336704 
L 440.935714 559.136704 
L 438.535714 554.336704 
" style="fill: none; stroke: #64748b; stroke-width: 2; stroke-linecap: round"/>
   </g>
   <g id="patch_34">
    <path d="M 614.43 524.888511 
Q 614.43 543.130642 614.43 559.136704 
" style="fill: none; stroke: #64748b; stroke-width: 2; stroke-linecap: round"/>
    <path d="M 616.83 554.336704 
L 614.43 559.136704 
L 612.03 554.336704 
" style="fill: none; stroke: #64748b; stroke-width: 2; stroke-linecap: round"/>
   </g>
   <g id="patch_35">
    <path d="M 816.84 524.888511 
Q 816.84 543.130642 816.84 559.136704 
" style="fill: none; stroke: #64748b; stroke-width: 2; stroke-linecap: round"/>
    <path d="M 819.24 554.336704 
L 816.84 559.136704 
L 814.44 554.336704 
" style="fill: none; stroke: #64748b; stroke-width: 2; stroke-linecap: round"/>
   </g>
   <g id="text_13">
    <!-- y' + Py = Qyⁿ -->
    <g style="fill: #ffffff" transform="translate(201.587433 595.150344) scale(0.1 -0.1)">
     <defs>
      <path id="DejaVuSans-Bold-207f" d="M 2597 3281 
L 2597 2088 
L 1875 2088 
L 1875 2281 
L 1875 3000 
Q 1875 3256 1863 3350 
Q 1850 3447 1819 3494 
Q 1775 3553 1703 3587 
Q 1631 3622 1541 3622 
Q 1316 3622 1188 3472 
Q 1059 3319 1059 3053 
L 1059 2088 
L 344 2088 
L 344 4047 
L 1059 4047 
L 1059 3759 
Q 1222 3931 1403 4013 
Q 1588 4094 1806 4094 
Q 2194 4094 2394 3888 
Q 2597 3678 2597 3281 
z
" transform="scale(0.015625)"/>
     </defs>
     <use xlink:href="#DejaVuSans-Bold-79"/>
     <use xlink:href="#DejaVuSans-Bold-27" transform="translate(65.185547 0)"/>
     <use xlink:href="#DejaVuSans-Bold-20" transform="translate(95.800781 0)"/>
     <use xlink:href="#DejaVuSans-Bold-2b" transform="translate(130.615234 0)"/>
     <use xlink:href="#DejaVuSans-Bold-20" transform="translate(214.404297 0)"/>
     <use xlink:href="#DejaVuSans-Bold-50" transform="translate(249.21875 0)"/>
     <use xlink:href="#DejaVuSans-Bold-79" transform="translate(324.384766 0)"/>
     <use xlink:href="#DejaVuSans-Bold-20" transform="translate(389.570312 0)"/>
     <use xlink:href="#DejaVuSans-Bold-3d" transform="translate(424.384766 0)"/>
     <use xlink:href="#DejaVuSans-Bold-20" transform="translate(508.173828 0)"/>
     <use xlink:href="#DejaVuSans-Bold-51" transform="translate(542.988281 0)"/>
     <use xlink:href="#DejaVuSans-Bold-79" transform="translate(627.998047 0)"/>
     <use xlink:href="#DejaVuSans-Bold-207f" transform="translate(693.183594 0)"/>
    </g>
    <!-- BERNOULLI -->
    <g style="fill: #ffffff" transform="translate(206.721808 606.426281) scale(0.1 -0.1)">
     <defs>
      <path id="DejaVuSans-Bold-55" d="M 588 4666 
L 1791 4666 
L 1791 1869 
Q 1791 1291 1980 1042 
Q 2169 794 2597 794 
Q 3028 794 3217 1042 
Q 3406 1291 3406 1869 
L 3406 4666 
L 4609 4666 
L 4609 1869 
Q 4609 878 4112 393 
Q 3616 -91 2597 -91 
Q 1581 -91 1084 393 
Q 588 878 588 1869 
L 588 4666 
z
" transform="scale(0.015625)"/>
     </defs>
     <use xlink:href="#DejaVuSans-Bold-42"/>
     <use xlink:href="#DejaVuSans-Bold-45" transform="translate(76.220703 0)"/>
     <use xlink:href="#DejaVuSans-Bold-52" transform="translate(144.53125 0)"/>
     <use xlink:href="#DejaVuSans-Bold-4e" transform="translate(221.533203 0)"/>
     <use xlink:href="#DejaVuSans-Bold-4f" transform="translate(305.224609 0)"/>
     <use xlink:href="#DejaVuSans-Bold-55" transform="translate(390.234375 0)"/>
     <use xlink:href="#DejaVuSans-Bold-4c" transform="translate(471.435547 0)"/>
     <use xlink:href="#DejaVuSans-Bold-4c" transform="translate(535.15625 0)"/>
     <use xlink:href="#DejaVuSans-Bold-49" transform="translate(598.876953 0)"/>
    </g>
   </g>
   <g id="text_14">
    <!-- y' = F(y/x) -->
    <g style="fill: #ffffff" transform="translate(412.177902 595.183937) scale(0.1 -0.1)">
     <defs>
      <path id="DejaVuSans-Bold-2f" d="M 1644 4666 
L 2338 4666 
L 691 -594 
L 0 -594 
L 1644 4666 
z
" transform="scale(0.015625)"/>
     </defs>
     <use xlink:href="#DejaVuSans-Bold-79"/>
     <use xlink:href="#DejaVuSans-Bold-27" transform="translate(65.185547 0)"/>
     <use xlink:href="#DejaVuSans-Bold-20" transform="translate(95.800781 0)"/>
     <use xlink:href="#DejaVuSans-Bold-3d" transform="translate(130.615234 0)"/>
     <use xlink:href="#DejaVuSans-Bold-20" transform="translate(214.404297 0)"/>
     <use xlink:href="#DejaVuSans-Bold-46" transform="translate(249.21875 0)"/>
     <use xlink:href="#DejaVuSans-Bold-28" transform="translate(317.529297 0)"/>
     <use xlink:href="#DejaVuSans-Bold-79" transform="translate(363.232422 0)"/>
     <use xlink:href="#DejaVuSans-Bold-2f" transform="translate(428.417969 0)"/>
     <use xlink:href="#DejaVuSans-Bold-78" transform="translate(464.941406 0)"/>
     <use xlink:href="#DejaVuSans-Bold-29" transform="translate(529.443359 0)"/>
    </g>
    <!-- HOMOGÉNEA -->
    <g style="fill: #ffffff" transform="translate(404.284933 606.459875) scale(0.1 -0.1)">
     <defs>
      <path id="DejaVuSans-Bold-48" d="M 588 4666 
L 1791 4666 
L 1791 2888 
L 3566 2888 
L 3566 4666 
L 4769 4666 
L 4769 0 
L 3566 0 
L 3566 1978 
L 1791 1978 
L 1791 0 
L 588 0 
L 588 4666 
z
" transform="scale(0.015625)"/>
      <path id="DejaVuSans-Bold-c9" d="M 588 4666 
L 3834 4666 
L 3834 3756 
L 1791 3756 
L 1791 2888 
L 3713 2888 
L 3713 1978 
L 1791 1978 
L 1791 909 
L 3903 909 
L 3903 0 
L 588 0 
L 588 4666 
z
M 2319 5921 
L 3204 5921 
L 2313 5096 
L 1701 5096 
L 2319 5921 
z
" transform="scale(0.015625)"/>
     </defs>
     <use xlink:href="#DejaVuSans-Bold-48"/>
     <use xlink:href="#DejaVuSans-Bold-4f" transform="translate(83.691406 0)"/>
     <use xlink:href="#DejaVuSans-Bold-4d" transform="translate(168.701172 0)"/>
     <use xlink:href="#DejaVuSans-Bold-4f" transform="translate(268.212891 0)"/>
     <use xlink:href="#DejaVuSans-Bold-47" transform="translate(353.222656 0)"/>
     <use xlink:href="#DejaVuSans-Bold-c9" transform="translate(435.302734 0)"/>
     <use xlink:href="#DejaVuSans-Bold-4e" transform="translate(503.613281 0)"/>
     <use xlink:href="#DejaVuSans-Bold-45" transform="translate(587.304688 0)"/>
     <use xlink:href="#DejaVuSans-Bold-41" transform="translate(655.615234 0)"/>
    </g>
   </g>
   <g id="text_15">
    <!-- y' = f(ax+by+c) -->
    <g style="fill: #ffffff" transform="translate(570.4425 595.189406) scale(0.1 -0.1)">
     <defs>
      <path id="DejaVuSans-Bold-62" d="M 2400 722 
Q 2759 722 2948 984 
Q 3138 1247 3138 1747 
Q 3138 2247 2948 2509 
Q 2759 2772 2400 2772 
Q 2041 2772 1848 2508 
Q 1656 2244 1656 1747 
Q 1656 1250 1848 986 
Q 2041 722 2400 722 
z
M 1656 2988 
Q 1888 3294 2169 3439 
Q 2450 3584 2816 3584 
Q 3463 3584 3878 3070 
Q 4294 2556 4294 1747 
Q 4294 938 3878 423 
Q 3463 -91 2816 -91 
Q 2450 -91 2169 54 
Q 1888 200 1656 506 
L 1656 0 
L 538 0 
L 538 4863 
L 1656 4863 
L 1656 2988 
z
" transform="scale(0.015625)"/>
     </defs>
     <use xlink:href="#DejaVuSans-Bold-79"/>
     <use xlink:href="#DejaVuSans-Bold-27" transform="translate(65.185547 0)"/>
     <use xlink:href="#DejaVuSans-Bold-20" transform="translate(95.800781 0)"/>
     <use xlink:href="#DejaVuSans-Bold-3d" transform="translate(130.615234 0)"/>
     <use xlink:href="#DejaVuSans-Bold-20" transform="translate(214.404297 0)"/>
     <use xlink:href="#DejaVuSans-Bold-66" transform="translate(249.21875 0)"/>
     <use xlink:href="#DejaVuSans-Bold-28" transform="translate(292.724609 0)"/>
     <use xlink:href="#DejaVuSans-Bold-61" transform="translate(338.427734 0)"/>
     <use xlink:href="#DejaVuSans-Bold-78" transform="translate(405.908203 0)"/>
     <use xlink:href="#DejaVuSans-Bold-2b" transform="translate(470.410156 0)"/>
     <use xlink:href="#DejaVuSans-Bold-62" transform="translate(554.199219 0)"/>
     <use xlink:href="#DejaVuSans-Bold-79" transform="translate(625.78125 0)"/>
     <use xlink:href="#DejaVuSans-Bold-2b" transform="translate(690.966797 0)"/>
     <use xlink:href="#DejaVuSans-Bold-63" transform="translate(774.755859 0)"/>
     <use xlink:href="#DejaVuSans-Bold-29" transform="translate(834.033203 0)"/>
    </g>
    <!-- SUSTITUCIÓN -->
    <g style="fill: #ffffff" transform="translate(576.46125 606.465344) scale(0.1 -0.1)">
     <defs>
      <path id="DejaVuSans-Bold-d3" d="M 2719 3878 
Q 2169 3878 1866 3472 
Q 1563 3066 1563 2328 
Q 1563 1594 1866 1187 
Q 2169 781 2719 781 
Q 3272 781 3575 1187 
Q 3878 1594 3878 2328 
Q 3878 3066 3575 3472 
Q 3272 3878 2719 3878 
z
M 2719 4750 
Q 3844 4750 4481 4106 
Q 5119 3463 5119 2328 
Q 5119 1197 4481 553 
Q 3844 -91 2719 -91 
Q 1597 -91 958 553 
Q 319 1197 319 2328 
Q 319 3463 958 4106 
Q 1597 4750 2719 4750 
z
M 2799 5921 
L 3684 5921 
L 2793 5096 
L 2181 5096 
L 2799 5921 
z
" transform="scale(0.015625)"/>
     </defs>
     <use xlink:href="#DejaVuSans-Bold-53"/>
     <use xlink:href="#DejaVuSans-Bold-55" transform="translate(72.021484 0)"/>
     <use xlink:href="#DejaVuSans-Bold-53" transform="translate(153.222656 0)"/>
     <use xlink:href="#DejaVuSans-Bold-54" transform="translate(225.244141 0)"/>
     <use xlink:href="#DejaVuSans-Bold-49" transform="translate(293.457031 0)"/>
     <use xlink:href="#DejaVuSans-Bold-54" transform="translate(330.664062 0)"/>
     <use xlink:href="#DejaVuSans-Bold-55" transform="translate(398.876953 0)"/>
     <use xlink:href="#DejaVuSans-Bold-43" transform="translate(480.078125 0)"/>
     <use xlink:href="#DejaVuSans-Bold-49" transform="translate(553.466797 0)"/>
     <use xlink:href="#DejaVuSans-Bold-d3" transform="translate(590.673828 0)"/>
     <use xlink:href="#DejaVuSans-Bold-4e" transform="translate(675.683594 0)"/>
    </g>
   </g>
   <g id="text_16">
    <!-- y' = P+Qy+Ry² -->
    <g style="fill: #ffffff" transform="translate(775.750156 595.150344) scale(0.1 -0.1)">
     <defs>
      <path id="DejaVuSans-Bold-b2" d="M 1288 2613 
L 2444 2613 
L 2444 2088 
L 341 2088 
L 341 2566 
L 1319 3397 
Q 1509 3563 1590 3688 
Q 1672 3813 1672 3938 
Q 1672 4094 1558 4191 
Q 1444 4288 1259 4288 
Q 1066 4288 844 4217 
Q 622 4147 359 4000 
L 359 4581 
Q 631 4666 886 4708 
Q 1141 4750 1375 4750 
Q 1869 4750 2150 4548 
Q 2431 4347 2431 4000 
Q 2431 3775 2320 3586 
Q 2209 3397 1894 3128 
L 1288 2613 
z
" transform="scale(0.015625)"/>
     </defs>
     <use xlink:href="#DejaVuSans-Bold-79"/>
     <use xlink:href="#DejaVuSans-Bold-27" transform="translate(65.185547 0)"/>
     <use xlink:href="#DejaVuSans-Bold-20" transform="translate(95.800781 0)"/>
     <use xlink:href="#DejaVuSans-Bold-3d" transform="translate(130.615234 0)"/>
     <use xlink:href="#DejaVuSans-Bold-20" transform="translate(214.404297 0)"/>
     <use xlink:href="#DejaVuSans-Bold-50" transform="translate(249.21875 0)"/>
     <use xlink:href="#DejaVuSans-Bold-2b" transform="translate(322.509766 0)"/>
     <use xlink:href="#DejaVuSans-Bold-51" transform="translate(406.298828 0)"/>
     <use xlink:href="#DejaVuSans-Bold-79" transform="translate(491.308594 0)"/>
     <use xlink:href="#DejaVuSans-Bold-2b" transform="translate(556.494141 0)"/>
     <use xlink:href="#DejaVuSans-Bold-52" transform="translate(640.283203 0)"/>
     <use xlink:href="#DejaVuSans-Bold-79" transform="translate(712.785156 0)"/>
     <use xlink:href="#DejaVuSans-Bold-b2" transform="translate(777.970703 0)"/>
    </g>
    <!-- RICATTI -->
    <g style="fill: #ffffff" transform="translate(795.18375 606.426281) scale(0.1 -0.1)">
     <use xlink:href="#DejaVuSans-Bold-52"/>
     <use xlink:href="#DejaVuSans-Bold-49" transform="translate(77.001953 0)"/>
     <use xlink:href="#DejaVuSans-Bold-43" transform="translate(114.208984 0)"/>
     <use xlink:href="#DejaVuSans-Bold-41" transform="translate(187.597656 0)"/>
     <use xlink:href="#DejaVuSans-Bold-54" transform="translate(257.240234 0)"/>
     <use xlink:href="#DejaVuSans-Bold-54" transform="translate(327.703125 0)"/>
     <use xlink:href="#DejaVuSans-Bold-49" transform="translate(395.916016 0)"/>
    </g>
   </g>
   <g id="patch_36">
    <path d="M 238.525714 640.551368 
Q 238.525714 658.793499 238.525714 674.799561 
" style="fill: none; stroke: #64748b; stroke-width: 2; stroke-linecap: round"/>
    <path d="M 240.925714 669.999561 
L 238.525714 674.799561 
L 236.125714 669.999561 
" style="fill: none; stroke: #64748b; stroke-width: 2; stroke-linecap: round"/>
   </g>
   <g id="patch_37">
    <path d="M 440.935714 640.551368 
Q 440.935714 658.793499 440.935714 674.799561 
" style="fill: none; stroke: #64748b; stroke-width: 2; stroke-linecap: round"/>
    <path d="M 443.335714 669.999561 
L 440.935714 674.799561 
L 438.535714 669.999561 
" style="fill: none; stroke: #64748b; stroke-width: 2; stroke-linecap: round"/>
   </g>
   <g id="patch_38">
    <path d="M 614.43 640.551368 
Q 614.43 658.793499 614.43 674.799561 
" style="fill: none; stroke: #64748b; stroke-width: 2; stroke-linecap: round"/>
    <path d="M 616.83 669.999561 
L 614.43 674.799561 
L 612.03 669.999561 
" style="fill: none; stroke: #64748b; stroke-width: 2; stroke-linecap: round"/>
   </g>
   <g id="patch_39">
    <path d="M 816.84 640.551368 
Q 816.84 658.793499 816.84 674.799561 
" style="fill: none; stroke: #64748b; stroke-width: 2; stroke-linecap: round"/>
    <path d="M 819.24 669.999561 
L 816.84 674.799561 
L 814.44 669.999561 
" style="fill: none; stroke: #64748b; stroke-width: 2; stroke-linecap: round"/>
   </g>
   <g id="text_17">
    <!-- v = y^(1-n) -->
    <g style="fill: #ffffff" transform="translate(209.668761 716.174217) scale(0.09 -0.09)">
     <defs>
      <path id="DejaVuSans-Bold-76" d="M 97 3500 
L 1216 3500 
L 2088 1081 
L 2956 3500 
L 4078 3500 
L 2700 0 
L 1472 0 
L 97 3500 
z
" transform="scale(0.015625)"/>
      <path id="DejaVuSans-Bold-31" d="M 750 831 
L 1813 831 
L 1813 3847 
L 722 3622 
L 722 4441 
L 1806 4666 
L 2950 4666 
L 2950 831 
L 4013 831 
L 4013 0 
L 750 0 
L 750 831 
z
" transform="scale(0.015625)"/>
      <path id="DejaVuSans-Bold-2d" d="M 347 2297 
L 2309 2297 
L 2309 1388 
L 347 1388 
L 347 2297 
z
" transform="scale(0.015625)"/>
     </defs>
     <use xlink:href="#DejaVuSans-Bold-76"/>
     <use xlink:href="#DejaVuSans-Bold-20" transform="translate(65.185547 0)"/>
     <use xlink:href="#DejaVuSans-Bold-3d" transform="translate(100 0)"/>
     <use xlink:href="#DejaVuSans-Bold-20" transform="translate(183.789062 0)"/>
     <use xlink:href="#DejaVuSans-Bold-79" transform="translate(218.603516 0)"/>
     <use xlink:href="#DejaVuSans-Bold-5e" transform="translate(283.789062 0)"/>
     <use xlink:href="#DejaVuSans-Bold-28" transform="translate(367.578125 0)"/>
     <use xlink:href="#DejaVuSans-Bold-31" transform="translate(413.28125 0)"/>
     <use xlink:href="#DejaVuSans-Bold-2d" transform="translate(482.861328 0)"/>
     <use xlink:href="#DejaVuSans-Bold-6e" transform="translate(524.365234 0)"/>
     <use xlink:href="#DejaVuSans-Bold-29" transform="translate(595.556641 0)"/>
    </g>
   </g>
   <g id="text_18">
    <!-- v = y/x -->
    <g style="fill: #ffffff" transform="translate(423.618449 716.143982) scale(0.09 -0.09)">
     <use xlink:href="#DejaVuSans-Bold-76"/>
     <use xlink:href="#DejaVuSans-Bold-20" transform="translate(65.185547 0)"/>
     <use xlink:href="#DejaVuSans-Bold-3d" transform="translate(100 0)"/>
     <use xlink:href="#DejaVuSans-Bold-20" transform="translate(183.789062 0)"/>
     <use xlink:href="#DejaVuSans-Bold-79" transform="translate(218.603516 0)"/>
     <use xlink:href="#DejaVuSans-Bold-2f" transform="translate(283.789062 0)"/>
     <use xlink:href="#DejaVuSans-Bold-78" transform="translate(320.3125 0)"/>
    </g>
   </g>
   <g id="text_19">
    <!-- u = ax+by+c -->
    <g style="fill: #ffffff" transform="translate(582.019453 716.179138) scale(0.09 -0.09)">
     <use xlink:href="#DejaVuSans-Bold-75"/>
     <use xlink:href="#DejaVuSans-Bold-20" transform="translate(71.191406 0)"/>
     <use xlink:href="#DejaVuSans-Bold-3d" transform="translate(106.005859 0)"/>
     <use xlink:href="#DejaVuSans-Bold-20" transform="translate(189.794922 0)"/>
     <use xlink:href="#DejaVuSans-Bold-61" transform="translate(224.609375 0)"/>
     <use xlink:href="#DejaVuSans-Bold-78" transform="translate(292.089844 0)"/>
     <use xlink:href="#DejaVuSans-Bold-2b" transform="translate(356.591797 0)"/>
     <use xlink:href="#DejaVuSans-Bold-62" transform="translate(440.380859 0)"/>
     <use xlink:href="#DejaVuSans-Bold-79" transform="translate(511.962891 0)"/>
     <use xlink:href="#DejaVuSans-Bold-2b" transform="translate(577.148438 0)"/>
     <use xlink:href="#DejaVuSans-Bold-63" transform="translate(660.9375 0)"/>
    </g>
   </g>
   <g id="text_20">
    <!-- Conocer y₁ -->
    <g style="fill: #ffffff" transform="translate(789.740859 716.143982) scale(0.09 -0.09)">
     <defs>
      <path id="DejaVuSans-Bold-2081" d="M 441 466 
L 1088 466 
L 1088 2094 
L 384 1932 
L 384 2432 
L 1100 2585 
L 1806 2585 
L 1806 466 
L 2444 466 
L 2444 -24 
L 441 -24 
L 441 466 
z
" transform="scale(0.015625)"/>
     </defs>
     <use xlink:href="#DejaVuSans-Bold-43"/>
     <use xlink:href="#DejaVuSans-Bold-6f" transform="translate(73.388672 0)"/>
     <use xlink:href="#DejaVuSans-Bold-6e" transform="translate(142.089844 0)"/>
     <use xlink:href="#DejaVuSans-Bold-6f" transform="translate(213.28125 0)"/>
     <use xlink:href="#DejaVuSans-Bold-63" transform="translate(281.982422 0)"/>
     <use xlink:href="#DejaVuSans-Bold-65" transform="translate(341.259766 0)"/>
     <use xlink:href="#DejaVuSans-Bold-72" transform="translate(409.082031 0)"/>
     <use xlink:href="#DejaVuSans-Bold-20" transform="translate(458.398438 0)"/>
     <use xlink:href="#DejaVuSans-Bold-79" transform="translate(493.212891 0)"/>
     <use xlink:href="#DejaVuSans-Bold-2081" transform="translate(558.398438 0)"/>
    </g>
   </g>
   <g id="text_21">
    <!-- Leyenda: -->
    <g style="fill: #1f2937" transform="translate(93.947143 783.128571) scale(0.1 -0.1)">
     <defs>
      <path id="DejaVuSans-Bold-3a" d="M 716 3500 
L 1844 3500 
L 1844 2291 
L 716 2291 
L 716 3500 
z
M 716 1209 
L 1844 1209 
L 1844 0 
L 716 0 
L 716 1209 
z
" transform="scale(0.015625)"/>
     </defs>
     <use xlink:href="#DejaVuSans-Bold-4c"/>
     <use xlink:href="#DejaVuSans-Bold-65" transform="translate(63.720703 0)"/>
     <use xlink:href="#DejaVuSans-Bold-79" transform="translate(131.542969 0)"/>
     <use xlink:href="#DejaVuSans-Bold-65" transform="translate(196.728516 0)"/>
     <use xlink:href="#DejaVuSans-Bold-6e" transform="translate(264.550781 0)"/>
     <use xlink:href="#DejaVuSans-Bold-64" transform="translate(335.742188 0)"/>
     <use xlink:href="#DejaVuSans-Bold-61" transform="translate(407.324219 0)"/>
     <use xlink:href="#DejaVuSans-Bold-3a" transform="translate(474.804688 0)"/>
    </g>
   </g>
   <g id="text_22">
    <!-- Separable -->
    <g style="fill: #1f2937" transform="translate(244.308857 791.395152) scale(0.09 -0.09)">
     <defs>
      <path id="DejaVuSans-53" d="M 3425 4513 
L 3425 3897 
Q 3066 4069 2747 4153 
Q 2428 4238 2131 4238 
Q 1616 4238 1336 4038 
Q 1056 3838 1056 3469 
Q 1056 3159 1242 3001 
Q 1428 2844 1947 2747 
L 2328 2669 
Q 3034 2534 3370 2195 
Q 3706 1856 3706 1288 
Q 3706 609 3251 259 
Q 2797 -91 1919 -91 
Q 1588 -91 1214 -16 
Q 841 59 441 206 
L 441 856 
Q 825 641 1194 531 
Q 1563 422 1919 422 
Q 2459 422 2753 634 
Q 3047 847 3047 1241 
Q 3047 1584 2836 1778 
Q 2625 1972 2144 2069 
L 1759 2144 
Q 1053 2284 737 2584 
Q 422 2884 422 3419 
Q 422 4038 858 4394 
Q 1294 4750 2059 4750 
Q 2388 4750 2728 4690 
Q 3069 4631 3425 4513 
z
" transform="scale(0.015625)"/>
      <path id="DejaVuSans-65" d="M 3597 1894 
L 3597 1613 
L 953 1613 
Q 991 1019 1311 708 
Q 1631 397 2203 397 
Q 2534 397 2845 478 
Q 3156 559 3463 722 
L 3463 178 
Q 3153 47 2828 -22 
Q 2503 -91 2169 -91 
Q 1331 -91 842 396 
Q 353 884 353 1716 
Q 353 2575 817 3079 
Q 1281 3584 2069 3584 
Q 2775 3584 3186 3129 
Q 3597 2675 3597 1894 
z
M 3022 2063 
Q 3016 2534 2758 2815 
Q 2500 3097 2075 3097 
Q 1594 3097 1305 2825 
Q 1016 2553 972 2059 
L 3022 2063 
z
" transform="scale(0.015625)"/>
      <path id="DejaVuSans-70" d="M 1159 525 
L 1159 -1331 
L 581 -1331 
L 581 3500 
L 1159 3500 
L 1159 2969 
Q 1341 3281 1617 3432 
Q 1894 3584 2278 3584 
Q 2916 3584 3314 3078 
Q 3713 2572 3713 1747 
Q 3713 922 3314 415 
Q 2916 -91 2278 -91 
Q 1894 -91 1617 61 
Q 1341 213 1159 525 
z
M 3116 1747 
Q 3116 2381 2855 2742 
Q 2594 3103 2138 3103 
Q 1681 3103 1420 2742 
Q 1159 2381 1159 1747 
Q 1159 1113 1420 752 
Q 1681 391 2138 391 
Q 2594 391 2855 752 
Q 3116 1113 3116 1747 
z
" transform="scale(0.015625)"/>
      <path id="DejaVuSans-61" d="M 2194 1759 
Q 1497 1759 1228 1600 
Q 959 1441 959 1056 
Q 959 750 1161 570 
Q 1363 391 1709 391 
Q 2188 391 2477 730 
Q 2766 1069 2766 1631 
L 2766 1759 
L 2194 1759 
z
M 3341 1997 
L 3341 0 
L 2766 0 
L 2766 531 
Q 2569 213 2275 61 
Q 1981 -91 1556 -91 
Q 1019 -91 701 211 
Q 384 513 384 1019 
Q 384 1609 779 1909 
Q 1175 2209 1959 2209 
L 2766 2209 
L 2766 2266 
Q 2766 2663 2505 2880 
Q 2244 3097 1772 3097 
Q 1472 3097 1187 3025 
Q 903 2953 641 2809 
L 641 3341 
Q 956 3463 1253 3523 
Q 1550 3584 1831 3584 
Q 2591 3584 2966 3190 
Q 3341 2797 3341 1997 
z
" transform="scale(0.015625)"/>
      <path id="DejaVuSans-72" d="M 2631 2963 
Q 2534 3019 2420 3045 
Q 2306 3072 2169 3072 
Q 1681 3072 1420 2755 
Q 1159 2438 1159 1844 
L 1159 0 
L 581 0 
L 581 3500 
L 1159 3500 
L 1159 2956 
Q 1341 3275 1631 3429 
Q 1922 3584 2338 3584 
Q 2397 3584 2469 3576 
Q 2541 3569 2628 3553 
L 2631 2963 
z
" transform="scale(0.015625)"/>
      <path id="DejaVuSans-62" d="M 3116 1747 
Q 3116 2381 2855 2742 
Q 2594 3103 2138 3103 
Q 1681 3103 1420 2742 
Q 1159 2381 1159 1747 
Q 1159 1113 1420 752 
Q 1681 391 2138 391 
Q 2594 391 2855 752 
Q 3116 1113 3116 1747 
z
M 1159 2969 
Q 1341 3281 1617 3432 
Q 1894 3584 2278 3584 
Q 2916 3584 3314 3078 
Q 3713 2572 3713 1747 
Q 3713 922 3314 415 
Q 2916 -91 2278 -91 
Q 1894 -91 1617 61 
Q 1341 213 1159 525 
L 1159 0 
L 581 0 
L 581 4863 
L 1159 4863 
L 1159 2969 
z
" transform="scale(0.015625)"/>
      <path id="DejaVuSans-6c" d="M 603 4863 
L 1178 4863 
L 1178 0 
L 603 0 
L 603 4863 
z
" transform="scale(0.015625)"/>
     </defs>
     <use xlink:href="#DejaVuSans-53"/>
     <use xlink:href="#DejaVuSans-65" transform="translate(63.476562 0)"/>
     <use xlink:href="#DejaVuSans-70" transform="translate(125 0)"/>
     <use xlink:href="#DejaVuSans-61" transform="translate(188.476562 0)"/>
     <use xlink:href="#DejaVuSans-72" transform="translate(249.755859 0)"/>
     <use xlink:href="#DejaVuSans-61" transform="translate(290.869141 0)"/>
     <use xlink:href="#DejaVuSans-62" transform="translate(352.148438 0)"/>
     <use xlink:href="#DejaVuSans-6c" transform="translate(415.625 0)"/>
     <use xlink:href="#DejaVuSans-65" transform="translate(443.408203 0)"/>
    </g>
   </g>
   <g id="text_23">
    <!-- Lineal -->
    <g style="fill: #1f2937" transform="translate(446.718857 791.395152) scale(0.09 -0.09)">
     <defs>
      <path id="DejaVuSans-4c" d="M 628 4666 
L 1259 4666 
L 1259 531 
L 3531 531 
L 3531 0 
L 628 0 
L 628 4666 
z
" transform="scale(0.015625)"/>
      <path id="DejaVuSans-69" d="M 603 3500 
L 1178 3500 
L 1178 0 
L 603 0 
L 603 3500 
z
M 603 4863 
L 1178 4863 
L 1178 4134 
L 603 4134 
L 603 4863 
z
" transform="scale(0.015625)"/>
      <path id="DejaVuSans-6e" d="M 3513 2113 
L 3513 0 
L 2938 0 
L 2938 2094 
Q 2938 2591 2744 2837 
Q 2550 3084 2163 3084 
Q 1697 3084 1428 2787 
Q 1159 2491 1159 1978 
L 1159 0 
L 581 0 
L 581 3500 
L 1159 3500 
L 1159 2956 
Q 1366 3272 1645 3428 
Q 1925 3584 2291 3584 
Q 2894 3584 3203 3211 
Q 3513 2838 3513 2113 
z
" transform="scale(0.015625)"/>
     </defs>
     <use xlink:href="#DejaVuSans-4c"/>
     <use xlink:href="#DejaVuSans-69" transform="translate(55.712891 0)"/>
     <use xlink:href="#DejaVuSans-6e" transform="translate(83.496094 0)"/>
     <use xlink:href="#DejaVuSans-65" transform="translate(146.875 0)"/>
     <use xlink:href="#DejaVuSans-61" transform="translate(208.398438 0)"/>
     <use xlink:href="#DejaVuSans-6c" transform="translate(269.677734 0)"/>
    </g>
   </g>
   <g id="text_24">
    <!-- Exacta/Diferencial -->
    <g style="fill: #1f2937" transform="translate(649.128857 791.395152) scale(0.09 -0.09)">
     <defs>
      <path id="DejaVuSans-45" d="M 628 4666 
L 3578 4666 
L 3578 4134 
L 1259 4134 
L 1259 2753 
L 3481 2753 
L 3481 2222 
L 1259 2222 
L 1259 531 
L 3634 531 
L 3634 0 
L 628 0 
L 628 4666 
z
" transform="scale(0.015625)"/>
      <path id="DejaVuSans-78" d="M 3513 3500 
L 2247 1797 
L 3578 0 
L 2900 0 
L 1881 1375 
L 863 0 
L 184 0 
L 1544 1831 
L 300 3500 
L 978 3500 
L 1906 2253 
L 2834 3500 
L 3513 3500 
z
" transform="scale(0.015625)"/>
      <path id="DejaVuSans-63" d="M 3122 3366 
L 3122 2828 
Q 2878 2963 2633 3030 
Q 2388 3097 2138 3097 
Q 1578 3097 1268 2742 
Q 959 2388 959 1747 
Q 959 1106 1268 751 
Q 1578 397 2138 397 
Q 2388 397 2633 464 
Q 2878 531 3122 666 
L 3122 134 
Q 2881 22 2623 -34 
Q 2366 -91 2075 -91 
Q 1284 -91 818 406 
Q 353 903 353 1747 
Q 353 2603 823 3093 
Q 1294 3584 2113 3584 
Q 2378 3584 2631 3529 
Q 2884 3475 3122 3366 
z
" transform="scale(0.015625)"/>
      <path id="DejaVuSans-74" d="M 1172 4494 
L 1172 3500 
L 2356 3500 
L 2356 3053 
L 1172 3053 
L 1172 1153 
Q 1172 725 1289 603 
Q 1406 481 1766 481 
L 2356 481 
L 2356 0 
L 1766 0 
Q 1100 0 847 248 
Q 594 497 594 1153 
L 594 3053 
L 172 3053 
L 172 3500 
L 594 3500 
L 594 4494 
L 1172 4494 
z
" transform="scale(0.015625)"/>
      <path id="DejaVuSans-2f" d="M 1625 4666 
L 2156 4666 
L 531 -594 
L 0 -594 
L 1625 4666 
z
" transform="scale(0.015625)"/>
      <path id="DejaVuSans-44" d="M 1259 4147 
L 1259 519 
L 2022 519 
Q 2988 519 3436 956 
Q 3884 1394 3884 2338 
Q 3884 3275 3436 3711 
Q 2988 4147 2022 4147 
L 1259 4147 
z
M 628 4666 
L 1925 4666 
Q 3281 4666 3915 4102 
Q 4550 3538 4550 2338 
Q 4550 1131 3912 565 
Q 3275 0 1925 0 
L 628 0 
L 628 4666 
z
" transform="scale(0.015625)"/>
      <path id="DejaVuSans-66" d="M 2375 4863 
L 2375 4384 
L 1825 4384 
Q 1516 4384 1395 4259 
Q 1275 4134 1275 3809 
L 1275 3500 
L 2222 3500 
L 2222 3053 
L 1275 3053 
L 1275 0 
L 697 0 
L 697 3053 
L 147 3053 
L 147 3500 
L 697 3500 
L 697 3744 
Q 697 4328 969 4595 
Q 1241 4863 1831 4863 
L 2375 4863 
z
" transform="scale(0.015625)"/>
     </defs>
     <use xlink:href="#DejaVuSans-45"/>
     <use xlink:href="#DejaVuSans-78" transform="translate(63.183594 0)"/>
     <use xlink:href="#DejaVuSans-61" transform="translate(122.363281 0)"/>
     <use xlink:href="#DejaVuSans-63" transform="translate(183.642578 0)"/>
     <use xlink:href="#DejaVuSans-74" transform="translate(238.623047 0)"/>
     <use xlink:href="#DejaVuSans-61" transform="translate(277.832031 0)"/>
     <use xlink:href="#DejaVuSans-2f" transform="translate(339.111328 0)"/>
     <use xlink:href="#DejaVuSans-44" transform="translate(372.802734 0)"/>
     <use xlink:href="#DejaVuSans-69" transform="translate(449.804688 0)"/>
     <use xlink:href="#DejaVuSans-66" transform="translate(477.587891 0)"/>
     <use xlink:href="#DejaVuSans-65" transform="translate(512.792969 0)"/>
     <use xlink:href="#DejaVuSans-72" transform="translate(574.316406 0)"/>
     <use xlink:href="#DejaVuSans-65" transform="translate(613.179688 0)"/>
     <use xlink:href="#DejaVuSans-6e" transform="translate(674.703125 0)"/>
     <use xlink:href="#DejaVuSans-63" transform="translate(738.082031 0)"/>
     <use xlink:href="#DejaVuSans-69" transform="translate(793.0625 0)"/>
     <use xlink:href="#DejaVuSans-61" transform="translate(820.845703 0)"/>
     <use xlink:href="#DejaVuSans-6c" transform="translate(882.125 0)"/>
    </g>
   </g>
   <g id="text_25">
    <!-- Casos especiales -->
    <g style="fill: #1f2937" transform="translate(851.538857 791.395152) scale(0.09 -0.09)">
     <defs>
      <path id="DejaVuSans-43" d="M 4122 4306 
L 4122 3641 
Q 3803 3938 3442 4084 
Q 3081 4231 2675 4231 
Q 1875 4231 1450 3742 
Q 1025 3253 1025 2328 
Q 1025 1406 1450 917 
Q 1875 428 2675 428 
Q 3081 428 3442 575 
Q 3803 722 4122 1019 
L 4122 359 
Q 3791 134 3420 21 
Q 3050 -91 2638 -91 
Q 1578 -91 968 557 
Q 359 1206 359 2328 
Q 359 3453 968 4101 
Q 1578 4750 2638 4750 
Q 3056 4750 3426 4639 
Q 3797 4528 4122 4306 
z
" transform="scale(0.015625)"/>
      <path id="DejaVuSans-73" d="M 2834 3397 
L 2834 2853 
Q 2591 2978 2328 3040 
Q 2066 3103 1784 3103 
Q 1356 3103 1142 2972 
Q 928 2841 928 2578 
Q 928 2378 1081 2264 
Q 1234 2150 1697 2047 
L 1894 2003 
Q 2506 1872 2764 1633 
Q 3022 1394 3022 966 
Q 3022 478 2636 193 
Q 2250 -91 1575 -91 
Q 1294 -91 989 -36 
Q 684 19 347 128 
L 347 722 
Q 666 556 975 473 
Q 1284 391 1588 391 
Q 1994 391 2212 530 
Q 2431 669 2431 922 
Q 2431 1156 2273 1281 
Q 2116 1406 1581 1522 
L 1381 1569 
Q 847 1681 609 1914 
Q 372 2147 372 2553 
Q 372 3047 722 3315 
Q 1072 3584 1716 3584 
Q 2034 3584 2315 3537 
Q 2597 3491 2834 3397 
z
" transform="scale(0.015625)"/>
      <path id="DejaVuSans-6f" d="M 1959 3097 
Q 1497 3097 1228 2736 
Q 959 2375 959 1747 
Q 959 1119 1226 758 
Q 1494 397 1959 397 
Q 2419 397 2687 759 
Q 2956 1122 2956 1747 
Q 2956 2369 2687 2733 
Q 2419 3097 1959 3097 
z
M 1959 3584 
Q 2709 3584 3137 3096 
Q 3566 2609 3566 1747 
Q 3566 888 3137 398 
Q 2709 -91 1959 -91 
Q 1206 -91 779 398 
Q 353 888 353 1747 
Q 353 2609 779 3096 
Q 1206 3584 1959 3584 
z
" transform="scale(0.015625)"/>
      <path id="DejaVuSans-20" transform="scale(0.015625)"/>
     </defs>
     <use xlink:href="#DejaVuSans-43"/>
     <use xlink:href="#DejaVuSans-61" transform="translate(69.824219 0)"/>
     <use xlink:href="#DejaVuSans-73" transform="translate(131.103516 0)"/>
     <use xlink:href="#DejaVuSans-6f" transform="translate(183.203125 0)"/>
     <use xlink:href="#DejaVuSans-73" transform="translate(244.384766 0)"/>
     <use xlink:href="#DejaVuSans-20" transform="translate(296.484375 0)"/>
     <use xlink:href="#DejaVuSans-65" transform="translate(328.271484 0)"/>
     <use xlink:href="#DejaVuSans-73" transform="translate(389.794922 0)"/>
     <use xlink:href="#DejaVuSans-70" transform="translate(441.894531 0)"/>
     <use xlink:href="#DejaVuSans-65" transform="translate(505.371094 0)"/>
     <use xlink:href="#DejaVuSans-63" transform="translate(566.894531 0)"/>
     <use xlink:href="#DejaVuSans-69" transform="translate(621.875 0)"/>
     <use xlink:href="#DejaVuSans-61" transform="translate(649.658203 0)"/>
     <use xlink:href="#DejaVuSans-6c" transform="translate(710.9375 0)"/>
     <use xlink:href="#DejaVuSans-65" transform="translate(738.720703 0)"/>
     <use xlink:href="#DejaVuSans-73" transform="translate(800.244141 0)"/>
    </g>
   </g>
  </g>
  <g id="text_26">
   <!-- Diagrama de Decisión: EDO de Primer Orden -->
   <g style="fill: #1f2937" transform="translate(326.874107 19.9975) scale(0.16 -0.16)">
    <defs>
     <path id="DejaVuSans-Bold-f3" d="M 2203 2784 
Q 1831 2784 1636 2517 
Q 1441 2250 1441 1747 
Q 1441 1244 1636 976 
Q 1831 709 2203 709 
Q 2569 709 2762 976 
Q 2956 1244 2956 1747 
Q 2956 2250 2762 2517 
Q 2569 2784 2203 2784 
z
M 2203 3584 
Q 3106 3584 3614 3096 
Q 4122 2609 4122 1747 
Q 4122 884 3614 396 
Q 3106 -91 2203 -91 
Q 1297 -91 786 396 
Q 275 884 275 1747 
Q 275 2609 786 3096 
Q 1297 3584 2203 3584 
z
M 2694 5119 
L 3578 5119 
L 2425 3944 
L 1813 3944 
L 2694 5119 
z
" transform="scale(0.015625)"/>
    </defs>
    <use xlink:href="#DejaVuSans-Bold-44"/>
    <use xlink:href="#DejaVuSans-Bold-69" transform="translate(83.007812 0)"/>
    <use xlink:href="#DejaVuSans-Bold-61" transform="translate(117.285156 0)"/>
    <use xlink:href="#DejaVuSans-Bold-67" transform="translate(184.765625 0)"/>
    <use xlink:href="#DejaVuSans-Bold-72" transform="translate(256.347656 0)"/>
    <use xlink:href="#DejaVuSans-Bold-61" transform="translate(305.664062 0)"/>
    <use xlink:href="#DejaVuSans-Bold-6d" transform="translate(373.144531 0)"/>
    <use xlink:href="#DejaVuSans-Bold-61" transform="translate(477.34375 0)"/>
    <use xlink:href="#DejaVuSans-Bold-20" transform="translate(544.824219 0)"/>
    <use xlink:href="#DejaVuSans-Bold-64" transform="translate(579.638672 0)"/>
    <use xlink:href="#DejaVuSans-Bold-65" transform="translate(651.220703 0)"/>
    <use xlink:href="#DejaVuSans-Bold-20" transform="translate(719.042969 0)"/>
    <use xlink:href="#DejaVuSans-Bold-44" transform="translate(753.857422 0)"/>
    <use xlink:href="#DejaVuSans-Bold-65" transform="translate(836.865234 0)"/>
    <use xlink:href="#DejaVuSans-Bold-63" transform="translate(904.6875 0)"/>
    <use xlink:href="#DejaVuSans-Bold-69" transform="translate(963.964844 0)"/>
    <use xlink:href="#DejaVuSans-Bold-73" transform="translate(998.242188 0)"/>
    <use xlink:href="#DejaVuSans-Bold-69" transform="translate(1057.763672 0)"/>
    <use xlink:href="#DejaVuSans-Bold-f3" transform="translate(1092.041016 0)"/>
    <use xlink:href="#DejaVuSans-Bold-6e" transform="translate(1160.742188 0)"/>
    <use xlink:href="#DejaVuSans-Bold-3a" transform="translate(1231.933594 0)"/>
    <use xlink:href="#DejaVuSans-Bold-20" transform="translate(1271.923828 0)"/>
    <use xlink:href="#DejaVuSans-Bold-45" transform="translate(1306.738281 0)"/>
    <use xlink:href="#DejaVuSans-Bold-44" transform="translate(1375.048828 0)"/>
    <use xlink:href="#DejaVuSans-Bold-4f" transform="translate(1458.056641 0)"/>
    <use xlink:href="#DejaVuSans-Bold-20" transform="translate(1543.066406 0)"/>
    <use xlink:href="#DejaVuSans-Bold-64" transform="translate(1577.880859 0)"/>
    <use xlink:href="#DejaVuSans-Bold-65" transform="translate(1649.462891 0)"/>
    <use xlink:href="#DejaVuSans-Bold-20" transform="translate(1717.285156 0)"/>
    <use xlink:href="#DejaVuSans-Bold-50" transform="translate(1752.099609 0)"/>
    <use xlink:href="#DejaVuSans-Bold-72" transform="translate(1825.390625 0)"/>
    <use xlink:href="#DejaVuSans-Bold-69" transform="translate(1874.707031 0)"/>
    <use xlink:href="#DejaVuSans-Bold-6d" transform="translate(1908.984375 0)"/>
    <use xlink:href="#DejaVuSans-Bold-65" transform="translate(2013.183594 0)"/>
    <use xlink:href="#DejaVuSans-Bold-72" transform="translate(2081.005859 0)"/>
    <use xlink:href="#DejaVuSans-Bold-20" transform="translate(2130.322266 0)"/>
    <use xlink:href="#DejaVuSans-Bold-4f" transform="translate(2165.136719 0)"/>
    <use xlink:href="#DejaVuSans-Bold-72" transform="translate(2250.146484 0)"/>
    <use xlink:href="#DejaVuSans-Bold-64" transform="translate(2299.462891 0)"/>
    <use xlink:href="#DejaVuSans-Bold-65" transform="translate(2371.044922 0)"/>
    <use xlink:href="#DejaVuSans-Bold-6e" transform="translate(2438.867188 0)"/>
   </g>
  </g>
 </g>
 <defs>
  <clipPath id="p70e93a7910">
   <rect x="7.2" y="31.32" width="1040.965714" height="809.64"/>
  </clipPath>
 </defs>
</svg>
