<?xml version="1.0" encoding="utf-8" standalone="no"?>
<!DOCTYPE svg PUBLIC "-//W3C//DTD SVG 1.1//EN"
  "http://www.w3.org/Graphics/SVG/1.1/DTD/svg11.dtd">
<svg xmlns:xlink="http://www.w3.org/1999/xlink" width="1016.39952pt" height="584.39952pt" viewBox="0 0 1016.39952 584.39952" xmlns="http://www.w3.org/2000/svg" version="1.1">
 <metadata>
  <rdf:RDF xmlns:dc="http://purl.org/dc/elements/1.1/" xmlns:cc="http://creativecommons.org/ns#" xmlns:rdf="http://www.w3.org/1999/02/22-rdf-syntax-ns#">
   <cc:Work>
    <dc:type rdf:resource="http://purl.org/dc/dcmitype/StillImage"/>
    <dc:date>2026-01-04T21:13:43.522991</dc:date>
    <dc:format>image/svg+xml</dc:format>
    <dc:creator>
     <cc:Agent>
      <dc:title>Repositorio Matemáticas Universitarias</dc:title>
     </cc:Agent>
    </dc:creator>
   </cc:Work>
  </rdf:RDF>
 </metadata>
 <defs>
  <style type="text/css">*{stroke-linejoin: round; stroke-linecap: butt}</style>
 </defs>
 <g id="figure_1">
  <g id="patch_1">
   <path d="M 0 584.39952 
L 1016.39952 584.39952 
L 1016.39952 0 
L 0 0 
z
" style="fill: #ffffff"/>
  </g>
  <g id="axes_1">
   <g id="patch_2">
    <path d="M 36.480937 523.00436 
L 537.481528 523.00436 
L 537.481528 80.945015 
L 36.480937 80.945015 
z
" style="fill: #ffffff"/>
   </g>
   <g id="matplotlib.axis_1">
    <g id="xtick_1">
     <g id="line2d_1">
      <path d="M 65.95156 523.00436 
L 65.95156 80.945015 
" clip-path="url(#p3fde4e2489)" style="fill: none; stroke-dasharray: 2.96,1.28; stroke-dashoffset: 0; stroke: #9ca3af; stroke-opacity: 0.3; stroke-width: 0.8"/>
     </g>
     <g id="line2d_2">
      <defs>
       <path id="m9c5301d73f" d="M 0 0 
L 0 3.5 
" style="stroke: #1f2937; stroke-width: 0.8"/>
      </defs>
      <g>
       <use xlink:href="#m9c5301d73f" x="65.95156" y="523.00436" style="fill: #1f2937; stroke: #1f2937; stroke-width: 0.8"/>
      </g>
     </g>
     <g id="text_1">
      <!-- 0 -->
      <g style="fill: #1f2937" transform="translate(62.13406 539.122485) scale(0.12 -0.12)">
       <defs>
        <path id="DejaVuSans-30" d="M 2034 4250 
Q 1547 4250 1301 3770 
Q 1056 3291 1056 2328 
Q 1056 1369 1301 889 
Q 1547 409 2034 409 
Q 2525 409 2770 889 
Q 3016 1369 3016 2328 
Q 3016 3291 2770 3770 
Q 2525 4250 2034 4250 
z
M 2034 4750 
Q 2819 4750 3233 4129 
Q 3647 3509 3647 2328 
Q 3647 1150 3233 529 
Q 2819 -91 2034 -91 
Q 1250 -91 836 529 
Q 422 1150 422 2328 
Q 422 3509 836 4129 
Q 1250 4750 2034 4750 
z
" transform="scale(0.015625)"/>
       </defs>
       <use xlink:href="#DejaVuSans-30"/>
      </g>
     </g>
    </g>
    <g id="xtick_2">
     <g id="line2d_3">
      <path d="M 124.892806 523.00436 
L 124.892806 80.945015 
" clip-path="url(#p3fde4e2489)" style="fill: none; stroke-dasharray: 2.96,1.28; stroke-dashoffset: 0; stroke: #9ca3af; stroke-opacity: 0.3; stroke-width: 0.8"/>
     </g>
     <g id="line2d_4">
      <g>
       <use xlink:href="#m9c5301d73f" x="124.892806" y="523.00436" style="fill: #1f2937; stroke: #1f2937; stroke-width: 0.8"/>
      </g>
     </g>
     <g id="text_2">
      <!-- 1 -->
      <g style="fill: #1f2937" transform="translate(121.075306 539.122485) scale(0.12 -0.12)">
       <defs>
        <path id="DejaVuSans-31" d="M 794 531 
L 1825 531 
L 1825 4091 
L 703 3866 
L 703 4441 
L 1819 4666 
L 2450 4666 
L 2450 531 
L 3481 531 
L 3481 0 
L 794 0 
L 794 531 
z
" transform="scale(0.015625)"/>
       </defs>
       <use xlink:href="#DejaVuSans-31"/>
      </g>
     </g>
    </g>
    <g id="xtick_3">
     <g id="line2d_5">
      <path d="M 183.834052 523.00436 
L 183.834052 80.945015 
" clip-path="url(#p3fde4e2489)" style="fill: none; stroke-dasharray: 2.96,1.28; stroke-dashoffset: 0; stroke: #9ca3af; stroke-opacity: 0.3; stroke-width: 0.8"/>
     </g>
     <g id="line2d_6">
      <g>
       <use xlink:href="#m9c5301d73f" x="183.834052" y="523.00436" style="fill: #1f2937; stroke: #1f2937; stroke-width: 0.8"/>
      </g>
     </g>
     <g id="text_3">
      <!-- 2 -->
      <g style="fill: #1f2937" transform="translate(180.016552 539.122485) scale(0.12 -0.12)">
       <defs>
        <path id="DejaVuSans-32" d="M 1228 531 
L 3431 531 
L 3431 0 
L 469 0 
L 469 531 
Q 828 903 1448 1529 
Q 2069 2156 2228 2338 
Q 2531 2678 2651 2914 
Q 2772 3150 2772 3378 
Q 2772 3750 2511 3984 
Q 2250 4219 1831 4219 
Q 1534 4219 1204 4116 
Q 875 4013 500 3803 
L 500 4441 
Q 881 4594 1212 4672 
Q 1544 4750 1819 4750 
Q 2544 4750 2975 4387 
Q 3406 4025 3406 3419 
Q 3406 3131 3298 2873 
Q 3191 2616 2906 2266 
Q 2828 2175 2409 1742 
Q 1991 1309 1228 531 
z
" transform="scale(0.015625)"/>
       </defs>
       <use xlink:href="#DejaVuSans-32"/>
      </g>
     </g>
    </g>
    <g id="xtick_4">
     <g id="line2d_7">
      <path d="M 242.775298 523.00436 
L 242.775298 80.945015 
" clip-path="url(#p3fde4e2489)" style="fill: none; stroke-dasharray: 2.96,1.28; stroke-dashoffset: 0; stroke: #9ca3af; stroke-opacity: 0.3; stroke-width: 0.8"/>
     </g>
     <g id="line2d_8">
      <g>
       <use xlink:href="#m9c5301d73f" x="242.775298" y="523.00436" style="fill: #1f2937; stroke: #1f2937; stroke-width: 0.8"/>
      </g>
     </g>
     <g id="text_4">
      <!-- 3 -->
      <g style="fill: #1f2937" transform="translate(238.957798 539.122485) scale(0.12 -0.12)">
       <defs>
        <path id="DejaVuSans-33" d="M 2597 2516 
Q 3050 2419 3304 2112 
Q 3559 1806 3559 1356 
Q 3559 666 3084 287 
Q 2609 -91 1734 -91 
Q 1441 -91 1130 -33 
Q 819 25 488 141 
L 488 750 
Q 750 597 1062 519 
Q 1375 441 1716 441 
Q 2309 441 2620 675 
Q 2931 909 2931 1356 
Q 2931 1769 2642 2001 
Q 2353 2234 1838 2234 
L 1294 2234 
L 1294 2753 
L 1863 2753 
Q 2328 2753 2575 2939 
Q 2822 3125 2822 3475 
Q 2822 3834 2567 4026 
Q 2313 4219 1838 4219 
Q 1578 4219 1281 4162 
Q 984 4106 628 3988 
L 628 4550 
Q 988 4650 1302 4700 
Q 1616 4750 1894 4750 
Q 2613 4750 3031 4423 
Q 3450 4097 3450 3541 
Q 3450 3153 3228 2886 
Q 3006 2619 2597 2516 
z
" transform="scale(0.015625)"/>
       </defs>
       <use xlink:href="#DejaVuSans-33"/>
      </g>
     </g>
    </g>
    <g id="xtick_5">
     <g id="line2d_9">
      <path d="M 301.716544 523.00436 
L 301.716544 80.945015 
" clip-path="url(#p3fde4e2489)" style="fill: none; stroke-dasharray: 2.96,1.28; stroke-dashoffset: 0; stroke: #9ca3af; stroke-opacity: 0.3; stroke-width: 0.8"/>
     </g>
     <g id="line2d_10">
      <g>
       <use xlink:href="#m9c5301d73f" x="301.716544" y="523.00436" style="fill: #1f2937; stroke: #1f2937; stroke-width: 0.8"/>
      </g>
     </g>
     <g id="text_5">
      <!-- 4 -->
      <g style="fill: #1f2937" transform="translate(297.899044 539.122485) scale(0.12 -0.12)">
       <defs>
        <path id="DejaVuSans-34" d="M 2419 4116 
L 825 1625 
L 2419 1625 
L 2419 4116 
z
M 2253 4666 
L 3047 4666 
L 3047 1625 
L 3713 1625 
L 3713 1100 
L 3047 1100 
L 3047 0 
L 2419 0 
L 2419 1100 
L 313 1100 
L 313 1709 
L 2253 4666 
z
" transform="scale(0.015625)"/>
       </defs>
       <use xlink:href="#DejaVuSans-34"/>
      </g>
     </g>
    </g>
    <g id="xtick_6">
     <g id="line2d_11">
      <path d="M 360.65779 523.00436 
L 360.65779 80.945015 
" clip-path="url(#p3fde4e2489)" style="fill: none; stroke-dasharray: 2.96,1.28; stroke-dashoffset: 0; stroke: #9ca3af; stroke-opacity: 0.3; stroke-width: 0.8"/>
     </g>
     <g id="line2d_12">
      <g>
       <use xlink:href="#m9c5301d73f" x="360.65779" y="523.00436" style="fill: #1f2937; stroke: #1f2937; stroke-width: 0.8"/>
      </g>
     </g>
     <g id="text_6">
      <!-- 5 -->
      <g style="fill: #1f2937" transform="translate(356.84029 539.122485) scale(0.12 -0.12)">
       <defs>
        <path id="DejaVuSans-35" d="M 691 4666 
L 3169 4666 
L 3169 4134 
L 1269 4134 
L 1269 2991 
Q 1406 3038 1543 3061 
Q 1681 3084 1819 3084 
Q 2600 3084 3056 2656 
Q 3513 2228 3513 1497 
Q 3513 744 3044 326 
Q 2575 -91 1722 -91 
Q 1428 -91 1123 -41 
Q 819 9 494 109 
L 494 744 
Q 775 591 1075 516 
Q 1375 441 1709 441 
Q 2250 441 2565 725 
Q 2881 1009 2881 1497 
Q 2881 1984 2565 2268 
Q 2250 2553 1709 2553 
Q 1456 2553 1204 2497 
Q 953 2441 691 2322 
L 691 4666 
z
" transform="scale(0.015625)"/>
       </defs>
       <use xlink:href="#DejaVuSans-35"/>
      </g>
     </g>
    </g>
    <g id="xtick_7">
     <g id="line2d_13">
      <path d="M 419.599036 523.00436 
L 419.599036 80.945015 
" clip-path="url(#p3fde4e2489)" style="fill: none; stroke-dasharray: 2.96,1.28; stroke-dashoffset: 0; stroke: #9ca3af; stroke-opacity: 0.3; stroke-width: 0.8"/>
     </g>
     <g id="line2d_14">
      <g>
       <use xlink:href="#m9c5301d73f" x="419.599036" y="523.00436" style="fill: #1f2937; stroke: #1f2937; stroke-width: 0.8"/>
      </g>
     </g>
     <g id="text_7">
      <!-- 6 -->
      <g style="fill: #1f2937" transform="translate(415.781536 539.122485) scale(0.12 -0.12)">
       <defs>
        <path id="DejaVuSans-36" d="M 2113 2584 
Q 1688 2584 1439 2293 
Q 1191 2003 1191 1497 
Q 1191 994 1439 701 
Q 1688 409 2113 409 
Q 2538 409 2786 701 
Q 3034 994 3034 1497 
Q 3034 2003 2786 2293 
Q 2538 2584 2113 2584 
z
M 3366 4563 
L 3366 3988 
Q 3128 4100 2886 4159 
Q 2644 4219 2406 4219 
Q 1781 4219 1451 3797 
Q 1122 3375 1075 2522 
Q 1259 2794 1537 2939 
Q 1816 3084 2150 3084 
Q 2853 3084 3261 2657 
Q 3669 2231 3669 1497 
Q 3669 778 3244 343 
Q 2819 -91 2113 -91 
Q 1303 -91 875 529 
Q 447 1150 447 2328 
Q 447 3434 972 4092 
Q 1497 4750 2381 4750 
Q 2619 4750 2861 4703 
Q 3103 4656 3366 4563 
z
" transform="scale(0.015625)"/>
       </defs>
       <use xlink:href="#DejaVuSans-36"/>
      </g>
     </g>
    </g>
    <g id="xtick_8">
     <g id="line2d_15">
      <path d="M 478.540282 523.00436 
L 478.540282 80.945015 
" clip-path="url(#p3fde4e2489)" style="fill: none; stroke-dasharray: 2.96,1.28; stroke-dashoffset: 0; stroke: #9ca3af; stroke-opacity: 0.3; stroke-width: 0.8"/>
     </g>
     <g id="line2d_16">
      <g>
       <use xlink:href="#m9c5301d73f" x="478.540282" y="523.00436" style="fill: #1f2937; stroke: #1f2937; stroke-width: 0.8"/>
      </g>
     </g>
     <g id="text_8">
      <!-- 7 -->
      <g style="fill: #1f2937" transform="translate(474.722782 539.122485) scale(0.12 -0.12)">
       <defs>
        <path id="DejaVuSans-37" d="M 525 4666 
L 3525 4666 
L 3525 4397 
L 1831 0 
L 1172 0 
L 2766 4134 
L 525 4134 
L 525 4666 
z
" transform="scale(0.015625)"/>
       </defs>
       <use xlink:href="#DejaVuSans-37"/>
      </g>
     </g>
    </g>
    <g id="xtick_9">
     <g id="line2d_17">
      <path d="M 537.481528 523.00436 
L 537.481528 80.945015 
" clip-path="url(#p3fde4e2489)" style="fill: none; stroke-dasharray: 2.96,1.28; stroke-dashoffset: 0; stroke: #9ca3af; stroke-opacity: 0.3; stroke-width: 0.8"/>
     </g>
     <g id="line2d_18">
      <g>
       <use xlink:href="#m9c5301d73f" x="537.481528" y="523.00436" style="fill: #1f2937; stroke: #1f2937; stroke-width: 0.8"/>
      </g>
     </g>
     <g id="text_9">
      <!-- 8 -->
      <g style="fill: #1f2937" transform="translate(533.664028 539.122485) scale(0.12 -0.12)">
       <defs>
        <path id="DejaVuSans-38" d="M 2034 2216 
Q 1584 2216 1326 1975 
Q 1069 1734 1069 1313 
Q 1069 891 1326 650 
Q 1584 409 2034 409 
Q 2484 409 2743 651 
Q 3003 894 3003 1313 
Q 3003 1734 2745 1975 
Q 2488 2216 2034 2216 
z
M 1403 2484 
Q 997 2584 770 2862 
Q 544 3141 544 3541 
Q 544 4100 942 4425 
Q 1341 4750 2034 4750 
Q 2731 4750 3128 4425 
Q 3525 4100 3525 3541 
Q 3525 3141 3298 2862 
Q 3072 2584 2669 2484 
Q 3125 2378 3379 2068 
Q 3634 1759 3634 1313 
Q 3634 634 3220 271 
Q 2806 -91 2034 -91 
Q 1263 -91 848 271 
Q 434 634 434 1313 
Q 434 1759 690 2068 
Q 947 2378 1403 2484 
z
M 1172 3481 
Q 1172 3119 1398 2916 
Q 1625 2713 2034 2713 
Q 2441 2713 2670 2916 
Q 2900 3119 2900 3481 
Q 2900 3844 2670 4047 
Q 2441 4250 2034 4250 
Q 1625 4250 1398 4047 
Q 1172 3844 1172 3481 
z
" transform="scale(0.015625)"/>
       </defs>
       <use xlink:href="#DejaVuSans-38"/>
      </g>
     </g>
    </g>
    <g id="text_10">
     <!-- x -->
     <g style="fill: #1f2937" transform="translate(283.72592 553.976391) scale(0.11 -0.11)">
      <defs>
       <path id="DejaVuSans-78" d="M 3513 3500 
L 2247 1797 
L 3578 0 
L 2900 0 
L 1881 1375 
L 863 0 
L 184 0 
L 1544 1831 
L 300 3500 
L 978 3500 
L 1906 2253 
L 2834 3500 
L 3513 3500 
z
" transform="scale(0.015625)"/>
      </defs>
      <use xlink:href="#DejaVuSans-78"/>
     </g>
    </g>
   </g>
   <g id="matplotlib.axis_2">
    <g id="ytick_1">
     <g id="line2d_19">
      <path d="M 36.480937 493.533737 
L 537.481528 493.533737 
" clip-path="url(#p3fde4e2489)" style="fill: none; stroke-dasharray: 2.96,1.28; stroke-dashoffset: 0; stroke: #9ca3af; stroke-opacity: 0.3; stroke-width: 0.8"/>
     </g>
     <g id="line2d_20">
      <defs>
       <path id="m2f62460bb7" d="M 0 0 
L -3.5 0 
" style="stroke: #1f2937; stroke-width: 0.8"/>
      </defs>
      <g>
       <use xlink:href="#m2f62460bb7" x="36.480937" y="493.533737" style="fill: #1f2937; stroke: #1f2937; stroke-width: 0.8"/>
      </g>
     </g>
     <g id="text_11">
      <!-- 0 -->
      <g style="fill: #1f2937" transform="translate(21.845937 498.092799) scale(0.12 -0.12)">
       <use xlink:href="#DejaVuSans-30"/>
      </g>
     </g>
    </g>
    <g id="ytick_2">
     <g id="line2d_21">
      <path d="M 36.480937 434.592491 
L 537.481528 434.592491 
" clip-path="url(#p3fde4e2489)" style="fill: none; stroke-dasharray: 2.96,1.28; stroke-dashoffset: 0; stroke: #9ca3af; stroke-opacity: 0.3; stroke-width: 0.8"/>
     </g>
     <g id="line2d_22">
      <g>
       <use xlink:href="#m2f62460bb7" x="36.480937" y="434.592491" style="fill: #1f2937; stroke: #1f2937; stroke-width: 0.8"/>
      </g>
     </g>
     <g id="text_12">
      <!-- 1 -->
      <g style="fill: #1f2937" transform="translate(21.845937 439.151553) scale(0.12 -0.12)">
       <use xlink:href="#DejaVuSans-31"/>
      </g>
     </g>
    </g>
    <g id="ytick_3">
     <g id="line2d_23">
      <path d="M 36.480937 375.651245 
L 537.481528 375.651245 
" clip-path="url(#p3fde4e2489)" style="fill: none; stroke-dasharray: 2.96,1.28; stroke-dashoffset: 0; stroke: #9ca3af; stroke-opacity: 0.3; stroke-width: 0.8"/>
     </g>
     <g id="line2d_24">
      <g>
       <use xlink:href="#m2f62460bb7" x="36.480937" y="375.651245" style="fill: #1f2937; stroke: #1f2937; stroke-width: 0.8"/>
      </g>
     </g>
     <g id="text_13">
      <!-- 2 -->
      <g style="fill: #1f2937" transform="translate(21.845937 380.210307) scale(0.12 -0.12)">
       <use xlink:href="#DejaVuSans-32"/>
      </g>
     </g>
    </g>
    <g id="ytick_4">
     <g id="line2d_25">
      <path d="M 36.480937 316.709999 
L 537.481528 316.709999 
" clip-path="url(#p3fde4e2489)" style="fill: none; stroke-dasharray: 2.96,1.28; stroke-dashoffset: 0; stroke: #9ca3af; stroke-opacity: 0.3; stroke-width: 0.8"/>
     </g>
     <g id="line2d_26">
      <g>
       <use xlink:href="#m2f62460bb7" x="36.480937" y="316.709999" style="fill: #1f2937; stroke: #1f2937; stroke-width: 0.8"/>
      </g>
     </g>
     <g id="text_14">
      <!-- 3 -->
      <g style="fill: #1f2937" transform="translate(21.845937 321.269061) scale(0.12 -0.12)">
       <use xlink:href="#DejaVuSans-33"/>
      </g>
     </g>
    </g>
    <g id="ytick_5">
     <g id="line2d_27">
      <path d="M 36.480937 257.768753 
L 537.481528 257.768753 
" clip-path="url(#p3fde4e2489)" style="fill: none; stroke-dasharray: 2.96,1.28; stroke-dashoffset: 0; stroke: #9ca3af; stroke-opacity: 0.3; stroke-width: 0.8"/>
     </g>
     <g id="line2d_28">
      <g>
       <use xlink:href="#m2f62460bb7" x="36.480937" y="257.768753" style="fill: #1f2937; stroke: #1f2937; stroke-width: 0.8"/>
      </g>
     </g>
     <g id="text_15">
      <!-- 4 -->
      <g style="fill: #1f2937" transform="translate(21.845937 262.327816) scale(0.12 -0.12)">
       <use xlink:href="#DejaVuSans-34"/>
      </g>
     </g>
    </g>
    <g id="ytick_6">
     <g id="line2d_29">
      <path d="M 36.480937 198.827507 
L 537.481528 198.827507 
" clip-path="url(#p3fde4e2489)" style="fill: none; stroke-dasharray: 2.96,1.28; stroke-dashoffset: 0; stroke: #9ca3af; stroke-opacity: 0.3; stroke-width: 0.8"/>
     </g>
     <g id="line2d_30">
      <g>
       <use xlink:href="#m2f62460bb7" x="36.480937" y="198.827507" style="fill: #1f2937; stroke: #1f2937; stroke-width: 0.8"/>
      </g>
     </g>
     <g id="text_16">
      <!-- 5 -->
      <g style="fill: #1f2937" transform="translate(21.845937 203.38657) scale(0.12 -0.12)">
       <use xlink:href="#DejaVuSans-35"/>
      </g>
     </g>
    </g>
    <g id="ytick_7">
     <g id="line2d_31">
      <path d="M 36.480937 139.886261 
L 537.481528 139.886261 
" clip-path="url(#p3fde4e2489)" style="fill: none; stroke-dasharray: 2.96,1.28; stroke-dashoffset: 0; stroke: #9ca3af; stroke-opacity: 0.3; stroke-width: 0.8"/>
     </g>
     <g id="line2d_32">
      <g>
       <use xlink:href="#m2f62460bb7" x="36.480937" y="139.886261" style="fill: #1f2937; stroke: #1f2937; stroke-width: 0.8"/>
      </g>
     </g>
     <g id="text_17">
      <!-- 6 -->
      <g style="fill: #1f2937" transform="translate(21.845937 144.445324) scale(0.12 -0.12)">
       <use xlink:href="#DejaVuSans-36"/>
      </g>
     </g>
    </g>
    <g id="ytick_8">
     <g id="line2d_33">
      <path d="M 36.480937 80.945015 
L 537.481528 80.945015 
" clip-path="url(#p3fde4e2489)" style="fill: none; stroke-dasharray: 2.96,1.28; stroke-dashoffset: 0; stroke: #9ca3af; stroke-opacity: 0.3; stroke-width: 0.8"/>
     </g>
     <g id="line2d_34">
      <g>
       <use xlink:href="#m2f62460bb7" x="36.480937" y="80.945015" style="fill: #1f2937; stroke: #1f2937; stroke-width: 0.8"/>
      </g>
     </g>
     <g id="text_18">
      <!-- 7 -->
      <g style="fill: #1f2937" transform="translate(21.845937 85.504078) scale(0.12 -0.12)">
       <use xlink:href="#DejaVuSans-37"/>
      </g>
     </g>
    </g>
    <g id="text_19">
     <!-- y -->
     <g style="fill: #1f2937" transform="translate(15.558281 305.23) rotate(-90) scale(0.11 -0.11)">
      <defs>
       <path id="DejaVuSans-79" d="M 2059 -325 
Q 1816 -950 1584 -1140 
Q 1353 -1331 966 -1331 
L 506 -1331 
L 506 -850 
L 844 -850 
Q 1081 -850 1212 -737 
Q 1344 -625 1503 -206 
L 1606 56 
L 191 3500 
L 800 3500 
L 1894 763 
L 2988 3500 
L 3597 3500 
L 2059 -325 
z
" transform="scale(0.015625)"/>
      </defs>
      <use xlink:href="#DejaVuSans-79"/>
     </g>
    </g>
   </g>
   <g id="line2d_35">
    <path d="M 36.480937 493.533737 
L 537.481528 493.533737 
" clip-path="url(#p3fde4e2489)" style="fill: none; stroke: #9ca3af; stroke-linecap: square"/>
   </g>
   <g id="line2d_36">
    <path d="M 65.95156 523.00436 
L 65.95156 80.945015 
" clip-path="url(#p3fde4e2489)" style="fill: none; stroke: #9ca3af; stroke-linecap: square"/>
   </g>
   <g id="line2d_37">
    <path d="M 124.892806 434.592491 
L 419.599036 434.592491 
" clip-path="url(#p3fde4e2489)" style="fill: none; stroke-dasharray: 7.4,3.2; stroke-dashoffset: 0; stroke: #7c3aed; stroke-width: 2"/>
   </g>
   <g id="line2d_38">
    <path d="M 419.599036 434.592491 
L 419.599036 198.827507 
" clip-path="url(#p3fde4e2489)" style="fill: none; stroke-dasharray: 7.4,3.2; stroke-dashoffset: 0; stroke: #dc2626; stroke-width: 2"/>
   </g>
   <g id="line2d_39">
    <path d="M 401.916662 434.592491 
L 401.916662 416.910117 
L 419.599036 416.910117 
" clip-path="url(#p3fde4e2489)" style="fill: none; stroke: #6b7280; stroke-linecap: square"/>
   </g>
   <g id="line2d_40">
    <path d="M 124.892806 493.533737 
L 124.892806 434.592491 
" clip-path="url(#p3fde4e2489)" style="fill: none; stroke-dasharray: 1,1.65; stroke-dashoffset: 0; stroke: #d1d5db"/>
   </g>
   <g id="line2d_41">
    <path d="M 65.95156 434.592491 
L 124.892806 434.592491 
" clip-path="url(#p3fde4e2489)" style="fill: none; stroke-dasharray: 1,1.65; stroke-dashoffset: 0; stroke: #d1d5db"/>
   </g>
   <g id="line2d_42">
    <path d="M 419.599036 493.533737 
L 419.599036 198.827507 
" clip-path="url(#p3fde4e2489)" style="fill: none; stroke-dasharray: 1,1.65; stroke-dashoffset: 0; stroke: #d1d5db"/>
   </g>
   <g id="line2d_43">
    <path d="M 65.95156 198.827507 
L 419.599036 198.827507 
" clip-path="url(#p3fde4e2489)" style="fill: none; stroke-dasharray: 1,1.65; stroke-dashoffset: 0; stroke: #d1d5db"/>
   </g>
   <g id="patch_3">
    <path d="M 36.480937 523.00436 
L 36.480937 80.945015 
" style="fill: none; stroke: #000000; stroke-width: 1.5; stroke-linejoin: miter; stroke-linecap: square"/>
   </g>
   <g id="patch_4">
    <path d="M 537.481528 523.00436 
L 537.481528 80.945015 
" style="fill: none; stroke: #000000; stroke-width: 1.5; stroke-linejoin: miter; stroke-linecap: square"/>
   </g>
   <g id="patch_5">
    <path d="M 36.480937 523.00436 
L 537.481528 523.00436 
" style="fill: none; stroke: #000000; stroke-width: 1.5; stroke-linejoin: miter; stroke-linecap: square"/>
   </g>
   <g id="patch_6">
    <path d="M 36.480937 80.945015 
L 537.481528 80.945015 
" style="fill: none; stroke: #000000; stroke-width: 1.5; stroke-linejoin: miter; stroke-linecap: square"/>
   </g>
   <g id="line2d_44">
    <path d="M 124.892806 434.592491 
L 419.599036 198.827507 
" clip-path="url(#p3fde4e2489)" style="fill: none; stroke: #2563eb; stroke-width: 3; stroke-linecap: square"/>
   </g>
   <g id="text_20">
    <!-- $P_1(x_1, y_1)$ -->
    <g style="fill: #2563eb" transform="translate(101.316308 411.015992) scale(0.11 -0.11)">
     <defs>
      <path id="DejaVuSans-Oblique-50" d="M 1081 4666 
L 2541 4666 
Q 3178 4666 3512 4369 
Q 3847 4072 3847 3500 
Q 3847 2731 3353 2303 
Q 2859 1875 1966 1875 
L 1172 1875 
L 806 0 
L 172 0 
L 1081 4666 
z
M 1613 4147 
L 1275 2394 
L 2069 2394 
Q 2606 2394 2893 2669 
Q 3181 2944 3181 3456 
Q 3181 3784 2986 3965 
Q 2791 4147 2438 4147 
L 1613 4147 
z
" transform="scale(0.015625)"/>
      <path id="DejaVuSans-28" d="M 1984 4856 
Q 1566 4138 1362 3434 
Q 1159 2731 1159 2009 
Q 1159 1288 1364 580 
Q 1569 -128 1984 -844 
L 1484 -844 
Q 1016 -109 783 600 
Q 550 1309 550 2009 
Q 550 2706 781 3412 
Q 1013 4119 1484 4856 
L 1984 4856 
z
" transform="scale(0.015625)"/>
      <path id="DejaVuSans-Oblique-78" d="M 3841 3500 
L 2234 1784 
L 3219 0 
L 2559 0 
L 1819 1388 
L 531 0 
L -166 0 
L 1556 1844 
L 641 3500 
L 1300 3500 
L 1972 2234 
L 3144 3500 
L 3841 3500 
z
" transform="scale(0.015625)"/>
      <path id="DejaVuSans-2c" d="M 750 794 
L 1409 794 
L 1409 256 
L 897 -744 
L 494 -744 
L 750 256 
L 750 794 
z
" transform="scale(0.015625)"/>
      <path id="DejaVuSans-Oblique-79" d="M 1588 -325 
Q 1188 -997 936 -1164 
Q 684 -1331 294 -1331 
L -159 -1331 
L -63 -850 
L 269 -850 
Q 509 -850 678 -719 
Q 847 -588 1056 -206 
L 1234 128 
L 459 3500 
L 1069 3500 
L 1650 819 
L 3256 3500 
L 3859 3500 
L 1588 -325 
z
" transform="scale(0.015625)"/>
      <path id="DejaVuSans-29" d="M 513 4856 
L 1013 4856 
Q 1481 4119 1714 3412 
Q 1947 2706 1947 2009 
Q 1947 1309 1714 600 
Q 1481 -109 1013 -844 
L 513 -844 
Q 928 -128 1133 580 
Q 1338 1288 1338 2009 
Q 1338 2731 1133 3434 
Q 928 4138 513 4856 
z
" transform="scale(0.015625)"/>
     </defs>
     <use xlink:href="#DejaVuSans-Oblique-50" transform="translate(0 0.125)"/>
     <use xlink:href="#DejaVuSans-31" transform="translate(60.302734 -16.28125) scale(0.7)"/>
     <use xlink:href="#DejaVuSans-28" transform="translate(107.573242 0.125)"/>
     <use xlink:href="#DejaVuSans-Oblique-78" transform="translate(146.586914 0.125)"/>
     <use xlink:href="#DejaVuSans-31" transform="translate(205.766602 -16.28125) scale(0.7)"/>
     <use xlink:href="#DejaVuSans-2c" transform="translate(253.037109 0.125)"/>
     <use xlink:href="#DejaVuSans-Oblique-79" transform="translate(304.306641 0.125)"/>
     <use xlink:href="#DejaVuSans-31" transform="translate(363.486328 -16.28125) scale(0.7)"/>
     <use xlink:href="#DejaVuSans-29" transform="translate(410.756836 0.125)"/>
    </g>
   </g>
   <g id="text_21">
    <!-- $P_2(x_2, y_2)$ -->
    <g style="fill: #2563eb" transform="translate(431.387285 181.145133) scale(0.11 -0.11)">
     <use xlink:href="#DejaVuSans-Oblique-50" transform="translate(0 0.125)"/>
     <use xlink:href="#DejaVuSans-32" transform="translate(60.302734 -16.28125) scale(0.7)"/>
     <use xlink:href="#DejaVuSans-28" transform="translate(107.573242 0.125)"/>
     <use xlink:href="#DejaVuSans-Oblique-78" transform="translate(146.586914 0.125)"/>
     <use xlink:href="#DejaVuSans-32" transform="translate(205.766602 -16.28125) scale(0.7)"/>
     <use xlink:href="#DejaVuSans-2c" transform="translate(253.037109 0.125)"/>
     <use xlink:href="#DejaVuSans-Oblique-79" transform="translate(304.306641 0.125)"/>
     <use xlink:href="#DejaVuSans-32" transform="translate(363.486328 -16.28125) scale(0.7)"/>
     <use xlink:href="#DejaVuSans-29" transform="translate(410.756836 0.125)"/>
    </g>
   </g>
   <g id="text_22">
    <!-- M (punto medio) -->
    <g style="fill: #f59e0b" transform="translate(284.03417 293.133501) scale(0.1 -0.1)">
     <defs>
      <path id="DejaVuSans-Bold-4d" d="M 588 4666 
L 2119 4666 
L 3181 2169 
L 4250 4666 
L 5778 4666 
L 5778 0 
L 4641 0 
L 4641 3413 
L 3566 897 
L 2803 897 
L 1728 3413 
L 1728 0 
L 588 0 
L 588 4666 
z
" transform="scale(0.015625)"/>
      <path id="DejaVuSans-Bold-20" transform="scale(0.015625)"/>
      <path id="DejaVuSans-Bold-28" d="M 2413 -844 
L 1484 -844 
Q 1006 -72 778 623 
Q 550 1319 550 2003 
Q 550 2688 779 3389 
Q 1009 4091 1484 4856 
L 2413 4856 
Q 2013 4116 1813 3408 
Q 1613 2700 1613 2009 
Q 1613 1319 1811 609 
Q 2009 -100 2413 -844 
z
" transform="scale(0.015625)"/>
      <path id="DejaVuSans-Bold-70" d="M 1656 506 
L 1656 -1331 
L 538 -1331 
L 538 3500 
L 1656 3500 
L 1656 2988 
Q 1888 3294 2169 3439 
Q 2450 3584 2816 3584 
Q 3463 3584 3878 3070 
Q 4294 2556 4294 1747 
Q 4294 938 3878 423 
Q 3463 -91 2816 -91 
Q 2450 -91 2169 54 
Q 1888 200 1656 506 
z
M 2400 2772 
Q 2041 2772 1848 2508 
Q 1656 2244 1656 1747 
Q 1656 1250 1848 986 
Q 2041 722 2400 722 
Q 2759 722 2948 984 
Q 3138 1247 3138 1747 
Q 3138 2247 2948 2509 
Q 2759 2772 2400 2772 
z
" transform="scale(0.015625)"/>
      <path id="DejaVuSans-Bold-75" d="M 500 1363 
L 500 3500 
L 1625 3500 
L 1625 3150 
Q 1625 2866 1622 2436 
Q 1619 2006 1619 1863 
Q 1619 1441 1641 1255 
Q 1663 1069 1716 984 
Q 1784 875 1895 815 
Q 2006 756 2150 756 
Q 2500 756 2700 1025 
Q 2900 1294 2900 1772 
L 2900 3500 
L 4019 3500 
L 4019 0 
L 2900 0 
L 2900 506 
Q 2647 200 2364 54 
Q 2081 -91 1741 -91 
Q 1134 -91 817 281 
Q 500 653 500 1363 
z
" transform="scale(0.015625)"/>
      <path id="DejaVuSans-Bold-6e" d="M 4056 2131 
L 4056 0 
L 2931 0 
L 2931 347 
L 2931 1631 
Q 2931 2084 2911 2256 
Q 2891 2428 2841 2509 
Q 2775 2619 2662 2680 
Q 2550 2741 2406 2741 
Q 2056 2741 1856 2470 
Q 1656 2200 1656 1722 
L 1656 0 
L 538 0 
L 538 3500 
L 1656 3500 
L 1656 2988 
Q 1909 3294 2193 3439 
Q 2478 3584 2822 3584 
Q 3428 3584 3742 3212 
Q 4056 2841 4056 2131 
z
" transform="scale(0.015625)"/>
      <path id="DejaVuSans-Bold-74" d="M 1759 4494 
L 1759 3500 
L 2913 3500 
L 2913 2700 
L 1759 2700 
L 1759 1216 
Q 1759 972 1856 886 
Q 1953 800 2241 800 
L 2816 800 
L 2816 0 
L 1856 0 
Q 1194 0 917 276 
Q 641 553 641 1216 
L 641 2700 
L 84 2700 
L 84 3500 
L 641 3500 
L 641 4494 
L 1759 4494 
z
" transform="scale(0.015625)"/>
      <path id="DejaVuSans-Bold-6f" d="M 2203 2784 
Q 1831 2784 1636 2517 
Q 1441 2250 1441 1747 
Q 1441 1244 1636 976 
Q 1831 709 2203 709 
Q 2569 709 2762 976 
Q 2956 1244 2956 1747 
Q 2956 2250 2762 2517 
Q 2569 2784 2203 2784 
z
M 2203 3584 
Q 3106 3584 3614 3096 
Q 4122 2609 4122 1747 
Q 4122 884 3614 396 
Q 3106 -91 2203 -91 
Q 1297 -91 786 396 
Q 275 884 275 1747 
Q 275 2609 786 3096 
Q 1297 3584 2203 3584 
z
" transform="scale(0.015625)"/>
      <path id="DejaVuSans-Bold-6d" d="M 3781 2919 
Q 3994 3244 4286 3414 
Q 4578 3584 4928 3584 
Q 5531 3584 5847 3212 
Q 6163 2841 6163 2131 
L 6163 0 
L 5038 0 
L 5038 1825 
Q 5041 1866 5042 1909 
Q 5044 1953 5044 2034 
Q 5044 2406 4934 2573 
Q 4825 2741 4581 2741 
Q 4263 2741 4089 2478 
Q 3916 2216 3909 1719 
L 3909 0 
L 2784 0 
L 2784 1825 
Q 2784 2406 2684 2573 
Q 2584 2741 2328 2741 
Q 2006 2741 1831 2477 
Q 1656 2213 1656 1722 
L 1656 0 
L 531 0 
L 531 3500 
L 1656 3500 
L 1656 2988 
Q 1863 3284 2130 3434 
Q 2397 3584 2719 3584 
Q 3081 3584 3359 3409 
Q 3638 3234 3781 2919 
z
" transform="scale(0.015625)"/>
      <path id="DejaVuSans-Bold-65" d="M 4031 1759 
L 4031 1441 
L 1416 1441 
Q 1456 1047 1700 850 
Q 1944 653 2381 653 
Q 2734 653 3104 758 
Q 3475 863 3866 1075 
L 3866 213 
Q 3469 63 3072 -14 
Q 2675 -91 2278 -91 
Q 1328 -91 801 392 
Q 275 875 275 1747 
Q 275 2603 792 3093 
Q 1309 3584 2216 3584 
Q 3041 3584 3536 3087 
Q 4031 2591 4031 1759 
z
M 2881 2131 
Q 2881 2450 2695 2645 
Q 2509 2841 2209 2841 
Q 1884 2841 1681 2658 
Q 1478 2475 1428 2131 
L 2881 2131 
z
" transform="scale(0.015625)"/>
      <path id="DejaVuSans-Bold-64" d="M 2919 2988 
L 2919 4863 
L 4044 4863 
L 4044 0 
L 2919 0 
L 2919 506 
Q 2688 197 2409 53 
Q 2131 -91 1766 -91 
Q 1119 -91 703 423 
Q 288 938 288 1747 
Q 288 2556 703 3070 
Q 1119 3584 1766 3584 
Q 2128 3584 2408 3439 
Q 2688 3294 2919 2988 
z
M 2181 722 
Q 2541 722 2730 984 
Q 2919 1247 2919 1747 
Q 2919 2247 2730 2509 
Q 2541 2772 2181 2772 
Q 1825 2772 1636 2509 
Q 1447 2247 1447 1747 
Q 1447 1247 1636 984 
Q 1825 722 2181 722 
z
" transform="scale(0.015625)"/>
      <path id="DejaVuSans-Bold-69" d="M 538 3500 
L 1656 3500 
L 1656 0 
L 538 0 
L 538 3500 
z
M 538 4863 
L 1656 4863 
L 1656 3950 
L 538 3950 
L 538 4863 
z
" transform="scale(0.015625)"/>
      <path id="DejaVuSans-Bold-29" d="M 513 -844 
Q 913 -100 1113 609 
Q 1313 1319 1313 2009 
Q 1313 2700 1113 3408 
Q 913 4116 513 4856 
L 1441 4856 
Q 1916 4091 2145 3389 
Q 2375 2688 2375 2003 
Q 2375 1319 2147 623 
Q 1919 -72 1441 -844 
L 513 -844 
z
" transform="scale(0.015625)"/>
     </defs>
     <use xlink:href="#DejaVuSans-Bold-4d"/>
     <use xlink:href="#DejaVuSans-Bold-20" transform="translate(99.511719 0)"/>
     <use xlink:href="#DejaVuSans-Bold-28" transform="translate(134.326172 0)"/>
     <use xlink:href="#DejaVuSans-Bold-70" transform="translate(180.029297 0)"/>
     <use xlink:href="#DejaVuSans-Bold-75" transform="translate(251.611328 0)"/>
     <use xlink:href="#DejaVuSans-Bold-6e" transform="translate(322.802734 0)"/>
     <use xlink:href="#DejaVuSans-Bold-74" transform="translate(393.994141 0)"/>
     <use xlink:href="#DejaVuSans-Bold-6f" transform="translate(441.796875 0)"/>
     <use xlink:href="#DejaVuSans-Bold-20" transform="translate(510.498047 0)"/>
     <use xlink:href="#DejaVuSans-Bold-6d" transform="translate(545.3125 0)"/>
     <use xlink:href="#DejaVuSans-Bold-65" transform="translate(649.511719 0)"/>
     <use xlink:href="#DejaVuSans-Bold-64" transform="translate(717.333984 0)"/>
     <use xlink:href="#DejaVuSans-Bold-69" transform="translate(788.916016 0)"/>
     <use xlink:href="#DejaVuSans-Bold-6f" transform="translate(823.193359 0)"/>
     <use xlink:href="#DejaVuSans-Bold-29" transform="translate(891.894531 0)"/>
    </g>
   </g>
   <g id="text_23">
    <!-- $\Delta x = x_2 - x_1$ -->
    <g style="fill: #7c3aed" transform="translate(242.945921 464.063114) scale(0.1 -0.1)">
     <defs>
      <path id="DejaVuSans-394" d="M 2188 4044 
L 906 525 
L 3472 525 
L 2188 4044 
z
M 50 0 
L 1831 4666 
L 2547 4666 
L 4325 0 
L 50 0 
z
" transform="scale(0.015625)"/>
      <path id="DejaVuSans-3d" d="M 678 2906 
L 4684 2906 
L 4684 2381 
L 678 2381 
L 678 2906 
z
M 678 1631 
L 4684 1631 
L 4684 1100 
L 678 1100 
L 678 1631 
z
" transform="scale(0.015625)"/>
      <path id="DejaVuSans-2212" d="M 678 2272 
L 4684 2272 
L 4684 1741 
L 678 1741 
L 678 2272 
z
" transform="scale(0.015625)"/>
     </defs>
     <use xlink:href="#DejaVuSans-394" transform="translate(0 0.09375)"/>
     <use xlink:href="#DejaVuSans-Oblique-78" transform="translate(68.408203 0.09375)"/>
     <use xlink:href="#DejaVuSans-3d" transform="translate(147.070312 0.09375)"/>
     <use xlink:href="#DejaVuSans-Oblique-78" transform="translate(250.341797 0.09375)"/>
     <use xlink:href="#DejaVuSans-32" transform="translate(309.521484 -16.3125) scale(0.7)"/>
     <use xlink:href="#DejaVuSans-2212" transform="translate(376.274414 0.09375)"/>
     <use xlink:href="#DejaVuSans-Oblique-78" transform="translate(479.545898 0.09375)"/>
     <use xlink:href="#DejaVuSans-31" transform="translate(538.725586 -16.3125) scale(0.7)"/>
    </g>
   </g>
   <g id="text_24">
    <!-- $\Delta y = y_2 - y_1$ -->
    <g style="fill: #dc2626" transform="translate(437.28141 316.709999) scale(0.1 -0.1)">
     <use xlink:href="#DejaVuSans-394" transform="translate(0 0.09375)"/>
     <use xlink:href="#DejaVuSans-Oblique-79" transform="translate(68.408203 0.09375)"/>
     <use xlink:href="#DejaVuSans-3d" transform="translate(147.070312 0.09375)"/>
     <use xlink:href="#DejaVuSans-Oblique-79" transform="translate(250.341797 0.09375)"/>
     <use xlink:href="#DejaVuSans-32" transform="translate(309.521484 -16.3125) scale(0.7)"/>
     <use xlink:href="#DejaVuSans-2212" transform="translate(376.274414 0.09375)"/>
     <use xlink:href="#DejaVuSans-Oblique-79" transform="translate(479.545898 0.09375)"/>
     <use xlink:href="#DejaVuSans-31" transform="translate(538.725586 -16.3125) scale(0.7)"/>
    </g>
   </g>
   <g id="text_25">
    <!-- d -->
    <g style="fill: #2563eb" transform="translate(225.092924 293.133501) scale(0.14 -0.14)">
     <use xlink:href="#DejaVuSans-Bold-64"/>
    </g>
   </g>
   <g id="text_26">
    <!-- Distancia y Punto Medio -->
    <g style="fill: #1f2937" transform="translate(211.739514 74.945015) scale(0.11 -0.11)">
     <defs>
      <path id="DejaVuSans-Bold-44" d="M 1791 3756 
L 1791 909 
L 2222 909 
Q 2959 909 3348 1275 
Q 3738 1641 3738 2338 
Q 3738 3031 3350 3393 
Q 2963 3756 2222 3756 
L 1791 3756 
z
M 588 4666 
L 1856 4666 
Q 2919 4666 3439 4514 
Q 3959 4363 4331 4000 
Q 4659 3684 4818 3271 
Q 4978 2859 4978 2338 
Q 4978 1809 4818 1395 
Q 4659 981 4331 666 
Q 3956 303 3431 151 
Q 2906 0 1856 0 
L 588 0 
L 588 4666 
z
" transform="scale(0.015625)"/>
      <path id="DejaVuSans-Bold-73" d="M 3272 3391 
L 3272 2541 
Q 2913 2691 2578 2766 
Q 2244 2841 1947 2841 
Q 1628 2841 1473 2761 
Q 1319 2681 1319 2516 
Q 1319 2381 1436 2309 
Q 1553 2238 1856 2203 
L 2053 2175 
Q 2913 2066 3209 1816 
Q 3506 1566 3506 1031 
Q 3506 472 3093 190 
Q 2681 -91 1863 -91 
Q 1516 -91 1145 -36 
Q 775 19 384 128 
L 384 978 
Q 719 816 1070 734 
Q 1422 653 1784 653 
Q 2113 653 2278 743 
Q 2444 834 2444 1013 
Q 2444 1163 2330 1236 
Q 2216 1309 1875 1350 
L 1678 1375 
Q 931 1469 631 1722 
Q 331 1975 331 2491 
Q 331 3047 712 3315 
Q 1094 3584 1881 3584 
Q 2191 3584 2531 3537 
Q 2872 3491 3272 3391 
z
" transform="scale(0.015625)"/>
      <path id="DejaVuSans-Bold-61" d="M 2106 1575 
Q 1756 1575 1579 1456 
Q 1403 1338 1403 1106 
Q 1403 894 1545 773 
Q 1688 653 1941 653 
Q 2256 653 2472 879 
Q 2688 1106 2688 1447 
L 2688 1575 
L 2106 1575 
z
M 3816 1997 
L 3816 0 
L 2688 0 
L 2688 519 
Q 2463 200 2181 54 
Q 1900 -91 1497 -91 
Q 953 -91 614 226 
Q 275 544 275 1050 
Q 275 1666 698 1953 
Q 1122 2241 2028 2241 
L 2688 2241 
L 2688 2328 
Q 2688 2594 2478 2717 
Q 2269 2841 1825 2841 
Q 1466 2841 1156 2769 
Q 847 2697 581 2553 
L 581 3406 
Q 941 3494 1303 3539 
Q 1666 3584 2028 3584 
Q 2975 3584 3395 3211 
Q 3816 2838 3816 1997 
z
" transform="scale(0.015625)"/>
      <path id="DejaVuSans-Bold-63" d="M 3366 3391 
L 3366 2478 
Q 3138 2634 2908 2709 
Q 2678 2784 2431 2784 
Q 1963 2784 1702 2511 
Q 1441 2238 1441 1747 
Q 1441 1256 1702 982 
Q 1963 709 2431 709 
Q 2694 709 2930 787 
Q 3166 866 3366 1019 
L 3366 103 
Q 3103 6 2833 -42 
Q 2563 -91 2291 -91 
Q 1344 -91 809 395 
Q 275 881 275 1747 
Q 275 2613 809 3098 
Q 1344 3584 2291 3584 
Q 2566 3584 2833 3536 
Q 3100 3488 3366 3391 
z
" transform="scale(0.015625)"/>
      <path id="DejaVuSans-Bold-79" d="M 78 3500 
L 1197 3500 
L 2138 1125 
L 2938 3500 
L 4056 3500 
L 2584 -331 
Q 2363 -916 2067 -1148 
Q 1772 -1381 1288 -1381 
L 641 -1381 
L 641 -647 
L 991 -647 
Q 1275 -647 1404 -556 
Q 1534 -466 1606 -231 
L 1638 -134 
L 78 3500 
z
" transform="scale(0.015625)"/>
      <path id="DejaVuSans-Bold-50" d="M 588 4666 
L 2584 4666 
Q 3475 4666 3951 4270 
Q 4428 3875 4428 3144 
Q 4428 2409 3951 2014 
Q 3475 1619 2584 1619 
L 1791 1619 
L 1791 0 
L 588 0 
L 588 4666 
z
M 1791 3794 
L 1791 2491 
L 2456 2491 
Q 2806 2491 2997 2661 
Q 3188 2831 3188 3144 
Q 3188 3456 2997 3625 
Q 2806 3794 2456 3794 
L 1791 3794 
z
" transform="scale(0.015625)"/>
     </defs>
     <use xlink:href="#DejaVuSans-Bold-44"/>
     <use xlink:href="#DejaVuSans-Bold-69" transform="translate(83.007812 0)"/>
     <use xlink:href="#DejaVuSans-Bold-73" transform="translate(117.285156 0)"/>
     <use xlink:href="#DejaVuSans-Bold-74" transform="translate(176.806641 0)"/>
     <use xlink:href="#DejaVuSans-Bold-61" transform="translate(224.609375 0)"/>
     <use xlink:href="#DejaVuSans-Bold-6e" transform="translate(292.089844 0)"/>
     <use xlink:href="#DejaVuSans-Bold-63" transform="translate(363.28125 0)"/>
     <use xlink:href="#DejaVuSans-Bold-69" transform="translate(422.558594 0)"/>
     <use xlink:href="#DejaVuSans-Bold-61" transform="translate(456.835938 0)"/>
     <use xlink:href="#DejaVuSans-Bold-20" transform="translate(524.316406 0)"/>
     <use xlink:href="#DejaVuSans-Bold-79" transform="translate(559.130859 0)"/>
     <use xlink:href="#DejaVuSans-Bold-20" transform="translate(624.316406 0)"/>
     <use xlink:href="#DejaVuSans-Bold-50" transform="translate(659.130859 0)"/>
     <use xlink:href="#DejaVuSans-Bold-75" transform="translate(732.421875 0)"/>
     <use xlink:href="#DejaVuSans-Bold-6e" transform="translate(803.613281 0)"/>
     <use xlink:href="#DejaVuSans-Bold-74" transform="translate(874.804688 0)"/>
     <use xlink:href="#DejaVuSans-Bold-6f" transform="translate(922.607422 0)"/>
     <use xlink:href="#DejaVuSans-Bold-20" transform="translate(991.308594 0)"/>
     <use xlink:href="#DejaVuSans-Bold-4d" transform="translate(1026.123047 0)"/>
     <use xlink:href="#DejaVuSans-Bold-65" transform="translate(1125.634766 0)"/>
     <use xlink:href="#DejaVuSans-Bold-64" transform="translate(1193.457031 0)"/>
     <use xlink:href="#DejaVuSans-Bold-69" transform="translate(1265.039062 0)"/>
     <use xlink:href="#DejaVuSans-Bold-6f" transform="translate(1299.316406 0)"/>
    </g>
   </g>
   <g id="line2d_45">
    <defs>
     <path id="mf262192ee5" d="M 0 6 
C 1.591219 6 3.117479 5.367802 4.242641 4.242641 
C 5.367802 3.117479 6 1.591219 6 0 
C 6 -1.591219 5.367802 -3.117479 4.242641 -4.242641 
C 3.117479 -5.367802 1.591219 -6 0 -6 
C -1.591219 -6 -3.117479 -5.367802 -4.242641 -4.242641 
C -5.367802 -3.117479 -6 -1.591219 -6 0 
C -6 1.591219 -5.367802 3.117479 -4.242641 4.242641 
C -3.117479 5.367802 -1.591219 6 0 6 
z
" style="stroke: #2563eb"/>
    </defs>
    <g clip-path="url(#p3fde4e2489)">
     <use xlink:href="#mf262192ee5" x="124.892806" y="434.592491" style="fill: #2563eb; stroke: #2563eb"/>
    </g>
   </g>
   <g id="line2d_46">
    <g clip-path="url(#p3fde4e2489)">
     <use xlink:href="#mf262192ee5" x="419.599036" y="198.827507" style="fill: #2563eb; stroke: #2563eb"/>
    </g>
   </g>
   <g id="line2d_47">
    <defs>
     <path id="mdfc0a79821" d="M -6 6 
L 6 6 
L 6 -6 
L -6 -6 
z
" style="stroke: #f59e0b; stroke-linejoin: miter"/>
    </defs>
    <g clip-path="url(#p3fde4e2489)">
     <use xlink:href="#mdfc0a79821" x="272.245921" y="316.709999" style="fill: #f59e0b; stroke: #f59e0b; stroke-linejoin: miter"/>
    </g>
   </g>
  </g>
  <g id="axes_2">
   <g id="patch_7">
    <path d="M 604.224043 235.920728 
L 996.674505 235.920728 
L 996.674505 43.263345 
L 604.224043 43.263345 
z
" clip-path="url(#pfcb2a79d35)" style="fill: #eff6ff; stroke: #2563eb; stroke-width: 2; stroke-linejoin: miter"/>
   </g>
   <g id="patch_8">
    <path d="M 604.224043 423.073614 
L 996.674505 423.073614 
L 996.674505 257.938714 
L 604.224043 257.938714 
z
" clip-path="url(#pfcb2a79d35)" style="fill: #fef3c7; stroke: #f59e0b; stroke-width: 2; stroke-linejoin: miter"/>
   </g>
   <g id="patch_9">
    <path d="M 604.224043 560.68603 
L 996.674505 560.68603 
L 996.674505 439.587104 
L 604.224043 439.587104 
z
" clip-path="url(#pfcb2a79d35)" style="fill: #f0fdf4; stroke: #059669; stroke-width: 1.5; stroke-linejoin: miter"/>
   </g>
   <g id="text_27">
    <!-- DISTANCIA ENTRE DOS PUNTOS -->
    <g style="fill: #2563eb" transform="translate(702.812243 70.785828) scale(0.11 -0.11)">
     <defs>
      <path id="DejaVuSans-Bold-49" d="M 588 4666 
L 1791 4666 
L 1791 0 
L 588 0 
L 588 4666 
z
" transform="scale(0.015625)"/>
      <path id="DejaVuSans-Bold-53" d="M 3834 4519 
L 3834 3531 
Q 3450 3703 3084 3790 
Q 2719 3878 2394 3878 
Q 1963 3878 1756 3759 
Q 1550 3641 1550 3391 
Q 1550 3203 1689 3098 
Q 1828 2994 2194 2919 
L 2706 2816 
Q 3484 2659 3812 2340 
Q 4141 2022 4141 1434 
Q 4141 663 3683 286 
Q 3225 -91 2284 -91 
Q 1841 -91 1394 -6 
Q 947 78 500 244 
L 500 1259 
Q 947 1022 1364 901 
Q 1781 781 2169 781 
Q 2563 781 2772 912 
Q 2981 1044 2981 1288 
Q 2981 1506 2839 1625 
Q 2697 1744 2272 1838 
L 1806 1941 
Q 1106 2091 782 2419 
Q 459 2747 459 3303 
Q 459 4000 909 4375 
Q 1359 4750 2203 4750 
Q 2588 4750 2994 4692 
Q 3400 4634 3834 4519 
z
" transform="scale(0.015625)"/>
      <path id="DejaVuSans-Bold-54" d="M 31 4666 
L 4331 4666 
L 4331 3756 
L 2784 3756 
L 2784 0 
L 1581 0 
L 1581 3756 
L 31 3756 
L 31 4666 
z
" transform="scale(0.015625)"/>
      <path id="DejaVuSans-Bold-41" d="M 3419 850 
L 1538 850 
L 1241 0 
L 31 0 
L 1759 4666 
L 3194 4666 
L 4922 0 
L 3713 0 
L 3419 850 
z
M 1838 1716 
L 3116 1716 
L 2478 3572 
L 1838 1716 
z
" transform="scale(0.015625)"/>
      <path id="DejaVuSans-Bold-4e" d="M 588 4666 
L 1931 4666 
L 3628 1466 
L 3628 4666 
L 4769 4666 
L 4769 0 
L 3425 0 
L 1728 3200 
L 1728 0 
L 588 0 
L 588 4666 
z
" transform="scale(0.015625)"/>
      <path id="DejaVuSans-Bold-43" d="M 4288 256 
Q 3956 84 3597 -3 
Q 3238 -91 2847 -91 
Q 1681 -91 1000 561 
Q 319 1213 319 2328 
Q 319 3447 1000 4098 
Q 1681 4750 2847 4750 
Q 3238 4750 3597 4662 
Q 3956 4575 4288 4403 
L 4288 3438 
Q 3953 3666 3628 3772 
Q 3303 3878 2944 3878 
Q 2300 3878 1931 3465 
Q 1563 3053 1563 2328 
Q 1563 1606 1931 1193 
Q 2300 781 2944 781 
Q 3303 781 3628 887 
Q 3953 994 4288 1222 
L 4288 256 
z
" transform="scale(0.015625)"/>
      <path id="DejaVuSans-Bold-45" d="M 588 4666 
L 3834 4666 
L 3834 3756 
L 1791 3756 
L 1791 2888 
L 3713 2888 
L 3713 1978 
L 1791 1978 
L 1791 909 
L 3903 909 
L 3903 0 
L 588 0 
L 588 4666 
z
" transform="scale(0.015625)"/>
      <path id="DejaVuSans-Bold-52" d="M 2297 2597 
Q 2675 2597 2839 2737 
Q 3003 2878 3003 3200 
Q 3003 3519 2839 3656 
Q 2675 3794 2297 3794 
L 1791 3794 
L 1791 2597 
L 2297 2597 
z
M 1791 1766 
L 1791 0 
L 588 0 
L 588 4666 
L 2425 4666 
Q 3347 4666 3776 4356 
Q 4206 4047 4206 3378 
Q 4206 2916 3982 2619 
Q 3759 2322 3309 2181 
Q 3556 2125 3751 1926 
Q 3947 1728 4147 1325 
L 4800 0 
L 3519 0 
L 2950 1159 
Q 2778 1509 2601 1637 
Q 2425 1766 2131 1766 
L 1791 1766 
z
" transform="scale(0.015625)"/>
      <path id="DejaVuSans-Bold-4f" d="M 2719 3878 
Q 2169 3878 1866 3472 
Q 1563 3066 1563 2328 
Q 1563 1594 1866 1187 
Q 2169 781 2719 781 
Q 3272 781 3575 1187 
Q 3878 1594 3878 2328 
Q 3878 3066 3575 3472 
Q 3272 3878 2719 3878 
z
M 2719 4750 
Q 3844 4750 4481 4106 
Q 5119 3463 5119 2328 
Q 5119 1197 4481 553 
Q 3844 -91 2719 -91 
Q 1597 -91 958 553 
Q 319 1197 319 2328 
Q 319 3463 958 4106 
Q 1597 4750 2719 4750 
z
" transform="scale(0.015625)"/>
      <path id="DejaVuSans-Bold-55" d="M 588 4666 
L 1791 4666 
L 1791 1869 
Q 1791 1291 1980 1042 
Q 2169 794 2597 794 
Q 3028 794 3217 1042 
Q 3406 1291 3406 1869 
L 3406 4666 
L 4609 4666 
L 4609 1869 
Q 4609 878 4112 393 
Q 3616 -91 2597 -91 
Q 1581 -91 1084 393 
Q 588 878 588 1869 
L 588 4666 
z
" transform="scale(0.015625)"/>
     </defs>
     <use xlink:href="#DejaVuSans-Bold-44"/>
     <use xlink:href="#DejaVuSans-Bold-49" transform="translate(83.007812 0)"/>
     <use xlink:href="#DejaVuSans-Bold-53" transform="translate(120.214844 0)"/>
     <use xlink:href="#DejaVuSans-Bold-54" transform="translate(192.236328 0)"/>
     <use xlink:href="#DejaVuSans-Bold-41" transform="translate(252.699219 0)"/>
     <use xlink:href="#DejaVuSans-Bold-4e" transform="translate(330.091797 0)"/>
     <use xlink:href="#DejaVuSans-Bold-43" transform="translate(413.783203 0)"/>
     <use xlink:href="#DejaVuSans-Bold-49" transform="translate(487.171875 0)"/>
     <use xlink:href="#DejaVuSans-Bold-41" transform="translate(524.378906 0)"/>
     <use xlink:href="#DejaVuSans-Bold-20" transform="translate(601.771484 0)"/>
     <use xlink:href="#DejaVuSans-Bold-45" transform="translate(636.585938 0)"/>
     <use xlink:href="#DejaVuSans-Bold-4e" transform="translate(704.896484 0)"/>
     <use xlink:href="#DejaVuSans-Bold-54" transform="translate(788.587891 0)"/>
     <use xlink:href="#DejaVuSans-Bold-52" transform="translate(856.800781 0)"/>
     <use xlink:href="#DejaVuSans-Bold-45" transform="translate(933.802734 0)"/>
     <use xlink:href="#DejaVuSans-Bold-20" transform="translate(1002.113281 0)"/>
     <use xlink:href="#DejaVuSans-Bold-44" transform="translate(1036.927734 0)"/>
     <use xlink:href="#DejaVuSans-Bold-4f" transform="translate(1119.935547 0)"/>
     <use xlink:href="#DejaVuSans-Bold-53" transform="translate(1204.945312 0)"/>
     <use xlink:href="#DejaVuSans-Bold-20" transform="translate(1276.966797 0)"/>
     <use xlink:href="#DejaVuSans-Bold-50" transform="translate(1311.78125 0)"/>
     <use xlink:href="#DejaVuSans-Bold-55" transform="translate(1385.072266 0)"/>
     <use xlink:href="#DejaVuSans-Bold-4e" transform="translate(1466.273438 0)"/>
     <use xlink:href="#DejaVuSans-Bold-54" transform="translate(1549.964844 0)"/>
     <use xlink:href="#DejaVuSans-Bold-4f" transform="translate(1618.177734 0)"/>
     <use xlink:href="#DejaVuSans-Bold-53" transform="translate(1703.1875 0)"/>
    </g>
   </g>
   <g id="text_28">
    <!-- $d = \sqrt{(x_2-x_1)^2 + (y_2-y_1)^2}$ -->
    <g style="fill: #1f2937" transform="translate(706.649274 136.839788) scale(0.14 -0.14)">
     <defs>
      <path id="DejaVuSans-Oblique-64" d="M 2675 525 
Q 2444 222 2128 65 
Q 1813 -91 1428 -91 
Q 903 -91 598 267 
Q 294 625 294 1247 
Q 294 1766 478 2236 
Q 663 2706 1013 3078 
Q 1244 3325 1534 3454 
Q 1825 3584 2144 3584 
Q 2481 3584 2739 3421 
Q 2997 3259 3138 2956 
L 3513 4863 
L 4091 4863 
L 3144 0 
L 2566 0 
L 2675 525 
z
M 891 1350 
Q 891 897 1095 644 
Q 1300 391 1663 391 
Q 1931 391 2161 520 
Q 2391 650 2566 903 
Q 2750 1166 2856 1509 
Q 2963 1853 2963 2188 
Q 2963 2622 2758 2865 
Q 2553 3109 2194 3109 
Q 1922 3109 1687 2981 
Q 1453 2853 1288 2613 
Q 1106 2353 998 2009 
Q 891 1666 891 1350 
z
" transform="scale(0.015625)"/>
      <path id="STIXSizeOneSym-Regular-221a" d="M 6970 9933 
L 3373 -1888 
L 3104 -1888 
L 1626 2918 
Q 1555 3149 1465 3251 
Q 1376 3354 1229 3354 
Q 1011 3354 794 3181 
L 717 3309 
L 1766 4115 
L 1926 4115 
L 3379 -602 
L 3405 -602 
L 6605 9933 
L 6970 9933 
z
" transform="scale(0.015625)"/>
      <path id="DejaVuSans-2b" d="M 2944 4013 
L 2944 2272 
L 4684 2272 
L 4684 1741 
L 2944 1741 
L 2944 0 
L 2419 0 
L 2419 1741 
L 678 1741 
L 678 2272 
L 2419 2272 
L 2419 4013 
L 2944 4013 
z
" transform="scale(0.015625)"/>
     </defs>
     <use xlink:href="#DejaVuSans-Oblique-64" transform="translate(0 0.578125)"/>
     <use xlink:href="#DejaVuSans-3d" transform="translate(82.958984 0.578125)"/>
     <use xlink:href="#STIXSizeOneSym-Regular-221a" transform="translate(186.230469 2.5) scale(0.770324)"/>
     <use xlink:href="#DejaVuSans-28" transform="translate(280.119461 0.515625)"/>
     <use xlink:href="#DejaVuSans-Oblique-78" transform="translate(319.133133 0.515625)"/>
     <use xlink:href="#DejaVuSans-32" transform="translate(378.31282 -15.890625) scale(0.7)"/>
     <use xlink:href="#DejaVuSans-2212" transform="translate(445.06575 0.515625)"/>
     <use xlink:href="#DejaVuSans-Oblique-78" transform="translate(548.337234 0.515625)"/>
     <use xlink:href="#DejaVuSans-31" transform="translate(607.516922 -15.890625) scale(0.7)"/>
     <use xlink:href="#DejaVuSans-29" transform="translate(654.78743 0.515625)"/>
     <use xlink:href="#DejaVuSans-32" transform="translate(694.758133 38.796875) scale(0.7)"/>
     <use xlink:href="#DejaVuSans-2b" transform="translate(761.511063 0.515625)"/>
     <use xlink:href="#DejaVuSans-28" transform="translate(864.782547 0.515625)"/>
     <use xlink:href="#DejaVuSans-Oblique-79" transform="translate(903.796219 0.515625)"/>
     <use xlink:href="#DejaVuSans-32" transform="translate(962.975906 -15.890625) scale(0.7)"/>
     <use xlink:href="#DejaVuSans-2212" transform="translate(1029.728836 0.515625)"/>
     <use xlink:href="#DejaVuSans-Oblique-79" transform="translate(1133.00032 0.515625)"/>
     <use xlink:href="#DejaVuSans-31" transform="translate(1192.180008 -15.890625) scale(0.7)"/>
     <use xlink:href="#DejaVuSans-29" transform="translate(1239.450516 0.515625)"/>
     <use xlink:href="#DejaVuSans-32" transform="translate(1279.421219 38.796875) scale(0.7)"/>
     <path d="M 267.619461 115.5 
L 267.619461 121.75 
L 1339.191727 121.75 
L 1339.191727 115.5 
L 267.619461 115.5 
z
"/>
    </g>
   </g>
   <g id="text_29">
    <!-- Derivada del Teorema de Pitágoras: -->
    <g style="fill: #6b7280" transform="translate(719.820524 202.893748) scale(0.09 -0.09)">
     <defs>
      <path id="DejaVuSans-Oblique-44" d="M 1081 4666 
L 2438 4666 
Q 3519 4666 4070 4208 
Q 4622 3750 4622 2847 
Q 4622 2250 4412 1698 
Q 4203 1147 3834 769 
Q 3463 381 2891 190 
Q 2319 0 1538 0 
L 172 0 
L 1081 4666 
z
M 1613 4147 
L 909 519 
L 1734 519 
Q 2794 519 3375 1128 
Q 3956 1738 3956 2847 
Q 3956 3519 3581 3833 
Q 3206 4147 2406 4147 
L 1613 4147 
z
" transform="scale(0.015625)"/>
      <path id="DejaVuSans-Oblique-65" d="M 3078 2063 
Q 3088 2113 3092 2166 
Q 3097 2219 3097 2272 
Q 3097 2653 2873 2875 
Q 2650 3097 2266 3097 
Q 1838 3097 1509 2826 
Q 1181 2556 1013 2059 
L 3078 2063 
z
M 3578 1613 
L 903 1613 
Q 884 1494 878 1425 
Q 872 1356 872 1306 
Q 872 872 1139 634 
Q 1406 397 1894 397 
Q 2269 397 2603 481 
Q 2938 566 3225 728 
L 3116 159 
Q 2806 34 2476 -28 
Q 2147 -91 1806 -91 
Q 1078 -91 686 257 
Q 294 606 294 1247 
Q 294 1794 489 2264 
Q 684 2734 1063 3103 
Q 1306 3334 1642 3459 
Q 1978 3584 2356 3584 
Q 2950 3584 3301 3228 
Q 3653 2872 3653 2272 
Q 3653 2128 3634 1964 
Q 3616 1800 3578 1613 
z
" transform="scale(0.015625)"/>
      <path id="DejaVuSans-Oblique-72" d="M 2853 2969 
Q 2766 3016 2653 3041 
Q 2541 3066 2413 3066 
Q 1953 3066 1609 2717 
Q 1266 2369 1153 1784 
L 800 0 
L 225 0 
L 909 3500 
L 1484 3500 
L 1375 2956 
Q 1603 3259 1920 3421 
Q 2238 3584 2597 3584 
Q 2691 3584 2781 3573 
Q 2872 3563 2963 3538 
L 2853 2969 
z
" transform="scale(0.015625)"/>
      <path id="DejaVuSans-Oblique-69" d="M 1172 4863 
L 1747 4863 
L 1606 4134 
L 1031 4134 
L 1172 4863 
z
M 909 3500 
L 1484 3500 
L 800 0 
L 225 0 
L 909 3500 
z
" transform="scale(0.015625)"/>
      <path id="DejaVuSans-Oblique-76" d="M 459 3500 
L 1069 3500 
L 1581 525 
L 3256 3500 
L 3866 3500 
L 1875 0 
L 1100 0 
L 459 3500 
z
" transform="scale(0.015625)"/>
      <path id="DejaVuSans-Oblique-61" d="M 3438 1997 
L 3047 0 
L 2472 0 
L 2578 531 
Q 2325 219 2001 64 
Q 1678 -91 1281 -91 
Q 834 -91 548 182 
Q 263 456 263 884 
Q 263 1497 752 1853 
Q 1241 2209 2100 2209 
L 2900 2209 
L 2931 2363 
Q 2938 2388 2941 2417 
Q 2944 2447 2944 2509 
Q 2944 2788 2717 2942 
Q 2491 3097 2081 3097 
Q 1800 3097 1504 3025 
Q 1209 2953 897 2809 
L 997 3341 
Q 1322 3463 1633 3523 
Q 1944 3584 2234 3584 
Q 2853 3584 3176 3315 
Q 3500 3047 3500 2534 
Q 3500 2431 3484 2292 
Q 3469 2153 3438 1997 
z
M 2816 1759 
L 2241 1759 
Q 1534 1759 1195 1570 
Q 856 1381 856 984 
Q 856 709 1029 553 
Q 1203 397 1509 397 
Q 1978 397 2328 733 
Q 2678 1069 2791 1631 
L 2816 1759 
z
" transform="scale(0.015625)"/>
      <path id="DejaVuSans-Oblique-20" transform="scale(0.015625)"/>
      <path id="DejaVuSans-Oblique-6c" d="M 1172 4863 
L 1747 4863 
L 800 0 
L 225 0 
L 1172 4863 
z
" transform="scale(0.015625)"/>
      <path id="DejaVuSans-Oblique-54" d="M 378 4666 
L 4325 4666 
L 4225 4134 
L 2559 4134 
L 1759 0 
L 1125 0 
L 1925 4134 
L 275 4134 
L 378 4666 
z
" transform="scale(0.015625)"/>
      <path id="DejaVuSans-Oblique-6f" d="M 1625 -91 
Q 1009 -91 651 289 
Q 294 669 294 1325 
Q 294 1706 417 2101 
Q 541 2497 738 2766 
Q 1047 3184 1428 3384 
Q 1809 3584 2291 3584 
Q 2888 3584 3255 3212 
Q 3622 2841 3622 2241 
Q 3622 1825 3500 1412 
Q 3378 1000 3181 728 
Q 2875 309 2494 109 
Q 2113 -91 1625 -91 
z
M 891 1344 
Q 891 869 1089 633 
Q 1288 397 1691 397 
Q 2269 397 2648 901 
Q 3028 1406 3028 2181 
Q 3028 2634 2825 2865 
Q 2622 3097 2228 3097 
Q 1903 3097 1650 2945 
Q 1397 2794 1197 2484 
Q 1050 2253 970 1956 
Q 891 1659 891 1344 
z
" transform="scale(0.015625)"/>
      <path id="DejaVuSans-Oblique-6d" d="M 5747 2113 
L 5338 0 
L 4763 0 
L 5166 2094 
Q 5191 2228 5203 2325 
Q 5216 2422 5216 2491 
Q 5216 2772 5059 2928 
Q 4903 3084 4622 3084 
Q 4203 3084 3875 2770 
Q 3547 2456 3450 1953 
L 3066 0 
L 2491 0 
L 2900 2094 
Q 2925 2209 2937 2307 
Q 2950 2406 2950 2484 
Q 2950 2769 2794 2926 
Q 2638 3084 2363 3084 
Q 1938 3084 1609 2770 
Q 1281 2456 1184 1953 
L 800 0 
L 225 0 
L 909 3500 
L 1484 3500 
L 1375 2956 
Q 1609 3263 1923 3423 
Q 2238 3584 2597 3584 
Q 2978 3584 3223 3384 
Q 3469 3184 3519 2828 
Q 3781 3197 4126 3390 
Q 4472 3584 4856 3584 
Q 5306 3584 5551 3325 
Q 5797 3066 5797 2591 
Q 5797 2488 5784 2364 
Q 5772 2241 5747 2113 
z
" transform="scale(0.015625)"/>
      <path id="DejaVuSans-Oblique-74" d="M 2706 3500 
L 2619 3053 
L 1472 3053 
L 1100 1153 
Q 1081 1047 1072 975 
Q 1063 903 1063 863 
Q 1063 663 1183 572 
Q 1303 481 1569 481 
L 2150 481 
L 2053 0 
L 1503 0 
Q 991 0 739 200 
Q 488 400 488 806 
Q 488 878 497 964 
Q 506 1050 525 1153 
L 897 3053 
L 409 3053 
L 500 3500 
L 978 3500 
L 1172 4494 
L 1747 4494 
L 1556 3500 
L 2706 3500 
z
" transform="scale(0.015625)"/>
      <path id="DejaVuSans-Oblique-e1" d="M 3438 1997 
L 3047 0 
L 2472 0 
L 2578 531 
Q 2325 219 2001 64 
Q 1678 -91 1281 -91 
Q 834 -91 548 182 
Q 263 456 263 884 
Q 263 1497 752 1853 
Q 1241 2209 2100 2209 
L 2900 2209 
L 2931 2363 
Q 2938 2388 2941 2417 
Q 2944 2447 2944 2509 
Q 2944 2788 2717 2942 
Q 2491 3097 2081 3097 
Q 1800 3097 1504 3025 
Q 1209 2953 897 2809 
L 997 3341 
Q 1322 3463 1633 3523 
Q 1944 3584 2234 3584 
Q 2853 3584 3176 3315 
Q 3500 3047 3500 2534 
Q 3500 2431 3484 2292 
Q 3469 2153 3438 1997 
z
M 2816 1759 
L 2241 1759 
Q 1534 1759 1195 1570 
Q 856 1381 856 984 
Q 856 709 1029 553 
Q 1203 397 1509 397 
Q 1978 397 2328 733 
Q 2678 1069 2791 1631 
L 2816 1759 
z
M 3031 5119 
L 3653 5119 
L 2406 3944 
L 1925 3944 
L 3031 5119 
z
" transform="scale(0.015625)"/>
      <path id="DejaVuSans-Oblique-67" d="M 3816 3500 
L 3219 434 
Q 3047 -456 2561 -893 
Q 2075 -1331 1253 -1331 
Q 950 -1331 690 -1286 
Q 431 -1241 206 -1147 
L 313 -588 
Q 525 -725 762 -790 
Q 1000 -856 1269 -856 
Q 1816 -856 2167 -557 
Q 2519 -259 2631 300 
L 2681 563 
Q 2441 288 2122 144 
Q 1803 0 1434 0 
Q 903 0 598 351 
Q 294 703 294 1319 
Q 294 1803 478 2267 
Q 663 2731 997 3091 
Q 1219 3328 1514 3456 
Q 1809 3584 2131 3584 
Q 2484 3584 2746 3420 
Q 3009 3256 3138 2956 
L 3238 3500 
L 3816 3500 
z
M 2950 2216 
Q 2950 2641 2750 2872 
Q 2550 3103 2181 3103 
Q 1953 3103 1747 3012 
Q 1541 2922 1394 2759 
Q 1156 2491 1023 2127 
Q 891 1763 891 1375 
Q 891 944 1092 712 
Q 1294 481 1672 481 
Q 2219 481 2584 976 
Q 2950 1472 2950 2216 
z
" transform="scale(0.015625)"/>
      <path id="DejaVuSans-Oblique-73" d="M 3200 3397 
L 3091 2853 
Q 2863 2978 2609 3040 
Q 2356 3103 2088 3103 
Q 1634 3103 1373 2948 
Q 1113 2794 1113 2528 
Q 1113 2219 1719 2053 
Q 1766 2041 1788 2034 
L 1972 1978 
Q 2547 1819 2739 1644 
Q 2931 1469 2931 1166 
Q 2931 609 2489 259 
Q 2047 -91 1331 -91 
Q 1053 -91 747 -37 
Q 441 16 72 128 
L 184 722 
Q 500 559 806 475 
Q 1113 391 1394 391 
Q 1816 391 2080 572 
Q 2344 753 2344 1031 
Q 2344 1331 1650 1516 
L 1591 1531 
L 1394 1581 
Q 956 1697 753 1886 
Q 550 2075 550 2369 
Q 550 2928 970 3256 
Q 1391 3584 2113 3584 
Q 2397 3584 2667 3537 
Q 2938 3491 3200 3397 
z
" transform="scale(0.015625)"/>
      <path id="DejaVuSans-Oblique-3a" d="M 978 3309 
L 1638 3309 
L 1484 2516 
L 825 2516 
L 978 3309 
z
M 488 794 
L 1147 794 
L 991 0 
L 331 0 
L 488 794 
z
" transform="scale(0.015625)"/>
     </defs>
     <use xlink:href="#DejaVuSans-Oblique-44"/>
     <use xlink:href="#DejaVuSans-Oblique-65" transform="translate(77.001953 0)"/>
     <use xlink:href="#DejaVuSans-Oblique-72" transform="translate(138.525391 0)"/>
     <use xlink:href="#DejaVuSans-Oblique-69" transform="translate(179.638672 0)"/>
     <use xlink:href="#DejaVuSans-Oblique-76" transform="translate(207.421875 0)"/>
     <use xlink:href="#DejaVuSans-Oblique-61" transform="translate(266.601562 0)"/>
     <use xlink:href="#DejaVuSans-Oblique-64" transform="translate(327.880859 0)"/>
     <use xlink:href="#DejaVuSans-Oblique-61" transform="translate(391.357422 0)"/>
     <use xlink:href="#DejaVuSans-Oblique-20" transform="translate(452.636719 0)"/>
     <use xlink:href="#DejaVuSans-Oblique-64" transform="translate(484.423828 0)"/>
     <use xlink:href="#DejaVuSans-Oblique-65" transform="translate(547.900391 0)"/>
     <use xlink:href="#DejaVuSans-Oblique-6c" transform="translate(609.423828 0)"/>
     <use xlink:href="#DejaVuSans-Oblique-20" transform="translate(637.207031 0)"/>
     <use xlink:href="#DejaVuSans-Oblique-54" transform="translate(668.994141 0)"/>
     <use xlink:href="#DejaVuSans-Oblique-65" transform="translate(717.703125 0)"/>
     <use xlink:href="#DejaVuSans-Oblique-6f" transform="translate(779.226562 0)"/>
     <use xlink:href="#DejaVuSans-Oblique-72" transform="translate(840.408203 0)"/>
     <use xlink:href="#DejaVuSans-Oblique-65" transform="translate(881.521484 0)"/>
     <use xlink:href="#DejaVuSans-Oblique-6d" transform="translate(943.044922 0)"/>
     <use xlink:href="#DejaVuSans-Oblique-61" transform="translate(1040.457031 0)"/>
     <use xlink:href="#DejaVuSans-Oblique-20" transform="translate(1101.736328 0)"/>
     <use xlink:href="#DejaVuSans-Oblique-64" transform="translate(1133.523438 0)"/>
     <use xlink:href="#DejaVuSans-Oblique-65" transform="translate(1197 0)"/>
     <use xlink:href="#DejaVuSans-Oblique-20" transform="translate(1258.523438 0)"/>
     <use xlink:href="#DejaVuSans-Oblique-50" transform="translate(1290.310547 0)"/>
     <use xlink:href="#DejaVuSans-Oblique-69" transform="translate(1350.613281 0)"/>
     <use xlink:href="#DejaVuSans-Oblique-74" transform="translate(1378.396484 0)"/>
     <use xlink:href="#DejaVuSans-Oblique-e1" transform="translate(1417.605469 0)"/>
     <use xlink:href="#DejaVuSans-Oblique-67" transform="translate(1478.884766 0)"/>
     <use xlink:href="#DejaVuSans-Oblique-6f" transform="translate(1542.361328 0)"/>
     <use xlink:href="#DejaVuSans-Oblique-72" transform="translate(1603.542969 0)"/>
     <use xlink:href="#DejaVuSans-Oblique-61" transform="translate(1644.65625 0)"/>
     <use xlink:href="#DejaVuSans-Oblique-73" transform="translate(1705.935547 0)"/>
     <use xlink:href="#DejaVuSans-Oblique-3a" transform="translate(1758.035156 0)"/>
    </g>
   </g>
   <g id="text_30">
    <!-- $d^2 = (\Delta x)^2 + (\Delta y)^2$ -->
    <g style="fill: #6b7280" transform="translate(756.849274 224.911734) scale(0.1 -0.1)">
     <use xlink:href="#DejaVuSans-Oblique-64" transform="translate(0 0.765625)"/>
     <use xlink:href="#DejaVuSans-32" transform="translate(70.924271 39.046875) scale(0.7)"/>
     <use xlink:href="#DejaVuSans-3d" transform="translate(137.677201 0.765625)"/>
     <use xlink:href="#DejaVuSans-28" transform="translate(240.948685 0.765625)"/>
     <use xlink:href="#DejaVuSans-394" transform="translate(279.962357 0.765625)"/>
     <use xlink:href="#DejaVuSans-Oblique-78" transform="translate(348.37056 0.765625)"/>
     <use xlink:href="#DejaVuSans-29" transform="translate(407.550247 0.765625)"/>
     <use xlink:href="#DejaVuSans-32" transform="translate(447.520951 39.046875) scale(0.7)"/>
     <use xlink:href="#DejaVuSans-2b" transform="translate(514.27388 0.765625)"/>
     <use xlink:href="#DejaVuSans-28" transform="translate(617.545365 0.765625)"/>
     <use xlink:href="#DejaVuSans-394" transform="translate(656.559036 0.765625)"/>
     <use xlink:href="#DejaVuSans-Oblique-79" transform="translate(724.96724 0.765625)"/>
     <use xlink:href="#DejaVuSans-29" transform="translate(784.146927 0.765625)"/>
     <use xlink:href="#DejaVuSans-32" transform="translate(824.11763 39.046875) scale(0.7)"/>
    </g>
   </g>
   <g id="text_31">
    <!-- PUNTO MEDIO -->
    <g style="fill: #f59e0b" transform="translate(756.487946 285.461198) scale(0.11 -0.11)">
     <use xlink:href="#DejaVuSans-Bold-50"/>
     <use xlink:href="#DejaVuSans-Bold-55" transform="translate(73.291016 0)"/>
     <use xlink:href="#DejaVuSans-Bold-4e" transform="translate(154.492188 0)"/>
     <use xlink:href="#DejaVuSans-Bold-54" transform="translate(238.183594 0)"/>
     <use xlink:href="#DejaVuSans-Bold-4f" transform="translate(306.396484 0)"/>
     <use xlink:href="#DejaVuSans-Bold-20" transform="translate(391.40625 0)"/>
     <use xlink:href="#DejaVuSans-Bold-4d" transform="translate(426.220703 0)"/>
     <use xlink:href="#DejaVuSans-Bold-45" transform="translate(525.732422 0)"/>
     <use xlink:href="#DejaVuSans-Bold-44" transform="translate(594.042969 0)"/>
     <use xlink:href="#DejaVuSans-Bold-49" transform="translate(677.050781 0)"/>
     <use xlink:href="#DejaVuSans-Bold-4f" transform="translate(714.257812 0)"/>
    </g>
   </g>
   <g id="text_32">
    <!-- $M = \left(\frac{x_1+x_2}{2}, \frac{y_1+y_2}{2}\right)$ -->
    <g style="fill: #1f2937" transform="translate(741.089274 346.010661) scale(0.14 -0.14)">
     <defs>
      <path id="DejaVuSans-Oblique-4d" d="M 1081 4666 
L 2028 4666 
L 2572 1522 
L 4378 4666 
L 5350 4666 
L 4441 0 
L 3828 0 
L 4622 4091 
L 2791 897 
L 2175 897 
L 1581 4103 
L 788 0 
L 172 0 
L 1081 4666 
z
" transform="scale(0.015625)"/>
      <path id="STIXSizeTwoSym-Regular-28" d="M 3219 -1555 
L 3219 -1786 
Q 2144 -774 1517 730 
Q 890 2234 890 4115 
Q 890 6003 1533 7593 
Q 2176 9184 3219 10022 
L 3219 9811 
Q 2490 9062 1994 7606 
Q 1498 6150 1498 4115 
Q 1498 563 3219 -1555 
z
" transform="scale(0.015625)"/>
      <path id="STIXSizeTwoSym-Regular-29" d="M 730 9792 
L 730 10022 
Q 1805 9011 2432 7507 
Q 3059 6003 3059 4115 
Q 3059 2234 2416 643 
Q 1773 -947 730 -1786 
L 730 -1574 
Q 1459 -826 1955 633 
Q 2451 2093 2451 4115 
Q 2451 7674 730 9792 
z
" transform="scale(0.015625)"/>
     </defs>
     <use xlink:href="#DejaVuSans-Oblique-4d" transform="translate(0 0.34375)"/>
     <use xlink:href="#DejaVuSans-3d" transform="translate(105.761719 0.34375)"/>
     <use xlink:href="#STIXSizeTwoSym-Regular-28" transform="translate(209.033203 -17.578125) scale(0.767768)"/>
     <use xlink:href="#DejaVuSans-Oblique-78" transform="translate(254.238953 55.625) scale(0.7)"/>
     <use xlink:href="#DejaVuSans-31" transform="translate(295.664734 44.140625) scale(0.49)"/>
     <use xlink:href="#DejaVuSans-2b" transform="translate(342.391785 55.625) scale(0.7)"/>
     <use xlink:href="#DejaVuSans-Oblique-78" transform="translate(414.681824 55.625) scale(0.7)"/>
     <use xlink:href="#DejaVuSans-32" transform="translate(456.107605 44.140625) scale(0.49)"/>
     <use xlink:href="#DejaVuSans-32" transform="translate(349.238953 -39.0625) scale(0.7)"/>
     <use xlink:href="#DejaVuSans-2c" transform="translate(501.69696 0.34375)"/>
     <use xlink:href="#DejaVuSans-Oblique-79" transform="translate(552.966492 58.698437) scale(0.7)"/>
     <use xlink:href="#DejaVuSans-31" transform="translate(594.392273 47.214062) scale(0.49)"/>
     <use xlink:href="#DejaVuSans-2b" transform="translate(641.119324 58.698437) scale(0.7)"/>
     <use xlink:href="#DejaVuSans-Oblique-79" transform="translate(713.409363 58.698437) scale(0.7)"/>
     <use xlink:href="#DejaVuSans-32" transform="translate(754.835144 47.214062) scale(0.49)"/>
     <use xlink:href="#DejaVuSans-32" transform="translate(647.966492 -39.0625) scale(0.7)"/>
     <use xlink:href="#STIXSizeTwoSym-Regular-29" transform="translate(800.4245 -17.578125) scale(0.767768)"/>
     <path d="M 254.238953 19.140625 
L 254.238953 25.390625 
L 489.19696 25.390625 
L 489.19696 19.140625 
L 254.238953 19.140625 
z
"/>
     <path d="M 552.966492 19.140625 
L 552.966492 25.390625 
L 787.9245 25.390625 
L 787.9245 19.140625 
L 552.966492 19.140625 
z
"/>
    </g>
   </g>
   <g id="text_33">
    <!-- El promedio de las coordenadas -->
    <g style="fill: #6b7280" transform="translate(728.159586 401.055627) scale(0.09 -0.09)">
     <defs>
      <path id="DejaVuSans-Oblique-45" d="M 1081 4666 
L 4031 4666 
L 3928 4134 
L 1606 4134 
L 1338 2753 
L 3566 2753 
L 3463 2222 
L 1234 2222 
L 909 531 
L 3284 531 
L 3181 0 
L 172 0 
L 1081 4666 
z
" transform="scale(0.015625)"/>
      <path id="DejaVuSans-Oblique-70" d="M 3175 2156 
Q 3175 2616 2975 2859 
Q 2775 3103 2400 3103 
Q 2144 3103 1911 2972 
Q 1678 2841 1497 2591 
Q 1319 2344 1212 1994 
Q 1106 1644 1106 1300 
Q 1106 863 1306 627 
Q 1506 391 1875 391 
Q 2147 391 2380 519 
Q 2613 647 2778 891 
Q 2956 1147 3065 1494 
Q 3175 1841 3175 2156 
z
M 1394 2969 
Q 1625 3272 1939 3428 
Q 2253 3584 2638 3584 
Q 3175 3584 3472 3232 
Q 3769 2881 3769 2247 
Q 3769 1728 3584 1258 
Q 3400 788 3053 416 
Q 2822 169 2531 39 
Q 2241 -91 1919 -91 
Q 1547 -91 1294 64 
Q 1041 219 916 525 
L 556 -1331 
L -19 -1331 
L 922 3500 
L 1497 3500 
L 1394 2969 
z
" transform="scale(0.015625)"/>
      <path id="DejaVuSans-Oblique-63" d="M 3431 3366 
L 3316 2797 
Q 3109 2947 2876 3022 
Q 2644 3097 2394 3097 
Q 2119 3097 1870 3000 
Q 1622 2903 1453 2725 
Q 1184 2453 1037 2087 
Q 891 1722 891 1331 
Q 891 859 1127 628 
Q 1363 397 1844 397 
Q 2081 397 2348 469 
Q 2616 541 2906 684 
L 2797 116 
Q 2547 13 2283 -39 
Q 2019 -91 1741 -91 
Q 1044 -91 669 257 
Q 294 606 294 1253 
Q 294 1797 489 2255 
Q 684 2713 1069 3078 
Q 1331 3328 1684 3456 
Q 2038 3584 2456 3584 
Q 2700 3584 2940 3529 
Q 3181 3475 3431 3366 
z
" transform="scale(0.015625)"/>
      <path id="DejaVuSans-Oblique-6e" d="M 3566 2113 
L 3156 0 
L 2578 0 
L 2988 2091 
Q 3016 2238 3031 2350 
Q 3047 2463 3047 2528 
Q 3047 2791 2881 2937 
Q 2716 3084 2419 3084 
Q 1956 3084 1622 2776 
Q 1288 2469 1184 1941 
L 800 0 
L 225 0 
L 903 3500 
L 1478 3500 
L 1363 2950 
Q 1603 3253 1940 3418 
Q 2278 3584 2650 3584 
Q 3113 3584 3367 3334 
Q 3622 3084 3622 2631 
Q 3622 2519 3608 2391 
Q 3594 2263 3566 2113 
z
" transform="scale(0.015625)"/>
     </defs>
     <use xlink:href="#DejaVuSans-Oblique-45"/>
     <use xlink:href="#DejaVuSans-Oblique-6c" transform="translate(63.183594 0)"/>
     <use xlink:href="#DejaVuSans-Oblique-20" transform="translate(90.966797 0)"/>
     <use xlink:href="#DejaVuSans-Oblique-70" transform="translate(122.753906 0)"/>
     <use xlink:href="#DejaVuSans-Oblique-72" transform="translate(186.230469 0)"/>
     <use xlink:href="#DejaVuSans-Oblique-6f" transform="translate(227.34375 0)"/>
     <use xlink:href="#DejaVuSans-Oblique-6d" transform="translate(288.525391 0)"/>
     <use xlink:href="#DejaVuSans-Oblique-65" transform="translate(385.9375 0)"/>
     <use xlink:href="#DejaVuSans-Oblique-64" transform="translate(447.460938 0)"/>
     <use xlink:href="#DejaVuSans-Oblique-69" transform="translate(510.9375 0)"/>
     <use xlink:href="#DejaVuSans-Oblique-6f" transform="translate(538.720703 0)"/>
     <use xlink:href="#DejaVuSans-Oblique-20" transform="translate(599.902344 0)"/>
     <use xlink:href="#DejaVuSans-Oblique-64" transform="translate(631.689453 0)"/>
     <use xlink:href="#DejaVuSans-Oblique-65" transform="translate(695.166016 0)"/>
     <use xlink:href="#DejaVuSans-Oblique-20" transform="translate(756.689453 0)"/>
     <use xlink:href="#DejaVuSans-Oblique-6c" transform="translate(788.476562 0)"/>
     <use xlink:href="#DejaVuSans-Oblique-61" transform="translate(816.259766 0)"/>
     <use xlink:href="#DejaVuSans-Oblique-73" transform="translate(877.539062 0)"/>
     <use xlink:href="#DejaVuSans-Oblique-20" transform="translate(929.638672 0)"/>
     <use xlink:href="#DejaVuSans-Oblique-63" transform="translate(961.425781 0)"/>
     <use xlink:href="#DejaVuSans-Oblique-6f" transform="translate(1016.40625 0)"/>
     <use xlink:href="#DejaVuSans-Oblique-6f" transform="translate(1077.587891 0)"/>
     <use xlink:href="#DejaVuSans-Oblique-72" transform="translate(1138.769531 0)"/>
     <use xlink:href="#DejaVuSans-Oblique-64" transform="translate(1179.882812 0)"/>
     <use xlink:href="#DejaVuSans-Oblique-65" transform="translate(1243.359375 0)"/>
     <use xlink:href="#DejaVuSans-Oblique-6e" transform="translate(1304.882812 0)"/>
     <use xlink:href="#DejaVuSans-Oblique-61" transform="translate(1368.261719 0)"/>
     <use xlink:href="#DejaVuSans-Oblique-64" transform="translate(1429.541016 0)"/>
     <use xlink:href="#DejaVuSans-Oblique-61" transform="translate(1493.017578 0)"/>
     <use xlink:href="#DejaVuSans-Oblique-73" transform="translate(1554.296875 0)"/>
    </g>
   </g>
   <g id="text_34">
    <!-- Ejemplo: P₁(1,1) y P₂(6,5) -->
    <g style="fill: #059669" transform="translate(728.945368 461.60509) scale(0.1 -0.1)">
     <defs>
      <path id="DejaVuSans-Bold-6a" d="M 538 3500 
L 1656 3500 
L 1656 63 
Q 1656 -641 1318 -1011 
Q 981 -1381 341 -1381 
L -213 -1381 
L -213 -647 
L -19 -647 
Q 300 -647 419 -503 
Q 538 -359 538 63 
L 538 3500 
z
M 538 4863 
L 1656 4863 
L 1656 3950 
L 538 3950 
L 538 4863 
z
" transform="scale(0.015625)"/>
      <path id="DejaVuSans-Bold-6c" d="M 538 4863 
L 1656 4863 
L 1656 0 
L 538 0 
L 538 4863 
z
" transform="scale(0.015625)"/>
      <path id="DejaVuSans-Bold-3a" d="M 716 3500 
L 1844 3500 
L 1844 2291 
L 716 2291 
L 716 3500 
z
M 716 1209 
L 1844 1209 
L 1844 0 
L 716 0 
L 716 1209 
z
" transform="scale(0.015625)"/>
      <path id="DejaVuSans-Bold-2081" d="M 441 466 
L 1088 466 
L 1088 2094 
L 384 1932 
L 384 2432 
L 1100 2585 
L 1806 2585 
L 1806 466 
L 2444 466 
L 2444 -24 
L 441 -24 
L 441 466 
z
" transform="scale(0.015625)"/>
      <path id="DejaVuSans-Bold-31" d="M 750 831 
L 1813 831 
L 1813 3847 
L 722 3622 
L 722 4441 
L 1806 4666 
L 2950 4666 
L 2950 831 
L 4013 831 
L 4013 0 
L 750 0 
L 750 831 
z
" transform="scale(0.015625)"/>
      <path id="DejaVuSans-Bold-2c" d="M 653 1209 
L 1778 1209 
L 1778 256 
L 1006 -909 
L 341 -909 
L 653 256 
L 653 1209 
z
" transform="scale(0.015625)"/>
      <path id="DejaVuSans-Bold-2082" d="M 1288 501 
L 2444 501 
L 2444 -24 
L 341 -24 
L 341 454 
L 1319 1285 
Q 1509 1451 1590 1576 
Q 1672 1701 1672 1826 
Q 1672 1982 1558 2079 
Q 1444 2176 1259 2176 
Q 1066 2176 844 2105 
Q 622 2035 359 1888 
L 359 2469 
Q 631 2554 886 2596 
Q 1141 2638 1375 2638 
Q 1869 2638 2150 2436 
Q 2431 2235 2431 1888 
Q 2431 1663 2320 1474 
Q 2209 1285 1894 1016 
L 1288 501 
z
" transform="scale(0.015625)"/>
      <path id="DejaVuSans-Bold-36" d="M 2316 2303 
Q 2000 2303 1842 2098 
Q 1684 1894 1684 1484 
Q 1684 1075 1842 870 
Q 2000 666 2316 666 
Q 2634 666 2792 870 
Q 2950 1075 2950 1484 
Q 2950 1894 2792 2098 
Q 2634 2303 2316 2303 
z
M 3803 4544 
L 3803 3681 
Q 3506 3822 3243 3889 
Q 2981 3956 2731 3956 
Q 2194 3956 1894 3657 
Q 1594 3359 1544 2772 
Q 1750 2925 1990 3001 
Q 2231 3078 2516 3078 
Q 3231 3078 3670 2659 
Q 4109 2241 4109 1563 
Q 4109 813 3618 361 
Q 3128 -91 2303 -91 
Q 1394 -91 895 523 
Q 397 1138 397 2266 
Q 397 3422 980 4083 
Q 1563 4744 2578 4744 
Q 2900 4744 3203 4694 
Q 3506 4644 3803 4544 
z
" transform="scale(0.015625)"/>
      <path id="DejaVuSans-Bold-35" d="M 678 4666 
L 3669 4666 
L 3669 3781 
L 1638 3781 
L 1638 3059 
Q 1775 3097 1914 3117 
Q 2053 3138 2203 3138 
Q 3056 3138 3531 2711 
Q 4006 2284 4006 1522 
Q 4006 766 3489 337 
Q 2972 -91 2053 -91 
Q 1656 -91 1267 -14 
Q 878 63 494 219 
L 494 1166 
Q 875 947 1217 837 
Q 1559 728 1863 728 
Q 2300 728 2551 942 
Q 2803 1156 2803 1522 
Q 2803 1891 2551 2103 
Q 2300 2316 1863 2316 
Q 1603 2316 1309 2248 
Q 1016 2181 678 2041 
L 678 4666 
z
" transform="scale(0.015625)"/>
     </defs>
     <use xlink:href="#DejaVuSans-Bold-45"/>
     <use xlink:href="#DejaVuSans-Bold-6a" transform="translate(68.310547 0)"/>
     <use xlink:href="#DejaVuSans-Bold-65" transform="translate(102.587891 0)"/>
     <use xlink:href="#DejaVuSans-Bold-6d" transform="translate(170.410156 0)"/>
     <use xlink:href="#DejaVuSans-Bold-70" transform="translate(274.609375 0)"/>
     <use xlink:href="#DejaVuSans-Bold-6c" transform="translate(346.191406 0)"/>
     <use xlink:href="#DejaVuSans-Bold-6f" transform="translate(380.46875 0)"/>
     <use xlink:href="#DejaVuSans-Bold-3a" transform="translate(449.169922 0)"/>
     <use xlink:href="#DejaVuSans-Bold-20" transform="translate(489.160156 0)"/>
     <use xlink:href="#DejaVuSans-Bold-50" transform="translate(523.974609 0)"/>
     <use xlink:href="#DejaVuSans-Bold-2081" transform="translate(597.265625 0)"/>
     <use xlink:href="#DejaVuSans-Bold-28" transform="translate(641.064453 0)"/>
     <use xlink:href="#DejaVuSans-Bold-31" transform="translate(686.767578 0)"/>
     <use xlink:href="#DejaVuSans-Bold-2c" transform="translate(756.347656 0)"/>
     <use xlink:href="#DejaVuSans-Bold-31" transform="translate(794.335938 0)"/>
     <use xlink:href="#DejaVuSans-Bold-29" transform="translate(863.916016 0)"/>
     <use xlink:href="#DejaVuSans-Bold-20" transform="translate(909.619141 0)"/>
     <use xlink:href="#DejaVuSans-Bold-79" transform="translate(944.433594 0)"/>
     <use xlink:href="#DejaVuSans-Bold-20" transform="translate(1009.619141 0)"/>
     <use xlink:href="#DejaVuSans-Bold-50" transform="translate(1044.433594 0)"/>
     <use xlink:href="#DejaVuSans-Bold-2082" transform="translate(1117.724609 0)"/>
     <use xlink:href="#DejaVuSans-Bold-28" transform="translate(1161.523438 0)"/>
     <use xlink:href="#DejaVuSans-Bold-36" transform="translate(1207.226562 0)"/>
     <use xlink:href="#DejaVuSans-Bold-2c" transform="translate(1276.806641 0)"/>
     <use xlink:href="#DejaVuSans-Bold-35" transform="translate(1314.794922 0)"/>
     <use xlink:href="#DejaVuSans-Bold-29" transform="translate(1384.375 0)"/>
    </g>
   </g>
   <g id="text_35">
    <!-- $d = \sqrt{(6-1)^2 + (5-1)^2} = \sqrt{25+16} = \sqrt{41}$ -->
    <g style="fill: #374151" transform="translate(706.624274 505.641064) scale(0.09 -0.09)">
     <use xlink:href="#DejaVuSans-Oblique-64" transform="translate(0 0.359375)"/>
     <use xlink:href="#DejaVuSans-3d" transform="translate(82.958984 0.359375)"/>
     <use xlink:href="#STIXSizeOneSym-Regular-221a" transform="translate(186.230469 8.703125) scale(0.729126)"/>
     <use xlink:href="#DejaVuSans-28" transform="translate(275.759323 0.515625)"/>
     <use xlink:href="#DejaVuSans-36" transform="translate(314.772995 0.515625)"/>
     <use xlink:href="#DejaVuSans-2212" transform="translate(397.878464 0.515625)"/>
     <use xlink:href="#DejaVuSans-31" transform="translate(501.149948 0.515625)"/>
     <use xlink:href="#DejaVuSans-29" transform="translate(564.772995 0.515625)"/>
     <use xlink:href="#DejaVuSans-32" transform="translate(604.743698 38.796875) scale(0.7)"/>
     <use xlink:href="#DejaVuSans-2b" transform="translate(671.496628 0.515625)"/>
     <use xlink:href="#DejaVuSans-28" transform="translate(774.768112 0.515625)"/>
     <use xlink:href="#DejaVuSans-35" transform="translate(813.781784 0.515625)"/>
     <use xlink:href="#DejaVuSans-2212" transform="translate(896.887253 0.515625)"/>
     <use xlink:href="#DejaVuSans-31" transform="translate(1000.158737 0.515625)"/>
     <use xlink:href="#DejaVuSans-29" transform="translate(1063.781784 0.515625)"/>
     <use xlink:href="#DejaVuSans-32" transform="translate(1103.752487 38.796875) scale(0.7)"/>
     <use xlink:href="#DejaVuSans-3d" transform="translate(1183.005417 0.359375)"/>
     <use xlink:href="#STIXSizeOneSym-Regular-221a" transform="translate(1286.276901 16.046875) scale(0.578716)"/>
     <use xlink:href="#DejaVuSans-32" transform="translate(1359.950775 0.59375)"/>
     <use xlink:href="#DejaVuSans-35" transform="translate(1423.573822 0.59375)"/>
     <use xlink:href="#DejaVuSans-2b" transform="translate(1506.679291 0.59375)"/>
     <use xlink:href="#DejaVuSans-31" transform="translate(1609.950775 0.59375)"/>
     <use xlink:href="#DejaVuSans-36" transform="translate(1673.573822 0.59375)"/>
     <use xlink:href="#DejaVuSans-3d" transform="translate(1769.179291 0.359375)"/>
     <use xlink:href="#STIXSizeOneSym-Regular-221a" transform="translate(1872.450775 16.875) scale(0.563912)"/>
     <use xlink:href="#DejaVuSans-34" transform="translate(1944.539139 0.625)"/>
     <use xlink:href="#DejaVuSans-31" transform="translate(2008.162186 0.625)"/>
     <path d="M 263.259323 115.5 
L 263.259323 121.75 
L 1163.522995 121.75 
L 1163.522995 115.5 
L 263.259323 115.5 
z
"/>
     <path d="M 1347.450775 99.5625 
L 1347.450775 105.8125 
L 1749.696869 105.8125 
L 1749.696869 99.5625 
L 1347.450775 99.5625 
z
"/>
     <path d="M 1932.039139 97.28125 
L 1932.039139 103.53125 
L 2084.285233 103.53125 
L 2084.285233 97.28125 
L 1932.039139 97.28125 
z
"/>
    </g>
   </g>
   <g id="text_36">
    <!-- $M = \left(\frac{1+6}{2}, \frac{1+5}{2}\right) = (3.5, 3)$ -->
    <g style="fill: #374151" transform="translate(746.494274 544.17254) scale(0.09 -0.09)">
     <defs>
      <path id="DejaVuSans-2e" d="M 684 794 
L 1344 794 
L 1344 0 
L 684 0 
L 684 794 
z
" transform="scale(0.015625)"/>
     </defs>
     <use xlink:href="#DejaVuSans-Oblique-4d" transform="translate(0 0.875)"/>
     <use xlink:href="#DejaVuSans-3d" transform="translate(105.761719 0.875)"/>
     <use xlink:href="#STIXSizeTwoSym-Regular-28" transform="translate(209.033203 -17.890625) scale(0.737949)"/>
     <use xlink:href="#DejaVuSans-31" transform="translate(252.471939 45.667188) scale(0.7)"/>
     <use xlink:href="#DejaVuSans-2b" transform="translate(310.645767 45.667188) scale(0.7)"/>
     <use xlink:href="#DejaVuSans-36" transform="translate(382.935806 45.667188) scale(0.7)"/>
     <use xlink:href="#DejaVuSans-32" transform="translate(317.471939 -38.53125) scale(0.7)"/>
     <use xlink:href="#DejaVuSans-2c" transform="translate(439.971939 0.875)"/>
     <use xlink:href="#DejaVuSans-31" transform="translate(491.24147 45.667187) scale(0.7)"/>
     <use xlink:href="#DejaVuSans-2b" transform="translate(549.415298 45.667187) scale(0.7)"/>
     <use xlink:href="#DejaVuSans-35" transform="translate(621.705338 45.667187) scale(0.7)"/>
     <use xlink:href="#DejaVuSans-32" transform="translate(556.24147 -38.53125) scale(0.7)"/>
     <use xlink:href="#STIXSizeTwoSym-Regular-29" transform="translate(678.74147 -17.890625) scale(0.737949)"/>
     <use xlink:href="#DejaVuSans-3d" transform="translate(743.063873 0.875)"/>
     <use xlink:href="#DejaVuSans-28" transform="translate(846.335358 0.875)"/>
     <use xlink:href="#DejaVuSans-33" transform="translate(885.34903 0.875)"/>
     <use xlink:href="#DejaVuSans-2e" transform="translate(948.972076 0.875)"/>
     <use xlink:href="#DejaVuSans-35" transform="translate(980.759186 0.875)"/>
     <use xlink:href="#DejaVuSans-2c" transform="translate(1044.382233 0.875)"/>
     <use xlink:href="#DejaVuSans-33" transform="translate(1095.651764 0.875)"/>
     <use xlink:href="#DejaVuSans-29" transform="translate(1159.274811 0.875)"/>
     <path d="M 252.471939 19.671875 
L 252.471939 25.921875 
L 427.471939 25.921875 
L 427.471939 19.671875 
L 252.471939 19.671875 
z
"/>
     <path d="M 491.24147 19.671875 
L 491.24147 25.921875 
L 666.24147 25.921875 
L 666.24147 19.671875 
L 491.24147 19.671875 
z
"/>
    </g>
   </g>
  </g>
  <g id="text_37">
   <!-- Fórmulas Fundamentales de Geometría Analítica -->
   <g style="fill: #1f2937" transform="translate(316.013666 17.837812) scale(0.14 -0.14)">
    <defs>
     <path id="DejaVuSans-Bold-46" d="M 588 4666 
L 3834 4666 
L 3834 3756 
L 1791 3756 
L 1791 2888 
L 3713 2888 
L 3713 1978 
L 1791 1978 
L 1791 0 
L 588 0 
L 588 4666 
z
" transform="scale(0.015625)"/>
     <path id="DejaVuSans-Bold-f3" d="M 2203 2784 
Q 1831 2784 1636 2517 
Q 1441 2250 1441 1747 
Q 1441 1244 1636 976 
Q 1831 709 2203 709 
Q 2569 709 2762 976 
Q 2956 1244 2956 1747 
Q 2956 2250 2762 2517 
Q 2569 2784 2203 2784 
z
M 2203 3584 
Q 3106 3584 3614 3096 
Q 4122 2609 4122 1747 
Q 4122 884 3614 396 
Q 3106 -91 2203 -91 
Q 1297 -91 786 396 
Q 275 884 275 1747 
Q 275 2609 786 3096 
Q 1297 3584 2203 3584 
z
M 2694 5119 
L 3578 5119 
L 2425 3944 
L 1813 3944 
L 2694 5119 
z
" transform="scale(0.015625)"/>
     <path id="DejaVuSans-Bold-72" d="M 3138 2547 
Q 2991 2616 2845 2648 
Q 2700 2681 2553 2681 
Q 2122 2681 1889 2404 
Q 1656 2128 1656 1613 
L 1656 0 
L 538 0 
L 538 3500 
L 1656 3500 
L 1656 2925 
Q 1872 3269 2151 3426 
Q 2431 3584 2822 3584 
Q 2878 3584 2943 3579 
Q 3009 3575 3134 3559 
L 3138 2547 
z
" transform="scale(0.015625)"/>
     <path id="DejaVuSans-Bold-47" d="M 4781 347 
Q 4331 128 3847 18 
Q 3363 -91 2847 -91 
Q 1681 -91 1000 561 
Q 319 1213 319 2328 
Q 319 3456 1012 4103 
Q 1706 4750 2913 4750 
Q 3378 4750 3804 4662 
Q 4231 4575 4609 4403 
L 4609 3438 
Q 4219 3659 3833 3768 
Q 3447 3878 3059 3878 
Q 2341 3878 1952 3476 
Q 1563 3075 1563 2328 
Q 1563 1588 1938 1184 
Q 2313 781 3003 781 
Q 3191 781 3352 804 
Q 3513 828 3641 878 
L 3641 1784 
L 2906 1784 
L 2906 2591 
L 4781 2591 
L 4781 347 
z
" transform="scale(0.015625)"/>
     <path id="DejaVuSans-Bold-ed" d="M 538 3500 
L 1656 3500 
L 1656 0 
L 538 0 
L 538 3500 
z
M 1590 5119 
L 2474 5119 
L 1321 3944 
L 709 3944 
L 1590 5119 
z
" transform="scale(0.015625)"/>
    </defs>
    <use xlink:href="#DejaVuSans-Bold-46"/>
    <use xlink:href="#DejaVuSans-Bold-f3" transform="translate(64.310547 0)"/>
    <use xlink:href="#DejaVuSans-Bold-72" transform="translate(133.011719 0)"/>
    <use xlink:href="#DejaVuSans-Bold-6d" transform="translate(182.328125 0)"/>
    <use xlink:href="#DejaVuSans-Bold-75" transform="translate(286.527344 0)"/>
    <use xlink:href="#DejaVuSans-Bold-6c" transform="translate(357.71875 0)"/>
    <use xlink:href="#DejaVuSans-Bold-61" transform="translate(391.996094 0)"/>
    <use xlink:href="#DejaVuSans-Bold-73" transform="translate(459.476562 0)"/>
    <use xlink:href="#DejaVuSans-Bold-20" transform="translate(518.998047 0)"/>
    <use xlink:href="#DejaVuSans-Bold-46" transform="translate(553.8125 0)"/>
    <use xlink:href="#DejaVuSans-Bold-75" transform="translate(617.123047 0)"/>
    <use xlink:href="#DejaVuSans-Bold-6e" transform="translate(688.314453 0)"/>
    <use xlink:href="#DejaVuSans-Bold-64" transform="translate(759.505859 0)"/>
    <use xlink:href="#DejaVuSans-Bold-61" transform="translate(831.087891 0)"/>
    <use xlink:href="#DejaVuSans-Bold-6d" transform="translate(898.568359 0)"/>
    <use xlink:href="#DejaVuSans-Bold-65" transform="translate(1002.767578 0)"/>
    <use xlink:href="#DejaVuSans-Bold-6e" transform="translate(1070.589844 0)"/>
    <use xlink:href="#DejaVuSans-Bold-74" transform="translate(1141.78125 0)"/>
    <use xlink:href="#DejaVuSans-Bold-61" transform="translate(1189.583984 0)"/>
    <use xlink:href="#DejaVuSans-Bold-6c" transform="translate(1257.064453 0)"/>
    <use xlink:href="#DejaVuSans-Bold-65" transform="translate(1291.341797 0)"/>
    <use xlink:href="#DejaVuSans-Bold-73" transform="translate(1359.164062 0)"/>
    <use xlink:href="#DejaVuSans-Bold-20" transform="translate(1418.685547 0)"/>
    <use xlink:href="#DejaVuSans-Bold-64" transform="translate(1453.5 0)"/>
    <use xlink:href="#DejaVuSans-Bold-65" transform="translate(1525.082031 0)"/>
    <use xlink:href="#DejaVuSans-Bold-20" transform="translate(1592.904297 0)"/>
    <use xlink:href="#DejaVuSans-Bold-47" transform="translate(1627.71875 0)"/>
    <use xlink:href="#DejaVuSans-Bold-65" transform="translate(1709.798828 0)"/>
    <use xlink:href="#DejaVuSans-Bold-6f" transform="translate(1777.621094 0)"/>
    <use xlink:href="#DejaVuSans-Bold-6d" transform="translate(1846.322266 0)"/>
    <use xlink:href="#DejaVuSans-Bold-65" transform="translate(1950.521484 0)"/>
    <use xlink:href="#DejaVuSans-Bold-74" transform="translate(2018.34375 0)"/>
    <use xlink:href="#DejaVuSans-Bold-72" transform="translate(2066.146484 0)"/>
    <use xlink:href="#DejaVuSans-Bold-ed" transform="translate(2115.462891 0)"/>
    <use xlink:href="#DejaVuSans-Bold-61" transform="translate(2149.740234 0)"/>
    <use xlink:href="#DejaVuSans-Bold-20" transform="translate(2217.220703 0)"/>
    <use xlink:href="#DejaVuSans-Bold-41" transform="translate(2252.035156 0)"/>
    <use xlink:href="#DejaVuSans-Bold-6e" transform="translate(2329.427734 0)"/>
    <use xlink:href="#DejaVuSans-Bold-61" transform="translate(2400.619141 0)"/>
    <use xlink:href="#DejaVuSans-Bold-6c" transform="translate(2468.099609 0)"/>
    <use xlink:href="#DejaVuSans-Bold-ed" transform="translate(2502.376953 0)"/>
    <use xlink:href="#DejaVuSans-Bold-74" transform="translate(2536.654297 0)"/>
    <use xlink:href="#DejaVuSans-Bold-69" transform="translate(2584.457031 0)"/>
    <use xlink:href="#DejaVuSans-Bold-63" transform="translate(2618.734375 0)"/>
    <use xlink:href="#DejaVuSans-Bold-61" transform="translate(2678.011719 0)"/>
   </g>
  </g>
 </g>
 <defs>
  <clipPath id="p3fde4e2489">
   <rect x="36.480937" y="80.945015" width="501.00059" height="442.059345"/>
  </clipPath>
  <clipPath id="pfcb2a79d35">
   <rect x="591.699028" y="26.749855" width="417.500492" height="550.449665"/>
  </clipPath>
 </defs>
</svg>
