<?xml version="1.0" encoding="utf-8" standalone="no"?>
<!DOCTYPE svg PUBLIC "-//W3C//DTD SVG 1.1//EN"
  "http://www.w3.org/Graphics/SVG/1.1/DTD/svg11.dtd">
<svg xmlns:xlink="http://www.w3.org/1999/xlink" width="1016.39952pt" height="656.39952pt" viewBox="0 0 1016.39952 656.39952" xmlns="http://www.w3.org/2000/svg" version="1.1">
 <metadata>
  <rdf:RDF xmlns:dc="http://purl.org/dc/elements/1.1/" xmlns:cc="http://creativecommons.org/ns#" xmlns:rdf="http://www.w3.org/1999/02/22-rdf-syntax-ns#">
   <cc:Work>
    <dc:type rdf:resource="http://purl.org/dc/dcmitype/StillImage"/>
    <dc:date>2026-01-04T21:15:35.513817</dc:date>
    <dc:format>image/svg+xml</dc:format>
    <dc:creator>
     <cc:Agent>
      <dc:title>Repositorio Matemáticas Universitarias</dc:title>
     </cc:Agent>
    </dc:creator>
   </cc:Work>
  </rdf:RDF>
 </metadata>
 <defs>
  <style type="text/css">*{stroke-linejoin: round; stroke-linecap: butt}</style>
 </defs>
 <g id="figure_1">
  <g id="patch_1">
   <path d="M 0 656.39952 
L 1016.39952 656.39952 
L 1016.39952 0 
L 0 0 
z
" style="fill: #ffffff"/>
  </g>
  <g id="axes_1">
   <g id="patch_2">
    <path d="M 296.777113 338.099842 
L 719.622407 338.099842 
L 719.622407 42.108136 
L 296.777113 42.108136 
z
" style="fill: #ffffff"/>
   </g>
   <g id="matplotlib.axis_1">
    <g id="xtick_1">
     <g id="line2d_1">
      <path d="M 339.061642 338.099842 
L 339.061642 42.108136 
" clip-path="url(#p4ccbfc246e)" style="fill: none; stroke-dasharray: 2.96,1.28; stroke-dashoffset: 0; stroke: #e5e7eb; stroke-opacity: 0.3; stroke-width: 0.8"/>
     </g>
     <g id="line2d_2">
      <defs>
       <path id="m634278f258" d="M 0 0 
L 0 3.5 
" style="stroke: #1f2937; stroke-width: 0.8"/>
      </defs>
      <g>
       <use xlink:href="#m634278f258" x="339.061642" y="338.099842" style="fill: #1f2937; stroke: #1f2937; stroke-width: 0.8"/>
      </g>
     </g>
     <g id="text_1">
      <!-- −4 -->
      <g style="fill: #1f2937" transform="translate(330.21633 354.217967) scale(0.12 -0.12)">
       <defs>
        <path id="DejaVuSans-2212" d="M 678 2272 
L 4684 2272 
L 4684 1741 
L 678 1741 
L 678 2272 
z
" transform="scale(0.015625)"/>
        <path id="DejaVuSans-34" d="M 2419 4116 
L 825 1625 
L 2419 1625 
L 2419 4116 
z
M 2253 4666 
L 3047 4666 
L 3047 1625 
L 3713 1625 
L 3713 1100 
L 3047 1100 
L 3047 0 
L 2419 0 
L 2419 1100 
L 313 1100 
L 313 1709 
L 2253 4666 
z
" transform="scale(0.015625)"/>
       </defs>
       <use xlink:href="#DejaVuSans-2212"/>
       <use xlink:href="#DejaVuSans-34" transform="translate(83.789062 0)"/>
      </g>
     </g>
    </g>
    <g id="xtick_2">
     <g id="line2d_3">
      <path d="M 423.630701 338.099842 
L 423.630701 42.108136 
" clip-path="url(#p4ccbfc246e)" style="fill: none; stroke-dasharray: 2.96,1.28; stroke-dashoffset: 0; stroke: #e5e7eb; stroke-opacity: 0.3; stroke-width: 0.8"/>
     </g>
     <g id="line2d_4">
      <g>
       <use xlink:href="#m634278f258" x="423.630701" y="338.099842" style="fill: #1f2937; stroke: #1f2937; stroke-width: 0.8"/>
      </g>
     </g>
     <g id="text_2">
      <!-- −2 -->
      <g style="fill: #1f2937" transform="translate(414.785389 354.217967) scale(0.12 -0.12)">
       <defs>
        <path id="DejaVuSans-32" d="M 1228 531 
L 3431 531 
L 3431 0 
L 469 0 
L 469 531 
Q 828 903 1448 1529 
Q 2069 2156 2228 2338 
Q 2531 2678 2651 2914 
Q 2772 3150 2772 3378 
Q 2772 3750 2511 3984 
Q 2250 4219 1831 4219 
Q 1534 4219 1204 4116 
Q 875 4013 500 3803 
L 500 4441 
Q 881 4594 1212 4672 
Q 1544 4750 1819 4750 
Q 2544 4750 2975 4387 
Q 3406 4025 3406 3419 
Q 3406 3131 3298 2873 
Q 3191 2616 2906 2266 
Q 2828 2175 2409 1742 
Q 1991 1309 1228 531 
z
" transform="scale(0.015625)"/>
       </defs>
       <use xlink:href="#DejaVuSans-2212"/>
       <use xlink:href="#DejaVuSans-32" transform="translate(83.789062 0)"/>
      </g>
     </g>
    </g>
    <g id="xtick_3">
     <g id="line2d_5">
      <path d="M 508.19976 338.099842 
L 508.19976 42.108136 
" clip-path="url(#p4ccbfc246e)" style="fill: none; stroke-dasharray: 2.96,1.28; stroke-dashoffset: 0; stroke: #e5e7eb; stroke-opacity: 0.3; stroke-width: 0.8"/>
     </g>
     <g id="line2d_6">
      <g>
       <use xlink:href="#m634278f258" x="508.19976" y="338.099842" style="fill: #1f2937; stroke: #1f2937; stroke-width: 0.8"/>
      </g>
     </g>
     <g id="text_3">
      <!-- 0 -->
      <g style="fill: #1f2937" transform="translate(504.38226 354.217967) scale(0.12 -0.12)">
       <defs>
        <path id="DejaVuSans-30" d="M 2034 4250 
Q 1547 4250 1301 3770 
Q 1056 3291 1056 2328 
Q 1056 1369 1301 889 
Q 1547 409 2034 409 
Q 2525 409 2770 889 
Q 3016 1369 3016 2328 
Q 3016 3291 2770 3770 
Q 2525 4250 2034 4250 
z
M 2034 4750 
Q 2819 4750 3233 4129 
Q 3647 3509 3647 2328 
Q 3647 1150 3233 529 
Q 2819 -91 2034 -91 
Q 1250 -91 836 529 
Q 422 1150 422 2328 
Q 422 3509 836 4129 
Q 1250 4750 2034 4750 
z
" transform="scale(0.015625)"/>
       </defs>
       <use xlink:href="#DejaVuSans-30"/>
      </g>
     </g>
    </g>
    <g id="xtick_4">
     <g id="line2d_7">
      <path d="M 592.768819 338.099842 
L 592.768819 42.108136 
" clip-path="url(#p4ccbfc246e)" style="fill: none; stroke-dasharray: 2.96,1.28; stroke-dashoffset: 0; stroke: #e5e7eb; stroke-opacity: 0.3; stroke-width: 0.8"/>
     </g>
     <g id="line2d_8">
      <g>
       <use xlink:href="#m634278f258" x="592.768819" y="338.099842" style="fill: #1f2937; stroke: #1f2937; stroke-width: 0.8"/>
      </g>
     </g>
     <g id="text_4">
      <!-- 2 -->
      <g style="fill: #1f2937" transform="translate(588.951319 354.217967) scale(0.12 -0.12)">
       <use xlink:href="#DejaVuSans-32"/>
      </g>
     </g>
    </g>
    <g id="xtick_5">
     <g id="line2d_9">
      <path d="M 677.337878 338.099842 
L 677.337878 42.108136 
" clip-path="url(#p4ccbfc246e)" style="fill: none; stroke-dasharray: 2.96,1.28; stroke-dashoffset: 0; stroke: #e5e7eb; stroke-opacity: 0.3; stroke-width: 0.8"/>
     </g>
     <g id="line2d_10">
      <g>
       <use xlink:href="#m634278f258" x="677.337878" y="338.099842" style="fill: #1f2937; stroke: #1f2937; stroke-width: 0.8"/>
      </g>
     </g>
     <g id="text_5">
      <!-- 4 -->
      <g style="fill: #1f2937" transform="translate(673.520378 354.217967) scale(0.12 -0.12)">
       <use xlink:href="#DejaVuSans-34"/>
      </g>
     </g>
    </g>
   </g>
   <g id="matplotlib.axis_2">
    <g id="ytick_1">
     <g id="line2d_11">
      <path d="M 296.777113 316.957578 
L 719.622407 316.957578 
" clip-path="url(#p4ccbfc246e)" style="fill: none; stroke-dasharray: 2.96,1.28; stroke-dashoffset: 0; stroke: #e5e7eb; stroke-opacity: 0.3; stroke-width: 0.8"/>
     </g>
     <g id="line2d_12">
      <defs>
       <path id="me03901be7a" d="M 0 0 
L -3.5 0 
" style="stroke: #1f2937; stroke-width: 0.8"/>
      </defs>
      <g>
       <use xlink:href="#me03901be7a" x="296.777113" y="316.957578" style="fill: #1f2937; stroke: #1f2937; stroke-width: 0.8"/>
      </g>
     </g>
     <g id="text_6">
      <!-- −3 -->
      <g style="fill: #1f2937" transform="translate(272.086488 321.51664) scale(0.12 -0.12)">
       <defs>
        <path id="DejaVuSans-33" d="M 2597 2516 
Q 3050 2419 3304 2112 
Q 3559 1806 3559 1356 
Q 3559 666 3084 287 
Q 2609 -91 1734 -91 
Q 1441 -91 1130 -33 
Q 819 25 488 141 
L 488 750 
Q 750 597 1062 519 
Q 1375 441 1716 441 
Q 2309 441 2620 675 
Q 2931 909 2931 1356 
Q 2931 1769 2642 2001 
Q 2353 2234 1838 2234 
L 1294 2234 
L 1294 2753 
L 1863 2753 
Q 2328 2753 2575 2939 
Q 2822 3125 2822 3475 
Q 2822 3834 2567 4026 
Q 2313 4219 1838 4219 
Q 1578 4219 1281 4162 
Q 984 4106 628 3988 
L 628 4550 
Q 988 4650 1302 4700 
Q 1616 4750 1894 4750 
Q 2613 4750 3031 4423 
Q 3450 4097 3450 3541 
Q 3450 3153 3228 2886 
Q 3006 2619 2597 2516 
z
" transform="scale(0.015625)"/>
       </defs>
       <use xlink:href="#DejaVuSans-2212"/>
       <use xlink:href="#DejaVuSans-33" transform="translate(83.789062 0)"/>
      </g>
     </g>
    </g>
    <g id="ytick_2">
     <g id="line2d_13">
      <path d="M 296.777113 274.673048 
L 719.622407 274.673048 
" clip-path="url(#p4ccbfc246e)" style="fill: none; stroke-dasharray: 2.96,1.28; stroke-dashoffset: 0; stroke: #e5e7eb; stroke-opacity: 0.3; stroke-width: 0.8"/>
     </g>
     <g id="line2d_14">
      <g>
       <use xlink:href="#me03901be7a" x="296.777113" y="274.673048" style="fill: #1f2937; stroke: #1f2937; stroke-width: 0.8"/>
      </g>
     </g>
     <g id="text_7">
      <!-- −2 -->
      <g style="fill: #1f2937" transform="translate(272.086488 279.232111) scale(0.12 -0.12)">
       <use xlink:href="#DejaVuSans-2212"/>
       <use xlink:href="#DejaVuSans-32" transform="translate(83.789062 0)"/>
      </g>
     </g>
    </g>
    <g id="ytick_3">
     <g id="line2d_15">
      <path d="M 296.777113 232.388519 
L 719.622407 232.388519 
" clip-path="url(#p4ccbfc246e)" style="fill: none; stroke-dasharray: 2.96,1.28; stroke-dashoffset: 0; stroke: #e5e7eb; stroke-opacity: 0.3; stroke-width: 0.8"/>
     </g>
     <g id="line2d_16">
      <g>
       <use xlink:href="#me03901be7a" x="296.777113" y="232.388519" style="fill: #1f2937; stroke: #1f2937; stroke-width: 0.8"/>
      </g>
     </g>
     <g id="text_8">
      <!-- −1 -->
      <g style="fill: #1f2937" transform="translate(272.086488 236.947581) scale(0.12 -0.12)">
       <defs>
        <path id="DejaVuSans-31" d="M 794 531 
L 1825 531 
L 1825 4091 
L 703 3866 
L 703 4441 
L 1819 4666 
L 2450 4666 
L 2450 531 
L 3481 531 
L 3481 0 
L 794 0 
L 794 531 
z
" transform="scale(0.015625)"/>
       </defs>
       <use xlink:href="#DejaVuSans-2212"/>
       <use xlink:href="#DejaVuSans-31" transform="translate(83.789062 0)"/>
      </g>
     </g>
    </g>
    <g id="ytick_4">
     <g id="line2d_17">
      <path d="M 296.777113 190.103989 
L 719.622407 190.103989 
" clip-path="url(#p4ccbfc246e)" style="fill: none; stroke-dasharray: 2.96,1.28; stroke-dashoffset: 0; stroke: #e5e7eb; stroke-opacity: 0.3; stroke-width: 0.8"/>
     </g>
     <g id="line2d_18">
      <g>
       <use xlink:href="#me03901be7a" x="296.777113" y="190.103989" style="fill: #1f2937; stroke: #1f2937; stroke-width: 0.8"/>
      </g>
     </g>
     <g id="text_9">
      <!-- 0 -->
      <g style="fill: #1f2937" transform="translate(282.142113 194.663052) scale(0.12 -0.12)">
       <use xlink:href="#DejaVuSans-30"/>
      </g>
     </g>
    </g>
    <g id="ytick_5">
     <g id="line2d_19">
      <path d="M 296.777113 147.81946 
L 719.622407 147.81946 
" clip-path="url(#p4ccbfc246e)" style="fill: none; stroke-dasharray: 2.96,1.28; stroke-dashoffset: 0; stroke: #e5e7eb; stroke-opacity: 0.3; stroke-width: 0.8"/>
     </g>
     <g id="line2d_20">
      <g>
       <use xlink:href="#me03901be7a" x="296.777113" y="147.81946" style="fill: #1f2937; stroke: #1f2937; stroke-width: 0.8"/>
      </g>
     </g>
     <g id="text_10">
      <!-- 1 -->
      <g style="fill: #1f2937" transform="translate(282.142113 152.378522) scale(0.12 -0.12)">
       <use xlink:href="#DejaVuSans-31"/>
      </g>
     </g>
    </g>
    <g id="ytick_6">
     <g id="line2d_21">
      <path d="M 296.777113 105.53493 
L 719.622407 105.53493 
" clip-path="url(#p4ccbfc246e)" style="fill: none; stroke-dasharray: 2.96,1.28; stroke-dashoffset: 0; stroke: #e5e7eb; stroke-opacity: 0.3; stroke-width: 0.8"/>
     </g>
     <g id="line2d_22">
      <g>
       <use xlink:href="#me03901be7a" x="296.777113" y="105.53493" style="fill: #1f2937; stroke: #1f2937; stroke-width: 0.8"/>
      </g>
     </g>
     <g id="text_11">
      <!-- 2 -->
      <g style="fill: #1f2937" transform="translate(282.142113 110.093993) scale(0.12 -0.12)">
       <use xlink:href="#DejaVuSans-32"/>
      </g>
     </g>
    </g>
    <g id="ytick_7">
     <g id="line2d_23">
      <path d="M 296.777113 63.250401 
L 719.622407 63.250401 
" clip-path="url(#p4ccbfc246e)" style="fill: none; stroke-dasharray: 2.96,1.28; stroke-dashoffset: 0; stroke: #e5e7eb; stroke-opacity: 0.3; stroke-width: 0.8"/>
     </g>
     <g id="line2d_24">
      <g>
       <use xlink:href="#me03901be7a" x="296.777113" y="63.250401" style="fill: #1f2937; stroke: #1f2937; stroke-width: 0.8"/>
      </g>
     </g>
     <g id="text_12">
      <!-- 3 -->
      <g style="fill: #1f2937" transform="translate(282.142113 67.809463) scale(0.12 -0.12)">
       <use xlink:href="#DejaVuSans-33"/>
      </g>
     </g>
    </g>
   </g>
   <g id="line2d_25">
    <path d="M 296.777113 190.103989 
L 719.622407 190.103989 
" clip-path="url(#p4ccbfc246e)" style="fill: none; stroke: #9ca3af; stroke-linecap: square"/>
   </g>
   <g id="line2d_26">
    <path d="M 508.19976 338.099842 
L 508.19976 42.108136 
" clip-path="url(#p4ccbfc246e)" style="fill: none; stroke: #9ca3af; stroke-linecap: square"/>
   </g>
   <g id="line2d_27">
    <path d="M 826.365109 420.144118 
L 791.60067 392.970532 
L 760.96332 368.751237 
L 734.006897 347.133532 
L 714.070342 330.877952 
L 696.214986 316.045492 
L 680.260325 302.486208 
L 666.045068 290.063025 
L 655.828112 280.857722 
L 646.56601 272.239412 
L 638.198857 264.15235 
L 630.672534 256.544231 
L 623.93836 249.365845 
L 619.381192 244.236042 
L 615.228432 239.303137 
L 611.464976 234.549188 
L 608.077133 229.956903 
L 605.052582 225.509578 
L 602.380321 221.191036 
L 600.05063 216.98557 
L 598.055035 212.877881 
L 596.386277 208.85303 
L 595.038286 204.896376 
L 594.00616 200.993528 
L 593.286143 197.130289 
L 592.875618 193.292607 
L 592.77309 189.466523 
L 592.978187 185.638121 
L 593.491655 181.793475 
L 594.315361 177.9186 
L 595.452302 173.999402 
L 596.906613 170.021626 
L 598.683584 165.970803 
L 600.789679 161.832199 
L 603.232558 157.590759 
L 606.021106 153.231057 
L 609.165468 148.737234 
L 612.677079 144.092944 
L 616.568713 139.281296 
L 620.854526 134.284786 
L 625.550106 129.085241 
L 632.478039 121.803878 
L 640.209799 114.080752 
L 648.795396 105.86591 
L 658.29036 97.106219 
L 668.756106 87.745022 
L 680.260325 77.721771 
L 696.214986 64.162486 
L 714.070342 49.330027 
L 734.006897 33.074446 
L 756.226196 15.231413 
L 776.67338 -1 
L 776.67338 -1 
" clip-path="url(#p4ccbfc246e)" style="fill: none; stroke: #2563eb; stroke-width: 2.5; stroke-linecap: square"/>
   </g>
   <g id="line2d_28">
    <path d="M 190.034411 420.144118 
L 224.79885 392.970532 
L 255.4362 368.751237 
L 282.392623 347.133532 
L 302.329178 330.877952 
L 320.184534 316.045492 
L 336.139195 302.486208 
L 350.354452 290.063025 
L 360.571408 280.857722 
L 369.83351 272.239412 
L 378.200663 264.15235 
L 385.726986 256.544231 
L 392.46116 249.365845 
L 397.018328 244.236042 
L 401.171088 239.303137 
L 404.934544 234.549188 
L 408.322387 229.956903 
L 411.346938 225.509578 
L 414.019199 221.191036 
L 416.34889 216.98557 
L 418.344485 212.877881 
L 420.013243 208.85303 
L 421.361234 204.896376 
L 422.39336 200.993528 
L 423.113377 197.130289 
L 423.523902 193.292607 
L 423.62643 189.466523 
L 423.421333 185.638121 
L 422.907865 181.793475 
L 422.084159 177.9186 
L 420.947218 173.999402 
L 419.492907 170.021626 
L 417.715936 165.970803 
L 415.609841 161.832199 
L 413.166962 157.590759 
L 410.378414 153.231057 
L 407.234052 148.737234 
L 403.722441 144.092944 
L 399.830807 139.281296 
L 395.544994 134.284786 
L 390.849414 129.085241 
L 383.921481 121.803878 
L 376.189721 114.080752 
L 367.604124 105.86591 
L 358.10916 97.106219 
L 347.643414 87.745022 
L 336.139195 77.721771 
L 320.184534 64.162486 
L 302.329178 49.330027 
L 282.392623 33.074446 
L 260.173324 15.231413 
L 239.72614 -1 
L 239.72614 -1 
" clip-path="url(#p4ccbfc246e)" style="fill: none; stroke: #2563eb; stroke-width: 2.5; stroke-linecap: square"/>
   </g>
   <g id="line2d_29">
    <path d="M 296.777113 348.670975 
L 301.048277 345.467601 
L 305.319442 342.264228 
L 309.590607 339.060854 
L 313.861771 335.857481 
L 318.132936 332.654107 
L 322.4041 329.450734 
L 326.675265 326.247361 
L 330.94643 323.043987 
L 335.217594 319.840614 
L 339.488759 316.63724 
L 343.759923 313.433867 
L 348.031088 310.230493 
L 352.302252 307.02712 
L 356.573417 303.823746 
L 360.844582 300.620373 
L 365.115746 297.417 
L 369.386911 294.213626 
L 373.658075 291.010253 
L 377.92924 287.806879 
L 382.200405 284.603506 
L 386.471569 281.400132 
L 390.742734 278.196759 
L 395.013898 274.993385 
L 399.285063 271.790012 
L 403.556228 268.586639 
L 407.827392 265.383265 
L 412.098557 262.179892 
L 416.369721 258.976518 
L 420.640886 255.773145 
L 424.912051 252.569771 
L 429.183215 249.366398 
L 433.45438 246.163024 
L 437.725544 242.959651 
L 441.996709 239.756278 
L 446.267873 236.552904 
L 450.539038 233.349531 
L 454.810203 230.146157 
L 459.081367 226.942784 
L 463.352532 223.73941 
L 467.623696 220.536037 
L 471.894861 217.332664 
L 476.166026 214.12929 
L 480.43719 210.925917 
L 484.708355 207.722543 
L 488.979519 204.51917 
L 493.250684 201.315796 
L 497.521849 198.112423 
L 501.793013 194.909049 
L 506.064178 191.705676 
L 510.335342 188.502303 
L 514.606507 185.298929 
L 518.877671 182.095556 
L 523.148836 178.892182 
L 527.420001 175.688809 
L 531.691165 172.485435 
L 535.96233 169.282062 
L 540.233494 166.078688 
L 544.504659 162.875315 
L 548.775824 159.671942 
L 553.046988 156.468568 
L 557.318153 153.265195 
L 561.589317 150.061821 
L 565.860482 146.858448 
L 570.131647 143.655074 
L 574.402811 140.451701 
L 578.673976 137.248327 
L 582.94514 134.044954 
L 587.216305 130.841581 
L 591.487469 127.638207 
L 595.758634 124.434834 
L 600.029799 121.23146 
L 604.300963 118.028087 
L 608.572128 114.824713 
L 612.843292 111.62134 
L 617.114457 108.417966 
L 621.385622 105.214593 
L 625.656786 102.01122 
L 629.927951 98.807846 
L 634.199115 95.604473 
L 638.47028 92.401099 
L 642.741445 89.197726 
L 647.012609 85.994352 
L 651.283774 82.790979 
L 655.554938 79.587606 
L 659.826103 76.384232 
L 664.097268 73.180859 
L 668.368432 69.977485 
L 672.639597 66.774112 
L 676.910761 63.570738 
L 681.181926 60.367365 
L 685.45309 57.163991 
L 689.724255 53.960618 
L 693.99542 50.757245 
L 698.266584 47.553871 
L 702.537749 44.350498 
L 706.808913 41.147124 
L 711.080078 37.943751 
L 715.351243 34.740377 
L 719.622407 31.537004 
" clip-path="url(#p4ccbfc246e)" style="fill: none; stroke-dasharray: 7.4,3.2; stroke-dashoffset: 0; stroke: #dc2626; stroke-width: 2"/>
   </g>
   <g id="line2d_30">
    <path d="M 296.777113 31.537004 
L 301.048277 34.740377 
L 305.319442 37.943751 
L 309.590607 41.147124 
L 313.861771 44.350498 
L 318.132936 47.553871 
L 322.4041 50.757245 
L 326.675265 53.960618 
L 330.94643 57.163991 
L 335.217594 60.367365 
L 339.488759 63.570738 
L 343.759923 66.774112 
L 348.031088 69.977485 
L 352.302252 73.180859 
L 356.573417 76.384232 
L 360.844582 79.587606 
L 365.115746 82.790979 
L 369.386911 85.994352 
L 373.658075 89.197726 
L 377.92924 92.401099 
L 382.200405 95.604473 
L 386.471569 98.807846 
L 390.742734 102.01122 
L 395.013898 105.214593 
L 399.285063 108.417966 
L 403.556228 111.62134 
L 407.827392 114.824713 
L 412.098557 118.028087 
L 416.369721 121.23146 
L 420.640886 124.434834 
L 424.912051 127.638207 
L 429.183215 130.841581 
L 433.45438 134.044954 
L 437.725544 137.248327 
L 441.996709 140.451701 
L 446.267873 143.655074 
L 450.539038 146.858448 
L 454.810203 150.061821 
L 459.081367 153.265195 
L 463.352532 156.468568 
L 467.623696 159.671942 
L 471.894861 162.875315 
L 476.166026 166.078688 
L 480.43719 169.282062 
L 484.708355 172.485435 
L 488.979519 175.688809 
L 493.250684 178.892182 
L 497.521849 182.095556 
L 501.793013 185.298929 
L 506.064178 188.502303 
L 510.335342 191.705676 
L 514.606507 194.909049 
L 518.877671 198.112423 
L 523.148836 201.315796 
L 527.420001 204.51917 
L 531.691165 207.722543 
L 535.96233 210.925917 
L 540.233494 214.12929 
L 544.504659 217.332664 
L 548.775824 220.536037 
L 553.046988 223.73941 
L 557.318153 226.942784 
L 561.589317 230.146157 
L 565.860482 233.349531 
L 570.131647 236.552904 
L 574.402811 239.756278 
L 578.673976 242.959651 
L 582.94514 246.163024 
L 587.216305 249.366398 
L 591.487469 252.569771 
L 595.758634 255.773145 
L 600.029799 258.976518 
L 604.300963 262.179892 
L 608.572128 265.383265 
L 612.843292 268.586639 
L 617.114457 271.790012 
L 621.385622 274.993385 
L 625.656786 278.196759 
L 629.927951 281.400132 
L 634.199115 284.603506 
L 638.47028 287.806879 
L 642.741445 291.010253 
L 647.012609 294.213626 
L 651.283774 297.417 
L 655.554938 300.620373 
L 659.826103 303.823746 
L 664.097268 307.02712 
L 668.368432 310.230493 
L 672.639597 313.433867 
L 676.910761 316.63724 
L 681.181926 319.840614 
L 685.45309 323.043987 
L 689.724255 326.247361 
L 693.99542 329.450734 
L 698.266584 332.654107 
L 702.537749 335.857481 
L 706.808913 339.060854 
L 711.080078 342.264228 
L 715.351243 345.467601 
L 719.622407 348.670975 
" clip-path="url(#p4ccbfc246e)" style="fill: none; stroke-dasharray: 7.4,3.2; stroke-dashoffset: 0; stroke: #dc2626; stroke-width: 2"/>
   </g>
   <g id="line2d_31">
    <path d="M 508.19976 190.103989 
L 592.768819 190.103989 
" clip-path="url(#p4ccbfc246e)" style="fill: none; stroke: #dc2626; stroke-width: 2.5; stroke-linecap: square"/>
   </g>
   <g id="line2d_32">
    <path d="M 423.630701 253.530783 
L 592.768819 253.530783 
L 592.768819 126.677195 
L 423.630701 126.677195 
L 423.630701 253.530783 
" clip-path="url(#p4ccbfc246e)" style="fill: none; stroke-dasharray: 1.5,2.475; stroke-dashoffset: 0; stroke: #9ca3af; stroke-width: 1.5"/>
   </g>
   <g id="line2d_33">
    <path d="M 508.19976 190.103989 
L 508.19976 126.677195 
" clip-path="url(#p4ccbfc246e)" style="fill: none; stroke: #7c3aed; stroke-width: 2.5; stroke-linecap: square"/>
   </g>
   <g id="line2d_34">
    <path d="M 621.305375 133.774274 
L 402.488436 190.103989 
" clip-path="url(#p4ccbfc246e)" style="fill: none; stroke-dasharray: 1.5,2.475; stroke-dashoffset: 0; stroke: #059669; stroke-opacity: 0.7; stroke-width: 1.5"/>
   </g>
   <g id="line2d_35">
    <path d="M 621.305375 133.774274 
L 613.911084 190.103989 
" clip-path="url(#p4ccbfc246e)" style="fill: none; stroke-dasharray: 1.5,2.475; stroke-dashoffset: 0; stroke: #059669; stroke-opacity: 0.7; stroke-width: 1.5"/>
   </g>
   <g id="patch_3">
    <path d="M 296.777113 338.099842 
L 296.777113 42.108136 
" style="fill: none; stroke: #000000; stroke-width: 1.5; stroke-linejoin: miter; stroke-linecap: square"/>
   </g>
   <g id="patch_4">
    <path d="M 719.622407 338.099842 
L 719.622407 42.108136 
" style="fill: none; stroke: #000000; stroke-width: 1.5; stroke-linejoin: miter; stroke-linecap: square"/>
   </g>
   <g id="patch_5">
    <path d="M 296.777113 338.099842 
L 719.622407 338.099842 
" style="fill: none; stroke: #000000; stroke-width: 1.5; stroke-linejoin: miter; stroke-linecap: square"/>
   </g>
   <g id="patch_6">
    <path d="M 296.777113 42.108136 
L 719.622407 42.108136 
" style="fill: none; stroke: #000000; stroke-width: 1.5; stroke-linejoin: miter; stroke-linecap: square"/>
   </g>
   <g id="text_13">
    <!-- C -->
    <g style="fill: #2563eb" transform="translate(516.656666 177.41863) scale(0.11 -0.11)">
     <defs>
      <path id="DejaVuSans-Bold-43" d="M 4288 256 
Q 3956 84 3597 -3 
Q 3238 -91 2847 -91 
Q 1681 -91 1000 561 
Q 319 1213 319 2328 
Q 319 3447 1000 4098 
Q 1681 4750 2847 4750 
Q 3238 4750 3597 4662 
Q 3956 4575 4288 4403 
L 4288 3438 
Q 3953 3666 3628 3772 
Q 3303 3878 2944 3878 
Q 2300 3878 1931 3465 
Q 1563 3053 1563 2328 
Q 1563 1606 1931 1193 
Q 2300 781 2944 781 
Q 3303 781 3628 887 
Q 3953 994 4288 1222 
L 4288 256 
z
" transform="scale(0.015625)"/>
     </defs>
     <use xlink:href="#DejaVuSans-Bold-43"/>
    </g>
   </g>
   <g id="text_14">
    <!-- $F_2$ -->
    <g style="fill: #f59e0b" transform="translate(622.367989 177.41863) scale(0.11 -0.11)">
     <defs>
      <path id="DejaVuSans-Oblique-46" d="M 1081 4666 
L 3756 4666 
L 3653 4134 
L 1606 4134 
L 1338 2759 
L 3188 2759 
L 3084 2228 
L 1234 2228 
L 800 0 
L 172 0 
L 1081 4666 
z
" transform="scale(0.015625)"/>
     </defs>
     <use xlink:href="#DejaVuSans-Oblique-46" transform="translate(0 0.09375)"/>
     <use xlink:href="#DejaVuSans-32" transform="translate(57.519531 -16.3125) scale(0.7)"/>
    </g>
   </g>
   <g id="text_15">
    <!-- $F_1$ -->
    <g style="fill: #f59e0b" transform="translate(381.346172 177.41863) scale(0.11 -0.11)">
     <use xlink:href="#DejaVuSans-Oblique-46" transform="translate(0 0.09375)"/>
     <use xlink:href="#DejaVuSans-31" transform="translate(57.519531 -16.3125) scale(0.7)"/>
    </g>
   </g>
   <g id="text_16">
    <!-- $V_2$ -->
    <g style="fill: #dc2626" transform="translate(601.225725 211.246254) scale(0.1 -0.1)">
     <defs>
      <path id="DejaVuSans-Oblique-56" d="M 1319 0 
L 500 4666 
L 1119 4666 
L 1797 653 
L 4063 4666 
L 4750 4666 
L 2053 0 
L 1319 0 
z
" transform="scale(0.015625)"/>
     </defs>
     <use xlink:href="#DejaVuSans-Oblique-56" transform="translate(0 0.09375)"/>
     <use xlink:href="#DejaVuSans-32" transform="translate(68.408203 -16.3125) scale(0.7)"/>
    </g>
   </g>
   <g id="text_17">
    <!-- $V_1$ -->
    <g style="fill: #dc2626" transform="translate(402.488436 211.246254) scale(0.1 -0.1)">
     <use xlink:href="#DejaVuSans-Oblique-56" transform="translate(0 0.09375)"/>
     <use xlink:href="#DejaVuSans-31" transform="translate(68.408203 -16.3125) scale(0.7)"/>
    </g>
   </g>
   <g id="text_18">
    <!-- a -->
    <g style="fill: #dc2626" transform="translate(545.760383 215.474707) scale(0.14 -0.14)">
     <defs>
      <path id="DejaVuSans-Bold-61" d="M 2106 1575 
Q 1756 1575 1579 1456 
Q 1403 1338 1403 1106 
Q 1403 894 1545 773 
Q 1688 653 1941 653 
Q 2256 653 2472 879 
Q 2688 1106 2688 1447 
L 2688 1575 
L 2106 1575 
z
M 3816 1997 
L 3816 0 
L 2688 0 
L 2688 519 
Q 2463 200 2181 54 
Q 1900 -91 1497 -91 
Q 953 -91 614 226 
Q 275 544 275 1050 
Q 275 1666 698 1953 
Q 1122 2241 2028 2241 
L 2688 2241 
L 2688 2328 
Q 2688 2594 2478 2717 
Q 2269 2841 1825 2841 
Q 1466 2841 1156 2769 
Q 847 2697 581 2553 
L 581 3406 
Q 941 3494 1303 3539 
Q 1666 3584 2028 3584 
Q 2975 3584 3395 3211 
Q 3816 2838 3816 1997 
z
" transform="scale(0.015625)"/>
     </defs>
     <use xlink:href="#DejaVuSans-Bold-61"/>
    </g>
   </g>
   <g id="text_19">
    <!-- b -->
    <g style="fill: #7c3aed" transform="translate(516.656666 158.390592) scale(0.14 -0.14)">
     <defs>
      <path id="DejaVuSans-Bold-62" d="M 2400 722 
Q 2759 722 2948 984 
Q 3138 1247 3138 1747 
Q 3138 2247 2948 2509 
Q 2759 2772 2400 2772 
Q 2041 2772 1848 2508 
Q 1656 2244 1656 1747 
Q 1656 1250 1848 986 
Q 2041 722 2400 722 
z
M 1656 2988 
Q 1888 3294 2169 3439 
Q 2450 3584 2816 3584 
Q 3463 3584 3878 3070 
Q 4294 2556 4294 1747 
Q 4294 938 3878 423 
Q 3463 -91 2816 -91 
Q 2450 -91 2169 54 
Q 1888 200 1656 506 
L 1656 0 
L 538 0 
L 538 4863 
L 1656 4863 
L 1656 2988 
z
" transform="scale(0.015625)"/>
     </defs>
     <use xlink:href="#DejaVuSans-Bold-62"/>
    </g>
   </g>
   <g id="text_20">
    <!-- P -->
    <g style="fill: #059669" transform="translate(629.762281 125.317368) scale(0.11 -0.11)">
     <defs>
      <path id="DejaVuSans-Bold-50" d="M 588 4666 
L 2584 4666 
Q 3475 4666 3951 4270 
Q 4428 3875 4428 3144 
Q 4428 2409 3951 2014 
Q 3475 1619 2584 1619 
L 1791 1619 
L 1791 0 
L 588 0 
L 588 4666 
z
M 1791 3794 
L 1791 2491 
L 2456 2491 
Q 2806 2491 2997 2661 
Q 3188 2831 3188 3144 
Q 3188 3456 2997 3625 
Q 2806 3794 2456 3794 
L 1791 3794 
z
" transform="scale(0.015625)"/>
     </defs>
     <use xlink:href="#DejaVuSans-Bold-50"/>
    </g>
   </g>
   <g id="text_21">
    <g id="patch_7">
     <path d="M 402.81976 322.897578 
L 613.57976 322.897578 
Q 616.87976 322.897578 616.87976 319.597578 
L 616.87976 308.157578 
Q 616.87976 304.857578 613.57976 304.857578 
L 402.81976 304.857578 
Q 399.51976 304.857578 399.51976 308.157578 
L 399.51976 319.597578 
Q 399.51976 322.897578 402.81976 322.897578 
z
" style="fill: #ffffff; stroke: #2563eb; stroke-linejoin: miter"/>
    </g>
    <!-- $|d_1 - d_2| = 2a$ (definición de hipérbola) -->
    <g style="fill: #1f2937" transform="translate(402.81976 316.957578) scale(0.11 -0.11)">
     <defs>
      <path id="DejaVuSans-7c" d="M 1344 4891 
L 1344 -1509 
L 813 -1509 
L 813 4891 
L 1344 4891 
z
" transform="scale(0.015625)"/>
      <path id="DejaVuSans-Oblique-64" d="M 2675 525 
Q 2444 222 2128 65 
Q 1813 -91 1428 -91 
Q 903 -91 598 267 
Q 294 625 294 1247 
Q 294 1766 478 2236 
Q 663 2706 1013 3078 
Q 1244 3325 1534 3454 
Q 1825 3584 2144 3584 
Q 2481 3584 2739 3421 
Q 2997 3259 3138 2956 
L 3513 4863 
L 4091 4863 
L 3144 0 
L 2566 0 
L 2675 525 
z
M 891 1350 
Q 891 897 1095 644 
Q 1300 391 1663 391 
Q 1931 391 2161 520 
Q 2391 650 2566 903 
Q 2750 1166 2856 1509 
Q 2963 1853 2963 2188 
Q 2963 2622 2758 2865 
Q 2553 3109 2194 3109 
Q 1922 3109 1687 2981 
Q 1453 2853 1288 2613 
Q 1106 2353 998 2009 
Q 891 1666 891 1350 
z
" transform="scale(0.015625)"/>
      <path id="DejaVuSans-3d" d="M 678 2906 
L 4684 2906 
L 4684 2381 
L 678 2381 
L 678 2906 
z
M 678 1631 
L 4684 1631 
L 4684 1100 
L 678 1100 
L 678 1631 
z
" transform="scale(0.015625)"/>
      <path id="DejaVuSans-Oblique-61" d="M 3438 1997 
L 3047 0 
L 2472 0 
L 2578 531 
Q 2325 219 2001 64 
Q 1678 -91 1281 -91 
Q 834 -91 548 182 
Q 263 456 263 884 
Q 263 1497 752 1853 
Q 1241 2209 2100 2209 
L 2900 2209 
L 2931 2363 
Q 2938 2388 2941 2417 
Q 2944 2447 2944 2509 
Q 2944 2788 2717 2942 
Q 2491 3097 2081 3097 
Q 1800 3097 1504 3025 
Q 1209 2953 897 2809 
L 997 3341 
Q 1322 3463 1633 3523 
Q 1944 3584 2234 3584 
Q 2853 3584 3176 3315 
Q 3500 3047 3500 2534 
Q 3500 2431 3484 2292 
Q 3469 2153 3438 1997 
z
M 2816 1759 
L 2241 1759 
Q 1534 1759 1195 1570 
Q 856 1381 856 984 
Q 856 709 1029 553 
Q 1203 397 1509 397 
Q 1978 397 2328 733 
Q 2678 1069 2791 1631 
L 2816 1759 
z
" transform="scale(0.015625)"/>
      <path id="DejaVuSans-20" transform="scale(0.015625)"/>
      <path id="DejaVuSans-28" d="M 1984 4856 
Q 1566 4138 1362 3434 
Q 1159 2731 1159 2009 
Q 1159 1288 1364 580 
Q 1569 -128 1984 -844 
L 1484 -844 
Q 1016 -109 783 600 
Q 550 1309 550 2009 
Q 550 2706 781 3412 
Q 1013 4119 1484 4856 
L 1984 4856 
z
" transform="scale(0.015625)"/>
      <path id="DejaVuSans-64" d="M 2906 2969 
L 2906 4863 
L 3481 4863 
L 3481 0 
L 2906 0 
L 2906 525 
Q 2725 213 2448 61 
Q 2172 -91 1784 -91 
Q 1150 -91 751 415 
Q 353 922 353 1747 
Q 353 2572 751 3078 
Q 1150 3584 1784 3584 
Q 2172 3584 2448 3432 
Q 2725 3281 2906 2969 
z
M 947 1747 
Q 947 1113 1208 752 
Q 1469 391 1925 391 
Q 2381 391 2643 752 
Q 2906 1113 2906 1747 
Q 2906 2381 2643 2742 
Q 2381 3103 1925 3103 
Q 1469 3103 1208 2742 
Q 947 2381 947 1747 
z
" transform="scale(0.015625)"/>
      <path id="DejaVuSans-65" d="M 3597 1894 
L 3597 1613 
L 953 1613 
Q 991 1019 1311 708 
Q 1631 397 2203 397 
Q 2534 397 2845 478 
Q 3156 559 3463 722 
L 3463 178 
Q 3153 47 2828 -22 
Q 2503 -91 2169 -91 
Q 1331 -91 842 396 
Q 353 884 353 1716 
Q 353 2575 817 3079 
Q 1281 3584 2069 3584 
Q 2775 3584 3186 3129 
Q 3597 2675 3597 1894 
z
M 3022 2063 
Q 3016 2534 2758 2815 
Q 2500 3097 2075 3097 
Q 1594 3097 1305 2825 
Q 1016 2553 972 2059 
L 3022 2063 
z
" transform="scale(0.015625)"/>
      <path id="DejaVuSans-66" d="M 2375 4863 
L 2375 4384 
L 1825 4384 
Q 1516 4384 1395 4259 
Q 1275 4134 1275 3809 
L 1275 3500 
L 2222 3500 
L 2222 3053 
L 1275 3053 
L 1275 0 
L 697 0 
L 697 3053 
L 147 3053 
L 147 3500 
L 697 3500 
L 697 3744 
Q 697 4328 969 4595 
Q 1241 4863 1831 4863 
L 2375 4863 
z
" transform="scale(0.015625)"/>
      <path id="DejaVuSans-69" d="M 603 3500 
L 1178 3500 
L 1178 0 
L 603 0 
L 603 3500 
z
M 603 4863 
L 1178 4863 
L 1178 4134 
L 603 4134 
L 603 4863 
z
" transform="scale(0.015625)"/>
      <path id="DejaVuSans-6e" d="M 3513 2113 
L 3513 0 
L 2938 0 
L 2938 2094 
Q 2938 2591 2744 2837 
Q 2550 3084 2163 3084 
Q 1697 3084 1428 2787 
Q 1159 2491 1159 1978 
L 1159 0 
L 581 0 
L 581 3500 
L 1159 3500 
L 1159 2956 
Q 1366 3272 1645 3428 
Q 1925 3584 2291 3584 
Q 2894 3584 3203 3211 
Q 3513 2838 3513 2113 
z
" transform="scale(0.015625)"/>
      <path id="DejaVuSans-63" d="M 3122 3366 
L 3122 2828 
Q 2878 2963 2633 3030 
Q 2388 3097 2138 3097 
Q 1578 3097 1268 2742 
Q 959 2388 959 1747 
Q 959 1106 1268 751 
Q 1578 397 2138 397 
Q 2388 397 2633 464 
Q 2878 531 3122 666 
L 3122 134 
Q 2881 22 2623 -34 
Q 2366 -91 2075 -91 
Q 1284 -91 818 406 
Q 353 903 353 1747 
Q 353 2603 823 3093 
Q 1294 3584 2113 3584 
Q 2378 3584 2631 3529 
Q 2884 3475 3122 3366 
z
" transform="scale(0.015625)"/>
      <path id="DejaVuSans-f3" d="M 1959 3097 
Q 1497 3097 1228 2736 
Q 959 2375 959 1747 
Q 959 1119 1226 758 
Q 1494 397 1959 397 
Q 2419 397 2687 759 
Q 2956 1122 2956 1747 
Q 2956 2369 2687 2733 
Q 2419 3097 1959 3097 
z
M 1959 3584 
Q 2709 3584 3137 3096 
Q 3566 2609 3566 1747 
Q 3566 888 3137 398 
Q 2709 -91 1959 -91 
Q 1206 -91 779 398 
Q 353 888 353 1747 
Q 353 2609 779 3096 
Q 1206 3584 1959 3584 
z
M 2394 5119 
L 3016 5119 
L 1998 3944 
L 1519 3944 
L 2394 5119 
z
" transform="scale(0.015625)"/>
      <path id="DejaVuSans-68" d="M 3513 2113 
L 3513 0 
L 2938 0 
L 2938 2094 
Q 2938 2591 2744 2837 
Q 2550 3084 2163 3084 
Q 1697 3084 1428 2787 
Q 1159 2491 1159 1978 
L 1159 0 
L 581 0 
L 581 4863 
L 1159 4863 
L 1159 2956 
Q 1366 3272 1645 3428 
Q 1925 3584 2291 3584 
Q 2894 3584 3203 3211 
Q 3513 2838 3513 2113 
z
" transform="scale(0.015625)"/>
      <path id="DejaVuSans-70" d="M 1159 525 
L 1159 -1331 
L 581 -1331 
L 581 3500 
L 1159 3500 
L 1159 2969 
Q 1341 3281 1617 3432 
Q 1894 3584 2278 3584 
Q 2916 3584 3314 3078 
Q 3713 2572 3713 1747 
Q 3713 922 3314 415 
Q 2916 -91 2278 -91 
Q 1894 -91 1617 61 
Q 1341 213 1159 525 
z
M 3116 1747 
Q 3116 2381 2855 2742 
Q 2594 3103 2138 3103 
Q 1681 3103 1420 2742 
Q 1159 2381 1159 1747 
Q 1159 1113 1420 752 
Q 1681 391 2138 391 
Q 2594 391 2855 752 
Q 3116 1113 3116 1747 
z
" transform="scale(0.015625)"/>
      <path id="DejaVuSans-e9" d="M 3597 1894 
L 3597 1613 
L 953 1613 
Q 991 1019 1311 708 
Q 1631 397 2203 397 
Q 2534 397 2845 478 
Q 3156 559 3463 722 
L 3463 178 
Q 3153 47 2828 -22 
Q 2503 -91 2169 -91 
Q 1331 -91 842 396 
Q 353 884 353 1716 
Q 353 2575 817 3079 
Q 1281 3584 2069 3584 
Q 2775 3584 3186 3129 
Q 3597 2675 3597 1894 
z
M 3022 2063 
Q 3016 2534 2758 2815 
Q 2500 3097 2075 3097 
Q 1594 3097 1305 2825 
Q 1016 2553 972 2059 
L 3022 2063 
z
M 2466 5119 
L 3088 5119 
L 2070 3944 
L 1591 3944 
L 2466 5119 
z
" transform="scale(0.015625)"/>
      <path id="DejaVuSans-72" d="M 2631 2963 
Q 2534 3019 2420 3045 
Q 2306 3072 2169 3072 
Q 1681 3072 1420 2755 
Q 1159 2438 1159 1844 
L 1159 0 
L 581 0 
L 581 3500 
L 1159 3500 
L 1159 2956 
Q 1341 3275 1631 3429 
Q 1922 3584 2338 3584 
Q 2397 3584 2469 3576 
Q 2541 3569 2628 3553 
L 2631 2963 
z
" transform="scale(0.015625)"/>
      <path id="DejaVuSans-62" d="M 3116 1747 
Q 3116 2381 2855 2742 
Q 2594 3103 2138 3103 
Q 1681 3103 1420 2742 
Q 1159 2381 1159 1747 
Q 1159 1113 1420 752 
Q 1681 391 2138 391 
Q 2594 391 2855 752 
Q 3116 1113 3116 1747 
z
M 1159 2969 
Q 1341 3281 1617 3432 
Q 1894 3584 2278 3584 
Q 2916 3584 3314 3078 
Q 3713 2572 3713 1747 
Q 3713 922 3314 415 
Q 2916 -91 2278 -91 
Q 1894 -91 1617 61 
Q 1341 213 1159 525 
L 1159 0 
L 581 0 
L 581 4863 
L 1159 4863 
L 1159 2969 
z
" transform="scale(0.015625)"/>
      <path id="DejaVuSans-6f" d="M 1959 3097 
Q 1497 3097 1228 2736 
Q 959 2375 959 1747 
Q 959 1119 1226 758 
Q 1494 397 1959 397 
Q 2419 397 2687 759 
Q 2956 1122 2956 1747 
Q 2956 2369 2687 2733 
Q 2419 3097 1959 3097 
z
M 1959 3584 
Q 2709 3584 3137 3096 
Q 3566 2609 3566 1747 
Q 3566 888 3137 398 
Q 2709 -91 1959 -91 
Q 1206 -91 779 398 
Q 353 888 353 1747 
Q 353 2609 779 3096 
Q 1206 3584 1959 3584 
z
" transform="scale(0.015625)"/>
      <path id="DejaVuSans-6c" d="M 603 4863 
L 1178 4863 
L 1178 0 
L 603 0 
L 603 4863 
z
" transform="scale(0.015625)"/>
      <path id="DejaVuSans-61" d="M 2194 1759 
Q 1497 1759 1228 1600 
Q 959 1441 959 1056 
Q 959 750 1161 570 
Q 1363 391 1709 391 
Q 2188 391 2477 730 
Q 2766 1069 2766 1631 
L 2766 1759 
L 2194 1759 
z
M 3341 1997 
L 3341 0 
L 2766 0 
L 2766 531 
Q 2569 213 2275 61 
Q 1981 -91 1556 -91 
Q 1019 -91 701 211 
Q 384 513 384 1019 
Q 384 1609 779 1909 
Q 1175 2209 1959 2209 
L 2766 2209 
L 2766 2266 
Q 2766 2663 2505 2880 
Q 2244 3097 1772 3097 
Q 1472 3097 1187 3025 
Q 903 2953 641 2809 
L 641 3341 
Q 956 3463 1253 3523 
Q 1550 3584 1831 3584 
Q 2591 3584 2966 3190 
Q 3341 2797 3341 1997 
z
" transform="scale(0.015625)"/>
      <path id="DejaVuSans-29" d="M 513 4856 
L 1013 4856 
Q 1481 4119 1714 3412 
Q 1947 2706 1947 2009 
Q 1947 1309 1714 600 
Q 1481 -109 1013 -844 
L 513 -844 
Q 928 -128 1133 580 
Q 1338 1288 1338 2009 
Q 1338 2731 1133 3434 
Q 928 4138 513 4856 
z
" transform="scale(0.015625)"/>
     </defs>
     <use xlink:href="#DejaVuSans-7c" transform="translate(0 0.015625)"/>
     <use xlink:href="#DejaVuSans-Oblique-64" transform="translate(33.691406 0.015625)"/>
     <use xlink:href="#DejaVuSans-31" transform="translate(97.167969 -16.390625) scale(0.7)"/>
     <use xlink:href="#DejaVuSans-2212" transform="translate(163.920898 0.015625)"/>
     <use xlink:href="#DejaVuSans-Oblique-64" transform="translate(267.192383 0.015625)"/>
     <use xlink:href="#DejaVuSans-32" transform="translate(330.668945 -16.390625) scale(0.7)"/>
     <use xlink:href="#DejaVuSans-7c" transform="translate(377.939453 0.015625)"/>
     <use xlink:href="#DejaVuSans-3d" transform="translate(431.113281 0.015625)"/>
     <use xlink:href="#DejaVuSans-32" transform="translate(534.384766 0.015625)"/>
     <use xlink:href="#DejaVuSans-Oblique-61" transform="translate(598.007812 0.015625)"/>
     <use xlink:href="#DejaVuSans-20" transform="translate(659.287109 0.015625)"/>
     <use xlink:href="#DejaVuSans-28" transform="translate(691.074219 0.015625)"/>
     <use xlink:href="#DejaVuSans-64" transform="translate(730.087891 0.015625)"/>
     <use xlink:href="#DejaVuSans-65" transform="translate(793.564453 0.015625)"/>
     <use xlink:href="#DejaVuSans-66" transform="translate(855.087891 0.015625)"/>
     <use xlink:href="#DejaVuSans-69" transform="translate(890.292969 0.015625)"/>
     <use xlink:href="#DejaVuSans-6e" transform="translate(918.076172 0.015625)"/>
     <use xlink:href="#DejaVuSans-69" transform="translate(981.455078 0.015625)"/>
     <use xlink:href="#DejaVuSans-63" transform="translate(1009.238281 0.015625)"/>
     <use xlink:href="#DejaVuSans-69" transform="translate(1064.21875 0.015625)"/>
     <use xlink:href="#DejaVuSans-f3" transform="translate(1092.001953 0.015625)"/>
     <use xlink:href="#DejaVuSans-6e" transform="translate(1153.183594 0.015625)"/>
     <use xlink:href="#DejaVuSans-20" transform="translate(1216.5625 0.015625)"/>
     <use xlink:href="#DejaVuSans-64" transform="translate(1248.349609 0.015625)"/>
     <use xlink:href="#DejaVuSans-65" transform="translate(1311.826172 0.015625)"/>
     <use xlink:href="#DejaVuSans-20" transform="translate(1373.349609 0.015625)"/>
     <use xlink:href="#DejaVuSans-68" transform="translate(1405.136719 0.015625)"/>
     <use xlink:href="#DejaVuSans-69" transform="translate(1468.515625 0.015625)"/>
     <use xlink:href="#DejaVuSans-70" transform="translate(1496.298828 0.015625)"/>
     <use xlink:href="#DejaVuSans-e9" transform="translate(1559.775391 0.015625)"/>
     <use xlink:href="#DejaVuSans-72" transform="translate(1621.298828 0.015625)"/>
     <use xlink:href="#DejaVuSans-62" transform="translate(1662.412109 0.015625)"/>
     <use xlink:href="#DejaVuSans-6f" transform="translate(1725.888672 0.015625)"/>
     <use xlink:href="#DejaVuSans-6c" transform="translate(1787.070312 0.015625)"/>
     <use xlink:href="#DejaVuSans-61" transform="translate(1814.853516 0.015625)"/>
     <use xlink:href="#DejaVuSans-29" transform="translate(1876.132812 0.015625)"/>
    </g>
   </g>
   <g id="text_22">
    <!-- Hipérbola con Eje Transverso Horizontal -->
    <g style="fill: #1f2937" transform="translate(384.093119 36.108136) scale(0.11 -0.11)">
     <defs>
      <path id="DejaVuSans-Bold-48" d="M 588 4666 
L 1791 4666 
L 1791 2888 
L 3566 2888 
L 3566 4666 
L 4769 4666 
L 4769 0 
L 3566 0 
L 3566 1978 
L 1791 1978 
L 1791 0 
L 588 0 
L 588 4666 
z
" transform="scale(0.015625)"/>
      <path id="DejaVuSans-Bold-69" d="M 538 3500 
L 1656 3500 
L 1656 0 
L 538 0 
L 538 3500 
z
M 538 4863 
L 1656 4863 
L 1656 3950 
L 538 3950 
L 538 4863 
z
" transform="scale(0.015625)"/>
      <path id="DejaVuSans-Bold-70" d="M 1656 506 
L 1656 -1331 
L 538 -1331 
L 538 3500 
L 1656 3500 
L 1656 2988 
Q 1888 3294 2169 3439 
Q 2450 3584 2816 3584 
Q 3463 3584 3878 3070 
Q 4294 2556 4294 1747 
Q 4294 938 3878 423 
Q 3463 -91 2816 -91 
Q 2450 -91 2169 54 
Q 1888 200 1656 506 
z
M 2400 2772 
Q 2041 2772 1848 2508 
Q 1656 2244 1656 1747 
Q 1656 1250 1848 986 
Q 2041 722 2400 722 
Q 2759 722 2948 984 
Q 3138 1247 3138 1747 
Q 3138 2247 2948 2509 
Q 2759 2772 2400 2772 
z
" transform="scale(0.015625)"/>
      <path id="DejaVuSans-Bold-e9" d="M 4031 1759 
L 4031 1441 
L 1416 1441 
Q 1456 1047 1700 850 
Q 1944 653 2381 653 
Q 2734 653 3104 758 
Q 3475 863 3866 1075 
L 3866 213 
Q 3469 63 3072 -14 
Q 2675 -91 2278 -91 
Q 1328 -91 801 392 
Q 275 875 275 1747 
Q 275 2603 792 3093 
Q 1309 3584 2216 3584 
Q 3041 3584 3536 3087 
Q 4031 2591 4031 1759 
z
M 2881 2131 
Q 2881 2450 2695 2645 
Q 2509 2841 2209 2841 
Q 1884 2841 1681 2658 
Q 1478 2475 1428 2131 
L 2881 2131 
z
M 2702 5119 
L 3586 5119 
L 2433 3944 
L 1821 3944 
L 2702 5119 
z
" transform="scale(0.015625)"/>
      <path id="DejaVuSans-Bold-72" d="M 3138 2547 
Q 2991 2616 2845 2648 
Q 2700 2681 2553 2681 
Q 2122 2681 1889 2404 
Q 1656 2128 1656 1613 
L 1656 0 
L 538 0 
L 538 3500 
L 1656 3500 
L 1656 2925 
Q 1872 3269 2151 3426 
Q 2431 3584 2822 3584 
Q 2878 3584 2943 3579 
Q 3009 3575 3134 3559 
L 3138 2547 
z
" transform="scale(0.015625)"/>
      <path id="DejaVuSans-Bold-6f" d="M 2203 2784 
Q 1831 2784 1636 2517 
Q 1441 2250 1441 1747 
Q 1441 1244 1636 976 
Q 1831 709 2203 709 
Q 2569 709 2762 976 
Q 2956 1244 2956 1747 
Q 2956 2250 2762 2517 
Q 2569 2784 2203 2784 
z
M 2203 3584 
Q 3106 3584 3614 3096 
Q 4122 2609 4122 1747 
Q 4122 884 3614 396 
Q 3106 -91 2203 -91 
Q 1297 -91 786 396 
Q 275 884 275 1747 
Q 275 2609 786 3096 
Q 1297 3584 2203 3584 
z
" transform="scale(0.015625)"/>
      <path id="DejaVuSans-Bold-6c" d="M 538 4863 
L 1656 4863 
L 1656 0 
L 538 0 
L 538 4863 
z
" transform="scale(0.015625)"/>
      <path id="DejaVuSans-Bold-20" transform="scale(0.015625)"/>
      <path id="DejaVuSans-Bold-63" d="M 3366 3391 
L 3366 2478 
Q 3138 2634 2908 2709 
Q 2678 2784 2431 2784 
Q 1963 2784 1702 2511 
Q 1441 2238 1441 1747 
Q 1441 1256 1702 982 
Q 1963 709 2431 709 
Q 2694 709 2930 787 
Q 3166 866 3366 1019 
L 3366 103 
Q 3103 6 2833 -42 
Q 2563 -91 2291 -91 
Q 1344 -91 809 395 
Q 275 881 275 1747 
Q 275 2613 809 3098 
Q 1344 3584 2291 3584 
Q 2566 3584 2833 3536 
Q 3100 3488 3366 3391 
z
" transform="scale(0.015625)"/>
      <path id="DejaVuSans-Bold-6e" d="M 4056 2131 
L 4056 0 
L 2931 0 
L 2931 347 
L 2931 1631 
Q 2931 2084 2911 2256 
Q 2891 2428 2841 2509 
Q 2775 2619 2662 2680 
Q 2550 2741 2406 2741 
Q 2056 2741 1856 2470 
Q 1656 2200 1656 1722 
L 1656 0 
L 538 0 
L 538 3500 
L 1656 3500 
L 1656 2988 
Q 1909 3294 2193 3439 
Q 2478 3584 2822 3584 
Q 3428 3584 3742 3212 
Q 4056 2841 4056 2131 
z
" transform="scale(0.015625)"/>
      <path id="DejaVuSans-Bold-45" d="M 588 4666 
L 3834 4666 
L 3834 3756 
L 1791 3756 
L 1791 2888 
L 3713 2888 
L 3713 1978 
L 1791 1978 
L 1791 909 
L 3903 909 
L 3903 0 
L 588 0 
L 588 4666 
z
" transform="scale(0.015625)"/>
      <path id="DejaVuSans-Bold-6a" d="M 538 3500 
L 1656 3500 
L 1656 63 
Q 1656 -641 1318 -1011 
Q 981 -1381 341 -1381 
L -213 -1381 
L -213 -647 
L -19 -647 
Q 300 -647 419 -503 
Q 538 -359 538 63 
L 538 3500 
z
M 538 4863 
L 1656 4863 
L 1656 3950 
L 538 3950 
L 538 4863 
z
" transform="scale(0.015625)"/>
      <path id="DejaVuSans-Bold-65" d="M 4031 1759 
L 4031 1441 
L 1416 1441 
Q 1456 1047 1700 850 
Q 1944 653 2381 653 
Q 2734 653 3104 758 
Q 3475 863 3866 1075 
L 3866 213 
Q 3469 63 3072 -14 
Q 2675 -91 2278 -91 
Q 1328 -91 801 392 
Q 275 875 275 1747 
Q 275 2603 792 3093 
Q 1309 3584 2216 3584 
Q 3041 3584 3536 3087 
Q 4031 2591 4031 1759 
z
M 2881 2131 
Q 2881 2450 2695 2645 
Q 2509 2841 2209 2841 
Q 1884 2841 1681 2658 
Q 1478 2475 1428 2131 
L 2881 2131 
z
" transform="scale(0.015625)"/>
      <path id="DejaVuSans-Bold-54" d="M 31 4666 
L 4331 4666 
L 4331 3756 
L 2784 3756 
L 2784 0 
L 1581 0 
L 1581 3756 
L 31 3756 
L 31 4666 
z
" transform="scale(0.015625)"/>
      <path id="DejaVuSans-Bold-73" d="M 3272 3391 
L 3272 2541 
Q 2913 2691 2578 2766 
Q 2244 2841 1947 2841 
Q 1628 2841 1473 2761 
Q 1319 2681 1319 2516 
Q 1319 2381 1436 2309 
Q 1553 2238 1856 2203 
L 2053 2175 
Q 2913 2066 3209 1816 
Q 3506 1566 3506 1031 
Q 3506 472 3093 190 
Q 2681 -91 1863 -91 
Q 1516 -91 1145 -36 
Q 775 19 384 128 
L 384 978 
Q 719 816 1070 734 
Q 1422 653 1784 653 
Q 2113 653 2278 743 
Q 2444 834 2444 1013 
Q 2444 1163 2330 1236 
Q 2216 1309 1875 1350 
L 1678 1375 
Q 931 1469 631 1722 
Q 331 1975 331 2491 
Q 331 3047 712 3315 
Q 1094 3584 1881 3584 
Q 2191 3584 2531 3537 
Q 2872 3491 3272 3391 
z
" transform="scale(0.015625)"/>
      <path id="DejaVuSans-Bold-76" d="M 97 3500 
L 1216 3500 
L 2088 1081 
L 2956 3500 
L 4078 3500 
L 2700 0 
L 1472 0 
L 97 3500 
z
" transform="scale(0.015625)"/>
      <path id="DejaVuSans-Bold-7a" d="M 366 3500 
L 3419 3500 
L 3419 2719 
L 1575 800 
L 3419 800 
L 3419 0 
L 288 0 
L 288 781 
L 2131 2700 
L 366 2700 
L 366 3500 
z
" transform="scale(0.015625)"/>
      <path id="DejaVuSans-Bold-74" d="M 1759 4494 
L 1759 3500 
L 2913 3500 
L 2913 2700 
L 1759 2700 
L 1759 1216 
Q 1759 972 1856 886 
Q 1953 800 2241 800 
L 2816 800 
L 2816 0 
L 1856 0 
Q 1194 0 917 276 
Q 641 553 641 1216 
L 641 2700 
L 84 2700 
L 84 3500 
L 641 3500 
L 641 4494 
L 1759 4494 
z
" transform="scale(0.015625)"/>
     </defs>
     <use xlink:href="#DejaVuSans-Bold-48"/>
     <use xlink:href="#DejaVuSans-Bold-69" transform="translate(83.691406 0)"/>
     <use xlink:href="#DejaVuSans-Bold-70" transform="translate(117.96875 0)"/>
     <use xlink:href="#DejaVuSans-Bold-e9" transform="translate(189.550781 0)"/>
     <use xlink:href="#DejaVuSans-Bold-72" transform="translate(257.373047 0)"/>
     <use xlink:href="#DejaVuSans-Bold-62" transform="translate(306.689453 0)"/>
     <use xlink:href="#DejaVuSans-Bold-6f" transform="translate(378.271484 0)"/>
     <use xlink:href="#DejaVuSans-Bold-6c" transform="translate(446.972656 0)"/>
     <use xlink:href="#DejaVuSans-Bold-61" transform="translate(481.25 0)"/>
     <use xlink:href="#DejaVuSans-Bold-20" transform="translate(548.730469 0)"/>
     <use xlink:href="#DejaVuSans-Bold-63" transform="translate(583.544922 0)"/>
     <use xlink:href="#DejaVuSans-Bold-6f" transform="translate(642.822266 0)"/>
     <use xlink:href="#DejaVuSans-Bold-6e" transform="translate(711.523438 0)"/>
     <use xlink:href="#DejaVuSans-Bold-20" transform="translate(782.714844 0)"/>
     <use xlink:href="#DejaVuSans-Bold-45" transform="translate(817.529297 0)"/>
     <use xlink:href="#DejaVuSans-Bold-6a" transform="translate(885.839844 0)"/>
     <use xlink:href="#DejaVuSans-Bold-65" transform="translate(920.117188 0)"/>
     <use xlink:href="#DejaVuSans-Bold-20" transform="translate(987.939453 0)"/>
     <use xlink:href="#DejaVuSans-Bold-54" transform="translate(1022.753906 0)"/>
     <use xlink:href="#DejaVuSans-Bold-72" transform="translate(1079.966797 0)"/>
     <use xlink:href="#DejaVuSans-Bold-61" transform="translate(1129.283203 0)"/>
     <use xlink:href="#DejaVuSans-Bold-6e" transform="translate(1196.763672 0)"/>
     <use xlink:href="#DejaVuSans-Bold-73" transform="translate(1267.955078 0)"/>
     <use xlink:href="#DejaVuSans-Bold-76" transform="translate(1327.476562 0)"/>
     <use xlink:href="#DejaVuSans-Bold-65" transform="translate(1392.662109 0)"/>
     <use xlink:href="#DejaVuSans-Bold-72" transform="translate(1460.484375 0)"/>
     <use xlink:href="#DejaVuSans-Bold-73" transform="translate(1509.800781 0)"/>
     <use xlink:href="#DejaVuSans-Bold-6f" transform="translate(1569.322266 0)"/>
     <use xlink:href="#DejaVuSans-Bold-20" transform="translate(1638.023438 0)"/>
     <use xlink:href="#DejaVuSans-Bold-48" transform="translate(1672.837891 0)"/>
     <use xlink:href="#DejaVuSans-Bold-6f" transform="translate(1756.529297 0)"/>
     <use xlink:href="#DejaVuSans-Bold-72" transform="translate(1825.230469 0)"/>
     <use xlink:href="#DejaVuSans-Bold-69" transform="translate(1874.546875 0)"/>
     <use xlink:href="#DejaVuSans-Bold-7a" transform="translate(1908.824219 0)"/>
     <use xlink:href="#DejaVuSans-Bold-6f" transform="translate(1967.027344 0)"/>
     <use xlink:href="#DejaVuSans-Bold-6e" transform="translate(2035.728516 0)"/>
     <use xlink:href="#DejaVuSans-Bold-74" transform="translate(2106.919922 0)"/>
     <use xlink:href="#DejaVuSans-Bold-61" transform="translate(2154.722656 0)"/>
     <use xlink:href="#DejaVuSans-Bold-6c" transform="translate(2222.203125 0)"/>
    </g>
   </g>
   <g id="line2d_36">
    <defs>
     <path id="m173e26b8ff" d="M 0 4 
C 1.060812 4 2.078319 3.578535 2.828427 2.828427 
C 3.578535 2.078319 4 1.060812 4 0 
C 4 -1.060812 3.578535 -2.078319 2.828427 -2.828427 
C 2.078319 -3.578535 1.060812 -4 0 -4 
C -1.060812 -4 -2.078319 -3.578535 -2.828427 -2.828427 
C -3.578535 -2.078319 -4 -1.060812 -4 0 
C -4 1.060812 -3.578535 2.078319 -2.828427 2.828427 
C -2.078319 3.578535 -1.060812 4 0 4 
z
" style="stroke: #2563eb"/>
    </defs>
    <g clip-path="url(#p4ccbfc246e)">
     <use xlink:href="#m173e26b8ff" x="508.19976" y="190.103989" style="fill: #2563eb; stroke: #2563eb"/>
    </g>
   </g>
   <g id="line2d_37">
    <defs>
     <path id="mdd95ae0212" d="M 0 -7.5 
L -1.683855 -2.317627 
L -7.132924 -2.317627 
L -2.724534 0.885255 
L -4.408389 6.067627 
L -0 2.864745 
L 4.408389 6.067627 
L 2.724534 0.885255 
L 7.132924 -2.317627 
L 1.683855 -2.317627 
z
" style="stroke: #f59e0b; stroke-linejoin: bevel"/>
    </defs>
    <g clip-path="url(#p4ccbfc246e)">
     <use xlink:href="#mdd95ae0212" x="613.911084" y="190.103989" style="fill: #f59e0b; stroke: #f59e0b; stroke-linejoin: bevel"/>
    </g>
   </g>
   <g id="line2d_38">
    <g clip-path="url(#p4ccbfc246e)">
     <use xlink:href="#mdd95ae0212" x="402.488436" y="190.103989" style="fill: #f59e0b; stroke: #f59e0b; stroke-linejoin: bevel"/>
    </g>
   </g>
   <g id="line2d_39">
    <defs>
     <path id="m459b5d5988" d="M 0 4 
C 1.060812 4 2.078319 3.578535 2.828427 2.828427 
C 3.578535 2.078319 4 1.060812 4 0 
C 4 -1.060812 3.578535 -2.078319 2.828427 -2.828427 
C 2.078319 -3.578535 1.060812 -4 0 -4 
C -1.060812 -4 -2.078319 -3.578535 -2.828427 -2.828427 
C -3.578535 -2.078319 -4 -1.060812 -4 0 
C -4 1.060812 -3.578535 2.078319 -2.828427 2.828427 
C -2.078319 3.578535 -1.060812 4 0 4 
z
" style="stroke: #dc2626"/>
    </defs>
    <g clip-path="url(#p4ccbfc246e)">
     <use xlink:href="#m459b5d5988" x="592.768819" y="190.103989" style="fill: #dc2626; stroke: #dc2626"/>
    </g>
   </g>
   <g id="line2d_40">
    <g clip-path="url(#p4ccbfc246e)">
     <use xlink:href="#m459b5d5988" x="423.630701" y="190.103989" style="fill: #dc2626; stroke: #dc2626"/>
    </g>
   </g>
   <g id="line2d_41">
    <defs>
     <path id="m5f94c2a3b9" d="M 0 5 
C 1.326016 5 2.597899 4.473168 3.535534 3.535534 
C 4.473168 2.597899 5 1.326016 5 0 
C 5 -1.326016 4.473168 -2.597899 3.535534 -3.535534 
C 2.597899 -4.473168 1.326016 -5 0 -5 
C -1.326016 -5 -2.597899 -4.473168 -3.535534 -3.535534 
C -4.473168 -2.597899 -5 -1.326016 -5 0 
C -5 1.326016 -4.473168 2.597899 -3.535534 3.535534 
C -2.597899 4.473168 -1.326016 5 0 5 
z
" style="stroke: #059669"/>
    </defs>
    <g clip-path="url(#p4ccbfc246e)">
     <use xlink:href="#m5f94c2a3b9" x="621.305375" y="133.774274" style="fill: #059669; stroke: #059669"/>
    </g>
   </g>
   <g id="legend_1">
    <g id="patch_8">
     <path d="M 602.442407 65.148136 
L 713.322407 65.148136 
Q 715.122407 65.148136 715.122407 63.348136 
L 715.122407 48.408136 
Q 715.122407 46.608136 713.322407 46.608136 
L 602.442407 46.608136 
Q 600.642407 46.608136 600.642407 48.408136 
L 600.642407 63.348136 
Q 600.642407 65.148136 602.442407 65.148136 
z
" style="fill: #ffffff; opacity: 0.8; stroke: #cccccc; stroke-linejoin: miter"/>
    </g>
    <g id="line2d_42">
     <path d="M 604.242407 55.878136 
L 613.242407 55.878136 
L 622.242407 55.878136 
" style="fill: none; stroke-dasharray: 7.4,3.2; stroke-dashoffset: 0; stroke: #dc2626; stroke-width: 2"/>
    </g>
    <g id="text_23">
     <!-- Asíntotas: $y = \pm\frac{b}{a}x$ -->
     <g style="fill: #1f2937" transform="translate(629.442407 59.028136) scale(0.09 -0.09)">
      <defs>
       <path id="DejaVuSans-41" d="M 2188 4044 
L 1331 1722 
L 3047 1722 
L 2188 4044 
z
M 1831 4666 
L 2547 4666 
L 4325 0 
L 3669 0 
L 3244 1197 
L 1141 1197 
L 716 0 
L 50 0 
L 1831 4666 
z
" transform="scale(0.015625)"/>
       <path id="DejaVuSans-73" d="M 2834 3397 
L 2834 2853 
Q 2591 2978 2328 3040 
Q 2066 3103 1784 3103 
Q 1356 3103 1142 2972 
Q 928 2841 928 2578 
Q 928 2378 1081 2264 
Q 1234 2150 1697 2047 
L 1894 2003 
Q 2506 1872 2764 1633 
Q 3022 1394 3022 966 
Q 3022 478 2636 193 
Q 2250 -91 1575 -91 
Q 1294 -91 989 -36 
Q 684 19 347 128 
L 347 722 
Q 666 556 975 473 
Q 1284 391 1588 391 
Q 1994 391 2212 530 
Q 2431 669 2431 922 
Q 2431 1156 2273 1281 
Q 2116 1406 1581 1522 
L 1381 1569 
Q 847 1681 609 1914 
Q 372 2147 372 2553 
Q 372 3047 722 3315 
Q 1072 3584 1716 3584 
Q 2034 3584 2315 3537 
Q 2597 3491 2834 3397 
z
" transform="scale(0.015625)"/>
       <path id="DejaVuSans-ed" d="M 1322 5119 
L 1944 5119 
L 926 3944 
L 447 3944 
L 1322 5119 
z
M 603 3500 
L 1178 3500 
L 1178 0 
L 603 0 
L 603 3500 
z
M 891 3584 
L 891 3584 
z
" transform="scale(0.015625)"/>
       <path id="DejaVuSans-74" d="M 1172 4494 
L 1172 3500 
L 2356 3500 
L 2356 3053 
L 1172 3053 
L 1172 1153 
Q 1172 725 1289 603 
Q 1406 481 1766 481 
L 2356 481 
L 2356 0 
L 1766 0 
Q 1100 0 847 248 
Q 594 497 594 1153 
L 594 3053 
L 172 3053 
L 172 3500 
L 594 3500 
L 594 4494 
L 1172 4494 
z
" transform="scale(0.015625)"/>
       <path id="DejaVuSans-3a" d="M 750 794 
L 1409 794 
L 1409 0 
L 750 0 
L 750 794 
z
M 750 3309 
L 1409 3309 
L 1409 2516 
L 750 2516 
L 750 3309 
z
" transform="scale(0.015625)"/>
       <path id="DejaVuSans-Oblique-79" d="M 1588 -325 
Q 1188 -997 936 -1164 
Q 684 -1331 294 -1331 
L -159 -1331 
L -63 -850 
L 269 -850 
Q 509 -850 678 -719 
Q 847 -588 1056 -206 
L 1234 128 
L 459 3500 
L 1069 3500 
L 1650 819 
L 3256 3500 
L 3859 3500 
L 1588 -325 
z
" transform="scale(0.015625)"/>
       <path id="DejaVuSans-b1" d="M 2944 4013 
L 2944 2803 
L 4684 2803 
L 4684 2272 
L 2944 2272 
L 2944 1063 
L 2419 1063 
L 2419 2272 
L 678 2272 
L 678 2803 
L 2419 2803 
L 2419 4013 
L 2944 4013 
z
M 678 531 
L 4684 531 
L 4684 0 
L 678 0 
L 678 531 
z
" transform="scale(0.015625)"/>
       <path id="DejaVuSans-Oblique-62" d="M 3169 2138 
Q 3169 2591 2961 2847 
Q 2753 3103 2388 3103 
Q 2122 3103 1889 2973 
Q 1656 2844 1484 2597 
Q 1303 2338 1198 1995 
Q 1094 1653 1094 1313 
Q 1094 881 1298 636 
Q 1503 391 1863 391 
Q 2134 391 2365 517 
Q 2597 644 2772 891 
Q 2950 1147 3059 1487 
Q 3169 1828 3169 2138 
z
M 1381 2969 
Q 1594 3256 1914 3420 
Q 2234 3584 2584 3584 
Q 3122 3584 3439 3221 
Q 3756 2859 3756 2241 
Q 3756 1734 3570 1259 
Q 3384 784 3041 416 
Q 2816 172 2522 40 
Q 2228 -91 1906 -91 
Q 1566 -91 1316 65 
Q 1066 222 909 531 
L 806 0 
L 231 0 
L 1178 4863 
L 1753 4863 
L 1381 2969 
z
" transform="scale(0.015625)"/>
       <path id="DejaVuSans-Oblique-78" d="M 3841 3500 
L 2234 1784 
L 3219 0 
L 2559 0 
L 1819 1388 
L 531 0 
L -166 0 
L 1556 1844 
L 641 3500 
L 1300 3500 
L 1972 2234 
L 3144 3500 
L 3841 3500 
z
" transform="scale(0.015625)"/>
      </defs>
      <use xlink:href="#DejaVuSans-41" transform="translate(0 0.01875)"/>
      <use xlink:href="#DejaVuSans-73" transform="translate(68.408203 0.01875)"/>
      <use xlink:href="#DejaVuSans-ed" transform="translate(120.507812 0.01875)"/>
      <use xlink:href="#DejaVuSans-6e" transform="translate(148.291016 0.01875)"/>
      <use xlink:href="#DejaVuSans-74" transform="translate(211.669922 0.01875)"/>
      <use xlink:href="#DejaVuSans-6f" transform="translate(250.878906 0.01875)"/>
      <use xlink:href="#DejaVuSans-74" transform="translate(312.060547 0.01875)"/>
      <use xlink:href="#DejaVuSans-61" transform="translate(351.269531 0.01875)"/>
      <use xlink:href="#DejaVuSans-73" transform="translate(412.548828 0.01875)"/>
      <use xlink:href="#DejaVuSans-3a" transform="translate(464.648438 0.01875)"/>
      <use xlink:href="#DejaVuSans-20" transform="translate(498.339844 0.01875)"/>
      <use xlink:href="#DejaVuSans-Oblique-79" transform="translate(530.126953 0.01875)"/>
      <use xlink:href="#DejaVuSans-3d" transform="translate(608.789062 0.01875)"/>
      <use xlink:href="#DejaVuSans-b1" transform="translate(712.060547 0.01875)"/>
      <use xlink:href="#DejaVuSans-Oblique-62" transform="translate(795.849609 44.810938) scale(0.7)"/>
      <use xlink:href="#DejaVuSans-Oblique-61" transform="translate(796.849609 -26.634375) scale(0.7)"/>
      <use xlink:href="#DejaVuSans-Oblique-78" transform="translate(852.783203 0.01875)"/>
      <path d="M 795.849609 18.815625 
L 795.849609 25.065625 
L 840.283203 25.065625 
L 840.283203 18.815625 
L 795.849609 18.815625 
z
"/>
     </g>
    </g>
   </g>
  </g>
  <g id="axes_2">
   <g id="patch_9">
    <path d="M 19.961993 523.97226 
L 419.837767 523.97226 
L 419.837767 444.282185 
L 19.961993 444.282185 
z
" clip-path="url(#p2f8e865bb6)" style="fill: #eff6ff; stroke: #dc2626; stroke-width: 1.5; stroke-linejoin: miter"/>
   </g>
   <g id="patch_10">
    <path d="M 19.961993 621.877209 
L 419.837767 621.877209 
L 419.837767 535.356556 
L 19.961993 535.356556 
z
" clip-path="url(#p2f8e865bb6)" style="fill: #f0fdf4; stroke: #7c3aed; stroke-width: 1.5; stroke-linejoin: miter"/>
   </g>
   <g id="text_24">
    <!-- ECUACIONES CANÓNICAS -->
    <g style="fill: #2563eb" transform="translate(142.086911 432.897889) scale(0.11 -0.11)">
     <defs>
      <path id="DejaVuSans-Bold-55" d="M 588 4666 
L 1791 4666 
L 1791 1869 
Q 1791 1291 1980 1042 
Q 2169 794 2597 794 
Q 3028 794 3217 1042 
Q 3406 1291 3406 1869 
L 3406 4666 
L 4609 4666 
L 4609 1869 
Q 4609 878 4112 393 
Q 3616 -91 2597 -91 
Q 1581 -91 1084 393 
Q 588 878 588 1869 
L 588 4666 
z
" transform="scale(0.015625)"/>
      <path id="DejaVuSans-Bold-41" d="M 3419 850 
L 1538 850 
L 1241 0 
L 31 0 
L 1759 4666 
L 3194 4666 
L 4922 0 
L 3713 0 
L 3419 850 
z
M 1838 1716 
L 3116 1716 
L 2478 3572 
L 1838 1716 
z
" transform="scale(0.015625)"/>
      <path id="DejaVuSans-Bold-49" d="M 588 4666 
L 1791 4666 
L 1791 0 
L 588 0 
L 588 4666 
z
" transform="scale(0.015625)"/>
      <path id="DejaVuSans-Bold-4f" d="M 2719 3878 
Q 2169 3878 1866 3472 
Q 1563 3066 1563 2328 
Q 1563 1594 1866 1187 
Q 2169 781 2719 781 
Q 3272 781 3575 1187 
Q 3878 1594 3878 2328 
Q 3878 3066 3575 3472 
Q 3272 3878 2719 3878 
z
M 2719 4750 
Q 3844 4750 4481 4106 
Q 5119 3463 5119 2328 
Q 5119 1197 4481 553 
Q 3844 -91 2719 -91 
Q 1597 -91 958 553 
Q 319 1197 319 2328 
Q 319 3463 958 4106 
Q 1597 4750 2719 4750 
z
" transform="scale(0.015625)"/>
      <path id="DejaVuSans-Bold-4e" d="M 588 4666 
L 1931 4666 
L 3628 1466 
L 3628 4666 
L 4769 4666 
L 4769 0 
L 3425 0 
L 1728 3200 
L 1728 0 
L 588 0 
L 588 4666 
z
" transform="scale(0.015625)"/>
      <path id="DejaVuSans-Bold-53" d="M 3834 4519 
L 3834 3531 
Q 3450 3703 3084 3790 
Q 2719 3878 2394 3878 
Q 1963 3878 1756 3759 
Q 1550 3641 1550 3391 
Q 1550 3203 1689 3098 
Q 1828 2994 2194 2919 
L 2706 2816 
Q 3484 2659 3812 2340 
Q 4141 2022 4141 1434 
Q 4141 663 3683 286 
Q 3225 -91 2284 -91 
Q 1841 -91 1394 -6 
Q 947 78 500 244 
L 500 1259 
Q 947 1022 1364 901 
Q 1781 781 2169 781 
Q 2563 781 2772 912 
Q 2981 1044 2981 1288 
Q 2981 1506 2839 1625 
Q 2697 1744 2272 1838 
L 1806 1941 
Q 1106 2091 782 2419 
Q 459 2747 459 3303 
Q 459 4000 909 4375 
Q 1359 4750 2203 4750 
Q 2588 4750 2994 4692 
Q 3400 4634 3834 4519 
z
" transform="scale(0.015625)"/>
      <path id="DejaVuSans-Bold-d3" d="M 2719 3878 
Q 2169 3878 1866 3472 
Q 1563 3066 1563 2328 
Q 1563 1594 1866 1187 
Q 2169 781 2719 781 
Q 3272 781 3575 1187 
Q 3878 1594 3878 2328 
Q 3878 3066 3575 3472 
Q 3272 3878 2719 3878 
z
M 2719 4750 
Q 3844 4750 4481 4106 
Q 5119 3463 5119 2328 
Q 5119 1197 4481 553 
Q 3844 -91 2719 -91 
Q 1597 -91 958 553 
Q 319 1197 319 2328 
Q 319 3463 958 4106 
Q 1597 4750 2719 4750 
z
M 2799 5921 
L 3684 5921 
L 2793 5096 
L 2181 5096 
L 2799 5921 
z
" transform="scale(0.015625)"/>
     </defs>
     <use xlink:href="#DejaVuSans-Bold-45"/>
     <use xlink:href="#DejaVuSans-Bold-43" transform="translate(68.310547 0)"/>
     <use xlink:href="#DejaVuSans-Bold-55" transform="translate(141.699219 0)"/>
     <use xlink:href="#DejaVuSans-Bold-41" transform="translate(219.775391 0)"/>
     <use xlink:href="#DejaVuSans-Bold-43" transform="translate(297.167969 0)"/>
     <use xlink:href="#DejaVuSans-Bold-49" transform="translate(370.556641 0)"/>
     <use xlink:href="#DejaVuSans-Bold-4f" transform="translate(407.763672 0)"/>
     <use xlink:href="#DejaVuSans-Bold-4e" transform="translate(492.773438 0)"/>
     <use xlink:href="#DejaVuSans-Bold-45" transform="translate(576.464844 0)"/>
     <use xlink:href="#DejaVuSans-Bold-53" transform="translate(644.775391 0)"/>
     <use xlink:href="#DejaVuSans-Bold-20" transform="translate(716.796875 0)"/>
     <use xlink:href="#DejaVuSans-Bold-43" transform="translate(751.611328 0)"/>
     <use xlink:href="#DejaVuSans-Bold-41" transform="translate(825 0)"/>
     <use xlink:href="#DejaVuSans-Bold-4e" transform="translate(902.392578 0)"/>
     <use xlink:href="#DejaVuSans-Bold-d3" transform="translate(986.083984 0)"/>
     <use xlink:href="#DejaVuSans-Bold-4e" transform="translate(1071.09375 0)"/>
     <use xlink:href="#DejaVuSans-Bold-49" transform="translate(1154.785156 0)"/>
     <use xlink:href="#DejaVuSans-Bold-43" transform="translate(1191.992188 0)"/>
     <use xlink:href="#DejaVuSans-Bold-41" transform="translate(1265.380859 0)"/>
     <use xlink:href="#DejaVuSans-Bold-53" transform="translate(1342.773438 0)"/>
    </g>
   </g>
   <g id="text_25">
    <!-- Eje transverso horizontal -->
    <g style="fill: #dc2626" transform="translate(149.048318 457.943341) scale(0.1 -0.1)">
     <defs>
      <path id="DejaVuSans-Bold-68" d="M 4056 2131 
L 4056 0 
L 2931 0 
L 2931 347 
L 2931 1625 
Q 2931 2084 2911 2256 
Q 2891 2428 2841 2509 
Q 2775 2619 2662 2680 
Q 2550 2741 2406 2741 
Q 2056 2741 1856 2470 
Q 1656 2200 1656 1722 
L 1656 0 
L 538 0 
L 538 4863 
L 1656 4863 
L 1656 2988 
Q 1909 3294 2193 3439 
Q 2478 3584 2822 3584 
Q 3428 3584 3742 3212 
Q 4056 2841 4056 2131 
z
" transform="scale(0.015625)"/>
     </defs>
     <use xlink:href="#DejaVuSans-Bold-45"/>
     <use xlink:href="#DejaVuSans-Bold-6a" transform="translate(68.310547 0)"/>
     <use xlink:href="#DejaVuSans-Bold-65" transform="translate(102.587891 0)"/>
     <use xlink:href="#DejaVuSans-Bold-20" transform="translate(170.410156 0)"/>
     <use xlink:href="#DejaVuSans-Bold-74" transform="translate(205.224609 0)"/>
     <use xlink:href="#DejaVuSans-Bold-72" transform="translate(253.027344 0)"/>
     <use xlink:href="#DejaVuSans-Bold-61" transform="translate(302.34375 0)"/>
     <use xlink:href="#DejaVuSans-Bold-6e" transform="translate(369.824219 0)"/>
     <use xlink:href="#DejaVuSans-Bold-73" transform="translate(441.015625 0)"/>
     <use xlink:href="#DejaVuSans-Bold-76" transform="translate(500.537109 0)"/>
     <use xlink:href="#DejaVuSans-Bold-65" transform="translate(565.722656 0)"/>
     <use xlink:href="#DejaVuSans-Bold-72" transform="translate(633.544922 0)"/>
     <use xlink:href="#DejaVuSans-Bold-73" transform="translate(682.861328 0)"/>
     <use xlink:href="#DejaVuSans-Bold-6f" transform="translate(742.382812 0)"/>
     <use xlink:href="#DejaVuSans-Bold-20" transform="translate(811.083984 0)"/>
     <use xlink:href="#DejaVuSans-Bold-68" transform="translate(845.898438 0)"/>
     <use xlink:href="#DejaVuSans-Bold-6f" transform="translate(917.089844 0)"/>
     <use xlink:href="#DejaVuSans-Bold-72" transform="translate(985.791016 0)"/>
     <use xlink:href="#DejaVuSans-Bold-69" transform="translate(1035.107422 0)"/>
     <use xlink:href="#DejaVuSans-Bold-7a" transform="translate(1069.384766 0)"/>
     <use xlink:href="#DejaVuSans-Bold-6f" transform="translate(1127.587891 0)"/>
     <use xlink:href="#DejaVuSans-Bold-6e" transform="translate(1196.289062 0)"/>
     <use xlink:href="#DejaVuSans-Bold-74" transform="translate(1267.480469 0)"/>
     <use xlink:href="#DejaVuSans-Bold-61" transform="translate(1315.283203 0)"/>
     <use xlink:href="#DejaVuSans-Bold-6c" transform="translate(1382.763672 0)"/>
    </g>
   </g>
   <g id="text_26">
    <!-- $\frac{x^2}{a^2} - \frac{y^2}{b^2} = 1$ -->
    <g style="fill: #1f2937" transform="translate(187.59488 485.265652) scale(0.13 -0.13)">
     <use xlink:href="#DejaVuSans-Oblique-78" transform="translate(1 44.278125) scale(0.7)"/>
     <use xlink:href="#DejaVuSans-32" transform="translate(45.552083 71.075) scale(0.49)"/>
     <use xlink:href="#DejaVuSans-Oblique-61" transform="translate(0 -50.135938) scale(0.7)"/>
     <use xlink:href="#DejaVuSans-32" transform="translate(46.150435 -23.339063) scale(0.49)"/>
     <use xlink:href="#DejaVuSans-2212" transform="translate(111.222212 0.48125)"/>
     <use xlink:href="#DejaVuSans-Oblique-79" transform="translate(217.493697 58.835938) scale(0.7)"/>
     <use xlink:href="#DejaVuSans-32" transform="translate(262.04578 85.632812) scale(0.49)"/>
     <use xlink:href="#DejaVuSans-Oblique-62" transform="translate(214.493697 -50.135937) scale(0.7)"/>
     <use xlink:href="#DejaVuSans-32" transform="translate(264.140686 -23.339062) scale(0.49)"/>
     <use xlink:href="#DejaVuSans-3d" transform="translate(329.212464 0.48125)"/>
     <use xlink:href="#DejaVuSans-31" transform="translate(432.483948 0.48125)"/>
     <path d="M 0 19.278125 
L 0 25.528125 
L 79.23979 25.528125 
L 79.23979 19.278125 
L 0 19.278125 
z
"/>
     <path d="M 214.493697 19.278125 
L 214.493697 25.528125 
L 297.230042 25.528125 
L 297.230042 19.278125 
L 214.493697 19.278125 
z
"/>
    </g>
   </g>
   <g id="text_27">
    <!-- Asíntotas: $y = \pm\frac{b}{a}x$ -->
    <g style="fill: #6b7280" transform="translate(174.29988 512.587963) scale(0.1 -0.1)">
     <use xlink:href="#DejaVuSans-41" transform="translate(0 0.01875)"/>
     <use xlink:href="#DejaVuSans-73" transform="translate(68.408203 0.01875)"/>
     <use xlink:href="#DejaVuSans-ed" transform="translate(120.507812 0.01875)"/>
     <use xlink:href="#DejaVuSans-6e" transform="translate(148.291016 0.01875)"/>
     <use xlink:href="#DejaVuSans-74" transform="translate(211.669922 0.01875)"/>
     <use xlink:href="#DejaVuSans-6f" transform="translate(250.878906 0.01875)"/>
     <use xlink:href="#DejaVuSans-74" transform="translate(312.060547 0.01875)"/>
     <use xlink:href="#DejaVuSans-61" transform="translate(351.269531 0.01875)"/>
     <use xlink:href="#DejaVuSans-73" transform="translate(412.548828 0.01875)"/>
     <use xlink:href="#DejaVuSans-3a" transform="translate(464.648438 0.01875)"/>
     <use xlink:href="#DejaVuSans-20" transform="translate(498.339844 0.01875)"/>
     <use xlink:href="#DejaVuSans-Oblique-79" transform="translate(530.126953 0.01875)"/>
     <use xlink:href="#DejaVuSans-3d" transform="translate(608.789062 0.01875)"/>
     <use xlink:href="#DejaVuSans-b1" transform="translate(712.060547 0.01875)"/>
     <use xlink:href="#DejaVuSans-Oblique-62" transform="translate(795.849609 44.810938) scale(0.7)"/>
     <use xlink:href="#DejaVuSans-Oblique-61" transform="translate(796.849609 -26.634375) scale(0.7)"/>
     <use xlink:href="#DejaVuSans-Oblique-78" transform="translate(852.783203 0.01875)"/>
     <path d="M 795.849609 18.815625 
L 795.849609 25.065625 
L 840.283203 25.065625 
L 840.283203 18.815625 
L 795.849609 18.815625 
z
"/>
    </g>
   </g>
   <g id="text_28">
    <!-- Eje transverso vertical -->
    <g style="fill: #7c3aed" transform="translate(156.332693 549.017712) scale(0.1 -0.1)">
     <use xlink:href="#DejaVuSans-Bold-45"/>
     <use xlink:href="#DejaVuSans-Bold-6a" transform="translate(68.310547 0)"/>
     <use xlink:href="#DejaVuSans-Bold-65" transform="translate(102.587891 0)"/>
     <use xlink:href="#DejaVuSans-Bold-20" transform="translate(170.410156 0)"/>
     <use xlink:href="#DejaVuSans-Bold-74" transform="translate(205.224609 0)"/>
     <use xlink:href="#DejaVuSans-Bold-72" transform="translate(253.027344 0)"/>
     <use xlink:href="#DejaVuSans-Bold-61" transform="translate(302.34375 0)"/>
     <use xlink:href="#DejaVuSans-Bold-6e" transform="translate(369.824219 0)"/>
     <use xlink:href="#DejaVuSans-Bold-73" transform="translate(441.015625 0)"/>
     <use xlink:href="#DejaVuSans-Bold-76" transform="translate(500.537109 0)"/>
     <use xlink:href="#DejaVuSans-Bold-65" transform="translate(565.722656 0)"/>
     <use xlink:href="#DejaVuSans-Bold-72" transform="translate(633.544922 0)"/>
     <use xlink:href="#DejaVuSans-Bold-73" transform="translate(682.861328 0)"/>
     <use xlink:href="#DejaVuSans-Bold-6f" transform="translate(742.382812 0)"/>
     <use xlink:href="#DejaVuSans-Bold-20" transform="translate(811.083984 0)"/>
     <use xlink:href="#DejaVuSans-Bold-76" transform="translate(845.898438 0)"/>
     <use xlink:href="#DejaVuSans-Bold-65" transform="translate(911.083984 0)"/>
     <use xlink:href="#DejaVuSans-Bold-72" transform="translate(978.90625 0)"/>
     <use xlink:href="#DejaVuSans-Bold-74" transform="translate(1028.222656 0)"/>
     <use xlink:href="#DejaVuSans-Bold-69" transform="translate(1076.025391 0)"/>
     <use xlink:href="#DejaVuSans-Bold-63" transform="translate(1110.302734 0)"/>
     <use xlink:href="#DejaVuSans-Bold-61" transform="translate(1169.580078 0)"/>
     <use xlink:href="#DejaVuSans-Bold-6c" transform="translate(1237.060547 0)"/>
    </g>
   </g>
   <g id="text_29">
    <!-- $\frac{y^2}{a^2} - \frac{x^2}{b^2} = 1$ -->
    <g style="fill: #1f2937" transform="translate(187.59488 576.340023) scale(0.13 -0.13)">
     <use xlink:href="#DejaVuSans-Oblique-79" transform="translate(1 58.835938) scale(0.7)"/>
     <use xlink:href="#DejaVuSans-32" transform="translate(45.552083 85.632812) scale(0.49)"/>
     <use xlink:href="#DejaVuSans-Oblique-61" transform="translate(0 -50.135937) scale(0.7)"/>
     <use xlink:href="#DejaVuSans-32" transform="translate(46.150435 -23.339062) scale(0.49)"/>
     <use xlink:href="#DejaVuSans-2212" transform="translate(111.222212 0.48125)"/>
     <use xlink:href="#DejaVuSans-Oblique-78" transform="translate(217.493697 44.278125) scale(0.7)"/>
     <use xlink:href="#DejaVuSans-32" transform="translate(262.04578 71.075) scale(0.49)"/>
     <use xlink:href="#DejaVuSans-Oblique-62" transform="translate(214.493697 -50.135938) scale(0.7)"/>
     <use xlink:href="#DejaVuSans-32" transform="translate(264.140686 -23.339063) scale(0.49)"/>
     <use xlink:href="#DejaVuSans-3d" transform="translate(329.212464 0.48125)"/>
     <use xlink:href="#DejaVuSans-31" transform="translate(432.483948 0.48125)"/>
     <path d="M 0 19.278125 
L 0 25.528125 
L 79.23979 25.528125 
L 79.23979 19.278125 
L 0 19.278125 
z
"/>
     <path d="M 214.493697 19.278125 
L 214.493697 25.528125 
L 297.230042 25.528125 
L 297.230042 19.278125 
L 214.493697 19.278125 
z
"/>
    </g>
   </g>
   <g id="text_30">
    <!-- Asíntotas: $y = \pm\frac{a}{b}x$ -->
    <g style="fill: #6b7280" transform="translate(174.29988 603.662334) scale(0.1 -0.1)">
     <use xlink:href="#DejaVuSans-41" transform="translate(0 0.007812)"/>
     <use xlink:href="#DejaVuSans-73" transform="translate(68.408203 0.007812)"/>
     <use xlink:href="#DejaVuSans-ed" transform="translate(120.507812 0.007812)"/>
     <use xlink:href="#DejaVuSans-6e" transform="translate(148.291016 0.007812)"/>
     <use xlink:href="#DejaVuSans-74" transform="translate(211.669922 0.007812)"/>
     <use xlink:href="#DejaVuSans-6f" transform="translate(250.878906 0.007812)"/>
     <use xlink:href="#DejaVuSans-74" transform="translate(312.060547 0.007812)"/>
     <use xlink:href="#DejaVuSans-61" transform="translate(351.269531 0.007812)"/>
     <use xlink:href="#DejaVuSans-73" transform="translate(412.548828 0.007812)"/>
     <use xlink:href="#DejaVuSans-3a" transform="translate(464.648438 0.007812)"/>
     <use xlink:href="#DejaVuSans-20" transform="translate(498.339844 0.007812)"/>
     <use xlink:href="#DejaVuSans-Oblique-79" transform="translate(530.126953 0.007812)"/>
     <use xlink:href="#DejaVuSans-3d" transform="translate(608.789062 0.007812)"/>
     <use xlink:href="#DejaVuSans-b1" transform="translate(712.060547 0.007812)"/>
     <use xlink:href="#DejaVuSans-Oblique-61" transform="translate(796.849609 44.8) scale(0.7)"/>
     <use xlink:href="#DejaVuSans-Oblique-62" transform="translate(795.849609 -40.634375) scale(0.7)"/>
     <use xlink:href="#DejaVuSans-Oblique-78" transform="translate(852.783203 0.007812)"/>
     <path d="M 795.849609 18.804688 
L 795.849609 25.054688 
L 840.283203 25.054688 
L 840.283203 18.804688 
L 795.849609 18.804688 
z
"/>
    </g>
   </g>
  </g>
  <g id="axes_3">
   <g id="patch_11">
    <path d="M 596.561753 501.203667 
L 996.437527 501.203667 
L 996.437527 444.282185 
L 596.561753 444.282185 
z
" clip-path="url(#pda37c8b53e)" style="fill: #fef3c7; stroke: #f59e0b; stroke-width: 2; stroke-linejoin: miter"/>
   </g>
   <g id="patch_12">
    <path d="M 596.561753 580.893742 
L 996.437527 580.893742 
L 996.437527 512.587963 
L 596.561753 512.587963 
z
" clip-path="url(#pda37c8b53e)" style="fill: #fce7f3; stroke: #ec4899; stroke-width: 1.5; stroke-linejoin: miter"/>
   </g>
   <g id="text_31">
    <!-- RELACIONES Y PROPIEDADES -->
    <g style="fill: #f59e0b" transform="translate(705.972218 432.897889) scale(0.11 -0.11)">
     <defs>
      <path id="DejaVuSans-Bold-52" d="M 2297 2597 
Q 2675 2597 2839 2737 
Q 3003 2878 3003 3200 
Q 3003 3519 2839 3656 
Q 2675 3794 2297 3794 
L 1791 3794 
L 1791 2597 
L 2297 2597 
z
M 1791 1766 
L 1791 0 
L 588 0 
L 588 4666 
L 2425 4666 
Q 3347 4666 3776 4356 
Q 4206 4047 4206 3378 
Q 4206 2916 3982 2619 
Q 3759 2322 3309 2181 
Q 3556 2125 3751 1926 
Q 3947 1728 4147 1325 
L 4800 0 
L 3519 0 
L 2950 1159 
Q 2778 1509 2601 1637 
Q 2425 1766 2131 1766 
L 1791 1766 
z
" transform="scale(0.015625)"/>
      <path id="DejaVuSans-Bold-4c" d="M 588 4666 
L 1791 4666 
L 1791 909 
L 3903 909 
L 3903 0 
L 588 0 
L 588 4666 
z
" transform="scale(0.015625)"/>
      <path id="DejaVuSans-Bold-59" d="M -63 4666 
L 1253 4666 
L 2316 3003 
L 3378 4666 
L 4697 4666 
L 2919 1966 
L 2919 0 
L 1716 0 
L 1716 1966 
L -63 4666 
z
" transform="scale(0.015625)"/>
      <path id="DejaVuSans-Bold-44" d="M 1791 3756 
L 1791 909 
L 2222 909 
Q 2959 909 3348 1275 
Q 3738 1641 3738 2338 
Q 3738 3031 3350 3393 
Q 2963 3756 2222 3756 
L 1791 3756 
z
M 588 4666 
L 1856 4666 
Q 2919 4666 3439 4514 
Q 3959 4363 4331 4000 
Q 4659 3684 4818 3271 
Q 4978 2859 4978 2338 
Q 4978 1809 4818 1395 
Q 4659 981 4331 666 
Q 3956 303 3431 151 
Q 2906 0 1856 0 
L 588 0 
L 588 4666 
z
" transform="scale(0.015625)"/>
     </defs>
     <use xlink:href="#DejaVuSans-Bold-52"/>
     <use xlink:href="#DejaVuSans-Bold-45" transform="translate(77.001953 0)"/>
     <use xlink:href="#DejaVuSans-Bold-4c" transform="translate(145.3125 0)"/>
     <use xlink:href="#DejaVuSans-Bold-41" transform="translate(209.033203 0)"/>
     <use xlink:href="#DejaVuSans-Bold-43" transform="translate(286.425781 0)"/>
     <use xlink:href="#DejaVuSans-Bold-49" transform="translate(359.814453 0)"/>
     <use xlink:href="#DejaVuSans-Bold-4f" transform="translate(397.021484 0)"/>
     <use xlink:href="#DejaVuSans-Bold-4e" transform="translate(482.03125 0)"/>
     <use xlink:href="#DejaVuSans-Bold-45" transform="translate(565.722656 0)"/>
     <use xlink:href="#DejaVuSans-Bold-53" transform="translate(634.033203 0)"/>
     <use xlink:href="#DejaVuSans-Bold-20" transform="translate(706.054688 0)"/>
     <use xlink:href="#DejaVuSans-Bold-59" transform="translate(740.869141 0)"/>
     <use xlink:href="#DejaVuSans-Bold-20" transform="translate(813.28125 0)"/>
     <use xlink:href="#DejaVuSans-Bold-50" transform="translate(848.095703 0)"/>
     <use xlink:href="#DejaVuSans-Bold-52" transform="translate(921.386719 0)"/>
     <use xlink:href="#DejaVuSans-Bold-4f" transform="translate(998.388672 0)"/>
     <use xlink:href="#DejaVuSans-Bold-50" transform="translate(1083.398438 0)"/>
     <use xlink:href="#DejaVuSans-Bold-49" transform="translate(1156.689453 0)"/>
     <use xlink:href="#DejaVuSans-Bold-45" transform="translate(1193.896484 0)"/>
     <use xlink:href="#DejaVuSans-Bold-44" transform="translate(1262.207031 0)"/>
     <use xlink:href="#DejaVuSans-Bold-41" transform="translate(1345.214844 0)"/>
     <use xlink:href="#DejaVuSans-Bold-44" transform="translate(1422.607422 0)"/>
     <use xlink:href="#DejaVuSans-Bold-45" transform="translate(1505.615234 0)"/>
     <use xlink:href="#DejaVuSans-Bold-53" transform="translate(1573.925781 0)"/>
    </g>
   </g>
   <g id="text_32">
    <!-- Relación Fundamental -->
    <g style="fill: #f59e0b" transform="translate(733.880109 457.943341) scale(0.1 -0.1)">
     <defs>
      <path id="DejaVuSans-Bold-f3" d="M 2203 2784 
Q 1831 2784 1636 2517 
Q 1441 2250 1441 1747 
Q 1441 1244 1636 976 
Q 1831 709 2203 709 
Q 2569 709 2762 976 
Q 2956 1244 2956 1747 
Q 2956 2250 2762 2517 
Q 2569 2784 2203 2784 
z
M 2203 3584 
Q 3106 3584 3614 3096 
Q 4122 2609 4122 1747 
Q 4122 884 3614 396 
Q 3106 -91 2203 -91 
Q 1297 -91 786 396 
Q 275 884 275 1747 
Q 275 2609 786 3096 
Q 1297 3584 2203 3584 
z
M 2694 5119 
L 3578 5119 
L 2425 3944 
L 1813 3944 
L 2694 5119 
z
" transform="scale(0.015625)"/>
      <path id="DejaVuSans-Bold-46" d="M 588 4666 
L 3834 4666 
L 3834 3756 
L 1791 3756 
L 1791 2888 
L 3713 2888 
L 3713 1978 
L 1791 1978 
L 1791 0 
L 588 0 
L 588 4666 
z
" transform="scale(0.015625)"/>
      <path id="DejaVuSans-Bold-75" d="M 500 1363 
L 500 3500 
L 1625 3500 
L 1625 3150 
Q 1625 2866 1622 2436 
Q 1619 2006 1619 1863 
Q 1619 1441 1641 1255 
Q 1663 1069 1716 984 
Q 1784 875 1895 815 
Q 2006 756 2150 756 
Q 2500 756 2700 1025 
Q 2900 1294 2900 1772 
L 2900 3500 
L 4019 3500 
L 4019 0 
L 2900 0 
L 2900 506 
Q 2647 200 2364 54 
Q 2081 -91 1741 -91 
Q 1134 -91 817 281 
Q 500 653 500 1363 
z
" transform="scale(0.015625)"/>
      <path id="DejaVuSans-Bold-64" d="M 2919 2988 
L 2919 4863 
L 4044 4863 
L 4044 0 
L 2919 0 
L 2919 506 
Q 2688 197 2409 53 
Q 2131 -91 1766 -91 
Q 1119 -91 703 423 
Q 288 938 288 1747 
Q 288 2556 703 3070 
Q 1119 3584 1766 3584 
Q 2128 3584 2408 3439 
Q 2688 3294 2919 2988 
z
M 2181 722 
Q 2541 722 2730 984 
Q 2919 1247 2919 1747 
Q 2919 2247 2730 2509 
Q 2541 2772 2181 2772 
Q 1825 2772 1636 2509 
Q 1447 2247 1447 1747 
Q 1447 1247 1636 984 
Q 1825 722 2181 722 
z
" transform="scale(0.015625)"/>
      <path id="DejaVuSans-Bold-6d" d="M 3781 2919 
Q 3994 3244 4286 3414 
Q 4578 3584 4928 3584 
Q 5531 3584 5847 3212 
Q 6163 2841 6163 2131 
L 6163 0 
L 5038 0 
L 5038 1825 
Q 5041 1866 5042 1909 
Q 5044 1953 5044 2034 
Q 5044 2406 4934 2573 
Q 4825 2741 4581 2741 
Q 4263 2741 4089 2478 
Q 3916 2216 3909 1719 
L 3909 0 
L 2784 0 
L 2784 1825 
Q 2784 2406 2684 2573 
Q 2584 2741 2328 2741 
Q 2006 2741 1831 2477 
Q 1656 2213 1656 1722 
L 1656 0 
L 531 0 
L 531 3500 
L 1656 3500 
L 1656 2988 
Q 1863 3284 2130 3434 
Q 2397 3584 2719 3584 
Q 3081 3584 3359 3409 
Q 3638 3234 3781 2919 
z
" transform="scale(0.015625)"/>
     </defs>
     <use xlink:href="#DejaVuSans-Bold-52"/>
     <use xlink:href="#DejaVuSans-Bold-65" transform="translate(77.001953 0)"/>
     <use xlink:href="#DejaVuSans-Bold-6c" transform="translate(144.824219 0)"/>
     <use xlink:href="#DejaVuSans-Bold-61" transform="translate(179.101562 0)"/>
     <use xlink:href="#DejaVuSans-Bold-63" transform="translate(246.582031 0)"/>
     <use xlink:href="#DejaVuSans-Bold-69" transform="translate(305.859375 0)"/>
     <use xlink:href="#DejaVuSans-Bold-f3" transform="translate(340.136719 0)"/>
     <use xlink:href="#DejaVuSans-Bold-6e" transform="translate(408.837891 0)"/>
     <use xlink:href="#DejaVuSans-Bold-20" transform="translate(480.029297 0)"/>
     <use xlink:href="#DejaVuSans-Bold-46" transform="translate(514.84375 0)"/>
     <use xlink:href="#DejaVuSans-Bold-75" transform="translate(578.154297 0)"/>
     <use xlink:href="#DejaVuSans-Bold-6e" transform="translate(649.345703 0)"/>
     <use xlink:href="#DejaVuSans-Bold-64" transform="translate(720.537109 0)"/>
     <use xlink:href="#DejaVuSans-Bold-61" transform="translate(792.119141 0)"/>
     <use xlink:href="#DejaVuSans-Bold-6d" transform="translate(859.599609 0)"/>
     <use xlink:href="#DejaVuSans-Bold-65" transform="translate(963.798828 0)"/>
     <use xlink:href="#DejaVuSans-Bold-6e" transform="translate(1031.621094 0)"/>
     <use xlink:href="#DejaVuSans-Bold-74" transform="translate(1102.8125 0)"/>
     <use xlink:href="#DejaVuSans-Bold-61" transform="translate(1150.615234 0)"/>
     <use xlink:href="#DejaVuSans-Bold-6c" transform="translate(1218.095703 0)"/>
    </g>
   </g>
   <g id="text_33">
    <!-- $c^2 = a^2 + b^2$ -->
    <g style="fill: #1f2937" transform="translate(758.53964 485.265652) scale(0.13 -0.13)">
     <defs>
      <path id="DejaVuSans-Oblique-63" d="M 3431 3366 
L 3316 2797 
Q 3109 2947 2876 3022 
Q 2644 3097 2394 3097 
Q 2119 3097 1870 3000 
Q 1622 2903 1453 2725 
Q 1184 2453 1037 2087 
Q 891 1722 891 1331 
Q 891 859 1127 628 
Q 1363 397 1844 397 
Q 2081 397 2348 469 
Q 2616 541 2906 684 
L 2797 116 
Q 2547 13 2283 -39 
Q 2019 -91 1741 -91 
Q 1044 -91 669 257 
Q 294 606 294 1253 
Q 294 1797 489 2255 
Q 684 2713 1069 3078 
Q 1331 3328 1684 3456 
Q 2038 3584 2456 3584 
Q 2700 3584 2940 3529 
Q 3181 3475 3431 3366 
z
" transform="scale(0.015625)"/>
      <path id="DejaVuSans-2b" d="M 2944 4013 
L 2944 2272 
L 4684 2272 
L 4684 1741 
L 2944 1741 
L 2944 0 
L 2419 0 
L 2419 1741 
L 678 1741 
L 678 2272 
L 2419 2272 
L 2419 4013 
L 2944 4013 
z
" transform="scale(0.015625)"/>
     </defs>
     <use xlink:href="#DejaVuSans-Oblique-63" transform="translate(0 0.765625)"/>
     <use xlink:href="#DejaVuSans-32" transform="translate(59.630365 39.046875) scale(0.7)"/>
     <use xlink:href="#DejaVuSans-3d" transform="translate(126.383294 0.765625)"/>
     <use xlink:href="#DejaVuSans-Oblique-61" transform="translate(229.654779 0.765625)"/>
     <use xlink:href="#DejaVuSans-32" transform="translate(295.583971 39.046875) scale(0.7)"/>
     <use xlink:href="#DejaVuSans-2b" transform="translate(362.336901 0.765625)"/>
     <use xlink:href="#DejaVuSans-Oblique-62" transform="translate(465.608385 0.765625)"/>
     <use xlink:href="#DejaVuSans-32" transform="translate(536.532656 39.046875) scale(0.7)"/>
    </g>
   </g>
   <g id="text_34">
    <!-- Excentricidad -->
    <g style="fill: #ec4899" transform="translate(758.164484 526.249119) scale(0.1 -0.1)">
     <defs>
      <path id="DejaVuSans-Bold-78" d="M 1422 1791 
L 159 3500 
L 1344 3500 
L 2059 2463 
L 2784 3500 
L 3969 3500 
L 2706 1797 
L 4031 0 
L 2847 0 
L 2059 1106 
L 1281 0 
L 97 0 
L 1422 1791 
z
" transform="scale(0.015625)"/>
     </defs>
     <use xlink:href="#DejaVuSans-Bold-45"/>
     <use xlink:href="#DejaVuSans-Bold-78" transform="translate(68.310547 0)"/>
     <use xlink:href="#DejaVuSans-Bold-63" transform="translate(132.8125 0)"/>
     <use xlink:href="#DejaVuSans-Bold-65" transform="translate(192.089844 0)"/>
     <use xlink:href="#DejaVuSans-Bold-6e" transform="translate(259.912109 0)"/>
     <use xlink:href="#DejaVuSans-Bold-74" transform="translate(331.103516 0)"/>
     <use xlink:href="#DejaVuSans-Bold-72" transform="translate(378.90625 0)"/>
     <use xlink:href="#DejaVuSans-Bold-69" transform="translate(428.222656 0)"/>
     <use xlink:href="#DejaVuSans-Bold-63" transform="translate(462.5 0)"/>
     <use xlink:href="#DejaVuSans-Bold-69" transform="translate(521.777344 0)"/>
     <use xlink:href="#DejaVuSans-Bold-64" transform="translate(556.054688 0)"/>
     <use xlink:href="#DejaVuSans-Bold-61" transform="translate(627.636719 0)"/>
     <use xlink:href="#DejaVuSans-Bold-64" transform="translate(695.117188 0)"/>
    </g>
   </g>
   <g id="text_35">
    <!-- $e = \frac{c}{a} = \sqrt{1 + \frac{b^2}{a^2}}$ -->
    <g style="fill: #1f2937" transform="translate(749.75964 549.017712) scale(0.12 -0.12)">
     <defs>
      <path id="DejaVuSans-Oblique-65" d="M 3078 2063 
Q 3088 2113 3092 2166 
Q 3097 2219 3097 2272 
Q 3097 2653 2873 2875 
Q 2650 3097 2266 3097 
Q 1838 3097 1509 2826 
Q 1181 2556 1013 2059 
L 3078 2063 
z
M 3578 1613 
L 903 1613 
Q 884 1494 878 1425 
Q 872 1356 872 1306 
Q 872 872 1139 634 
Q 1406 397 1894 397 
Q 2269 397 2603 481 
Q 2938 566 3225 728 
L 3116 159 
Q 2806 34 2476 -28 
Q 2147 -91 1806 -91 
Q 1078 -91 686 257 
Q 294 606 294 1247 
Q 294 1794 489 2264 
Q 684 2734 1063 3103 
Q 1306 3334 1642 3459 
Q 1978 3584 2356 3584 
Q 2950 3584 3301 3228 
Q 3653 2872 3653 2272 
Q 3653 2128 3634 1964 
Q 3616 1800 3578 1613 
z
" transform="scale(0.015625)"/>
      <path id="STIXSizeOneSym-Regular-221a" d="M 6970 9933 
L 3373 -1888 
L 3104 -1888 
L 1626 2918 
Q 1555 3149 1465 3251 
Q 1376 3354 1229 3354 
Q 1011 3354 794 3181 
L 717 3309 
L 1766 4115 
L 1926 4115 
L 3379 -602 
L 3405 -602 
L 6605 9933 
L 6970 9933 
z
" transform="scale(0.015625)"/>
     </defs>
     <use xlink:href="#DejaVuSans-Oblique-65" transform="translate(0 0.3625)"/>
     <use xlink:href="#DejaVuSans-3d" transform="translate(81.005859 0.3625)"/>
     <use xlink:href="#DejaVuSans-Oblique-63" transform="translate(186.277344 45.154687) scale(0.7)"/>
     <use xlink:href="#DejaVuSans-Oblique-61" transform="translate(184.277344 -26.290625) scale(0.7)"/>
     <use xlink:href="#DejaVuSans-3d" transform="translate(259.155273 0.3625)"/>
     <use xlink:href="#STIXSizeOneSym-Regular-221a" transform="translate(362.426758 -20.859375) scale(1.033111)"/>
     <use xlink:href="#DejaVuSans-31" transform="translate(484.061996 0.79375)"/>
     <use xlink:href="#DejaVuSans-2b" transform="translate(567.167465 0.79375)"/>
     <use xlink:href="#DejaVuSans-Oblique-62" transform="translate(670.43895 45.585938) scale(0.7)"/>
     <use xlink:href="#DejaVuSans-32" transform="translate(720.085939 72.382812) scale(0.49)"/>
     <use xlink:href="#DejaVuSans-Oblique-61" transform="translate(672.43895 -49.823437) scale(0.7)"/>
     <use xlink:href="#DejaVuSans-32" transform="translate(718.589384 -23.026562) scale(0.49)"/>
     <path d="M 184.277344 19.159375 
L 184.277344 25.409375 
L 227.172852 25.409375 
L 227.172852 19.159375 
L 184.277344 19.159375 
z
"/>
     <path d="M 471.561996 132.5 
L 471.561996 138.75 
L 778.175295 138.75 
L 778.175295 132.5 
L 471.561996 132.5 
z
"/>
     <path d="M 670.43895 19.590625 
L 670.43895 25.840625 
L 753.175295 25.840625 
L 753.175295 19.590625 
L 670.43895 19.590625 
z
"/>
    </g>
   </g>
   <g id="text_36">
    <!-- $e &gt; 1$ (hipérbola) -->
    <g style="fill: #6b7280" transform="translate(755.04964 571.786305) scale(0.1 -0.1)">
     <defs>
      <path id="DejaVuSans-3e" d="M 678 3150 
L 678 3719 
L 4684 2266 
L 4684 1747 
L 678 294 
L 678 863 
L 3897 2003 
L 678 3150 
z
" transform="scale(0.015625)"/>
     </defs>
     <use xlink:href="#DejaVuSans-Oblique-65" transform="translate(0 0.015625)"/>
     <use xlink:href="#DejaVuSans-3e" transform="translate(81.005859 0.015625)"/>
     <use xlink:href="#DejaVuSans-31" transform="translate(184.277344 0.015625)"/>
     <use xlink:href="#DejaVuSans-20" transform="translate(247.900391 0.015625)"/>
     <use xlink:href="#DejaVuSans-28" transform="translate(279.6875 0.015625)"/>
     <use xlink:href="#DejaVuSans-68" transform="translate(318.701172 0.015625)"/>
     <use xlink:href="#DejaVuSans-69" transform="translate(382.080078 0.015625)"/>
     <use xlink:href="#DejaVuSans-70" transform="translate(409.863281 0.015625)"/>
     <use xlink:href="#DejaVuSans-e9" transform="translate(473.339844 0.015625)"/>
     <use xlink:href="#DejaVuSans-72" transform="translate(534.863281 0.015625)"/>
     <use xlink:href="#DejaVuSans-62" transform="translate(575.976562 0.015625)"/>
     <use xlink:href="#DejaVuSans-6f" transform="translate(639.453125 0.015625)"/>
     <use xlink:href="#DejaVuSans-6c" transform="translate(700.634766 0.015625)"/>
     <use xlink:href="#DejaVuSans-61" transform="translate(728.417969 0.015625)"/>
     <use xlink:href="#DejaVuSans-29" transform="translate(789.697266 0.015625)"/>
    </g>
   </g>
   <g id="text_37">
    <!-- Hipérbola equilátera (a = b): -->
    <g style="fill: #374151" transform="translate(723.541281 603.662334) scale(0.09 -0.09)">
     <defs>
      <path id="DejaVuSans-Bold-71" d="M 2181 2772 
Q 1825 2772 1636 2509 
Q 1447 2247 1447 1747 
Q 1447 1247 1636 984 
Q 1825 722 2181 722 
Q 2541 722 2730 984 
Q 2919 1247 2919 1747 
Q 2919 2247 2730 2509 
Q 2541 2772 2181 2772 
z
M 2919 506 
Q 2688 197 2409 53 
Q 2131 -91 1766 -91 
Q 1119 -91 703 423 
Q 288 938 288 1747 
Q 288 2556 703 3067 
Q 1119 3578 1766 3578 
Q 2131 3578 2409 3434 
Q 2688 3291 2919 2981 
L 2919 3500 
L 4044 3500 
L 4044 -1331 
L 2919 -1331 
L 2919 506 
z
" transform="scale(0.015625)"/>
      <path id="DejaVuSans-Bold-e1" d="M 2106 1575 
Q 1756 1575 1579 1456 
Q 1403 1338 1403 1106 
Q 1403 894 1545 773 
Q 1688 653 1941 653 
Q 2256 653 2472 879 
Q 2688 1106 2688 1447 
L 2688 1575 
L 2106 1575 
z
M 3816 1997 
L 3816 0 
L 2688 0 
L 2688 519 
Q 2463 200 2181 54 
Q 1900 -91 1497 -91 
Q 953 -91 614 226 
Q 275 544 275 1050 
Q 275 1666 698 1953 
Q 1122 2241 2028 2241 
L 2688 2241 
L 2688 2328 
Q 2688 2594 2478 2717 
Q 2269 2841 1825 2841 
Q 1466 2841 1156 2769 
Q 847 2697 581 2553 
L 581 3406 
Q 941 3494 1303 3539 
Q 1666 3584 2028 3584 
Q 2975 3584 3395 3211 
Q 3816 2838 3816 1997 
z
M 2606 5119 
L 3490 5119 
L 2337 3944 
L 1725 3944 
L 2606 5119 
z
" transform="scale(0.015625)"/>
      <path id="DejaVuSans-Bold-28" d="M 2413 -844 
L 1484 -844 
Q 1006 -72 778 623 
Q 550 1319 550 2003 
Q 550 2688 779 3389 
Q 1009 4091 1484 4856 
L 2413 4856 
Q 2013 4116 1813 3408 
Q 1613 2700 1613 2009 
Q 1613 1319 1811 609 
Q 2009 -100 2413 -844 
z
" transform="scale(0.015625)"/>
      <path id="DejaVuSans-Bold-3d" d="M 678 3084 
L 4684 3084 
L 4684 2350 
L 678 2350 
L 678 3084 
z
M 678 1663 
L 4684 1663 
L 4684 922 
L 678 922 
L 678 1663 
z
" transform="scale(0.015625)"/>
      <path id="DejaVuSans-Bold-29" d="M 513 -844 
Q 913 -100 1113 609 
Q 1313 1319 1313 2009 
Q 1313 2700 1113 3408 
Q 913 4116 513 4856 
L 1441 4856 
Q 1916 4091 2145 3389 
Q 2375 2688 2375 2003 
Q 2375 1319 2147 623 
Q 1919 -72 1441 -844 
L 513 -844 
z
" transform="scale(0.015625)"/>
      <path id="DejaVuSans-Bold-3a" d="M 716 3500 
L 1844 3500 
L 1844 2291 
L 716 2291 
L 716 3500 
z
M 716 1209 
L 1844 1209 
L 1844 0 
L 716 0 
L 716 1209 
z
" transform="scale(0.015625)"/>
     </defs>
     <use xlink:href="#DejaVuSans-Bold-48"/>
     <use xlink:href="#DejaVuSans-Bold-69" transform="translate(83.691406 0)"/>
     <use xlink:href="#DejaVuSans-Bold-70" transform="translate(117.96875 0)"/>
     <use xlink:href="#DejaVuSans-Bold-e9" transform="translate(189.550781 0)"/>
     <use xlink:href="#DejaVuSans-Bold-72" transform="translate(257.373047 0)"/>
     <use xlink:href="#DejaVuSans-Bold-62" transform="translate(306.689453 0)"/>
     <use xlink:href="#DejaVuSans-Bold-6f" transform="translate(378.271484 0)"/>
     <use xlink:href="#DejaVuSans-Bold-6c" transform="translate(446.972656 0)"/>
     <use xlink:href="#DejaVuSans-Bold-61" transform="translate(481.25 0)"/>
     <use xlink:href="#DejaVuSans-Bold-20" transform="translate(548.730469 0)"/>
     <use xlink:href="#DejaVuSans-Bold-65" transform="translate(583.544922 0)"/>
     <use xlink:href="#DejaVuSans-Bold-71" transform="translate(651.367188 0)"/>
     <use xlink:href="#DejaVuSans-Bold-75" transform="translate(722.949219 0)"/>
     <use xlink:href="#DejaVuSans-Bold-69" transform="translate(794.140625 0)"/>
     <use xlink:href="#DejaVuSans-Bold-6c" transform="translate(828.417969 0)"/>
     <use xlink:href="#DejaVuSans-Bold-e1" transform="translate(862.695312 0)"/>
     <use xlink:href="#DejaVuSans-Bold-74" transform="translate(930.175781 0)"/>
     <use xlink:href="#DejaVuSans-Bold-65" transform="translate(977.978516 0)"/>
     <use xlink:href="#DejaVuSans-Bold-72" transform="translate(1045.800781 0)"/>
     <use xlink:href="#DejaVuSans-Bold-61" transform="translate(1095.117188 0)"/>
     <use xlink:href="#DejaVuSans-Bold-20" transform="translate(1162.597656 0)"/>
     <use xlink:href="#DejaVuSans-Bold-28" transform="translate(1197.412109 0)"/>
     <use xlink:href="#DejaVuSans-Bold-61" transform="translate(1243.115234 0)"/>
     <use xlink:href="#DejaVuSans-Bold-20" transform="translate(1310.595703 0)"/>
     <use xlink:href="#DejaVuSans-Bold-3d" transform="translate(1345.410156 0)"/>
     <use xlink:href="#DejaVuSans-Bold-20" transform="translate(1429.199219 0)"/>
     <use xlink:href="#DejaVuSans-Bold-62" transform="translate(1464.013672 0)"/>
     <use xlink:href="#DejaVuSans-Bold-29" transform="translate(1535.595703 0)"/>
     <use xlink:href="#DejaVuSans-Bold-3a" transform="translate(1581.298828 0)"/>
    </g>
   </g>
   <g id="text_38">
    <!-- $x^2 - y^2 = a^2$ -->
    <g style="fill: #6b7280" transform="translate(767.44964 621.877209) scale(0.1 -0.1)">
     <use xlink:href="#DejaVuSans-Oblique-78" transform="translate(0 0.765625)"/>
     <use xlink:href="#DejaVuSans-32" transform="translate(63.645833 39.046875) scale(0.7)"/>
     <use xlink:href="#DejaVuSans-2212" transform="translate(130.398763 0.765625)"/>
     <use xlink:href="#DejaVuSans-Oblique-79" transform="translate(233.670247 0.765625)"/>
     <use xlink:href="#DejaVuSans-32" transform="translate(297.316081 39.046875) scale(0.7)"/>
     <use xlink:href="#DejaVuSans-3d" transform="translate(364.06901 0.765625)"/>
     <use xlink:href="#DejaVuSans-Oblique-61" transform="translate(467.340495 0.765625)"/>
     <use xlink:href="#DejaVuSans-32" transform="translate(533.269688 39.046875) scale(0.7)"/>
    </g>
   </g>
   <g id="text_39">
    <!-- Asíntotas: $y = \pm x$  •  $e = \sqrt{2}$ -->
    <g style="fill: #6b7280" transform="translate(734.62464 637.815224) scale(0.09 -0.09)">
     <defs>
      <path id="DejaVuSansDisplay-2022" d="M 959 2381 
Q 959 2769 1229 3036 
Q 1500 3303 1894 3303 
Q 2281 3303 2548 3036 
Q 2816 2769 2816 2381 
Q 2816 1991 2547 1722 
Q 2278 1453 1888 1453 
Q 1497 1453 1228 1722 
Q 959 1991 959 2381 
z
" transform="scale(0.015625)"/>
     </defs>
     <use xlink:href="#DejaVuSans-41" transform="translate(0 0.71875)"/>
     <use xlink:href="#DejaVuSans-73" transform="translate(68.408203 0.71875)"/>
     <use xlink:href="#DejaVuSans-ed" transform="translate(120.507812 0.71875)"/>
     <use xlink:href="#DejaVuSans-6e" transform="translate(148.291016 0.71875)"/>
     <use xlink:href="#DejaVuSans-74" transform="translate(211.669922 0.71875)"/>
     <use xlink:href="#DejaVuSans-6f" transform="translate(250.878906 0.71875)"/>
     <use xlink:href="#DejaVuSans-74" transform="translate(312.060547 0.71875)"/>
     <use xlink:href="#DejaVuSans-61" transform="translate(351.269531 0.71875)"/>
     <use xlink:href="#DejaVuSans-73" transform="translate(412.548828 0.71875)"/>
     <use xlink:href="#DejaVuSans-3a" transform="translate(464.648438 0.71875)"/>
     <use xlink:href="#DejaVuSans-20" transform="translate(498.339844 0.71875)"/>
     <use xlink:href="#DejaVuSans-Oblique-79" transform="translate(530.126953 0.71875)"/>
     <use xlink:href="#DejaVuSans-3d" transform="translate(608.789062 0.71875)"/>
     <use xlink:href="#DejaVuSans-b1" transform="translate(712.060547 0.71875)"/>
     <use xlink:href="#DejaVuSans-Oblique-78" transform="translate(795.849609 0.71875)"/>
     <use xlink:href="#DejaVuSans-20" transform="translate(855.029297 0.71875)"/>
     <use xlink:href="#DejaVuSans-20" transform="translate(886.816406 0.71875)"/>
     <use xlink:href="#DejaVuSansDisplay-2022" transform="translate(918.603516 0.71875)"/>
     <use xlink:href="#DejaVuSans-20" transform="translate(977.587891 0.71875)"/>
     <use xlink:href="#DejaVuSans-20" transform="translate(1009.375 0.71875)"/>
     <use xlink:href="#DejaVuSans-Oblique-65" transform="translate(1041.162109 0.71875)"/>
     <use xlink:href="#DejaVuSans-3d" transform="translate(1122.167969 0.71875)"/>
     <use xlink:href="#STIXSizeOneSym-Regular-221a" transform="translate(1225.439453 17.53125) scale(0.571018)"/>
     <use xlink:href="#DejaVuSans-32" transform="translate(1298.320572 0.53125)"/>
     <path d="M 1285.820572 99.5 
L 1285.820572 105.75 
L 1374.443619 105.75 
L 1374.443619 99.5 
L 1285.820572 99.5 
z
"/>
    </g>
   </g>
  </g>
  <g id="text_40">
   <!-- La Hipérbola -->
   <g style="fill: #1f2937" transform="translate(458.16726 18.397812) scale(0.14 -0.14)">
    <use xlink:href="#DejaVuSans-Bold-4c"/>
    <use xlink:href="#DejaVuSans-Bold-61" transform="translate(63.720703 0)"/>
    <use xlink:href="#DejaVuSans-Bold-20" transform="translate(131.201172 0)"/>
    <use xlink:href="#DejaVuSans-Bold-48" transform="translate(166.015625 0)"/>
    <use xlink:href="#DejaVuSans-Bold-69" transform="translate(249.707031 0)"/>
    <use xlink:href="#DejaVuSans-Bold-70" transform="translate(283.984375 0)"/>
    <use xlink:href="#DejaVuSans-Bold-e9" transform="translate(355.566406 0)"/>
    <use xlink:href="#DejaVuSans-Bold-72" transform="translate(423.388672 0)"/>
    <use xlink:href="#DejaVuSans-Bold-62" transform="translate(472.705078 0)"/>
    <use xlink:href="#DejaVuSans-Bold-6f" transform="translate(544.287109 0)"/>
    <use xlink:href="#DejaVuSans-Bold-6c" transform="translate(612.988281 0)"/>
    <use xlink:href="#DejaVuSans-Bold-61" transform="translate(647.265625 0)"/>
   </g>
  </g>
 </g>
 <defs>
  <clipPath id="p4ccbfc246e">
   <rect x="296.777113" y="42.108136" width="422.845294" height="295.991706"/>
  </clipPath>
  <clipPath id="p2f8e865bb6">
   <rect x="7.2" y="421.513592" width="425.39976" height="227.685928"/>
  </clipPath>
  <clipPath id="pda37c8b53e">
   <rect x="583.79976" y="421.513592" width="425.39976" height="227.685928"/>
  </clipPath>
 </defs>
</svg>
