<?xml version="1.0" encoding="utf-8" standalone="no"?>
<!DOCTYPE svg PUBLIC "-//W3C//DTD SVG 1.1//EN"
  "http://www.w3.org/Graphics/SVG/1.1/DTD/svg11.dtd">
<svg xmlns:xlink="http://www.w3.org/1999/xlink" width="1013.994083pt" height="588.946367pt" viewBox="0 0 1013.994083 588.946367" xmlns="http://www.w3.org/2000/svg" version="1.1">
 <metadata>
  <rdf:RDF xmlns:dc="http://purl.org/dc/elements/1.1/" xmlns:cc="http://creativecommons.org/ns#" xmlns:rdf="http://www.w3.org/1999/02/22-rdf-syntax-ns#">
   <cc:Work>
    <dc:type rdf:resource="http://purl.org/dc/dcmitype/StillImage"/>
    <dc:date>2026-01-04T22:15:53.994718</dc:date>
    <dc:format>image/svg+xml</dc:format>
    <dc:creator>
     <cc:Agent>
      <dc:title>Repositorio Matemáticas Universitarias</dc:title>
     </cc:Agent>
    </dc:creator>
   </cc:Work>
  </rdf:RDF>
 </metadata>
 <defs>
  <style type="text/css">*{stroke-linejoin: round; stroke-linecap: butt}</style>
 </defs>
 <g id="figure_1">
  <g id="patch_1">
   <path d="M 0 588.946367 
L 1013.994083 588.946367 
L 1013.994083 0 
L 0 0 
z
" style="fill: #ffffff"/>
  </g>
  <g id="axes_1">
   <g id="patch_2">
    <path d="M 46.536563 548.486679 
L 557.352577 548.486679 
L 557.352577 37.670665 
L 46.536563 37.670665 
z
" style="fill: #ffffff"/>
   </g>
   <g id="matplotlib.axis_1">
    <g id="xtick_1">
     <g id="line2d_1">
      <path d="M 46.536563 548.486679 
L 46.536563 37.670665 
" clip-path="url(#p09ff7cb540)" style="fill: none; stroke-dasharray: 2.96,1.28; stroke-dashoffset: 0; stroke: #e5e7eb; stroke-opacity: 0.3; stroke-width: 0.8"/>
     </g>
     <g id="line2d_2">
      <defs>
       <path id="meb6b11e27f" d="M 0 0 
L 0 3.5 
" style="stroke: #1f2937; stroke-width: 0.8"/>
      </defs>
      <g>
       <use xlink:href="#meb6b11e27f" x="46.536563" y="548.486679" style="fill: #1f2937; stroke: #1f2937; stroke-width: 0.8"/>
      </g>
     </g>
     <g id="text_1">
      <!-- −2 -->
      <g style="fill: #1f2937" transform="translate(37.69125 564.604804) scale(0.12 -0.12)">
       <defs>
        <path id="DejaVuSans-2212" d="M 678 2272 
L 4684 2272 
L 4684 1741 
L 678 1741 
L 678 2272 
z
" transform="scale(0.015625)"/>
        <path id="DejaVuSans-32" d="M 1228 531 
L 3431 531 
L 3431 0 
L 469 0 
L 469 531 
Q 828 903 1448 1529 
Q 2069 2156 2228 2338 
Q 2531 2678 2651 2914 
Q 2772 3150 2772 3378 
Q 2772 3750 2511 3984 
Q 2250 4219 1831 4219 
Q 1534 4219 1204 4116 
Q 875 4013 500 3803 
L 500 4441 
Q 881 4594 1212 4672 
Q 1544 4750 1819 4750 
Q 2544 4750 2975 4387 
Q 3406 4025 3406 3419 
Q 3406 3131 3298 2873 
Q 3191 2616 2906 2266 
Q 2828 2175 2409 1742 
Q 1991 1309 1228 531 
z
" transform="scale(0.015625)"/>
       </defs>
       <use xlink:href="#DejaVuSans-2212"/>
       <use xlink:href="#DejaVuSans-32" transform="translate(83.789062 0)"/>
      </g>
     </g>
    </g>
    <g id="xtick_2">
     <g id="line2d_3">
      <path d="M 139.412201 548.486679 
L 139.412201 37.670665 
" clip-path="url(#p09ff7cb540)" style="fill: none; stroke-dasharray: 2.96,1.28; stroke-dashoffset: 0; stroke: #e5e7eb; stroke-opacity: 0.3; stroke-width: 0.8"/>
     </g>
     <g id="line2d_4">
      <g>
       <use xlink:href="#meb6b11e27f" x="139.412201" y="548.486679" style="fill: #1f2937; stroke: #1f2937; stroke-width: 0.8"/>
      </g>
     </g>
     <g id="text_2">
      <!-- −1 -->
      <g style="fill: #1f2937" transform="translate(130.566889 564.604804) scale(0.12 -0.12)">
       <defs>
        <path id="DejaVuSans-31" d="M 794 531 
L 1825 531 
L 1825 4091 
L 703 3866 
L 703 4441 
L 1819 4666 
L 2450 4666 
L 2450 531 
L 3481 531 
L 3481 0 
L 794 0 
L 794 531 
z
" transform="scale(0.015625)"/>
       </defs>
       <use xlink:href="#DejaVuSans-2212"/>
       <use xlink:href="#DejaVuSans-31" transform="translate(83.789062 0)"/>
      </g>
     </g>
    </g>
    <g id="xtick_3">
     <g id="line2d_5">
      <path d="M 232.28784 548.486679 
L 232.28784 37.670665 
" clip-path="url(#p09ff7cb540)" style="fill: none; stroke-dasharray: 2.96,1.28; stroke-dashoffset: 0; stroke: #e5e7eb; stroke-opacity: 0.3; stroke-width: 0.8"/>
     </g>
     <g id="line2d_6">
      <g>
       <use xlink:href="#meb6b11e27f" x="232.28784" y="548.486679" style="fill: #1f2937; stroke: #1f2937; stroke-width: 0.8"/>
      </g>
     </g>
     <g id="text_3">
      <!-- 0 -->
      <g style="fill: #1f2937" transform="translate(228.47034 564.604804) scale(0.12 -0.12)">
       <defs>
        <path id="DejaVuSans-30" d="M 2034 4250 
Q 1547 4250 1301 3770 
Q 1056 3291 1056 2328 
Q 1056 1369 1301 889 
Q 1547 409 2034 409 
Q 2525 409 2770 889 
Q 3016 1369 3016 2328 
Q 3016 3291 2770 3770 
Q 2525 4250 2034 4250 
z
M 2034 4750 
Q 2819 4750 3233 4129 
Q 3647 3509 3647 2328 
Q 3647 1150 3233 529 
Q 2819 -91 2034 -91 
Q 1250 -91 836 529 
Q 422 1150 422 2328 
Q 422 3509 836 4129 
Q 1250 4750 2034 4750 
z
" transform="scale(0.015625)"/>
       </defs>
       <use xlink:href="#DejaVuSans-30"/>
      </g>
     </g>
    </g>
    <g id="xtick_4">
     <g id="line2d_7">
      <path d="M 325.163479 548.486679 
L 325.163479 37.670665 
" clip-path="url(#p09ff7cb540)" style="fill: none; stroke-dasharray: 2.96,1.28; stroke-dashoffset: 0; stroke: #e5e7eb; stroke-opacity: 0.3; stroke-width: 0.8"/>
     </g>
     <g id="line2d_8">
      <g>
       <use xlink:href="#meb6b11e27f" x="325.163479" y="548.486679" style="fill: #1f2937; stroke: #1f2937; stroke-width: 0.8"/>
      </g>
     </g>
     <g id="text_4">
      <!-- 1 -->
      <g style="fill: #1f2937" transform="translate(321.345979 564.604804) scale(0.12 -0.12)">
       <use xlink:href="#DejaVuSans-31"/>
      </g>
     </g>
    </g>
    <g id="xtick_5">
     <g id="line2d_9">
      <path d="M 418.039118 548.486679 
L 418.039118 37.670665 
" clip-path="url(#p09ff7cb540)" style="fill: none; stroke-dasharray: 2.96,1.28; stroke-dashoffset: 0; stroke: #e5e7eb; stroke-opacity: 0.3; stroke-width: 0.8"/>
     </g>
     <g id="line2d_10">
      <g>
       <use xlink:href="#meb6b11e27f" x="418.039118" y="548.486679" style="fill: #1f2937; stroke: #1f2937; stroke-width: 0.8"/>
      </g>
     </g>
     <g id="text_5">
      <!-- 2 -->
      <g style="fill: #1f2937" transform="translate(414.221618 564.604804) scale(0.12 -0.12)">
       <use xlink:href="#DejaVuSans-32"/>
      </g>
     </g>
    </g>
    <g id="xtick_6">
     <g id="line2d_11">
      <path d="M 510.914757 548.486679 
L 510.914757 37.670665 
" clip-path="url(#p09ff7cb540)" style="fill: none; stroke-dasharray: 2.96,1.28; stroke-dashoffset: 0; stroke: #e5e7eb; stroke-opacity: 0.3; stroke-width: 0.8"/>
     </g>
     <g id="line2d_12">
      <g>
       <use xlink:href="#meb6b11e27f" x="510.914757" y="548.486679" style="fill: #1f2937; stroke: #1f2937; stroke-width: 0.8"/>
      </g>
     </g>
     <g id="text_6">
      <!-- 3 -->
      <g style="fill: #1f2937" transform="translate(507.097257 564.604804) scale(0.12 -0.12)">
       <defs>
        <path id="DejaVuSans-33" d="M 2597 2516 
Q 3050 2419 3304 2112 
Q 3559 1806 3559 1356 
Q 3559 666 3084 287 
Q 2609 -91 1734 -91 
Q 1441 -91 1130 -33 
Q 819 25 488 141 
L 488 750 
Q 750 597 1062 519 
Q 1375 441 1716 441 
Q 2309 441 2620 675 
Q 2931 909 2931 1356 
Q 2931 1769 2642 2001 
Q 2353 2234 1838 2234 
L 1294 2234 
L 1294 2753 
L 1863 2753 
Q 2328 2753 2575 2939 
Q 2822 3125 2822 3475 
Q 2822 3834 2567 4026 
Q 2313 4219 1838 4219 
Q 1578 4219 1281 4162 
Q 984 4106 628 3988 
L 628 4550 
Q 988 4650 1302 4700 
Q 1616 4750 1894 4750 
Q 2613 4750 3031 4423 
Q 3450 4097 3450 3541 
Q 3450 3153 3228 2886 
Q 3006 2619 2597 2516 
z
" transform="scale(0.015625)"/>
       </defs>
       <use xlink:href="#DejaVuSans-33"/>
      </g>
     </g>
    </g>
    <g id="text_7">
     <!-- x -->
     <g style="fill: #1f2937" transform="translate(298.689257 579.45871) scale(0.11 -0.11)">
      <defs>
       <path id="DejaVuSans-78" d="M 3513 3500 
L 2247 1797 
L 3578 0 
L 2900 0 
L 1881 1375 
L 863 0 
L 184 0 
L 1544 1831 
L 300 3500 
L 978 3500 
L 1906 2253 
L 2834 3500 
L 3513 3500 
z
" transform="scale(0.015625)"/>
      </defs>
      <use xlink:href="#DejaVuSans-78"/>
     </g>
    </g>
   </g>
   <g id="matplotlib.axis_2">
    <g id="ytick_1">
     <g id="line2d_13">
      <path d="M 46.536563 502.04886 
L 557.352577 502.04886 
" clip-path="url(#p09ff7cb540)" style="fill: none; stroke-dasharray: 2.96,1.28; stroke-dashoffset: 0; stroke: #e5e7eb; stroke-opacity: 0.3; stroke-width: 0.8"/>
     </g>
     <g id="line2d_14">
      <defs>
       <path id="md50b1c9f50" d="M 0 0 
L -3.5 0 
" style="stroke: #1f2937; stroke-width: 0.8"/>
      </defs>
      <g>
       <use xlink:href="#md50b1c9f50" x="46.536563" y="502.04886" style="fill: #1f2937; stroke: #1f2937; stroke-width: 0.8"/>
      </g>
     </g>
     <g id="text_8">
      <!-- −1 -->
      <g style="fill: #1f2937" transform="translate(21.845938 506.607922) scale(0.12 -0.12)">
       <use xlink:href="#DejaVuSans-2212"/>
       <use xlink:href="#DejaVuSans-31" transform="translate(83.789062 0)"/>
      </g>
     </g>
    </g>
    <g id="ytick_2">
     <g id="line2d_15">
      <path d="M 46.536563 409.173221 
L 557.352577 409.173221 
" clip-path="url(#p09ff7cb540)" style="fill: none; stroke-dasharray: 2.96,1.28; stroke-dashoffset: 0; stroke: #e5e7eb; stroke-opacity: 0.3; stroke-width: 0.8"/>
     </g>
     <g id="line2d_16">
      <g>
       <use xlink:href="#md50b1c9f50" x="46.536563" y="409.173221" style="fill: #1f2937; stroke: #1f2937; stroke-width: 0.8"/>
      </g>
     </g>
     <g id="text_9">
      <!-- 0 -->
      <g style="fill: #1f2937" transform="translate(31.901563 413.732283) scale(0.12 -0.12)">
       <use xlink:href="#DejaVuSans-30"/>
      </g>
     </g>
    </g>
    <g id="ytick_3">
     <g id="line2d_17">
      <path d="M 46.536563 316.297582 
L 557.352577 316.297582 
" clip-path="url(#p09ff7cb540)" style="fill: none; stroke-dasharray: 2.96,1.28; stroke-dashoffset: 0; stroke: #e5e7eb; stroke-opacity: 0.3; stroke-width: 0.8"/>
     </g>
     <g id="line2d_18">
      <g>
       <use xlink:href="#md50b1c9f50" x="46.536563" y="316.297582" style="fill: #1f2937; stroke: #1f2937; stroke-width: 0.8"/>
      </g>
     </g>
     <g id="text_10">
      <!-- 1 -->
      <g style="fill: #1f2937" transform="translate(31.901563 320.856644) scale(0.12 -0.12)">
       <use xlink:href="#DejaVuSans-31"/>
      </g>
     </g>
    </g>
    <g id="ytick_4">
     <g id="line2d_19">
      <path d="M 46.536563 223.421943 
L 557.352577 223.421943 
" clip-path="url(#p09ff7cb540)" style="fill: none; stroke-dasharray: 2.96,1.28; stroke-dashoffset: 0; stroke: #e5e7eb; stroke-opacity: 0.3; stroke-width: 0.8"/>
     </g>
     <g id="line2d_20">
      <g>
       <use xlink:href="#md50b1c9f50" x="46.536563" y="223.421943" style="fill: #1f2937; stroke: #1f2937; stroke-width: 0.8"/>
      </g>
     </g>
     <g id="text_11">
      <!-- 2 -->
      <g style="fill: #1f2937" transform="translate(31.901563 227.981005) scale(0.12 -0.12)">
       <use xlink:href="#DejaVuSans-32"/>
      </g>
     </g>
    </g>
    <g id="ytick_5">
     <g id="line2d_21">
      <path d="M 46.536563 130.546304 
L 557.352577 130.546304 
" clip-path="url(#p09ff7cb540)" style="fill: none; stroke-dasharray: 2.96,1.28; stroke-dashoffset: 0; stroke: #e5e7eb; stroke-opacity: 0.3; stroke-width: 0.8"/>
     </g>
     <g id="line2d_22">
      <g>
       <use xlink:href="#md50b1c9f50" x="46.536563" y="130.546304" style="fill: #1f2937; stroke: #1f2937; stroke-width: 0.8"/>
      </g>
     </g>
     <g id="text_12">
      <!-- 3 -->
      <g style="fill: #1f2937" transform="translate(31.901563 135.105366) scale(0.12 -0.12)">
       <use xlink:href="#DejaVuSans-33"/>
      </g>
     </g>
    </g>
    <g id="ytick_6">
     <g id="line2d_23">
      <path d="M 46.536563 37.670665 
L 557.352577 37.670665 
" clip-path="url(#p09ff7cb540)" style="fill: none; stroke-dasharray: 2.96,1.28; stroke-dashoffset: 0; stroke: #e5e7eb; stroke-opacity: 0.3; stroke-width: 0.8"/>
     </g>
     <g id="line2d_24">
      <g>
       <use xlink:href="#md50b1c9f50" x="46.536563" y="37.670665" style="fill: #1f2937; stroke: #1f2937; stroke-width: 0.8"/>
      </g>
     </g>
     <g id="text_13">
      <!-- 4 -->
      <g style="fill: #1f2937" transform="translate(31.901563 42.229727) scale(0.12 -0.12)">
       <defs>
        <path id="DejaVuSans-34" d="M 2419 4116 
L 825 1625 
L 2419 1625 
L 2419 4116 
z
M 2253 4666 
L 3047 4666 
L 3047 1625 
L 3713 1625 
L 3713 1100 
L 3047 1100 
L 3047 0 
L 2419 0 
L 2419 1100 
L 313 1100 
L 313 1709 
L 2253 4666 
z
" transform="scale(0.015625)"/>
       </defs>
       <use xlink:href="#DejaVuSans-34"/>
      </g>
     </g>
    </g>
    <g id="text_14">
     <!-- y -->
     <g style="fill: #1f2937" transform="translate(15.558281 296.333984) rotate(-90) scale(0.11 -0.11)">
      <defs>
       <path id="DejaVuSans-79" d="M 2059 -325 
Q 1816 -950 1584 -1140 
Q 1353 -1331 966 -1331 
L 506 -1331 
L 506 -850 
L 844 -850 
Q 1081 -850 1212 -737 
Q 1344 -625 1503 -206 
L 1606 56 
L 191 3500 
L 800 3500 
L 1894 763 
L 2988 3500 
L 3597 3500 
L 2059 -325 
z
" transform="scale(0.015625)"/>
      </defs>
      <use xlink:href="#DejaVuSans-79"/>
     </g>
    </g>
   </g>
   <g id="line2d_25">
    <path d="M 92.974382 461.415768 
L 98.574923 455.365055 
L 102.308617 451.602625 
L 106.042311 448.050256 
L 111.642852 443.10237 
L 117.243393 438.593182 
L 122.843934 434.502327 
L 128.444475 430.80944 
L 134.045016 427.494156 
L 139.645557 424.536109 
L 145.246098 421.914934 
L 150.846639 419.610267 
L 156.44718 417.601743 
L 162.047722 415.868995 
L 167.648263 414.39166 
L 173.248804 413.149372 
L 178.849345 412.121766 
L 184.449886 411.288477 
L 191.917274 410.444496 
L 199.384662 409.86149 
L 206.85205 409.491187 
L 216.186285 409.253879 
L 229.254214 409.17376 
L 249.789531 409.069638 
L 259.123766 408.799803 
L 266.591154 408.393295 
L 274.058542 407.765033 
L 281.52593 406.866746 
L 287.126471 405.986787 
L 292.727013 404.907419 
L 298.327554 403.608278 
L 303.928095 402.068999 
L 309.528636 400.269217 
L 315.129177 398.188566 
L 320.729718 395.806681 
L 326.330259 393.103198 
L 331.9308 390.057751 
L 337.531341 386.649975 
L 343.131882 382.859505 
L 346.865576 380.10986 
L 350.59927 377.175044 
L 354.332964 374.049023 
L 358.066658 370.725761 
L 361.800352 367.199226 
L 365.534046 363.463384 
L 369.26774 359.512199 
L 373.001434 355.339638 
L 376.735128 350.939667 
L 380.468822 346.306251 
L 384.202516 341.433358 
L 387.93621 336.314951 
L 393.536751 328.163807 
L 399.137292 319.426317 
L 404.737833 310.082117 
L 410.338374 300.110843 
L 415.938915 289.492128 
L 421.539457 278.205608 
L 427.139998 266.230918 
L 432.740539 253.547692 
L 438.34108 240.135566 
L 443.941621 225.974174 
L 449.542162 211.043151 
L 455.142703 195.322133 
L 460.743244 178.790754 
L 464.476938 167.309577 
L 464.476938 167.309577 
" clip-path="url(#p09ff7cb540)" style="fill: none; stroke: #2563eb; stroke-width: 3; stroke-linecap: square"/>
   </g>
   <g id="line2d_26">
    <path d="M 403.935621 264.906395 
L 403.644071 255.721949 
L 402.770594 246.574486 
L 401.318708 237.50084 
L 399.294259 228.537545 
L 396.705398 219.720695 
L 393.56255 211.085792 
L 389.878371 202.667606 
L 385.667694 194.500033 
L 380.947476 186.615962 
L 375.736722 179.047139 
L 370.056415 171.824041 
L 363.929427 164.975752 
L 357.380429 158.529849 
L 350.435792 152.512287 
L 343.123479 146.947296 
L 335.472935 141.857285 
L 327.514965 137.262749 
L 319.281614 133.182189 
L 310.806034 129.632036 
L 302.122354 126.626585 
L 293.265539 124.177938 
L 284.271253 122.295955 
L 275.175713 120.988213 
L 266.015543 120.25998 
L 256.827628 120.114186 
L 247.648964 120.55142 
L 238.516511 121.56992 
L 229.467042 123.165586 
L 220.536996 125.331991 
L 211.762331 128.060414 
L 203.178379 131.339867 
L 194.819705 135.157146 
L 186.719967 139.496878 
L 178.911779 144.341591 
L 171.426582 149.671776 
L 164.294517 155.465969 
L 157.544301 161.700841 
L 151.203115 168.351285 
L 145.296494 175.390522 
L 139.84822 182.790209 
L 134.880233 190.520548 
L 130.412536 198.550412 
L 126.46312 206.847469 
L 123.047887 215.378309 
L 120.180589 224.10858 
L 117.872772 233.00313 
L 116.133729 242.026144 
L 114.970462 251.141288 
L 114.387655 260.311859 
L 114.387655 269.500931 
L 114.970462 278.671502 
L 116.133729 287.786646 
L 117.872772 296.809659 
L 120.180589 305.704209 
L 123.047887 314.434481 
L 126.46312 322.96532 
L 130.412536 331.262377 
L 134.880233 339.292242 
L 139.84822 347.022581 
L 145.296494 354.422267 
L 151.203115 361.461504 
L 157.544301 368.111948 
L 164.294517 374.34682 
L 171.426582 380.141014 
L 178.911779 385.471198 
L 186.719967 390.315911 
L 194.819705 394.655644 
L 203.178379 398.472922 
L 211.762331 401.752375 
L 220.536996 404.480798 
L 229.467042 406.647204 
L 238.516511 408.242869 
L 247.648964 409.261369 
L 256.827628 409.698603 
L 266.015543 409.55281 
L 275.175713 408.824576 
L 284.271253 407.516835 
L 293.265539 405.634852 
L 302.122354 403.186205 
L 310.806034 400.180754 
L 319.281614 396.630601 
L 327.514965 392.550041 
L 335.472935 387.955505 
L 343.123479 382.865494 
L 350.435792 377.300503 
L 357.380429 371.28294 
L 363.929427 364.837037 
L 370.056415 357.988749 
L 375.736722 350.76565 
L 380.947476 343.196827 
L 385.667694 335.312756 
L 389.878371 327.145183 
L 393.56255 318.726997 
L 396.705398 310.092094 
L 399.294259 301.275244 
L 401.318708 292.31195 
L 402.770594 283.238303 
L 403.644071 274.09084 
L 403.935621 264.906395 
" clip-path="url(#p09ff7cb540)" style="fill: none; stroke-dasharray: 7.4,3.2; stroke-dashoffset: 0; stroke: #dc2626; stroke-opacity: 0.8; stroke-width: 2"/>
   </g>
   <g id="line2d_27">
    <path d="M 343.738607 382.425037 
L 259.125185 264.906395 
" clip-path="url(#p09ff7cb540)" style="fill: none; stroke: #f59e0b; stroke-width: 2; stroke-linecap: square"/>
   </g>
   <g id="patch_3">
    <path d="M 46.536563 548.486679 
L 46.536563 37.670665 
" style="fill: none; stroke: #000000; stroke-width: 1.5; stroke-linejoin: miter; stroke-linecap: square"/>
   </g>
   <g id="patch_4">
    <path d="M 557.352577 548.486679 
L 557.352577 37.670665 
" style="fill: none; stroke: #000000; stroke-width: 1.5; stroke-linejoin: miter; stroke-linecap: square"/>
   </g>
   <g id="patch_5">
    <path d="M 46.536563 548.486679 
L 557.352577 548.486679 
" style="fill: none; stroke: #000000; stroke-width: 1.5; stroke-linejoin: miter; stroke-linecap: square"/>
   </g>
   <g id="patch_6">
    <path d="M 46.536563 37.670665 
L 557.352577 37.670665 
" style="fill: none; stroke: #000000; stroke-width: 1.5; stroke-linejoin: miter; stroke-linecap: square"/>
   </g>
   <g id="text_15">
    <!-- P -->
    <g style="fill: #059669" transform="translate(357.669953 410.287728) scale(0.12 -0.12)">
     <defs>
      <path id="DejaVuSans-Bold-50" d="M 588 4666 
L 2584 4666 
Q 3475 4666 3951 4270 
Q 4428 3875 4428 3144 
Q 4428 2409 3951 2014 
Q 3475 1619 2584 1619 
L 1791 1619 
L 1791 0 
L 588 0 
L 588 4666 
z
M 1791 3794 
L 1791 2491 
L 2456 2491 
Q 2806 2491 2997 2661 
Q 3188 2831 3188 3144 
Q 3188 3456 2997 3625 
Q 2806 3794 2456 3794 
L 1791 3794 
z
" transform="scale(0.015625)"/>
     </defs>
     <use xlink:href="#DejaVuSans-Bold-50"/>
    </g>
   </g>
   <g id="text_16">
    <!-- Centro -->
    <g style="fill: #dc2626" transform="translate(273.056531 250.975049) scale(0.1 -0.1)">
     <defs>
      <path id="DejaVuSans-43" d="M 4122 4306 
L 4122 3641 
Q 3803 3938 3442 4084 
Q 3081 4231 2675 4231 
Q 1875 4231 1450 3742 
Q 1025 3253 1025 2328 
Q 1025 1406 1450 917 
Q 1875 428 2675 428 
Q 3081 428 3442 575 
Q 3803 722 4122 1019 
L 4122 359 
Q 3791 134 3420 21 
Q 3050 -91 2638 -91 
Q 1578 -91 968 557 
Q 359 1206 359 2328 
Q 359 3453 968 4101 
Q 1578 4750 2638 4750 
Q 3056 4750 3426 4639 
Q 3797 4528 4122 4306 
z
" transform="scale(0.015625)"/>
      <path id="DejaVuSans-65" d="M 3597 1894 
L 3597 1613 
L 953 1613 
Q 991 1019 1311 708 
Q 1631 397 2203 397 
Q 2534 397 2845 478 
Q 3156 559 3463 722 
L 3463 178 
Q 3153 47 2828 -22 
Q 2503 -91 2169 -91 
Q 1331 -91 842 396 
Q 353 884 353 1716 
Q 353 2575 817 3079 
Q 1281 3584 2069 3584 
Q 2775 3584 3186 3129 
Q 3597 2675 3597 1894 
z
M 3022 2063 
Q 3016 2534 2758 2815 
Q 2500 3097 2075 3097 
Q 1594 3097 1305 2825 
Q 1016 2553 972 2059 
L 3022 2063 
z
" transform="scale(0.015625)"/>
      <path id="DejaVuSans-6e" d="M 3513 2113 
L 3513 0 
L 2938 0 
L 2938 2094 
Q 2938 2591 2744 2837 
Q 2550 3084 2163 3084 
Q 1697 3084 1428 2787 
Q 1159 2491 1159 1978 
L 1159 0 
L 581 0 
L 581 3500 
L 1159 3500 
L 1159 2956 
Q 1366 3272 1645 3428 
Q 1925 3584 2291 3584 
Q 2894 3584 3203 3211 
Q 3513 2838 3513 2113 
z
" transform="scale(0.015625)"/>
      <path id="DejaVuSans-74" d="M 1172 4494 
L 1172 3500 
L 2356 3500 
L 2356 3053 
L 1172 3053 
L 1172 1153 
Q 1172 725 1289 603 
Q 1406 481 1766 481 
L 2356 481 
L 2356 0 
L 1766 0 
Q 1100 0 847 248 
Q 594 497 594 1153 
L 594 3053 
L 172 3053 
L 172 3500 
L 594 3500 
L 594 4494 
L 1172 4494 
z
" transform="scale(0.015625)"/>
      <path id="DejaVuSans-72" d="M 2631 2963 
Q 2534 3019 2420 3045 
Q 2306 3072 2169 3072 
Q 1681 3072 1420 2755 
Q 1159 2438 1159 1844 
L 1159 0 
L 581 0 
L 581 3500 
L 1159 3500 
L 1159 2956 
Q 1341 3275 1631 3429 
Q 1922 3584 2338 3584 
Q 2397 3584 2469 3576 
Q 2541 3569 2628 3553 
L 2631 2963 
z
" transform="scale(0.015625)"/>
      <path id="DejaVuSans-6f" d="M 1959 3097 
Q 1497 3097 1228 2736 
Q 959 2375 959 1747 
Q 959 1119 1226 758 
Q 1494 397 1959 397 
Q 2419 397 2687 759 
Q 2956 1122 2956 1747 
Q 2956 2369 2687 2733 
Q 2419 3097 1959 3097 
z
M 1959 3584 
Q 2709 3584 3137 3096 
Q 3566 2609 3566 1747 
Q 3566 888 3137 398 
Q 2709 -91 1959 -91 
Q 1206 -91 779 398 
Q 353 888 353 1747 
Q 353 2609 779 3096 
Q 1206 3584 1959 3584 
z
" transform="scale(0.015625)"/>
     </defs>
     <use xlink:href="#DejaVuSans-43"/>
     <use xlink:href="#DejaVuSans-65" transform="translate(69.824219 0)"/>
     <use xlink:href="#DejaVuSans-6e" transform="translate(131.347656 0)"/>
     <use xlink:href="#DejaVuSans-74" transform="translate(194.726562 0)"/>
     <use xlink:href="#DejaVuSans-72" transform="translate(233.935547 0)"/>
     <use xlink:href="#DejaVuSans-6f" transform="translate(272.798828 0)"/>
    </g>
   </g>
   <g id="text_17">
    <!-- $\rho$ -->
    <g style="fill: #f59e0b" transform="translate(273.569204 323.665716) scale(0.14 -0.14)">
     <defs>
      <path id="DejaVuSans-Oblique-3c1" d="M 1203 2875 
Q 1453 3194 1981 3475 
Q 2188 3584 2756 3584 
Q 3394 3584 3694 3078 
Q 3994 2572 3834 1747 
Q 3672 922 3175 415 
Q 2678 -91 2041 -91 
Q 1656 -91 1409 63 
Q 1163 213 1044 525 
L 681 -1331 
L 103 -1331 
L 697 1716 
Q 838 2438 1203 2875 
z
M 3238 1747 
Q 3359 2381 3169 2744 
Q 2978 3103 2522 3103 
Q 2066 3103 1734 2744 
Q 1403 2381 1281 1747 
Q 1156 1113 1347 750 
Q 1538 391 1994 391 
Q 2450 391 2781 750 
Q 3113 1113 3238 1747 
z
" transform="scale(0.015625)"/>
     </defs>
     <use xlink:href="#DejaVuSans-Oblique-3c1"/>
    </g>
   </g>
   <g id="patch_7">
    <path d="M 345.361603 381.25648 
Q 373.887671 360.717711 400.145431 341.812123 
" style="fill: none; stroke: #2563eb; stroke-width: 2.5; stroke-linecap: round"/>
    <path d="M 394.847735 342.669103 
L 400.145431 341.812123 
L 397.652398 346.564468 
" style="fill: none; stroke: #2563eb; stroke-width: 2.5; stroke-linecap: round"/>
   </g>
   <g id="patch_8">
    <path d="M 342.57005 380.802041 
Q 322.031281 352.275973 303.125694 326.018212 
" style="fill: none; stroke: #10b981; stroke-width: 2.5; stroke-linecap: round"/>
    <path d="M 303.982674 331.315908 
L 303.125694 326.018212 
L 307.878039 328.511246 
" style="fill: none; stroke: #10b981; stroke-width: 2.5; stroke-linecap: round"/>
   </g>
   <g id="text_18">
    <!-- $\mathbf{T}$ -->
    <g style="fill: #2563eb" transform="translate(413.323588 329.723333) scale(0.12 -0.12)">
     <defs>
      <path id="DejaVuSans-Bold-54" d="M 31 4666 
L 4331 4666 
L 4331 3756 
L 2784 3756 
L 2784 0 
L 1581 0 
L 1581 3756 
L 31 3756 
L 31 4666 
z
" transform="scale(0.015625)"/>
     </defs>
     <use xlink:href="#DejaVuSans-Bold-54" transform="translate(0 0.09375)"/>
    </g>
   </g>
   <g id="text_19">
    <!-- $\mathbf{N}$ -->
    <g style="fill: #10b981" transform="translate(281.74934 312.840056) scale(0.12 -0.12)">
     <defs>
      <path id="DejaVuSans-Bold-4e" d="M 588 4666 
L 1931 4666 
L 3628 1466 
L 3628 4666 
L 4769 4666 
L 4769 0 
L 3425 0 
L 1728 3200 
L 1728 0 
L 588 0 
L 588 4666 
z
" transform="scale(0.015625)"/>
     </defs>
     <use xlink:href="#DejaVuSans-Bold-4e" transform="translate(0 0.09375)"/>
    </g>
   </g>
   <g id="text_20">
    <!-- Círculo Osculador y Radio de Curvatura -->
    <g style="fill: #1f2937" transform="translate(180.018163 31.670665) scale(0.11 -0.11)">
     <defs>
      <path id="DejaVuSans-Bold-43" d="M 4288 256 
Q 3956 84 3597 -3 
Q 3238 -91 2847 -91 
Q 1681 -91 1000 561 
Q 319 1213 319 2328 
Q 319 3447 1000 4098 
Q 1681 4750 2847 4750 
Q 3238 4750 3597 4662 
Q 3956 4575 4288 4403 
L 4288 3438 
Q 3953 3666 3628 3772 
Q 3303 3878 2944 3878 
Q 2300 3878 1931 3465 
Q 1563 3053 1563 2328 
Q 1563 1606 1931 1193 
Q 2300 781 2944 781 
Q 3303 781 3628 887 
Q 3953 994 4288 1222 
L 4288 256 
z
" transform="scale(0.015625)"/>
      <path id="DejaVuSans-Bold-ed" d="M 538 3500 
L 1656 3500 
L 1656 0 
L 538 0 
L 538 3500 
z
M 1590 5119 
L 2474 5119 
L 1321 3944 
L 709 3944 
L 1590 5119 
z
" transform="scale(0.015625)"/>
      <path id="DejaVuSans-Bold-72" d="M 3138 2547 
Q 2991 2616 2845 2648 
Q 2700 2681 2553 2681 
Q 2122 2681 1889 2404 
Q 1656 2128 1656 1613 
L 1656 0 
L 538 0 
L 538 3500 
L 1656 3500 
L 1656 2925 
Q 1872 3269 2151 3426 
Q 2431 3584 2822 3584 
Q 2878 3584 2943 3579 
Q 3009 3575 3134 3559 
L 3138 2547 
z
" transform="scale(0.015625)"/>
      <path id="DejaVuSans-Bold-63" d="M 3366 3391 
L 3366 2478 
Q 3138 2634 2908 2709 
Q 2678 2784 2431 2784 
Q 1963 2784 1702 2511 
Q 1441 2238 1441 1747 
Q 1441 1256 1702 982 
Q 1963 709 2431 709 
Q 2694 709 2930 787 
Q 3166 866 3366 1019 
L 3366 103 
Q 3103 6 2833 -42 
Q 2563 -91 2291 -91 
Q 1344 -91 809 395 
Q 275 881 275 1747 
Q 275 2613 809 3098 
Q 1344 3584 2291 3584 
Q 2566 3584 2833 3536 
Q 3100 3488 3366 3391 
z
" transform="scale(0.015625)"/>
      <path id="DejaVuSans-Bold-75" d="M 500 1363 
L 500 3500 
L 1625 3500 
L 1625 3150 
Q 1625 2866 1622 2436 
Q 1619 2006 1619 1863 
Q 1619 1441 1641 1255 
Q 1663 1069 1716 984 
Q 1784 875 1895 815 
Q 2006 756 2150 756 
Q 2500 756 2700 1025 
Q 2900 1294 2900 1772 
L 2900 3500 
L 4019 3500 
L 4019 0 
L 2900 0 
L 2900 506 
Q 2647 200 2364 54 
Q 2081 -91 1741 -91 
Q 1134 -91 817 281 
Q 500 653 500 1363 
z
" transform="scale(0.015625)"/>
      <path id="DejaVuSans-Bold-6c" d="M 538 4863 
L 1656 4863 
L 1656 0 
L 538 0 
L 538 4863 
z
" transform="scale(0.015625)"/>
      <path id="DejaVuSans-Bold-6f" d="M 2203 2784 
Q 1831 2784 1636 2517 
Q 1441 2250 1441 1747 
Q 1441 1244 1636 976 
Q 1831 709 2203 709 
Q 2569 709 2762 976 
Q 2956 1244 2956 1747 
Q 2956 2250 2762 2517 
Q 2569 2784 2203 2784 
z
M 2203 3584 
Q 3106 3584 3614 3096 
Q 4122 2609 4122 1747 
Q 4122 884 3614 396 
Q 3106 -91 2203 -91 
Q 1297 -91 786 396 
Q 275 884 275 1747 
Q 275 2609 786 3096 
Q 1297 3584 2203 3584 
z
" transform="scale(0.015625)"/>
      <path id="DejaVuSans-Bold-20" transform="scale(0.015625)"/>
      <path id="DejaVuSans-Bold-4f" d="M 2719 3878 
Q 2169 3878 1866 3472 
Q 1563 3066 1563 2328 
Q 1563 1594 1866 1187 
Q 2169 781 2719 781 
Q 3272 781 3575 1187 
Q 3878 1594 3878 2328 
Q 3878 3066 3575 3472 
Q 3272 3878 2719 3878 
z
M 2719 4750 
Q 3844 4750 4481 4106 
Q 5119 3463 5119 2328 
Q 5119 1197 4481 553 
Q 3844 -91 2719 -91 
Q 1597 -91 958 553 
Q 319 1197 319 2328 
Q 319 3463 958 4106 
Q 1597 4750 2719 4750 
z
" transform="scale(0.015625)"/>
      <path id="DejaVuSans-Bold-73" d="M 3272 3391 
L 3272 2541 
Q 2913 2691 2578 2766 
Q 2244 2841 1947 2841 
Q 1628 2841 1473 2761 
Q 1319 2681 1319 2516 
Q 1319 2381 1436 2309 
Q 1553 2238 1856 2203 
L 2053 2175 
Q 2913 2066 3209 1816 
Q 3506 1566 3506 1031 
Q 3506 472 3093 190 
Q 2681 -91 1863 -91 
Q 1516 -91 1145 -36 
Q 775 19 384 128 
L 384 978 
Q 719 816 1070 734 
Q 1422 653 1784 653 
Q 2113 653 2278 743 
Q 2444 834 2444 1013 
Q 2444 1163 2330 1236 
Q 2216 1309 1875 1350 
L 1678 1375 
Q 931 1469 631 1722 
Q 331 1975 331 2491 
Q 331 3047 712 3315 
Q 1094 3584 1881 3584 
Q 2191 3584 2531 3537 
Q 2872 3491 3272 3391 
z
" transform="scale(0.015625)"/>
      <path id="DejaVuSans-Bold-61" d="M 2106 1575 
Q 1756 1575 1579 1456 
Q 1403 1338 1403 1106 
Q 1403 894 1545 773 
Q 1688 653 1941 653 
Q 2256 653 2472 879 
Q 2688 1106 2688 1447 
L 2688 1575 
L 2106 1575 
z
M 3816 1997 
L 3816 0 
L 2688 0 
L 2688 519 
Q 2463 200 2181 54 
Q 1900 -91 1497 -91 
Q 953 -91 614 226 
Q 275 544 275 1050 
Q 275 1666 698 1953 
Q 1122 2241 2028 2241 
L 2688 2241 
L 2688 2328 
Q 2688 2594 2478 2717 
Q 2269 2841 1825 2841 
Q 1466 2841 1156 2769 
Q 847 2697 581 2553 
L 581 3406 
Q 941 3494 1303 3539 
Q 1666 3584 2028 3584 
Q 2975 3584 3395 3211 
Q 3816 2838 3816 1997 
z
" transform="scale(0.015625)"/>
      <path id="DejaVuSans-Bold-64" d="M 2919 2988 
L 2919 4863 
L 4044 4863 
L 4044 0 
L 2919 0 
L 2919 506 
Q 2688 197 2409 53 
Q 2131 -91 1766 -91 
Q 1119 -91 703 423 
Q 288 938 288 1747 
Q 288 2556 703 3070 
Q 1119 3584 1766 3584 
Q 2128 3584 2408 3439 
Q 2688 3294 2919 2988 
z
M 2181 722 
Q 2541 722 2730 984 
Q 2919 1247 2919 1747 
Q 2919 2247 2730 2509 
Q 2541 2772 2181 2772 
Q 1825 2772 1636 2509 
Q 1447 2247 1447 1747 
Q 1447 1247 1636 984 
Q 1825 722 2181 722 
z
" transform="scale(0.015625)"/>
      <path id="DejaVuSans-Bold-79" d="M 78 3500 
L 1197 3500 
L 2138 1125 
L 2938 3500 
L 4056 3500 
L 2584 -331 
Q 2363 -916 2067 -1148 
Q 1772 -1381 1288 -1381 
L 641 -1381 
L 641 -647 
L 991 -647 
Q 1275 -647 1404 -556 
Q 1534 -466 1606 -231 
L 1638 -134 
L 78 3500 
z
" transform="scale(0.015625)"/>
      <path id="DejaVuSans-Bold-52" d="M 2297 2597 
Q 2675 2597 2839 2737 
Q 3003 2878 3003 3200 
Q 3003 3519 2839 3656 
Q 2675 3794 2297 3794 
L 1791 3794 
L 1791 2597 
L 2297 2597 
z
M 1791 1766 
L 1791 0 
L 588 0 
L 588 4666 
L 2425 4666 
Q 3347 4666 3776 4356 
Q 4206 4047 4206 3378 
Q 4206 2916 3982 2619 
Q 3759 2322 3309 2181 
Q 3556 2125 3751 1926 
Q 3947 1728 4147 1325 
L 4800 0 
L 3519 0 
L 2950 1159 
Q 2778 1509 2601 1637 
Q 2425 1766 2131 1766 
L 1791 1766 
z
" transform="scale(0.015625)"/>
      <path id="DejaVuSans-Bold-69" d="M 538 3500 
L 1656 3500 
L 1656 0 
L 538 0 
L 538 3500 
z
M 538 4863 
L 1656 4863 
L 1656 3950 
L 538 3950 
L 538 4863 
z
" transform="scale(0.015625)"/>
      <path id="DejaVuSans-Bold-65" d="M 4031 1759 
L 4031 1441 
L 1416 1441 
Q 1456 1047 1700 850 
Q 1944 653 2381 653 
Q 2734 653 3104 758 
Q 3475 863 3866 1075 
L 3866 213 
Q 3469 63 3072 -14 
Q 2675 -91 2278 -91 
Q 1328 -91 801 392 
Q 275 875 275 1747 
Q 275 2603 792 3093 
Q 1309 3584 2216 3584 
Q 3041 3584 3536 3087 
Q 4031 2591 4031 1759 
z
M 2881 2131 
Q 2881 2450 2695 2645 
Q 2509 2841 2209 2841 
Q 1884 2841 1681 2658 
Q 1478 2475 1428 2131 
L 2881 2131 
z
" transform="scale(0.015625)"/>
      <path id="DejaVuSans-Bold-76" d="M 97 3500 
L 1216 3500 
L 2088 1081 
L 2956 3500 
L 4078 3500 
L 2700 0 
L 1472 0 
L 97 3500 
z
" transform="scale(0.015625)"/>
      <path id="DejaVuSans-Bold-74" d="M 1759 4494 
L 1759 3500 
L 2913 3500 
L 2913 2700 
L 1759 2700 
L 1759 1216 
Q 1759 972 1856 886 
Q 1953 800 2241 800 
L 2816 800 
L 2816 0 
L 1856 0 
Q 1194 0 917 276 
Q 641 553 641 1216 
L 641 2700 
L 84 2700 
L 84 3500 
L 641 3500 
L 641 4494 
L 1759 4494 
z
" transform="scale(0.015625)"/>
     </defs>
     <use xlink:href="#DejaVuSans-Bold-43"/>
     <use xlink:href="#DejaVuSans-Bold-ed" transform="translate(73.388672 0)"/>
     <use xlink:href="#DejaVuSans-Bold-72" transform="translate(107.666016 0)"/>
     <use xlink:href="#DejaVuSans-Bold-63" transform="translate(156.982422 0)"/>
     <use xlink:href="#DejaVuSans-Bold-75" transform="translate(216.259766 0)"/>
     <use xlink:href="#DejaVuSans-Bold-6c" transform="translate(287.451172 0)"/>
     <use xlink:href="#DejaVuSans-Bold-6f" transform="translate(321.728516 0)"/>
     <use xlink:href="#DejaVuSans-Bold-20" transform="translate(390.429688 0)"/>
     <use xlink:href="#DejaVuSans-Bold-4f" transform="translate(425.244141 0)"/>
     <use xlink:href="#DejaVuSans-Bold-73" transform="translate(510.253906 0)"/>
     <use xlink:href="#DejaVuSans-Bold-63" transform="translate(569.775391 0)"/>
     <use xlink:href="#DejaVuSans-Bold-75" transform="translate(629.052734 0)"/>
     <use xlink:href="#DejaVuSans-Bold-6c" transform="translate(700.244141 0)"/>
     <use xlink:href="#DejaVuSans-Bold-61" transform="translate(734.521484 0)"/>
     <use xlink:href="#DejaVuSans-Bold-64" transform="translate(802.001953 0)"/>
     <use xlink:href="#DejaVuSans-Bold-6f" transform="translate(873.583984 0)"/>
     <use xlink:href="#DejaVuSans-Bold-72" transform="translate(942.285156 0)"/>
     <use xlink:href="#DejaVuSans-Bold-20" transform="translate(991.601562 0)"/>
     <use xlink:href="#DejaVuSans-Bold-79" transform="translate(1026.416016 0)"/>
     <use xlink:href="#DejaVuSans-Bold-20" transform="translate(1091.601562 0)"/>
     <use xlink:href="#DejaVuSans-Bold-52" transform="translate(1126.416016 0)"/>
     <use xlink:href="#DejaVuSans-Bold-61" transform="translate(1203.417969 0)"/>
     <use xlink:href="#DejaVuSans-Bold-64" transform="translate(1270.898438 0)"/>
     <use xlink:href="#DejaVuSans-Bold-69" transform="translate(1342.480469 0)"/>
     <use xlink:href="#DejaVuSans-Bold-6f" transform="translate(1376.757812 0)"/>
     <use xlink:href="#DejaVuSans-Bold-20" transform="translate(1445.458984 0)"/>
     <use xlink:href="#DejaVuSans-Bold-64" transform="translate(1480.273438 0)"/>
     <use xlink:href="#DejaVuSans-Bold-65" transform="translate(1551.855469 0)"/>
     <use xlink:href="#DejaVuSans-Bold-20" transform="translate(1619.677734 0)"/>
     <use xlink:href="#DejaVuSans-Bold-43" transform="translate(1654.492188 0)"/>
     <use xlink:href="#DejaVuSans-Bold-75" transform="translate(1727.880859 0)"/>
     <use xlink:href="#DejaVuSans-Bold-72" transform="translate(1799.072266 0)"/>
     <use xlink:href="#DejaVuSans-Bold-76" transform="translate(1848.388672 0)"/>
     <use xlink:href="#DejaVuSans-Bold-61" transform="translate(1913.574219 0)"/>
     <use xlink:href="#DejaVuSans-Bold-74" transform="translate(1981.054688 0)"/>
     <use xlink:href="#DejaVuSans-Bold-75" transform="translate(2028.857422 0)"/>
     <use xlink:href="#DejaVuSans-Bold-72" transform="translate(2100.048828 0)"/>
     <use xlink:href="#DejaVuSans-Bold-61" transform="translate(2149.365234 0)"/>
    </g>
   </g>
   <g id="line2d_28">
    <defs>
     <path id="m16ddf41bc3" d="M 0 6 
C 1.591219 6 3.117479 5.367802 4.242641 4.242641 
C 5.367802 3.117479 6 1.591219 6 0 
C 6 -1.591219 5.367802 -3.117479 4.242641 -4.242641 
C 3.117479 -5.367802 1.591219 -6 0 -6 
C -1.591219 -6 -3.117479 -5.367802 -4.242641 -4.242641 
C -5.367802 -3.117479 -6 -1.591219 -6 0 
C -6 1.591219 -5.367802 3.117479 -4.242641 4.242641 
C -3.117479 5.367802 -1.591219 6 0 6 
z
" style="stroke: #059669"/>
    </defs>
    <g clip-path="url(#p09ff7cb540)">
     <use xlink:href="#m16ddf41bc3" x="343.738607" y="382.425037" style="fill: #059669; stroke: #059669"/>
    </g>
   </g>
   <g id="line2d_29">
    <defs>
     <path id="m4a47bb8548" d="M 0 -7.5 
L -1.683855 -2.317627 
L -7.132924 -2.317627 
L -2.724534 0.885255 
L -4.408389 6.067627 
L -0 2.864745 
L 4.408389 6.067627 
L 2.724534 0.885255 
L 7.132924 -2.317627 
L 1.683855 -2.317627 
z
" style="stroke: #dc2626; stroke-linejoin: bevel"/>
    </defs>
    <g clip-path="url(#p09ff7cb540)">
     <use xlink:href="#m4a47bb8548" x="259.125185" y="264.906395" style="fill: #dc2626; stroke: #dc2626; stroke-linejoin: bevel"/>
    </g>
   </g>
   <g id="legend_1">
    <g id="patch_9">
     <path d="M 52.836562 75.900977 
L 159.222187 75.900977 
Q 161.022188 75.900977 161.022188 74.100977 
L 161.022188 43.970665 
Q 161.022188 42.170665 159.222187 42.170665 
L 52.836562 42.170665 
Q 51.036563 42.170665 51.036563 43.970665 
L 51.036563 74.100977 
Q 51.036563 75.900977 52.836562 75.900977 
z
" style="fill: #ffffff; opacity: 0.8; stroke: #cccccc; stroke-linejoin: miter"/>
    </g>
    <g id="line2d_30">
     <path d="M 54.636563 52.250665 
L 63.636563 52.250665 
L 72.636562 52.250665 
" style="fill: none; stroke: #2563eb; stroke-width: 3; stroke-linecap: square"/>
    </g>
    <g id="text_21">
     <!-- $y = \frac{x^3}{6}$ -->
     <g style="fill: #1f2937" transform="translate(79.836562 55.400665) scale(0.09 -0.09)">
      <defs>
       <path id="DejaVuSans-Oblique-79" d="M 1588 -325 
Q 1188 -997 936 -1164 
Q 684 -1331 294 -1331 
L -159 -1331 
L -63 -850 
L 269 -850 
Q 509 -850 678 -719 
Q 847 -588 1056 -206 
L 1234 128 
L 459 3500 
L 1069 3500 
L 1650 819 
L 3256 3500 
L 3859 3500 
L 1588 -325 
z
" transform="scale(0.015625)"/>
       <path id="DejaVuSans-3d" d="M 678 2906 
L 4684 2906 
L 4684 2381 
L 678 2381 
L 678 2906 
z
M 678 1631 
L 4684 1631 
L 4684 1100 
L 678 1100 
L 678 1631 
z
" transform="scale(0.015625)"/>
       <path id="DejaVuSans-Oblique-78" d="M 3841 3500 
L 2234 1784 
L 3219 0 
L 2559 0 
L 1819 1388 
L 531 0 
L -166 0 
L 1556 1844 
L 641 3500 
L 1300 3500 
L 1972 2234 
L 3144 3500 
L 3841 3500 
z
" transform="scale(0.015625)"/>
       <path id="DejaVuSans-36" d="M 2113 2584 
Q 1688 2584 1439 2293 
Q 1191 2003 1191 1497 
Q 1191 994 1439 701 
Q 1688 409 2113 409 
Q 2538 409 2786 701 
Q 3034 994 3034 1497 
Q 3034 2003 2786 2293 
Q 2538 2584 2113 2584 
z
M 3366 4563 
L 3366 3988 
Q 3128 4100 2886 4159 
Q 2644 4219 2406 4219 
Q 1781 4219 1451 3797 
Q 1122 3375 1075 2522 
Q 1259 2794 1537 2939 
Q 1816 3084 2150 3084 
Q 2853 3084 3261 2657 
Q 3669 2231 3669 1497 
Q 3669 778 3244 343 
Q 2819 -91 2113 -91 
Q 1303 -91 875 529 
Q 447 1150 447 2328 
Q 447 3434 972 4092 
Q 1497 4750 2381 4750 
Q 2619 4750 2861 4703 
Q 3103 4656 3366 4563 
z
" transform="scale(0.015625)"/>
      </defs>
      <use xlink:href="#DejaVuSans-Oblique-79" transform="translate(0 0.039062)"/>
      <use xlink:href="#DejaVuSans-3d" transform="translate(78.662109 0.039062)"/>
      <use xlink:href="#DejaVuSans-Oblique-78" transform="translate(181.933594 43.835938) scale(0.7)"/>
      <use xlink:href="#DejaVuSans-33" transform="translate(226.485677 70.632812) scale(0.49)"/>
      <use xlink:href="#DejaVuSans-36" transform="translate(198.933594 -39.367188) scale(0.7)"/>
      <path d="M 181.933594 18.835938 
L 181.933594 25.085938 
L 259.575033 25.085938 
L 259.575033 18.835938 
L 181.933594 18.835938 
z
"/>
     </g>
    </g>
    <g id="line2d_31">
     <path d="M 54.636563 67.279258 
L 63.636563 67.279258 
L 72.636562 67.279258 
" style="fill: none; stroke-dasharray: 7.4,3.2; stroke-dashoffset: 0; stroke: #dc2626; stroke-opacity: 0.8; stroke-width: 2"/>
    </g>
    <g id="text_22">
     <!-- Círculo osculador -->
     <g style="fill: #1f2937" transform="translate(79.836562 70.429258) scale(0.09 -0.09)">
      <defs>
       <path id="DejaVuSans-ed" d="M 1322 5119 
L 1944 5119 
L 926 3944 
L 447 3944 
L 1322 5119 
z
M 603 3500 
L 1178 3500 
L 1178 0 
L 603 0 
L 603 3500 
z
M 891 3584 
L 891 3584 
z
" transform="scale(0.015625)"/>
       <path id="DejaVuSans-63" d="M 3122 3366 
L 3122 2828 
Q 2878 2963 2633 3030 
Q 2388 3097 2138 3097 
Q 1578 3097 1268 2742 
Q 959 2388 959 1747 
Q 959 1106 1268 751 
Q 1578 397 2138 397 
Q 2388 397 2633 464 
Q 2878 531 3122 666 
L 3122 134 
Q 2881 22 2623 -34 
Q 2366 -91 2075 -91 
Q 1284 -91 818 406 
Q 353 903 353 1747 
Q 353 2603 823 3093 
Q 1294 3584 2113 3584 
Q 2378 3584 2631 3529 
Q 2884 3475 3122 3366 
z
" transform="scale(0.015625)"/>
       <path id="DejaVuSans-75" d="M 544 1381 
L 544 3500 
L 1119 3500 
L 1119 1403 
Q 1119 906 1312 657 
Q 1506 409 1894 409 
Q 2359 409 2629 706 
Q 2900 1003 2900 1516 
L 2900 3500 
L 3475 3500 
L 3475 0 
L 2900 0 
L 2900 538 
Q 2691 219 2414 64 
Q 2138 -91 1772 -91 
Q 1169 -91 856 284 
Q 544 659 544 1381 
z
M 1991 3584 
L 1991 3584 
z
" transform="scale(0.015625)"/>
       <path id="DejaVuSans-6c" d="M 603 4863 
L 1178 4863 
L 1178 0 
L 603 0 
L 603 4863 
z
" transform="scale(0.015625)"/>
       <path id="DejaVuSans-20" transform="scale(0.015625)"/>
       <path id="DejaVuSans-73" d="M 2834 3397 
L 2834 2853 
Q 2591 2978 2328 3040 
Q 2066 3103 1784 3103 
Q 1356 3103 1142 2972 
Q 928 2841 928 2578 
Q 928 2378 1081 2264 
Q 1234 2150 1697 2047 
L 1894 2003 
Q 2506 1872 2764 1633 
Q 3022 1394 3022 966 
Q 3022 478 2636 193 
Q 2250 -91 1575 -91 
Q 1294 -91 989 -36 
Q 684 19 347 128 
L 347 722 
Q 666 556 975 473 
Q 1284 391 1588 391 
Q 1994 391 2212 530 
Q 2431 669 2431 922 
Q 2431 1156 2273 1281 
Q 2116 1406 1581 1522 
L 1381 1569 
Q 847 1681 609 1914 
Q 372 2147 372 2553 
Q 372 3047 722 3315 
Q 1072 3584 1716 3584 
Q 2034 3584 2315 3537 
Q 2597 3491 2834 3397 
z
" transform="scale(0.015625)"/>
       <path id="DejaVuSans-61" d="M 2194 1759 
Q 1497 1759 1228 1600 
Q 959 1441 959 1056 
Q 959 750 1161 570 
Q 1363 391 1709 391 
Q 2188 391 2477 730 
Q 2766 1069 2766 1631 
L 2766 1759 
L 2194 1759 
z
M 3341 1997 
L 3341 0 
L 2766 0 
L 2766 531 
Q 2569 213 2275 61 
Q 1981 -91 1556 -91 
Q 1019 -91 701 211 
Q 384 513 384 1019 
Q 384 1609 779 1909 
Q 1175 2209 1959 2209 
L 2766 2209 
L 2766 2266 
Q 2766 2663 2505 2880 
Q 2244 3097 1772 3097 
Q 1472 3097 1187 3025 
Q 903 2953 641 2809 
L 641 3341 
Q 956 3463 1253 3523 
Q 1550 3584 1831 3584 
Q 2591 3584 2966 3190 
Q 3341 2797 3341 1997 
z
" transform="scale(0.015625)"/>
       <path id="DejaVuSans-64" d="M 2906 2969 
L 2906 4863 
L 3481 4863 
L 3481 0 
L 2906 0 
L 2906 525 
Q 2725 213 2448 61 
Q 2172 -91 1784 -91 
Q 1150 -91 751 415 
Q 353 922 353 1747 
Q 353 2572 751 3078 
Q 1150 3584 1784 3584 
Q 2172 3584 2448 3432 
Q 2725 3281 2906 2969 
z
M 947 1747 
Q 947 1113 1208 752 
Q 1469 391 1925 391 
Q 2381 391 2643 752 
Q 2906 1113 2906 1747 
Q 2906 2381 2643 2742 
Q 2381 3103 1925 3103 
Q 1469 3103 1208 2742 
Q 947 2381 947 1747 
z
" transform="scale(0.015625)"/>
      </defs>
      <use xlink:href="#DejaVuSans-43"/>
      <use xlink:href="#DejaVuSans-ed" transform="translate(69.824219 0)"/>
      <use xlink:href="#DejaVuSans-72" transform="translate(97.607422 0)"/>
      <use xlink:href="#DejaVuSans-63" transform="translate(136.470703 0)"/>
      <use xlink:href="#DejaVuSans-75" transform="translate(191.451172 0)"/>
      <use xlink:href="#DejaVuSans-6c" transform="translate(254.830078 0)"/>
      <use xlink:href="#DejaVuSans-6f" transform="translate(282.613281 0)"/>
      <use xlink:href="#DejaVuSans-20" transform="translate(343.794922 0)"/>
      <use xlink:href="#DejaVuSans-6f" transform="translate(375.582031 0)"/>
      <use xlink:href="#DejaVuSans-73" transform="translate(436.763672 0)"/>
      <use xlink:href="#DejaVuSans-63" transform="translate(488.863281 0)"/>
      <use xlink:href="#DejaVuSans-75" transform="translate(543.84375 0)"/>
      <use xlink:href="#DejaVuSans-6c" transform="translate(607.222656 0)"/>
      <use xlink:href="#DejaVuSans-61" transform="translate(635.005859 0)"/>
      <use xlink:href="#DejaVuSans-64" transform="translate(696.285156 0)"/>
      <use xlink:href="#DejaVuSans-6f" transform="translate(759.761719 0)"/>
      <use xlink:href="#DejaVuSans-72" transform="translate(820.943359 0)"/>
     </g>
    </g>
   </g>
  </g>
  <g id="axes_2">
   <g id="patch_10">
    <path d="M 622.057096 180.699149 
L 994.895001 180.699149 
L 994.895001 52.995145 
L 622.057096 52.995145 
z
" clip-path="url(#pbd1e8f4da5)" style="fill: #fffbeb; stroke: #7c3aed; stroke-width: 2; stroke-linejoin: miter"/>
   </g>
   <g id="patch_11">
    <path d="M 622.057096 420.782675 
L 994.895001 420.782675 
L 994.895001 328.835793 
L 622.057096 328.835793 
z
" clip-path="url(#pbd1e8f4da5)" style="fill: #fef3c7; stroke: #f59e0b; stroke-width: 1.5; stroke-linejoin: miter"/>
   </g>
   <g id="patch_12">
    <path d="M 622.057096 533.162199 
L 994.895001 533.162199 
L 994.895001 441.215316 
L 622.057096 441.215316 
z
" clip-path="url(#pbd1e8f4da5)" style="fill: #fef2f2; stroke: #dc2626; stroke-width: 1.5; stroke-linejoin: miter"/>
   </g>
   <g id="line2d_32">
    <path d="M 629.989818 201.131789 
L 986.962279 201.131789 
" clip-path="url(#pbd1e8f4da5)" style="fill: none; stroke: #e5e7eb; stroke-linecap: square"/>
   </g>
   <g id="line2d_33">
    <path d="M 629.989818 313.511312 
L 986.962279 313.511312 
" clip-path="url(#pbd1e8f4da5)" style="fill: none; stroke: #e5e7eb; stroke-linecap: square"/>
   </g>
   <g id="text_23">
    <!-- CURVATURA -->
    <g style="fill: #7c3aed" transform="translate(771.313236 78.535946) scale(0.11 -0.11)">
     <defs>
      <path id="DejaVuSans-Bold-55" d="M 588 4666 
L 1791 4666 
L 1791 1869 
Q 1791 1291 1980 1042 
Q 2169 794 2597 794 
Q 3028 794 3217 1042 
Q 3406 1291 3406 1869 
L 3406 4666 
L 4609 4666 
L 4609 1869 
Q 4609 878 4112 393 
Q 3616 -91 2597 -91 
Q 1581 -91 1084 393 
Q 588 878 588 1869 
L 588 4666 
z
" transform="scale(0.015625)"/>
      <path id="DejaVuSans-Bold-56" d="M 31 4666 
L 1241 4666 
L 2478 1222 
L 3713 4666 
L 4922 4666 
L 3194 0 
L 1759 0 
L 31 4666 
z
" transform="scale(0.015625)"/>
      <path id="DejaVuSans-Bold-41" d="M 3419 850 
L 1538 850 
L 1241 0 
L 31 0 
L 1759 4666 
L 3194 4666 
L 4922 0 
L 3713 0 
L 3419 850 
z
M 1838 1716 
L 3116 1716 
L 2478 3572 
L 1838 1716 
z
" transform="scale(0.015625)"/>
     </defs>
     <use xlink:href="#DejaVuSans-Bold-43"/>
     <use xlink:href="#DejaVuSans-Bold-55" transform="translate(73.388672 0)"/>
     <use xlink:href="#DejaVuSans-Bold-52" transform="translate(154.589844 0)"/>
     <use xlink:href="#DejaVuSans-Bold-56" transform="translate(231.591797 0)"/>
     <use xlink:href="#DejaVuSans-Bold-41" transform="translate(302.234375 0)"/>
     <use xlink:href="#DejaVuSans-Bold-54" transform="translate(371.876953 0)"/>
     <use xlink:href="#DejaVuSans-Bold-55" transform="translate(440.089844 0)"/>
     <use xlink:href="#DejaVuSans-Bold-52" transform="translate(521.291016 0)"/>
     <use xlink:href="#DejaVuSans-Bold-41" transform="translate(598.292969 0)"/>
    </g>
   </g>
   <g id="text_24">
    <!-- $\kappa = \left\| \frac{d\mathbf{T}}{ds} \right\| = \frac{\|\mathbf{r}^\prime \times \mathbf{r}^{\prime\prime}\|}{\|\mathbf{r}^\prime\|^3}$ -->
    <g style="fill: #1f2937" transform="translate(758.556048 139.833868) scale(0.12 -0.12)">
     <defs>
      <path id="DejaVuSans-Oblique-3ba" d="M 938 3500 
L 1531 3500 
L 1247 2047 
L 3041 3500 
L 3741 3500 
L 2106 2181 
L 3275 0 
L 2572 0 
L 1628 1806 
L 1122 1403 
L 850 0 
L 256 0 
L 938 3500 
z
" transform="scale(0.015625)"/>
      <path id="DejaVuSans-2016" d="M 1344 4891 
L 1344 -1509 
L 813 -1509 
L 813 4891 
L 1344 4891 
z
M 2376 4891 
L 2376 -1509 
L 1845 -1509 
L 1845 4891 
L 2376 4891 
z
" transform="scale(0.015625)"/>
      <path id="DejaVuSans-Oblique-64" d="M 2675 525 
Q 2444 222 2128 65 
Q 1813 -91 1428 -91 
Q 903 -91 598 267 
Q 294 625 294 1247 
Q 294 1766 478 2236 
Q 663 2706 1013 3078 
Q 1244 3325 1534 3454 
Q 1825 3584 2144 3584 
Q 2481 3584 2739 3421 
Q 2997 3259 3138 2956 
L 3513 4863 
L 4091 4863 
L 3144 0 
L 2566 0 
L 2675 525 
z
M 891 1350 
Q 891 897 1095 644 
Q 1300 391 1663 391 
Q 1931 391 2161 520 
Q 2391 650 2566 903 
Q 2750 1166 2856 1509 
Q 2963 1853 2963 2188 
Q 2963 2622 2758 2865 
Q 2553 3109 2194 3109 
Q 1922 3109 1687 2981 
Q 1453 2853 1288 2613 
Q 1106 2353 998 2009 
Q 891 1666 891 1350 
z
" transform="scale(0.015625)"/>
      <path id="DejaVuSans-Oblique-73" d="M 3200 3397 
L 3091 2853 
Q 2863 2978 2609 3040 
Q 2356 3103 2088 3103 
Q 1634 3103 1373 2948 
Q 1113 2794 1113 2528 
Q 1113 2219 1719 2053 
Q 1766 2041 1788 2034 
L 1972 1978 
Q 2547 1819 2739 1644 
Q 2931 1469 2931 1166 
Q 2931 609 2489 259 
Q 2047 -91 1331 -91 
Q 1053 -91 747 -37 
Q 441 16 72 128 
L 184 722 
Q 500 559 806 475 
Q 1113 391 1394 391 
Q 1816 391 2080 572 
Q 2344 753 2344 1031 
Q 2344 1331 1650 1516 
L 1591 1531 
L 1394 1581 
Q 956 1697 753 1886 
Q 550 2075 550 2369 
Q 550 2928 970 3256 
Q 1391 3584 2113 3584 
Q 2397 3584 2667 3537 
Q 2938 3491 3200 3397 
z
" transform="scale(0.015625)"/>
      <path id="Cmsy10-30" d="M 225 347 
Q 184 359 184 409 
L 966 3316 
Q 1003 3434 1093 3506 
Q 1184 3578 1300 3578 
Q 1450 3578 1564 3479 
Q 1678 3381 1678 3231 
Q 1678 3166 1644 3084 
L 488 319 
Q 466 275 428 275 
Q 394 275 320 306 
Q 247 338 225 347 
z
" transform="scale(0.015625)"/>
      <path id="DejaVuSans-d7" d="M 4488 3438 
L 3059 2003 
L 4488 575 
L 4116 197 
L 2681 1631 
L 1247 197 
L 878 575 
L 2303 2003 
L 878 3438 
L 1247 3816 
L 2681 2381 
L 4116 3816 
L 4488 3438 
z
" transform="scale(0.015625)"/>
     </defs>
     <use xlink:href="#DejaVuSans-Oblique-3ba" transform="translate(0 0.5075)"/>
     <use xlink:href="#DejaVuSans-3d" transform="translate(78.417969 0.5075)"/>
     <use xlink:href="#DejaVuSans-2016" transform="translate(181.689453 -8.114375) scale(1.396187)"/>
     <use xlink:href="#DejaVuSans-Oblique-64" transform="translate(251.501953 45.299687) scale(0.7)"/>
     <use xlink:href="#DejaVuSans-Bold-54" transform="translate(295.935547 45.299687) scale(0.7)"/>
     <use xlink:href="#DejaVuSans-Oblique-64" transform="translate(257.501953 -40.134688) scale(0.7)"/>
     <use xlink:href="#DejaVuSans-Oblique-73" transform="translate(301.935547 -40.134688) scale(0.7)"/>
     <use xlink:href="#DejaVuSans-2016" transform="translate(356.18457 -8.114375) scale(1.396187)"/>
     <use xlink:href="#DejaVuSans-3d" transform="translate(445.479492 0.5075)"/>
     <use xlink:href="#DejaVuSans-2016" transform="translate(548.750977 60.809062) scale(0.7)"/>
     <use xlink:href="#DejaVuSans-Bold-72" transform="translate(583.750977 60.809062) scale(0.7)"/>
     <use xlink:href="#Cmsy10-30" transform="translate(618.942383 87.605937) scale(0.49)"/>
     <use xlink:href="#DejaVuSans-d7" transform="translate(647.964355 60.809062) scale(0.7)"/>
     <use xlink:href="#DejaVuSans-Bold-72" transform="translate(720.254395 60.809062) scale(0.7)"/>
     <use xlink:href="#Cmsy10-30" transform="translate(755.445801 87.605937) scale(0.49)"/>
     <use xlink:href="#Cmsy10-30" transform="translate(768.916016 87.605937) scale(0.49)"/>
     <use xlink:href="#DejaVuSans-2016" transform="translate(784.300293 60.809062) scale(0.7)"/>
     <use xlink:href="#DejaVuSans-2016" transform="translate(606.750977 -50.109688) scale(0.7)"/>
     <use xlink:href="#DejaVuSans-Bold-72" transform="translate(641.750977 -50.109688) scale(0.7)"/>
     <use xlink:href="#Cmsy10-30" transform="translate(676.942383 -23.312813) scale(0.49)"/>
     <use xlink:href="#DejaVuSans-2016" transform="translate(692.32666 -50.109688) scale(0.7)"/>
     <use xlink:href="#DejaVuSans-33" transform="translate(727.996582 -23.312813) scale(0.49)"/>
     <path d="M 251.501953 19.304375 
L 251.501953 25.554375 
L 343.68457 25.554375 
L 343.68457 19.304375 
L 251.501953 19.304375 
z
"/>
     <path d="M 548.750977 19.304375 
L 548.750977 25.554375 
L 819.300293 25.554375 
L 819.300293 19.304375 
L 548.750977 19.304375 
z
"/>
    </g>
   </g>
   <g id="text_25">
    <!-- Curva plana $y = f(x)$: -->
    <g style="fill: #374151" transform="translate(753.326048 231.78075) scale(0.1 -0.1)">
     <defs>
      <path id="DejaVuSans-Bold-70" d="M 1656 506 
L 1656 -1331 
L 538 -1331 
L 538 3500 
L 1656 3500 
L 1656 2988 
Q 1888 3294 2169 3439 
Q 2450 3584 2816 3584 
Q 3463 3584 3878 3070 
Q 4294 2556 4294 1747 
Q 4294 938 3878 423 
Q 3463 -91 2816 -91 
Q 2450 -91 2169 54 
Q 1888 200 1656 506 
z
M 2400 2772 
Q 2041 2772 1848 2508 
Q 1656 2244 1656 1747 
Q 1656 1250 1848 986 
Q 2041 722 2400 722 
Q 2759 722 2948 984 
Q 3138 1247 3138 1747 
Q 3138 2247 2948 2509 
Q 2759 2772 2400 2772 
z
" transform="scale(0.015625)"/>
      <path id="DejaVuSans-Bold-6e" d="M 4056 2131 
L 4056 0 
L 2931 0 
L 2931 347 
L 2931 1631 
Q 2931 2084 2911 2256 
Q 2891 2428 2841 2509 
Q 2775 2619 2662 2680 
Q 2550 2741 2406 2741 
Q 2056 2741 1856 2470 
Q 1656 2200 1656 1722 
L 1656 0 
L 538 0 
L 538 3500 
L 1656 3500 
L 1656 2988 
Q 1909 3294 2193 3439 
Q 2478 3584 2822 3584 
Q 3428 3584 3742 3212 
Q 4056 2841 4056 2131 
z
" transform="scale(0.015625)"/>
      <path id="DejaVuSans-Oblique-66" d="M 3059 4863 
L 2969 4384 
L 2419 4384 
Q 2106 4384 1964 4261 
Q 1822 4138 1753 3809 
L 1691 3500 
L 2638 3500 
L 2553 3053 
L 1606 3053 
L 1013 0 
L 434 0 
L 1031 3053 
L 481 3053 
L 563 3500 
L 1113 3500 
L 1159 3744 
Q 1278 4363 1576 4613 
Q 1875 4863 2516 4863 
L 3059 4863 
z
" transform="scale(0.015625)"/>
      <path id="DejaVuSans-28" d="M 1984 4856 
Q 1566 4138 1362 3434 
Q 1159 2731 1159 2009 
Q 1159 1288 1364 580 
Q 1569 -128 1984 -844 
L 1484 -844 
Q 1016 -109 783 600 
Q 550 1309 550 2009 
Q 550 2706 781 3412 
Q 1013 4119 1484 4856 
L 1984 4856 
z
" transform="scale(0.015625)"/>
      <path id="DejaVuSans-29" d="M 513 4856 
L 1013 4856 
Q 1481 4119 1714 3412 
Q 1947 2706 1947 2009 
Q 1947 1309 1714 600 
Q 1481 -109 1013 -844 
L 513 -844 
Q 928 -128 1133 580 
Q 1338 1288 1338 2009 
Q 1338 2731 1133 3434 
Q 928 4138 513 4856 
z
" transform="scale(0.015625)"/>
      <path id="DejaVuSans-Bold-3a" d="M 716 3500 
L 1844 3500 
L 1844 2291 
L 716 2291 
L 716 3500 
z
M 716 1209 
L 1844 1209 
L 1844 0 
L 716 0 
L 716 1209 
z
" transform="scale(0.015625)"/>
     </defs>
     <use xlink:href="#DejaVuSans-Bold-43" transform="translate(0 0.015625)"/>
     <use xlink:href="#DejaVuSans-Bold-75" transform="translate(73.388672 0.015625)"/>
     <use xlink:href="#DejaVuSans-Bold-72" transform="translate(144.580078 0.015625)"/>
     <use xlink:href="#DejaVuSans-Bold-76" transform="translate(193.896484 0.015625)"/>
     <use xlink:href="#DejaVuSans-Bold-61" transform="translate(259.082031 0.015625)"/>
     <use xlink:href="#DejaVuSans-Bold-20" transform="translate(326.5625 0.015625)"/>
     <use xlink:href="#DejaVuSans-Bold-70" transform="translate(361.376953 0.015625)"/>
     <use xlink:href="#DejaVuSans-Bold-6c" transform="translate(432.958984 0.015625)"/>
     <use xlink:href="#DejaVuSans-Bold-61" transform="translate(467.236328 0.015625)"/>
     <use xlink:href="#DejaVuSans-Bold-6e" transform="translate(534.716797 0.015625)"/>
     <use xlink:href="#DejaVuSans-Bold-61" transform="translate(605.908203 0.015625)"/>
     <use xlink:href="#DejaVuSans-Bold-20" transform="translate(673.388672 0.015625)"/>
     <use xlink:href="#DejaVuSans-Oblique-79" transform="translate(708.203125 0.015625)"/>
     <use xlink:href="#DejaVuSans-3d" transform="translate(786.865234 0.015625)"/>
     <use xlink:href="#DejaVuSans-Oblique-66" transform="translate(890.136719 0.015625)"/>
     <use xlink:href="#DejaVuSans-28" transform="translate(925.341797 0.015625)"/>
     <use xlink:href="#DejaVuSans-Oblique-78" transform="translate(964.355469 0.015625)"/>
     <use xlink:href="#DejaVuSans-29" transform="translate(1023.535156 0.015625)"/>
     <use xlink:href="#DejaVuSans-Bold-3a" transform="translate(1062.548828 0.015625)"/>
    </g>
   </g>
   <g id="text_26">
    <!-- $\kappa = \frac{|y^{\prime\prime}|}{[1 + (y^\prime)^2]^{3/2}}$ -->
    <g style="fill: #1f2937" transform="translate(768.956048 282.862352) scale(0.13 -0.13)">
     <defs>
      <path id="DejaVuSans-7c" d="M 1344 4891 
L 1344 -1509 
L 813 -1509 
L 813 4891 
L 1344 4891 
z
" transform="scale(0.015625)"/>
      <path id="DejaVuSans-5b" d="M 550 4863 
L 1875 4863 
L 1875 4416 
L 1125 4416 
L 1125 -397 
L 1875 -397 
L 1875 -844 
L 550 -844 
L 550 4863 
z
" transform="scale(0.015625)"/>
      <path id="DejaVuSans-2b" d="M 2944 4013 
L 2944 2272 
L 4684 2272 
L 4684 1741 
L 2944 1741 
L 2944 0 
L 2419 0 
L 2419 1741 
L 678 1741 
L 678 2272 
L 2419 2272 
L 2419 4013 
L 2944 4013 
z
" transform="scale(0.015625)"/>
      <path id="DejaVuSans-5d" d="M 1947 4863 
L 1947 -844 
L 622 -844 
L 622 -397 
L 1369 -397 
L 1369 4416 
L 622 4416 
L 622 4863 
L 1947 4863 
z
" transform="scale(0.015625)"/>
      <path id="DejaVuSans-2f" d="M 1625 4666 
L 2156 4666 
L 531 -594 
L 0 -594 
L 1625 4666 
z
" transform="scale(0.015625)"/>
     </defs>
     <use xlink:href="#DejaVuSans-Oblique-3ba" transform="translate(0 0.5075)"/>
     <use xlink:href="#DejaVuSans-3d" transform="translate(78.417969 0.5075)"/>
     <use xlink:href="#DejaVuSans-7c" transform="translate(327.689453 60.809062) scale(0.7)"/>
     <use xlink:href="#DejaVuSans-Oblique-79" transform="translate(351.273438 60.809062) scale(0.7)"/>
     <use xlink:href="#Cmsy10-30" transform="translate(395.825521 87.605937) scale(0.49)"/>
     <use xlink:href="#Cmsy10-30" transform="translate(409.295736 87.605937) scale(0.49)"/>
     <use xlink:href="#DejaVuSans-7c" transform="translate(424.680013 60.809062) scale(0.7)"/>
     <use xlink:href="#DejaVuSans-5b" transform="translate(181.689453 -50.109688) scale(0.7)"/>
     <use xlink:href="#DejaVuSans-31" transform="translate(208.999023 -50.109688) scale(0.7)"/>
     <use xlink:href="#DejaVuSans-2b" transform="translate(267.172852 -50.109688) scale(0.7)"/>
     <use xlink:href="#DejaVuSans-28" transform="translate(339.462891 -50.109688) scale(0.7)"/>
     <use xlink:href="#DejaVuSans-Oblique-79" transform="translate(366.772461 -50.109688) scale(0.7)"/>
     <use xlink:href="#Cmsy10-30" transform="translate(411.324544 -23.312813) scale(0.49)"/>
     <use xlink:href="#DejaVuSans-29" transform="translate(426.708822 -50.109688) scale(0.7)"/>
     <use xlink:href="#DejaVuSans-32" transform="translate(454.688314 -23.312813) scale(0.49)"/>
     <use xlink:href="#DejaVuSans-5d" transform="translate(487.777669 -50.109688) scale(0.7)"/>
     <use xlink:href="#DejaVuSans-33" transform="translate(515.757161 -23.312813) scale(0.49)"/>
     <use xlink:href="#DejaVuSans-2f" transform="translate(546.932454 -23.312813) scale(0.49)"/>
     <use xlink:href="#DejaVuSans-32" transform="translate(561.664993 -23.312813) scale(0.49)"/>
     <path d="M 181.689453 19.304375 
L 181.689453 25.554375 
L 594.754349 25.554375 
L 594.754349 19.304375 
L 181.689453 19.304375 
z
"/>
    </g>
   </g>
   <g id="text_27">
    <!-- RADIO DE CURVATURA -->
    <g style="fill: #f59e0b" transform="translate(745.662767 349.268433) scale(0.1 -0.1)">
     <defs>
      <path id="DejaVuSans-Bold-44" d="M 1791 3756 
L 1791 909 
L 2222 909 
Q 2959 909 3348 1275 
Q 3738 1641 3738 2338 
Q 3738 3031 3350 3393 
Q 2963 3756 2222 3756 
L 1791 3756 
z
M 588 4666 
L 1856 4666 
Q 2919 4666 3439 4514 
Q 3959 4363 4331 4000 
Q 4659 3684 4818 3271 
Q 4978 2859 4978 2338 
Q 4978 1809 4818 1395 
Q 4659 981 4331 666 
Q 3956 303 3431 151 
Q 2906 0 1856 0 
L 588 0 
L 588 4666 
z
" transform="scale(0.015625)"/>
      <path id="DejaVuSans-Bold-49" d="M 588 4666 
L 1791 4666 
L 1791 0 
L 588 0 
L 588 4666 
z
" transform="scale(0.015625)"/>
      <path id="DejaVuSans-Bold-45" d="M 588 4666 
L 3834 4666 
L 3834 3756 
L 1791 3756 
L 1791 2888 
L 3713 2888 
L 3713 1978 
L 1791 1978 
L 1791 909 
L 3903 909 
L 3903 0 
L 588 0 
L 588 4666 
z
" transform="scale(0.015625)"/>
     </defs>
     <use xlink:href="#DejaVuSans-Bold-52"/>
     <use xlink:href="#DejaVuSans-Bold-41" transform="translate(77.001953 0)"/>
     <use xlink:href="#DejaVuSans-Bold-44" transform="translate(154.394531 0)"/>
     <use xlink:href="#DejaVuSans-Bold-49" transform="translate(237.402344 0)"/>
     <use xlink:href="#DejaVuSans-Bold-4f" transform="translate(274.609375 0)"/>
     <use xlink:href="#DejaVuSans-Bold-20" transform="translate(359.619141 0)"/>
     <use xlink:href="#DejaVuSans-Bold-44" transform="translate(394.433594 0)"/>
     <use xlink:href="#DejaVuSans-Bold-45" transform="translate(477.441406 0)"/>
     <use xlink:href="#DejaVuSans-Bold-20" transform="translate(545.751953 0)"/>
     <use xlink:href="#DejaVuSans-Bold-43" transform="translate(580.566406 0)"/>
     <use xlink:href="#DejaVuSans-Bold-55" transform="translate(653.955078 0)"/>
     <use xlink:href="#DejaVuSans-Bold-52" transform="translate(735.15625 0)"/>
     <use xlink:href="#DejaVuSans-Bold-56" transform="translate(812.158203 0)"/>
     <use xlink:href="#DejaVuSans-Bold-41" transform="translate(882.800781 0)"/>
     <use xlink:href="#DejaVuSans-Bold-54" transform="translate(952.443359 0)"/>
     <use xlink:href="#DejaVuSans-Bold-55" transform="translate(1020.65625 0)"/>
     <use xlink:href="#DejaVuSans-Bold-52" transform="translate(1101.857422 0)"/>
     <use xlink:href="#DejaVuSans-Bold-41" transform="translate(1178.859375 0)"/>
    </g>
   </g>
   <g id="text_28">
    <!-- $\rho = \frac{1}{\kappa}$ -->
    <g style="fill: #1f2937" transform="translate(791.396048 400.350035) scale(0.14 -0.14)">
     <use xlink:href="#DejaVuSans-Oblique-3c1" transform="translate(0 0.16875)"/>
     <use xlink:href="#DejaVuSans-3d" transform="translate(82.958984 0.16875)"/>
     <use xlink:href="#DejaVuSans-31" transform="translate(186.230469 43.965625) scale(0.7)"/>
     <use xlink:href="#DejaVuSans-Oblique-3ba" transform="translate(188.230469 -25.565625) scale(0.7)"/>
     <path d="M 186.230469 18.965625 
L 186.230469 25.215625 
L 230.766602 25.215625 
L 230.766602 18.965625 
L 186.230469 18.965625 
z
"/>
    </g>
   </g>
   <g id="text_29">
    <!-- CENTRO DE CURVATURA -->
    <g style="fill: #dc2626" transform="translate(740.862767 461.647957) scale(0.1 -0.1)">
     <use xlink:href="#DejaVuSans-Bold-43"/>
     <use xlink:href="#DejaVuSans-Bold-45" transform="translate(73.388672 0)"/>
     <use xlink:href="#DejaVuSans-Bold-4e" transform="translate(141.699219 0)"/>
     <use xlink:href="#DejaVuSans-Bold-54" transform="translate(225.390625 0)"/>
     <use xlink:href="#DejaVuSans-Bold-52" transform="translate(293.603516 0)"/>
     <use xlink:href="#DejaVuSans-Bold-4f" transform="translate(370.605469 0)"/>
     <use xlink:href="#DejaVuSans-Bold-20" transform="translate(455.615234 0)"/>
     <use xlink:href="#DejaVuSans-Bold-44" transform="translate(490.429688 0)"/>
     <use xlink:href="#DejaVuSans-Bold-45" transform="translate(573.4375 0)"/>
     <use xlink:href="#DejaVuSans-Bold-20" transform="translate(641.748047 0)"/>
     <use xlink:href="#DejaVuSans-Bold-43" transform="translate(676.5625 0)"/>
     <use xlink:href="#DejaVuSans-Bold-55" transform="translate(749.951172 0)"/>
     <use xlink:href="#DejaVuSans-Bold-52" transform="translate(831.152344 0)"/>
     <use xlink:href="#DejaVuSans-Bold-56" transform="translate(908.154297 0)"/>
     <use xlink:href="#DejaVuSans-Bold-41" transform="translate(978.796875 0)"/>
     <use xlink:href="#DejaVuSans-Bold-54" transform="translate(1048.439453 0)"/>
     <use xlink:href="#DejaVuSans-Bold-55" transform="translate(1116.652344 0)"/>
     <use xlink:href="#DejaVuSans-Bold-52" transform="translate(1197.853516 0)"/>
     <use xlink:href="#DejaVuSans-Bold-41" transform="translate(1274.855469 0)"/>
    </g>
   </g>
   <g id="text_30">
    <!-- Centro $= \mathbf{r}(t) + \rho\mathbf{N}(t)$ -->
    <g style="fill: #1f2937" transform="translate(751.001048 512.729558) scale(0.11 -0.11)">
     <defs>
      <path id="DejaVuSans-Oblique-74" d="M 2706 3500 
L 2619 3053 
L 1472 3053 
L 1100 1153 
Q 1081 1047 1072 975 
Q 1063 903 1063 863 
Q 1063 663 1183 572 
Q 1303 481 1569 481 
L 2150 481 
L 2053 0 
L 1503 0 
Q 991 0 739 200 
Q 488 400 488 806 
Q 488 878 497 964 
Q 506 1050 525 1153 
L 897 3053 
L 409 3053 
L 500 3500 
L 978 3500 
L 1172 4494 
L 1747 4494 
L 1556 3500 
L 2706 3500 
z
" transform="scale(0.015625)"/>
     </defs>
     <use xlink:href="#DejaVuSans-43" transform="translate(0 0.125)"/>
     <use xlink:href="#DejaVuSans-65" transform="translate(69.824219 0.125)"/>
     <use xlink:href="#DejaVuSans-6e" transform="translate(131.347656 0.125)"/>
     <use xlink:href="#DejaVuSans-74" transform="translate(194.726562 0.125)"/>
     <use xlink:href="#DejaVuSans-72" transform="translate(233.935547 0.125)"/>
     <use xlink:href="#DejaVuSans-6f" transform="translate(275.048828 0.125)"/>
     <use xlink:href="#DejaVuSans-20" transform="translate(336.230469 0.125)"/>
     <use xlink:href="#DejaVuSans-3d" transform="translate(387.5 0.125)"/>
     <use xlink:href="#DejaVuSans-Bold-72" transform="translate(490.771484 0.125)"/>
     <use xlink:href="#DejaVuSans-28" transform="translate(540.087891 0.125)"/>
     <use xlink:href="#DejaVuSans-Oblique-74" transform="translate(579.101562 0.125)"/>
     <use xlink:href="#DejaVuSans-29" transform="translate(618.310547 0.125)"/>
     <use xlink:href="#DejaVuSans-2b" transform="translate(676.806641 0.125)"/>
     <use xlink:href="#DejaVuSans-Oblique-3c1" transform="translate(780.078125 0.125)"/>
     <use xlink:href="#DejaVuSans-Bold-4e" transform="translate(843.554688 0.125)"/>
     <use xlink:href="#DejaVuSans-28" transform="translate(927.246094 0.125)"/>
     <use xlink:href="#DejaVuSans-Oblique-74" transform="translate(966.259766 0.125)"/>
     <use xlink:href="#DejaVuSans-29" transform="translate(1005.46875 0.125)"/>
    </g>
   </g>
  </g>
  <g id="text_31">
   <!-- Curvatura y Círculo Osculador -->
   <g style="fill: #1f2937" transform="translate(387.580729 18.397812) scale(0.14 -0.14)">
    <use xlink:href="#DejaVuSans-Bold-43"/>
    <use xlink:href="#DejaVuSans-Bold-75" transform="translate(73.388672 0)"/>
    <use xlink:href="#DejaVuSans-Bold-72" transform="translate(144.580078 0)"/>
    <use xlink:href="#DejaVuSans-Bold-76" transform="translate(193.896484 0)"/>
    <use xlink:href="#DejaVuSans-Bold-61" transform="translate(259.082031 0)"/>
    <use xlink:href="#DejaVuSans-Bold-74" transform="translate(326.5625 0)"/>
    <use xlink:href="#DejaVuSans-Bold-75" transform="translate(374.365234 0)"/>
    <use xlink:href="#DejaVuSans-Bold-72" transform="translate(445.556641 0)"/>
    <use xlink:href="#DejaVuSans-Bold-61" transform="translate(494.873047 0)"/>
    <use xlink:href="#DejaVuSans-Bold-20" transform="translate(562.353516 0)"/>
    <use xlink:href="#DejaVuSans-Bold-79" transform="translate(597.167969 0)"/>
    <use xlink:href="#DejaVuSans-Bold-20" transform="translate(662.353516 0)"/>
    <use xlink:href="#DejaVuSans-Bold-43" transform="translate(697.167969 0)"/>
    <use xlink:href="#DejaVuSans-Bold-ed" transform="translate(770.556641 0)"/>
    <use xlink:href="#DejaVuSans-Bold-72" transform="translate(804.833984 0)"/>
    <use xlink:href="#DejaVuSans-Bold-63" transform="translate(854.150391 0)"/>
    <use xlink:href="#DejaVuSans-Bold-75" transform="translate(913.427734 0)"/>
    <use xlink:href="#DejaVuSans-Bold-6c" transform="translate(984.619141 0)"/>
    <use xlink:href="#DejaVuSans-Bold-6f" transform="translate(1018.896484 0)"/>
    <use xlink:href="#DejaVuSans-Bold-20" transform="translate(1087.597656 0)"/>
    <use xlink:href="#DejaVuSans-Bold-4f" transform="translate(1122.412109 0)"/>
    <use xlink:href="#DejaVuSans-Bold-73" transform="translate(1207.421875 0)"/>
    <use xlink:href="#DejaVuSans-Bold-63" transform="translate(1266.943359 0)"/>
    <use xlink:href="#DejaVuSans-Bold-75" transform="translate(1326.220703 0)"/>
    <use xlink:href="#DejaVuSans-Bold-6c" transform="translate(1397.412109 0)"/>
    <use xlink:href="#DejaVuSans-Bold-61" transform="translate(1431.689453 0)"/>
    <use xlink:href="#DejaVuSans-Bold-64" transform="translate(1499.169922 0)"/>
    <use xlink:href="#DejaVuSans-Bold-6f" transform="translate(1570.751953 0)"/>
    <use xlink:href="#DejaVuSans-Bold-72" transform="translate(1639.453125 0)"/>
   </g>
  </g>
 </g>
 <defs>
  <clipPath id="p09ff7cb540">
   <rect x="46.536563" y="37.670665" width="510.816014" height="510.816014"/>
  </clipPath>
  <clipPath id="pbd1e8f4da5">
   <rect x="610.158014" y="37.670665" width="396.636068" height="510.816014"/>
  </clipPath>
 </defs>
</svg>
