<?xml version="1.0" encoding="utf-8" standalone="no"?>
<!DOCTYPE svg PUBLIC "-//W3C//DTD SVG 1.1//EN"
  "http://www.w3.org/Graphics/SVG/1.1/DTD/svg11.dtd">
<svg xmlns:xlink="http://www.w3.org/1999/xlink" width="1001.900664pt" height="584.39952pt" viewBox="0 0 1001.900664 584.39952" xmlns="http://www.w3.org/2000/svg" version="1.1">
 <metadata>
  <rdf:RDF xmlns:dc="http://purl.org/dc/elements/1.1/" xmlns:cc="http://creativecommons.org/ns#" xmlns:rdf="http://www.w3.org/1999/02/22-rdf-syntax-ns#">
   <cc:Work>
    <dc:type rdf:resource="http://purl.org/dc/dcmitype/StillImage"/>
    <dc:date>2026-01-04T22:15:43.014968</dc:date>
    <dc:format>image/svg+xml</dc:format>
    <dc:creator>
     <cc:Agent>
      <dc:title>Repositorio Matemáticas Universitarias</dc:title>
     </cc:Agent>
    </dc:creator>
   </cc:Work>
  </rdf:RDF>
 </metadata>
 <defs>
  <style type="text/css">*{stroke-linejoin: round; stroke-linecap: butt}</style>
 </defs>
 <g id="figure_1">
  <g id="patch_1">
   <path d="M 0 584.39952 
L 1001.900664 584.39952 
L 1001.900664 0 
L 0 0 
z
" style="fill: #ffffff"/>
  </g>
  <g id="patch_2">
   <path d="M 7.2 577.19952 
L 539.182009 577.19952 
L 539.182009 45.217511 
L 7.2 45.217511 
z
" style="fill: #ffffff"/>
  </g>
  <g id="pane3d_1">
   <g id="patch_3">
    <path d="M 242.484028 346.519825 
L 508.494397 413.392091 
L 515.833414 162.729096 
L 241.337483 108.772693 
" style="fill: none; opacity: 0.5; stroke: #f2f2f2; stroke-linejoin: miter"/>
   </g>
  </g>
  <g id="pane3d_2">
   <g id="patch_4">
    <path d="M 242.484028 346.519825 
L 46.106868 444.601723 
L 38.359495 187.979626 
L 241.337483 108.772693 
" style="fill: none; opacity: 0.5; stroke: #e6e6e6; stroke-linejoin: miter"/>
   </g>
  </g>
  <g id="pane3d_3">
   <g id="patch_5">
    <path d="M 242.484028 346.519825 
L 46.106868 444.601723 
L 324.468752 524.502583 
L 508.494397 413.392091 
" style="fill: none; opacity: 0.5; stroke: #ececec; stroke-linejoin: miter"/>
   </g>
  </g>
  <g id="grid3d_1">
   <g id="Line3DCollection_1">
    <path d="M 491.557 423.618505 
L 224.31862 355.59266 
L 222.607918 116.081424 
" style="fill: none; stroke: #e5e7eb; stroke-width: 0.8"/>
    <path d="M 456.767005 444.623912 
L 187.064471 374.199496 
L 184.167223 131.081915 
" style="fill: none; stroke: #e5e7eb; stroke-width: 0.8"/>
    <path d="M 420.700784 466.399874 
L 148.526167 393.447713 
L 144.359599 146.615815 
" style="fill: none; stroke: #e5e7eb; stroke-width: 0.8"/>
    <path d="M 383.286802 488.989584 
L 108.636144 413.371054 
L 103.110817 162.71209 
" style="fill: none; stroke: #e5e7eb; stroke-width: 0.8"/>
    <path d="M 344.448074 512.439524 
L 67.322017 434.005673 
L 60.341171 179.401843 
" style="fill: none; stroke: #e5e7eb; stroke-width: 0.8"/>
   </g>
  </g>
  <g id="grid3d_2">
   <g id="Line3DCollection_2">
    <path d="M 267.305894 113.877185 
L 267.692069 352.856867 
L 72.353275 452.135479 
" style="fill: none; stroke: #e5e7eb; stroke-width: 0.8"/>
    <path d="M 320.188226 124.272021 
L 318.998546 365.754786 
L 125.858259 467.493524 
" style="fill: none; stroke: #e5e7eb; stroke-width: 0.8"/>
    <path d="M 374.369957 134.922275 
L 371.527577 378.960044 
L 180.756739 483.251556 
" style="fill: none; stroke: #e5e7eb; stroke-width: 0.8"/>
    <path d="M 429.899577 145.837477 
L 425.323386 392.483756 
L 237.10387 499.425409 
" style="fill: none; stroke: #e5e7eb; stroke-width: 0.8"/>
    <path d="M 486.828015 157.027638 
L 480.432358 406.337584 
L 294.957759 516.031762 
" style="fill: none; stroke: #e5e7eb; stroke-width: 0.8"/>
   </g>
  </g>
  <g id="grid3d_3">
   <g id="Line3DCollection_3">
    <path d="M 46.106868 444.601723 
L 242.484028 346.519825 
L 508.494397 413.392091 
" style="fill: none; stroke: #e5e7eb; stroke-width: 0.8"/>
    <path d="M 45.16568 413.426063 
L 242.344406 317.567884 
L 509.386656 382.917116 
" style="fill: none; stroke: #e5e7eb; stroke-width: 0.8"/>
    <path d="M 44.2169 381.998898 
L 242.203751 288.401816 
L 510.285923 352.202802 
" style="fill: none; stroke: #e5e7eb; stroke-width: 0.8"/>
    <path d="M 43.260435 350.317171 
L 242.062053 259.019237 
L 511.19228 321.246319 
" style="fill: none; stroke: #e5e7eb; stroke-width: 0.8"/>
    <path d="M 42.29619 318.377777 
L 241.919298 229.417727 
L 512.105811 290.04479 
" style="fill: none; stroke: #e5e7eb; stroke-width: 0.8"/>
    <path d="M 41.324072 286.17756 
L 241.775476 199.594829 
L 513.026603 258.595295 
" style="fill: none; stroke: #e5e7eb; stroke-width: 0.8"/>
    <path d="M 40.343982 253.713312 
L 241.630575 169.548051 
L 513.954741 226.894866 
" style="fill: none; stroke: #e5e7eb; stroke-width: 0.8"/>
    <path d="M 39.355823 220.981773 
L 241.484581 139.274862 
L 514.890315 194.940488 
" style="fill: none; stroke: #e5e7eb; stroke-width: 0.8"/>
    <path d="M 38.359495 187.979626 
L 241.337483 108.772693 
L 515.833414 162.729096 
" style="fill: none; stroke: #e5e7eb; stroke-width: 0.8"/>
   </g>
  </g>
  <g id="axis3d_1">
   <g id="line2d_1">
    <path d="M 508.494397 413.392091 
L 324.468752 524.502583 
" style="fill: none; stroke: #000000; stroke-width: 1.5; stroke-linecap: square"/>
   </g>
   <g id="xtick_1">
    <g id="line2d_2">
     <path d="M 489.287789 423.040875 
L 496.102176 424.775485 
" style="fill: none; stroke: #1f2937; stroke-width: 0.8; stroke-linecap: square"/>
    </g>
    <g id="text_1">
     <!-- −2 -->
     <g style="fill: #1f2937" transform="translate(494.229482 445.906962) scale(0.12 -0.12)">
      <defs>
       <path id="DejaVuSans-2212" d="M 678 2272 
L 4684 2272 
L 4684 1741 
L 678 1741 
L 678 2272 
z
" transform="scale(0.015625)"/>
       <path id="DejaVuSans-32" d="M 1228 531 
L 3431 531 
L 3431 0 
L 469 0 
L 469 531 
Q 828 903 1448 1529 
Q 2069 2156 2228 2338 
Q 2531 2678 2651 2914 
Q 2772 3150 2772 3378 
Q 2772 3750 2511 3984 
Q 2250 4219 1831 4219 
Q 1534 4219 1204 4116 
Q 875 4013 500 3803 
L 500 4441 
Q 881 4594 1212 4672 
Q 1544 4750 1819 4750 
Q 2544 4750 2975 4387 
Q 3406 4025 3406 3419 
Q 3406 3131 3298 2873 
Q 3191 2616 2906 2266 
Q 2828 2175 2409 1742 
Q 1991 1309 1228 531 
z
" transform="scale(0.015625)"/>
      </defs>
      <use xlink:href="#DejaVuSans-2212"/>
      <use xlink:href="#DejaVuSans-32" transform="translate(83.789062 0)"/>
     </g>
    </g>
   </g>
   <g id="xtick_2">
    <g id="line2d_3">
     <path d="M 454.474484 444.025292 
L 461.358992 445.822967 
" style="fill: none; stroke: #1f2937; stroke-width: 0.8; stroke-linecap: square"/>
    </g>
    <g id="text_2">
     <!-- −1 -->
     <g style="fill: #1f2937" transform="translate(459.602317 467.176995) scale(0.12 -0.12)">
      <defs>
       <path id="DejaVuSans-31" d="M 794 531 
L 1825 531 
L 1825 4091 
L 703 3866 
L 703 4441 
L 1819 4666 
L 2450 4666 
L 2450 531 
L 3481 531 
L 3481 0 
L 794 0 
L 794 531 
z
" transform="scale(0.015625)"/>
      </defs>
      <use xlink:href="#DejaVuSans-2212"/>
      <use xlink:href="#DejaVuSans-31" transform="translate(83.789062 0)"/>
     </g>
    </g>
   </g>
   <g id="xtick_3">
    <g id="line2d_4">
     <path d="M 418.384755 465.779099 
L 425.33999 467.643341 
" style="fill: none; stroke: #1f2937; stroke-width: 0.8; stroke-linecap: square"/>
    </g>
    <g id="text_3">
     <!-- 0 -->
     <g style="fill: #1f2937" transform="translate(428.731045 489.228316) scale(0.12 -0.12)">
      <defs>
       <path id="DejaVuSans-30" d="M 2034 4250 
Q 1547 4250 1301 3770 
Q 1056 3291 1056 2328 
Q 1056 1369 1301 889 
Q 1547 409 2034 409 
Q 2525 409 2770 889 
Q 3016 1369 3016 2328 
Q 3016 3291 2770 3770 
Q 2525 4250 2034 4250 
z
M 2034 4750 
Q 2819 4750 3233 4129 
Q 3647 3509 3647 2328 
Q 3647 1150 3233 529 
Q 2819 -91 2034 -91 
Q 1250 -91 836 529 
Q 422 1150 422 2328 
Q 422 3509 836 4129 
Q 1250 4750 2034 4750 
z
" transform="scale(0.015625)"/>
      </defs>
      <use xlink:href="#DejaVuSans-30"/>
     </g>
    </g>
   </g>
   <g id="xtick_4">
    <g id="line2d_5">
     <path d="M 380.947091 488.3454 
L 387.97358 490.279977 
" style="fill: none; stroke: #1f2937; stroke-width: 0.8; stroke-linecap: square"/>
    </g>
    <g id="text_4">
     <!-- 1 -->
     <g style="fill: #1f2937" transform="translate(391.488649 512.104777) scale(0.12 -0.12)">
      <use xlink:href="#DejaVuSans-31"/>
     </g>
    </g>
   </g>
   <g id="xtick_5">
    <g id="line2d_6">
     <path d="M 342.084538 511.770582 
L 349.182715 513.77955 
" style="fill: none; stroke: #1f2937; stroke-width: 0.8; stroke-linecap: square"/>
    </g>
    <g id="text_5">
     <!-- 2 -->
     <g style="fill: #1f2937" transform="translate(352.826105 535.853576) scale(0.12 -0.12)">
      <use xlink:href="#DejaVuSans-32"/>
     </g>
    </g>
   </g>
   <g id="text_6">
    <!-- X -->
    <g style="fill: #1f2937" transform="translate(444.106478 500.207926) scale(0.1 -0.1)">
     <defs>
      <path id="DejaVuSans-58" d="M 403 4666 
L 1081 4666 
L 2241 2931 
L 3406 4666 
L 4084 4666 
L 2584 2425 
L 4184 0 
L 3506 0 
L 2194 1984 
L 872 0 
L 191 0 
L 1856 2491 
L 403 4666 
z
" transform="scale(0.015625)"/>
     </defs>
     <use xlink:href="#DejaVuSans-58"/>
    </g>
   </g>
  </g>
  <g id="axis3d_2">
   <g id="line2d_7">
    <path d="M 46.106868 444.601723 
L 324.468752 524.502583 
" style="fill: none; stroke: #000000; stroke-width: 1.5; stroke-linecap: square"/>
   </g>
   <g id="xtick_6">
    <g id="line2d_8">
     <path d="M 74.056375 451.269899 
L 68.939656 453.87041 
" style="fill: none; stroke: #1f2937; stroke-width: 0.8; stroke-linecap: square"/>
    </g>
    <g id="text_7">
     <!-- −2 -->
     <g style="fill: #1f2937" transform="translate(54.922959 476.149267) scale(0.12 -0.12)">
      <use xlink:href="#DejaVuSans-2212"/>
      <use xlink:href="#DejaVuSans-32" transform="translate(83.789062 0)"/>
     </g>
    </g>
   </g>
   <g id="xtick_7">
    <g id="line2d_9">
     <path d="M 127.543974 466.605555 
L 122.479392 469.273378 
" style="fill: none; stroke: #1f2937; stroke-width: 0.8; stroke-linecap: square"/>
    </g>
    <g id="text_8">
     <!-- −1 -->
     <g style="fill: #1f2937" transform="translate(108.449024 491.737069) scale(0.12 -0.12)">
      <use xlink:href="#DejaVuSans-2212"/>
      <use xlink:href="#DejaVuSans-31" transform="translate(83.789062 0)"/>
     </g>
    </g>
   </g>
   <g id="xtick_8">
    <g id="line2d_10">
     <path d="M 182.42358 482.34032 
L 177.415605 485.078103 
" style="fill: none; stroke: #1f2937; stroke-width: 0.8; stroke-linecap: square"/>
    </g>
    <g id="text_9">
     <!-- 0 -->
     <g style="fill: #1f2937" transform="translate(168.400422 507.731854) scale(0.12 -0.12)">
      <use xlink:href="#DejaVuSans-30"/>
     </g>
    </g>
   </g>
   <g id="xtick_9">
    <g id="line2d_11">
     <path d="M 238.750249 498.489978 
L 233.803655 501.300509 
" style="fill: none; stroke: #1f2937; stroke-width: 0.8; stroke-linecap: square"/>
    </g>
    <g id="text_10">
     <!-- 1 -->
     <g style="fill: #1f2937" transform="translate(224.776984 524.149774) scale(0.12 -0.12)">
      <use xlink:href="#DejaVuSans-31"/>
     </g>
    </g>
   </g>
   <g id="xtick_10">
    <g id="line2d_12">
     <path d="M 296.581979 515.071158 
L 291.701864 517.957377 
" style="fill: none; stroke: #1f2937; stroke-width: 0.8; stroke-linecap: square"/>
    </g>
    <g id="text_11">
     <!-- 2 -->
     <g style="fill: #1f2937" transform="translate(282.664952 541.007844) scale(0.12 -0.12)">
      <use xlink:href="#DejaVuSans-32"/>
     </g>
    </g>
   </g>
   <g id="text_12">
    <!-- Y -->
    <g style="fill: #1f2937" transform="translate(158.336789 520.852354) scale(0.1 -0.1)">
     <defs>
      <path id="DejaVuSans-59" d="M -13 4666 
L 666 4666 
L 1959 2747 
L 3244 4666 
L 3922 4666 
L 2272 2222 
L 2272 0 
L 1638 0 
L 1638 2222 
L -13 4666 
z
" transform="scale(0.015625)"/>
     </defs>
     <use xlink:href="#DejaVuSans-59"/>
    </g>
   </g>
  </g>
  <g id="axis3d_3">
   <g id="line2d_13">
    <path d="M 46.106868 444.601723 
L 38.359495 187.979626 
" style="fill: none; stroke: #000000; stroke-width: 1.5; stroke-linecap: square"/>
   </g>
   <g id="xtick_11">
    <g id="line2d_14">
     <path d="M 47.818131 443.747021 
L 42.676933 446.314827 
" style="fill: none; stroke: #1f2937; stroke-width: 0.8; stroke-linecap: square"/>
    </g>
    <g id="text_13">
     <!-- 0.0 -->
     <g style="fill: #1f2937" transform="translate(16.833281 455.051673) scale(0.12 -0.12)">
      <defs>
       <path id="DejaVuSans-2e" d="M 684 794 
L 1344 794 
L 1344 0 
L 684 0 
L 684 794 
z
" transform="scale(0.015625)"/>
      </defs>
      <use xlink:href="#DejaVuSans-30"/>
      <use xlink:href="#DejaVuSans-2e" transform="translate(63.623047 0)"/>
      <use xlink:href="#DejaVuSans-30" transform="translate(95.410156 0)"/>
     </g>
    </g>
   </g>
   <g id="xtick_12">
    <g id="line2d_15">
     <path d="M 46.884494 412.590464 
L 41.720582 415.100893 
" style="fill: none; stroke: #1f2937; stroke-width: 0.8; stroke-linecap: square"/>
    </g>
    <g id="text_14">
     <!-- 0.5 -->
     <g style="fill: #1f2937" transform="translate(15.811672 423.846256) scale(0.12 -0.12)">
      <defs>
       <path id="DejaVuSans-35" d="M 691 4666 
L 3169 4666 
L 3169 4134 
L 1269 4134 
L 1269 2991 
Q 1406 3038 1543 3061 
Q 1681 3084 1819 3084 
Q 2600 3084 3056 2656 
Q 3513 2228 3513 1497 
Q 3513 744 3044 326 
Q 2575 -91 1722 -91 
Q 1428 -91 1123 -41 
Q 819 9 494 109 
L 494 744 
Q 775 591 1075 516 
Q 1375 441 1709 441 
Q 2250 441 2565 725 
Q 2881 1009 2881 1497 
Q 2881 1984 2565 2268 
Q 2250 2553 1709 2553 
Q 1456 2553 1204 2497 
Q 953 2441 691 2322 
L 691 4666 
z
" transform="scale(0.015625)"/>
      </defs>
      <use xlink:href="#DejaVuSans-30"/>
      <use xlink:href="#DejaVuSans-2e" transform="translate(63.623047 0)"/>
      <use xlink:href="#DejaVuSans-35" transform="translate(95.410156 0)"/>
     </g>
    </g>
   </g>
   <g id="xtick_13">
    <g id="line2d_16">
     <path d="M 45.943331 381.182738 
L 40.756505 383.634778 
" style="fill: none; stroke: #1f2937; stroke-width: 0.8; stroke-linecap: square"/>
    </g>
    <g id="text_15">
     <!-- 1.0 -->
     <g style="fill: #1f2937" transform="translate(14.781813 392.388809) scale(0.12 -0.12)">
      <use xlink:href="#DejaVuSans-31"/>
      <use xlink:href="#DejaVuSans-2e" transform="translate(63.623047 0)"/>
      <use xlink:href="#DejaVuSans-30" transform="translate(95.410156 0)"/>
     </g>
    </g>
   </g>
   <g id="xtick_14">
    <g id="line2d_17">
     <path d="M 44.994549 349.520794 
L 39.784608 351.913414 
" style="fill: none; stroke: #1f2937; stroke-width: 0.8; stroke-linecap: square"/>
    </g>
    <g id="text_16">
     <!-- 1.5 -->
     <g style="fill: #1f2937" transform="translate(13.743602 360.676265) scale(0.12 -0.12)">
      <use xlink:href="#DejaVuSans-31"/>
      <use xlink:href="#DejaVuSans-2e" transform="translate(63.623047 0)"/>
      <use xlink:href="#DejaVuSans-35" transform="translate(95.410156 0)"/>
     </g>
    </g>
   </g>
   <g id="xtick_15">
    <g id="line2d_18">
     <path d="M 44.038057 317.601532 
L 38.804794 319.933683 
" style="fill: none; stroke: #1f2937; stroke-width: 0.8; stroke-linecap: square"/>
    </g>
    <g id="text_17">
     <!-- 2.0 -->
     <g style="fill: #1f2937" transform="translate(12.696938 328.70551) scale(0.12 -0.12)">
      <use xlink:href="#DejaVuSans-32"/>
      <use xlink:href="#DejaVuSans-2e" transform="translate(63.623047 0)"/>
      <use xlink:href="#DejaVuSans-30" transform="translate(95.410156 0)"/>
     </g>
    </g>
   </g>
   <g id="xtick_16">
    <g id="line2d_19">
     <path d="M 43.073759 285.421803 
L 37.816968 287.692415 
" style="fill: none; stroke: #1f2937; stroke-width: 0.8; stroke-linecap: square"/>
    </g>
    <g id="text_18">
     <!-- 2.5 -->
     <g style="fill: #1f2937" transform="translate(11.641717 296.473377) scale(0.12 -0.12)">
      <use xlink:href="#DejaVuSans-32"/>
      <use xlink:href="#DejaVuSans-2e" transform="translate(63.623047 0)"/>
      <use xlink:href="#DejaVuSans-35" transform="translate(95.410156 0)"/>
     </g>
    </g>
   </g>
   <g id="xtick_17">
    <g id="line2d_20">
     <path d="M 42.101561 252.978405 
L 36.821029 255.186388 
" style="fill: none; stroke: #1f2937; stroke-width: 0.8; stroke-linecap: square"/>
    </g>
    <g id="text_19">
     <!-- 3.0 -->
     <g style="fill: #1f2937" transform="translate(10.577833 263.976647) scale(0.12 -0.12)">
      <defs>
       <path id="DejaVuSans-33" d="M 2597 2516 
Q 3050 2419 3304 2112 
Q 3559 1806 3559 1356 
Q 3559 666 3084 287 
Q 2609 -91 1734 -91 
Q 1441 -91 1130 -33 
Q 819 25 488 141 
L 488 750 
Q 750 597 1062 519 
Q 1375 441 1716 441 
Q 2309 441 2620 675 
Q 2931 909 2931 1356 
Q 2931 1769 2642 2001 
Q 2353 2234 1838 2234 
L 1294 2234 
L 1294 2753 
L 1863 2753 
Q 2328 2753 2575 2939 
Q 2822 3125 2822 3475 
Q 2822 3834 2567 4026 
Q 2313 4219 1838 4219 
Q 1578 4219 1281 4162 
Q 984 4106 628 3988 
L 628 4550 
Q 988 4650 1302 4700 
Q 1616 4750 1894 4750 
Q 2613 4750 3031 4423 
Q 3450 4097 3450 3541 
Q 3450 3153 3228 2886 
Q 3006 2619 2597 2516 
z
" transform="scale(0.015625)"/>
      </defs>
      <use xlink:href="#DejaVuSans-33"/>
      <use xlink:href="#DejaVuSans-2e" transform="translate(63.623047 0)"/>
      <use xlink:href="#DejaVuSans-30" transform="translate(95.410156 0)"/>
     </g>
    </g>
   </g>
   <g id="xtick_18">
    <g id="line2d_21">
     <path d="M 41.121364 220.268085 
L 35.816879 222.412327 
" style="fill: none; stroke: #1f2937; stroke-width: 0.8; stroke-linecap: square"/>
    </g>
    <g id="text_20">
     <!-- 3.5 -->
     <g style="fill: #1f2937" transform="translate(9.50518 231.212049) scale(0.12 -0.12)">
      <use xlink:href="#DejaVuSans-33"/>
      <use xlink:href="#DejaVuSans-2e" transform="translate(63.623047 0)"/>
      <use xlink:href="#DejaVuSans-35" transform="translate(95.410156 0)"/>
     </g>
    </g>
   </g>
   <g id="xtick_19">
    <g id="line2d_22">
     <path d="M 40.133069 187.287534 
L 34.804414 189.366905 
" style="fill: none; stroke: #1f2937; stroke-width: 0.8; stroke-linecap: square"/>
    </g>
    <g id="text_21">
     <!-- 4.0 -->
     <g style="fill: #1f2937" transform="translate(8.423648 198.176257) scale(0.12 -0.12)">
      <defs>
       <path id="DejaVuSans-34" d="M 2419 4116 
L 825 1625 
L 2419 1625 
L 2419 4116 
z
M 2253 4666 
L 3047 4666 
L 3047 1625 
L 3713 1625 
L 3713 1100 
L 3047 1100 
L 3047 0 
L 2419 0 
L 2419 1100 
L 313 1100 
L 313 1709 
L 2253 4666 
z
" transform="scale(0.015625)"/>
      </defs>
      <use xlink:href="#DejaVuSans-34"/>
      <use xlink:href="#DejaVuSans-2e" transform="translate(63.623047 0)"/>
      <use xlink:href="#DejaVuSans-30" transform="translate(95.410156 0)"/>
     </g>
    </g>
   </g>
   <g id="text_22">
    <!-- Z -->
    <g style="fill: #1f2937" transform="translate(-6.541204 323.875855) scale(0.1 -0.1)">
     <defs>
      <path id="DejaVuSans-5a" d="M 359 4666 
L 4025 4666 
L 4025 4184 
L 1075 531 
L 4097 531 
L 4097 0 
L 288 0 
L 288 481 
L 3238 4134 
L 359 4134 
L 359 4666 
z
" transform="scale(0.015625)"/>
     </defs>
     <use xlink:href="#DejaVuSans-5a"/>
    </g>
   </g>
  </g>
  <g id="axes_1">
   <g id="line2d_23">
    <path d="M 221.697372 460.869935 
L 227.03321 461.070791 
L 232.601443 461.134855 
L 238.378697 461.056596 
L 244.340474 460.831127 
L 250.461269 460.454239 
L 256.714702 459.922426 
L 263.073658 459.232912 
L 269.510433 458.383667 
L 275.996881 457.373424 
L 282.504574 456.201684 
L 289.004958 454.868719 
L 295.46951 453.375576 
L 301.869899 451.724062 
L 308.178142 449.916734 
L 314.36676 447.956881 
L 320.408921 445.848502 
L 326.278591 443.596277 
L 331.950663 441.205534 
L 337.401089 438.682217 
L 342.606999 436.032841 
L 347.546804 433.264454 
L 352.2003 430.384589 
L 356.548749 427.40122 
L 360.574959 424.322708 
L 364.263342 421.157757 
L 367.599965 417.915358 
L 370.572594 414.604739 
L 373.170716 411.235319 
L 375.385558 407.816652 
L 377.210091 404.358382 
L 378.639027 400.870193 
L 379.668803 397.361763 
L 380.297559 393.842725 
L 380.525105 390.322618 
L 380.352886 386.810852 
L 379.783932 383.316671 
L 378.822813 379.849117 
L 377.475578 376.416999 
L 375.7497 373.028865 
L 373.654011 369.692972 
L 371.198636 366.417267 
L 368.394927 363.209362 
L 365.255393 360.076515 
L 361.793631 357.025616 
L 358.024258 354.06317 
L 353.962838 351.195286 
L 349.625813 348.427663 
L 345.03044 345.765588 
L 340.194718 343.21392 
L 335.137322 340.77709 
L 329.877542 338.459097 
L 324.435219 336.263499 
L 318.83068 334.193415 
L 313.08468 332.251522 
L 307.218343 330.440054 
L 301.253104 328.760803 
L 295.210651 327.215117 
L 289.112872 325.803902 
L 282.981796 324.527622 
L 276.839542 323.386305 
L 270.708264 322.379538 
L 264.610095 321.506473 
L 258.567095 320.76583 
L 252.601196 320.155898 
L 246.734145 319.674539 
L 240.98745 319.319192 
L 235.382322 319.086875 
L 229.939618 318.97419 
L 224.679779 318.977332 
L 219.62277 319.092088 
L 214.788022 319.313847 
L 210.194359 319.637611 
L 205.859941 320.057995 
L 201.802193 320.569246 
L 198.037736 321.165245 
L 194.58232 321.839528 
L 191.450752 322.585292 
L 188.656826 323.395417 
L 186.21325 324.262479 
L 184.131576 325.17877 
L 182.422131 326.136324 
L 181.093945 327.126931 
L 180.154684 328.142173 
L 179.610587 329.173443 
L 179.466403 330.211981 
L 179.725332 331.248903 
L 180.388977 332.275235 
L 181.457289 333.281951 
L 182.928533 334.260012 
L 184.799252 335.200402 
L 187.06424 336.094173 
L 189.716529 336.932488 
L 192.747379 337.706664 
L 196.146283 338.408217 
L 199.900982 339.028906 
L 203.99749 339.560785 
L 208.420132 339.996238 
L 213.151593 340.328033 
L 218.172983 340.549358 
L 223.463906 340.653869 
L 229.002553 340.635725 
L 234.765793 340.489628 
L 240.729287 340.210857 
L 246.867606 339.795297 
L 253.154358 339.239472 
L 259.562331 338.54056 
L 266.063631 337.69642 
L 272.629841 336.705602 
L 279.232172 335.56736 
L 285.841624 334.281653 
L 292.429151 332.849148 
L 298.965821 331.271214 
L 305.422977 329.549913 
L 311.772395 327.687983 
L 317.986442 325.688821 
L 324.038225 323.556458 
L 329.901728 321.295531 
L 335.551954 318.911251 
L 340.965046 316.409369 
L 346.118405 313.796138 
L 350.990792 311.078271 
L 355.562425 308.262897 
L 359.815058 305.357521 
L 363.732052 302.369974 
L 367.298433 299.308367 
L 370.500935 296.181046 
L 373.328036 292.996546 
L 375.769976 289.76354 
L 377.818772 286.4908 
L 379.468213 283.187147 
L 380.713853 279.861412 
L 381.552988 276.522394 
L 381.98463 273.178822 
L 382.009469 269.839315 
L 381.629831 266.51235 
L 380.849628 263.206229 
L 379.674304 259.929052 
L 378.110772 256.688683 
L 376.167357 253.492731 
L 373.853728 250.348524 
L 371.180826 247.263093 
L 368.160801 244.243149 
L 364.806935 241.29507 
L 361.133576 238.424886 
L 357.156065 235.638269 
L 352.890663 232.940522 
L 348.354487 230.336571 
L 343.565434 227.830957 
L 338.54212 225.42783 
L 333.303809 223.130949 
L 327.870351 220.943674 
L 322.262117 218.868966 
L 316.499939 216.909386 
L 310.605051 215.067091 
L 304.599024 213.343839 
L 298.503717 211.740987 
L 292.341213 210.259489 
L 286.133769 208.899903 
L 279.903758 207.662388 
L 273.673613 206.546708 
L 267.465778 205.552233 
L 255.206517 203.922428 
L 243.303595 202.760165 
L 231.931229 202.046519 
L 221.258394 201.756577 
L 211.446903 201.859583 
L 202.649387 202.319139 
L 195.007176 203.093454 
L 188.648085 204.135664 
L 185.985395 204.741296 
L 183.684131 205.394238 
L 181.755446 206.087405 
L 180.209216 206.813485 
L 179.053973 207.564968 
L 178.296834 208.334168 
L 177.943435 209.113248 
L 177.997875 209.894248 
L 178.462652 210.669118 
L 179.338615 211.429744 
L 180.62492 212.167989 
L 182.318986 212.875722 
L 184.41647 213.544859 
L 186.911239 214.167399 
L 189.795363 214.735465 
L 193.059109 215.241341 
L 196.690949 215.677518 
L 200.677582 216.03673 
L 209.653354 216.49667 
L 219.846046 216.56948 
L 219.846046 216.56948 
" clip-path="url(#pd28653ff38)" style="fill: none; stroke: #2563eb; stroke-width: 2.5; stroke-linecap: square"/>
   </g>
   <g id="line2d_24">
    <path d="M 280.37995 428.789063 
L 374.557795 371.054545 
" clip-path="url(#pd28653ff38)" style="fill: none; stroke-dasharray: 5.55,2.4; stroke-dashoffset: 0; stroke: #9ca3af; stroke-opacity: 0.7; stroke-width: 1.5"/>
   </g>
   <g id="line2d_25">
    <path d="M 221.697372 460.869935 
L 227.041418 462.262232 
L 232.616161 463.520206 
L 238.398122 464.637974 
L 244.362716 465.610282 
L 250.484365 466.432539 
L 256.736637 467.100845 
L 263.092381 467.612019 
L 269.523876 467.963622 
L 276.00298 468.153974 
L 282.501289 468.182163 
L 288.99029 468.048054 
L 295.441522 467.752289 
L 301.826735 467.296283 
L 308.118043 466.682214 
L 314.288083 465.913007 
L 320.310154 464.992314 
L 326.15837 463.92449 
L 331.807783 462.714564 
L 337.234518 461.368203 
L 342.415887 459.891677 
L 347.330495 458.291817 
L 351.958337 456.575972 
L 356.28088 454.751963 
L 360.281142 452.828035 
L 363.943745 450.812808 
L 367.25497 448.715228 
L 370.202795 446.544515 
L 372.776915 444.310112 
L 374.968762 442.021637 
L 376.771508 439.688833 
L 378.180058 437.321518 
L 379.191034 434.929541 
L 379.802753 432.522737 
L 380.015193 430.110882 
L 379.829954 427.703653 
L 379.250214 425.310592 
L 378.280675 422.941066 
L 376.927509 420.604237 
L 375.198297 418.309031 
L 373.101966 416.064106 
L 370.648725 413.877829 
L 367.849995 411.758253 
L 364.71834 409.713095 
L 361.267401 407.749715 
L 357.511822 405.875103 
L 353.467183 404.095861 
L 349.14993 402.418193 
L 344.577308 400.847892 
L 339.76729 399.39033 
L 334.738516 398.05045 
L 329.510227 396.832761 
L 324.1022 395.74133 
L 318.534687 394.77978 
L 312.828356 393.95128 
L 307.004232 393.25855 
L 301.083637 392.703852 
L 295.088137 392.288991 
L 289.039483 392.015315 
L 282.959556 391.883709 
L 276.870318 391.894598 
L 270.793749 392.047949 
L 264.751802 392.343264 
L 258.766342 392.779587 
L 252.859095 393.355501 
L 247.051594 394.069132 
L 241.36512 394.918146 
L 235.820644 395.899756 
L 230.438777 397.010721 
L 225.239703 398.247353 
L 220.243119 399.605514 
L 215.468179 401.080632 
L 210.933426 402.667694 
L 206.656725 404.361266 
L 202.655205 406.155489 
L 198.945182 408.0441 
L 195.542099 410.020436 
L 192.460451 412.077449 
L 189.713718 414.207723 
L 187.314295 416.403489 
L 185.273422 418.656645 
L 183.601117 420.958778 
L 182.306104 423.301186 
L 181.395754 425.674906 
L 180.876018 428.070743 
L 180.751369 430.4793 
L 181.024746 432.891013 
L 181.697505 435.296186 
L 182.769372 437.685032 
L 184.238407 440.047712 
L 186.100972 442.374378 
L 188.351707 444.65522 
L 190.983519 446.880511 
L 193.987573 449.040657 
L 197.353302 451.126246 
L 201.068421 453.128095 
L 205.118956 455.037307 
L 209.48928 456.845314 
L 214.16217 458.543935 
L 219.118864 460.125415 
L 224.339138 461.582483 
L 229.801392 462.908391 
L 235.482751 464.096959 
L 241.359167 465.142613 
L 247.405542 466.040427 
L 253.595855 466.786152 
L 259.903296 467.376243 
L 266.30041 467.80789 
L 272.759248 468.07903 
L 279.251516 468.188365 
L 285.748735 468.135374 
L 292.2224 467.920308 
L 298.644134 467.544198 
L 304.985851 467.008841 
L 311.219908 466.316791 
L 317.319253 465.47134 
L 323.257577 464.476494 
L 329.009445 463.33695 
L 334.550432 462.058059 
L 339.857242 460.645796 
L 344.90782 459.106716 
L 349.681456 457.447914 
L 354.158869 455.676982 
L 358.322296 453.801958 
L 362.155547 451.831282 
L 365.644071 449.773742 
L 368.774992 447.638428 
L 371.537144 445.434677 
L 373.92109 443.172027 
L 375.919132 440.860164 
L 377.525309 438.508874 
L 378.735387 436.127997 
L 379.54684 433.72738 
L 379.95882 431.316833 
L 379.972121 428.906089 
L 379.589138 426.504761 
L 378.813818 424.122309 
L 377.651604 421.768001 
L 376.109382 419.450884 
L 374.195413 417.179753 
L 371.919274 414.963125 
L 369.291787 412.809213 
L 366.324955 410.725903 
L 363.031889 408.720737 
L 359.426739 406.800891 
L 355.524627 404.973163 
L 351.341574 403.243959 
L 346.894433 401.619276 
L 342.200823 400.104699 
L 337.279058 398.705387 
L 332.148087 397.426067 
L 326.827425 396.271027 
L 321.337096 395.244111 
L 315.697567 394.348718 
L 309.929692 393.587792 
L 304.054651 392.963823 
L 298.093895 392.478847 
L 292.069089 392.134439 
L 286.002057 391.931715 
L 279.914727 391.871333 
L 273.829076 391.953486 
L 267.767078 392.17791 
L 261.750649 392.543877 
L 255.801591 393.050202 
L 249.94154 393.695237 
L 244.19191 394.47688 
L 238.573835 395.392569 
L 233.108113 396.439289 
L 227.815148 397.613577 
L 222.714889 398.911518 
L 217.82677 400.328757 
L 213.169646 401.8605 
L 208.76173 403.501523 
L 204.620528 405.246178 
L 200.76277 407.088404 
L 197.204344 409.021734 
L 193.960228 411.039313 
L 191.044419 413.133906 
L 188.469862 415.297919 
L 186.248384 417.523412 
L 184.390622 419.802127 
L 182.905955 422.125502 
L 181.80244 424.484701 
L 181.086744 426.870643 
L 180.764087 429.274025 
L 180.838182 431.685365 
L 181.311181 434.095027 
L 182.183632 436.493264 
L 183.454431 438.870259 
L 185.120793 441.216161 
L 187.178221 443.521137 
L 189.62049 445.775412 
L 192.439635 447.96932 
L 195.625956 450.093351 
L 199.168022 452.138201 
L 203.0527 454.094824 
L 207.265184 455.954482 
L 211.789042 457.708793 
L 216.606272 459.349784 
L 221.697372 460.869935 
L 221.697372 460.869935 
" clip-path="url(#pd28653ff38)" style="fill: none; stroke-dasharray: 3.7,1.6; stroke-dashoffset: 0; stroke: #9ca3af; stroke-opacity: 0.5"/>
   </g>
   <g id="Path3DCollection_1">
    <defs>
     <path id="m4916eedc89" d="M 0 5 
C 1.326016 5 2.597899 4.473168 3.535534 3.535534 
C 4.473168 2.597899 5 1.326016 5 0 
C 5 -1.326016 4.473168 -2.597899 3.535534 -3.535534 
C 2.597899 -4.473168 1.326016 -5 0 -5 
C -1.326016 -5 -2.597899 -4.473168 -3.535534 -3.535534 
C -4.473168 -2.597899 -5 -1.326016 -5 0 
C -5 1.326016 -4.473168 2.597899 -3.535534 3.535534 
C -2.597899 4.473168 -1.326016 5 0 5 
z
" style="stroke: #059669"/>
    </defs>
    <g clip-path="url(#pd28653ff38)">
     <use xlink:href="#m4916eedc89" x="374.557795" y="371.054545" style="fill: #059669; stroke: #059669"/>
    </g>
   </g>
   <g id="text_23">
    <!-- $\mathbf{r}(t_0)$ -->
    <g style="fill: #059669" transform="translate(378.627564 359.178449) scale(0.11 -0.11)">
     <defs>
      <path id="DejaVuSans-Bold-72" d="M 3138 2547 
Q 2991 2616 2845 2648 
Q 2700 2681 2553 2681 
Q 2122 2681 1889 2404 
Q 1656 2128 1656 1613 
L 1656 0 
L 538 0 
L 538 3500 
L 1656 3500 
L 1656 2925 
Q 1872 3269 2151 3426 
Q 2431 3584 2822 3584 
Q 2878 3584 2943 3579 
Q 3009 3575 3134 3559 
L 3138 2547 
z
" transform="scale(0.015625)"/>
      <path id="DejaVuSans-28" d="M 1984 4856 
Q 1566 4138 1362 3434 
Q 1159 2731 1159 2009 
Q 1159 1288 1364 580 
Q 1569 -128 1984 -844 
L 1484 -844 
Q 1016 -109 783 600 
Q 550 1309 550 2009 
Q 550 2706 781 3412 
Q 1013 4119 1484 4856 
L 1984 4856 
z
" transform="scale(0.015625)"/>
      <path id="DejaVuSans-Oblique-74" d="M 2706 3500 
L 2619 3053 
L 1472 3053 
L 1100 1153 
Q 1081 1047 1072 975 
Q 1063 903 1063 863 
Q 1063 663 1183 572 
Q 1303 481 1569 481 
L 2150 481 
L 2053 0 
L 1503 0 
Q 991 0 739 200 
Q 488 400 488 806 
Q 488 878 497 964 
Q 506 1050 525 1153 
L 897 3053 
L 409 3053 
L 500 3500 
L 978 3500 
L 1172 4494 
L 1747 4494 
L 1556 3500 
L 2706 3500 
z
" transform="scale(0.015625)"/>
      <path id="DejaVuSans-29" d="M 513 4856 
L 1013 4856 
Q 1481 4119 1714 3412 
Q 1947 2706 1947 2009 
Q 1947 1309 1714 600 
Q 1481 -109 1013 -844 
L 513 -844 
Q 928 -128 1133 580 
Q 1338 1288 1338 2009 
Q 1338 2731 1133 3434 
Q 928 4138 513 4856 
z
" transform="scale(0.015625)"/>
     </defs>
     <use xlink:href="#DejaVuSans-Bold-72" transform="translate(0 0.125)"/>
     <use xlink:href="#DejaVuSans-28" transform="translate(49.316406 0.125)"/>
     <use xlink:href="#DejaVuSans-Oblique-74" transform="translate(88.330078 0.125)"/>
     <use xlink:href="#DejaVuSans-30" transform="translate(127.539062 -16.28125) scale(0.7)"/>
     <use xlink:href="#DejaVuSans-29" transform="translate(174.80957 0.125)"/>
    </g>
   </g>
   <g id="text_24">
    <!-- $\mathbf{r}'(t_0)$ -->
    <g style="fill: #dc2626" transform="translate(345.191282 320.286951) scale(0.11 -0.11)">
     <defs>
      <path id="Cmsy10-30" d="M 225 347 
Q 184 359 184 409 
L 966 3316 
Q 1003 3434 1093 3506 
Q 1184 3578 1300 3578 
Q 1450 3578 1564 3479 
Q 1678 3381 1678 3231 
Q 1678 3166 1644 3084 
L 488 319 
Q 466 275 428 275 
Q 394 275 320 306 
Q 247 338 225 347 
z
" transform="scale(0.015625)"/>
     </defs>
     <use xlink:href="#DejaVuSans-Bold-72" transform="translate(0 0.584375)"/>
     <use xlink:href="#Cmsy10-30" transform="translate(50.273438 38.865625) scale(0.7)"/>
     <use xlink:href="#DejaVuSans-28" transform="translate(72.250977 0.584375)"/>
     <use xlink:href="#DejaVuSans-Oblique-74" transform="translate(111.264648 0.584375)"/>
     <use xlink:href="#DejaVuSans-30" transform="translate(150.473633 -15.821875) scale(0.7)"/>
     <use xlink:href="#DejaVuSans-29" transform="translate(197.744141 0.584375)"/>
    </g>
   </g>
   <g id="text_25">
    <!-- Hélice Circular -->
    <g style="fill: #1f2937" transform="translate(228.061786 35.217511) scale(0.11 -0.11)">
     <defs>
      <path id="DejaVuSans-Bold-48" d="M 588 4666 
L 1791 4666 
L 1791 2888 
L 3566 2888 
L 3566 4666 
L 4769 4666 
L 4769 0 
L 3566 0 
L 3566 1978 
L 1791 1978 
L 1791 0 
L 588 0 
L 588 4666 
z
" transform="scale(0.015625)"/>
      <path id="DejaVuSans-Bold-e9" d="M 4031 1759 
L 4031 1441 
L 1416 1441 
Q 1456 1047 1700 850 
Q 1944 653 2381 653 
Q 2734 653 3104 758 
Q 3475 863 3866 1075 
L 3866 213 
Q 3469 63 3072 -14 
Q 2675 -91 2278 -91 
Q 1328 -91 801 392 
Q 275 875 275 1747 
Q 275 2603 792 3093 
Q 1309 3584 2216 3584 
Q 3041 3584 3536 3087 
Q 4031 2591 4031 1759 
z
M 2881 2131 
Q 2881 2450 2695 2645 
Q 2509 2841 2209 2841 
Q 1884 2841 1681 2658 
Q 1478 2475 1428 2131 
L 2881 2131 
z
M 2702 5119 
L 3586 5119 
L 2433 3944 
L 1821 3944 
L 2702 5119 
z
" transform="scale(0.015625)"/>
      <path id="DejaVuSans-Bold-6c" d="M 538 4863 
L 1656 4863 
L 1656 0 
L 538 0 
L 538 4863 
z
" transform="scale(0.015625)"/>
      <path id="DejaVuSans-Bold-69" d="M 538 3500 
L 1656 3500 
L 1656 0 
L 538 0 
L 538 3500 
z
M 538 4863 
L 1656 4863 
L 1656 3950 
L 538 3950 
L 538 4863 
z
" transform="scale(0.015625)"/>
      <path id="DejaVuSans-Bold-63" d="M 3366 3391 
L 3366 2478 
Q 3138 2634 2908 2709 
Q 2678 2784 2431 2784 
Q 1963 2784 1702 2511 
Q 1441 2238 1441 1747 
Q 1441 1256 1702 982 
Q 1963 709 2431 709 
Q 2694 709 2930 787 
Q 3166 866 3366 1019 
L 3366 103 
Q 3103 6 2833 -42 
Q 2563 -91 2291 -91 
Q 1344 -91 809 395 
Q 275 881 275 1747 
Q 275 2613 809 3098 
Q 1344 3584 2291 3584 
Q 2566 3584 2833 3536 
Q 3100 3488 3366 3391 
z
" transform="scale(0.015625)"/>
      <path id="DejaVuSans-Bold-65" d="M 4031 1759 
L 4031 1441 
L 1416 1441 
Q 1456 1047 1700 850 
Q 1944 653 2381 653 
Q 2734 653 3104 758 
Q 3475 863 3866 1075 
L 3866 213 
Q 3469 63 3072 -14 
Q 2675 -91 2278 -91 
Q 1328 -91 801 392 
Q 275 875 275 1747 
Q 275 2603 792 3093 
Q 1309 3584 2216 3584 
Q 3041 3584 3536 3087 
Q 4031 2591 4031 1759 
z
M 2881 2131 
Q 2881 2450 2695 2645 
Q 2509 2841 2209 2841 
Q 1884 2841 1681 2658 
Q 1478 2475 1428 2131 
L 2881 2131 
z
" transform="scale(0.015625)"/>
      <path id="DejaVuSans-Bold-20" transform="scale(0.015625)"/>
      <path id="DejaVuSans-Bold-43" d="M 4288 256 
Q 3956 84 3597 -3 
Q 3238 -91 2847 -91 
Q 1681 -91 1000 561 
Q 319 1213 319 2328 
Q 319 3447 1000 4098 
Q 1681 4750 2847 4750 
Q 3238 4750 3597 4662 
Q 3956 4575 4288 4403 
L 4288 3438 
Q 3953 3666 3628 3772 
Q 3303 3878 2944 3878 
Q 2300 3878 1931 3465 
Q 1563 3053 1563 2328 
Q 1563 1606 1931 1193 
Q 2300 781 2944 781 
Q 3303 781 3628 887 
Q 3953 994 4288 1222 
L 4288 256 
z
" transform="scale(0.015625)"/>
      <path id="DejaVuSans-Bold-75" d="M 500 1363 
L 500 3500 
L 1625 3500 
L 1625 3150 
Q 1625 2866 1622 2436 
Q 1619 2006 1619 1863 
Q 1619 1441 1641 1255 
Q 1663 1069 1716 984 
Q 1784 875 1895 815 
Q 2006 756 2150 756 
Q 2500 756 2700 1025 
Q 2900 1294 2900 1772 
L 2900 3500 
L 4019 3500 
L 4019 0 
L 2900 0 
L 2900 506 
Q 2647 200 2364 54 
Q 2081 -91 1741 -91 
Q 1134 -91 817 281 
Q 500 653 500 1363 
z
" transform="scale(0.015625)"/>
      <path id="DejaVuSans-Bold-61" d="M 2106 1575 
Q 1756 1575 1579 1456 
Q 1403 1338 1403 1106 
Q 1403 894 1545 773 
Q 1688 653 1941 653 
Q 2256 653 2472 879 
Q 2688 1106 2688 1447 
L 2688 1575 
L 2106 1575 
z
M 3816 1997 
L 3816 0 
L 2688 0 
L 2688 519 
Q 2463 200 2181 54 
Q 1900 -91 1497 -91 
Q 953 -91 614 226 
Q 275 544 275 1050 
Q 275 1666 698 1953 
Q 1122 2241 2028 2241 
L 2688 2241 
L 2688 2328 
Q 2688 2594 2478 2717 
Q 2269 2841 1825 2841 
Q 1466 2841 1156 2769 
Q 847 2697 581 2553 
L 581 3406 
Q 941 3494 1303 3539 
Q 1666 3584 2028 3584 
Q 2975 3584 3395 3211 
Q 3816 2838 3816 1997 
z
" transform="scale(0.015625)"/>
     </defs>
     <use xlink:href="#DejaVuSans-Bold-48"/>
     <use xlink:href="#DejaVuSans-Bold-e9" transform="translate(83.691406 0)"/>
     <use xlink:href="#DejaVuSans-Bold-6c" transform="translate(151.513672 0)"/>
     <use xlink:href="#DejaVuSans-Bold-69" transform="translate(185.791016 0)"/>
     <use xlink:href="#DejaVuSans-Bold-63" transform="translate(220.068359 0)"/>
     <use xlink:href="#DejaVuSans-Bold-65" transform="translate(279.345703 0)"/>
     <use xlink:href="#DejaVuSans-Bold-20" transform="translate(347.167969 0)"/>
     <use xlink:href="#DejaVuSans-Bold-43" transform="translate(381.982422 0)"/>
     <use xlink:href="#DejaVuSans-Bold-69" transform="translate(455.371094 0)"/>
     <use xlink:href="#DejaVuSans-Bold-72" transform="translate(489.648438 0)"/>
     <use xlink:href="#DejaVuSans-Bold-63" transform="translate(538.964844 0)"/>
     <use xlink:href="#DejaVuSans-Bold-75" transform="translate(598.242188 0)"/>
     <use xlink:href="#DejaVuSans-Bold-6c" transform="translate(669.433594 0)"/>
     <use xlink:href="#DejaVuSans-Bold-61" transform="translate(703.710938 0)"/>
     <use xlink:href="#DejaVuSans-Bold-72" transform="translate(771.191406 0)"/>
    </g>
   </g>
   <g id="Line3DCollection_4">
    <path d="M 348.688437 330.575135 
L 374.557795 371.054545 
" clip-path="url(#pd28653ff38)" style="fill: none; stroke: #dc2626; stroke-width: 2.5"/>
    <path d="M 348.688437 330.575135 
L 351.45024 337.234664 
" clip-path="url(#pd28653ff38)" style="fill: none; stroke: #dc2626; stroke-width: 2.5"/>
    <path d="M 348.688437 330.575135 
L 351.807972 333.116498 
" clip-path="url(#pd28653ff38)" style="fill: none; stroke: #dc2626; stroke-width: 2.5"/>
   </g>
   <g id="Poly3DCollection_1">
    <path d="M 283.642867 391.891385 
L 271.288794 392.030099 
L 271.018878 160.074883 
L 283.739731 159.961251 
z
" clip-path="url(#pd28653ff38)" style="fill: #989fab; fill-opacity: 0.1"/>
    <path d="M 295.948401 392.33964 
L 283.642867 391.891385 
L 283.739731 159.961251 
L 296.410757 160.328458 
z
" clip-path="url(#pd28653ff38)" style="fill: #979ea9; fill-opacity: 0.1"/>
    <path d="M 271.288794 392.030099 
L 259.070012 392.753932 
L 258.436905 160.667851 
L 271.018878 160.074883 
z
" clip-path="url(#pd28653ff38)" style="fill: #99a0ab; fill-opacity: 0.1"/>
    <path d="M 308.022056 393.36888 
L 295.948401 392.33964 
L 296.410757 160.328458 
L 308.843747 161.171636 
z
" clip-path="url(#pd28653ff38)" style="fill: #959ba7; fill-opacity: 0.1"/>
    <path d="M 259.070012 392.753932 
L 247.168977 394.053206 
L 246.181133 161.732278 
L 258.436905 160.667851 
z
" clip-path="url(#pd28653ff38)" style="fill: #999fab; fill-opacity: 0.1"/>
    <path d="M 319.682867 394.965305 
L 308.022056 393.36888 
L 308.843747 161.171636 
L 320.852879 162.479557 
z
" clip-path="url(#pd28653ff38)" style="fill: #9298a4; fill-opacity: 0.1"/>
    <path d="M 247.168977 394.053206 
L 235.764872 395.910445 
L 234.435586 163.253943 
L 246.181133 161.732278 
z
" clip-path="url(#pd28653ff38)" style="fill: #979eaa; fill-opacity: 0.1"/>
    <path d="M 330.754155 397.107349 
L 319.682867 394.965305 
L 320.852879 162.479557 
L 332.256656 164.234663 
z
" clip-path="url(#pd28653ff38)" style="fill: #8e959f; fill-opacity: 0.1"/>
    <path d="M 235.764872 395.910445 
L 225.031665 398.300438 
L 223.379023 165.212319 
L 234.435586 163.253943 
z
" clip-path="url(#pd28653ff38)" style="fill: #959ca8; fill-opacity: 0.1"/>
    <path d="M 341.065514 399.765756 
L 330.754155 397.107349 
L 332.256656 164.234663 
L 342.879918 166.413131 
z
" clip-path="url(#pd28653ff38)" style="fill: #8a909b; fill-opacity: 0.1"/>
    <path d="M 225.031665 398.300438 
L 215.136087 401.190343 
L 213.182892 167.580653 
L 223.379023 165.212319 
z
" clip-path="url(#pd28653ff38)" style="fill: #9399a5; fill-opacity: 0.1"/>
    <path d="M 350.454879 402.903714 
L 341.065514 399.765756 
L 342.879918 166.413131 
L 352.555938 168.984963 
z
" clip-path="url(#pd28653ff38)" style="fill: #858b95; fill-opacity: 0.1"/>
    <path d="M 215.136087 401.190343 
L 206.235518 404.539841 
L 204.009172 170.326081 
L 213.182892 167.580653 
z
" clip-path="url(#pd28653ff38)" style="fill: #8f96a1; fill-opacity: 0.1"/>
    <path d="M 358.770693 406.477048 
L 350.454879 402.903714 
L 352.555938 168.984963 
L 361.128638 171.914139 
z
" clip-path="url(#pd28653ff38)" style="fill: #7f858f; fill-opacity: 0.1"/>
    <path d="M 206.235518 404.539841 
L 198.47577 408.30137 
L 196.008114 173.409806 
L 204.009172 170.326081 
z
" clip-path="url(#pd28653ff38)" style="fill: #8b919c; fill-opacity: 0.1"/>
    <path d="M 365.874171 410.434495 
L 358.770693 406.477048 
L 361.128638 171.914139 
L 368.454909 175.158825 
z
" clip-path="url(#pd28653ff38)" style="fill: #797f88; fill-opacity: 0.1"/>
    <path d="M 198.47577 408.30137 
L 191.988786 412.420446 
L 189.315867 176.787347 
L 196.008114 173.409806 
z
" clip-path="url(#pd28653ff38)" style="fill: #868c96; fill-opacity: 0.1"/>
    <path d="M 371.641645 414.718086 
L 365.874171 410.434495 
L 368.454909 175.158825 
L 374.407024 178.671672 
z
" clip-path="url(#pd28653ff38)" style="fill: #737881; fill-opacity: 0.1"/>
    <path d="M 191.988786 412.420446 
L 186.890268 416.836098 
L 184.052035 180.408882 
L 189.315867 176.787347 
z
" clip-path="url(#pd28653ff38)" style="fill: #818790; fill-opacity: 0.1"/>
    <path d="M 375.966953 419.263644 
L 371.641645 414.718086 
L 374.407024 178.671672 
L 378.875119 182.400212 
z
" clip-path="url(#pd28653ff38)" style="fill: #6d727a; fill-opacity: 0.1"/>
    <path d="M 186.890268 416.836098 
L 183.277273 421.481433 
L 180.317184 184.219698 
L 184.052035 180.408882 
z
" clip-path="url(#pd28653ff38)" style="fill: #7b818a; fill-opacity: 0.1"/>
    <path d="M 378.763835 424.001432 
L 375.966953 419.263644 
L 378.875119 182.400212 
L 381.769672 186.287375 
z
" clip-path="url(#pd28653ff38)" style="fill: #666b73; fill-opacity: 0.1"/>
    <path d="M 183.277273 421.481433 
L 181.225851 426.284358 
L 178.190373 188.160767 
L 180.317184 184.219698 
z
" clip-path="url(#pd28653ff38)" style="fill: #757a83; fill-opacity: 0.1"/>
    <path d="M 379.968256 428.856956 
L 378.763835 424.001432 
L 381.769672 186.287375 
L 383.023943 190.272136 
z
" clip-path="url(#pd28653ff38)" style="fill: #60646b; fill-opacity: 0.1"/>
    <path d="M 181.225851 426.284358 
L 180.788772 431.16846 
L 177.726782 192.169465 
L 178.190373 188.160767 
z
" clip-path="url(#pd28653ff38)" style="fill: #6e737c; fill-opacity: 0.1"/>
    <path d="M 379.540578 433.751943 
L 379.968256 428.856956 
L 383.023943 190.272136 
L 382.596247 194.29031 
z
" clip-path="url(#pd28653ff38)" style="fill: #595d64; fill-opacity: 0.1"/>
    <path d="M 180.788772 431.16846 
L 181.993467 436.054073 
L 178.955536 196.180428 
L 177.726782 192.169465 
z
" clip-path="url(#pd28653ff38)" style="fill: #686d75; fill-opacity: 0.1"/>
    <path d="M 377.467481 438.605491 
L 379.540578 433.751943 
L 382.596247 194.29031 
L 380.471994 198.275485 
z
" clip-path="url(#pd28653ff38)" style="fill: #53575d; fill-opacity: 0.1"/>
    <path d="M 181.993467 436.054073 
L 184.840258 440.859502 
L 181.877829 200.126565 
L 178.955536 196.180428 
z
" clip-path="url(#pd28653ff38)" style="fill: #61666d; fill-opacity: 0.1"/>
    <path d="M 373.763525 443.335392 
L 377.467481 438.605491 
L 380.471994 198.275485 
L 376.665345 202.160111 
z
" clip-path="url(#pd28653ff38)" style="fill: #4d5056; fill-opacity: 0.1"/>
    <path d="M 184.840258 440.859502 
L 189.301011 445.502429 
L 186.465474 203.940201 
L 181.877829 200.126565 
z
" clip-path="url(#pd28653ff38)" style="fill: #5b5f66; fill-opacity: 0.1"/>
    <path d="M 368.472231 447.859611 
L 373.763525 443.335392 
L 376.665345 202.160111 
L 371.220397 205.876713 
z
" clip-path="url(#pd28653ff38)" style="fill: #474a50; fill-opacity: 0.1"/>
    <path d="M 189.301011 445.502429 
L 195.318314 449.901449 
L 192.66 207.554352 
L 186.465474 203.940201 
z
" clip-path="url(#pd28653ff38)" style="fill: #54585f; fill-opacity: 0.1"/>
    <path d="M 361.666587 452.097889 
L 368.472231 447.859611 
L 371.220397 205.876713 
L 364.211752 209.359217 
z
" clip-path="url(#pd28653ff38)" style="fill: #42454a; fill-opacity: 0.1"/>
    <path d="M 195.318314 449.901449 
L 202.805283 453.977731 
L 200.372402 210.90409 
L 192.66 207.554352 
z
" clip-path="url(#pd28653ff38)" style="fill: #4e5258; fill-opacity: 0.1"/>
    <path d="M 353.448858 455.973441 
L 361.666587 452.097889 
L 364.211752 209.359217 
L 355.744373 212.544354 
z
" clip-path="url(#pd28653ff38)" style="fill: #3e4045; fill-opacity: 0.1"/>
    <path d="M 202.805283 453.977731 
L 211.646108 457.656732 
L 209.483655 213.927973 
L 200.372402 210.90409 
z
" clip-path="url(#pd28653ff38)" style="fill: #494c51; fill-opacity: 0.1"/>
    <path d="M 343.949644 459.414692 
L 353.448858 455.973441 
L 355.744373 212.544354 
L 345.952648 215.373101 
z
" clip-path="url(#pd28653ff38)" style="fill: #3a3c41; fill-opacity: 0.1"/>
    <path d="M 211.646108 457.656732 
L 221.697372 460.869935 
L 219.846046 216.56948 
L 209.483655 213.927973 
z
" clip-path="url(#pd28653ff38)" style="fill: #43464c; fill-opacity: 0.1"/>
    <path d="M 333.326113 462.356989 
L 343.949644 459.414692 
L 345.952648 215.373101 
L 334.998595 217.792106 
z
" clip-path="url(#pd28653ff38)" style="fill: #37393d; fill-opacity: 0.1"/>
    <path d="M 221.697372 460.869935 
L 232.790207 463.556532 
L 231.285382 218.778416 
L 219.846046 216.56948 
z
" clip-path="url(#pd28653ff38)" style="fill: #3f4246; fill-opacity: 0.1"/>
    <path d="M 321.759419 464.744228 
L 333.326113 462.356989 
L 334.998595 217.792106 
L 323.0692 219.755046 
z
" clip-path="url(#pd28653ff38)" style="fill: #34373b; fill-opacity: 0.1"/>
    <path d="M 232.790207 463.556532 
L 244.733262 465.66498 
L 243.604053 220.512213 
L 231.285382 218.778416 
z
" clip-path="url(#pd28653ff38)" style="fill: #3b3d42; fill-opacity: 0.1"/>
    <path d="M 309.451324 466.530331 
L 321.759419 464.744228 
L 323.0692 219.755046 
L 310.372922 221.223855 
z
" clip-path="url(#pd28653ff38)" style="fill: #333539; fill-opacity: 0.1"/>
    <path d="M 244.733262 465.66498 
L 257.31643 467.154384 
L 256.584899 221.73708 
L 243.604053 220.512213 
z
" clip-path="url(#pd28653ff38)" style="fill: #373a3e; fill-opacity: 0.1"/>
    <path d="M 296.620096 467.680492 
L 309.451324 466.530331 
L 310.372922 221.223855 
L 297.135434 222.169767 
z
" clip-path="url(#pd28653ff38)" style="fill: #323438; fill-opacity: 0.1"/>
    <path d="M 257.31643 467.154384 
L 270.315246 467.99562 
L 269.995784 222.428943 
L 256.584899 221.73708 
z
" clip-path="url(#pd28653ff38)" style="fill: #35373b; fill-opacity: 0.1"/>
    <path d="M 283.495817 468.172148 
L 296.620096 467.680492 
L 297.135434 222.169767 
L 283.594733 222.574131 
z
" clip-path="url(#pd28653ff38)" style="fill: #323438; fill-opacity: 0.1"/>
    <path d="M 270.315246 467.99562 
L 283.495817 468.172148 
L 283.594733 222.574131 
L 269.995784 222.428943 
z
" clip-path="url(#pd28653ff38)" style="fill: #333539; fill-opacity: 0.1"/>
   </g>
  </g>
  <g id="axes_2">
   <g id="patch_6">
    <path d="M 606.021858 178.213013 
L 982.67967 178.213013 
L 982.67967 61.176972 
L 606.021858 61.176972 
z
" clip-path="url(#pb29661555e)" style="fill: #eff6ff; stroke: #2563eb; stroke-width: 2; stroke-linejoin: miter"/>
   </g>
   <g id="patch_7">
    <path d="M 606.021858 571.8797 
L 982.67967 571.8797 
L 982.67967 529.321139 
L 606.021858 529.321139 
z
" clip-path="url(#pb29661555e)" style="fill: #fef3c7; stroke: #f59e0b; stroke-width: 1.5; stroke-linejoin: miter"/>
   </g>
   <g id="line2d_26">
    <path d="M 614.035854 199.492294 
L 974.665674 199.492294 
" clip-path="url(#pb29661555e)" style="fill: none; stroke: #e5e7eb; stroke-linecap: square"/>
   </g>
   <g id="line2d_27">
    <path d="M 614.035854 305.888696 
L 974.665674 305.888696 
" clip-path="url(#pb29661555e)" style="fill: none; stroke: #e5e7eb; stroke-linecap: square"/>
   </g>
   <g id="line2d_28">
    <path d="M 614.035854 524.001319 
L 974.665674 524.001319 
" clip-path="url(#pb29661555e)" style="fill: none; stroke: #e5e7eb; stroke-linecap: square"/>
   </g>
   <g id="text_26">
    <!-- FUNCIÓN VECTORIAL -->
    <g style="fill: #2563eb" transform="translate(729.728343 87.776072) scale(0.11 -0.11)">
     <defs>
      <path id="DejaVuSans-Bold-46" d="M 588 4666 
L 3834 4666 
L 3834 3756 
L 1791 3756 
L 1791 2888 
L 3713 2888 
L 3713 1978 
L 1791 1978 
L 1791 0 
L 588 0 
L 588 4666 
z
" transform="scale(0.015625)"/>
      <path id="DejaVuSans-Bold-55" d="M 588 4666 
L 1791 4666 
L 1791 1869 
Q 1791 1291 1980 1042 
Q 2169 794 2597 794 
Q 3028 794 3217 1042 
Q 3406 1291 3406 1869 
L 3406 4666 
L 4609 4666 
L 4609 1869 
Q 4609 878 4112 393 
Q 3616 -91 2597 -91 
Q 1581 -91 1084 393 
Q 588 878 588 1869 
L 588 4666 
z
" transform="scale(0.015625)"/>
      <path id="DejaVuSans-Bold-4e" d="M 588 4666 
L 1931 4666 
L 3628 1466 
L 3628 4666 
L 4769 4666 
L 4769 0 
L 3425 0 
L 1728 3200 
L 1728 0 
L 588 0 
L 588 4666 
z
" transform="scale(0.015625)"/>
      <path id="DejaVuSans-Bold-49" d="M 588 4666 
L 1791 4666 
L 1791 0 
L 588 0 
L 588 4666 
z
" transform="scale(0.015625)"/>
      <path id="DejaVuSans-Bold-d3" d="M 2719 3878 
Q 2169 3878 1866 3472 
Q 1563 3066 1563 2328 
Q 1563 1594 1866 1187 
Q 2169 781 2719 781 
Q 3272 781 3575 1187 
Q 3878 1594 3878 2328 
Q 3878 3066 3575 3472 
Q 3272 3878 2719 3878 
z
M 2719 4750 
Q 3844 4750 4481 4106 
Q 5119 3463 5119 2328 
Q 5119 1197 4481 553 
Q 3844 -91 2719 -91 
Q 1597 -91 958 553 
Q 319 1197 319 2328 
Q 319 3463 958 4106 
Q 1597 4750 2719 4750 
z
M 2799 5921 
L 3684 5921 
L 2793 5096 
L 2181 5096 
L 2799 5921 
z
" transform="scale(0.015625)"/>
      <path id="DejaVuSans-Bold-56" d="M 31 4666 
L 1241 4666 
L 2478 1222 
L 3713 4666 
L 4922 4666 
L 3194 0 
L 1759 0 
L 31 4666 
z
" transform="scale(0.015625)"/>
      <path id="DejaVuSans-Bold-45" d="M 588 4666 
L 3834 4666 
L 3834 3756 
L 1791 3756 
L 1791 2888 
L 3713 2888 
L 3713 1978 
L 1791 1978 
L 1791 909 
L 3903 909 
L 3903 0 
L 588 0 
L 588 4666 
z
" transform="scale(0.015625)"/>
      <path id="DejaVuSans-Bold-54" d="M 31 4666 
L 4331 4666 
L 4331 3756 
L 2784 3756 
L 2784 0 
L 1581 0 
L 1581 3756 
L 31 3756 
L 31 4666 
z
" transform="scale(0.015625)"/>
      <path id="DejaVuSans-Bold-4f" d="M 2719 3878 
Q 2169 3878 1866 3472 
Q 1563 3066 1563 2328 
Q 1563 1594 1866 1187 
Q 2169 781 2719 781 
Q 3272 781 3575 1187 
Q 3878 1594 3878 2328 
Q 3878 3066 3575 3472 
Q 3272 3878 2719 3878 
z
M 2719 4750 
Q 3844 4750 4481 4106 
Q 5119 3463 5119 2328 
Q 5119 1197 4481 553 
Q 3844 -91 2719 -91 
Q 1597 -91 958 553 
Q 319 1197 319 2328 
Q 319 3463 958 4106 
Q 1597 4750 2719 4750 
z
" transform="scale(0.015625)"/>
      <path id="DejaVuSans-Bold-52" d="M 2297 2597 
Q 2675 2597 2839 2737 
Q 3003 2878 3003 3200 
Q 3003 3519 2839 3656 
Q 2675 3794 2297 3794 
L 1791 3794 
L 1791 2597 
L 2297 2597 
z
M 1791 1766 
L 1791 0 
L 588 0 
L 588 4666 
L 2425 4666 
Q 3347 4666 3776 4356 
Q 4206 4047 4206 3378 
Q 4206 2916 3982 2619 
Q 3759 2322 3309 2181 
Q 3556 2125 3751 1926 
Q 3947 1728 4147 1325 
L 4800 0 
L 3519 0 
L 2950 1159 
Q 2778 1509 2601 1637 
Q 2425 1766 2131 1766 
L 1791 1766 
z
" transform="scale(0.015625)"/>
      <path id="DejaVuSans-Bold-41" d="M 3419 850 
L 1538 850 
L 1241 0 
L 31 0 
L 1759 4666 
L 3194 4666 
L 4922 0 
L 3713 0 
L 3419 850 
z
M 1838 1716 
L 3116 1716 
L 2478 3572 
L 1838 1716 
z
" transform="scale(0.015625)"/>
      <path id="DejaVuSans-Bold-4c" d="M 588 4666 
L 1791 4666 
L 1791 909 
L 3903 909 
L 3903 0 
L 588 0 
L 588 4666 
z
" transform="scale(0.015625)"/>
     </defs>
     <use xlink:href="#DejaVuSans-Bold-46"/>
     <use xlink:href="#DejaVuSans-Bold-55" transform="translate(68.310547 0)"/>
     <use xlink:href="#DejaVuSans-Bold-4e" transform="translate(149.511719 0)"/>
     <use xlink:href="#DejaVuSans-Bold-43" transform="translate(233.203125 0)"/>
     <use xlink:href="#DejaVuSans-Bold-49" transform="translate(306.591797 0)"/>
     <use xlink:href="#DejaVuSans-Bold-d3" transform="translate(343.798828 0)"/>
     <use xlink:href="#DejaVuSans-Bold-4e" transform="translate(428.808594 0)"/>
     <use xlink:href="#DejaVuSans-Bold-20" transform="translate(512.5 0)"/>
     <use xlink:href="#DejaVuSans-Bold-56" transform="translate(547.314453 0)"/>
     <use xlink:href="#DejaVuSans-Bold-45" transform="translate(624.707031 0)"/>
     <use xlink:href="#DejaVuSans-Bold-43" transform="translate(693.017578 0)"/>
     <use xlink:href="#DejaVuSans-Bold-54" transform="translate(766.40625 0)"/>
     <use xlink:href="#DejaVuSans-Bold-4f" transform="translate(834.619141 0)"/>
     <use xlink:href="#DejaVuSans-Bold-52" transform="translate(919.628906 0)"/>
     <use xlink:href="#DejaVuSans-Bold-49" transform="translate(996.630859 0)"/>
     <use xlink:href="#DejaVuSans-Bold-41" transform="translate(1033.837891 0)"/>
     <use xlink:href="#DejaVuSans-Bold-4c" transform="translate(1111.230469 0)"/>
    </g>
   </g>
   <g id="text_27">
    <!-- $\mathbf{r}(t) = \langle x(t), y(t), z(t) \rangle$ -->
    <g style="fill: #1f2937" transform="translate(729.805764 140.974273) scale(0.13 -0.13)">
     <defs>
      <path id="DejaVuSans-3d" d="M 678 2906 
L 4684 2906 
L 4684 2381 
L 678 2381 
L 678 2906 
z
M 678 1631 
L 4684 1631 
L 4684 1100 
L 678 1100 
L 678 1631 
z
" transform="scale(0.015625)"/>
      <path id="DejaVuSans-27e8" d="M 572 2006 
L 1453 4856 
L 1984 4856 
L 1103 2006 
L 1984 -844 
L 1453 -844 
L 572 2006 
z
" transform="scale(0.015625)"/>
      <path id="DejaVuSans-Oblique-78" d="M 3841 3500 
L 2234 1784 
L 3219 0 
L 2559 0 
L 1819 1388 
L 531 0 
L -166 0 
L 1556 1844 
L 641 3500 
L 1300 3500 
L 1972 2234 
L 3144 3500 
L 3841 3500 
z
" transform="scale(0.015625)"/>
      <path id="DejaVuSans-2c" d="M 750 794 
L 1409 794 
L 1409 256 
L 897 -744 
L 494 -744 
L 750 256 
L 750 794 
z
" transform="scale(0.015625)"/>
      <path id="DejaVuSans-Oblique-79" d="M 1588 -325 
Q 1188 -997 936 -1164 
Q 684 -1331 294 -1331 
L -159 -1331 
L -63 -850 
L 269 -850 
Q 509 -850 678 -719 
Q 847 -588 1056 -206 
L 1234 128 
L 459 3500 
L 1069 3500 
L 1650 819 
L 3256 3500 
L 3859 3500 
L 1588 -325 
z
" transform="scale(0.015625)"/>
      <path id="DejaVuSans-Oblique-7a" d="M 744 3500 
L 3475 3500 
L 3372 2975 
L 738 459 
L 2913 459 
L 2822 0 
L -19 0 
L 84 525 
L 2719 3041 
L 653 3041 
L 744 3500 
z
" transform="scale(0.015625)"/>
      <path id="DejaVuSans-27e9" d="M 1925 2006 
L 1044 -844 
L 513 -844 
L 1394 2006 
L 513 4856 
L 1044 4856 
L 1925 2006 
z
" transform="scale(0.015625)"/>
     </defs>
     <use xlink:href="#DejaVuSans-Bold-72" transform="translate(0 0.125)"/>
     <use xlink:href="#DejaVuSans-28" transform="translate(49.316406 0.125)"/>
     <use xlink:href="#DejaVuSans-Oblique-74" transform="translate(88.330078 0.125)"/>
     <use xlink:href="#DejaVuSans-29" transform="translate(127.539062 0.125)"/>
     <use xlink:href="#DejaVuSans-3d" transform="translate(186.035156 0.125)"/>
     <use xlink:href="#DejaVuSans-27e8" transform="translate(289.306641 0.125)"/>
     <use xlink:href="#DejaVuSans-Oblique-78" transform="translate(328.320312 0.125)"/>
     <use xlink:href="#DejaVuSans-28" transform="translate(387.5 0.125)"/>
     <use xlink:href="#DejaVuSans-Oblique-74" transform="translate(426.513672 0.125)"/>
     <use xlink:href="#DejaVuSans-29" transform="translate(465.722656 0.125)"/>
     <use xlink:href="#DejaVuSans-2c" transform="translate(504.736328 0.125)"/>
     <use xlink:href="#DejaVuSans-Oblique-79" transform="translate(556.005859 0.125)"/>
     <use xlink:href="#DejaVuSans-28" transform="translate(615.185547 0.125)"/>
     <use xlink:href="#DejaVuSans-Oblique-74" transform="translate(654.199219 0.125)"/>
     <use xlink:href="#DejaVuSans-29" transform="translate(693.408203 0.125)"/>
     <use xlink:href="#DejaVuSans-2c" transform="translate(732.421875 0.125)"/>
     <use xlink:href="#DejaVuSans-Oblique-7a" transform="translate(783.691406 0.125)"/>
     <use xlink:href="#DejaVuSans-28" transform="translate(836.181641 0.125)"/>
     <use xlink:href="#DejaVuSans-Oblique-74" transform="translate(875.195312 0.125)"/>
     <use xlink:href="#DejaVuSans-29" transform="translate(914.404297 0.125)"/>
     <use xlink:href="#DejaVuSans-27e9" transform="translate(953.417969 0.125)"/>
    </g>
   </g>
   <g id="text_28">
    <!-- VECTOR TANGENTE -->
    <g style="fill: #dc2626" transform="translate(740.535921 226.091394) scale(0.1 -0.1)">
     <defs>
      <path id="DejaVuSans-Bold-47" d="M 4781 347 
Q 4331 128 3847 18 
Q 3363 -91 2847 -91 
Q 1681 -91 1000 561 
Q 319 1213 319 2328 
Q 319 3456 1012 4103 
Q 1706 4750 2913 4750 
Q 3378 4750 3804 4662 
Q 4231 4575 4609 4403 
L 4609 3438 
Q 4219 3659 3833 3768 
Q 3447 3878 3059 3878 
Q 2341 3878 1952 3476 
Q 1563 3075 1563 2328 
Q 1563 1588 1938 1184 
Q 2313 781 3003 781 
Q 3191 781 3352 804 
Q 3513 828 3641 878 
L 3641 1784 
L 2906 1784 
L 2906 2591 
L 4781 2591 
L 4781 347 
z
" transform="scale(0.015625)"/>
     </defs>
     <use xlink:href="#DejaVuSans-Bold-56"/>
     <use xlink:href="#DejaVuSans-Bold-45" transform="translate(77.392578 0)"/>
     <use xlink:href="#DejaVuSans-Bold-43" transform="translate(145.703125 0)"/>
     <use xlink:href="#DejaVuSans-Bold-54" transform="translate(219.091797 0)"/>
     <use xlink:href="#DejaVuSans-Bold-4f" transform="translate(287.304688 0)"/>
     <use xlink:href="#DejaVuSans-Bold-52" transform="translate(372.314453 0)"/>
     <use xlink:href="#DejaVuSans-Bold-20" transform="translate(449.316406 0)"/>
     <use xlink:href="#DejaVuSans-Bold-54" transform="translate(484.130859 0)"/>
     <use xlink:href="#DejaVuSans-Bold-41" transform="translate(544.59375 0)"/>
     <use xlink:href="#DejaVuSans-Bold-4e" transform="translate(621.986328 0)"/>
     <use xlink:href="#DejaVuSans-Bold-47" transform="translate(705.677734 0)"/>
     <use xlink:href="#DejaVuSans-Bold-45" transform="translate(787.757812 0)"/>
     <use xlink:href="#DejaVuSans-Bold-4e" transform="translate(856.068359 0)"/>
     <use xlink:href="#DejaVuSans-Bold-54" transform="translate(939.759766 0)"/>
     <use xlink:href="#DejaVuSans-Bold-45" transform="translate(1007.972656 0)"/>
    </g>
   </g>
   <g id="text_29">
    <!-- $\mathbf{r}'(t) = \langle x'(t), y'(t), z'(t) \rangle$ -->
    <g style="fill: #1f2937" transform="translate(728.650764 273.969775) scale(0.12 -0.12)">
     <use xlink:href="#DejaVuSans-Bold-72" transform="translate(0 0.584375)"/>
     <use xlink:href="#Cmsy10-30" transform="translate(50.273438 38.865625) scale(0.7)"/>
     <use xlink:href="#DejaVuSans-28" transform="translate(72.250977 0.584375)"/>
     <use xlink:href="#DejaVuSans-Oblique-74" transform="translate(111.264648 0.584375)"/>
     <use xlink:href="#DejaVuSans-29" transform="translate(150.473633 0.584375)"/>
     <use xlink:href="#DejaVuSans-3d" transform="translate(208.969727 0.584375)"/>
     <use xlink:href="#DejaVuSans-27e8" transform="translate(312.241211 0.584375)"/>
     <use xlink:href="#DejaVuSans-Oblique-78" transform="translate(351.254883 0.584375)"/>
     <use xlink:href="#Cmsy10-30" transform="translate(414.900716 38.865625) scale(0.7)"/>
     <use xlink:href="#DejaVuSans-28" transform="translate(436.878255 0.584375)"/>
     <use xlink:href="#DejaVuSans-Oblique-74" transform="translate(475.891927 0.584375)"/>
     <use xlink:href="#DejaVuSans-29" transform="translate(515.100911 0.584375)"/>
     <use xlink:href="#DejaVuSans-2c" transform="translate(554.114583 0.584375)"/>
     <use xlink:href="#DejaVuSans-Oblique-79" transform="translate(605.384115 0.584375)"/>
     <use xlink:href="#Cmsy10-30" transform="translate(669.029948 38.865625) scale(0.7)"/>
     <use xlink:href="#DejaVuSans-28" transform="translate(691.007487 0.584375)"/>
     <use xlink:href="#DejaVuSans-Oblique-74" transform="translate(730.021159 0.584375)"/>
     <use xlink:href="#DejaVuSans-29" transform="translate(769.230143 0.584375)"/>
     <use xlink:href="#DejaVuSans-2c" transform="translate(808.243815 0.584375)"/>
     <use xlink:href="#DejaVuSans-Oblique-7a" transform="translate(859.513346 0.584375)"/>
     <use xlink:href="#Cmsy10-30" transform="translate(916.469727 38.865625) scale(0.7)"/>
     <use xlink:href="#DejaVuSans-28" transform="translate(938.447266 0.584375)"/>
     <use xlink:href="#DejaVuSans-Oblique-74" transform="translate(977.460938 0.584375)"/>
     <use xlink:href="#DejaVuSans-29" transform="translate(1016.669922 0.584375)"/>
     <use xlink:href="#DejaVuSans-27e9" transform="translate(1055.683594 0.584375)"/>
    </g>
   </g>
   <g id="text_30">
    <!-- INTERPRETACIÓN CINEMÁTICA -->
    <g style="fill: #dc2626" transform="translate(709.703108 332.487796) scale(0.1 -0.1)">
     <defs>
      <path id="DejaVuSans-Bold-50" d="M 588 4666 
L 2584 4666 
Q 3475 4666 3951 4270 
Q 4428 3875 4428 3144 
Q 4428 2409 3951 2014 
Q 3475 1619 2584 1619 
L 1791 1619 
L 1791 0 
L 588 0 
L 588 4666 
z
M 1791 3794 
L 1791 2491 
L 2456 2491 
Q 2806 2491 2997 2661 
Q 3188 2831 3188 3144 
Q 3188 3456 2997 3625 
Q 2806 3794 2456 3794 
L 1791 3794 
z
" transform="scale(0.015625)"/>
      <path id="DejaVuSans-Bold-4d" d="M 588 4666 
L 2119 4666 
L 3181 2169 
L 4250 4666 
L 5778 4666 
L 5778 0 
L 4641 0 
L 4641 3413 
L 3566 897 
L 2803 897 
L 1728 3413 
L 1728 0 
L 588 0 
L 588 4666 
z
" transform="scale(0.015625)"/>
      <path id="DejaVuSans-Bold-c1" d="M 3419 850 
L 1538 850 
L 1241 0 
L 31 0 
L 1759 4666 
L 3194 4666 
L 4922 0 
L 3713 0 
L 3419 850 
z
M 1838 1716 
L 3116 1716 
L 2478 3572 
L 1838 1716 
z
M 2559 5921 
L 3444 5921 
L 2553 5096 
L 1941 5096 
L 2559 5921 
z
" transform="scale(0.015625)"/>
     </defs>
     <use xlink:href="#DejaVuSans-Bold-49"/>
     <use xlink:href="#DejaVuSans-Bold-4e" transform="translate(37.207031 0)"/>
     <use xlink:href="#DejaVuSans-Bold-54" transform="translate(120.898438 0)"/>
     <use xlink:href="#DejaVuSans-Bold-45" transform="translate(189.111328 0)"/>
     <use xlink:href="#DejaVuSans-Bold-52" transform="translate(257.421875 0)"/>
     <use xlink:href="#DejaVuSans-Bold-50" transform="translate(334.423828 0)"/>
     <use xlink:href="#DejaVuSans-Bold-52" transform="translate(407.714844 0)"/>
     <use xlink:href="#DejaVuSans-Bold-45" transform="translate(484.716797 0)"/>
     <use xlink:href="#DejaVuSans-Bold-54" transform="translate(553.027344 0)"/>
     <use xlink:href="#DejaVuSans-Bold-41" transform="translate(613.490234 0)"/>
     <use xlink:href="#DejaVuSans-Bold-43" transform="translate(690.882812 0)"/>
     <use xlink:href="#DejaVuSans-Bold-49" transform="translate(764.271484 0)"/>
     <use xlink:href="#DejaVuSans-Bold-d3" transform="translate(801.478516 0)"/>
     <use xlink:href="#DejaVuSans-Bold-4e" transform="translate(886.488281 0)"/>
     <use xlink:href="#DejaVuSans-Bold-20" transform="translate(970.179688 0)"/>
     <use xlink:href="#DejaVuSans-Bold-43" transform="translate(1004.994141 0)"/>
     <use xlink:href="#DejaVuSans-Bold-49" transform="translate(1078.382812 0)"/>
     <use xlink:href="#DejaVuSans-Bold-4e" transform="translate(1115.589844 0)"/>
     <use xlink:href="#DejaVuSans-Bold-45" transform="translate(1199.28125 0)"/>
     <use xlink:href="#DejaVuSans-Bold-4d" transform="translate(1267.591797 0)"/>
     <use xlink:href="#DejaVuSans-Bold-c1" transform="translate(1367.103516 0)"/>
     <use xlink:href="#DejaVuSans-Bold-54" transform="translate(1436.746094 0)"/>
     <use xlink:href="#DejaVuSans-Bold-49" transform="translate(1504.958984 0)"/>
     <use xlink:href="#DejaVuSans-Bold-43" transform="translate(1542.166016 0)"/>
     <use xlink:href="#DejaVuSans-Bold-41" transform="translate(1615.554688 0)"/>
    </g>
   </g>
   <g id="text_31">
    <!-- $\mathbf{r}(t)$ -->
    <g style="fill: #1f2937" transform="translate(717.545794 375.046357) scale(0.1 -0.1)">
     <use xlink:href="#DejaVuSans-Bold-72" transform="translate(0 0.125)"/>
     <use xlink:href="#DejaVuSans-28" transform="translate(49.316406 0.125)"/>
     <use xlink:href="#DejaVuSans-Oblique-74" transform="translate(88.330078 0.125)"/>
     <use xlink:href="#DejaVuSans-29" transform="translate(127.539062 0.125)"/>
    </g>
   </g>
   <g id="text_32">
    <!-- → Posición -->
    <g style="fill: #6b7280" transform="translate(754.280784 375.046357) scale(0.09 -0.09)">
     <defs>
      <path id="DejaVuSans-2192" d="M 5050 2147 
L 5050 1866 
L 3822 638 
L 3447 1013 
L 4175 1741 
L 366 1741 
L 366 2272 
L 4175 2272 
L 3447 3000 
L 3822 3375 
L 5050 2147 
z
" transform="scale(0.015625)"/>
      <path id="DejaVuSans-20" transform="scale(0.015625)"/>
      <path id="DejaVuSans-50" d="M 1259 4147 
L 1259 2394 
L 2053 2394 
Q 2494 2394 2734 2622 
Q 2975 2850 2975 3272 
Q 2975 3691 2734 3919 
Q 2494 4147 2053 4147 
L 1259 4147 
z
M 628 4666 
L 2053 4666 
Q 2838 4666 3239 4311 
Q 3641 3956 3641 3272 
Q 3641 2581 3239 2228 
Q 2838 1875 2053 1875 
L 1259 1875 
L 1259 0 
L 628 0 
L 628 4666 
z
" transform="scale(0.015625)"/>
      <path id="DejaVuSans-6f" d="M 1959 3097 
Q 1497 3097 1228 2736 
Q 959 2375 959 1747 
Q 959 1119 1226 758 
Q 1494 397 1959 397 
Q 2419 397 2687 759 
Q 2956 1122 2956 1747 
Q 2956 2369 2687 2733 
Q 2419 3097 1959 3097 
z
M 1959 3584 
Q 2709 3584 3137 3096 
Q 3566 2609 3566 1747 
Q 3566 888 3137 398 
Q 2709 -91 1959 -91 
Q 1206 -91 779 398 
Q 353 888 353 1747 
Q 353 2609 779 3096 
Q 1206 3584 1959 3584 
z
" transform="scale(0.015625)"/>
      <path id="DejaVuSans-73" d="M 2834 3397 
L 2834 2853 
Q 2591 2978 2328 3040 
Q 2066 3103 1784 3103 
Q 1356 3103 1142 2972 
Q 928 2841 928 2578 
Q 928 2378 1081 2264 
Q 1234 2150 1697 2047 
L 1894 2003 
Q 2506 1872 2764 1633 
Q 3022 1394 3022 966 
Q 3022 478 2636 193 
Q 2250 -91 1575 -91 
Q 1294 -91 989 -36 
Q 684 19 347 128 
L 347 722 
Q 666 556 975 473 
Q 1284 391 1588 391 
Q 1994 391 2212 530 
Q 2431 669 2431 922 
Q 2431 1156 2273 1281 
Q 2116 1406 1581 1522 
L 1381 1569 
Q 847 1681 609 1914 
Q 372 2147 372 2553 
Q 372 3047 722 3315 
Q 1072 3584 1716 3584 
Q 2034 3584 2315 3537 
Q 2597 3491 2834 3397 
z
" transform="scale(0.015625)"/>
      <path id="DejaVuSans-69" d="M 603 3500 
L 1178 3500 
L 1178 0 
L 603 0 
L 603 3500 
z
M 603 4863 
L 1178 4863 
L 1178 4134 
L 603 4134 
L 603 4863 
z
" transform="scale(0.015625)"/>
      <path id="DejaVuSans-63" d="M 3122 3366 
L 3122 2828 
Q 2878 2963 2633 3030 
Q 2388 3097 2138 3097 
Q 1578 3097 1268 2742 
Q 959 2388 959 1747 
Q 959 1106 1268 751 
Q 1578 397 2138 397 
Q 2388 397 2633 464 
Q 2878 531 3122 666 
L 3122 134 
Q 2881 22 2623 -34 
Q 2366 -91 2075 -91 
Q 1284 -91 818 406 
Q 353 903 353 1747 
Q 353 2603 823 3093 
Q 1294 3584 2113 3584 
Q 2378 3584 2631 3529 
Q 2884 3475 3122 3366 
z
" transform="scale(0.015625)"/>
      <path id="DejaVuSans-f3" d="M 1959 3097 
Q 1497 3097 1228 2736 
Q 959 2375 959 1747 
Q 959 1119 1226 758 
Q 1494 397 1959 397 
Q 2419 397 2687 759 
Q 2956 1122 2956 1747 
Q 2956 2369 2687 2733 
Q 2419 3097 1959 3097 
z
M 1959 3584 
Q 2709 3584 3137 3096 
Q 3566 2609 3566 1747 
Q 3566 888 3137 398 
Q 2709 -91 1959 -91 
Q 1206 -91 779 398 
Q 353 888 353 1747 
Q 353 2609 779 3096 
Q 1206 3584 1959 3584 
z
M 2394 5119 
L 3016 5119 
L 1998 3944 
L 1519 3944 
L 2394 5119 
z
" transform="scale(0.015625)"/>
      <path id="DejaVuSans-6e" d="M 3513 2113 
L 3513 0 
L 2938 0 
L 2938 2094 
Q 2938 2591 2744 2837 
Q 2550 3084 2163 3084 
Q 1697 3084 1428 2787 
Q 1159 2491 1159 1978 
L 1159 0 
L 581 0 
L 581 3500 
L 1159 3500 
L 1159 2956 
Q 1366 3272 1645 3428 
Q 1925 3584 2291 3584 
Q 2894 3584 3203 3211 
Q 3513 2838 3513 2113 
z
" transform="scale(0.015625)"/>
     </defs>
     <use xlink:href="#DejaVuSans-2192"/>
     <use xlink:href="#DejaVuSans-20" transform="translate(83.789062 0)"/>
     <use xlink:href="#DejaVuSans-50" transform="translate(115.576172 0)"/>
     <use xlink:href="#DejaVuSans-6f" transform="translate(172.253906 0)"/>
     <use xlink:href="#DejaVuSans-73" transform="translate(233.435547 0)"/>
     <use xlink:href="#DejaVuSans-69" transform="translate(285.535156 0)"/>
     <use xlink:href="#DejaVuSans-63" transform="translate(313.318359 0)"/>
     <use xlink:href="#DejaVuSans-69" transform="translate(368.298828 0)"/>
     <use xlink:href="#DejaVuSans-f3" transform="translate(396.082031 0)"/>
     <use xlink:href="#DejaVuSans-6e" transform="translate(457.263672 0)"/>
    </g>
   </g>
   <g id="text_33">
    <!-- $\mathbf{v}(t) = \mathbf{r}'(t)$ -->
    <g style="fill: #1f2937" transform="translate(684.745794 412.285097) scale(0.1 -0.1)">
     <defs>
      <path id="DejaVuSans-Bold-76" d="M 97 3500 
L 1216 3500 
L 2088 1081 
L 2956 3500 
L 4078 3500 
L 2700 0 
L 1472 0 
L 97 3500 
z
" transform="scale(0.015625)"/>
     </defs>
     <use xlink:href="#DejaVuSans-Bold-76" transform="translate(0 0.584375)"/>
     <use xlink:href="#DejaVuSans-28" transform="translate(65.185547 0.584375)"/>
     <use xlink:href="#DejaVuSans-Oblique-74" transform="translate(104.199219 0.584375)"/>
     <use xlink:href="#DejaVuSans-29" transform="translate(143.408203 0.584375)"/>
     <use xlink:href="#DejaVuSans-3d" transform="translate(201.904297 0.584375)"/>
     <use xlink:href="#DejaVuSans-Bold-72" transform="translate(305.175781 0.584375)"/>
     <use xlink:href="#Cmsy10-30" transform="translate(355.449219 38.865625) scale(0.7)"/>
     <use xlink:href="#DejaVuSans-28" transform="translate(377.426758 0.584375)"/>
     <use xlink:href="#DejaVuSans-Oblique-74" transform="translate(416.44043 0.584375)"/>
     <use xlink:href="#DejaVuSans-29" transform="translate(455.649414 0.584375)"/>
    </g>
   </g>
   <g id="text_34">
    <!-- → Velocidad -->
    <g style="fill: #6b7280" transform="translate(754.280784 412.285097) scale(0.09 -0.09)">
     <defs>
      <path id="DejaVuSans-56" d="M 1831 0 
L 50 4666 
L 709 4666 
L 2188 738 
L 3669 4666 
L 4325 4666 
L 2547 0 
L 1831 0 
z
" transform="scale(0.015625)"/>
      <path id="DejaVuSans-65" d="M 3597 1894 
L 3597 1613 
L 953 1613 
Q 991 1019 1311 708 
Q 1631 397 2203 397 
Q 2534 397 2845 478 
Q 3156 559 3463 722 
L 3463 178 
Q 3153 47 2828 -22 
Q 2503 -91 2169 -91 
Q 1331 -91 842 396 
Q 353 884 353 1716 
Q 353 2575 817 3079 
Q 1281 3584 2069 3584 
Q 2775 3584 3186 3129 
Q 3597 2675 3597 1894 
z
M 3022 2063 
Q 3016 2534 2758 2815 
Q 2500 3097 2075 3097 
Q 1594 3097 1305 2825 
Q 1016 2553 972 2059 
L 3022 2063 
z
" transform="scale(0.015625)"/>
      <path id="DejaVuSans-6c" d="M 603 4863 
L 1178 4863 
L 1178 0 
L 603 0 
L 603 4863 
z
" transform="scale(0.015625)"/>
      <path id="DejaVuSans-64" d="M 2906 2969 
L 2906 4863 
L 3481 4863 
L 3481 0 
L 2906 0 
L 2906 525 
Q 2725 213 2448 61 
Q 2172 -91 1784 -91 
Q 1150 -91 751 415 
Q 353 922 353 1747 
Q 353 2572 751 3078 
Q 1150 3584 1784 3584 
Q 2172 3584 2448 3432 
Q 2725 3281 2906 2969 
z
M 947 1747 
Q 947 1113 1208 752 
Q 1469 391 1925 391 
Q 2381 391 2643 752 
Q 2906 1113 2906 1747 
Q 2906 2381 2643 2742 
Q 2381 3103 1925 3103 
Q 1469 3103 1208 2742 
Q 947 2381 947 1747 
z
" transform="scale(0.015625)"/>
      <path id="DejaVuSans-61" d="M 2194 1759 
Q 1497 1759 1228 1600 
Q 959 1441 959 1056 
Q 959 750 1161 570 
Q 1363 391 1709 391 
Q 2188 391 2477 730 
Q 2766 1069 2766 1631 
L 2766 1759 
L 2194 1759 
z
M 3341 1997 
L 3341 0 
L 2766 0 
L 2766 531 
Q 2569 213 2275 61 
Q 1981 -91 1556 -91 
Q 1019 -91 701 211 
Q 384 513 384 1019 
Q 384 1609 779 1909 
Q 1175 2209 1959 2209 
L 2766 2209 
L 2766 2266 
Q 2766 2663 2505 2880 
Q 2244 3097 1772 3097 
Q 1472 3097 1187 3025 
Q 903 2953 641 2809 
L 641 3341 
Q 956 3463 1253 3523 
Q 1550 3584 1831 3584 
Q 2591 3584 2966 3190 
Q 3341 2797 3341 1997 
z
" transform="scale(0.015625)"/>
     </defs>
     <use xlink:href="#DejaVuSans-2192"/>
     <use xlink:href="#DejaVuSans-20" transform="translate(83.789062 0)"/>
     <use xlink:href="#DejaVuSans-56" transform="translate(115.576172 0)"/>
     <use xlink:href="#DejaVuSans-65" transform="translate(176.234375 0)"/>
     <use xlink:href="#DejaVuSans-6c" transform="translate(237.757812 0)"/>
     <use xlink:href="#DejaVuSans-6f" transform="translate(265.541016 0)"/>
     <use xlink:href="#DejaVuSans-63" transform="translate(326.722656 0)"/>
     <use xlink:href="#DejaVuSans-69" transform="translate(381.703125 0)"/>
     <use xlink:href="#DejaVuSans-64" transform="translate(409.486328 0)"/>
     <use xlink:href="#DejaVuSans-61" transform="translate(472.962891 0)"/>
     <use xlink:href="#DejaVuSans-64" transform="translate(534.242188 0)"/>
    </g>
   </g>
   <g id="text_35">
    <!-- $\mathbf{a}(t) = \mathbf{r}''(t)$ -->
    <g style="fill: #1f2937" transform="translate(682.545794 449.523838) scale(0.1 -0.1)">
     <use xlink:href="#DejaVuSans-Bold-61" transform="translate(0 0.584375)"/>
     <use xlink:href="#DejaVuSans-28" transform="translate(67.480469 0.584375)"/>
     <use xlink:href="#DejaVuSans-Oblique-74" transform="translate(106.494141 0.584375)"/>
     <use xlink:href="#DejaVuSans-29" transform="translate(145.703125 0.584375)"/>
     <use xlink:href="#DejaVuSans-3d" transform="translate(204.199219 0.584375)"/>
     <use xlink:href="#DejaVuSans-Bold-72" transform="translate(307.470703 0.584375)"/>
     <use xlink:href="#Cmsy10-30" transform="translate(357.744141 38.865625) scale(0.7)"/>
     <use xlink:href="#Cmsy10-30" transform="translate(376.987305 38.865625) scale(0.7)"/>
     <use xlink:href="#DejaVuSans-28" transform="translate(398.964844 0.584375)"/>
     <use xlink:href="#DejaVuSans-Oblique-74" transform="translate(437.978516 0.584375)"/>
     <use xlink:href="#DejaVuSans-29" transform="translate(477.1875 0.584375)"/>
    </g>
   </g>
   <g id="text_36">
    <!-- → Aceleración -->
    <g style="fill: #6b7280" transform="translate(754.280784 449.523838) scale(0.09 -0.09)">
     <defs>
      <path id="DejaVuSans-41" d="M 2188 4044 
L 1331 1722 
L 3047 1722 
L 2188 4044 
z
M 1831 4666 
L 2547 4666 
L 4325 0 
L 3669 0 
L 3244 1197 
L 1141 1197 
L 716 0 
L 50 0 
L 1831 4666 
z
" transform="scale(0.015625)"/>
      <path id="DejaVuSans-72" d="M 2631 2963 
Q 2534 3019 2420 3045 
Q 2306 3072 2169 3072 
Q 1681 3072 1420 2755 
Q 1159 2438 1159 1844 
L 1159 0 
L 581 0 
L 581 3500 
L 1159 3500 
L 1159 2956 
Q 1341 3275 1631 3429 
Q 1922 3584 2338 3584 
Q 2397 3584 2469 3576 
Q 2541 3569 2628 3553 
L 2631 2963 
z
" transform="scale(0.015625)"/>
     </defs>
     <use xlink:href="#DejaVuSans-2192"/>
     <use xlink:href="#DejaVuSans-20" transform="translate(83.789062 0)"/>
     <use xlink:href="#DejaVuSans-41" transform="translate(115.576172 0)"/>
     <use xlink:href="#DejaVuSans-63" transform="translate(182.234375 0)"/>
     <use xlink:href="#DejaVuSans-65" transform="translate(237.214844 0)"/>
     <use xlink:href="#DejaVuSans-6c" transform="translate(298.738281 0)"/>
     <use xlink:href="#DejaVuSans-65" transform="translate(326.521484 0)"/>
     <use xlink:href="#DejaVuSans-72" transform="translate(388.044922 0)"/>
     <use xlink:href="#DejaVuSans-61" transform="translate(429.158203 0)"/>
     <use xlink:href="#DejaVuSans-63" transform="translate(490.4375 0)"/>
     <use xlink:href="#DejaVuSans-69" transform="translate(545.417969 0)"/>
     <use xlink:href="#DejaVuSans-f3" transform="translate(573.201172 0)"/>
     <use xlink:href="#DejaVuSans-6e" transform="translate(634.382812 0)"/>
    </g>
   </g>
   <g id="text_37">
    <!-- $v = \|\mathbf{r}'(t)\|$ -->
    <g style="fill: #1f2937" transform="translate(687.045794 486.762579) scale(0.1 -0.1)">
     <defs>
      <path id="DejaVuSans-Oblique-76" d="M 459 3500 
L 1069 3500 
L 1581 525 
L 3256 3500 
L 3866 3500 
L 1875 0 
L 1100 0 
L 459 3500 
z
" transform="scale(0.015625)"/>
      <path id="DejaVuSans-2016" d="M 1344 4891 
L 1344 -1509 
L 813 -1509 
L 813 4891 
L 1344 4891 
z
M 2376 4891 
L 2376 -1509 
L 1845 -1509 
L 1845 4891 
L 2376 4891 
z
" transform="scale(0.015625)"/>
     </defs>
     <use xlink:href="#DejaVuSans-Oblique-76" transform="translate(0 0.584375)"/>
     <use xlink:href="#DejaVuSans-3d" transform="translate(78.662109 0.584375)"/>
     <use xlink:href="#DejaVuSans-2016" transform="translate(181.933594 0.584375)"/>
     <use xlink:href="#DejaVuSans-Bold-72" transform="translate(231.933594 0.584375)"/>
     <use xlink:href="#Cmsy10-30" transform="translate(282.207031 38.865625) scale(0.7)"/>
     <use xlink:href="#DejaVuSans-28" transform="translate(304.18457 0.584375)"/>
     <use xlink:href="#DejaVuSans-Oblique-74" transform="translate(343.198242 0.584375)"/>
     <use xlink:href="#DejaVuSans-29" transform="translate(382.407227 0.584375)"/>
     <use xlink:href="#DejaVuSans-2016" transform="translate(421.420898 0.584375)"/>
    </g>
   </g>
   <g id="text_38">
    <!-- → Rapidez -->
    <g style="fill: #6b7280" transform="translate(754.280784 486.762579) scale(0.09 -0.09)">
     <defs>
      <path id="DejaVuSans-52" d="M 2841 2188 
Q 3044 2119 3236 1894 
Q 3428 1669 3622 1275 
L 4263 0 
L 3584 0 
L 2988 1197 
Q 2756 1666 2539 1819 
Q 2322 1972 1947 1972 
L 1259 1972 
L 1259 0 
L 628 0 
L 628 4666 
L 2053 4666 
Q 2853 4666 3247 4331 
Q 3641 3997 3641 3322 
Q 3641 2881 3436 2590 
Q 3231 2300 2841 2188 
z
M 1259 4147 
L 1259 2491 
L 2053 2491 
Q 2509 2491 2742 2702 
Q 2975 2913 2975 3322 
Q 2975 3731 2742 3939 
Q 2509 4147 2053 4147 
L 1259 4147 
z
" transform="scale(0.015625)"/>
      <path id="DejaVuSans-70" d="M 1159 525 
L 1159 -1331 
L 581 -1331 
L 581 3500 
L 1159 3500 
L 1159 2969 
Q 1341 3281 1617 3432 
Q 1894 3584 2278 3584 
Q 2916 3584 3314 3078 
Q 3713 2572 3713 1747 
Q 3713 922 3314 415 
Q 2916 -91 2278 -91 
Q 1894 -91 1617 61 
Q 1341 213 1159 525 
z
M 3116 1747 
Q 3116 2381 2855 2742 
Q 2594 3103 2138 3103 
Q 1681 3103 1420 2742 
Q 1159 2381 1159 1747 
Q 1159 1113 1420 752 
Q 1681 391 2138 391 
Q 2594 391 2855 752 
Q 3116 1113 3116 1747 
z
" transform="scale(0.015625)"/>
      <path id="DejaVuSans-7a" d="M 353 3500 
L 3084 3500 
L 3084 2975 
L 922 459 
L 3084 459 
L 3084 0 
L 275 0 
L 275 525 
L 2438 3041 
L 353 3041 
L 353 3500 
z
" transform="scale(0.015625)"/>
     </defs>
     <use xlink:href="#DejaVuSans-2192"/>
     <use xlink:href="#DejaVuSans-20" transform="translate(83.789062 0)"/>
     <use xlink:href="#DejaVuSans-52" transform="translate(115.576172 0)"/>
     <use xlink:href="#DejaVuSans-61" transform="translate(182.808594 0)"/>
     <use xlink:href="#DejaVuSans-70" transform="translate(244.087891 0)"/>
     <use xlink:href="#DejaVuSans-69" transform="translate(307.564453 0)"/>
     <use xlink:href="#DejaVuSans-64" transform="translate(335.347656 0)"/>
     <use xlink:href="#DejaVuSans-65" transform="translate(398.824219 0)"/>
     <use xlink:href="#DejaVuSans-7a" transform="translate(460.347656 0)"/>
    </g>
   </g>
   <g id="text_39">
    <!-- Hélice: $\mathbf{r}(t) = \langle a\cos t, a\sin t, bt \rangle$ -->
    <g style="fill: #92400e" transform="translate(719.750764 550.60042) scale(0.1 -0.1)">
     <defs>
      <path id="DejaVuSans-48" d="M 628 4666 
L 1259 4666 
L 1259 2753 
L 3553 2753 
L 3553 4666 
L 4184 4666 
L 4184 0 
L 3553 0 
L 3553 2222 
L 1259 2222 
L 1259 0 
L 628 0 
L 628 4666 
z
" transform="scale(0.015625)"/>
      <path id="DejaVuSans-e9" d="M 3597 1894 
L 3597 1613 
L 953 1613 
Q 991 1019 1311 708 
Q 1631 397 2203 397 
Q 2534 397 2845 478 
Q 3156 559 3463 722 
L 3463 178 
Q 3153 47 2828 -22 
Q 2503 -91 2169 -91 
Q 1331 -91 842 396 
Q 353 884 353 1716 
Q 353 2575 817 3079 
Q 1281 3584 2069 3584 
Q 2775 3584 3186 3129 
Q 3597 2675 3597 1894 
z
M 3022 2063 
Q 3016 2534 2758 2815 
Q 2500 3097 2075 3097 
Q 1594 3097 1305 2825 
Q 1016 2553 972 2059 
L 3022 2063 
z
M 2466 5119 
L 3088 5119 
L 2070 3944 
L 1591 3944 
L 2466 5119 
z
" transform="scale(0.015625)"/>
      <path id="DejaVuSans-3a" d="M 750 794 
L 1409 794 
L 1409 0 
L 750 0 
L 750 794 
z
M 750 3309 
L 1409 3309 
L 1409 2516 
L 750 2516 
L 750 3309 
z
" transform="scale(0.015625)"/>
      <path id="DejaVuSans-Oblique-61" d="M 3438 1997 
L 3047 0 
L 2472 0 
L 2578 531 
Q 2325 219 2001 64 
Q 1678 -91 1281 -91 
Q 834 -91 548 182 
Q 263 456 263 884 
Q 263 1497 752 1853 
Q 1241 2209 2100 2209 
L 2900 2209 
L 2931 2363 
Q 2938 2388 2941 2417 
Q 2944 2447 2944 2509 
Q 2944 2788 2717 2942 
Q 2491 3097 2081 3097 
Q 1800 3097 1504 3025 
Q 1209 2953 897 2809 
L 997 3341 
Q 1322 3463 1633 3523 
Q 1944 3584 2234 3584 
Q 2853 3584 3176 3315 
Q 3500 3047 3500 2534 
Q 3500 2431 3484 2292 
Q 3469 2153 3438 1997 
z
M 2816 1759 
L 2241 1759 
Q 1534 1759 1195 1570 
Q 856 1381 856 984 
Q 856 709 1029 553 
Q 1203 397 1509 397 
Q 1978 397 2328 733 
Q 2678 1069 2791 1631 
L 2816 1759 
z
" transform="scale(0.015625)"/>
      <path id="DejaVuSans-Oblique-62" d="M 3169 2138 
Q 3169 2591 2961 2847 
Q 2753 3103 2388 3103 
Q 2122 3103 1889 2973 
Q 1656 2844 1484 2597 
Q 1303 2338 1198 1995 
Q 1094 1653 1094 1313 
Q 1094 881 1298 636 
Q 1503 391 1863 391 
Q 2134 391 2365 517 
Q 2597 644 2772 891 
Q 2950 1147 3059 1487 
Q 3169 1828 3169 2138 
z
M 1381 2969 
Q 1594 3256 1914 3420 
Q 2234 3584 2584 3584 
Q 3122 3584 3439 3221 
Q 3756 2859 3756 2241 
Q 3756 1734 3570 1259 
Q 3384 784 3041 416 
Q 2816 172 2522 40 
Q 2228 -91 1906 -91 
Q 1566 -91 1316 65 
Q 1066 222 909 531 
L 806 0 
L 231 0 
L 1178 4863 
L 1753 4863 
L 1381 2969 
z
" transform="scale(0.015625)"/>
     </defs>
     <use xlink:href="#DejaVuSans-48" transform="translate(0 0.015625)"/>
     <use xlink:href="#DejaVuSans-e9" transform="translate(75.195312 0.015625)"/>
     <use xlink:href="#DejaVuSans-6c" transform="translate(136.71875 0.015625)"/>
     <use xlink:href="#DejaVuSans-69" transform="translate(164.501953 0.015625)"/>
     <use xlink:href="#DejaVuSans-63" transform="translate(192.285156 0.015625)"/>
     <use xlink:href="#DejaVuSans-65" transform="translate(247.265625 0.015625)"/>
     <use xlink:href="#DejaVuSans-3a" transform="translate(308.789062 0.015625)"/>
     <use xlink:href="#DejaVuSans-20" transform="translate(342.480469 0.015625)"/>
     <use xlink:href="#DejaVuSans-Bold-72" transform="translate(374.267578 0.015625)"/>
     <use xlink:href="#DejaVuSans-28" transform="translate(423.583984 0.015625)"/>
     <use xlink:href="#DejaVuSans-Oblique-74" transform="translate(462.597656 0.015625)"/>
     <use xlink:href="#DejaVuSans-29" transform="translate(501.806641 0.015625)"/>
     <use xlink:href="#DejaVuSans-3d" transform="translate(560.302734 0.015625)"/>
     <use xlink:href="#DejaVuSans-27e8" transform="translate(663.574219 0.015625)"/>
     <use xlink:href="#DejaVuSans-Oblique-61" transform="translate(702.587891 0.015625)"/>
     <use xlink:href="#DejaVuSans-63" transform="translate(763.867188 0.015625)"/>
     <use xlink:href="#DejaVuSans-6f" transform="translate(818.847656 0.015625)"/>
     <use xlink:href="#DejaVuSans-73" transform="translate(880.029297 0.015625)"/>
     <use xlink:href="#DejaVuSans-Oblique-74" transform="translate(948.364583 0.015625)"/>
     <use xlink:href="#DejaVuSans-2c" transform="translate(987.573567 0.015625)"/>
     <use xlink:href="#DejaVuSans-Oblique-61" transform="translate(1038.843098 0.015625)"/>
     <use xlink:href="#DejaVuSans-73" transform="translate(1100.122395 0.015625)"/>
     <use xlink:href="#DejaVuSans-69" transform="translate(1152.222004 0.015625)"/>
     <use xlink:href="#DejaVuSans-6e" transform="translate(1180.005208 0.015625)"/>
     <use xlink:href="#DejaVuSans-Oblique-74" transform="translate(1259.61979 0.015625)"/>
     <use xlink:href="#DejaVuSans-2c" transform="translate(1298.828774 0.015625)"/>
     <use xlink:href="#DejaVuSans-Oblique-62" transform="translate(1350.098306 0.015625)"/>
     <use xlink:href="#DejaVuSans-Oblique-74" transform="translate(1413.574868 0.015625)"/>
     <use xlink:href="#DejaVuSans-27e9" transform="translate(1452.783853 0.015625)"/>
    </g>
   </g>
  </g>
  <g id="text_40">
   <!-- Funciones Vectoriales y Curvas en el Espacio -->
   <g style="fill: #1f2937" transform="translate(316.943248 17.837812) scale(0.14 -0.14)">
    <defs>
     <path id="DejaVuSans-Bold-6e" d="M 4056 2131 
L 4056 0 
L 2931 0 
L 2931 347 
L 2931 1631 
Q 2931 2084 2911 2256 
Q 2891 2428 2841 2509 
Q 2775 2619 2662 2680 
Q 2550 2741 2406 2741 
Q 2056 2741 1856 2470 
Q 1656 2200 1656 1722 
L 1656 0 
L 538 0 
L 538 3500 
L 1656 3500 
L 1656 2988 
Q 1909 3294 2193 3439 
Q 2478 3584 2822 3584 
Q 3428 3584 3742 3212 
Q 4056 2841 4056 2131 
z
" transform="scale(0.015625)"/>
     <path id="DejaVuSans-Bold-6f" d="M 2203 2784 
Q 1831 2784 1636 2517 
Q 1441 2250 1441 1747 
Q 1441 1244 1636 976 
Q 1831 709 2203 709 
Q 2569 709 2762 976 
Q 2956 1244 2956 1747 
Q 2956 2250 2762 2517 
Q 2569 2784 2203 2784 
z
M 2203 3584 
Q 3106 3584 3614 3096 
Q 4122 2609 4122 1747 
Q 4122 884 3614 396 
Q 3106 -91 2203 -91 
Q 1297 -91 786 396 
Q 275 884 275 1747 
Q 275 2609 786 3096 
Q 1297 3584 2203 3584 
z
" transform="scale(0.015625)"/>
     <path id="DejaVuSans-Bold-73" d="M 3272 3391 
L 3272 2541 
Q 2913 2691 2578 2766 
Q 2244 2841 1947 2841 
Q 1628 2841 1473 2761 
Q 1319 2681 1319 2516 
Q 1319 2381 1436 2309 
Q 1553 2238 1856 2203 
L 2053 2175 
Q 2913 2066 3209 1816 
Q 3506 1566 3506 1031 
Q 3506 472 3093 190 
Q 2681 -91 1863 -91 
Q 1516 -91 1145 -36 
Q 775 19 384 128 
L 384 978 
Q 719 816 1070 734 
Q 1422 653 1784 653 
Q 2113 653 2278 743 
Q 2444 834 2444 1013 
Q 2444 1163 2330 1236 
Q 2216 1309 1875 1350 
L 1678 1375 
Q 931 1469 631 1722 
Q 331 1975 331 2491 
Q 331 3047 712 3315 
Q 1094 3584 1881 3584 
Q 2191 3584 2531 3537 
Q 2872 3491 3272 3391 
z
" transform="scale(0.015625)"/>
     <path id="DejaVuSans-Bold-74" d="M 1759 4494 
L 1759 3500 
L 2913 3500 
L 2913 2700 
L 1759 2700 
L 1759 1216 
Q 1759 972 1856 886 
Q 1953 800 2241 800 
L 2816 800 
L 2816 0 
L 1856 0 
Q 1194 0 917 276 
Q 641 553 641 1216 
L 641 2700 
L 84 2700 
L 84 3500 
L 641 3500 
L 641 4494 
L 1759 4494 
z
" transform="scale(0.015625)"/>
     <path id="DejaVuSans-Bold-79" d="M 78 3500 
L 1197 3500 
L 2138 1125 
L 2938 3500 
L 4056 3500 
L 2584 -331 
Q 2363 -916 2067 -1148 
Q 1772 -1381 1288 -1381 
L 641 -1381 
L 641 -647 
L 991 -647 
Q 1275 -647 1404 -556 
Q 1534 -466 1606 -231 
L 1638 -134 
L 78 3500 
z
" transform="scale(0.015625)"/>
     <path id="DejaVuSans-Bold-70" d="M 1656 506 
L 1656 -1331 
L 538 -1331 
L 538 3500 
L 1656 3500 
L 1656 2988 
Q 1888 3294 2169 3439 
Q 2450 3584 2816 3584 
Q 3463 3584 3878 3070 
Q 4294 2556 4294 1747 
Q 4294 938 3878 423 
Q 3463 -91 2816 -91 
Q 2450 -91 2169 54 
Q 1888 200 1656 506 
z
M 2400 2772 
Q 2041 2772 1848 2508 
Q 1656 2244 1656 1747 
Q 1656 1250 1848 986 
Q 2041 722 2400 722 
Q 2759 722 2948 984 
Q 3138 1247 3138 1747 
Q 3138 2247 2948 2509 
Q 2759 2772 2400 2772 
z
" transform="scale(0.015625)"/>
    </defs>
    <use xlink:href="#DejaVuSans-Bold-46"/>
    <use xlink:href="#DejaVuSans-Bold-75" transform="translate(63.310547 0)"/>
    <use xlink:href="#DejaVuSans-Bold-6e" transform="translate(134.501953 0)"/>
    <use xlink:href="#DejaVuSans-Bold-63" transform="translate(205.693359 0)"/>
    <use xlink:href="#DejaVuSans-Bold-69" transform="translate(264.970703 0)"/>
    <use xlink:href="#DejaVuSans-Bold-6f" transform="translate(299.248047 0)"/>
    <use xlink:href="#DejaVuSans-Bold-6e" transform="translate(367.949219 0)"/>
    <use xlink:href="#DejaVuSans-Bold-65" transform="translate(439.140625 0)"/>
    <use xlink:href="#DejaVuSans-Bold-73" transform="translate(506.962891 0)"/>
    <use xlink:href="#DejaVuSans-Bold-20" transform="translate(566.484375 0)"/>
    <use xlink:href="#DejaVuSans-Bold-56" transform="translate(601.298828 0)"/>
    <use xlink:href="#DejaVuSans-Bold-65" transform="translate(673.191406 0)"/>
    <use xlink:href="#DejaVuSans-Bold-63" transform="translate(741.013672 0)"/>
    <use xlink:href="#DejaVuSans-Bold-74" transform="translate(800.291016 0)"/>
    <use xlink:href="#DejaVuSans-Bold-6f" transform="translate(848.09375 0)"/>
    <use xlink:href="#DejaVuSans-Bold-72" transform="translate(916.794922 0)"/>
    <use xlink:href="#DejaVuSans-Bold-69" transform="translate(966.111328 0)"/>
    <use xlink:href="#DejaVuSans-Bold-61" transform="translate(1000.388672 0)"/>
    <use xlink:href="#DejaVuSans-Bold-6c" transform="translate(1067.869141 0)"/>
    <use xlink:href="#DejaVuSans-Bold-65" transform="translate(1102.146484 0)"/>
    <use xlink:href="#DejaVuSans-Bold-73" transform="translate(1169.96875 0)"/>
    <use xlink:href="#DejaVuSans-Bold-20" transform="translate(1229.490234 0)"/>
    <use xlink:href="#DejaVuSans-Bold-79" transform="translate(1264.304688 0)"/>
    <use xlink:href="#DejaVuSans-Bold-20" transform="translate(1329.490234 0)"/>
    <use xlink:href="#DejaVuSans-Bold-43" transform="translate(1364.304688 0)"/>
    <use xlink:href="#DejaVuSans-Bold-75" transform="translate(1437.693359 0)"/>
    <use xlink:href="#DejaVuSans-Bold-72" transform="translate(1508.884766 0)"/>
    <use xlink:href="#DejaVuSans-Bold-76" transform="translate(1558.201172 0)"/>
    <use xlink:href="#DejaVuSans-Bold-61" transform="translate(1623.386719 0)"/>
    <use xlink:href="#DejaVuSans-Bold-73" transform="translate(1690.867188 0)"/>
    <use xlink:href="#DejaVuSans-Bold-20" transform="translate(1750.388672 0)"/>
    <use xlink:href="#DejaVuSans-Bold-65" transform="translate(1785.203125 0)"/>
    <use xlink:href="#DejaVuSans-Bold-6e" transform="translate(1853.025391 0)"/>
    <use xlink:href="#DejaVuSans-Bold-20" transform="translate(1924.216797 0)"/>
    <use xlink:href="#DejaVuSans-Bold-65" transform="translate(1959.03125 0)"/>
    <use xlink:href="#DejaVuSans-Bold-6c" transform="translate(2026.853516 0)"/>
    <use xlink:href="#DejaVuSans-Bold-20" transform="translate(2061.130859 0)"/>
    <use xlink:href="#DejaVuSans-Bold-45" transform="translate(2095.945312 0)"/>
    <use xlink:href="#DejaVuSans-Bold-73" transform="translate(2164.255859 0)"/>
    <use xlink:href="#DejaVuSans-Bold-70" transform="translate(2223.777344 0)"/>
    <use xlink:href="#DejaVuSans-Bold-61" transform="translate(2295.359375 0)"/>
    <use xlink:href="#DejaVuSans-Bold-63" transform="translate(2362.839844 0)"/>
    <use xlink:href="#DejaVuSans-Bold-69" transform="translate(2422.117188 0)"/>
    <use xlink:href="#DejaVuSans-Bold-6f" transform="translate(2456.394531 0)"/>
   </g>
  </g>
 </g>
 <defs>
  <clipPath id="pd28653ff38">
   <rect x="7.2" y="45.217511" width="531.982009" height="531.982009"/>
  </clipPath>
  <clipPath id="pb29661555e">
   <rect x="594.000864" y="45.217511" width="400.6998" height="531.982009"/>
  </clipPath>
 </defs>
</svg>
