<?xml version="1.0" encoding="utf-8" standalone="no"?>
<!DOCTYPE svg PUBLIC "-//W3C//DTD SVG 1.1//EN"
  "http://www.w3.org/Graphics/SVG/1.1/DTD/svg11.dtd">
<svg xmlns:xlink="http://www.w3.org/1999/xlink" width="1016.39952pt" height="656.39952pt" viewBox="0 0 1016.39952 656.39952" xmlns="http://www.w3.org/2000/svg" version="1.1">
 <metadata>
  <rdf:RDF xmlns:dc="http://purl.org/dc/elements/1.1/" xmlns:cc="http://creativecommons.org/ns#" xmlns:rdf="http://www.w3.org/1999/02/22-rdf-syntax-ns#">
   <cc:Work>
    <dc:type rdf:resource="http://purl.org/dc/dcmitype/StillImage"/>
    <dc:date>2026-01-04T22:15:48.557495</dc:date>
    <dc:format>image/svg+xml</dc:format>
    <dc:creator>
     <cc:Agent>
      <dc:title>Repositorio Matemáticas Universitarias</dc:title>
     </cc:Agent>
    </dc:creator>
   </cc:Work>
  </rdf:RDF>
 </metadata>
 <defs>
  <style type="text/css">*{stroke-linejoin: round; stroke-linecap: butt}</style>
 </defs>
 <g id="figure_1">
  <g id="patch_1">
   <path d="M 0 656.39952 
L 1016.39952 656.39952 
L 1016.39952 0 
L 0 0 
z
" style="fill: #ffffff"/>
  </g>
  <g id="patch_2">
   <path d="M 351.213065 359.081527 
L 665.186455 359.081527 
L 665.186455 45.108136 
L 351.213065 45.108136 
z
" style="fill: #ffffff"/>
  </g>
  <g id="pane3d_1">
   <g id="patch_3">
    <path d="M 500.592734 192.889829 
L 657.45908 248.463888 
L 662.061133 134.569773 
L 500.242235 85.091501 
" style="fill: none; opacity: 0.5; stroke: #f2f2f2; stroke-linejoin: miter"/>
   </g>
  </g>
  <g id="pane3d_2">
   <g id="patch_4">
    <path d="M 500.592734 192.889829 
L 365.434177 260.030196 
L 360.70276 144.893469 
L 500.242235 85.091501 
" style="fill: none; opacity: 0.5; stroke: #e6e6e6; stroke-linejoin: miter"/>
   </g>
  </g>
  <g id="pane3d_3">
   <g id="patch_5">
    <path d="M 500.592734 192.889829 
L 365.434177 260.030196 
L 526.296674 325.89575 
L 657.45908 248.463888 
" style="fill: none; opacity: 0.5; stroke: #ececec; stroke-linejoin: miter"/>
   </g>
  </g>
  <g id="grid3d_1">
   <g id="Line3DCollection_1">
    <path d="M 645.345425 255.615197 
L 488.041281 199.124796 
L 487.31364 90.632267 
" style="fill: none; stroke: #e5e7eb; stroke-width: 0.8"/>
    <path d="M 620.490148 270.288535 
L 462.331695 211.8961 
L 460.812596 101.98973 
" style="fill: none; stroke: #e5e7eb; stroke-width: 0.8"/>
    <path d="M 594.760776 285.477896 
L 435.780088 225.085681 
L 433.416855 113.730632 
" style="fill: none; stroke: #e5e7eb; stroke-width: 0.8"/>
    <path d="M 568.110375 301.210988 
L 408.344406 238.714428 
L 405.080329 125.874722 
" style="fill: none; stroke: #e5e7eb; stroke-width: 0.8"/>
    <path d="M 540.488587 317.517539 
L 379.979745 252.804647 
L 375.753712 138.443132 
" style="fill: none; stroke: #e5e7eb; stroke-width: 0.8"/>
   </g>
  </g>
  <g id="grid3d_2">
   <g id="Line3DCollection_2">
    <path d="M 515.427691 89.734656 
L 515.341366 198.114922 
L 380.475815 266.189032 
" style="fill: none; stroke: #e5e7eb; stroke-width: 0.8"/>
    <path d="M 546.430636 99.214217 
L 545.434489 208.776209 
L 411.21981 278.777238 
" style="fill: none; stroke: #e5e7eb; stroke-width: 0.8"/>
    <path d="M 578.305931 108.96051 
L 576.349206 219.728566 
L 442.877491 291.739555 
" style="fill: none; stroke: #e5e7eb; stroke-width: 0.8"/>
    <path d="M 611.090921 118.984955 
L 608.11963 230.984081 
L 475.490202 305.092912 
" style="fill: none; stroke: #e5e7eb; stroke-width: 0.8"/>
    <path d="M 644.825111 129.299631 
L 640.781786 242.555515 
L 509.101821 318.855274 
" style="fill: none; stroke: #e5e7eb; stroke-width: 0.8"/>
   </g>
  </g>
  <g id="grid3d_3">
   <g id="Line3DCollection_3">
    <path d="M 365.434177 260.030196 
L 500.592734 192.889829 
L 657.45908 248.463888 
" style="fill: none; stroke: #e5e7eb; stroke-width: 0.8"/>
    <path d="M 364.666205 241.34197 
L 500.535723 175.355633 
L 658.206327 229.970601 
" style="fill: none; stroke: #e5e7eb; stroke-width: 0.8"/>
    <path d="M 363.890167 222.457464 
L 500.478161 157.651903 
L 658.961315 211.285741 
" style="fill: none; stroke: #e5e7eb; stroke-width: 0.8"/>
    <path d="M 363.105935 203.373569 
L 500.420039 139.776169 
L 659.724165 192.406316 
" style="fill: none; stroke: #e5e7eb; stroke-width: 0.8"/>
    <path d="M 362.31338 184.087112 
L 500.36135 121.725911 
L 660.495001 173.32927 
" style="fill: none; stroke: #e5e7eb; stroke-width: 0.8"/>
    <path d="M 361.512367 164.594849 
L 500.302085 103.498562 
L 661.273947 154.051484 
" style="fill: none; stroke: #e5e7eb; stroke-width: 0.8"/>
    <path d="M 360.70276 144.893469 
L 500.242235 85.091501 
L 662.061133 134.569773 
" style="fill: none; stroke: #e5e7eb; stroke-width: 0.8"/>
   </g>
  </g>
  <g id="axis3d_1">
   <g id="line2d_1">
    <path d="M 657.45908 248.463888 
L 526.296674 325.89575 
" style="fill: none; stroke: #000000; stroke-width: 1.5; stroke-linecap: square"/>
   </g>
   <g id="xtick_1">
    <g id="line2d_2">
     <path d="M 643.998076 255.131343 
L 648.044736 256.584562 
" style="fill: none; stroke: #1f2937; stroke-width: 0.8; stroke-linecap: square"/>
    </g>
    <g id="text_1">
     <!-- −2 -->
     <g style="fill: #1f2937" transform="translate(648.093698 276.83686) scale(0.12 -0.12)">
      <defs>
       <path id="DejaVuSans-2212" d="M 678 2272 
L 4684 2272 
L 4684 1741 
L 678 1741 
L 678 2272 
z
" transform="scale(0.015625)"/>
       <path id="DejaVuSans-32" d="M 1228 531 
L 3431 531 
L 3431 0 
L 469 0 
L 469 531 
Q 828 903 1448 1529 
Q 2069 2156 2228 2338 
Q 2531 2678 2651 2914 
Q 2772 3150 2772 3378 
Q 2772 3750 2511 3984 
Q 2250 4219 1831 4219 
Q 1534 4219 1204 4116 
Q 875 4013 500 3803 
L 500 4441 
Q 881 4594 1212 4672 
Q 1544 4750 1819 4750 
Q 2544 4750 2975 4387 
Q 3406 4025 3406 3419 
Q 3406 3131 3298 2873 
Q 3191 2616 2906 2266 
Q 2828 2175 2409 1742 
Q 1991 1309 1228 531 
z
" transform="scale(0.015625)"/>
      </defs>
      <use xlink:href="#DejaVuSans-2212"/>
      <use xlink:href="#DejaVuSans-32" transform="translate(83.789062 0)"/>
     </g>
    </g>
   </g>
   <g id="xtick_2">
    <g id="line2d_3">
     <path d="M 619.133938 269.78782 
L 623.207293 271.291711 
" style="fill: none; stroke: #1f2937; stroke-width: 0.8; stroke-linecap: square"/>
    </g>
    <g id="text_2">
     <!-- −1 -->
     <g style="fill: #1f2937" transform="translate(623.367565 291.762319) scale(0.12 -0.12)">
      <defs>
       <path id="DejaVuSans-31" d="M 794 531 
L 1825 531 
L 1825 4091 
L 703 3866 
L 703 4441 
L 1819 4666 
L 2450 4666 
L 2450 531 
L 3481 531 
L 3481 0 
L 794 0 
L 794 531 
z
" transform="scale(0.015625)"/>
      </defs>
      <use xlink:href="#DejaVuSans-2212"/>
      <use xlink:href="#DejaVuSans-31" transform="translate(83.789062 0)"/>
     </g>
    </g>
   </g>
   <g id="xtick_3">
    <g id="line2d_4">
     <path d="M 593.395909 284.959422 
L 597.495349 286.516682 
" style="fill: none; stroke: #1f2937; stroke-width: 0.8; stroke-linecap: square"/>
    </g>
    <g id="text_3">
     <!-- 0 -->
     <g style="fill: #1f2937" transform="translate(602.797136 307.21421) scale(0.12 -0.12)">
      <defs>
       <path id="DejaVuSans-30" d="M 2034 4250 
Q 1547 4250 1301 3770 
Q 1056 3291 1056 2328 
Q 1056 1369 1301 889 
Q 1547 409 2034 409 
Q 2525 409 2770 889 
Q 3016 1369 3016 2328 
Q 3016 3291 2770 3770 
Q 2525 4250 2034 4250 
z
M 2034 4750 
Q 2819 4750 3233 4129 
Q 3647 3509 3647 2328 
Q 3647 1150 3233 529 
Q 2819 -91 2034 -91 
Q 1250 -91 836 529 
Q 422 1150 422 2328 
Q 422 3509 836 4129 
Q 1250 4750 2034 4750 
z
" transform="scale(0.015625)"/>
      </defs>
      <use xlink:href="#DejaVuSans-30"/>
     </g>
    </g>
   </g>
   <g id="xtick_4">
    <g id="line2d_5">
     <path d="M 566.737094 300.673794 
L 570.861892 302.287315 
" style="fill: none; stroke: #1f2937; stroke-width: 0.8; stroke-linecap: square"/>
    </g>
    <g id="text_4">
     <!-- 1 -->
     <g style="fill: #1f2937" transform="translate(576.279818 323.220884) scale(0.12 -0.12)">
      <use xlink:href="#DejaVuSans-31"/>
     </g>
    </g>
   </g>
   <g id="xtick_5">
    <g id="line2d_6">
     <path d="M 539.10718 316.960593 
L 543.256478 318.633479 
" style="fill: none; stroke: #1f2937; stroke-width: 0.8; stroke-linecap: square"/>
    </g>
    <g id="text_5">
     <!-- 2 -->
     <g style="fill: #1f2937" transform="translate(548.79302 339.812765) scale(0.12 -0.12)">
      <use xlink:href="#DejaVuSans-32"/>
     </g>
    </g>
   </g>
   <g id="text_6">
    <!-- X -->
    <g style="fill: #1f2937" transform="translate(617.194234 315.763065) scale(0.1 -0.1)">
     <defs>
      <path id="DejaVuSans-58" d="M 403 4666 
L 1081 4666 
L 2241 2931 
L 3406 4666 
L 4084 4666 
L 2584 2425 
L 4184 0 
L 3506 0 
L 2194 1984 
L 872 0 
L 191 0 
L 1856 2491 
L 403 4666 
z
" transform="scale(0.015625)"/>
     </defs>
     <use xlink:href="#DejaVuSans-58"/>
    </g>
   </g>
  </g>
  <g id="axis3d_2">
   <g id="line2d_7">
    <path d="M 365.434177 260.030196 
L 526.296674 325.89575 
" style="fill: none; stroke: #000000; stroke-width: 1.5; stroke-linecap: square"/>
   </g>
   <g id="xtick_6">
    <g id="line2d_8">
     <path d="M 381.64671 265.598017 
L 378.129186 267.373506 
" style="fill: none; stroke: #1f2937; stroke-width: 0.8; stroke-linecap: square"/>
    </g>
    <g id="text_7">
     <!-- −2 -->
     <g style="fill: #1f2937" transform="translate(361.583507 288.443962) scale(0.12 -0.12)">
      <use xlink:href="#DejaVuSans-2212"/>
      <use xlink:href="#DejaVuSans-32" transform="translate(83.789062 0)"/>
     </g>
    </g>
   </g>
   <g id="xtick_7">
    <g id="line2d_9">
     <path d="M 412.386394 278.168795 
L 408.881752 279.996677 
" style="fill: none; stroke: #1f2937; stroke-width: 0.8; stroke-linecap: square"/>
    </g>
    <g id="text_8">
     <!-- −1 -->
     <g style="fill: #1f2937" transform="translate(392.300026 301.274488) scale(0.12 -0.12)">
      <use xlink:href="#DejaVuSans-2212"/>
      <use xlink:href="#DejaVuSans-31" transform="translate(83.789062 0)"/>
     </g>
    </g>
   </g>
   <g id="xtick_8">
    <g id="line2d_10">
     <path d="M 444.038987 291.112902 
L 440.549554 292.995529 
" style="fill: none; stroke: #1f2937; stroke-width: 0.8; stroke-linecap: square"/>
    </g>
    <g id="text_9">
     <!-- 0 -->
     <g style="fill: #1f2937" transform="translate(428.96085 314.487841) scale(0.12 -0.12)">
      <use xlink:href="#DejaVuSans-30"/>
     </g>
    </g>
   </g>
   <g id="xtick_9">
    <g id="line2d_11">
     <path d="M 476.645772 304.447218 
L 473.174067 306.387089 
" style="fill: none; stroke: #1f2937; stroke-width: 0.8; stroke-linecap: square"/>
    </g>
    <g id="text_10">
     <!-- 1 -->
     <g style="fill: #1f2937" transform="translate(461.551991 328.101411) scale(0.12 -0.12)">
      <use xlink:href="#DejaVuSans-31"/>
     </g>
    </g>
   </g>
   <g id="xtick_10">
    <g id="line2d_12">
     <path d="M 510.250556 318.189659 
L 506.799313 320.189424 
" style="fill: none; stroke: #1f2937; stroke-width: 0.8; stroke-linecap: square"/>
    </g>
    <g id="text_11">
     <!-- 2 -->
     <g style="fill: #1f2937" transform="translate(495.145463 342.133663) scale(0.12 -0.12)">
      <use xlink:href="#DejaVuSans-32"/>
     </g>
    </g>
   </g>
   <g id="text_12">
    <!-- Y -->
    <g style="fill: #1f2937" transform="translate(417.766177 324.268393) scale(0.1 -0.1)">
     <defs>
      <path id="DejaVuSans-59" d="M -13 4666 
L 666 4666 
L 1959 2747 
L 3244 4666 
L 3922 4666 
L 2272 2222 
L 2272 0 
L 1638 0 
L 1638 2222 
L -13 4666 
z
" transform="scale(0.015625)"/>
     </defs>
     <use xlink:href="#DejaVuSans-59"/>
    </g>
   </g>
  </g>
  <g id="axis3d_3">
   <g id="line2d_13">
    <path d="M 365.434177 260.030196 
L 360.70276 144.893469 
" style="fill: none; stroke: #000000; stroke-width: 1.5; stroke-linecap: square"/>
   </g>
   <g id="xtick_11">
    <g id="line2d_14">
     <path d="M 366.606956 259.447615 
L 363.083807 261.197748 
" style="fill: none; stroke: #1f2937; stroke-width: 0.8; stroke-linecap: square"/>
    </g>
    <g id="text_13">
     <!-- 0.0 -->
     <g style="fill: #1f2937" transform="translate(335.053586 269.973685) scale(0.12 -0.12)">
      <defs>
       <path id="DejaVuSans-2e" d="M 684 794 
L 1344 794 
L 1344 0 
L 684 0 
L 684 794 
z
" transform="scale(0.015625)"/>
      </defs>
      <use xlink:href="#DejaVuSans-30"/>
      <use xlink:href="#DejaVuSans-2e" transform="translate(63.623047 0)"/>
      <use xlink:href="#DejaVuSans-30" transform="translate(95.410156 0)"/>
     </g>
    </g>
   </g>
   <g id="xtick_12">
    <g id="line2d_15">
     <path d="M 365.845633 240.769169 
L 362.302484 242.489934 
" style="fill: none; stroke: #1f2937; stroke-width: 0.8; stroke-linecap: square"/>
    </g>
    <g id="text_14">
     <!-- 0.5 -->
     <g style="fill: #1f2937" transform="translate(334.1759 251.27161) scale(0.12 -0.12)">
      <defs>
       <path id="DejaVuSans-35" d="M 691 4666 
L 3169 4666 
L 3169 4134 
L 1269 4134 
L 1269 2991 
Q 1406 3038 1543 3061 
Q 1681 3084 1819 3084 
Q 2600 3084 3056 2656 
Q 3513 2228 3513 1497 
Q 3513 744 3044 326 
Q 2575 -91 1722 -91 
Q 1428 -91 1123 -41 
Q 819 9 494 109 
L 494 744 
Q 775 591 1075 516 
Q 1375 441 1709 441 
Q 2250 441 2565 725 
Q 2881 1009 2881 1497 
Q 2881 1984 2565 2268 
Q 2250 2553 1709 2553 
Q 1456 2553 1204 2497 
Q 953 2441 691 2322 
L 691 4666 
z
" transform="scale(0.015625)"/>
      </defs>
      <use xlink:href="#DejaVuSans-30"/>
      <use xlink:href="#DejaVuSans-2e" transform="translate(63.623047 0)"/>
      <use xlink:href="#DejaVuSans-35" transform="translate(95.410156 0)"/>
     </g>
    </g>
   </g>
   <g id="xtick_13">
    <g id="line2d_16">
     <path d="M 365.07632 221.894681 
L 361.512943 223.585362 
" style="fill: none; stroke: #1f2937; stroke-width: 0.8; stroke-linecap: square"/>
    </g>
    <g id="text_15">
     <!-- 1.0 -->
     <g style="fill: #1f2937" transform="translate(333.288987 232.372917) scale(0.12 -0.12)">
      <use xlink:href="#DejaVuSans-31"/>
      <use xlink:href="#DejaVuSans-2e" transform="translate(63.623047 0)"/>
      <use xlink:href="#DejaVuSans-30" transform="translate(95.410156 0)"/>
     </g>
    </g>
   </g>
   <g id="xtick_14">
    <g id="line2d_17">
     <path d="M 364.29889 202.821049 
L 360.715054 204.480912 
" style="fill: none; stroke: #1f2937; stroke-width: 0.8; stroke-linecap: square"/>
    </g>
    <g id="text_16">
     <!-- 1.5 -->
     <g style="fill: #1f2937" transform="translate(332.3927 213.274491) scale(0.12 -0.12)">
      <use xlink:href="#DejaVuSans-31"/>
      <use xlink:href="#DejaVuSans-2e" transform="translate(63.623047 0)"/>
      <use xlink:href="#DejaVuSans-35" transform="translate(95.410156 0)"/>
     </g>
    </g>
   </g>
   <g id="xtick_15">
    <g id="line2d_18">
     <path d="M 363.513213 183.545104 
L 359.908685 185.173398 
" style="fill: none; stroke: #1f2937; stroke-width: 0.8; stroke-linecap: square"/>
    </g>
    <g id="text_17">
     <!-- 2.0 -->
     <g style="fill: #1f2937" transform="translate(331.486891 193.973146) scale(0.12 -0.12)">
      <use xlink:href="#DejaVuSans-32"/>
      <use xlink:href="#DejaVuSans-2e" transform="translate(63.623047 0)"/>
      <use xlink:href="#DejaVuSans-30" transform="translate(95.410156 0)"/>
     </g>
    </g>
   </g>
   <g id="xtick_16">
    <g id="line2d_19">
     <path d="M 362.719158 164.06361 
L 359.093699 165.659565 
" style="fill: none; stroke: #1f2937; stroke-width: 0.8; stroke-linecap: square"/>
    </g>
    <g id="text_18">
     <!-- 2.5 -->
     <g style="fill: #1f2937" transform="translate(330.571406 174.465633) scale(0.12 -0.12)">
      <use xlink:href="#DejaVuSans-32"/>
      <use xlink:href="#DejaVuSans-2e" transform="translate(63.623047 0)"/>
      <use xlink:href="#DejaVuSans-35" transform="translate(95.410156 0)"/>
     </g>
    </g>
   </g>
   <g id="xtick_17">
    <g id="line2d_20">
     <path d="M 361.916591 144.373261 
L 358.269957 145.936087 
" style="fill: none; stroke: #1f2937; stroke-width: 0.8; stroke-linecap: square"/>
    </g>
    <g id="text_19">
     <!-- 3.0 -->
     <g style="fill: #1f2937" transform="translate(329.646089 154.748631) scale(0.12 -0.12)">
      <defs>
       <path id="DejaVuSans-33" d="M 2597 2516 
Q 3050 2419 3304 2112 
Q 3559 1806 3559 1356 
Q 3559 666 3084 287 
Q 2609 -91 1734 -91 
Q 1441 -91 1130 -33 
Q 819 25 488 141 
L 488 750 
Q 750 597 1062 519 
Q 1375 441 1716 441 
Q 2309 441 2620 675 
Q 2931 909 2931 1356 
Q 2931 1769 2642 2001 
Q 2353 2234 1838 2234 
L 1294 2234 
L 1294 2753 
L 1863 2753 
Q 2328 2753 2575 2939 
Q 2822 3125 2822 3475 
Q 2822 3834 2567 4026 
Q 2313 4219 1838 4219 
Q 1578 4219 1281 4162 
Q 984 4106 628 3988 
L 628 4550 
Q 988 4650 1302 4700 
Q 1616 4750 1894 4750 
Q 2613 4750 3031 4423 
Q 3450 4097 3450 3541 
Q 3450 3153 3228 2886 
Q 3006 2619 2597 2516 
z
" transform="scale(0.015625)"/>
      </defs>
      <use xlink:href="#DejaVuSans-33"/>
      <use xlink:href="#DejaVuSans-2e" transform="translate(63.623047 0)"/>
      <use xlink:href="#DejaVuSans-30" transform="translate(95.410156 0)"/>
     </g>
    </g>
   </g>
   <g id="text_20">
    <!-- Z -->
    <g style="fill: #1f2937" transform="translate(313.603106 207.83664) scale(0.1 -0.1)">
     <defs>
      <path id="DejaVuSans-5a" d="M 359 4666 
L 4025 4666 
L 4025 4184 
L 1075 531 
L 4097 531 
L 4097 0 
L 288 0 
L 288 481 
L 3238 4134 
L 359 4134 
L 359 4666 
z
" transform="scale(0.015625)"/>
     </defs>
     <use xlink:href="#DejaVuSans-5a"/>
    </g>
   </g>
  </g>
  <g id="axes_1">
   <g id="line2d_21">
    <path d="M 471.429845 276.334918 
L 474.544619 276.898161 
L 477.824382 277.36725 
L 481.255546 277.737359 
L 484.823715 278.004095 
L 488.513747 278.163532 
L 492.309835 278.212235 
L 496.195583 278.147282 
L 500.154095 277.966288 
L 504.168067 277.667416 
L 508.219876 277.249394 
L 512.291686 276.711521 
L 516.365539 276.053674 
L 520.423463 275.276309 
L 524.447569 274.380456 
L 528.420151 273.367711 
L 532.323787 272.240228 
L 536.141434 271.000701 
L 539.856518 269.652345 
L 543.453025 268.198876 
L 546.915583 266.644484 
L 550.229538 264.993805 
L 553.381028 263.251891 
L 556.357042 261.424175 
L 559.145482 259.516441 
L 561.735211 257.534781 
L 564.116095 255.485565 
L 566.279034 253.375398 
L 568.215997 251.211084 
L 569.920033 248.999588 
L 571.385288 246.747999 
L 572.607008 244.46349 
L 573.581538 242.153285 
L 574.306316 239.824623 
L 574.779857 237.484725 
L 575.001736 235.140758 
L 574.972564 232.799812 
L 574.69396 230.468866 
L 574.16852 228.154761 
L 573.399782 225.86418 
L 572.392189 223.603621 
L 571.15105 221.379378 
L 569.682497 219.197522 
L 567.993444 217.063885 
L 566.091543 214.984043 
L 563.98514 212.963305 
L 561.683233 211.006699 
L 559.195422 209.118963 
L 556.531873 207.304537 
L 553.703268 205.567555 
L 550.720766 203.911838 
L 547.595963 202.340891 
L 544.340845 200.857896 
L 540.967755 199.465713 
L 537.489348 198.166874 
L 533.918559 196.96358 
L 530.268561 195.857705 
L 522.784613 193.944049 
L 515.146332 192.43427 
L 507.464131 191.331441 
L 499.848929 190.633365 
L 492.411075 190.33261 
L 485.259255 190.416554 
L 478.49937 190.867456 
L 472.233373 191.662542 
L 466.55804 192.774123 
L 461.563678 194.169765 
L 459.347983 194.962727 
L 457.332776 195.812503 
L 455.526916 196.713812 
L 453.938596 197.661128 
L 452.575296 198.648699 
L 451.44374 199.670557 
L 450.549853 200.720537 
L 449.898712 201.792295 
L 449.494512 202.879329 
L 449.340518 203.975002 
L 449.439034 205.07256 
L 449.791363 206.165167 
L 450.397778 207.245925 
L 451.257495 208.307903 
L 452.368646 209.344173 
L 453.728268 210.347835 
L 455.332284 211.312055 
L 457.175498 212.230097 
L 459.251596 213.095357 
L 461.553154 213.901399 
L 464.07165 214.641992 
L 466.797486 215.311142 
L 469.720017 215.903133 
L 472.82759 216.412556 
L 476.107587 216.834343 
L 483.129884 217.396648 
L 490.668868 217.557537 
L 498.595198 217.291813 
L 506.770897 216.582279 
L 510.907507 216.05802 
L 515.052326 215.420217 
L 519.187037 214.669144 
L 523.293378 213.805622 
L 527.353238 212.831012 
L 531.348765 211.747207 
L 535.262458 210.556616 
L 539.077271 209.262149 
L 542.776697 207.867196 
L 546.344858 206.375603 
L 549.766588 204.791648 
L 553.027503 203.120009 
L 556.114072 201.365737 
L 559.013676 199.534219 
L 561.714663 197.631147 
L 564.20639 195.662483 
L 566.479263 193.634421 
L 568.524767 191.553352 
L 570.335486 189.425829 
L 571.905117 187.258528 
L 573.228481 185.058215 
L 574.301517 182.831709 
L 575.121283 180.585853 
L 575.685937 178.327477 
L 575.994725 176.063369 
L 576.047951 173.800247 
L 575.846959 171.544728 
L 575.394092 169.303307 
L 574.692664 167.082332 
L 573.746921 164.887978 
L 572.561998 162.726234 
L 571.143882 160.602879 
L 569.499363 158.523468 
L 567.635996 156.493317 
L 565.562051 154.517492 
L 563.286472 152.600796 
L 560.818829 150.747758 
L 558.169273 148.96263 
L 555.348496 147.249371 
L 552.367683 145.611652 
L 552.367683 145.611652 
" clip-path="url(#p8ded01f819)" style="fill: none; stroke: #2563eb; stroke-opacity: 0.8; stroke-width: 2.5; stroke-linecap: square"/>
   </g>
   <g id="Path3DCollection_1">
    <defs>
     <path id="m41aec5501b" d="M 0 5 
C 1.326016 5 2.597899 4.473168 3.535534 3.535534 
C 4.473168 2.597899 5 1.326016 5 0 
C 5 -1.326016 4.473168 -2.597899 3.535534 -3.535534 
C 2.597899 -4.473168 1.326016 -5 0 -5 
C -1.326016 -5 -2.597899 -4.473168 -3.535534 -3.535534 
C -4.473168 -2.597899 -5 -1.326016 -5 0 
C -5 1.326016 -4.473168 2.597899 -3.535534 3.535534 
C -2.597899 4.473168 -1.326016 5 0 5 
z
" style="stroke: #374151"/>
    </defs>
    <g clip-path="url(#p8ded01f819)">
     <use xlink:href="#m41aec5501b" x="450.711349" y="207.673358" style="fill: #374151; stroke: #374151"/>
    </g>
   </g>
   <g id="text_21">
    <!-- P -->
    <g style="fill: #374151" transform="translate(468.535293 195.472938) scale(0.12 -0.12)">
     <defs>
      <path id="DejaVuSans-Bold-50" d="M 588 4666 
L 2584 4666 
Q 3475 4666 3951 4270 
Q 4428 3875 4428 3144 
Q 4428 2409 3951 2014 
Q 3475 1619 2584 1619 
L 1791 1619 
L 1791 0 
L 588 0 
L 588 4666 
z
M 1791 3794 
L 1791 2491 
L 2456 2491 
Q 2806 2491 2997 2661 
Q 3188 2831 3188 3144 
Q 3188 3456 2997 3625 
Q 2806 3794 2456 3794 
L 1791 3794 
z
" transform="scale(0.015625)"/>
     </defs>
     <use xlink:href="#DejaVuSans-Bold-50"/>
    </g>
   </g>
   <g id="text_22">
    <!-- $\mathbf{T}$ -->
    <g style="fill: #dc2626" transform="translate(460.084978 219.074577) scale(0.14 -0.14)">
     <defs>
      <path id="DejaVuSans-Bold-54" d="M 31 4666 
L 4331 4666 
L 4331 3756 
L 2784 3756 
L 2784 0 
L 1581 0 
L 1581 3756 
L 31 3756 
L 31 4666 
z
" transform="scale(0.015625)"/>
     </defs>
     <use xlink:href="#DejaVuSans-Bold-54" transform="translate(0 0.09375)"/>
    </g>
   </g>
   <g id="text_23">
    <!-- $\mathbf{N}$ -->
    <g style="fill: #10b981" transform="translate(500.162755 195.397137) scale(0.14 -0.14)">
     <defs>
      <path id="DejaVuSans-Bold-4e" d="M 588 4666 
L 1931 4666 
L 3628 1466 
L 3628 4666 
L 4769 4666 
L 4769 0 
L 3425 0 
L 1728 3200 
L 1728 0 
L 588 0 
L 588 4666 
z
" transform="scale(0.015625)"/>
     </defs>
     <use xlink:href="#DejaVuSans-Bold-4e" transform="translate(0 0.09375)"/>
    </g>
   </g>
   <g id="text_24">
    <!-- $\mathbf{B}$ -->
    <g style="fill: #3b82f6" transform="translate(450.408268 163.813294) scale(0.14 -0.14)">
     <defs>
      <path id="DejaVuSans-Bold-42" d="M 2456 2859 
Q 2741 2859 2887 2984 
Q 3034 3109 3034 3353 
Q 3034 3594 2887 3720 
Q 2741 3847 2456 3847 
L 1791 3847 
L 1791 2859 
L 2456 2859 
z
M 2497 819 
Q 2859 819 3042 972 
Q 3225 1125 3225 1434 
Q 3225 1738 3044 1889 
Q 2863 2041 2497 2041 
L 1791 2041 
L 1791 819 
L 2497 819 
z
M 3616 2497 
Q 4003 2384 4215 2081 
Q 4428 1778 4428 1338 
Q 4428 663 3972 331 
Q 3516 0 2584 0 
L 588 0 
L 588 4666 
L 2394 4666 
Q 3366 4666 3802 4372 
Q 4238 4078 4238 3431 
Q 4238 3091 4078 2852 
Q 3919 2613 3616 2497 
z
" transform="scale(0.015625)"/>
     </defs>
     <use xlink:href="#DejaVuSans-Bold-42" transform="translate(0 0.09375)"/>
    </g>
   </g>
   <g id="text_25">
    <!-- Plano -->
    <g style="fill: #f59e0b" transform="translate(398.954181 191.392478) scale(0.09 -0.09)">
     <defs>
      <path id="DejaVuSans-50" d="M 1259 4147 
L 1259 2394 
L 2053 2394 
Q 2494 2394 2734 2622 
Q 2975 2850 2975 3272 
Q 2975 3691 2734 3919 
Q 2494 4147 2053 4147 
L 1259 4147 
z
M 628 4666 
L 2053 4666 
Q 2838 4666 3239 4311 
Q 3641 3956 3641 3272 
Q 3641 2581 3239 2228 
Q 2838 1875 2053 1875 
L 1259 1875 
L 1259 0 
L 628 0 
L 628 4666 
z
" transform="scale(0.015625)"/>
      <path id="DejaVuSans-6c" d="M 603 4863 
L 1178 4863 
L 1178 0 
L 603 0 
L 603 4863 
z
" transform="scale(0.015625)"/>
      <path id="DejaVuSans-61" d="M 2194 1759 
Q 1497 1759 1228 1600 
Q 959 1441 959 1056 
Q 959 750 1161 570 
Q 1363 391 1709 391 
Q 2188 391 2477 730 
Q 2766 1069 2766 1631 
L 2766 1759 
L 2194 1759 
z
M 3341 1997 
L 3341 0 
L 2766 0 
L 2766 531 
Q 2569 213 2275 61 
Q 1981 -91 1556 -91 
Q 1019 -91 701 211 
Q 384 513 384 1019 
Q 384 1609 779 1909 
Q 1175 2209 1959 2209 
L 2766 2209 
L 2766 2266 
Q 2766 2663 2505 2880 
Q 2244 3097 1772 3097 
Q 1472 3097 1187 3025 
Q 903 2953 641 2809 
L 641 3341 
Q 956 3463 1253 3523 
Q 1550 3584 1831 3584 
Q 2591 3584 2966 3190 
Q 3341 2797 3341 1997 
z
" transform="scale(0.015625)"/>
      <path id="DejaVuSans-6e" d="M 3513 2113 
L 3513 0 
L 2938 0 
L 2938 2094 
Q 2938 2591 2744 2837 
Q 2550 3084 2163 3084 
Q 1697 3084 1428 2787 
Q 1159 2491 1159 1978 
L 1159 0 
L 581 0 
L 581 3500 
L 1159 3500 
L 1159 2956 
Q 1366 3272 1645 3428 
Q 1925 3584 2291 3584 
Q 2894 3584 3203 3211 
Q 3513 2838 3513 2113 
z
" transform="scale(0.015625)"/>
      <path id="DejaVuSans-6f" d="M 1959 3097 
Q 1497 3097 1228 2736 
Q 959 2375 959 1747 
Q 959 1119 1226 758 
Q 1494 397 1959 397 
Q 2419 397 2687 759 
Q 2956 1122 2956 1747 
Q 2956 2369 2687 2733 
Q 2419 3097 1959 3097 
z
M 1959 3584 
Q 2709 3584 3137 3096 
Q 3566 2609 3566 1747 
Q 3566 888 3137 398 
Q 2709 -91 1959 -91 
Q 1206 -91 779 398 
Q 353 888 353 1747 
Q 353 2609 779 3096 
Q 1206 3584 1959 3584 
z
" transform="scale(0.015625)"/>
     </defs>
     <use xlink:href="#DejaVuSans-50"/>
     <use xlink:href="#DejaVuSans-6c" transform="translate(60.302734 0)"/>
     <use xlink:href="#DejaVuSans-61" transform="translate(88.085938 0)"/>
     <use xlink:href="#DejaVuSans-6e" transform="translate(149.365234 0)"/>
     <use xlink:href="#DejaVuSans-6f" transform="translate(212.744141 0)"/>
    </g>
    <!-- osculador -->
    <g style="fill: #f59e0b" transform="translate(389.388868 201.470509) scale(0.09 -0.09)">
     <defs>
      <path id="DejaVuSans-73" d="M 2834 3397 
L 2834 2853 
Q 2591 2978 2328 3040 
Q 2066 3103 1784 3103 
Q 1356 3103 1142 2972 
Q 928 2841 928 2578 
Q 928 2378 1081 2264 
Q 1234 2150 1697 2047 
L 1894 2003 
Q 2506 1872 2764 1633 
Q 3022 1394 3022 966 
Q 3022 478 2636 193 
Q 2250 -91 1575 -91 
Q 1294 -91 989 -36 
Q 684 19 347 128 
L 347 722 
Q 666 556 975 473 
Q 1284 391 1588 391 
Q 1994 391 2212 530 
Q 2431 669 2431 922 
Q 2431 1156 2273 1281 
Q 2116 1406 1581 1522 
L 1381 1569 
Q 847 1681 609 1914 
Q 372 2147 372 2553 
Q 372 3047 722 3315 
Q 1072 3584 1716 3584 
Q 2034 3584 2315 3537 
Q 2597 3491 2834 3397 
z
" transform="scale(0.015625)"/>
      <path id="DejaVuSans-63" d="M 3122 3366 
L 3122 2828 
Q 2878 2963 2633 3030 
Q 2388 3097 2138 3097 
Q 1578 3097 1268 2742 
Q 959 2388 959 1747 
Q 959 1106 1268 751 
Q 1578 397 2138 397 
Q 2388 397 2633 464 
Q 2878 531 3122 666 
L 3122 134 
Q 2881 22 2623 -34 
Q 2366 -91 2075 -91 
Q 1284 -91 818 406 
Q 353 903 353 1747 
Q 353 2603 823 3093 
Q 1294 3584 2113 3584 
Q 2378 3584 2631 3529 
Q 2884 3475 3122 3366 
z
" transform="scale(0.015625)"/>
      <path id="DejaVuSans-75" d="M 544 1381 
L 544 3500 
L 1119 3500 
L 1119 1403 
Q 1119 906 1312 657 
Q 1506 409 1894 409 
Q 2359 409 2629 706 
Q 2900 1003 2900 1516 
L 2900 3500 
L 3475 3500 
L 3475 0 
L 2900 0 
L 2900 538 
Q 2691 219 2414 64 
Q 2138 -91 1772 -91 
Q 1169 -91 856 284 
Q 544 659 544 1381 
z
M 1991 3584 
L 1991 3584 
z
" transform="scale(0.015625)"/>
      <path id="DejaVuSans-64" d="M 2906 2969 
L 2906 4863 
L 3481 4863 
L 3481 0 
L 2906 0 
L 2906 525 
Q 2725 213 2448 61 
Q 2172 -91 1784 -91 
Q 1150 -91 751 415 
Q 353 922 353 1747 
Q 353 2572 751 3078 
Q 1150 3584 1784 3584 
Q 2172 3584 2448 3432 
Q 2725 3281 2906 2969 
z
M 947 1747 
Q 947 1113 1208 752 
Q 1469 391 1925 391 
Q 2381 391 2643 752 
Q 2906 1113 2906 1747 
Q 2906 2381 2643 2742 
Q 2381 3103 1925 3103 
Q 1469 3103 1208 2742 
Q 947 2381 947 1747 
z
" transform="scale(0.015625)"/>
      <path id="DejaVuSans-72" d="M 2631 2963 
Q 2534 3019 2420 3045 
Q 2306 3072 2169 3072 
Q 1681 3072 1420 2755 
Q 1159 2438 1159 1844 
L 1159 0 
L 581 0 
L 581 3500 
L 1159 3500 
L 1159 2956 
Q 1341 3275 1631 3429 
Q 1922 3584 2338 3584 
Q 2397 3584 2469 3576 
Q 2541 3569 2628 3553 
L 2631 2963 
z
" transform="scale(0.015625)"/>
     </defs>
     <use xlink:href="#DejaVuSans-6f"/>
     <use xlink:href="#DejaVuSans-73" transform="translate(61.181641 0)"/>
     <use xlink:href="#DejaVuSans-63" transform="translate(113.28125 0)"/>
     <use xlink:href="#DejaVuSans-75" transform="translate(168.261719 0)"/>
     <use xlink:href="#DejaVuSans-6c" transform="translate(231.640625 0)"/>
     <use xlink:href="#DejaVuSans-61" transform="translate(259.423828 0)"/>
     <use xlink:href="#DejaVuSans-64" transform="translate(320.703125 0)"/>
     <use xlink:href="#DejaVuSans-6f" transform="translate(384.179688 0)"/>
     <use xlink:href="#DejaVuSans-72" transform="translate(445.361328 0)"/>
    </g>
   </g>
   <g id="text_26">
    <!-- Marco de Frenet-Serret en una Hélice -->
    <g style="fill: #1f2937" transform="translate(391.857573 35.108136) scale(0.11 -0.11)">
     <defs>
      <path id="DejaVuSans-Bold-4d" d="M 588 4666 
L 2119 4666 
L 3181 2169 
L 4250 4666 
L 5778 4666 
L 5778 0 
L 4641 0 
L 4641 3413 
L 3566 897 
L 2803 897 
L 1728 3413 
L 1728 0 
L 588 0 
L 588 4666 
z
" transform="scale(0.015625)"/>
      <path id="DejaVuSans-Bold-61" d="M 2106 1575 
Q 1756 1575 1579 1456 
Q 1403 1338 1403 1106 
Q 1403 894 1545 773 
Q 1688 653 1941 653 
Q 2256 653 2472 879 
Q 2688 1106 2688 1447 
L 2688 1575 
L 2106 1575 
z
M 3816 1997 
L 3816 0 
L 2688 0 
L 2688 519 
Q 2463 200 2181 54 
Q 1900 -91 1497 -91 
Q 953 -91 614 226 
Q 275 544 275 1050 
Q 275 1666 698 1953 
Q 1122 2241 2028 2241 
L 2688 2241 
L 2688 2328 
Q 2688 2594 2478 2717 
Q 2269 2841 1825 2841 
Q 1466 2841 1156 2769 
Q 847 2697 581 2553 
L 581 3406 
Q 941 3494 1303 3539 
Q 1666 3584 2028 3584 
Q 2975 3584 3395 3211 
Q 3816 2838 3816 1997 
z
" transform="scale(0.015625)"/>
      <path id="DejaVuSans-Bold-72" d="M 3138 2547 
Q 2991 2616 2845 2648 
Q 2700 2681 2553 2681 
Q 2122 2681 1889 2404 
Q 1656 2128 1656 1613 
L 1656 0 
L 538 0 
L 538 3500 
L 1656 3500 
L 1656 2925 
Q 1872 3269 2151 3426 
Q 2431 3584 2822 3584 
Q 2878 3584 2943 3579 
Q 3009 3575 3134 3559 
L 3138 2547 
z
" transform="scale(0.015625)"/>
      <path id="DejaVuSans-Bold-63" d="M 3366 3391 
L 3366 2478 
Q 3138 2634 2908 2709 
Q 2678 2784 2431 2784 
Q 1963 2784 1702 2511 
Q 1441 2238 1441 1747 
Q 1441 1256 1702 982 
Q 1963 709 2431 709 
Q 2694 709 2930 787 
Q 3166 866 3366 1019 
L 3366 103 
Q 3103 6 2833 -42 
Q 2563 -91 2291 -91 
Q 1344 -91 809 395 
Q 275 881 275 1747 
Q 275 2613 809 3098 
Q 1344 3584 2291 3584 
Q 2566 3584 2833 3536 
Q 3100 3488 3366 3391 
z
" transform="scale(0.015625)"/>
      <path id="DejaVuSans-Bold-6f" d="M 2203 2784 
Q 1831 2784 1636 2517 
Q 1441 2250 1441 1747 
Q 1441 1244 1636 976 
Q 1831 709 2203 709 
Q 2569 709 2762 976 
Q 2956 1244 2956 1747 
Q 2956 2250 2762 2517 
Q 2569 2784 2203 2784 
z
M 2203 3584 
Q 3106 3584 3614 3096 
Q 4122 2609 4122 1747 
Q 4122 884 3614 396 
Q 3106 -91 2203 -91 
Q 1297 -91 786 396 
Q 275 884 275 1747 
Q 275 2609 786 3096 
Q 1297 3584 2203 3584 
z
" transform="scale(0.015625)"/>
      <path id="DejaVuSans-Bold-20" transform="scale(0.015625)"/>
      <path id="DejaVuSans-Bold-64" d="M 2919 2988 
L 2919 4863 
L 4044 4863 
L 4044 0 
L 2919 0 
L 2919 506 
Q 2688 197 2409 53 
Q 2131 -91 1766 -91 
Q 1119 -91 703 423 
Q 288 938 288 1747 
Q 288 2556 703 3070 
Q 1119 3584 1766 3584 
Q 2128 3584 2408 3439 
Q 2688 3294 2919 2988 
z
M 2181 722 
Q 2541 722 2730 984 
Q 2919 1247 2919 1747 
Q 2919 2247 2730 2509 
Q 2541 2772 2181 2772 
Q 1825 2772 1636 2509 
Q 1447 2247 1447 1747 
Q 1447 1247 1636 984 
Q 1825 722 2181 722 
z
" transform="scale(0.015625)"/>
      <path id="DejaVuSans-Bold-65" d="M 4031 1759 
L 4031 1441 
L 1416 1441 
Q 1456 1047 1700 850 
Q 1944 653 2381 653 
Q 2734 653 3104 758 
Q 3475 863 3866 1075 
L 3866 213 
Q 3469 63 3072 -14 
Q 2675 -91 2278 -91 
Q 1328 -91 801 392 
Q 275 875 275 1747 
Q 275 2603 792 3093 
Q 1309 3584 2216 3584 
Q 3041 3584 3536 3087 
Q 4031 2591 4031 1759 
z
M 2881 2131 
Q 2881 2450 2695 2645 
Q 2509 2841 2209 2841 
Q 1884 2841 1681 2658 
Q 1478 2475 1428 2131 
L 2881 2131 
z
" transform="scale(0.015625)"/>
      <path id="DejaVuSans-Bold-46" d="M 588 4666 
L 3834 4666 
L 3834 3756 
L 1791 3756 
L 1791 2888 
L 3713 2888 
L 3713 1978 
L 1791 1978 
L 1791 0 
L 588 0 
L 588 4666 
z
" transform="scale(0.015625)"/>
      <path id="DejaVuSans-Bold-6e" d="M 4056 2131 
L 4056 0 
L 2931 0 
L 2931 347 
L 2931 1631 
Q 2931 2084 2911 2256 
Q 2891 2428 2841 2509 
Q 2775 2619 2662 2680 
Q 2550 2741 2406 2741 
Q 2056 2741 1856 2470 
Q 1656 2200 1656 1722 
L 1656 0 
L 538 0 
L 538 3500 
L 1656 3500 
L 1656 2988 
Q 1909 3294 2193 3439 
Q 2478 3584 2822 3584 
Q 3428 3584 3742 3212 
Q 4056 2841 4056 2131 
z
" transform="scale(0.015625)"/>
      <path id="DejaVuSans-Bold-74" d="M 1759 4494 
L 1759 3500 
L 2913 3500 
L 2913 2700 
L 1759 2700 
L 1759 1216 
Q 1759 972 1856 886 
Q 1953 800 2241 800 
L 2816 800 
L 2816 0 
L 1856 0 
Q 1194 0 917 276 
Q 641 553 641 1216 
L 641 2700 
L 84 2700 
L 84 3500 
L 641 3500 
L 641 4494 
L 1759 4494 
z
" transform="scale(0.015625)"/>
      <path id="DejaVuSans-Bold-2d" d="M 347 2297 
L 2309 2297 
L 2309 1388 
L 347 1388 
L 347 2297 
z
" transform="scale(0.015625)"/>
      <path id="DejaVuSans-Bold-53" d="M 3834 4519 
L 3834 3531 
Q 3450 3703 3084 3790 
Q 2719 3878 2394 3878 
Q 1963 3878 1756 3759 
Q 1550 3641 1550 3391 
Q 1550 3203 1689 3098 
Q 1828 2994 2194 2919 
L 2706 2816 
Q 3484 2659 3812 2340 
Q 4141 2022 4141 1434 
Q 4141 663 3683 286 
Q 3225 -91 2284 -91 
Q 1841 -91 1394 -6 
Q 947 78 500 244 
L 500 1259 
Q 947 1022 1364 901 
Q 1781 781 2169 781 
Q 2563 781 2772 912 
Q 2981 1044 2981 1288 
Q 2981 1506 2839 1625 
Q 2697 1744 2272 1838 
L 1806 1941 
Q 1106 2091 782 2419 
Q 459 2747 459 3303 
Q 459 4000 909 4375 
Q 1359 4750 2203 4750 
Q 2588 4750 2994 4692 
Q 3400 4634 3834 4519 
z
" transform="scale(0.015625)"/>
      <path id="DejaVuSans-Bold-75" d="M 500 1363 
L 500 3500 
L 1625 3500 
L 1625 3150 
Q 1625 2866 1622 2436 
Q 1619 2006 1619 1863 
Q 1619 1441 1641 1255 
Q 1663 1069 1716 984 
Q 1784 875 1895 815 
Q 2006 756 2150 756 
Q 2500 756 2700 1025 
Q 2900 1294 2900 1772 
L 2900 3500 
L 4019 3500 
L 4019 0 
L 2900 0 
L 2900 506 
Q 2647 200 2364 54 
Q 2081 -91 1741 -91 
Q 1134 -91 817 281 
Q 500 653 500 1363 
z
" transform="scale(0.015625)"/>
      <path id="DejaVuSans-Bold-48" d="M 588 4666 
L 1791 4666 
L 1791 2888 
L 3566 2888 
L 3566 4666 
L 4769 4666 
L 4769 0 
L 3566 0 
L 3566 1978 
L 1791 1978 
L 1791 0 
L 588 0 
L 588 4666 
z
" transform="scale(0.015625)"/>
      <path id="DejaVuSans-Bold-e9" d="M 4031 1759 
L 4031 1441 
L 1416 1441 
Q 1456 1047 1700 850 
Q 1944 653 2381 653 
Q 2734 653 3104 758 
Q 3475 863 3866 1075 
L 3866 213 
Q 3469 63 3072 -14 
Q 2675 -91 2278 -91 
Q 1328 -91 801 392 
Q 275 875 275 1747 
Q 275 2603 792 3093 
Q 1309 3584 2216 3584 
Q 3041 3584 3536 3087 
Q 4031 2591 4031 1759 
z
M 2881 2131 
Q 2881 2450 2695 2645 
Q 2509 2841 2209 2841 
Q 1884 2841 1681 2658 
Q 1478 2475 1428 2131 
L 2881 2131 
z
M 2702 5119 
L 3586 5119 
L 2433 3944 
L 1821 3944 
L 2702 5119 
z
" transform="scale(0.015625)"/>
      <path id="DejaVuSans-Bold-6c" d="M 538 4863 
L 1656 4863 
L 1656 0 
L 538 0 
L 538 4863 
z
" transform="scale(0.015625)"/>
      <path id="DejaVuSans-Bold-69" d="M 538 3500 
L 1656 3500 
L 1656 0 
L 538 0 
L 538 3500 
z
M 538 4863 
L 1656 4863 
L 1656 3950 
L 538 3950 
L 538 4863 
z
" transform="scale(0.015625)"/>
     </defs>
     <use xlink:href="#DejaVuSans-Bold-4d"/>
     <use xlink:href="#DejaVuSans-Bold-61" transform="translate(99.511719 0)"/>
     <use xlink:href="#DejaVuSans-Bold-72" transform="translate(166.992188 0)"/>
     <use xlink:href="#DejaVuSans-Bold-63" transform="translate(216.308594 0)"/>
     <use xlink:href="#DejaVuSans-Bold-6f" transform="translate(275.585938 0)"/>
     <use xlink:href="#DejaVuSans-Bold-20" transform="translate(344.287109 0)"/>
     <use xlink:href="#DejaVuSans-Bold-64" transform="translate(379.101562 0)"/>
     <use xlink:href="#DejaVuSans-Bold-65" transform="translate(450.683594 0)"/>
     <use xlink:href="#DejaVuSans-Bold-20" transform="translate(518.505859 0)"/>
     <use xlink:href="#DejaVuSans-Bold-46" transform="translate(553.320312 0)"/>
     <use xlink:href="#DejaVuSans-Bold-72" transform="translate(615.255859 0)"/>
     <use xlink:href="#DejaVuSans-Bold-65" transform="translate(664.572266 0)"/>
     <use xlink:href="#DejaVuSans-Bold-6e" transform="translate(732.394531 0)"/>
     <use xlink:href="#DejaVuSans-Bold-65" transform="translate(803.585938 0)"/>
     <use xlink:href="#DejaVuSans-Bold-74" transform="translate(871.408203 0)"/>
     <use xlink:href="#DejaVuSans-Bold-2d" transform="translate(919.210938 0)"/>
     <use xlink:href="#DejaVuSans-Bold-53" transform="translate(960.714844 0)"/>
     <use xlink:href="#DejaVuSans-Bold-65" transform="translate(1032.736328 0)"/>
     <use xlink:href="#DejaVuSans-Bold-72" transform="translate(1100.558594 0)"/>
     <use xlink:href="#DejaVuSans-Bold-72" transform="translate(1149.875 0)"/>
     <use xlink:href="#DejaVuSans-Bold-65" transform="translate(1199.191406 0)"/>
     <use xlink:href="#DejaVuSans-Bold-74" transform="translate(1267.013672 0)"/>
     <use xlink:href="#DejaVuSans-Bold-20" transform="translate(1314.816406 0)"/>
     <use xlink:href="#DejaVuSans-Bold-65" transform="translate(1349.630859 0)"/>
     <use xlink:href="#DejaVuSans-Bold-6e" transform="translate(1417.453125 0)"/>
     <use xlink:href="#DejaVuSans-Bold-20" transform="translate(1488.644531 0)"/>
     <use xlink:href="#DejaVuSans-Bold-75" transform="translate(1523.458984 0)"/>
     <use xlink:href="#DejaVuSans-Bold-6e" transform="translate(1594.650391 0)"/>
     <use xlink:href="#DejaVuSans-Bold-61" transform="translate(1665.841797 0)"/>
     <use xlink:href="#DejaVuSans-Bold-20" transform="translate(1733.322266 0)"/>
     <use xlink:href="#DejaVuSans-Bold-48" transform="translate(1768.136719 0)"/>
     <use xlink:href="#DejaVuSans-Bold-e9" transform="translate(1851.828125 0)"/>
     <use xlink:href="#DejaVuSans-Bold-6c" transform="translate(1919.650391 0)"/>
     <use xlink:href="#DejaVuSans-Bold-69" transform="translate(1953.927734 0)"/>
     <use xlink:href="#DejaVuSans-Bold-63" transform="translate(1988.205078 0)"/>
     <use xlink:href="#DejaVuSans-Bold-65" transform="translate(2047.482422 0)"/>
    </g>
   </g>
   <g id="Line3DCollection_4">
    <path d="M 491.977683 203.307026 
L 450.711349 207.673358 
" clip-path="url(#p8ded01f819)" style="fill: none; stroke: #10b981; stroke-width: 3"/>
    <path d="M 491.977683 203.307026 
L 486.037311 205.419019 
" clip-path="url(#p8ded01f819)" style="fill: none; stroke: #10b981; stroke-width: 3"/>
    <path d="M 491.977683 203.307026 
L 486.015749 202.453187 
" clip-path="url(#p8ded01f819)" style="fill: none; stroke: #10b981; stroke-width: 3"/>
   </g>
   <g id="Line3DCollection_5">
    <path d="M 448.589945 166.684764 
L 450.711349 207.673358 
" clip-path="url(#p8ded01f819)" style="fill: none; stroke: #3b82f6; stroke-width: 3"/>
    <path d="M 448.589945 166.684764 
L 448.562283 172.258556 
" clip-path="url(#p8ded01f819)" style="fill: none; stroke: #3b82f6; stroke-width: 3"/>
    <path d="M 448.589945 166.684764 
L 449.236558 173.058807 
" clip-path="url(#p8ded01f819)" style="fill: none; stroke: #3b82f6; stroke-width: 3"/>
   </g>
   <g id="Poly3DCollection_1">
    <defs>
     <path id="me30521cf3e" d="M 491.430249 -443.307581 
L 423.83689 -436.068328 
L 411.14438 -453.991452 
L 476.371467 -460.812044 
z
" style="stroke: #f59e0b; stroke-opacity: 0.2"/>
    </defs>
    <g clip-path="url(#p8ded01f819)">
     <use xlink:href="#me30521cf3e" x="0" y="656.39952" style="fill: #f59e0b; fill-opacity: 0.2; stroke: #f59e0b; stroke-opacity: 0.2"/>
    </g>
   </g>
   <g id="Line3DCollection_6">
    <path d="M 459.595245 219.004982 
L 450.711349 207.673358 
" clip-path="url(#p8ded01f819)" style="fill: none; stroke: #dc2626; stroke-width: 3"/>
    <path d="M 459.595245 219.004982 
L 458.363176 218.93933 
" clip-path="url(#p8ded01f819)" style="fill: none; stroke: #dc2626; stroke-width: 3"/>
    <path d="M 459.595245 219.004982 
L 458.200318 215.719025 
" clip-path="url(#p8ded01f819)" style="fill: none; stroke: #dc2626; stroke-width: 3"/>
   </g>
  </g>
  <g id="axes_2">
   <g id="patch_6">
    <path d="M 20.415593 480.136925 
L 434.504167 480.136925 
L 434.504167 414.927067 
L 20.415593 414.927067 
z
" clip-path="url(#p7ed2ecbfd8)" style="fill: #fef2f2; stroke: #dc2626; stroke-width: 2; stroke-linejoin: miter"/>
   </g>
   <g id="patch_7">
    <path d="M 20.415593 557.422683 
L 434.504167 557.422683 
L 434.504167 489.797645 
L 20.415593 489.797645 
z
" clip-path="url(#p7ed2ecbfd8)" style="fill: #f0fdf4; stroke: #10b981; stroke-width: 2; stroke-linejoin: miter"/>
   </g>
   <g id="patch_8">
    <path d="M 20.415593 637.12362 
L 434.504167 637.12362 
L 434.504167 569.498582 
L 20.415593 569.498582 
z
" clip-path="url(#p7ed2ecbfd8)" style="fill: #eff6ff; stroke: #3b82f6; stroke-width: 2; stroke-linejoin: miter"/>
   </g>
   <g id="text_27">
    <!-- VECTOR TANGENTE UNITARIO -->
    <g style="fill: #dc2626" transform="translate(144.945817 427.002966) scale(0.1 -0.1)">
     <defs>
      <path id="DejaVuSans-Bold-56" d="M 31 4666 
L 1241 4666 
L 2478 1222 
L 3713 4666 
L 4922 4666 
L 3194 0 
L 1759 0 
L 31 4666 
z
" transform="scale(0.015625)"/>
      <path id="DejaVuSans-Bold-45" d="M 588 4666 
L 3834 4666 
L 3834 3756 
L 1791 3756 
L 1791 2888 
L 3713 2888 
L 3713 1978 
L 1791 1978 
L 1791 909 
L 3903 909 
L 3903 0 
L 588 0 
L 588 4666 
z
" transform="scale(0.015625)"/>
      <path id="DejaVuSans-Bold-43" d="M 4288 256 
Q 3956 84 3597 -3 
Q 3238 -91 2847 -91 
Q 1681 -91 1000 561 
Q 319 1213 319 2328 
Q 319 3447 1000 4098 
Q 1681 4750 2847 4750 
Q 3238 4750 3597 4662 
Q 3956 4575 4288 4403 
L 4288 3438 
Q 3953 3666 3628 3772 
Q 3303 3878 2944 3878 
Q 2300 3878 1931 3465 
Q 1563 3053 1563 2328 
Q 1563 1606 1931 1193 
Q 2300 781 2944 781 
Q 3303 781 3628 887 
Q 3953 994 4288 1222 
L 4288 256 
z
" transform="scale(0.015625)"/>
      <path id="DejaVuSans-Bold-4f" d="M 2719 3878 
Q 2169 3878 1866 3472 
Q 1563 3066 1563 2328 
Q 1563 1594 1866 1187 
Q 2169 781 2719 781 
Q 3272 781 3575 1187 
Q 3878 1594 3878 2328 
Q 3878 3066 3575 3472 
Q 3272 3878 2719 3878 
z
M 2719 4750 
Q 3844 4750 4481 4106 
Q 5119 3463 5119 2328 
Q 5119 1197 4481 553 
Q 3844 -91 2719 -91 
Q 1597 -91 958 553 
Q 319 1197 319 2328 
Q 319 3463 958 4106 
Q 1597 4750 2719 4750 
z
" transform="scale(0.015625)"/>
      <path id="DejaVuSans-Bold-52" d="M 2297 2597 
Q 2675 2597 2839 2737 
Q 3003 2878 3003 3200 
Q 3003 3519 2839 3656 
Q 2675 3794 2297 3794 
L 1791 3794 
L 1791 2597 
L 2297 2597 
z
M 1791 1766 
L 1791 0 
L 588 0 
L 588 4666 
L 2425 4666 
Q 3347 4666 3776 4356 
Q 4206 4047 4206 3378 
Q 4206 2916 3982 2619 
Q 3759 2322 3309 2181 
Q 3556 2125 3751 1926 
Q 3947 1728 4147 1325 
L 4800 0 
L 3519 0 
L 2950 1159 
Q 2778 1509 2601 1637 
Q 2425 1766 2131 1766 
L 1791 1766 
z
" transform="scale(0.015625)"/>
      <path id="DejaVuSans-Bold-41" d="M 3419 850 
L 1538 850 
L 1241 0 
L 31 0 
L 1759 4666 
L 3194 4666 
L 4922 0 
L 3713 0 
L 3419 850 
z
M 1838 1716 
L 3116 1716 
L 2478 3572 
L 1838 1716 
z
" transform="scale(0.015625)"/>
      <path id="DejaVuSans-Bold-47" d="M 4781 347 
Q 4331 128 3847 18 
Q 3363 -91 2847 -91 
Q 1681 -91 1000 561 
Q 319 1213 319 2328 
Q 319 3456 1012 4103 
Q 1706 4750 2913 4750 
Q 3378 4750 3804 4662 
Q 4231 4575 4609 4403 
L 4609 3438 
Q 4219 3659 3833 3768 
Q 3447 3878 3059 3878 
Q 2341 3878 1952 3476 
Q 1563 3075 1563 2328 
Q 1563 1588 1938 1184 
Q 2313 781 3003 781 
Q 3191 781 3352 804 
Q 3513 828 3641 878 
L 3641 1784 
L 2906 1784 
L 2906 2591 
L 4781 2591 
L 4781 347 
z
" transform="scale(0.015625)"/>
      <path id="DejaVuSans-Bold-55" d="M 588 4666 
L 1791 4666 
L 1791 1869 
Q 1791 1291 1980 1042 
Q 2169 794 2597 794 
Q 3028 794 3217 1042 
Q 3406 1291 3406 1869 
L 3406 4666 
L 4609 4666 
L 4609 1869 
Q 4609 878 4112 393 
Q 3616 -91 2597 -91 
Q 1581 -91 1084 393 
Q 588 878 588 1869 
L 588 4666 
z
" transform="scale(0.015625)"/>
      <path id="DejaVuSans-Bold-49" d="M 588 4666 
L 1791 4666 
L 1791 0 
L 588 0 
L 588 4666 
z
" transform="scale(0.015625)"/>
     </defs>
     <use xlink:href="#DejaVuSans-Bold-56"/>
     <use xlink:href="#DejaVuSans-Bold-45" transform="translate(77.392578 0)"/>
     <use xlink:href="#DejaVuSans-Bold-43" transform="translate(145.703125 0)"/>
     <use xlink:href="#DejaVuSans-Bold-54" transform="translate(219.091797 0)"/>
     <use xlink:href="#DejaVuSans-Bold-4f" transform="translate(287.304688 0)"/>
     <use xlink:href="#DejaVuSans-Bold-52" transform="translate(372.314453 0)"/>
     <use xlink:href="#DejaVuSans-Bold-20" transform="translate(449.316406 0)"/>
     <use xlink:href="#DejaVuSans-Bold-54" transform="translate(484.130859 0)"/>
     <use xlink:href="#DejaVuSans-Bold-41" transform="translate(544.59375 0)"/>
     <use xlink:href="#DejaVuSans-Bold-4e" transform="translate(621.986328 0)"/>
     <use xlink:href="#DejaVuSans-Bold-47" transform="translate(705.677734 0)"/>
     <use xlink:href="#DejaVuSans-Bold-45" transform="translate(787.757812 0)"/>
     <use xlink:href="#DejaVuSans-Bold-4e" transform="translate(856.068359 0)"/>
     <use xlink:href="#DejaVuSans-Bold-54" transform="translate(939.759766 0)"/>
     <use xlink:href="#DejaVuSans-Bold-45" transform="translate(1007.972656 0)"/>
     <use xlink:href="#DejaVuSans-Bold-20" transform="translate(1076.283203 0)"/>
     <use xlink:href="#DejaVuSans-Bold-55" transform="translate(1111.097656 0)"/>
     <use xlink:href="#DejaVuSans-Bold-4e" transform="translate(1192.298828 0)"/>
     <use xlink:href="#DejaVuSans-Bold-49" transform="translate(1275.990234 0)"/>
     <use xlink:href="#DejaVuSans-Bold-54" transform="translate(1313.197266 0)"/>
     <use xlink:href="#DejaVuSans-Bold-41" transform="translate(1373.660156 0)"/>
     <use xlink:href="#DejaVuSans-Bold-52" transform="translate(1451.052734 0)"/>
     <use xlink:href="#DejaVuSans-Bold-49" transform="translate(1528.054688 0)"/>
     <use xlink:href="#DejaVuSans-Bold-4f" transform="translate(1565.261719 0)"/>
    </g>
   </g>
   <g id="text_28">
    <!-- $\mathbf{T}(t) = \frac{\mathbf{r}'(t)}{\|\mathbf{r}'(t)\|}$ -->
    <g style="fill: #1f2937" transform="translate(193.39988 455.985126) scale(0.13 -0.13)">
     <defs>
      <path id="DejaVuSans-28" d="M 1984 4856 
Q 1566 4138 1362 3434 
Q 1159 2731 1159 2009 
Q 1159 1288 1364 580 
Q 1569 -128 1984 -844 
L 1484 -844 
Q 1016 -109 783 600 
Q 550 1309 550 2009 
Q 550 2706 781 3412 
Q 1013 4119 1484 4856 
L 1984 4856 
z
" transform="scale(0.015625)"/>
      <path id="DejaVuSans-Oblique-74" d="M 2706 3500 
L 2619 3053 
L 1472 3053 
L 1100 1153 
Q 1081 1047 1072 975 
Q 1063 903 1063 863 
Q 1063 663 1183 572 
Q 1303 481 1569 481 
L 2150 481 
L 2053 0 
L 1503 0 
Q 991 0 739 200 
Q 488 400 488 806 
Q 488 878 497 964 
Q 506 1050 525 1153 
L 897 3053 
L 409 3053 
L 500 3500 
L 978 3500 
L 1172 4494 
L 1747 4494 
L 1556 3500 
L 2706 3500 
z
" transform="scale(0.015625)"/>
      <path id="DejaVuSans-29" d="M 513 4856 
L 1013 4856 
Q 1481 4119 1714 3412 
Q 1947 2706 1947 2009 
Q 1947 1309 1714 600 
Q 1481 -109 1013 -844 
L 513 -844 
Q 928 -128 1133 580 
Q 1338 1288 1338 2009 
Q 1338 2731 1133 3434 
Q 928 4138 513 4856 
z
" transform="scale(0.015625)"/>
      <path id="DejaVuSans-3d" d="M 678 2906 
L 4684 2906 
L 4684 2381 
L 678 2381 
L 678 2906 
z
M 678 1631 
L 4684 1631 
L 4684 1100 
L 678 1100 
L 678 1631 
z
" transform="scale(0.015625)"/>
      <path id="Cmsy10-30" d="M 225 347 
Q 184 359 184 409 
L 966 3316 
Q 1003 3434 1093 3506 
Q 1184 3578 1300 3578 
Q 1450 3578 1564 3479 
Q 1678 3381 1678 3231 
Q 1678 3166 1644 3084 
L 488 319 
Q 466 275 428 275 
Q 394 275 320 306 
Q 247 338 225 347 
z
" transform="scale(0.015625)"/>
      <path id="DejaVuSans-2016" d="M 1344 4891 
L 1344 -1509 
L 813 -1509 
L 813 4891 
L 1344 4891 
z
M 2376 4891 
L 2376 -1509 
L 1845 -1509 
L 1845 4891 
L 2376 4891 
z
" transform="scale(0.015625)"/>
     </defs>
     <use xlink:href="#DejaVuSans-Bold-54" transform="translate(0 0.780937)"/>
     <use xlink:href="#DejaVuSans-28" transform="translate(68.212891 0.780937)"/>
     <use xlink:href="#DejaVuSans-Oblique-74" transform="translate(107.226562 0.780937)"/>
     <use xlink:href="#DejaVuSans-29" transform="translate(146.435547 0.780937)"/>
     <use xlink:href="#DejaVuSans-3d" transform="translate(204.931641 0.780937)"/>
     <use xlink:href="#DejaVuSans-Bold-72" transform="translate(343.203125 53.809062) scale(0.7)"/>
     <use xlink:href="#Cmsy10-30" transform="translate(378.394531 80.605937) scale(0.49)"/>
     <use xlink:href="#DejaVuSans-28" transform="translate(393.778809 53.809062) scale(0.7)"/>
     <use xlink:href="#DejaVuSans-Oblique-74" transform="translate(421.088379 53.809062) scale(0.7)"/>
     <use xlink:href="#DejaVuSans-29" transform="translate(448.534668 53.809062) scale(0.7)"/>
     <use xlink:href="#DejaVuSans-2016" transform="translate(308.203125 -40.863125) scale(0.7)"/>
     <use xlink:href="#DejaVuSans-Bold-72" transform="translate(343.203125 -40.863125) scale(0.7)"/>
     <use xlink:href="#Cmsy10-30" transform="translate(378.394531 -14.06625) scale(0.49)"/>
     <use xlink:href="#DejaVuSans-28" transform="translate(393.778809 -40.863125) scale(0.7)"/>
     <use xlink:href="#DejaVuSans-Oblique-74" transform="translate(421.088379 -40.863125) scale(0.7)"/>
     <use xlink:href="#DejaVuSans-29" transform="translate(448.534668 -40.863125) scale(0.7)"/>
     <use xlink:href="#DejaVuSans-2016" transform="translate(475.844238 -40.863125) scale(0.7)"/>
     <path d="M 308.203125 19.577812 
L 308.203125 25.827812 
L 510.844238 25.827812 
L 510.844238 19.577812 
L 308.203125 19.577812 
z
"/>
    </g>
   </g>
   <g id="text_29">
    <!-- VECTOR NORMAL PRINCIPAL -->
    <g style="fill: #10b981" transform="translate(147.842692 501.873544) scale(0.1 -0.1)">
     <defs>
      <path id="DejaVuSans-Bold-4c" d="M 588 4666 
L 1791 4666 
L 1791 909 
L 3903 909 
L 3903 0 
L 588 0 
L 588 4666 
z
" transform="scale(0.015625)"/>
     </defs>
     <use xlink:href="#DejaVuSans-Bold-56"/>
     <use xlink:href="#DejaVuSans-Bold-45" transform="translate(77.392578 0)"/>
     <use xlink:href="#DejaVuSans-Bold-43" transform="translate(145.703125 0)"/>
     <use xlink:href="#DejaVuSans-Bold-54" transform="translate(219.091797 0)"/>
     <use xlink:href="#DejaVuSans-Bold-4f" transform="translate(287.304688 0)"/>
     <use xlink:href="#DejaVuSans-Bold-52" transform="translate(372.314453 0)"/>
     <use xlink:href="#DejaVuSans-Bold-20" transform="translate(449.316406 0)"/>
     <use xlink:href="#DejaVuSans-Bold-4e" transform="translate(484.130859 0)"/>
     <use xlink:href="#DejaVuSans-Bold-4f" transform="translate(567.822266 0)"/>
     <use xlink:href="#DejaVuSans-Bold-52" transform="translate(652.832031 0)"/>
     <use xlink:href="#DejaVuSans-Bold-4d" transform="translate(729.833984 0)"/>
     <use xlink:href="#DejaVuSans-Bold-41" transform="translate(829.345703 0)"/>
     <use xlink:href="#DejaVuSans-Bold-4c" transform="translate(906.738281 0)"/>
     <use xlink:href="#DejaVuSans-Bold-20" transform="translate(970.458984 0)"/>
     <use xlink:href="#DejaVuSans-Bold-50" transform="translate(1005.273438 0)"/>
     <use xlink:href="#DejaVuSans-Bold-52" transform="translate(1078.564453 0)"/>
     <use xlink:href="#DejaVuSans-Bold-49" transform="translate(1155.566406 0)"/>
     <use xlink:href="#DejaVuSans-Bold-4e" transform="translate(1192.773438 0)"/>
     <use xlink:href="#DejaVuSans-Bold-43" transform="translate(1276.464844 0)"/>
     <use xlink:href="#DejaVuSans-Bold-49" transform="translate(1349.853516 0)"/>
     <use xlink:href="#DejaVuSans-Bold-50" transform="translate(1387.060547 0)"/>
     <use xlink:href="#DejaVuSans-Bold-41" transform="translate(1451.226562 0)"/>
     <use xlink:href="#DejaVuSans-Bold-4c" transform="translate(1528.619141 0)"/>
    </g>
   </g>
   <g id="text_30">
    <!-- $\mathbf{N}(t) = \frac{\mathbf{T}'(t)}{\|\mathbf{T}'(t)\|}$ -->
    <g style="fill: #1f2937" transform="translate(191.51488 533.270883) scale(0.13 -0.13)">
     <use xlink:href="#DejaVuSans-Bold-4e" transform="translate(0 0.780937)"/>
     <use xlink:href="#DejaVuSans-28" transform="translate(83.691406 0.780937)"/>
     <use xlink:href="#DejaVuSans-Oblique-74" transform="translate(122.705078 0.780937)"/>
     <use xlink:href="#DejaVuSans-29" transform="translate(161.914062 0.780937)"/>
     <use xlink:href="#DejaVuSans-3d" transform="translate(220.410156 0.780937)"/>
     <use xlink:href="#DejaVuSans-Bold-54" transform="translate(358.681641 53.809062) scale(0.7)"/>
     <use xlink:href="#Cmsy10-30" transform="translate(407.100586 80.605937) scale(0.49)"/>
     <use xlink:href="#DejaVuSans-28" transform="translate(422.484863 53.809062) scale(0.7)"/>
     <use xlink:href="#DejaVuSans-Oblique-74" transform="translate(449.794434 53.809062) scale(0.7)"/>
     <use xlink:href="#DejaVuSans-29" transform="translate(477.240723 53.809062) scale(0.7)"/>
     <use xlink:href="#DejaVuSans-2016" transform="translate(323.681641 -40.863125) scale(0.7)"/>
     <use xlink:href="#DejaVuSans-Bold-54" transform="translate(358.681641 -40.863125) scale(0.7)"/>
     <use xlink:href="#Cmsy10-30" transform="translate(407.100586 -14.06625) scale(0.49)"/>
     <use xlink:href="#DejaVuSans-28" transform="translate(422.484863 -40.863125) scale(0.7)"/>
     <use xlink:href="#DejaVuSans-Oblique-74" transform="translate(449.794434 -40.863125) scale(0.7)"/>
     <use xlink:href="#DejaVuSans-29" transform="translate(477.240723 -40.863125) scale(0.7)"/>
     <use xlink:href="#DejaVuSans-2016" transform="translate(504.550293 -40.863125) scale(0.7)"/>
     <path d="M 323.681641 19.577812 
L 323.681641 25.827812 
L 539.550293 25.827812 
L 539.550293 19.577812 
L 323.681641 19.577812 
z
"/>
    </g>
   </g>
   <g id="text_31">
    <!-- VECTOR BINORMAL -->
    <g style="fill: #3b82f6" transform="translate(173.265349 581.574482) scale(0.1 -0.1)">
     <use xlink:href="#DejaVuSans-Bold-56"/>
     <use xlink:href="#DejaVuSans-Bold-45" transform="translate(77.392578 0)"/>
     <use xlink:href="#DejaVuSans-Bold-43" transform="translate(145.703125 0)"/>
     <use xlink:href="#DejaVuSans-Bold-54" transform="translate(219.091797 0)"/>
     <use xlink:href="#DejaVuSans-Bold-4f" transform="translate(287.304688 0)"/>
     <use xlink:href="#DejaVuSans-Bold-52" transform="translate(372.314453 0)"/>
     <use xlink:href="#DejaVuSans-Bold-20" transform="translate(449.316406 0)"/>
     <use xlink:href="#DejaVuSans-Bold-42" transform="translate(484.130859 0)"/>
     <use xlink:href="#DejaVuSans-Bold-49" transform="translate(560.351562 0)"/>
     <use xlink:href="#DejaVuSans-Bold-4e" transform="translate(597.558594 0)"/>
     <use xlink:href="#DejaVuSans-Bold-4f" transform="translate(681.25 0)"/>
     <use xlink:href="#DejaVuSans-Bold-52" transform="translate(766.259766 0)"/>
     <use xlink:href="#DejaVuSans-Bold-4d" transform="translate(843.261719 0)"/>
     <use xlink:href="#DejaVuSans-Bold-41" transform="translate(942.773438 0)"/>
     <use xlink:href="#DejaVuSans-Bold-4c" transform="translate(1020.166016 0)"/>
    </g>
   </g>
   <g id="text_32">
    <!-- $\mathbf{B}(t) = \mathbf{T}(t) \times \mathbf{N}(t)$ -->
    <g style="fill: #1f2937" transform="translate(173.76988 612.971821) scale(0.13 -0.13)">
     <defs>
      <path id="DejaVuSans-d7" d="M 4488 3438 
L 3059 2003 
L 4488 575 
L 4116 197 
L 2681 1631 
L 1247 197 
L 878 575 
L 2303 2003 
L 878 3438 
L 1247 3816 
L 2681 2381 
L 4116 3816 
L 4488 3438 
z
" transform="scale(0.015625)"/>
     </defs>
     <use xlink:href="#DejaVuSans-Bold-42" transform="translate(0 0.125)"/>
     <use xlink:href="#DejaVuSans-28" transform="translate(76.220703 0.125)"/>
     <use xlink:href="#DejaVuSans-Oblique-74" transform="translate(115.234375 0.125)"/>
     <use xlink:href="#DejaVuSans-29" transform="translate(154.443359 0.125)"/>
     <use xlink:href="#DejaVuSans-3d" transform="translate(212.939453 0.125)"/>
     <use xlink:href="#DejaVuSans-Bold-54" transform="translate(316.210938 0.125)"/>
     <use xlink:href="#DejaVuSans-28" transform="translate(384.423828 0.125)"/>
     <use xlink:href="#DejaVuSans-Oblique-74" transform="translate(423.4375 0.125)"/>
     <use xlink:href="#DejaVuSans-29" transform="translate(462.646484 0.125)"/>
     <use xlink:href="#DejaVuSans-d7" transform="translate(521.142578 0.125)"/>
     <use xlink:href="#DejaVuSans-Bold-4e" transform="translate(624.414062 0.125)"/>
     <use xlink:href="#DejaVuSans-28" transform="translate(708.105469 0.125)"/>
     <use xlink:href="#DejaVuSans-Oblique-74" transform="translate(747.119141 0.125)"/>
     <use xlink:href="#DejaVuSans-29" transform="translate(786.328125 0.125)"/>
    </g>
   </g>
  </g>
  <g id="axes_3">
   <g id="patch_9">
    <path d="M 581.895353 465.645845 
L 995.983927 465.645845 
L 995.983927 407.681527 
L 581.895353 407.681527 
z
" clip-path="url(#p5af1bb3f76)" style="fill: #f59e0b; fill-opacity: 0.082353; stroke: #f59e0b; stroke-width: 1.5; stroke-linejoin: miter"/>
   </g>
   <g id="patch_10">
    <path d="M 581.895353 533.270883 
L 995.983927 533.270883 
L 995.983927 475.306565 
L 581.895353 475.306565 
z
" clip-path="url(#p5af1bb3f76)" style="fill: #8b5cf6; fill-opacity: 0.082353; stroke: #8b5cf6; stroke-width: 1.5; stroke-linejoin: miter"/>
   </g>
   <g id="patch_11">
    <path d="M 581.895353 600.895921 
L 995.983927 600.895921 
L 995.983927 542.931603 
L 581.895353 542.931603 
z
" clip-path="url(#p5af1bb3f76)" style="fill: #06b6d4; fill-opacity: 0.082353; stroke: #06b6d4; stroke-width: 1.5; stroke-linejoin: miter"/>
   </g>
   <g id="text_33">
    <!-- PLANOS ASOCIADOS -->
    <g style="fill: #374151" transform="translate(725.558156 419.757427) scale(0.11 -0.11)">
     <defs>
      <path id="DejaVuSans-Bold-44" d="M 1791 3756 
L 1791 909 
L 2222 909 
Q 2959 909 3348 1275 
Q 3738 1641 3738 2338 
Q 3738 3031 3350 3393 
Q 2963 3756 2222 3756 
L 1791 3756 
z
M 588 4666 
L 1856 4666 
Q 2919 4666 3439 4514 
Q 3959 4363 4331 4000 
Q 4659 3684 4818 3271 
Q 4978 2859 4978 2338 
Q 4978 1809 4818 1395 
Q 4659 981 4331 666 
Q 3956 303 3431 151 
Q 2906 0 1856 0 
L 588 0 
L 588 4666 
z
" transform="scale(0.015625)"/>
     </defs>
     <use xlink:href="#DejaVuSans-Bold-50"/>
     <use xlink:href="#DejaVuSans-Bold-4c" transform="translate(73.291016 0)"/>
     <use xlink:href="#DejaVuSans-Bold-41" transform="translate(137.011719 0)"/>
     <use xlink:href="#DejaVuSans-Bold-4e" transform="translate(214.404297 0)"/>
     <use xlink:href="#DejaVuSans-Bold-4f" transform="translate(298.095703 0)"/>
     <use xlink:href="#DejaVuSans-Bold-53" transform="translate(383.105469 0)"/>
     <use xlink:href="#DejaVuSans-Bold-20" transform="translate(455.126953 0)"/>
     <use xlink:href="#DejaVuSans-Bold-41" transform="translate(489.941406 0)"/>
     <use xlink:href="#DejaVuSans-Bold-53" transform="translate(567.333984 0)"/>
     <use xlink:href="#DejaVuSans-Bold-4f" transform="translate(639.355469 0)"/>
     <use xlink:href="#DejaVuSans-Bold-43" transform="translate(724.365234 0)"/>
     <use xlink:href="#DejaVuSans-Bold-49" transform="translate(797.753906 0)"/>
     <use xlink:href="#DejaVuSans-Bold-41" transform="translate(834.960938 0)"/>
     <use xlink:href="#DejaVuSans-Bold-44" transform="translate(912.353516 0)"/>
     <use xlink:href="#DejaVuSans-Bold-4f" transform="translate(995.361328 0)"/>
     <use xlink:href="#DejaVuSans-Bold-53" transform="translate(1080.371094 0)"/>
    </g>
   </g>
   <g id="text_34">
    <!-- Plano Osculador -->
    <g style="fill: #f59e0b" transform="translate(743.13339 419.757427) scale(0.1 -0.1)">
     <defs>
      <path id="DejaVuSans-Bold-73" d="M 3272 3391 
L 3272 2541 
Q 2913 2691 2578 2766 
Q 2244 2841 1947 2841 
Q 1628 2841 1473 2761 
Q 1319 2681 1319 2516 
Q 1319 2381 1436 2309 
Q 1553 2238 1856 2203 
L 2053 2175 
Q 2913 2066 3209 1816 
Q 3506 1566 3506 1031 
Q 3506 472 3093 190 
Q 2681 -91 1863 -91 
Q 1516 -91 1145 -36 
Q 775 19 384 128 
L 384 978 
Q 719 816 1070 734 
Q 1422 653 1784 653 
Q 2113 653 2278 743 
Q 2444 834 2444 1013 
Q 2444 1163 2330 1236 
Q 2216 1309 1875 1350 
L 1678 1375 
Q 931 1469 631 1722 
Q 331 1975 331 2491 
Q 331 3047 712 3315 
Q 1094 3584 1881 3584 
Q 2191 3584 2531 3537 
Q 2872 3491 3272 3391 
z
" transform="scale(0.015625)"/>
     </defs>
     <use xlink:href="#DejaVuSans-Bold-50"/>
     <use xlink:href="#DejaVuSans-Bold-6c" transform="translate(73.291016 0)"/>
     <use xlink:href="#DejaVuSans-Bold-61" transform="translate(107.568359 0)"/>
     <use xlink:href="#DejaVuSans-Bold-6e" transform="translate(175.048828 0)"/>
     <use xlink:href="#DejaVuSans-Bold-6f" transform="translate(246.240234 0)"/>
     <use xlink:href="#DejaVuSans-Bold-20" transform="translate(314.941406 0)"/>
     <use xlink:href="#DejaVuSans-Bold-4f" transform="translate(349.755859 0)"/>
     <use xlink:href="#DejaVuSans-Bold-73" transform="translate(434.765625 0)"/>
     <use xlink:href="#DejaVuSans-Bold-63" transform="translate(494.287109 0)"/>
     <use xlink:href="#DejaVuSans-Bold-75" transform="translate(553.564453 0)"/>
     <use xlink:href="#DejaVuSans-Bold-6c" transform="translate(624.755859 0)"/>
     <use xlink:href="#DejaVuSans-Bold-61" transform="translate(659.033203 0)"/>
     <use xlink:href="#DejaVuSans-Bold-64" transform="translate(726.513672 0)"/>
     <use xlink:href="#DejaVuSans-Bold-6f" transform="translate(798.095703 0)"/>
     <use xlink:href="#DejaVuSans-Bold-72" transform="translate(866.796875 0)"/>
    </g>
   </g>
   <g id="text_35">
    <!-- Generado por: $\mathbf{T}$ y $\mathbf{N}$ -->
    <g style="fill: #1f2937" transform="translate(737.48964 441.494046) scale(0.1 -0.1)">
     <defs>
      <path id="DejaVuSans-47" d="M 3809 666 
L 3809 1919 
L 2778 1919 
L 2778 2438 
L 4434 2438 
L 4434 434 
Q 4069 175 3628 42 
Q 3188 -91 2688 -91 
Q 1594 -91 976 548 
Q 359 1188 359 2328 
Q 359 3472 976 4111 
Q 1594 4750 2688 4750 
Q 3144 4750 3555 4637 
Q 3966 4525 4313 4306 
L 4313 3634 
Q 3963 3931 3569 4081 
Q 3175 4231 2741 4231 
Q 1884 4231 1454 3753 
Q 1025 3275 1025 2328 
Q 1025 1384 1454 906 
Q 1884 428 2741 428 
Q 3075 428 3337 486 
Q 3600 544 3809 666 
z
" transform="scale(0.015625)"/>
      <path id="DejaVuSans-65" d="M 3597 1894 
L 3597 1613 
L 953 1613 
Q 991 1019 1311 708 
Q 1631 397 2203 397 
Q 2534 397 2845 478 
Q 3156 559 3463 722 
L 3463 178 
Q 3153 47 2828 -22 
Q 2503 -91 2169 -91 
Q 1331 -91 842 396 
Q 353 884 353 1716 
Q 353 2575 817 3079 
Q 1281 3584 2069 3584 
Q 2775 3584 3186 3129 
Q 3597 2675 3597 1894 
z
M 3022 2063 
Q 3016 2534 2758 2815 
Q 2500 3097 2075 3097 
Q 1594 3097 1305 2825 
Q 1016 2553 972 2059 
L 3022 2063 
z
" transform="scale(0.015625)"/>
      <path id="DejaVuSans-20" transform="scale(0.015625)"/>
      <path id="DejaVuSans-70" d="M 1159 525 
L 1159 -1331 
L 581 -1331 
L 581 3500 
L 1159 3500 
L 1159 2969 
Q 1341 3281 1617 3432 
Q 1894 3584 2278 3584 
Q 2916 3584 3314 3078 
Q 3713 2572 3713 1747 
Q 3713 922 3314 415 
Q 2916 -91 2278 -91 
Q 1894 -91 1617 61 
Q 1341 213 1159 525 
z
M 3116 1747 
Q 3116 2381 2855 2742 
Q 2594 3103 2138 3103 
Q 1681 3103 1420 2742 
Q 1159 2381 1159 1747 
Q 1159 1113 1420 752 
Q 1681 391 2138 391 
Q 2594 391 2855 752 
Q 3116 1113 3116 1747 
z
" transform="scale(0.015625)"/>
      <path id="DejaVuSans-3a" d="M 750 794 
L 1409 794 
L 1409 0 
L 750 0 
L 750 794 
z
M 750 3309 
L 1409 3309 
L 1409 2516 
L 750 2516 
L 750 3309 
z
" transform="scale(0.015625)"/>
      <path id="DejaVuSans-79" d="M 2059 -325 
Q 1816 -950 1584 -1140 
Q 1353 -1331 966 -1331 
L 506 -1331 
L 506 -850 
L 844 -850 
Q 1081 -850 1212 -737 
Q 1344 -625 1503 -206 
L 1606 56 
L 191 3500 
L 800 3500 
L 1894 763 
L 2988 3500 
L 3597 3500 
L 2059 -325 
z
" transform="scale(0.015625)"/>
     </defs>
     <use xlink:href="#DejaVuSans-47" transform="translate(0 0.015625)"/>
     <use xlink:href="#DejaVuSans-65" transform="translate(77.490234 0.015625)"/>
     <use xlink:href="#DejaVuSans-6e" transform="translate(139.013672 0.015625)"/>
     <use xlink:href="#DejaVuSans-65" transform="translate(202.392578 0.015625)"/>
     <use xlink:href="#DejaVuSans-72" transform="translate(263.916016 0.015625)"/>
     <use xlink:href="#DejaVuSans-61" transform="translate(305.029297 0.015625)"/>
     <use xlink:href="#DejaVuSans-64" transform="translate(366.308594 0.015625)"/>
     <use xlink:href="#DejaVuSans-6f" transform="translate(429.785156 0.015625)"/>
     <use xlink:href="#DejaVuSans-20" transform="translate(490.966797 0.015625)"/>
     <use xlink:href="#DejaVuSans-70" transform="translate(522.753906 0.015625)"/>
     <use xlink:href="#DejaVuSans-6f" transform="translate(586.230469 0.015625)"/>
     <use xlink:href="#DejaVuSans-72" transform="translate(647.412109 0.015625)"/>
     <use xlink:href="#DejaVuSans-3a" transform="translate(688.525391 0.015625)"/>
     <use xlink:href="#DejaVuSans-20" transform="translate(722.216797 0.015625)"/>
     <use xlink:href="#DejaVuSans-Bold-54" transform="translate(754.003906 0.015625)"/>
     <use xlink:href="#DejaVuSans-20" transform="translate(822.216797 0.015625)"/>
     <use xlink:href="#DejaVuSans-79" transform="translate(854.003906 0.015625)"/>
     <use xlink:href="#DejaVuSans-20" transform="translate(913.183594 0.015625)"/>
     <use xlink:href="#DejaVuSans-Bold-4e" transform="translate(944.970703 0.015625)"/>
    </g>
   </g>
   <g id="text_36">
    <!-- Plano de mejor ajuste local -->
    <g style="fill: #6b7280" transform="translate(728.038468 460.815486) scale(0.09 -0.09)">
     <defs>
      <path id="DejaVuSans-6d" d="M 3328 2828 
Q 3544 3216 3844 3400 
Q 4144 3584 4550 3584 
Q 5097 3584 5394 3201 
Q 5691 2819 5691 2113 
L 5691 0 
L 5113 0 
L 5113 2094 
Q 5113 2597 4934 2840 
Q 4756 3084 4391 3084 
Q 3944 3084 3684 2787 
Q 3425 2491 3425 1978 
L 3425 0 
L 2847 0 
L 2847 2094 
Q 2847 2600 2669 2842 
Q 2491 3084 2119 3084 
Q 1678 3084 1418 2786 
Q 1159 2488 1159 1978 
L 1159 0 
L 581 0 
L 581 3500 
L 1159 3500 
L 1159 2956 
Q 1356 3278 1631 3431 
Q 1906 3584 2284 3584 
Q 2666 3584 2933 3390 
Q 3200 3197 3328 2828 
z
" transform="scale(0.015625)"/>
      <path id="DejaVuSans-6a" d="M 603 3500 
L 1178 3500 
L 1178 -63 
Q 1178 -731 923 -1031 
Q 669 -1331 103 -1331 
L -116 -1331 
L -116 -844 
L 38 -844 
Q 366 -844 484 -692 
Q 603 -541 603 -63 
L 603 3500 
z
M 603 4863 
L 1178 4863 
L 1178 4134 
L 603 4134 
L 603 4863 
z
" transform="scale(0.015625)"/>
      <path id="DejaVuSans-74" d="M 1172 4494 
L 1172 3500 
L 2356 3500 
L 2356 3053 
L 1172 3053 
L 1172 1153 
Q 1172 725 1289 603 
Q 1406 481 1766 481 
L 2356 481 
L 2356 0 
L 1766 0 
Q 1100 0 847 248 
Q 594 497 594 1153 
L 594 3053 
L 172 3053 
L 172 3500 
L 594 3500 
L 594 4494 
L 1172 4494 
z
" transform="scale(0.015625)"/>
     </defs>
     <use xlink:href="#DejaVuSans-50"/>
     <use xlink:href="#DejaVuSans-6c" transform="translate(60.302734 0)"/>
     <use xlink:href="#DejaVuSans-61" transform="translate(88.085938 0)"/>
     <use xlink:href="#DejaVuSans-6e" transform="translate(149.365234 0)"/>
     <use xlink:href="#DejaVuSans-6f" transform="translate(212.744141 0)"/>
     <use xlink:href="#DejaVuSans-20" transform="translate(273.925781 0)"/>
     <use xlink:href="#DejaVuSans-64" transform="translate(305.712891 0)"/>
     <use xlink:href="#DejaVuSans-65" transform="translate(369.189453 0)"/>
     <use xlink:href="#DejaVuSans-20" transform="translate(430.712891 0)"/>
     <use xlink:href="#DejaVuSans-6d" transform="translate(462.5 0)"/>
     <use xlink:href="#DejaVuSans-65" transform="translate(559.912109 0)"/>
     <use xlink:href="#DejaVuSans-6a" transform="translate(621.435547 0)"/>
     <use xlink:href="#DejaVuSans-6f" transform="translate(649.21875 0)"/>
     <use xlink:href="#DejaVuSans-72" transform="translate(710.400391 0)"/>
     <use xlink:href="#DejaVuSans-20" transform="translate(751.513672 0)"/>
     <use xlink:href="#DejaVuSans-61" transform="translate(783.300781 0)"/>
     <use xlink:href="#DejaVuSans-6a" transform="translate(844.580078 0)"/>
     <use xlink:href="#DejaVuSans-75" transform="translate(872.363281 0)"/>
     <use xlink:href="#DejaVuSans-73" transform="translate(935.742188 0)"/>
     <use xlink:href="#DejaVuSans-74" transform="translate(987.841797 0)"/>
     <use xlink:href="#DejaVuSans-65" transform="translate(1027.050781 0)"/>
     <use xlink:href="#DejaVuSans-20" transform="translate(1088.574219 0)"/>
     <use xlink:href="#DejaVuSans-6c" transform="translate(1120.361328 0)"/>
     <use xlink:href="#DejaVuSans-6f" transform="translate(1148.144531 0)"/>
     <use xlink:href="#DejaVuSans-63" transform="translate(1209.326172 0)"/>
     <use xlink:href="#DejaVuSans-61" transform="translate(1264.306641 0)"/>
     <use xlink:href="#DejaVuSans-6c" transform="translate(1325.585938 0)"/>
    </g>
   </g>
   <g id="text_37">
    <!-- Plano Normal -->
    <g style="fill: #8b5cf6" transform="translate(751.067765 487.382465) scale(0.1 -0.1)">
     <defs>
      <path id="DejaVuSans-Bold-6d" d="M 3781 2919 
Q 3994 3244 4286 3414 
Q 4578 3584 4928 3584 
Q 5531 3584 5847 3212 
Q 6163 2841 6163 2131 
L 6163 0 
L 5038 0 
L 5038 1825 
Q 5041 1866 5042 1909 
Q 5044 1953 5044 2034 
Q 5044 2406 4934 2573 
Q 4825 2741 4581 2741 
Q 4263 2741 4089 2478 
Q 3916 2216 3909 1719 
L 3909 0 
L 2784 0 
L 2784 1825 
Q 2784 2406 2684 2573 
Q 2584 2741 2328 2741 
Q 2006 2741 1831 2477 
Q 1656 2213 1656 1722 
L 1656 0 
L 531 0 
L 531 3500 
L 1656 3500 
L 1656 2988 
Q 1863 3284 2130 3434 
Q 2397 3584 2719 3584 
Q 3081 3584 3359 3409 
Q 3638 3234 3781 2919 
z
" transform="scale(0.015625)"/>
     </defs>
     <use xlink:href="#DejaVuSans-Bold-50"/>
     <use xlink:href="#DejaVuSans-Bold-6c" transform="translate(73.291016 0)"/>
     <use xlink:href="#DejaVuSans-Bold-61" transform="translate(107.568359 0)"/>
     <use xlink:href="#DejaVuSans-Bold-6e" transform="translate(175.048828 0)"/>
     <use xlink:href="#DejaVuSans-Bold-6f" transform="translate(246.240234 0)"/>
     <use xlink:href="#DejaVuSans-Bold-20" transform="translate(314.941406 0)"/>
     <use xlink:href="#DejaVuSans-Bold-4e" transform="translate(349.755859 0)"/>
     <use xlink:href="#DejaVuSans-Bold-6f" transform="translate(433.447266 0)"/>
     <use xlink:href="#DejaVuSans-Bold-72" transform="translate(502.148438 0)"/>
     <use xlink:href="#DejaVuSans-Bold-6d" transform="translate(551.464844 0)"/>
     <use xlink:href="#DejaVuSans-Bold-61" transform="translate(655.664062 0)"/>
     <use xlink:href="#DejaVuSans-Bold-6c" transform="translate(723.144531 0)"/>
    </g>
   </g>
   <g id="text_38">
    <!-- Generado por: $\mathbf{N}$ y $\mathbf{B}$ -->
    <g style="fill: #1f2937" transform="translate(737.08964 509.119084) scale(0.1 -0.1)">
     <use xlink:href="#DejaVuSans-47" transform="translate(0 0.015625)"/>
     <use xlink:href="#DejaVuSans-65" transform="translate(77.490234 0.015625)"/>
     <use xlink:href="#DejaVuSans-6e" transform="translate(139.013672 0.015625)"/>
     <use xlink:href="#DejaVuSans-65" transform="translate(202.392578 0.015625)"/>
     <use xlink:href="#DejaVuSans-72" transform="translate(263.916016 0.015625)"/>
     <use xlink:href="#DejaVuSans-61" transform="translate(305.029297 0.015625)"/>
     <use xlink:href="#DejaVuSans-64" transform="translate(366.308594 0.015625)"/>
     <use xlink:href="#DejaVuSans-6f" transform="translate(429.785156 0.015625)"/>
     <use xlink:href="#DejaVuSans-20" transform="translate(490.966797 0.015625)"/>
     <use xlink:href="#DejaVuSans-70" transform="translate(522.753906 0.015625)"/>
     <use xlink:href="#DejaVuSans-6f" transform="translate(586.230469 0.015625)"/>
     <use xlink:href="#DejaVuSans-72" transform="translate(647.412109 0.015625)"/>
     <use xlink:href="#DejaVuSans-3a" transform="translate(688.525391 0.015625)"/>
     <use xlink:href="#DejaVuSans-20" transform="translate(722.216797 0.015625)"/>
     <use xlink:href="#DejaVuSans-Bold-4e" transform="translate(754.003906 0.015625)"/>
     <use xlink:href="#DejaVuSans-20" transform="translate(837.695312 0.015625)"/>
     <use xlink:href="#DejaVuSans-79" transform="translate(869.482422 0.015625)"/>
     <use xlink:href="#DejaVuSans-20" transform="translate(928.662109 0.015625)"/>
     <use xlink:href="#DejaVuSans-Bold-42" transform="translate(960.449219 0.015625)"/>
    </g>
   </g>
   <g id="text_39">
    <!-- Perpendicular a la tangente -->
    <g style="fill: #6b7280" transform="translate(726.561906 528.440524) scale(0.09 -0.09)">
     <defs>
      <path id="DejaVuSans-69" d="M 603 3500 
L 1178 3500 
L 1178 0 
L 603 0 
L 603 3500 
z
M 603 4863 
L 1178 4863 
L 1178 4134 
L 603 4134 
L 603 4863 
z
" transform="scale(0.015625)"/>
      <path id="DejaVuSans-67" d="M 2906 1791 
Q 2906 2416 2648 2759 
Q 2391 3103 1925 3103 
Q 1463 3103 1205 2759 
Q 947 2416 947 1791 
Q 947 1169 1205 825 
Q 1463 481 1925 481 
Q 2391 481 2648 825 
Q 2906 1169 2906 1791 
z
M 3481 434 
Q 3481 -459 3084 -895 
Q 2688 -1331 1869 -1331 
Q 1566 -1331 1297 -1286 
Q 1028 -1241 775 -1147 
L 775 -588 
Q 1028 -725 1275 -790 
Q 1522 -856 1778 -856 
Q 2344 -856 2625 -561 
Q 2906 -266 2906 331 
L 2906 616 
Q 2728 306 2450 153 
Q 2172 0 1784 0 
Q 1141 0 747 490 
Q 353 981 353 1791 
Q 353 2603 747 3093 
Q 1141 3584 1784 3584 
Q 2172 3584 2450 3431 
Q 2728 3278 2906 2969 
L 2906 3500 
L 3481 3500 
L 3481 434 
z
" transform="scale(0.015625)"/>
     </defs>
     <use xlink:href="#DejaVuSans-50"/>
     <use xlink:href="#DejaVuSans-65" transform="translate(56.677734 0)"/>
     <use xlink:href="#DejaVuSans-72" transform="translate(118.201172 0)"/>
     <use xlink:href="#DejaVuSans-70" transform="translate(159.314453 0)"/>
     <use xlink:href="#DejaVuSans-65" transform="translate(222.791016 0)"/>
     <use xlink:href="#DejaVuSans-6e" transform="translate(284.314453 0)"/>
     <use xlink:href="#DejaVuSans-64" transform="translate(347.693359 0)"/>
     <use xlink:href="#DejaVuSans-69" transform="translate(411.169922 0)"/>
     <use xlink:href="#DejaVuSans-63" transform="translate(438.953125 0)"/>
     <use xlink:href="#DejaVuSans-75" transform="translate(493.933594 0)"/>
     <use xlink:href="#DejaVuSans-6c" transform="translate(557.3125 0)"/>
     <use xlink:href="#DejaVuSans-61" transform="translate(585.095703 0)"/>
     <use xlink:href="#DejaVuSans-72" transform="translate(646.375 0)"/>
     <use xlink:href="#DejaVuSans-20" transform="translate(687.488281 0)"/>
     <use xlink:href="#DejaVuSans-61" transform="translate(719.275391 0)"/>
     <use xlink:href="#DejaVuSans-20" transform="translate(780.554688 0)"/>
     <use xlink:href="#DejaVuSans-6c" transform="translate(812.341797 0)"/>
     <use xlink:href="#DejaVuSans-61" transform="translate(840.125 0)"/>
     <use xlink:href="#DejaVuSans-20" transform="translate(901.404297 0)"/>
     <use xlink:href="#DejaVuSans-74" transform="translate(933.191406 0)"/>
     <use xlink:href="#DejaVuSans-61" transform="translate(972.400391 0)"/>
     <use xlink:href="#DejaVuSans-6e" transform="translate(1033.679688 0)"/>
     <use xlink:href="#DejaVuSans-67" transform="translate(1097.058594 0)"/>
     <use xlink:href="#DejaVuSans-65" transform="translate(1160.535156 0)"/>
     <use xlink:href="#DejaVuSans-6e" transform="translate(1222.058594 0)"/>
     <use xlink:href="#DejaVuSans-74" transform="translate(1285.4375 0)"/>
     <use xlink:href="#DejaVuSans-65" transform="translate(1324.646484 0)"/>
    </g>
   </g>
   <g id="text_40">
    <!-- Plano Rectificante -->
    <g style="fill: #06b6d4" transform="translate(737.574015 555.007503) scale(0.1 -0.1)">
     <defs>
      <path id="DejaVuSans-Bold-66" d="M 2841 4863 
L 2841 4128 
L 2222 4128 
Q 1984 4128 1890 4042 
Q 1797 3956 1797 3744 
L 1797 3500 
L 2753 3500 
L 2753 2700 
L 1797 2700 
L 1797 0 
L 678 0 
L 678 2700 
L 122 2700 
L 122 3500 
L 678 3500 
L 678 3744 
Q 678 4316 997 4589 
Q 1316 4863 1984 4863 
L 2841 4863 
z
" transform="scale(0.015625)"/>
     </defs>
     <use xlink:href="#DejaVuSans-Bold-50"/>
     <use xlink:href="#DejaVuSans-Bold-6c" transform="translate(73.291016 0)"/>
     <use xlink:href="#DejaVuSans-Bold-61" transform="translate(107.568359 0)"/>
     <use xlink:href="#DejaVuSans-Bold-6e" transform="translate(175.048828 0)"/>
     <use xlink:href="#DejaVuSans-Bold-6f" transform="translate(246.240234 0)"/>
     <use xlink:href="#DejaVuSans-Bold-20" transform="translate(314.941406 0)"/>
     <use xlink:href="#DejaVuSans-Bold-52" transform="translate(349.755859 0)"/>
     <use xlink:href="#DejaVuSans-Bold-65" transform="translate(426.757812 0)"/>
     <use xlink:href="#DejaVuSans-Bold-63" transform="translate(494.580078 0)"/>
     <use xlink:href="#DejaVuSans-Bold-74" transform="translate(553.857422 0)"/>
     <use xlink:href="#DejaVuSans-Bold-69" transform="translate(601.660156 0)"/>
     <use xlink:href="#DejaVuSans-Bold-66" transform="translate(635.9375 0)"/>
     <use xlink:href="#DejaVuSans-Bold-69" transform="translate(679.443359 0)"/>
     <use xlink:href="#DejaVuSans-Bold-63" transform="translate(713.720703 0)"/>
     <use xlink:href="#DejaVuSans-Bold-61" transform="translate(772.998047 0)"/>
     <use xlink:href="#DejaVuSans-Bold-6e" transform="translate(840.478516 0)"/>
     <use xlink:href="#DejaVuSans-Bold-74" transform="translate(911.669922 0)"/>
     <use xlink:href="#DejaVuSans-Bold-65" transform="translate(959.472656 0)"/>
    </g>
   </g>
   <g id="text_41">
    <!-- Generado por: $\mathbf{T}$ y $\mathbf{B}$ -->
    <g style="fill: #1f2937" transform="translate(737.83964 576.744122) scale(0.1 -0.1)">
     <use xlink:href="#DejaVuSans-47" transform="translate(0 0.015625)"/>
     <use xlink:href="#DejaVuSans-65" transform="translate(77.490234 0.015625)"/>
     <use xlink:href="#DejaVuSans-6e" transform="translate(139.013672 0.015625)"/>
     <use xlink:href="#DejaVuSans-65" transform="translate(202.392578 0.015625)"/>
     <use xlink:href="#DejaVuSans-72" transform="translate(263.916016 0.015625)"/>
     <use xlink:href="#DejaVuSans-61" transform="translate(305.029297 0.015625)"/>
     <use xlink:href="#DejaVuSans-64" transform="translate(366.308594 0.015625)"/>
     <use xlink:href="#DejaVuSans-6f" transform="translate(429.785156 0.015625)"/>
     <use xlink:href="#DejaVuSans-20" transform="translate(490.966797 0.015625)"/>
     <use xlink:href="#DejaVuSans-70" transform="translate(522.753906 0.015625)"/>
     <use xlink:href="#DejaVuSans-6f" transform="translate(586.230469 0.015625)"/>
     <use xlink:href="#DejaVuSans-72" transform="translate(647.412109 0.015625)"/>
     <use xlink:href="#DejaVuSans-3a" transform="translate(688.525391 0.015625)"/>
     <use xlink:href="#DejaVuSans-20" transform="translate(722.216797 0.015625)"/>
     <use xlink:href="#DejaVuSans-Bold-54" transform="translate(754.003906 0.015625)"/>
     <use xlink:href="#DejaVuSans-20" transform="translate(822.216797 0.015625)"/>
     <use xlink:href="#DejaVuSans-79" transform="translate(854.003906 0.015625)"/>
     <use xlink:href="#DejaVuSans-20" transform="translate(913.183594 0.015625)"/>
     <use xlink:href="#DejaVuSans-Bold-42" transform="translate(944.970703 0.015625)"/>
    </g>
   </g>
   <g id="text_42">
    <!-- Perpendicular a la normal -->
    <g style="fill: #6b7280" transform="translate(731.178624 596.065562) scale(0.09 -0.09)">
     <use xlink:href="#DejaVuSans-50"/>
     <use xlink:href="#DejaVuSans-65" transform="translate(56.677734 0)"/>
     <use xlink:href="#DejaVuSans-72" transform="translate(118.201172 0)"/>
     <use xlink:href="#DejaVuSans-70" transform="translate(159.314453 0)"/>
     <use xlink:href="#DejaVuSans-65" transform="translate(222.791016 0)"/>
     <use xlink:href="#DejaVuSans-6e" transform="translate(284.314453 0)"/>
     <use xlink:href="#DejaVuSans-64" transform="translate(347.693359 0)"/>
     <use xlink:href="#DejaVuSans-69" transform="translate(411.169922 0)"/>
     <use xlink:href="#DejaVuSans-63" transform="translate(438.953125 0)"/>
     <use xlink:href="#DejaVuSans-75" transform="translate(493.933594 0)"/>
     <use xlink:href="#DejaVuSans-6c" transform="translate(557.3125 0)"/>
     <use xlink:href="#DejaVuSans-61" transform="translate(585.095703 0)"/>
     <use xlink:href="#DejaVuSans-72" transform="translate(646.375 0)"/>
     <use xlink:href="#DejaVuSans-20" transform="translate(687.488281 0)"/>
     <use xlink:href="#DejaVuSans-61" transform="translate(719.275391 0)"/>
     <use xlink:href="#DejaVuSans-20" transform="translate(780.554688 0)"/>
     <use xlink:href="#DejaVuSans-6c" transform="translate(812.341797 0)"/>
     <use xlink:href="#DejaVuSans-61" transform="translate(840.125 0)"/>
     <use xlink:href="#DejaVuSans-20" transform="translate(901.404297 0)"/>
     <use xlink:href="#DejaVuSans-6e" transform="translate(933.191406 0)"/>
     <use xlink:href="#DejaVuSans-6f" transform="translate(996.570312 0)"/>
     <use xlink:href="#DejaVuSans-72" transform="translate(1057.751953 0)"/>
     <use xlink:href="#DejaVuSans-6d" transform="translate(1097.115234 0)"/>
     <use xlink:href="#DejaVuSans-61" transform="translate(1194.527344 0)"/>
     <use xlink:href="#DejaVuSans-6c" transform="translate(1255.806641 0)"/>
    </g>
   </g>
  </g>
  <g id="text_43">
   <!-- Marco de Frenet-Serret (TNB) -->
   <g style="fill: #1f2937" transform="translate(391.358823 17.837812) scale(0.14 -0.14)">
    <defs>
     <path id="DejaVuSans-Bold-28" d="M 2413 -844 
L 1484 -844 
Q 1006 -72 778 623 
Q 550 1319 550 2003 
Q 550 2688 779 3389 
Q 1009 4091 1484 4856 
L 2413 4856 
Q 2013 4116 1813 3408 
Q 1613 2700 1613 2009 
Q 1613 1319 1811 609 
Q 2009 -100 2413 -844 
z
" transform="scale(0.015625)"/>
     <path id="DejaVuSans-Bold-29" d="M 513 -844 
Q 913 -100 1113 609 
Q 1313 1319 1313 2009 
Q 1313 2700 1113 3408 
Q 913 4116 513 4856 
L 1441 4856 
Q 1916 4091 2145 3389 
Q 2375 2688 2375 2003 
Q 2375 1319 2147 623 
Q 1919 -72 1441 -844 
L 513 -844 
z
" transform="scale(0.015625)"/>
    </defs>
    <use xlink:href="#DejaVuSans-Bold-4d"/>
    <use xlink:href="#DejaVuSans-Bold-61" transform="translate(99.511719 0)"/>
    <use xlink:href="#DejaVuSans-Bold-72" transform="translate(166.992188 0)"/>
    <use xlink:href="#DejaVuSans-Bold-63" transform="translate(216.308594 0)"/>
    <use xlink:href="#DejaVuSans-Bold-6f" transform="translate(275.585938 0)"/>
    <use xlink:href="#DejaVuSans-Bold-20" transform="translate(344.287109 0)"/>
    <use xlink:href="#DejaVuSans-Bold-64" transform="translate(379.101562 0)"/>
    <use xlink:href="#DejaVuSans-Bold-65" transform="translate(450.683594 0)"/>
    <use xlink:href="#DejaVuSans-Bold-20" transform="translate(518.505859 0)"/>
    <use xlink:href="#DejaVuSans-Bold-46" transform="translate(553.320312 0)"/>
    <use xlink:href="#DejaVuSans-Bold-72" transform="translate(615.255859 0)"/>
    <use xlink:href="#DejaVuSans-Bold-65" transform="translate(664.572266 0)"/>
    <use xlink:href="#DejaVuSans-Bold-6e" transform="translate(732.394531 0)"/>
    <use xlink:href="#DejaVuSans-Bold-65" transform="translate(803.585938 0)"/>
    <use xlink:href="#DejaVuSans-Bold-74" transform="translate(871.408203 0)"/>
    <use xlink:href="#DejaVuSans-Bold-2d" transform="translate(919.210938 0)"/>
    <use xlink:href="#DejaVuSans-Bold-53" transform="translate(960.714844 0)"/>
    <use xlink:href="#DejaVuSans-Bold-65" transform="translate(1032.736328 0)"/>
    <use xlink:href="#DejaVuSans-Bold-72" transform="translate(1100.558594 0)"/>
    <use xlink:href="#DejaVuSans-Bold-72" transform="translate(1149.875 0)"/>
    <use xlink:href="#DejaVuSans-Bold-65" transform="translate(1199.191406 0)"/>
    <use xlink:href="#DejaVuSans-Bold-74" transform="translate(1267.013672 0)"/>
    <use xlink:href="#DejaVuSans-Bold-20" transform="translate(1314.816406 0)"/>
    <use xlink:href="#DejaVuSans-Bold-28" transform="translate(1349.630859 0)"/>
    <use xlink:href="#DejaVuSans-Bold-54" transform="translate(1395.333984 0)"/>
    <use xlink:href="#DejaVuSans-Bold-4e" transform="translate(1463.546875 0)"/>
    <use xlink:href="#DejaVuSans-Bold-42" transform="translate(1547.238281 0)"/>
    <use xlink:href="#DejaVuSans-Bold-29" transform="translate(1623.458984 0)"/>
   </g>
  </g>
 </g>
 <defs>
  <clipPath id="p8ded01f819">
   <rect x="351.213065" y="45.108136" width="313.973391" height="313.973391"/>
  </clipPath>
  <clipPath id="p7ed2ecbfd8">
   <rect x="7.2" y="407.681527" width="440.51976" height="241.517993"/>
  </clipPath>
  <clipPath id="p5af1bb3f76">
   <rect x="568.67976" y="407.681527" width="440.51976" height="241.517993"/>
  </clipPath>
 </defs>
</svg>
