<?xml version="1.0" encoding="utf-8" standalone="no"?>
<!DOCTYPE svg PUBLIC "-//W3C//DTD SVG 1.1//EN"
  "http://www.w3.org/Graphics/SVG/1.1/DTD/svg11.dtd">
<svg xmlns:xlink="http://www.w3.org/1999/xlink" width="965.955352pt" height="512.39952pt" viewBox="0 0 965.955352 512.39952" xmlns="http://www.w3.org/2000/svg" version="1.1">
 <metadata>
  <rdf:RDF xmlns:dc="http://purl.org/dc/elements/1.1/" xmlns:cc="http://creativecommons.org/ns#" xmlns:rdf="http://www.w3.org/1999/02/22-rdf-syntax-ns#">
   <cc:Work>
    <dc:type rdf:resource="http://purl.org/dc/dcmitype/StillImage"/>
    <dc:date>2026-01-04T22:14:59.331708</dc:date>
    <dc:format>image/svg+xml</dc:format>
    <dc:creator>
     <cc:Agent>
      <dc:title>Repositorio Matemáticas Universitarias</dc:title>
     </cc:Agent>
    </dc:creator>
   </cc:Work>
  </rdf:RDF>
 </metadata>
 <defs>
  <style type="text/css">*{stroke-linejoin: round; stroke-linecap: butt}</style>
 </defs>
 <g id="figure_1">
  <g id="patch_1">
   <path d="M 0 512.39952 
L 965.955352 512.39952 
L 965.955352 0 
L 0 0 
z
" style="fill: #ffffff"/>
  </g>
  <g id="patch_2">
   <path d="M 7.2 505.19952 
L 467.291384 505.19952 
L 467.291384 45.108136 
L 7.2 45.108136 
z
" style="fill: #ffffff"/>
  </g>
  <g id="pane3d_1">
   <g id="patch_3">
    <path d="M 243.463143 326.072419 
L 433.375793 395.12631 
L 440.659406 137.906752 
L 243.463143 84.224465 
" style="fill: none; opacity: 0.5; stroke: #e5e7eb; stroke-linejoin: miter"/>
   </g>
  </g>
  <g id="pane3d_2">
   <g id="patch_4">
    <path d="M 243.463143 326.072419 
L 53.550493 395.12631 
L 46.26688 137.906752 
L 243.463143 84.224465 
" style="fill: none; opacity: 0.5; stroke: #e5e7eb; stroke-linejoin: miter"/>
   </g>
  </g>
  <g id="pane3d_3">
   <g id="patch_5">
    <path d="M 243.463143 326.072419 
L 53.550493 395.12631 
L 243.463143 474.856583 
L 433.375793 395.12631 
" style="fill: none; opacity: 0.5; stroke: #e5e7eb; stroke-linejoin: miter"/>
   </g>
  </g>
  <g id="grid3d_1">
   <g id="Line3DCollection_1">
    <path d="M 433.375793 395.12631 
L 243.463143 326.072419 
L 243.463143 84.224465 
" style="fill: none; stroke: #e5e7eb; stroke-width: 0.8"/>
    <path d="M 403.639325 407.610453 
L 213.59697 336.932019 
L 212.518493 92.648456 
" style="fill: none; stroke: #e5e7eb; stroke-width: 0.8"/>
    <path d="M 373.174156 420.400524 
L 183.049037 348.039514 
L 180.841656 101.271769 
" style="fill: none; stroke: #e5e7eb; stroke-width: 0.8"/>
    <path d="M 341.953167 433.507908 
L 151.795731 359.403488 
L 148.406333 110.101562 
" style="fill: none; stroke: #e5e7eb; stroke-width: 0.8"/>
    <path d="M 309.947879 446.94456 
L 119.812335 371.032929 
L 115.184952 119.145343 
" style="fill: none; stroke: #e5e7eb; stroke-width: 0.8"/>
    <path d="M 277.128361 460.723048 
L 87.072963 382.937249 
L 81.148589 128.410984 
" style="fill: none; stroke: #e5e7eb; stroke-width: 0.8"/>
    <path d="M 243.463143 474.856583 
L 53.550493 395.12631 
L 46.26688 137.906752 
" style="fill: none; stroke: #e5e7eb; stroke-width: 0.8"/>
   </g>
  </g>
  <g id="grid3d_2">
   <g id="Line3DCollection_2">
    <path d="M 243.463143 84.224465 
L 243.463143 326.072419 
L 53.550493 395.12631 
" style="fill: none; stroke: #e5e7eb; stroke-width: 0.8"/>
    <path d="M 274.407793 92.648456 
L 273.329316 336.932019 
L 83.286961 407.610453 
" style="fill: none; stroke: #e5e7eb; stroke-width: 0.8"/>
    <path d="M 306.08463 101.271769 
L 303.877249 348.039514 
L 113.75213 420.400524 
" style="fill: none; stroke: #e5e7eb; stroke-width: 0.8"/>
    <path d="M 338.519953 110.101562 
L 335.130555 359.403488 
L 144.973119 433.507908 
" style="fill: none; stroke: #e5e7eb; stroke-width: 0.8"/>
    <path d="M 371.741334 119.145343 
L 367.113951 371.032929 
L 176.978407 446.94456 
" style="fill: none; stroke: #e5e7eb; stroke-width: 0.8"/>
    <path d="M 405.777697 128.410984 
L 399.853323 382.937249 
L 209.797925 460.723048 
" style="fill: none; stroke: #e5e7eb; stroke-width: 0.8"/>
    <path d="M 440.659406 137.906752 
L 433.375793 395.12631 
L 243.463143 474.856583 
" style="fill: none; stroke: #e5e7eb; stroke-width: 0.8"/>
   </g>
  </g>
  <g id="grid3d_3">
   <g id="Line3DCollection_3">
    <path d="M 53.550493 395.12631 
L 243.463143 326.072419 
L 433.375793 395.12631 
" style="fill: none; stroke: #e5e7eb; stroke-width: 0.8"/>
    <path d="M 52.374154 353.584089 
L 243.463143 286.928722 
L 434.552132 353.584089 
" style="fill: none; stroke: #e5e7eb; stroke-width: 0.8"/>
    <path d="M 51.183151 311.524025 
L 243.463143 247.330132 
L 435.743135 311.524025 
" style="fill: none; stroke: #e5e7eb; stroke-width: 0.8"/>
    <path d="M 49.977209 268.936377 
L 243.463143 207.268671 
L 436.949077 268.936377 
" style="fill: none; stroke: #e5e7eb; stroke-width: 0.8"/>
    <path d="M 48.756044 225.811154 
L 243.463143 166.736178 
L 438.170242 225.811154 
" style="fill: none; stroke: #e5e7eb; stroke-width: 0.8"/>
    <path d="M 47.519367 182.138114 
L 243.463143 125.724294 
L 439.406919 182.138114 
" style="fill: none; stroke: #e5e7eb; stroke-width: 0.8"/>
    <path d="M 46.26688 137.906752 
L 243.463143 84.224465 
L 440.659406 137.906752 
" style="fill: none; stroke: #e5e7eb; stroke-width: 0.8"/>
   </g>
  </g>
  <g id="axis3d_1">
   <g id="line2d_1">
    <path d="M 433.375793 395.12631 
L 243.463143 474.856583 
" style="fill: none; stroke: #000000; stroke-width: 1.5; stroke-linecap: square"/>
   </g>
   <g id="xtick_1">
    <g id="line2d_2">
     <path d="M 431.748404 394.534578 
L 436.636181 396.311816 
" style="fill: none; stroke: #1f2937; stroke-width: 0.8; stroke-linecap: square"/>
    </g>
    <g id="text_1">
     <!-- 0.0 -->
     <g style="fill: #1f2937" transform="translate(433.281066 419.710155) scale(0.12 -0.12)">
      <defs>
       <path id="DejaVuSans-30" d="M 2034 4250 
Q 1547 4250 1301 3770 
Q 1056 3291 1056 2328 
Q 1056 1369 1301 889 
Q 1547 409 2034 409 
Q 2525 409 2770 889 
Q 3016 1369 3016 2328 
Q 3016 3291 2770 3770 
Q 2525 4250 2034 4250 
z
M 2034 4750 
Q 2819 4750 3233 4129 
Q 3647 3509 3647 2328 
Q 3647 1150 3233 529 
Q 2819 -91 2034 -91 
Q 1250 -91 836 529 
Q 422 1150 422 2328 
Q 422 3509 836 4129 
Q 1250 4750 2034 4750 
z
" transform="scale(0.015625)"/>
       <path id="DejaVuSans-2e" d="M 684 794 
L 1344 794 
L 1344 0 
L 684 0 
L 684 794 
z
" transform="scale(0.015625)"/>
      </defs>
      <use xlink:href="#DejaVuSans-30"/>
      <use xlink:href="#DejaVuSans-2e" transform="translate(63.623047 0)"/>
      <use xlink:href="#DejaVuSans-30" transform="translate(95.410156 0)"/>
     </g>
    </g>
   </g>
   <g id="xtick_2">
    <g id="line2d_3">
     <path d="M 402.009517 407.004313 
L 406.904629 408.824849 
" style="fill: none; stroke: #1f2937; stroke-width: 0.8; stroke-linecap: square"/>
    </g>
    <g id="text_2">
     <!-- 0.5 -->
     <g style="fill: #1f2937" transform="translate(403.608764 432.402968) scale(0.12 -0.12)">
      <defs>
       <path id="DejaVuSans-35" d="M 691 4666 
L 3169 4666 
L 3169 4134 
L 1269 4134 
L 1269 2991 
Q 1406 3038 1543 3061 
Q 1681 3084 1819 3084 
Q 2600 3084 3056 2656 
Q 3513 2228 3513 1497 
Q 3513 744 3044 326 
Q 2575 -91 1722 -91 
Q 1428 -91 1123 -41 
Q 819 9 494 109 
L 494 744 
Q 775 591 1075 516 
Q 1375 441 1709 441 
Q 2250 441 2565 725 
Q 2881 1009 2881 1497 
Q 2881 1984 2565 2268 
Q 2250 2553 1709 2553 
Q 1456 2553 1204 2497 
Q 953 2441 691 2322 
L 691 4666 
z
" transform="scale(0.015625)"/>
      </defs>
      <use xlink:href="#DejaVuSans-30"/>
      <use xlink:href="#DejaVuSans-2e" transform="translate(63.623047 0)"/>
      <use xlink:href="#DejaVuSans-35" transform="translate(95.410156 0)"/>
     </g>
    </g>
   </g>
   <g id="xtick_3">
    <g id="line2d_4">
     <path d="M 371.542297 419.779444 
L 376.443639 421.644879 
" style="fill: none; stroke: #1f2937; stroke-width: 0.8; stroke-linecap: square"/>
    </g>
    <g id="text_3">
     <!-- 1.0 -->
     <g style="fill: #1f2937" transform="translate(373.208086 445.407356) scale(0.12 -0.12)">
      <defs>
       <path id="DejaVuSans-31" d="M 794 531 
L 1825 531 
L 1825 4091 
L 703 3866 
L 703 4441 
L 1819 4666 
L 2450 4666 
L 2450 531 
L 3481 531 
L 3481 0 
L 794 0 
L 794 531 
z
" transform="scale(0.015625)"/>
      </defs>
      <use xlink:href="#DejaVuSans-31"/>
      <use xlink:href="#DejaVuSans-2e" transform="translate(63.623047 0)"/>
      <use xlink:href="#DejaVuSans-30" transform="translate(95.410156 0)"/>
     </g>
    </g>
   </g>
   <g id="xtick_4">
    <g id="line2d_5">
     <path d="M 340.319656 432.871328 
L 345.226032 434.783344 
" style="fill: none; stroke: #1f2937; stroke-width: 0.8; stroke-linecap: square"/>
    </g>
    <g id="text_4">
     <!-- 1.5 -->
     <g style="fill: #1f2937" transform="translate(342.051879 458.734934) scale(0.12 -0.12)">
      <use xlink:href="#DejaVuSans-31"/>
      <use xlink:href="#DejaVuSans-2e" transform="translate(63.623047 0)"/>
      <use xlink:href="#DejaVuSans-35" transform="translate(95.410156 0)"/>
     </g>
    </g>
   </g>
   <g id="xtick_5">
    <g id="line2d_6">
     <path d="M 308.313147 446.291894 
L 313.223263 448.252258 
" style="fill: none; stroke: #1f2937; stroke-width: 0.8; stroke-linecap: square"/>
    </g>
    <g id="text_5">
     <!-- 2.0 -->
     <g style="fill: #1f2937" transform="translate(310.111623 472.397902) scale(0.12 -0.12)">
      <defs>
       <path id="DejaVuSans-32" d="M 1228 531 
L 3431 531 
L 3431 0 
L 469 0 
L 469 531 
Q 828 903 1448 1529 
Q 2069 2156 2228 2338 
Q 2531 2678 2651 2914 
Q 2772 3150 2772 3378 
Q 2772 3750 2511 3984 
Q 2250 4219 1831 4219 
Q 1534 4219 1204 4116 
Q 875 4013 500 3803 
L 500 4441 
Q 881 4594 1212 4672 
Q 1544 4750 1819 4750 
Q 2544 4750 2975 4387 
Q 3406 4025 3406 3419 
Q 3406 3131 3298 2873 
Q 3191 2616 2906 2266 
Q 2828 2175 2409 1742 
Q 1991 1309 1228 531 
z
" transform="scale(0.015625)"/>
      </defs>
      <use xlink:href="#DejaVuSans-32"/>
      <use xlink:href="#DejaVuSans-2e" transform="translate(63.623047 0)"/>
      <use xlink:href="#DejaVuSans-30" transform="translate(95.410156 0)"/>
     </g>
    </g>
   </g>
   <g id="xtick_6">
    <g id="line2d_7">
     <path d="M 275.492874 460.053676 
L 280.405334 462.064246 
" style="fill: none; stroke: #1f2937; stroke-width: 0.8; stroke-linecap: square"/>
    </g>
    <g id="text_6">
     <!-- 2.5 -->
     <g style="fill: #1f2937" transform="translate(277.357346 486.40908) scale(0.12 -0.12)">
      <use xlink:href="#DejaVuSans-32"/>
      <use xlink:href="#DejaVuSans-2e" transform="translate(63.623047 0)"/>
      <use xlink:href="#DejaVuSans-35" transform="translate(95.410156 0)"/>
     </g>
    </g>
   </g>
   <g id="xtick_7">
    <g id="line2d_8">
     <path d="M 241.827404 474.169857 
L 246.740698 476.232585 
" style="fill: none; stroke: #1f2937; stroke-width: 0.8; stroke-linecap: square"/>
    </g>
    <g id="text_7">
     <!-- 3.0 -->
     <g style="fill: #1f2937" transform="translate(243.757527 500.781953) scale(0.12 -0.12)">
      <defs>
       <path id="DejaVuSans-33" d="M 2597 2516 
Q 3050 2419 3304 2112 
Q 3559 1806 3559 1356 
Q 3559 666 3084 287 
Q 2609 -91 1734 -91 
Q 1441 -91 1130 -33 
Q 819 25 488 141 
L 488 750 
Q 750 597 1062 519 
Q 1375 441 1716 441 
Q 2309 441 2620 675 
Q 2931 909 2931 1356 
Q 2931 1769 2642 2001 
Q 2353 2234 1838 2234 
L 1294 2234 
L 1294 2753 
L 1863 2753 
Q 2328 2753 2575 2939 
Q 2822 3125 2822 3475 
Q 2822 3834 2567 4026 
Q 2313 4219 1838 4219 
Q 1578 4219 1281 4162 
Q 984 4106 628 3988 
L 628 4550 
Q 988 4650 1302 4700 
Q 1616 4750 1894 4750 
Q 2613 4750 3031 4423 
Q 3450 4097 3450 3541 
Q 3450 3153 3228 2886 
Q 3006 2619 2597 2516 
z
" transform="scale(0.015625)"/>
      </defs>
      <use xlink:href="#DejaVuSans-33"/>
      <use xlink:href="#DejaVuSans-2e" transform="translate(63.623047 0)"/>
      <use xlink:href="#DejaVuSans-30" transform="translate(95.410156 0)"/>
     </g>
    </g>
   </g>
  </g>
  <g id="axis3d_2">
   <g id="line2d_9">
    <path d="M 53.550493 395.12631 
L 243.463143 474.856583 
" style="fill: none; stroke: #000000; stroke-width: 1.5; stroke-linecap: square"/>
   </g>
   <g id="xtick_8">
    <g id="line2d_10">
     <path d="M 55.177882 394.534578 
L 50.290105 396.311816 
" style="fill: none; stroke: #1f2937; stroke-width: 0.8; stroke-linecap: square"/>
    </g>
    <g id="text_8">
     <!-- 0.0 -->
     <g style="fill: #1f2937" transform="translate(34.56147 419.710155) scale(0.12 -0.12)">
      <use xlink:href="#DejaVuSans-30"/>
      <use xlink:href="#DejaVuSans-2e" transform="translate(63.623047 0)"/>
      <use xlink:href="#DejaVuSans-30" transform="translate(95.410156 0)"/>
     </g>
    </g>
   </g>
   <g id="xtick_9">
    <g id="line2d_11">
     <path d="M 84.916769 407.004313 
L 80.021657 408.824849 
" style="fill: none; stroke: #1f2937; stroke-width: 0.8; stroke-linecap: square"/>
    </g>
    <g id="text_9">
     <!-- 0.5 -->
     <g style="fill: #1f2937" transform="translate(64.233772 432.402968) scale(0.12 -0.12)">
      <use xlink:href="#DejaVuSans-30"/>
      <use xlink:href="#DejaVuSans-2e" transform="translate(63.623047 0)"/>
      <use xlink:href="#DejaVuSans-35" transform="translate(95.410156 0)"/>
     </g>
    </g>
   </g>
   <g id="xtick_10">
    <g id="line2d_12">
     <path d="M 115.383989 419.779444 
L 110.482647 421.644879 
" style="fill: none; stroke: #1f2937; stroke-width: 0.8; stroke-linecap: square"/>
    </g>
    <g id="text_10">
     <!-- 1.0 -->
     <g style="fill: #1f2937" transform="translate(94.63445 445.407356) scale(0.12 -0.12)">
      <use xlink:href="#DejaVuSans-31"/>
      <use xlink:href="#DejaVuSans-2e" transform="translate(63.623047 0)"/>
      <use xlink:href="#DejaVuSans-30" transform="translate(95.410156 0)"/>
     </g>
    </g>
   </g>
   <g id="xtick_11">
    <g id="line2d_13">
     <path d="M 146.60663 432.871328 
L 141.700254 434.783344 
" style="fill: none; stroke: #1f2937; stroke-width: 0.8; stroke-linecap: square"/>
    </g>
    <g id="text_11">
     <!-- 1.5 -->
     <g style="fill: #1f2937" transform="translate(125.790657 458.734934) scale(0.12 -0.12)">
      <use xlink:href="#DejaVuSans-31"/>
      <use xlink:href="#DejaVuSans-2e" transform="translate(63.623047 0)"/>
      <use xlink:href="#DejaVuSans-35" transform="translate(95.410156 0)"/>
     </g>
    </g>
   </g>
   <g id="xtick_12">
    <g id="line2d_14">
     <path d="M 178.613139 446.291894 
L 173.703023 448.252258 
" style="fill: none; stroke: #1f2937; stroke-width: 0.8; stroke-linecap: square"/>
    </g>
    <g id="text_12">
     <!-- 2.0 -->
     <g style="fill: #1f2937" transform="translate(157.730913 472.397902) scale(0.12 -0.12)">
      <use xlink:href="#DejaVuSans-32"/>
      <use xlink:href="#DejaVuSans-2e" transform="translate(63.623047 0)"/>
      <use xlink:href="#DejaVuSans-30" transform="translate(95.410156 0)"/>
     </g>
    </g>
   </g>
   <g id="xtick_13">
    <g id="line2d_15">
     <path d="M 211.433412 460.053676 
L 206.520952 462.064246 
" style="fill: none; stroke: #1f2937; stroke-width: 0.8; stroke-linecap: square"/>
    </g>
    <g id="text_13">
     <!-- 2.5 -->
     <g style="fill: #1f2937" transform="translate(190.48519 486.40908) scale(0.12 -0.12)">
      <use xlink:href="#DejaVuSans-32"/>
      <use xlink:href="#DejaVuSans-2e" transform="translate(63.623047 0)"/>
      <use xlink:href="#DejaVuSans-35" transform="translate(95.410156 0)"/>
     </g>
    </g>
   </g>
   <g id="xtick_14">
    <g id="line2d_16">
     <path d="M 245.098882 474.169857 
L 240.185588 476.232585 
" style="fill: none; stroke: #1f2937; stroke-width: 0.8; stroke-linecap: square"/>
    </g>
    <g id="text_14">
     <!-- 3.0 -->
     <g style="fill: #1f2937" transform="translate(224.085009 500.781953) scale(0.12 -0.12)">
      <use xlink:href="#DejaVuSans-33"/>
      <use xlink:href="#DejaVuSans-2e" transform="translate(63.623047 0)"/>
      <use xlink:href="#DejaVuSans-30" transform="translate(95.410156 0)"/>
     </g>
    </g>
   </g>
  </g>
  <g id="axis3d_3">
   <g id="line2d_17">
    <path d="M 53.550493 395.12631 
L 46.26688 137.906752 
" style="fill: none; stroke: #000000; stroke-width: 1.5; stroke-linecap: square"/>
   </g>
   <g id="xtick_15">
    <g id="line2d_18">
     <path d="M 55.177882 394.534578 
L 50.290105 396.311816 
" style="fill: none; stroke: #1f2937; stroke-width: 0.8; stroke-linecap: square"/>
    </g>
    <g id="text_15">
     <!-- 0.0 -->
     <g style="fill: #1f2937" transform="translate(25.780625 404.244435) scale(0.12 -0.12)">
      <use xlink:href="#DejaVuSans-30"/>
      <use xlink:href="#DejaVuSans-2e" transform="translate(63.623047 0)"/>
      <use xlink:href="#DejaVuSans-30" transform="translate(95.410156 0)"/>
     </g>
    </g>
   </g>
   <g id="xtick_16">
    <g id="line2d_19">
     <path d="M 54.012296 353.012675 
L 49.092187 354.728899 
" style="fill: none; stroke: #1f2937; stroke-width: 0.8; stroke-linecap: square"/>
    </g>
    <g id="text_16">
     <!-- 0.5 -->
     <g style="fill: #1f2937" transform="translate(24.49138 362.702214) scale(0.12 -0.12)">
      <use xlink:href="#DejaVuSans-30"/>
      <use xlink:href="#DejaVuSans-2e" transform="translate(63.623047 0)"/>
      <use xlink:href="#DejaVuSans-35" transform="translate(95.410156 0)"/>
     </g>
    </g>
   </g>
   <g id="xtick_17">
    <g id="line2d_20">
     <path d="M 52.832189 310.973484 
L 47.879318 312.627031 
" style="fill: none; stroke: #1f2937; stroke-width: 0.8; stroke-linecap: square"/>
    </g>
    <g id="text_17">
     <!-- 1.0 -->
     <g style="fill: #1f2937" transform="translate(23.186063 320.64215) scale(0.12 -0.12)">
      <use xlink:href="#DejaVuSans-31"/>
      <use xlink:href="#DejaVuSans-2e" transform="translate(63.623047 0)"/>
      <use xlink:href="#DejaVuSans-30" transform="translate(95.410156 0)"/>
     </g>
    </g>
   </g>
   <g id="xtick_18">
    <g id="line2d_21">
     <path d="M 51.637288 268.407278 
L 46.651219 269.996434 
" style="fill: none; stroke: #1f2937; stroke-width: 0.8; stroke-linecap: square"/>
    </g>
    <g id="text_18">
     <!-- 1.5 -->
     <g style="fill: #1f2937" transform="translate(21.864373 278.054502) scale(0.12 -0.12)">
      <use xlink:href="#DejaVuSans-31"/>
      <use xlink:href="#DejaVuSans-2e" transform="translate(63.623047 0)"/>
      <use xlink:href="#DejaVuSans-35" transform="translate(95.410156 0)"/>
     </g>
    </g>
   </g>
   <g id="xtick_19">
    <g id="line2d_22">
     <path d="M 50.427313 225.304084 
L 45.407598 226.827087 
" style="fill: none; stroke: #1f2937; stroke-width: 0.8; stroke-linecap: square"/>
    </g>
    <g id="text_19">
     <!-- 2.0 -->
     <g style="fill: #1f2937" transform="translate(20.526 234.929279) scale(0.12 -0.12)">
      <use xlink:href="#DejaVuSans-32"/>
      <use xlink:href="#DejaVuSans-2e" transform="translate(63.623047 0)"/>
      <use xlink:href="#DejaVuSans-30" transform="translate(95.410156 0)"/>
     </g>
    </g>
   </g>
   <g id="xtick_20">
    <g id="line2d_23">
     <path d="M 49.201976 181.653677 
L 44.148162 183.108712 
" style="fill: none; stroke: #1f2937; stroke-width: 0.8; stroke-linecap: square"/>
    </g>
    <g id="text_20">
     <!-- 2.5 -->
     <g style="fill: #1f2937" transform="translate(19.170626 191.256239) scale(0.12 -0.12)">
      <use xlink:href="#DejaVuSans-32"/>
      <use xlink:href="#DejaVuSans-2e" transform="translate(63.623047 0)"/>
      <use xlink:href="#DejaVuSans-35" transform="translate(95.410156 0)"/>
     </g>
    </g>
   </g>
   <g id="xtick_21">
    <g id="line2d_24">
     <path d="M 47.960984 137.44557 
L 42.872605 138.830767 
" style="fill: none; stroke: #1f2937; stroke-width: 0.8; stroke-linecap: square"/>
    </g>
    <g id="text_21">
     <!-- 3.0 -->
     <g style="fill: #1f2937" transform="translate(17.797924 147.024877) scale(0.12 -0.12)">
      <use xlink:href="#DejaVuSans-33"/>
      <use xlink:href="#DejaVuSans-2e" transform="translate(63.623047 0)"/>
      <use xlink:href="#DejaVuSans-30" transform="translate(95.410156 0)"/>
     </g>
    </g>
   </g>
  </g>
  <g id="axes_1">
   <g id="line2d_25">
    <path d="M 211.427907 407.610453 
L 210.60912 236.512548 
" clip-path="url(#p4a47e7939c)" style="fill: none; stroke-dasharray: 3.7,1.6; stroke-dashoffset: 0; stroke: #9ca3af; stroke-opacity: 0.7"/>
   </g>
   <g id="line2d_26">
    <path d="M 119.812335 371.032929 
L 211.427907 407.610453 
" clip-path="url(#p4a47e7939c)" style="fill: none; stroke-dasharray: 3.7,1.6; stroke-dashoffset: 0; stroke: #9ca3af; stroke-opacity: 0.7"/>
   </g>
   <g id="line2d_27">
    <path d="M 335.130555 359.403488 
L 211.427907 407.610453 
" clip-path="url(#p4a47e7939c)" style="fill: none; stroke-dasharray: 3.7,1.6; stroke-dashoffset: 0; stroke: #9ca3af; stroke-opacity: 0.7"/>
   </g>
   <g id="line2d_28">
    <path d="M 211.427907 407.610453 
L 211.427907 407.610453 
" clip-path="url(#p4a47e7939c)" style="fill: none; stroke-dasharray: 3.7,1.6; stroke-dashoffset: 0; stroke: #9ca3af; stroke-opacity: 0.7"/>
   </g>
   <g id="line2d_29">
    <path d="M 243.463143 326.072419 
L 119.812335 371.032929 
" clip-path="url(#p4a47e7939c)" style="fill: none; stroke-dasharray: 5.55,2.4; stroke-dashoffset: 0; stroke: #dc2626; stroke-opacity: 0.7; stroke-width: 1.5"/>
   </g>
   <g id="line2d_30">
    <path d="M 119.812335 371.032929 
L 211.427907 407.610453 
" clip-path="url(#p4a47e7939c)" style="fill: none; stroke-dasharray: 5.55,2.4; stroke-dashoffset: 0; stroke: #10b981; stroke-opacity: 0.7; stroke-width: 1.5"/>
   </g>
   <g id="line2d_31">
    <path d="M 211.427907 407.610453 
L 210.60912 236.512548 
" clip-path="url(#p4a47e7939c)" style="fill: none; stroke-dasharray: 5.55,2.4; stroke-dashoffset: 0; stroke: #3b82f6; stroke-opacity: 0.7; stroke-width: 1.5"/>
   </g>
   <g id="Path3DCollection_1">
    <defs>
     <path id="m04e9677016" d="M 0 3.872983 
C 1.027127 3.872983 2.012324 3.464901 2.738613 2.738613 
C 3.464901 2.012324 3.872983 1.027127 3.872983 0 
C 3.872983 -1.027127 3.464901 -2.012324 2.738613 -2.738613 
C 2.012324 -3.464901 1.027127 -3.872983 0 -3.872983 
C -1.027127 -3.872983 -2.012324 -3.464901 -2.738613 -2.738613 
C -3.464901 -2.012324 -3.872983 -1.027127 -3.872983 0 
C -3.872983 1.027127 -3.464901 2.012324 -2.738613 2.738613 
C -2.012324 3.464901 -1.027127 3.872983 0 3.872983 
z
" style="stroke: #374151"/>
    </defs>
    <g clip-path="url(#p4a47e7939c)">
     <use xlink:href="#m04e9677016" x="243.463143" y="326.072419" style="fill: #374151; stroke: #374151"/>
    </g>
   </g>
   <g id="text_22">
    <!-- $\mathbf{i}$ -->
    <g style="fill: #dc2626" transform="translate(170.54765 344.577707) scale(0.14 -0.14)">
     <defs>
      <path id="DejaVuSans-Bold-69" d="M 538 3500 
L 1656 3500 
L 1656 0 
L 538 0 
L 538 3500 
z
M 538 4863 
L 1656 4863 
L 1656 3950 
L 538 3950 
L 538 4863 
z
" transform="scale(0.015625)"/>
     </defs>
     <use xlink:href="#DejaVuSans-Bold-69" transform="translate(0 0.015625)"/>
    </g>
   </g>
   <g id="text_23">
    <!-- $\mathbf{j}$ -->
    <g style="fill: #10b981" transform="translate(310.376895 354.826554) scale(0.14 -0.14)">
     <defs>
      <path id="DejaVuSans-Bold-6a" d="M 538 3500 
L 1656 3500 
L 1656 63 
Q 1656 -641 1318 -1011 
Q 981 -1381 341 -1381 
L -213 -1381 
L -213 -647 
L -19 -647 
Q 300 -647 419 -503 
Q 538 -359 538 63 
L 538 3500 
z
M 538 4863 
L 1656 4863 
L 1656 3950 
L 538 3950 
L 538 4863 
z
" transform="scale(0.015625)"/>
     </defs>
     <use xlink:href="#DejaVuSans-Bold-6a" transform="translate(0 0.015625)"/>
    </g>
   </g>
   <g id="text_24">
    <!-- $\mathbf{k}$ -->
    <g style="fill: #3b82f6" transform="translate(237.460418 233.329374) scale(0.14 -0.14)">
     <defs>
      <path id="DejaVuSans-Bold-6b" d="M 538 4863 
L 1656 4863 
L 1656 2216 
L 2944 3500 
L 4244 3500 
L 2534 1894 
L 4378 0 
L 3022 0 
L 1656 1459 
L 1656 0 
L 538 0 
L 538 4863 
z
" transform="scale(0.015625)"/>
     </defs>
     <use xlink:href="#DejaVuSans-Bold-6b" transform="translate(0 0.015625)"/>
    </g>
   </g>
   <g id="text_25">
    <!-- X -->
    <g style="fill: #374151" transform="translate(39.915914 400.083962) scale(0.12 -0.12)">
     <defs>
      <path id="DejaVuSans-58" d="M 403 4666 
L 1081 4666 
L 2241 2931 
L 3406 4666 
L 4084 4666 
L 2584 2425 
L 4184 0 
L 3506 0 
L 2194 1984 
L 872 0 
L 191 0 
L 1856 2491 
L 403 4666 
z
" transform="scale(0.015625)"/>
     </defs>
     <use xlink:href="#DejaVuSans-58"/>
    </g>
   </g>
   <g id="text_26">
    <!-- Y -->
    <g style="fill: #374151" transform="translate(447.010372 400.083962) scale(0.12 -0.12)">
     <defs>
      <path id="DejaVuSans-59" d="M -13 4666 
L 666 4666 
L 1959 2747 
L 3244 4666 
L 3922 4666 
L 2272 2222 
L 2272 0 
L 1638 0 
L 1638 2222 
L -13 4666 
z
" transform="scale(0.015625)"/>
     </defs>
     <use xlink:href="#DejaVuSans-59"/>
    </g>
   </g>
   <g id="text_27">
    <!-- Z -->
    <g style="fill: #374151" transform="translate(243.463143 67.485953) scale(0.12 -0.12)">
     <defs>
      <path id="DejaVuSans-5a" d="M 359 4666 
L 4025 4666 
L 4025 4184 
L 1075 531 
L 4097 531 
L 4097 0 
L 288 0 
L 288 481 
L 3238 4134 
L 359 4134 
L 359 4666 
z
" transform="scale(0.015625)"/>
     </defs>
     <use xlink:href="#DejaVuSans-5a"/>
    </g>
   </g>
   <g id="text_28">
    <!-- $P(2, 1.5, 2)$ -->
    <g style="fill: #059669" transform="translate(210.277123 225.354363) scale(0.1 -0.1)">
     <defs>
      <path id="DejaVuSans-Oblique-50" d="M 1081 4666 
L 2541 4666 
Q 3178 4666 3512 4369 
Q 3847 4072 3847 3500 
Q 3847 2731 3353 2303 
Q 2859 1875 1966 1875 
L 1172 1875 
L 806 0 
L 172 0 
L 1081 4666 
z
M 1613 4147 
L 1275 2394 
L 2069 2394 
Q 2606 2394 2893 2669 
Q 3181 2944 3181 3456 
Q 3181 3784 2986 3965 
Q 2791 4147 2438 4147 
L 1613 4147 
z
" transform="scale(0.015625)"/>
      <path id="DejaVuSans-28" d="M 1984 4856 
Q 1566 4138 1362 3434 
Q 1159 2731 1159 2009 
Q 1159 1288 1364 580 
Q 1569 -128 1984 -844 
L 1484 -844 
Q 1016 -109 783 600 
Q 550 1309 550 2009 
Q 550 2706 781 3412 
Q 1013 4119 1484 4856 
L 1984 4856 
z
" transform="scale(0.015625)"/>
      <path id="DejaVuSans-2c" d="M 750 794 
L 1409 794 
L 1409 256 
L 897 -744 
L 494 -744 
L 750 256 
L 750 794 
z
" transform="scale(0.015625)"/>
      <path id="DejaVuSans-29" d="M 513 4856 
L 1013 4856 
Q 1481 4119 1714 3412 
Q 1947 2706 1947 2009 
Q 1947 1309 1714 600 
Q 1481 -109 1013 -844 
L 513 -844 
Q 928 -128 1133 580 
Q 1338 1288 1338 2009 
Q 1338 2731 1133 3434 
Q 928 4138 513 4856 
z
" transform="scale(0.015625)"/>
     </defs>
     <use xlink:href="#DejaVuSans-Oblique-50" transform="translate(0 0.125)"/>
     <use xlink:href="#DejaVuSans-28" transform="translate(60.302734 0.125)"/>
     <use xlink:href="#DejaVuSans-32" transform="translate(99.316406 0.125)"/>
     <use xlink:href="#DejaVuSans-2c" transform="translate(162.939453 0.125)"/>
     <use xlink:href="#DejaVuSans-31" transform="translate(214.208984 0.125)"/>
     <use xlink:href="#DejaVuSans-2e" transform="translate(277.832031 0.125)"/>
     <use xlink:href="#DejaVuSans-35" transform="translate(309.619141 0.125)"/>
     <use xlink:href="#DejaVuSans-2c" transform="translate(373.242188 0.125)"/>
     <use xlink:href="#DejaVuSans-32" transform="translate(424.511719 0.125)"/>
     <use xlink:href="#DejaVuSans-29" transform="translate(488.134766 0.125)"/>
    </g>
   </g>
   <g id="text_29">
    <!-- O -->
    <g style="fill: #374151" transform="translate(243.463143 328.712443) scale(0.11 -0.11)">
     <defs>
      <path id="DejaVuSans-4f" d="M 2522 4238 
Q 1834 4238 1429 3725 
Q 1025 3213 1025 2328 
Q 1025 1447 1429 934 
Q 1834 422 2522 422 
Q 3209 422 3611 934 
Q 4013 1447 4013 2328 
Q 4013 3213 3611 3725 
Q 3209 4238 2522 4238 
z
M 2522 4750 
Q 3503 4750 4090 4092 
Q 4678 3434 4678 2328 
Q 4678 1225 4090 567 
Q 3503 -91 2522 -91 
Q 1538 -91 948 565 
Q 359 1222 359 2328 
Q 359 3434 948 4092 
Q 1538 4750 2522 4750 
z
" transform="scale(0.015625)"/>
     </defs>
     <use xlink:href="#DejaVuSans-4f"/>
    </g>
   </g>
   <g id="text_30">
    <!-- Sistema de Coordenadas en $\mathbb{R}^3$ -->
    <g style="fill: #1f2937" transform="translate(142.095692 35.108136) scale(0.11 -0.11)">
     <defs>
      <path id="DejaVuSans-Bold-53" d="M 3834 4519 
L 3834 3531 
Q 3450 3703 3084 3790 
Q 2719 3878 2394 3878 
Q 1963 3878 1756 3759 
Q 1550 3641 1550 3391 
Q 1550 3203 1689 3098 
Q 1828 2994 2194 2919 
L 2706 2816 
Q 3484 2659 3812 2340 
Q 4141 2022 4141 1434 
Q 4141 663 3683 286 
Q 3225 -91 2284 -91 
Q 1841 -91 1394 -6 
Q 947 78 500 244 
L 500 1259 
Q 947 1022 1364 901 
Q 1781 781 2169 781 
Q 2563 781 2772 912 
Q 2981 1044 2981 1288 
Q 2981 1506 2839 1625 
Q 2697 1744 2272 1838 
L 1806 1941 
Q 1106 2091 782 2419 
Q 459 2747 459 3303 
Q 459 4000 909 4375 
Q 1359 4750 2203 4750 
Q 2588 4750 2994 4692 
Q 3400 4634 3834 4519 
z
" transform="scale(0.015625)"/>
      <path id="DejaVuSans-Bold-73" d="M 3272 3391 
L 3272 2541 
Q 2913 2691 2578 2766 
Q 2244 2841 1947 2841 
Q 1628 2841 1473 2761 
Q 1319 2681 1319 2516 
Q 1319 2381 1436 2309 
Q 1553 2238 1856 2203 
L 2053 2175 
Q 2913 2066 3209 1816 
Q 3506 1566 3506 1031 
Q 3506 472 3093 190 
Q 2681 -91 1863 -91 
Q 1516 -91 1145 -36 
Q 775 19 384 128 
L 384 978 
Q 719 816 1070 734 
Q 1422 653 1784 653 
Q 2113 653 2278 743 
Q 2444 834 2444 1013 
Q 2444 1163 2330 1236 
Q 2216 1309 1875 1350 
L 1678 1375 
Q 931 1469 631 1722 
Q 331 1975 331 2491 
Q 331 3047 712 3315 
Q 1094 3584 1881 3584 
Q 2191 3584 2531 3537 
Q 2872 3491 3272 3391 
z
" transform="scale(0.015625)"/>
      <path id="DejaVuSans-Bold-74" d="M 1759 4494 
L 1759 3500 
L 2913 3500 
L 2913 2700 
L 1759 2700 
L 1759 1216 
Q 1759 972 1856 886 
Q 1953 800 2241 800 
L 2816 800 
L 2816 0 
L 1856 0 
Q 1194 0 917 276 
Q 641 553 641 1216 
L 641 2700 
L 84 2700 
L 84 3500 
L 641 3500 
L 641 4494 
L 1759 4494 
z
" transform="scale(0.015625)"/>
      <path id="DejaVuSans-Bold-65" d="M 4031 1759 
L 4031 1441 
L 1416 1441 
Q 1456 1047 1700 850 
Q 1944 653 2381 653 
Q 2734 653 3104 758 
Q 3475 863 3866 1075 
L 3866 213 
Q 3469 63 3072 -14 
Q 2675 -91 2278 -91 
Q 1328 -91 801 392 
Q 275 875 275 1747 
Q 275 2603 792 3093 
Q 1309 3584 2216 3584 
Q 3041 3584 3536 3087 
Q 4031 2591 4031 1759 
z
M 2881 2131 
Q 2881 2450 2695 2645 
Q 2509 2841 2209 2841 
Q 1884 2841 1681 2658 
Q 1478 2475 1428 2131 
L 2881 2131 
z
" transform="scale(0.015625)"/>
      <path id="DejaVuSans-Bold-6d" d="M 3781 2919 
Q 3994 3244 4286 3414 
Q 4578 3584 4928 3584 
Q 5531 3584 5847 3212 
Q 6163 2841 6163 2131 
L 6163 0 
L 5038 0 
L 5038 1825 
Q 5041 1866 5042 1909 
Q 5044 1953 5044 2034 
Q 5044 2406 4934 2573 
Q 4825 2741 4581 2741 
Q 4263 2741 4089 2478 
Q 3916 2216 3909 1719 
L 3909 0 
L 2784 0 
L 2784 1825 
Q 2784 2406 2684 2573 
Q 2584 2741 2328 2741 
Q 2006 2741 1831 2477 
Q 1656 2213 1656 1722 
L 1656 0 
L 531 0 
L 531 3500 
L 1656 3500 
L 1656 2988 
Q 1863 3284 2130 3434 
Q 2397 3584 2719 3584 
Q 3081 3584 3359 3409 
Q 3638 3234 3781 2919 
z
" transform="scale(0.015625)"/>
      <path id="DejaVuSans-Bold-61" d="M 2106 1575 
Q 1756 1575 1579 1456 
Q 1403 1338 1403 1106 
Q 1403 894 1545 773 
Q 1688 653 1941 653 
Q 2256 653 2472 879 
Q 2688 1106 2688 1447 
L 2688 1575 
L 2106 1575 
z
M 3816 1997 
L 3816 0 
L 2688 0 
L 2688 519 
Q 2463 200 2181 54 
Q 1900 -91 1497 -91 
Q 953 -91 614 226 
Q 275 544 275 1050 
Q 275 1666 698 1953 
Q 1122 2241 2028 2241 
L 2688 2241 
L 2688 2328 
Q 2688 2594 2478 2717 
Q 2269 2841 1825 2841 
Q 1466 2841 1156 2769 
Q 847 2697 581 2553 
L 581 3406 
Q 941 3494 1303 3539 
Q 1666 3584 2028 3584 
Q 2975 3584 3395 3211 
Q 3816 2838 3816 1997 
z
" transform="scale(0.015625)"/>
      <path id="DejaVuSans-Bold-20" transform="scale(0.015625)"/>
      <path id="DejaVuSans-Bold-64" d="M 2919 2988 
L 2919 4863 
L 4044 4863 
L 4044 0 
L 2919 0 
L 2919 506 
Q 2688 197 2409 53 
Q 2131 -91 1766 -91 
Q 1119 -91 703 423 
Q 288 938 288 1747 
Q 288 2556 703 3070 
Q 1119 3584 1766 3584 
Q 2128 3584 2408 3439 
Q 2688 3294 2919 2988 
z
M 2181 722 
Q 2541 722 2730 984 
Q 2919 1247 2919 1747 
Q 2919 2247 2730 2509 
Q 2541 2772 2181 2772 
Q 1825 2772 1636 2509 
Q 1447 2247 1447 1747 
Q 1447 1247 1636 984 
Q 1825 722 2181 722 
z
" transform="scale(0.015625)"/>
      <path id="DejaVuSans-Bold-43" d="M 4288 256 
Q 3956 84 3597 -3 
Q 3238 -91 2847 -91 
Q 1681 -91 1000 561 
Q 319 1213 319 2328 
Q 319 3447 1000 4098 
Q 1681 4750 2847 4750 
Q 3238 4750 3597 4662 
Q 3956 4575 4288 4403 
L 4288 3438 
Q 3953 3666 3628 3772 
Q 3303 3878 2944 3878 
Q 2300 3878 1931 3465 
Q 1563 3053 1563 2328 
Q 1563 1606 1931 1193 
Q 2300 781 2944 781 
Q 3303 781 3628 887 
Q 3953 994 4288 1222 
L 4288 256 
z
" transform="scale(0.015625)"/>
      <path id="DejaVuSans-Bold-6f" d="M 2203 2784 
Q 1831 2784 1636 2517 
Q 1441 2250 1441 1747 
Q 1441 1244 1636 976 
Q 1831 709 2203 709 
Q 2569 709 2762 976 
Q 2956 1244 2956 1747 
Q 2956 2250 2762 2517 
Q 2569 2784 2203 2784 
z
M 2203 3584 
Q 3106 3584 3614 3096 
Q 4122 2609 4122 1747 
Q 4122 884 3614 396 
Q 3106 -91 2203 -91 
Q 1297 -91 786 396 
Q 275 884 275 1747 
Q 275 2609 786 3096 
Q 1297 3584 2203 3584 
z
" transform="scale(0.015625)"/>
      <path id="DejaVuSans-Bold-72" d="M 3138 2547 
Q 2991 2616 2845 2648 
Q 2700 2681 2553 2681 
Q 2122 2681 1889 2404 
Q 1656 2128 1656 1613 
L 1656 0 
L 538 0 
L 538 3500 
L 1656 3500 
L 1656 2925 
Q 1872 3269 2151 3426 
Q 2431 3584 2822 3584 
Q 2878 3584 2943 3579 
Q 3009 3575 3134 3559 
L 3138 2547 
z
" transform="scale(0.015625)"/>
      <path id="DejaVuSans-Bold-6e" d="M 4056 2131 
L 4056 0 
L 2931 0 
L 2931 347 
L 2931 1631 
Q 2931 2084 2911 2256 
Q 2891 2428 2841 2509 
Q 2775 2619 2662 2680 
Q 2550 2741 2406 2741 
Q 2056 2741 1856 2470 
Q 1656 2200 1656 1722 
L 1656 0 
L 538 0 
L 538 3500 
L 1656 3500 
L 1656 2988 
Q 1909 3294 2193 3439 
Q 2478 3584 2822 3584 
Q 3428 3584 3742 3212 
Q 4056 2841 4056 2131 
z
" transform="scale(0.015625)"/>
      <path id="STIXGeneral-Italic-211d" d="M 1229 4179 
L 3360 4179 
Q 3827 4179 4108 3894 
Q 4390 3610 4390 3142 
Q 4390 2554 4060 2186 
Q 3731 1818 3149 1715 
L 4026 0 
L 2925 0 
L 2125 1690 
L 1549 1690 
L 1094 0 
L 109 0 
L 1229 4179 
z
M 3866 3821 
L 3392 2022 
Q 3770 2144 3962 2438 
Q 4154 2733 4154 3136 
Q 4154 3584 3866 3821 
z
M 3142 1978 
L 3648 3872 
Q 3450 3942 3296 3942 
L 2150 3942 
L 1613 1926 
L 2630 1926 
Q 2957 1926 3142 1978 
z
M 3629 237 
L 2899 1696 
Q 2829 1683 2682 1683 
Q 2630 1683 2531 1686 
Q 2432 1690 2387 1690 
L 3072 237 
L 3629 237 
z
M 1907 3942 
L 1408 3942 
L 416 237 
L 915 237 
L 1907 3942 
z
" transform="scale(0.015625)"/>
     </defs>
     <use xlink:href="#DejaVuSans-Bold-53" transform="translate(0 0.765625)"/>
     <use xlink:href="#DejaVuSans-Bold-69" transform="translate(72.021484 0.765625)"/>
     <use xlink:href="#DejaVuSans-Bold-73" transform="translate(106.298828 0.765625)"/>
     <use xlink:href="#DejaVuSans-Bold-74" transform="translate(165.820312 0.765625)"/>
     <use xlink:href="#DejaVuSans-Bold-65" transform="translate(213.623047 0.765625)"/>
     <use xlink:href="#DejaVuSans-Bold-6d" transform="translate(281.445312 0.765625)"/>
     <use xlink:href="#DejaVuSans-Bold-61" transform="translate(385.644531 0.765625)"/>
     <use xlink:href="#DejaVuSans-Bold-20" transform="translate(453.125 0.765625)"/>
     <use xlink:href="#DejaVuSans-Bold-64" transform="translate(487.939453 0.765625)"/>
     <use xlink:href="#DejaVuSans-Bold-65" transform="translate(559.521484 0.765625)"/>
     <use xlink:href="#DejaVuSans-Bold-20" transform="translate(627.34375 0.765625)"/>
     <use xlink:href="#DejaVuSans-Bold-43" transform="translate(662.158203 0.765625)"/>
     <use xlink:href="#DejaVuSans-Bold-6f" transform="translate(735.546875 0.765625)"/>
     <use xlink:href="#DejaVuSans-Bold-6f" transform="translate(804.248047 0.765625)"/>
     <use xlink:href="#DejaVuSans-Bold-72" transform="translate(872.949219 0.765625)"/>
     <use xlink:href="#DejaVuSans-Bold-64" transform="translate(922.265625 0.765625)"/>
     <use xlink:href="#DejaVuSans-Bold-65" transform="translate(993.847656 0.765625)"/>
     <use xlink:href="#DejaVuSans-Bold-6e" transform="translate(1061.669922 0.765625)"/>
     <use xlink:href="#DejaVuSans-Bold-61" transform="translate(1132.861328 0.765625)"/>
     <use xlink:href="#DejaVuSans-Bold-64" transform="translate(1200.341797 0.765625)"/>
     <use xlink:href="#DejaVuSans-Bold-61" transform="translate(1271.923828 0.765625)"/>
     <use xlink:href="#DejaVuSans-Bold-73" transform="translate(1339.404297 0.765625)"/>
     <use xlink:href="#DejaVuSans-Bold-20" transform="translate(1398.925781 0.765625)"/>
     <use xlink:href="#DejaVuSans-Bold-65" transform="translate(1433.740234 0.765625)"/>
     <use xlink:href="#DejaVuSans-Bold-6e" transform="translate(1501.5625 0.765625)"/>
     <use xlink:href="#DejaVuSans-Bold-20" transform="translate(1572.753906 0.765625)"/>
     <use xlink:href="#STIXGeneral-Italic-211d" transform="translate(1607.568359 0.765625)"/>
     <use xlink:href="#DejaVuSans-33" transform="translate(1682.219799 39.046875) scale(0.7)"/>
    </g>
   </g>
   <g id="Line3DCollection_4">
    <path d="M 243.463143 247.330132 
L 243.463143 326.072419 
" clip-path="url(#p4a47e7939c)" style="fill: none; stroke: #3b82f6; stroke-width: 3"/>
    <path d="M 243.463143 247.330132 
L 245.776971 258.069637 
" clip-path="url(#p4a47e7939c)" style="fill: none; stroke: #3b82f6; stroke-width: 3"/>
    <path d="M 243.463143 247.330132 
L 241.145263 259.636127 
" clip-path="url(#p4a47e7939c)" style="fill: none; stroke: #3b82f6; stroke-width: 3"/>
   </g>
   <g id="Line3DCollection_5">
    <path d="M 183.049037 348.039514 
L 243.463143 326.072419 
" clip-path="url(#p4a47e7939c)" style="fill: none; stroke: #dc2626; stroke-width: 3"/>
    <path d="M 183.049037 348.039514 
L 191.996068 347.86557 
" clip-path="url(#p4a47e7939c)" style="fill: none; stroke: #dc2626; stroke-width: 3"/>
    <path d="M 183.049037 348.039514 
L 191.949247 341.721244 
" clip-path="url(#p4a47e7939c)" style="fill: none; stroke: #dc2626; stroke-width: 3"/>
   </g>
   <g id="Line3DCollection_6">
    <path d="M 303.877249 348.039514 
L 243.463143 326.072419 
" clip-path="url(#p4a47e7939c)" style="fill: none; stroke: #10b981; stroke-width: 3"/>
    <path d="M 303.877249 348.039514 
L 294.930218 347.86557 
" clip-path="url(#p4a47e7939c)" style="fill: none; stroke: #10b981; stroke-width: 3"/>
    <path d="M 303.877249 348.039514 
L 294.977039 341.721244 
" clip-path="url(#p4a47e7939c)" style="fill: none; stroke: #10b981; stroke-width: 3"/>
   </g>
   <g id="Line3DCollection_7">
    <path d="M 243.463143 84.224465 
L 243.463143 326.072419 
" clip-path="url(#p4a47e7939c)" style="fill: none; stroke: #9ca3af; stroke-width: 1.5"/>
    <path d="M 243.463143 84.224465 
L 247.247194 102.46913 
" clip-path="url(#p4a47e7939c)" style="fill: none; stroke: #9ca3af; stroke-width: 1.5"/>
    <path d="M 243.463143 84.224465 
L 239.66824 104.587607 
" clip-path="url(#p4a47e7939c)" style="fill: none; stroke: #9ca3af; stroke-width: 1.5"/>
   </g>
   <g id="Line3DCollection_8">
    <path d="M 53.550493 395.12631 
L 243.463143 326.072419 
" clip-path="url(#p4a47e7939c)" style="fill: none; stroke: #9ca3af; stroke-width: 1.5"/>
    <path d="M 53.550493 395.12631 
L 69.32459 394.540181 
" clip-path="url(#p4a47e7939c)" style="fill: none; stroke: #9ca3af; stroke-width: 1.5"/>
    <path d="M 53.550493 395.12631 
L 69.059503 384.329792 
" clip-path="url(#p4a47e7939c)" style="fill: none; stroke: #9ca3af; stroke-width: 1.5"/>
   </g>
   <g id="Line3DCollection_9">
    <path d="M 433.375793 395.12631 
L 243.463143 326.072419 
" clip-path="url(#p4a47e7939c)" style="fill: none; stroke: #9ca3af; stroke-width: 1.5"/>
    <path d="M 433.375793 395.12631 
L 417.601696 394.540181 
" clip-path="url(#p4a47e7939c)" style="fill: none; stroke: #9ca3af; stroke-width: 1.5"/>
    <path d="M 433.375793 395.12631 
L 417.866783 384.329792 
" clip-path="url(#p4a47e7939c)" style="fill: none; stroke: #9ca3af; stroke-width: 1.5"/>
   </g>
   <g id="Path3DCollection_2">
    <defs>
     <path id="m406949f43c" d="M 0 5 
C 1.326016 5 2.597899 4.473168 3.535534 3.535534 
C 4.473168 2.597899 5 1.326016 5 0 
C 5 -1.326016 4.473168 -2.597899 3.535534 -3.535534 
C 2.597899 -4.473168 1.326016 -5 0 -5 
C -1.326016 -5 -2.597899 -4.473168 -3.535534 -3.535534 
C -4.473168 -2.597899 -5 -1.326016 -5 0 
C -5 1.326016 -4.473168 2.597899 -3.535534 3.535534 
C -2.597899 4.473168 -1.326016 5 0 5 
z
" style="stroke: #059669"/>
    </defs>
    <g clip-path="url(#p4a47e7939c)">
     <use xlink:href="#m406949f43c" x="210.60912" y="236.512548" style="fill: #059669; stroke: #059669"/>
    </g>
   </g>
   <g id="Line3DCollection_10">
    <path d="M 210.60912 236.512548 
L 243.463143 326.072419 
" clip-path="url(#p4a47e7939c)" style="fill: none; stroke: #059669; stroke-width: 2.5"/>
    <path d="M 210.60912 236.512548 
L 212.011247 244.906465 
" clip-path="url(#p4a47e7939c)" style="fill: none; stroke: #059669; stroke-width: 2.5"/>
    <path d="M 210.60912 236.512548 
L 212.717907 237.693779 
" clip-path="url(#p4a47e7939c)" style="fill: none; stroke: #059669; stroke-width: 2.5"/>
   </g>
  </g>
  <g id="axes_2">
   <g id="patch_6">
    <path d="M 570.076546 146.328241 
L 946.734358 146.328241 
L 946.734358 63.511792 
L 570.076546 63.511792 
z
" clip-path="url(#p927b3a723e)" style="fill: #fffbeb; stroke: #7c3aed; stroke-width: 2; stroke-linejoin: miter"/>
   </g>
   <g id="line2d_32">
    <path d="M 578.090542 164.731896 
L 938.720362 164.731896 
" clip-path="url(#p927b3a723e)" style="fill: none; stroke: #e5e7eb; stroke-linecap: square"/>
   </g>
   <g id="line2d_33">
    <path d="M 578.090542 256.750173 
L 938.720362 256.750173 
" clip-path="url(#p927b3a723e)" style="fill: none; stroke: #e5e7eb; stroke-linecap: square"/>
   </g>
   <g id="line2d_34">
    <path d="M 578.090542 348.76845 
L 938.720362 348.76845 
" clip-path="url(#p927b3a723e)" style="fill: none; stroke: #e5e7eb; stroke-linecap: square"/>
   </g>
   <g id="line2d_35">
    <path d="M 578.090542 440.786726 
L 938.720362 440.786726 
" clip-path="url(#p927b3a723e)" style="fill: none; stroke: #e5e7eb; stroke-linecap: square"/>
   </g>
   <g id="line2d_36">
    <defs>
     <path id="m2d70a6b976" d="M -5 5 
L 5 5 
L 5 -5 
L -5 -5 
z
" style="stroke: #dc2626; stroke-linejoin: miter"/>
    </defs>
    <g clip-path="url(#p927b3a723e)">
     <use xlink:href="#m2d70a6b976" x="598.125532" y="468.392209" style="fill: #dc2626; stroke: #dc2626; stroke-linejoin: miter"/>
    </g>
   </g>
   <g id="line2d_37">
    <defs>
     <path id="m35330ca9b6" d="M -5 5 
L 5 5 
L 5 -5 
L -5 -5 
z
" style="stroke: #10b981; stroke-linejoin: miter"/>
    </defs>
    <g clip-path="url(#p927b3a723e)">
     <use xlink:href="#m35330ca9b6" x="718.335472" y="468.392209" style="fill: #10b981; stroke: #10b981; stroke-linejoin: miter"/>
    </g>
   </g>
   <g id="line2d_38">
    <defs>
     <path id="m6c90f351bc" d="M -5 5 
L 5 5 
L 5 -5 
L -5 -5 
z
" style="stroke: #3b82f6; stroke-linejoin: miter"/>
    </defs>
    <g clip-path="url(#p927b3a723e)">
     <use xlink:href="#m6c90f351bc" x="838.545412" y="468.392209" style="fill: #3b82f6; stroke: #3b82f6; stroke-linejoin: miter"/>
    </g>
   </g>
   <g id="text_31">
    <!-- VECTORES CANÓNICOS -->
    <g style="fill: #7c3aed" transform="translate(693.642171 81.915447) scale(0.1 -0.1)">
     <defs>
      <path id="DejaVuSans-Bold-56" d="M 31 4666 
L 1241 4666 
L 2478 1222 
L 3713 4666 
L 4922 4666 
L 3194 0 
L 1759 0 
L 31 4666 
z
" transform="scale(0.015625)"/>
      <path id="DejaVuSans-Bold-45" d="M 588 4666 
L 3834 4666 
L 3834 3756 
L 1791 3756 
L 1791 2888 
L 3713 2888 
L 3713 1978 
L 1791 1978 
L 1791 909 
L 3903 909 
L 3903 0 
L 588 0 
L 588 4666 
z
" transform="scale(0.015625)"/>
      <path id="DejaVuSans-Bold-54" d="M 31 4666 
L 4331 4666 
L 4331 3756 
L 2784 3756 
L 2784 0 
L 1581 0 
L 1581 3756 
L 31 3756 
L 31 4666 
z
" transform="scale(0.015625)"/>
      <path id="DejaVuSans-Bold-4f" d="M 2719 3878 
Q 2169 3878 1866 3472 
Q 1563 3066 1563 2328 
Q 1563 1594 1866 1187 
Q 2169 781 2719 781 
Q 3272 781 3575 1187 
Q 3878 1594 3878 2328 
Q 3878 3066 3575 3472 
Q 3272 3878 2719 3878 
z
M 2719 4750 
Q 3844 4750 4481 4106 
Q 5119 3463 5119 2328 
Q 5119 1197 4481 553 
Q 3844 -91 2719 -91 
Q 1597 -91 958 553 
Q 319 1197 319 2328 
Q 319 3463 958 4106 
Q 1597 4750 2719 4750 
z
" transform="scale(0.015625)"/>
      <path id="DejaVuSans-Bold-52" d="M 2297 2597 
Q 2675 2597 2839 2737 
Q 3003 2878 3003 3200 
Q 3003 3519 2839 3656 
Q 2675 3794 2297 3794 
L 1791 3794 
L 1791 2597 
L 2297 2597 
z
M 1791 1766 
L 1791 0 
L 588 0 
L 588 4666 
L 2425 4666 
Q 3347 4666 3776 4356 
Q 4206 4047 4206 3378 
Q 4206 2916 3982 2619 
Q 3759 2322 3309 2181 
Q 3556 2125 3751 1926 
Q 3947 1728 4147 1325 
L 4800 0 
L 3519 0 
L 2950 1159 
Q 2778 1509 2601 1637 
Q 2425 1766 2131 1766 
L 1791 1766 
z
" transform="scale(0.015625)"/>
      <path id="DejaVuSans-Bold-41" d="M 3419 850 
L 1538 850 
L 1241 0 
L 31 0 
L 1759 4666 
L 3194 4666 
L 4922 0 
L 3713 0 
L 3419 850 
z
M 1838 1716 
L 3116 1716 
L 2478 3572 
L 1838 1716 
z
" transform="scale(0.015625)"/>
      <path id="DejaVuSans-Bold-4e" d="M 588 4666 
L 1931 4666 
L 3628 1466 
L 3628 4666 
L 4769 4666 
L 4769 0 
L 3425 0 
L 1728 3200 
L 1728 0 
L 588 0 
L 588 4666 
z
" transform="scale(0.015625)"/>
      <path id="DejaVuSans-Bold-d3" d="M 2719 3878 
Q 2169 3878 1866 3472 
Q 1563 3066 1563 2328 
Q 1563 1594 1866 1187 
Q 2169 781 2719 781 
Q 3272 781 3575 1187 
Q 3878 1594 3878 2328 
Q 3878 3066 3575 3472 
Q 3272 3878 2719 3878 
z
M 2719 4750 
Q 3844 4750 4481 4106 
Q 5119 3463 5119 2328 
Q 5119 1197 4481 553 
Q 3844 -91 2719 -91 
Q 1597 -91 958 553 
Q 319 1197 319 2328 
Q 319 3463 958 4106 
Q 1597 4750 2719 4750 
z
M 2799 5921 
L 3684 5921 
L 2793 5096 
L 2181 5096 
L 2799 5921 
z
" transform="scale(0.015625)"/>
      <path id="DejaVuSans-Bold-49" d="M 588 4666 
L 1791 4666 
L 1791 0 
L 588 0 
L 588 4666 
z
" transform="scale(0.015625)"/>
     </defs>
     <use xlink:href="#DejaVuSans-Bold-56"/>
     <use xlink:href="#DejaVuSans-Bold-45" transform="translate(77.392578 0)"/>
     <use xlink:href="#DejaVuSans-Bold-43" transform="translate(145.703125 0)"/>
     <use xlink:href="#DejaVuSans-Bold-54" transform="translate(219.091797 0)"/>
     <use xlink:href="#DejaVuSans-Bold-4f" transform="translate(287.304688 0)"/>
     <use xlink:href="#DejaVuSans-Bold-52" transform="translate(372.314453 0)"/>
     <use xlink:href="#DejaVuSans-Bold-45" transform="translate(449.316406 0)"/>
     <use xlink:href="#DejaVuSans-Bold-53" transform="translate(517.626953 0)"/>
     <use xlink:href="#DejaVuSans-Bold-20" transform="translate(589.648438 0)"/>
     <use xlink:href="#DejaVuSans-Bold-43" transform="translate(624.462891 0)"/>
     <use xlink:href="#DejaVuSans-Bold-41" transform="translate(697.851562 0)"/>
     <use xlink:href="#DejaVuSans-Bold-4e" transform="translate(775.244141 0)"/>
     <use xlink:href="#DejaVuSans-Bold-d3" transform="translate(858.935547 0)"/>
     <use xlink:href="#DejaVuSans-Bold-4e" transform="translate(943.945312 0)"/>
     <use xlink:href="#DejaVuSans-Bold-49" transform="translate(1027.636719 0)"/>
     <use xlink:href="#DejaVuSans-Bold-43" transform="translate(1064.84375 0)"/>
     <use xlink:href="#DejaVuSans-Bold-4f" transform="translate(1138.232422 0)"/>
     <use xlink:href="#DejaVuSans-Bold-53" transform="translate(1223.242188 0)"/>
    </g>
   </g>
   <g id="text_32">
    <!-- $\mathbf{i} = \langle 1,0,0 \rangle$  •  $\mathbf{j} = \langle 0,1,0 \rangle$  •  $\mathbf{k} = \langle 0,0,1 \rangle$ -->
    <g style="fill: #1f2937" transform="translate(648.955452 118.722758) scale(0.11 -0.11)">
     <defs>
      <path id="DejaVuSans-3d" d="M 678 2906 
L 4684 2906 
L 4684 2381 
L 678 2381 
L 678 2906 
z
M 678 1631 
L 4684 1631 
L 4684 1100 
L 678 1100 
L 678 1631 
z
" transform="scale(0.015625)"/>
      <path id="DejaVuSans-27e8" d="M 572 2006 
L 1453 4856 
L 1984 4856 
L 1103 2006 
L 1984 -844 
L 1453 -844 
L 572 2006 
z
" transform="scale(0.015625)"/>
      <path id="DejaVuSans-27e9" d="M 1925 2006 
L 1044 -844 
L 513 -844 
L 1394 2006 
L 513 4856 
L 1044 4856 
L 1925 2006 
z
" transform="scale(0.015625)"/>
      <path id="DejaVuSans-20" transform="scale(0.015625)"/>
      <path id="DejaVuSansDisplay-2022" d="M 959 2381 
Q 959 2769 1229 3036 
Q 1500 3303 1894 3303 
Q 2281 3303 2548 3036 
Q 2816 2769 2816 2381 
Q 2816 1991 2547 1722 
Q 2278 1453 1888 1453 
Q 1497 1453 1228 1722 
Q 959 1991 959 2381 
z
" transform="scale(0.015625)"/>
     </defs>
     <use xlink:href="#DejaVuSans-Bold-69" transform="translate(0 0.015625)"/>
     <use xlink:href="#DejaVuSans-3d" transform="translate(53.759766 0.015625)"/>
     <use xlink:href="#DejaVuSans-27e8" transform="translate(157.03125 0.015625)"/>
     <use xlink:href="#DejaVuSans-31" transform="translate(196.044922 0.015625)"/>
     <use xlink:href="#DejaVuSans-2c" transform="translate(259.667969 0.015625)"/>
     <use xlink:href="#DejaVuSans-30" transform="translate(310.9375 0.015625)"/>
     <use xlink:href="#DejaVuSans-2c" transform="translate(374.560547 0.015625)"/>
     <use xlink:href="#DejaVuSans-30" transform="translate(425.830078 0.015625)"/>
     <use xlink:href="#DejaVuSans-27e9" transform="translate(489.453125 0.015625)"/>
     <use xlink:href="#DejaVuSans-20" transform="translate(528.466797 0.015625)"/>
     <use xlink:href="#DejaVuSans-20" transform="translate(560.253906 0.015625)"/>
     <use xlink:href="#DejaVuSansDisplay-2022" transform="translate(592.041016 0.015625)"/>
     <use xlink:href="#DejaVuSans-20" transform="translate(651.025391 0.015625)"/>
     <use xlink:href="#DejaVuSans-20" transform="translate(682.8125 0.015625)"/>
     <use xlink:href="#DejaVuSans-Bold-6a" transform="translate(714.599609 0.015625)"/>
     <use xlink:href="#DejaVuSans-3d" transform="translate(768.359375 0.015625)"/>
     <use xlink:href="#DejaVuSans-27e8" transform="translate(871.630859 0.015625)"/>
     <use xlink:href="#DejaVuSans-30" transform="translate(910.644531 0.015625)"/>
     <use xlink:href="#DejaVuSans-2c" transform="translate(974.267578 0.015625)"/>
     <use xlink:href="#DejaVuSans-31" transform="translate(1025.537109 0.015625)"/>
     <use xlink:href="#DejaVuSans-2c" transform="translate(1089.160156 0.015625)"/>
     <use xlink:href="#DejaVuSans-30" transform="translate(1140.429688 0.015625)"/>
     <use xlink:href="#DejaVuSans-27e9" transform="translate(1204.052734 0.015625)"/>
     <use xlink:href="#DejaVuSans-20" transform="translate(1243.066406 0.015625)"/>
     <use xlink:href="#DejaVuSans-20" transform="translate(1274.853516 0.015625)"/>
     <use xlink:href="#DejaVuSansDisplay-2022" transform="translate(1306.640625 0.015625)"/>
     <use xlink:href="#DejaVuSans-20" transform="translate(1365.625 0.015625)"/>
     <use xlink:href="#DejaVuSans-20" transform="translate(1397.412109 0.015625)"/>
     <use xlink:href="#DejaVuSans-Bold-6b" transform="translate(1429.199219 0.015625)"/>
     <use xlink:href="#DejaVuSans-3d" transform="translate(1515.185547 0.015625)"/>
     <use xlink:href="#DejaVuSans-27e8" transform="translate(1618.457031 0.015625)"/>
     <use xlink:href="#DejaVuSans-30" transform="translate(1657.470703 0.015625)"/>
     <use xlink:href="#DejaVuSans-2c" transform="translate(1721.09375 0.015625)"/>
     <use xlink:href="#DejaVuSans-30" transform="translate(1772.363281 0.015625)"/>
     <use xlink:href="#DejaVuSans-2c" transform="translate(1835.986328 0.015625)"/>
     <use xlink:href="#DejaVuSans-31" transform="translate(1887.255859 0.015625)"/>
     <use xlink:href="#DejaVuSans-27e9" transform="translate(1950.878906 0.015625)"/>
    </g>
   </g>
   <g id="text_33">
    <!-- Vector Posición -->
    <g style="fill: #2563eb" transform="translate(714.961702 192.337379) scale(0.1 -0.1)">
     <defs>
      <path id="DejaVuSans-Bold-63" d="M 3366 3391 
L 3366 2478 
Q 3138 2634 2908 2709 
Q 2678 2784 2431 2784 
Q 1963 2784 1702 2511 
Q 1441 2238 1441 1747 
Q 1441 1256 1702 982 
Q 1963 709 2431 709 
Q 2694 709 2930 787 
Q 3166 866 3366 1019 
L 3366 103 
Q 3103 6 2833 -42 
Q 2563 -91 2291 -91 
Q 1344 -91 809 395 
Q 275 881 275 1747 
Q 275 2613 809 3098 
Q 1344 3584 2291 3584 
Q 2566 3584 2833 3536 
Q 3100 3488 3366 3391 
z
" transform="scale(0.015625)"/>
      <path id="DejaVuSans-Bold-50" d="M 588 4666 
L 2584 4666 
Q 3475 4666 3951 4270 
Q 4428 3875 4428 3144 
Q 4428 2409 3951 2014 
Q 3475 1619 2584 1619 
L 1791 1619 
L 1791 0 
L 588 0 
L 588 4666 
z
M 1791 3794 
L 1791 2491 
L 2456 2491 
Q 2806 2491 2997 2661 
Q 3188 2831 3188 3144 
Q 3188 3456 2997 3625 
Q 2806 3794 2456 3794 
L 1791 3794 
z
" transform="scale(0.015625)"/>
      <path id="DejaVuSans-Bold-f3" d="M 2203 2784 
Q 1831 2784 1636 2517 
Q 1441 2250 1441 1747 
Q 1441 1244 1636 976 
Q 1831 709 2203 709 
Q 2569 709 2762 976 
Q 2956 1244 2956 1747 
Q 2956 2250 2762 2517 
Q 2569 2784 2203 2784 
z
M 2203 3584 
Q 3106 3584 3614 3096 
Q 4122 2609 4122 1747 
Q 4122 884 3614 396 
Q 3106 -91 2203 -91 
Q 1297 -91 786 396 
Q 275 884 275 1747 
Q 275 2609 786 3096 
Q 1297 3584 2203 3584 
z
M 2694 5119 
L 3578 5119 
L 2425 3944 
L 1813 3944 
L 2694 5119 
z
" transform="scale(0.015625)"/>
     </defs>
     <use xlink:href="#DejaVuSans-Bold-56"/>
     <use xlink:href="#DejaVuSans-Bold-65" transform="translate(71.892578 0)"/>
     <use xlink:href="#DejaVuSans-Bold-63" transform="translate(139.714844 0)"/>
     <use xlink:href="#DejaVuSans-Bold-74" transform="translate(198.992188 0)"/>
     <use xlink:href="#DejaVuSans-Bold-6f" transform="translate(246.794922 0)"/>
     <use xlink:href="#DejaVuSans-Bold-72" transform="translate(315.496094 0)"/>
     <use xlink:href="#DejaVuSans-Bold-20" transform="translate(364.8125 0)"/>
     <use xlink:href="#DejaVuSans-Bold-50" transform="translate(399.626953 0)"/>
     <use xlink:href="#DejaVuSans-Bold-6f" transform="translate(472.917969 0)"/>
     <use xlink:href="#DejaVuSans-Bold-73" transform="translate(541.619141 0)"/>
     <use xlink:href="#DejaVuSans-Bold-69" transform="translate(601.140625 0)"/>
     <use xlink:href="#DejaVuSans-Bold-63" transform="translate(635.417969 0)"/>
     <use xlink:href="#DejaVuSans-Bold-69" transform="translate(694.695312 0)"/>
     <use xlink:href="#DejaVuSans-Bold-f3" transform="translate(728.972656 0)"/>
     <use xlink:href="#DejaVuSans-Bold-6e" transform="translate(797.673828 0)"/>
    </g>
   </g>
   <g id="text_34">
    <!-- $\overrightarrow{OP} = \langle x, y, z \rangle = x\mathbf{i} + y\mathbf{j} + z\mathbf{k}$ -->
    <g style="fill: #1f2937" transform="translate(681.125452 229.14469) scale(0.12 -0.12)">
     <defs>
      <path id="DejaVuSans-2192" d="M 5050 2147 
L 5050 1866 
L 3822 638 
L 3447 1013 
L 4175 1741 
L 366 1741 
L 366 2272 
L 4175 2272 
L 3447 3000 
L 3822 3375 
L 5050 2147 
z
" transform="scale(0.015625)"/>
      <path id="DejaVuSans-Oblique-4f" d="M 2919 4238 
Q 2400 4238 2003 3986 
Q 1606 3734 1313 3219 
Q 1125 2891 1026 2522 
Q 928 2153 928 1778 
Q 928 1128 1239 775 
Q 1550 422 2119 422 
Q 2631 422 3032 676 
Q 3434 931 3719 1434 
Q 3909 1772 4009 2142 
Q 4109 2513 4109 2881 
Q 4109 3528 3796 3883 
Q 3484 4238 2919 4238 
z
M 2100 -91 
Q 1241 -91 748 418 
Q 256 928 256 1813 
Q 256 2319 448 2847 
Q 641 3375 978 3788 
Q 1375 4272 1862 4511 
Q 2350 4750 2938 4750 
Q 3794 4750 4287 4245 
Q 4781 3741 4781 2869 
Q 4781 2331 4593 1812 
Q 4406 1294 4056 872 
Q 3656 384 3173 146 
Q 2691 -91 2100 -91 
z
" transform="scale(0.015625)"/>
      <path id="DejaVuSans-Oblique-78" d="M 3841 3500 
L 2234 1784 
L 3219 0 
L 2559 0 
L 1819 1388 
L 531 0 
L -166 0 
L 1556 1844 
L 641 3500 
L 1300 3500 
L 1972 2234 
L 3144 3500 
L 3841 3500 
z
" transform="scale(0.015625)"/>
      <path id="DejaVuSans-Oblique-79" d="M 1588 -325 
Q 1188 -997 936 -1164 
Q 684 -1331 294 -1331 
L -159 -1331 
L -63 -850 
L 269 -850 
Q 509 -850 678 -719 
Q 847 -588 1056 -206 
L 1234 128 
L 459 3500 
L 1069 3500 
L 1650 819 
L 3256 3500 
L 3859 3500 
L 1588 -325 
z
" transform="scale(0.015625)"/>
      <path id="DejaVuSans-Oblique-7a" d="M 744 3500 
L 3475 3500 
L 3372 2975 
L 738 459 
L 2913 459 
L 2822 0 
L -19 0 
L 84 525 
L 2719 3041 
L 653 3041 
L 744 3500 
z
" transform="scale(0.015625)"/>
      <path id="DejaVuSans-2b" d="M 2944 4013 
L 2944 2272 
L 4684 2272 
L 4684 1741 
L 2944 1741 
L 2944 0 
L 2419 0 
L 2419 1741 
L 678 1741 
L 678 2272 
L 2419 2272 
L 2419 4013 
L 2944 4013 
z
" transform="scale(0.015625)"/>
     </defs>
     <use xlink:href="#DejaVuSans-2192" transform="translate(45.034668 77.265625)"/>
     <use xlink:href="#DejaVuSans-Oblique-4f" transform="translate(0 0.515625)"/>
     <use xlink:href="#DejaVuSans-Oblique-50" transform="translate(78.710938 0.515625)"/>
     <use xlink:href="#DejaVuSans-3d" transform="translate(158.496094 0.515625)"/>
     <use xlink:href="#DejaVuSans-27e8" transform="translate(261.767578 0.515625)"/>
     <use xlink:href="#DejaVuSans-Oblique-78" transform="translate(300.78125 0.515625)"/>
     <use xlink:href="#DejaVuSans-2c" transform="translate(359.960938 0.515625)"/>
     <use xlink:href="#DejaVuSans-Oblique-79" transform="translate(411.230469 0.515625)"/>
     <use xlink:href="#DejaVuSans-2c" transform="translate(470.410156 0.515625)"/>
     <use xlink:href="#DejaVuSans-Oblique-7a" transform="translate(521.679688 0.515625)"/>
     <use xlink:href="#DejaVuSans-27e9" transform="translate(574.169922 0.515625)"/>
     <use xlink:href="#DejaVuSans-3d" transform="translate(632.666016 0.515625)"/>
     <use xlink:href="#DejaVuSans-Oblique-78" transform="translate(735.9375 0.515625)"/>
     <use xlink:href="#DejaVuSans-Bold-69" transform="translate(795.117188 0.515625)"/>
     <use xlink:href="#DejaVuSans-2b" transform="translate(848.876953 0.515625)"/>
     <use xlink:href="#DejaVuSans-Oblique-79" transform="translate(952.148438 0.515625)"/>
     <use xlink:href="#DejaVuSans-Bold-6a" transform="translate(1011.328125 0.515625)"/>
     <use xlink:href="#DejaVuSans-2b" transform="translate(1065.087891 0.515625)"/>
     <use xlink:href="#DejaVuSans-Oblique-7a" transform="translate(1168.359375 0.515625)"/>
     <use xlink:href="#DejaVuSans-Bold-6b" transform="translate(1220.849609 0.515625)"/>
    </g>
   </g>
   <g id="text_35">
    <!-- Magnitud (Norma) -->
    <g style="fill: #dc2626" transform="translate(706.694514 284.355656) scale(0.1 -0.1)">
     <defs>
      <path id="DejaVuSans-Bold-4d" d="M 588 4666 
L 2119 4666 
L 3181 2169 
L 4250 4666 
L 5778 4666 
L 5778 0 
L 4641 0 
L 4641 3413 
L 3566 897 
L 2803 897 
L 1728 3413 
L 1728 0 
L 588 0 
L 588 4666 
z
" transform="scale(0.015625)"/>
      <path id="DejaVuSans-Bold-67" d="M 2919 594 
Q 2688 288 2409 144 
Q 2131 0 1766 0 
Q 1125 0 706 504 
Q 288 1009 288 1791 
Q 288 2575 706 3076 
Q 1125 3578 1766 3578 
Q 2131 3578 2409 3434 
Q 2688 3291 2919 2981 
L 2919 3500 
L 4044 3500 
L 4044 353 
Q 4044 -491 3511 -936 
Q 2978 -1381 1966 -1381 
Q 1638 -1381 1331 -1331 
Q 1025 -1281 716 -1178 
L 716 -306 
Q 1009 -475 1290 -558 
Q 1572 -641 1856 -641 
Q 2406 -641 2662 -400 
Q 2919 -159 2919 353 
L 2919 594 
z
M 2181 2772 
Q 1834 2772 1640 2515 
Q 1447 2259 1447 1791 
Q 1447 1309 1634 1061 
Q 1822 813 2181 813 
Q 2531 813 2725 1069 
Q 2919 1325 2919 1791 
Q 2919 2259 2725 2515 
Q 2531 2772 2181 2772 
z
" transform="scale(0.015625)"/>
      <path id="DejaVuSans-Bold-75" d="M 500 1363 
L 500 3500 
L 1625 3500 
L 1625 3150 
Q 1625 2866 1622 2436 
Q 1619 2006 1619 1863 
Q 1619 1441 1641 1255 
Q 1663 1069 1716 984 
Q 1784 875 1895 815 
Q 2006 756 2150 756 
Q 2500 756 2700 1025 
Q 2900 1294 2900 1772 
L 2900 3500 
L 4019 3500 
L 4019 0 
L 2900 0 
L 2900 506 
Q 2647 200 2364 54 
Q 2081 -91 1741 -91 
Q 1134 -91 817 281 
Q 500 653 500 1363 
z
" transform="scale(0.015625)"/>
      <path id="DejaVuSans-Bold-28" d="M 2413 -844 
L 1484 -844 
Q 1006 -72 778 623 
Q 550 1319 550 2003 
Q 550 2688 779 3389 
Q 1009 4091 1484 4856 
L 2413 4856 
Q 2013 4116 1813 3408 
Q 1613 2700 1613 2009 
Q 1613 1319 1811 609 
Q 2009 -100 2413 -844 
z
" transform="scale(0.015625)"/>
      <path id="DejaVuSans-Bold-29" d="M 513 -844 
Q 913 -100 1113 609 
Q 1313 1319 1313 2009 
Q 1313 2700 1113 3408 
Q 913 4116 513 4856 
L 1441 4856 
Q 1916 4091 2145 3389 
Q 2375 2688 2375 2003 
Q 2375 1319 2147 623 
Q 1919 -72 1441 -844 
L 513 -844 
z
" transform="scale(0.015625)"/>
     </defs>
     <use xlink:href="#DejaVuSans-Bold-4d"/>
     <use xlink:href="#DejaVuSans-Bold-61" transform="translate(99.511719 0)"/>
     <use xlink:href="#DejaVuSans-Bold-67" transform="translate(166.992188 0)"/>
     <use xlink:href="#DejaVuSans-Bold-6e" transform="translate(238.574219 0)"/>
     <use xlink:href="#DejaVuSans-Bold-69" transform="translate(309.765625 0)"/>
     <use xlink:href="#DejaVuSans-Bold-74" transform="translate(344.042969 0)"/>
     <use xlink:href="#DejaVuSans-Bold-75" transform="translate(391.845703 0)"/>
     <use xlink:href="#DejaVuSans-Bold-64" transform="translate(463.037109 0)"/>
     <use xlink:href="#DejaVuSans-Bold-20" transform="translate(534.619141 0)"/>
     <use xlink:href="#DejaVuSans-Bold-28" transform="translate(569.433594 0)"/>
     <use xlink:href="#DejaVuSans-Bold-4e" transform="translate(615.136719 0)"/>
     <use xlink:href="#DejaVuSans-Bold-6f" transform="translate(698.828125 0)"/>
     <use xlink:href="#DejaVuSans-Bold-72" transform="translate(767.529297 0)"/>
     <use xlink:href="#DejaVuSans-Bold-6d" transform="translate(816.845703 0)"/>
     <use xlink:href="#DejaVuSans-Bold-61" transform="translate(921.044922 0)"/>
     <use xlink:href="#DejaVuSans-Bold-29" transform="translate(988.525391 0)"/>
    </g>
   </g>
   <g id="text_36">
    <!-- $\|\mathbf{v}\| = \sqrt{v_x^2 + v_y^2 + v_z^2}$ -->
    <g style="fill: #1f2937" transform="translate(694.380452 321.162966) scale(0.13 -0.13)">
     <defs>
      <path id="DejaVuSans-2016" d="M 1344 4891 
L 1344 -1509 
L 813 -1509 
L 813 4891 
L 1344 4891 
z
M 2376 4891 
L 2376 -1509 
L 1845 -1509 
L 1845 4891 
L 2376 4891 
z
" transform="scale(0.015625)"/>
      <path id="DejaVuSans-Bold-76" d="M 97 3500 
L 1216 3500 
L 2088 1081 
L 2956 3500 
L 4078 3500 
L 2700 0 
L 1472 0 
L 97 3500 
z
" transform="scale(0.015625)"/>
      <path id="STIXSizeOneSym-Regular-221a" d="M 6970 9933 
L 3373 -1888 
L 3104 -1888 
L 1626 2918 
Q 1555 3149 1465 3251 
Q 1376 3354 1229 3354 
Q 1011 3354 794 3181 
L 717 3309 
L 1766 4115 
L 1926 4115 
L 3379 -602 
L 3405 -602 
L 6605 9933 
L 6970 9933 
z
" transform="scale(0.015625)"/>
      <path id="DejaVuSans-Oblique-76" d="M 459 3500 
L 1069 3500 
L 1581 525 
L 3256 3500 
L 3866 3500 
L 1875 0 
L 1100 0 
L 459 3500 
z
" transform="scale(0.015625)"/>
     </defs>
     <use xlink:href="#DejaVuSans-2016" transform="translate(0 0.370312)"/>
     <use xlink:href="#DejaVuSans-Bold-76" transform="translate(50 0.370312)"/>
     <use xlink:href="#DejaVuSans-2016" transform="translate(115.185547 0.370312)"/>
     <use xlink:href="#DejaVuSans-3d" transform="translate(184.667969 0.370312)"/>
     <use xlink:href="#STIXSizeOneSym-Regular-221a" transform="translate(287.939453 -15.578125) scale(0.884587)"/>
     <use xlink:href="#DejaVuSans-Oblique-76" transform="translate(393.983932 0.515625)"/>
     <use xlink:href="#DejaVuSans-32" transform="translate(457.629766 38.796875) scale(0.7)"/>
     <use xlink:href="#DejaVuSans-Oblique-78" transform="translate(453.16362 -26.828125) scale(0.7)"/>
     <use xlink:href="#DejaVuSans-2b" transform="translate(524.382696 0.515625)"/>
     <use xlink:href="#DejaVuSans-Oblique-76" transform="translate(627.65418 0.515625)"/>
     <use xlink:href="#DejaVuSans-32" transform="translate(691.300013 38.796875) scale(0.7)"/>
     <use xlink:href="#DejaVuSans-Oblique-79" transform="translate(686.833867 -26.828125) scale(0.7)"/>
     <use xlink:href="#DejaVuSans-2b" transform="translate(758.052943 0.515625)"/>
     <use xlink:href="#DejaVuSans-Oblique-76" transform="translate(861.324427 0.515625)"/>
     <use xlink:href="#DejaVuSans-32" transform="translate(924.970261 38.796875) scale(0.7)"/>
     <use xlink:href="#DejaVuSans-Oblique-7a" transform="translate(920.504115 -26.828125) scale(0.7)"/>
     <path d="M 381.483932 114.5 
L 381.483932 120.75 
L 984.740768 120.75 
L 984.740768 114.5 
L 381.483932 114.5 
z
"/>
    </g>
   </g>
   <g id="text_37">
    <!-- Vector Unitario -->
    <g style="fill: #f59e0b" transform="translate(715.711702 376.373933) scale(0.1 -0.1)">
     <defs>
      <path id="DejaVuSans-Bold-55" d="M 588 4666 
L 1791 4666 
L 1791 1869 
Q 1791 1291 1980 1042 
Q 2169 794 2597 794 
Q 3028 794 3217 1042 
Q 3406 1291 3406 1869 
L 3406 4666 
L 4609 4666 
L 4609 1869 
Q 4609 878 4112 393 
Q 3616 -91 2597 -91 
Q 1581 -91 1084 393 
Q 588 878 588 1869 
L 588 4666 
z
" transform="scale(0.015625)"/>
     </defs>
     <use xlink:href="#DejaVuSans-Bold-56"/>
     <use xlink:href="#DejaVuSans-Bold-65" transform="translate(71.892578 0)"/>
     <use xlink:href="#DejaVuSans-Bold-63" transform="translate(139.714844 0)"/>
     <use xlink:href="#DejaVuSans-Bold-74" transform="translate(198.992188 0)"/>
     <use xlink:href="#DejaVuSans-Bold-6f" transform="translate(246.794922 0)"/>
     <use xlink:href="#DejaVuSans-Bold-72" transform="translate(315.496094 0)"/>
     <use xlink:href="#DejaVuSans-Bold-20" transform="translate(364.8125 0)"/>
     <use xlink:href="#DejaVuSans-Bold-55" transform="translate(399.626953 0)"/>
     <use xlink:href="#DejaVuSans-Bold-6e" transform="translate(480.828125 0)"/>
     <use xlink:href="#DejaVuSans-Bold-69" transform="translate(552.019531 0)"/>
     <use xlink:href="#DejaVuSans-Bold-74" transform="translate(586.296875 0)"/>
     <use xlink:href="#DejaVuSans-Bold-61" transform="translate(634.099609 0)"/>
     <use xlink:href="#DejaVuSans-Bold-72" transform="translate(701.580078 0)"/>
     <use xlink:href="#DejaVuSans-Bold-69" transform="translate(750.896484 0)"/>
     <use xlink:href="#DejaVuSans-Bold-6f" transform="translate(785.173828 0)"/>
    </g>
   </g>
   <g id="text_38">
    <!-- $\hat{\mathbf{v}} = \frac{\mathbf{v}}{\|\mathbf{v}\|}$ -->
    <g style="fill: #1f2937" transform="translate(737.800452 413.181243) scale(0.13 -0.13)">
     <defs>
      <path id="DejaVuSans-302" d="M -1831 5119 
L -1369 5119 
L -603 3944 
L -1038 3944 
L -1600 4709 
L -2163 3944 
L -2597 3944 
L -1831 5119 
z
M -1600 3584 
L -1600 3584 
z
" transform="scale(0.015625)"/>
     </defs>
     <use xlink:href="#DejaVuSans-302" transform="translate(65.874512 12.015625)"/>
     <use xlink:href="#DejaVuSans-Bold-76" transform="translate(0 0.828125)"/>
     <use xlink:href="#DejaVuSans-3d" transform="translate(84.667969 0.828125)"/>
     <use xlink:href="#DejaVuSans-Bold-76" transform="translate(222.939453 44.625) scale(0.7)"/>
     <use xlink:href="#DejaVuSans-2016" transform="translate(187.939453 -40.120313) scale(0.7)"/>
     <use xlink:href="#DejaVuSans-Bold-76" transform="translate(222.939453 -40.120313) scale(0.7)"/>
     <use xlink:href="#DejaVuSans-2016" transform="translate(268.569336 -40.120313) scale(0.7)"/>
     <path d="M 187.939453 19.625 
L 187.939453 25.875 
L 303.569336 25.875 
L 303.569336 19.625 
L 187.939453 19.625 
z
"/>
    </g>
   </g>
   <g id="text_39">
    <!-- $\mathbf{i}$ (eje X) -->
    <g style="fill: #1f2937" transform="translate(618.160522 470.867209) scale(0.09 -0.09)">
     <defs>
      <path id="DejaVuSans-65" d="M 3597 1894 
L 3597 1613 
L 953 1613 
Q 991 1019 1311 708 
Q 1631 397 2203 397 
Q 2534 397 2845 478 
Q 3156 559 3463 722 
L 3463 178 
Q 3153 47 2828 -22 
Q 2503 -91 2169 -91 
Q 1331 -91 842 396 
Q 353 884 353 1716 
Q 353 2575 817 3079 
Q 1281 3584 2069 3584 
Q 2775 3584 3186 3129 
Q 3597 2675 3597 1894 
z
M 3022 2063 
Q 3016 2534 2758 2815 
Q 2500 3097 2075 3097 
Q 1594 3097 1305 2825 
Q 1016 2553 972 2059 
L 3022 2063 
z
" transform="scale(0.015625)"/>
      <path id="DejaVuSans-6a" d="M 603 3500 
L 1178 3500 
L 1178 -63 
Q 1178 -731 923 -1031 
Q 669 -1331 103 -1331 
L -116 -1331 
L -116 -844 
L 38 -844 
Q 366 -844 484 -692 
Q 603 -541 603 -63 
L 603 3500 
z
M 603 4863 
L 1178 4863 
L 1178 4134 
L 603 4134 
L 603 4863 
z
" transform="scale(0.015625)"/>
     </defs>
     <use xlink:href="#DejaVuSans-Bold-69" transform="translate(0 0.015625)"/>
     <use xlink:href="#DejaVuSans-20" transform="translate(34.277344 0.015625)"/>
     <use xlink:href="#DejaVuSans-28" transform="translate(66.064453 0.015625)"/>
     <use xlink:href="#DejaVuSans-65" transform="translate(105.078125 0.015625)"/>
     <use xlink:href="#DejaVuSans-6a" transform="translate(166.601562 0.015625)"/>
     <use xlink:href="#DejaVuSans-65" transform="translate(194.384766 0.015625)"/>
     <use xlink:href="#DejaVuSans-20" transform="translate(255.908203 0.015625)"/>
     <use xlink:href="#DejaVuSans-58" transform="translate(287.695312 0.015625)"/>
     <use xlink:href="#DejaVuSans-29" transform="translate(356.201172 0.015625)"/>
    </g>
   </g>
   <g id="text_40">
    <!-- $\mathbf{j}$ (eje Y) -->
    <g style="fill: #1f2937" transform="translate(738.370462 470.822209) scale(0.09 -0.09)">
     <use xlink:href="#DejaVuSans-Bold-6a" transform="translate(0 0.015625)"/>
     <use xlink:href="#DejaVuSans-20" transform="translate(34.277344 0.015625)"/>
     <use xlink:href="#DejaVuSans-28" transform="translate(66.064453 0.015625)"/>
     <use xlink:href="#DejaVuSans-65" transform="translate(105.078125 0.015625)"/>
     <use xlink:href="#DejaVuSans-6a" transform="translate(166.601562 0.015625)"/>
     <use xlink:href="#DejaVuSans-65" transform="translate(194.384766 0.015625)"/>
     <use xlink:href="#DejaVuSans-20" transform="translate(255.908203 0.015625)"/>
     <use xlink:href="#DejaVuSans-59" transform="translate(287.695312 0.015625)"/>
     <use xlink:href="#DejaVuSans-29" transform="translate(348.779297 0.015625)"/>
    </g>
   </g>
   <g id="text_41">
    <!-- $\mathbf{k}$ (eje Z) -->
    <g style="fill: #1f2937" transform="translate(858.580402 470.867209) scale(0.09 -0.09)">
     <use xlink:href="#DejaVuSans-Bold-6b" transform="translate(0 0.015625)"/>
     <use xlink:href="#DejaVuSans-20" transform="translate(66.503906 0.015625)"/>
     <use xlink:href="#DejaVuSans-28" transform="translate(98.291016 0.015625)"/>
     <use xlink:href="#DejaVuSans-65" transform="translate(137.304688 0.015625)"/>
     <use xlink:href="#DejaVuSans-6a" transform="translate(198.828125 0.015625)"/>
     <use xlink:href="#DejaVuSans-65" transform="translate(226.611328 0.015625)"/>
     <use xlink:href="#DejaVuSans-20" transform="translate(288.134766 0.015625)"/>
     <use xlink:href="#DejaVuSans-5a" transform="translate(319.921875 0.015625)"/>
     <use xlink:href="#DejaVuSans-29" transform="translate(388.427734 0.015625)"/>
    </g>
   </g>
  </g>
  <g id="text_42">
   <!-- Sistema de Coordenadas Cartesianas Tridimensional -->
   <g style="fill: #1f2937" transform="translate(250.613561 17.837812) scale(0.14 -0.14)">
    <defs>
     <path id="DejaVuSans-Bold-6c" d="M 538 4863 
L 1656 4863 
L 1656 0 
L 538 0 
L 538 4863 
z
" transform="scale(0.015625)"/>
    </defs>
    <use xlink:href="#DejaVuSans-Bold-53"/>
    <use xlink:href="#DejaVuSans-Bold-69" transform="translate(72.021484 0)"/>
    <use xlink:href="#DejaVuSans-Bold-73" transform="translate(106.298828 0)"/>
    <use xlink:href="#DejaVuSans-Bold-74" transform="translate(165.820312 0)"/>
    <use xlink:href="#DejaVuSans-Bold-65" transform="translate(213.623047 0)"/>
    <use xlink:href="#DejaVuSans-Bold-6d" transform="translate(281.445312 0)"/>
    <use xlink:href="#DejaVuSans-Bold-61" transform="translate(385.644531 0)"/>
    <use xlink:href="#DejaVuSans-Bold-20" transform="translate(453.125 0)"/>
    <use xlink:href="#DejaVuSans-Bold-64" transform="translate(487.939453 0)"/>
    <use xlink:href="#DejaVuSans-Bold-65" transform="translate(559.521484 0)"/>
    <use xlink:href="#DejaVuSans-Bold-20" transform="translate(627.34375 0)"/>
    <use xlink:href="#DejaVuSans-Bold-43" transform="translate(662.158203 0)"/>
    <use xlink:href="#DejaVuSans-Bold-6f" transform="translate(735.546875 0)"/>
    <use xlink:href="#DejaVuSans-Bold-6f" transform="translate(804.248047 0)"/>
    <use xlink:href="#DejaVuSans-Bold-72" transform="translate(872.949219 0)"/>
    <use xlink:href="#DejaVuSans-Bold-64" transform="translate(922.265625 0)"/>
    <use xlink:href="#DejaVuSans-Bold-65" transform="translate(993.847656 0)"/>
    <use xlink:href="#DejaVuSans-Bold-6e" transform="translate(1061.669922 0)"/>
    <use xlink:href="#DejaVuSans-Bold-61" transform="translate(1132.861328 0)"/>
    <use xlink:href="#DejaVuSans-Bold-64" transform="translate(1200.341797 0)"/>
    <use xlink:href="#DejaVuSans-Bold-61" transform="translate(1271.923828 0)"/>
    <use xlink:href="#DejaVuSans-Bold-73" transform="translate(1339.404297 0)"/>
    <use xlink:href="#DejaVuSans-Bold-20" transform="translate(1398.925781 0)"/>
    <use xlink:href="#DejaVuSans-Bold-43" transform="translate(1433.740234 0)"/>
    <use xlink:href="#DejaVuSans-Bold-61" transform="translate(1507.128906 0)"/>
    <use xlink:href="#DejaVuSans-Bold-72" transform="translate(1574.609375 0)"/>
    <use xlink:href="#DejaVuSans-Bold-74" transform="translate(1623.925781 0)"/>
    <use xlink:href="#DejaVuSans-Bold-65" transform="translate(1671.728516 0)"/>
    <use xlink:href="#DejaVuSans-Bold-73" transform="translate(1739.550781 0)"/>
    <use xlink:href="#DejaVuSans-Bold-69" transform="translate(1799.072266 0)"/>
    <use xlink:href="#DejaVuSans-Bold-61" transform="translate(1833.349609 0)"/>
    <use xlink:href="#DejaVuSans-Bold-6e" transform="translate(1900.830078 0)"/>
    <use xlink:href="#DejaVuSans-Bold-61" transform="translate(1972.021484 0)"/>
    <use xlink:href="#DejaVuSans-Bold-73" transform="translate(2039.501953 0)"/>
    <use xlink:href="#DejaVuSans-Bold-20" transform="translate(2099.023438 0)"/>
    <use xlink:href="#DejaVuSans-Bold-54" transform="translate(2133.837891 0)"/>
    <use xlink:href="#DejaVuSans-Bold-72" transform="translate(2191.050781 0)"/>
    <use xlink:href="#DejaVuSans-Bold-69" transform="translate(2240.367188 0)"/>
    <use xlink:href="#DejaVuSans-Bold-64" transform="translate(2274.644531 0)"/>
    <use xlink:href="#DejaVuSans-Bold-69" transform="translate(2346.226562 0)"/>
    <use xlink:href="#DejaVuSans-Bold-6d" transform="translate(2380.503906 0)"/>
    <use xlink:href="#DejaVuSans-Bold-65" transform="translate(2484.703125 0)"/>
    <use xlink:href="#DejaVuSans-Bold-6e" transform="translate(2552.525391 0)"/>
    <use xlink:href="#DejaVuSans-Bold-73" transform="translate(2623.716797 0)"/>
    <use xlink:href="#DejaVuSans-Bold-69" transform="translate(2683.238281 0)"/>
    <use xlink:href="#DejaVuSans-Bold-6f" transform="translate(2717.515625 0)"/>
    <use xlink:href="#DejaVuSans-Bold-6e" transform="translate(2786.216797 0)"/>
    <use xlink:href="#DejaVuSans-Bold-61" transform="translate(2857.408203 0)"/>
    <use xlink:href="#DejaVuSans-Bold-6c" transform="translate(2924.888672 0)"/>
   </g>
  </g>
 </g>
 <defs>
  <clipPath id="p4a47e7939c">
   <rect x="7.2" y="45.108136" width="460.091384" height="460.091384"/>
  </clipPath>
  <clipPath id="p927b3a723e">
   <rect x="558.055552" y="45.108136" width="400.6998" height="460.091384"/>
  </clipPath>
 </defs>
</svg>
